solid
facet normal -0.016897408291697502 0.0030996401328593493 -0.9998524188995361
 outer loop
  vertex 458500.0 5460500.0 3615.39990234375
  vertex 459500.0 5460500.0 3598.5
  vertex 459500.0 5459500.0 3595.39990234375
 endloop
endfacet
facet normal 0.012498963624238968 0.0030998406000435352 -0.9999170899391174
 outer loop
  vertex 459500.0 5460500.0 3598.5
  vertex 460500.0 5459500.0 3607.89990234375
  vertex 459500.0 5459500.0 3595.39990234375
 endloop
endfacet
facet normal 0.0024999326560646296 -0.006899716332554817 -0.9999730587005615
 outer loop
  vertex 459500.0 5460500.0 3598.5
  vertex 460500.0 5460500.0 3601.0
  vertex 460500.0 5459500.0 3607.89990234375
 endloop
endfacet
facet normal 0.00909950491040945 -0.006899452768266201 -0.9999347925186157
 outer loop
  vertex 460500.0 5460500.0 3601.0
  vertex 461500.0 5459500.0 3617.0
  vertex 460500.0 5459500.0 3607.89990234375
 endloop
endfacet
facet normal -0.005298772361129522 -0.02129491977393627 -0.9997591972351074
 outer loop
  vertex 460500.0 5460500.0 3601.0
  vertex 461500.0 5460500.0 3595.699951171875
  vertex 461500.0 5459500.0 3617.0
 endloop
endfacet
facet normal 0.014959843829274178 0.13503623008728027 -0.9907277226448059
 outer loop
  vertex 456500.0 5461500.0 3723.60009765625
  vertex 457500.0 5461500.0 3738.699951171875
  vertex 457500.0 5460500.0 3602.39990234375
 endloop
endfacet
facet normal 0.012879833579063416 0.13504014909267426 -0.9907564520835876
 outer loop
  vertex 457500.0 5461500.0 3738.699951171875
  vertex 458500.0 5460500.0 3615.39990234375
  vertex 457500.0 5460500.0 3602.39990234375
 endloop
endfacet
facet normal -0.08859790116548538 0.03414508327841759 -0.9954820871353149
 outer loop
  vertex 457500.0 5461500.0 3738.699951171875
  vertex 458500.0 5461500.0 3649.699951171875
  vertex 458500.0 5460500.0 3615.39990234375
 endloop
endfacet
facet normal -0.016887564212083817 0.03427499905228615 -0.9992697238922119
 outer loop
  vertex 458500.0 5461500.0 3649.699951171875
  vertex 459500.0 5460500.0 3598.5
  vertex 458500.0 5460500.0 3615.39990234375
 endloop
endfacet
facet normal -0.048343122005462646 0.0027967658825218678 -0.9988268613815308
 outer loop
  vertex 458500.0 5461500.0 3649.699951171875
  vertex 459500.0 5461500.0 3601.300048828125
  vertex 459500.0 5460500.0 3598.5
 endloop
endfacet
facet normal 0.002499982248991728 0.0028000290039926767 -0.9999929666519165
 outer loop
  vertex 459500.0 5461500.0 3601.300048828125
  vertex 460500.0 5460500.0 3601.0
  vertex 459500.0 5460500.0 3598.5
 endloop
endfacet
facet normal 0.007299643009901047 0.007599675562232733 -0.9999444484710693
 outer loop
  vertex 459500.0 5461500.0 3601.300048828125
  vertex 460500.0 5461500.0 3608.60009765625
  vertex 460500.0 5460500.0 3601.0
 endloop
endfacet
facet normal -0.005299821496009827 0.007599771488457918 -0.9999570846557617
 outer loop
  vertex 460500.0 5461500.0 3608.60009765625
  vertex 461500.0 5460500.0 3595.699951171875
  vertex 460500.0 5460500.0 3601.0
 endloop
endfacet
facet normal 0.015093382447957993 -0.025089336559176445 -0.9995713233947754
 outer loop
  vertex 456500.0 5462500.0 3698.5
  vertex 457500.0 5461500.0 3738.699951171875
  vertex 456500.0 5461500.0 3723.60009765625
 endloop
endfacet
facet normal 0.05252345651388168 0.012382077053189278 -0.9985429644584656
 outer loop
  vertex 456500.0 5462500.0 3698.5
  vertex 457500.0 5462500.0 3751.10009765625
  vertex 457500.0 5461500.0 3738.699951171875
 endloop
endfacet
facet normal -0.08864283561706543 0.012350384145975113 -0.9959869384765625
 outer loop
  vertex 457500.0 5462500.0 3751.10009765625
  vertex 458500.0 5461500.0 3649.699951171875
  vertex 457500.0 5461500.0 3738.699951171875
 endloop
endfacet
facet normal -0.06422325223684311 0.03689836710691452 -0.9972531795501709
 outer loop
  vertex 457500.0 5462500.0 3751.10009765625
  vertex 458500.0 5462500.0 3686.699951171875
  vertex 458500.0 5461500.0 3649.699951171875
 endloop
endfacet
facet normal -0.04831033572554588 0.03693152591586113 -0.9981493949890137
 outer loop
  vertex 458500.0 5462500.0 3686.699951171875
  vertex 459500.0 5461500.0 3601.300048828125
  vertex 458500.0 5461500.0 3649.699951171875
 endloop
endfacet
facet normal -0.07349560409784317 0.011667512357234955 -0.9972272515296936
 outer loop
  vertex 458500.0 5462500.0 3686.699951171875
  vertex 459500.0 5462500.0 3613.0
  vertex 459500.0 5461500.0 3601.300048828125
 endloop
endfacet
facet normal 0.007299354765564203 0.011698839254677296 -0.9999049305915833
 outer loop
  vertex 459500.0 5462500.0 3613.0
  vertex 460500.0 5461500.0 3608.60009765625
  vertex 459500.0 5461500.0 3601.300048828125
 endloop
endfacet
facet normal 0.05252431333065033 -0.010984151624143124 -0.9985591769218445
 outer loop
  vertex 456500.0 5463500.0 3687.5
  vertex 457500.0 5462500.0 3751.10009765625
  vertex 456500.0 5462500.0 3698.5
 endloop
endfacet
facet normal -0.010570446960628033 -0.07399263978004456 -0.9972028136253357
 outer loop
  vertex 456500.0 5463500.0 3687.5
  vertex 457500.0 5463500.0 3676.89990234375
  vertex 457500.0 5462500.0 3751.10009765625
 endloop
endfacet
facet normal -0.06409154832363129 -0.07384464144706726 -0.9952081441879272
 outer loop
  vertex 457500.0 5463500.0 3676.89990234375
  vertex 458500.0 5462500.0 3686.699951171875
  vertex 457500.0 5462500.0 3751.10009765625
 endloop
endfacet
facet normal -0.048460185527801514 -0.05823206901550293 -0.9971262216567993
 outer loop
  vertex 457500.0 5463500.0 3676.89990234375
  vertex 458500.0 5463500.0 3628.300048828125
  vertex 458500.0 5462500.0 3686.699951171875
 endloop
endfacet
facet normal -0.07337626069784164 -0.058143410831689835 -0.9956079721450806
 outer loop
  vertex 458500.0 5463500.0 3628.300048828125
  vertex 459500.0 5462500.0 3613.0
  vertex 458500.0 5462500.0 3686.699951171875
 endloop
endfacet
facet normal -0.01599794812500477 -0.000699861440807581 -0.9998717904090881
 outer loop
  vertex 458500.0 5463500.0 3628.300048828125
  vertex 459500.0 5463500.0 3612.300048828125
  vertex 459500.0 5462500.0 3613.0
 endloop
endfacet
facet normal -0.0006000836729072034 -0.006799890194088221 -0.9999766945838928
 outer loop
  vertex 455500.0 5464500.0 3681.300048828125
  vertex 456500.0 5464500.0 3680.699951171875
  vertex 456500.0 5463500.0 3687.5
 endloop
endfacet
facet normal -0.010599257424473763 -0.00679950974881649 -0.999920666217804
 outer loop
  vertex 456500.0 5464500.0 3680.699951171875
  vertex 457500.0 5463500.0 3676.89990234375
  vertex 456500.0 5463500.0 3687.5
 endloop
endfacet
facet normal -0.008799598552286625 -0.004999744240194559 -0.9999487996101379
 outer loop
  vertex 456500.0 5464500.0 3680.699951171875
  vertex 457500.0 5464500.0 3671.89990234375
  vertex 457500.0 5463500.0 3676.89990234375
 endloop
endfacet
facet normal -0.048541951924562454 -0.0049940431490540504 -0.9988086819648743
 outer loop
  vertex 457500.0 5464500.0 3671.89990234375
  vertex 458500.0 5463500.0 3628.300048828125
  vertex 457500.0 5463500.0 3676.89990234375
 endloop
endfacet
facet normal -0.06980492919683456 -0.026326576247811317 -0.9972132444381714
 outer loop
  vertex 457500.0 5464500.0 3671.89990234375
  vertex 458500.0 5464500.0 3601.89990234375
  vertex 458500.0 5463500.0 3628.300048828125
 endloop
endfacet
facet normal -0.015992382541298866 -0.026387576013803482 -0.9995238780975342
 outer loop
  vertex 458500.0 5464500.0 3601.89990234375
  vertex 459500.0 5463500.0 3612.300048828125
  vertex 458500.0 5463500.0 3628.300048828125
 endloop
endfacet
facet normal -0.0106969578191638 -0.021094195544719696 -0.9997202754020691
 outer loop
  vertex 458500.0 5464500.0 3601.89990234375
  vertex 459500.0 5464500.0 3591.199951171875
  vertex 459500.0 5463500.0 3612.300048828125
 endloop
endfacet
facet normal 9.98528630589135e-05 -0.0036000742111355066 -0.9999935030937195
 outer loop
  vertex 454500.0 5465500.0 3677.60009765625
  vertex 455500.0 5465500.0 3677.699951171875
  vertex 455500.0 5464500.0 3681.300048828125
 endloop
endfacet
facet normal -0.0006000936846248806 -0.0036000737454742193 -0.9999933838844299
 outer loop
  vertex 455500.0 5465500.0 3677.699951171875
  vertex 456500.0 5464500.0 3680.699951171875
  vertex 455500.0 5464500.0 3681.300048828125
 endloop
endfacet
facet normal -0.002099821576848626 -0.005099776200950146 -0.9999848008155823
 outer loop
  vertex 455500.0 5465500.0 3677.699951171875
  vertex 456500.0 5465500.0 3675.60009765625
  vertex 456500.0 5464500.0 3680.699951171875
 endloop
endfacet
facet normal -0.008799593895673752 -0.005099589470773935 -0.999948263168335
 outer loop
  vertex 456500.0 5465500.0 3675.60009765625
  vertex 457500.0 5464500.0 3671.89990234375
  vertex 456500.0 5464500.0 3680.699951171875
 endloop
endfacet
facet normal -0.01669645681977272 -0.012997089885175228 -0.9997761249542236
 outer loop
  vertex 456500.0 5465500.0 3675.60009765625
  vertex 457500.0 5465500.0 3658.89990234375
  vertex 457500.0 5464500.0 3671.89990234375
 endloop
endfacet
facet normal -0.069823257625103 -0.012967175804078579 -0.9974750876426697
 outer loop
  vertex 457500.0 5465500.0 3658.89990234375
  vertex 458500.0 5464500.0 3601.89990234375
  vertex 457500.0 5464500.0 3671.89990234375
 endloop
endfacet
facet normal -0.05869832634925842 -0.0017966985469684005 -0.9982741475105286
 outer loop
  vertex 457500.0 5465500.0 3658.89990234375
  vertex 458500.0 5465500.0 3600.10009765625
  vertex 458500.0 5464500.0 3601.89990234375
 endloop
endfacet
facet normal -0.010699321515858173 -0.0017996986862272024 -0.9999411106109619
 outer loop
  vertex 458500.0 5465500.0 3600.10009765625
  vertex 459500.0 5464500.0 3591.199951171875
  vertex 458500.0 5464500.0 3601.89990234375
 endloop
endfacet
facet normal -0.027983929961919785 -0.01908889226615429 -0.9994260668754578
 outer loop
  vertex 458500.0 5465500.0 3600.10009765625
  vertex 459500.0 5465500.0 3572.10009765625
  vertex 459500.0 5464500.0 3591.199951171875
 endloop
endfacet
facet normal -0.0020951153710484505 0.06714800000190735 -0.9977408051490784
 outer loop
  vertex 455500.0 5466500.0 3745.0
  vertex 456500.0 5465500.0 3675.60009765625
  vertex 455500.0 5465500.0 3677.699951171875
 endloop
endfacet
facet normal -0.07845398783683777 -0.009270980954170227 -0.9968746304512024
 outer loop
  vertex 455500.0 5466500.0 3745.0
  vertex 456500.0 5466500.0 3666.300048828125
  vertex 456500.0 5465500.0 3675.60009765625
 endloop
endfacet
facet normal -0.016697144135832787 -0.009298349730670452 -0.9998173713684082
 outer loop
  vertex 456500.0 5466500.0 3666.300048828125
  vertex 457500.0 5465500.0 3658.89990234375
  vertex 456500.0 5465500.0 3675.60009765625
 endloop
endfacet
facet normal -0.008499687537550926 -0.0010998131474480033 -0.9999632239341736
 outer loop
  vertex 456500.0 5466500.0 3666.300048828125
  vertex 457500.0 5466500.0 3657.800048828125
  vertex 457500.0 5465500.0 3658.89990234375
 endloop
endfacet
facet normal -0.0586983859539032 -0.0010979564394801855 -0.9982751607894897
 outer loop
  vertex 457500.0 5466500.0 3657.800048828125
  vertex 458500.0 5465500.0 3600.10009765625
  vertex 457500.0 5465500.0 3658.89990234375
 endloop
endfacet
facet normal -0.019681930541992188 0.037965238094329834 -0.9990851879119873
 outer loop
  vertex 457500.0 5466500.0 3657.800048828125
  vertex 458500.0 5466500.0 3638.10009765625
  vertex 458500.0 5465500.0 3600.10009765625
 endloop
endfacet
facet normal -0.027968859300017357 0.03795773908495903 -0.998887836933136
 outer loop
  vertex 458500.0 5466500.0 3638.10009765625
  vertex 459500.0 5465500.0 3572.10009765625
  vertex 458500.0 5465500.0 3600.10009765625
 endloop
endfacet
facet normal -0.045343831181526184 0.02057429775595665 -0.9987595677375793
 outer loop
  vertex 458500.0 5466500.0 3638.10009765625
  vertex 459500.0 5466500.0 3592.699951171875
  vertex 459500.0 5465500.0 3572.10009765625
 endloop
endfacet
facet normal 0.039560459554195404 0.02057936228811741 -0.9990052580833435
 outer loop
  vertex 459500.0 5466500.0 3592.699951171875
  vertex 460500.0 5465500.0 3611.699951171875
  vertex 459500.0 5465500.0 3572.10009765625
 endloop
endfacet
facet normal 0.029984695836901665 0.010994388721883297 -0.9994899034500122
 outer loop
  vertex 459500.0 5466500.0 3592.699951171875
  vertex 460500.0 5466500.0 3622.699951171875
  vertex 460500.0 5465500.0 3611.699951171875
 endloop
endfacet
facet normal -0.008496619760990143 -0.02688944712281227 -0.9996022582054138
 outer loop
  vertex 456500.0 5467500.0 3639.39990234375
  vertex 457500.0 5466500.0 3657.800048828125
  vertex 456500.0 5466500.0 3666.300048828125
 endloop
endfacet
facet normal 0.0024996763095259666 -0.0158980879932642 -0.9998705387115479
 outer loop
  vertex 456500.0 5467500.0 3639.39990234375
  vertex 457500.0 5467500.0 3641.89990234375
  vertex 457500.0 5466500.0 3657.800048828125
 endloop
endfacet
facet normal -0.019693640992045403 -0.0158950537443161 -0.9996797442436218
 outer loop
  vertex 457500.0 5467500.0 3641.89990234375
  vertex 458500.0 5466500.0 3638.10009765625
  vertex 457500.0 5466500.0 3657.800048828125
 endloop
endfacet
facet normal 0.029986467212438583 0.001699184300377965 -0.9995489120483398
 outer loop
  vertex 459500.0 5467500.0 3594.39990234375
  vertex 460500.0 5466500.0 3622.699951171875
  vertex 459500.0 5466500.0 3592.699951171875
 endloop
endfacet
facet normal -0.0034982103388756514 -0.03178378567099571 -0.9994886517524719
 outer loop
  vertex 459500.0 5467500.0 3594.39990234375
  vertex 460500.0 5467500.0 3590.89990234375
  vertex 460500.0 5466500.0 3622.699951171875
 endloop
endfacet
facet normal 0.002499980153515935 -0.0030998289585113525 -0.9999920725822449
 outer loop
  vertex 456500.0 5468500.0 3636.300048828125
  vertex 457500.0 5467500.0 3641.89990234375
  vertex 456500.0 5467500.0 3639.39990234375
 endloop
endfacet
facet normal 9.985200449591503e-05 -0.0054999166168272495 -0.999984860420227
 outer loop
  vertex 456500.0 5468500.0 3636.300048828125
  vertex 457500.0 5468500.0 3636.39990234375
  vertex 457500.0 5467500.0 3641.89990234375
 endloop
endfacet
endsolid
