solid
facet normal 0.05151326209306717 -0.21327358484268188 -0.9756335616111755
 outer loop
  vertex 478500.0 5408500.0 7690.0
  vertex 479500.0 5408500.0 7742.7998046875
  vertex 479500.0 5407500.0 7961.39990234375
 endloop
endfacet
facet normal -0.08217399567365646 -0.21283486485481262 -0.9736266136169434
 outer loop
  vertex 479500.0 5408500.0 7742.7998046875
  vertex 480500.0 5407500.0 7877.0
  vertex 479500.0 5407500.0 7961.39990234375
 endloop
endfacet
facet normal -0.22369611263275146 -0.34597742557525635 -0.9111858010292053
 outer loop
  vertex 479500.0 5408500.0 7742.7998046875
  vertex 480500.0 5408500.0 7497.2998046875
  vertex 480500.0 5407500.0 7877.0
 endloop
endfacet
facet normal 0.18812990188598633 -0.21905387938022614 -0.9574040770530701
 outer loop
  vertex 477500.0 5409500.0 7264.7001953125
  vertex 478500.0 5409500.0 7461.2001953125
  vertex 478500.0 5408500.0 7690.0
 endloop
endfacet
facet normal 0.05140175297856331 -0.2227415293455124 -0.9735214710235596
 outer loop
  vertex 478500.0 5409500.0 7461.2001953125
  vertex 479500.0 5408500.0 7742.7998046875
  vertex 478500.0 5408500.0 7690.0
 endloop
endfacet
facet normal -0.05696490406990051 -0.3229884207248688 -0.9446870684623718
 outer loop
  vertex 478500.0 5409500.0 7461.2001953125
  vertex 479500.0 5409500.0 7400.89990234375
  vertex 479500.0 5408500.0 7742.7998046875
 endloop
endfacet
facet normal -0.22627297043800354 -0.3151230216026306 -0.9216821193695068
 outer loop
  vertex 479500.0 5409500.0 7400.89990234375
  vertex 480500.0 5408500.0 7497.2998046875
  vertex 479500.0 5408500.0 7742.7998046875
 endloop
endfacet
facet normal -0.39284181594848633 -0.7114502191543579 -0.5826783180236816
 outer loop
  vertex 472500.0 5410500.0 7884.5
  vertex 473500.0 5410500.0 7210.2998046875
  vertex 473500.0 5409500.0 8431.2998046875
 endloop
endfacet
facet normal -0.5192482471466064 -0.6611765623092651 -0.5415041446685791
 outer loop
  vertex 473500.0 5410500.0 7210.2998046875
  vertex 474500.0 5409500.0 7472.39990234375
  vertex 473500.0 5409500.0 8431.2998046875
 endloop
endfacet
facet normal 0.3089551031589508 0.06017734110355377 -0.9491708278656006
 outer loop
  vertex 473500.0 5410500.0 7210.2998046875
  vertex 474500.0 5410500.0 7535.7998046875
  vertex 474500.0 5409500.0 7472.39990234375
 endloop
endfacet
facet normal -0.7135765552520752 0.04432753100991249 -0.6991735100746155
 outer loop
  vertex 474500.0 5410500.0 7535.7998046875
  vertex 475500.0 5409500.0 6451.7998046875
  vertex 474500.0 5409500.0 7472.39990234375
 endloop
endfacet
facet normal -0.49626511335372925 0.3600730895996094 -0.789979875087738
 outer loop
  vertex 474500.0 5410500.0 7535.7998046875
  vertex 475500.0 5410500.0 6907.60009765625
  vertex 475500.0 5409500.0 6451.7998046875
 endloop
endfacet
facet normal 0.4465690851211548 0.37109631299972534 -0.8141642808914185
 outer loop
  vertex 475500.0 5410500.0 6907.60009765625
  vertex 476500.0 5409500.0 7000.2998046875
  vertex 475500.0 5409500.0 6451.7998046875
 endloop
endfacet
facet normal -0.6146411895751953 -0.6553390622138977 -0.43902939558029175
 outer loop
  vertex 475500.0 5410500.0 6907.60009765625
  vertex 476500.0 5410500.0 5507.60009765625
  vertex 476500.0 5409500.0 7000.2998046875
 endloop
endfacet
facet normal 0.1455904245376587 -0.82194584608078 -0.550643801689148
 outer loop
  vertex 476500.0 5410500.0 5507.60009765625
  vertex 477500.0 5409500.0 7264.7001953125
  vertex 476500.0 5409500.0 7000.2998046875
 endloop
endfacet
facet normal 0.7442903518676758 -0.30219513177871704 -0.5955753326416016
 outer loop
  vertex 476500.0 5410500.0 5507.60009765625
  vertex 477500.0 5410500.0 6757.2998046875
  vertex 477500.0 5409500.0 7264.7001953125
 endloop
endfacet
facet normal 0.17260316014289856 -0.4456941783428192 -0.8783875703811646
 outer loop
  vertex 477500.0 5410500.0 6757.2998046875
  vertex 478500.0 5409500.0 7461.2001953125
  vertex 477500.0 5409500.0 7264.7001953125
 endloop
endfacet
facet normal 0.10683604329824448 -0.4986535906791687 -0.8601921796798706
 outer loop
  vertex 477500.0 5410500.0 6757.2998046875
  vertex 478500.0 5410500.0 6881.5
  vertex 478500.0 5409500.0 7461.2001953125
 endloop
endfacet
facet normal -0.052097566425800323 -0.5008429288864136 -0.8639688491821289
 outer loop
  vertex 478500.0 5410500.0 6881.5
  vertex 479500.0 5409500.0 7400.89990234375
  vertex 478500.0 5409500.0 7461.2001953125
 endloop
endfacet
facet normal -0.0010645712027326226 -0.4617713987827301 -0.8869982957839966
 outer loop
  vertex 478500.0 5410500.0 6881.5
  vertex 479500.0 5410500.0 6880.2998046875
  vertex 479500.0 5409500.0 7400.89990234375
 endloop
endfacet
facet normal 0.6669456362724304 -0.38592854142189026 -0.6373716592788696
 outer loop
  vertex 480500.0 5410500.0 5671.7001953125
  vertex 481500.0 5410500.0 6718.10009765625
  vertex 481500.0 5409500.0 7323.60009765625
 endloop
endfacet
facet normal -0.05543066933751106 -0.5171546339988708 -0.8540951609611511
 outer loop
  vertex 481500.0 5410500.0 6718.10009765625
  vertex 482500.0 5409500.0 7258.7001953125
  vertex 481500.0 5409500.0 7323.60009765625
 endloop
endfacet
facet normal 0.40605005621910095 -0.0857957974076271 -0.9098145365715027
 outer loop
  vertex 481500.0 5410500.0 6718.10009765625
  vertex 482500.0 5410500.0 7164.39990234375
  vertex 482500.0 5409500.0 7258.7001953125
 endloop
endfacet
facet normal 0.3054898679256439 -0.16076914966106415 -0.9385249614715576
 outer loop
  vertex 473500.0 5411500.0 7039.0
  vertex 474500.0 5410500.0 7535.7998046875
  vertex 473500.0 5410500.0 7210.2998046875
 endloop
endfacet
facet normal -0.008030868135392666 -0.4513346254825592 -0.8923186659812927
 outer loop
  vertex 473500.0 5411500.0 7039.0
  vertex 474500.0 5411500.0 7030.0
  vertex 474500.0 5410500.0 7535.7998046875
 endloop
endfacet
facet normal -0.48898348212242126 -0.3937087655067444 -0.778388500213623
 outer loop
  vertex 474500.0 5411500.0 7030.0
  vertex 475500.0 5410500.0 6907.60009765625
  vertex 474500.0 5410500.0 7535.7998046875
 endloop
endfacet
facet normal -0.6685624122619629 -0.6179175972938538 -0.41376563906669617
 outer loop
  vertex 474500.0 5411500.0 7030.0
  vertex 475500.0 5411500.0 5414.2001953125
  vertex 475500.0 5410500.0 6907.60009765625
 endloop
endfacet
facet normal -0.6145173907279968 -0.6555144190788269 -0.43894100189208984
 outer loop
  vertex 475500.0 5411500.0 5414.2001953125
  vertex 476500.0 5410500.0 5507.60009765625
  vertex 475500.0 5410500.0 6907.60009765625
 endloop
endfacet
facet normal 0.6591598391532898 0.6193193793296814 -0.4265579283237457
 outer loop
  vertex 475500.0 5411500.0 5414.2001953125
  vertex 476500.0 5411500.0 6959.5
  vertex 476500.0 5410500.0 5507.60009765625
 endloop
endfacet
facet normal 0.5783067345619202 0.6718761920928955 -0.46275654435157776
 outer loop
  vertex 476500.0 5411500.0 6959.5
  vertex 477500.0 5410500.0 6757.2998046875
  vertex 476500.0 5410500.0 5507.60009765625
 endloop
endfacet
facet normal -0.08630599826574326 0.11382072418928146 -0.9897454977035522
 outer loop
  vertex 476500.0 5411500.0 6959.5
  vertex 477500.0 5411500.0 6872.2998046875
  vertex 477500.0 5410500.0 6757.2998046875
 endloop
endfacet
facet normal 0.1224583238363266 0.11338716000318527 -0.9859753251075745
 outer loop
  vertex 477500.0 5411500.0 6872.2998046875
  vertex 478500.0 5410500.0 6881.5
  vertex 477500.0 5410500.0 6757.2998046875
 endloop
endfacet
facet normal -0.19583621621131897 -0.2046595960855484 -0.9590426087379456
 outer loop
  vertex 477500.0 5411500.0 6872.2998046875
  vertex 478500.0 5411500.0 6668.10009765625
  vertex 478500.0 5410500.0 6881.5
 endloop
endfacet
facet normal -0.0011737733148038387 -0.20870059728622437 -0.9779788255691528
 outer loop
  vertex 478500.0 5411500.0 6668.10009765625
  vertex 479500.0 5410500.0 6880.2998046875
  vertex 478500.0 5410500.0 6881.5
 endloop
endfacet
facet normal -0.5714734792709351 -0.6715531349182129 -0.47162944078445435
 outer loop
  vertex 478500.0 5411500.0 6668.10009765625
  vertex 479500.0 5411500.0 5456.39990234375
  vertex 479500.0 5410500.0 6880.2998046875
 endloop
endfacet
facet normal -0.5704874992370605 -0.6721143126487732 -0.4720235764980316
 outer loop
  vertex 479500.0 5411500.0 5456.39990234375
  vertex 480500.0 5410500.0 5671.7001953125
  vertex 479500.0 5410500.0 6880.2998046875
 endloop
endfacet
facet normal 0.3418649733066559 0.14185510575771332 -0.9289809465408325
 outer loop
  vertex 479500.0 5411500.0 5456.39990234375
  vertex 480500.0 5411500.0 5824.39990234375
  vertex 480500.0 5410500.0 5671.7001953125
 endloop
endfacet
facet normal 0.7189638018608093 0.10491740703582764 -0.6870832443237305
 outer loop
  vertex 480500.0 5411500.0 5824.39990234375
  vertex 481500.0 5410500.0 6718.10009765625
  vertex 480500.0 5410500.0 5671.7001953125
 endloop
endfacet
facet normal 0.7712135314941406 0.2468024045228958 -0.5867863893508911
 outer loop
  vertex 480500.0 5411500.0 5824.39990234375
  vertex 481500.0 5411500.0 7138.7001953125
  vertex 481500.0 5410500.0 6718.10009765625
 endloop
endfacet
facet normal 0.38045528531074524 0.3585471510887146 -0.8524656891822815
 outer loop
  vertex 481500.0 5411500.0 7138.7001953125
  vertex 482500.0 5410500.0 7164.39990234375
  vertex 481500.0 5410500.0 6718.10009765625
 endloop
endfacet
facet normal 0.007898404262959957 -0.017796430736780167 -0.9998103976249695
 outer loop
  vertex 481500.0 5411500.0 7138.7001953125
  vertex 482500.0 5411500.0 7146.60009765625
  vertex 482500.0 5410500.0 7164.39990234375
 endloop
endfacet
facet normal -0.8071605563163757 -0.31456196308135986 -0.4995424449443817
 outer loop
  vertex 474500.0 5412500.0 6400.2998046875
  vertex 475500.0 5411500.0 5414.2001953125
  vertex 474500.0 5411500.0 7030.0
 endloop
endfacet
facet normal 0.0209696963429451 0.712539553642273 -0.7013184428215027
 outer loop
  vertex 474500.0 5412500.0 6400.2998046875
  vertex 475500.0 5412500.0 6430.2001953125
  vertex 475500.0 5411500.0 5414.2001953125
 endloop
endfacet
facet normal 0.7350069284439087 0.48325061798095703 -0.4756403863430023
 outer loop
  vertex 475500.0 5412500.0 6430.2001953125
  vertex 476500.0 5411500.0 6959.5
  vertex 475500.0 5411500.0 5414.2001953125
 endloop
endfacet
facet normal -0.4316154718399048 -0.7195584177970886 -0.5440071821212769
 outer loop
  vertex 475500.0 5412500.0 6430.2001953125
  vertex 476500.0 5412500.0 5636.7998046875
  vertex 476500.0 5411500.0 6959.5
 endloop
endfacet
facet normal -0.05251559987664223 -0.7965848445892334 -0.6022413969039917
 outer loop
  vertex 476500.0 5412500.0 5636.7998046875
  vertex 477500.0 5411500.0 6872.2998046875
  vertex 476500.0 5411500.0 6959.5
 endloop
endfacet
facet normal 0.7445744276046753 -0.07495492696762085 -0.6633179783821106
 outer loop
  vertex 476500.0 5412500.0 5636.7998046875
  vertex 477500.0 5412500.0 6759.2998046875
  vertex 477500.0 5411500.0 6872.2998046875
 endloop
endfacet
facet normal -0.19885601103305817 -0.11004290729761124 -0.973831057548523
 outer loop
  vertex 477500.0 5412500.0 6759.2998046875
  vertex 478500.0 5411500.0 6668.10009765625
  vertex 477500.0 5411500.0 6872.2998046875
 endloop
endfacet
facet normal -0.645589292049408 -0.6028314232826233 -0.46883752942085266
 outer loop
  vertex 477500.0 5412500.0 6759.2998046875
  vertex 478500.0 5412500.0 5382.2998046875
  vertex 478500.0 5411500.0 6668.10009765625
 endloop
endfacet
facet normal -0.5968531966209412 -0.633353054523468 -0.4925750195980072
 outer loop
  vertex 478500.0 5412500.0 5382.2998046875
  vertex 479500.0 5411500.0 5456.39990234375
  vertex 478500.0 5411500.0 6668.10009765625
 endloop
endfacet
facet normal 0.6480318903923035 0.6147129535675049 -0.44964736700057983
 outer loop
  vertex 478500.0 5412500.0 5382.2998046875
  vertex 479500.0 5412500.0 6823.5
  vertex 479500.0 5411500.0 5456.39990234375
 endloop
endfacet
facet normal 0.21230971813201904 0.7887191772460938 -0.5769286155700684
 outer loop
  vertex 479500.0 5412500.0 6823.5
  vertex 480500.0 5411500.0 5824.39990234375
  vertex 479500.0 5411500.0 5456.39990234375
 endloop
endfacet
facet normal 0.07151073217391968 0.7398591637611389 -0.6689503788948059
 outer loop
  vertex 479500.0 5412500.0 6823.5
  vertex 480500.0 5412500.0 6930.39990234375
  vertex 480500.0 5411500.0 5824.39990234375
 endloop
endfacet
facet normal 0.66124427318573 0.5564452409744263 -0.5031150579452515
 outer loop
  vertex 480500.0 5412500.0 6930.39990234375
  vertex 481500.0 5411500.0 7138.7001953125
  vertex 480500.0 5411500.0 5824.39990234375
 endloop
endfacet
facet normal -0.048830967396497726 -0.25024691224098206 -0.9669498205184937
 outer loop
  vertex 480500.0 5412500.0 6930.39990234375
  vertex 481500.0 5412500.0 6879.89990234375
  vertex 481500.0 5411500.0 7138.7001953125
 endloop
endfacet
facet normal 0.007647698279470205 -0.2505384683609009 -0.9680764675140381
 outer loop
  vertex 481500.0 5412500.0 6879.89990234375
  vertex 482500.0 5411500.0 7146.60009765625
  vertex 481500.0 5411500.0 7138.7001953125
 endloop
endfacet
facet normal 0.02243812568485737 -0.23661932349205017 -0.9713432788848877
 outer loop
  vertex 481500.0 5412500.0 6879.89990234375
  vertex 482500.0 5412500.0 6903.0
  vertex 482500.0 5411500.0 7146.60009765625
 endloop
endfacet
facet normal -0.005732183810323477 -0.23667502403259277 -0.9715719819068909
 outer loop
  vertex 482500.0 5412500.0 6903.0
  vertex 483500.0 5411500.0 7140.7001953125
  vertex 482500.0 5411500.0 7146.60009765625
 endloop
endfacet
facet normal -0.22833280265331268 -0.43533018231391907 -0.8708338737487793
 outer loop
  vertex 482500.0 5412500.0 6903.0
  vertex 483500.0 5412500.0 6640.7998046875
  vertex 483500.0 5411500.0 7140.7001953125
 endloop
endfacet
facet normal -0.230559840798378 -0.4350954592227936 -0.8703643679618835
 outer loop
  vertex 483500.0 5412500.0 6640.7998046875
  vertex 484500.0 5411500.0 6875.7998046875
  vertex 483500.0 5411500.0 7140.7001953125
 endloop
endfacet
facet normal 0.02275732159614563 -0.6482314467430115 -0.7611032724380493
 outer loop
  vertex 474500.0 5413500.0 5548.60009765625
  vertex 475500.0 5412500.0 6430.2001953125
  vertex 474500.0 5412500.0 6400.2998046875
 endloop
endfacet
facet normal 0.03300834074616432 -0.6421678066253662 -0.7658530473709106
 outer loop
  vertex 474500.0 5413500.0 5548.60009765625
  vertex 475500.0 5413500.0 5591.7001953125
  vertex 475500.0 5412500.0 6430.2001953125
 endloop
endfacet
facet normal -0.5194877982139587 -0.5490173101425171 -0.6547612547874451
 outer loop
  vertex 475500.0 5413500.0 5591.7001953125
  vertex 476500.0 5412500.0 5636.7998046875
  vertex 475500.0 5412500.0 6430.2001953125
 endloop
endfacet
facet normal 0.1650339514017105 0.1208881363272667 -0.978851318359375
 outer loop
  vertex 475500.0 5413500.0 5591.7001953125
  vertex 476500.0 5413500.0 5760.2998046875
  vertex 476500.0 5412500.0 5636.7998046875
 endloop
endfacet
facet normal 0.7441679835319519 0.08187504857778549 -0.6629558801651001
 outer loop
  vertex 476500.0 5413500.0 5760.2998046875
  vertex 477500.0 5412500.0 6759.2998046875
  vertex 476500.0 5412500.0 5636.7998046875
 endloop
endfacet
facet normal -0.2584182322025299 -0.7997473478317261 -0.5418710112571716
 outer loop
  vertex 476500.0 5413500.0 5760.2998046875
  vertex 477500.0 5413500.0 5283.39990234375
  vertex 477500.0 5412500.0 6759.2998046875
 endloop
endfacet
facet normal -0.6112813949584961 -0.6551852822303772 -0.44392257928848267
 outer loop
  vertex 477500.0 5413500.0 5283.39990234375
  vertex 478500.0 5412500.0 5382.2998046875
  vertex 477500.0 5412500.0 6759.2998046875
 endloop
endfacet
facet normal 0.6006755232810974 0.5426044464111328 -0.5871706008911133
 outer loop
  vertex 477500.0 5413500.0 5283.39990234375
  vertex 478500.0 5413500.0 6306.39990234375
  vertex 478500.0 5412500.0 5382.2998046875
 endloop
endfacet
facet normal 0.7268951535224915 0.46608641743659973 -0.5043678879737854
 outer loop
  vertex 478500.0 5413500.0 6306.39990234375
  vertex 479500.0 5412500.0 6823.5
  vertex 478500.0 5412500.0 5382.2998046875
 endloop
endfacet
facet normal 0.2683362364768982 -0.21699687838554382 -0.938567042350769
 outer loop
  vertex 478500.0 5413500.0 6306.39990234375
  vertex 479500.0 5413500.0 6592.2998046875
  vertex 479500.0 5412500.0 6823.5
 endloop
endfacet
facet normal 0.10359213501214981 -0.2240462303161621 -0.9690572619438171
 outer loop
  vertex 479500.0 5413500.0 6592.2998046875
  vertex 480500.0 5412500.0 6930.39990234375
  vertex 479500.0 5412500.0 6823.5
 endloop
endfacet
facet normal -0.034529849886894226 -0.3509140610694885 -0.9357708096504211
 outer loop
  vertex 479500.0 5413500.0 6592.2998046875
  vertex 480500.0 5413500.0 6555.39990234375
  vertex 480500.0 5412500.0 6930.39990234375
 endloop
endfacet
facet normal -0.047231849282979965 -0.35073158144950867 -0.9352841973304749
 outer loop
  vertex 480500.0 5413500.0 6555.39990234375
  vertex 481500.0 5412500.0 6879.89990234375
  vertex 480500.0 5412500.0 6930.39990234375
 endloop
endfacet
facet normal 0.14930813014507294 -0.16694794595241547 -0.9745950102806091
 outer loop
  vertex 480500.0 5413500.0 6555.39990234375
  vertex 481500.0 5413500.0 6708.60009765625
  vertex 481500.0 5412500.0 6879.89990234375
 endloop
endfacet
facet normal 0.02276255562901497 -0.16879677772521973 -0.9853879809379578
 outer loop
  vertex 481500.0 5413500.0 6708.60009765625
  vertex 482500.0 5412500.0 6903.0
  vertex 481500.0 5412500.0 6879.89990234375
 endloop
endfacet
facet normal -0.006078977137804031 -0.19667822122573853 -0.9804493188858032
 outer loop
  vertex 481500.0 5413500.0 6708.60009765625
  vertex 482500.0 5413500.0 6702.39990234375
  vertex 482500.0 5412500.0 6903.0
 endloop
endfacet
facet normal -0.24898278713226318 -0.19048792123794556 -0.9495903849601746
 outer loop
  vertex 482500.0 5413500.0 6702.39990234375
  vertex 483500.0 5412500.0 6640.7998046875
  vertex 482500.0 5412500.0 6903.0
 endloop
endfacet
facet normal -0.36944589018821716 -0.3156064748764038 -0.8740149736404419
 outer loop
  vertex 482500.0 5413500.0 6702.39990234375
  vertex 483500.0 5413500.0 6279.7001953125
  vertex 483500.0 5412500.0 6640.7998046875
 endloop
endfacet
facet normal -0.39535412192344666 0.08777519315481186 -0.9143252372741699
 outer loop
  vertex 473500.0 5414500.0 6077.0
  vertex 474500.0 5414500.0 5644.60009765625
  vertex 474500.0 5413500.0 5548.60009765625
 endloop
endfacet
facet normal 0.042863424867391586 0.09547284245491028 -0.9945087432861328
 outer loop
  vertex 474500.0 5414500.0 5644.60009765625
  vertex 475500.0 5413500.0 5591.7001953125
  vertex 474500.0 5413500.0 5548.60009765625
 endloop
endfacet
facet normal -0.3283761739730835 -0.2806665897369385 -0.9018843173980713
 outer loop
  vertex 474500.0 5414500.0 5644.60009765625
  vertex 475500.0 5414500.0 5280.5
  vertex 475500.0 5413500.0 5591.7001953125
 endloop
endfacet
facet normal 0.15893808007240295 -0.2933669686317444 -0.9426953196525574
 outer loop
  vertex 475500.0 5414500.0 5280.5
  vertex 476500.0 5413500.0 5760.2998046875
  vertex 475500.0 5413500.0 5591.7001953125
 endloop
endfacet
facet normal 0.3268498182296753 -0.12275615334510803 -0.9370698928833008
 outer loop
  vertex 475500.0 5414500.0 5280.5
  vertex 476500.0 5414500.0 5629.2998046875
  vertex 476500.0 5413500.0 5760.2998046875
 endloop
endfacet
facet normal -0.42747756838798523 -0.1174241378903389 -0.8963674902915955
 outer loop
  vertex 476500.0 5414500.0 5629.2998046875
  vertex 477500.0 5413500.0 5283.39990234375
  vertex 476500.0 5413500.0 5760.2998046875
 endloop
endfacet
facet normal -0.42060908675193787 -0.10907023400068283 -0.900661826133728
 outer loop
  vertex 476500.0 5414500.0 5629.2998046875
  vertex 477500.0 5414500.0 5162.2998046875
  vertex 477500.0 5413500.0 5283.39990234375
 endloop
endfacet
facet normal 0.7125513553619385 -0.08434998244047165 -0.6965311169624329
 outer loop
  vertex 477500.0 5414500.0 5162.2998046875
  vertex 478500.0 5413500.0 6306.39990234375
  vertex 477500.0 5413500.0 5283.39990234375
 endloop
endfacet
facet normal 0.28006690740585327 -0.5880568623542786 -0.7587830424308777
 outer loop
  vertex 477500.0 5414500.0 5162.2998046875
  vertex 478500.0 5414500.0 5531.39990234375
  vertex 478500.0 5413500.0 6306.39990234375
 endloop
endfacet
facet normal 0.22042153775691986 -0.5975052714347839 -0.7709745764732361
 outer loop
  vertex 478500.0 5414500.0 5531.39990234375
  vertex 479500.0 5413500.0 6592.2998046875
  vertex 478500.0 5413500.0 6306.39990234375
 endloop
endfacet
facet normal 0.424045592546463 -0.42460525035858154 -0.7999348640441895
 outer loop
  vertex 478500.0 5414500.0 5531.39990234375
  vertex 479500.0 5414500.0 6061.5
  vertex 479500.0 5413500.0 6592.2998046875
 endloop
endfacet
facet normal -0.03257566690444946 -0.4685962498188019 -0.8828116059303284
 outer loop
  vertex 479500.0 5414500.0 6061.5
  vertex 480500.0 5413500.0 6555.39990234375
  vertex 479500.0 5413500.0 6592.2998046875
 endloop
endfacet
facet normal 0.14533841609954834 -0.31747645139694214 -0.9370620846748352
 outer loop
  vertex 479500.0 5414500.0 6061.5
  vertex 480500.0 5414500.0 6216.60009765625
  vertex 480500.0 5413500.0 6555.39990234375
 endloop
endfacet
facet normal 0.14359502494335175 -0.3175581395626068 -0.9373031854629517
 outer loop
  vertex 480500.0 5414500.0 6216.60009765625
  vertex 481500.0 5413500.0 6708.60009765625
  vertex 480500.0 5413500.0 6555.39990234375
 endloop
endfacet
facet normal 0.10069455951452255 -0.35633280873298645 -0.928917407989502
 outer loop
  vertex 480500.0 5414500.0 6216.60009765625
  vertex 481500.0 5414500.0 6325.0
  vertex 481500.0 5413500.0 6708.60009765625
 endloop
endfacet
facet normal -0.005788787733763456 -0.35814714431762695 -0.9336472153663635
 outer loop
  vertex 481500.0 5414500.0 6325.0
  vertex 482500.0 5413500.0 6702.39990234375
  vertex 481500.0 5413500.0 6708.60009765625
 endloop
endfacet
facet normal 0.05372020602226257 -0.30511167645454407 -0.9508001208305359
 outer loop
  vertex 481500.0 5414500.0 6325.0
  vertex 482500.0 5414500.0 6381.5
  vertex 482500.0 5413500.0 6702.39990234375
 endloop
endfacet
facet normal -0.3733764588832855 -0.2834552824497223 -0.8833137154579163
 outer loop
  vertex 482500.0 5414500.0 6381.5
  vertex 483500.0 5413500.0 6279.7001953125
  vertex 482500.0 5413500.0 6702.39990234375
 endloop
endfacet
facet normal -0.39274632930755615 -0.1440555453300476 -0.9082942008972168
 outer loop
  vertex 473500.0 5415500.0 5918.39990234375
  vertex 474500.0 5414500.0 5644.60009765625
  vertex 473500.0 5414500.0 6077.0
 endloop
endfacet
facet normal 0.031438250094652176 0.2930738925933838 -0.955572783946991
 outer loop
  vertex 473500.0 5415500.0 5918.39990234375
  vertex 474500.0 5415500.0 5951.2998046875
  vertex 474500.0 5414500.0 5644.60009765625
 endloop
endfacet
facet normal -0.3287481665611267 0.27692100405693054 -0.9029060006141663
 outer loop
  vertex 474500.0 5415500.0 5951.2998046875
  vertex 475500.0 5414500.0 5280.5
  vertex 474500.0 5414500.0 5644.60009765625
 endloop
endfacet
facet normal 0.06131819635629654 0.5975910425186157 -0.7994529604911804
 outer loop
  vertex 474500.0 5415500.0 5951.2998046875
  vertex 475500.0 5415500.0 6028.0
  vertex 475500.0 5414500.0 5280.5
 endloop
endfacet
facet normal 0.269071489572525 0.5766371488571167 -0.771420955657959
 outer loop
  vertex 475500.0 5415500.0 6028.0
  vertex 476500.0 5414500.0 5629.2998046875
  vertex 475500.0 5414500.0 5280.5
 endloop
endfacet
facet normal -0.41308867931365967 -0.050555989146232605 -0.9092864990234375
 outer loop
  vertex 475500.0 5415500.0 6028.0
  vertex 476500.0 5415500.0 5573.7001953125
  vertex 476500.0 5414500.0 5629.2998046875
 endloop
endfacet
facet normal -0.4225975573062897 -0.05031318962574005 -0.9049198627471924
 outer loop
  vertex 476500.0 5415500.0 5573.7001953125
  vertex 477500.0 5414500.0 5162.2998046875
  vertex 476500.0 5414500.0 5629.2998046875
 endloop
endfacet
facet normal 0.03562647104263306 0.4104830026626587 -0.9111720323562622
 outer loop
  vertex 476500.0 5415500.0 5573.7001953125
  vertex 477500.0 5415500.0 5612.7998046875
  vertex 477500.0 5414500.0 5162.2998046875
 endloop
endfacet
facet normal 0.31895092129707336 0.3892911374568939 -0.8641312122344971
 outer loop
  vertex 477500.0 5415500.0 5612.7998046875
  vertex 478500.0 5414500.0 5531.39990234375
  vertex 477500.0 5414500.0 5162.2998046875
 endloop
endfacet
facet normal -0.16139720380306244 -0.08133779466152191 -0.9835319519042969
 outer loop
  vertex 477500.0 5415500.0 5612.7998046875
  vertex 478500.0 5415500.0 5448.7001953125
  vertex 478500.0 5414500.0 5531.39990234375
 endloop
endfacet
facet normal 0.46711739897727966 -0.07287391275167465 -0.8811871409416199
 outer loop
  vertex 478500.0 5415500.0 5448.7001953125
  vertex 479500.0 5414500.0 6061.5
  vertex 478500.0 5414500.0 5531.39990234375
 endloop
endfacet
facet normal -0.23587028682231903 -0.6682398915290833 -0.7055641412734985
 outer loop
  vertex 478500.0 5415500.0 5448.7001953125
  vertex 479500.0 5415500.0 5114.39990234375
  vertex 479500.0 5414500.0 6061.5
 endloop
endfacet
facet normal 0.11190314590930939 -0.6833230257034302 -0.7214897274971008
 outer loop
  vertex 479500.0 5415500.0 5114.39990234375
  vertex 480500.0 5414500.0 6216.60009765625
  vertex 479500.0 5414500.0 6061.5
 endloop
endfacet
facet normal 0.48624032735824585 -0.38068631291389465 -0.7865418791770935
 outer loop
  vertex 479500.0 5415500.0 5114.39990234375
  vertex 480500.0 5415500.0 5732.60009765625
  vertex 480500.0 5414500.0 6216.60009765625
 endloop
endfacet
facet normal 0.0971110463142395 -0.4335959255695343 -0.8958593606948853
 outer loop
  vertex 480500.0 5415500.0 5732.60009765625
  vertex 481500.0 5414500.0 6325.0
  vertex 480500.0 5414500.0 6216.60009765625
 endloop
endfacet
facet normal 0.2466486543416977 -0.2993699610233307 -0.9217061400413513
 outer loop
  vertex 480500.0 5415500.0 5732.60009765625
  vertex 481500.0 5415500.0 6000.2001953125
  vertex 481500.0 5414500.0 6325.0
 endloop
endfacet
facet normal 0.05365917086601257 -0.3084688186645508 -0.9497197866439819
 outer loop
  vertex 481500.0 5415500.0 6000.2001953125
  vertex 482500.0 5414500.0 6381.5
  vertex 481500.0 5414500.0 6325.0
 endloop
endfacet
facet normal -0.29385435581207275 0.22841934859752655 -0.928156316280365
 outer loop
  vertex 472500.0 5416500.0 6481.10009765625
  vertex 473500.0 5416500.0 6164.5
  vertex 473500.0 5415500.0 5918.39990234375
 endloop
endfacet
facet normal 0.031930405646562576 0.2388479858636856 -0.9705318808555603
 outer loop
  vertex 473500.0 5416500.0 6164.5
  vertex 474500.0 5415500.0 5951.2998046875
  vertex 473500.0 5415500.0 5918.39990234375
 endloop
endfacet
facet normal -0.1478564739227295 0.06257788836956024 -0.9870270490646362
 outer loop
  vertex 473500.0 5416500.0 6164.5
  vertex 474500.0 5416500.0 6014.7001953125
  vertex 474500.0 5415500.0 5951.2998046875
 endloop
endfacet
facet normal 0.07632323354482651 0.0630887895822525 -0.9950852394104004
 outer loop
  vertex 474500.0 5416500.0 6014.7001953125
  vertex 475500.0 5415500.0 6028.0
  vertex 474500.0 5415500.0 5951.2998046875
 endloop
endfacet
facet normal 0.12853766977787018 0.11543785780668259 -0.9849629998207092
 outer loop
  vertex 474500.0 5416500.0 6014.7001953125
  vertex 475500.0 5416500.0 6145.2001953125
  vertex 475500.0 5415500.0 6028.0
 endloop
endfacet
facet normal -0.4112827777862549 0.10610266774892807 -0.9053113460540771
 outer loop
  vertex 475500.0 5416500.0 6145.2001953125
  vertex 476500.0 5415500.0 5573.7001953125
  vertex 475500.0 5415500.0 6028.0
 endloop
endfacet
facet normal -0.4154636859893799 0.1011539101600647 -0.9039677977561951
 outer loop
  vertex 475500.0 5416500.0 6145.2001953125
  vertex 476500.0 5416500.0 5685.60009765625
  vertex 476500.0 5415500.0 5573.7001953125
 endloop
endfacet
facet normal 0.03882778808474541 0.11112197488546371 -0.9930479526519775
 outer loop
  vertex 476500.0 5416500.0 5685.60009765625
  vertex 477500.0 5415500.0 5612.7998046875
  vertex 476500.0 5415500.0 5573.7001953125
 endloop
endfacet
facet normal 0.2570838928222656 0.3233814537525177 -0.9106768369674683
 outer loop
  vertex 476500.0 5416500.0 5685.60009765625
  vertex 477500.0 5416500.0 5967.89990234375
  vertex 477500.0 5415500.0 5612.7998046875
 endloop
endfacet
facet normal -0.1528228521347046 0.3306979238986969 -0.9312809109687805
 outer loop
  vertex 477500.0 5416500.0 5967.89990234375
  vertex 478500.0 5415500.0 5448.7001953125
  vertex 477500.0 5415500.0 5612.7998046875
 endloop
endfacet
facet normal 0.15864159166812897 0.5752657055854797 -0.8024352192878723
 outer loop
  vertex 477500.0 5416500.0 5967.89990234375
  vertex 478500.0 5416500.0 6165.60009765625
  vertex 478500.0 5415500.0 5448.7001953125
 endloop
endfacet
facet normal -0.26219016313552856 0.5622610449790955 -0.7842951416969299
 outer loop
  vertex 478500.0 5416500.0 6165.60009765625
  vertex 479500.0 5415500.0 5114.39990234375
  vertex 478500.0 5415500.0 5448.7001953125
 endloop
endfacet
facet normal 0.0270152036100626 0.7369748950004578 -0.6753801107406616
 outer loop
  vertex 478500.0 5416500.0 6165.60009765625
  vertex 479500.0 5416500.0 6205.60009765625
  vertex 479500.0 5415500.0 5114.39990234375
 endloop
endfacet
facet normal 0.38540613651275635 0.6802896857261658 -0.6234325170516968
 outer loop
  vertex 479500.0 5416500.0 6205.60009765625
  vertex 480500.0 5415500.0 5732.60009765625
  vertex 479500.0 5415500.0 5114.39990234375
 endloop
endfacet
facet normal -0.679600179195404 -0.3839316666126251 -0.6250920295715332
 outer loop
  vertex 479500.0 5416500.0 6205.60009765625
  vertex 480500.0 5416500.0 5118.39990234375
  vertex 480500.0 5415500.0 5732.60009765625
 endloop
endfacet
facet normal 0.2223178595304489 -0.5102676153182983 -0.8307838439941406
 outer loop
  vertex 480500.0 5416500.0 5118.39990234375
  vertex 481500.0 5415500.0 6000.2001953125
  vertex 480500.0 5415500.0 5732.60009765625
 endloop
endfacet
facet normal 0.56565922498703 -0.14946405589580536 -0.810981035232544
 outer loop
  vertex 480500.0 5416500.0 5118.39990234375
  vertex 481500.0 5416500.0 5815.89990234375
  vertex 481500.0 5415500.0 6000.2001953125
 endloop
endfacet
facet normal -0.14814285933971405 -0.007318051531910896 -0.9889389276504517
 outer loop
  vertex 473500.0 5417500.0 6157.10009765625
  vertex 474500.0 5416500.0 6014.7001953125
  vertex 473500.0 5416500.0 6164.5
 endloop
endfacet
facet normal 0.2587350308895111 0.3050195872783661 -0.9165257215499878
 outer loop
  vertex 476500.0 5417500.0 6018.39990234375
  vertex 477500.0 5416500.0 5967.89990234375
  vertex 476500.0 5416500.0 5685.60009765625
 endloop
endfacet
facet normal -0.02118585631251335 0.029281150549650192 -0.9993466734886169
 outer loop
  vertex 476500.0 5417500.0 6018.39990234375
  vertex 477500.0 5417500.0 5997.2001953125
  vertex 477500.0 5416500.0 5967.89990234375
 endloop
endfacet
facet normal 0.19386623799800873 0.028732076287269592 -0.9806071519851685
 outer loop
  vertex 477500.0 5417500.0 5997.2001953125
  vertex 478500.0 5416500.0 6165.60009765625
  vertex 477500.0 5416500.0 5967.89990234375
 endloop
endfacet
facet normal -0.009942445904016495 -0.17571380734443665 -0.9843910932540894
 outer loop
  vertex 477500.0 5417500.0 5997.2001953125
  vertex 478500.0 5417500.0 5987.10009765625
  vertex 478500.0 5416500.0 6165.60009765625
 endloop
endfacet
facet normal 0.039347097277641296 -0.17558641731739044 -0.9836773872375488
 outer loop
  vertex 478500.0 5417500.0 5987.10009765625
  vertex 479500.0 5416500.0 6205.60009765625
  vertex 478500.0 5416500.0 6165.60009765625
 endloop
endfacet
facet normal -0.013926505111157894 -0.22671526670455933 -0.973861575126648
 outer loop
  vertex 478500.0 5417500.0 5987.10009765625
  vertex 479500.0 5417500.0 5972.7998046875
  vertex 479500.0 5416500.0 6205.60009765625
 endloop
endfacet
facet normal -0.7270330786705017 -0.15567834675312042 -0.6687206029891968
 outer loop
  vertex 479500.0 5417500.0 5972.7998046875
  vertex 480500.0 5416500.0 5118.39990234375
  vertex 479500.0 5416500.0 6205.60009765625
 endloop
endfacet
facet normal -0.11608057469129562 0.5755463242530823 -0.8094884753227234
 outer loop
  vertex 479500.0 5417500.0 5972.7998046875
  vertex 480500.0 5417500.0 5829.39990234375
  vertex 480500.0 5416500.0 5118.39990234375
 endloop
endfacet
facet normal 0.4941929578781128 0.5037580132484436 -0.7085204124450684
 outer loop
  vertex 480500.0 5417500.0 5829.39990234375
  vertex 481500.0 5416500.0 5815.89990234375
  vertex 480500.0 5416500.0 5118.39990234375
 endloop
endfacet
facet normal -0.530706524848938 -0.5216888785362244 -0.6679754853248596
 outer loop
  vertex 480500.0 5417500.0 5829.39990234375
  vertex 481500.0 5417500.0 5034.89990234375
  vertex 481500.0 5416500.0 5815.89990234375
 endloop
endfacet
facet normal -0.010097461752593517 0.020494649186730385 -0.9997389912605286
 outer loop
  vertex 477500.0 5418500.0 6017.7001953125
  vertex 478500.0 5417500.0 5987.10009765625
  vertex 477500.0 5417500.0 5997.2001953125
 endloop
endfacet
facet normal -0.08368541300296783 -0.05323619768023491 -0.9950692057609558
 outer loop
  vertex 477500.0 5418500.0 6017.7001953125
  vertex 478500.0 5418500.0 5933.60009765625
  vertex 478500.0 5417500.0 5987.10009765625
 endloop
endfacet
facet normal -0.014278415590524673 -0.053418152034282684 -0.99847012758255
 outer loop
  vertex 478500.0 5418500.0 5933.60009765625
  vertex 479500.0 5417500.0 5972.7998046875
  vertex 478500.0 5417500.0 5987.10009765625
 endloop
endfacet
facet normal -0.05003727972507477 -0.08903201669454575 -0.9947711229324341
 outer loop
  vertex 478500.0 5418500.0 5933.60009765625
  vertex 479500.0 5418500.0 5883.2998046875
  vertex 479500.0 5417500.0 5972.7998046875
 endloop
endfacet
facet normal -0.14139404892921448 -0.08824808895587921 -0.9860121607780457
 outer loop
  vertex 479500.0 5418500.0 5883.2998046875
  vertex 480500.0 5417500.0 5829.39990234375
  vertex 479500.0 5417500.0 5972.7998046875
 endloop
endfacet
facet normal 0.028888797387480736 0.0825820192694664 -0.9961654543876648
 outer loop
  vertex 479500.0 5418500.0 5883.2998046875
  vertex 480500.0 5418500.0 5912.2998046875
  vertex 480500.0 5417500.0 5829.39990234375
 endloop
endfacet
facet normal -0.6207594275474548 0.06477142870426178 -0.7813208699226379
 outer loop
  vertex 480500.0 5418500.0 5912.2998046875
  vertex 481500.0 5417500.0 5034.89990234375
  vertex 480500.0 5417500.0 5829.39990234375
 endloop
endfacet
facet normal -0.40522995591163635 0.3395307958126068 -0.848827064037323
 outer loop
  vertex 480500.0 5418500.0 5912.2998046875
  vertex 481500.0 5418500.0 5434.89990234375
  vertex 481500.0 5417500.0 5034.89990234375
 endloop
endfacet
endsolid
