solid
facet normal -0.5638367533683777 0.013790118508040905 -0.8257710933685303
 outer loop
  vertex 528500.0 5680500.0 5171.7001953125
  vertex 529500.0 5680500.0 4488.89990234375
  vertex 529500.0 5679500.0 4472.2001953125
 endloop
endfacet
facet normal 0.1676682084798813 0.016461001709103584 -0.9857060313224792
 outer loop
  vertex 529500.0 5680500.0 4488.89990234375
  vertex 530500.0 5679500.0 4642.2998046875
  vertex 529500.0 5679500.0 4472.2001953125
 endloop
endfacet
facet normal -0.16019809246063232 -0.3042447566986084 -0.9390270113945007
 outer loop
  vertex 529500.0 5680500.0 4488.89990234375
  vertex 530500.0 5680500.0 4318.2998046875
  vertex 530500.0 5679500.0 4642.2998046875
 endloop
endfacet
facet normal -0.1840210258960724 -0.3029617369174957 -0.9350670576095581
 outer loop
  vertex 530500.0 5680500.0 4318.2998046875
  vertex 531500.0 5679500.0 4445.5
  vertex 530500.0 5679500.0 4642.2998046875
 endloop
endfacet
facet normal -0.09215289354324341 -0.21580153703689575 -0.9720789790153503
 outer loop
  vertex 530500.0 5680500.0 4318.2998046875
  vertex 531500.0 5680500.0 4223.5
  vertex 531500.0 5679500.0 4445.5
 endloop
endfacet
facet normal 0.20046494901180267 -0.21232441067695618 -0.9564163088798523
 outer loop
  vertex 531500.0 5680500.0 4223.5
  vertex 532500.0 5679500.0 4655.10009765625
  vertex 531500.0 5679500.0 4445.5
 endloop
endfacet
facet normal 0.09854583442211151 -0.309633731842041 -0.9457355737686157
 outer loop
  vertex 531500.0 5680500.0 4223.5
  vertex 532500.0 5680500.0 4327.7001953125
  vertex 532500.0 5679500.0 4655.10009765625
 endloop
endfacet
facet normal -0.09188976138830185 -0.309831827878952 -0.9463406205177307
 outer loop
  vertex 532500.0 5680500.0 4327.7001953125
  vertex 533500.0 5679500.0 4558.0
  vertex 532500.0 5679500.0 4655.10009765625
 endloop
endfacet
facet normal -0.23104311525821686 -0.43183231353759766 -0.8718600273132324
 outer loop
  vertex 532500.0 5680500.0 4327.7001953125
  vertex 533500.0 5680500.0 4062.699951171875
  vertex 533500.0 5679500.0 4558.0
 endloop
endfacet
facet normal -0.6346978545188904 0.267580509185791 -0.7249547243118286
 outer loop
  vertex 527500.0 5681500.0 6416.2998046875
  vertex 528500.0 5681500.0 5540.7998046875
  vertex 528500.0 5680500.0 5171.7001953125
 endloop
endfacet
facet normal -0.5393880605697632 0.29157567024230957 -0.7899646759033203
 outer loop
  vertex 528500.0 5681500.0 5540.7998046875
  vertex 529500.0 5680500.0 4488.89990234375
  vertex 528500.0 5680500.0 5171.7001953125
 endloop
endfacet
facet normal -0.5153120160102844 0.32067927718162537 -0.7947441935539246
 outer loop
  vertex 528500.0 5681500.0 5540.7998046875
  vertex 529500.0 5681500.0 4892.39990234375
  vertex 529500.0 5680500.0 4488.89990234375
 endloop
endfacet
facet normal -0.1562630832195282 0.36959031224250793 -0.9159611463546753
 outer loop
  vertex 529500.0 5681500.0 4892.39990234375
  vertex 530500.0 5680500.0 4318.2998046875
  vertex 529500.0 5680500.0 4488.89990234375
 endloop
endfacet
facet normal -0.46962860226631165 0.03678368777036667 -0.8820975422859192
 outer loop
  vertex 529500.0 5681500.0 4892.39990234375
  vertex 530500.0 5681500.0 4360.0
  vertex 530500.0 5680500.0 4318.2998046875
 endloop
endfacet
facet normal -0.0942954570055008 0.041478343307971954 -0.9946798086166382
 outer loop
  vertex 530500.0 5681500.0 4360.0
  vertex 531500.0 5680500.0 4223.5
  vertex 530500.0 5680500.0 4318.2998046875
 endloop
endfacet
facet normal 0.03770093619823456 0.1720665842294693 -0.9843636155128479
 outer loop
  vertex 530500.0 5681500.0 4360.0
  vertex 531500.0 5681500.0 4398.2998046875
  vertex 531500.0 5680500.0 4223.5
 endloop
endfacet
facet normal 0.10210738331079483 0.17128902673721313 -0.9799153804779053
 outer loop
  vertex 531500.0 5681500.0 4398.2998046875
  vertex 532500.0 5680500.0 4327.7001953125
  vertex 531500.0 5680500.0 4223.5
 endloop
endfacet
facet normal -0.19455617666244507 -0.1258782297372818 -0.9727808833122253
 outer loop
  vertex 531500.0 5681500.0 4398.2998046875
  vertex 532500.0 5681500.0 4198.2998046875
  vertex 532500.0 5680500.0 4327.7001953125
 endloop
endfacet
facet normal -0.2541777789592743 -0.12411574274301529 -0.9591605067253113
 outer loop
  vertex 532500.0 5681500.0 4198.2998046875
  vertex 533500.0 5680500.0 4062.699951171875
  vertex 532500.0 5680500.0 4327.7001953125
 endloop
endfacet
facet normal -0.09934244304895401 0.03550074249505997 -0.9944198131561279
 outer loop
  vertex 532500.0 5681500.0 4198.2998046875
  vertex 533500.0 5681500.0 4098.39990234375
  vertex 533500.0 5680500.0 4062.699951171875
 endloop
endfacet
facet normal 0.18303611874580383 0.03507449850440025 -0.9824802875518799
 outer loop
  vertex 533500.0 5681500.0 4098.39990234375
  vertex 534500.0 5680500.0 4249.0
  vertex 533500.0 5680500.0 4062.699951171875
 endloop
endfacet
facet normal -0.011843614280223846 -0.1604810655117035 -0.9869678616523743
 outer loop
  vertex 533500.0 5681500.0 4098.39990234375
  vertex 534500.0 5681500.0 4086.39990234375
  vertex 534500.0 5680500.0 4249.0
 endloop
endfacet
facet normal -0.009968671947717667 -0.16048434376716614 -0.9869880676269531
 outer loop
  vertex 534500.0 5681500.0 4086.39990234375
  vertex 535500.0 5680500.0 4238.89990234375
  vertex 534500.0 5680500.0 4249.0
 endloop
endfacet
facet normal 0.005837649572640657 -0.14504700899124146 -0.9894075393676758
 outer loop
  vertex 534500.0 5681500.0 4086.39990234375
  vertex 535500.0 5681500.0 4092.300048828125
  vertex 535500.0 5680500.0 4238.89990234375
 endloop
endfacet
facet normal -0.3396671712398529 -0.017397118732333183 -0.9403848052024841
 outer loop
  vertex 525500.0 5682500.0 7271.2001953125
  vertex 526500.0 5681500.0 6928.5
  vertex 525500.0 5681500.0 7289.7001953125
 endloop
endfacet
facet normal 0.4235234558582306 0.6424070000648499 -0.6387026309967041
 outer loop
  vertex 525500.0 5682500.0 7271.2001953125
  vertex 526500.0 5682500.0 7934.2998046875
  vertex 526500.0 5681500.0 6928.5
 endloop
endfacet
facet normal -0.3396614193916321 0.6669880151748657 -0.6631419062614441
 outer loop
  vertex 526500.0 5682500.0 7934.2998046875
  vertex 527500.0 5681500.0 6416.2998046875
  vertex 526500.0 5681500.0 6928.5
 endloop
endfacet
facet normal -0.6312726736068726 0.38805750012397766 -0.6714954972267151
 outer loop
  vertex 526500.0 5682500.0 7934.2998046875
  vertex 527500.0 5682500.0 6994.2001953125
  vertex 527500.0 5681500.0 6416.2998046875
 endloop
endfacet
facet normal -0.6040849685668945 0.3987446129322052 -0.6899884939193726
 outer loop
  vertex 527500.0 5682500.0 6994.2001953125
  vertex 528500.0 5681500.0 5540.7998046875
  vertex 527500.0 5681500.0 6416.2998046875
 endloop
endfacet
facet normal -0.7585842609405518 0.15957564115524292 -0.6317322254180908
 outer loop
  vertex 527500.0 5682500.0 6994.2001953125
  vertex 528500.0 5682500.0 5793.39990234375
  vertex 528500.0 5681500.0 5540.7998046875
 endloop
endfacet
facet normal -0.5322214961051941 0.20733995735645294 -0.8208229541778564
 outer loop
  vertex 528500.0 5682500.0 5793.39990234375
  vertex 529500.0 5681500.0 4892.39990234375
  vertex 528500.0 5681500.0 5540.7998046875
 endloop
endfacet
facet normal -0.6034194231033325 0.10839130729436874 -0.7900230288505554
 outer loop
  vertex 528500.0 5682500.0 5793.39990234375
  vertex 529500.0 5682500.0 5029.60009765625
  vertex 529500.0 5681500.0 4892.39990234375
 endloop
endfacet
facet normal -0.46653786301612854 0.12022744119167328 -0.8762921094894409
 outer loop
  vertex 529500.0 5682500.0 5029.60009765625
  vertex 530500.0 5681500.0 4360.0
  vertex 529500.0 5681500.0 4892.39990234375
 endloop
endfacet
facet normal -0.14380033314228058 0.44729098677635193 -0.8827526569366455
 outer loop
  vertex 529500.0 5682500.0 5029.60009765625
  vertex 530500.0 5682500.0 4866.7001953125
  vertex 530500.0 5681500.0 4360.0
 endloop
endfacet
facet normal 0.03414442017674446 0.451725035905838 -0.8915035724639893
 outer loop
  vertex 530500.0 5682500.0 4866.7001953125
  vertex 531500.0 5681500.0 4398.2998046875
  vertex 530500.0 5681500.0 4360.0
 endloop
endfacet
facet normal -0.41457003355026245 0.011647524312138557 -0.9099428653717041
 outer loop
  vertex 530500.0 5682500.0 4866.7001953125
  vertex 531500.0 5682500.0 4411.10009765625
  vertex 531500.0 5681500.0 4398.2998046875
 endloop
endfacet
facet normal -0.19610068202018738 0.01255073118954897 -0.9805034399032593
 outer loop
  vertex 531500.0 5682500.0 4411.10009765625
  vertex 532500.0 5681500.0 4198.2998046875
  vertex 531500.0 5681500.0 4398.2998046875
 endloop
endfacet
facet normal -0.2476060688495636 -0.041622549295425415 -0.9679663181304932
 outer loop
  vertex 531500.0 5682500.0 4411.10009765625
  vertex 532500.0 5682500.0 4155.2998046875
  vertex 532500.0 5681500.0 4198.2998046875
 endloop
endfacet
facet normal -0.09931423515081406 -0.04274791106581688 -0.9941374659538269
 outer loop
  vertex 532500.0 5682500.0 4155.2998046875
  vertex 533500.0 5681500.0 4098.39990234375
  vertex 532500.0 5681500.0 4198.2998046875
 endloop
endfacet
facet normal -0.11968734860420227 -0.06331144273281097 -0.9907909035682678
 outer loop
  vertex 532500.0 5682500.0 4155.2998046875
  vertex 533500.0 5682500.0 4034.5
  vertex 533500.0 5681500.0 4098.39990234375
 endloop
endfacet
facet normal -0.011974716559052467 -0.0637652724981308 -0.9978930950164795
 outer loop
  vertex 533500.0 5682500.0 4034.5
  vertex 534500.0 5681500.0 4086.39990234375
  vertex 533500.0 5681500.0 4098.39990234375
 endloop
endfacet
facet normal -0.023824771866202354 -0.0755615234375 -0.9968564510345459
 outer loop
  vertex 533500.0 5682500.0 4034.5
  vertex 534500.0 5682500.0 4010.60009765625
  vertex 534500.0 5681500.0 4086.39990234375
 endloop
endfacet
facet normal 0.005883169360458851 -0.07558166980743408 -0.9971222281455994
 outer loop
  vertex 534500.0 5682500.0 4010.60009765625
  vertex 535500.0 5681500.0 4092.300048828125
  vertex 534500.0 5681500.0 4086.39990234375
 endloop
endfacet
facet normal 0.06236683577299118 -0.019159045070409775 -0.9978693723678589
 outer loop
  vertex 534500.0 5682500.0 4010.60009765625
  vertex 535500.0 5682500.0 4073.10009765625
  vertex 535500.0 5681500.0 4092.300048828125
 endloop
endfacet
facet normal 0.0968250259757042 -0.019106216728687286 -0.9951180219650269
 outer loop
  vertex 535500.0 5682500.0 4073.10009765625
  vertex 536500.0 5681500.0 4189.60009765625
  vertex 535500.0 5681500.0 4092.300048828125
 endloop
endfacet
facet normal 0.05381673574447632 -0.062287889420986176 -0.9966062307357788
 outer loop
  vertex 535500.0 5682500.0 4073.10009765625
  vertex 536500.0 5682500.0 4127.10009765625
  vertex 536500.0 5681500.0 4189.60009765625
 endloop
endfacet
facet normal 0.2136254757642746 -0.06093832105398178 -0.9750131368637085
 outer loop
  vertex 536500.0 5682500.0 4127.10009765625
  vertex 537500.0 5681500.0 4408.7001953125
  vertex 536500.0 5681500.0 4189.60009765625
 endloop
endfacet
facet normal 0.03650409355759621 -0.2368876338005066 -0.9708510041236877
 outer loop
  vertex 536500.0 5682500.0 4127.10009765625
  vertex 537500.0 5682500.0 4164.7001953125
  vertex 537500.0 5681500.0 4408.7001953125
 endloop
endfacet
facet normal -0.6144149303436279 0.3530696928501129 -0.7055749893188477
 outer loop
  vertex 524500.0 5683500.0 8642.400390625
  vertex 525500.0 5683500.0 7771.60009765625
  vertex 525500.0 5682500.0 7271.2001953125
 endloop
endfacet
facet normal 0.5100613832473755 0.38491150736808777 -0.769207775592804
 outer loop
  vertex 525500.0 5683500.0 7771.60009765625
  vertex 526500.0 5682500.0 7934.2998046875
  vertex 525500.0 5682500.0 7271.2001953125
 endloop
endfacet
facet normal -0.18744471669197083 -0.33752918243408203 -0.9224632978439331
 outer loop
  vertex 525500.0 5683500.0 7771.60009765625
  vertex 526500.0 5683500.0 7568.39990234375
  vertex 526500.0 5682500.0 7934.2998046875
 endloop
endfacet
facet normal -0.6618335843086243 -0.25759488344192505 -0.7040036916732788
 outer loop
  vertex 526500.0 5683500.0 7568.39990234375
  vertex 527500.0 5682500.0 6994.2001953125
  vertex 526500.0 5682500.0 7934.2998046875
 endloop
endfacet
facet normal -0.6254287958145142 -0.19102555513381958 -0.7565369009971619
 outer loop
  vertex 526500.0 5683500.0 7568.39990234375
  vertex 527500.0 5683500.0 6741.7001953125
  vertex 527500.0 5682500.0 6994.2001953125
 endloop
endfacet
facet normal -0.758591890335083 -0.15951400995254517 -0.6317386031150818
 outer loop
  vertex 527500.0 5683500.0 6741.7001953125
  vertex 528500.0 5682500.0 5793.39990234375
  vertex 527500.0 5682500.0 6994.2001953125
 endloop
endfacet
facet normal -0.7407187819480896 -0.11265760660171509 -0.6623019576072693
 outer loop
  vertex 527500.0 5683500.0 6741.7001953125
  vertex 528500.0 5683500.0 5623.2998046875
  vertex 528500.0 5682500.0 5793.39990234375
 endloop
endfacet
facet normal -0.6015245318412781 -0.13396099209785461 -0.7875421643257141
 outer loop
  vertex 528500.0 5683500.0 5623.2998046875
  vertex 529500.0 5682500.0 5029.60009765625
  vertex 528500.0 5682500.0 5793.39990234375
 endloop
endfacet
facet normal -0.4409949779510498 0.08921700716018677 -0.8930642604827881
 outer loop
  vertex 528500.0 5683500.0 5623.2998046875
  vertex 529500.0 5683500.0 5129.5
  vertex 529500.0 5682500.0 5029.60009765625
 endloop
endfacet
facet normal -0.16000470519065857 0.09812439233064651 -0.982227087020874
 outer loop
  vertex 529500.0 5683500.0 5129.5
  vertex 530500.0 5682500.0 4866.7001953125
  vertex 529500.0 5682500.0 5029.60009765625
 endloop
endfacet
facet normal -0.4197338819503784 -0.18628206849098206 -0.8883256912231445
 outer loop
  vertex 529500.0 5683500.0 5129.5
  vertex 530500.0 5683500.0 4657.0
  vertex 530500.0 5682500.0 4866.7001953125
 endloop
endfacet
facet normal -0.40724942088127136 -0.18744570016860962 -0.8938747048377991
 outer loop
  vertex 530500.0 5683500.0 4657.0
  vertex 531500.0 5682500.0 4411.10009765625
  vertex 530500.0 5682500.0 4866.7001953125
 endloop
endfacet
facet normal -0.22792254388332367 0.011488432995975018 -0.9736114740371704
 outer loop
  vertex 530500.0 5683500.0 4657.0
  vertex 531500.0 5683500.0 4422.89990234375
  vertex 531500.0 5682500.0 4411.10009765625
 endloop
endfacet
facet normal -0.24780462682247162 0.011430973187088966 -0.9687426090240479
 outer loop
  vertex 531500.0 5683500.0 4422.89990234375
  vertex 532500.0 5682500.0 4155.2998046875
  vertex 531500.0 5682500.0 4411.10009765625
 endloop
endfacet
facet normal -0.10693717747926712 0.15583989024162292 -0.9819767475128174
 outer loop
  vertex 531500.0 5683500.0 4422.89990234375
  vertex 532500.0 5683500.0 4314.0
  vertex 532500.0 5682500.0 4155.2998046875
 endloop
endfacet
facet normal -0.11846659332513809 0.15563492476940155 -0.9806852340698242
 outer loop
  vertex 532500.0 5683500.0 4314.0
  vertex 533500.0 5682500.0 4034.5
  vertex 532500.0 5682500.0 4155.2998046875
 endloop
endfacet
facet normal -0.2393975853919983 0.03182915970683098 -0.970399796962738
 outer loop
  vertex 532500.0 5683500.0 4314.0
  vertex 533500.0 5683500.0 4067.300048828125
  vertex 533500.0 5682500.0 4034.5
 endloop
endfacet
facet normal -0.02388024888932705 0.03277307003736496 -0.9991775155067444
 outer loop
  vertex 533500.0 5683500.0 4067.300048828125
  vertex 534500.0 5682500.0 4010.60009765625
  vertex 533500.0 5682500.0 4034.5
 endloop
endfacet
facet normal -0.056509654968976974 9.969590610126033e-05 -0.9984020590782166
 outer loop
  vertex 533500.0 5683500.0 4067.300048828125
  vertex 534500.0 5683500.0 4010.699951171875
  vertex 534500.0 5682500.0 4010.60009765625
 endloop
endfacet
facet normal 0.062378283590078354 9.96590533759445e-05 -0.9980525374412537
 outer loop
  vertex 534500.0 5683500.0 4010.699951171875
  vertex 535500.0 5682500.0 4073.10009765625
  vertex 534500.0 5682500.0 4010.60009765625
 endloop
endfacet
facet normal 0.04235363379120827 -0.019978059455752373 -0.9989029765129089
 outer loop
  vertex 534500.0 5683500.0 4010.699951171875
  vertex 535500.0 5683500.0 4053.10009765625
  vertex 535500.0 5682500.0 4073.10009765625
 endloop
endfacet
facet normal 0.053910691291093826 -0.01996692270040512 -0.9983460903167725
 outer loop
  vertex 535500.0 5683500.0 4053.10009765625
  vertex 536500.0 5682500.0 4127.10009765625
  vertex 535500.0 5682500.0 4073.10009765625
 endloop
endfacet
facet normal 0.012075858190655708 -0.06177739426493645 -0.998016893863678
 outer loop
  vertex 535500.0 5683500.0 4053.10009765625
  vertex 536500.0 5683500.0 4065.199951171875
  vertex 536500.0 5682500.0 4127.10009765625
 endloop
endfacet
facet normal 0.03750186786055565 -0.06173843890428543 -0.9973875880241394
 outer loop
  vertex 536500.0 5683500.0 4065.199951171875
  vertex 537500.0 5682500.0 4164.7001953125
  vertex 536500.0 5682500.0 4127.10009765625
 endloop
endfacet
facet normal 0.05755405128002167 -0.04169458895921707 -0.9974713325500488
 outer loop
  vertex 536500.0 5683500.0 4065.199951171875
  vertex 537500.0 5683500.0 4122.89990234375
  vertex 537500.0 5682500.0 4164.7001953125
 endloop
endfacet
facet normal 0.07413046807050705 -0.04164891317486763 -0.996378481388092
 outer loop
  vertex 537500.0 5683500.0 4122.89990234375
  vertex 538500.0 5682500.0 4239.10009765625
  vertex 537500.0 5682500.0 4164.7001953125
 endloop
endfacet
facet normal -0.18888112902641296 0.31669142842292786 -0.9295324087142944
 outer loop
  vertex 525500.0 5684500.0 8112.2998046875
  vertex 526500.0 5683500.0 7568.39990234375
  vertex 525500.0 5683500.0 7771.60009765625
 endloop
endfacet
facet normal -0.47725632786750793 0.000703230791259557 -0.8787638545036316
 outer loop
  vertex 525500.0 5684500.0 8112.2998046875
  vertex 526500.0 5684500.0 7569.2001953125
  vertex 526500.0 5683500.0 7568.39990234375
 endloop
endfacet
facet normal -0.6371619701385498 0.0006168095278553665 -0.770729660987854
 outer loop
  vertex 526500.0 5684500.0 7569.2001953125
  vertex 527500.0 5683500.0 6741.7001953125
  vertex 526500.0 5683500.0 7568.39990234375
 endloop
endfacet
facet normal -0.7187100648880005 -0.15848727524280548 -0.6770063638687134
 outer loop
  vertex 526500.0 5684500.0 7569.2001953125
  vertex 527500.0 5684500.0 6507.60009765625
  vertex 527500.0 5683500.0 6741.7001953125
 endloop
endfacet
facet normal -0.7365516424179077 -0.15417270362377167 -0.6585760116577148
 outer loop
  vertex 527500.0 5684500.0 6507.60009765625
  vertex 528500.0 5683500.0 5623.2998046875
  vertex 527500.0 5683500.0 6741.7001953125
 endloop
endfacet
facet normal -0.70195472240448 -0.07570506632328033 -0.7081866264343262
 outer loop
  vertex 527500.0 5684500.0 6507.60009765625
  vertex 528500.0 5684500.0 5516.39990234375
  vertex 528500.0 5683500.0 5623.2998046875
 endloop
endfacet
facet normal -0.44074058532714844 -0.09541341662406921 -0.8925491571426392
 outer loop
  vertex 528500.0 5684500.0 5516.39990234375
  vertex 529500.0 5683500.0 5129.5
  vertex 528500.0 5683500.0 5623.2998046875
 endloop
endfacet
facet normal -0.5766503214836121 -0.2796507775783539 -0.76763916015625
 outer loop
  vertex 528500.0 5684500.0 5516.39990234375
  vertex 529500.0 5684500.0 4765.2001953125
  vertex 529500.0 5683500.0 5129.5
 endloop
endfacet
facet normal -0.40576696395874023 -0.312848299741745 -0.8587660193443298
 outer loop
  vertex 529500.0 5684500.0 4765.2001953125
  vertex 530500.0 5683500.0 4657.0
  vertex 529500.0 5683500.0 5129.5
 endloop
endfacet
facet normal -0.2166610211133957 -0.11172492057085037 -0.969832718372345
 outer loop
  vertex 529500.0 5684500.0 4765.2001953125
  vertex 530500.0 5684500.0 4541.7998046875
  vertex 530500.0 5683500.0 4657.0
 endloop
endfacet
facet normal -0.22651706635951996 -0.111468605697155 -0.9676077365875244
 outer loop
  vertex 530500.0 5684500.0 4541.7998046875
  vertex 531500.0 5683500.0 4422.89990234375
  vertex 530500.0 5683500.0 4657.0
 endloop
endfacet
facet normal -0.08047932386398315 0.037948980927467346 -0.9960336089134216
 outer loop
  vertex 530500.0 5684500.0 4541.7998046875
  vertex 531500.0 5684500.0 4461.0
  vertex 531500.0 5683500.0 4422.89990234375
 endloop
endfacet
facet normal -0.10818228870630264 0.037849027663469315 -0.9934102892875671
 outer loop
  vertex 531500.0 5684500.0 4461.0
  vertex 532500.0 5683500.0 4314.0
  vertex 531500.0 5683500.0 4422.89990234375
 endloop
endfacet
facet normal 0.006720629520714283 0.1520090103149414 -0.9883562326431274
 outer loop
  vertex 531500.0 5684500.0 4461.0
  vertex 532500.0 5684500.0 4467.7998046875
  vertex 532500.0 5683500.0 4314.0
 endloop
endfacet
facet normal -0.2368924468755722 0.14768554270267487 -0.9602452516555786
 outer loop
  vertex 532500.0 5684500.0 4467.7998046875
  vertex 533500.0 5683500.0 4067.300048828125
  vertex 532500.0 5683500.0 4314.0
 endloop
endfacet
facet normal 0.0726141631603241 0.43253806233406067 -0.8986868858337402
 outer loop
  vertex 532500.0 5684500.0 4467.7998046875
  vertex 533500.0 5684500.0 4548.60009765625
  vertex 533500.0 5683500.0 4067.300048828125
 endloop
endfacet
facet normal -0.05093416944146156 0.4331200122833252 -0.8998960256576538
 outer loop
  vertex 533500.0 5684500.0 4548.60009765625
  vertex 534500.0 5683500.0 4010.699951171875
  vertex 533500.0 5683500.0 4067.300048828125
 endloop
endfacet
facet normal -0.35269638895988464 0.14459176361560822 -0.9244990348815918
 outer loop
  vertex 533500.0 5684500.0 4548.60009765625
  vertex 534500.0 5684500.0 4167.10009765625
  vertex 534500.0 5683500.0 4010.699951171875
 endloop
endfacet
facet normal 0.04185418039560318 0.15438628196716309 -0.9871236681938171
 outer loop
  vertex 534500.0 5684500.0 4167.10009765625
  vertex 535500.0 5683500.0 4053.10009765625
  vertex 534500.0 5683500.0 4010.699951171875
 endloop
endfacet
facet normal -0.12821780145168304 -0.015171985141932964 -0.991629958152771
 outer loop
  vertex 534500.0 5684500.0 4167.10009765625
  vertex 535500.0 5684500.0 4037.800048828125
  vertex 535500.0 5683500.0 4053.10009765625
 endloop
endfacet
facet normal 0.012097552418708801 -0.015297138132154942 -0.9998098015785217
 outer loop
  vertex 535500.0 5684500.0 4037.800048828125
  vertex 536500.0 5683500.0 4065.199951171875
  vertex 535500.0 5683500.0 4053.10009765625
 endloop
endfacet
facet normal 0.009597891010344028 -0.017796410247683525 -0.9997955560684204
 outer loop
  vertex 535500.0 5684500.0 4037.800048828125
  vertex 536500.0 5684500.0 4047.39990234375
  vertex 536500.0 5683500.0 4065.199951171875
 endloop
endfacet
facet normal 0.05759505182504654 -0.017767686396837234 -0.998181939125061
 outer loop
  vertex 536500.0 5684500.0 4047.39990234375
  vertex 537500.0 5683500.0 4122.89990234375
  vertex 536500.0 5683500.0 4065.199951171875
 endloop
endfacet
facet normal -0.6623085141181946 0.41487857699394226 -0.6238775849342346
 outer loop
  vertex 526500.0 5685500.0 8234.2001953125
  vertex 527500.0 5684500.0 6507.60009765625
  vertex 526500.0 5684500.0 7569.2001953125
 endloop
endfacet
facet normal -0.8040921092033386 0.1762392520904541 -0.5677813291549683
 outer loop
  vertex 526500.0 5685500.0 8234.2001953125
  vertex 527500.0 5685500.0 6818.0
  vertex 527500.0 5684500.0 6507.60009765625
 endloop
endfacet
facet normal -0.6874677538871765 0.21528436243534088 -0.6935709714889526
 outer loop
  vertex 527500.0 5685500.0 6818.0
  vertex 528500.0 5684500.0 5516.39990234375
  vertex 527500.0 5684500.0 6507.60009765625
 endloop
endfacet
facet normal -0.7788135409355164 0.036257293075323105 -0.6262067556381226
 outer loop
  vertex 527500.0 5685500.0 6818.0
  vertex 528500.0 5685500.0 5574.2998046875
  vertex 528500.0 5684500.0 5516.39990234375
 endloop
endfacet
facet normal -0.5999711751937866 0.04624371975660324 -0.7986839413642883
 outer loop
  vertex 528500.0 5685500.0 5574.2998046875
  vertex 529500.0 5684500.0 4765.2001953125
  vertex 528500.0 5684500.0 5516.39990234375
 endloop
endfacet
facet normal -0.46571817994117737 0.22644290328025818 -0.8554707765579224
 outer loop
  vertex 528500.0 5685500.0 5574.2998046875
  vertex 529500.0 5685500.0 5029.89990234375
  vertex 529500.0 5684500.0 4765.2001953125
 endloop
endfacet
facet normal -0.21109598875045776 0.2501206696033478 -0.9449222683906555
 outer loop
  vertex 529500.0 5685500.0 5029.89990234375
  vertex 530500.0 5684500.0 4541.7998046875
  vertex 529500.0 5684500.0 4765.2001953125
 endloop
endfacet
facet normal -0.3650931119918823 0.08731111139059067 -0.9268677234649658
 outer loop
  vertex 529500.0 5685500.0 5029.89990234375
  vertex 530500.0 5685500.0 4636.0
  vertex 530500.0 5684500.0 4541.7998046875
 endloop
endfacet
facet normal -0.08018465340137482 0.09348302334547043 -0.9923866987228394
 outer loop
  vertex 530500.0 5685500.0 4636.0
  vertex 531500.0 5684500.0 4461.0
  vertex 530500.0 5684500.0 4541.7998046875
 endloop
endfacet
facet normal -0.23064640164375305 -0.06069641932845116 -0.9711427092552185
 outer loop
  vertex 530500.0 5685500.0 4636.0
  vertex 531500.0 5685500.0 4398.5
  vertex 531500.0 5684500.0 4461.0
 endloop
endfacet
facet normal 0.00678640604019165 -0.062376849353313446 -0.9980295896530151
 outer loop
  vertex 531500.0 5685500.0 4398.5
  vertex 532500.0 5684500.0 4467.7998046875
  vertex 531500.0 5684500.0 4461.0
 endloop
endfacet
facet normal -0.019121946766972542 -0.08813932538032532 -0.9959245920181274
 outer loop
  vertex 531500.0 5685500.0 4398.5
  vertex 532500.0 5685500.0 4379.2998046875
  vertex 532500.0 5684500.0 4467.7998046875
 endloop
endfacet
facet normal 0.08022628724575043 -0.08787129074335098 -0.9928959608078003
 outer loop
  vertex 532500.0 5685500.0 4379.2998046875
  vertex 533500.0 5684500.0 4548.60009765625
  vertex 532500.0 5684500.0 4467.7998046875
 endloop
endfacet
facet normal -0.10378999263048172 -0.26604029536247253 -0.958358108997345
 outer loop
  vertex 532500.0 5685500.0 4379.2998046875
  vertex 533500.0 5685500.0 4271.0
  vertex 533500.0 5684500.0 4548.60009765625
 endloop
endfacet
facet normal -0.34502583742141724 -0.25105953216552734 -0.9043927788734436
 outer loop
  vertex 533500.0 5685500.0 4271.0
  vertex 534500.0 5684500.0 4167.10009765625
  vertex 533500.0 5684500.0 4548.60009765625
 endloop
endfacet
facet normal -0.11737120896577835 -0.014199995435774326 -0.9929866194725037
 outer loop
  vertex 533500.0 5685500.0 4271.0
  vertex 534500.0 5685500.0 4152.7998046875
  vertex 534500.0 5684500.0 4167.10009765625
 endloop
endfacet
facet normal -0.12821966409683228 -0.014180805534124374 -0.9916443824768066
 outer loop
  vertex 534500.0 5685500.0 4152.7998046875
  vertex 535500.0 5684500.0 4037.800048828125
  vertex 534500.0 5684500.0 4167.10009765625
 endloop
endfacet
facet normal -0.11091068387031555 0.0033789104782044888 -0.9938246011734009
 outer loop
  vertex 534500.0 5685500.0 4152.7998046875
  vertex 535500.0 5685500.0 4041.199951171875
  vertex 535500.0 5684500.0 4037.800048828125
 endloop
endfacet
facet normal 0.009599355980753899 0.003399726003408432 -0.9999481439590454
 outer loop
  vertex 535500.0 5685500.0 4041.199951171875
  vertex 536500.0 5684500.0 4047.39990234375
  vertex 535500.0 5684500.0 4037.800048828125
 endloop
endfacet
facet normal -0.03205984830856323 -0.03825207054615021 -0.9987536668777466
 outer loop
  vertex 535500.0 5685500.0 4041.199951171875
  vertex 536500.0 5685500.0 4009.10009765625
  vertex 536500.0 5684500.0 4047.39990234375
 endloop
endfacet
facet normal -0.7379164695739746 -0.4289315640926361 -0.5210537910461426
 outer loop
  vertex 526500.0 5686500.0 7411.0
  vertex 527500.0 5685500.0 6818.0
  vertex 526500.0 5685500.0 8234.2001953125
 endloop
endfacet
facet normal -0.6316608786582947 -0.18526016175746918 -0.7527836561203003
 outer loop
  vertex 526500.0 5686500.0 7411.0
  vertex 527500.0 5686500.0 6571.89990234375
  vertex 527500.0 5685500.0 6818.0
 endloop
endfacet
facet normal -0.770221471786499 -0.1524093747138977 -0.6192982792854309
 outer loop
  vertex 527500.0 5686500.0 6571.89990234375
  vertex 528500.0 5685500.0 5574.2998046875
  vertex 527500.0 5685500.0 6818.0
 endloop
endfacet
facet normal -0.7588485479354858 -0.12033022195100784 -0.6400544047355652
 outer loop
  vertex 527500.0 5686500.0 6571.89990234375
  vertex 528500.0 5686500.0 5386.2998046875
  vertex 528500.0 5685500.0 5574.2998046875
 endloop
endfacet
facet normal -0.4717504680156708 -0.16291166841983795 -0.866551399230957
 outer loop
  vertex 528500.0 5686500.0 5386.2998046875
  vertex 529500.0 5685500.0 5029.89990234375
  vertex 528500.0 5685500.0 5574.2998046875
 endloop
endfacet
facet normal -0.39435261487960815 -0.06772631406784058 -0.9164600968360901
 outer loop
  vertex 528500.0 5686500.0 5386.2998046875
  vertex 529500.0 5686500.0 4956.0
  vertex 529500.0 5685500.0 5029.89990234375
 endloop
endfacet
facet normal -0.3656294345855713 -0.06859605759382248 -0.9282293319702148
 outer loop
  vertex 529500.0 5686500.0 4956.0
  vertex 530500.0 5685500.0 4636.0
  vertex 529500.0 5685500.0 5029.89990234375
 endloop
endfacet
facet normal -0.2816188931465149 0.025322582572698593 -0.959192156791687
 outer loop
  vertex 529500.0 5686500.0 4956.0
  vertex 530500.0 5686500.0 4662.39990234375
  vertex 530500.0 5685500.0 4636.0
 endloop
endfacet
facet normal -0.230996236205101 0.025676961988210678 -0.9726157784461975
 outer loop
  vertex 530500.0 5686500.0 4662.39990234375
  vertex 531500.0 5685500.0 4398.5
  vertex 530500.0 5685500.0 4636.0
 endloop
endfacet
facet normal -0.13005481660366058 0.12936696410179138 -0.9830309748649597
 outer loop
  vertex 530500.0 5686500.0 4662.39990234375
  vertex 531500.0 5686500.0 4530.10009765625
  vertex 531500.0 5685500.0 4398.5
 endloop
endfacet
facet normal -0.01903262361884117 0.1304514855146408 -0.99127197265625
 outer loop
  vertex 531500.0 5686500.0 4530.10009765625
  vertex 532500.0 5685500.0 4379.2998046875
  vertex 531500.0 5685500.0 4398.5
 endloop
endfacet
facet normal -0.09056448191404343 0.05934920161962509 -0.9941205978393555
 outer loop
  vertex 531500.0 5686500.0 4530.10009765625
  vertex 532500.0 5686500.0 4439.0
  vertex 532500.0 5685500.0 4379.2998046875
 endloop
endfacet
facet normal -0.10748107731342316 0.059248872101306915 -0.9924401640892029
 outer loop
  vertex 532500.0 5686500.0 4439.0
  vertex 533500.0 5685500.0 4271.0
  vertex 532500.0 5685500.0 4379.2998046875
 endloop
endfacet
facet normal -0.1396665871143341 0.026626616716384888 -0.9898405075073242
 outer loop
  vertex 532500.0 5686500.0 4439.0
  vertex 533500.0 5686500.0 4297.89990234375
  vertex 533500.0 5685500.0 4271.0
 endloop
endfacet
facet normal -0.11734117567539215 0.02670441009104252 -0.992732584476471
 outer loop
  vertex 533500.0 5686500.0 4297.89990234375
  vertex 534500.0 5685500.0 4152.7998046875
  vertex 533500.0 5685500.0 4271.0
 endloop
endfacet
facet normal 0.011558189988136292 0.15489719808101654 -0.9878630042076111
 outer loop
  vertex 533500.0 5686500.0 4297.89990234375
  vertex 534500.0 5686500.0 4309.60009765625
  vertex 534500.0 5685500.0 4152.7998046875
 endloop
endfacet
facet normal -0.10958868265151978 0.15397454798221588 -0.9819786548614502
 outer loop
  vertex 534500.0 5686500.0 4309.60009765625
  vertex 535500.0 5685500.0 4041.199951171875
  vertex 534500.0 5685500.0 4152.7998046875
 endloop
endfacet
facet normal 0.1168520376086235 0.3647817373275757 -0.9237315058708191
 outer loop
  vertex 534500.0 5686500.0 4309.60009765625
  vertex 535500.0 5686500.0 4436.10009765625
  vertex 535500.0 5685500.0 4041.199951171875
 endloop
endfacet
facet normal -0.02984287589788437 0.3671343922615051 -0.9296891093254089
 outer loop
  vertex 535500.0 5686500.0 4436.10009765625
  vertex 536500.0 5685500.0 4009.10009765625
  vertex 535500.0 5685500.0 4041.199951171875
 endloop
endfacet
facet normal 0.043228134512901306 0.4285820424556732 -0.9024681448936462
 outer loop
  vertex 535500.0 5686500.0 4436.10009765625
  vertex 536500.0 5686500.0 4484.0
  vertex 536500.0 5685500.0 4009.10009765625
 endloop
endfacet
facet normal -0.04748685285449028 -0.673812747001648 -0.7373746037483215
 outer loop
  vertex 525500.0 5687500.0 6561.60009765625
  vertex 526500.0 5687500.0 6497.2001953125
  vertex 526500.0 5686500.0 7411.0
 endloop
endfacet
facet normal -0.526589572429657 -0.5734684467315674 -0.6275646090507507
 outer loop
  vertex 526500.0 5687500.0 6497.2001953125
  vertex 527500.0 5686500.0 6571.89990234375
  vertex 526500.0 5686500.0 7411.0
 endloop
endfacet
facet normal -0.25383445620536804 -0.3219671845436096 -0.9120883345603943
 outer loop
  vertex 526500.0 5687500.0 6497.2001953125
  vertex 527500.0 5687500.0 6218.89990234375
  vertex 527500.0 5686500.0 6571.89990234375
 endloop
endfacet
facet normal -0.7453426122665405 -0.22191794216632843 -0.6286627650260925
 outer loop
  vertex 527500.0 5687500.0 6218.89990234375
  vertex 528500.0 5686500.0 5386.2998046875
  vertex 527500.0 5686500.0 6571.89990234375
 endloop
endfacet
facet normal -0.5853241086006165 0.08594438433647156 -0.8062314987182617
 outer loop
  vertex 527500.0 5687500.0 6218.89990234375
  vertex 528500.0 5687500.0 5492.89990234375
  vertex 528500.0 5686500.0 5386.2998046875
 endloop
endfacet
facet normal -0.39337873458862305 0.09745347499847412 -0.9141969084739685
 outer loop
  vertex 528500.0 5687500.0 5492.89990234375
  vertex 529500.0 5686500.0 4956.0
  vertex 528500.0 5686500.0 5386.2998046875
 endloop
endfacet
facet normal -0.2984735071659088 0.20230895280838013 -0.9327296614646912
 outer loop
  vertex 528500.0 5687500.0 5492.89990234375
  vertex 529500.0 5687500.0 5172.89990234375
  vertex 529500.0 5686500.0 4956.0
 endloop
endfacet
facet normal -0.27579984068870544 0.20374979078769684 -0.9393724203109741
 outer loop
  vertex 529500.0 5687500.0 5172.89990234375
  vertex 530500.0 5686500.0 4662.39990234375
  vertex 529500.0 5686500.0 4956.0
 endloop
endfacet
facet normal -0.18856900930404663 0.2903587520122528 -0.9381542801856995
 outer loop
  vertex 529500.0 5687500.0 5172.89990234375
  vertex 530500.0 5687500.0 4971.89990234375
  vertex 530500.0 5686500.0 4662.39990234375
 endloop
endfacet
facet normal -0.1253875494003296 0.29332953691482544 -0.9477530121803284
 outer loop
  vertex 530500.0 5687500.0 4971.89990234375
  vertex 531500.0 5686500.0 4530.10009765625
  vertex 530500.0 5686500.0 4662.39990234375
 endloop
endfacet
facet normal -0.1743500679731369 0.2467973679304123 -0.953253984451294
 outer loop
  vertex 530500.0 5687500.0 4971.89990234375
  vertex 531500.0 5687500.0 4789.0
  vertex 531500.0 5686500.0 4530.10009765625
 endloop
endfacet
facet normal -0.08785131573677063 0.24966710805892944 -0.9643383622169495
 outer loop
  vertex 531500.0 5687500.0 4789.0
  vertex 532500.0 5686500.0 4439.0
  vertex 531500.0 5686500.0 4530.10009765625
 endloop
endfacet
facet normal -0.288532555103302 0.046191778033971786 -0.9563552141189575
 outer loop
  vertex 531500.0 5687500.0 4789.0
  vertex 532500.0 5687500.0 4487.2998046875
  vertex 532500.0 5686500.0 4439.0
 endloop
endfacet
facet normal -0.1395566165447235 0.04777145758271217 -0.9890611171722412
 outer loop
  vertex 532500.0 5687500.0 4487.2998046875
  vertex 533500.0 5686500.0 4297.89990234375
  vertex 532500.0 5686500.0 4439.0
 endloop
endfacet
facet normal -0.23426954448223114 -0.050387803465127945 -0.97086501121521
 outer loop
  vertex 532500.0 5687500.0 4487.2998046875
  vertex 533500.0 5687500.0 4246.0
  vertex 533500.0 5686500.0 4297.89990234375
 endloop
endfacet
facet normal 0.011683671735227108 -0.051826607435941696 -0.9985877275466919
 outer loop
  vertex 533500.0 5687500.0 4246.0
  vertex 534500.0 5686500.0 4309.60009765625
  vertex 533500.0 5686500.0 4297.89990234375
 endloop
endfacet
facet normal 0.3413364887237549 0.2843573987483978 -0.895896315574646
 outer loop
  vertex 533500.0 5687500.0 4246.0
  vertex 534500.0 5687500.0 4627.0
  vertex 534500.0 5686500.0 4309.60009765625
 endloop
endfacet
facet normal 0.11970534175634384 0.30035150051116943 -0.9462873339653015
 outer loop
  vertex 534500.0 5687500.0 4627.0
  vertex 535500.0 5686500.0 4436.10009765625
  vertex 534500.0 5686500.0 4309.60009765625
 endloop
endfacet
facet normal 0.3966337740421295 0.5498919486999512 -0.7350513339042664
 outer loop
  vertex 537500.0 5687500.0 5124.5
  vertex 538500.0 5686500.0 4916.0
  vertex 537500.0 5686500.0 4376.39990234375
 endloop
endfacet
facet normal -0.24899548292160034 -0.04730326309800148 -0.9673487544059753
 outer loop
  vertex 537500.0 5687500.0 5124.5
  vertex 538500.0 5687500.0 4867.10009765625
  vertex 538500.0 5686500.0 4916.0
 endloop
endfacet
facet normal -0.30385497212409973 -0.07767274230718613 -0.949546754360199
 outer loop
  vertex 528500.0 5688500.0 5411.10009765625
  vertex 529500.0 5687500.0 5172.89990234375
  vertex 528500.0 5687500.0 5492.89990234375
 endloop
endfacet
endsolid
