solid
facet normal 0.43937867879867554 -0.04727485775947571 -0.8970571756362915
 outer loop
  vertex 370500.0 5698500.0 3305.300048828125
  vertex 371500.0 5698500.0 3795.10009765625
  vertex 371500.0 5697500.0 3847.800048828125
 endloop
endfacet
facet normal -0.14717327058315277 -0.05205385386943817 -0.9877400398254395
 outer loop
  vertex 371500.0 5698500.0 3795.10009765625
  vertex 372500.0 5697500.0 3698.800048828125
  vertex 371500.0 5697500.0 3847.800048828125
 endloop
endfacet
facet normal -0.030220462009310722 0.06582663953304291 -0.9973733425140381
 outer loop
  vertex 371500.0 5698500.0 3795.10009765625
  vertex 372500.0 5698500.0 3764.800048828125
  vertex 372500.0 5697500.0 3698.800048828125
 endloop
endfacet
facet normal -0.34774523973464966 0.061746541410684586 -0.9355536699295044
 outer loop
  vertex 372500.0 5698500.0 3764.800048828125
  vertex 373500.0 5697500.0 3327.10009765625
  vertex 372500.0 5697500.0 3698.800048828125
 endloop
endfacet
facet normal 0.162297785282135 0.5273429155349731 -0.834007740020752
 outer loop
  vertex 372500.0 5698500.0 3764.800048828125
  vertex 373500.0 5698500.0 3959.39990234375
  vertex 373500.0 5697500.0 3327.10009765625
 endloop
endfacet
facet normal 0.013437632471323013 0.5343802571296692 -0.8451374173164368
 outer loop
  vertex 373500.0 5698500.0 3959.39990234375
  vertex 374500.0 5697500.0 3343.0
  vertex 373500.0 5697500.0 3327.10009765625
 endloop
endfacet
facet normal -0.027704870328307152 0.5042999982833862 -0.8630840182304382
 outer loop
  vertex 373500.0 5698500.0 3959.39990234375
  vertex 374500.0 5698500.0 3927.300048828125
  vertex 374500.0 5697500.0 3343.0
 endloop
endfacet
facet normal 0.012173363007605076 0.5044562816619873 -0.8633514046669006
 outer loop
  vertex 374500.0 5698500.0 3927.300048828125
  vertex 375500.0 5697500.0 3357.10009765625
  vertex 374500.0 5697500.0 3343.0
 endloop
endfacet
facet normal -0.169549822807312 0.35473015904426575 -0.9194669127464294
 outer loop
  vertex 374500.0 5698500.0 3927.300048828125
  vertex 375500.0 5698500.0 3742.89990234375
  vertex 375500.0 5697500.0 3357.10009765625
 endloop
endfacet
facet normal 0.3495594561100006 0.3372343182563782 -0.874117374420166
 outer loop
  vertex 375500.0 5698500.0 3742.89990234375
  vertex 376500.0 5697500.0 3757.0
  vertex 375500.0 5697500.0 3357.10009765625
 endloop
endfacet
facet normal 0.5207028985023499 0.5110601782798767 -0.6838757395744324
 outer loop
  vertex 375500.0 5698500.0 3742.89990234375
  vertex 376500.0 5698500.0 4504.2998046875
  vertex 376500.0 5697500.0 3757.0
 endloop
endfacet
facet normal 0.1279076337814331 0.5936978459358215 -0.7944573760032654
 outer loop
  vertex 376500.0 5698500.0 4504.2998046875
  vertex 377500.0 5697500.0 3918.0
  vertex 376500.0 5697500.0 3757.0
 endloop
endfacet
facet normal -0.012673510238528252 0.4962768256664276 -0.8680718541145325
 outer loop
  vertex 376500.0 5698500.0 4504.2998046875
  vertex 377500.0 5698500.0 4489.7001953125
  vertex 377500.0 5697500.0 3918.0
 endloop
endfacet
facet normal -0.34249788522720337 0.17448005080223083 -0.9231748580932617
 outer loop
  vertex 369500.0 5699500.0 3865.300048828125
  vertex 370500.0 5699500.0 3494.300048828125
  vertex 370500.0 5698500.0 3305.300048828125
 endloop
endfacet
facet normal 0.433667927980423 0.16734018921852112 -0.8853978514671326
 outer loop
  vertex 370500.0 5699500.0 3494.300048828125
  vertex 371500.0 5698500.0 3795.10009765625
  vertex 370500.0 5698500.0 3305.300048828125
 endloop
endfacet
facet normal 0.2789536714553833 -0.009890671819448471 -0.9602535963058472
 outer loop
  vertex 370500.0 5699500.0 3494.300048828125
  vertex 371500.0 5699500.0 3784.800048828125
  vertex 371500.0 5698500.0 3795.10009765625
 endloop
endfacet
facet normal -0.030284544453024864 -0.010294778272509575 -0.999488353729248
 outer loop
  vertex 371500.0 5699500.0 3784.800048828125
  vertex 372500.0 5698500.0 3764.800048828125
  vertex 371500.0 5698500.0 3795.10009765625
 endloop
endfacet
facet normal -0.17435526847839355 -0.15490682423114777 -0.9724217653274536
 outer loop
  vertex 371500.0 5699500.0 3784.800048828125
  vertex 372500.0 5699500.0 3605.5
  vertex 372500.0 5698500.0 3764.800048828125
 endloop
endfacet
facet normal 0.1887233853340149 -0.15448954701423645 -0.9698023200035095
 outer loop
  vertex 372500.0 5699500.0 3605.5
  vertex 373500.0 5698500.0 3959.39990234375
  vertex 372500.0 5698500.0 3764.800048828125
 endloop
endfacet
facet normal 0.38735198974609375 0.06181458383798599 -0.9198573231697083
 outer loop
  vertex 372500.0 5699500.0 3605.5
  vertex 373500.0 5699500.0 4026.60009765625
  vertex 373500.0 5698500.0 3959.39990234375
 endloop
endfacet
facet normal -0.03201120346784592 0.06701461225748062 -0.9972383379936218
 outer loop
  vertex 373500.0 5699500.0 4026.60009765625
  vertex 374500.0 5698500.0 3927.300048828125
  vertex 373500.0 5698500.0 3959.39990234375
 endloop
endfacet
facet normal 0.22825828194618225 0.3195801377296448 -0.9196557402610779
 outer loop
  vertex 373500.0 5699500.0 4026.60009765625
  vertex 374500.0 5699500.0 4274.7998046875
  vertex 374500.0 5698500.0 3927.300048828125
 endloop
endfacet
facet normal -0.17159926891326904 0.32337668538093567 -0.9305810928344727
 outer loop
  vertex 374500.0 5699500.0 4274.7998046875
  vertex 375500.0 5698500.0 3742.89990234375
  vertex 374500.0 5698500.0 3927.300048828125
 endloop
endfacet
facet normal 0.010628514923155308 0.4778400957584381 -0.8783825635910034
 outer loop
  vertex 374500.0 5699500.0 4274.7998046875
  vertex 375500.0 5699500.0 4286.89990234375
  vertex 375500.0 5698500.0 3742.89990234375
 endloop
endfacet
facet normal 0.5559491515159607 0.39721089601516724 -0.7301670908927917
 outer loop
  vertex 375500.0 5699500.0 4286.89990234375
  vertex 376500.0 5698500.0 4504.2998046875
  vertex 375500.0 5698500.0 3742.89990234375
 endloop
endfacet
facet normal -0.17831407487392426 -0.37599632143974304 -0.9093024134635925
 outer loop
  vertex 375500.0 5699500.0 4286.89990234375
  vertex 376500.0 5699500.0 4090.800048828125
  vertex 376500.0 5698500.0 4504.2998046875
 endloop
endfacet
facet normal -0.01349044032394886 -0.38208553194999695 -0.9240284562110901
 outer loop
  vertex 376500.0 5699500.0 4090.800048828125
  vertex 377500.0 5698500.0 4489.7001953125
  vertex 376500.0 5698500.0 4504.2998046875
 endloop
endfacet
facet normal -0.0446745790541172 -0.4083622694015503 -0.9117261171340942
 outer loop
  vertex 376500.0 5699500.0 4090.800048828125
  vertex 377500.0 5699500.0 4041.800048828125
  vertex 377500.0 5698500.0 4489.7001953125
 endloop
endfacet
facet normal -0.32349178194999695 -0.3867911696434021 -0.8635656237602234
 outer loop
  vertex 377500.0 5699500.0 4041.800048828125
  vertex 378500.0 5698500.0 4115.10009765625
  vertex 377500.0 5698500.0 4489.7001953125
 endloop
endfacet
facet normal -0.34254127740859985 -0.40469053387641907 -0.8478744626045227
 outer loop
  vertex 377500.0 5699500.0 4041.800048828125
  vertex 378500.0 5699500.0 3637.800048828125
  vertex 378500.0 5698500.0 4115.10009765625
 endloop
endfacet
facet normal -0.5582139492034912 -0.35739174485206604 -0.7487779259681702
 outer loop
  vertex 378500.0 5699500.0 3637.800048828125
  vertex 379500.0 5698500.0 3369.60009765625
  vertex 378500.0 5698500.0 4115.10009765625
 endloop
endfacet
facet normal -0.05913214385509491 0.20300401747226715 -0.9773908257484436
 outer loop
  vertex 378500.0 5699500.0 3637.800048828125
  vertex 379500.0 5699500.0 3577.300048828125
  vertex 379500.0 5698500.0 3369.60009765625
 endloop
endfacet
facet normal -0.33991244435310364 -0.21219341456890106 -0.9162060618400574
 outer loop
  vertex 369500.0 5700500.0 3633.699951171875
  vertex 370500.0 5699500.0 3494.300048828125
  vertex 369500.0 5699500.0 3865.300048828125
 endloop
endfacet
facet normal 0.23057685792446136 0.3567739725112915 -0.9052881598472595
 outer loop
  vertex 369500.0 5700500.0 3633.699951171875
  vertex 370500.0 5700500.0 3888.39990234375
  vertex 370500.0 5699500.0 3494.300048828125
 endloop
endfacet
facet normal 0.26090773940086365 0.3539542257785797 -0.898133397102356
 outer loop
  vertex 370500.0 5700500.0 3888.39990234375
  vertex 371500.0 5699500.0 3784.800048828125
  vertex 370500.0 5699500.0 3494.300048828125
 endloop
endfacet
facet normal 0.08036237210035324 0.1818932294845581 -0.9800289869308472
 outer loop
  vertex 370500.0 5700500.0 3888.39990234375
  vertex 371500.0 5700500.0 3970.39990234375
  vertex 371500.0 5699500.0 3784.800048828125
 endloop
endfacet
facet normal -0.1736122965812683 0.17971226572990417 -0.9682779908180237
 outer loop
  vertex 371500.0 5700500.0 3970.39990234375
  vertex 372500.0 5699500.0 3605.5
  vertex 371500.0 5699500.0 3784.800048828125
 endloop
endfacet
facet normal -0.006024353206157684 0.33746305108070374 -0.9413195252418518
 outer loop
  vertex 371500.0 5700500.0 3970.39990234375
  vertex 372500.0 5700500.0 3964.0
  vertex 372500.0 5699500.0 3605.5
 endloop
endfacet
facet normal 0.36850136518478394 0.3137205243110657 -0.875092089176178
 outer loop
  vertex 372500.0 5700500.0 3964.0
  vertex 373500.0 5699500.0 4026.60009765625
  vertex 372500.0 5699500.0 3605.5
 endloop
endfacet
facet normal -0.07283082604408264 -0.1346926987171173 -0.988207221031189
 outer loop
  vertex 372500.0 5700500.0 3964.0
  vertex 373500.0 5700500.0 3890.300048828125
  vertex 373500.0 5699500.0 4026.60009765625
 endloop
endfacet
facet normal 0.23881028592586517 -0.13114379346370697 -0.962169885635376
 outer loop
  vertex 373500.0 5700500.0 3890.300048828125
  vertex 374500.0 5699500.0 4274.7998046875
  vertex 373500.0 5699500.0 4026.60009765625
 endloop
endfacet
facet normal -0.005867777857929468 -0.36398550868034363 -0.9313860535621643
 outer loop
  vertex 373500.0 5700500.0 3890.300048828125
  vertex 374500.0 5700500.0 3884.0
  vertex 374500.0 5699500.0 4274.7998046875
 endloop
endfacet
facet normal 0.011269337497651577 -0.3639686703681946 -0.9313430190086365
 outer loop
  vertex 374500.0 5700500.0 3884.0
  vertex 375500.0 5699500.0 4286.89990234375
  vertex 374500.0 5699500.0 4274.7998046875
 endloop
endfacet
facet normal 0.0998326987028122 -0.2843373119831085 -0.9535123109817505
 outer loop
  vertex 374500.0 5700500.0 3884.0
  vertex 375500.0 5700500.0 3988.699951171875
  vertex 375500.0 5699500.0 4286.89990234375
 endloop
endfacet
facet normal -0.18468958139419556 -0.280848890542984 -0.9418140053749084
 outer loop
  vertex 375500.0 5700500.0 3988.699951171875
  vertex 376500.0 5699500.0 4090.800048828125
  vertex 375500.0 5699500.0 4286.89990234375
 endloop
endfacet
facet normal 0.1783207803964615 0.0781746655702591 -0.9808620810508728
 outer loop
  vertex 375500.0 5700500.0 3988.699951171875
  vertex 376500.0 5700500.0 4170.5
  vertex 376500.0 5699500.0 4090.800048828125
 endloop
endfacet
facet normal -0.0487869456410408 0.07935341447591782 -0.9956519603729248
 outer loop
  vertex 376500.0 5700500.0 4170.5
  vertex 377500.0 5699500.0 4041.800048828125
  vertex 376500.0 5699500.0 4090.800048828125
 endloop
endfacet
facet normal -0.002877212828025222 0.12481575459241867 -0.9921757578849792
 outer loop
  vertex 376500.0 5700500.0 4170.5
  vertex 377500.0 5700500.0 4167.60009765625
  vertex 377500.0 5699500.0 4041.800048828125
 endloop
endfacet
facet normal -0.3720632493495941 0.1158553808927536 -0.9209486246109009
 outer loop
  vertex 377500.0 5700500.0 4167.60009765625
  vertex 378500.0 5699500.0 3637.800048828125
  vertex 377500.0 5699500.0 4041.800048828125
 endloop
endfacet
facet normal -0.05570152774453163 0.42336708307266235 -0.9042441844940186
 outer loop
  vertex 377500.0 5700500.0 4167.60009765625
  vertex 378500.0 5700500.0 4106.0
  vertex 378500.0 5699500.0 3637.800048828125
 endloop
endfacet
facet normal -0.0547097772359848 0.42339032888412476 -0.9042938351631165
 outer loop
  vertex 378500.0 5700500.0 4106.0
  vertex 379500.0 5699500.0 3577.300048828125
  vertex 378500.0 5699500.0 3637.800048828125
 endloop
endfacet
facet normal -0.1883772760629654 0.30515605211257935 -0.9334847927093506
 outer loop
  vertex 378500.0 5700500.0 4106.0
  vertex 379500.0 5700500.0 3904.199951171875
  vertex 379500.0 5699500.0 3577.300048828125
 endloop
endfacet
facet normal 0.24565991759300232 0.0968366488814354 -0.9645070433616638
 outer loop
  vertex 369500.0 5701500.0 3734.10009765625
  vertex 370500.0 5700500.0 3888.39990234375
  vertex 369500.0 5700500.0 3633.699951171875
 endloop
endfacet
facet normal -0.048349473625421524 -0.19936753809452057 -0.9787313342094421
 outer loop
  vertex 369500.0 5701500.0 3734.10009765625
  vertex 370500.0 5701500.0 3684.699951171875
  vertex 370500.0 5700500.0 3888.39990234375
 endloop
endfacet
facet normal 0.08009179681539536 -0.19895973801612854 -0.9767293930053711
 outer loop
  vertex 370500.0 5701500.0 3684.699951171875
  vertex 371500.0 5700500.0 3970.39990234375
  vertex 370500.0 5700500.0 3888.39990234375
 endloop
endfacet
facet normal -0.014172499999403954 -0.2877582609653473 -0.9575982093811035
 outer loop
  vertex 370500.0 5701500.0 3684.699951171875
  vertex 371500.0 5701500.0 3669.89990234375
  vertex 371500.0 5700500.0 3970.39990234375
 endloop
endfacet
facet normal -0.0061290389858186245 -0.2877817451953888 -0.9576764106750488
 outer loop
  vertex 371500.0 5701500.0 3669.89990234375
  vertex 372500.0 5700500.0 3964.0
  vertex 371500.0 5700500.0 3970.39990234375
 endloop
endfacet
facet normal 0.08892541378736496 -0.19815412163734436 -0.9761286377906799
 outer loop
  vertex 371500.0 5701500.0 3669.89990234375
  vertex 372500.0 5701500.0 3761.0
  vertex 372500.0 5700500.0 3964.0
 endloop
endfacet
facet normal -0.07203911989927292 -0.19842538237571716 -0.9774649739265442
 outer loop
  vertex 372500.0 5701500.0 3761.0
  vertex 373500.0 5700500.0 3890.300048828125
  vertex 372500.0 5700500.0 3964.0
 endloop
endfacet
facet normal 0.06930931657552719 -0.05945054069161415 -0.9958221912384033
 outer loop
  vertex 372500.0 5701500.0 3761.0
  vertex 373500.0 5701500.0 3830.60009765625
  vertex 373500.0 5700500.0 3890.300048828125
 endloop
endfacet
facet normal -0.0062887296080589294 -0.05959267169237137 -0.9982029795646667
 outer loop
  vertex 373500.0 5701500.0 3830.60009765625
  vertex 374500.0 5700500.0 3884.0
  vertex 373500.0 5700500.0 3890.300048828125
 endloop
endfacet
facet normal 0.02748039923608303 -0.025881443172693253 -0.9992872476577759
 outer loop
  vertex 373500.0 5701500.0 3830.60009765625
  vertex 374500.0 5701500.0 3858.10009765625
  vertex 374500.0 5700500.0 3884.0
 endloop
endfacet
facet normal 0.10409623384475708 -0.02575055882334709 -0.9942337870597839
 outer loop
  vertex 374500.0 5701500.0 3858.10009765625
  vertex 375500.0 5700500.0 3988.699951171875
  vertex 374500.0 5700500.0 3884.0
 endloop
endfacet
facet normal -0.08004598319530487 -0.20737826824188232 -0.9749804139137268
 outer loop
  vertex 374500.0 5701500.0 3858.10009765625
  vertex 375500.0 5701500.0 3776.0
  vertex 375500.0 5700500.0 3988.699951171875
 endloop
endfacet
facet normal 0.17507563531398773 -0.20483261346817017 -0.9630120396614075
 outer loop
  vertex 375500.0 5701500.0 3776.0
  vertex 376500.0 5700500.0 4170.5
  vertex 375500.0 5700500.0 3988.699951171875
 endloop
endfacet
facet normal 0.06711011379957199 -0.30735889077186584 -0.9492243528366089
 outer loop
  vertex 375500.0 5701500.0 3776.0
  vertex 376500.0 5701500.0 3846.699951171875
  vertex 376500.0 5700500.0 4170.5
 endloop
endfacet
facet normal -0.0027588705997914076 -0.3080522119998932 -0.9513654708862305
 outer loop
  vertex 376500.0 5701500.0 3846.699951171875
  vertex 377500.0 5700500.0 4167.60009765625
  vertex 376500.0 5700500.0 4170.5
 endloop
endfacet
facet normal 0.017416751012206078 -0.2896740734577179 -0.9569668769836426
 outer loop
  vertex 376500.0 5701500.0 3846.699951171875
  vertex 377500.0 5701500.0 3864.89990234375
  vertex 377500.0 5700500.0 4167.60009765625
 endloop
endfacet
facet normal -0.05885598808526993 -0.2892157733440399 -0.9554529190063477
 outer loop
  vertex 377500.0 5701500.0 3864.89990234375
  vertex 378500.0 5700500.0 4106.0
  vertex 377500.0 5700500.0 4167.60009765625
 endloop
endfacet
facet normal -0.019251307472586632 -0.2524932622909546 -0.9674071073532104
 outer loop
  vertex 377500.0 5701500.0 3864.89990234375
  vertex 378500.0 5701500.0 3845.0
  vertex 378500.0 5700500.0 4106.0
 endloop
endfacet
facet normal -0.19163991510868073 -0.24785929918289185 -0.9496524930000305
 outer loop
  vertex 378500.0 5701500.0 3845.0
  vertex 379500.0 5700500.0 3904.199951171875
  vertex 378500.0 5700500.0 4106.0
 endloop
endfacet
facet normal -0.057117778807878494 -0.11582200974225998 -0.9916263818740845
 outer loop
  vertex 378500.0 5701500.0 3845.0
  vertex 379500.0 5701500.0 3787.39990234375
  vertex 379500.0 5700500.0 3904.199951171875
 endloop
endfacet
facet normal -0.24462027847766876 -0.11248685419559479 -0.9630719423294067
 outer loop
  vertex 379500.0 5701500.0 3787.39990234375
  vertex 380500.0 5700500.0 3650.199951171875
  vertex 379500.0 5700500.0 3904.199951171875
 endloop
endfacet
facet normal -0.24418067932128906 -0.11202455312013626 -0.9632374048233032
 outer loop
  vertex 379500.0 5701500.0 3787.39990234375
  vertex 380500.0 5701500.0 3533.89990234375
  vertex 380500.0 5700500.0 3650.199951171875
 endloop
endfacet
facet normal 0.016176415607333183 -0.2238408774137497 -0.9744914770126343
 outer loop
  vertex 368500.0 5702500.0 3487.800048828125
  vertex 369500.0 5702500.0 3504.39990234375
  vertex 369500.0 5701500.0 3734.10009765625
 endloop
endfacet
facet normal -0.048090610653162 -0.22361114621162415 -0.973491370677948
 outer loop
  vertex 369500.0 5702500.0 3504.39990234375
  vertex 370500.0 5701500.0 3684.699951171875
  vertex 369500.0 5701500.0 3734.10009765625
 endloop
endfacet
facet normal 0.06523367017507553 -0.11351443827152252 -0.9913924932479858
 outer loop
  vertex 369500.0 5702500.0 3504.39990234375
  vertex 370500.0 5702500.0 3570.199951171875
  vertex 370500.0 5701500.0 3684.699951171875
 endloop
endfacet
facet normal -0.014702385291457176 -0.11374444514513016 -0.993401288986206
 outer loop
  vertex 370500.0 5702500.0 3570.199951171875
  vertex 371500.0 5701500.0 3669.89990234375
  vertex 370500.0 5701500.0 3684.699951171875
 endloop
endfacet
facet normal 0.010956323705613613 -0.08834776282310486 -0.9960294365882874
 outer loop
  vertex 370500.0 5702500.0 3570.199951171875
  vertex 371500.0 5702500.0 3581.199951171875
  vertex 371500.0 5701500.0 3669.89990234375
 endloop
endfacet
facet normal 0.09037250280380249 -0.08799153566360474 -0.9920132756233215
 outer loop
  vertex 371500.0 5702500.0 3581.199951171875
  vertex 372500.0 5701500.0 3761.0
  vertex 371500.0 5701500.0 3669.89990234375
 endloop
endfacet
facet normal -0.0812361091375351 -0.25450122356414795 -0.9636543989181519
 outer loop
  vertex 371500.0 5702500.0 3581.199951171875
  vertex 372500.0 5702500.0 3496.89990234375
  vertex 372500.0 5701500.0 3761.0
 endloop
endfacet
facet normal 0.06714100390672684 -0.2547689974308014 -0.9646682739257812
 outer loop
  vertex 372500.0 5702500.0 3496.89990234375
  vertex 373500.0 5701500.0 3830.60009765625
  vertex 372500.0 5701500.0 3761.0
 endloop
endfacet
facet normal 0.03486961871385574 -0.28479936718940735 -0.9579526782035828
 outer loop
  vertex 372500.0 5702500.0 3496.89990234375
  vertex 373500.0 5702500.0 3533.300048828125
  vertex 373500.0 5701500.0 3830.60009765625
 endloop
endfacet
facet normal 0.02635057643055916 -0.28487375378608704 -0.9582027792930603
 outer loop
  vertex 373500.0 5702500.0 3533.300048828125
  vertex 374500.0 5701500.0 3858.10009765625
  vertex 373500.0 5701500.0 3830.60009765625
 endloop
endfacet
facet normal 0.12883220613002777 -0.1874542236328125 -0.9737880825996399
 outer loop
  vertex 373500.0 5702500.0 3533.300048828125
  vertex 374500.0 5702500.0 3665.60009765625
  vertex 374500.0 5701500.0 3858.10009765625
 endloop
endfacet
facet normal -0.08035922050476074 -0.1884181648492813 -0.9787956476211548
 outer loop
  vertex 374500.0 5702500.0 3665.60009765625
  vertex 375500.0 5701500.0 3776.0
  vertex 374500.0 5701500.0 3858.10009765625
 endloop
endfacet
facet normal 0.0016899937763810158 -0.10806325078010559 -0.9941425919532776
 outer loop
  vertex 374500.0 5702500.0 3665.60009765625
  vertex 375500.0 5702500.0 3667.300048828125
  vertex 375500.0 5701500.0 3776.0
 endloop
endfacet
facet normal 0.07011296600103378 -0.10779746621847153 -0.9916974306106567
 outer loop
  vertex 375500.0 5702500.0 3667.300048828125
  vertex 376500.0 5701500.0 3846.699951171875
  vertex 375500.0 5701500.0 3776.0
 endloop
endfacet
facet normal 0.1644180417060852 -0.012526106089353561 -0.9863112568855286
 outer loop
  vertex 375500.0 5702500.0 3667.300048828125
  vertex 376500.0 5702500.0 3834.0
  vertex 376500.0 5701500.0 3846.699951171875
 endloop
endfacet
facet normal 0.018195470795035362 -0.012696824967861176 -0.9997538328170776
 outer loop
  vertex 376500.0 5702500.0 3834.0
  vertex 377500.0 5701500.0 3864.89990234375
  vertex 376500.0 5701500.0 3846.699951171875
 endloop
endfacet
facet normal -0.012088042683899403 -0.042957160621881485 -0.9990037679672241
 outer loop
  vertex 376500.0 5702500.0 3834.0
  vertex 377500.0 5702500.0 3821.89990234375
  vertex 377500.0 5701500.0 3864.89990234375
 endloop
endfacet
facet normal -0.0198776014149189 -0.04295181483030319 -0.9988793730735779
 outer loop
  vertex 377500.0 5702500.0 3821.89990234375
  vertex 378500.0 5701500.0 3845.0
  vertex 377500.0 5701500.0 3864.89990234375
 endloop
endfacet
facet normal -0.08644776791334152 -0.10932241380214691 -0.9902400970458984
 outer loop
  vertex 377500.0 5702500.0 3821.89990234375
  vertex 378500.0 5702500.0 3734.60009765625
  vertex 378500.0 5701500.0 3845.0
 endloop
endfacet
facet normal -0.05715865641832352 -0.10955380648374557 -0.9923360347747803
 outer loop
  vertex 378500.0 5702500.0 3734.60009765625
  vertex 379500.0 5701500.0 3787.39990234375
  vertex 378500.0 5701500.0 3845.0
 endloop
endfacet
facet normal -0.12290157377719879 -0.17448484897613525 -0.9769597053527832
 outer loop
  vertex 378500.0 5702500.0 3734.60009765625
  vertex 379500.0 5702500.0 3608.800048828125
  vertex 379500.0 5701500.0 3787.39990234375
 endloop
endfacet
facet normal -0.2421257346868515 -0.17058628797531128 -0.9551311135292053
 outer loop
  vertex 379500.0 5702500.0 3608.800048828125
  vertex 380500.0 5701500.0 3533.89990234375
  vertex 379500.0 5701500.0 3787.39990234375
 endloop
endfacet
facet normal -0.1308487057685852 -0.05671413242816925 -0.9897788166999817
 outer loop
  vertex 379500.0 5702500.0 3608.800048828125
  vertex 380500.0 5702500.0 3476.60009765625
  vertex 380500.0 5701500.0 3533.89990234375
 endloop
endfacet
facet normal 0.18010564148426056 -0.056270498782396317 -0.9820364713668823
 outer loop
  vertex 380500.0 5702500.0 3476.60009765625
  vertex 381500.0 5701500.0 3717.300048828125
  vertex 380500.0 5701500.0 3533.89990234375
 endloop
endfacet
facet normal 0.24070215225219727 0.0070852297358214855 -0.9705731868743896
 outer loop
  vertex 380500.0 5702500.0 3476.60009765625
  vertex 381500.0 5702500.0 3724.60009765625
  vertex 381500.0 5701500.0 3717.300048828125
 endloop
endfacet
facet normal 0.20091235637664795 0.007151004392653704 -0.9795830845832825
 outer loop
  vertex 381500.0 5702500.0 3724.60009765625
  vertex 382500.0 5701500.0 3922.39990234375
  vertex 381500.0 5701500.0 3717.300048828125
 endloop
endfacet
facet normal -0.09116510301828384 -0.2801840901374817 -0.955607533454895
 outer loop
  vertex 381500.0 5702500.0 3724.60009765625
  vertex 382500.0 5702500.0 3629.199951171875
  vertex 382500.0 5701500.0 3922.39990234375
 endloop
endfacet
facet normal -0.04400303587317467 -0.2810831665992737 -0.9586740732192993
 outer loop
  vertex 382500.0 5702500.0 3629.199951171875
  vertex 383500.0 5701500.0 3876.5
  vertex 382500.0 5701500.0 3922.39990234375
 endloop
endfacet
facet normal 0.19190643727779388 -0.05047588795423508 -0.9801143407821655
 outer loop
  vertex 382500.0 5702500.0 3629.199951171875
  vertex 383500.0 5702500.0 3825.0
  vertex 383500.0 5701500.0 3876.5
 endloop
endfacet
facet normal 0.016359351575374603 -0.1688181608915329 -0.9855114221572876
 outer loop
  vertex 368500.0 5703500.0 3316.5
  vertex 369500.0 5702500.0 3504.39990234375
  vertex 368500.0 5702500.0 3487.800048828125
 endloop
endfacet
facet normal 0.12782035768032074 -0.058216944336891174 -0.9900872707366943
 outer loop
  vertex 368500.0 5703500.0 3316.5
  vertex 369500.0 5703500.0 3445.60009765625
  vertex 369500.0 5702500.0 3504.39990234375
 endloop
endfacet
facet normal 0.06554533541202545 -0.0585721917450428 -0.996129035949707
 outer loop
  vertex 369500.0 5703500.0 3445.60009765625
  vertex 370500.0 5702500.0 3570.199951171875
  vertex 369500.0 5702500.0 3504.39990234375
 endloop
endfacet
facet normal -0.10601664334535599 -0.22665278613567352 -0.9681885242462158
 outer loop
  vertex 369500.0 5703500.0 3445.60009765625
  vertex 370500.0 5703500.0 3336.10009765625
  vertex 370500.0 5702500.0 3570.199951171875
 endloop
endfacet
facet normal 0.010709819383919239 -0.22792428731918335 -0.9736199378967285
 outer loop
  vertex 370500.0 5703500.0 3336.10009765625
  vertex 371500.0 5702500.0 3581.199951171875
  vertex 370500.0 5702500.0 3570.199951171875
 endloop
endfacet
facet normal 0.060576312243938446 -0.18005993962287903 -0.9817886352539062
 outer loop
  vertex 370500.0 5703500.0 3336.10009765625
  vertex 371500.0 5703500.0 3397.800048828125
  vertex 371500.0 5702500.0 3581.199951171875
 endloop
endfacet
facet normal -0.08263353258371353 -0.17977428436279297 -0.9802310466766357
 outer loop
  vertex 371500.0 5703500.0 3397.800048828125
  vertex 372500.0 5702500.0 3496.89990234375
  vertex 371500.0 5702500.0 3581.199951171875
 endloop
endfacet
facet normal 0.004081442952156067 -0.09457340091466904 -0.9955095052719116
 outer loop
  vertex 371500.0 5703500.0 3397.800048828125
  vertex 372500.0 5703500.0 3401.89990234375
  vertex 372500.0 5702500.0 3496.89990234375
 endloop
endfacet
facet normal 0.036213219165802 -0.09451215714216232 -0.994864821434021
 outer loop
  vertex 372500.0 5703500.0 3401.89990234375
  vertex 373500.0 5702500.0 3533.300048828125
  vertex 372500.0 5702500.0 3496.89990234375
 endloop
endfacet
facet normal 0.05336247384548187 -0.07745514065027237 -0.995566725730896
 outer loop
  vertex 372500.0 5703500.0 3401.89990234375
  vertex 373500.0 5703500.0 3455.5
  vertex 373500.0 5702500.0 3533.300048828125
 endloop
endfacet
facet normal 0.1307688057422638 -0.07689958810806274 -0.9884260296821594
 outer loop
  vertex 373500.0 5703500.0 3455.5
  vertex 374500.0 5702500.0 3665.60009765625
  vertex 373500.0 5702500.0 3533.300048828125
 endloop
endfacet
facet normal -0.0003913264081347734 -0.20598581433296204 -0.978554904460907
 outer loop
  vertex 373500.0 5703500.0 3455.5
  vertex 374500.0 5703500.0 3455.10009765625
  vertex 374500.0 5702500.0 3665.60009765625
 endloop
endfacet
facet normal 0.001663495204411447 -0.20598553121089935 -0.9785535931587219
 outer loop
  vertex 374500.0 5703500.0 3455.10009765625
  vertex 375500.0 5702500.0 3667.300048828125
  vertex 374500.0 5702500.0 3665.60009765625
 endloop
endfacet
facet normal 0.14005553722381592 -0.06953415274620056 -0.9876990914344788
 outer loop
  vertex 374500.0 5703500.0 3455.10009765625
  vertex 375500.0 5703500.0 3596.89990234375
  vertex 375500.0 5702500.0 3667.300048828125
 endloop
endfacet
facet normal 0.1640358865261078 -0.06927508115768433 -0.9840189218521118
 outer loop
  vertex 375500.0 5703500.0 3596.89990234375
  vertex 376500.0 5702500.0 3834.0
  vertex 375500.0 5702500.0 3667.300048828125
 endloop
endfacet
facet normal 0.08482812345027924 -0.14876924455165863 -0.9852268099784851
 outer loop
  vertex 375500.0 5703500.0 3596.89990234375
  vertex 376500.0 5703500.0 3683.0
  vertex 376500.0 5702500.0 3834.0
 endloop
endfacet
facet normal -0.011963605880737305 -0.14929673075675964 -0.9887200593948364
 outer loop
  vertex 376500.0 5703500.0 3683.0
  vertex 377500.0 5702500.0 3821.89990234375
  vertex 376500.0 5702500.0 3834.0
 endloop
endfacet
facet normal 0.1668497771024704 0.029960161074995995 -0.9855270385742188
 outer loop
  vertex 376500.0 5703500.0 3683.0
  vertex 377500.0 5703500.0 3852.300048828125
  vertex 377500.0 5702500.0 3821.89990234375
 endloop
endfacet
facet normal -0.08692917227745056 0.030271081253886223 -0.9957544803619385
 outer loop
  vertex 377500.0 5703500.0 3852.300048828125
  vertex 378500.0 5702500.0 3734.60009765625
  vertex 377500.0 5702500.0 3821.89990234375
 endloop
endfacet
facet normal -0.04084581509232521 0.07641151547431946 -0.9962393641471863
 outer loop
  vertex 377500.0 5703500.0 3852.300048828125
  vertex 378500.0 5703500.0 3811.300048828125
  vertex 378500.0 5702500.0 3734.60009765625
 endloop
endfacet
facet normal -0.12445641309022903 0.0758807435631752 -0.9893193244934082
 outer loop
  vertex 378500.0 5703500.0 3811.300048828125
  vertex 379500.0 5702500.0 3608.800048828125
  vertex 378500.0 5702500.0 3734.60009765625
 endloop
endfacet
facet normal -0.06942562013864517 0.1308407187461853 -0.9889695644378662
 outer loop
  vertex 378500.0 5703500.0 3811.300048828125
  vertex 379500.0 5703500.0 3741.10009765625
  vertex 379500.0 5702500.0 3608.800048828125
 endloop
endfacet
facet normal -0.1299467235803604 0.1300451010465622 -0.9829558730125427
 outer loop
  vertex 379500.0 5703500.0 3741.10009765625
  vertex 380500.0 5702500.0 3476.60009765625
  vertex 379500.0 5702500.0 3608.800048828125
 endloop
endfacet
facet normal -0.22728000581264496 0.030174218118190765 -0.9733619093894958
 outer loop
  vertex 379500.0 5703500.0 3741.10009765625
  vertex 380500.0 5703500.0 3507.60009765625
  vertex 380500.0 5702500.0 3476.60009765625
 endloop
endfacet
facet normal 0.24059930443763733 0.030074913054704666 -0.9701584577560425
 outer loop
  vertex 380500.0 5703500.0 3507.60009765625
  vertex 381500.0 5702500.0 3724.60009765625
  vertex 380500.0 5702500.0 3476.60009765625
 endloop
endfacet
facet normal 0.02809431403875351 -0.18506991863250732 -0.9823237061500549
 outer loop
  vertex 380500.0 5703500.0 3507.60009765625
  vertex 381500.0 5703500.0 3536.199951171875
  vertex 381500.0 5702500.0 3724.60009765625
 endloop
endfacet
facet normal -0.09334152191877365 -0.18433469533920288 -0.9784212112426758
 outer loop
  vertex 381500.0 5703500.0 3536.199951171875
  vertex 382500.0 5702500.0 3629.199951171875
  vertex 381500.0 5702500.0 3724.60009765625
 endloop
endfacet
facet normal 0.001692907651886344 -0.09092175215482712 -0.9958566427230835
 outer loop
  vertex 381500.0 5703500.0 3536.199951171875
  vertex 382500.0 5703500.0 3537.89990234375
  vertex 382500.0 5702500.0 3629.199951171875
 endloop
endfacet
facet normal 0.1913846880197525 -0.08924119919538498 -0.9774497151374817
 outer loop
  vertex 382500.0 5703500.0 3537.89990234375
  vertex 383500.0 5702500.0 3825.0
  vertex 382500.0 5702500.0 3629.199951171875
 endloop
endfacet
facet normal 0.06549117714166641 -0.21430745720863342 -0.9745681881904602
 outer loop
  vertex 382500.0 5703500.0 3537.89990234375
  vertex 383500.0 5703500.0 3605.10009765625
  vertex 383500.0 5702500.0 3825.0
 endloop
endfacet
facet normal 0.1936478316783905 -0.21070320904254913 -0.9581778049468994
 outer loop
  vertex 383500.0 5703500.0 3605.10009765625
  vertex 384500.0 5702500.0 4027.10009765625
  vertex 383500.0 5702500.0 3825.0
 endloop
endfacet
facet normal 0.11528900265693665 -0.2861299514770508 -0.9512297511100769
 outer loop
  vertex 383500.0 5703500.0 3605.10009765625
  vertex 384500.0 5703500.0 3726.300048828125
  vertex 384500.0 5702500.0 4027.10009765625
 endloop
endfacet
facet normal 0.1279207020998001 -0.04270635545253754 -0.9908644556999207
 outer loop
  vertex 368500.0 5704500.0 3273.39990234375
  vertex 369500.0 5703500.0 3445.60009765625
  vertex 368500.0 5703500.0 3316.5
 endloop
endfacet
facet normal 0.012342644855380058 -0.15768980979919434 -0.9874115586280823
 outer loop
  vertex 368500.0 5704500.0 3273.39990234375
  vertex 369500.0 5704500.0 3285.89990234375
  vertex 369500.0 5703500.0 3445.60009765625
 endloop
endfacet
facet normal -0.10750315338373184 -0.1567879021167755 -0.981764018535614
 outer loop
  vertex 369500.0 5704500.0 3285.89990234375
  vertex 370500.0 5703500.0 3336.10009765625
  vertex 369500.0 5703500.0 3445.60009765625
 endloop
endfacet
facet normal 0.13867610692977905 0.08916285634040833 -0.9863158464431763
 outer loop
  vertex 369500.0 5704500.0 3285.89990234375
  vertex 370500.0 5704500.0 3426.5
  vertex 370500.0 5703500.0 3336.10009765625
 endloop
endfacet
facet normal 0.061333686113357544 0.08986327052116394 -0.9940637350082397
 outer loop
  vertex 370500.0 5704500.0 3426.5
  vertex 371500.0 5703500.0 3397.800048828125
  vertex 370500.0 5703500.0 3336.10009765625
 endloop
endfacet
facet normal -0.055692993104457855 -0.027048103511333466 -0.9980815052986145
 outer loop
  vertex 370500.0 5704500.0 3426.5
  vertex 371500.0 5704500.0 3370.699951171875
  vertex 371500.0 5703500.0 3397.800048828125
 endloop
endfacet
facet normal 0.004098314326256514 -0.027089923620224 -0.9996245503425598
 outer loop
  vertex 371500.0 5704500.0 3370.699951171875
  vertex 372500.0 5703500.0 3401.89990234375
  vertex 371500.0 5703500.0 3397.800048828125
 endloop
endfacet
facet normal -0.09083434194326401 -0.12167254090309143 -0.9884052276611328
 outer loop
  vertex 371500.0 5704500.0 3370.699951171875
  vertex 372500.0 5704500.0 3278.800048828125
  vertex 372500.0 5703500.0 3401.89990234375
 endloop
endfacet
facet normal 0.05312342569231987 -0.12200509756803513 -0.9911068081855774
 outer loop
  vertex 372500.0 5704500.0 3278.800048828125
  vertex 373500.0 5703500.0 3455.5
  vertex 372500.0 5703500.0 3401.89990234375
 endloop
endfacet
facet normal 0.10594052821397781 -0.06933736056089401 -0.991952121257782
 outer loop
  vertex 372500.0 5704500.0 3278.800048828125
  vertex 373500.0 5704500.0 3385.60009765625
  vertex 373500.0 5703500.0 3455.5
 endloop
endfacet
facet normal -0.00039893281063996255 -0.0697297602891922 -0.9975658059120178
 outer loop
  vertex 373500.0 5704500.0 3385.60009765625
  vertex 374500.0 5703500.0 3455.10009765625
  vertex 373500.0 5703500.0 3455.5
 endloop
endfacet
facet normal 0.08498063683509827 0.015740685164928436 -0.9962582588195801
 outer loop
  vertex 373500.0 5704500.0 3385.60009765625
  vertex 374500.0 5704500.0 3470.89990234375
  vertex 374500.0 5703500.0 3455.10009765625
 endloop
endfacet
facet normal 0.1403781920671463 0.015641402453184128 -0.9899743795394897
 outer loop
  vertex 374500.0 5704500.0 3470.89990234375
  vertex 375500.0 5703500.0 3596.89990234375
  vertex 374500.0 5703500.0 3455.10009765625
 endloop
endfacet
facet normal 0.12784193456172943 0.0028763392474502325 -0.9917904138565063
 outer loop
  vertex 374500.0 5704500.0 3470.89990234375
  vertex 375500.0 5704500.0 3599.800048828125
  vertex 375500.0 5703500.0 3596.89990234375
 endloop
endfacet
facet normal 0.08578237146139145 0.0028894441202282906 -0.996309757232666
 outer loop
  vertex 375500.0 5704500.0 3599.800048828125
  vertex 376500.0 5703500.0 3683.0
  vertex 375500.0 5703500.0 3596.89990234375
 endloop
endfacet
facet normal 0.006081691477447748 -0.07687054574489594 -0.9970225691795349
 outer loop
  vertex 375500.0 5704500.0 3599.800048828125
  vertex 376500.0 5704500.0 3605.89990234375
  vertex 376500.0 5703500.0 3683.0
 endloop
endfacet
facet normal 0.16644448041915894 -0.07579965144395828 -0.98313307762146
 outer loop
  vertex 376500.0 5704500.0 3605.89990234375
  vertex 377500.0 5703500.0 3852.300048828125
  vertex 376500.0 5703500.0 3683.0
 endloop
endfacet
facet normal 0.18330948054790497 -0.05848639830946922 -0.9813138842582703
 outer loop
  vertex 376500.0 5704500.0 3605.89990234375
  vertex 377500.0 5704500.0 3792.699951171875
  vertex 377500.0 5703500.0 3852.300048828125
 endloop
endfacet
facet normal -0.04089313745498657 -0.05944475904107094 -0.9973936080932617
 outer loop
  vertex 377500.0 5704500.0 3792.699951171875
  vertex 378500.0 5703500.0 3811.300048828125
  vertex 377500.0 5703500.0 3852.300048828125
 endloop
endfacet
facet normal -0.07377985119819641 -0.09224972128868103 -0.9929987192153931
 outer loop
  vertex 377500.0 5704500.0 3792.699951171875
  vertex 378500.0 5704500.0 3718.39990234375
  vertex 378500.0 5703500.0 3811.300048828125
 endloop
endfacet
facet normal -0.06972883641719818 -0.0922766849398613 -0.9932889342308044
 outer loop
  vertex 378500.0 5704500.0 3718.39990234375
  vertex 379500.0 5703500.0 3741.10009765625
  vertex 378500.0 5703500.0 3811.300048828125
 endloop
endfacet
facet normal 0.2940866947174072 0.27329620718955994 -0.91587233543396
 outer loop
  vertex 378500.0 5704500.0 3718.39990234375
  vertex 379500.0 5704500.0 4039.5
  vertex 379500.0 5703500.0 3741.10009765625
 endloop
endfacet
facet normal -0.21835163235664368 0.2790411710739136 -0.9351248741149902
 outer loop
  vertex 379500.0 5704500.0 4039.5
  vertex 380500.0 5703500.0 3507.60009765625
  vertex 379500.0 5703500.0 3741.10009765625
 endloop
endfacet
facet normal -0.31430983543395996 0.18133597075939178 -0.9318404197692871
 outer loop
  vertex 379500.0 5704500.0 4039.5
  vertex 380500.0 5704500.0 3702.199951171875
  vertex 380500.0 5703500.0 3507.60009765625
 endloop
endfacet
facet normal 0.028062187135219574 0.19094142317771912 -0.9812002182006836
 outer loop
  vertex 380500.0 5704500.0 3702.199951171875
  vertex 381500.0 5703500.0 3536.199951171875
  vertex 380500.0 5703500.0 3507.60009765625
 endloop
endfacet
facet normal -0.05428410694003105 0.11045391112565994 -0.992397665977478
 outer loop
  vertex 380500.0 5704500.0 3702.199951171875
  vertex 381500.0 5704500.0 3647.5
  vertex 381500.0 5703500.0 3536.199951171875
 endloop
endfacet
facet normal 0.0016895183362066746 0.11061685532331467 -0.993861734867096
 outer loop
  vertex 381500.0 5704500.0 3647.5
  vertex 382500.0 5703500.0 3537.89990234375
  vertex 381500.0 5703500.0 3536.199951171875
 endloop
endfacet
facet normal 0.08982102572917938 0.1968252956867218 -0.9763154983520508
 outer loop
  vertex 381500.0 5704500.0 3647.5
  vertex 382500.0 5704500.0 3739.5
  vertex 382500.0 5703500.0 3537.89990234375
 endloop
endfacet
facet normal 0.06573238968849182 0.19719672203063965 -0.9781578779220581
 outer loop
  vertex 382500.0 5704500.0 3739.5
  vertex 383500.0 5703500.0 3605.10009765625
  vertex 382500.0 5703500.0 3537.89990234375
 endloop
endfacet
facet normal -0.044078435748815536 0.08964914083480835 -0.994997501373291
 outer loop
  vertex 382500.0 5704500.0 3739.5
  vertex 383500.0 5704500.0 3695.199951171875
  vertex 383500.0 5703500.0 3605.10009765625
 endloop
endfacet
facet normal 0.11984103173017502 0.08908963203430176 -0.9887877702713013
 outer loop
  vertex 383500.0 5704500.0 3695.199951171875
  vertex 384500.0 5703500.0 3726.300048828125
  vertex 383500.0 5703500.0 3605.10009765625
 endloop
endfacet
facet normal -0.054406940937042236 -0.21528753638267517 -0.9750339388847351
 outer loop
  vertex 370500.0 5705500.0 3205.699951171875
  vertex 371500.0 5704500.0 3370.699951171875
  vertex 370500.0 5704500.0 3426.5
 endloop
endfacet
facet normal 0.0569780096411705 -0.10680852830410004 -0.9926456809043884
 outer loop
  vertex 370500.0 5705500.0 3205.699951171875
  vertex 371500.0 5705500.0 3263.10009765625
  vertex 371500.0 5704500.0 3370.699951171875
 endloop
endfacet
facet normal -0.09099341928958893 -0.10653851181268692 -0.9901362061500549
 outer loop
  vertex 371500.0 5705500.0 3263.10009765625
  vertex 372500.0 5704500.0 3278.800048828125
  vertex 371500.0 5704500.0 3370.699951171875
 endloop
endfacet
facet normal 0.08625853061676025 0.07065648585557938 -0.9937641024589539
 outer loop
  vertex 371500.0 5705500.0 3263.10009765625
  vertex 372500.0 5705500.0 3349.89990234375
  vertex 372500.0 5704500.0 3278.800048828125
 endloop
endfacet
facet normal 0.10593171417713165 0.070521779358387 -0.9918695092201233
 outer loop
  vertex 372500.0 5705500.0 3349.89990234375
  vertex 373500.0 5704500.0 3385.60009765625
  vertex 372500.0 5704500.0 3278.800048828125
 endloop
endfacet
facet normal -0.013083163648843765 -0.04873787239193916 -0.998725950717926
 outer loop
  vertex 372500.0 5705500.0 3349.89990234375
  vertex 373500.0 5705500.0 3336.800048828125
  vertex 373500.0 5704500.0 3385.60009765625
 endloop
endfacet
facet normal 0.08489087969064713 -0.048566099256277084 -0.9952059388160706
 outer loop
  vertex 373500.0 5705500.0 3336.800048828125
  vertex 374500.0 5704500.0 3470.89990234375
  vertex 373500.0 5704500.0 3385.60009765625
 endloop
endfacet
facet normal 0.06670080870389938 -0.06680022180080414 -0.9955344200134277
 outer loop
  vertex 373500.0 5705500.0 3336.800048828125
  vertex 374500.0 5705500.0 3403.800048828125
  vertex 374500.0 5704500.0 3470.89990234375
 endloop
endfacet
facet normal 0.12756028771400452 -0.0664023831486702 -0.9896054863929749
 outer loop
  vertex 374500.0 5705500.0 3403.800048828125
  vertex 375500.0 5704500.0 3599.800048828125
  vertex 374500.0 5704500.0 3470.89990234375
 endloop
endfacet
facet normal -0.0030404068529605865 -0.19526652991771698 -0.9807454943656921
 outer loop
  vertex 374500.0 5705500.0 3403.800048828125
  vertex 375500.0 5705500.0 3400.699951171875
  vertex 375500.0 5704500.0 3599.800048828125
 endloop
endfacet
facet normal 0.005982330068945885 -0.19526392221450806 -0.9807324409484863
 outer loop
  vertex 375500.0 5705500.0 3400.699951171875
  vertex 376500.0 5704500.0 3605.89990234375
  vertex 375500.0 5704500.0 3599.800048828125
 endloop
endfacet
facet normal 0.3456219732761383 0.15573813021183014 -0.9253600239753723
 outer loop
  vertex 375500.0 5705500.0 3400.699951171875
  vertex 376500.0 5705500.0 3774.199951171875
  vertex 376500.0 5704500.0 3605.89990234375
 endloop
endfacet
facet normal 0.18116135895252228 0.16321979463100433 -0.9698143601417542
 outer loop
  vertex 376500.0 5705500.0 3774.199951171875
  vertex 377500.0 5704500.0 3792.699951171875
  vertex 376500.0 5704500.0 3605.89990234375
 endloop
endfacet
facet normal 0.1024869754910469 0.08415035903453827 -0.9911685585975647
 outer loop
  vertex 376500.0 5705500.0 3774.199951171875
  vertex 377500.0 5705500.0 3877.60009765625
  vertex 377500.0 5704500.0 3792.699951171875
 endloop
endfacet
facet normal -0.07383164018392563 0.08436492830514908 -0.993695855140686
 outer loop
  vertex 377500.0 5705500.0 3877.60009765625
  vertex 378500.0 5704500.0 3718.39990234375
  vertex 377500.0 5704500.0 3792.699951171875
 endloop
endfacet
facet normal 0.08521240204572678 0.2391948401927948 -0.9672252535820007
 outer loop
  vertex 377500.0 5705500.0 3877.60009765625
  vertex 378500.0 5705500.0 3965.699951171875
  vertex 378500.0 5704500.0 3718.39990234375
 endloop
endfacet
facet normal 0.29758769273757935 0.2291916161775589 -0.9267754554748535
 outer loop
  vertex 378500.0 5705500.0 3965.699951171875
  vertex 379500.0 5704500.0 4039.5
  vertex 378500.0 5704500.0 3718.39990234375
 endloop
endfacet
facet normal -0.16671191155910492 -0.23733963072299957 -0.9570146799087524
 outer loop
  vertex 378500.0 5705500.0 3965.699951171875
  vertex 379500.0 5705500.0 3791.5
  vertex 379500.0 5704500.0 4039.5
 endloop
endfacet
facet normal -0.31113338470458984 -0.22876094281673431 -0.9224231839179993
 outer loop
  vertex 379500.0 5705500.0 3791.5
  vertex 380500.0 5704500.0 3702.199951171875
  vertex 379500.0 5704500.0 4039.5
 endloop
endfacet
facet normal -0.13779900968074799 -0.04946122318506241 -0.9892244338989258
 outer loop
  vertex 379500.0 5705500.0 3791.5
  vertex 380500.0 5705500.0 3652.199951171875
  vertex 380500.0 5704500.0 3702.199951171875
 endloop
endfacet
facet normal -0.05455035716295242 -0.04986326023936272 -0.9972651600837708
 outer loop
  vertex 380500.0 5705500.0 3652.199951171875
  vertex 381500.0 5704500.0 3647.5
  vertex 380500.0 5704500.0 3702.199951171875
 endloop
endfacet
facet normal 0.07317877560853958 0.07785182446241379 -0.9942755699157715
 outer loop
  vertex 380500.0 5705500.0 3652.199951171875
  vertex 381500.0 5705500.0 3725.800048828125
  vertex 381500.0 5704500.0 3647.5
 endloop
endfacet
facet normal 0.09133590012788773 0.07773483544588089 -0.9927814602851868
 outer loop
  vertex 381500.0 5705500.0 3725.800048828125
  vertex 382500.0 5704500.0 3739.5
  vertex 381500.0 5704500.0 3647.5
 endloop
endfacet
facet normal 0.07770275324583054 0.06407245993614197 -0.9949155449867249
 outer loop
  vertex 381500.0 5705500.0 3725.800048828125
  vertex 382500.0 5705500.0 3803.89990234375
  vertex 382500.0 5704500.0 3739.5
 endloop
endfacet
facet normal -0.04416533559560776 0.06420406699180603 -0.9969590306282043
 outer loop
  vertex 382500.0 5705500.0 3803.89990234375
  vertex 383500.0 5704500.0 3695.199951171875
  vertex 382500.0 5704500.0 3739.5
 endloop
endfacet
facet normal 0.05730128288269043 0.012578396126627922 -0.9982776641845703
 outer loop
  vertex 370500.0 5706500.0 3218.300048828125
  vertex 371500.0 5705500.0 3263.10009765625
  vertex 370500.0 5705500.0 3205.699951171875
 endloop
endfacet
facet normal -0.13591645658016205 -0.1795656532049179 -0.9743114709854126
 outer loop
  vertex 370500.0 5706500.0 3218.300048828125
  vertex 371500.0 5706500.0 3078.800048828125
  vertex 371500.0 5705500.0 3263.10009765625
 endloop
endfacet
facet normal 0.08505285531282425 -0.18059080839157104 -0.9798739552497864
 outer loop
  vertex 371500.0 5706500.0 3078.800048828125
  vertex 372500.0 5705500.0 3349.89990234375
  vertex 371500.0 5705500.0 3263.10009765625
 endloop
endfacet
facet normal 0.08604095876216888 -0.17962734401226044 -0.9799647927284241
 outer loop
  vertex 371500.0 5706500.0 3078.800048828125
  vertex 372500.0 5706500.0 3166.60009765625
  vertex 372500.0 5705500.0 3349.89990234375
 endloop
endfacet
facet normal -0.012884114868938923 -0.18028101325035095 -0.9835307598114014
 outer loop
  vertex 372500.0 5706500.0 3166.60009765625
  vertex 373500.0 5705500.0 3336.800048828125
  vertex 372500.0 5705500.0 3349.89990234375
 endloop
endfacet
facet normal 0.07664215564727783 -0.0923280417919159 -0.9927746653556824
 outer loop
  vertex 372500.0 5706500.0 3166.60009765625
  vertex 373500.0 5706500.0 3243.800048828125
  vertex 373500.0 5705500.0 3336.800048828125
 endloop
endfacet
facet normal 0.0665641650557518 -0.09239503741264343 -0.9934950470924377
 outer loop
  vertex 373500.0 5706500.0 3243.800048828125
  vertex 374500.0 5705500.0 3403.800048828125
  vertex 373500.0 5705500.0 3336.800048828125
 endloop
endfacet
facet normal 0.10535642504692078 -0.05352247878909111 -0.9929931163787842
 outer loop
  vertex 373500.0 5706500.0 3243.800048828125
  vertex 374500.0 5706500.0 3349.89990234375
  vertex 374500.0 5705500.0 3403.800048828125
 endloop
endfacet
facet normal -0.0030955933034420013 -0.05382176488637924 -0.99854576587677
 outer loop
  vertex 374500.0 5706500.0 3349.89990234375
  vertex 375500.0 5705500.0 3400.699951171875
  vertex 374500.0 5705500.0 3403.800048828125
 endloop
endfacet
facet normal 0.046648964285850525 -0.004095353651791811 -0.9989029765129089
 outer loop
  vertex 374500.0 5706500.0 3349.89990234375
  vertex 375500.0 5706500.0 3396.60009765625
  vertex 375500.0 5705500.0 3400.699951171875
 endloop
endfacet
facet normal 0.3498886525630951 -0.003840675111860037 -0.936783492565155
 outer loop
  vertex 375500.0 5706500.0 3396.60009765625
  vertex 376500.0 5705500.0 3774.199951171875
  vertex 375500.0 5705500.0 3400.699951171875
 endloop
endfacet
facet normal 0.10713028162717819 -0.25567132234573364 -0.9608097076416016
 outer loop
  vertex 375500.0 5706500.0 3396.60009765625
  vertex 376500.0 5706500.0 3508.10009765625
  vertex 376500.0 5705500.0 3774.199951171875
 endloop
endfacet
facet normal 0.09942778944969177 -0.25587698817253113 -0.961582601070404
 outer loop
  vertex 376500.0 5706500.0 3508.10009765625
  vertex 377500.0 5705500.0 3877.60009765625
  vertex 376500.0 5705500.0 3774.199951171875
 endloop
endfacet
facet normal 0.11437856405973434 -0.2416694313287735 -0.9635940194129944
 outer loop
  vertex 376500.0 5706500.0 3508.10009765625
  vertex 377500.0 5706500.0 3626.800048828125
  vertex 377500.0 5705500.0 3877.60009765625
 endloop
endfacet
facet normal 0.08514300733804703 -0.24238257110118866 -0.9664375185966492
 outer loop
  vertex 377500.0 5706500.0 3626.800048828125
  vertex 378500.0 5705500.0 3965.699951171875
  vertex 377500.0 5705500.0 3877.60009765625
 endloop
endfacet
facet normal 0.2474842220544815 -0.07975871115922928 -0.9656035304069519
 outer loop
  vertex 377500.0 5706500.0 3626.800048828125
  vertex 378500.0 5706500.0 3883.10009765625
  vertex 378500.0 5705500.0 3965.699951171875
 endloop
endfacet
facet normal -0.17105011641979218 -0.08110631257295609 -0.9819183349609375
 outer loop
  vertex 378500.0 5706500.0 3883.10009765625
  vertex 379500.0 5705500.0 3791.5
  vertex 378500.0 5705500.0 3965.699951171875
 endloop
endfacet
facet normal 0.11332181096076965 0.20242300629615784 -0.9727194309234619
 outer loop
  vertex 378500.0 5706500.0 3883.10009765625
  vertex 379500.0 5706500.0 3999.60009765625
  vertex 379500.0 5705500.0 3791.5
 endloop
endfacet
facet normal -0.13512754440307617 0.20186679065227509 -0.9700465798377991
 outer loop
  vertex 379500.0 5706500.0 3999.60009765625
  vertex 380500.0 5705500.0 3652.199951171875
  vertex 379500.0 5705500.0 3791.5
 endloop
endfacet
facet normal -0.2676098644733429 0.06632568687200546 -0.9612418413162231
 outer loop
  vertex 379500.0 5706500.0 3999.60009765625
  vertex 380500.0 5706500.0 3721.199951171875
  vertex 380500.0 5705500.0 3652.199951171875
 endloop
endfacet
facet normal 0.0732283741235733 0.06865151971578598 -0.9949495196342468
 outer loop
  vertex 380500.0 5706500.0 3721.199951171875
  vertex 381500.0 5705500.0 3725.800048828125
  vertex 380500.0 5705500.0 3652.199951171875
 endloop
endfacet
facet normal 0.026284774765372276 0.021687347441911697 -0.9994192123413086
 outer loop
  vertex 380500.0 5706500.0 3721.199951171875
  vertex 381500.0 5706500.0 3747.5
  vertex 381500.0 5705500.0 3725.800048828125
 endloop
endfacet
facet normal 0.07784453779459 0.021629011258482933 -0.9967309236526489
 outer loop
  vertex 381500.0 5706500.0 3747.5
  vertex 382500.0 5705500.0 3803.89990234375
  vertex 381500.0 5705500.0 3725.800048828125
 endloop
endfacet
facet normal 0.10742973536252975 0.051431313157081604 -0.9928815364837646
 outer loop
  vertex 381500.0 5706500.0 3747.5
  vertex 382500.0 5706500.0 3855.699951171875
  vertex 382500.0 5705500.0 3803.89990234375
 endloop
endfacet
facet normal 0.04646730422973633 -0.08825762569904327 -0.9950132369995117
 outer loop
  vertex 374500.0 5707500.0 3261.199951171875
  vertex 375500.0 5706500.0 3396.60009765625
  vertex 374500.0 5706500.0 3349.89990234375
 endloop
endfacet
facet normal 0.14571748673915863 0.011772056110203266 -0.9892562627792358
 outer loop
  vertex 374500.0 5707500.0 3261.199951171875
  vertex 375500.0 5707500.0 3408.5
  vertex 375500.0 5706500.0 3396.60009765625
 endloop
endfacet
facet normal 0.11080554872751236 0.011825786903500557 -0.9937717318534851
 outer loop
  vertex 375500.0 5707500.0 3408.5
  vertex 376500.0 5706500.0 3508.10009765625
  vertex 375500.0 5706500.0 3396.60009765625
 endloop
endfacet
facet normal 0.3159443140029907 0.22412030398845673 -0.9219269752502441
 outer loop
  vertex 375500.0 5707500.0 3408.5
  vertex 376500.0 5707500.0 3751.199951171875
  vertex 376500.0 5706500.0 3508.10009765625
 endloop
endfacet
facet normal 0.11458104848861694 0.23466426134109497 -0.9652999043464661
 outer loop
  vertex 376500.0 5707500.0 3751.199951171875
  vertex 377500.0 5706500.0 3626.800048828125
  vertex 376500.0 5706500.0 3508.10009765625
 endloop
endfacet
facet normal -0.010133562609553337 0.11345665901899338 -0.9934912919998169
 outer loop
  vertex 376500.0 5707500.0 3751.199951171875
  vertex 377500.0 5707500.0 3741.0
  vertex 377500.0 5706500.0 3626.800048828125
 endloop
endfacet
facet normal 0.24676981568336487 0.10995355248451233 -0.9628161191940308
 outer loop
  vertex 377500.0 5707500.0 3741.0
  vertex 378500.0 5706500.0 3883.10009765625
  vertex 377500.0 5706500.0 3626.800048828125
 endloop
endfacet
facet normal 0.2895723581314087 0.15536412596702576 -0.944462776184082
 outer loop
  vertex 377500.0 5707500.0 3741.0
  vertex 378500.0 5707500.0 4047.60009765625
  vertex 378500.0 5706500.0 3883.10009765625
 endloop
endfacet
facet normal 0.11420292407274246 0.16125649213790894 -0.9802826046943665
 outer loop
  vertex 378500.0 5707500.0 4047.60009765625
  vertex 379500.0 5706500.0 3999.60009765625
  vertex 378500.0 5706500.0 3883.10009765625
 endloop
endfacet
facet normal -0.15430299937725067 -0.1071576178073883 -0.9821954369544983
 outer loop
  vertex 378500.0 5707500.0 4047.60009765625
  vertex 379500.0 5707500.0 3890.5
  vertex 379500.0 5706500.0 3999.60009765625
 endloop
endfacet
facet normal -0.26673123240470886 -0.10452725738286972 -0.958085834980011
 outer loop
  vertex 379500.0 5707500.0 3890.5
  vertex 380500.0 5706500.0 3721.199951171875
  vertex 379500.0 5706500.0 3999.60009765625
 endloop
endfacet
facet normal -0.0023671528324484825 0.16462258994579315 -0.9863538146018982
 outer loop
  vertex 379500.0 5707500.0 3890.5
  vertex 380500.0 5707500.0 3888.10009765625
  vertex 380500.0 5706500.0 3721.199951171875
 endloop
endfacet
facet normal 0.025932498276233673 0.16456767916679382 -0.986024796962738
 outer loop
  vertex 380500.0 5707500.0 3888.10009765625
  vertex 381500.0 5706500.0 3747.5
  vertex 380500.0 5706500.0 3721.199951171875
 endloop
endfacet
facet normal -0.1435949057340622 -0.00445331959053874 -0.9896265268325806
 outer loop
  vertex 380500.0 5707500.0 3888.10009765625
  vertex 381500.0 5707500.0 3743.0
  vertex 381500.0 5706500.0 3747.5
 endloop
endfacet
facet normal 0.10757102817296982 -0.0044738431461155415 -0.9941873550415039
 outer loop
  vertex 381500.0 5707500.0 3743.0
  vertex 382500.0 5706500.0 3855.699951171875
  vertex 381500.0 5706500.0 3747.5
 endloop
endfacet
facet normal 0.14572128653526306 -0.00929915439337492 -0.9892820119857788
 outer loop
  vertex 374500.0 5708500.0 3251.800048828125
  vertex 375500.0 5707500.0 3408.5
  vertex 374500.0 5707500.0 3261.199951171875
 endloop
endfacet
facet normal 0.03711098060011864 -0.11837843060493469 -0.992274820804596
 outer loop
  vertex 374500.0 5708500.0 3251.800048828125
  vertex 375500.0 5708500.0 3289.199951171875
  vertex 375500.0 5707500.0 3408.5
 endloop
endfacet
facet normal 0.3221462070941925 -0.11214491724967957 -0.9400241374969482
 outer loop
  vertex 375500.0 5708500.0 3289.199951171875
  vertex 376500.0 5707500.0 3751.199951171875
  vertex 375500.0 5707500.0 3408.5
 endloop
endfacet
facet normal 0.2930760383605957 0.019500067457556725 -0.9558902382850647
 outer loop
  vertex 377500.0 5708500.0 3761.39990234375
  vertex 378500.0 5707500.0 4047.60009765625
  vertex 377500.0 5707500.0 3741.0
 endloop
endfacet
facet normal 0.11922964453697205 -0.16116060316562653 -0.9796997308731079
 outer loop
  vertex 377500.0 5708500.0 3761.39990234375
  vertex 378500.0 5708500.0 3883.10009765625
  vertex 378500.0 5707500.0 4047.60009765625
 endloop
endfacet
facet normal -0.15318706631660461 -0.16040267050266266 -0.9750921726226807
 outer loop
  vertex 378500.0 5708500.0 3883.10009765625
  vertex 379500.0 5707500.0 3890.5
  vertex 378500.0 5707500.0 4047.60009765625
 endloop
endfacet
facet normal 0.0191950760781765 0.011797052808105946 -0.9997461438179016
 outer loop
  vertex 378500.0 5708500.0 3883.10009765625
  vertex 379500.0 5708500.0 3902.300048828125
  vertex 379500.0 5707500.0 3890.5
 endloop
endfacet
facet normal -0.002399728400632739 0.011799192987382412 -0.9999275207519531
 outer loop
  vertex 379500.0 5708500.0 3902.300048828125
  vertex 380500.0 5707500.0 3888.10009765625
  vertex 379500.0 5707500.0 3890.5
 endloop
endfacet
facet normal 0.05666543170809746 0.07080686837434769 -0.9958792328834534
 outer loop
  vertex 379500.0 5708500.0 3902.300048828125
  vertex 380500.0 5708500.0 3959.199951171875
  vertex 380500.0 5707500.0 3888.10009765625
 endloop
endfacet
facet normal -0.14324216544628143 0.0701894611120224 -0.9871955513954163
 outer loop
  vertex 380500.0 5708500.0 3959.199951171875
  vertex 381500.0 5707500.0 3743.0
  vertex 380500.0 5707500.0 3888.10009765625
 endloop
endfacet
facet normal -0.12195480614900589 0.09171328693628311 -0.9882892370223999
 outer loop
  vertex 380500.0 5708500.0 3959.199951171875
  vertex 381500.0 5708500.0 3835.800048828125
  vertex 381500.0 5707500.0 3743.0
 endloop
endfacet
endsolid
