solid
facet normal 0.00869952142238617 -0.004799811635166407 -0.999950647354126
 outer loop
  vertex 446500.0 5882500.0 2703.0
  vertex 447500.0 5882500.0 2711.699951171875
  vertex 447500.0 5881500.0 2716.5
 endloop
endfacet
facet normal 0.008699613623321056 -0.0013998480280861259 -0.9999611973762512
 outer loop
  vertex 446500.0 5883500.0 2701.60009765625
  vertex 447500.0 5882500.0 2711.699951171875
  vertex 446500.0 5882500.0 2703.0
 endloop
endfacet
facet normal -0.0019000062020495534 -0.011999114416539669 -0.9999262094497681
 outer loop
  vertex 446500.0 5883500.0 2701.60009765625
  vertex 447500.0 5883500.0 2699.699951171875
  vertex 447500.0 5882500.0 2711.699951171875
 endloop
endfacet
facet normal 0.000199936781427823 -0.011999135836958885 -0.9999279975891113
 outer loop
  vertex 447500.0 5883500.0 2699.699951171875
  vertex 448500.0 5882500.0 2711.89990234375
  vertex 447500.0 5882500.0 2711.699951171875
 endloop
endfacet
facet normal 0.020794782787561417 0.008597920648753643 -0.9997467994689941
 outer loop
  vertex 447500.0 5883500.0 2699.699951171875
  vertex 448500.0 5883500.0 2720.5
  vertex 448500.0 5882500.0 2711.89990234375
 endloop
endfacet
facet normal -0.010898851789534092 0.008599269203841686 -0.9999036192893982
 outer loop
  vertex 448500.0 5883500.0 2720.5
  vertex 449500.0 5882500.0 2701.0
  vertex 448500.0 5882500.0 2711.89990234375
 endloop
endfacet
facet normal -0.028686925768852234 -0.009195775724947453 -0.9995461702346802
 outer loop
  vertex 448500.0 5883500.0 2720.5
  vertex 449500.0 5883500.0 2691.800048828125
  vertex 449500.0 5882500.0 2701.0
 endloop
endfacet
facet normal -0.0019000881584361196 -0.00759986462071538 -0.9999693036079407
 outer loop
  vertex 446500.0 5884500.0 2694.0
  vertex 447500.0 5883500.0 2699.699951171875
  vertex 446500.0 5883500.0 2701.60009765625
 endloop
endfacet
facet normal 0.0036999182775616646 -0.0019999821670353413 -0.9999911189079285
 outer loop
  vertex 446500.0 5884500.0 2694.0
  vertex 447500.0 5884500.0 2697.699951171875
  vertex 447500.0 5883500.0 2699.699951171875
 endloop
endfacet
facet normal 0.020795509219169617 -0.0019995635375380516 -0.9997817277908325
 outer loop
  vertex 447500.0 5884500.0 2697.699951171875
  vertex 448500.0 5883500.0 2720.5
  vertex 447500.0 5883500.0 2699.699951171875
 endloop
endfacet
facet normal 0.05717230960726738 0.034423090517520905 -0.9977707266807556
 outer loop
  vertex 447500.0 5884500.0 2697.699951171875
  vertex 448500.0 5884500.0 2755.0
  vertex 448500.0 5883500.0 2720.5
 endloop
endfacet
facet normal -0.02867109701037407 0.03446531295776367 -0.9989945888519287
 outer loop
  vertex 448500.0 5884500.0 2755.0
  vertex 449500.0 5883500.0 2691.800048828125
  vertex 448500.0 5883500.0 2720.5
 endloop
endfacet
facet normal -0.06665107607841492 -0.003592065069824457 -0.997769832611084
 outer loop
  vertex 448500.0 5884500.0 2755.0
  vertex 449500.0 5884500.0 2688.199951171875
  vertex 449500.0 5883500.0 2691.800048828125
 endloop
endfacet
facet normal -0.008599723689258099 -0.0035999412648379803 -0.9999565482139587
 outer loop
  vertex 449500.0 5884500.0 2688.199951171875
  vertex 450500.0 5883500.0 2683.199951171875
  vertex 449500.0 5883500.0 2691.800048828125
 endloop
endfacet
facet normal -0.011199033819139004 -0.006199443247169256 -0.9999180436134338
 outer loop
  vertex 449500.0 5884500.0 2688.199951171875
  vertex 450500.0 5884500.0 2677.0
  vertex 450500.0 5883500.0 2683.199951171875
 endloop
endfacet
facet normal -0.005199631210416555 0.009799445979297161 -0.999938428401947
 outer loop
  vertex 441500.0 5885500.0 2731.800048828125
  vertex 442500.0 5884500.0 2716.800048828125
  vertex 441500.0 5884500.0 2722.0
 endloop
endfacet
facet normal -0.02309318073093891 -0.008097671903669834 -0.9997005462646484
 outer loop
  vertex 441500.0 5885500.0 2731.800048828125
  vertex 442500.0 5885500.0 2708.699951171875
  vertex 442500.0 5884500.0 2716.800048828125
 endloop
endfacet
facet normal -0.02728898636996746 -0.008096815086901188 -0.9995948076248169
 outer loop
  vertex 442500.0 5885500.0 2708.699951171875
  vertex 443500.0 5884500.0 2689.5
  vertex 442500.0 5884500.0 2716.800048828125
 endloop
endfacet
facet normal -0.00929919071495533 0.009898989461362362 -0.9999077320098877
 outer loop
  vertex 442500.0 5885500.0 2708.699951171875
  vertex 443500.0 5885500.0 2699.39990234375
  vertex 443500.0 5884500.0 2689.5
 endloop
endfacet
facet normal -0.0034998070914298296 0.00989935640245676 -0.9999448657035828
 outer loop
  vertex 443500.0 5885500.0 2699.39990234375
  vertex 444500.0 5884500.0 2686.0
  vertex 443500.0 5884500.0 2689.5
 endloop
endfacet
facet normal -0.02259312942624092 -0.009197213687002659 -0.9997024536132812
 outer loop
  vertex 443500.0 5885500.0 2699.39990234375
  vertex 444500.0 5885500.0 2676.800048828125
  vertex 444500.0 5884500.0 2686.0
 endloop
endfacet
facet normal -0.008399446494877338 -0.009799232706427574 -0.999916672706604
 outer loop
  vertex 445500.0 5885500.0 2692.60009765625
  vertex 446500.0 5885500.0 2684.199951171875
  vertex 446500.0 5884500.0 2694.0
 endloop
endfacet
facet normal 0.0036997480783611536 -0.009799511171877384 -0.9999451041221619
 outer loop
  vertex 446500.0 5885500.0 2684.199951171875
  vertex 447500.0 5884500.0 2697.699951171875
  vertex 446500.0 5884500.0 2694.0
 endloop
endfacet
facet normal 0.0031997649930417538 -0.010299449786543846 -0.9999418258666992
 outer loop
  vertex 446500.0 5885500.0 2684.199951171875
  vertex 447500.0 5885500.0 2687.39990234375
  vertex 447500.0 5884500.0 2697.699951171875
 endloop
endfacet
facet normal 0.05720318853855133 -0.010282637551426888 -0.9983096122741699
 outer loop
  vertex 447500.0 5885500.0 2687.39990234375
  vertex 448500.0 5884500.0 2755.0
  vertex 447500.0 5884500.0 2697.699951171875
 endloop
endfacet
facet normal -0.0031919446773827076 -0.07062290608882904 -0.9974979758262634
 outer loop
  vertex 447500.0 5885500.0 2687.39990234375
  vertex 448500.0 5885500.0 2684.199951171875
  vertex 448500.0 5884500.0 2755.0
 endloop
endfacet
facet normal -0.06648581475019455 -0.07046700268983841 -0.9952960014343262
 outer loop
  vertex 448500.0 5885500.0 2684.199951171875
  vertex 449500.0 5884500.0 2688.199951171875
  vertex 448500.0 5884500.0 2755.0
 endloop
endfacet
facet normal -0.0046997214667499065 -0.008699526078999043 -0.9999511241912842
 outer loop
  vertex 448500.0 5885500.0 2684.199951171875
  vertex 449500.0 5885500.0 2679.5
  vertex 449500.0 5884500.0 2688.199951171875
 endloop
endfacet
facet normal -0.01119882520288229 -0.008699076250195503 -0.9998994469642639
 outer loop
  vertex 449500.0 5885500.0 2679.5
  vertex 450500.0 5884500.0 2677.0
  vertex 449500.0 5884500.0 2688.199951171875
 endloop
endfacet
facet normal -0.003999963402748108 -0.0014999862760305405 -0.9999908804893494
 outer loop
  vertex 449500.0 5885500.0 2679.5
  vertex 450500.0 5885500.0 2675.5
  vertex 450500.0 5884500.0 2677.0
 endloop
endfacet
facet normal -0.0092986561357975 -0.014597666449844837 -0.9998502135276794
 outer loop
  vertex 442500.0 5886500.0 2694.10009765625
  vertex 443500.0 5885500.0 2699.39990234375
  vertex 442500.0 5885500.0 2708.699951171875
 endloop
endfacet
facet normal 0.003399876644834876 -0.0018998879240825772 -0.9999924302101135
 outer loop
  vertex 442500.0 5886500.0 2694.10009765625
  vertex 443500.0 5886500.0 2697.5
  vertex 443500.0 5885500.0 2699.39990234375
 endloop
endfacet
facet normal -0.022594042122364044 -0.001899413880892098 -0.999742865562439
 outer loop
  vertex 443500.0 5886500.0 2697.5
  vertex 444500.0 5885500.0 2676.800048828125
  vertex 443500.0 5885500.0 2699.39990234375
 endloop
endfacet
facet normal -0.0013996403431519866 0.01929643750190735 -0.9998128414154053
 outer loop
  vertex 443500.0 5886500.0 2697.5
  vertex 444500.0 5886500.0 2696.10009765625
  vertex 444500.0 5885500.0 2676.800048828125
 endloop
endfacet
facet normal 0.015795135870575905 0.019294047728180885 -0.9996891021728516
 outer loop
  vertex 444500.0 5886500.0 2696.10009765625
  vertex 445500.0 5885500.0 2692.60009765625
  vertex 444500.0 5885500.0 2676.800048828125
 endloop
endfacet
facet normal -0.009699552319943905 -0.006199784576892853 -0.9999337792396545
 outer loop
  vertex 444500.0 5886500.0 2696.10009765625
  vertex 445500.0 5886500.0 2686.39990234375
  vertex 445500.0 5885500.0 2692.60009765625
 endloop
endfacet
facet normal -0.008399688638746738 -0.006199857220053673 -0.9999455213546753
 outer loop
  vertex 445500.0 5886500.0 2686.39990234375
  vertex 446500.0 5885500.0 2684.199951171875
  vertex 445500.0 5885500.0 2692.60009765625
 endloop
endfacet
facet normal 0.0011000910308212042 0.0033000288531184196 -0.9999939203262329
 outer loop
  vertex 445500.0 5886500.0 2686.39990234375
  vertex 446500.0 5886500.0 2687.5
  vertex 446500.0 5885500.0 2684.199951171875
 endloop
endfacet
facet normal 0.0031999172642827034 0.003300013951957226 -0.9999894499778748
 outer loop
  vertex 446500.0 5886500.0 2687.5
  vertex 447500.0 5885500.0 2687.39990234375
  vertex 446500.0 5885500.0 2684.199951171875
 endloop
endfacet
facet normal -0.0004999999073334038 -0.00039990225923247635 -0.9999998211860657
 outer loop
  vertex 446500.0 5886500.0 2687.5
  vertex 447500.0 5886500.0 2687.0
  vertex 447500.0 5885500.0 2687.39990234375
 endloop
endfacet
facet normal -0.003199934493750334 -0.0003999002801720053 -0.9999948143959045
 outer loop
  vertex 447500.0 5886500.0 2687.0
  vertex 448500.0 5885500.0 2684.199951171875
  vertex 447500.0 5885500.0 2687.39990234375
 endloop
endfacet
facet normal -0.00019995050388388336 0.0026000889483839273 -0.9999966025352478
 outer loop
  vertex 447500.0 5886500.0 2687.0
  vertex 448500.0 5886500.0 2686.800048828125
  vertex 448500.0 5885500.0 2684.199951171875
 endloop
endfacet
facet normal -0.00469988351687789 0.0026000600773841143 -0.9999855756759644
 outer loop
  vertex 448500.0 5886500.0 2686.800048828125
  vertex 449500.0 5885500.0 2679.5
  vertex 448500.0 5885500.0 2684.199951171875
 endloop
endfacet
facet normal -0.0217925813049078 -0.014495032839477062 -0.9996574521064758
 outer loop
  vertex 448500.0 5886500.0 2686.800048828125
  vertex 449500.0 5886500.0 2665.0
  vertex 449500.0 5885500.0 2679.5
 endloop
endfacet
facet normal -0.003999547567218542 -0.014498359523713589 -0.9998868703842163
 outer loop
  vertex 449500.0 5886500.0 2665.0
  vertex 450500.0 5885500.0 2675.5
  vertex 449500.0 5885500.0 2679.5
 endloop
endfacet
facet normal 0.0045999689027667046 -0.005899737123399973 -0.9999719858169556
 outer loop
  vertex 449500.0 5886500.0 2665.0
  vertex 450500.0 5886500.0 2669.60009765625
  vertex 450500.0 5885500.0 2675.5
 endloop
endfacet
facet normal -0.012698706239461899 -0.005899323616176844 -0.9999019503593445
 outer loop
  vertex 450500.0 5886500.0 2669.60009765625
  vertex 451500.0 5885500.0 2662.800048828125
  vertex 450500.0 5885500.0 2675.5
 endloop
endfacet
facet normal -0.009399699047207832 -0.0025999739300459623 -0.9999524354934692
 outer loop
  vertex 450500.0 5886500.0 2669.60009765625
  vertex 451500.0 5886500.0 2660.199951171875
  vertex 451500.0 5885500.0 2662.800048828125
 endloop
endfacet
facet normal 0.0033988957293331623 0.024092718958854675 -0.9997039437294006
 outer loop
  vertex 442500.0 5887500.0 2718.199951171875
  vertex 443500.0 5886500.0 2697.5
  vertex 442500.0 5886500.0 2694.10009765625
 endloop
endfacet
facet normal -0.018496790900826454 0.002199569484218955 -0.9998265504837036
 outer loop
  vertex 442500.0 5887500.0 2718.199951171875
  vertex 443500.0 5887500.0 2699.699951171875
  vertex 443500.0 5886500.0 2697.5
 endloop
endfacet
facet normal -0.0013998976210132241 0.002199943643063307 -0.9999966025352478
 outer loop
  vertex 443500.0 5887500.0 2699.699951171875
  vertex 444500.0 5886500.0 2696.10009765625
  vertex 443500.0 5886500.0 2697.5
 endloop
endfacet
facet normal -0.004999932833015919 -0.0014001276576891541 -0.9999865889549255
 outer loop
  vertex 443500.0 5887500.0 2699.699951171875
  vertex 444500.0 5887500.0 2694.699951171875
  vertex 444500.0 5886500.0 2696.10009765625
 endloop
endfacet
facet normal -0.009699729271233082 -0.0014000792289152741 -0.999951958656311
 outer loop
  vertex 444500.0 5887500.0 2694.699951171875
  vertex 445500.0 5886500.0 2686.39990234375
  vertex 444500.0 5886500.0 2696.10009765625
 endloop
endfacet
facet normal -0.003999930806457996 0.004299974534660578 -0.9999827742576599
 outer loop
  vertex 444500.0 5887500.0 2694.699951171875
  vertex 445500.0 5887500.0 2690.699951171875
  vertex 445500.0 5886500.0 2686.39990234375
 endloop
endfacet
facet normal 0.0011000868398696184 0.004300006199628115 -0.9999901056289673
 outer loop
  vertex 445500.0 5887500.0 2690.699951171875
  vertex 446500.0 5886500.0 2687.5
  vertex 445500.0 5886500.0 2686.39990234375
 endloop
endfacet
facet normal -0.008899405598640442 -0.005699633155018091 -0.9999442100524902
 outer loop
  vertex 445500.0 5887500.0 2690.699951171875
  vertex 446500.0 5887500.0 2681.800048828125
  vertex 446500.0 5886500.0 2687.5
 endloop
endfacet
facet normal -0.0004999918164685369 -0.005699858069419861 -0.9999836087226868
 outer loop
  vertex 446500.0 5887500.0 2681.800048828125
  vertex 447500.0 5886500.0 2687.0
  vertex 446500.0 5886500.0 2687.5
 endloop
endfacet
facet normal 0.020393304526805878 0.015195035375654697 -0.9996765851974487
 outer loop
  vertex 446500.0 5887500.0 2681.800048828125
  vertex 447500.0 5887500.0 2702.199951171875
  vertex 447500.0 5886500.0 2687.0
 endloop
endfacet
facet normal -0.00019992807938251644 0.015198195353150368 -0.9998844861984253
 outer loop
  vertex 447500.0 5887500.0 2702.199951171875
  vertex 448500.0 5886500.0 2686.800048828125
  vertex 447500.0 5886500.0 2687.0
 endloop
endfacet
facet normal -0.014898247085511684 0.0004999444354325533 -0.9998888969421387
 outer loop
  vertex 447500.0 5887500.0 2702.199951171875
  vertex 448500.0 5887500.0 2687.300048828125
  vertex 448500.0 5886500.0 2686.800048828125
 endloop
endfacet
facet normal -0.021794868633151054 0.0004998811637051404 -0.9997623562812805
 outer loop
  vertex 448500.0 5887500.0 2687.300048828125
  vertex 449500.0 5886500.0 2665.0
  vertex 448500.0 5886500.0 2686.800048828125
 endloop
endfacet
facet normal -0.008798905648291111 0.013498246669769287 -0.9998701214790344
 outer loop
  vertex 448500.0 5887500.0 2687.300048828125
  vertex 449500.0 5887500.0 2678.5
  vertex 449500.0 5886500.0 2665.0
 endloop
endfacet
facet normal 0.0045996299013495445 0.013498627580702305 -0.9998983144760132
 outer loop
  vertex 449500.0 5887500.0 2678.5
  vertex 450500.0 5886500.0 2669.60009765625
  vertex 449500.0 5886500.0 2665.0
 endloop
endfacet
facet normal -0.010799399577081203 -0.0019000322790816426 -0.9999398589134216
 outer loop
  vertex 449500.0 5887500.0 2678.5
  vertex 450500.0 5887500.0 2667.699951171875
  vertex 450500.0 5886500.0 2669.60009765625
 endloop
endfacet
facet normal -0.009399713948369026 -0.0019000590546056628 -0.9999539852142334
 outer loop
  vertex 450500.0 5887500.0 2667.699951171875
  vertex 451500.0 5886500.0 2660.199951171875
  vertex 450500.0 5886500.0 2669.60009765625
 endloop
endfacet
facet normal -0.011499147862195969 -0.00399970356374979 -0.9999258518218994
 outer loop
  vertex 450500.0 5887500.0 2667.699951171875
  vertex 451500.0 5887500.0 2656.199951171875
  vertex 451500.0 5886500.0 2660.199951171875
 endloop
endfacet
facet normal -0.018496433272957802 -0.006598580628633499 -0.9998071789741516
 outer loop
  vertex 442500.0 5888500.0 2711.60009765625
  vertex 443500.0 5887500.0 2699.699951171875
  vertex 442500.0 5887500.0 2718.199951171875
 endloop
endfacet
facet normal -0.024790365248918533 -0.01289486512541771 -0.9996095299720764
 outer loop
  vertex 442500.0 5888500.0 2711.60009765625
  vertex 443500.0 5888500.0 2686.800048828125
  vertex 443500.0 5887500.0 2699.699951171875
 endloop
endfacet
facet normal -0.004999521654099226 -0.012898667715489864 -0.9999043345451355
 outer loop
  vertex 443500.0 5888500.0 2686.800048828125
  vertex 444500.0 5887500.0 2694.699951171875
  vertex 443500.0 5887500.0 2699.699951171875
 endloop
endfacet
facet normal -0.0038998452946543694 -0.011799137108027935 -0.9999227523803711
 outer loop
  vertex 443500.0 5888500.0 2686.800048828125
  vertex 444500.0 5888500.0 2682.89990234375
  vertex 444500.0 5887500.0 2694.699951171875
 endloop
endfacet
facet normal -0.003999689593911171 -0.011799133382737637 -0.9999223947525024
 outer loop
  vertex 444500.0 5888500.0 2682.89990234375
  vertex 445500.0 5887500.0 2690.699951171875
  vertex 444500.0 5887500.0 2694.699951171875
 endloop
endfacet
facet normal 0.014798065647482872 0.006999061908572912 -0.9998660087585449
 outer loop
  vertex 444500.0 5888500.0 2682.89990234375
  vertex 445500.0 5888500.0 2697.699951171875
  vertex 445500.0 5887500.0 2690.699951171875
 endloop
endfacet
facet normal -0.008899332024157047 0.00699955178424716 -0.9999359250068665
 outer loop
  vertex 445500.0 5888500.0 2697.699951171875
  vertex 446500.0 5887500.0 2681.800048828125
  vertex 445500.0 5887500.0 2690.699951171875
 endloop
endfacet
facet normal 0.003399493871256709 0.019296344369649887 -0.9998080134391785
 outer loop
  vertex 445500.0 5888500.0 2697.699951171875
  vertex 446500.0 5888500.0 2701.10009765625
  vertex 446500.0 5887500.0 2681.800048828125
 endloop
endfacet
facet normal 0.020391862839460373 0.019292442128062248 -0.9996058940887451
 outer loop
  vertex 446500.0 5888500.0 2701.10009765625
  vertex 447500.0 5887500.0 2702.199951171875
  vertex 446500.0 5887500.0 2681.800048828125
 endloop
endfacet
facet normal 0.008599293418228626 0.007499511819332838 -0.9999348521232605
 outer loop
  vertex 446500.0 5888500.0 2701.10009765625
  vertex 447500.0 5888500.0 2709.699951171875
  vertex 447500.0 5887500.0 2702.199951171875
 endloop
endfacet
facet normal -0.014897829852998257 0.007498956751078367 -0.9998608827590942
 outer loop
  vertex 447500.0 5888500.0 2709.699951171875
  vertex 448500.0 5887500.0 2687.300048828125
  vertex 447500.0 5887500.0 2702.199951171875
 endloop
endfacet
facet normal -0.02499210648238659 -0.0025992768350988626 -0.9996842741966248
 outer loop
  vertex 447500.0 5888500.0 2709.699951171875
  vertex 448500.0 5888500.0 2684.699951171875
  vertex 448500.0 5887500.0 2687.300048828125
 endloop
endfacet
facet normal -0.008799677714705467 -0.0025999881327152252 -0.9999578595161438
 outer loop
  vertex 448500.0 5888500.0 2684.699951171875
  vertex 449500.0 5887500.0 2678.5
  vertex 448500.0 5887500.0 2687.300048828125
 endloop
endfacet
facet normal -0.025087472051382065 -0.018890580162405968 -0.9995067715644836
 outer loop
  vertex 448500.0 5888500.0 2684.699951171875
  vertex 449500.0 5888500.0 2659.60009765625
  vertex 449500.0 5887500.0 2678.5
 endloop
endfacet
facet normal -0.010797491297125816 -0.018895426765084267 -0.9997631907463074
 outer loop
  vertex 449500.0 5888500.0 2659.60009765625
  vertex 450500.0 5887500.0 2667.699951171875
  vertex 449500.0 5887500.0 2678.5
 endloop
endfacet
facet normal 0.033968985080718994 0.025876522064208984 -0.9990878105163574
 outer loop
  vertex 449500.0 5888500.0 2659.60009765625
  vertex 450500.0 5888500.0 2693.60009765625
  vertex 450500.0 5887500.0 2667.699951171875
 endloop
endfacet
facet normal -0.011495387181639671 0.02588975429534912 -0.9995987415313721
 outer loop
  vertex 450500.0 5888500.0 2693.60009765625
  vertex 451500.0 5887500.0 2656.199951171875
  vertex 450500.0 5887500.0 2667.699951171875
 endloop
endfacet
facet normal -0.0379725843667984 -0.0005994188250042498 -0.9992786049842834
 outer loop
  vertex 450500.0 5888500.0 2693.60009765625
  vertex 451500.0 5888500.0 2655.60009765625
  vertex 451500.0 5887500.0 2656.199951171875
 endloop
endfacet
facet normal -0.012499021366238594 -0.0005998065462335944 -0.9999216794967651
 outer loop
  vertex 451500.0 5888500.0 2655.60009765625
  vertex 452500.0 5887500.0 2643.699951171875
  vertex 451500.0 5887500.0 2656.199951171875
 endloop
endfacet
facet normal -0.0050999135710299015 0.006799803115427494 -0.9999638795852661
 outer loop
  vertex 451500.0 5888500.0 2655.60009765625
  vertex 452500.0 5888500.0 2650.5
  vertex 452500.0 5887500.0 2643.699951171875
 endloop
endfacet
facet normal -0.003899654373526573 0.015397959388792515 -0.9998738169670105
 outer loop
  vertex 443500.0 5889500.0 2702.199951171875
  vertex 444500.0 5888500.0 2682.89990234375
  vertex 443500.0 5888500.0 2686.800048828125
 endloop
endfacet
facet normal 0.004398868419229984 0.02369331195950508 -0.9997096061706543
 outer loop
  vertex 443500.0 5889500.0 2702.199951171875
  vertex 444500.0 5889500.0 2706.60009765625
  vertex 444500.0 5888500.0 2682.89990234375
 endloop
endfacet
facet normal 0.014794274233281612 0.023690948262810707 -0.9996098279953003
 outer loop
  vertex 444500.0 5889500.0 2706.60009765625
  vertex 445500.0 5888500.0 2697.699951171875
  vertex 444500.0 5888500.0 2682.89990234375
 endloop
endfacet
facet normal 0.009597769007086754 0.018495982512831688 -0.9997828602790833
 outer loop
  vertex 444500.0 5889500.0 2706.60009765625
  vertex 445500.0 5889500.0 2716.199951171875
  vertex 445500.0 5888500.0 2697.699951171875
 endloop
endfacet
facet normal 0.003399545093998313 0.01849672757089138 -0.9998231530189514
 outer loop
  vertex 445500.0 5889500.0 2716.199951171875
  vertex 446500.0 5888500.0 2701.10009765625
  vertex 445500.0 5888500.0 2697.699951171875
 endloop
endfacet
facet normal 0.01069577969610691 0.025789747014641762 -0.9996101260185242
 outer loop
  vertex 445500.0 5889500.0 2716.199951171875
  vertex 446500.0 5889500.0 2726.89990234375
  vertex 446500.0 5888500.0 2701.10009765625
 endloop
endfacet
facet normal 0.008596675470471382 0.025790270417928696 -0.9996304512023926
 outer loop
  vertex 446500.0 5889500.0 2726.89990234375
  vertex 447500.0 5888500.0 2709.699951171875
  vertex 446500.0 5888500.0 2701.10009765625
 endloop
endfacet
facet normal 0.012693499214947224 0.02988438308238983 -0.9994727969169617
 outer loop
  vertex 446500.0 5889500.0 2726.89990234375
  vertex 447500.0 5889500.0 2739.60009765625
  vertex 447500.0 5888500.0 2709.699951171875
 endloop
endfacet
facet normal -0.02498103678226471 0.02987746335566044 -0.9992414116859436
 outer loop
  vertex 447500.0 5889500.0 2739.60009765625
  vertex 448500.0 5888500.0 2684.699951171875
  vertex 447500.0 5888500.0 2709.699951171875
 endloop
endfacet
facet normal 0.010277438908815384 0.06505837291479111 -0.9978285431861877
 outer loop
  vertex 447500.0 5889500.0 2739.60009765625
  vertex 448500.0 5889500.0 2749.89990234375
  vertex 448500.0 5888500.0 2684.699951171875
 endloop
endfacet
facet normal -0.025038817897439003 0.06504140794277191 -0.9975683689117432
 outer loop
  vertex 448500.0 5889500.0 2749.89990234375
  vertex 449500.0 5888500.0 2659.60009765625
  vertex 448500.0 5888500.0 2684.699951171875
 endloop
endfacet
facet normal -0.04460909962654114 0.045507170259952545 -0.997967541217804
 outer loop
  vertex 448500.0 5889500.0 2749.89990234375
  vertex 449500.0 5889500.0 2705.199951171875
  vertex 449500.0 5888500.0 2659.60009765625
 endloop
endfacet
facet normal 0.03394513204693794 0.04552626237273216 -0.9983862042427063
 outer loop
  vertex 449500.0 5889500.0 2705.199951171875
  vertex 450500.0 5888500.0 2693.60009765625
  vertex 449500.0 5888500.0 2659.60009765625
 endloop
endfacet
facet normal -0.052483268082141876 -0.04090912640094757 -0.9977835416793823
 outer loop
  vertex 449500.0 5889500.0 2705.199951171875
  vertex 450500.0 5889500.0 2652.60009765625
  vertex 450500.0 5888500.0 2693.60009765625
 endloop
endfacet
facet normal -0.03794076293706894 -0.04093608632683754 -0.9984411001205444
 outer loop
  vertex 450500.0 5889500.0 2652.60009765625
  vertex 451500.0 5888500.0 2655.60009765625
  vertex 450500.0 5888500.0 2693.60009765625
 endloop
endfacet
facet normal 0.0007998024811968207 -0.0022001892793923616 -0.9999972581863403
 outer loop
  vertex 450500.0 5889500.0 2652.60009765625
  vertex 451500.0 5889500.0 2653.39990234375
  vertex 451500.0 5888500.0 2655.60009765625
 endloop
endfacet
facet normal -0.005100018810480833 -0.002200161339715123 -0.9999845623970032
 outer loop
  vertex 451500.0 5889500.0 2653.39990234375
  vertex 452500.0 5888500.0 2650.5
  vertex 451500.0 5888500.0 2655.60009765625
 endloop
endfacet
facet normal -0.0004999985103495419 0.0023998951073735952 -0.9999970197677612
 outer loop
  vertex 451500.0 5889500.0 2653.39990234375
  vertex 452500.0 5889500.0 2652.89990234375
  vertex 452500.0 5888500.0 2650.5
 endloop
endfacet
facet normal 0.009599271230399609 0.005399574991315603 -0.9999393820762634
 outer loop
  vertex 444500.0 5890500.0 2712.0
  vertex 445500.0 5889500.0 2716.199951171875
  vertex 444500.0 5889500.0 2706.60009765625
 endloop
endfacet
facet normal 0.0182951670140028 0.0140963364392519 -0.9997332692146301
 outer loop
  vertex 444500.0 5890500.0 2712.0
  vertex 445500.0 5890500.0 2730.300048828125
  vertex 445500.0 5889500.0 2716.199951171875
 endloop
endfacet
facet normal 0.01069827564060688 0.014097889885306358 -0.999843418598175
 outer loop
  vertex 445500.0 5890500.0 2730.300048828125
  vertex 446500.0 5889500.0 2726.89990234375
  vertex 445500.0 5889500.0 2716.199951171875
 endloop
endfacet
facet normal -0.012398690916597843 -0.008998943492770195 -0.9998826384544373
 outer loop
  vertex 445500.0 5890500.0 2730.300048828125
  vertex 446500.0 5890500.0 2717.89990234375
  vertex 446500.0 5889500.0 2726.89990234375
 endloop
endfacet
facet normal 0.012698656879365444 -0.008998909965157509 -0.9998788833618164
 outer loop
  vertex 446500.0 5890500.0 2717.89990234375
  vertex 447500.0 5889500.0 2739.60009765625
  vertex 446500.0 5889500.0 2726.89990234375
 endloop
endfacet
facet normal 0.05409228429198265 0.03243529424071312 -0.9980090260505676
 outer loop
  vertex 446500.0 5890500.0 2717.89990234375
  vertex 447500.0 5890500.0 2772.10009765625
  vertex 447500.0 5889500.0 2739.60009765625
 endloop
endfacet
facet normal 0.010293823666870594 0.032481130212545395 -0.9994193315505981
 outer loop
  vertex 447500.0 5890500.0 2772.10009765625
  vertex 448500.0 5889500.0 2749.89990234375
  vertex 447500.0 5889500.0 2739.60009765625
 endloop
endfacet
facet normal -0.00359945185482502 0.01859676092863083 -0.9998205900192261
 outer loop
  vertex 447500.0 5890500.0 2772.10009765625
  vertex 448500.0 5890500.0 2768.5
  vertex 448500.0 5889500.0 2749.89990234375
 endloop
endfacet
facet normal -0.04464765265583992 0.018578337505459785 -0.9988300800323486
 outer loop
  vertex 448500.0 5890500.0 2768.5
  vertex 449500.0 5889500.0 2705.199951171875
  vertex 448500.0 5889500.0 2749.89990234375
 endloop
endfacet
facet normal 0.02221331186592579 0.08526714891195297 -0.9961104989051819
 outer loop
  vertex 448500.0 5890500.0 2768.5
  vertex 449500.0 5890500.0 2790.800048828125
  vertex 449500.0 5889500.0 2705.199951171875
 endloop
endfacet
facet normal -0.05233637988567352 0.08517131209373474 -0.9949908256530762
 outer loop
  vertex 449500.0 5890500.0 2790.800048828125
  vertex 450500.0 5889500.0 2652.60009765625
  vertex 449500.0 5889500.0 2705.199951171875
 endloop
endfacet
facet normal -0.07513901591300964 0.06240016594529152 -0.9952186942100525
 outer loop
  vertex 449500.0 5890500.0 2790.800048828125
  vertex 450500.0 5890500.0 2715.300048828125
  vertex 450500.0 5889500.0 2652.60009765625
 endloop
endfacet
facet normal 0.0007982369279488921 0.06257705390453339 -0.9980398416519165
 outer loop
  vertex 450500.0 5890500.0 2715.300048828125
  vertex 451500.0 5889500.0 2653.39990234375
  vertex 450500.0 5889500.0 2652.60009765625
 endloop
endfacet
facet normal -0.06406789273023605 -0.0022950738202780485 -0.9979429244995117
 outer loop
  vertex 450500.0 5890500.0 2715.300048828125
  vertex 451500.0 5890500.0 2651.10009765625
  vertex 451500.0 5889500.0 2653.39990234375
 endloop
endfacet
facet normal -0.0004999985685572028 -0.002299798186868429 -0.9999971985816956
 outer loop
  vertex 451500.0 5890500.0 2651.10009765625
  vertex 452500.0 5889500.0 2652.89990234375
  vertex 451500.0 5889500.0 2653.39990234375
 endloop
endfacet
facet normal 0.004295043647289276 0.048044104129076004 -0.9988359808921814
 outer loop
  vertex 443500.0 5891500.0 2755.800048828125
  vertex 444500.0 5891500.0 2760.10009765625
  vertex 444500.0 5890500.0 2712.0
 endloop
endfacet
facet normal 0.01827586255967617 0.04803652688860893 -0.9986783862113953
 outer loop
  vertex 444500.0 5891500.0 2760.10009765625
  vertex 445500.0 5890500.0 2730.300048828125
  vertex 444500.0 5890500.0 2712.0
 endloop
endfacet
facet normal -0.013197227381169796 0.016596121713519096 -0.9997751712799072
 outer loop
  vertex 444500.0 5891500.0 2760.10009765625
  vertex 445500.0 5891500.0 2746.89990234375
  vertex 445500.0 5890500.0 2730.300048828125
 endloop
endfacet
facet normal -0.01239748578518629 0.016596291214227676 -0.9997854232788086
 outer loop
  vertex 445500.0 5891500.0 2746.89990234375
  vertex 446500.0 5890500.0 2717.89990234375
  vertex 445500.0 5890500.0 2730.300048828125
 endloop
endfacet
facet normal 0.032620761543512344 0.061550311744213104 -0.997570812702179
 outer loop
  vertex 445500.0 5891500.0 2746.89990234375
  vertex 446500.0 5891500.0 2779.60009765625
  vertex 446500.0 5890500.0 2717.89990234375
 endloop
endfacet
facet normal 0.05401833727955818 0.061493169516325 -0.9966446757316589
 outer loop
  vertex 446500.0 5891500.0 2779.60009765625
  vertex 447500.0 5890500.0 2772.10009765625
  vertex 446500.0 5890500.0 2717.89990234375
 endloop
endfacet
facet normal -0.017396660521626472 -0.009898163378238678 -0.9997996687889099
 outer loop
  vertex 446500.0 5891500.0 2779.60009765625
  vertex 447500.0 5891500.0 2762.199951171875
  vertex 447500.0 5890500.0 2772.10009765625
 endloop
endfacet
facet normal -0.0035998979583382607 -0.009899596683681011 -0.9999445080757141
 outer loop
  vertex 447500.0 5891500.0 2762.199951171875
  vertex 448500.0 5890500.0 2768.5
  vertex 447500.0 5890500.0 2772.10009765625
 endloop
endfacet
facet normal 0.024987824261188507 0.018690843135118484 -0.9995129704475403
 outer loop
  vertex 447500.0 5891500.0 2762.199951171875
  vertex 448500.0 5891500.0 2787.199951171875
  vertex 448500.0 5890500.0 2768.5
 endloop
endfacet
facet normal 0.022290611639618874 0.01869203709065914 -0.9995768070220947
 outer loop
  vertex 448500.0 5891500.0 2787.199951171875
  vertex 449500.0 5890500.0 2790.800048828125
  vertex 448500.0 5890500.0 2768.5
 endloop
endfacet
facet normal 0.0016999456565827131 -0.001900140312500298 -0.9999967217445374
 outer loop
  vertex 448500.0 5891500.0 2787.199951171875
  vertex 449500.0 5891500.0 2788.89990234375
  vertex 449500.0 5890500.0 2790.800048828125
 endloop
endfacet
facet normal -0.07528559863567352 -0.0018947505159303546 -0.9971601963043213
 outer loop
  vertex 449500.0 5891500.0 2788.89990234375
  vertex 450500.0 5890500.0 2715.300048828125
  vertex 449500.0 5890500.0 2790.800048828125
 endloop
endfacet
facet normal -0.03545196354389191 0.03804829716682434 -0.9986468553543091
 outer loop
  vertex 449500.0 5891500.0 2788.89990234375
  vertex 450500.0 5891500.0 2753.39990234375
  vertex 450500.0 5890500.0 2715.300048828125
 endloop
endfacet
facet normal -0.06402179598808289 0.03799412399530411 -0.9972249865531921
 outer loop
  vertex 450500.0 5891500.0 2753.39990234375
  vertex 451500.0 5890500.0 2651.10009765625
  vertex 450500.0 5890500.0 2715.300048828125
 endloop
endfacet
facet normal -0.09338652342557907 0.008462549187242985 -0.9955940246582031
 outer loop
  vertex 450500.0 5891500.0 2753.39990234375
  vertex 451500.0 5891500.0 2659.60009765625
  vertex 451500.0 5890500.0 2651.10009765625
 endloop
endfacet
facet normal 0.03266376256942749 0.03406210243701935 -0.9988858103752136
 outer loop
  vertex 445500.0 5892500.0 2781.0
  vertex 446500.0 5891500.0 2779.60009765625
  vertex 445500.0 5891500.0 2746.89990234375
 endloop
endfacet
facet normal -0.009099450893700123 -0.007699648384004831 -0.9999289512634277
 outer loop
  vertex 445500.0 5892500.0 2781.0
  vertex 446500.0 5892500.0 2771.89990234375
  vertex 446500.0 5891500.0 2779.60009765625
 endloop
endfacet
facet normal -0.017396997660398483 -0.007698801811784506 -0.9998190402984619
 outer loop
  vertex 446500.0 5892500.0 2771.89990234375
  vertex 447500.0 5891500.0 2762.199951171875
  vertex 446500.0 5891500.0 2779.60009765625
 endloop
endfacet
facet normal 0.03434646874666214 0.044031284749507904 -0.9984395503997803
 outer loop
  vertex 446500.0 5892500.0 2771.89990234375
  vertex 447500.0 5892500.0 2806.300048828125
  vertex 447500.0 5891500.0 2762.199951171875
 endloop
endfacet
facet normal 0.024967940524220467 0.04404354467988014 -0.9987176060676575
 outer loop
  vertex 447500.0 5892500.0 2806.300048828125
  vertex 448500.0 5891500.0 2787.199951171875
  vertex 447500.0 5891500.0 2762.199951171875
 endloop
endfacet
facet normal 0.01229306124150753 0.03138230741024017 -0.9994319081306458
 outer loop
  vertex 447500.0 5892500.0 2806.300048828125
  vertex 448500.0 5892500.0 2818.60009765625
  vertex 448500.0 5891500.0 2787.199951171875
 endloop
endfacet
facet normal 0.0016991113079711795 0.031384631991386414 -0.9995059370994568
 outer loop
  vertex 448500.0 5892500.0 2818.60009765625
  vertex 449500.0 5891500.0 2788.89990234375
  vertex 448500.0 5891500.0 2787.199951171875
 endloop
endfacet
facet normal -0.06828871369361877 -0.038680125027894974 -0.9969154596328735
 outer loop
  vertex 448500.0 5892500.0 2818.60009765625
  vertex 449500.0 5892500.0 2750.10009765625
  vertex 449500.0 5891500.0 2788.89990234375
 endloop
endfacet
facet normal -0.0354510098695755 -0.03874626383185387 -0.9986200332641602
 outer loop
  vertex 449500.0 5892500.0 2750.10009765625
  vertex 450500.0 5891500.0 2753.39990234375
  vertex 449500.0 5891500.0 2788.89990234375
 endloop
endfacet
facet normal -0.09684663265943527 -0.10011427104473114 -0.9902514219284058
 outer loop
  vertex 449500.0 5892500.0 2750.10009765625
  vertex 450500.0 5892500.0 2652.300048828125
  vertex 450500.0 5891500.0 2753.39990234375
 endloop
endfacet
facet normal -0.09292031079530716 -0.1001519113779068 -0.9906237721443176
 outer loop
  vertex 450500.0 5892500.0 2652.300048828125
  vertex 451500.0 5891500.0 2659.60009765625
  vertex 450500.0 5891500.0 2753.39990234375
 endloop
endfacet
facet normal -0.0024998721200972795 -0.009799547493457794 -0.9999488592147827
 outer loop
  vertex 450500.0 5892500.0 2652.300048828125
  vertex 451500.0 5892500.0 2649.800048828125
  vertex 451500.0 5891500.0 2659.60009765625
 endloop
endfacet
facet normal 0.03437848389148712 0.008794507011771202 -0.9993702173233032
 outer loop
  vertex 446500.0 5893500.0 2780.699951171875
  vertex 447500.0 5892500.0 2806.300048828125
  vertex 446500.0 5892500.0 2771.89990234375
 endloop
endfacet
facet normal 0.04245561733841896 0.01688225381076336 -0.9989557266235352
 outer loop
  vertex 446500.0 5893500.0 2780.699951171875
  vertex 447500.0 5893500.0 2823.199951171875
  vertex 447500.0 5892500.0 2806.300048828125
 endloop
endfacet
facet normal 0.012297363020479679 0.016896212473511696 -0.999781608581543
 outer loop
  vertex 447500.0 5893500.0 2823.199951171875
  vertex 448500.0 5892500.0 2818.60009765625
  vertex 447500.0 5892500.0 2806.300048828125
 endloop
endfacet
facet normal -0.009999354369938374 -0.005399798043072224 -0.9999354481697083
 outer loop
  vertex 447500.0 5893500.0 2823.199951171875
  vertex 448500.0 5893500.0 2813.199951171875
  vertex 448500.0 5892500.0 2818.60009765625
 endloop
endfacet
facet normal -0.06833886355161667 -0.005387443117797375 -0.9976475834846497
 outer loop
  vertex 448500.0 5893500.0 2813.199951171875
  vertex 449500.0 5892500.0 2750.10009765625
  vertex 448500.0 5892500.0 2818.60009765625
 endloop
endfacet
facet normal -0.08151358366012573 -0.018634706735610962 -0.9964979887008667
 outer loop
  vertex 448500.0 5893500.0 2813.199951171875
  vertex 449500.0 5893500.0 2731.39990234375
  vertex 449500.0 5892500.0 2750.10009765625
 endloop
endfacet
facet normal -0.09731879830360413 -0.018608177080750465 -0.9950792789459229
 outer loop
  vertex 449500.0 5893500.0 2731.39990234375
  vertex 450500.0 5892500.0 2652.300048828125
  vertex 449500.0 5892500.0 2750.10009765625
 endloop
endfacet
facet normal 0.042458198964595795 0.01278745848685503 -0.9990164041519165
 outer loop
  vertex 446500.0 5894500.0 2793.5
  vertex 447500.0 5893500.0 2823.199951171875
  vertex 446500.0 5893500.0 2780.699951171875
 endloop
endfacet
facet normal -0.004996930249035358 -0.03467864915728569 -0.9993860721588135
 outer loop
  vertex 446500.0 5894500.0 2793.5
  vertex 447500.0 5894500.0 2788.5
  vertex 447500.0 5893500.0 2823.199951171875
 endloop
endfacet
facet normal -0.00999348796904087 -0.03467734903097153 -0.9993486404418945
 outer loop
  vertex 447500.0 5894500.0 2788.5
  vertex 448500.0 5893500.0 2813.199951171875
  vertex 447500.0 5893500.0 2823.199951171875
 endloop
endfacet
endsolid
