solid
facet normal -0.002100090030580759 -0.001700189197435975 -0.9999963641166687
 outer loop
  vertex 523500.0 6068500.0 3054.89990234375
  vertex 524500.0 6067500.0 3054.5
  vertex 523500.0 6067500.0 3056.60009765625
 endloop
endfacet
facet normal -0.02009189873933792 -0.019692154601216316 -0.9996042251586914
 outer loop
  vertex 523500.0 6068500.0 3054.89990234375
  vertex 524500.0 6068500.0 3034.800048828125
  vertex 524500.0 6067500.0 3054.5
 endloop
endfacet
facet normal -0.007298438344150782 -0.019695604220032692 -0.9997793436050415
 outer loop
  vertex 524500.0 6068500.0 3034.800048828125
  vertex 525500.0 6067500.0 3047.199951171875
  vertex 524500.0 6067500.0 3054.5
 endloop
endfacet
facet normal -0.01908715069293976 -0.0314786471426487 -0.9993221759796143
 outer loop
  vertex 524500.0 6068500.0 3034.800048828125
  vertex 525500.0 6068500.0 3015.699951171875
  vertex 525500.0 6067500.0 3047.199951171875
 endloop
endfacet
facet normal -0.06214878708124161 -0.03142352029681206 -0.997572124004364
 outer loop
  vertex 525500.0 6068500.0 3015.699951171875
  vertex 526500.0 6067500.0 2984.89990234375
  vertex 525500.0 6067500.0 3047.199951171875
 endloop
endfacet
facet normal -0.05211707949638367 -0.021365929394960403 -0.9984123706817627
 outer loop
  vertex 525500.0 6068500.0 3015.699951171875
  vertex 526500.0 6068500.0 2963.5
  vertex 526500.0 6067500.0 2984.89990234375
 endloop
endfacet
facet normal 0.04135525971651077 -0.021376701071858406 -0.9989157915115356
 outer loop
  vertex 526500.0 6068500.0 2963.5
  vertex 527500.0 6067500.0 3026.300048828125
  vertex 526500.0 6067500.0 2984.89990234375
 endloop
endfacet
facet normal 0.06317359954118729 0.0004990012384951115 -0.9980024099349976
 outer loop
  vertex 526500.0 6068500.0 2963.5
  vertex 527500.0 6068500.0 3026.800048828125
  vertex 527500.0 6067500.0 3026.300048828125
 endloop
endfacet
facet normal 0.04844305291771889 0.0004994128830730915 -0.9988257884979248
 outer loop
  vertex 527500.0 6068500.0 3026.800048828125
  vertex 528500.0 6067500.0 3074.800048828125
  vertex 527500.0 6067500.0 3026.300048828125
 endloop
endfacet
facet normal 0.04056532308459282 -0.007393854670226574 -0.9991495609283447
 outer loop
  vertex 527500.0 6068500.0 3026.800048828125
  vertex 528500.0 6068500.0 3067.39990234375
  vertex 528500.0 6067500.0 3074.800048828125
 endloop
endfacet
facet normal -0.020095786079764366 0.0008999643614515662 -0.9997976422309875
 outer loop
  vertex 523500.0 6069500.0 3055.800048828125
  vertex 524500.0 6068500.0 3034.800048828125
  vertex 523500.0 6068500.0 3054.89990234375
 endloop
endfacet
facet normal 0.003398871049284935 0.024392500519752502 -0.999696671962738
 outer loop
  vertex 523500.0 6069500.0 3055.800048828125
  vertex 524500.0 6069500.0 3059.199951171875
  vertex 524500.0 6068500.0 3034.800048828125
 endloop
endfacet
facet normal -0.019090935587882996 0.02438819780945778 -0.9995203018188477
 outer loop
  vertex 524500.0 6069500.0 3059.199951171875
  vertex 525500.0 6068500.0 3015.699951171875
  vertex 524500.0 6068500.0 3034.800048828125
 endloop
endfacet
facet normal -0.005995677784085274 0.037472985684871674 -0.9992796182632446
 outer loop
  vertex 524500.0 6069500.0 3059.199951171875
  vertex 525500.0 6069500.0 3053.199951171875
  vertex 525500.0 6068500.0 3015.699951171875
 endloop
endfacet
facet normal -0.05209246650338173 0.0374227836728096 -0.9979408979415894
 outer loop
  vertex 525500.0 6069500.0 3053.199951171875
  vertex 526500.0 6068500.0 2963.5
  vertex 525500.0 6068500.0 3015.699951171875
 endloop
endfacet
facet normal -0.036024708300828934 0.05348853021860123 -0.9979184865951538
 outer loop
  vertex 525500.0 6069500.0 3053.199951171875
  vertex 526500.0 6069500.0 3017.10009765625
  vertex 526500.0 6068500.0 2963.5
 endloop
endfacet
facet normal 0.06308341771364212 0.0534166656434536 -0.9965777397155762
 outer loop
  vertex 526500.0 6069500.0 3017.10009765625
  vertex 527500.0 6068500.0 3026.800048828125
  vertex 526500.0 6068500.0 2963.5
 endloop
endfacet
facet normal -0.06714785844087601 -0.07679720222949982 -0.9947830438613892
 outer loop
  vertex 526500.0 6069500.0 3017.10009765625
  vertex 527500.0 6069500.0 2949.60009765625
  vertex 527500.0 6068500.0 3026.800048828125
 endloop
endfacet
facet normal 0.04044628143310547 -0.0769079402089119 -0.9962174892425537
 outer loop
  vertex 527500.0 6069500.0 2949.60009765625
  vertex 528500.0 6068500.0 3067.39990234375
  vertex 527500.0 6068500.0 3026.800048828125
 endloop
endfacet
facet normal 0.1406458616256714 0.02405141107738018 -0.9897677898406982
 outer loop
  vertex 527500.0 6069500.0 2949.60009765625
  vertex 528500.0 6069500.0 3091.699951171875
  vertex 528500.0 6068500.0 3067.39990234375
 endloop
endfacet
facet normal 0.012895267456769943 0.02429085783660412 -0.9996217489242554
 outer loop
  vertex 528500.0 6069500.0 3091.699951171875
  vertex 529500.0 6068500.0 3080.300048828125
  vertex 528500.0 6068500.0 3067.39990234375
 endloop
endfacet
facet normal -0.0164975393563509 -0.0050993370823562145 -0.999850869178772
 outer loop
  vertex 528500.0 6069500.0 3091.699951171875
  vertex 529500.0 6069500.0 3075.199951171875
  vertex 529500.0 6068500.0 3080.300048828125
 endloop
endfacet
facet normal -0.0059990049339830875 0.017197098582983017 -0.9998341798782349
 outer loop
  vertex 524500.0 6070500.0 3076.39990234375
  vertex 525500.0 6069500.0 3053.199951171875
  vertex 524500.0 6069500.0 3059.199951171875
 endloop
endfacet
facet normal 0.09460459649562836 0.1175389513373375 -0.9885517954826355
 outer loop
  vertex 524500.0 6070500.0 3076.39990234375
  vertex 525500.0 6070500.0 3172.10009765625
  vertex 525500.0 6069500.0 3053.199951171875
 endloop
endfacet
facet normal -0.03582433611154556 0.11799270659685135 -0.9923679828643799
 outer loop
  vertex 525500.0 6070500.0 3172.10009765625
  vertex 526500.0 6069500.0 3017.10009765625
  vertex 525500.0 6069500.0 3053.199951171875
 endloop
endfacet
facet normal -0.01296907663345337 0.14048069715499878 -0.989998459815979
 outer loop
  vertex 525500.0 6070500.0 3172.10009765625
  vertex 526500.0 6070500.0 3159.0
  vertex 526500.0 6069500.0 3017.10009765625
 endloop
endfacet
facet normal -0.06668177247047424 0.1401798129081726 -0.987878143787384
 outer loop
  vertex 526500.0 6070500.0 3159.0
  vertex 527500.0 6069500.0 2949.60009765625
  vertex 526500.0 6069500.0 3017.10009765625
 endloop
endfacet
facet normal -0.408465176820755 -0.22312916815280914 -0.8850816488265991
 outer loop
  vertex 526500.0 6070500.0 3159.0
  vertex 527500.0 6070500.0 2697.5
  vertex 527500.0 6069500.0 2949.60009765625
 endloop
endfacet
facet normal 0.1364990621805191 -0.24216371774673462 -0.9605855941772461
 outer loop
  vertex 527500.0 6070500.0 2697.5
  vertex 528500.0 6069500.0 3091.699951171875
  vertex 527500.0 6069500.0 2949.60009765625
 endloop
endfacet
facet normal 0.31688985228538513 -0.05633388087153435 -0.9467878937721252
 outer loop
  vertex 527500.0 6070500.0 2697.5
  vertex 528500.0 6070500.0 3032.199951171875
  vertex 528500.0 6069500.0 3091.699951171875
 endloop
endfacet
facet normal -0.016468636691570282 -0.059386901557445526 -0.9980992078781128
 outer loop
  vertex 528500.0 6070500.0 3032.199951171875
  vertex 529500.0 6069500.0 3075.199951171875
  vertex 528500.0 6069500.0 3091.699951171875
 endloop
endfacet
facet normal 0.025687627494335175 -0.017291752621531487 -0.999520480632782
 outer loop
  vertex 528500.0 6070500.0 3032.199951171875
  vertex 529500.0 6070500.0 3057.89990234375
  vertex 529500.0 6069500.0 3075.199951171875
 endloop
endfacet
facet normal -0.009398081339895725 -0.017296696081757545 -0.9998062252998352
 outer loop
  vertex 529500.0 6070500.0 3057.89990234375
  vertex 530500.0 6069500.0 3065.800048828125
  vertex 529500.0 6069500.0 3075.199951171875
 endloop
endfacet
facet normal -0.001999898115172982 -0.009899641387164593 -0.9999489784240723
 outer loop
  vertex 529500.0 6070500.0 3057.89990234375
  vertex 530500.0 6070500.0 3055.89990234375
  vertex 530500.0 6069500.0 3065.800048828125
 endloop
endfacet
facet normal 0.13902956247329712 -0.00980351772159338 -0.990239679813385
 outer loop
  vertex 530500.0 6070500.0 3055.89990234375
  vertex 531500.0 6069500.0 3206.199951171875
  vertex 530500.0 6069500.0 3065.800048828125
 endloop
endfacet
facet normal 0.07129782438278198 -0.07815876603126526 -0.9943881630897522
 outer loop
  vertex 530500.0 6070500.0 3055.89990234375
  vertex 531500.0 6070500.0 3127.60009765625
  vertex 531500.0 6069500.0 3206.199951171875
 endloop
endfacet
facet normal -0.013061605393886566 0.07547754794359207 -0.9970619678497314
 outer loop
  vertex 525500.0 6071500.0 3247.800048828125
  vertex 526500.0 6070500.0 3159.0
  vertex 525500.0 6070500.0 3172.10009765625
 endloop
endfacet
facet normal -0.2007206827402115 -0.114322230219841 -0.9729551076889038
 outer loop
  vertex 525500.0 6071500.0 3247.800048828125
  vertex 526500.0 6071500.0 3041.5
  vertex 526500.0 6070500.0 3159.0
 endloop
endfacet
facet normal -0.41666483879089355 -0.10608476400375366 -0.902849018573761
 outer loop
  vertex 526500.0 6071500.0 3041.5
  vertex 527500.0 6070500.0 2697.5
  vertex 526500.0 6070500.0 3159.0
 endloop
endfacet
facet normal 0.025669492781162262 -0.0413508377969265 -0.9988148808479309
 outer loop
  vertex 528500.0 6071500.0 2990.800048828125
  vertex 529500.0 6070500.0 3057.89990234375
  vertex 528500.0 6070500.0 3032.199951171875
 endloop
endfacet
facet normal 0.10601554811000824 0.03934609517455101 -0.9935857057571411
 outer loop
  vertex 528500.0 6071500.0 2990.800048828125
  vertex 529500.0 6071500.0 3097.5
  vertex 529500.0 6070500.0 3057.89990234375
 endloop
endfacet
facet normal -0.0019984296523034573 0.039569005370140076 -0.9992148876190186
 outer loop
  vertex 529500.0 6071500.0 3097.5
  vertex 530500.0 6070500.0 3055.89990234375
  vertex 529500.0 6070500.0 3057.89990234375
 endloop
endfacet
facet normal -0.0069956425577402115 0.034578558057546616 -0.9993774890899658
 outer loop
  vertex 529500.0 6071500.0 3097.5
  vertex 530500.0 6071500.0 3090.5
  vertex 530500.0 6070500.0 3055.89990234375
 endloop
endfacet
facet normal 0.07147405296564102 0.03449096903204918 -0.9968459606170654
 outer loop
  vertex 530500.0 6071500.0 3090.5
  vertex 531500.0 6070500.0 3127.60009765625
  vertex 530500.0 6070500.0 3055.89990234375
 endloop
endfacet
facet normal 0.053117964416742325 0.016075043007731438 -0.9984588623046875
 outer loop
  vertex 530500.0 6071500.0 3090.5
  vertex 531500.0 6071500.0 3143.699951171875
  vertex 531500.0 6070500.0 3127.60009765625
 endloop
endfacet
facet normal -0.20140321552753448 -0.07966319471597672 -0.9762635827064514
 outer loop
  vertex 525500.0 6072500.0 3166.199951171875
  vertex 526500.0 6071500.0 3041.5
  vertex 525500.0 6071500.0 3247.800048828125
 endloop
endfacet
facet normal -0.14665573835372925 -0.023338422179222107 -0.9889122247695923
 outer loop
  vertex 525500.0 6072500.0 3166.199951171875
  vertex 526500.0 6072500.0 3017.89990234375
  vertex 526500.0 6071500.0 3041.5
 endloop
endfacet
facet normal 0.10609513521194458 0.006960321217775345 -0.9943315982818604
 outer loop
  vertex 528500.0 6072500.0 2997.800048828125
  vertex 529500.0 6071500.0 3097.5
  vertex 528500.0 6071500.0 2990.800048828125
 endloop
endfacet
facet normal 0.09417816251516342 -0.005077367182821035 -0.9955424070358276
 outer loop
  vertex 528500.0 6072500.0 2997.800048828125
  vertex 529500.0 6072500.0 3092.39990234375
  vertex 529500.0 6071500.0 3097.5
 endloop
endfacet
facet normal -0.006999737583100796 -0.005099906586110592 -0.9999625086784363
 outer loop
  vertex 529500.0 6072500.0 3092.39990234375
  vertex 530500.0 6071500.0 3090.5
  vertex 529500.0 6071500.0 3097.5
 endloop
endfacet
facet normal 0.043314993381500244 0.04521116986870766 -0.9980379343032837
 outer loop
  vertex 529500.0 6072500.0 3092.39990234375
  vertex 530500.0 6072500.0 3135.800048828125
  vertex 530500.0 6071500.0 3090.5
 endloop
endfacet
facet normal 0.0530705526471138 0.04518986493349075 -0.9975677132606506
 outer loop
  vertex 530500.0 6072500.0 3135.800048828125
  vertex 531500.0 6071500.0 3143.699951171875
  vertex 530500.0 6071500.0 3090.5
 endloop
endfacet
facet normal 0.05951434001326561 0.051638998091220856 -0.9968909025192261
 outer loop
  vertex 530500.0 6072500.0 3135.800048828125
  vertex 531500.0 6072500.0 3195.5
  vertex 531500.0 6071500.0 3143.699951171875
 endloop
endfacet
facet normal 0.043025121092796326 -0.12391987442970276 -0.9913589954376221
 outer loop
  vertex 529500.0 6073500.0 2967.39990234375
  vertex 530500.0 6072500.0 3135.800048828125
  vertex 529500.0 6072500.0 3092.39990234375
 endloop
endfacet
facet normal 0.21817077696323395 0.0540798120200634 -0.9744110703468323
 outer loop
  vertex 529500.0 6073500.0 2967.39990234375
  vertex 530500.0 6073500.0 3191.300048828125
  vertex 530500.0 6072500.0 3135.800048828125
 endloop
endfacet
facet normal 0.059502601623535156 0.055316533893346786 -0.9966942667961121
 outer loop
  vertex 530500.0 6073500.0 3191.300048828125
  vertex 531500.0 6072500.0 3195.5
  vertex 530500.0 6072500.0 3135.800048828125
 endloop
endfacet
facet normal -0.06263579428195953 -0.06681809574365616 -0.9957972168922424
 outer loop
  vertex 530500.0 6073500.0 3191.300048828125
  vertex 531500.0 6073500.0 3128.39990234375
  vertex 531500.0 6072500.0 3195.5
 endloop
endfacet
facet normal 0.2179606407880783 -0.06960327923297882 -0.9734724760055542
 outer loop
  vertex 529500.0 6074500.0 2895.89990234375
  vertex 530500.0 6073500.0 3191.300048828125
  vertex 529500.0 6073500.0 2967.39990234375
 endloop
endfacet
facet normal 0.015794875100255013 -0.2687031030654907 -0.9630935192108154
 outer loop
  vertex 529500.0 6074500.0 2895.89990234375
  vertex 530500.0 6074500.0 2912.300048828125
  vertex 530500.0 6073500.0 3191.300048828125
 endloop
endfacet
facet normal -0.06047538295388222 -0.26824474334716797 -0.9614506959915161
 outer loop
  vertex 530500.0 6074500.0 2912.300048828125
  vertex 531500.0 6073500.0 3128.39990234375
  vertex 530500.0 6073500.0 3191.300048828125
 endloop
endfacet
endsolid
