solid
facet normal -0.12117563933134079 -0.020047252997756004 -0.9924286603927612
 outer loop
  vertex 724500.0 5429500.0 6804.2998046875
  vertex 725500.0 5428500.0 6702.39990234375
  vertex 724500.0 5428500.0 6824.5
 endloop
endfacet
facet normal -0.2955435514450073 -0.20036065578460693 -0.9340822696685791
 outer loop
  vertex 724500.0 5429500.0 6804.2998046875
  vertex 725500.0 5429500.0 6487.89990234375
  vertex 725500.0 5428500.0 6702.39990234375
 endloop
endfacet
facet normal -0.2336791604757309 -0.20392277836799622 -0.9506889581680298
 outer loop
  vertex 725500.0 5429500.0 6487.89990234375
  vertex 726500.0 5428500.0 6456.60009765625
  vertex 725500.0 5428500.0 6702.39990234375
 endloop
endfacet
facet normal -0.24952924251556396 -0.22001217305660248 -0.9430429339408875
 outer loop
  vertex 725500.0 5429500.0 6487.89990234375
  vertex 726500.0 5429500.0 6223.2998046875
  vertex 726500.0 5428500.0 6456.60009765625
 endloop
endfacet
facet normal 0.029631422832608223 -0.28202691674232483 -0.9589487910270691
 outer loop
  vertex 727500.0 5429500.0 6173.60009765625
  vertex 728500.0 5429500.0 6204.5
  vertex 728500.0 5428500.0 6498.60009765625
 endloop
endfacet
facet normal -0.30089426040649414 0.07122979313135147 -0.9509936571121216
 outer loop
  vertex 724500.0 5430500.0 6879.2001953125
  vertex 725500.0 5429500.0 6487.89990234375
  vertex 724500.0 5429500.0 6804.2998046875
 endloop
endfacet
facet normal -0.1726675033569336 0.20436805486679077 -0.9635453224182129
 outer loop
  vertex 724500.0 5430500.0 6879.2001953125
  vertex 725500.0 5430500.0 6700.0
  vertex 725500.0 5429500.0 6487.89990234375
 endloop
endfacet
facet normal -0.25058361887931824 0.20086465775966644 -0.9470276236534119
 outer loop
  vertex 725500.0 5430500.0 6700.0
  vertex 726500.0 5429500.0 6223.2998046875
  vertex 725500.0 5429500.0 6487.89990234375
 endloop
endfacet
facet normal -0.26334348320961 0.18773798644542694 -0.9462581872940063
 outer loop
  vertex 725500.0 5430500.0 6700.0
  vertex 726500.0 5430500.0 6421.7001953125
  vertex 726500.0 5429500.0 6223.2998046875
 endloop
endfacet
facet normal -0.04869168624281883 0.1943763941526413 -0.9797177910804749
 outer loop
  vertex 726500.0 5430500.0 6421.7001953125
  vertex 727500.0 5429500.0 6173.60009765625
  vertex 726500.0 5429500.0 6223.2998046875
 endloop
endfacet
facet normal -0.2869074046611786 -0.04955606907606125 -0.9566757082939148
 outer loop
  vertex 726500.0 5430500.0 6421.7001953125
  vertex 727500.0 5430500.0 6121.7998046875
  vertex 727500.0 5429500.0 6173.60009765625
 endloop
endfacet
facet normal 0.03084384836256504 -0.05170632153749466 -0.998185932636261
 outer loop
  vertex 727500.0 5430500.0 6121.7998046875
  vertex 728500.0 5429500.0 6204.5
  vertex 727500.0 5429500.0 6173.60009765625
 endloop
endfacet
facet normal -0.05606836825609207 -0.13784772157669067 -0.9888651967048645
 outer loop
  vertex 727500.0 5430500.0 6121.7998046875
  vertex 728500.0 5430500.0 6065.10009765625
  vertex 728500.0 5429500.0 6204.5
 endloop
endfacet
facet normal -0.0336553119122982 -0.1379866898059845 -0.9898621439933777
 outer loop
  vertex 728500.0 5430500.0 6065.10009765625
  vertex 729500.0 5429500.0 6170.5
  vertex 728500.0 5429500.0 6204.5
 endloop
endfacet
facet normal -0.00874312873929739 -0.11345838755369186 -0.9935042858123779
 outer loop
  vertex 728500.0 5430500.0 6065.10009765625
  vertex 729500.0 5430500.0 6056.2998046875
  vertex 729500.0 5429500.0 6170.5
 endloop
endfacet
facet normal -0.1250901073217392 -0.11257150769233704 -0.9857383370399475
 outer loop
  vertex 729500.0 5430500.0 6056.2998046875
  vertex 730500.0 5429500.0 6043.60009765625
  vertex 729500.0 5429500.0 6170.5
 endloop
endfacet
facet normal -0.02658763900399208 -0.013893647119402885 -0.999549925327301
 outer loop
  vertex 729500.0 5430500.0 6056.2998046875
  vertex 730500.0 5430500.0 6029.7001953125
  vertex 730500.0 5429500.0 6043.60009765625
 endloop
endfacet
facet normal -0.010098607279360294 -0.0138978511095047 -0.9998524188995361
 outer loop
  vertex 730500.0 5430500.0 6029.7001953125
  vertex 731500.0 5429500.0 6033.5
  vertex 730500.0 5429500.0 6043.60009765625
 endloop
endfacet
facet normal -0.05085769295692444 -0.054646894335746765 -0.9972096681594849
 outer loop
  vertex 730500.0 5430500.0 6029.7001953125
  vertex 731500.0 5430500.0 5978.7001953125
  vertex 731500.0 5429500.0 6033.5
 endloop
endfacet
facet normal -0.052858348935842514 -0.39004892110824585 -0.9192756414413452
 outer loop
  vertex 723500.0 5431500.0 6512.39990234375
  vertex 724500.0 5431500.0 6454.89990234375
  vertex 724500.0 5430500.0 6879.2001953125
 endloop
endfacet
facet normal -0.16276516020298004 -0.38538631796836853 -0.9082867503166199
 outer loop
  vertex 724500.0 5431500.0 6454.89990234375
  vertex 725500.0 5430500.0 6700.0
  vertex 724500.0 5430500.0 6879.2001953125
 endloop
endfacet
facet normal -0.06633685529232025 -0.2996114492416382 -0.9517523646354675
 outer loop
  vertex 724500.0 5431500.0 6454.89990234375
  vertex 725500.0 5431500.0 6385.2001953125
  vertex 725500.0 5430500.0 6700.0
 endloop
endfacet
facet normal -0.25657111406326294 -0.29022133350372314 -0.9219234585762024
 outer loop
  vertex 725500.0 5431500.0 6385.2001953125
  vertex 726500.0 5430500.0 6421.7001953125
  vertex 725500.0 5430500.0 6700.0
 endloop
endfacet
facet normal -0.056759949773550034 -0.0930425152182579 -0.9940429329872131
 outer loop
  vertex 725500.0 5431500.0 6385.2001953125
  vertex 726500.0 5431500.0 6328.10009765625
  vertex 726500.0 5430500.0 6421.7001953125
 endloop
endfacet
facet normal -0.2861127555370331 -0.08929692208766937 -0.9540259838104248
 outer loop
  vertex 726500.0 5431500.0 6328.10009765625
  vertex 727500.0 5430500.0 6121.7998046875
  vertex 726500.0 5430500.0 6421.7001953125
 endloop
endfacet
facet normal -0.22169211506843567 -0.020570004358887672 -0.9748997688293457
 outer loop
  vertex 726500.0 5431500.0 6328.10009765625
  vertex 727500.0 5431500.0 6100.7001953125
  vertex 727500.0 5430500.0 6121.7998046875
 endloop
endfacet
facet normal -0.05659622699022293 -0.02106110192835331 -0.9981749653816223
 outer loop
  vertex 727500.0 5431500.0 6100.7001953125
  vertex 728500.0 5430500.0 6065.10009765625
  vertex 727500.0 5430500.0 6121.7998046875
 endloop
endfacet
facet normal -0.09851855784654617 -0.06316307932138443 -0.9931286573410034
 outer loop
  vertex 727500.0 5431500.0 6100.7001953125
  vertex 728500.0 5431500.0 6001.5
  vertex 728500.0 5430500.0 6065.10009765625
 endloop
endfacet
facet normal -0.00878220982849598 -0.06346940994262695 -0.9979451894760132
 outer loop
  vertex 728500.0 5431500.0 6001.5
  vertex 729500.0 5430500.0 6056.2998046875
  vertex 728500.0 5430500.0 6065.10009765625
 endloop
endfacet
facet normal -0.013865883462131023 -0.0685315653681755 -0.9975525736808777
 outer loop
  vertex 728500.0 5431500.0 6001.5
  vertex 729500.0 5431500.0 5987.60009765625
  vertex 729500.0 5430500.0 6056.2998046875
 endloop
endfacet
facet normal -0.02652771770954132 -0.06851403415203094 -0.9972974061965942
 outer loop
  vertex 729500.0 5431500.0 5987.60009765625
  vertex 730500.0 5430500.0 6029.7001953125
  vertex 729500.0 5430500.0 6056.2998046875
 endloop
endfacet
facet normal -0.020854013040661812 -0.06286167353391647 -0.9978043437004089
 outer loop
  vertex 729500.0 5431500.0 5987.60009765625
  vertex 730500.0 5431500.0 5966.7001953125
  vertex 730500.0 5430500.0 6029.7001953125
 endloop
endfacet
facet normal -0.050833284854888916 -0.06279405951499939 -0.9967311024665833
 outer loop
  vertex 730500.0 5431500.0 5966.7001953125
  vertex 731500.0 5430500.0 5978.7001953125
  vertex 730500.0 5430500.0 6029.7001953125
 endloop
endfacet
facet normal -0.004799560643732548 -0.016797728836536407 -0.999847412109375
 outer loop
  vertex 730500.0 5431500.0 5966.7001953125
  vertex 731500.0 5431500.0 5961.89990234375
  vertex 731500.0 5430500.0 5978.7001953125
 endloop
endfacet
facet normal -0.018694289028644562 -0.01679498702287674 -0.9996841549873352
 outer loop
  vertex 731500.0 5431500.0 5961.89990234375
  vertex 732500.0 5430500.0 5960.0
  vertex 731500.0 5430500.0 5978.7001953125
 endloop
endfacet
facet normal -0.019293291494250298 -0.01739403046667576 -0.9996625781059265
 outer loop
  vertex 731500.0 5431500.0 5961.89990234375
  vertex 732500.0 5431500.0 5942.60009765625
  vertex 732500.0 5430500.0 5960.0
 endloop
endfacet
facet normal -0.09663564711809158 -0.3297245502471924 -0.9391183853149414
 outer loop
  vertex 722500.0 5432500.0 6264.2001953125
  vertex 723500.0 5432500.0 6161.2998046875
  vertex 723500.0 5431500.0 6512.39990234375
 endloop
endfacet
facet normal -0.054173555225133896 -0.3307885229587555 -0.942148745059967
 outer loop
  vertex 723500.0 5432500.0 6161.2998046875
  vertex 724500.0 5431500.0 6454.89990234375
  vertex 723500.0 5431500.0 6512.39990234375
 endloop
endfacet
facet normal 0.1432458460330963 -0.14422446489334106 -0.9791219830513
 outer loop
  vertex 723500.0 5432500.0 6161.2998046875
  vertex 724500.0 5432500.0 6307.60009765625
  vertex 724500.0 5431500.0 6454.89990234375
 endloop
endfacet
facet normal -0.06879230588674545 -0.1453821361064911 -0.9869810938835144
 outer loop
  vertex 724500.0 5432500.0 6307.60009765625
  vertex 725500.0 5431500.0 6385.2001953125
  vertex 724500.0 5431500.0 6454.89990234375
 endloop
endfacet
facet normal -0.12122776359319687 -0.19672758877277374 -0.9729347825050354
 outer loop
  vertex 724500.0 5432500.0 6307.60009765625
  vertex 725500.0 5432500.0 6183.0
  vertex 725500.0 5431500.0 6385.2001953125
 endloop
endfacet
facet normal -0.05587999150156975 -0.1978796273469925 -0.9786322116851807
 outer loop
  vertex 725500.0 5432500.0 6183.0
  vertex 726500.0 5431500.0 6328.10009765625
  vertex 725500.0 5431500.0 6385.2001953125
 endloop
endfacet
facet normal -0.12199972569942474 -0.26094937324523926 -0.9576123952865601
 outer loop
  vertex 725500.0 5432500.0 6183.0
  vertex 726500.0 5432500.0 6055.60009765625
  vertex 726500.0 5431500.0 6328.10009765625
 endloop
endfacet
facet normal -0.21430261433124542 -0.2568051218986511 -0.9424041509628296
 outer loop
  vertex 726500.0 5432500.0 6055.60009765625
  vertex 727500.0 5431500.0 6100.7001953125
  vertex 726500.0 5431500.0 6328.10009765625
 endloop
endfacet
facet normal -0.023239698261022568 -0.06822250783443451 -0.9973993897438049
 outer loop
  vertex 726500.0 5432500.0 6055.60009765625
  vertex 727500.0 5432500.0 6032.2998046875
  vertex 727500.0 5431500.0 6100.7001953125
 endloop
endfacet
facet normal -0.09848778694868088 -0.06790916621685028 -0.9928184747695923
 outer loop
  vertex 727500.0 5432500.0 6032.2998046875
  vertex 728500.0 5431500.0 6001.5
  vertex 727500.0 5431500.0 6100.7001953125
 endloop
endfacet
facet normal -0.04036511480808258 -0.009591830894351006 -0.9991389513015747
 outer loop
  vertex 727500.0 5432500.0 6032.2998046875
  vertex 728500.0 5432500.0 5991.89990234375
  vertex 728500.0 5431500.0 6001.5
 endloop
endfacet
facet normal -0.013897919096052647 -0.009598728269338608 -0.9998573064804077
 outer loop
  vertex 728500.0 5432500.0 5991.89990234375
  vertex 729500.0 5431500.0 5987.60009765625
  vertex 728500.0 5431500.0 6001.5
 endloop
endfacet
facet normal -0.0022997939959168434 0.0019999907817691565 -0.9999953508377075
 outer loop
  vertex 728500.0 5432500.0 5991.89990234375
  vertex 729500.0 5432500.0 5989.60009765625
  vertex 729500.0 5431500.0 5987.60009765625
 endloop
endfacet
facet normal -0.020895296707749367 0.001999559346586466 -0.9997797012329102
 outer loop
  vertex 729500.0 5432500.0 5989.60009765625
  vertex 730500.0 5431500.0 5966.7001953125
  vertex 729500.0 5431500.0 5987.60009765625
 endloop
endfacet
facet normal -0.011798744089901447 0.011098152957856655 -0.9998687505722046
 outer loop
  vertex 729500.0 5432500.0 5989.60009765625
  vertex 730500.0 5432500.0 5977.7998046875
  vertex 730500.0 5431500.0 5966.7001953125
 endloop
endfacet
facet normal -0.004799942020326853 0.011098797433078289 -0.9999268651008606
 outer loop
  vertex 730500.0 5432500.0 5977.7998046875
  vertex 731500.0 5431500.0 5961.89990234375
  vertex 730500.0 5431500.0 5966.7001953125
 endloop
endfacet
facet normal -0.025789959356188774 -0.009896124713122845 -0.999618411064148
 outer loop
  vertex 730500.0 5432500.0 5977.7998046875
  vertex 731500.0 5432500.0 5952.0
  vertex 731500.0 5431500.0 5961.89990234375
 endloop
endfacet
facet normal -0.019295265898108482 -0.009897574782371521 -0.9997648596763611
 outer loop
  vertex 731500.0 5432500.0 5952.0
  vertex 732500.0 5431500.0 5942.60009765625
  vertex 731500.0 5431500.0 5961.89990234375
 endloop
endfacet
facet normal 0.011796333827078342 0.021193470805883408 -0.9997058510780334
 outer loop
  vertex 731500.0 5432500.0 5952.0
  vertex 732500.0 5432500.0 5963.7998046875
  vertex 732500.0 5431500.0 5942.60009765625
 endloop
endfacet
facet normal -0.10070490837097168 -0.17909552156925201 -0.9786640405654907
 outer loop
  vertex 722500.0 5433500.0 6081.2001953125
  vertex 723500.0 5432500.0 6161.2998046875
  vertex 722500.0 5432500.0 6264.2001953125
 endloop
endfacet
facet normal -0.02782704308629036 -0.10743187367916107 -0.9938229322433472
 outer loop
  vertex 722500.0 5433500.0 6081.2001953125
  vertex 723500.0 5433500.0 6053.2001953125
  vertex 723500.0 5432500.0 6161.2998046875
 endloop
endfacet
facet normal 0.14393827319145203 -0.10635433346033096 -0.9838549494743347
 outer loop
  vertex 723500.0 5433500.0 6053.2001953125
  vertex 724500.0 5432500.0 6307.60009765625
  vertex 723500.0 5432500.0 6161.2998046875
 endloop
endfacet
facet normal -0.01966736651957035 -0.2649262249469757 -0.9640681147575378
 outer loop
  vertex 723500.0 5433500.0 6053.2001953125
  vertex 724500.0 5433500.0 6032.7998046875
  vertex 724500.0 5432500.0 6307.60009765625
 endloop
endfacet
facet normal -0.11928832530975342 -0.26308539509773254 -0.9573694467544556
 outer loop
  vertex 724500.0 5433500.0 6032.7998046875
  vertex 725500.0 5432500.0 6183.0
  vertex 724500.0 5432500.0 6307.60009765625
 endloop
endfacet
facet normal 0.01963028311729431 -0.1292802393436432 -0.9914137125015259
 outer loop
  vertex 724500.0 5433500.0 6032.7998046875
  vertex 725500.0 5433500.0 6052.60009765625
  vertex 725500.0 5432500.0 6183.0
 endloop
endfacet
facet normal -0.12533418834209442 -0.12828555703163147 -0.9837856292724609
 outer loop
  vertex 725500.0 5433500.0 6052.60009765625
  vertex 726500.0 5432500.0 6055.60009765625
  vertex 725500.0 5432500.0 6183.0
 endloop
endfacet
facet normal -0.05571650713682175 -0.05870666727423668 -0.996719241142273
 outer loop
  vertex 725500.0 5433500.0 6052.60009765625
  vertex 726500.0 5433500.0 5996.7001953125
  vertex 726500.0 5432500.0 6055.60009765625
 endloop
endfacet
facet normal -0.02325369045138359 -0.058782100677490234 -0.9979999661445618
 outer loop
  vertex 726500.0 5433500.0 5996.7001953125
  vertex 727500.0 5432500.0 6032.2998046875
  vertex 726500.0 5432500.0 6055.60009765625
 endloop
endfacet
facet normal -0.02534511871635914 -0.06086726486682892 -0.9978240132331848
 outer loop
  vertex 726500.0 5433500.0 5996.7001953125
  vertex 727500.0 5433500.0 5971.2998046875
  vertex 727500.0 5432500.0 6032.2998046875
 endloop
endfacet
facet normal -0.040292199701070786 -0.06083738058805466 -0.9973341226577759
 outer loop
  vertex 727500.0 5433500.0 5971.2998046875
  vertex 728500.0 5432500.0 5991.89990234375
  vertex 727500.0 5432500.0 6032.2998046875
 endloop
endfacet
facet normal -0.007696397602558136 -0.02828764170408249 -0.9995701909065247
 outer loop
  vertex 727500.0 5433500.0 5971.2998046875
  vertex 728500.0 5433500.0 5963.60009765625
  vertex 728500.0 5432500.0 5991.89990234375
 endloop
endfacet
facet normal -0.0022988782729953527 -0.028288405388593674 -0.9995971918106079
 outer loop
  vertex 728500.0 5433500.0 5963.60009765625
  vertex 729500.0 5432500.0 5989.60009765625
  vertex 728500.0 5432500.0 5991.89990234375
 endloop
endfacet
facet normal 0.0060987770557403564 -0.01989559456706047 -0.999783456325531
 outer loop
  vertex 728500.0 5433500.0 5963.60009765625
  vertex 729500.0 5433500.0 5969.7001953125
  vertex 729500.0 5432500.0 5989.60009765625
 endloop
endfacet
facet normal -0.011797136627137661 -0.01989457942545414 -0.999732494354248
 outer loop
  vertex 729500.0 5433500.0 5969.7001953125
  vertex 730500.0 5432500.0 5977.7998046875
  vertex 729500.0 5432500.0 5989.60009765625
 endloop
endfacet
facet normal -0.02647486887872219 -0.03456679731607437 -0.9990516304969788
 outer loop
  vertex 729500.0 5433500.0 5969.7001953125
  vertex 730500.0 5433500.0 5943.2001953125
  vertex 730500.0 5432500.0 5977.7998046875
 endloop
endfacet
facet normal -0.025775808840990067 -0.03456743061542511 -0.9990699291229248
 outer loop
  vertex 730500.0 5433500.0 5943.2001953125
  vertex 731500.0 5432500.0 5952.0
  vertex 730500.0 5432500.0 5977.7998046875
 endloop
endfacet
facet normal -0.027837276458740234 -0.10399220883846283 -0.9941884875297546
 outer loop
  vertex 722500.0 5434500.0 5976.60009765625
  vertex 723500.0 5433500.0 6053.2001953125
  vertex 722500.0 5433500.0 6081.2001953125
 endloop
endfacet
facet normal 0.0272565595805645 -0.0492221936583519 -0.9984158873558044
 outer loop
  vertex 722500.0 5434500.0 5976.60009765625
  vertex 723500.0 5434500.0 6003.89990234375
  vertex 723500.0 5433500.0 6053.2001953125
 endloop
endfacet
facet normal -0.020371416583657265 -0.04923027381300926 -0.9985796809196472
 outer loop
  vertex 723500.0 5434500.0 6003.89990234375
  vertex 724500.0 5433500.0 6032.7998046875
  vertex 723500.0 5433500.0 6053.2001953125
 endloop
endfacet
facet normal -0.06939353793859482 -0.09808408468961716 -0.9927557706832886
 outer loop
  vertex 723500.0 5434500.0 6003.89990234375
  vertex 724500.0 5434500.0 5934.0
  vertex 724500.0 5433500.0 6032.7998046875
 endloop
endfacet
facet normal 0.01970052719116211 -0.09830201417207718 -0.9949616193771362
 outer loop
  vertex 724500.0 5434500.0 5934.0
  vertex 725500.0 5433500.0 6052.60009765625
  vertex 724500.0 5433500.0 6032.7998046875
 endloop
endfacet
facet normal 0.049621157348155975 -0.06855347752571106 -0.9964126944541931
 outer loop
  vertex 724500.0 5434500.0 5934.0
  vertex 725500.0 5434500.0 5983.7998046875
  vertex 725500.0 5433500.0 6052.60009765625
 endloop
endfacet
facet normal -0.05568155273795128 -0.06853155791759491 -0.9960938692092896
 outer loop
  vertex 725500.0 5434500.0 5983.7998046875
  vertex 726500.0 5433500.0 5996.7001953125
  vertex 725500.0 5433500.0 6052.60009765625
 endloop
endfacet
facet normal 0.009599603712558746 -0.003300122916698456 -0.9999485015869141
 outer loop
  vertex 725500.0 5434500.0 5983.7998046875
  vertex 726500.0 5434500.0 5993.39990234375
  vertex 726500.0 5433500.0 5996.7001953125
 endloop
endfacet
facet normal -0.025392061099410057 -0.0032992109190672636 -0.9996721148490906
 outer loop
  vertex 726500.0 5434500.0 5993.39990234375
  vertex 727500.0 5433500.0 5971.2998046875
  vertex 726500.0 5433500.0 5996.7001953125
 endloop
endfacet
facet normal -0.02239428460597992 -0.00029972949414514005 -0.9997491836547852
 outer loop
  vertex 726500.0 5434500.0 5993.39990234375
  vertex 727500.0 5434500.0 5971.0
  vertex 727500.0 5433500.0 5971.2998046875
 endloop
endfacet
facet normal -0.007699478417634964 -0.0002997957926709205 -0.9999703168869019
 outer loop
  vertex 727500.0 5434500.0 5971.0
  vertex 728500.0 5433500.0 5963.60009765625
  vertex 727500.0 5433500.0 5971.2998046875
 endloop
endfacet
facet normal 0.008398558013141155 0.01579727604985237 -0.9998399615287781
 outer loop
  vertex 727500.0 5434500.0 5971.0
  vertex 728500.0 5434500.0 5979.39990234375
  vertex 728500.0 5433500.0 5963.60009765625
 endloop
endfacet
facet normal 0.00609922269359231 0.015797538682818413 -0.9998565912246704
 outer loop
  vertex 728500.0 5434500.0 5979.39990234375
  vertex 729500.0 5433500.0 5969.7001953125
  vertex 728500.0 5433500.0 5963.60009765625
 endloop
endfacet
facet normal -0.00229973578825593 0.007399680558592081 -0.999970018863678
 outer loop
  vertex 728500.0 5434500.0 5979.39990234375
  vertex 729500.0 5434500.0 5977.10009765625
  vertex 729500.0 5433500.0 5969.7001953125
 endloop
endfacet
facet normal -0.026489974930882454 0.007397103123366833 -0.9996216893196106
 outer loop
  vertex 729500.0 5434500.0 5977.10009765625
  vertex 730500.0 5433500.0 5943.2001953125
  vertex 729500.0 5433500.0 5969.7001953125
 endloop
endfacet
facet normal 0.14204715192317963 0.7373770475387573 -0.660377025604248
 outer loop
  vertex 721500.0 5435500.0 6878.10009765625
  vertex 722500.0 5435500.0 7093.2001953125
  vertex 722500.0 5434500.0 5976.60009765625
 endloop
endfacet
facet normal 0.018209869042038918 0.7448071837425232 -0.6670312285423279
 outer loop
  vertex 722500.0 5435500.0 7093.2001953125
  vertex 723500.0 5434500.0 6003.89990234375
  vertex 722500.0 5434500.0 5976.60009765625
 endloop
endfacet
facet normal 0.009172320365905762 0.2950403690338135 -0.9554407596588135
 outer loop
  vertex 725500.0 5435500.0 6292.60009765625
  vertex 726500.0 5434500.0 5993.39990234375
  vertex 725500.0 5434500.0 5983.7998046875
 endloop
endfacet
facet normal -0.28866448998451233 -0.002201904309913516 -0.9574277997016907
 outer loop
  vertex 725500.0 5435500.0 6292.60009765625
  vertex 726500.0 5435500.0 5991.10009765625
  vertex 726500.0 5434500.0 5993.39990234375
 endloop
endfacet
facet normal -0.022394225001335144 -0.002299221931025386 -0.999746561050415
 outer loop
  vertex 726500.0 5435500.0 5991.10009765625
  vertex 727500.0 5434500.0 5971.0
  vertex 726500.0 5434500.0 5993.39990234375
 endloop
endfacet
facet normal 0.0156877264380455 0.03577248379588127 -0.9992368221282959
 outer loop
  vertex 726500.0 5435500.0 5991.10009765625
  vertex 727500.0 5435500.0 6006.7998046875
  vertex 727500.0 5434500.0 5971.0
 endloop
endfacet
facet normal 0.008394229225814342 0.035775624215602875 -0.9993245601654053
 outer loop
  vertex 727500.0 5435500.0 6006.7998046875
  vertex 728500.0 5434500.0 5979.39990234375
  vertex 727500.0 5434500.0 5971.0
 endloop
endfacet
facet normal 0.002299272920936346 0.029687024652957916 -0.9995566010475159
 outer loop
  vertex 727500.0 5435500.0 6006.7998046875
  vertex 728500.0 5435500.0 6009.10009765625
  vertex 728500.0 5434500.0 5979.39990234375
 endloop
endfacet
facet normal -0.0022987849079072475 0.029687024652957916 -0.9995566010475159
 outer loop
  vertex 728500.0 5435500.0 6009.10009765625
  vertex 729500.0 5434500.0 5977.10009765625
  vertex 728500.0 5434500.0 5979.39990234375
 endloop
endfacet
facet normal 0.18085789680480957 0.21159319579601288 -0.9604783654212952
 outer loop
  vertex 728500.0 5435500.0 6009.10009765625
  vertex 729500.0 5435500.0 6197.39990234375
  vertex 729500.0 5434500.0 5977.10009765625
 endloop
endfacet
facet normal 0.014448989182710648 0.3908657133579254 -0.9203342795372009
 outer loop
  vertex 726500.0 5436500.0 6415.7998046875
  vertex 727500.0 5435500.0 6006.7998046875
  vertex 726500.0 5435500.0 5991.10009765625
 endloop
endfacet
facet normal -0.15662600100040436 0.23565879464149475 -0.9591315388679504
 outer loop
  vertex 726500.0 5436500.0 6415.7998046875
  vertex 727500.0 5436500.0 6252.5
  vertex 727500.0 5435500.0 6006.7998046875
 endloop
endfacet
facet normal 0.0022338367998600006 0.23860304057598114 -0.9711146354675293
 outer loop
  vertex 727500.0 5436500.0 6252.5
  vertex 728500.0 5435500.0 6009.10009765625
  vertex 727500.0 5435500.0 6006.7998046875
 endloop
endfacet
facet normal -0.1608581840991974 0.07860889285802841 -0.983842134475708
 outer loop
  vertex 727500.0 5436500.0 6252.5
  vertex 728500.0 5436500.0 6089.0
  vertex 728500.0 5435500.0 6009.10009765625
 endloop
endfacet
facet normal 0.1844799667596817 0.07827906310558319 -0.979714035987854
 outer loop
  vertex 728500.0 5436500.0 6089.0
  vertex 729500.0 5435500.0 6197.39990234375
  vertex 728500.0 5435500.0 6009.10009765625
 endloop
endfacet
facet normal 0.4108574092388153 0.3182457983493805 -0.8543511629104614
 outer loop
  vertex 728500.0 5436500.0 6089.0
  vertex 729500.0 5436500.0 6569.89990234375
  vertex 729500.0 5435500.0 6197.39990234375
 endloop
endfacet
facet normal 0.5656107664108276 0.2878672778606415 -0.7727980613708496
 outer loop
  vertex 729500.0 5436500.0 6569.89990234375
  vertex 730500.0 5435500.0 6929.2998046875
  vertex 729500.0 5435500.0 6197.39990234375
 endloop
endfacet
facet normal 0.5229113101959229 0.22769571840763092 -0.8214125037193298
 outer loop
  vertex 729500.0 5436500.0 6569.89990234375
  vertex 730500.0 5436500.0 7206.5
  vertex 730500.0 5435500.0 6929.2998046875
 endloop
endfacet
facet normal -0.16114597022533417 0.015394341200590134 -0.986810564994812
 outer loop
  vertex 726500.0 5437500.0 6431.39990234375
  vertex 727500.0 5436500.0 6252.5
  vertex 726500.0 5436500.0 6415.7998046875
 endloop
endfacet
facet normal -0.056888580322265625 0.12041766941547394 -0.9910919666290283
 outer loop
  vertex 726500.0 5437500.0 6431.39990234375
  vertex 727500.0 5437500.0 6374.0
  vertex 727500.0 5436500.0 6252.5
 endloop
endfacet
facet normal -0.16020986437797546 0.11905504018068314 -0.9798768758773804
 outer loop
  vertex 727500.0 5437500.0 6374.0
  vertex 728500.0 5436500.0 6089.0
  vertex 727500.0 5436500.0 6252.5
 endloop
endfacet
facet normal -0.29410988092422485 -0.02178575098514557 -0.9555232524871826
 outer loop
  vertex 727500.0 5437500.0 6374.0
  vertex 728500.0 5437500.0 6066.2001953125
  vertex 728500.0 5436500.0 6089.0
 endloop
endfacet
facet normal 0.43329864740371704 -0.020542994141578674 -0.9010162949562073
 outer loop
  vertex 728500.0 5437500.0 6066.2001953125
  vertex 729500.0 5436500.0 6569.89990234375
  vertex 728500.0 5436500.0 6089.0
 endloop
endfacet
facet normal -0.05539817363023758 0.25585514307022095 -0.9651265144348145
 outer loop
  vertex 726500.0 5438500.0 6696.5
  vertex 727500.0 5437500.0 6374.0
  vertex 726500.0 5437500.0 6431.39990234375
 endloop
endfacet
facet normal -0.3906746506690979 -0.09540275484323502 -0.9155718088150024
 outer loop
  vertex 726500.0 5438500.0 6696.5
  vertex 727500.0 5438500.0 6269.7998046875
  vertex 727500.0 5437500.0 6374.0
 endloop
endfacet
facet normal -0.2927316427230835 -0.09909912943840027 -0.9510455131530762
 outer loop
  vertex 727500.0 5438500.0 6269.7998046875
  vertex 728500.0 5437500.0 6066.2001953125
  vertex 727500.0 5437500.0 6374.0
 endloop
endfacet
facet normal -0.17614781856536865 0.024207638576626778 -0.9840660095214844
 outer loop
  vertex 727500.0 5438500.0 6269.7998046875
  vertex 728500.0 5438500.0 6090.7998046875
  vertex 728500.0 5437500.0 6066.2001953125
 endloop
endfacet
endsolid
