solid
facet normal 0.009981848299503326 0.059391994029283524 -0.9981848001480103
 outer loop
  vertex 338500.0 5690500.0 2948.300048828125
  vertex 339500.0 5690500.0 2958.300048828125
  vertex 339500.0 5689500.0 2898.800048828125
 endloop
endfacet
facet normal 0.05909191817045212 0.05929116904735565 -0.9964902400970459
 outer loop
  vertex 339500.0 5690500.0 2958.300048828125
  vertex 340500.0 5689500.0 2958.10009765625
  vertex 339500.0 5689500.0 2898.800048828125
 endloop
endfacet
facet normal -0.01839398592710495 -0.018194101750850677 -0.9996652603149414
 outer loop
  vertex 339500.0 5690500.0 2958.300048828125
  vertex 340500.0 5690500.0 2939.89990234375
  vertex 340500.0 5689500.0 2958.10009765625
 endloop
endfacet
facet normal 0.003798853373154998 0.024792246520519257 -0.9996854066848755
 outer loop
  vertex 336500.0 5691500.0 2950.0
  vertex 337500.0 5691500.0 2953.800048828125
  vertex 337500.0 5690500.0 2929.0
 endloop
endfacet
facet normal 0.01929052546620369 0.024787811562418938 -0.9995065331459045
 outer loop
  vertex 337500.0 5691500.0 2953.800048828125
  vertex 338500.0 5690500.0 2948.300048828125
  vertex 337500.0 5690500.0 2929.0
 endloop
endfacet
facet normal 0.026077961549162865 0.0315733477473259 -0.9991611838340759
 outer loop
  vertex 337500.0 5691500.0 2953.800048828125
  vertex 338500.0 5691500.0 2979.89990234375
  vertex 338500.0 5690500.0 2948.300048828125
 endloop
endfacet
facet normal 0.009994511492550373 0.031582511961460114 -0.9994511604309082
 outer loop
  vertex 338500.0 5691500.0 2979.89990234375
  vertex 339500.0 5690500.0 2958.300048828125
  vertex 338500.0 5690500.0 2948.300048828125
 endloop
endfacet
facet normal -0.03866536170244217 -0.017084814608097076 -0.9991061687469482
 outer loop
  vertex 338500.0 5691500.0 2979.89990234375
  vertex 339500.0 5691500.0 2941.199951171875
  vertex 339500.0 5690500.0 2958.300048828125
 endloop
endfacet
facet normal -0.018394343554973602 -0.017094705253839493 -0.9996846914291382
 outer loop
  vertex 339500.0 5691500.0 2941.199951171875
  vertex 340500.0 5690500.0 2939.89990234375
  vertex 339500.0 5690500.0 2958.300048828125
 endloop
endfacet
facet normal 0.01569574885070324 0.016995450481772423 -0.9997323751449585
 outer loop
  vertex 339500.0 5691500.0 2941.199951171875
  vertex 340500.0 5691500.0 2956.89990234375
  vertex 340500.0 5690500.0 2939.89990234375
 endloop
endfacet
facet normal 0.01909385807812214 0.016994446516036987 -0.9996733069419861
 outer loop
  vertex 340500.0 5691500.0 2956.89990234375
  vertex 341500.0 5690500.0 2959.0
  vertex 340500.0 5690500.0 2939.89990234375
 endloop
endfacet
facet normal 0.018894106149673462 0.016794679686427116 -0.9996803998947144
 outer loop
  vertex 340500.0 5691500.0 2956.89990234375
  vertex 341500.0 5691500.0 2975.800048828125
  vertex 341500.0 5690500.0 2959.0
 endloop
endfacet
facet normal 0.02848765254020691 0.007396940141916275 -0.9995667338371277
 outer loop
  vertex 342500.0 5691500.0 2960.800048828125
  vertex 343500.0 5691500.0 2989.300048828125
  vertex 343500.0 5690500.0 2981.89990234375
 endloop
endfacet
facet normal 0.014198374934494495 0.00739919813349843 -0.9998718500137329
 outer loop
  vertex 343500.0 5691500.0 2989.300048828125
  vertex 344500.0 5690500.0 2996.10009765625
  vertex 343500.0 5690500.0 2981.89990234375
 endloop
endfacet
facet normal -0.003399949986487627 -0.010199605487287045 -0.9999421834945679
 outer loop
  vertex 343500.0 5691500.0 2989.300048828125
  vertex 344500.0 5691500.0 2985.89990234375
  vertex 344500.0 5690500.0 2996.10009765625
 endloop
endfacet
facet normal 0.008299087174236774 -0.010199313051998615 -0.9999135136604309
 outer loop
  vertex 344500.0 5691500.0 2985.89990234375
  vertex 345500.0 5690500.0 3004.39990234375
  vertex 344500.0 5690500.0 2996.10009765625
 endloop
endfacet
facet normal 0.008399422280490398 -0.010098982602357864 -0.99991375207901
 outer loop
  vertex 344500.0 5691500.0 2985.89990234375
  vertex 345500.0 5691500.0 2994.300048828125
  vertex 345500.0 5690500.0 3004.39990234375
 endloop
endfacet
facet normal -0.0023997731041163206 -0.010099309496581554 -0.999946117401123
 outer loop
  vertex 345500.0 5691500.0 2994.300048828125
  vertex 346500.0 5690500.0 3002.0
  vertex 345500.0 5690500.0 3004.39990234375
 endloop
endfacet
facet normal 0.007899655029177666 0.0001999449305003509 -0.9999687671661377
 outer loop
  vertex 345500.0 5691500.0 2994.300048828125
  vertex 346500.0 5691500.0 3002.199951171875
  vertex 346500.0 5690500.0 3002.0
 endloop
endfacet
facet normal 0.026078207418322563 -0.031274087727069855 -0.9991706013679504
 outer loop
  vertex 337500.0 5692500.0 2922.5
  vertex 338500.0 5691500.0 2979.89990234375
  vertex 337500.0 5691500.0 2953.800048828125
 endloop
endfacet
facet normal 0.008589559234678745 -0.04874000325798988 -0.9987745881080627
 outer loop
  vertex 337500.0 5692500.0 2922.5
  vertex 338500.0 5692500.0 2931.10009765625
  vertex 338500.0 5691500.0 2979.89990234375
 endloop
endfacet
facet normal -0.03862510994076729 -0.04870542883872986 -0.9980660676956177
 outer loop
  vertex 338500.0 5692500.0 2931.10009765625
  vertex 339500.0 5691500.0 2941.199951171875
  vertex 338500.0 5691500.0 2979.89990234375
 endloop
endfacet
facet normal 0.05585377663373947 0.04578029736876488 -0.9973888397216797
 outer loop
  vertex 338500.0 5692500.0 2931.10009765625
  vertex 339500.0 5692500.0 2987.10009765625
  vertex 339500.0 5691500.0 2941.199951171875
 endloop
endfacet
facet normal 0.015681510791182518 0.04584623500704765 -0.9988253712654114
 outer loop
  vertex 339500.0 5692500.0 2987.10009765625
  vertex 340500.0 5691500.0 2956.89990234375
  vertex 339500.0 5691500.0 2941.199951171875
 endloop
endfacet
facet normal 0.032518550753593445 0.06264342367649078 -0.9975060224533081
 outer loop
  vertex 339500.0 5692500.0 2987.10009765625
  vertex 340500.0 5692500.0 3019.699951171875
  vertex 340500.0 5691500.0 2956.89990234375
 endloop
endfacet
facet normal 0.018859628587961197 0.0626654252409935 -0.9978563785552979
 outer loop
  vertex 340500.0 5692500.0 3019.699951171875
  vertex 341500.0 5691500.0 2975.800048828125
  vertex 340500.0 5691500.0 2956.89990234375
 endloop
endfacet
facet normal -0.08363845944404602 -0.03992750495672226 -0.9956960082054138
 outer loop
  vertex 340500.0 5692500.0 3019.699951171875
  vertex 341500.0 5692500.0 2935.699951171875
  vertex 341500.0 5691500.0 2975.800048828125
 endloop
endfacet
facet normal -0.014986271038651466 -0.04006339609622955 -0.9990847110748291
 outer loop
  vertex 341500.0 5692500.0 2935.699951171875
  vertex 342500.0 5691500.0 2960.800048828125
  vertex 341500.0 5691500.0 2975.800048828125
 endloop
endfacet
facet normal 0.02129506506025791 -0.0037991595454514027 -0.9997659921646118
 outer loop
  vertex 341500.0 5692500.0 2935.699951171875
  vertex 342500.0 5692500.0 2957.0
  vertex 342500.0 5691500.0 2960.800048828125
 endloop
endfacet
facet normal 0.02848822809755802 -0.003798479214310646 -0.9995869398117065
 outer loop
  vertex 342500.0 5692500.0 2957.0
  vertex 343500.0 5691500.0 2989.300048828125
  vertex 342500.0 5691500.0 2960.800048828125
 endloop
endfacet
facet normal -0.03797861188650131 -0.07017567753791809 -0.9968114495277405
 outer loop
  vertex 342500.0 5692500.0 2957.0
  vertex 343500.0 5692500.0 2918.89990234375
  vertex 343500.0 5691500.0 2989.300048828125
 endloop
endfacet
facet normal -0.003391734091565013 -0.07022593170404434 -0.9975253343582153
 outer loop
  vertex 343500.0 5692500.0 2918.89990234375
  vertex 344500.0 5691500.0 2985.89990234375
  vertex 343500.0 5691500.0 2989.300048828125
 endloop
endfacet
facet normal 0.08023316413164139 0.013455251231789589 -0.996685266494751
 outer loop
  vertex 343500.0 5692500.0 2918.89990234375
  vertex 344500.0 5692500.0 2999.39990234375
  vertex 344500.0 5691500.0 2985.89990234375
 endloop
endfacet
facet normal 0.008399084210395813 0.013498293235898018 -0.9998735785484314
 outer loop
  vertex 344500.0 5692500.0 2999.39990234375
  vertex 345500.0 5691500.0 2994.300048828125
  vertex 344500.0 5691500.0 2985.89990234375
 endloop
endfacet
facet normal 0.006499425508081913 0.011598828248679638 -0.9999116063117981
 outer loop
  vertex 344500.0 5692500.0 2999.39990234375
  vertex 345500.0 5692500.0 3005.89990234375
  vertex 345500.0 5691500.0 2994.300048828125
 endloop
endfacet
facet normal 0.00789912510663271 0.011598711833357811 -0.9999015927314758
 outer loop
  vertex 345500.0 5692500.0 3005.89990234375
  vertex 346500.0 5691500.0 3002.199951171875
  vertex 345500.0 5691500.0 2994.300048828125
 endloop
endfacet
facet normal 0.004299871623516083 0.007999669760465622 -0.9999587535858154
 outer loop
  vertex 345500.0 5692500.0 3005.89990234375
  vertex 346500.0 5692500.0 3010.199951171875
  vertex 346500.0 5691500.0 3002.199951171875
 endloop
endfacet
facet normal 0.02139456383883953 0.007997913286089897 -0.9997391104698181
 outer loop
  vertex 346500.0 5692500.0 3010.199951171875
  vertex 347500.0 5691500.0 3023.60009765625
  vertex 346500.0 5691500.0 3002.199951171875
 endloop
endfacet
facet normal 0.03127972409129143 0.017888277769088745 -0.9993506073951721
 outer loop
  vertex 346500.0 5692500.0 3010.199951171875
  vertex 347500.0 5692500.0 3041.5
  vertex 347500.0 5691500.0 3023.60009765625
 endloop
endfacet
facet normal 0.055908046662807465 -0.012479474768042564 -0.9983579516410828
 outer loop
  vertex 338500.0 5693500.0 2918.60009765625
  vertex 339500.0 5692500.0 2987.10009765625
  vertex 338500.0 5692500.0 2931.10009765625
 endloop
endfacet
facet normal 0.01937292329967022 -0.0490318164229393 -0.9986093044281006
 outer loop
  vertex 338500.0 5693500.0 2918.60009765625
  vertex 339500.0 5693500.0 2938.0
  vertex 339500.0 5692500.0 2987.10009765625
 endloop
endfacet
facet normal 0.03254338353872299 -0.049015045166015625 -0.9982677698135376
 outer loop
  vertex 339500.0 5693500.0 2938.0
  vertex 340500.0 5692500.0 3019.699951171875
  vertex 339500.0 5692500.0 2987.10009765625
 endloop
endfacet
facet normal -0.07243966311216354 -0.15296098589897156 -0.9855736494064331
 outer loop
  vertex 339500.0 5693500.0 2938.0
  vertex 340500.0 5693500.0 2864.5
  vertex 340500.0 5692500.0 3019.699951171875
 endloop
endfacet
facet normal -0.0827217698097229 -0.15283827483654022 -0.9847829937934875
 outer loop
  vertex 340500.0 5693500.0 2864.5
  vertex 341500.0 5692500.0 2935.699951171875
  vertex 340500.0 5692500.0 3019.699951171875
 endloop
endfacet
facet normal 0.11871395260095596 0.04810049384832382 -0.9917627573013306
 outer loop
  vertex 340500.0 5693500.0 2864.5
  vertex 341500.0 5693500.0 2984.199951171875
  vertex 341500.0 5692500.0 2935.699951171875
 endloop
endfacet
facet normal 0.021270228549838066 0.04843209683895111 -0.9985999464988708
 outer loop
  vertex 341500.0 5693500.0 2984.199951171875
  vertex 342500.0 5692500.0 2957.0
  vertex 341500.0 5692500.0 2935.699951171875
 endloop
endfacet
facet normal -0.052311547100543976 -0.025157460942864418 -0.998313844203949
 outer loop
  vertex 341500.0 5693500.0 2984.199951171875
  vertex 342500.0 5693500.0 2931.800048828125
  vertex 342500.0 5692500.0 2957.0
 endloop
endfacet
facet normal -0.03806040808558464 -0.025173699483275414 -0.9989582896232605
 outer loop
  vertex 342500.0 5693500.0 2931.800048828125
  vertex 343500.0 5692500.0 2918.89990234375
  vertex 342500.0 5692500.0 2957.0
 endloop
endfacet
facet normal 0.05953683704137802 0.07238020747900009 -0.9955984950065613
 outer loop
  vertex 342500.0 5693500.0 2931.800048828125
  vertex 343500.0 5693500.0 2991.60009765625
  vertex 343500.0 5692500.0 2918.89990234375
 endloop
endfacet
facet normal 0.08003057539463043 0.07227625697851181 -0.9941686391830444
 outer loop
  vertex 343500.0 5693500.0 2991.60009765625
  vertex 344500.0 5692500.0 2999.39990234375
  vertex 343500.0 5692500.0 2918.89990234375
 endloop
endfacet
facet normal 0.0017997693503275514 -0.005999882239848375 -0.9999803900718689
 outer loop
  vertex 343500.0 5693500.0 2991.60009765625
  vertex 344500.0 5693500.0 2993.39990234375
  vertex 344500.0 5692500.0 2999.39990234375
 endloop
endfacet
facet normal 0.006499745883047581 -0.005999765358865261 -0.9999608993530273
 outer loop
  vertex 344500.0 5693500.0 2993.39990234375
  vertex 345500.0 5692500.0 3005.89990234375
  vertex 344500.0 5692500.0 2999.39990234375
 endloop
endfacet
facet normal 0.0022000730969011784 -0.01029923278838396 -0.9999445080757141
 outer loop
  vertex 344500.0 5693500.0 2993.39990234375
  vertex 345500.0 5693500.0 2995.60009765625
  vertex 345500.0 5692500.0 3005.89990234375
 endloop
endfacet
facet normal 0.004299780819565058 -0.010299162939190865 -0.9999377131462097
 outer loop
  vertex 345500.0 5693500.0 2995.60009765625
  vertex 346500.0 5692500.0 3010.199951171875
  vertex 345500.0 5692500.0 3005.89990234375
 endloop
endfacet
facet normal 0.008099416270852089 -0.006499649491161108 -0.9999460577964783
 outer loop
  vertex 345500.0 5693500.0 2995.60009765625
  vertex 346500.0 5693500.0 3003.699951171875
  vertex 346500.0 5692500.0 3010.199951171875
 endloop
endfacet
facet normal 0.031284064054489136 -0.006496680900454521 -0.9994893670082092
 outer loop
  vertex 346500.0 5693500.0 3003.699951171875
  vertex 347500.0 5692500.0 3041.5
  vertex 346500.0 5692500.0 3010.199951171875
 endloop
endfacet
facet normal 0.01937665231525898 0.04494606703519821 -0.9988015294075012
 outer loop
  vertex 338500.0 5694500.0 2963.60009765625
  vertex 339500.0 5693500.0 2938.0
  vertex 338500.0 5693500.0 2918.60009765625
 endloop
endfacet
facet normal -0.022394413128495216 0.0031991321593523026 -0.9997440576553345
 outer loop
  vertex 338500.0 5694500.0 2963.60009765625
  vertex 339500.0 5694500.0 2941.199951171875
  vertex 339500.0 5693500.0 2938.0
 endloop
endfacet
facet normal -0.07330189645290375 0.0031913265120238066 -0.9973047375679016
 outer loop
  vertex 339500.0 5694500.0 2941.199951171875
  vertex 340500.0 5693500.0 2864.5
  vertex 339500.0 5693500.0 2938.0
 endloop
endfacet
facet normal 0.022781483829021454 0.09908399730920792 -0.9948182702064514
 outer loop
  vertex 339500.0 5694500.0 2941.199951171875
  vertex 340500.0 5694500.0 2964.10009765625
  vertex 340500.0 5693500.0 2864.5
 endloop
endfacet
facet normal 0.11827456206083298 0.09841405600309372 -0.9880920052528381
 outer loop
  vertex 340500.0 5694500.0 2964.10009765625
  vertex 341500.0 5693500.0 2984.199951171875
  vertex 340500.0 5693500.0 2864.5
 endloop
endfacet
facet normal -0.09172766655683517 -0.11161664873361588 -0.989508867263794
 outer loop
  vertex 340500.0 5694500.0 2964.10009765625
  vertex 341500.0 5694500.0 2871.39990234375
  vertex 341500.0 5693500.0 2984.199951171875
 endloop
endfacet
facet normal -0.05199923738837242 -0.11193755269050598 -0.9923537969589233
 outer loop
  vertex 341500.0 5694500.0 2871.39990234375
  vertex 342500.0 5693500.0 2931.800048828125
  vertex 341500.0 5693500.0 2984.199951171875
 endloop
endfacet
facet normal 0.11300888657569885 0.053081367164850235 -0.9921751022338867
 outer loop
  vertex 341500.0 5694500.0 2871.39990234375
  vertex 342500.0 5694500.0 2985.300048828125
  vertex 342500.0 5693500.0 2931.800048828125
 endloop
endfacet
facet normal 0.05960846692323685 0.05332860350608826 -0.9967963099479675
 outer loop
  vertex 342500.0 5694500.0 2985.300048828125
  vertex 343500.0 5693500.0 2991.60009765625
  vertex 342500.0 5693500.0 2931.800048828125
 endloop
endfacet
facet normal 0.0013998841168358922 -0.004900082945823669 -0.999987006187439
 outer loop
  vertex 342500.0 5694500.0 2985.300048828125
  vertex 343500.0 5694500.0 2986.699951171875
  vertex 343500.0 5693500.0 2991.60009765625
 endloop
endfacet
facet normal 0.0017997801769524813 -0.004900079686194658 -0.9999863505363464
 outer loop
  vertex 343500.0 5694500.0 2986.699951171875
  vertex 344500.0 5693500.0 2993.39990234375
  vertex 343500.0 5693500.0 2991.60009765625
 endloop
endfacet
facet normal -9.985120414057747e-05 -0.006799647584557533 -0.9999768733978271
 outer loop
  vertex 343500.0 5694500.0 2986.699951171875
  vertex 344500.0 5694500.0 2986.60009765625
  vertex 344500.0 5693500.0 2993.39990234375
 endloop
endfacet
facet normal 0.002200139220803976 -0.0067996312864124775 -0.9999744892120361
 outer loop
  vertex 344500.0 5694500.0 2986.60009765625
  vertex 345500.0 5693500.0 2995.60009765625
  vertex 344500.0 5693500.0 2993.39990234375
 endloop
endfacet
facet normal -0.007098998874425888 -0.016097605228424072 -0.9998452067375183
 outer loop
  vertex 344500.0 5694500.0 2986.60009765625
  vertex 345500.0 5694500.0 2979.5
  vertex 345500.0 5693500.0 2995.60009765625
 endloop
endfacet
facet normal 0.008098538964986801 -0.016097484156489372 -0.9998376369476318
 outer loop
  vertex 345500.0 5694500.0 2979.5
  vertex 346500.0 5693500.0 3003.699951171875
  vertex 345500.0 5693500.0 2995.60009765625
 endloop
endfacet
facet normal -0.0013994424371048808 -0.025591444224119186 -0.999671459197998
 outer loop
  vertex 345500.0 5694500.0 2979.5
  vertex 346500.0 5694500.0 2978.10009765625
  vertex 346500.0 5693500.0 3003.699951171875
 endloop
endfacet
facet normal -0.05066200718283653 -0.08221403509378433 -0.9953262209892273
 outer loop
  vertex 337500.0 5695500.0 2931.89990234375
  vertex 338500.0 5695500.0 2881.0
  vertex 338500.0 5694500.0 2963.60009765625
 endloop
endfacet
facet normal -0.022318553179502487 -0.08229923993349075 -0.9963576793670654
 outer loop
  vertex 338500.0 5695500.0 2881.0
  vertex 339500.0 5694500.0 2941.199951171875
  vertex 338500.0 5694500.0 2963.60009765625
 endloop
endfacet
facet normal 0.058400072157382965 -0.0016970493597909808 -0.9982918500900269
 outer loop
  vertex 338500.0 5695500.0 2881.0
  vertex 339500.0 5695500.0 2939.5
  vertex 339500.0 5694500.0 2941.199951171875
 endloop
endfacet
facet normal 0.022894110530614853 -0.001699503161944449 -0.9997364282608032
 outer loop
  vertex 339500.0 5695500.0 2939.5
  vertex 340500.0 5694500.0 2964.10009765625
  vertex 339500.0 5694500.0 2941.199951171875
 endloop
endfacet
facet normal 0.0036991180386394262 -0.020895440131425858 -0.9997748136520386
 outer loop
  vertex 339500.0 5695500.0 2939.5
  vertex 340500.0 5695500.0 2943.199951171875
  vertex 340500.0 5694500.0 2964.10009765625
 endloop
endfacet
facet normal -0.09228445589542389 -0.020806415006518364 -0.9955152869224548
 outer loop
  vertex 340500.0 5695500.0 2943.199951171875
  vertex 341500.0 5694500.0 2871.39990234375
  vertex 340500.0 5694500.0 2964.10009765625
 endloop
endfacet
facet normal 0.036165256053209305 0.10750196874141693 -0.9935469031333923
 outer loop
  vertex 340500.0 5695500.0 2943.199951171875
  vertex 341500.0 5695500.0 2979.60009765625
  vertex 341500.0 5694500.0 2871.39990234375
 endloop
endfacet
facet normal 0.11252008378505707 0.10688919574022293 -0.9878835678100586
 outer loop
  vertex 341500.0 5695500.0 2979.60009765625
  vertex 342500.0 5694500.0 2985.300048828125
  vertex 341500.0 5694500.0 2871.39990234375
 endloop
endfacet
facet normal -0.10958775877952576 -0.11521518975496292 -0.987277090549469
 outer loop
  vertex 341500.0 5695500.0 2979.60009765625
  vertex 342500.0 5695500.0 2868.60009765625
  vertex 342500.0 5694500.0 2985.300048828125
 endloop
endfacet
facet normal 0.001390460878610611 -0.11591320484876633 -0.9932583570480347
 outer loop
  vertex 342500.0 5695500.0 2868.60009765625
  vertex 343500.0 5694500.0 2986.699951171875
  vertex 342500.0 5694500.0 2985.300048828125
 endloop
endfacet
facet normal 0.11022134125232697 -0.007155891042202711 -0.9938812851905823
 outer loop
  vertex 342500.0 5695500.0 2868.60009765625
  vertex 343500.0 5695500.0 2979.5
  vertex 343500.0 5694500.0 2986.699951171875
 endloop
endfacet
facet normal -9.985092765418813e-05 -0.007199764251708984 -0.9999740719795227
 outer loop
  vertex 343500.0 5695500.0 2979.5
  vertex 344500.0 5694500.0 2986.60009765625
  vertex 343500.0 5694500.0 2986.699951171875
 endloop
endfacet
facet normal 0.0003000418655574322 -0.006799891125410795 -0.9999768137931824
 outer loop
  vertex 343500.0 5695500.0 2979.5
  vertex 344500.0 5695500.0 2979.800048828125
  vertex 344500.0 5694500.0 2986.60009765625
 endloop
endfacet
facet normal -0.0070997546426951885 -0.006799720227718353 -0.9999516606330872
 outer loop
  vertex 344500.0 5695500.0 2979.800048828125
  vertex 345500.0 5694500.0 2979.5
  vertex 344500.0 5694500.0 2986.60009765625
 endloop
endfacet
facet normal -0.004400067031383514 -0.00410002376884222 -0.9999819397926331
 outer loop
  vertex 344500.0 5695500.0 2979.800048828125
  vertex 345500.0 5695500.0 2975.39990234375
  vertex 345500.0 5694500.0 2979.5
 endloop
endfacet
facet normal -0.0013998892391100526 -0.004100059159100056 -0.9999906420707703
 outer loop
  vertex 345500.0 5695500.0 2975.39990234375
  vertex 346500.0 5694500.0 2978.10009765625
  vertex 345500.0 5694500.0 2979.5
 endloop
endfacet
facet normal 0.01969352923333645 0.01699424721300602 -0.9996616244316101
 outer loop
  vertex 345500.0 5695500.0 2975.39990234375
  vertex 346500.0 5695500.0 2995.10009765625
  vertex 346500.0 5694500.0 2978.10009765625
 endloop
endfacet
facet normal 0.05311717465519905 0.016973547637462616 -0.9984439611434937
 outer loop
  vertex 346500.0 5695500.0 2995.10009765625
  vertex 347500.0 5694500.0 3031.300048828125
  vertex 346500.0 5694500.0 2978.10009765625
 endloop
endfacet
facet normal 0.018993763253092766 -0.01719430647790432 -0.9996717572212219
 outer loop
  vertex 346500.0 5695500.0 2995.10009765625
  vertex 347500.0 5695500.0 3014.10009765625
  vertex 347500.0 5694500.0 3031.300048828125
 endloop
endfacet
facet normal 0.033779729157686234 -0.007795359939336777 -0.9993988871574402
 outer loop
  vertex 335500.0 5696500.0 2928.39990234375
  vertex 336500.0 5695500.0 2970.0
  vertex 335500.0 5695500.0 2936.199951171875
 endloop
endfacet
facet normal -0.01337848324328661 -0.05491208657622337 -0.9984015822410583
 outer loop
  vertex 335500.0 5696500.0 2928.39990234375
  vertex 336500.0 5696500.0 2915.0
  vertex 336500.0 5695500.0 2970.0
 endloop
endfacet
facet normal -0.038015104830265045 -0.054877303540706635 -0.9977691769599915
 outer loop
  vertex 336500.0 5696500.0 2915.0
  vertex 337500.0 5695500.0 2931.89990234375
  vertex 336500.0 5695500.0 2970.0
 endloop
endfacet
facet normal 0.014198468066751957 -0.0026996692176908255 -0.9998955726623535
 outer loop
  vertex 336500.0 5696500.0 2915.0
  vertex 337500.0 5696500.0 2929.199951171875
  vertex 337500.0 5695500.0 2931.89990234375
 endloop
endfacet
facet normal -0.050833914428949356 -0.0026964505668729544 -0.9987034797668457
 outer loop
  vertex 337500.0 5696500.0 2929.199951171875
  vertex 338500.0 5695500.0 2881.0
  vertex 337500.0 5695500.0 2931.89990234375
 endloop
endfacet
facet normal -0.05222822725772858 -0.004094463307410479 -0.9986267685890198
 outer loop
  vertex 337500.0 5696500.0 2929.199951171875
  vertex 338500.0 5696500.0 2876.89990234375
  vertex 338500.0 5695500.0 2881.0
 endloop
endfacet
facet normal 0.05839966610074043 -0.004093065392225981 -0.9982848763465881
 outer loop
  vertex 338500.0 5696500.0 2876.89990234375
  vertex 339500.0 5695500.0 2939.5
  vertex 338500.0 5695500.0 2881.0
 endloop
endfacet
facet normal 0.0864497721195221 0.024102292954921722 -0.9959645867347717
 outer loop
  vertex 338500.0 5696500.0 2876.89990234375
  vertex 339500.0 5696500.0 2963.699951171875
  vertex 339500.0 5695500.0 2939.5
 endloop
endfacet
facet normal 0.0036988428328186274 0.024192702025175095 -0.9997004866600037
 outer loop
  vertex 339500.0 5696500.0 2963.699951171875
  vertex 340500.0 5695500.0 2943.199951171875
  vertex 339500.0 5695500.0 2939.5
 endloop
endfacet
facet normal -0.027488933876156807 -0.0069971829652786255 -0.9995976090431213
 outer loop
  vertex 339500.0 5696500.0 2963.699951171875
  vertex 340500.0 5696500.0 2936.199951171875
  vertex 340500.0 5695500.0 2943.199951171875
 endloop
endfacet
facet normal 0.03637516871094704 -0.006995195988565683 -0.9993137121200562
 outer loop
  vertex 340500.0 5696500.0 2936.199951171875
  vertex 341500.0 5695500.0 2979.60009765625
  vertex 340500.0 5695500.0 2943.199951171875
 endloop
endfacet
facet normal 0.04176352545619011 -0.0015987034421414137 -0.9991262555122375
 outer loop
  vertex 340500.0 5696500.0 2936.199951171875
  vertex 341500.0 5696500.0 2978.0
  vertex 341500.0 5695500.0 2979.60009765625
 endloop
endfacet
facet normal -0.11032229661941528 -0.0015903284074738622 -0.9938945770263672
 outer loop
  vertex 341500.0 5696500.0 2978.0
  vertex 342500.0 5695500.0 2868.60009765625
  vertex 341500.0 5695500.0 2979.60009765625
 endloop
endfacet
facet normal -0.10825984925031662 0.0004970612353645265 -0.9941225051879883
 outer loop
  vertex 341500.0 5696500.0 2978.0
  vertex 342500.0 5696500.0 2869.10009765625
  vertex 342500.0 5695500.0 2868.60009765625
 endloop
endfacet
facet normal 0.1102241575717926 0.0004969533183611929 -0.9939066767692566
 outer loop
  vertex 342500.0 5696500.0 2869.10009765625
  vertex 343500.0 5695500.0 2979.5
  vertex 342500.0 5695500.0 2868.60009765625
 endloop
endfacet
facet normal 0.11786846071481705 0.008241904899477959 -0.9929949641227722
 outer loop
  vertex 342500.0 5696500.0 2869.10009765625
  vertex 343500.0 5696500.0 2987.800048828125
  vertex 343500.0 5695500.0 2979.5
 endloop
endfacet
facet normal 0.0003000384895130992 0.00829976238310337 -0.999965488910675
 outer loop
  vertex 343500.0 5696500.0 2987.800048828125
  vertex 344500.0 5695500.0 2979.800048828125
  vertex 343500.0 5695500.0 2979.5
 endloop
endfacet
facet normal -0.011299265548586845 -0.003299820004031062 -0.9999306797981262
 outer loop
  vertex 343500.0 5696500.0 2987.800048828125
  vertex 344500.0 5696500.0 2976.5
  vertex 344500.0 5695500.0 2979.800048828125
 endloop
endfacet
facet normal -0.004400080069899559 -0.0032999988179653883 -0.999984860420227
 outer loop
  vertex 344500.0 5696500.0 2976.5
  vertex 345500.0 5695500.0 2975.39990234375
  vertex 344500.0 5695500.0 2979.800048828125
 endloop
endfacet
facet normal 0.010498714633286 0.01159867737442255 -0.9998775720596313
 outer loop
  vertex 344500.0 5696500.0 2976.5
  vertex 345500.0 5696500.0 2987.0
  vertex 345500.0 5695500.0 2975.39990234375
 endloop
endfacet
facet normal 0.01969504915177822 0.01159706711769104 -0.9997387528419495
 outer loop
  vertex 345500.0 5696500.0 2987.0
  vertex 346500.0 5695500.0 2995.10009765625
  vertex 345500.0 5695500.0 2975.39990234375
 endloop
endfacet
facet normal 0.04800625145435333 0.03992195799946785 -0.9980489611625671
 outer loop
  vertex 345500.0 5696500.0 2987.0
  vertex 346500.0 5696500.0 3035.10009765625
  vertex 346500.0 5695500.0 2995.10009765625
 endloop
endfacet
facet normal 0.01898139901459217 0.0399608388543129 -0.9990209341049194
 outer loop
  vertex 346500.0 5696500.0 3035.10009765625
  vertex 347500.0 5695500.0 3014.10009765625
  vertex 346500.0 5695500.0 2995.10009765625
 endloop
endfacet
facet normal 0.042045675218105316 0.028563126921653748 -0.9987072944641113
 outer loop
  vertex 334500.0 5697500.0 2914.89990234375
  vertex 335500.0 5697500.0 2957.0
  vertex 335500.0 5696500.0 2928.39990234375
 endloop
endfacet
facet normal -0.013393224216997623 0.02858584374189377 -0.999501645565033
 outer loop
  vertex 335500.0 5697500.0 2957.0
  vertex 336500.0 5696500.0 2915.0
  vertex 335500.0 5696500.0 2928.39990234375
 endloop
endfacet
facet normal -0.0522020198404789 -0.031940020620822906 -0.9981256723403931
 outer loop
  vertex 337500.0 5697500.0 2897.199951171875
  vertex 338500.0 5696500.0 2876.89990234375
  vertex 337500.0 5696500.0 2929.199951171875
 endloop
endfacet
facet normal 0.028454598039388657 0.04872230812907219 -0.9984070062637329
 outer loop
  vertex 337500.0 5697500.0 2897.199951171875
  vertex 338500.0 5697500.0 2925.699951171875
  vertex 338500.0 5696500.0 2876.89990234375
 endloop
endfacet
facet normal 0.08637288212776184 0.04855988919734955 -0.9950787425041199
 outer loop
  vertex 338500.0 5697500.0 2925.699951171875
  vertex 339500.0 5696500.0 2963.699951171875
  vertex 338500.0 5696500.0 2876.89990234375
 endloop
endfacet
facet normal -0.03419074788689613 -0.07206965982913971 -0.9968134164810181
 outer loop
  vertex 338500.0 5697500.0 2925.699951171875
  vertex 339500.0 5697500.0 2891.39990234375
  vertex 339500.0 5696500.0 2963.699951171875
 endloop
endfacet
facet normal -0.027418093755841255 -0.0720847100019455 -0.9970215559005737
 outer loop
  vertex 339500.0 5697500.0 2891.39990234375
  vertex 340500.0 5696500.0 2936.199951171875
  vertex 339500.0 5696500.0 2963.699951171875
 endloop
endfacet
facet normal 0.03597530350089073 -0.008794009685516357 -0.9993139505386353
 outer loop
  vertex 339500.0 5697500.0 2891.39990234375
  vertex 340500.0 5697500.0 2927.39990234375
  vertex 340500.0 5696500.0 2936.199951171875
 endloop
endfacet
facet normal 0.041761960834264755 -0.0087920306250453 -0.9990888833999634
 outer loop
  vertex 340500.0 5697500.0 2927.39990234375
  vertex 341500.0 5696500.0 2978.0
  vertex 340500.0 5696500.0 2936.199951171875
 endloop
endfacet
facet normal -0.006588940043002367 -0.05710536986589432 -0.9983464479446411
 outer loop
  vertex 340500.0 5697500.0 2927.39990234375
  vertex 341500.0 5697500.0 2920.800048828125
  vertex 341500.0 5696500.0 2978.0
 endloop
endfacet
facet normal -0.1080852523446083 -0.056772053241729736 -0.9925192594528198
 outer loop
  vertex 341500.0 5697500.0 2920.800048828125
  vertex 342500.0 5696500.0 2869.10009765625
  vertex 341500.0 5696500.0 2978.0
 endloop
endfacet
facet normal -0.04375673085451126 0.007892093621194363 -0.9990110397338867
 outer loop
  vertex 341500.0 5697500.0 2920.800048828125
  vertex 342500.0 5697500.0 2877.0
  vertex 342500.0 5696500.0 2869.10009765625
 endloop
endfacet
facet normal 0.11786884069442749 0.007844588719308376 -0.9929981827735901
 outer loop
  vertex 342500.0 5697500.0 2877.0
  vertex 343500.0 5696500.0 2987.800048828125
  vertex 342500.0 5696500.0 2869.10009765625
 endloop
endfacet
facet normal 0.10087818652391434 -0.009351775981485844 -0.9948548674583435
 outer loop
  vertex 342500.0 5697500.0 2877.0
  vertex 343500.0 5697500.0 2978.39990234375
  vertex 343500.0 5696500.0 2987.800048828125
 endloop
endfacet
facet normal -0.01129882875829935 -0.009399130940437317 -0.999891996383667
 outer loop
  vertex 343500.0 5697500.0 2978.39990234375
  vertex 344500.0 5696500.0 2976.5
  vertex 343500.0 5696500.0 2987.800048828125
 endloop
endfacet
facet normal 0.009299064055085182 0.01119876466691494 -0.9998940825462341
 outer loop
  vertex 343500.0 5697500.0 2978.39990234375
  vertex 344500.0 5697500.0 2987.699951171875
  vertex 344500.0 5696500.0 2976.5
 endloop
endfacet
facet normal 0.01049876306205988 0.01119863148778677 -0.9998822212219238
 outer loop
  vertex 344500.0 5697500.0 2987.699951171875
  vertex 345500.0 5696500.0 2987.0
  vertex 344500.0 5696500.0 2976.5
 endloop
endfacet
facet normal -0.021889735013246536 -0.021190110594034195 -0.9995357990264893
 outer loop
  vertex 344500.0 5697500.0 2987.699951171875
  vertex 345500.0 5697500.0 2965.800048828125
  vertex 345500.0 5696500.0 2987.0
 endloop
endfacet
facet normal 0.048033781349658966 -0.021170724183321 -0.9986213445663452
 outer loop
  vertex 345500.0 5697500.0 2965.800048828125
  vertex 346500.0 5696500.0 3035.10009765625
  vertex 345500.0 5696500.0 2987.0
 endloop
endfacet
facet normal 0.13003377616405487 0.06145422160625458 -0.9896032214164734
 outer loop
  vertex 345500.0 5697500.0 2965.800048828125
  vertex 346500.0 5697500.0 3097.199951171875
  vertex 346500.0 5696500.0 3035.10009765625
 endloop
endfacet
facet normal 0.02846534363925457 0.04025104269385338 -0.998784065246582
 outer loop
  vertex 337500.0 5698500.0 2937.5
  vertex 338500.0 5697500.0 2925.699951171875
  vertex 337500.0 5697500.0 2897.199951171875
 endloop
endfacet
facet normal -0.0021998444572091103 0.009599631652235985 -0.9999514818191528
 outer loop
  vertex 337500.0 5698500.0 2937.5
  vertex 338500.0 5698500.0 2935.300048828125
  vertex 338500.0 5697500.0 2925.699951171875
 endloop
endfacet
facet normal -0.03427831456065178 0.009594013914465904 -0.999366283416748
 outer loop
  vertex 338500.0 5698500.0 2935.300048828125
  vertex 339500.0 5697500.0 2891.39990234375
  vertex 338500.0 5697500.0 2925.699951171875
 endloop
endfacet
facet normal -0.03607550263404846 0.007794736418873072 -0.9993186593055725
 outer loop
  vertex 338500.0 5698500.0 2935.300048828125
  vertex 339500.0 5698500.0 2899.199951171875
  vertex 339500.0 5697500.0 2891.39990234375
 endloop
endfacet
facet normal 0.03597560152411461 0.007794762495905161 -0.9993222951889038
 outer loop
  vertex 339500.0 5698500.0 2899.199951171875
  vertex 340500.0 5697500.0 2927.39990234375
  vertex 339500.0 5697500.0 2891.39990234375
 endloop
endfacet
facet normal 0.005598580464720726 -0.022593731060624123 -0.9997290968894958
 outer loop
  vertex 339500.0 5698500.0 2899.199951171875
  vertex 340500.0 5698500.0 2904.800048828125
  vertex 340500.0 5697500.0 2927.39990234375
 endloop
endfacet
facet normal -0.006598025094717741 -0.02259359136223793 -0.999722957611084
 outer loop
  vertex 340500.0 5698500.0 2904.800048828125
  vertex 341500.0 5697500.0 2920.800048828125
  vertex 340500.0 5697500.0 2927.39990234375
 endloop
endfacet
facet normal -0.018984951078891754 -0.03497227653861046 -0.9992079138755798
 outer loop
  vertex 340500.0 5698500.0 2904.800048828125
  vertex 341500.0 5698500.0 2885.800048828125
  vertex 341500.0 5697500.0 2920.800048828125
 endloop
endfacet
facet normal -0.043731365352869034 -0.03494511917233467 -0.9984319806098938
 outer loop
  vertex 341500.0 5698500.0 2885.800048828125
  vertex 342500.0 5697500.0 2877.0
  vertex 341500.0 5697500.0 2920.800048828125
 endloop
endfacet
facet normal 0.09018121659755707 0.09890208393335342 -0.9910023808479309
 outer loop
  vertex 341500.0 5698500.0 2885.800048828125
  vertex 342500.0 5698500.0 2976.800048828125
  vertex 342500.0 5697500.0 2877.0
 endloop
endfacet
facet normal 0.10038895905017853 0.09880505502223969 -0.9900301694869995
 outer loop
  vertex 342500.0 5698500.0 2976.800048828125
  vertex 343500.0 5697500.0 2978.39990234375
  vertex 342500.0 5697500.0 2877.0
 endloop
endfacet
facet normal -0.01509627141058445 -0.016695719212293625 -0.9997466206550598
 outer loop
  vertex 342500.0 5698500.0 2976.800048828125
  vertex 343500.0 5698500.0 2961.699951171875
  vertex 343500.0 5697500.0 2978.39990234375
 endloop
endfacet
facet normal 0.009298349730670452 -0.016696900129318237 -0.9998173713684082
 outer loop
  vertex 343500.0 5698500.0 2961.699951171875
  vertex 344500.0 5697500.0 2987.699951171875
  vertex 343500.0 5697500.0 2978.39990234375
 endloop
endfacet
facet normal 0.046539731323719025 0.020573411136865616 -0.9987045526504517
 outer loop
  vertex 343500.0 5698500.0 2961.699951171875
  vertex 344500.0 5698500.0 3008.300048828125
  vertex 344500.0 5697500.0 2987.699951171875
 endloop
endfacet
facet normal -0.021890010684728622 0.02059079334139824 -0.9995483160018921
 outer loop
  vertex 344500.0 5698500.0 3008.300048828125
  vertex 345500.0 5697500.0 2965.800048828125
  vertex 344500.0 5697500.0 2987.699951171875
 endloop
endfacet
facet normal -0.007195283193141222 0.03527716174721718 -0.9993516802787781
 outer loop
  vertex 344500.0 5698500.0 3008.300048828125
  vertex 345500.0 5698500.0 3001.10009765625
  vertex 345500.0 5697500.0 2965.800048828125
 endloop
endfacet
facet normal 0.13020029664039612 0.03497777879238129 -0.9908705353736877
 outer loop
  vertex 345500.0 5698500.0 3001.10009765625
  vertex 346500.0 5697500.0 3097.199951171875
  vertex 345500.0 5697500.0 2965.800048828125
 endloop
endfacet
facet normal 0.1067790612578392 0.01123473234474659 -0.9942193031311035
 outer loop
  vertex 345500.0 5698500.0 3001.10009765625
  vertex 346500.0 5698500.0 3108.5
  vertex 346500.0 5697500.0 3097.199951171875
 endloop
endfacet
facet normal 0.17447097599506378 0.011126021854579449 -0.9845994710922241
 outer loop
  vertex 346500.0 5698500.0 3108.5
  vertex 347500.0 5697500.0 3274.39990234375
  vertex 346500.0 5697500.0 3097.199951171875
 endloop
endfacet
facet normal 0.3309006690979004 0.17712926864624023 -0.9268926382064819
 outer loop
  vertex 346500.0 5698500.0 3108.5
  vertex 347500.0 5698500.0 3465.5
  vertex 347500.0 5697500.0 3274.39990234375
 endloop
endfacet
facet normal -0.0021999410819262266 0.002100087935104966 -0.9999953508377075
 outer loop
  vertex 337500.0 5699500.0 2939.60009765625
  vertex 338500.0 5698500.0 2935.300048828125
  vertex 337500.0 5698500.0 2937.5
 endloop
endfacet
facet normal -0.02468753047287464 -0.02038968726992607 -0.9994872808456421
 outer loop
  vertex 337500.0 5699500.0 2939.60009765625
  vertex 338500.0 5699500.0 2914.89990234375
  vertex 338500.0 5698500.0 2935.300048828125
 endloop
endfacet
facet normal -0.036069102585315704 -0.020382631570100784 -0.9991414546966553
 outer loop
  vertex 338500.0 5699500.0 2914.89990234375
  vertex 339500.0 5698500.0 2899.199951171875
  vertex 338500.0 5698500.0 2935.300048828125
 endloop
endfacet
facet normal -0.013898536562919617 0.0017998720286414027 -0.9999017715454102
 outer loop
  vertex 338500.0 5699500.0 2914.89990234375
  vertex 339500.0 5699500.0 2901.0
  vertex 339500.0 5698500.0 2899.199951171875
 endloop
endfacet
facet normal 0.005600000731647015 0.0018000176642090082 -0.9999827146530151
 outer loop
  vertex 339500.0 5699500.0 2901.0
  vertex 340500.0 5698500.0 2904.800048828125
  vertex 339500.0 5698500.0 2899.199951171875
 endloop
endfacet
facet normal -0.010798268020153046 -0.014597690664231777 -0.9998351335525513
 outer loop
  vertex 339500.0 5699500.0 2901.0
  vertex 340500.0 5699500.0 2890.199951171875
  vertex 340500.0 5698500.0 2904.800048828125
 endloop
endfacet
facet normal -0.018994547426700592 -0.014595908112823963 -0.9997130036354065
 outer loop
  vertex 340500.0 5699500.0 2890.199951171875
  vertex 341500.0 5698500.0 2885.800048828125
  vertex 340500.0 5698500.0 2904.800048828125
 endloop
endfacet
facet normal 0.025180932134389877 0.02957751415669918 -0.999245285987854
 outer loop
  vertex 340500.0 5699500.0 2890.199951171875
  vertex 341500.0 5699500.0 2915.39990234375
  vertex 341500.0 5698500.0 2885.800048828125
 endloop
endfacet
facet normal 0.09058619290590286 0.02946525253355503 -0.9954526424407959
 outer loop
  vertex 341500.0 5699500.0 2915.39990234375
  vertex 342500.0 5698500.0 2976.800048828125
  vertex 341500.0 5698500.0 2885.800048828125
 endloop
endfacet
facet normal 0.01768055371940136 -0.043651461601257324 -0.9988903403282166
 outer loop
  vertex 341500.0 5699500.0 2915.39990234375
  vertex 342500.0 5699500.0 2933.10009765625
  vertex 342500.0 5698500.0 2976.800048828125
 endloop
endfacet
facet normal -0.015083985403180122 -0.04365331679582596 -0.9989328384399414
 outer loop
  vertex 342500.0 5699500.0 2933.10009765625
  vertex 343500.0 5698500.0 2961.699951171875
  vertex 342500.0 5698500.0 2976.800048828125
 endloop
endfacet
facet normal 0.007797881029546261 -0.02079491876065731 -0.9997533559799194
 outer loop
  vertex 342500.0 5699500.0 2933.10009765625
  vertex 343500.0 5699500.0 2940.89990234375
  vertex 343500.0 5698500.0 2961.699951171875
 endloop
endfacet
facet normal 0.0465395413339138 -0.020773017778992653 -0.9987004399299622
 outer loop
  vertex 343500.0 5699500.0 2940.89990234375
  vertex 344500.0 5698500.0 3008.300048828125
  vertex 343500.0 5698500.0 2961.699951171875
 endloop
endfacet
facet normal 0.04454425349831581 -0.022771501913666725 -0.9987478852272034
 outer loop
  vertex 343500.0 5699500.0 2940.89990234375
  vertex 344500.0 5699500.0 2985.5
  vertex 344500.0 5698500.0 3008.300048828125
 endloop
endfacet
facet normal -0.0071978941559791565 -0.02279353328049183 -0.9997142553329468
 outer loop
  vertex 344500.0 5699500.0 2985.5
  vertex 345500.0 5698500.0 3001.10009765625
  vertex 344500.0 5698500.0 3008.300048828125
 endloop
endfacet
facet normal 0.013298837468028069 -0.002299839397892356 -0.9999089241027832
 outer loop
  vertex 344500.0 5699500.0 2985.5
  vertex 345500.0 5699500.0 2998.800048828125
  vertex 345500.0 5698500.0 3001.10009765625
 endloop
endfacet
facet normal 0.10678552091121674 -0.0022868914529681206 -0.9942795038223267
 outer loop
  vertex 345500.0 5699500.0 2998.800048828125
  vertex 346500.0 5698500.0 3108.5
  vertex 345500.0 5698500.0 3001.10009765625
 endloop
endfacet
facet normal 0.03498116880655289 -0.0743478536605835 -0.9966186881065369
 outer loop
  vertex 345500.0 5699500.0 2998.800048828125
  vertex 346500.0 5699500.0 3033.89990234375
  vertex 346500.0 5698500.0 3108.5
 endloop
endfacet
facet normal 0.3353903293609619 -0.07008445262908936 -0.9394687414169312
 outer loop
  vertex 346500.0 5699500.0 3033.89990234375
  vertex 347500.0 5698500.0 3465.5
  vertex 346500.0 5698500.0 3108.5
 endloop
endfacet
facet normal 0.16596345603466034 -0.24617591500282288 -0.9549102783203125
 outer loop
  vertex 346500.0 5699500.0 3033.89990234375
  vertex 347500.0 5699500.0 3207.699951171875
  vertex 347500.0 5698500.0 3465.5
 endloop
endfacet
facet normal -0.024676600471138954 -0.036065611988306046 -0.9990447163581848
 outer loop
  vertex 337500.0 5700500.0 2903.5
  vertex 338500.0 5699500.0 2914.89990234375
  vertex 337500.0 5699500.0 2939.60009765625
 endloop
endfacet
facet normal 0.008199633099138737 -0.0031998271588236094 -0.999961256980896
 outer loop
  vertex 337500.0 5700500.0 2903.5
  vertex 338500.0 5700500.0 2911.699951171875
  vertex 338500.0 5699500.0 2914.89990234375
 endloop
endfacet
facet normal -0.013898489065468311 -0.0031996257603168488 -0.9998983144760132
 outer loop
  vertex 338500.0 5700500.0 2911.699951171875
  vertex 339500.0 5699500.0 2901.0
  vertex 338500.0 5699500.0 2914.89990234375
 endloop
endfacet
facet normal -0.005099707283079624 0.0055999369360506535 -0.999971330165863
 outer loop
  vertex 338500.0 5700500.0 2911.699951171875
  vertex 339500.0 5700500.0 2906.60009765625
  vertex 339500.0 5699500.0 2901.0
 endloop
endfacet
facet normal -0.01079924963414669 0.005599683150649071 -0.9999260306358337
 outer loop
  vertex 339500.0 5700500.0 2906.60009765625
  vertex 340500.0 5699500.0 2890.199951171875
  vertex 339500.0 5699500.0 2901.0
 endloop
endfacet
facet normal -0.03547118976712227 -0.019084352999925613 -0.9991884827613831
 outer loop
  vertex 339500.0 5700500.0 2906.60009765625
  vertex 340500.0 5700500.0 2871.10009765625
  vertex 340500.0 5699500.0 2890.199951171875
 endloop
endfacet
facet normal 0.025187361985445023 -0.019090311601758003 -0.9995004534721375
 outer loop
  vertex 340500.0 5700500.0 2871.10009765625
  vertex 341500.0 5699500.0 2915.39990234375
  vertex 340500.0 5699500.0 2890.199951171875
 endloop
endfacet
facet normal 0.037272971123456955 -0.006994964554905891 -0.9992806315422058
 outer loop
  vertex 340500.0 5700500.0 2871.10009765625
  vertex 341500.0 5700500.0 2908.39990234375
  vertex 341500.0 5699500.0 2915.39990234375
 endloop
endfacet
facet normal 0.017696989700198174 -0.006998732220381498 -0.9998189210891724
 outer loop
  vertex 341500.0 5700500.0 2908.39990234375
  vertex 342500.0 5699500.0 2933.10009765625
  vertex 341500.0 5699500.0 2915.39990234375
 endloop
endfacet
facet normal 0.018796399235725403 -0.005899001378566027 -0.9998059272766113
 outer loop
  vertex 341500.0 5700500.0 2908.39990234375
  vertex 342500.0 5700500.0 2927.199951171875
  vertex 342500.0 5699500.0 2933.10009765625
 endloop
endfacet
facet normal 0.007799431681632996 -0.005899864248931408 -0.9999521970748901
 outer loop
  vertex 342500.0 5700500.0 2927.199951171875
  vertex 343500.0 5699500.0 2940.89990234375
  vertex 342500.0 5699500.0 2933.10009765625
 endloop
endfacet
facet normal -0.0015996642177924514 -0.015297994948923588 -0.9998816847801208
 outer loop
  vertex 342500.0 5700500.0 2927.199951171875
  vertex 343500.0 5700500.0 2925.60009765625
  vertex 343500.0 5699500.0 2940.89990234375
 endloop
endfacet
facet normal 0.04455060139298439 -0.015282825566828251 -0.998890221118927
 outer loop
  vertex 343500.0 5700500.0 2925.60009765625
  vertex 344500.0 5699500.0 2985.5
  vertex 343500.0 5699500.0 2940.89990234375
 endloop
endfacet
facet normal 0.017881276085972786 -0.04195629432797432 -0.9989594221115112
 outer loop
  vertex 343500.0 5700500.0 2925.60009765625
  vertex 344500.0 5700500.0 2943.5
  vertex 344500.0 5699500.0 2985.5
 endloop
endfacet
facet normal 0.01328715868294239 -0.04195930063724518 -0.9990309476852417
 outer loop
  vertex 344500.0 5700500.0 2943.5
  vertex 345500.0 5699500.0 2998.800048828125
  vertex 344500.0 5699500.0 2985.5
 endloop
endfacet
facet normal 0.005293361842632294 -0.049936916679143906 -0.9987383484840393
 outer loop
  vertex 344500.0 5700500.0 2943.5
  vertex 345500.0 5700500.0 2948.800048828125
  vertex 345500.0 5699500.0 2998.800048828125
 endloop
endfacet
facet normal 0.03503453731536865 -0.04990696161985397 -0.9981392025947571
 outer loop
  vertex 345500.0 5700500.0 2948.800048828125
  vertex 346500.0 5699500.0 3033.89990234375
  vertex 345500.0 5699500.0 2998.800048828125
 endloop
endfacet
facet normal 0.2261940836906433 0.14421333372592926 -0.9633476734161377
 outer loop
  vertex 345500.0 5700500.0 2948.800048828125
  vertex 346500.0 5700500.0 3183.60009765625
  vertex 346500.0 5699500.0 3033.89990234375
 endloop
endfacet
facet normal 0.16940052807331085 0.14591072499752045 -0.9746863842010498
 outer loop
  vertex 346500.0 5700500.0 3183.60009765625
  vertex 347500.0 5699500.0 3207.699951171875
  vertex 346500.0 5699500.0 3033.89990234375
 endloop
endfacet
facet normal -0.1929577887058258 -0.2160245180130005 -0.9571314454078674
 outer loop
  vertex 346500.0 5700500.0 3183.60009765625
  vertex 347500.0 5700500.0 2982.0
  vertex 347500.0 5699500.0 3207.699951171875
 endloop
endfacet
facet normal -0.005083745811134577 0.07924892753362656 -0.9968419075012207
 outer loop
  vertex 338500.0 5701500.0 2991.199951171875
  vertex 339500.0 5700500.0 2906.60009765625
  vertex 338500.0 5700500.0 2911.699951171875
 endloop
endfacet
facet normal -0.038430746644735336 0.04601692780852318 -0.9982011914253235
 outer loop
  vertex 338500.0 5701500.0 2991.199951171875
  vertex 339500.0 5701500.0 2952.699951171875
  vertex 339500.0 5700500.0 2906.60009765625
 endloop
endfacet
facet normal -0.03544006124138832 0.04602201282978058 -0.9983115196228027
 outer loop
  vertex 339500.0 5701500.0 2952.699951171875
  vertex 340500.0 5700500.0 2871.10009765625
  vertex 339500.0 5700500.0 2906.60009765625
 endloop
endfacet
facet normal -0.05679075047373772 0.024652566760778427 -0.9980816841125488
 outer loop
  vertex 339500.0 5701500.0 2952.699951171875
  vertex 340500.0 5701500.0 2895.800048828125
  vertex 340500.0 5700500.0 2871.10009765625
 endloop
endfacet
facet normal 0.03726253658533096 0.024675270542502403 -0.9990007877349854
 outer loop
  vertex 340500.0 5701500.0 2895.800048828125
  vertex 341500.0 5700500.0 2908.39990234375
  vertex 340500.0 5700500.0 2871.10009765625
 endloop
endfacet
facet normal -0.0284644216299057 -0.04104854166507721 -0.9987516403198242
 outer loop
  vertex 340500.0 5701500.0 2895.800048828125
  vertex 341500.0 5701500.0 2867.300048828125
  vertex 341500.0 5700500.0 2908.39990234375
 endloop
endfacet
facet normal 0.01878087967634201 -0.04105794057250023 -0.9989802241325378
 outer loop
  vertex 341500.0 5701500.0 2867.300048828125
  vertex 342500.0 5700500.0 2927.199951171875
  vertex 341500.0 5700500.0 2908.39990234375
 endloop
endfacet
facet normal 0.0821998193860054 0.022517865523695946 -0.9963614344596863
 outer loop
  vertex 341500.0 5701500.0 2867.300048828125
  vertex 342500.0 5701500.0 2949.800048828125
  vertex 342500.0 5700500.0 2927.199951171875
 endloop
endfacet
facet normal -0.0015994430286809802 0.022594299167394638 -0.9997434616088867
 outer loop
  vertex 342500.0 5701500.0 2949.800048828125
  vertex 343500.0 5700500.0 2925.60009765625
  vertex 342500.0 5700500.0 2927.199951171875
 endloop
endfacet
facet normal -0.08247574418783188 -0.05839968100190163 -0.9948805570602417
 outer loop
  vertex 342500.0 5701500.0 2949.800048828125
  vertex 343500.0 5701500.0 2866.89990234375
  vertex 343500.0 5700500.0 2925.60009765625
 endloop
endfacet
facet normal 0.017866287380456924 -0.05858997255563736 -0.9981222748756409
 outer loop
  vertex 343500.0 5701500.0 2866.89990234375
  vertex 344500.0 5700500.0 2943.5
  vertex 343500.0 5700500.0 2925.60009765625
 endloop
endfacet
facet normal 0.03365015983581543 -0.042836204171180725 -0.998515248298645
 outer loop
  vertex 343500.0 5701500.0 2866.89990234375
  vertex 344500.0 5701500.0 2900.60009765625
  vertex 344500.0 5700500.0 2943.5
 endloop
endfacet
facet normal 0.0052951062098145485 -0.04285987839102745 -0.9990670680999756
 outer loop
  vertex 344500.0 5701500.0 2900.60009765625
  vertex 345500.0 5700500.0 2948.800048828125
  vertex 344500.0 5700500.0 2943.5
 endloop
endfacet
facet normal 0.020987611263990402 -0.027183907106518745 -0.999410092830658
 outer loop
  vertex 344500.0 5701500.0 2900.60009765625
  vertex 345500.0 5701500.0 2921.60009765625
  vertex 345500.0 5700500.0 2948.800048828125
 endloop
endfacet
facet normal 0.22850346565246582 -0.02647053636610508 -0.9731832146644592
 outer loop
  vertex 345500.0 5701500.0 2921.60009765625
  vertex 346500.0 5700500.0 3183.60009765625
  vertex 345500.0 5700500.0 2948.800048828125
 endloop
endfacet
facet normal 0.004066944122314453 -0.24963584542274475 -0.9683312773704529
 outer loop
  vertex 345500.0 5701500.0 2921.60009765625
  vertex 346500.0 5701500.0 2925.800048828125
  vertex 346500.0 5700500.0 3183.60009765625
 endloop
endfacet
facet normal -0.1916004866361618 -0.24501284956932068 -0.9503988027572632
 outer loop
  vertex 346500.0 5701500.0 2925.800048828125
  vertex 347500.0 5700500.0 2982.0
  vertex 346500.0 5700500.0 3183.60009765625
 endloop
endfacet
facet normal -0.03842967748641968 -0.04661465436220169 -0.9981734752655029
 outer loop
  vertex 338500.0 5702500.0 2944.5
  vertex 339500.0 5701500.0 2952.699951171875
  vertex 338500.0 5701500.0 2991.199951171875
 endloop
endfacet
facet normal -0.02018769457936287 -0.028382670134305954 -0.9993932247161865
 outer loop
  vertex 338500.0 5702500.0 2944.5
  vertex 339500.0 5702500.0 2924.300048828125
  vertex 339500.0 5701500.0 2952.699951171875
 endloop
endfacet
facet normal -0.05678519234061241 -0.028342649340629578 -0.997983992099762
 outer loop
  vertex 339500.0 5702500.0 2924.300048828125
  vertex 340500.0 5701500.0 2895.800048828125
  vertex 339500.0 5701500.0 2952.699951171875
 endloop
endfacet
facet normal -0.04146081209182739 -0.012987724505364895 -0.9990556836128235
 outer loop
  vertex 339500.0 5702500.0 2924.300048828125
  vertex 340500.0 5702500.0 2882.800048828125
  vertex 340500.0 5701500.0 2895.800048828125
 endloop
endfacet
facet normal -0.02848602831363678 -0.012993626296520233 -0.9995097517967224
 outer loop
  vertex 340500.0 5702500.0 2882.800048828125
  vertex 341500.0 5701500.0 2867.300048828125
  vertex 340500.0 5701500.0 2895.800048828125
 endloop
endfacet
facet normal -0.01849675178527832 -0.0029994731303304434 -0.9998244047164917
 outer loop
  vertex 340500.0 5702500.0 2882.800048828125
  vertex 341500.0 5702500.0 2864.300048828125
  vertex 341500.0 5701500.0 2867.300048828125
 endloop
endfacet
facet normal 0.08222030103206635 -0.0029898290522396564 -0.9966097474098206
 outer loop
  vertex 341500.0 5702500.0 2864.300048828125
  vertex 342500.0 5701500.0 2949.800048828125
  vertex 341500.0 5701500.0 2867.300048828125
 endloop
endfacet
facet normal 0.07329701632261276 -0.011966859921813011 -0.9972383379936218
 outer loop
  vertex 341500.0 5702500.0 2864.300048828125
  vertex 342500.0 5702500.0 2937.800048828125
  vertex 342500.0 5701500.0 2949.800048828125
 endloop
endfacet
facet normal -0.0826108381152153 -0.011958122253417969 -0.9965101480484009
 outer loop
  vertex 342500.0 5702500.0 2937.800048828125
  vertex 343500.0 5701500.0 2866.89990234375
  vertex 342500.0 5701500.0 2949.800048828125
 endloop
endfacet
facet normal 0.0054839360527694225 0.07617700099945068 -0.9970792531967163
 outer loop
  vertex 342500.0 5702500.0 2937.800048828125
  vertex 343500.0 5702500.0 2943.300048828125
  vertex 343500.0 5701500.0 2866.89990234375
 endloop
endfacet
facet normal 0.03358331322669983 0.07613517343997955 -0.9965317845344543
 outer loop
  vertex 343500.0 5702500.0 2943.300048828125
  vertex 344500.0 5701500.0 2900.60009765625
  vertex 343500.0 5701500.0 2866.89990234375
 endloop
endfacet
facet normal -0.03228146955370903 0.010393922217190266 -0.9994247555732727
 outer loop
  vertex 343500.0 5702500.0 2943.300048828125
  vertex 344500.0 5702500.0 2911.0
  vertex 344500.0 5701500.0 2900.60009765625
 endloop
endfacet
facet normal 0.020994236692786217 0.01039704866707325 -0.9997255802154541
 outer loop
  vertex 344500.0 5702500.0 2911.0
  vertex 345500.0 5701500.0 2921.60009765625
  vertex 344500.0 5701500.0 2900.60009765625
 endloop
endfacet
facet normal 0.04622111842036247 0.035639092326164246 -0.9982953071594238
 outer loop
  vertex 344500.0 5702500.0 2911.0
  vertex 345500.0 5702500.0 2957.300048828125
  vertex 345500.0 5701500.0 2921.60009765625
 endloop
endfacet
facet normal 0.004197242669761181 0.03567691147327423 -0.9993546009063721
 outer loop
  vertex 345500.0 5702500.0 2957.300048828125
  vertex 346500.0 5701500.0 2925.800048828125
  vertex 345500.0 5701500.0 2921.60009765625
 endloop
endfacet
facet normal -0.027889113873243332 0.0035984301939606667 -0.9996045827865601
 outer loop
  vertex 345500.0 5702500.0 2957.300048828125
  vertex 346500.0 5702500.0 2929.39990234375
  vertex 346500.0 5701500.0 2925.800048828125
 endloop
endfacet
facet normal -0.020112572237849236 -0.09070605039596558 -0.9956746101379395
 outer loop
  vertex 338500.0 5703500.0 2853.39990234375
  vertex 339500.0 5702500.0 2924.300048828125
  vertex 338500.0 5702500.0 2944.5
 endloop
endfacet
facet normal 0.05690214782953262 -0.013876286335289478 -0.998283326625824
 outer loop
  vertex 338500.0 5703500.0 2853.39990234375
  vertex 339500.0 5703500.0 2910.39990234375
  vertex 339500.0 5702500.0 2924.300048828125
 endloop
endfacet
facet normal -0.0414603091776371 -0.013886852189898491 -0.9990435838699341
 outer loop
  vertex 339500.0 5703500.0 2910.39990234375
  vertex 340500.0 5702500.0 2882.800048828125
  vertex 339500.0 5702500.0 2924.300048828125
 endloop
endfacet
facet normal -0.005098496563732624 0.022494014352560043 -0.9997339248657227
 outer loop
  vertex 339500.0 5703500.0 2910.39990234375
  vertex 340500.0 5703500.0 2905.300048828125
  vertex 340500.0 5702500.0 2882.800048828125
 endloop
endfacet
facet normal -0.018492156639695168 0.02249046042561531 -0.9995760321617126
 outer loop
  vertex 340500.0 5703500.0 2905.300048828125
  vertex 341500.0 5702500.0 2864.300048828125
  vertex 340500.0 5702500.0 2882.800048828125
 endloop
endfacet
facet normal -0.03907017409801483 0.0018984482157975435 -0.999234676361084
 outer loop
  vertex 340500.0 5703500.0 2905.300048828125
  vertex 341500.0 5703500.0 2866.199951171875
  vertex 341500.0 5702500.0 2864.300048828125
 endloop
endfacet
facet normal 0.07330213487148285 0.0018947877688333392 -0.9973079562187195
 outer loop
  vertex 341500.0 5703500.0 2866.199951171875
  vertex 342500.0 5702500.0 2937.800048828125
  vertex 341500.0 5702500.0 2864.300048828125
 endloop
endfacet
facet normal 0.0361536405980587 -0.0353548526763916 -0.998720645904541
 outer loop
  vertex 341500.0 5703500.0 2866.199951171875
  vertex 342500.0 5703500.0 2902.39990234375
  vertex 342500.0 5702500.0 2937.800048828125
 endloop
endfacet
facet normal 0.005496473982930183 -0.03537745401263237 -0.9993588924407959
 outer loop
  vertex 342500.0 5703500.0 2902.39990234375
  vertex 343500.0 5702500.0 2943.300048828125
  vertex 342500.0 5702500.0 2937.800048828125
 endloop
endfacet
facet normal 0.04654882848262787 0.0056936778128147125 -0.9988997578620911
 outer loop
  vertex 342500.0 5703500.0 2902.39990234375
  vertex 343500.0 5703500.0 2949.0
  vertex 343500.0 5702500.0 2943.300048828125
 endloop
endfacet
facet normal -0.03228268772363663 0.005696887616068125 -0.9994625449180603
 outer loop
  vertex 343500.0 5703500.0 2949.0
  vertex 344500.0 5702500.0 2911.0
  vertex 343500.0 5702500.0 2943.300048828125
 endloop
endfacet
facet normal -0.03707457706332207 0.0008992832736112177 -0.9993121027946472
 outer loop
  vertex 343500.0 5703500.0 2949.0
  vertex 344500.0 5703500.0 2911.89990234375
  vertex 344500.0 5702500.0 2911.0
 endloop
endfacet
facet normal 0.04625048488378525 0.0008989389752969146 -0.9989294409751892
 outer loop
  vertex 344500.0 5703500.0 2911.89990234375
  vertex 345500.0 5702500.0 2957.300048828125
  vertex 344500.0 5702500.0 2911.0
 endloop
endfacet
facet normal -0.002696823561564088 -0.04804438352584839 -0.9988415837287903
 outer loop
  vertex 344500.0 5703500.0 2911.89990234375
  vertex 345500.0 5703500.0 2909.199951171875
  vertex 345500.0 5702500.0 2957.300048828125
 endloop
endfacet
facet normal -0.027857111766934395 -0.04802590608596802 -0.9984575510025024
 outer loop
  vertex 345500.0 5703500.0 2909.199951171875
  vertex 346500.0 5702500.0 2929.39990234375
  vertex 345500.0 5702500.0 2957.300048828125
 endloop
endfacet
facet normal -0.0022994608152657747 -0.022494247183203697 -0.9997442960739136
 outer loop
  vertex 345500.0 5703500.0 2909.199951171875
  vertex 346500.0 5703500.0 2906.89990234375
  vertex 346500.0 5702500.0 2929.39990234375
 endloop
endfacet
facet normal 0.10669932514429092 0.13399015367031097 -0.9852217435836792
 outer loop
  vertex 337500.0 5704500.0 2881.10009765625
  vertex 338500.0 5704500.0 2989.39990234375
  vertex 338500.0 5703500.0 2853.39990234375
 endloop
endfacet
facet normal 0.056390196084976196 0.13454502820968628 -0.9893016815185547
 outer loop
  vertex 338500.0 5704500.0 2989.39990234375
  vertex 339500.0 5703500.0 2910.39990234375
  vertex 338500.0 5703500.0 2853.39990234375
 endloop
endfacet
facet normal -0.09544843435287476 -0.01682034693658352 -0.9952922463417053
 outer loop
  vertex 338500.0 5704500.0 2989.39990234375
  vertex 339500.0 5704500.0 2893.5
  vertex 339500.0 5703500.0 2910.39990234375
 endloop
endfacet
facet normal -0.005099059082567692 -0.01689727045595646 -0.9998441934585571
 outer loop
  vertex 339500.0 5704500.0 2893.5
  vertex 340500.0 5703500.0 2905.300048828125
  vertex 339500.0 5703500.0 2910.39990234375
 endloop
endfacet
facet normal 0.0147983618080616 0.0029996579978615046 -0.9998860359191895
 outer loop
  vertex 339500.0 5704500.0 2893.5
  vertex 340500.0 5704500.0 2908.300048828125
  vertex 340500.0 5703500.0 2905.300048828125
 endloop
endfacet
facet normal -0.039070066064596176 0.0029976959340274334 -0.9992319941520691
 outer loop
  vertex 340500.0 5704500.0 2908.300048828125
  vertex 341500.0 5703500.0 2866.199951171875
  vertex 340500.0 5703500.0 2905.300048828125
 endloop
endfacet
facet normal 0.11202329397201538 0.15335719287395477 -0.9818005561828613
 outer loop
  vertex 340500.0 5704500.0 2908.300048828125
  vertex 341500.0 5704500.0 3022.39990234375
  vertex 341500.0 5703500.0 2866.199951171875
 endloop
endfacet
facet normal 0.035743407905101776 0.154229998588562 -0.9873881936073303
 outer loop
  vertex 341500.0 5704500.0 3022.39990234375
  vertex 342500.0 5703500.0 2902.39990234375
  vertex 341500.0 5703500.0 2866.199951171875
 endloop
endfacet
facet normal -0.11571668088436127 0.0034764667507261038 -0.9932761788368225
 outer loop
  vertex 341500.0 5704500.0 3022.39990234375
  vertex 342500.0 5704500.0 2905.89990234375
  vertex 342500.0 5703500.0 2902.39990234375
 endloop
endfacet
facet normal 0.046549297869205475 0.003496184479445219 -0.9989098906517029
 outer loop
  vertex 342500.0 5704500.0 2905.89990234375
  vertex 343500.0 5703500.0 2949.0
  vertex 342500.0 5703500.0 2902.39990234375
 endloop
endfacet
facet normal 0.11211270838975906 0.06938888877630234 -0.9912698268890381
 outer loop
  vertex 342500.0 5704500.0 2905.89990234375
  vertex 343500.0 5704500.0 3019.0
  vertex 343500.0 5703500.0 2949.0
 endloop
endfacet
facet normal -0.03698420897126198 0.0697813555598259 -0.9968764781951904
 outer loop
  vertex 343500.0 5704500.0 3019.0
  vertex 344500.0 5703500.0 2911.89990234375
  vertex 343500.0 5703500.0 2949.0
 endloop
endfacet
facet normal -0.07246594876050949 0.034289415925741196 -0.9967812895774841
 outer loop
  vertex 343500.0 5704500.0 3019.0
  vertex 344500.0 5704500.0 2946.300048828125
  vertex 344500.0 5703500.0 2911.89990234375
 endloop
endfacet
facet normal -0.0026983434800058603 0.034379687160253525 -0.9994052052497864
 outer loop
  vertex 344500.0 5704500.0 2946.300048828125
  vertex 345500.0 5703500.0 2909.199951171875
  vertex 344500.0 5703500.0 2911.89990234375
 endloop
endfacet
facet normal -0.057194583117961884 -0.02016277052462101 -0.9981594681739807
 outer loop
  vertex 344500.0 5704500.0 2946.300048828125
  vertex 345500.0 5704500.0 2889.0
  vertex 345500.0 5703500.0 2909.199951171875
 endloop
endfacet
facet normal -0.002299573738127947 -0.02019577845931053 -0.9997934103012085
 outer loop
  vertex 345500.0 5704500.0 2889.0
  vertex 346500.0 5703500.0 2906.89990234375
  vertex 345500.0 5703500.0 2909.199951171875
 endloop
endfacet
facet normal 0.04712728410959244 0.029254939407110214 -0.9984603524208069
 outer loop
  vertex 345500.0 5704500.0 2889.0
  vertex 346500.0 5704500.0 2936.199951171875
  vertex 346500.0 5703500.0 2906.89990234375
 endloop
endfacet
facet normal 0.0746590718626976 0.029205741360783577 -0.9967813491821289
 outer loop
  vertex 346500.0 5704500.0 2936.199951171875
  vertex 347500.0 5703500.0 2981.800048828125
  vertex 346500.0 5703500.0 2906.89990234375
 endloop
endfacet
facet normal 0.10749350488185883 0.05727037042379379 -0.9925549030303955
 outer loop
  vertex 337500.0 5705500.0 2938.800048828125
  vertex 338500.0 5704500.0 2989.39990234375
  vertex 337500.0 5704500.0 2881.10009765625
 endloop
endfacet
facet normal -0.08373810350894928 -0.1337043046951294 -0.9874771237373352
 outer loop
  vertex 337500.0 5705500.0 2938.800048828125
  vertex 338500.0 5705500.0 2854.0
  vertex 338500.0 5704500.0 2989.39990234375
 endloop
endfacet
facet normal -0.09460649639368057 -0.1335737556219101 -0.9865128993988037
 outer loop
  vertex 338500.0 5705500.0 2854.0
  vertex 339500.0 5704500.0 2893.5
  vertex 338500.0 5704500.0 2989.39990234375
 endloop
endfacet
facet normal 0.09961718320846558 0.06038610637187958 -0.9931917786598206
 outer loop
  vertex 338500.0 5705500.0 2854.0
  vertex 339500.0 5705500.0 2954.300048828125
  vertex 339500.0 5704500.0 2893.5
 endloop
endfacet
facet normal 0.014771155081689358 0.060681357979774475 -0.9980478882789612
 outer loop
  vertex 339500.0 5705500.0 2954.300048828125
  vertex 340500.0 5704500.0 2908.300048828125
  vertex 339500.0 5704500.0 2893.5
 endloop
endfacet
facet normal -0.0016982831293717027 0.044256579130887985 -0.9990187883377075
 outer loop
  vertex 339500.0 5705500.0 2954.300048828125
  vertex 340500.0 5705500.0 2952.60009765625
  vertex 340500.0 5704500.0 2908.300048828125
 endloop
endfacet
facet normal 0.11325465142726898 0.043971892446279526 -0.992592453956604
 outer loop
  vertex 340500.0 5705500.0 2952.60009765625
  vertex 341500.0 5704500.0 3022.39990234375
  vertex 340500.0 5704500.0 2908.300048828125
 endloop
endfacet
facet normal 0.01847255416214466 -0.051223695278167725 -0.9985163807868958
 outer loop
  vertex 340500.0 5705500.0 2952.60009765625
  vertex 341500.0 5705500.0 2971.10009765625
  vertex 341500.0 5704500.0 3022.39990234375
 endloop
endfacet
facet normal -0.11556744575500488 -0.050889160484075546 -0.9919952154159546
 outer loop
  vertex 341500.0 5705500.0 2971.10009765625
  vertex 342500.0 5704500.0 2905.89990234375
  vertex 341500.0 5704500.0 3022.39990234375
 endloop
endfacet
facet normal -0.10365896672010422 -0.038859523832798004 -0.9938535094261169
 outer loop
  vertex 341500.0 5705500.0 2971.10009765625
  vertex 342500.0 5705500.0 2866.800048828125
  vertex 342500.0 5704500.0 2905.89990234375
 endloop
endfacet
facet normal 0.1122988760471344 -0.03882285952568054 -0.9929158091545105
 outer loop
  vertex 342500.0 5705500.0 2866.800048828125
  vertex 343500.0 5704500.0 3019.0
  vertex 342500.0 5704500.0 2905.89990234375
 endloop
endfacet
facet normal 0.020419498905539513 -0.13044790923595428 -0.9912448525428772
 outer loop
  vertex 342500.0 5705500.0 2866.800048828125
  vertex 343500.0 5705500.0 2887.39990234375
  vertex 343500.0 5704500.0 3019.0
 endloop
endfacet
facet normal -0.07189196348190308 -0.13013750314712524 -0.9888861179351807
 outer loop
  vertex 343500.0 5705500.0 2887.39990234375
  vertex 344500.0 5704500.0 2946.300048828125
  vertex 343500.0 5704500.0 3019.0
 endloop
endfacet
facet normal 0.024778032675385475 -0.03406982868909836 -0.9991122484207153
 outer loop
  vertex 343500.0 5705500.0 2887.39990234375
  vertex 344500.0 5705500.0 2912.199951171875
  vertex 344500.0 5704500.0 2946.300048828125
 endloop
endfacet
facet normal -0.05717309191823006 -0.034024544060230255 -0.9977843761444092
 outer loop
  vertex 344500.0 5705500.0 2912.199951171875
  vertex 345500.0 5704500.0 2889.0
  vertex 344500.0 5704500.0 2946.300048828125
 endloop
endfacet
facet normal -0.003699222579598427 0.019496159628033638 -0.9998031258583069
 outer loop
  vertex 344500.0 5705500.0 2912.199951171875
  vertex 345500.0 5705500.0 2908.5
  vertex 345500.0 5704500.0 2889.0
 endloop
endfacet
facet normal 0.0471385233104229 0.01947461999952793 -0.9986985325813293
 outer loop
  vertex 345500.0 5705500.0 2908.5
  vertex 346500.0 5704500.0 2936.199951171875
  vertex 345500.0 5704500.0 2889.0
 endloop
endfacet
facet normal 0.0713488981127739 0.04374612495303154 -0.9964916706085205
 outer loop
  vertex 345500.0 5705500.0 2908.5
  vertex 346500.0 5705500.0 2980.10009765625
  vertex 346500.0 5704500.0 2936.199951171875
 endloop
endfacet
facet normal 0.008699608035385609 -0.007699431385844946 -0.9999325275421143
 outer loop
  vertex 336500.0 5706500.0 2922.39990234375
  vertex 337500.0 5706500.0 2931.10009765625
  vertex 337500.0 5705500.0 2938.800048828125
 endloop
endfacet
facet normal -0.08449429273605347 -0.007672188337892294 -0.9963943958282471
 outer loop
  vertex 337500.0 5706500.0 2931.10009765625
  vertex 338500.0 5705500.0 2854.0
  vertex 337500.0 5705500.0 2938.800048828125
 endloop
endfacet
facet normal -0.045330710709095 0.03165145963430405 -0.9984705448150635
 outer loop
  vertex 337500.0 5706500.0 2931.10009765625
  vertex 338500.0 5706500.0 2885.699951171875
  vertex 338500.0 5705500.0 2854.0
 endloop
endfacet
facet normal 0.09974969923496246 0.03152601420879364 -0.9945130348205566
 outer loop
  vertex 338500.0 5706500.0 2885.699951171875
  vertex 339500.0 5705500.0 2954.300048828125
  vertex 338500.0 5705500.0 2854.0
 endloop
endfacet
facet normal -0.035682737827301025 -0.10386785864830017 -0.9939508438110352
 outer loop
  vertex 338500.0 5706500.0 2885.699951171875
  vertex 339500.0 5706500.0 2849.800048828125
  vertex 339500.0 5705500.0 2954.300048828125
 endloop
endfacet
facet normal -0.0016907440731301904 -0.1039339005947113 -0.9945827722549438
 outer loop
  vertex 339500.0 5706500.0 2849.800048828125
  vertex 340500.0 5705500.0 2952.60009765625
  vertex 339500.0 5705500.0 2954.300048828125
 endloop
endfacet
facet normal 0.023819098249077797 -0.0786333829164505 -0.9966190457344055
 outer loop
  vertex 339500.0 5706500.0 2849.800048828125
  vertex 340500.0 5706500.0 2873.699951171875
  vertex 340500.0 5705500.0 2952.60009765625
 endloop
endfacet
facet normal 0.01843954809010029 -0.0786423310637474 -0.9967323541641235
 outer loop
  vertex 340500.0 5706500.0 2873.699951171875
  vertex 341500.0 5705500.0 2971.10009765625
  vertex 340500.0 5705500.0 2952.60009765625
 endloop
endfacet
facet normal 0.024727385491132736 -0.07238738983869553 -0.9970700740814209
 outer loop
  vertex 340500.0 5706500.0 2873.699951171875
  vertex 341500.0 5706500.0 2898.5
  vertex 341500.0 5705500.0 2971.10009765625
 endloop
endfacet
facet normal -0.1034679263830185 -0.07202088087797165 -0.9920218586921692
 outer loop
  vertex 341500.0 5706500.0 2898.5
  vertex 342500.0 5705500.0 2866.800048828125
  vertex 341500.0 5705500.0 2971.10009765625
 endloop
endfacet
facet normal 0.039568133652210236 0.07116282731294632 -0.9966795444488525
 outer loop
  vertex 341500.0 5706500.0 2898.5
  vertex 342500.0 5706500.0 2938.199951171875
  vertex 342500.0 5705500.0 2866.800048828125
 endloop
endfacet
facet normal 0.020543213933706284 0.0712035745382309 -0.9972501993179321
 outer loop
  vertex 342500.0 5706500.0 2938.199951171875
  vertex 343500.0 5705500.0 2887.39990234375
  vertex 342500.0 5705500.0 2866.800048828125
 endloop
endfacet
facet normal 0.0029956542421132326 0.053722113370895386 -0.9985514283180237
 outer loop
  vertex 342500.0 5706500.0 2938.199951171875
  vertex 343500.0 5706500.0 2941.199951171875
  vertex 343500.0 5705500.0 2887.39990234375
 endloop
endfacet
facet normal 0.024756642058491707 0.053705886006355286 -0.9982498288154602
 outer loop
  vertex 343500.0 5706500.0 2941.199951171875
  vertex 344500.0 5705500.0 2912.199951171875
  vertex 343500.0 5705500.0 2887.39990234375
 endloop
endfacet
facet normal -0.004098548553884029 0.02489222213625908 -0.9996817111968994
 outer loop
  vertex 343500.0 5706500.0 2941.199951171875
  vertex 344500.0 5706500.0 2937.10009765625
  vertex 344500.0 5705500.0 2912.199951171875
 endloop
endfacet
facet normal -0.00369877927005291 0.024892259389162064 -0.9996832609176636
 outer loop
  vertex 344500.0 5706500.0 2937.10009765625
  vertex 345500.0 5705500.0 2908.5
  vertex 344500.0 5705500.0 2912.199951171875
 endloop
endfacet
facet normal -0.0016995780169963837 0.026890136301517487 -0.9996369481086731
 outer loop
  vertex 344500.0 5706500.0 2937.10009765625
  vertex 345500.0 5706500.0 2935.39990234375
  vertex 345500.0 5705500.0 2908.5
 endloop
endfacet
facet normal 0.07139157503843307 0.0268215611577034 -0.9970877170562744
 outer loop
  vertex 345500.0 5706500.0 2935.39990234375
  vertex 346500.0 5705500.0 2980.10009765625
  vertex 345500.0 5705500.0 2908.5
 endloop
endfacet
facet normal 0.006195486523211002 -0.038470759987831116 -0.999240517616272
 outer loop
  vertex 345500.0 5706500.0 2935.39990234375
  vertex 346500.0 5706500.0 2941.60009765625
  vertex 346500.0 5705500.0 2980.10009765625
 endloop
endfacet
facet normal -0.051991116255521774 -0.038419466465711594 -0.9979082345962524
 outer loop
  vertex 346500.0 5706500.0 2941.60009765625
  vertex 347500.0 5705500.0 2928.0
  vertex 346500.0 5705500.0 2980.10009765625
 endloop
endfacet
facet normal 0.009596829302608967 0.023192642256617546 -0.9996849894523621
 outer loop
  vertex 346500.0 5706500.0 2941.60009765625
  vertex 347500.0 5706500.0 2951.199951171875
  vertex 347500.0 5705500.0 2928.0
 endloop
endfacet
facet normal 0.04076342657208443 -0.01099019218236208 -0.9991084337234497
 outer loop
  vertex 335500.0 5707500.0 2870.60009765625
  vertex 336500.0 5707500.0 2911.39990234375
  vertex 336500.0 5706500.0 2922.39990234375
 endloop
endfacet
facet normal 0.00869933981448412 -0.010998918674886227 -0.9999017119407654
 outer loop
  vertex 336500.0 5707500.0 2911.39990234375
  vertex 337500.0 5706500.0 2931.10009765625
  vertex 336500.0 5706500.0 2922.39990234375
 endloop
endfacet
facet normal 0.013498511165380478 -0.006199511233717203 -0.9998896718025208
 outer loop
  vertex 336500.0 5707500.0 2911.39990234375
  vertex 337500.0 5707500.0 2924.89990234375
  vertex 337500.0 5706500.0 2931.10009765625
 endloop
endfacet
facet normal -0.04535256326198578 -0.006193696521222591 -0.9989518523216248
 outer loop
  vertex 337500.0 5707500.0 2924.89990234375
  vertex 338500.0 5706500.0 2885.699951171875
  vertex 337500.0 5706500.0 2931.10009765625
 endloop
endfacet
facet normal -0.12762753665447235 -0.08890466392040253 -0.9878295660018921
 outer loop
  vertex 337500.0 5707500.0 2924.89990234375
  vertex 338500.0 5707500.0 2795.699951171875
  vertex 338500.0 5706500.0 2885.699951171875
 endloop
endfacet
facet normal -0.03573255240917206 -0.08958045393228531 -0.9953383803367615
 outer loop
  vertex 338500.0 5707500.0 2795.699951171875
  vertex 339500.0 5706500.0 2849.800048828125
  vertex 338500.0 5706500.0 2885.699951171875
 endloop
endfacet
facet normal 0.08011401444673538 0.026206452399492264 -0.996441125869751
 outer loop
  vertex 338500.0 5707500.0 2795.699951171875
  vertex 339500.0 5707500.0 2876.10009765625
  vertex 339500.0 5706500.0 2849.800048828125
 endloop
endfacet
facet normal 0.02388482540845871 0.02628345787525177 -0.9993691444396973
 outer loop
  vertex 339500.0 5707500.0 2876.10009765625
  vertex 340500.0 5706500.0 2873.699951171875
  vertex 339500.0 5706500.0 2849.800048828125
 endloop
endfacet
facet normal 0.010598362423479557 0.012998171150684357 -0.9998593330383301
 outer loop
  vertex 339500.0 5707500.0 2876.10009765625
  vertex 340500.0 5707500.0 2886.699951171875
  vertex 340500.0 5706500.0 2873.699951171875
 endloop
endfacet
facet normal 0.024790331721305847 0.01299490686506033 -0.9996082186698914
 outer loop
  vertex 340500.0 5707500.0 2886.699951171875
  vertex 341500.0 5706500.0 2898.5
  vertex 340500.0 5706500.0 2873.699951171875
 endloop
endfacet
facet normal -0.02976110763847828 -0.04154573753476143 -0.9986932873725891
 outer loop
  vertex 340500.0 5707500.0 2886.699951171875
  vertex 341500.0 5707500.0 2856.89990234375
  vertex 341500.0 5706500.0 2898.5
 endloop
endfacet
facet normal 0.039634473621845245 -0.04153148829936981 -0.9983507394790649
 outer loop
  vertex 341500.0 5707500.0 2856.89990234375
  vertex 342500.0 5706500.0 2938.199951171875
  vertex 341500.0 5706500.0 2898.5
 endloop
endfacet
facet normal 0.08291356265544891 0.0018936023116111755 -0.9965549111366272
 outer loop
  vertex 341500.0 5707500.0 2856.89990234375
  vertex 342500.0 5707500.0 2940.10009765625
  vertex 342500.0 5706500.0 2938.199951171875
 endloop
endfacet
facet normal 0.002999981166794896 0.0019001344917342067 -0.9999936819076538
 outer loop
  vertex 342500.0 5707500.0 2940.10009765625
  vertex 343500.0 5706500.0 2941.199951171875
  vertex 342500.0 5706500.0 2938.199951171875
 endloop
endfacet
facet normal -0.045006390661001205 -0.046103961765766144 -0.9979222416877747
 outer loop
  vertex 342500.0 5707500.0 2940.10009765625
  vertex 343500.0 5707500.0 2895.0
  vertex 343500.0 5706500.0 2941.199951171875
 endloop
endfacet
facet normal -0.0040954528376460075 -0.046150341629981995 -0.9989261627197266
 outer loop
  vertex 343500.0 5707500.0 2895.0
  vertex 344500.0 5706500.0 2937.10009765625
  vertex 343500.0 5706500.0 2941.199951171875
 endloop
endfacet
facet normal -0.02304503135383129 -0.06504476815462112 -0.997616171836853
 outer loop
  vertex 343500.0 5707500.0 2895.0
  vertex 344500.0 5707500.0 2871.89990234375
  vertex 344500.0 5706500.0 2937.10009765625
 endloop
endfacet
facet normal -0.0016965905670076609 -0.06506195664405823 -0.9978798031806946
 outer loop
  vertex 344500.0 5707500.0 2871.89990234375
  vertex 345500.0 5706500.0 2935.39990234375
  vertex 344500.0 5706500.0 2937.10009765625
 endloop
endfacet
facet normal 0.06873618811368942 0.005387297831475735 -0.9976202845573425
 outer loop
  vertex 344500.0 5707500.0 2871.89990234375
  vertex 345500.0 5707500.0 2940.800048828125
  vertex 345500.0 5706500.0 2935.39990234375
 endloop
endfacet
facet normal 0.00619998574256897 0.005399963818490505 -0.9999662041664124
 outer loop
  vertex 345500.0 5707500.0 2940.800048828125
  vertex 346500.0 5706500.0 2941.60009765625
  vertex 345500.0 5706500.0 2935.39990234375
 endloop
endfacet
facet normal -0.0064996895380318165 -0.007299700286239386 -0.9999522566795349
 outer loop
  vertex 345500.0 5707500.0 2940.800048828125
  vertex 346500.0 5707500.0 2934.300048828125
  vertex 346500.0 5706500.0 2941.60009765625
 endloop
endfacet
facet normal 0.009599155746400356 -0.007299518212676048 -0.9999273419380188
 outer loop
  vertex 346500.0 5707500.0 2934.300048828125
  vertex 347500.0 5706500.0 2951.199951171875
  vertex 346500.0 5706500.0 2941.60009765625
 endloop
endfacet
facet normal -0.019782856106758118 -0.0366680845618248 -0.9991316795349121
 outer loop
  vertex 346500.0 5707500.0 2934.300048828125
  vertex 347500.0 5707500.0 2914.5
  vertex 347500.0 5706500.0 2951.199951171875
 endloop
endfacet
facet normal 0.013495262712240219 -0.022791804745793343 -0.9996491074562073
 outer loop
  vertex 336500.0 5708500.0 2888.60009765625
  vertex 337500.0 5707500.0 2924.89990234375
  vertex 336500.0 5707500.0 2911.39990234375
 endloop
endfacet
facet normal -0.009988800622522831 -0.046247951686382294 -0.9988800883293152
 outer loop
  vertex 336500.0 5708500.0 2888.60009765625
  vertex 337500.0 5708500.0 2878.60009765625
  vertex 337500.0 5707500.0 2924.89990234375
 endloop
endfacet
facet normal -0.12800005078315735 -0.04586981236934662 -0.9907128810882568
 outer loop
  vertex 337500.0 5708500.0 2878.60009765625
  vertex 338500.0 5707500.0 2795.699951171875
  vertex 337500.0 5707500.0 2924.89990234375
 endloop
endfacet
facet normal -0.064852774143219 0.017859604209661484 -0.9977350234985352
 outer loop
  vertex 337500.0 5708500.0 2878.60009765625
  vertex 338500.0 5708500.0 2813.60009765625
  vertex 338500.0 5707500.0 2795.699951171875
 endloop
endfacet
facet normal 0.08012878894805908 0.01783973164856434 -0.9966248869895935
 outer loop
  vertex 338500.0 5708500.0 2813.60009765625
  vertex 339500.0 5707500.0 2876.10009765625
  vertex 338500.0 5707500.0 2795.699951171875
 endloop
endfacet
facet normal 0.06972786784172058 0.007381693460047245 -0.9975387454032898
 outer loop
  vertex 338500.0 5708500.0 2813.60009765625
  vertex 339500.0 5708500.0 2883.5
  vertex 339500.0 5707500.0 2876.10009765625
 endloop
endfacet
facet normal 0.010598967783153057 0.007399283815175295 -0.9999164342880249
 outer loop
  vertex 339500.0 5708500.0 2883.5
  vertex 340500.0 5707500.0 2886.699951171875
  vertex 339500.0 5707500.0 2876.10009765625
 endloop
endfacet
facet normal 0.013298194855451584 0.01009868923574686 -0.9998605847358704
 outer loop
  vertex 339500.0 5708500.0 2883.5
  vertex 340500.0 5708500.0 2896.800048828125
  vertex 340500.0 5707500.0 2886.699951171875
 endloop
endfacet
facet normal -0.029785310849547386 0.010095101781189442 -0.999505341053009
 outer loop
  vertex 340500.0 5708500.0 2896.800048828125
  vertex 341500.0 5707500.0 2856.89990234375
  vertex 340500.0 5707500.0 2886.699951171875
 endloop
endfacet
facet normal -0.04216231405735016 -0.002297753468155861 -0.9991081357002258
 outer loop
  vertex 340500.0 5708500.0 2896.800048828125
  vertex 341500.0 5708500.0 2854.60009765625
  vertex 341500.0 5707500.0 2856.89990234375
 endloop
endfacet
facet normal 0.08291349560022354 -0.0022918798495084047 -0.9965540766716003
 outer loop
  vertex 341500.0 5708500.0 2854.60009765625
  vertex 342500.0 5707500.0 2940.10009765625
  vertex 341500.0 5707500.0 2856.89990234375
 endloop
endfacet
facet normal 0.08558472245931625 0.0003984389186371118 -0.9963307976722717
 outer loop
  vertex 341500.0 5708500.0 2854.60009765625
  vertex 342500.0 5708500.0 2940.5
  vertex 342500.0 5707500.0 2940.10009765625
 endloop
endfacet
facet normal -0.045054297894239426 0.00039949623169377446 -0.9989844560623169
 outer loop
  vertex 342500.0 5708500.0 2940.5
  vertex 343500.0 5707500.0 2895.0
  vertex 342500.0 5707500.0 2940.10009765625
 endloop
endfacet
facet normal -0.03258008137345314 0.0128919817507267 -0.9993860125541687
 outer loop
  vertex 342500.0 5708500.0 2940.5
  vertex 343500.0 5708500.0 2907.89990234375
  vertex 343500.0 5707500.0 2895.0
 endloop
endfacet
facet normal -0.023092016577720642 0.012895389460027218 -0.9996501803398132
 outer loop
  vertex 343500.0 5708500.0 2907.89990234375
  vertex 344500.0 5707500.0 2871.89990234375
  vertex 343500.0 5707500.0 2895.0
 endloop
endfacet
facet normal -0.03218303993344307 0.003798052901402116 -0.9994747638702393
 outer loop
  vertex 343500.0 5708500.0 2907.89990234375
  vertex 344500.0 5708500.0 2875.699951171875
  vertex 344500.0 5707500.0 2871.89990234375
 endloop
endfacet
facet normal 0.06873669475317001 0.0037910337559878826 -0.9976276159286499
 outer loop
  vertex 344500.0 5708500.0 2875.699951171875
  vertex 345500.0 5707500.0 2940.800048828125
  vertex 344500.0 5707500.0 2871.89990234375
 endloop
endfacet
facet normal 0.039556246250867844 -0.02547176368534565 -0.9988926649093628
 outer loop
  vertex 344500.0 5708500.0 2875.699951171875
  vertex 345500.0 5708500.0 2915.300048828125
  vertex 345500.0 5707500.0 2940.800048828125
 endloop
endfacet
facet normal -0.006497750524431467 -0.025491176173090935 -0.9996539354324341
 outer loop
  vertex 345500.0 5708500.0 2915.300048828125
  vertex 346500.0 5707500.0 2934.300048828125
  vertex 345500.0 5707500.0 2940.800048828125
 endloop
endfacet
facet normal 0.023992791771888733 0.004998498130589724 -0.9996996521949768
 outer loop
  vertex 345500.0 5708500.0 2915.300048828125
  vertex 346500.0 5708500.0 2939.300048828125
  vertex 346500.0 5707500.0 2934.300048828125
 endloop
endfacet
facet normal -0.019795920699834824 0.004998957738280296 -0.9997915625572205
 outer loop
  vertex 346500.0 5708500.0 2939.300048828125
  vertex 347500.0 5707500.0 2914.5
  vertex 346500.0 5707500.0 2934.300048828125
 endloop
endfacet
facet normal 0.013298851437866688 0.001799886696971953 -0.9999099373817444
 outer loop
  vertex 339500.0 5709500.0 2885.300048828125
  vertex 340500.0 5708500.0 2896.800048828125
  vertex 339500.0 5708500.0 2883.5
 endloop
endfacet
facet normal -0.021982353180646896 -0.03347312659025192 -0.9991978406906128
 outer loop
  vertex 339500.0 5709500.0 2885.300048828125
  vertex 340500.0 5709500.0 2863.300048828125
  vertex 340500.0 5708500.0 2896.800048828125
 endloop
endfacet
facet normal -0.042138829827308655 -0.03345147892832756 -0.998551607131958
 outer loop
  vertex 340500.0 5709500.0 2863.300048828125
  vertex 341500.0 5708500.0 2854.60009765625
  vertex 340500.0 5708500.0 2896.800048828125
 endloop
endfacet
facet normal -0.009599651210010052 -0.0009001046419143677 -0.9999535083770752
 outer loop
  vertex 340500.0 5709500.0 2863.300048828125
  vertex 341500.0 5709500.0 2853.699951171875
  vertex 341500.0 5708500.0 2854.60009765625
 endloop
endfacet
facet normal 0.08558469265699387 -0.0008968433830887079 -0.9963304996490479
 outer loop
  vertex 341500.0 5709500.0 2853.699951171875
  vertex 342500.0 5708500.0 2940.5
  vertex 341500.0 5708500.0 2854.60009765625
 endloop
endfacet
facet normal -0.0010956283658742905 -0.08756222575902939 -0.9961584210395813
 outer loop
  vertex 341500.0 5709500.0 2853.699951171875
  vertex 342500.0 5709500.0 2852.60009765625
  vertex 342500.0 5708500.0 2940.5
 endloop
endfacet
facet normal -0.03245777636766434 -0.08751615136861801 -0.9956341981887817
 outer loop
  vertex 342500.0 5709500.0 2852.60009765625
  vertex 343500.0 5708500.0 2907.89990234375
  vertex 342500.0 5708500.0 2940.5
 endloop
endfacet
facet normal -0.046803735196590424 -0.10175558924674988 -0.9937078356742859
 outer loop
  vertex 342500.0 5709500.0 2852.60009765625
  vertex 343500.0 5709500.0 2805.5
  vertex 343500.0 5708500.0 2907.89990234375
 endloop
endfacet
facet normal -0.032016027718782425 -0.10181500017642975 -0.9942880272865295
 outer loop
  vertex 343500.0 5709500.0 2805.5
  vertex 344500.0 5708500.0 2875.699951171875
  vertex 343500.0 5708500.0 2907.89990234375
 endloop
endfacet
facet normal 0.048730913549661636 -0.021369589492678642 -0.9985833168029785
 outer loop
  vertex 343500.0 5709500.0 2805.5
  vertex 344500.0 5709500.0 2854.300048828125
  vertex 344500.0 5708500.0 2875.699951171875
 endloop
endfacet
facet normal 0.039560042321681976 -0.021378256380558014 -0.9989884495735168
 outer loop
  vertex 344500.0 5709500.0 2854.300048828125
  vertex 345500.0 5708500.0 2915.300048828125
  vertex 344500.0 5708500.0 2875.699951171875
 endloop
endfacet
facet normal 0.10080120712518692 0.0401613712310791 -0.9940956234931946
 outer loop
  vertex 344500.0 5709500.0 2854.300048828125
  vertex 345500.0 5709500.0 2955.699951171875
  vertex 345500.0 5708500.0 2915.300048828125
 endloop
endfacet
facet normal 0.02397354505956173 0.040355369448661804 -0.9988977313041687
 outer loop
  vertex 345500.0 5709500.0 2955.699951171875
  vertex 346500.0 5708500.0 2939.300048828125
  vertex 345500.0 5708500.0 2915.300048828125
 endloop
endfacet
facet normal -0.02195766754448414 -0.057988300919532776 -0.9980757832527161
 outer loop
  vertex 339500.0 5710500.0 2827.199951171875
  vertex 340500.0 5709500.0 2863.300048828125
  vertex 339500.0 5709500.0 2885.300048828125
 endloop
endfacet
facet normal 0.0979350134730339 0.06207841634750366 -0.9932547211647034
 outer loop
  vertex 339500.0 5710500.0 2827.199951171875
  vertex 340500.0 5710500.0 2925.800048828125
  vertex 340500.0 5709500.0 2863.300048828125
 endloop
endfacet
facet normal -0.009580958634614944 0.062375426292419434 -0.9980068206787109
 outer loop
  vertex 340500.0 5710500.0 2925.800048828125
  vertex 341500.0 5709500.0 2853.699951171875
  vertex 340500.0 5709500.0 2863.300048828125
 endloop
endfacet
facet normal -0.005487760063260794 0.06645187735557556 -0.9977745413780212
 outer loop
  vertex 340500.0 5710500.0 2925.800048828125
  vertex 341500.0 5710500.0 2920.300048828125
  vertex 341500.0 5709500.0 2853.699951171875
 endloop
endfacet
facet normal -0.0010974275646731257 0.06645283848047256 -0.9977889657020569
 outer loop
  vertex 341500.0 5710500.0 2920.300048828125
  vertex 342500.0 5709500.0 2852.60009765625
  vertex 341500.0 5709500.0 2853.699951171875
 endloop
endfacet
facet normal -0.03635827824473381 0.0312638022005558 -0.9988496899604797
 outer loop
  vertex 341500.0 5710500.0 2920.300048828125
  vertex 342500.0 5710500.0 2883.89990234375
  vertex 342500.0 5709500.0 2852.60009765625
 endloop
endfacet
facet normal -0.04702496901154518 0.031249875202775 -0.9984048008918762
 outer loop
  vertex 342500.0 5710500.0 2883.89990234375
  vertex 343500.0 5709500.0 2805.5
  vertex 342500.0 5709500.0 2852.60009765625
 endloop
endfacet
facet normal 0.00846778228878975 0.08657053112983704 -0.9962097406387329
 outer loop
  vertex 342500.0 5710500.0 2883.89990234375
  vertex 343500.0 5710500.0 2892.39990234375
  vertex 343500.0 5709500.0 2805.5
 endloop
endfacet
facet normal 0.04855947941541672 0.08647150546312332 -0.9950701594352722
 outer loop
  vertex 343500.0 5710500.0 2892.39990234375
  vertex 344500.0 5709500.0 2854.300048828125
  vertex 343500.0 5709500.0 2805.5
 endloop
endfacet
facet normal 0.033495258539915085 0.07147623598575592 -0.9968797564506531
 outer loop
  vertex 343500.0 5710500.0 2892.39990234375
  vertex 344500.0 5710500.0 2926.0
  vertex 344500.0 5709500.0 2854.300048828125
 endloop
endfacet
facet normal 0.10062689334154129 0.07115335762500763 -0.9923766255378723
 outer loop
  vertex 344500.0 5710500.0 2926.0
  vertex 345500.0 5709500.0 2955.699951171875
  vertex 344500.0 5709500.0 2854.300048828125
 endloop
endfacet
facet normal 0.03427952527999878 0.0045973435044288635 -0.9994017481803894
 outer loop
  vertex 344500.0 5710500.0 2926.0
  vertex 345500.0 5710500.0 2960.300048828125
  vertex 345500.0 5709500.0 2955.699951171875
 endloop
endfacet
facet normal 0.007198981009423733 0.01689729653298855 -0.9998313188552856
 outer loop
  vertex 338500.0 5711500.0 2836.89990234375
  vertex 339500.0 5711500.0 2844.10009765625
  vertex 339500.0 5710500.0 2827.199951171875
 endloop
endfacet
facet normal 0.0981103926897049 0.016816210001707077 -0.9950334429740906
 outer loop
  vertex 339500.0 5711500.0 2844.10009765625
  vertex 340500.0 5710500.0 2925.800048828125
  vertex 339500.0 5710500.0 2827.199951171875
 endloop
endfacet
facet normal 0.03414151817560196 -0.04741884395480156 -0.9982914328575134
 outer loop
  vertex 339500.0 5711500.0 2844.10009765625
  vertex 340500.0 5711500.0 2878.300048828125
  vertex 340500.0 5710500.0 2925.800048828125
 endloop
endfacet
facet normal -0.005493722856044769 -0.047445788979530334 -0.9988587498664856
 outer loop
  vertex 340500.0 5711500.0 2878.300048828125
  vertex 341500.0 5710500.0 2920.300048828125
  vertex 340500.0 5710500.0 2925.800048828125
 endloop
endfacet
facet normal -0.002098053926602006 -0.04405717924237251 -0.9990268349647522
 outer loop
  vertex 340500.0 5711500.0 2878.300048828125
  vertex 341500.0 5711500.0 2876.199951171875
  vertex 341500.0 5710500.0 2920.300048828125
 endloop
endfacet
facet normal -0.03634078428149223 -0.04402817413210869 -0.9983690977096558
 outer loop
  vertex 341500.0 5711500.0 2876.199951171875
  vertex 342500.0 5710500.0 2883.89990234375
  vertex 341500.0 5710500.0 2920.300048828125
 endloop
endfacet
facet normal 0.060800839215517044 0.053126025944948196 -0.9967350959777832
 outer loop
  vertex 341500.0 5711500.0 2876.199951171875
  vertex 342500.0 5711500.0 2937.199951171875
  vertex 342500.0 5710500.0 2883.89990234375
 endloop
endfacet
facet normal 0.008487646467983723 0.05322258174419403 -0.9985466003417969
 outer loop
  vertex 342500.0 5711500.0 2937.199951171875
  vertex 343500.0 5710500.0 2892.39990234375
  vertex 342500.0 5710500.0 2883.89990234375
 endloop
endfacet
facet normal 0.007199954241514206 -0.0038997717201709747 -0.9999665021896362
 outer loop
  vertex 338500.0 5712500.0 2833.0
  vertex 339500.0 5711500.0 2844.10009765625
  vertex 338500.0 5711500.0 2836.89990234375
 endloop
endfacet
facet normal -0.006598920561373234 -0.017697038128972054 -0.999821662902832
 outer loop
  vertex 338500.0 5712500.0 2833.0
  vertex 339500.0 5712500.0 2826.39990234375
  vertex 339500.0 5711500.0 2844.10009765625
 endloop
endfacet
facet normal 0.03417462483048439 -0.017687086015939713 -0.999259352684021
 outer loop
  vertex 339500.0 5712500.0 2826.39990234375
  vertex 340500.0 5711500.0 2878.300048828125
  vertex 339500.0 5711500.0 2844.10009765625
 endloop
endfacet
facet normal 0.027481434866786003 -0.024383675307035446 -0.9993249177932739
 outer loop
  vertex 339500.0 5712500.0 2826.39990234375
  vertex 340500.0 5712500.0 2853.89990234375
  vertex 340500.0 5711500.0 2878.300048828125
 endloop
endfacet
facet normal -0.0020994681399315596 -0.024392832070589066 -0.9997001886367798
 outer loop
  vertex 340500.0 5712500.0 2853.89990234375
  vertex 341500.0 5711500.0 2876.199951171875
  vertex 340500.0 5711500.0 2878.300048828125
 endloop
endfacet
facet normal 0.0692560225725174 0.047034259885549545 -0.9964895248413086
 outer loop
  vertex 340500.0 5712500.0 2853.89990234375
  vertex 341500.0 5712500.0 2923.39990234375
  vertex 341500.0 5711500.0 2876.199951171875
 endloop
endfacet
facet normal 0.060819365084171295 0.04706018418073654 -0.9970387816429138
 outer loop
  vertex 341500.0 5712500.0 2923.39990234375
  vertex 342500.0 5711500.0 2937.199951171875
  vertex 341500.0 5711500.0 2876.199951171875
 endloop
endfacet
facet normal 0.027486136183142662 -0.01589188724756241 -0.9994958639144897
 outer loop
  vertex 339500.0 5713500.0 2810.5
  vertex 340500.0 5712500.0 2853.89990234375
  vertex 339500.0 5712500.0 2826.39990234375
 endloop
endfacet
endsolid
