solid
facet normal -0.048167634755373 0.12408588826656342 -0.9911016821861267
 outer loop
  vertex 441500.0 5461500.0 4031.800048828125
  vertex 442500.0 5460500.0 3858.0
  vertex 441500.0 5460500.0 3906.60009765625
 endloop
endfacet
facet normal -0.0696566253900528 0.10279826074838638 -0.9922603368759155
 outer loop
  vertex 441500.0 5461500.0 4031.800048828125
  vertex 442500.0 5461500.0 3961.60009765625
  vertex 442500.0 5460500.0 3858.0
 endloop
endfacet
facet normal -0.05719964578747749 0.1028798446059227 -0.9930477738380432
 outer loop
  vertex 442500.0 5461500.0 3961.60009765625
  vertex 443500.0 5460500.0 3800.39990234375
  vertex 442500.0 5460500.0 3858.0
 endloop
endfacet
facet normal -0.032118115574121475 0.12767888605594635 -0.9912953972816467
 outer loop
  vertex 442500.0 5461500.0 3961.60009765625
  vertex 443500.0 5461500.0 3929.199951171875
  vertex 443500.0 5460500.0 3800.39990234375
 endloop
endfacet
facet normal -0.11512378603219986 -0.009933014400303364 -0.993301510810852
 outer loop
  vertex 444500.0 5461500.0 3879.10009765625
  vertex 445500.0 5461500.0 3763.199951171875
  vertex 445500.0 5460500.0 3773.199951171875
 endloop
endfacet
facet normal -0.009699009358882904 -0.009999029338359833 -0.9999029636383057
 outer loop
  vertex 445500.0 5461500.0 3763.199951171875
  vertex 446500.0 5460500.0 3763.5
  vertex 445500.0 5460500.0 3773.199951171875
 endloop
endfacet
facet normal -0.01779431663453579 -0.018094267696142197 -0.9996778964996338
 outer loop
  vertex 445500.0 5461500.0 3763.199951171875
  vertex 446500.0 5461500.0 3745.39990234375
  vertex 446500.0 5460500.0 3763.5
 endloop
endfacet
facet normal -0.0404830276966095 -0.09489110857248306 -0.994664192199707
 outer loop
  vertex 440500.0 5462500.0 3977.10009765625
  vertex 441500.0 5462500.0 3936.39990234375
  vertex 441500.0 5461500.0 4031.800048828125
 endloop
endfacet
facet normal -0.06971264630556107 -0.09473790973424911 -0.9930583238601685
 outer loop
  vertex 441500.0 5462500.0 3936.39990234375
  vertex 442500.0 5461500.0 3961.60009765625
  vertex 441500.0 5461500.0 4031.800048828125
 endloop
endfacet
facet normal -0.048807427287101746 -0.07390858232975006 -0.9960699677467346
 outer loop
  vertex 441500.0 5462500.0 3936.39990234375
  vertex 442500.0 5462500.0 3887.39990234375
  vertex 442500.0 5461500.0 3961.60009765625
 endloop
endfacet
facet normal -0.032294467091560364 -0.07395817339420319 -0.9967383146286011
 outer loop
  vertex 442500.0 5462500.0 3887.39990234375
  vertex 443500.0 5461500.0 3929.199951171875
  vertex 442500.0 5461500.0 3961.60009765625
 endloop
endfacet
facet normal -0.06655756384134293 -0.10801979154348373 -0.9919182062149048
 outer loop
  vertex 442500.0 5462500.0 3887.39990234375
  vertex 443500.0 5462500.0 3820.300048828125
  vertex 443500.0 5461500.0 3929.199951171875
 endloop
endfacet
facet normal -0.04974374547600746 -0.10812584310770035 -0.9928919672966003
 outer loop
  vertex 443500.0 5462500.0 3820.300048828125
  vertex 444500.0 5461500.0 3879.10009765625
  vertex 443500.0 5461500.0 3929.199951171875
 endloop
endfacet
facet normal -0.03353782370686531 -0.09205498546361923 -0.9951890110969543
 outer loop
  vertex 443500.0 5462500.0 3820.300048828125
  vertex 444500.0 5462500.0 3786.60009765625
  vertex 444500.0 5461500.0 3879.10009765625
 endloop
endfacet
facet normal -0.11464651674032211 -0.09149947762489319 -0.9891835451126099
 outer loop
  vertex 444500.0 5462500.0 3786.60009765625
  vertex 445500.0 5461500.0 3763.199951171875
  vertex 444500.0 5461500.0 3879.10009765625
 endloop
endfacet
facet normal -0.01249828189611435 0.010898647829890251 -0.9998624920845032
 outer loop
  vertex 444500.0 5462500.0 3786.60009765625
  vertex 445500.0 5462500.0 3774.10009765625
  vertex 445500.0 5461500.0 3763.199951171875
 endloop
endfacet
facet normal -0.017796171829104424 0.010897772386670113 -0.9997822642326355
 outer loop
  vertex 445500.0 5462500.0 3774.10009765625
  vertex 446500.0 5461500.0 3745.39990234375
  vertex 445500.0 5461500.0 3763.199951171875
 endloop
endfacet
facet normal -0.0145970918238163 0.01409719418734312 -0.9997941255569458
 outer loop
  vertex 445500.0 5462500.0 3774.10009765625
  vertex 446500.0 5462500.0 3759.5
  vertex 446500.0 5461500.0 3745.39990234375
 endloop
endfacet
facet normal 0.008798833936452866 0.01409815065562725 -0.9998618960380554
 outer loop
  vertex 446500.0 5462500.0 3759.5
  vertex 447500.0 5461500.0 3754.199951171875
  vertex 446500.0 5461500.0 3745.39990234375
 endloop
endfacet
facet normal -0.37776270508766174 0.7211462259292603 -0.580726683139801
 outer loop
  vertex 433500.0 5463500.0 7333.5
  vertex 434500.0 5463500.0 6683.0
  vertex 434500.0 5462500.0 5441.2001953125
 endloop
endfacet
facet normal -0.3250425159931183 0.7365651726722717 -0.5931432843208313
 outer loop
  vertex 434500.0 5463500.0 6683.0
  vertex 435500.0 5462500.0 4893.2001953125
  vertex 434500.0 5462500.0 5441.2001953125
 endloop
endfacet
facet normal -0.2743731737136841 0.766035795211792 -0.5812990665435791
 outer loop
  vertex 434500.0 5463500.0 6683.0
  vertex 435500.0 5463500.0 6211.0
  vertex 435500.0 5462500.0 4893.2001953125
 endloop
endfacet
facet normal -0.2435474991798401 0.7726202607154846 -0.5862956643104553
 outer loop
  vertex 435500.0 5463500.0 6211.0
  vertex 436500.0 5462500.0 4477.7998046875
  vertex 435500.0 5462500.0 4893.2001953125
 endloop
endfacet
facet normal -0.8584172129631042 0.029190892353653908 -0.5121209025382996
 outer loop
  vertex 435500.0 5463500.0 6211.0
  vertex 436500.0 5463500.0 4534.7998046875
  vertex 436500.0 5462500.0 4477.7998046875
 endloop
endfacet
facet normal -0.2822585999965668 0.05459367111325264 -0.9577836990356445
 outer loop
  vertex 436500.0 5463500.0 4534.7998046875
  vertex 437500.0 5462500.0 4183.10009765625
  vertex 436500.0 5462500.0 4477.7998046875
 endloop
endfacet
facet normal -0.34605586528778076 -0.016135068610310555 -0.9380751848220825
 outer loop
  vertex 436500.0 5463500.0 4534.7998046875
  vertex 437500.0 5463500.0 4165.89990234375
  vertex 437500.0 5462500.0 4183.10009765625
 endloop
endfacet
facet normal -0.13532355427742004 -0.017039457336068153 -0.9906548857688904
 outer loop
  vertex 437500.0 5463500.0 4165.89990234375
  vertex 438500.0 5462500.0 4046.5
  vertex 437500.0 5462500.0 4183.10009765625
 endloop
endfacet
facet normal -0.12373985350131989 -0.005259240511804819 -0.9923007488250732
 outer loop
  vertex 437500.0 5463500.0 4165.89990234375
  vertex 438500.0 5463500.0 4041.199951171875
  vertex 438500.0 5462500.0 4046.5
 endloop
endfacet
facet normal -0.06317272782325745 -0.005289388354867697 -0.9979886412620544
 outer loop
  vertex 438500.0 5463500.0 4041.199951171875
  vertex 439500.0 5462500.0 3983.199951171875
  vertex 438500.0 5462500.0 4046.5
 endloop
endfacet
facet normal -0.06535811722278595 -0.007483753841370344 -0.9978338479995728
 outer loop
  vertex 438500.0 5463500.0 4041.199951171875
  vertex 439500.0 5463500.0 3975.699951171875
  vertex 439500.0 5462500.0 3983.199951171875
 endloop
endfacet
facet normal -0.006099568214267492 -0.007499649189412594 -0.9999532699584961
 outer loop
  vertex 439500.0 5463500.0 3975.699951171875
  vertex 440500.0 5462500.0 3977.10009765625
  vertex 439500.0 5462500.0 3983.199951171875
 endloop
endfacet
facet normal -0.050169698894023895 -0.051566220819950104 -0.9974086284637451
 outer loop
  vertex 439500.0 5463500.0 3975.699951171875
  vertex 440500.0 5463500.0 3925.39990234375
  vertex 440500.0 5462500.0 3977.10009765625
 endloop
endfacet
facet normal -0.04061237722635269 -0.05158863961696625 -0.9978423118591309
 outer loop
  vertex 440500.0 5463500.0 3925.39990234375
  vertex 441500.0 5462500.0 3936.39990234375
  vertex 440500.0 5462500.0 3977.10009765625
 endloop
endfacet
facet normal -0.029662324115633965 -0.04064838960766792 -0.9987331032752991
 outer loop
  vertex 440500.0 5463500.0 3925.39990234375
  vertex 441500.0 5463500.0 3895.699951171875
  vertex 441500.0 5462500.0 3936.39990234375
 endloop
endfacet
facet normal -0.048900894820690155 -0.04061763361096382 -0.9979774355888367
 outer loop
  vertex 441500.0 5463500.0 3895.699951171875
  vertex 442500.0 5462500.0 3887.39990234375
  vertex 441500.0 5462500.0 3936.39990234375
 endloop
endfacet
facet normal -0.06792071461677551 -0.05965465307235718 -0.9959056377410889
 outer loop
  vertex 441500.0 5463500.0 3895.699951171875
  vertex 442500.0 5463500.0 3827.5
  vertex 442500.0 5462500.0 3887.39990234375
 endloop
endfacet
facet normal -0.06683005392551422 -0.05965905636548996 -0.9959791898727417
 outer loop
  vertex 442500.0 5463500.0 3827.5
  vertex 443500.0 5462500.0 3820.300048828125
  vertex 442500.0 5462500.0 3887.39990234375
 endloop
endfacet
facet normal -0.006499860901385546 0.0006999362376518548 -0.9999786019325256
 outer loop
  vertex 442500.0 5463500.0 3827.5
  vertex 443500.0 5463500.0 3821.0
  vertex 443500.0 5462500.0 3820.300048828125
 endloop
endfacet
facet normal -0.03368082270026207 0.0006995538715273142 -0.999432384967804
 outer loop
  vertex 443500.0 5463500.0 3821.0
  vertex 444500.0 5462500.0 3786.60009765625
  vertex 443500.0 5462500.0 3820.300048828125
 endloop
endfacet
facet normal -0.007497076876461506 0.026889419183135033 -0.9996103048324585
 outer loop
  vertex 443500.0 5463500.0 3821.0
  vertex 444500.0 5463500.0 3813.5
  vertex 444500.0 5462500.0 3786.60009765625
 endloop
endfacet
facet normal -0.012494503520429134 0.026888074353337288 -0.9995602965354919
 outer loop
  vertex 444500.0 5463500.0 3813.5
  vertex 445500.0 5462500.0 3774.10009765625
  vertex 444500.0 5462500.0 3786.60009765625
 endloop
endfacet
facet normal 0.7518447637557983 -0.13896051049232483 -0.6445304155349731
 outer loop
  vertex 428500.0 5464500.0 5465.7001953125
  vertex 429500.0 5463500.0 6847.7998046875
  vertex 428500.0 5463500.0 5681.2998046875
 endloop
endfacet
facet normal 0.8615170121192932 0.3385221064090729 -0.3784060776233673
 outer loop
  vertex 428500.0 5464500.0 5465.7001953125
  vertex 429500.0 5464500.0 7742.39990234375
  vertex 429500.0 5463500.0 6847.7998046875
 endloop
endfacet
facet normal 0.6766952872276306 0.4908948838710785 -0.5487310290336609
 outer loop
  vertex 429500.0 5464500.0 7742.39990234375
  vertex 430500.0 5463500.0 8081.0
  vertex 429500.0 5463500.0 6847.7998046875
 endloop
endfacet
facet normal 0.0312545970082283 -0.2923767864704132 -0.9557923078536987
 outer loop
  vertex 429500.0 5464500.0 7742.39990234375
  vertex 430500.0 5464500.0 7775.10009765625
  vertex 430500.0 5463500.0 8081.0
 endloop
endfacet
facet normal -0.7355521321296692 -0.19817276298999786 -0.6478353142738342
 outer loop
  vertex 430500.0 5464500.0 7775.10009765625
  vertex 431500.0 5463500.0 6945.60009765625
  vertex 430500.0 5463500.0 8081.0
 endloop
endfacet
facet normal -0.7830340266227722 -0.365707665681839 -0.5031059384346008
 outer loop
  vertex 430500.0 5464500.0 7775.10009765625
  vertex 431500.0 5464500.0 6218.7001953125
  vertex 431500.0 5463500.0 6945.60009765625
 endloop
endfacet
facet normal 0.28750190138816833 -0.56315016746521 -0.7747286558151245
 outer loop
  vertex 431500.0 5464500.0 6218.7001953125
  vertex 432500.0 5463500.0 7316.7001953125
  vertex 431500.0 5463500.0 6945.60009765625
 endloop
endfacet
facet normal 0.7922613024711609 0.1402088701725006 -0.5938546657562256
 outer loop
  vertex 431500.0 5464500.0 6218.7001953125
  vertex 432500.0 5464500.0 7552.7998046875
  vertex 432500.0 5463500.0 7316.7001953125
 endloop
endfacet
facet normal 0.016348084434866905 0.2297513633966446 -0.9731119871139526
 outer loop
  vertex 432500.0 5464500.0 7552.7998046875
  vertex 433500.0 5463500.0 7333.5
  vertex 432500.0 5463500.0 7316.7001953125
 endloop
endfacet
facet normal 0.3806913197040558 0.5445811152458191 -0.7473322153091431
 outer loop
  vertex 432500.0 5464500.0 7552.7998046875
  vertex 433500.0 5464500.0 8062.2001953125
  vertex 433500.0 5463500.0 7333.5
 endloop
endfacet
facet normal -0.4653373658657074 0.5212780833244324 -0.7153533101081848
 outer loop
  vertex 433500.0 5464500.0 8062.2001953125
  vertex 434500.0 5463500.0 6683.0
  vertex 433500.0 5463500.0 7333.5
 endloop
endfacet
facet normal -0.025572851300239563 0.8004205822944641 -0.5988931059837341
 outer loop
  vertex 433500.0 5464500.0 8062.2001953125
  vertex 434500.0 5464500.0 8019.5
  vertex 434500.0 5463500.0 6683.0
 endloop
endfacet
facet normal -0.2721007466316223 0.7704716920852661 -0.5764846205711365
 outer loop
  vertex 434500.0 5464500.0 8019.5
  vertex 435500.0 5463500.0 6211.0
  vertex 434500.0 5463500.0 6683.0
 endloop
endfacet
facet normal -0.9001012444496155 -0.20161031186580658 -0.3862266540527344
 outer loop
  vertex 434500.0 5464500.0 8019.5
  vertex 435500.0 5464500.0 5689.0
  vertex 435500.0 5463500.0 6211.0
 endloop
endfacet
facet normal -0.8296261429786682 -0.2583610415458679 -0.4949445128440857
 outer loop
  vertex 435500.0 5464500.0 5689.0
  vertex 436500.0 5463500.0 4534.7998046875
  vertex 435500.0 5463500.0 6211.0
 endloop
endfacet
facet normal -0.7550559639930725 0.0017047930741682649 -0.6556581258773804
 outer loop
  vertex 435500.0 5464500.0 5689.0
  vertex 436500.0 5464500.0 4537.39990234375
  vertex 436500.0 5463500.0 4534.7998046875
 endloop
endfacet
facet normal -0.346099853515625 0.0024393971543759108 -0.9381944537162781
 outer loop
  vertex 436500.0 5464500.0 4537.39990234375
  vertex 437500.0 5463500.0 4165.89990234375
  vertex 436500.0 5463500.0 4534.7998046875
 endloop
endfacet
facet normal -0.4007589817047119 -0.06115589290857315 -0.9141401648521423
 outer loop
  vertex 436500.0 5464500.0 4537.39990234375
  vertex 437500.0 5464500.0 4099.0
  vertex 437500.0 5463500.0 4165.89990234375
 endloop
endfacet
facet normal -0.12346979975700378 -0.06623994559049606 -0.9901350736618042
 outer loop
  vertex 437500.0 5464500.0 4099.0
  vertex 438500.0 5463500.0 4041.199951171875
  vertex 437500.0 5463500.0 4165.89990234375
 endloop
endfacet
facet normal -0.13598741590976715 -0.07890621572732925 -0.9875633120536804
 outer loop
  vertex 437500.0 5464500.0 4099.0
  vertex 438500.0 5464500.0 3961.300048828125
  vertex 438500.0 5463500.0 4041.199951171875
 endloop
endfacet
facet normal -0.06515319645404816 -0.07947685569524765 -0.9947052597999573
 outer loop
  vertex 438500.0 5464500.0 3961.300048828125
  vertex 439500.0 5463500.0 3975.699951171875
  vertex 438500.0 5463500.0 4041.199951171875
 endloop
endfacet
facet normal -0.04646340385079384 -0.06082106754183769 -0.9970666766166687
 outer loop
  vertex 438500.0 5464500.0 3961.300048828125
  vertex 439500.0 5464500.0 3914.699951171875
  vertex 439500.0 5463500.0 3975.699951171875
 endloop
endfacet
facet normal -0.050143565982580185 -0.06081023067235947 -0.9968889951705933
 outer loop
  vertex 439500.0 5464500.0 3914.699951171875
  vertex 440500.0 5463500.0 3925.39990234375
  vertex 439500.0 5463500.0 3975.699951171875
 endloop
endfacet
facet normal -0.029164325445890427 -0.039851222187280655 -0.9987799525260925
 outer loop
  vertex 439500.0 5464500.0 3914.699951171875
  vertex 440500.0 5464500.0 3885.5
  vertex 440500.0 5463500.0 3925.39990234375
 endloop
endfacet
facet normal -0.02966327778995037 -0.0398506335914135 -0.998765230178833
 outer loop
  vertex 440500.0 5464500.0 3885.5
  vertex 441500.0 5463500.0 3895.699951171875
  vertex 440500.0 5463500.0 3925.39990234375
 endloop
endfacet
facet normal -0.019886959344148636 -0.03008027747273445 -0.9993495941162109
 outer loop
  vertex 440500.0 5464500.0 3885.5
  vertex 441500.0 5464500.0 3865.60009765625
  vertex 441500.0 5463500.0 3895.699951171875
 endloop
endfacet
facet normal -0.06801123917102814 -0.030016565695405006 -0.9972329139709473
 outer loop
  vertex 441500.0 5464500.0 3865.60009765625
  vertex 442500.0 5463500.0 3827.5
  vertex 441500.0 5463500.0 3895.699951171875
 endloop
endfacet
facet normal -0.02818761020898819 0.00989548396319151 -0.9995536804199219
 outer loop
  vertex 441500.0 5464500.0 3865.60009765625
  vertex 442500.0 5464500.0 3837.39990234375
  vertex 442500.0 5463500.0 3827.5
 endloop
endfacet
facet normal -0.0064995442517101765 0.009899208322167397 -0.9999299049377441
 outer loop
  vertex 442500.0 5464500.0 3837.39990234375
  vertex 443500.0 5463500.0 3821.0
  vertex 442500.0 5463500.0 3827.5
 endloop
endfacet
facet normal 0.6501030325889587 0.5390300154685974 -0.5355489253997803
 outer loop
  vertex 427500.0 5465500.0 5258.2998046875
  vertex 428500.0 5465500.0 6472.2001953125
  vertex 428500.0 5464500.0 5465.7001953125
 endloop
endfacet
facet normal 0.8486878275871277 0.37519410252571106 -0.37277108430862427
 outer loop
  vertex 428500.0 5465500.0 6472.2001953125
  vertex 429500.0 5464500.0 7742.39990234375
  vertex 428500.0 5464500.0 5465.7001953125
 endloop
endfacet
facet normal -0.40354815125465393 -0.8460434079170227 -0.34836670756340027
 outer loop
  vertex 428500.0 5465500.0 6472.2001953125
  vertex 429500.0 5465500.0 5313.7998046875
  vertex 429500.0 5464500.0 7742.39990234375
 endloop
endfacet
facet normal 0.012449522502720356 -0.9246079325675964 -0.3807164430618286
 outer loop
  vertex 429500.0 5465500.0 5313.7998046875
  vertex 430500.0 5464500.0 7775.10009765625
  vertex 429500.0 5464500.0 7742.39990234375
 endloop
endfacet
facet normal 0.9343838691711426 0.07975761592388153 -0.34722551703453064
 outer loop
  vertex 429500.0 5465500.0 5313.7998046875
  vertex 430500.0 5465500.0 8004.7998046875
  vertex 430500.0 5464500.0 7775.10009765625
 endloop
endfacet
facet normal -0.8349007368087769 0.12321798503398895 -0.5364307761192322
 outer loop
  vertex 430500.0 5465500.0 8004.7998046875
  vertex 431500.0 5464500.0 6218.7001953125
  vertex 430500.0 5464500.0 7775.10009765625
 endloop
endfacet
facet normal -0.4312536418437958 0.6625582575798035 -0.6124024987220764
 outer loop
  vertex 430500.0 5465500.0 8004.7998046875
  vertex 431500.0 5465500.0 7300.60009765625
  vertex 431500.0 5464500.0 6218.7001953125
 endloop
endfacet
facet normal 0.6712303757667542 0.5443402528762817 -0.5031336545944214
 outer loop
  vertex 431500.0 5465500.0 7300.60009765625
  vertex 432500.0 5464500.0 7552.7998046875
  vertex 431500.0 5464500.0 6218.7001953125
 endloop
endfacet
facet normal -0.61456298828125 -0.7042214870452881 -0.3555058240890503
 outer loop
  vertex 431500.0 5465500.0 7300.60009765625
  vertex 432500.0 5465500.0 5571.89990234375
  vertex 432500.0 5464500.0 7552.7998046875
 endloop
endfacet
facet normal 0.22374311089515686 -0.8700674772262573 -0.4392284154891968
 outer loop
  vertex 432500.0 5465500.0 5571.89990234375
  vertex 433500.0 5464500.0 8062.2001953125
  vertex 432500.0 5464500.0 7552.7998046875
 endloop
endfacet
facet normal 0.3293916881084442 -0.8230161070823669 -0.4627585709095001
 outer loop
  vertex 432500.0 5465500.0 5571.89990234375
  vertex 433500.0 5465500.0 6283.7001953125
  vertex 433500.0 5464500.0 8062.2001953125
 endloop
endfacet
facet normal -0.02092323824763298 -0.8714697957038879 -0.49000269174575806
 outer loop
  vertex 433500.0 5465500.0 6283.7001953125
  vertex 434500.0 5464500.0 8019.5
  vertex 433500.0 5464500.0 8062.2001953125
 endloop
endfacet
facet normal -0.1933591514825821 -0.894199550151825 -0.4037564992904663
 outer loop
  vertex 433500.0 5465500.0 6283.7001953125
  vertex 434500.0 5465500.0 5804.7998046875
  vertex 434500.0 5464500.0 8019.5
 endloop
endfacet
facet normal -0.6921762824058533 -0.6577829122543335 -0.29700765013694763
 outer loop
  vertex 434500.0 5465500.0 5804.7998046875
  vertex 435500.0 5464500.0 5689.0
  vertex 434500.0 5464500.0 8019.5
 endloop
endfacet
facet normal 0.42756187915802 0.513698935508728 -0.743844211101532
 outer loop
  vertex 434500.0 5465500.0 5804.7998046875
  vertex 435500.0 5465500.0 6379.60009765625
  vertex 435500.0 5464500.0 5689.0
 endloop
endfacet
facet normal -0.6878306269645691 0.4124833941459656 -0.5972825288772583
 outer loop
  vertex 435500.0 5465500.0 6379.60009765625
  vertex 436500.0 5464500.0 4537.39990234375
  vertex 435500.0 5464500.0 5689.0
 endloop
endfacet
facet normal -0.8669645190238953 0.04703477397561073 -0.49614545702934265
 outer loop
  vertex 435500.0 5465500.0 6379.60009765625
  vertex 436500.0 5465500.0 4632.2001953125
  vertex 436500.0 5464500.0 4537.39990234375
 endloop
endfacet
facet normal -0.40000563859939575 0.08649786561727524 -0.9124218821525574
 outer loop
  vertex 436500.0 5465500.0 4632.2001953125
  vertex 437500.0 5464500.0 4099.0
  vertex 436500.0 5464500.0 4537.39990234375
 endloop
endfacet
facet normal -0.4489033818244934 0.027330845594406128 -0.893162190914154
 outer loop
  vertex 436500.0 5465500.0 4632.2001953125
  vertex 437500.0 5465500.0 4129.60009765625
  vertex 437500.0 5464500.0 4099.0
 endloop
endfacet
facet normal -0.1363501101732254 0.030300132930278778 -0.9901972413063049
 outer loop
  vertex 437500.0 5465500.0 4129.60009765625
  vertex 438500.0 5464500.0 3961.300048828125
  vertex 437500.0 5464500.0 4099.0
 endloop
endfacet
facet normal -0.16270194947719574 0.003354584099724889 -0.9866696000099182
 outer loop
  vertex 437500.0 5465500.0 4129.60009765625
  vertex 438500.0 5465500.0 3964.699951171875
  vertex 438500.0 5464500.0 3961.300048828125
 endloop
endfacet
facet normal -0.04654931277036667 0.0033961969893425703 -0.9989101886749268
 outer loop
  vertex 438500.0 5465500.0 3964.699951171875
  vertex 439500.0 5464500.0 3914.699951171875
  vertex 438500.0 5464500.0 3961.300048828125
 endloop
endfacet
facet normal -0.051132939755916595 -0.0011983825825154781 -0.9986911416053772
 outer loop
  vertex 438500.0 5465500.0 3964.699951171875
  vertex 439500.0 5465500.0 3913.5
  vertex 439500.0 5464500.0 3914.699951171875
 endloop
endfacet
facet normal -0.029187489300966263 -0.0011994390515610576 -0.9995732307434082
 outer loop
  vertex 439500.0 5465500.0 3913.5
  vertex 440500.0 5464500.0 3885.5
  vertex 439500.0 5464500.0 3914.699951171875
 endloop
endfacet
facet normal -0.02399289980530739 0.003998816478997469 -0.999704122543335
 outer loop
  vertex 439500.0 5465500.0 3913.5
  vertex 440500.0 5465500.0 3889.5
  vertex 440500.0 5464500.0 3885.5
 endloop
endfacet
facet normal -0.019895803183317184 0.0039991759695112705 -0.999794065952301
 outer loop
  vertex 440500.0 5465500.0 3889.5
  vertex 441500.0 5464500.0 3865.60009765625
  vertex 440500.0 5464500.0 3885.5
 endloop
endfacet
facet normal -0.028188485652208328 -0.0042983004823327065 -0.9995934367179871
 outer loop
  vertex 440500.0 5465500.0 3889.5
  vertex 441500.0 5465500.0 3861.300048828125
  vertex 441500.0 5464500.0 3865.60009765625
 endloop
endfacet
facet normal -0.02818872779607773 -0.004298300016671419 -0.9995933771133423
 outer loop
  vertex 441500.0 5465500.0 3861.300048828125
  vertex 442500.0 5464500.0 3837.39990234375
  vertex 441500.0 5464500.0 3865.60009765625
 endloop
endfacet
facet normal -0.019396299496293068 0.004499107599258423 -0.999801754951477
 outer loop
  vertex 441500.0 5465500.0 3861.300048828125
  vertex 442500.0 5465500.0 3841.89990234375
  vertex 442500.0 5464500.0 3837.39990234375
 endloop
endfacet
facet normal -0.5703257322311401 -0.657518744468689 -0.49233901500701904
 outer loop
  vertex 428500.0 5466500.0 5136.7001953125
  vertex 429500.0 5465500.0 5313.7998046875
  vertex 428500.0 5465500.0 6472.2001953125
 endloop
endfacet
facet normal 0.07957269251346588 -0.09614232927560806 -0.9921818375587463
 outer loop
  vertex 428500.0 5466500.0 5136.7001953125
  vertex 429500.0 5466500.0 5216.89990234375
  vertex 429500.0 5465500.0 5313.7998046875
 endloop
endfacet
facet normal 0.9368364810943604 -0.033734437078237534 -0.34813693165779114
 outer loop
  vertex 429500.0 5466500.0 5216.89990234375
  vertex 430500.0 5465500.0 8004.7998046875
  vertex 429500.0 5465500.0 5313.7998046875
 endloop
endfacet
facet normal 0.9146847128868103 -0.1411488652229309 -0.3787200152873993
 outer loop
  vertex 429500.0 5466500.0 5216.89990234375
  vertex 430500.0 5466500.0 7632.10009765625
  vertex 430500.0 5465500.0 8004.7998046875
 endloop
endfacet
facet normal -0.5507611036300659 -0.29149186611175537 -0.7821092009544373
 outer loop
  vertex 430500.0 5466500.0 7632.10009765625
  vertex 431500.0 5465500.0 7300.60009765625
  vertex 430500.0 5465500.0 8004.7998046875
 endloop
endfacet
facet normal -0.7119995951652527 -0.5815470218658447 -0.39352208375930786
 outer loop
  vertex 430500.0 5466500.0 7632.10009765625
  vertex 431500.0 5466500.0 5822.7998046875
  vertex 431500.0 5465500.0 7300.60009765625
 endloop
endfacet
facet normal -0.6958189010620117 -0.5948292016983032 -0.4025098979473114
 outer loop
  vertex 431500.0 5466500.0 5822.7998046875
  vertex 432500.0 5465500.0 5571.89990234375
  vertex 431500.0 5465500.0 7300.60009765625
 endloop
endfacet
facet normal -0.22540216147899628 0.018994571641087532 -0.9740806221961975
 outer loop
  vertex 431500.0 5466500.0 5822.7998046875
  vertex 432500.0 5466500.0 5591.39990234375
  vertex 432500.0 5465500.0 5571.89990234375
 endloop
endfacet
facet normal 0.5798234939575195 0.01588445156812668 -0.8145872950553894
 outer loop
  vertex 432500.0 5466500.0 5591.39990234375
  vertex 433500.0 5465500.0 6283.7001953125
  vertex 432500.0 5465500.0 5571.89990234375
 endloop
endfacet
facet normal 0.07739777117967606 -0.5140200257301331 -0.8542792201042175
 outer loop
  vertex 432500.0 5466500.0 5591.39990234375
  vertex 433500.0 5466500.0 5682.0
  vertex 433500.0 5465500.0 6283.7001953125
 endloop
endfacet
facet normal -0.37962695956230164 -0.4769710600376129 -0.7927055358886719
 outer loop
  vertex 433500.0 5466500.0 5682.0
  vertex 434500.0 5465500.0 5804.7998046875
  vertex 433500.0 5465500.0 6283.7001953125
 endloop
endfacet
facet normal 0.42077112197875977 0.31636494398117065 -0.8502146005630493
 outer loop
  vertex 433500.0 5466500.0 5682.0
  vertex 434500.0 5466500.0 6176.89990234375
  vertex 434500.0 5465500.0 5804.7998046875
 endloop
endfacet
facet normal 0.474272221326828 0.30702272057533264 -0.8251078724861145
 outer loop
  vertex 434500.0 5466500.0 6176.89990234375
  vertex 435500.0 5465500.0 6379.60009765625
  vertex 434500.0 5465500.0 5804.7998046875
 endloop
endfacet
facet normal -0.641891360282898 -0.7036551237106323 -0.3047049343585968
 outer loop
  vertex 434500.0 5466500.0 6176.89990234375
  vertex 435500.0 5466500.0 4070.300048828125
  vertex 435500.0 5465500.0 6379.60009765625
 endloop
endfacet
facet normal -0.5703555941581726 -0.7537611722946167 -0.3264024555683136
 outer loop
  vertex 435500.0 5466500.0 4070.300048828125
  vertex 436500.0 5465500.0 4632.2001953125
  vertex 435500.0 5465500.0 6379.60009765625
 endloop
endfacet
facet normal -0.039193294942379 -0.5189895033836365 -0.8538816571235657
 outer loop
  vertex 435500.0 5466500.0 4070.300048828125
  vertex 436500.0 5466500.0 4024.39990234375
  vertex 436500.0 5465500.0 4632.2001953125
 endloop
endfacet
facet normal -0.394633024930954 -0.4772343933582306 -0.7851828932762146
 outer loop
  vertex 436500.0 5466500.0 4024.39990234375
  vertex 437500.0 5465500.0 4129.60009765625
  vertex 436500.0 5465500.0 4632.2001953125
 endloop
endfacet
facet normal -0.039063017815351486 -0.14309938251972198 -0.9889371395111084
 outer loop
  vertex 436500.0 5466500.0 4024.39990234375
  vertex 437500.0 5466500.0 3984.89990234375
  vertex 437500.0 5465500.0 4129.60009765625
 endloop
endfacet
facet normal -0.16106952726840973 -0.14133882522583008 -0.9767701625823975
 outer loop
  vertex 437500.0 5466500.0 3984.89990234375
  vertex 438500.0 5465500.0 3964.699951171875
  vertex 437500.0 5465500.0 4129.60009765625
 endloop
endfacet
facet normal -0.03327850252389908 -0.01309147384017706 -0.9993603229522705
 outer loop
  vertex 437500.0 5466500.0 3984.89990234375
  vertex 438500.0 5466500.0 3951.60009765625
  vertex 438500.0 5465500.0 3964.699951171875
 endloop
endfacet
facet normal -0.051128603518009186 -0.013081598095595837 -0.9986064434051514
 outer loop
  vertex 438500.0 5466500.0 3951.60009765625
  vertex 439500.0 5465500.0 3913.5
  vertex 438500.0 5465500.0 3964.699951171875
 endloop
endfacet
facet normal -0.025389909744262695 0.012694832868874073 -0.9995969533920288
 outer loop
  vertex 438500.0 5466500.0 3951.60009765625
  vertex 439500.0 5466500.0 3926.199951171875
  vertex 439500.0 5465500.0 3913.5
 endloop
endfacet
facet normal -0.023991160094738007 0.012695272453129292 -0.9996315836906433
 outer loop
  vertex 439500.0 5466500.0 3926.199951171875
  vertex 440500.0 5465500.0 3889.5
  vertex 439500.0 5465500.0 3913.5
 endloop
endfacet
facet normal -0.026489323005080223 0.010195843875408173 -0.9995970726013184
 outer loop
  vertex 439500.0 5466500.0 3926.199951171875
  vertex 440500.0 5466500.0 3899.699951171875
  vertex 440500.0 5465500.0 3889.5
 endloop
endfacet
facet normal -0.028187278658151627 0.010195367969572544 -0.9995506405830383
 outer loop
  vertex 440500.0 5466500.0 3899.699951171875
  vertex 441500.0 5465500.0 3861.300048828125
  vertex 440500.0 5465500.0 3889.5
 endloop
endfacet
facet normal -0.02259126678109169 0.015794044360518456 -0.9996200203895569
 outer loop
  vertex 440500.0 5466500.0 3899.699951171875
  vertex 441500.0 5466500.0 3877.10009765625
  vertex 441500.0 5465500.0 3861.300048828125
 endloop
endfacet
facet normal -0.019394077360630035 0.015795106068253517 -0.999687135219574
 outer loop
  vertex 441500.0 5466500.0 3877.10009765625
  vertex 442500.0 5465500.0 3841.89990234375
  vertex 441500.0 5465500.0 3861.300048828125
 endloop
endfacet
facet normal -0.025390736758708954 0.009796418249607086 -0.999629557132721
 outer loop
  vertex 441500.0 5466500.0 3877.10009765625
  vertex 442500.0 5466500.0 3851.699951171875
  vertex 442500.0 5465500.0 3841.89990234375
 endloop
endfacet
facet normal 0.0719902440905571 0.6028584241867065 -0.7945937514305115
 outer loop
  vertex 432500.0 5467500.0 6350.10009765625
  vertex 433500.0 5466500.0 5682.0
  vertex 432500.0 5466500.0 5591.39990234375
 endloop
endfacet
facet normal -0.6833406686782837 -0.6540815830230713 -0.32438087463378906
 outer loop
  vertex 434500.0 5467500.0 4160.5
  vertex 435500.0 5466500.0 4070.300048828125
  vertex 434500.0 5466500.0 6176.89990234375
 endloop
endfacet
facet normal 0.660978376865387 0.688002347946167 -0.29960036277770996
 outer loop
  vertex 434500.0 5467500.0 4160.5
  vertex 435500.0 5467500.0 6366.7001953125
  vertex 435500.0 5466500.0 4070.300048828125
 endloop
endfacet
facet normal -0.018322570249438286 0.9166874885559082 -0.39918455481529236
 outer loop
  vertex 435500.0 5467500.0 6366.7001953125
  vertex 436500.0 5466500.0 4024.39990234375
  vertex 435500.0 5466500.0 4070.300048828125
 endloop
endfacet
facet normal -0.6833935379981995 0.5190647840499878 -0.5133664011955261
 outer loop
  vertex 435500.0 5467500.0 6366.7001953125
  vertex 436500.0 5467500.0 5035.5
  vertex 436500.0 5466500.0 4024.39990234375
 endloop
endfacet
facet normal -0.0277654230594635 0.7107246518135071 -0.7029221057891846
 outer loop
  vertex 436500.0 5467500.0 5035.5
  vertex 437500.0 5466500.0 3984.89990234375
  vertex 436500.0 5466500.0 4024.39990234375
 endloop
endfacet
facet normal -0.6084862351417542 0.1986800730228424 -0.7682906985282898
 outer loop
  vertex 436500.0 5467500.0 5035.5
  vertex 437500.0 5467500.0 4243.5
  vertex 437500.0 5466500.0 3984.89990234375
 endloop
endfacet
facet normal -0.032222531735897064 0.25023412704467773 -0.9676490426063538
 outer loop
  vertex 437500.0 5467500.0 4243.5
  vertex 438500.0 5466500.0 3951.60009765625
  vertex 437500.0 5466500.0 3984.89990234375
 endloop
endfacet
facet normal -0.2051454335451126 0.0795997828245163 -0.9754892587661743
 outer loop
  vertex 437500.0 5467500.0 4243.5
  vertex 438500.0 5467500.0 4033.199951171875
  vertex 438500.0 5466500.0 3951.60009765625
 endloop
endfacet
facet normal -0.025307895615696907 0.08130348473787308 -0.9963680505752563
 outer loop
  vertex 438500.0 5467500.0 4033.199951171875
  vertex 439500.0 5466500.0 3926.199951171875
  vertex 438500.0 5466500.0 3951.60009765625
 endloop
endfacet
facet normal -0.030297191813588142 0.07634128630161285 -0.996621310710907
 outer loop
  vertex 438500.0 5467500.0 4033.199951171875
  vertex 439500.0 5467500.0 4002.800048828125
  vertex 439500.0 5466500.0 3926.199951171875
 endloop
endfacet
facet normal -0.02641337551176548 0.07634969800710678 -0.996731162071228
 outer loop
  vertex 439500.0 5467500.0 4002.800048828125
  vertex 440500.0 5466500.0 3899.699951171875
  vertex 439500.0 5466500.0 3926.199951171875
 endloop
endfacet
facet normal -0.06461724638938904 0.03819200396537781 -0.9971790313720703
 outer loop
  vertex 439500.0 5467500.0 4002.800048828125
  vertex 440500.0 5467500.0 3938.0
  vertex 440500.0 5466500.0 3899.699951171875
 endloop
endfacet
facet normal -0.022577540948987007 0.03826222941279411 -0.9990125894546509
 outer loop
  vertex 440500.0 5467500.0 3938.0
  vertex 441500.0 5466500.0 3877.10009765625
  vertex 440500.0 5466500.0 3899.699951171875
 endloop
endfacet
facet normal -0.040757909417152405 0.020079096779227257 -0.9989672303199768
 outer loop
  vertex 440500.0 5467500.0 3938.0
  vertex 441500.0 5467500.0 3897.199951171875
  vertex 441500.0 5466500.0 3877.10009765625
 endloop
endfacet
facet normal -0.025386832654476166 0.020089317113161087 -0.9994758367538452
 outer loop
  vertex 441500.0 5467500.0 3897.199951171875
  vertex 442500.0 5466500.0 3851.699951171875
  vertex 441500.0 5466500.0 3877.10009765625
 endloop
endfacet
facet normal -0.03627461940050125 0.009193508885800838 -0.9992995262145996
 outer loop
  vertex 441500.0 5467500.0 3897.199951171875
  vertex 442500.0 5467500.0 3860.89990234375
  vertex 442500.0 5466500.0 3851.699951171875
 endloop
endfacet
facet normal 0.8484220504760742 0.36371922492980957 -0.38456258177757263
 outer loop
  vertex 434500.0 5468500.0 5106.2998046875
  vertex 435500.0 5467500.0 6366.7001953125
  vertex 434500.0 5467500.0 4160.5
 endloop
endfacet
facet normal 0.8457415103912354 0.39853018522262573 -0.35481688380241394
 outer loop
  vertex 434500.0 5468500.0 5106.2998046875
  vertex 435500.0 5468500.0 7489.89990234375
  vertex 435500.0 5467500.0 6366.7001953125
 endloop
endfacet
facet normal -0.6628161668777466 0.5592508912086487 -0.49790868163108826
 outer loop
  vertex 435500.0 5468500.0 7489.89990234375
  vertex 436500.0 5467500.0 5035.5
  vertex 435500.0 5467500.0 6366.7001953125
 endloop
endfacet
facet normal -0.5531789064407349 0.6681241989135742 -0.49759742617607117
 outer loop
  vertex 435500.0 5468500.0 7489.89990234375
  vertex 436500.0 5468500.0 6378.2001953125
  vertex 436500.0 5467500.0 5035.5
 endloop
endfacet
facet normal -0.4276330769062042 0.7249786257743835 -0.5399407744407654
 outer loop
  vertex 436500.0 5468500.0 6378.2001953125
  vertex 437500.0 5467500.0 4243.5
  vertex 436500.0 5467500.0 5035.5
 endloop
endfacet
facet normal -0.8553654551506042 0.180868998169899 -0.48542386293411255
 outer loop
  vertex 436500.0 5468500.0 6378.2001953125
  vertex 437500.0 5468500.0 4616.10009765625
  vertex 437500.0 5467500.0 4243.5
 endloop
endfacet
facet normal -0.19334657490253448 0.342562735080719 -0.9193844795227051
 outer loop
  vertex 437500.0 5468500.0 4616.10009765625
  vertex 438500.0 5467500.0 4033.199951171875
  vertex 437500.0 5467500.0 4243.5
 endloop
endfacet
facet normal -0.31407248973846436 0.22374463081359863 -0.9226574301719666
 outer loop
  vertex 437500.0 5468500.0 4616.10009765625
  vertex 438500.0 5468500.0 4275.7001953125
  vertex 438500.0 5467500.0 4033.199951171875
 endloop
endfacet
facet normal -0.029530754312872887 0.23556701838970184 -0.9714093804359436
 outer loop
  vertex 438500.0 5468500.0 4275.7001953125
  vertex 439500.0 5467500.0 4002.800048828125
  vertex 438500.0 5467500.0 4033.199951171875
 endloop
endfacet
facet normal -0.16732177138328552 0.10033421963453293 -0.9807835817337036
 outer loop
  vertex 438500.0 5468500.0 4275.7001953125
  vertex 439500.0 5468500.0 4105.10009765625
  vertex 439500.0 5467500.0 4002.800048828125
 endloop
endfacet
facet normal -0.0643300861120224 0.10155811160802841 -0.9927474856376648
 outer loop
  vertex 439500.0 5468500.0 4105.10009765625
  vertex 440500.0 5467500.0 3938.0
  vertex 439500.0 5467500.0 4002.800048828125
 endloop
endfacet
facet normal -0.128926083445549 0.03666611760854721 -0.990976095199585
 outer loop
  vertex 439500.0 5468500.0 4105.10009765625
  vertex 440500.0 5468500.0 3975.0
  vertex 440500.0 5467500.0 3938.0
 endloop
endfacet
facet normal -0.0407382994890213 0.03694400563836098 -0.9984865784645081
 outer loop
  vertex 440500.0 5468500.0 3975.0
  vertex 441500.0 5467500.0 3897.199951171875
  vertex 440500.0 5467500.0 3938.0
 endloop
endfacet
facet normal -0.05659647285938263 0.02106158435344696 -0.9981749653816223
 outer loop
  vertex 440500.0 5468500.0 3975.0
  vertex 441500.0 5468500.0 3918.300048828125
  vertex 441500.0 5467500.0 3897.199951171875
 endloop
endfacet
facet normal -0.036268096417188644 0.021081523969769478 -0.9991196990013123
 outer loop
  vertex 441500.0 5468500.0 3918.300048828125
  vertex 442500.0 5467500.0 3860.89990234375
  vertex 441500.0 5467500.0 3897.199951171875
 endloop
endfacet
facet normal -0.030175037682056427 0.027177758514881134 -0.9991750717163086
 outer loop
  vertex 441500.0 5468500.0 3918.300048828125
  vertex 442500.0 5468500.0 3888.10009765625
  vertex 442500.0 5467500.0 3860.89990234375
 endloop
endfacet
facet normal 0.8950344324111938 0.24065610766410828 -0.37549692392349243
 outer loop
  vertex 434500.0 5469500.0 5747.2001953125
  vertex 435500.0 5468500.0 7489.89990234375
  vertex 434500.0 5468500.0 5106.2998046875
 endloop
endfacet
facet normal 0.8838121891021729 0.08073623478412628 -0.4608229100704193
 outer loop
  vertex 434500.0 5469500.0 5747.2001953125
  vertex 435500.0 5469500.0 7665.10009765625
  vertex 435500.0 5468500.0 7489.89990234375
 endloop
endfacet
facet normal -0.7384188771247864 0.11637236177921295 -0.6642251014709473
 outer loop
  vertex 435500.0 5469500.0 7665.10009765625
  vertex 436500.0 5468500.0 6378.2001953125
  vertex 435500.0 5468500.0 7489.89990234375
 endloop
endfacet
facet normal -0.8489253520965576 -0.24899017810821533 -0.4661863446235657
 outer loop
  vertex 435500.0 5469500.0 7665.10009765625
  vertex 436500.0 5469500.0 5844.10009765625
  vertex 436500.0 5468500.0 6378.2001953125
 endloop
endfacet
facet normal -0.8409796357154846 -0.25490453839302063 -0.4772598445415497
 outer loop
  vertex 436500.0 5469500.0 5844.10009765625
  vertex 437500.0 5468500.0 4616.10009765625
  vertex 436500.0 5468500.0 6378.2001953125
 endloop
endfacet
facet normal 0.05414632707834244 0.7954162359237671 -0.6036399602890015
 outer loop
  vertex 436500.0 5469500.0 5844.10009765625
  vertex 437500.0 5469500.0 5933.7998046875
  vertex 437500.0 5468500.0 4616.10009765625
 endloop
endfacet
facet normal -0.20155753195285797 0.7802361845970154 -0.5921198725700378
 outer loop
  vertex 437500.0 5469500.0 5933.7998046875
  vertex 438500.0 5468500.0 4275.7001953125
  vertex 437500.0 5468500.0 4616.10009765625
 endloop
endfacet
facet normal -0.8666428923606873 -0.042355358600616455 -0.49712786078453064
 outer loop
  vertex 437500.0 5469500.0 5933.7998046875
  vertex 438500.0 5469500.0 4190.5
  vertex 438500.0 5468500.0 4275.7001953125
 endloop
endfacet
facet normal -0.16758039593696594 -0.08369211852550507 -0.9822995662689209
 outer loop
  vertex 438500.0 5469500.0 4190.5
  vertex 439500.0 5468500.0 4105.10009765625
  vertex 438500.0 5468500.0 4275.7001953125
 endloop
endfacet
facet normal -0.1810469776391983 -0.09747187048196793 -0.9786322712898254
 outer loop
  vertex 438500.0 5469500.0 4190.5
  vertex 439500.0 5469500.0 4005.5
  vertex 439500.0 5468500.0 4105.10009765625
 endloop
endfacet
facet normal -0.12838813662528992 -0.09828948229551315 -0.9868412613868713
 outer loop
  vertex 439500.0 5469500.0 4005.5
  vertex 440500.0 5468500.0 3975.0
  vertex 439500.0 5468500.0 4105.10009765625
 endloop
endfacet
facet normal -0.04375423118472099 -0.013286134228110313 -0.9989539980888367
 outer loop
  vertex 439500.0 5469500.0 4005.5
  vertex 440500.0 5469500.0 3961.699951171875
  vertex 440500.0 5468500.0 3975.0
 endloop
endfacet
facet normal -0.056604042649269104 -0.013277551159262657 -0.9983084201812744
 outer loop
  vertex 440500.0 5469500.0 3961.699951171875
  vertex 441500.0 5468500.0 3918.300048828125
  vertex 440500.0 5468500.0 3975.0
 endloop
endfacet
facet normal -0.015192157588899136 0.028185492381453514 -0.9994872808456421
 outer loop
  vertex 440500.0 5469500.0 3961.699951171875
  vertex 441500.0 5469500.0 3946.5
  vertex 441500.0 5468500.0 3918.300048828125
 endloop
endfacet
facet normal -0.03017420507967472 0.02817591093480587 -0.9991474747657776
 outer loop
  vertex 441500.0 5469500.0 3946.5
  vertex 442500.0 5468500.0 3888.10009765625
  vertex 441500.0 5468500.0 3918.300048828125
 endloop
endfacet
facet normal 0.8856116533279419 0.049685318022966385 -0.46176114678382874
 outer loop
  vertex 434500.0 5470500.0 5854.7998046875
  vertex 435500.0 5469500.0 7665.10009765625
  vertex 434500.0 5469500.0 5747.2001953125
 endloop
endfacet
facet normal -0.8670141696929932 0.030636245384812355 -0.4973408281803131
 outer loop
  vertex 437500.0 5470500.0 5995.39990234375
  vertex 438500.0 5469500.0 4190.5
  vertex 437500.0 5469500.0 5933.7998046875
 endloop
endfacet
facet normal -0.8127215504646301 0.18468190729618073 -0.5526087284088135
 outer loop
  vertex 437500.0 5470500.0 5995.39990234375
  vertex 438500.0 5470500.0 4524.7001953125
  vertex 438500.0 5469500.0 4190.5
 endloop
endfacet
facet normal -0.17282061278820038 0.312198281288147 -0.9341654777526855
 outer loop
  vertex 438500.0 5470500.0 4524.7001953125
  vertex 439500.0 5469500.0 4005.5
  vertex 438500.0 5469500.0 4190.5
 endloop
endfacet
facet normal -0.4317144453525543 0.03623149171471596 -0.9012823104858398
 outer loop
  vertex 438500.0 5470500.0 4524.7001953125
  vertex 439500.0 5470500.0 4045.699951171875
  vertex 439500.0 5469500.0 4005.5
 endloop
endfacet
facet normal -0.04372284561395645 0.040129099041223526 -0.9982374310493469
 outer loop
  vertex 439500.0 5470500.0 4045.699951171875
  vertex 440500.0 5469500.0 3961.699951171875
  vertex 439500.0 5469500.0 4005.5
 endloop
endfacet
endsolid
