solid
facet normal 0.04933880642056465 -0.006891330704092979 -0.9987583160400391
 outer loop
  vertex 351500.0 5666500.0 3024.699951171875
  vertex 352500.0 5666500.0 3074.10009765625
  vertex 352500.0 5665500.0 3081.0
 endloop
endfacet
facet normal -0.0008999264100566506 -0.022094694897532463 -0.9997555017471313
 outer loop
  vertex 349500.0 5667500.0 3004.699951171875
  vertex 350500.0 5666500.0 3025.89990234375
  vertex 349500.0 5666500.0 3026.800048828125
 endloop
endfacet
facet normal 0.00939907692372799 -0.011798461899161339 -0.9998862147331238
 outer loop
  vertex 349500.0 5667500.0 3004.699951171875
  vertex 350500.0 5667500.0 3014.10009765625
  vertex 350500.0 5666500.0 3025.89990234375
 endloop
endfacet
facet normal -0.0011998667614534497 -0.011798974126577377 -0.9999296069145203
 outer loop
  vertex 350500.0 5667500.0 3014.10009765625
  vertex 351500.0 5666500.0 3024.699951171875
  vertex 350500.0 5666500.0 3025.89990234375
 endloop
endfacet
facet normal 0.05486311390995979 0.04428964480757713 -0.9975111484527588
 outer loop
  vertex 350500.0 5667500.0 3014.10009765625
  vertex 351500.0 5667500.0 3069.10009765625
  vertex 351500.0 5666500.0 3024.699951171875
 endloop
endfacet
facet normal 0.04929153621196747 0.04430253058671951 -0.9978014230728149
 outer loop
  vertex 351500.0 5667500.0 3069.10009765625
  vertex 352500.0 5666500.0 3074.10009765625
  vertex 351500.0 5666500.0 3024.699951171875
 endloop
endfacet
facet normal -0.0008000351372174919 -0.005799949634820223 -0.9999828934669495
 outer loop
  vertex 351500.0 5667500.0 3069.10009765625
  vertex 352500.0 5667500.0 3068.300048828125
  vertex 352500.0 5666500.0 3074.10009765625
 endloop
endfacet
facet normal 0.01209876500070095 -0.005799526814371347 -0.9999099969863892
 outer loop
  vertex 352500.0 5667500.0 3068.300048828125
  vertex 353500.0 5666500.0 3086.199951171875
  vertex 352500.0 5666500.0 3074.10009765625
 endloop
endfacet
facet normal 0.004799581598490477 -0.0130985789000988 -0.9999027252197266
 outer loop
  vertex 352500.0 5667500.0 3068.300048828125
  vertex 353500.0 5667500.0 3073.10009765625
  vertex 353500.0 5666500.0 3086.199951171875
 endloop
endfacet
facet normal 0.05487013980746269 0.0413021519780159 -0.9976388812065125
 outer loop
  vertex 350500.0 5668500.0 3055.5
  vertex 351500.0 5667500.0 3069.10009765625
  vertex 350500.0 5667500.0 3014.10009765625
 endloop
endfacet
facet normal 0.006399605423212051 -0.007199861574918032 -0.9999536275863647
 outer loop
  vertex 350500.0 5668500.0 3055.5
  vertex 351500.0 5668500.0 3061.89990234375
  vertex 351500.0 5667500.0 3069.10009765625
 endloop
endfacet
facet normal -0.0008000278030522168 -0.007200006395578384 -0.9999737739562988
 outer loop
  vertex 351500.0 5668500.0 3061.89990234375
  vertex 352500.0 5667500.0 3068.300048828125
  vertex 351500.0 5667500.0 3069.10009765625
 endloop
endfacet
facet normal 0.0007993424660526216 -0.042062580585479736 -0.9991146326065063
 outer loop
  vertex 345500.0 5669500.0 2972.300048828125
  vertex 346500.0 5668500.0 3015.199951171875
  vertex 345500.0 5668500.0 3014.39990234375
 endloop
endfacet
facet normal 0.03777258098125458 -0.00509615009650588 -0.999273419380188
 outer loop
  vertex 345500.0 5669500.0 2972.300048828125
  vertex 346500.0 5669500.0 3010.10009765625
  vertex 346500.0 5668500.0 3015.199951171875
 endloop
endfacet
facet normal 0.07686733454465866 0.010667677037417889 -0.9969842433929443
 outer loop
  vertex 349500.0 5669500.0 2989.10009765625
  vertex 350500.0 5669500.0 3066.199951171875
  vertex 350500.0 5668500.0 3055.5
 endloop
endfacet
facet normal 0.006399404723197222 0.010699119418859482 -0.9999222755432129
 outer loop
  vertex 350500.0 5669500.0 3066.199951171875
  vertex 351500.0 5668500.0 3061.89990234375
  vertex 350500.0 5668500.0 3055.5
 endloop
endfacet
facet normal 0.004899880383163691 0.009199695661664009 -0.9999457001686096
 outer loop
  vertex 350500.0 5669500.0 3066.199951171875
  vertex 351500.0 5669500.0 3071.10009765625
  vertex 351500.0 5668500.0 3061.89990234375
 endloop
endfacet
facet normal 0.06684944778680801 0.004489888437092304 -0.9977529644966125
 outer loop
  vertex 346500.0 5670500.0 3014.60009765625
  vertex 347500.0 5669500.0 3077.10009765625
  vertex 346500.0 5669500.0 3010.10009765625
 endloop
endfacet
facet normal 0.02567410096526146 -0.0367630310356617 -0.9989941120147705
 outer loop
  vertex 346500.0 5670500.0 3014.60009765625
  vertex 347500.0 5670500.0 3040.300048828125
  vertex 347500.0 5669500.0 3077.10009765625
 endloop
endfacet
facet normal 0.021019285544753075 0.08487363904714584 -0.9961700439453125
 outer loop
  vertex 348500.0 5670500.0 3053.199951171875
  vertex 349500.0 5670500.0 3074.300048828125
  vertex 349500.0 5669500.0 2989.10009765625
 endloop
endfacet
facet normal 0.07659585028886795 0.08464299887418747 -0.9934629797935486
 outer loop
  vertex 349500.0 5670500.0 3074.300048828125
  vertex 350500.0 5669500.0 3066.199951171875
  vertex 349500.0 5669500.0 2989.10009765625
 endloop
endfacet
facet normal 0.0006999238976277411 0.00879970658570528 -0.9999610781669617
 outer loop
  vertex 349500.0 5670500.0 3074.300048828125
  vertex 350500.0 5670500.0 3075.0
  vertex 350500.0 5669500.0 3066.199951171875
 endloop
endfacet
facet normal 0.004899897612631321 0.008799602277576923 -0.9999492764472961
 outer loop
  vertex 350500.0 5670500.0 3075.0
  vertex 351500.0 5669500.0 3071.10009765625
  vertex 350500.0 5669500.0 3066.199951171875
 endloop
endfacet
facet normal -0.00010009693505708128 0.00379977747797966 -0.9999927878379822
 outer loop
  vertex 350500.0 5670500.0 3075.0
  vertex 351500.0 5670500.0 3074.89990234375
  vertex 351500.0 5669500.0 3071.10009765625
 endloop
endfacet
facet normal 0.008599473163485527 0.003799636848270893 -0.9999558329582214
 outer loop
  vertex 351500.0 5670500.0 3074.89990234375
  vertex 352500.0 5669500.0 3079.699951171875
  vertex 351500.0 5669500.0 3071.10009765625
 endloop
endfacet
facet normal 0.0014999901177361608 -0.003300027223303914 -0.9999934434890747
 outer loop
  vertex 351500.0 5670500.0 3074.89990234375
  vertex 352500.0 5670500.0 3076.39990234375
  vertex 352500.0 5669500.0 3079.699951171875
 endloop
endfacet
facet normal 0.05222703516483307 0.0072896480560302734 -0.9986086487770081
 outer loop
  vertex 345500.0 5671500.0 2969.60009765625
  vertex 346500.0 5671500.0 3021.89990234375
  vertex 346500.0 5670500.0 3014.60009765625
 endloop
endfacet
facet normal 0.02569078467786312 0.007297201082110405 -0.9996433258056641
 outer loop
  vertex 346500.0 5671500.0 3021.89990234375
  vertex 347500.0 5670500.0 3040.300048828125
  vertex 346500.0 5670500.0 3014.60009765625
 endloop
endfacet
facet normal 0.040855661034584045 0.022475527599453926 -0.9989122748374939
 outer loop
  vertex 346500.0 5671500.0 3021.89990234375
  vertex 347500.0 5671500.0 3062.800048828125
  vertex 347500.0 5670500.0 3040.300048828125
 endloop
endfacet
facet normal 0.012895566411316395 0.022492436692118645 -0.9996638894081116
 outer loop
  vertex 347500.0 5671500.0 3062.800048828125
  vertex 348500.0 5670500.0 3053.199951171875
  vertex 347500.0 5670500.0 3040.300048828125
 endloop
endfacet
facet normal 0.012296170927584171 0.021893242374062538 -0.999684751033783
 outer loop
  vertex 347500.0 5671500.0 3062.800048828125
  vertex 348500.0 5671500.0 3075.10009765625
  vertex 348500.0 5670500.0 3053.199951171875
 endloop
endfacet
facet normal 0.021090347319841385 0.021890025585889816 -0.9995378851890564
 outer loop
  vertex 348500.0 5671500.0 3075.10009765625
  vertex 349500.0 5670500.0 3074.300048828125
  vertex 348500.0 5670500.0 3053.199951171875
 endloop
endfacet
facet normal -0.010399105027318 -0.00959913618862629 -0.9998998045921326
 outer loop
  vertex 348500.0 5671500.0 3075.10009765625
  vertex 349500.0 5671500.0 3064.699951171875
  vertex 349500.0 5670500.0 3074.300048828125
 endloop
endfacet
facet normal 0.0006999187753535807 -0.009599653072655201 -0.9999536871910095
 outer loop
  vertex 349500.0 5671500.0 3064.699951171875
  vertex 350500.0 5670500.0 3075.0
  vertex 349500.0 5670500.0 3074.300048828125
 endloop
endfacet
facet normal -0.016891244798898697 -0.027186017483472824 -0.9994876980781555
 outer loop
  vertex 349500.0 5671500.0 3064.699951171875
  vertex 350500.0 5671500.0 3047.800048828125
  vertex 350500.0 5670500.0 3075.0
 endloop
endfacet
facet normal -0.00010006064985645935 -0.027189893648028374 -0.9996302723884583
 outer loop
  vertex 350500.0 5671500.0 3047.800048828125
  vertex 351500.0 5670500.0 3074.89990234375
  vertex 350500.0 5670500.0 3075.0
 endloop
endfacet
facet normal 0.017796460539102554 -0.0092979297041893 -0.9997984170913696
 outer loop
  vertex 350500.0 5671500.0 3047.800048828125
  vertex 351500.0 5671500.0 3065.60009765625
  vertex 351500.0 5670500.0 3074.89990234375
 endloop
endfacet
facet normal 0.001499933423474431 -0.009299391880631447 -0.9999556541442871
 outer loop
  vertex 351500.0 5671500.0 3065.60009765625
  vertex 352500.0 5670500.0 3076.39990234375
  vertex 351500.0 5670500.0 3074.89990234375
 endloop
endfacet
facet normal 0.001499933423474431 -0.009299391880631447 -0.9999556541442871
 outer loop
  vertex 351500.0 5671500.0 3065.60009765625
  vertex 352500.0 5671500.0 3067.10009765625
  vertex 352500.0 5670500.0 3076.39990234375
 endloop
endfacet
facet normal -0.0019953609444200993 0.06804176419973373 -0.9976805448532104
 outer loop
  vertex 344500.0 5672500.0 3039.800048828125
  vertex 345500.0 5672500.0 3037.800048828125
  vertex 345500.0 5671500.0 2969.60009765625
 endloop
endfacet
facet normal 0.052107714116573334 0.06794945895671844 -0.9963271021842957
 outer loop
  vertex 345500.0 5672500.0 3037.800048828125
  vertex 346500.0 5671500.0 3021.89990234375
  vertex 345500.0 5671500.0 2969.60009765625
 endloop
endfacet
facet normal -0.02638949826359749 -0.010495765134692192 -0.9995966553688049
 outer loop
  vertex 345500.0 5672500.0 3037.800048828125
  vertex 346500.0 5672500.0 3011.39990234375
  vertex 346500.0 5671500.0 3021.89990234375
 endloop
endfacet
facet normal 0.04086373373866081 -0.010490651242434978 -0.99910968542099
 outer loop
  vertex 346500.0 5672500.0 3011.39990234375
  vertex 347500.0 5671500.0 3062.800048828125
  vertex 346500.0 5671500.0 3021.89990234375
 endloop
endfacet
facet normal 0.03277675434947014 -0.018586892634630203 -0.999289870262146
 outer loop
  vertex 346500.0 5672500.0 3011.39990234375
  vertex 347500.0 5672500.0 3044.199951171875
  vertex 347500.0 5671500.0 3062.800048828125
 endloop
endfacet
facet normal 0.012296991422772408 -0.01859547384083271 -0.9997514486312866
 outer loop
  vertex 347500.0 5672500.0 3044.199951171875
  vertex 348500.0 5671500.0 3075.10009765625
  vertex 347500.0 5671500.0 3062.800048828125
 endloop
endfacet
facet normal 0.01799558848142624 -0.01289698388427496 -0.9997548460960388
 outer loop
  vertex 347500.0 5672500.0 3044.199951171875
  vertex 348500.0 5672500.0 3062.199951171875
  vertex 348500.0 5671500.0 3075.10009765625
 endloop
endfacet
facet normal -0.010398718528449535 -0.012898375280201435 -0.9998627305030823
 outer loop
  vertex 348500.0 5672500.0 3062.199951171875
  vertex 349500.0 5671500.0 3064.699951171875
  vertex 348500.0 5671500.0 3075.10009765625
 endloop
endfacet
facet normal 0.0 -0.002499992260709405 -0.9999969005584717
 outer loop
  vertex 348500.0 5672500.0 3062.199951171875
  vertex 349500.0 5672500.0 3062.199951171875
  vertex 349500.0 5671500.0 3064.699951171875
 endloop
endfacet
facet normal -0.01689743809401989 -0.0024996353313326836 -0.9998541474342346
 outer loop
  vertex 349500.0 5672500.0 3062.199951171875
  vertex 350500.0 5671500.0 3047.800048828125
  vertex 349500.0 5671500.0 3064.699951171875
 endloop
endfacet
facet normal 0.033442918211221695 0.04781828075647354 -0.9982960224151611
 outer loop
  vertex 349500.0 5672500.0 3062.199951171875
  vertex 350500.0 5672500.0 3095.699951171875
  vertex 350500.0 5671500.0 3047.800048828125
 endloop
endfacet
facet normal 0.01777685433626175 0.04783748462796211 -0.9986969232559204
 outer loop
  vertex 350500.0 5672500.0 3095.699951171875
  vertex 351500.0 5671500.0 3065.60009765625
  vertex 350500.0 5671500.0 3047.800048828125
 endloop
endfacet
facet normal -0.033381108194589615 -0.0032981918193399906 -0.9994372725486755
 outer loop
  vertex 350500.0 5672500.0 3095.699951171875
  vertex 351500.0 5672500.0 3062.300048828125
  vertex 351500.0 5671500.0 3065.60009765625
 endloop
endfacet
facet normal 0.0014999901177361608 -0.003300027223303914 -0.9999934434890747
 outer loop
  vertex 351500.0 5672500.0 3062.300048828125
  vertex 352500.0 5671500.0 3067.10009765625
  vertex 351500.0 5671500.0 3065.60009765625
 endloop
endfacet
facet normal -0.012797018513083458 -0.0175959300249815 -0.9997632503509521
 outer loop
  vertex 351500.0 5672500.0 3062.300048828125
  vertex 352500.0 5672500.0 3049.5
  vertex 352500.0 5671500.0 3067.10009765625
 endloop
endfacet
facet normal 0.01839394122362137 -0.017594395205378532 -0.999675989151001
 outer loop
  vertex 352500.0 5672500.0 3049.5
  vertex 353500.0 5671500.0 3085.5
  vertex 352500.0 5671500.0 3067.10009765625
 endloop
endfacet
facet normal 0.08498729765415192 0.04916123300790787 -0.9951685070991516
 outer loop
  vertex 352500.0 5672500.0 3049.5
  vertex 353500.0 5672500.0 3134.89990234375
  vertex 353500.0 5671500.0 3085.5
 endloop
endfacet
facet normal 0.0008000452071428299 0.0029001333750784397 -0.9999955296516418
 outer loop
  vertex 341500.0 5673500.0 2999.60009765625
  vertex 342500.0 5672500.0 2997.5
  vertex 341500.0 5672500.0 2996.699951171875
 endloop
endfacet
facet normal 0.024284178391098976 0.026382924988865852 -0.9993569254875183
 outer loop
  vertex 341500.0 5673500.0 2999.60009765625
  vertex 342500.0 5673500.0 3023.89990234375
  vertex 342500.0 5672500.0 2997.5
 endloop
endfacet
facet normal 0.009895970113575459 0.026389416307210922 -0.9996027946472168
 outer loop
  vertex 342500.0 5673500.0 3023.89990234375
  vertex 343500.0 5672500.0 3007.39990234375
  vertex 342500.0 5672500.0 2997.5
 endloop
endfacet
facet normal 0.005598642863333225 0.022094355896115303 -0.9997401833534241
 outer loop
  vertex 342500.0 5673500.0 3023.89990234375
  vertex 343500.0 5673500.0 3029.5
  vertex 343500.0 5672500.0 3007.39990234375
 endloop
endfacet
facet normal 0.03237525746226311 0.022083120420575142 -0.99923175573349
 outer loop
  vertex 343500.0 5673500.0 3029.5
  vertex 344500.0 5672500.0 3039.800048828125
  vertex 343500.0 5672500.0 3007.39990234375
 endloop
endfacet
facet normal 0.010799417272210121 0.0004999708035029471 -0.9999415874481201
 outer loop
  vertex 343500.0 5673500.0 3029.5
  vertex 344500.0 5673500.0 3040.300048828125
  vertex 344500.0 5672500.0 3039.800048828125
 endloop
endfacet
facet normal -0.001999995671212673 0.0004999989178031683 -0.9999978542327881
 outer loop
  vertex 344500.0 5673500.0 3040.300048828125
  vertex 345500.0 5672500.0 3037.800048828125
  vertex 344500.0 5672500.0 3039.800048828125
 endloop
endfacet
facet normal -0.001199949299916625 0.0013000468024984002 -0.9999984502792358
 outer loop
  vertex 344500.0 5673500.0 3040.300048828125
  vertex 345500.0 5673500.0 3039.10009765625
  vertex 345500.0 5672500.0 3037.800048828125
 endloop
endfacet
facet normal -0.026390928775072098 0.0012995949946343899 -0.9996508955955505
 outer loop
  vertex 345500.0 5673500.0 3039.10009765625
  vertex 346500.0 5672500.0 3011.39990234375
  vertex 345500.0 5672500.0 3037.800048828125
 endloop
endfacet
facet normal 0.0 0.027689574286341667 -0.9996165633201599
 outer loop
  vertex 345500.0 5673500.0 3039.10009765625
  vertex 346500.0 5673500.0 3039.10009765625
  vertex 346500.0 5672500.0 3011.39990234375
 endloop
endfacet
facet normal 0.032769862562417984 0.027674702927470207 -0.999079704284668
 outer loop
  vertex 346500.0 5673500.0 3039.10009765625
  vertex 347500.0 5672500.0 3044.199951171875
  vertex 346500.0 5672500.0 3011.39990234375
 endloop
endfacet
facet normal 0.00819963589310646 0.0030999784357845783 -0.9999615550041199
 outer loop
  vertex 346500.0 5673500.0 3039.10009765625
  vertex 347500.0 5673500.0 3047.300048828125
  vertex 347500.0 5672500.0 3044.199951171875
 endloop
endfacet
facet normal 0.017996998503804207 0.0030995807610452175 -0.9998332858085632
 outer loop
  vertex 347500.0 5673500.0 3047.300048828125
  vertex 348500.0 5672500.0 3062.199951171875
  vertex 347500.0 5672500.0 3044.199951171875
 endloop
endfacet
facet normal 0.006299690809100866 -0.008599365130066872 -0.999943196773529
 outer loop
  vertex 347500.0 5673500.0 3047.300048828125
  vertex 348500.0 5673500.0 3053.60009765625
  vertex 348500.0 5672500.0 3062.199951171875
 endloop
endfacet
facet normal 0.0 -0.008599535562098026 -0.9999629855155945
 outer loop
  vertex 348500.0 5673500.0 3053.60009765625
  vertex 349500.0 5672500.0 3062.199951171875
  vertex 348500.0 5672500.0 3062.199951171875
 endloop
endfacet
facet normal 0.05307221785187721 0.044493015855550766 -0.9975989460945129
 outer loop
  vertex 348500.0 5673500.0 3053.60009765625
  vertex 349500.0 5673500.0 3106.800048828125
  vertex 349500.0 5672500.0 3062.199951171875
 endloop
endfacet
facet normal 0.033448003232479095 0.044530875980854034 -0.9984478950500488
 outer loop
  vertex 349500.0 5673500.0 3106.800048828125
  vertex 350500.0 5672500.0 3095.699951171875
  vertex 349500.0 5672500.0 3062.199951171875
 endloop
endfacet
facet normal -0.05019807815551758 -0.03912048414349556 -0.9979727864265442
 outer loop
  vertex 349500.0 5673500.0 3106.800048828125
  vertex 350500.0 5673500.0 3056.5
  vertex 350500.0 5672500.0 3095.699951171875
 endloop
endfacet
facet normal -0.0333557054400444 -0.03914807364344597 -0.9986765384674072
 outer loop
  vertex 350500.0 5673500.0 3056.5
  vertex 351500.0 5672500.0 3062.300048828125
  vertex 350500.0 5672500.0 3095.699951171875
 endloop
endfacet
facet normal -0.004999645985662937 -0.010799284093081951 -0.9999291896820068
 outer loop
  vertex 350500.0 5673500.0 3056.5
  vertex 351500.0 5673500.0 3051.5
  vertex 351500.0 5672500.0 3062.300048828125
 endloop
endfacet
facet normal -0.012798253446817398 -0.010798534378409386 -0.9998597502708435
 outer loop
  vertex 351500.0 5673500.0 3051.5
  vertex 352500.0 5672500.0 3049.5
  vertex 351500.0 5672500.0 3062.300048828125
 endloop
endfacet
facet normal 0.036946650594472885 0.03894376754760742 -0.9985581636428833
 outer loop
  vertex 351500.0 5673500.0 3051.5
  vertex 352500.0 5673500.0 3088.5
  vertex 352500.0 5672500.0 3049.5
 endloop
endfacet
facet normal 0.08502601832151413 0.0388292521238327 -0.9956218600273132
 outer loop
  vertex 352500.0 5673500.0 3088.5
  vertex 353500.0 5672500.0 3134.89990234375
  vertex 352500.0 5672500.0 3049.5
 endloop
endfacet
facet normal 0.02429082803428173 0.012195443734526634 -0.9996305704116821
 outer loop
  vertex 341500.0 5674500.0 3011.800048828125
  vertex 342500.0 5673500.0 3023.89990234375
  vertex 341500.0 5673500.0 2999.60009765625
 endloop
endfacet
facet normal 0.002299932297319174 -0.009799308143556118 -0.9999493956565857
 outer loop
  vertex 341500.0 5674500.0 3011.800048828125
  vertex 342500.0 5674500.0 3014.10009765625
  vertex 342500.0 5673500.0 3023.89990234375
 endloop
endfacet
facet normal 0.005599740892648697 -0.009799180552363396 -0.9999363422393799
 outer loop
  vertex 342500.0 5674500.0 3014.10009765625
  vertex 343500.0 5673500.0 3029.5
  vertex 342500.0 5673500.0 3023.89990234375
 endloop
endfacet
facet normal -0.004399241413921118 -0.0197959765791893 -0.9997943639755249
 outer loop
  vertex 342500.0 5674500.0 3014.10009765625
  vertex 343500.0 5674500.0 3009.699951171875
  vertex 343500.0 5673500.0 3029.5
 endloop
endfacet
facet normal 0.010797303169965744 -0.019795015454292297 -0.9997457265853882
 outer loop
  vertex 343500.0 5674500.0 3009.699951171875
  vertex 344500.0 5673500.0 3040.300048828125
  vertex 343500.0 5673500.0 3029.5
 endloop
endfacet
facet normal 0.0063981423154473305 -0.02419237233698368 -0.9996868371963501
 outer loop
  vertex 343500.0 5674500.0 3009.699951171875
  vertex 344500.0 5674500.0 3016.10009765625
  vertex 344500.0 5673500.0 3040.300048828125
 endloop
endfacet
facet normal -0.0011995991226285696 -0.024192851036787033 -0.9997065663337708
 outer loop
  vertex 344500.0 5674500.0 3016.10009765625
  vertex 345500.0 5673500.0 3039.10009765625
  vertex 344500.0 5673500.0 3040.300048828125
 endloop
endfacet
facet normal 0.002199470065534115 -0.02079550176858902 -0.9997813701629639
 outer loop
  vertex 344500.0 5674500.0 3016.10009765625
  vertex 345500.0 5674500.0 3018.300048828125
  vertex 345500.0 5673500.0 3039.10009765625
 endloop
endfacet
facet normal 0.0 -0.0207955501973629 -0.9997837543487549
 outer loop
  vertex 345500.0 5674500.0 3018.300048828125
  vertex 346500.0 5673500.0 3039.10009765625
  vertex 345500.0 5673500.0 3039.10009765625
 endloop
endfacet
facet normal 0.0004998969379812479 -0.020295865833759308 -0.9997939467430115
 outer loop
  vertex 345500.0 5674500.0 3018.300048828125
  vertex 346500.0 5674500.0 3018.800048828125
  vertex 346500.0 5673500.0 3039.10009765625
 endloop
endfacet
facet normal 0.008197986520826817 -0.02029518596827984 -0.9997604489326477
 outer loop
  vertex 346500.0 5674500.0 3018.800048828125
  vertex 347500.0 5673500.0 3047.300048828125
  vertex 346500.0 5673500.0 3039.10009765625
 endloop
endfacet
facet normal 0.036574166268110275 0.008094167336821556 -0.9992981553077698
 outer loop
  vertex 346500.0 5674500.0 3018.800048828125
  vertex 347500.0 5674500.0 3055.39990234375
  vertex 347500.0 5673500.0 3047.300048828125
 endloop
endfacet
facet normal 0.006299717351794243 0.008099427446722984 -0.9999473690986633
 outer loop
  vertex 347500.0 5674500.0 3055.39990234375
  vertex 348500.0 5673500.0 3053.60009765625
  vertex 347500.0 5673500.0 3047.300048828125
 endloop
endfacet
facet normal -0.0029999844264239073 -0.0012001891154795885 -0.9999948143959045
 outer loop
  vertex 347500.0 5674500.0 3055.39990234375
  vertex 348500.0 5674500.0 3052.39990234375
  vertex 348500.0 5673500.0 3053.60009765625
 endloop
endfacet
facet normal 0.053124792873859406 -0.001198499696329236 -0.9985871911048889
 outer loop
  vertex 348500.0 5674500.0 3052.39990234375
  vertex 349500.0 5673500.0 3106.800048828125
  vertex 348500.0 5673500.0 3053.60009765625
 endloop
endfacet
facet normal 0.022782757878303528 -0.03157613426446915 -0.9992416501045227
 outer loop
  vertex 348500.0 5674500.0 3052.39990234375
  vertex 349500.0 5674500.0 3075.199951171875
  vertex 349500.0 5673500.0 3106.800048828125
 endloop
endfacet
facet normal -0.05021153762936592 -0.03154449164867401 -0.9982403516769409
 outer loop
  vertex 349500.0 5674500.0 3075.199951171875
  vertex 350500.0 5673500.0 3056.5
  vertex 349500.0 5673500.0 3106.800048828125
 endloop
endfacet
facet normal -0.012698698788881302 0.005999408196657896 -0.9999014139175415
 outer loop
  vertex 349500.0 5674500.0 3075.199951171875
  vertex 350500.0 5674500.0 3062.5
  vertex 350500.0 5673500.0 3056.5
 endloop
endfacet
facet normal -0.004999847617000341 0.005999817047268152 -0.999969482421875
 outer loop
  vertex 350500.0 5674500.0 3062.5
  vertex 351500.0 5673500.0 3051.5
  vertex 350500.0 5673500.0 3056.5
 endloop
endfacet
facet normal -0.0008000069647096097 0.010199417360126972 -0.9999476671218872
 outer loop
  vertex 350500.0 5674500.0 3062.5
  vertex 351500.0 5674500.0 3061.699951171875
  vertex 351500.0 5673500.0 3051.5
 endloop
endfacet
facet normal 0.0369727797806263 0.01019244734197855 -0.9992642998695374
 outer loop
  vertex 351500.0 5674500.0 3061.699951171875
  vertex 352500.0 5673500.0 3088.5
  vertex 351500.0 5673500.0 3051.5
 endloop
endfacet
facet normal 0.4499323070049286 0.4289396107196808 -0.7833081483840942
 outer loop
  vertex 351500.0 5674500.0 3061.699951171875
  vertex 352500.0 5674500.0 3636.10009765625
  vertex 352500.0 5673500.0 3088.5
 endloop
endfacet
facet normal 0.002299714367836714 -0.016897689551115036 -0.999854564666748
 outer loop
  vertex 341500.0 5675500.0 2994.89990234375
  vertex 342500.0 5674500.0 3014.10009765625
  vertex 341500.0 5674500.0 3011.800048828125
 endloop
endfacet
facet normal 0.022194627672433853 0.0029992475174367428 -0.9997491836547852
 outer loop
  vertex 341500.0 5675500.0 2994.89990234375
  vertex 342500.0 5675500.0 3017.10009765625
  vertex 342500.0 5674500.0 3014.10009765625
 endloop
endfacet
facet normal -0.004400084260851145 0.0029999574180692434 -0.9999858140945435
 outer loop
  vertex 342500.0 5675500.0 3017.10009765625
  vertex 343500.0 5674500.0 3009.699951171875
  vertex 342500.0 5674500.0 3014.10009765625
 endloop
endfacet
facet normal -0.004700126126408577 0.002699911594390869 -0.9999853372573853
 outer loop
  vertex 342500.0 5675500.0 3017.10009765625
  vertex 343500.0 5675500.0 3012.39990234375
  vertex 343500.0 5674500.0 3009.699951171875
 endloop
endfacet
facet normal 0.006399991922080517 0.002699885983020067 -0.999975860118866
 outer loop
  vertex 343500.0 5675500.0 3012.39990234375
  vertex 344500.0 5674500.0 3016.10009765625
  vertex 343500.0 5674500.0 3009.699951171875
 endloop
endfacet
facet normal 0.013798031955957413 0.010098377242684364 -0.9998538494110107
 outer loop
  vertex 343500.0 5675500.0 3012.39990234375
  vertex 344500.0 5675500.0 3026.199951171875
  vertex 344500.0 5674500.0 3016.10009765625
 endloop
endfacet
facet normal 0.0021998335141688585 0.010099314153194427 -0.9999465942382812
 outer loop
  vertex 344500.0 5675500.0 3026.199951171875
  vertex 345500.0 5674500.0 3018.300048828125
  vertex 344500.0 5674500.0 3016.10009765625
 endloop
endfacet
facet normal -0.011898964643478394 -0.003999684937298298 -0.9999212026596069
 outer loop
  vertex 344500.0 5675500.0 3026.199951171875
  vertex 345500.0 5675500.0 3014.300048828125
  vertex 345500.0 5674500.0 3018.300048828125
 endloop
endfacet
facet normal 0.0004999959492124617 -0.003999967593699694 -0.9999918937683105
 outer loop
  vertex 345500.0 5675500.0 3014.300048828125
  vertex 346500.0 5674500.0 3018.800048828125
  vertex 345500.0 5674500.0 3018.300048828125
 endloop
endfacet
facet normal 0.03326782211661339 0.028772175312042236 -0.9990322589874268
 outer loop
  vertex 345500.0 5675500.0 3014.300048828125
  vertex 346500.0 5675500.0 3047.60009765625
  vertex 346500.0 5674500.0 3018.800048828125
 endloop
endfacet
facet normal 0.03656022623181343 0.028768867254257202 -0.998917281627655
 outer loop
  vertex 346500.0 5675500.0 3047.60009765625
  vertex 347500.0 5674500.0 3055.39990234375
  vertex 346500.0 5674500.0 3018.800048828125
 endloop
endfacet
facet normal 0.003499946091324091 -0.004299738444387913 -0.999984622001648
 outer loop
  vertex 346500.0 5675500.0 3047.60009765625
  vertex 347500.0 5675500.0 3051.10009765625
  vertex 347500.0 5674500.0 3055.39990234375
 endloop
endfacet
facet normal -0.0029999588150531054 -0.004299745429307222 -0.9999862313270569
 outer loop
  vertex 347500.0 5675500.0 3051.10009765625
  vertex 348500.0 5674500.0 3052.39990234375
  vertex 347500.0 5674500.0 3055.39990234375
 endloop
endfacet
facet normal 0.003399875247851014 0.0021000809501856565 -0.9999920129776001
 outer loop
  vertex 347500.0 5675500.0 3051.10009765625
  vertex 348500.0 5675500.0 3054.5
  vertex 348500.0 5674500.0 3052.39990234375
 endloop
endfacet
facet normal 0.022794075310230255 0.0020995475351810455 -0.9997379779815674
 outer loop
  vertex 348500.0 5675500.0 3054.5
  vertex 349500.0 5674500.0 3075.199951171875
  vertex 348500.0 5674500.0 3052.39990234375
 endloop
endfacet
facet normal 0.014598269946873188 -0.006099089980125427 -0.9998748302459717
 outer loop
  vertex 348500.0 5675500.0 3054.5
  vertex 349500.0 5675500.0 3069.10009765625
  vertex 349500.0 5674500.0 3075.199951171875
 endloop
endfacet
facet normal -0.01269869040697813 -0.006099248304963112 -0.999900758266449
 outer loop
  vertex 349500.0 5675500.0 3069.10009765625
  vertex 350500.0 5674500.0 3062.5
  vertex 349500.0 5674500.0 3075.199951171875
 endloop
endfacet
facet normal 0.05084973946213722 0.057430390268564224 -0.9970536828041077
 outer loop
  vertex 349500.0 5675500.0 3069.10009765625
  vertex 350500.0 5675500.0 3120.10009765625
  vertex 350500.0 5674500.0 3062.5
 endloop
endfacet
facet normal -0.0007987266290001571 0.057504765689373016 -0.9983449578285217
 outer loop
  vertex 350500.0 5675500.0 3120.10009765625
  vertex 351500.0 5674500.0 3061.699951171875
  vertex 350500.0 5674500.0 3062.5
 endloop
endfacet
facet normal 0.06970721483230591 0.025429708883166313 -0.9972432851791382
 outer loop
  vertex 340500.0 5676500.0 2950.5
  vertex 341500.0 5676500.0 3020.39990234375
  vertex 341500.0 5675500.0 2994.89990234375
 endloop
endfacet
facet normal 0.02218751795589924 0.025485437363386154 -0.999428927898407
 outer loop
  vertex 341500.0 5676500.0 3020.39990234375
  vertex 342500.0 5675500.0 3017.10009765625
  vertex 341500.0 5675500.0 2994.89990234375
 endloop
endfacet
facet normal -0.07725422084331512 -0.07397334277629852 -0.9942634105682373
 outer loop
  vertex 341500.0 5676500.0 3020.39990234375
  vertex 342500.0 5676500.0 2942.699951171875
  vertex 342500.0 5675500.0 3017.10009765625
 endloop
endfacet
facet normal -0.004687189124524593 -0.07419426739215851 -0.9972327947616577
 outer loop
  vertex 342500.0 5676500.0 2942.699951171875
  vertex 343500.0 5675500.0 3012.39990234375
  vertex 342500.0 5675500.0 3017.10009765625
 endloop
endfacet
facet normal -0.003390835365280509 -0.07290491461753845 -0.9973331093788147
 outer loop
  vertex 342500.0 5676500.0 2942.699951171875
  vertex 343500.0 5676500.0 2939.300048828125
  vertex 343500.0 5675500.0 3012.39990234375
 endloop
endfacet
facet normal 0.013762027956545353 -0.07289841771125793 -0.9972444176673889
 outer loop
  vertex 343500.0 5676500.0 2939.300048828125
  vertex 344500.0 5675500.0 3026.199951171875
  vertex 343500.0 5675500.0 3012.39990234375
 endloop
endfacet
facet normal 0.07736393809318542 -0.009271780960261822 -0.9969598054885864
 outer loop
  vertex 343500.0 5676500.0 2939.300048828125
  vertex 344500.0 5676500.0 3016.89990234375
  vertex 344500.0 5675500.0 3026.199951171875
 endloop
endfacet
facet normal -0.011898545548319817 -0.009298988617956638 -0.9998859763145447
 outer loop
  vertex 344500.0 5676500.0 3016.89990234375
  vertex 345500.0 5675500.0 3014.300048828125
  vertex 344500.0 5675500.0 3026.199951171875
 endloop
endfacet
facet normal 0.001400133827701211 0.003999963868409395 -0.9999909996986389
 outer loop
  vertex 344500.0 5676500.0 3016.89990234375
  vertex 345500.0 5676500.0 3018.300048828125
  vertex 345500.0 5675500.0 3014.300048828125
 endloop
endfacet
facet normal 0.03328133374452591 0.0039977519772946835 -0.9994379878044128
 outer loop
  vertex 345500.0 5676500.0 3018.300048828125
  vertex 346500.0 5675500.0 3047.60009765625
  vertex 345500.0 5675500.0 3014.300048828125
 endloop
endfacet
facet normal 0.028288708999753 -0.0009995992295444012 -0.999599277973175
 outer loop
  vertex 345500.0 5676500.0 3018.300048828125
  vertex 346500.0 5676500.0 3046.60009765625
  vertex 346500.0 5675500.0 3047.60009765625
 endloop
endfacet
facet normal 0.0034999768249690533 -0.0009999934118241072 -0.9999933838844299
 outer loop
  vertex 346500.0 5676500.0 3046.60009765625
  vertex 347500.0 5675500.0 3051.10009765625
  vertex 346500.0 5675500.0 3047.60009765625
 endloop
endfacet
facet normal 0.05732499063014984 0.05283868685364723 -0.9969563484191895
 outer loop
  vertex 346500.0 5676500.0 3046.60009765625
  vertex 347500.0 5676500.0 3104.10009765625
  vertex 347500.0 5675500.0 3051.10009765625
 endloop
endfacet
facet normal 0.0033951178193092346 0.052925415337085724 -0.998592734336853
 outer loop
  vertex 347500.0 5676500.0 3104.10009765625
  vertex 348500.0 5675500.0 3054.5
  vertex 347500.0 5675500.0 3051.10009765625
 endloop
endfacet
facet normal -0.009591985493898392 0.03996619954705238 -0.9991550445556641
 outer loop
  vertex 347500.0 5676500.0 3104.10009765625
  vertex 348500.0 5676500.0 3094.5
  vertex 348500.0 5675500.0 3054.5
 endloop
endfacet
facet normal 0.014586878940463066 0.03996378555893898 -0.9990946054458618
 outer loop
  vertex 348500.0 5676500.0 3094.5
  vertex 349500.0 5675500.0 3069.10009765625
  vertex 348500.0 5675500.0 3054.5
 endloop
endfacet
facet normal -0.023793281987309456 0.0015993985580280423 -0.9997156262397766
 outer loop
  vertex 348500.0 5676500.0 3094.5
  vertex 349500.0 5676500.0 3070.699951171875
  vertex 349500.0 5675500.0 3069.10009765625
 endloop
endfacet
facet normal 0.05093373730778694 0.001597774913534522 -0.998700737953186
 outer loop
  vertex 349500.0 5676500.0 3070.699951171875
  vertex 350500.0 5675500.0 3120.10009765625
  vertex 349500.0 5675500.0 3069.10009765625
 endloop
endfacet
facet normal 0.10035659372806549 0.051271144300699234 -0.9936296343803406
 outer loop
  vertex 349500.0 5676500.0 3070.699951171875
  vertex 350500.0 5676500.0 3171.699951171875
  vertex 350500.0 5675500.0 3120.10009765625
 endloop
endfacet
facet normal 0.010371381416916847 0.07359592616558075 -0.9972341656684875
 outer loop
  vertex 339500.0 5677500.0 3013.89990234375
  vertex 340500.0 5677500.0 3024.300048828125
  vertex 340500.0 5676500.0 2950.5
 endloop
endfacet
facet normal 0.0695415586233139 0.07342170923948288 -0.9948734641075134
 outer loop
  vertex 340500.0 5677500.0 3024.300048828125
  vertex 341500.0 5676500.0 3020.39990234375
  vertex 340500.0 5676500.0 2950.5
 endloop
endfacet
facet normal -0.019294166937470436 -0.01539521012455225 -0.9996953010559082
 outer loop
  vertex 340500.0 5677500.0 3024.300048828125
  vertex 341500.0 5677500.0 3005.0
  vertex 341500.0 5676500.0 3020.39990234375
 endloop
endfacet
facet normal -0.07745733112096786 -0.015351816080510616 -0.9968774914741516
 outer loop
  vertex 341500.0 5677500.0 3005.0
  vertex 342500.0 5676500.0 2942.699951171875
  vertex 341500.0 5676500.0 3020.39990234375
 endloop
endfacet
facet normal -0.01118465792387724 0.05103031545877457 -0.9986345171928406
 outer loop
  vertex 341500.0 5677500.0 3005.0
  vertex 342500.0 5677500.0 2993.800048828125
  vertex 342500.0 5676500.0 2942.699951171875
 endloop
endfacet
facet normal -0.003395452629774809 0.05103321745991707 -0.998691201210022
 outer loop
  vertex 342500.0 5677500.0 2993.800048828125
  vertex 343500.0 5676500.0 2939.300048828125
  vertex 342500.0 5676500.0 2942.699951171875
 endloop
endfacet
facet normal -0.056210942566394806 -0.001797197968699038 -0.998417317867279
 outer loop
  vertex 342500.0 5677500.0 2993.800048828125
  vertex 343500.0 5677500.0 2937.5
  vertex 343500.0 5676500.0 2939.300048828125
 endloop
endfacet
facet normal 0.0773671418428421 -0.0017946506850421429 -0.9970011115074158
 outer loop
  vertex 343500.0 5677500.0 2937.5
  vertex 344500.0 5676500.0 3016.89990234375
  vertex 343500.0 5676500.0 2939.300048828125
 endloop
endfacet
facet normal 0.09623672068119049 0.01721717230975628 -0.9952095746994019
 outer loop
  vertex 343500.0 5677500.0 2937.5
  vertex 344500.0 5677500.0 3034.199951171875
  vertex 344500.0 5676500.0 3016.89990234375
 endloop
endfacet
facet normal 0.0013999355724081397 0.017297443002462387 -0.9998493790626526
 outer loop
  vertex 344500.0 5677500.0 3034.199951171875
  vertex 345500.0 5676500.0 3018.300048828125
  vertex 344500.0 5676500.0 3016.89990234375
 endloop
endfacet
facet normal 0.007297890726476908 0.02319309301674366 -0.9997044205665588
 outer loop
  vertex 344500.0 5677500.0 3034.199951171875
  vertex 345500.0 5677500.0 3041.5
  vertex 345500.0 5676500.0 3018.300048828125
 endloop
endfacet
facet normal 0.028281118720769882 0.023184431716799736 -0.9993310570716858
 outer loop
  vertex 345500.0 5677500.0 3041.5
  vertex 346500.0 5676500.0 3046.60009765625
  vertex 345500.0 5676500.0 3018.300048828125
 endloop
endfacet
facet normal 0.0033998778089880943 -0.00170018314383924 -0.9999927878379822
 outer loop
  vertex 345500.0 5677500.0 3041.5
  vertex 346500.0 5677500.0 3044.89990234375
  vertex 346500.0 5676500.0 3046.60009765625
 endloop
endfacet
facet normal 0.057405099272727966 -0.0016973891761153936 -0.9983495473861694
 outer loop
  vertex 346500.0 5677500.0 3044.89990234375
  vertex 347500.0 5676500.0 3104.10009765625
  vertex 346500.0 5676500.0 3046.60009765625
 endloop
endfacet
facet normal 0.0037942032795399427 -0.05531492829322815 -0.9984617233276367
 outer loop
  vertex 346500.0 5677500.0 3044.89990234375
  vertex 347500.0 5677500.0 3048.699951171875
  vertex 347500.0 5676500.0 3104.10009765625
 endloop
endfacet
facet normal -0.009584962390363216 -0.055312786251306534 -0.9984230399131775
 outer loop
  vertex 347500.0 5677500.0 3048.699951171875
  vertex 348500.0 5676500.0 3094.5
  vertex 347500.0 5676500.0 3104.10009765625
 endloop
endfacet
facet normal -0.005692314822226763 -0.05143100395798683 -0.9986603260040283
 outer loop
  vertex 347500.0 5677500.0 3048.699951171875
  vertex 348500.0 5677500.0 3043.0
  vertex 348500.0 5676500.0 3094.5
 endloop
endfacet
facet normal -0.023761838674545288 -0.05141731724143028 -0.9983945488929749
 outer loop
  vertex 348500.0 5677500.0 3043.0
  vertex 349500.0 5676500.0 3070.699951171875
  vertex 348500.0 5676500.0 3094.5
 endloop
endfacet
facet normal 0.27328425645828247 0.24753610789775848 -0.9295383095741272
 outer loop
  vertex 348500.0 5677500.0 3043.0
  vertex 349500.0 5677500.0 3337.0
  vertex 349500.0 5676500.0 3070.699951171875
 endloop
endfacet
facet normal 0.09713710099458694 0.25611498951911926 -0.9617533683776855
 outer loop
  vertex 349500.0 5677500.0 3337.0
  vertex 350500.0 5676500.0 3171.699951171875
  vertex 349500.0 5676500.0 3070.699951171875
 endloop
endfacet
facet normal -0.1447334885597229 0.01879655010998249 -0.9892921447753906
 outer loop
  vertex 349500.0 5677500.0 3337.0
  vertex 350500.0 5677500.0 3190.699951171875
  vertex 350500.0 5676500.0 3171.699951171875
 endloop
endfacet
facet normal -0.019282175227999687 -0.038464345037937164 -0.9990739226341248
 outer loop
  vertex 340500.0 5678500.0 2985.800048828125
  vertex 341500.0 5677500.0 3005.0
  vertex 340500.0 5677500.0 3024.300048828125
 endloop
endfacet
facet normal 0.014298414811491966 -0.00489934254437685 -0.9998857378959656
 outer loop
  vertex 340500.0 5678500.0 2985.800048828125
  vertex 341500.0 5678500.0 3000.10009765625
  vertex 341500.0 5677500.0 3005.0
 endloop
endfacet
facet normal -0.011199114844202995 -0.00489953625947237 -0.9999253153800964
 outer loop
  vertex 341500.0 5678500.0 3000.10009765625
  vertex 342500.0 5677500.0 2993.800048828125
  vertex 341500.0 5677500.0 3005.0
 endloop
endfacet
facet normal -0.009899596683681011 -0.0035998979583382607 -0.9999445080757141
 outer loop
  vertex 341500.0 5678500.0 3000.10009765625
  vertex 342500.0 5678500.0 2990.199951171875
  vertex 342500.0 5677500.0 2993.800048828125
 endloop
endfacet
facet normal -0.05621067062020302 -0.003594382433220744 -0.9984124898910522
 outer loop
  vertex 342500.0 5678500.0 2990.199951171875
  vertex 343500.0 5677500.0 2937.5
  vertex 342500.0 5677500.0 2993.800048828125
 endloop
endfacet
facet normal -0.056310027837753296 -0.0036940532736480236 -0.9984064698219299
 outer loop
  vertex 342500.0 5678500.0 2990.199951171875
  vertex 343500.0 5678500.0 2933.800048828125
  vertex 343500.0 5677500.0 2937.5
 endloop
endfacet
facet normal 0.09625033289194107 -0.0036827477160841227 -0.9953503608703613
 outer loop
  vertex 343500.0 5678500.0 2933.800048828125
  vertex 344500.0 5677500.0 3034.199951171875
  vertex 343500.0 5677500.0 2937.5
 endloop
endfacet
facet normal 0.09378298372030258 -0.006172509398311377 -0.9955735802650452
 outer loop
  vertex 343500.0 5678500.0 2933.800048828125
  vertex 344500.0 5678500.0 3028.0
  vertex 344500.0 5677500.0 3034.199951171875
 endloop
endfacet
facet normal 0.0072997137904167175 -0.006199666764587164 -0.999954104423523
 outer loop
  vertex 344500.0 5678500.0 3028.0
  vertex 345500.0 5677500.0 3041.5
  vertex 344500.0 5677500.0 3034.199951171875
 endloop
endfacet
facet normal -0.009297230280935764 -0.02279314026236534 -0.9996969699859619
 outer loop
  vertex 344500.0 5678500.0 3028.0
  vertex 345500.0 5678500.0 3018.699951171875
  vertex 345500.0 5677500.0 3041.5
 endloop
endfacet
facet normal 0.0033989993389695883 -0.02279399335384369 -0.9997344017028809
 outer loop
  vertex 345500.0 5678500.0 3018.699951171875
  vertex 346500.0 5677500.0 3044.89990234375
  vertex 345500.0 5677500.0 3041.5
 endloop
endfacet
facet normal 0.02699015475809574 0.0007997571374289691 -0.9996353983879089
 outer loop
  vertex 345500.0 5678500.0 3018.699951171875
  vertex 346500.0 5678500.0 3045.699951171875
  vertex 346500.0 5677500.0 3044.89990234375
 endloop
endfacet
facet normal 0.0038000200875103474 0.0008000427624210715 -0.9999924302101135
 outer loop
  vertex 346500.0 5678500.0 3045.699951171875
  vertex 347500.0 5677500.0 3048.699951171875
  vertex 346500.0 5677500.0 3044.89990234375
 endloop
endfacet
facet normal -0.0004999968805350363 -0.003499978221952915 -0.9999937415122986
 outer loop
  vertex 346500.0 5678500.0 3045.699951171875
  vertex 347500.0 5678500.0 3045.199951171875
  vertex 347500.0 5677500.0 3048.699951171875
 endloop
endfacet
facet normal -0.0056998236104846 -0.0034999216441065073 -0.9999776482582092
 outer loop
  vertex 347500.0 5678500.0 3045.199951171875
  vertex 348500.0 5677500.0 3043.0
  vertex 347500.0 5677500.0 3048.699951171875
 endloop
endfacet
facet normal 0.20412307977676392 0.20622839033603668 -0.9569762349128723
 outer loop
  vertex 347500.0 5678500.0 3045.199951171875
  vertex 348500.0 5678500.0 3258.5
  vertex 348500.0 5677500.0 3043.0
 endloop
endfacet
facet normal 0.2762206196784973 0.20246782898902893 -0.9395259022712708
 outer loop
  vertex 348500.0 5678500.0 3258.5
  vertex 349500.0 5677500.0 3337.0
  vertex 348500.0 5677500.0 3043.0
 endloop
endfacet
facet normal 0.11573261767625809 0.03781663998961449 -0.9925602674484253
 outer loop
  vertex 348500.0 5678500.0 3258.5
  vertex 349500.0 5678500.0 3375.10009765625
  vertex 349500.0 5677500.0 3337.0
 endloop
endfacet
facet normal -0.14465630054473877 0.037672024220228195 -0.9887645244598389
 outer loop
  vertex 349500.0 5678500.0 3375.10009765625
  vertex 350500.0 5677500.0 3190.699951171875
  vertex 349500.0 5677500.0 3337.0
 endloop
endfacet
facet normal -0.10924038290977478 0.07355368137359619 -0.991290271282196
 outer loop
  vertex 349500.0 5678500.0 3375.10009765625
  vertex 350500.0 5678500.0 3264.89990234375
  vertex 350500.0 5677500.0 3190.699951171875
 endloop
endfacet
facet normal 0.014294776134192944 -0.023091576993465424 -0.9996311068534851
 outer loop
  vertex 340500.0 5679500.0 2962.699951171875
  vertex 341500.0 5678500.0 3000.10009765625
  vertex 340500.0 5678500.0 2985.800048828125
 endloop
endfacet
facet normal 0.04953552037477493 0.012184065766632557 -0.9986980557441711
 outer loop
  vertex 340500.0 5679500.0 2962.699951171875
  vertex 341500.0 5679500.0 3012.300048828125
  vertex 341500.0 5678500.0 3000.10009765625
 endloop
endfacet
facet normal -0.009898924268782139 0.01219844538718462 -0.9998765587806702
 outer loop
  vertex 341500.0 5679500.0 3012.300048828125
  vertex 342500.0 5678500.0 2990.199951171875
  vertex 341500.0 5678500.0 3000.10009765625
 endloop
endfacet
facet normal -0.08364476263523102 -0.06166432052850723 -0.9945858716964722
 outer loop
  vertex 341500.0 5679500.0 3012.300048828125
  vertex 342500.0 5679500.0 2928.199951171875
  vertex 342500.0 5678500.0 2990.199951171875
 endloop
endfacet
facet normal -0.05620283633470535 -0.06178336963057518 -0.9965059161186218
 outer loop
  vertex 342500.0 5679500.0 2928.199951171875
  vertex 343500.0 5678500.0 2933.800048828125
  vertex 342500.0 5678500.0 2990.199951171875
 endloop
endfacet
facet normal 0.08932267129421234 0.08376472443342209 -0.9924741387367249
 outer loop
  vertex 342500.0 5679500.0 2928.199951171875
  vertex 343500.0 5679500.0 3018.199951171875
  vertex 343500.0 5678500.0 2933.800048828125
 endloop
endfacet
facet normal 0.09345541894435883 0.08373282849788666 -0.9920962452888489
 outer loop
  vertex 343500.0 5679500.0 3018.199951171875
  vertex 344500.0 5678500.0 3028.0
  vertex 343500.0 5678500.0 2933.800048828125
 endloop
endfacet
facet normal 0.021493563428521156 0.011696448549628258 -0.9997006058692932
 outer loop
  vertex 343500.0 5679500.0 3018.199951171875
  vertex 344500.0 5679500.0 3039.699951171875
  vertex 344500.0 5678500.0 3028.0
 endloop
endfacet
facet normal -0.009299010038375854 0.011698644608259201 -0.9998883008956909
 outer loop
  vertex 344500.0 5679500.0 3039.699951171875
  vertex 345500.0 5678500.0 3018.699951171875
  vertex 344500.0 5678500.0 3028.0
 endloop
endfacet
facet normal -0.008799053728580475 0.012198571115732193 -0.9998868703842163
 outer loop
  vertex 344500.0 5679500.0 3039.699951171875
  vertex 345500.0 5679500.0 3030.89990234375
  vertex 345500.0 5678500.0 3018.699951171875
 endloop
endfacet
facet normal 0.026988158002495766 0.012194599956274033 -0.9995613694190979
 outer loop
  vertex 345500.0 5679500.0 3030.89990234375
  vertex 346500.0 5678500.0 3045.699951171875
  vertex 345500.0 5678500.0 3018.699951171875
 endloop
endfacet
facet normal 0.014298585243523121 -0.0004999488010071218 -0.9998976588249207
 outer loop
  vertex 345500.0 5679500.0 3030.89990234375
  vertex 346500.0 5679500.0 3045.199951171875
  vertex 346500.0 5678500.0 3045.699951171875
 endloop
endfacet
facet normal -0.0004999998491257429 -0.0004999998491257429 -0.9999997615814209
 outer loop
  vertex 346500.0 5679500.0 3045.199951171875
  vertex 347500.0 5678500.0 3045.199951171875
  vertex 346500.0 5678500.0 3045.699951171875
 endloop
endfacet
facet normal -9.985351789509878e-05 -9.985351789509878e-05 -1.0
 outer loop
  vertex 346500.0 5679500.0 3045.199951171875
  vertex 347500.0 5679500.0 3045.10009765625
  vertex 347500.0 5678500.0 3045.199951171875
 endloop
endfacet
facet normal 0.20860733091831207 -9.765668801264837e-05 -0.9779994487762451
 outer loop
  vertex 347500.0 5679500.0 3045.10009765625
  vertex 348500.0 5678500.0 3258.5
  vertex 347500.0 5678500.0 3045.199951171875
 endloop
endfacet
facet normal 0.4980403780937195 0.32661816477775574 -0.8032909035682678
 outer loop
  vertex 347500.0 5679500.0 3045.10009765625
  vertex 348500.0 5679500.0 3665.10009765625
  vertex 348500.0 5678500.0 3258.5
 endloop
endfacet
facet normal 0.10738827288150787 0.37447723746299744 -0.9209964871406555
 outer loop
  vertex 348500.0 5679500.0 3665.10009765625
  vertex 349500.0 5678500.0 3375.10009765625
  vertex 348500.0 5678500.0 3258.5
 endloop
endfacet
facet normal -0.11640037596225739 0.16750262677669525 -0.9789758920669556
 outer loop
  vertex 348500.0 5679500.0 3665.10009765625
  vertex 349500.0 5679500.0 3546.199951171875
  vertex 349500.0 5678500.0 3375.10009765625
 endloop
endfacet
facet normal -0.10798653215169907 0.1676628589630127 -0.979912281036377
 outer loop
  vertex 349500.0 5679500.0 3546.199951171875
  vertex 350500.0 5678500.0 3264.89990234375
  vertex 349500.0 5678500.0 3375.10009765625
 endloop
endfacet
facet normal 0.026266662403941154 0.29495078325271606 -0.9551513195037842
 outer loop
  vertex 349500.0 5679500.0 3546.199951171875
  vertex 350500.0 5679500.0 3573.699951171875
  vertex 350500.0 5678500.0 3264.89990234375
 endloop
endfacet
facet normal 0.240048348903656 0.28642553091049194 -0.9275436401367188
 outer loop
  vertex 350500.0 5679500.0 3573.699951171875
  vertex 351500.0 5678500.0 3523.699951171875
  vertex 350500.0 5678500.0 3264.89990234375
 endloop
endfacet
facet normal 0.13727998733520508 0.18592630326747894 -0.9729263186454773
 outer loop
  vertex 350500.0 5679500.0 3573.699951171875
  vertex 351500.0 5679500.0 3714.800048828125
  vertex 351500.0 5678500.0 3523.699951171875
 endloop
endfacet
facet normal 0.3712819516658783 0.17428642511367798 -0.9120163917541504
 outer loop
  vertex 351500.0 5679500.0 3714.800048828125
  vertex 352500.0 5678500.0 3930.800048828125
  vertex 351500.0 5678500.0 3523.699951171875
 endloop
endfacet
facet normal 0.07733579725027084 -0.13600419461727142 -0.9876851439476013
 outer loop
  vertex 351500.0 5679500.0 3714.800048828125
  vertex 352500.0 5679500.0 3793.10009765625
  vertex 352500.0 5678500.0 3930.800048828125
 endloop
endfacet
facet normal -0.1178530901670456 -0.13546209037303925 -0.9837483167648315
 outer loop
  vertex 352500.0 5679500.0 3793.10009765625
  vertex 353500.0 5678500.0 3811.0
  vertex 352500.0 5678500.0 3930.800048828125
 endloop
endfacet
facet normal -0.12584498524665833 -0.14341604709625244 -0.9816287159919739
 outer loop
  vertex 352500.0 5679500.0 3793.10009765625
  vertex 353500.0 5679500.0 3664.89990234375
  vertex 353500.0 5678500.0 3811.0
 endloop
endfacet
facet normal 0.1761990636587143 -0.14230355620384216 -0.974014163017273
 outer loop
  vertex 353500.0 5679500.0 3664.89990234375
  vertex 354500.0 5678500.0 3991.89990234375
  vertex 353500.0 5678500.0 3811.0
 endloop
endfacet
facet normal 0.4325760304927826 0.14140212535858154 -0.890440046787262
 outer loop
  vertex 353500.0 5679500.0 3664.89990234375
  vertex 354500.0 5679500.0 4150.7001953125
  vertex 354500.0 5678500.0 3991.89990234375
 endloop
endfacet
facet normal -0.08377929031848907 -0.024406543001532555 -0.9961854219436646
 outer loop
  vertex 341500.0 5680500.0 2987.800048828125
  vertex 342500.0 5679500.0 2928.199951171875
  vertex 341500.0 5679500.0 3012.300048828125
 endloop
endfacet
facet normal -0.013284643180668354 0.04624641686677933 -0.9988417029380798
 outer loop
  vertex 341500.0 5680500.0 2987.800048828125
  vertex 342500.0 5680500.0 2974.5
  vertex 342500.0 5679500.0 2928.199951171875
 endloop
endfacet
facet normal 0.08954254537820816 0.04606471210718155 -0.9949171543121338
 outer loop
  vertex 342500.0 5680500.0 2974.5
  vertex 343500.0 5679500.0 3018.199951171875
  vertex 342500.0 5679500.0 2928.199951171875
 endloop
endfacet
facet normal 0.05859251692891121 0.014972546137869358 -0.9981697201728821
 outer loop
  vertex 342500.0 5680500.0 2974.5
  vertex 343500.0 5680500.0 3033.199951171875
  vertex 343500.0 5679500.0 3018.199951171875
 endloop
endfacet
facet normal 0.021492615342140198 0.014994848519563675 -0.9996565580368042
 outer loop
  vertex 343500.0 5680500.0 3033.199951171875
  vertex 344500.0 5679500.0 3039.699951171875
  vertex 343500.0 5679500.0 3018.199951171875
 endloop
endfacet
facet normal -0.0006999328616075218 -0.0071997628547251225 -0.9999738931655884
 outer loop
  vertex 343500.0 5680500.0 3033.199951171875
  vertex 344500.0 5680500.0 3032.5
  vertex 344500.0 5679500.0 3039.699951171875
 endloop
endfacet
facet normal -0.008799480274319649 -0.007199485786259174 -0.9999353885650635
 outer loop
  vertex 344500.0 5680500.0 3032.5
  vertex 345500.0 5679500.0 3030.89990234375
  vertex 344500.0 5679500.0 3039.699951171875
 endloop
endfacet
facet normal -0.005399784538894892 -0.0037997218314558268 -0.9999781847000122
 outer loop
  vertex 344500.0 5680500.0 3032.5
  vertex 345500.0 5680500.0 3027.10009765625
  vertex 345500.0 5679500.0 3030.89990234375
 endloop
endfacet
facet normal 0.014298482798039913 -0.003799388650804758 -0.9998905062675476
 outer loop
  vertex 345500.0 5680500.0 3027.10009765625
  vertex 346500.0 5679500.0 3045.199951171875
  vertex 345500.0 5679500.0 3030.89990234375
 endloop
endfacet
facet normal -0.0009998171590268612 -0.019096361473202705 -0.9998171329498291
 outer loop
  vertex 345500.0 5680500.0 3027.10009765625
  vertex 346500.0 5680500.0 3026.10009765625
  vertex 346500.0 5679500.0 3045.199951171875
 endloop
endfacet
facet normal -9.983530617319047e-05 -0.01909637078642845 -0.9998176693916321
 outer loop
  vertex 346500.0 5680500.0 3026.10009765625
  vertex 347500.0 5679500.0 3045.10009765625
  vertex 346500.0 5679500.0 3045.199951171875
 endloop
endfacet
facet normal 0.00639926316216588 -0.012598839588463306 -0.9999001622200012
 outer loop
  vertex 346500.0 5680500.0 3026.10009765625
  vertex 347500.0 5680500.0 3032.5
  vertex 347500.0 5679500.0 3045.10009765625
 endloop
endfacet
facet normal 0.5269094705581665 -0.010708242654800415 -0.8498539924621582
 outer loop
  vertex 347500.0 5680500.0 3032.5
  vertex 348500.0 5679500.0 3665.10009765625
  vertex 347500.0 5679500.0 3045.10009765625
 endloop
endfacet
facet normal 0.5266619920730591 -0.011050039902329445 -0.8500030636787415
 outer loop
  vertex 347500.0 5680500.0 3032.5
  vertex 348500.0 5680500.0 3652.10009765625
  vertex 348500.0 5679500.0 3665.10009765625
 endloop
endfacet
facet normal -0.11805865913629532 -0.012907994911074638 -0.9929227232933044
 outer loop
  vertex 348500.0 5680500.0 3652.10009765625
  vertex 349500.0 5679500.0 3546.199951171875
  vertex 348500.0 5679500.0 3665.10009765625
 endloop
endfacet
facet normal 0.0635521411895752 0.167734757065773 -0.9837815761566162
 outer loop
  vertex 348500.0 5680500.0 3652.10009765625
  vertex 349500.0 5680500.0 3716.699951171875
  vertex 349500.0 5679500.0 3546.199951171875
 endloop
endfacet
facet normal 0.02709883637726307 0.168012797832489 -0.9854122400283813
 outer loop
  vertex 349500.0 5680500.0 3716.699951171875
  vertex 350500.0 5679500.0 3573.699951171875
  vertex 349500.0 5679500.0 3546.199951171875
 endloop
endfacet
facet normal 0.036781128495931625 0.17741429805755615 -0.9834486842155457
 outer loop
  vertex 349500.0 5680500.0 3716.699951171875
  vertex 350500.0 5680500.0 3754.10009765625
  vertex 350500.0 5679500.0 3573.699951171875
 endloop
endfacet
facet normal 0.13753899931907654 0.17584718763828278 -0.9747619032859802
 outer loop
  vertex 350500.0 5680500.0 3754.10009765625
  vertex 351500.0 5679500.0 3714.800048828125
  vertex 350500.0 5679500.0 3573.699951171875
 endloop
endfacet
facet normal 0.06735975295305252 0.10634715855121613 -0.9920448660850525
 outer loop
  vertex 350500.0 5680500.0 3754.10009765625
  vertex 351500.0 5680500.0 3822.0
  vertex 351500.0 5679500.0 3714.800048828125
 endloop
endfacet
facet normal 0.07761910557746887 0.10626768320798874 -0.9913034439086914
 outer loop
  vertex 351500.0 5680500.0 3822.0
  vertex 352500.0 5679500.0 3793.10009765625
  vertex 351500.0 5679500.0 3714.800048828125
 endloop
endfacet
facet normal 0.09270093590021133 0.12126220017671585 -0.9882823824882507
 outer loop
  vertex 351500.0 5680500.0 3822.0
  vertex 352500.0 5680500.0 3915.800048828125
  vertex 352500.0 5679500.0 3793.10009765625
 endloop
endfacet
facet normal -0.12622809410095215 0.12081246823072433 -0.9846170544624329
 outer loop
  vertex 352500.0 5680500.0 3915.800048828125
  vertex 353500.0 5679500.0 3664.89990234375
  vertex 352500.0 5679500.0 3793.10009765625
 endloop
endfacet
facet normal 0.05064496025443077 0.29039639234542847 -0.9555652737617493
 outer loop
  vertex 352500.0 5680500.0 3915.800048828125
  vertex 353500.0 5680500.0 3968.800048828125
  vertex 353500.0 5679500.0 3664.89990234375
 endloop
endfacet
facet normal 0.42150264978408813 0.2636777460575104 -0.8676459193229675
 outer loop
  vertex 353500.0 5680500.0 3968.800048828125
  vertex 354500.0 5679500.0 4150.7001953125
  vertex 353500.0 5679500.0 3664.89990234375
 endloop
endfacet
facet normal -0.12585023045539856 -0.29797181487083435 -0.9462423324584961
 outer loop
  vertex 353500.0 5680500.0 3968.800048828125
  vertex 354500.0 5680500.0 3835.800048828125
  vertex 354500.0 5679500.0 4150.7001953125
 endloop
endfacet
facet normal 0.008899780921638012 -0.0016998813953250647 -0.9999589323997498
 outer loop
  vertex 340500.0 5681500.0 2977.199951171875
  vertex 341500.0 5681500.0 2986.10009765625
  vertex 341500.0 5680500.0 2987.800048828125
 endloop
endfacet
facet normal -0.013298853300511837 -0.001699798391200602 -0.9999101161956787
 outer loop
  vertex 341500.0 5681500.0 2986.10009765625
  vertex 342500.0 5680500.0 2974.5
  vertex 341500.0 5680500.0 2987.800048828125
 endloop
endfacet
facet normal 0.003099503694102168 0.014698292128741741 -0.9998871088027954
 outer loop
  vertex 341500.0 5681500.0 2986.10009765625
  vertex 342500.0 5681500.0 2989.199951171875
  vertex 342500.0 5680500.0 2974.5
 endloop
endfacet
facet normal 0.0585927776992321 0.014673111028969288 -0.9981741309165955
 outer loop
  vertex 342500.0 5681500.0 2989.199951171875
  vertex 343500.0 5680500.0 3033.199951171875
  vertex 342500.0 5680500.0 2974.5
 endloop
endfacet
facet normal 0.04644966125488281 0.0024972937535494566 -0.9989174604415894
 outer loop
  vertex 342500.0 5681500.0 2989.199951171875
  vertex 343500.0 5681500.0 3035.699951171875
  vertex 343500.0 5680500.0 3033.199951171875
 endloop
endfacet
facet normal -0.0006999488105066121 0.002499991562217474 -0.9999966025352478
 outer loop
  vertex 343500.0 5681500.0 3035.699951171875
  vertex 344500.0 5680500.0 3032.5
  vertex 343500.0 5680500.0 3033.199951171875
 endloop
endfacet
facet normal -0.018894199281930923 -0.01569521427154541 -0.999698281288147
 outer loop
  vertex 343500.0 5681500.0 3035.699951171875
  vertex 344500.0 5681500.0 3016.800048828125
  vertex 344500.0 5680500.0 3032.5
 endloop
endfacet
facet normal -0.005399158224463463 -0.015697788447141647 -0.9998621940612793
 outer loop
  vertex 344500.0 5681500.0 3016.800048828125
  vertex 345500.0 5680500.0 3027.10009765625
  vertex 344500.0 5680500.0 3032.5
 endloop
endfacet
facet normal 0.01209894847124815 0.001799670048058033 -0.9999251961708069
 outer loop
  vertex 344500.0 5681500.0 3016.800048828125
  vertex 345500.0 5681500.0 3028.89990234375
  vertex 345500.0 5680500.0 3027.10009765625
 endloop
endfacet
facet normal -0.0009999978356063366 0.0017998008988797665 -0.9999978542327881
 outer loop
  vertex 345500.0 5681500.0 3028.89990234375
  vertex 346500.0 5680500.0 3026.10009765625
  vertex 345500.0 5680500.0 3027.10009765625
 endloop
endfacet
facet normal 0.001600080169737339 0.004399854224175215 -0.9999890923500061
 outer loop
  vertex 345500.0 5681500.0 3028.89990234375
  vertex 346500.0 5681500.0 3030.5
  vertex 346500.0 5680500.0 3026.10009765625
 endloop
endfacet
facet normal 0.006399709731340408 0.004399769939482212 -0.9999698996543884
 outer loop
  vertex 346500.0 5681500.0 3030.5
  vertex 347500.0 5680500.0 3032.5
  vertex 346500.0 5680500.0 3026.10009765625
 endloop
endfacet
facet normal 0.025384768843650818 0.02338596060872078 -0.9994041919708252
 outer loop
  vertex 346500.0 5681500.0 3030.5
  vertex 347500.0 5681500.0 3055.89990234375
  vertex 347500.0 5680500.0 3032.5
 endloop
endfacet
facet normal 0.5265899300575256 0.019887268543243408 -0.8498868346214294
 outer loop
  vertex 347500.0 5681500.0 3055.89990234375
  vertex 348500.0 5680500.0 3652.10009765625
  vertex 347500.0 5680500.0 3032.5
 endloop
endfacet
facet normal 0.22888219356536865 -0.31936824321746826 -0.9195743799209595
 outer loop
  vertex 347500.0 5681500.0 3055.89990234375
  vertex 348500.0 5681500.0 3304.800048828125
  vertex 348500.0 5680500.0 3652.10009765625
 endloop
endfacet
facet normal 0.060910988599061966 -0.3274681270122528 -0.942896842956543
 outer loop
  vertex 348500.0 5681500.0 3304.800048828125
  vertex 349500.0 5680500.0 3716.699951171875
  vertex 348500.0 5680500.0 3652.10009765625
 endloop
endfacet
facet normal 0.23724888265132904 -0.15759067237377167 -0.9585813283920288
 outer loop
  vertex 348500.0 5681500.0 3304.800048828125
  vertex 349500.0 5681500.0 3552.300048828125
  vertex 349500.0 5680500.0 3716.699951171875
 endloop
endfacet
facet normal 0.03687964379787445 -0.16211195290088654 -0.9860829710960388
 outer loop
  vertex 349500.0 5681500.0 3552.300048828125
  vertex 350500.0 5680500.0 3754.10009765625
  vertex 349500.0 5680500.0 3716.699951171875
 endloop
endfacet
facet normal 0.1858876347541809 -0.012379503808915615 -0.9824930429458618
 outer loop
  vertex 349500.0 5681500.0 3552.300048828125
  vertex 350500.0 5681500.0 3741.5
  vertex 350500.0 5680500.0 3754.10009765625
 endloop
endfacet
facet normal 0.06773857027292252 -0.012570158578455448 -0.9976239204406738
 outer loop
  vertex 350500.0 5681500.0 3741.5
  vertex 351500.0 5680500.0 3822.0
  vertex 350500.0 5680500.0 3754.10009765625
 endloop
endfacet
facet normal 0.056806668639183044 0.006888596341013908 -0.9983614683151245
 outer loop
  vertex 339500.0 5682500.0 2927.199951171875
  vertex 340500.0 5681500.0 2977.199951171875
  vertex 339500.0 5681500.0 2920.300048828125
 endloop
endfacet
facet normal 0.03627275675535202 -0.013689653016626835 -0.999248206615448
 outer loop
  vertex 339500.0 5682500.0 2927.199951171875
  vertex 340500.0 5682500.0 2963.5
  vertex 340500.0 5681500.0 2977.199951171875
 endloop
endfacet
facet normal 0.008898959495127201 -0.013698123395442963 -0.9998666048049927
 outer loop
  vertex 340500.0 5682500.0 2963.5
  vertex 341500.0 5681500.0 2986.10009765625
  vertex 340500.0 5681500.0 2977.199951171875
 endloop
endfacet
facet normal 0.03447704762220383 0.011891985312104225 -0.9993346929550171
 outer loop
  vertex 340500.0 5682500.0 2963.5
  vertex 341500.0 5682500.0 2998.0
  vertex 341500.0 5681500.0 2986.10009765625
 endloop
endfacet
facet normal 0.003099619410932064 0.011899002827703953 -0.9999244213104248
 outer loop
  vertex 341500.0 5682500.0 2998.0
  vertex 342500.0 5681500.0 2989.199951171875
  vertex 341500.0 5681500.0 2986.10009765625
 endloop
endfacet
facet normal -0.013498621061444283 -0.004699470940977335 -0.999897837638855
 outer loop
  vertex 341500.0 5682500.0 2998.0
  vertex 342500.0 5682500.0 2984.5
  vertex 342500.0 5681500.0 2989.199951171875
 endloop
endfacet
facet normal 0.04644929617643356 -0.004694826435297728 -0.9989096522331238
 outer loop
  vertex 342500.0 5682500.0 2984.5
  vertex 343500.0 5681500.0 3035.699951171875
  vertex 342500.0 5681500.0 2989.199951171875
 endloop
endfacet
facet normal 0.03537333384156227 -0.015788191929459572 -0.9992494583129883
 outer loop
  vertex 342500.0 5682500.0 2984.5
  vertex 343500.0 5682500.0 3019.89990234375
  vertex 343500.0 5681500.0 3035.699951171875
 endloop
endfacet
facet normal -0.018894169479608536 -0.015795256942510605 -0.9996967315673828
 outer loop
  vertex 343500.0 5682500.0 3019.89990234375
  vertex 344500.0 5681500.0 3016.800048828125
  vertex 343500.0 5681500.0 3035.699951171875
 endloop
endfacet
facet normal 0.008199396543204784 0.011298947967588902 -0.9999025464057922
 outer loop
  vertex 343500.0 5682500.0 3019.89990234375
  vertex 344500.0 5682500.0 3028.10009765625
  vertex 344500.0 5681500.0 3016.800048828125
 endloop
endfacet
facet normal 0.01209819596260786 0.011298500932753086 -0.9998630285263062
 outer loop
  vertex 344500.0 5682500.0 3028.10009765625
  vertex 345500.0 5681500.0 3028.89990234375
  vertex 344500.0 5681500.0 3016.800048828125
 endloop
endfacet
facet normal 0.00029980464023537934 -0.0004999999073334038 -0.9999998211860657
 outer loop
  vertex 344500.0 5682500.0 3028.10009765625
  vertex 345500.0 5682500.0 3028.39990234375
  vertex 345500.0 5681500.0 3028.89990234375
 endloop
endfacet
facet normal 0.0016000953037291765 -0.0004999992670491338 -0.9999985694885254
 outer loop
  vertex 345500.0 5682500.0 3028.39990234375
  vertex 346500.0 5681500.0 3030.5
  vertex 345500.0 5681500.0 3028.89990234375
 endloop
endfacet
facet normal 0.009899360127747059 0.007799429353326559 -0.9999205470085144
 outer loop
  vertex 345500.0 5682500.0 3028.39990234375
  vertex 346500.0 5682500.0 3038.300048828125
  vertex 346500.0 5681500.0 3030.5
 endloop
endfacet
facet normal 0.02539094164967537 0.007797297090291977 -0.9996472001075745
 outer loop
  vertex 346500.0 5682500.0 3038.300048828125
  vertex 347500.0 5681500.0 3055.89990234375
  vertex 346500.0 5681500.0 3030.5
 endloop
endfacet
facet normal 0.17358139157295227 -0.35798874497413635 -0.9174494743347168
 outer loop
  vertex 349500.0 5682500.0 3162.10009765625
  vertex 350500.0 5681500.0 3741.5
  vertex 349500.0 5681500.0 3552.300048828125
 endloop
endfacet
facet normal 0.034479137510061264 -0.004497278947383165 -0.9993953108787537
 outer loop
  vertex 340500.0 5683500.0 2959.0
  vertex 341500.0 5682500.0 2998.0
  vertex 340500.0 5682500.0 2963.5
 endloop
endfacet
facet normal 0.036974627524614334 -0.0019986284896731377 -0.9993142485618591
 outer loop
  vertex 340500.0 5683500.0 2959.0
  vertex 341500.0 5683500.0 2996.0
  vertex 341500.0 5682500.0 2998.0
 endloop
endfacet
facet normal -0.013498743064701557 -0.0019998138304799795 -0.9999068975448608
 outer loop
  vertex 341500.0 5683500.0 2996.0
  vertex 342500.0 5682500.0 2984.5
  vertex 341500.0 5682500.0 2998.0
 endloop
endfacet
facet normal -0.000999944400973618 0.010499415919184685 -0.9999443888664246
 outer loop
  vertex 341500.0 5683500.0 2996.0
  vertex 342500.0 5683500.0 2995.0
  vertex 342500.0 5682500.0 2984.5
 endloop
endfacet
facet normal 0.035375792533159256 0.010492849163711071 -0.9993189573287964
 outer loop
  vertex 342500.0 5683500.0 2995.0
  vertex 343500.0 5682500.0 3019.89990234375
  vertex 342500.0 5682500.0 2984.5
 endloop
endfacet
facet normal 0.013597971759736538 -0.011298038996756077 -0.9998437166213989
 outer loop
  vertex 342500.0 5683500.0 2995.0
  vertex 343500.0 5683500.0 3008.60009765625
  vertex 343500.0 5682500.0 3019.89990234375
 endloop
endfacet
facet normal 0.008199396543204784 -0.011298703961074352 -0.9999025464057922
 outer loop
  vertex 343500.0 5683500.0 3008.60009765625
  vertex 344500.0 5682500.0 3028.10009765625
  vertex 343500.0 5682500.0 3019.89990234375
 endloop
endfacet
facet normal 0.011698794551193714 -0.007799277547746897 -0.9999011158943176
 outer loop
  vertex 343500.0 5683500.0 3008.60009765625
  vertex 344500.0 5683500.0 3020.300048828125
  vertex 344500.0 5682500.0 3028.10009765625
 endloop
endfacet
facet normal 0.0002997955307364464 -0.007799810729920864 -0.999969482421875
 outer loop
  vertex 344500.0 5683500.0 3020.300048828125
  vertex 345500.0 5682500.0 3028.39990234375
  vertex 344500.0 5682500.0 3028.10009765625
 endloop
endfacet
facet normal -0.0019000479951500893 -0.009999481961131096 -0.9999482035636902
 outer loop
  vertex 344500.0 5683500.0 3020.300048828125
  vertex 345500.0 5683500.0 3018.39990234375
  vertex 345500.0 5682500.0 3028.39990234375
 endloop
endfacet
facet normal 0.009899166412651539 -0.009999009780585766 -0.9999009966850281
 outer loop
  vertex 345500.0 5683500.0 3018.39990234375
  vertex 346500.0 5682500.0 3038.300048828125
  vertex 345500.0 5682500.0 3028.39990234375
 endloop
endfacet
facet normal -0.0009985500946640968 -0.05382174998521805 -0.9985500574111938
 outer loop
  vertex 341500.0 5684500.0 2942.10009765625
  vertex 342500.0 5683500.0 2995.0
  vertex 341500.0 5683500.0 2996.0
 endloop
endfacet
facet normal -0.023624373599886894 -0.07635503262281418 -0.9968007802963257
 outer loop
  vertex 341500.0 5684500.0 2942.10009765625
  vertex 342500.0 5684500.0 2918.39990234375
  vertex 342500.0 5683500.0 2995.0
 endloop
endfacet
facet normal 0.013559130020439625 -0.07636933028697968 -0.9969874024391174
 outer loop
  vertex 342500.0 5684500.0 2918.39990234375
  vertex 343500.0 5683500.0 3008.60009765625
  vertex 342500.0 5683500.0 2995.0
 endloop
endfacet
facet normal 0.09023052453994751 0.0003982671769335866 -0.9959208369255066
 outer loop
  vertex 342500.0 5684500.0 2918.39990234375
  vertex 343500.0 5684500.0 3009.0
  vertex 343500.0 5683500.0 3008.60009765625
 endloop
endfacet
facet normal 0.011699149385094643 0.00039987495983950794 -0.9999315142631531
 outer loop
  vertex 343500.0 5684500.0 3009.0
  vertex 344500.0 5683500.0 3020.300048828125
  vertex 343500.0 5683500.0 3008.60009765625
 endloop
endfacet
facet normal 0.012698914855718613 0.001399788074195385 -0.9999184012413025
 outer loop
  vertex 343500.0 5684500.0 3009.0
  vertex 344500.0 5684500.0 3021.699951171875
  vertex 344500.0 5683500.0 3020.300048828125
 endloop
endfacet
facet normal -0.0019001411274075508 0.001399898435920477 -0.9999971985816956
 outer loop
  vertex 344500.0 5684500.0 3021.699951171875
  vertex 345500.0 5683500.0 3018.39990234375
  vertex 344500.0 5683500.0 3020.300048828125
 endloop
endfacet
facet normal -0.002399894641712308 0.0009001435828395188 -0.9999967217445374
 outer loop
  vertex 344500.0 5684500.0 3021.699951171875
  vertex 345500.0 5684500.0 3019.300048828125
  vertex 345500.0 5683500.0 3018.39990234375
 endloop
endfacet
facet normal -0.02368275076150894 -0.030177965760231018 -0.9992639422416687
 outer loop
  vertex 341500.0 5685500.0 2911.89990234375
  vertex 342500.0 5684500.0 2918.39990234375
  vertex 341500.0 5684500.0 2942.10009765625
 endloop
endfacet
facet normal 0.10169822722673416 0.09526164084672928 -0.9902437329292297
 outer loop
  vertex 341500.0 5685500.0 2911.89990234375
  vertex 342500.0 5685500.0 3014.60009765625
  vertex 342500.0 5684500.0 2918.39990234375
 endloop
endfacet
facet normal 0.08981923758983612 0.0953710749745369 -0.9913812875747681
 outer loop
  vertex 342500.0 5685500.0 3014.60009765625
  vertex 343500.0 5684500.0 3009.0
  vertex 342500.0 5684500.0 2918.39990234375
 endloop
endfacet
facet normal -0.002700173994526267 0.002899879589676857 -0.9999921321868896
 outer loop
  vertex 342500.0 5685500.0 3014.60009765625
  vertex 343500.0 5685500.0 3011.89990234375
  vertex 343500.0 5684500.0 3009.0
 endloop
endfacet
facet normal 0.01269887387752533 0.002899656305089593 -0.9999151825904846
 outer loop
  vertex 343500.0 5685500.0 3011.89990234375
  vertex 344500.0 5684500.0 3021.699951171875
  vertex 343500.0 5684500.0 3009.0
 endloop
endfacet
facet normal -0.005999143235385418 -0.015797792002558708 -0.9998571872711182
 outer loop
  vertex 343500.0 5685500.0 3011.89990234375
  vertex 344500.0 5685500.0 3005.89990234375
  vertex 344500.0 5684500.0 3021.699951171875
 endloop
endfacet
facet normal -0.0023995959199965 -0.01579803228378296 -0.9998723268508911
 outer loop
  vertex 344500.0 5685500.0 3005.89990234375
  vertex 345500.0 5684500.0 3019.300048828125
  vertex 344500.0 5684500.0 3021.699951171875
 endloop
endfacet
facet normal 0.014998293481767178 0.0015996715519577265 -0.9998862743377686
 outer loop
  vertex 344500.0 5685500.0 3005.89990234375
  vertex 345500.0 5685500.0 3020.89990234375
  vertex 345500.0 5684500.0 3019.300048828125
 endloop
endfacet
facet normal -0.0027001823764294386 -0.0014999927952885628 -0.9999951720237732
 outer loop
  vertex 342500.0 5686500.0 3013.10009765625
  vertex 343500.0 5685500.0 3011.89990234375
  vertex 342500.0 5685500.0 3014.60009765625
 endloop
endfacet
facet normal -0.005899978801608086 -0.004699817392975092 -0.9999715685844421
 outer loop
  vertex 342500.0 5686500.0 3013.10009765625
  vertex 343500.0 5686500.0 3007.199951171875
  vertex 343500.0 5685500.0 3011.89990234375
 endloop
endfacet
facet normal -0.005999825894832611 -0.004699815064668655 -0.9999709725379944
 outer loop
  vertex 343500.0 5686500.0 3007.199951171875
  vertex 344500.0 5685500.0 3005.89990234375
  vertex 343500.0 5685500.0 3011.89990234375
 endloop
endfacet
facet normal -0.001599851413629949 -0.00029980429098941386 -0.9999986886978149
 outer loop
  vertex 343500.0 5686500.0 3007.199951171875
  vertex 344500.0 5686500.0 3005.60009765625
  vertex 344500.0 5685500.0 3005.89990234375
 endloop
endfacet
facet normal 0.01499831210821867 -0.00029977093799971044 -0.9998874664306641
 outer loop
  vertex 344500.0 5686500.0 3005.60009765625
  vertex 345500.0 5685500.0 3020.89990234375
  vertex 344500.0 5685500.0 3005.89990234375
 endloop
endfacet
facet normal 0.009099301882088184 -0.006199575494974852 -0.9999393820762634
 outer loop
  vertex 344500.0 5686500.0 3005.60009765625
  vertex 345500.0 5686500.0 3014.699951171875
  vertex 345500.0 5685500.0 3020.89990234375
 endloop
endfacet
facet normal 0.10737375915050507 -0.005865936167538166 -0.9942014217376709
 outer loop
  vertex 341500.0 5687500.0 2899.199951171875
  vertex 342500.0 5687500.0 3007.199951171875
  vertex 342500.0 5686500.0 3013.10009765625
 endloop
endfacet
facet normal -0.005899941083043814 -0.005899941083043814 -0.9999651908874512
 outer loop
  vertex 342500.0 5687500.0 3007.199951171875
  vertex 343500.0 5686500.0 3007.199951171875
  vertex 342500.0 5686500.0 3013.10009765625
 endloop
endfacet
facet normal 0.0069996570236980915 0.0069996570236980915 -0.9999510049819946
 outer loop
  vertex 342500.0 5687500.0 3007.199951171875
  vertex 343500.0 5687500.0 3014.199951171875
  vertex 343500.0 5686500.0 3007.199951171875
 endloop
endfacet
facet normal -0.0015998121816664934 0.006999819539487362 -0.9999741911888123
 outer loop
  vertex 343500.0 5687500.0 3014.199951171875
  vertex 344500.0 5686500.0 3005.60009765625
  vertex 343500.0 5686500.0 3007.199951171875
 endloop
endfacet
facet normal -0.013298725709319115 -0.0046997275203466415 -0.9999005198478699
 outer loop
  vertex 343500.0 5687500.0 3014.199951171875
  vertex 344500.0 5687500.0 3000.89990234375
  vertex 344500.0 5686500.0 3005.60009765625
 endloop
endfacet
facet normal 0.009099376387894154 -0.004699948709458113 -0.9999475479125977
 outer loop
  vertex 344500.0 5687500.0 3000.89990234375
  vertex 345500.0 5686500.0 3014.699951171875
  vertex 344500.0 5686500.0 3005.60009765625
 endloop
endfacet
facet normal -0.0349370576441288 -0.04871228709816933 -0.9982016086578369
 outer loop
  vertex 344500.0 5687500.0 3000.89990234375
  vertex 345500.0 5687500.0 2965.89990234375
  vertex 345500.0 5686500.0 3014.699951171875
 endloop
endfacet
facet normal 0.014880790375173092 -0.04873664677143097 -0.9987007975578308
 outer loop
  vertex 345500.0 5687500.0 2965.89990234375
  vertex 346500.0 5686500.0 3029.60009765625
  vertex 345500.0 5686500.0 3014.699951171875
 endloop
endfacet
facet normal 0.045046523213386536 -0.018578002229332924 -0.9988120794296265
 outer loop
  vertex 345500.0 5687500.0 2965.89990234375
  vertex 346500.0 5687500.0 3011.0
  vertex 346500.0 5686500.0 3029.60009765625
 endloop
endfacet
facet normal 0.10681159049272537 0.10236110538244247 -0.9889962077140808
 outer loop
  vertex 341500.0 5688500.0 3002.699951171875
  vertex 342500.0 5687500.0 3007.199951171875
  vertex 341500.0 5687500.0 2899.199951171875
 endloop
endfacet
facet normal 0.0011000906815752387 -0.003399880602955818 -0.999993622303009
 outer loop
  vertex 341500.0 5688500.0 3002.699951171875
  vertex 342500.0 5688500.0 3003.800048828125
  vertex 342500.0 5687500.0 3007.199951171875
 endloop
endfacet
facet normal 0.006999788340181112 -0.0033997995778918266 -0.9999697804450989
 outer loop
  vertex 342500.0 5688500.0 3003.800048828125
  vertex 343500.0 5687500.0 3014.199951171875
  vertex 342500.0 5687500.0 3007.199951171875
 endloop
endfacet
facet normal -0.0035997217055410147 -0.013998538255691528 -0.9998955726623535
 outer loop
  vertex 342500.0 5688500.0 3003.800048828125
  vertex 343500.0 5688500.0 3000.199951171875
  vertex 343500.0 5687500.0 3014.199951171875
 endloop
endfacet
facet normal -0.013297569938004017 -0.013997389934957027 -0.9998136162757874
 outer loop
  vertex 343500.0 5688500.0 3000.199951171875
  vertex 344500.0 5687500.0 3000.89990234375
  vertex 343500.0 5687500.0 3014.199951171875
 endloop
endfacet
facet normal 0.0054000080563127995 0.004700074903666973 -0.9999743700027466
 outer loop
  vertex 343500.0 5688500.0 3000.199951171875
  vertex 344500.0 5688500.0 3005.60009765625
  vertex 344500.0 5687500.0 3000.89990234375
 endloop
endfacet
facet normal -0.034978196024894714 0.0046972669661045074 -0.9993770122528076
 outer loop
  vertex 344500.0 5688500.0 3005.60009765625
  vertex 345500.0 5687500.0 2965.89990234375
  vertex 344500.0 5687500.0 3000.89990234375
 endloop
endfacet
facet normal -0.0034976876340806484 0.036176279187202454 -0.9993392825126648
 outer loop
  vertex 344500.0 5688500.0 3005.60009765625
  vertex 345500.0 5688500.0 3002.10009765625
  vertex 345500.0 5687500.0 2965.89990234375
 endloop
endfacet
facet normal 0.04502486810088158 0.03613980859518051 -0.9983319044113159
 outer loop
  vertex 345500.0 5688500.0 3002.10009765625
  vertex 346500.0 5687500.0 3011.0
  vertex 345500.0 5687500.0 2965.89990234375
 endloop
endfacet
facet normal 0.013698508962988853 0.004799543414264917 -0.9998946785926819
 outer loop
  vertex 345500.0 5688500.0 3002.10009765625
  vertex 346500.0 5688500.0 3015.800048828125
  vertex 346500.0 5687500.0 3011.0
 endloop
endfacet
facet normal 0.0010987772839143872 -0.049040745943784714 -0.9987962245941162
 outer loop
  vertex 341500.0 5689500.0 2953.60009765625
  vertex 342500.0 5688500.0 3003.800048828125
  vertex 341500.0 5688500.0 3002.699951171875
 endloop
endfacet
facet normal 0.0006990950205363333 -0.049439456313848495 -0.9987768530845642
 outer loop
  vertex 341500.0 5689500.0 2953.60009765625
  vertex 342500.0 5689500.0 2954.300048828125
  vertex 342500.0 5688500.0 3003.800048828125
 endloop
endfacet
facet normal -0.0035956718493252993 -0.04943914711475372 -0.9987706542015076
 outer loop
  vertex 342500.0 5689500.0 2954.300048828125
  vertex 343500.0 5688500.0 3000.199951171875
  vertex 342500.0 5688500.0 3003.800048828125
 endloop
endfacet
facet normal 0.045851629227399826 0.0 -0.9989482760429382
 outer loop
  vertex 342500.0 5689500.0 2954.300048828125
  vertex 343500.0 5689500.0 3000.199951171875
  vertex 343500.0 5688500.0 3000.199951171875
 endloop
endfacet
facet normal 0.005400067660957575 0.0 -0.9999854564666748
 outer loop
  vertex 343500.0 5689500.0 3000.199951171875
  vertex 344500.0 5688500.0 3005.60009765625
  vertex 343500.0 5688500.0 3000.199951171875
 endloop
endfacet
facet normal -0.008498871698975563 -0.013898301869630814 -0.9998672604560852
 outer loop
  vertex 343500.0 5689500.0 3000.199951171875
  vertex 344500.0 5689500.0 2991.699951171875
  vertex 344500.0 5688500.0 3005.60009765625
 endloop
endfacet
facet normal -0.0034996403846889734 -0.013898718170821667 -0.9998972415924072
 outer loop
  vertex 344500.0 5689500.0 2991.699951171875
  vertex 345500.0 5688500.0 3002.10009765625
  vertex 344500.0 5688500.0 3005.60009765625
 endloop
endfacet
facet normal 0.010999332182109356 0.0005998171400278807 -0.9999393224716187
 outer loop
  vertex 344500.0 5689500.0 2991.699951171875
  vertex 345500.0 5689500.0 3002.699951171875
  vertex 345500.0 5688500.0 3002.10009765625
 endloop
endfacet
facet normal 0.01369866356253624 0.0005997971165925264 -0.9999060034751892
 outer loop
  vertex 345500.0 5689500.0 3002.699951171875
  vertex 346500.0 5688500.0 3015.800048828125
  vertex 345500.0 5688500.0 3002.10009765625
 endloop
endfacet
facet normal 0.016397852450609207 0.0032995871733874083 -0.9998601078987122
 outer loop
  vertex 345500.0 5689500.0 3002.699951171875
  vertex 346500.0 5689500.0 3019.10009765625
  vertex 346500.0 5688500.0 3015.800048828125
 endloop
endfacet
facet normal 0.04582581669092178 0.03354562446475029 -0.998386025428772
 outer loop
  vertex 342500.0 5690500.0 2987.89990234375
  vertex 343500.0 5689500.0 3000.199951171875
  vertex 342500.0 5689500.0 2954.300048828125
 endloop
endfacet
endsolid
