solid
facet normal 0.006192612927407026 -0.048242878168821335 -0.9988164305686951
 outer loop
  vertex 436500.0 5929500.0 2652.699951171875
  vertex 437500.0 5929500.0 2658.89990234375
  vertex 437500.0 5928500.0 2707.199951171875
 endloop
endfacet
facet normal -0.04410552233457565 -0.048196859657764435 -0.9978636503219604
 outer loop
  vertex 437500.0 5929500.0 2658.89990234375
  vertex 438500.0 5928500.0 2663.0
  vertex 437500.0 5928500.0 2707.199951171875
 endloop
endfacet
facet normal 0.002300039166584611 -0.0018000411801040173 -0.999995768070221
 outer loop
  vertex 437500.0 5929500.0 2658.89990234375
  vertex 438500.0 5929500.0 2661.199951171875
  vertex 438500.0 5928500.0 2663.0
 endloop
endfacet
facet normal -0.00019995085312984884 -0.0018000459531322122 -0.9999983906745911
 outer loop
  vertex 438500.0 5929500.0 2661.199951171875
  vertex 439500.0 5928500.0 2662.800048828125
  vertex 438500.0 5928500.0 2663.0
 endloop
endfacet
facet normal 0.008599569089710712 0.006999569479376078 -0.9999384880065918
 outer loop
  vertex 438500.0 5929500.0 2661.199951171875
  vertex 439500.0 5929500.0 2669.800048828125
  vertex 439500.0 5928500.0 2662.800048828125
 endloop
endfacet
facet normal 0.01919594220817089 0.006998538505285978 -0.9997912049293518
 outer loop
  vertex 439500.0 5929500.0 2669.800048828125
  vertex 440500.0 5928500.0 2682.0
  vertex 439500.0 5928500.0 2662.800048828125
 endloop
endfacet
facet normal -0.0025998041965067387 -0.014798378571867943 -0.9998871088027954
 outer loop
  vertex 439500.0 5929500.0 2669.800048828125
  vertex 440500.0 5929500.0 2667.199951171875
  vertex 440500.0 5928500.0 2682.0
 endloop
endfacet
facet normal 0.0061996434815227985 0.007799661718308926 -0.9999503493309021
 outer loop
  vertex 436500.0 5930500.0 2660.5
  vertex 437500.0 5929500.0 2658.89990234375
  vertex 436500.0 5929500.0 2652.699951171875
 endloop
endfacet
facet normal 0.0008000462548807263 0.002400138881057501 -0.9999968409538269
 outer loop
  vertex 436500.0 5930500.0 2660.5
  vertex 437500.0 5930500.0 2661.300048828125
  vertex 437500.0 5929500.0 2658.89990234375
 endloop
endfacet
facet normal 0.0023000361397862434 0.0024001330602914095 -0.9999944567680359
 outer loop
  vertex 437500.0 5930500.0 2661.300048828125
  vertex 438500.0 5929500.0 2661.199951171875
  vertex 437500.0 5929500.0 2658.89990234375
 endloop
endfacet
facet normal 0.0052998969331383705 0.005399991758167744 -0.9999713897705078
 outer loop
  vertex 437500.0 5930500.0 2661.300048828125
  vertex 438500.0 5930500.0 2666.60009765625
  vertex 438500.0 5929500.0 2661.199951171875
 endloop
endfacet
facet normal 0.008599653840065002 0.00539986789226532 -0.9999484419822693
 outer loop
  vertex 438500.0 5930500.0 2666.60009765625
  vertex 439500.0 5929500.0 2669.800048828125
  vertex 438500.0 5929500.0 2661.199951171875
 endloop
endfacet
facet normal -0.0013000345788896084 -0.00449995044618845 -0.9999889731407166
 outer loop
  vertex 438500.0 5930500.0 2666.60009765625
  vertex 439500.0 5930500.0 2665.300048828125
  vertex 439500.0 5929500.0 2669.800048828125
 endloop
endfacet
facet normal -0.0026000626385211945 -0.0044999392703175545 -0.9999865293502808
 outer loop
  vertex 439500.0 5930500.0 2665.300048828125
  vertex 440500.0 5929500.0 2667.199951171875
  vertex 439500.0 5929500.0 2669.800048828125
 endloop
endfacet
facet normal -0.0003000480937771499 -0.0021999457385390997 -0.9999975562095642
 outer loop
  vertex 439500.0 5930500.0 2665.300048828125
  vertex 440500.0 5930500.0 2665.0
  vertex 440500.0 5929500.0 2667.199951171875
 endloop
endfacet
facet normal 0.00540005462244153 -0.002199913840740919 -0.999983012676239
 outer loop
  vertex 440500.0 5930500.0 2665.0
  vertex 441500.0 5929500.0 2672.60009765625
  vertex 440500.0 5929500.0 2667.199951171875
 endloop
endfacet
facet normal 0.005899791140109301 -0.0017001633532345295 -0.999981164932251
 outer loop
  vertex 440500.0 5930500.0 2665.0
  vertex 441500.0 5930500.0 2670.89990234375
  vertex 441500.0 5929500.0 2672.60009765625
 endloop
endfacet
facet normal 0.0029999820981174707 -0.001700185239315033 -0.9999940395355225
 outer loop
  vertex 441500.0 5930500.0 2670.89990234375
  vertex 442500.0 5929500.0 2675.60009765625
  vertex 441500.0 5929500.0 2672.60009765625
 endloop
endfacet
facet normal -0.0007997923530638218 -0.005499915219843388 -0.9999845623970032
 outer loop
  vertex 441500.0 5930500.0 2670.89990234375
  vertex 442500.0 5930500.0 2670.10009765625
  vertex 442500.0 5929500.0 2675.60009765625
 endloop
endfacet
facet normal 0.045651618391275406 -0.005494182463735342 -0.9989423155784607
 outer loop
  vertex 442500.0 5930500.0 2670.10009765625
  vertex 443500.0 5929500.0 2721.300048828125
  vertex 442500.0 5929500.0 2675.60009765625
 endloop
endfacet
facet normal -0.0073872716166079044 -0.05849814787507057 -0.9982601404190063
 outer loop
  vertex 442500.0 5930500.0 2670.10009765625
  vertex 443500.0 5930500.0 2662.699951171875
  vertex 443500.0 5929500.0 2721.300048828125
 endloop
endfacet
facet normal 0.0008000477682799101 -0.0013999005313962698 -0.9999986886978149
 outer loop
  vertex 436500.0 5931500.0 2659.10009765625
  vertex 437500.0 5930500.0 2661.300048828125
  vertex 436500.0 5930500.0 2660.5
 endloop
endfacet
facet normal 0.007399599999189377 0.0051997387781739235 -0.9999591112136841
 outer loop
  vertex 436500.0 5931500.0 2659.10009765625
  vertex 437500.0 5931500.0 2666.5
  vertex 437500.0 5930500.0 2661.300048828125
 endloop
endfacet
facet normal 0.005299902521073818 0.005199807696044445 -0.9999724626541138
 outer loop
  vertex 437500.0 5931500.0 2666.5
  vertex 438500.0 5930500.0 2666.60009765625
  vertex 437500.0 5930500.0 2661.300048828125
 endloop
endfacet
facet normal -0.004999872297048569 -0.005099967587739229 -0.9999744892120361
 outer loop
  vertex 437500.0 5931500.0 2666.5
  vertex 438500.0 5931500.0 2661.5
  vertex 438500.0 5930500.0 2666.60009765625
 endloop
endfacet
facet normal -0.001300030737183988 -0.005100026726722717 -0.9999861121177673
 outer loop
  vertex 438500.0 5931500.0 2661.5
  vertex 439500.0 5930500.0 2665.300048828125
  vertex 438500.0 5930500.0 2666.60009765625
 endloop
endfacet
facet normal 0.008699517697095871 0.004899658262729645 -0.9999501705169678
 outer loop
  vertex 438500.0 5931500.0 2661.5
  vertex 439500.0 5931500.0 2670.199951171875
  vertex 439500.0 5930500.0 2665.300048828125
 endloop
endfacet
facet normal -0.0003000452124979347 0.004899843130260706 -0.9999879598617554
 outer loop
  vertex 439500.0 5931500.0 2670.199951171875
  vertex 440500.0 5930500.0 2665.0
  vertex 439500.0 5930500.0 2665.300048828125
 endloop
endfacet
facet normal -0.0018998886225745082 0.0033000248949974775 -0.9999927282333374
 outer loop
  vertex 439500.0 5931500.0 2670.199951171875
  vertex 440500.0 5931500.0 2668.300048828125
  vertex 440500.0 5930500.0 2665.0
 endloop
endfacet
facet normal 0.005899767857044935 0.00329997343942523 -0.999977171421051
 outer loop
  vertex 440500.0 5931500.0 2668.300048828125
  vertex 441500.0 5930500.0 2670.89990234375
  vertex 440500.0 5930500.0 2665.0
 endloop
endfacet
facet normal -0.0026000537909567356 -0.005199863575398922 -0.9999831318855286
 outer loop
  vertex 440500.0 5931500.0 2668.300048828125
  vertex 441500.0 5931500.0 2665.699951171875
  vertex 441500.0 5930500.0 2670.89990234375
 endloop
endfacet
facet normal -0.0007997936336323619 -0.00519987940788269 -0.9999861717224121
 outer loop
  vertex 441500.0 5931500.0 2665.699951171875
  vertex 442500.0 5930500.0 2670.10009765625
  vertex 441500.0 5930500.0 2670.89990234375
 endloop
endfacet
facet normal 0.002100087469443679 -0.0023000375367701054 -0.9999951124191284
 outer loop
  vertex 441500.0 5931500.0 2665.699951171875
  vertex 442500.0 5931500.0 2667.800048828125
  vertex 442500.0 5930500.0 2670.10009765625
 endloop
endfacet
facet normal -0.00739992456510663 -0.002299979794770479 -0.999970018863678
 outer loop
  vertex 442500.0 5931500.0 2667.800048828125
  vertex 443500.0 5930500.0 2662.699951171875
  vertex 442500.0 5930500.0 2670.10009765625
 endloop
endfacet
facet normal 0.05065574496984482 0.05574135482311249 -0.9971594214439392
 outer loop
  vertex 442500.0 5931500.0 2667.800048828125
  vertex 443500.0 5931500.0 2718.60009765625
  vertex 443500.0 5930500.0 2662.699951171875
 endloop
endfacet
facet normal -0.003799719735980034 -0.005499877035617828 -0.9999776482582092
 outer loop
  vertex 435500.0 5932500.0 2657.39990234375
  vertex 436500.0 5932500.0 2653.60009765625
  vertex 436500.0 5931500.0 2659.10009765625
 endloop
endfacet
facet normal 0.007399587891995907 -0.005499766208231449 -0.9999575018882751
 outer loop
  vertex 436500.0 5932500.0 2653.60009765625
  vertex 437500.0 5931500.0 2666.5
  vertex 436500.0 5931500.0 2659.10009765625
 endloop
endfacet
facet normal 0.0048996866680681705 -0.007999648340046406 -0.9999560117721558
 outer loop
  vertex 436500.0 5932500.0 2653.60009765625
  vertex 437500.0 5932500.0 2658.5
  vertex 437500.0 5931500.0 2666.5
 endloop
endfacet
facet normal -0.004999777302145958 -0.007999643683433533 -0.9999554753303528
 outer loop
  vertex 437500.0 5932500.0 2658.5
  vertex 438500.0 5931500.0 2661.5
  vertex 437500.0 5931500.0 2666.5
 endloop
endfacet
facet normal 0.01019915658980608 0.007199389860033989 -0.9999220967292786
 outer loop
  vertex 437500.0 5932500.0 2658.5
  vertex 438500.0 5932500.0 2668.699951171875
  vertex 438500.0 5931500.0 2661.5
 endloop
endfacet
facet normal 0.008699396625161171 0.007199492305517197 -0.9999362826347351
 outer loop
  vertex 438500.0 5932500.0 2668.699951171875
  vertex 439500.0 5931500.0 2670.199951171875
  vertex 438500.0 5931500.0 2661.5
 endloop
endfacet
facet normal -0.012097849510610104 -0.013597600162029266 -0.9998343586921692
 outer loop
  vertex 438500.0 5932500.0 2668.699951171875
  vertex 439500.0 5932500.0 2656.60009765625
  vertex 439500.0 5931500.0 2670.199951171875
 endloop
endfacet
facet normal -0.001899723312817514 -0.01359857153147459 -0.9999057650566101
 outer loop
  vertex 439500.0 5932500.0 2656.60009765625
  vertex 440500.0 5931500.0 2668.300048828125
  vertex 439500.0 5931500.0 2670.199951171875
 endloop
endfacet
facet normal 0.009899401105940342 -0.0017999577103182673 -0.9999493956565857
 outer loop
  vertex 439500.0 5932500.0 2656.60009765625
  vertex 440500.0 5932500.0 2666.5
  vertex 440500.0 5931500.0 2668.300048828125
 endloop
endfacet
facet normal -0.0026000847574323416 -0.0018000397831201553 -0.9999949932098389
 outer loop
  vertex 440500.0 5932500.0 2666.5
  vertex 441500.0 5931500.0 2665.699951171875
  vertex 440500.0 5931500.0 2668.300048828125
 endloop
endfacet
facet normal 0.0021000842098146677 0.002900127787142992 -0.9999935626983643
 outer loop
  vertex 440500.0 5932500.0 2666.5
  vertex 441500.0 5932500.0 2668.60009765625
  vertex 441500.0 5931500.0 2665.699951171875
 endloop
endfacet
facet normal 0.0021000842098146677 0.002900127787142992 -0.9999935626983643
 outer loop
  vertex 441500.0 5932500.0 2668.60009765625
  vertex 442500.0 5931500.0 2667.800048828125
  vertex 441500.0 5931500.0 2665.699951171875
 endloop
endfacet
facet normal 0.018193654716014862 0.018993427976965904 -0.9996540546417236
 outer loop
  vertex 441500.0 5932500.0 2668.60009765625
  vertex 442500.0 5932500.0 2686.800048828125
  vertex 442500.0 5931500.0 2667.800048828125
 endloop
endfacet
facet normal 0.05072549358010292 0.018972115591168404 -0.9985324144363403
 outer loop
  vertex 442500.0 5932500.0 2686.800048828125
  vertex 443500.0 5931500.0 2718.60009765625
  vertex 442500.0 5931500.0 2667.800048828125
 endloop
endfacet
facet normal 0.016095783561468124 -0.015696227550506592 -0.9997472763061523
 outer loop
  vertex 442500.0 5932500.0 2686.800048828125
  vertex 443500.0 5932500.0 2702.89990234375
  vertex 443500.0 5931500.0 2718.60009765625
 endloop
endfacet
facet normal 0.004899796098470688 0.004399806726723909 -0.9999783039093018
 outer loop
  vertex 436500.0 5933500.0 2658.0
  vertex 437500.0 5932500.0 2658.5
  vertex 436500.0 5932500.0 2653.60009765625
 endloop
endfacet
facet normal 0.003100072266533971 0.00260007637552917 -0.9999918341636658
 outer loop
  vertex 436500.0 5933500.0 2658.0
  vertex 437500.0 5933500.0 2661.10009765625
  vertex 437500.0 5932500.0 2658.5
 endloop
endfacet
facet normal 0.010199385695159435 0.002599953440949321 -0.9999445676803589
 outer loop
  vertex 437500.0 5933500.0 2661.10009765625
  vertex 438500.0 5932500.0 2668.699951171875
  vertex 437500.0 5932500.0 2658.5
 endloop
endfacet
facet normal 0.003499949350953102 -0.004099794197827578 -0.9999855160713196
 outer loop
  vertex 437500.0 5933500.0 2661.10009765625
  vertex 438500.0 5933500.0 2664.60009765625
  vertex 438500.0 5932500.0 2668.699951171875
 endloop
endfacet
facet normal -0.012098866514861584 -0.004099518992006779 -0.9999184608459473
 outer loop
  vertex 438500.0 5933500.0 2664.60009765625
  vertex 439500.0 5932500.0 2656.60009765625
  vertex 438500.0 5932500.0 2668.699951171875
 endloop
endfacet
facet normal 0.0005998312262818217 0.008599534630775452 -0.9999628663063049
 outer loop
  vertex 438500.0 5933500.0 2664.60009765625
  vertex 439500.0 5933500.0 2665.199951171875
  vertex 439500.0 5932500.0 2656.60009765625
 endloop
endfacet
facet normal 0.009899050928652287 0.008599113672971725 -0.9999139904975891
 outer loop
  vertex 439500.0 5933500.0 2665.199951171875
  vertex 440500.0 5932500.0 2666.5
  vertex 439500.0 5932500.0 2656.60009765625
 endloop
endfacet
facet normal 0.0014999982668086886 0.0001999509404413402 -0.9999988675117493
 outer loop
  vertex 439500.0 5933500.0 2665.199951171875
  vertex 440500.0 5933500.0 2666.699951171875
  vertex 440500.0 5932500.0 2666.5
 endloop
endfacet
facet normal 0.002100092824548483 0.00019995072216261178 -0.9999977350234985
 outer loop
  vertex 440500.0 5933500.0 2666.699951171875
  vertex 441500.0 5932500.0 2668.60009765625
  vertex 440500.0 5932500.0 2666.5
 endloop
endfacet
facet normal -0.0004999985103495419 -0.002400139346718788 -0.9999970197677612
 outer loop
  vertex 440500.0 5933500.0 2666.699951171875
  vertex 441500.0 5933500.0 2666.199951171875
  vertex 441500.0 5932500.0 2668.60009765625
 endloop
endfacet
facet normal 0.01819688454270363 -0.0023997421376407146 -0.9998315572738647
 outer loop
  vertex 441500.0 5933500.0 2666.199951171875
  vertex 442500.0 5932500.0 2686.800048828125
  vertex 441500.0 5932500.0 2668.60009765625
 endloop
endfacet
facet normal -0.013490930199623108 -0.03407718613743782 -0.9993281364440918
 outer loop
  vertex 441500.0 5933500.0 2666.199951171875
  vertex 442500.0 5933500.0 2652.699951171875
  vertex 442500.0 5932500.0 2686.800048828125
 endloop
endfacet
facet normal 0.016088420525193214 -0.03407587856054306 -0.9992897510528564
 outer loop
  vertex 442500.0 5933500.0 2652.699951171875
  vertex 443500.0 5932500.0 2702.89990234375
  vertex 442500.0 5932500.0 2686.800048828125
 endloop
endfacet
facet normal 0.029381098225712776 -0.020786330103874207 -0.9993520975112915
 outer loop
  vertex 442500.0 5933500.0 2652.699951171875
  vertex 443500.0 5933500.0 2682.10009765625
  vertex 443500.0 5932500.0 2702.89990234375
 endloop
endfacet
facet normal 0.006299431435763836 0.012498775497078896 -0.9999020099639893
 outer loop
  vertex 435500.0 5934500.0 2664.199951171875
  vertex 436500.0 5934500.0 2670.5
  vertex 436500.0 5933500.0 2658.0
 endloop
endfacet
facet normal 0.0030998406000435352 0.012498963624238968 -0.9999170899391174
 outer loop
  vertex 436500.0 5934500.0 2670.5
  vertex 437500.0 5933500.0 2661.10009765625
  vertex 436500.0 5933500.0 2658.0
 endloop
endfacet
facet normal -0.013798601925373077 -0.004399685189127922 -0.9998951554298401
 outer loop
  vertex 436500.0 5934500.0 2670.5
  vertex 437500.0 5934500.0 2656.699951171875
  vertex 437500.0 5933500.0 2661.10009765625
 endloop
endfacet
facet normal 0.003499944694340229 -0.004400076810270548 -0.9999842047691345
 outer loop
  vertex 437500.0 5934500.0 2656.699951171875
  vertex 438500.0 5933500.0 2664.60009765625
  vertex 437500.0 5933500.0 2661.10009765625
 endloop
endfacet
facet normal 0.03227361664175987 0.02437993511557579 -0.9991816878318787
 outer loop
  vertex 437500.0 5934500.0 2656.699951171875
  vertex 438500.0 5934500.0 2689.0
  vertex 438500.0 5933500.0 2664.60009765625
 endloop
endfacet
facet normal 0.0005996749387122691 0.024392638355493546 -0.9997022747993469
 outer loop
  vertex 438500.0 5934500.0 2689.0
  vertex 439500.0 5933500.0 2665.199951171875
  vertex 438500.0 5933500.0 2664.60009765625
 endloop
endfacet
facet normal -0.026290874928236008 -0.0024991279933601618 -0.9996511936187744
 outer loop
  vertex 438500.0 5934500.0 2689.0
  vertex 439500.0 5934500.0 2662.699951171875
  vertex 439500.0 5933500.0 2665.199951171875
 endloop
endfacet
facet normal 0.0014999936101958156 -0.002499989466741681 -0.999995768070221
 outer loop
  vertex 439500.0 5934500.0 2662.699951171875
  vertex 440500.0 5933500.0 2666.699951171875
  vertex 439500.0 5933500.0 2665.199951171875
 endloop
endfacet
facet normal 0.010899240151047707 0.006899572443217039 -0.9999167919158936
 outer loop
  vertex 439500.0 5934500.0 2662.699951171875
  vertex 440500.0 5934500.0 2673.60009765625
  vertex 440500.0 5933500.0 2666.699951171875
 endloop
endfacet
facet normal -0.0004999880329705775 0.006899981293827295 -0.9999760389328003
 outer loop
  vertex 440500.0 5934500.0 2673.60009765625
  vertex 441500.0 5933500.0 2666.199951171875
  vertex 440500.0 5933500.0 2666.699951171875
 endloop
endfacet
facet normal -0.003100054105743766 0.004299988504499197 -0.999985933303833
 outer loop
  vertex 440500.0 5934500.0 2673.60009765625
  vertex 441500.0 5934500.0 2670.5
  vertex 441500.0 5933500.0 2666.199951171875
 endloop
endfacet
facet normal -0.013498645275831223 0.004299617372453213 -0.9998996257781982
 outer loop
  vertex 441500.0 5934500.0 2670.5
  vertex 442500.0 5933500.0 2652.699951171875
  vertex 441500.0 5933500.0 2666.199951171875
 endloop
endfacet
facet normal -0.0020998341497033834 0.015697982162237167 -0.9998745918273926
 outer loop
  vertex 441500.0 5934500.0 2670.5
  vertex 442500.0 5934500.0 2668.39990234375
  vertex 442500.0 5933500.0 2652.699951171875
 endloop
endfacet
facet normal 0.029383830726146698 0.01569123938679695 -0.9994450807571411
 outer loop
  vertex 442500.0 5934500.0 2668.39990234375
  vertex 443500.0 5933500.0 2682.10009765625
  vertex 442500.0 5933500.0 2652.699951171875
 endloop
endfacet
facet normal -0.013798377476632595 -0.007199079263955355 -0.9998788833618164
 outer loop
  vertex 436500.0 5935500.0 2663.300048828125
  vertex 437500.0 5934500.0 2656.699951171875
  vertex 436500.0 5934500.0 2670.5
 endloop
endfacet
facet normal -0.004499944392591715 0.002100071869790554 -0.9999876618385315
 outer loop
  vertex 436500.0 5935500.0 2663.300048828125
  vertex 437500.0 5935500.0 2658.800048828125
  vertex 437500.0 5934500.0 2656.699951171875
 endloop
endfacet
facet normal 0.03228314220905304 0.002098998287692666 -0.9994765520095825
 outer loop
  vertex 437500.0 5935500.0 2658.800048828125
  vertex 438500.0 5934500.0 2689.0
  vertex 437500.0 5934500.0 2656.699951171875
 endloop
endfacet
facet normal 0.004698371980339289 -0.02549143135547638 -0.9996640086174011
 outer loop
  vertex 437500.0 5935500.0 2658.800048828125
  vertex 438500.0 5935500.0 2663.5
  vertex 438500.0 5934500.0 2689.0
 endloop
endfacet
facet normal -0.02628242038190365 -0.0254829078912735 -0.999329686164856
 outer loop
  vertex 438500.0 5935500.0 2663.5
  vertex 439500.0 5934500.0 2662.699951171875
  vertex 438500.0 5934500.0 2689.0
 endloop
endfacet
facet normal 0.0006000970024615526 0.0014001448871567845 -0.9999988675117493
 outer loop
  vertex 438500.0 5935500.0 2663.5
  vertex 439500.0 5935500.0 2664.10009765625
  vertex 439500.0 5934500.0 2662.699951171875
 endloop
endfacet
facet normal 0.010899488814175129 0.0014000619994476438 -0.9999396204948425
 outer loop
  vertex 439500.0 5935500.0 2664.10009765625
  vertex 440500.0 5934500.0 2673.60009765625
  vertex 439500.0 5934500.0 2662.699951171875
 endloop
endfacet
facet normal 0.008599531836807728 -0.0009001128491945565 -0.9999626278877258
 outer loop
  vertex 439500.0 5935500.0 2664.10009765625
  vertex 440500.0 5935500.0 2672.699951171875
  vertex 440500.0 5934500.0 2673.60009765625
 endloop
endfacet
facet normal -0.003100081579759717 -0.0009001418366096914 -0.9999948143959045
 outer loop
  vertex 440500.0 5935500.0 2672.699951171875
  vertex 441500.0 5934500.0 2670.5
  vertex 440500.0 5934500.0 2673.60009765625
 endloop
endfacet
facet normal 0.0009999943431466818 0.003199933096766472 -0.9999943971633911
 outer loop
  vertex 440500.0 5935500.0 2672.699951171875
  vertex 441500.0 5935500.0 2673.699951171875
  vertex 441500.0 5934500.0 2670.5
 endloop
endfacet
facet normal -0.0021000823471695185 0.003199927741661668 -0.9999926686286926
 outer loop
  vertex 441500.0 5935500.0 2673.699951171875
  vertex 442500.0 5934500.0 2668.39990234375
  vertex 441500.0 5934500.0 2670.5
 endloop
endfacet
facet normal -0.009999389760196209 -0.004699664190411568 -0.99993896484375
 outer loop
  vertex 441500.0 5935500.0 2673.699951171875
  vertex 442500.0 5935500.0 2663.699951171875
  vertex 442500.0 5934500.0 2668.39990234375
 endloop
endfacet
facet normal -0.0004999967059120536 -0.0036000737454742193 -0.9999933838844299
 outer loop
  vertex 435500.0 5936500.0 2660.199951171875
  vertex 436500.0 5936500.0 2659.699951171875
  vertex 436500.0 5935500.0 2663.300048828125
 endloop
endfacet
facet normal -0.004499925300478935 -0.0036000378895550966 -0.9999833703041077
 outer loop
  vertex 436500.0 5936500.0 2659.699951171875
  vertex 437500.0 5935500.0 2658.800048828125
  vertex 436500.0 5935500.0 2663.300048828125
 endloop
endfacet
facet normal 0.006899772211909294 0.007799625862389803 -0.9999457597732544
 outer loop
  vertex 436500.0 5936500.0 2659.699951171875
  vertex 437500.0 5936500.0 2666.60009765625
  vertex 437500.0 5935500.0 2658.800048828125
 endloop
endfacet
facet normal 0.004699756391346455 0.007799725513905287 -0.9999585747718811
 outer loop
  vertex 437500.0 5936500.0 2666.60009765625
  vertex 438500.0 5935500.0 2663.5
  vertex 437500.0 5935500.0 2658.800048828125
 endloop
endfacet
facet normal -0.002400138881057501 0.0006999489851295948 -0.9999969005584717
 outer loop
  vertex 437500.0 5936500.0 2666.60009765625
  vertex 438500.0 5936500.0 2664.199951171875
  vertex 438500.0 5935500.0 2663.5
 endloop
endfacet
facet normal 0.000600097409915179 0.000699950847774744 -0.9999995827674866
 outer loop
  vertex 438500.0 5936500.0 2664.199951171875
  vertex 439500.0 5935500.0 2664.10009765625
  vertex 438500.0 5935500.0 2663.5
 endloop
endfacet
facet normal 0.0014001434901729226 0.0014999968698248267 -0.9999978542327881
 outer loop
  vertex 438500.0 5936500.0 2664.199951171875
  vertex 439500.0 5936500.0 2665.60009765625
  vertex 439500.0 5935500.0 2664.10009765625
 endloop
endfacet
facet normal 0.008599525317549706 0.001499942853115499 -0.9999618530273438
 outer loop
  vertex 439500.0 5936500.0 2665.60009765625
  vertex 440500.0 5935500.0 2672.699951171875
  vertex 439500.0 5935500.0 2664.10009765625
 endloop
endfacet
facet normal 0.010399282909929752 0.00329985236749053 -0.9999404549598694
 outer loop
  vertex 439500.0 5936500.0 2665.60009765625
  vertex 440500.0 5936500.0 2676.0
  vertex 440500.0 5935500.0 2672.699951171875
 endloop
endfacet
facet normal 0.0009999941103160381 0.003300029318779707 -0.9999940395355225
 outer loop
  vertex 440500.0 5936500.0 2676.0
  vertex 441500.0 5935500.0 2673.699951171875
  vertex 440500.0 5935500.0 2672.699951171875
 endloop
endfacet
facet normal -0.005299950484186411 -0.002999944379553199 -0.9999814629554749
 outer loop
  vertex 440500.0 5936500.0 2676.0
  vertex 441500.0 5936500.0 2670.699951171875
  vertex 441500.0 5935500.0 2673.699951171875
 endloop
endfacet
facet normal -0.009999454952776432 -0.002999836578965187 -0.9999455213546753
 outer loop
  vertex 441500.0 5936500.0 2670.699951171875
  vertex 442500.0 5935500.0 2663.699951171875
  vertex 441500.0 5935500.0 2673.699951171875
 endloop
endfacet
facet normal 0.01839110255241394 0.025387661531567574 -0.9995085000991821
 outer loop
  vertex 441500.0 5936500.0 2670.699951171875
  vertex 442500.0 5936500.0 2689.10009765625
  vertex 442500.0 5935500.0 2663.699951171875
 endloop
endfacet
facet normal -0.0004999926313757896 0.0054000671952962875 -0.9999853372573853
 outer loop
  vertex 435500.0 5937500.0 2665.60009765625
  vertex 436500.0 5936500.0 2659.699951171875
  vertex 435500.0 5936500.0 2660.199951171875
 endloop
endfacet
facet normal 0.007898903451859951 0.0137983039021492 -0.9998735785484314
 outer loop
  vertex 435500.0 5937500.0 2665.60009765625
  vertex 436500.0 5937500.0 2673.5
  vertex 436500.0 5936500.0 2659.699951171875
 endloop
endfacet
facet normal 0.006899325642734766 0.013798407278954983 -0.9998810291290283
 outer loop
  vertex 436500.0 5937500.0 2673.5
  vertex 437500.0 5936500.0 2666.60009765625
  vertex 436500.0 5936500.0 2659.699951171875
 endloop
endfacet
facet normal -0.010499352589249611 -0.0035998758394271135 -0.9999383687973022
 outer loop
  vertex 436500.0 5937500.0 2673.5
  vertex 437500.0 5937500.0 2663.0
  vertex 437500.0 5936500.0 2666.60009765625
 endloop
endfacet
facet normal -0.002400123979896307 -0.003600063966587186 -0.9999906420707703
 outer loop
  vertex 437500.0 5937500.0 2663.0
  vertex 438500.0 5936500.0 2664.199951171875
  vertex 437500.0 5936500.0 2666.60009765625
 endloop
endfacet
facet normal 0.0028000343590974808 0.0016000893665477633 -0.9999948143959045
 outer loop
  vertex 437500.0 5937500.0 2663.0
  vertex 438500.0 5937500.0 2665.800048828125
  vertex 438500.0 5936500.0 2664.199951171875
 endloop
endfacet
facet normal 0.0014001433737576008 0.0016000940231606364 -0.9999977350234985
 outer loop
  vertex 438500.0 5937500.0 2665.800048828125
  vertex 439500.0 5936500.0 2665.60009765625
  vertex 438500.0 5936500.0 2664.199951171875
 endloop
endfacet
facet normal 0.004399813245981932 0.004599760286509991 -0.9999797344207764
 outer loop
  vertex 438500.0 5937500.0 2665.800048828125
  vertex 439500.0 5937500.0 2670.199951171875
  vertex 439500.0 5936500.0 2665.60009765625
 endloop
endfacet
facet normal 0.010399230755865574 0.00459955632686615 -0.9999353885650635
 outer loop
  vertex 439500.0 5937500.0 2670.199951171875
  vertex 440500.0 5936500.0 2676.0
  vertex 439500.0 5936500.0 2665.60009765625
 endloop
endfacet
facet normal 0.0051000299863517284 -0.0006999418837949634 -0.9999867677688599
 outer loop
  vertex 439500.0 5937500.0 2670.199951171875
  vertex 440500.0 5937500.0 2675.300048828125
  vertex 440500.0 5936500.0 2676.0
 endloop
endfacet
facet normal -0.005299972835928202 -0.0006999411270953715 -0.9999856948852539
 outer loop
  vertex 440500.0 5937500.0 2675.300048828125
  vertex 441500.0 5936500.0 2670.699951171875
  vertex 440500.0 5936500.0 2676.0
 endloop
endfacet
facet normal 0.005299714393913746 0.009899522177875042 -0.9999369382858276
 outer loop
  vertex 440500.0 5937500.0 2675.300048828125
  vertex 441500.0 5937500.0 2680.60009765625
  vertex 441500.0 5936500.0 2670.699951171875
 endloop
endfacet
facet normal 0.018396131694316864 0.009897986426949501 -0.9997817873954773
 outer loop
  vertex 441500.0 5937500.0 2680.60009765625
  vertex 442500.0 5936500.0 2689.10009765625
  vertex 441500.0 5936500.0 2670.699951171875
 endloop
endfacet
facet normal 0.034168701618909836 0.025676468387246132 -0.9990862011909485
 outer loop
  vertex 441500.0 5937500.0 2680.60009765625
  vertex 442500.0 5937500.0 2714.800048828125
  vertex 442500.0 5936500.0 2689.10009765625
 endloop
endfacet
facet normal 0.0006999474135227501 -0.0032001780346035957 -0.9999946355819702
 outer loop
  vertex 434500.0 5938500.0 2661.699951171875
  vertex 435500.0 5938500.0 2662.39990234375
  vertex 435500.0 5937500.0 2665.60009765625
 endloop
endfacet
facet normal 0.007899615913629532 -0.003200079081580043 -0.9999637007713318
 outer loop
  vertex 435500.0 5938500.0 2662.39990234375
  vertex 436500.0 5937500.0 2673.5
  vertex 435500.0 5937500.0 2665.60009765625
 endloop
endfacet
facet normal 0.003900015726685524 -0.007199709769338369 -0.9999665021896362
 outer loop
  vertex 435500.0 5938500.0 2662.39990234375
  vertex 436500.0 5938500.0 2666.300048828125
  vertex 436500.0 5937500.0 2673.5
 endloop
endfacet
facet normal -0.010499149560928345 -0.0071993679739534855 -0.9999189972877502
 outer loop
  vertex 436500.0 5938500.0 2666.300048828125
  vertex 437500.0 5937500.0 2663.0
  vertex 436500.0 5937500.0 2673.5
 endloop
endfacet
facet normal -0.004499950911849737 -0.0011999381240457296 -0.9999891519546509
 outer loop
  vertex 436500.0 5938500.0 2666.300048828125
  vertex 437500.0 5938500.0 2661.800048828125
  vertex 437500.0 5937500.0 2663.0
 endloop
endfacet
facet normal 0.0028000359889119864 -0.0011999455746263266 -0.9999953508377075
 outer loop
  vertex 437500.0 5938500.0 2661.800048828125
  vertex 438500.0 5937500.0 2665.800048828125
  vertex 437500.0 5937500.0 2663.0
 endloop
endfacet
facet normal 0.00130004296079278 -0.0026999390684068203 -0.9999955296516418
 outer loop
  vertex 437500.0 5938500.0 2661.800048828125
  vertex 438500.0 5938500.0 2663.10009765625
  vertex 438500.0 5937500.0 2665.800048828125
 endloop
endfacet
facet normal 0.004399843979626894 -0.0026999153196811676 -0.9999867081642151
 outer loop
  vertex 438500.0 5938500.0 2663.10009765625
  vertex 439500.0 5937500.0 2670.199951171875
  vertex 438500.0 5937500.0 2665.800048828125
 endloop
endfacet
facet normal 0.012098817154765129 0.004999571479856968 -0.9999143481254578
 outer loop
  vertex 438500.0 5938500.0 2663.10009765625
  vertex 439500.0 5938500.0 2675.199951171875
  vertex 439500.0 5937500.0 2670.199951171875
 endloop
endfacet
facet normal 0.005099967587739229 0.004999872297048569 -0.9999744892120361
 outer loop
  vertex 439500.0 5938500.0 2675.199951171875
  vertex 440500.0 5937500.0 2675.300048828125
  vertex 439500.0 5937500.0 2670.199951171875
 endloop
endfacet
facet normal -0.0008000482339411974 -0.0009001457947306335 -0.9999992251396179
 outer loop
  vertex 439500.0 5938500.0 2675.199951171875
  vertex 440500.0 5938500.0 2674.39990234375
  vertex 440500.0 5937500.0 2675.300048828125
 endloop
endfacet
facet normal 0.005299972370266914 -0.0009001335129141808 -0.9999855756759644
 outer loop
  vertex 440500.0 5938500.0 2674.39990234375
  vertex 441500.0 5937500.0 2680.60009765625
  vertex 440500.0 5937500.0 2675.300048828125
 endloop
endfacet
facet normal 0.04303089156746864 0.03684065118432045 -0.998394250869751
 outer loop
  vertex 440500.0 5938500.0 2674.39990234375
  vertex 441500.0 5938500.0 2717.5
  vertex 441500.0 5937500.0 2680.60009765625
 endloop
endfacet
facet normal 0.03415675088763237 0.03685329109430313 -0.9987367987632751
 outer loop
  vertex 441500.0 5938500.0 2717.5
  vertex 442500.0 5937500.0 2714.800048828125
  vertex 441500.0 5937500.0 2680.60009765625
 endloop
endfacet
facet normal -0.002699941396713257 0.0 -0.9999963641166687
 outer loop
  vertex 441500.0 5938500.0 2717.5
  vertex 442500.0 5938500.0 2714.800048828125
  vertex 442500.0 5937500.0 2714.800048828125
 endloop
endfacet
facet normal 0.0076997228898108006 0.0 -0.9999703764915466
 outer loop
  vertex 442500.0 5938500.0 2714.800048828125
  vertex 443500.0 5937500.0 2722.5
  vertex 442500.0 5937500.0 2714.800048828125
 endloop
endfacet
facet normal -0.0077993120066821575 -0.00809934176504612 -0.9999368190765381
 outer loop
  vertex 433500.0 5939500.0 2661.39990234375
  vertex 434500.0 5939500.0 2653.60009765625
  vertex 434500.0 5938500.0 2661.699951171875
 endloop
endfacet
facet normal 0.000699928030371666 -0.008099585771560669 -0.9999669194221497
 outer loop
  vertex 434500.0 5939500.0 2653.60009765625
  vertex 435500.0 5938500.0 2662.39990234375
  vertex 434500.0 5938500.0 2661.699951171875
 endloop
endfacet
facet normal 0.011099140159785748 0.002299901098012924 -0.9999357461929321
 outer loop
  vertex 434500.0 5939500.0 2653.60009765625
  vertex 435500.0 5939500.0 2664.699951171875
  vertex 435500.0 5938500.0 2662.39990234375
 endloop
endfacet
facet normal 0.003900106530636549 0.0023000251967459917 -0.9999897480010986
 outer loop
  vertex 435500.0 5939500.0 2664.699951171875
  vertex 436500.0 5938500.0 2666.300048828125
  vertex 435500.0 5938500.0 2662.39990234375
 endloop
endfacet
facet normal -0.0038998136296868324 -0.005499874707311392 -0.9999772310256958
 outer loop
  vertex 435500.0 5939500.0 2664.699951171875
  vertex 436500.0 5939500.0 2660.800048828125
  vertex 436500.0 5938500.0 2666.300048828125
 endloop
endfacet
facet normal -0.004499886184930801 -0.00549986120313406 -0.9999747276306152
 outer loop
  vertex 436500.0 5939500.0 2660.800048828125
  vertex 437500.0 5938500.0 2661.800048828125
  vertex 436500.0 5938500.0 2666.300048828125
 endloop
endfacet
facet normal 0.00019995111506432295 -0.0008000485831871629 -0.9999997019767761
 outer loop
  vertex 436500.0 5939500.0 2660.800048828125
  vertex 437500.0 5939500.0 2661.0
  vertex 437500.0 5938500.0 2661.800048828125
 endloop
endfacet
facet normal 0.0013000472681596875 -0.0008000478846952319 -0.9999988079071045
 outer loop
  vertex 437500.0 5939500.0 2661.0
  vertex 438500.0 5938500.0 2663.10009765625
  vertex 437500.0 5938500.0 2661.800048828125
 endloop
endfacet
facet normal 0.003399879904463887 0.001299796043895185 -0.9999933838844299
 outer loop
  vertex 437500.0 5939500.0 2661.0
  vertex 438500.0 5939500.0 2664.39990234375
  vertex 438500.0 5938500.0 2663.10009765625
 endloop
endfacet
facet normal 0.012098957784473896 0.0012997083831578493 -0.999925971031189
 outer loop
  vertex 438500.0 5939500.0 2664.39990234375
  vertex 439500.0 5938500.0 2675.199951171875
  vertex 438500.0 5938500.0 2663.10009765625
 endloop
endfacet
facet normal 0.00999949686229229 -0.0008000085945241153 -0.9999496936798096
 outer loop
  vertex 438500.0 5939500.0 2664.39990234375
  vertex 439500.0 5939500.0 2674.39990234375
  vertex 439500.0 5938500.0 2675.199951171875
 endloop
endfacet
facet normal -0.0008000483503565192 -0.0008000483503565192 -0.9999994039535522
 outer loop
  vertex 439500.0 5939500.0 2674.39990234375
  vertex 440500.0 5938500.0 2674.39990234375
  vertex 439500.0 5938500.0 2675.199951171875
 endloop
endfacet
facet normal -0.0008999016135931015 -0.0008999016135931015 -0.9999991655349731
 outer loop
  vertex 439500.0 5939500.0 2674.39990234375
  vertex 440500.0 5939500.0 2673.5
  vertex 440500.0 5938500.0 2674.39990234375
 endloop
endfacet
facet normal 0.04306010529398918 -0.0008990673231892288 -0.9990721344947815
 outer loop
  vertex 440500.0 5939500.0 2673.5
  vertex 441500.0 5938500.0 2717.5
  vertex 440500.0 5938500.0 2674.39990234375
 endloop
endfacet
facet normal 0.011099169962108135 0.0002997862175107002 -0.9999383687973022
 outer loop
  vertex 434500.0 5940500.0 2653.89990234375
  vertex 435500.0 5939500.0 2664.699951171875
  vertex 434500.0 5939500.0 2653.60009765625
 endloop
endfacet
facet normal 0.007099870126694441 -0.0036998325958848 -0.9999679327011108
 outer loop
  vertex 434500.0 5940500.0 2653.89990234375
  vertex 435500.0 5940500.0 2661.0
  vertex 435500.0 5939500.0 2664.699951171875
 endloop
endfacet
facet normal -0.0038998459931463003 -0.003699897788465023 -0.9999855756759644
 outer loop
  vertex 435500.0 5940500.0 2661.0
  vertex 436500.0 5939500.0 2660.800048828125
  vertex 435500.0 5939500.0 2664.699951171875
 endloop
endfacet
facet normal -0.0023000375367701054 -0.002100087469443679 -0.9999951124191284
 outer loop
  vertex 435500.0 5940500.0 2661.0
  vertex 436500.0 5940500.0 2658.699951171875
  vertex 436500.0 5939500.0 2660.800048828125
 endloop
endfacet
facet normal 0.00019995072216261178 -0.002100092824548483 -0.9999977350234985
 outer loop
  vertex 436500.0 5940500.0 2658.699951171875
  vertex 437500.0 5939500.0 2661.0
  vertex 436500.0 5939500.0 2660.800048828125
 endloop
endfacet
facet normal 0.003600071417167783 0.0013000393519178033 -0.9999926686286926
 outer loop
  vertex 436500.0 5940500.0 2658.699951171875
  vertex 437500.0 5940500.0 2662.300048828125
  vertex 437500.0 5939500.0 2661.0
 endloop
endfacet
facet normal 0.003399879904463887 0.001300040166825056 -0.9999933838844299
 outer loop
  vertex 437500.0 5940500.0 2662.300048828125
  vertex 438500.0 5939500.0 2664.39990234375
  vertex 437500.0 5939500.0 2661.0
 endloop
endfacet
facet normal 0.011998548172414303 0.009898948483169079 -0.999879002571106
 outer loop
  vertex 437500.0 5940500.0 2662.300048828125
  vertex 438500.0 5940500.0 2674.300048828125
  vertex 438500.0 5939500.0 2664.39990234375
 endloop
endfacet
facet normal 0.009999009780585766 0.009899166412651539 -0.9999009966850281
 outer loop
  vertex 438500.0 5940500.0 2674.300048828125
  vertex 439500.0 5939500.0 2674.39990234375
  vertex 438500.0 5939500.0 2664.39990234375
 endloop
endfacet
facet normal -0.002400132128968835 -0.0024999850429594517 -0.9999939799308777
 outer loop
  vertex 438500.0 5940500.0 2674.300048828125
  vertex 439500.0 5940500.0 2671.89990234375
  vertex 439500.0 5939500.0 2674.39990234375
 endloop
endfacet
facet normal -0.0008998991106636822 -0.0024999910965561867 -0.9999964237213135
 outer loop
  vertex 439500.0 5940500.0 2671.89990234375
  vertex 440500.0 5939500.0 2673.5
  vertex 439500.0 5939500.0 2674.39990234375
 endloop
endfacet
facet normal 0.0004001461493317038 -0.0011999502312391996 -0.9999991655349731
 outer loop
  vertex 439500.0 5940500.0 2671.89990234375
  vertex 440500.0 5940500.0 2672.300048828125
  vertex 440500.0 5939500.0 2673.5
 endloop
endfacet
facet normal -0.0022999390494078398 0.009499546140432358 -0.9999522566795349
 outer loop
  vertex 435500.0 5941500.0 2670.5
  vertex 436500.0 5940500.0 2658.699951171875
  vertex 435500.0 5940500.0 2661.0
 endloop
endfacet
facet normal -0.009099687449634075 0.0026998294051736593 -0.9999549388885498
 outer loop
  vertex 435500.0 5941500.0 2670.5
  vertex 436500.0 5941500.0 2661.39990234375
  vertex 436500.0 5940500.0 2658.699951171875
 endloop
endfacet
facet normal 0.003600061172619462 0.002699923934414983 -0.9999898672103882
 outer loop
  vertex 436500.0 5941500.0 2661.39990234375
  vertex 437500.0 5940500.0 2662.300048828125
  vertex 436500.0 5940500.0 2658.699951171875
 endloop
endfacet
facet normal 0.008099622093141079 0.007199528627097607 -0.9999412894248962
 outer loop
  vertex 436500.0 5941500.0 2661.39990234375
  vertex 437500.0 5941500.0 2669.5
  vertex 437500.0 5940500.0 2662.300048828125
 endloop
endfacet
facet normal 0.011998825706541538 0.007199246436357498 -0.9999021291732788
 outer loop
  vertex 437500.0 5941500.0 2669.5
  vertex 438500.0 5940500.0 2674.300048828125
  vertex 437500.0 5940500.0 2662.300048828125
 endloop
endfacet
facet normal 0.00030004579457454383 -0.004499954637140036 -0.9999898672103882
 outer loop
  vertex 437500.0 5941500.0 2669.5
  vertex 438500.0 5941500.0 2669.800048828125
  vertex 438500.0 5940500.0 2674.300048828125
 endloop
endfacet
facet normal -0.002400115365162492 -0.004499941598623991 -0.999987006187439
 outer loop
  vertex 438500.0 5941500.0 2669.800048828125
  vertex 439500.0 5940500.0 2671.89990234375
  vertex 438500.0 5940500.0 2674.300048828125
 endloop
endfacet
facet normal 0.003199932863935828 0.0011000913800671697 -0.9999942779541016
 outer loop
  vertex 438500.0 5941500.0 2669.800048828125
  vertex 439500.0 5941500.0 2673.0
  vertex 439500.0 5940500.0 2671.89990234375
 endloop
endfacet
facet normal 0.0004001462075393647 0.0011000968515872955 -0.9999992847442627
 outer loop
  vertex 439500.0 5941500.0 2673.0
  vertex 440500.0 5940500.0 2672.300048828125
  vertex 439500.0 5940500.0 2671.89990234375
 endloop
endfacet
facet normal 0.003199933795258403 0.000800044450443238 -0.9999945759773254
 outer loop
  vertex 438500.0 5942500.0 2670.60009765625
  vertex 439500.0 5941500.0 2673.0
  vertex 438500.0 5941500.0 2669.800048828125
 endloop
endfacet
facet normal 0.0006999499746598303 -0.0016999483341351151 -0.9999983310699463
 outer loop
  vertex 438500.0 5942500.0 2670.60009765625
  vertex 439500.0 5942500.0 2671.300048828125
  vertex 439500.0 5941500.0 2673.0
 endloop
endfacet
endsolid
