solid
facet normal 0.1312282681465149 0.05799384415149689 -0.9896544218063354
 outer loop
  vertex 680500.0 5768500.0 3510.300048828125
  vertex 681500.0 5767500.0 3584.300048828125
  vertex 680500.0 5767500.0 3451.699951171875
 endloop
endfacet
facet normal -0.1268215924501419 -0.19873574376106262 -0.971812903881073
 outer loop
  vertex 680500.0 5768500.0 3510.300048828125
  vertex 681500.0 5768500.0 3379.800048828125
  vertex 681500.0 5767500.0 3584.300048828125
 endloop
endfacet
facet normal -0.09084916859865189 -0.22285211086273193 -0.9706097841262817
 outer loop
  vertex 679500.0 5769500.0 3374.300048828125
  vertex 680500.0 5769500.0 3280.699951171875
  vertex 680500.0 5768500.0 3510.300048828125
 endloop
endfacet
facet normal -0.12617406249046326 -0.22198908030986786 -0.9668510556221008
 outer loop
  vertex 680500.0 5769500.0 3280.699951171875
  vertex 681500.0 5768500.0 3379.800048828125
  vertex 680500.0 5768500.0 3510.300048828125
 endloop
endfacet
facet normal 0.01873643882572651 -0.08002834767103195 -0.9966164827346802
 outer loop
  vertex 680500.0 5769500.0 3280.699951171875
  vertex 681500.0 5769500.0 3299.5
  vertex 681500.0 5768500.0 3379.800048828125
 endloop
endfacet
facet normal 0.02102751098573208 -0.08002470433712006 -0.9965711236000061
 outer loop
  vertex 681500.0 5769500.0 3299.5
  vertex 682500.0 5768500.0 3400.89990234375
  vertex 681500.0 5768500.0 3379.800048828125
 endloop
endfacet
facet normal -0.06582900881767273 -0.16560575366020203 -0.9839925169944763
 outer loop
  vertex 681500.0 5769500.0 3299.5
  vertex 682500.0 5769500.0 3232.60009765625
  vertex 682500.0 5768500.0 3400.89990234375
 endloop
endfacet
facet normal 0.002100086072459817 -0.002600083127617836 -0.9999944567680359
 outer loop
  vertex 685500.0 5769500.0 3117.39990234375
  vertex 686500.0 5769500.0 3119.5
  vertex 686500.0 5768500.0 3122.10009765625
 endloop
endfacet
facet normal -0.08228150755167007 0.03038245067000389 -0.9961459040641785
 outer loop
  vertex 678500.0 5770500.0 3487.39990234375
  vertex 679500.0 5770500.0 3404.800048828125
  vertex 679500.0 5769500.0 3374.300048828125
 endloop
endfacet
facet normal -0.0931498110294342 0.030353274196386337 -0.9951893091201782
 outer loop
  vertex 679500.0 5770500.0 3404.800048828125
  vertex 680500.0 5769500.0 3280.699951171875
  vertex 679500.0 5769500.0 3374.300048828125
 endloop
endfacet
facet normal -0.15635988116264343 -0.033858250826597214 -0.9871196150779724
 outer loop
  vertex 679500.0 5770500.0 3404.800048828125
  vertex 680500.0 5770500.0 3246.39990234375
  vertex 680500.0 5769500.0 3280.699951171875
 endloop
endfacet
facet normal 0.018785685300827026 -0.03427383676171303 -0.9992358684539795
 outer loop
  vertex 680500.0 5770500.0 3246.39990234375
  vertex 681500.0 5769500.0 3299.5
  vertex 680500.0 5769500.0 3280.699951171875
 endloop
endfacet
facet normal 0.13641518354415894 0.08400093764066696 -0.9870839715003967
 outer loop
  vertex 680500.0 5770500.0 3246.39990234375
  vertex 681500.0 5770500.0 3384.60009765625
  vertex 681500.0 5769500.0 3299.5
 endloop
endfacet
facet normal -0.0665113627910614 0.08460585027933121 -0.9941921830177307
 outer loop
  vertex 681500.0 5770500.0 3384.60009765625
  vertex 682500.0 5769500.0 3232.60009765625
  vertex 681500.0 5769500.0 3299.5
 endloop
endfacet
facet normal 0.05107777938246727 0.19981014728546143 -0.9785024523735046
 outer loop
  vertex 681500.0 5770500.0 3384.60009765625
  vertex 682500.0 5770500.0 3436.800048828125
  vertex 682500.0 5769500.0 3232.60009765625
 endloop
endfacet
facet normal -0.08357596397399902 0.199371337890625 -0.9763535261154175
 outer loop
  vertex 682500.0 5770500.0 3436.800048828125
  vertex 683500.0 5769500.0 3147.0
  vertex 682500.0 5769500.0 3232.60009765625
 endloop
endfacet
facet normal -0.3251134753227234 -0.051462914794683456 -0.9442737102508545
 outer loop
  vertex 682500.0 5770500.0 3436.800048828125
  vertex 683500.0 5770500.0 3092.5
  vertex 683500.0 5769500.0 3147.0
 endloop
endfacet
facet normal -0.023658208549022675 -0.05440400913357735 -0.9982386827468872
 outer loop
  vertex 683500.0 5770500.0 3092.5
  vertex 684500.0 5769500.0 3123.300048828125
  vertex 683500.0 5769500.0 3147.0
 endloop
endfacet
facet normal 0.023492887616157532 -0.007297839503735304 -0.9996973276138306
 outer loop
  vertex 683500.0 5770500.0 3092.5
  vertex 684500.0 5770500.0 3116.0
  vertex 684500.0 5769500.0 3123.300048828125
 endloop
endfacet
facet normal -0.005899886600673199 -0.0072997272945940495 -0.999955952167511
 outer loop
  vertex 684500.0 5770500.0 3116.0
  vertex 685500.0 5769500.0 3117.39990234375
  vertex 684500.0 5769500.0 3123.300048828125
 endloop
endfacet
facet normal 0.003100078320130706 0.0017001846572384238 -0.9999937415122986
 outer loop
  vertex 684500.0 5770500.0 3116.0
  vertex 685500.0 5770500.0 3119.10009765625
  vertex 685500.0 5769500.0 3117.39990234375
 endloop
endfacet
facet normal 0.002100090030580759 0.001700189197435975 -0.9999963641166687
 outer loop
  vertex 685500.0 5770500.0 3119.10009765625
  vertex 686500.0 5769500.0 3119.5
  vertex 685500.0 5769500.0 3117.39990234375
 endloop
endfacet
facet normal 0.023886488750576973 0.02348680980503559 -0.9994387626647949
 outer loop
  vertex 685500.0 5770500.0 3119.10009765625
  vertex 686500.0 5770500.0 3143.0
  vertex 686500.0 5769500.0 3119.5
 endloop
endfacet
facet normal 0.0901232585310936 -0.013642922043800354 -0.9958371520042419
 outer loop
  vertex 677500.0 5771500.0 3383.199951171875
  vertex 678500.0 5771500.0 3473.699951171875
  vertex 678500.0 5770500.0 3487.39990234375
 endloop
endfacet
facet normal -0.08231183886528015 -0.013652180321514606 -0.9965130686759949
 outer loop
  vertex 678500.0 5771500.0 3473.699951171875
  vertex 679500.0 5770500.0 3404.800048828125
  vertex 678500.0 5770500.0 3487.39990234375
 endloop
endfacet
facet normal -0.025067932903766632 0.04374435171484947 -0.9987282156944275
 outer loop
  vertex 678500.0 5771500.0 3473.699951171875
  vertex 679500.0 5771500.0 3448.60009765625
  vertex 679500.0 5770500.0 3404.800048828125
 endloop
endfacet
facet normal -0.15630340576171875 0.043220266699790955 -0.9867630004882812
 outer loop
  vertex 679500.0 5771500.0 3448.60009765625
  vertex 680500.0 5770500.0 3246.39990234375
  vertex 679500.0 5770500.0 3404.800048828125
 endloop
endfacet
facet normal -0.15969280898571014 0.0397505983710289 -0.9863660931587219
 outer loop
  vertex 679500.0 5771500.0 3448.60009765625
  vertex 680500.0 5771500.0 3286.699951171875
  vertex 680500.0 5770500.0 3246.39990234375
 endloop
endfacet
facet normal 0.13679008185863495 0.03988885134458542 -0.9897966384887695
 outer loop
  vertex 680500.0 5771500.0 3286.699951171875
  vertex 681500.0 5770500.0 3384.60009765625
  vertex 680500.0 5770500.0 3246.39990234375
 endloop
endfacet
facet normal 0.05486668646335602 -0.042796164751052856 -0.997576117515564
 outer loop
  vertex 680500.0 5771500.0 3286.699951171875
  vertex 681500.0 5771500.0 3341.699951171875
  vertex 681500.0 5770500.0 3384.60009765625
 endloop
endfacet
facet normal 0.05208120122551918 -0.04280255734920502 -0.9977251887321472
 outer loop
  vertex 681500.0 5771500.0 3341.699951171875
  vertex 682500.0 5770500.0 3436.800048828125
  vertex 681500.0 5770500.0 3384.60009765625
 endloop
endfacet
facet normal -0.032320357859134674 -0.1266051083803177 -0.9914265275001526
 outer loop
  vertex 681500.0 5771500.0 3341.699951171875
  vertex 682500.0 5771500.0 3309.10009765625
  vertex 682500.0 5770500.0 3436.800048828125
 endloop
endfacet
facet normal -0.32319745421409607 -0.1198730543255806 -0.9387086629867554
 outer loop
  vertex 682500.0 5771500.0 3309.10009765625
  vertex 683500.0 5770500.0 3092.5
  vertex 682500.0 5770500.0 3436.800048828125
 endloop
endfacet
facet normal -0.18488124012947083 0.027899067848920822 -0.9823647737503052
 outer loop
  vertex 682500.0 5771500.0 3309.10009765625
  vertex 683500.0 5771500.0 3120.89990234375
  vertex 683500.0 5770500.0 3092.5
 endloop
endfacet
facet normal 0.02348404936492443 0.028380626812577248 -0.9993212819099426
 outer loop
  vertex 683500.0 5771500.0 3120.89990234375
  vertex 684500.0 5770500.0 3116.0
  vertex 683500.0 5770500.0 3092.5
 endloop
endfacet
facet normal -0.01639661379158497 -0.011497694067656994 -0.9997994899749756
 outer loop
  vertex 683500.0 5771500.0 3120.89990234375
  vertex 684500.0 5771500.0 3104.5
  vertex 684500.0 5770500.0 3116.0
 endloop
endfacet
facet normal 0.00309987785294652 -0.011499184183776379 -0.9999290704727173
 outer loop
  vertex 684500.0 5771500.0 3104.5
  vertex 685500.0 5770500.0 3119.10009765625
  vertex 684500.0 5770500.0 3116.0
 endloop
endfacet
facet normal 0.03287661448121071 0.018286850303411484 -0.9992921352386475
 outer loop
  vertex 684500.0 5771500.0 3104.5
  vertex 685500.0 5771500.0 3137.39990234375
  vertex 685500.0 5770500.0 3119.10009765625
 endloop
endfacet
facet normal 0.023889081552624702 0.018291519954800606 -0.9995472431182861
 outer loop
  vertex 685500.0 5771500.0 3137.39990234375
  vertex 686500.0 5770500.0 3143.0
  vertex 685500.0 5770500.0 3119.10009765625
 endloop
endfacet
facet normal -0.02438168041408062 -0.029977595433592796 -0.9992531538009644
 outer loop
  vertex 685500.0 5771500.0 3137.39990234375
  vertex 686500.0 5771500.0 3113.0
  vertex 686500.0 5770500.0 3143.0
 endloop
endfacet
facet normal -0.023582924157381058 -0.02997816912829876 -0.9992722868919373
 outer loop
  vertex 686500.0 5771500.0 3113.0
  vertex 687500.0 5770500.0 3119.39990234375
  vertex 686500.0 5770500.0 3143.0
 endloop
endfacet
facet normal 0.0038998606614768505 -0.0024999731685966253 -0.9999893307685852
 outer loop
  vertex 686500.0 5771500.0 3113.0
  vertex 687500.0 5771500.0 3116.89990234375
  vertex 687500.0 5770500.0 3119.39990234375
 endloop
endfacet
facet normal -0.05899563431739807 -0.007187224458903074 -0.998232364654541
 outer loop
  vertex 673500.0 5772500.0 3599.10009765625
  vertex 674500.0 5771500.0 3547.199951171875
  vertex 673500.0 5771500.0 3606.300048828125
 endloop
endfacet
facet normal -0.05362284928560257 -0.0017974541988223791 -0.9985596537590027
 outer loop
  vertex 673500.0 5772500.0 3599.10009765625
  vertex 674500.0 5772500.0 3545.39990234375
  vertex 674500.0 5771500.0 3547.199951171875
 endloop
endfacet
facet normal -0.08132939785718918 -0.001794082811102271 -0.9966856241226196
 outer loop
  vertex 674500.0 5772500.0 3545.39990234375
  vertex 675500.0 5771500.0 3465.60009765625
  vertex 674500.0 5771500.0 3547.199951171875
 endloop
endfacet
facet normal -0.050513722002506256 0.02915024943649769 -0.9982978105545044
 outer loop
  vertex 674500.0 5772500.0 3545.39990234375
  vertex 675500.0 5772500.0 3494.800048828125
  vertex 675500.0 5771500.0 3465.60009765625
 endloop
endfacet
facet normal -0.05658523365855217 0.029140746220946312 -0.9979724287986755
 outer loop
  vertex 675500.0 5772500.0 3494.800048828125
  vertex 676500.0 5771500.0 3408.89990234375
  vertex 675500.0 5771500.0 3465.60009765625
 endloop
endfacet
facet normal -0.06076861172914505 0.024946002289652824 -0.9978401064872742
 outer loop
  vertex 675500.0 5772500.0 3494.800048828125
  vertex 676500.0 5772500.0 3433.89990234375
  vertex 676500.0 5771500.0 3408.89990234375
 endloop
endfacet
facet normal -0.02568344958126545 0.024983946233987808 -0.9993578791618347
 outer loop
  vertex 676500.0 5772500.0 3433.89990234375
  vertex 677500.0 5771500.0 3383.199951171875
  vertex 676500.0 5771500.0 3408.89990234375
 endloop
endfacet
facet normal -0.07367921620607376 -0.023130670189857483 -0.9970136880874634
 outer loop
  vertex 676500.0 5772500.0 3433.89990234375
  vertex 677500.0 5772500.0 3360.0
  vertex 677500.0 5771500.0 3383.199951171875
 endloop
endfacet
facet normal 0.09010760486125946 -0.02309935912489891 -0.995664119720459
 outer loop
  vertex 677500.0 5772500.0 3360.0
  vertex 678500.0 5771500.0 3473.699951171875
  vertex 677500.0 5771500.0 3383.199951171875
 endloop
endfacet
facet normal 0.03227652609348297 -0.08099046349525452 -0.9961920976638794
 outer loop
  vertex 677500.0 5772500.0 3360.0
  vertex 678500.0 5772500.0 3392.39990234375
  vertex 678500.0 5771500.0 3473.699951171875
 endloop
endfacet
facet normal -0.025009484961628914 -0.08100733906030655 -0.9963997006416321
 outer loop
  vertex 678500.0 5772500.0 3392.39990234375
  vertex 679500.0 5771500.0 3448.60009765625
  vertex 678500.0 5771500.0 3473.699951171875
 endloop
endfacet
facet normal 0.03367256373167038 -0.02248155139386654 -0.999180018901825
 outer loop
  vertex 678500.0 5772500.0 3392.39990234375
  vertex 679500.0 5772500.0 3426.10009765625
  vertex 679500.0 5771500.0 3448.60009765625
 endloop
endfacet
facet normal -0.15977972745895386 -0.02220531553030014 -0.9869029521942139
 outer loop
  vertex 679500.0 5772500.0 3426.10009765625
  vertex 680500.0 5771500.0 3286.699951171875
  vertex 679500.0 5771500.0 3448.60009765625
 endloop
endfacet
facet normal -0.11804404109716415 0.02035238780081272 -0.9927997589111328
 outer loop
  vertex 679500.0 5772500.0 3426.10009765625
  vertex 680500.0 5772500.0 3307.199951171875
  vertex 680500.0 5771500.0 3286.699951171875
 endloop
endfacet
facet normal 0.05490550026297569 0.020464777946472168 -0.9982818365097046
 outer loop
  vertex 680500.0 5772500.0 3307.199951171875
  vertex 681500.0 5771500.0 3341.699951171875
  vertex 680500.0 5771500.0 3286.699951171875
 endloop
endfacet
facet normal -0.07600956410169601 -0.11019902676343918 -0.9909988641738892
 outer loop
  vertex 680500.0 5772500.0 3307.199951171875
  vertex 681500.0 5772500.0 3230.5
  vertex 681500.0 5771500.0 3341.699951171875
 endloop
endfacet
facet normal -0.032383162528276443 -0.1104607805609703 -0.9933527708053589
 outer loop
  vertex 681500.0 5772500.0 3230.5
  vertex 682500.0 5771500.0 3309.10009765625
  vertex 681500.0 5771500.0 3341.699951171875
 endloop
endfacet
facet normal -0.0536508709192276 -0.1314546912908554 -0.9898692965507507
 outer loop
  vertex 681500.0 5772500.0 3230.5
  vertex 682500.0 5772500.0 3176.300048828125
  vertex 682500.0 5771500.0 3309.10009765625
 endloop
endfacet
facet normal -0.18339796364307404 -0.12941144406795502 -0.9744833707809448
 outer loop
  vertex 682500.0 5772500.0 3176.300048828125
  vertex 683500.0 5771500.0 3120.89990234375
  vertex 682500.0 5771500.0 3309.10009765625
 endloop
endfacet
facet normal -0.06217802315950394 -0.006886383984237909 -0.9980413317680359
 outer loop
  vertex 682500.0 5772500.0 3176.300048828125
  vertex 683500.0 5772500.0 3114.0
  vertex 683500.0 5771500.0 3120.89990234375
 endloop
endfacet
facet normal -0.016397306695580482 -0.006898810621351004 -0.9998417496681213
 outer loop
  vertex 683500.0 5772500.0 3114.0
  vertex 684500.0 5771500.0 3104.5
  vertex 683500.0 5771500.0 3120.89990234375
 endloop
endfacet
facet normal -0.00759986462071538 0.0018998440355062485 -0.9999693036079407
 outer loop
  vertex 683500.0 5772500.0 3114.0
  vertex 684500.0 5772500.0 3106.39990234375
  vertex 684500.0 5771500.0 3104.5
 endloop
endfacet
facet normal 0.032882049679756165 0.0018988715019077063 -0.9994574189186096
 outer loop
  vertex 684500.0 5772500.0 3106.39990234375
  vertex 685500.0 5771500.0 3137.39990234375
  vertex 684500.0 5771500.0 3104.5
 endloop
endfacet
facet normal 0.005298224743455648 -0.025691106915473938 -0.9996558427810669
 outer loop
  vertex 684500.0 5772500.0 3106.39990234375
  vertex 685500.0 5772500.0 3111.699951171875
  vertex 685500.0 5771500.0 3137.39990234375
 endloop
endfacet
facet normal -0.024384595453739166 -0.025683827698230743 -0.999372661113739
 outer loop
  vertex 685500.0 5772500.0 3111.699951171875
  vertex 686500.0 5771500.0 3113.0
  vertex 685500.0 5771500.0 3137.39990234375
 endloop
endfacet
facet normal 0.0038000093773007393 0.0024999740999192 -0.9999896287918091
 outer loop
  vertex 685500.0 5772500.0 3111.699951171875
  vertex 686500.0 5772500.0 3115.5
  vertex 686500.0 5771500.0 3113.0
 endloop
endfacet
facet normal 0.0038998606614768505 0.0024999731685966253 -0.9999893307685852
 outer loop
  vertex 686500.0 5772500.0 3115.5
  vertex 687500.0 5771500.0 3116.89990234375
  vertex 686500.0 5771500.0 3113.0
 endloop
endfacet
facet normal -0.005699715111404657 -0.007099559530615807 -0.9999585747718811
 outer loop
  vertex 686500.0 5772500.0 3115.5
  vertex 687500.0 5772500.0 3109.800048828125
  vertex 687500.0 5771500.0 3116.89990234375
 endloop
endfacet
facet normal -0.05305591598153114 0.14503857493400574 -0.9880024194717407
 outer loop
  vertex 673500.0 5773500.0 3745.89990234375
  vertex 674500.0 5772500.0 3545.39990234375
  vertex 673500.0 5772500.0 3599.10009765625
 endloop
endfacet
facet normal -0.15631429851055145 0.041545771062374115 -0.9868332147598267
 outer loop
  vertex 673500.0 5773500.0 3745.89990234375
  vertex 674500.0 5773500.0 3587.5
  vertex 674500.0 5772500.0 3545.39990234375
 endloop
endfacet
facet normal -0.050490591675043106 0.04200918599963188 -0.9978405833244324
 outer loop
  vertex 674500.0 5773500.0 3587.5
  vertex 675500.0 5772500.0 3494.800048828125
  vertex 674500.0 5772500.0 3545.39990234375
 endloop
endfacet
facet normal -0.10755933076143265 -0.015408228151500225 -0.9940792918205261
 outer loop
  vertex 674500.0 5773500.0 3587.5
  vertex 675500.0 5773500.0 3479.300048828125
  vertex 675500.0 5772500.0 3494.800048828125
 endloop
endfacet
facet normal -0.06078025698661804 -0.015469485893845558 -0.9980313181877136
 outer loop
  vertex 675500.0 5773500.0 3479.300048828125
  vertex 676500.0 5772500.0 3433.89990234375
  vertex 675500.0 5772500.0 3494.800048828125
 endloop
endfacet
facet normal -0.04036671295762062 0.0049958620220422745 -0.9991724491119385
 outer loop
  vertex 675500.0 5773500.0 3479.300048828125
  vertex 676500.0 5773500.0 3438.89990234375
  vertex 676500.0 5772500.0 3433.89990234375
 endloop
endfacet
facet normal -0.0736980214715004 0.004986340645700693 -0.9972680807113647
 outer loop
  vertex 676500.0 5773500.0 3438.89990234375
  vertex 677500.0 5772500.0 3360.0
  vertex 676500.0 5772500.0 3433.89990234375
 endloop
endfacet
facet normal -0.07865546643733978 0.0 -0.9969018697738647
 outer loop
  vertex 676500.0 5773500.0 3438.89990234375
  vertex 677500.0 5773500.0 3360.0
  vertex 677500.0 5772500.0 3360.0
 endloop
endfacet
facet normal 0.03238290920853615 0.0 -0.9994755387306213
 outer loop
  vertex 677500.0 5773500.0 3360.0
  vertex 678500.0 5772500.0 3392.39990234375
  vertex 677500.0 5772500.0 3360.0
 endloop
endfacet
facet normal 0.032482847571372986 0.00010004483192460611 -0.9994722604751587
 outer loop
  vertex 677500.0 5773500.0 3360.0
  vertex 678500.0 5773500.0 3392.5
  vertex 678500.0 5772500.0 3392.39990234375
 endloop
endfacet
facet normal 0.033681076020002365 0.00010004086652770638 -0.9994326233863831
 outer loop
  vertex 678500.0 5773500.0 3392.5
  vertex 679500.0 5772500.0 3426.10009765625
  vertex 678500.0 5772500.0 3392.39990234375
 endloop
endfacet
facet normal -0.08099377900362015 -0.11426269263029099 -0.9901434183120728
 outer loop
  vertex 678500.0 5773500.0 3392.5
  vertex 679500.0 5773500.0 3310.699951171875
  vertex 679500.0 5772500.0 3426.10009765625
 endloop
endfacet
facet normal -0.1173008382320404 -0.11384791880846024 -0.9865491390228271
 outer loop
  vertex 679500.0 5773500.0 3310.699951171875
  vertex 680500.0 5772500.0 3307.199951171875
  vertex 679500.0 5772500.0 3426.10009765625
 endloop
endfacet
facet normal -0.041832394897937775 -0.038338035345077515 -0.9983888268470764
 outer loop
  vertex 679500.0 5773500.0 3310.699951171875
  vertex 680500.0 5773500.0 3268.800048828125
  vertex 680500.0 5772500.0 3307.199951171875
 endloop
endfacet
facet normal -0.07641933858394623 -0.038259413093328476 -0.9963414072990417
 outer loop
  vertex 680500.0 5773500.0 3268.800048828125
  vertex 681500.0 5772500.0 3230.5
  vertex 680500.0 5772500.0 3307.199951171875
 endloop
endfacet
facet normal -0.07375148683786392 -0.03558006510138512 -0.9966417551040649
 outer loop
  vertex 680500.0 5773500.0 3268.800048828125
  vertex 681500.0 5773500.0 3194.800048828125
  vertex 681500.0 5772500.0 3230.5
 endloop
endfacet
facet normal -0.05408616364002228 -0.03562500327825546 -0.9979005455970764
 outer loop
  vertex 681500.0 5773500.0 3194.800048828125
  vertex 682500.0 5772500.0 3176.300048828125
  vertex 681500.0 5772500.0 3230.5
 endloop
endfacet
facet normal -0.0684526115655899 -0.050019219517707825 -0.9963997006416321
 outer loop
  vertex 681500.0 5773500.0 3194.800048828125
  vertex 682500.0 5773500.0 3126.10009765625
  vertex 682500.0 5772500.0 3176.300048828125
 endloop
endfacet
facet normal -0.06210160255432129 -0.050040047615766525 -0.9968146085739136
 outer loop
  vertex 682500.0 5773500.0 3126.10009765625
  vertex 683500.0 5772500.0 3114.0
  vertex 682500.0 5772500.0 3176.300048828125
 endloop
endfacet
facet normal -0.03457066789269447 -0.022480862215161324 -0.9991493821144104
 outer loop
  vertex 682500.0 5773500.0 3126.10009765625
  vertex 683500.0 5773500.0 3091.5
  vertex 683500.0 5772500.0 3114.0
 endloop
endfacet
facet normal -0.007597955409437418 -0.02249365858733654 -0.9997181296348572
 outer loop
  vertex 683500.0 5773500.0 3091.5
  vertex 684500.0 5772500.0 3106.39990234375
  vertex 683500.0 5772500.0 3114.0
 endloop
endfacet
facet normal 0.009299500845372677 -0.005599523428827524 -0.9999410510063171
 outer loop
  vertex 683500.0 5773500.0 3091.5
  vertex 684500.0 5773500.0 3100.800048828125
  vertex 684500.0 5772500.0 3106.39990234375
 endloop
endfacet
facet normal 0.005299891345202923 -0.0055996873416006565 -0.9999703168869019
 outer loop
  vertex 684500.0 5773500.0 3100.800048828125
  vertex 685500.0 5772500.0 3111.699951171875
  vertex 684500.0 5772500.0 3106.39990234375
 endloop
endfacet
facet normal 0.006399706471711397 -0.004499861970543861 -0.9999693632125854
 outer loop
  vertex 684500.0 5773500.0 3100.800048828125
  vertex 685500.0 5773500.0 3107.199951171875
  vertex 685500.0 5772500.0 3111.699951171875
 endloop
endfacet
facet normal 0.0037999830674380064 -0.004499922040849924 -0.9999827146530151
 outer loop
  vertex 685500.0 5773500.0 3107.199951171875
  vertex 686500.0 5772500.0 3115.5
  vertex 685500.0 5772500.0 3111.699951171875
 endloop
endfacet
facet normal 0.00949956476688385 0.001199896214529872 -0.9999541640281677
 outer loop
  vertex 685500.0 5773500.0 3107.199951171875
  vertex 686500.0 5773500.0 3116.699951171875
  vertex 686500.0 5772500.0 3115.5
 endloop
endfacet
facet normal -0.005699854344129562 0.0011999307898804545 -0.999983012676239
 outer loop
  vertex 686500.0 5773500.0 3116.699951171875
  vertex 687500.0 5772500.0 3109.800048828125
  vertex 686500.0 5772500.0 3115.5
 endloop
endfacet
facet normal -0.15563203394412994 -0.10208436101675034 -0.9825260043144226
 outer loop
  vertex 673500.0 5774500.0 3642.0
  vertex 674500.0 5773500.0 3587.5
  vertex 673500.0 5773500.0 3745.89990234375
 endloop
endfacet
facet normal -0.05511603131890297 -0.0006988889654166996 -0.9984796643257141
 outer loop
  vertex 673500.0 5774500.0 3642.0
  vertex 674500.0 5774500.0 3586.800048828125
  vertex 674500.0 5773500.0 3587.5
 endloop
endfacet
facet normal -0.10757207870483398 -0.0006958894082345068 -0.9941970705986023
 outer loop
  vertex 674500.0 5774500.0 3586.800048828125
  vertex 675500.0 5773500.0 3479.300048828125
  vertex 674500.0 5773500.0 3587.5
 endloop
endfacet
facet normal -0.1277163028717041 -0.021120823919773102 -0.9915858507156372
 outer loop
  vertex 674500.0 5774500.0 3586.800048828125
  vertex 675500.0 5774500.0 3458.0
  vertex 675500.0 5773500.0 3479.300048828125
 endloop
endfacet
facet normal -0.040358081459999084 -0.02127786912024021 -0.9989587068557739
 outer loop
  vertex 675500.0 5774500.0 3458.0
  vertex 676500.0 5773500.0 3438.89990234375
  vertex 675500.0 5773500.0 3479.300048828125
 endloop
endfacet
facet normal -0.06588374823331833 -0.046846166253089905 -0.9967269897460938
 outer loop
  vertex 675500.0 5774500.0 3458.0
  vertex 676500.0 5774500.0 3391.89990234375
  vertex 676500.0 5773500.0 3438.89990234375
 endloop
endfacet
facet normal -0.07856927067041397 -0.04680304229259491 -0.9958093762397766
 outer loop
  vertex 676500.0 5774500.0 3391.89990234375
  vertex 677500.0 5773500.0 3360.0
  vertex 676500.0 5773500.0 3438.89990234375
 endloop
endfacet
facet normal -0.12974649667739868 -0.09827195852994919 -0.9866653680801392
 outer loop
  vertex 676500.0 5774500.0 3391.89990234375
  vertex 677500.0 5774500.0 3260.39990234375
  vertex 677500.0 5773500.0 3360.0
 endloop
endfacet
facet normal 0.03232308849692345 -0.09905792772769928 -0.9945565462112427
 outer loop
  vertex 677500.0 5774500.0 3260.39990234375
  vertex 678500.0 5773500.0 3392.5
  vertex 677500.0 5773500.0 3360.0
 endloop
endfacet
facet normal 0.08975736051797867 -0.041694194078445435 -0.9950905442237854
 outer loop
  vertex 677500.0 5774500.0 3260.39990234375
  vertex 678500.0 5774500.0 3350.60009765625
  vertex 678500.0 5773500.0 3392.5
 endloop
endfacet
facet normal -0.0814567431807518 -0.04172405228018761 -0.9958031177520752
 outer loop
  vertex 678500.0 5774500.0 3350.60009765625
  vertex 679500.0 5773500.0 3310.699951171875
  vertex 678500.0 5773500.0 3392.5
 endloop
endfacet
facet normal -0.05371718108654022 -0.013878488913178444 -0.9984597563743591
 outer loop
  vertex 678500.0 5774500.0 3350.60009765625
  vertex 679500.0 5774500.0 3296.800048828125
  vertex 679500.0 5773500.0 3310.699951171875
 endloop
endfacet
facet normal -0.041859135031700134 -0.013886378146708012 -0.9990270137786865
 outer loop
  vertex 679500.0 5774500.0 3296.800048828125
  vertex 680500.0 5773500.0 3268.800048828125
  vertex 679500.0 5773500.0 3310.699951171875
 endloop
endfacet
facet normal -0.08917302638292313 -0.061337508261203766 -0.9941257238388062
 outer loop
  vertex 679500.0 5774500.0 3296.800048828125
  vertex 680500.0 5774500.0 3207.10009765625
  vertex 680500.0 5773500.0 3268.800048828125
 endloop
endfacet
facet normal -0.07365890592336655 -0.06141555309295654 -0.9953905940055847
 outer loop
  vertex 680500.0 5774500.0 3207.10009765625
  vertex 681500.0 5773500.0 3194.800048828125
  vertex 680500.0 5773500.0 3268.800048828125
 endloop
endfacet
facet normal -0.089761883020401 -0.07754868268966675 -0.9929395914077759
 outer loop
  vertex 680500.0 5774500.0 3207.10009765625
  vertex 681500.0 5774500.0 3116.699951171875
  vertex 681500.0 5773500.0 3194.800048828125
 endloop
endfacet
facet normal -0.0683312863111496 -0.07768099755048752 -0.9946338534355164
 outer loop
  vertex 681500.0 5774500.0 3116.699951171875
  vertex 682500.0 5773500.0 3126.10009765625
  vertex 681500.0 5773500.0 3194.800048828125
 endloop
endfacet
facet normal -0.009797772392630577 -0.019195735454559326 -0.9997677206993103
 outer loop
  vertex 681500.0 5774500.0 3116.699951171875
  vertex 682500.0 5774500.0 3106.89990234375
  vertex 682500.0 5773500.0 3126.10009765625
 endloop
endfacet
facet normal -0.034573040902614594 -0.019185181707143784 -0.9992180466651917
 outer loop
  vertex 682500.0 5774500.0 3106.89990234375
  vertex 683500.0 5773500.0 3091.5
  vertex 682500.0 5773500.0 3126.10009765625
 endloop
endfacet
facet normal -0.003599579678848386 0.011799151077866554 -0.9999239444732666
 outer loop
  vertex 682500.0 5774500.0 3106.89990234375
  vertex 683500.0 5774500.0 3103.300048828125
  vertex 683500.0 5773500.0 3091.5
 endloop
endfacet
facet normal 0.009298998862504959 0.011798717081546783 -0.9998871088027954
 outer loop
  vertex 683500.0 5774500.0 3103.300048828125
  vertex 684500.0 5773500.0 3100.800048828125
  vertex 683500.0 5773500.0 3091.5
 endloop
endfacet
facet normal 0.011697971262037754 0.014197547920048237 -0.9998307824134827
 outer loop
  vertex 683500.0 5774500.0 3103.300048828125
  vertex 684500.0 5774500.0 3115.0
  vertex 684500.0 5773500.0 3100.800048828125
 endloop
endfacet
facet normal 0.006399126257747412 0.01419822871685028 -0.9998787045478821
 outer loop
  vertex 684500.0 5774500.0 3115.0
  vertex 685500.0 5773500.0 3107.199951171875
  vertex 684500.0 5773500.0 3100.800048828125
 endloop
endfacet
facet normal 0.0037997658364474773 0.011599233373999596 -0.9999254941940308
 outer loop
  vertex 684500.0 5774500.0 3115.0
  vertex 685500.0 5774500.0 3118.800048828125
  vertex 685500.0 5773500.0 3107.199951171875
 endloop
endfacet
facet normal 0.009498932398855686 0.011598793789744377 -0.9998876452445984
 outer loop
  vertex 685500.0 5774500.0 3118.800048828125
  vertex 686500.0 5773500.0 3116.699951171875
  vertex 685500.0 5773500.0 3107.199951171875
 endloop
endfacet
facet normal -0.01389783713966608 -0.011798088438808918 -0.9998338222503662
 outer loop
  vertex 685500.0 5774500.0 3118.800048828125
  vertex 686500.0 5774500.0 3104.89990234375
  vertex 686500.0 5773500.0 3116.699951171875
 endloop
endfacet
facet normal -0.05499961972236633 -0.06496332585811615 -0.996370792388916
 outer loop
  vertex 673500.0 5775500.0 3576.800048828125
  vertex 674500.0 5774500.0 3586.800048828125
  vertex 673500.0 5774500.0 3642.0
 endloop
endfacet
facet normal -0.05618732050061226 -0.06614958494901657 -0.9962264895439148
 outer loop
  vertex 673500.0 5775500.0 3576.800048828125
  vertex 674500.0 5775500.0 3520.39990234375
  vertex 674500.0 5774500.0 3586.800048828125
 endloop
endfacet
facet normal -0.12746867537498474 -0.0657137855887413 -0.989663302898407
 outer loop
  vertex 674500.0 5775500.0 3520.39990234375
  vertex 675500.0 5774500.0 3458.0
  vertex 674500.0 5774500.0 3586.800048828125
 endloop
endfacet
facet normal -0.03246835246682167 0.029870787635445595 -0.9990262389183044
 outer loop
  vertex 674500.0 5775500.0 3520.39990234375
  vertex 675500.0 5775500.0 3487.89990234375
  vertex 675500.0 5774500.0 3458.0
 endloop
endfacet
facet normal -0.06592682749032974 0.029821528121829033 -0.9973787665367126
 outer loop
  vertex 675500.0 5775500.0 3487.89990234375
  vertex 676500.0 5774500.0 3391.89990234375
  vertex 675500.0 5774500.0 3458.0
 endloop
endfacet
facet normal -0.04090386629104614 0.05487103760242462 -0.9976552724838257
 outer loop
  vertex 675500.0 5775500.0 3487.89990234375
  vertex 676500.0 5775500.0 3446.89990234375
  vertex 676500.0 5774500.0 3391.89990234375
 endloop
endfacet
facet normal -0.13018415868282318 0.054449647665023804 -0.9899935722351074
 outer loop
  vertex 676500.0 5775500.0 3446.89990234375
  vertex 677500.0 5774500.0 3260.39990234375
  vertex 676500.0 5774500.0 3391.89990234375
 endloop
endfacet
facet normal -0.18067602813243866 0.0027539548464119434 -0.983538806438446
 outer loop
  vertex 676500.0 5775500.0 3446.89990234375
  vertex 677500.0 5775500.0 3263.199951171875
  vertex 677500.0 5774500.0 3260.39990234375
 endloop
endfacet
facet normal 0.08983513712882996 0.002788716461509466 -0.9959527850151062
 outer loop
  vertex 677500.0 5775500.0 3263.199951171875
  vertex 678500.0 5774500.0 3350.60009765625
  vertex 677500.0 5774500.0 3260.39990234375
 endloop
endfacet
facet normal -0.049571841955184937 -0.13605086505413055 -0.9894608855247498
 outer loop
  vertex 677500.0 5775500.0 3263.199951171875
  vertex 678500.0 5775500.0 3213.10009765625
  vertex 678500.0 5774500.0 3350.60009765625
 endloop
endfacet
facet normal -0.05322302505373955 -0.13602527976036072 -0.9892747402191162
 outer loop
  vertex 678500.0 5775500.0 3213.10009765625
  vertex 679500.0 5774500.0 3296.800048828125
  vertex 678500.0 5774500.0 3350.60009765625
 endloop
endfacet
facet normal -0.011049877852201462 -0.09437114745378494 -0.9954757690429688
 outer loop
  vertex 678500.0 5775500.0 3213.10009765625
  vertex 679500.0 5775500.0 3202.0
  vertex 679500.0 5774500.0 3296.800048828125
 endloop
endfacet
facet normal -0.08894564211368561 -0.09400284290313721 -0.991590678691864
 outer loop
  vertex 679500.0 5775500.0 3202.0
  vertex 680500.0 5774500.0 3207.10009765625
  vertex 679500.0 5774500.0 3296.800048828125
 endloop
endfacet
facet normal -0.014096098951995373 -0.019194750115275383 -0.9997164011001587
 outer loop
  vertex 679500.0 5775500.0 3202.0
  vertex 680500.0 5775500.0 3187.89990234375
  vertex 680500.0 5774500.0 3207.10009765625
 endloop
endfacet
facet normal -0.09001655876636505 -0.019118724390864372 -0.9957567453384399
 outer loop
  vertex 680500.0 5775500.0 3187.89990234375
  vertex 681500.0 5774500.0 3116.699951171875
  vertex 680500.0 5774500.0 3207.10009765625
 endloop
endfacet
facet normal -0.08666187524795532 -0.01573863998055458 -0.9961134791374207
 outer loop
  vertex 680500.0 5775500.0 3187.89990234375
  vertex 681500.0 5775500.0 3100.89990234375
  vertex 681500.0 5774500.0 3116.699951171875
 endloop
endfacet
facet normal -0.009798355400562286 -0.015797318890690804 -0.9998272061347961
 outer loop
  vertex 681500.0 5775500.0 3100.89990234375
  vertex 682500.0 5774500.0 3106.89990234375
  vertex 681500.0 5774500.0 3116.699951171875
 endloop
endfacet
facet normal 0.009599593468010426 0.003599908435717225 -0.9999474287033081
 outer loop
  vertex 681500.0 5775500.0 3100.89990234375
  vertex 682500.0 5775500.0 3110.5
  vertex 682500.0 5774500.0 3106.89990234375
 endloop
endfacet
facet normal -0.0035998066887259483 0.0036000509280711412 -0.999987006187439
 outer loop
  vertex 682500.0 5775500.0 3110.5
  vertex 683500.0 5774500.0 3103.300048828125
  vertex 682500.0 5774500.0 3106.89990234375
 endloop
endfacet
facet normal -0.0009999802568927407 0.006199828814715147 -0.9999802708625793
 outer loop
  vertex 682500.0 5775500.0 3110.5
  vertex 683500.0 5775500.0 3109.5
  vertex 683500.0 5774500.0 3103.300048828125
 endloop
endfacet
facet normal 0.011698925867676735 0.006199407856911421 -0.9999123811721802
 outer loop
  vertex 683500.0 5775500.0 3109.5
  vertex 684500.0 5774500.0 3115.0
  vertex 683500.0 5774500.0 3103.300048828125
 endloop
endfacet
facet normal -0.003999787382781506 -0.009499494917690754 -0.9999468922615051
 outer loop
  vertex 683500.0 5775500.0 3109.5
  vertex 684500.0 5775500.0 3105.5
  vertex 684500.0 5774500.0 3115.0
 endloop
endfacet
facet normal 0.00379985012114048 -0.009499503299593925 -0.9999476671218872
 outer loop
  vertex 684500.0 5775500.0 3105.5
  vertex 685500.0 5774500.0 3118.800048828125
  vertex 684500.0 5774500.0 3115.0
 endloop
endfacet
facet normal 0.0056996941566467285 -0.007599754724651575 -0.999954879283905
 outer loop
  vertex 684500.0 5775500.0 3105.5
  vertex 685500.0 5775500.0 3111.199951171875
  vertex 685500.0 5774500.0 3118.800048828125
 endloop
endfacet
facet normal -0.013898402452468872 -0.007599143777042627 -0.9998745322227478
 outer loop
  vertex 685500.0 5775500.0 3111.199951171875
  vertex 686500.0 5774500.0 3104.89990234375
  vertex 685500.0 5774500.0 3118.800048828125
 endloop
endfacet
facet normal -0.05587305128574371 -0.12442629784345627 -0.990654468536377
 outer loop
  vertex 673500.0 5776500.0 3451.199951171875
  vertex 674500.0 5775500.0 3520.39990234375
  vertex 673500.0 5775500.0 3576.800048828125
 endloop
endfacet
facet normal 0.016474898904561996 -0.05261978134512901 -0.9984787106513977
 outer loop
  vertex 673500.0 5776500.0 3451.199951171875
  vertex 674500.0 5776500.0 3467.699951171875
  vertex 674500.0 5775500.0 3520.39990234375
 endloop
endfacet
facet normal -0.03243788704276085 -0.0525992289185524 -0.9980887174606323
 outer loop
  vertex 674500.0 5776500.0 3467.699951171875
  vertex 675500.0 5775500.0 3487.89990234375
  vertex 674500.0 5775500.0 3520.39990234375
 endloop
endfacet
facet normal -0.0667952448129654 -0.08687354624271393 -0.9939775466918945
 outer loop
  vertex 674500.0 5776500.0 3467.699951171875
  vertex 675500.0 5776500.0 3400.5
  vertex 675500.0 5775500.0 3487.89990234375
 endloop
endfacet
facet normal -0.040810275822877884 -0.08699546009302139 -0.995372474193573
 outer loop
  vertex 675500.0 5776500.0 3400.5
  vertex 676500.0 5775500.0 3446.89990234375
  vertex 675500.0 5775500.0 3487.89990234375
 endloop
endfacet
facet normal -0.08155051618814468 -0.12741640210151672 -0.9884910583496094
 outer loop
  vertex 675500.0 5776500.0 3400.5
  vertex 676500.0 5776500.0 3318.0
  vertex 676500.0 5775500.0 3446.89990234375
 endloop
endfacet
facet normal -0.17924199998378754 -0.12577182054519653 -0.9757324457168579
 outer loop
  vertex 676500.0 5776500.0 3318.0
  vertex 677500.0 5775500.0 3263.199951171875
  vertex 676500.0 5775500.0 3446.89990234375
 endloop
endfacet
facet normal -0.10605444759130478 -0.05163697153329849 -0.9930186867713928
 outer loop
  vertex 676500.0 5776500.0 3318.0
  vertex 677500.0 5776500.0 3211.199951171875
  vertex 677500.0 5775500.0 3263.199951171875
 endloop
endfacet
facet normal -0.04996974766254425 -0.05186496302485466 -0.9974031448364258
 outer loop
  vertex 677500.0 5776500.0 3211.199951171875
  vertex 678500.0 5775500.0 3213.10009765625
  vertex 677500.0 5775500.0 3263.199951171875
 endloop
endfacet
facet normal -0.0011999445268884301 -0.0031000804156064987 -0.9999944567680359
 outer loop
  vertex 677500.0 5776500.0 3211.199951171875
  vertex 678500.0 5776500.0 3210.0
  vertex 678500.0 5775500.0 3213.10009765625
 endloop
endfacet
facet normal -0.011099359951913357 -0.003099891822785139 -0.9999335408210754
 outer loop
  vertex 678500.0 5776500.0 3210.0
  vertex 679500.0 5775500.0 3202.0
  vertex 678500.0 5775500.0 3213.10009765625
 endloop
endfacet
facet normal -0.05029094219207764 -0.04230823740363121 -0.9978380799293518
 outer loop
  vertex 678500.0 5776500.0 3210.0
  vertex 679500.0 5776500.0 3159.60009765625
  vertex 679500.0 5775500.0 3202.0
 endloop
endfacet
facet normal -0.01408604346215725 -0.042357638478279114 -0.9990032315254211
 outer loop
  vertex 679500.0 5776500.0 3159.60009765625
  vertex 680500.0 5775500.0 3187.89990234375
  vertex 679500.0 5775500.0 3202.0
 endloop
endfacet
facet normal -0.03461078926920891 -0.06283767521381378 -0.9974234700202942
 outer loop
  vertex 679500.0 5776500.0 3159.60009765625
  vertex 680500.0 5776500.0 3124.89990234375
  vertex 680500.0 5775500.0 3187.89990234375
 endloop
endfacet
facet normal -0.08650240302085876 -0.06263966858386993 -0.9942804574966431
 outer loop
  vertex 680500.0 5776500.0 3124.89990234375
  vertex 681500.0 5775500.0 3100.89990234375
  vertex 680500.0 5775500.0 3187.89990234375
 endloop
endfacet
facet normal -0.042852841317653656 -0.01887916959822178 -0.9989030361175537
 outer loop
  vertex 680500.0 5776500.0 3124.89990234375
  vertex 681500.0 5776500.0 3082.0
  vertex 681500.0 5775500.0 3100.89990234375
 endloop
endfacet
facet normal 0.009597941301763058 -0.018895655870437622 -0.9997753500938416
 outer loop
  vertex 681500.0 5776500.0 3082.0
  vertex 682500.0 5775500.0 3110.5
  vertex 681500.0 5775500.0 3100.89990234375
 endloop
endfacet
facet normal 0.021594546735286713 -0.006898128893226385 -0.9997429847717285
 outer loop
  vertex 681500.0 5776500.0 3082.0
  vertex 682500.0 5776500.0 3103.60009765625
  vertex 682500.0 5775500.0 3110.5
 endloop
endfacet
facet normal -0.0009999757166951895 -0.006899734493345022 -0.9999756813049316
 outer loop
  vertex 682500.0 5776500.0 3103.60009765625
  vertex 683500.0 5775500.0 3109.5
  vertex 682500.0 5775500.0 3110.5
 endloop
endfacet
facet normal -0.0006000848952680826 -0.006499861367046833 -0.9999786615371704
 outer loop
  vertex 682500.0 5776500.0 3103.60009765625
  vertex 683500.0 5776500.0 3103.0
  vertex 683500.0 5775500.0 3109.5
 endloop
endfacet
facet normal -0.003999883309006691 -0.0064998106099665165 -0.9999708533287048
 outer loop
  vertex 683500.0 5776500.0 3103.0
  vertex 684500.0 5775500.0 3105.5
  vertex 683500.0 5775500.0 3109.5
 endloop
endfacet
facet normal -0.0063995178788900375 -0.008899367414414883 -0.9999399185180664
 outer loop
  vertex 683500.0 5776500.0 3103.0
  vertex 684500.0 5776500.0 3096.60009765625
  vertex 684500.0 5775500.0 3105.5
 endloop
endfacet
facet normal 0.005699633155018091 -0.008899405598640442 -0.9999442100524902
 outer loop
  vertex 684500.0 5776500.0 3096.60009765625
  vertex 685500.0 5775500.0 3111.199951171875
  vertex 684500.0 5775500.0 3105.5
 endloop
endfacet
facet normal -0.0037993781734257936 -0.018396655097603798 -0.9998235106468201
 outer loop
  vertex 684500.0 5776500.0 3096.60009765625
  vertex 685500.0 5776500.0 3092.800048828125
  vertex 685500.0 5775500.0 3111.199951171875
 endloop
endfacet
facet normal 0.016449328511953354 -0.07656419277191162 -0.9969289898872375
 outer loop
  vertex 673500.0 5777500.0 3374.39990234375
  vertex 674500.0 5776500.0 3467.699951171875
  vertex 673500.0 5776500.0 3451.199951171875
 endloop
endfacet
facet normal -0.03824040666222572 -0.1306716501712799 -0.9906879663467407
 outer loop
  vertex 673500.0 5777500.0 3374.39990234375
  vertex 674500.0 5777500.0 3335.800048828125
  vertex 674500.0 5776500.0 3467.699951171875
 endloop
endfacet
facet normal -0.06647554785013199 -0.13047803938388824 -0.989220142364502
 outer loop
  vertex 674500.0 5777500.0 3335.800048828125
  vertex 675500.0 5776500.0 3400.5
  vertex 674500.0 5776500.0 3467.699951171875
 endloop
endfacet
facet normal -0.008875788189470768 -0.07339867204427719 -0.9972631931304932
 outer loop
  vertex 674500.0 5777500.0 3335.800048828125
  vertex 675500.0 5777500.0 3326.89990234375
  vertex 675500.0 5776500.0 3400.5
 endloop
endfacet
facet normal -0.08200036734342575 -0.07315436005592346 -0.9939438104629517
 outer loop
  vertex 675500.0 5777500.0 3326.89990234375
  vertex 676500.0 5776500.0 3318.0
  vertex 675500.0 5776500.0 3400.5
 endloop
endfacet
facet normal -0.08915097266435623 -0.08031537383794785 -0.9927746653556824
 outer loop
  vertex 675500.0 5777500.0 3326.89990234375
  vertex 676500.0 5777500.0 3237.10009765625
  vertex 676500.0 5776500.0 3318.0
 endloop
endfacet
facet normal -0.10585419088602066 -0.08018342405557632 -0.9911435842514038
 outer loop
  vertex 676500.0 5777500.0 3237.10009765625
  vertex 677500.0 5776500.0 3211.199951171875
  vertex 676500.0 5776500.0 3318.0
 endloop
endfacet
facet normal -0.035476017743349075 -0.009593368507921696 -0.9993244409561157
 outer loop
  vertex 676500.0 5777500.0 3237.10009765625
  vertex 677500.0 5777500.0 3201.60009765625
  vertex 677500.0 5776500.0 3211.199951171875
 endloop
endfacet
facet normal -0.0011998950503766537 -0.009599404409527779 -0.9999532103538513
 outer loop
  vertex 677500.0 5777500.0 3201.60009765625
  vertex 678500.0 5776500.0 3210.0
  vertex 677500.0 5776500.0 3211.199951171875
 endloop
endfacet
facet normal -0.010097854770720005 -0.018495891243219376 -0.9997779130935669
 outer loop
  vertex 677500.0 5777500.0 3201.60009765625
  vertex 678500.0 5777500.0 3191.5
  vertex 678500.0 5776500.0 3210.0
 endloop
endfacet
facet normal -0.050327420234680176 -0.018473394215106964 -0.9985618591308594
 outer loop
  vertex 678500.0 5777500.0 3191.5
  vertex 679500.0 5776500.0 3159.60009765625
  vertex 678500.0 5776500.0 3210.0
 endloop
endfacet
facet normal -0.0010995755437761545 0.03078518807888031 -0.9995254278182983
 outer loop
  vertex 678500.0 5777500.0 3191.5
  vertex 679500.0 5777500.0 3190.39990234375
  vertex 679500.0 5776500.0 3159.60009765625
 endloop
endfacet
facet normal -0.03466290608048439 0.03076670505106449 -0.9989253282546997
 outer loop
  vertex 679500.0 5777500.0 3190.39990234375
  vertex 680500.0 5776500.0 3124.89990234375
  vertex 679500.0 5776500.0 3159.60009765625
 endloop
endfacet
facet normal -0.06367026269435883 0.001696743187494576 -0.9979695677757263
 outer loop
  vertex 679500.0 5777500.0 3190.39990234375
  vertex 680500.0 5777500.0 3126.60009765625
  vertex 680500.0 5776500.0 3124.89990234375
 endloop
endfacet
facet normal -0.04286041855812073 0.0016986305126920342 -0.9990796446800232
 outer loop
  vertex 680500.0 5777500.0 3126.60009765625
  vertex 681500.0 5776500.0 3082.0
  vertex 680500.0 5776500.0 3124.89990234375
 endloop
endfacet
facet normal -0.024787569418549538 0.019790085032582283 -0.9994968175888062
 outer loop
  vertex 680500.0 5777500.0 3126.60009765625
  vertex 681500.0 5777500.0 3101.800048828125
  vertex 681500.0 5776500.0 3082.0
 endloop
endfacet
facet normal 0.021590830758213997 0.019791554659605026 -0.9995710253715515
 outer loop
  vertex 681500.0 5777500.0 3101.800048828125
  vertex 682500.0 5776500.0 3103.60009765625
  vertex 681500.0 5776500.0 3082.0
 endloop
endfacet
facet normal -0.0041998387314379215 -0.005999838933348656 -0.9999731779098511
 outer loop
  vertex 681500.0 5777500.0 3101.800048828125
  vertex 682500.0 5777500.0 3097.60009765625
  vertex 682500.0 5776500.0 3103.60009765625
 endloop
endfacet
facet normal -0.0006000867579132318 -0.005999891087412834 -0.9999818205833435
 outer loop
  vertex 682500.0 5777500.0 3097.60009765625
  vertex 683500.0 5776500.0 3103.0
  vertex 682500.0 5776500.0 3103.60009765625
 endloop
endfacet
facet normal -0.00010009614197770134 -0.0054999166168272495 -0.999984860420227
 outer loop
  vertex 682500.0 5777500.0 3097.60009765625
  vertex 683500.0 5777500.0 3097.5
  vertex 683500.0 5776500.0 3103.0
 endloop
endfacet
facet normal -0.006399674341082573 -0.005499803926795721 -0.9999643564224243
 outer loop
  vertex 683500.0 5777500.0 3097.5
  vertex 684500.0 5776500.0 3096.60009765625
  vertex 683500.0 5776500.0 3103.0
 endloop
endfacet
facet normal -0.002800032729282975 -0.0019001355394721031 -0.9999942779541016
 outer loop
  vertex 683500.0 5777500.0 3097.5
  vertex 684500.0 5777500.0 3094.699951171875
  vertex 684500.0 5776500.0 3096.60009765625
 endloop
endfacet
facet normal -0.0038000147324055433 -0.0019001293694600463 -0.9999909996986389
 outer loop
  vertex 684500.0 5777500.0 3094.699951171875
  vertex 685500.0 5776500.0 3092.800048828125
  vertex 684500.0 5776500.0 3096.60009765625
 endloop
endfacet
facet normal -0.008859734050929546 0.0947677418589592 -0.9954599738121033
 outer loop
  vertex 674500.0 5778500.0 3431.0
  vertex 675500.0 5777500.0 3326.89990234375
  vertex 674500.0 5777500.0 3335.800048828125
 endloop
endfacet
facet normal -0.11502358317375183 -0.011621502228081226 -0.9932947754859924
 outer loop
  vertex 674500.0 5778500.0 3431.0
  vertex 675500.0 5778500.0 3315.199951171875
  vertex 675500.0 5777500.0 3326.89990234375
 endloop
endfacet
facet normal -0.08943383395671844 -0.011652269400656223 -0.9959245920181274
 outer loop
  vertex 675500.0 5778500.0 3315.199951171875
  vertex 676500.0 5777500.0 3237.10009765625
  vertex 675500.0 5777500.0 3326.89990234375
 endloop
endfacet
facet normal -0.07141552120447159 0.00648326613008976 -0.9974255561828613
 outer loop
  vertex 675500.0 5778500.0 3315.199951171875
  vertex 676500.0 5778500.0 3243.60009765625
  vertex 676500.0 5777500.0 3237.10009765625
 endloop
endfacet
facet normal -0.03547690063714981 0.006495770998299122 -0.9993493556976318
 outer loop
  vertex 676500.0 5778500.0 3243.60009765625
  vertex 677500.0 5777500.0 3201.60009765625
  vertex 676500.0 5777500.0 3237.10009765625
 endloop
endfacet
facet normal -0.03807218745350838 0.003897045273333788 -0.9992673993110657
 outer loop
  vertex 676500.0 5778500.0 3243.60009765625
  vertex 677500.0 5778500.0 3205.5
  vertex 677500.0 5777500.0 3201.60009765625
 endloop
endfacet
facet normal -0.010099506005644798 0.0038996736984699965 -0.999941349029541
 outer loop
  vertex 677500.0 5778500.0 3205.5
  vertex 678500.0 5777500.0 3191.5
  vertex 677500.0 5777500.0 3201.60009765625
 endloop
endfacet
facet normal -0.010299432091414928 0.003699729684740305 -0.9999401569366455
 outer loop
  vertex 677500.0 5778500.0 3205.5
  vertex 678500.0 5778500.0 3195.199951171875
  vertex 678500.0 5777500.0 3191.5
 endloop
endfacet
facet normal -0.0011000895174220204 0.0036999236326664686 -0.9999925494194031
 outer loop
  vertex 678500.0 5778500.0 3195.199951171875
  vertex 679500.0 5777500.0 3190.39990234375
  vertex 678500.0 5777500.0 3191.5
 endloop
endfacet
facet normal -0.026684045791625977 -0.021886857226490974 -0.9994043111801147
 outer loop
  vertex 678500.0 5778500.0 3195.199951171875
  vertex 679500.0 5778500.0 3168.5
  vertex 679500.0 5777500.0 3190.39990234375
 endloop
endfacet
facet normal -0.06365515291690826 -0.02185024879872799 -0.9977326989173889
 outer loop
  vertex 679500.0 5778500.0 3168.5
  vertex 680500.0 5777500.0 3126.60009765625
  vertex 679500.0 5777500.0 3190.39990234375
 endloop
endfacet
facet normal -0.026087958365678787 0.01579245552420616 -0.9995349049568176
 outer loop
  vertex 679500.0 5778500.0 3168.5
  vertex 680500.0 5778500.0 3142.39990234375
  vertex 680500.0 5777500.0 3126.60009765625
 endloop
endfacet
facet normal -0.02478933148086071 0.015792978927493095 -0.9995679259300232
 outer loop
  vertex 680500.0 5778500.0 3142.39990234375
  vertex 681500.0 5777500.0 3101.800048828125
  vertex 680500.0 5777500.0 3126.60009765625
 endloop
endfacet
facet normal -0.010594491846859455 0.02998482435941696 -0.999494194984436
 outer loop
  vertex 680500.0 5778500.0 3142.39990234375
  vertex 681500.0 5778500.0 3131.800048828125
  vertex 681500.0 5777500.0 3101.800048828125
 endloop
endfacet
facet normal -0.004198027774691582 0.029986245557665825 -0.9995415210723877
 outer loop
  vertex 681500.0 5778500.0 3131.800048828125
  vertex 682500.0 5777500.0 3097.60009765625
  vertex 681500.0 5777500.0 3101.800048828125
 endloop
endfacet
facet normal -0.029287129640579224 0.004897743929177523 -0.9995590448379517
 outer loop
  vertex 681500.0 5778500.0 3131.800048828125
  vertex 682500.0 5778500.0 3102.5
  vertex 682500.0 5777500.0 3097.60009765625
 endloop
endfacet
facet normal -0.00010009645484387875 0.004899843595921993 -0.9999880194664001
 outer loop
  vertex 682500.0 5778500.0 3102.5
  vertex 683500.0 5777500.0 3097.5
  vertex 682500.0 5777500.0 3097.60009765625
 endloop
endfacet
facet normal -0.005600008647888899 -0.0006000881548970938 -0.9999841451644897
 outer loop
  vertex 682500.0 5778500.0 3102.5
  vertex 683500.0 5778500.0 3096.89990234375
  vertex 683500.0 5777500.0 3097.5
 endloop
endfacet
facet normal -0.0028000373858958483 -0.0006000951980240643 -0.9999958872795105
 outer loop
  vertex 683500.0 5778500.0 3096.89990234375
  vertex 684500.0 5777500.0 3094.699951171875
  vertex 683500.0 5777500.0 3097.5
 endloop
endfacet
facet normal -0.012498360127210617 -0.010298698209226131 -0.9998688101768494
 outer loop
  vertex 683500.0 5778500.0 3096.89990234375
  vertex 684500.0 5778500.0 3084.39990234375
  vertex 684500.0 5777500.0 3094.699951171875
 endloop
endfacet
facet normal -0.07131669670343399 -0.05298955738544464 -0.9960452318191528
 outer loop
  vertex 675500.0 5779500.0 3262.0
  vertex 676500.0 5778500.0 3243.60009765625
  vertex 675500.0 5778500.0 3315.199951171875
 endloop
endfacet
facet normal -0.04334556683897972 -0.024968702346086502 -0.9987480640411377
 outer loop
  vertex 675500.0 5779500.0 3262.0
  vertex 676500.0 5779500.0 3218.60009765625
  vertex 676500.0 5778500.0 3243.60009765625
 endloop
endfacet
facet normal -0.03806060180068016 -0.02497408352792263 -0.9989632964134216
 outer loop
  vertex 676500.0 5779500.0 3218.60009765625
  vertex 677500.0 5778500.0 3205.5
  vertex 676500.0 5778500.0 3243.60009765625
 endloop
endfacet
facet normal -0.017597194761037827 -0.004499257542192936 -0.9998350143432617
 outer loop
  vertex 676500.0 5779500.0 3218.60009765625
  vertex 677500.0 5779500.0 3201.0
  vertex 677500.0 5778500.0 3205.5
 endloop
endfacet
facet normal -0.010299397632479668 -0.004499715752899647 -0.9999368190765381
 outer loop
  vertex 677500.0 5779500.0 3201.0
  vertex 678500.0 5778500.0 3195.199951171875
  vertex 677500.0 5778500.0 3205.5
 endloop
endfacet
facet normal -0.0004999929224140942 0.005299973767250776 -0.9999858736991882
 outer loop
  vertex 677500.0 5779500.0 3201.0
  vertex 678500.0 5779500.0 3200.5
  vertex 678500.0 5778500.0 3195.199951171875
 endloop
endfacet
facet normal -0.02669006586074829 0.005298086442053318 -0.9996297359466553
 outer loop
  vertex 678500.0 5779500.0 3200.5
  vertex 679500.0 5778500.0 3168.5
  vertex 678500.0 5778500.0 3195.199951171875
 endloop
endfacet
facet normal -0.023592697456479073 0.008397268131375313 -0.9996864199638367
 outer loop
  vertex 678500.0 5779500.0 3200.5
  vertex 679500.0 5779500.0 3176.89990234375
  vertex 679500.0 5778500.0 3168.5
 endloop
endfacet
facet normal -0.026090292260050774 0.008396746590733528 -0.9996243119239807
 outer loop
  vertex 679500.0 5779500.0 3176.89990234375
  vertex 680500.0 5778500.0 3142.39990234375
  vertex 679500.0 5778500.0 3168.5
 endloop
endfacet
facet normal -0.005597428884357214 0.028887633234262466 -0.9995669722557068
 outer loop
  vertex 679500.0 5779500.0 3176.89990234375
  vertex 680500.0 5779500.0 3171.300048828125
  vertex 680500.0 5778500.0 3142.39990234375
 endloop
endfacet
facet normal -0.010594834573566914 0.02888646349310875 -0.9995265603065491
 outer loop
  vertex 680500.0 5779500.0 3171.300048828125
  vertex 681500.0 5778500.0 3131.800048828125
  vertex 680500.0 5778500.0 3142.39990234375
 endloop
endfacet
facet normal -0.083524689078331 -0.044201456010341644 -0.9955249428749084
 outer loop
  vertex 680500.0 5779500.0 3171.300048828125
  vertex 681500.0 5779500.0 3087.39990234375
  vertex 681500.0 5778500.0 3131.800048828125
 endloop
endfacet
facet normal -0.02925868146121502 -0.04433745890855789 -0.9985880851745605
 outer loop
  vertex 681500.0 5779500.0 3087.39990234375
  vertex 682500.0 5778500.0 3102.5
  vertex 681500.0 5778500.0 3131.800048828125
 endloop
endfacet
facet normal 0.01229907013475895 -0.0027998259756714106 -0.9999204277992249
 outer loop
  vertex 681500.0 5779500.0 3087.39990234375
  vertex 682500.0 5779500.0 3099.699951171875
  vertex 682500.0 5778500.0 3102.5
 endloop
endfacet
facet normal -0.005599988158792257 -0.0027999940793961287 -0.9999804496765137
 outer loop
  vertex 682500.0 5779500.0 3099.699951171875
  vertex 683500.0 5778500.0 3096.89990234375
  vertex 682500.0 5778500.0 3102.5
 endloop
endfacet
facet normal -0.017395416274666786 -0.014596088789403439 -0.9997421503067017
 outer loop
  vertex 682500.0 5779500.0 3099.699951171875
  vertex 683500.0 5779500.0 3082.300048828125
  vertex 683500.0 5778500.0 3096.89990234375
 endloop
endfacet
facet normal -0.012497691437602043 -0.014597157947719097 -0.9998153448104858
 outer loop
  vertex 683500.0 5779500.0 3082.300048828125
  vertex 684500.0 5778500.0 3084.39990234375
  vertex 683500.0 5778500.0 3096.89990234375
 endloop
endfacet
facet normal -0.014796316623687744 -0.016895640641450882 -0.9997478127479553
 outer loop
  vertex 683500.0 5779500.0 3082.300048828125
  vertex 684500.0 5779500.0 3067.5
  vertex 684500.0 5778500.0 3084.39990234375
 endloop
endfacet
facet normal 0.014096683822572231 -0.016895810142159462 -0.9997578859329224
 outer loop
  vertex 684500.0 5779500.0 3067.5
  vertex 685500.0 5778500.0 3098.5
  vertex 684500.0 5778500.0 3084.39990234375
 endloop
endfacet
facet normal 0.030685491859912872 -0.0002999075222760439 -0.9995290637016296
 outer loop
  vertex 684500.0 5779500.0 3067.5
  vertex 685500.0 5779500.0 3098.199951171875
  vertex 685500.0 5778500.0 3098.5
 endloop
endfacet
facet normal -0.04350468888878822 0.04979070648550987 -0.9978117346763611
 outer loop
  vertex 674500.0 5780500.0 3355.5
  vertex 675500.0 5780500.0 3311.89990234375
  vertex 675500.0 5779500.0 3262.0
 endloop
endfacet
facet normal -0.04330530762672424 0.049791138619184494 -0.9978203773498535
 outer loop
  vertex 675500.0 5780500.0 3311.89990234375
  vertex 676500.0 5779500.0 3218.60009765625
  vertex 675500.0 5779500.0 3262.0
 endloop
endfacet
facet normal -0.053082291036844254 0.04001116007566452 -0.9977882504463196
 outer loop
  vertex 675500.0 5780500.0 3311.89990234375
  vertex 676500.0 5780500.0 3258.699951171875
  vertex 676500.0 5779500.0 3218.60009765625
 endloop
endfacet
facet normal -0.017583249136805534 0.040061455219984055 -0.9990424513816833
 outer loop
  vertex 676500.0 5780500.0 3258.699951171875
  vertex 677500.0 5779500.0 3201.0
  vertex 676500.0 5779500.0 3218.60009765625
 endloop
endfacet
facet normal -0.036866843700408936 0.020781416445970535 -0.9991041421890259
 outer loop
  vertex 676500.0 5780500.0 3258.699951171875
  vertex 677500.0 5780500.0 3221.800048828125
  vertex 677500.0 5779500.0 3201.0
 endloop
endfacet
facet normal -0.0004998918157070875 0.02079554833471775 -0.9997836351394653
 outer loop
  vertex 677500.0 5780500.0 3221.800048828125
  vertex 678500.0 5779500.0 3200.5
  vertex 677500.0 5779500.0 3201.0
 endloop
endfacet
facet normal -0.05240236967802048 -0.03114192932844162 -0.9981403350830078
 outer loop
  vertex 677500.0 5780500.0 3221.800048828125
  vertex 678500.0 5780500.0 3169.300048828125
  vertex 678500.0 5779500.0 3200.5
 endloop
endfacet
facet normal -0.023582059890031815 -0.03117610514163971 -0.9992356896400452
 outer loop
  vertex 678500.0 5780500.0 3169.300048828125
  vertex 679500.0 5779500.0 3176.89990234375
  vertex 678500.0 5779500.0 3200.5
 endloop
endfacet
facet normal -0.02457992546260357 -0.03217354789376259 -0.9991799592971802
 outer loop
  vertex 678500.0 5780500.0 3169.300048828125
  vertex 679500.0 5780500.0 3144.699951171875
  vertex 679500.0 5779500.0 3176.89990234375
 endloop
endfacet
facet normal -0.005596864968538284 -0.03218276798725128 -0.9994663596153259
 outer loop
  vertex 679500.0 5780500.0 3144.699951171875
  vertex 680500.0 5779500.0 3171.300048828125
  vertex 679500.0 5779500.0 3176.89990234375
 endloop
endfacet
facet normal -0.03361983597278595 -0.0601566918194294 -0.9976226091384888
 outer loop
  vertex 679500.0 5780500.0 3144.699951171875
  vertex 680500.0 5780500.0 3111.0
  vertex 680500.0 5779500.0 3171.300048828125
 endloop
endfacet
facet normal -0.08345586061477661 -0.059980738908052444 -0.9947046637535095
 outer loop
  vertex 680500.0 5780500.0 3111.0
  vertex 681500.0 5779500.0 3087.39990234375
  vertex 680500.0 5779500.0 3171.300048828125
 endloop
endfacet
facet normal 0.011592138558626175 0.03517604619264603 -0.9993138909339905
 outer loop
  vertex 680500.0 5780500.0 3111.0
  vertex 681500.0 5780500.0 3122.60009765625
  vertex 681500.0 5779500.0 3087.39990234375
 endloop
endfacet
facet normal 0.012291506864130497 0.03517575189471245 -0.9993055462837219
 outer loop
  vertex 681500.0 5780500.0 3122.60009765625
  vertex 682500.0 5779500.0 3099.699951171875
  vertex 681500.0 5779500.0 3087.39990234375
 endloop
endfacet
facet normal -0.01869676262140274 0.004199180286377668 -0.9998164176940918
 outer loop
  vertex 681500.0 5780500.0 3122.60009765625
  vertex 682500.0 5780500.0 3103.89990234375
  vertex 682500.0 5779500.0 3099.699951171875
 endloop
endfacet
facet normal -0.017397115007042885 0.00419927854090929 -0.9998398423194885
 outer loop
  vertex 682500.0 5780500.0 3103.89990234375
  vertex 683500.0 5779500.0 3082.300048828125
  vertex 682500.0 5779500.0 3099.699951171875
 endloop
endfacet
facet normal -0.007499043829739094 0.01409805566072464 -0.9998725056648254
 outer loop
  vertex 682500.0 5780500.0 3103.89990234375
  vertex 683500.0 5780500.0 3096.39990234375
  vertex 683500.0 5779500.0 3082.300048828125
 endloop
endfacet
facet normal -0.014796958304941654 0.014096909202635288 -0.999791145324707
 outer loop
  vertex 683500.0 5780500.0 3096.39990234375
  vertex 684500.0 5779500.0 3067.5
  vertex 683500.0 5779500.0 3082.300048828125
 endloop
endfacet
facet normal -0.003798580728471279 0.02509201318025589 -0.9996778964996338
 outer loop
  vertex 683500.0 5780500.0 3096.39990234375
  vertex 684500.0 5780500.0 3092.60009765625
  vertex 684500.0 5779500.0 3067.5
 endloop
endfacet
facet normal 0.030675841495394707 0.02508038654923439 -0.9992147088050842
 outer loop
  vertex 684500.0 5780500.0 3092.60009765625
  vertex 685500.0 5779500.0 3098.199951171875
  vertex 684500.0 5779500.0 3067.5
 endloop
endfacet
facet normal -0.05309922620654106 -0.031040970236063004 -0.9981066584587097
 outer loop
  vertex 675500.0 5781500.0 3280.800048828125
  vertex 676500.0 5780500.0 3258.699951171875
  vertex 675500.0 5780500.0 3311.89990234375
 endloop
endfacet
facet normal -0.061336614191532135 -0.03929523006081581 -0.9973433017730713
 outer loop
  vertex 675500.0 5781500.0 3280.800048828125
  vertex 676500.0 5781500.0 3219.300048828125
  vertex 676500.0 5780500.0 3258.699951171875
 endloop
endfacet
facet normal -0.036846257746219635 -0.039342623203992844 -0.9985462427139282
 outer loop
  vertex 676500.0 5781500.0 3219.300048828125
  vertex 677500.0 5780500.0 3221.800048828125
  vertex 676500.0 5780500.0 3258.699951171875
 endloop
endfacet
facet normal 0.007999623194336891 0.005499740596860647 -0.9999528527259827
 outer loop
  vertex 676500.0 5781500.0 3219.300048828125
  vertex 677500.0 5781500.0 3227.300048828125
  vertex 677500.0 5780500.0 3221.800048828125
 endloop
endfacet
facet normal -0.052427005022764206 0.00549235288053751 -0.9986096024513245
 outer loop
  vertex 677500.0 5781500.0 3227.300048828125
  vertex 678500.0 5780500.0 3169.300048828125
  vertex 677500.0 5780500.0 3221.800048828125
 endloop
endfacet
facet normal -0.04684577137231827 0.011086982674896717 -0.9988405704498291
 outer loop
  vertex 677500.0 5781500.0 3227.300048828125
  vertex 678500.0 5781500.0 3180.39990234375
  vertex 678500.0 5780500.0 3169.300048828125
 endloop
endfacet
facet normal -0.024591146036982536 0.011095813475549221 -0.9996359944343567
 outer loop
  vertex 678500.0 5781500.0 3180.39990234375
  vertex 679500.0 5780500.0 3144.699951171875
  vertex 678500.0 5780500.0 3169.300048828125
 endloop
endfacet
facet normal -0.0189939234405756 0.01669461280107498 -0.99968022108078
 outer loop
  vertex 678500.0 5781500.0 3180.39990234375
  vertex 679500.0 5781500.0 3161.39990234375
  vertex 679500.0 5780500.0 3144.699951171875
 endloop
endfacet
facet normal -0.0336761437356472 0.0166881512850523 -0.9992934465408325
 outer loop
  vertex 679500.0 5781500.0 3161.39990234375
  vertex 680500.0 5780500.0 3111.0
  vertex 679500.0 5780500.0 3144.699951171875
 endloop
endfacet
facet normal -0.010690918192267418 0.03966643661260605 -0.9991557598114014
 outer loop
  vertex 679500.0 5781500.0 3161.39990234375
  vertex 680500.0 5781500.0 3150.699951171875
  vertex 680500.0 5780500.0 3111.0
 endloop
endfacet
facet normal 0.011590191163122654 0.03966604173183441 -0.9991458058357239
 outer loop
  vertex 680500.0 5781500.0 3150.699951171875
  vertex 681500.0 5780500.0 3122.60009765625
  vertex 680500.0 5780500.0 3111.0
 endloop
endfacet
facet normal -0.026090918108820915 0.0019993153400719166 -0.9996576309204102
 outer loop
  vertex 680500.0 5781500.0 3150.699951171875
  vertex 681500.0 5781500.0 3124.60009765625
  vertex 681500.0 5780500.0 3122.60009765625
 endloop
endfacet
facet normal -0.018696889281272888 0.0019996464252471924 -0.9998232126235962
 outer loop
  vertex 681500.0 5781500.0 3124.60009765625
  vertex 682500.0 5780500.0 3103.89990234375
  vertex 681500.0 5780500.0 3122.60009765625
 endloop
endfacet
facet normal -0.04852396622300148 -0.027856197208166122 -0.998433530330658
 outer loop
  vertex 681500.0 5781500.0 3124.60009765625
  vertex 682500.0 5781500.0 3076.0
  vertex 682500.0 5780500.0 3103.89990234375
 endloop
endfacet
facet normal -0.0074968719854950905 -0.027888266369700432 -0.9995829463005066
 outer loop
  vertex 682500.0 5781500.0 3076.0
  vertex 683500.0 5780500.0 3096.39990234375
  vertex 682500.0 5780500.0 3103.89990234375
 endloop
endfacet
facet normal 0.016197683289647102 -0.004199362825602293 -0.9998599290847778
 outer loop
  vertex 682500.0 5781500.0 3076.0
  vertex 683500.0 5781500.0 3092.199951171875
  vertex 683500.0 5780500.0 3096.39990234375
 endloop
endfacet
facet normal -0.003799743950366974 -0.00419988390058279 -0.9999840259552002
 outer loop
  vertex 683500.0 5781500.0 3092.199951171875
  vertex 684500.0 5780500.0 3092.60009765625
  vertex 683500.0 5780500.0 3096.39990234375
 endloop
endfacet
facet normal -0.008499355986714363 -0.008899472653865814 -0.9999242424964905
 outer loop
  vertex 683500.0 5781500.0 3092.199951171875
  vertex 684500.0 5781500.0 3083.699951171875
  vertex 684500.0 5780500.0 3092.60009765625
 endloop
endfacet
facet normal -0.061304960399866104 -0.05073872581124306 -0.9968286752700806
 outer loop
  vertex 675500.0 5782500.0 3229.89990234375
  vertex 676500.0 5781500.0 3219.300048828125
  vertex 675500.0 5781500.0 3280.800048828125
 endloop
endfacet
facet normal -0.03466902673244476 -0.024078620597720146 -0.9991087317466736
 outer loop
  vertex 675500.0 5782500.0 3229.89990234375
  vertex 676500.0 5782500.0 3195.199951171875
  vertex 676500.0 5781500.0 3219.300048828125
 endloop
endfacet
facet normal 0.0079974215477705 -0.024092331528663635 -0.9996777176856995
 outer loop
  vertex 676500.0 5782500.0 3195.199951171875
  vertex 677500.0 5781500.0 3227.300048828125
  vertex 676500.0 5781500.0 3219.300048828125
 endloop
endfacet
facet normal -0.026246268302202225 -0.05828072875738144 -0.9979551434516907
 outer loop
  vertex 676500.0 5782500.0 3195.199951171875
  vertex 677500.0 5782500.0 3168.89990234375
  vertex 677500.0 5781500.0 3227.300048828125
 endloop
endfacet
facet normal -0.04676913842558861 -0.05823701620101929 -0.9972066283226013
 outer loop
  vertex 677500.0 5782500.0 3168.89990234375
  vertex 678500.0 5781500.0 3180.39990234375
  vertex 677500.0 5781500.0 3227.300048828125
 endloop
endfacet
facet normal -0.011096336878836155 -0.022592693567276 -0.999683141708374
 outer loop
  vertex 677500.0 5782500.0 3168.89990234375
  vertex 678500.0 5782500.0 3157.800048828125
  vertex 678500.0 5781500.0 3180.39990234375
 endloop
endfacet
facet normal -0.018991723656654358 -0.02259000763297081 -0.9995643496513367
 outer loop
  vertex 678500.0 5782500.0 3157.800048828125
  vertex 679500.0 5781500.0 3161.39990234375
  vertex 678500.0 5781500.0 3180.39990234375
 endloop
endfacet
facet normal -0.005099838133901358 -0.008699508383870125 -0.9999491572380066
 outer loop
  vertex 678500.0 5782500.0 3157.800048828125
  vertex 679500.0 5782500.0 3152.699951171875
  vertex 679500.0 5781500.0 3161.39990234375
 endloop
endfacet
facet normal -0.010698934085667133 -0.008699123747646809 -0.9999049305915833
 outer loop
  vertex 679500.0 5782500.0 3152.699951171875
  vertex 680500.0 5781500.0 3150.699951171875
  vertex 679500.0 5781500.0 3161.39990234375
 endloop
endfacet
facet normal -0.0574161522090435 -0.05542252957820892 -0.996810793876648
 outer loop
  vertex 679500.0 5782500.0 3152.699951171875
  vertex 680500.0 5782500.0 3095.10009765625
  vertex 680500.0 5781500.0 3150.699951171875
 endloop
endfacet
facet normal -0.026050759479403496 -0.05549526959657669 -0.998119056224823
 outer loop
  vertex 680500.0 5782500.0 3095.10009765625
  vertex 681500.0 5781500.0 3124.60009765625
  vertex 680500.0 5781500.0 3150.699951171875
 endloop
endfacet
facet normal 0.0419597327709198 0.012488014996051788 -0.9990412592887878
 outer loop
  vertex 680500.0 5782500.0 3095.10009765625
  vertex 681500.0 5782500.0 3137.10009765625
  vertex 681500.0 5781500.0 3124.60009765625
 endloop
endfacet
facet normal -0.048539020121097565 0.012484290637075901 -0.9987432956695557
 outer loop
  vertex 681500.0 5782500.0 3137.10009765625
  vertex 682500.0 5781500.0 3076.0
  vertex 681500.0 5781500.0 3124.60009765625
 endloop
endfacet
facet normal -0.01718110963702202 0.04385118931531906 -0.9988903403282166
 outer loop
  vertex 681500.0 5782500.0 3137.10009765625
  vertex 682500.0 5782500.0 3119.89990234375
  vertex 682500.0 5781500.0 3076.0
 endloop
endfacet
facet normal 0.016182245686650276 0.04385191947221756 -0.9989070296287537
 outer loop
  vertex 682500.0 5782500.0 3119.89990234375
  vertex 683500.0 5781500.0 3092.199951171875
  vertex 682500.0 5781500.0 3076.0
 endloop
endfacet
facet normal -0.026890166103839874 0.0007997592911124229 -0.9996380805969238
 outer loop
  vertex 682500.0 5782500.0 3119.89990234375
  vertex 683500.0 5782500.0 3093.0
  vertex 683500.0 5781500.0 3092.199951171875
 endloop
endfacet
facet normal -0.00849969033151865 0.0008000196539796889 -0.9999635815620422
 outer loop
  vertex 683500.0 5782500.0 3093.0
  vertex 684500.0 5781500.0 3083.699951171875
  vertex 683500.0 5781500.0 3092.199951171875
 endloop
endfacet
facet normal -0.00959965493530035 -0.0003000349970534444 -0.9999538660049438
 outer loop
  vertex 683500.0 5782500.0 3093.0
  vertex 684500.0 5782500.0 3083.39990234375
  vertex 684500.0 5781500.0 3083.699951171875
 endloop
endfacet
facet normal -0.026283830404281616 0.023285679519176483 -0.9993833303451538
 outer loop
  vertex 676500.0 5783500.0 3218.5
  vertex 677500.0 5782500.0 3168.89990234375
  vertex 676500.0 5782500.0 3195.199951171875
 endloop
endfacet
facet normal -0.03896819055080414 0.01059145200997591 -0.9991843700408936
 outer loop
  vertex 676500.0 5783500.0 3218.5
  vertex 677500.0 5783500.0 3179.5
  vertex 677500.0 5782500.0 3168.89990234375
 endloop
endfacet
facet normal -0.011098546907305717 0.010598849505186081 -0.9998822808265686
 outer loop
  vertex 677500.0 5783500.0 3179.5
  vertex 678500.0 5782500.0 3157.800048828125
  vertex 677500.0 5782500.0 3168.89990234375
 endloop
endfacet
facet normal -0.05369477719068527 -0.03203728795051575 -0.9980433583259583
 outer loop
  vertex 677500.0 5783500.0 3179.5
  vertex 678500.0 5783500.0 3125.699951171875
  vertex 678500.0 5782500.0 3157.800048828125
 endloop
endfacet
facet normal -0.005097405984997749 -0.03208315744996071 -0.9994722008705139
 outer loop
  vertex 678500.0 5783500.0 3125.699951171875
  vertex 679500.0 5782500.0 3152.699951171875
  vertex 678500.0 5782500.0 3157.800048828125
 endloop
endfacet
facet normal -0.05522766709327698 -0.0820951834321022 -0.9950931072235107
 outer loop
  vertex 678500.0 5783500.0 3125.699951171875
  vertex 679500.0 5783500.0 3070.199951171875
  vertex 679500.0 5782500.0 3152.699951171875
 endloop
endfacet
facet normal -0.057310476899147034 -0.08208552747964859 -0.9949761033058167
 outer loop
  vertex 679500.0 5783500.0 3070.199951171875
  vertex 680500.0 5782500.0 3095.10009765625
  vertex 679500.0 5782500.0 3152.699951171875
 endloop
endfacet
facet normal -0.005197526887059212 -0.030086064711213112 -0.9995337724685669
 outer loop
  vertex 679500.0 5783500.0 3070.199951171875
  vertex 680500.0 5783500.0 3065.0
  vertex 680500.0 5782500.0 3095.10009765625
 endloop
endfacet
facet normal 0.04194403812289238 -0.030059993267059326 -0.9986676573753357
 outer loop
  vertex 680500.0 5783500.0 3065.0
  vertex 681500.0 5782500.0 3137.10009765625
  vertex 680500.0 5782500.0 3095.10009765625
 endloop
endfacet
facet normal 0.02366561070084572 -0.04833000898361206 -0.9985510110855103
 outer loop
  vertex 680500.0 5783500.0 3065.0
  vertex 681500.0 5783500.0 3088.699951171875
  vertex 681500.0 5782500.0 3137.10009765625
 endloop
endfacet
facet normal -0.017177551984786987 -0.04833642765879631 -0.9986834526062012
 outer loop
  vertex 681500.0 5783500.0 3088.699951171875
  vertex 682500.0 5782500.0 3119.89990234375
  vertex 681500.0 5782500.0 3137.10009765625
 endloop
endfacet
facet normal 0.021194130182266235 -0.009997254237532616 -0.9997254014015198
 outer loop
  vertex 681500.0 5783500.0 3088.699951171875
  vertex 682500.0 5783500.0 3109.89990234375
  vertex 682500.0 5782500.0 3119.89990234375
 endloop
endfacet
facet normal -0.026888832449913025 -0.009995885193347931 -0.9995884895324707
 outer loop
  vertex 682500.0 5783500.0 3109.89990234375
  vertex 683500.0 5782500.0 3093.0
  vertex 682500.0 5782500.0 3119.89990234375
 endloop
endfacet
facet normal -0.025990139693021774 -0.009096646681427956 -0.999620795249939
 outer loop
  vertex 682500.0 5783500.0 3109.89990234375
  vertex 683500.0 5783500.0 3083.89990234375
  vertex 683500.0 5782500.0 3093.0
 endloop
endfacet
facet normal -0.00959925726056099 -0.009099301882088184 -0.9999125003814697
 outer loop
  vertex 683500.0 5783500.0 3083.89990234375
  vertex 684500.0 5782500.0 3083.39990234375
  vertex 683500.0 5782500.0 3093.0
 endloop
endfacet
facet normal -0.005198799539357424 0.02039562724530697 -0.9997785091400146
 outer loop
  vertex 679500.0 5784500.0 3090.60009765625
  vertex 680500.0 5783500.0 3065.0
  vertex 679500.0 5783500.0 3070.199951171875
 endloop
endfacet
facet normal -0.0009996971348300576 0.024592645466327667 -0.9996970891952515
 outer loop
  vertex 679500.0 5784500.0 3090.60009765625
  vertex 680500.0 5784500.0 3089.60009765625
  vertex 680500.0 5783500.0 3065.0
 endloop
endfacet
facet normal 0.023686137050390244 0.02458575740456581 -0.9994170665740967
 outer loop
  vertex 680500.0 5784500.0 3089.60009765625
  vertex 681500.0 5783500.0 3088.699951171875
  vertex 680500.0 5783500.0 3065.0
 endloop
endfacet
facet normal 0.0007998032961040735 0.0016999482177197933 -0.9999982714653015
 outer loop
  vertex 680500.0 5784500.0 3089.60009765625
  vertex 681500.0 5784500.0 3090.39990234375
  vertex 681500.0 5783500.0 3088.699951171875
 endloop
endfacet
facet normal 0.02119515836238861 0.0016995668411254883 -0.9997739195823669
 outer loop
  vertex 681500.0 5784500.0 3090.39990234375
  vertex 682500.0 5783500.0 3109.89990234375
  vertex 681500.0 5783500.0 3088.699951171875
 endloop
endfacet
facet normal 0.015198299661278725 -0.004299268126487732 -0.9998752474784851
 outer loop
  vertex 681500.0 5784500.0 3090.39990234375
  vertex 682500.0 5784500.0 3105.60009765625
  vertex 682500.0 5783500.0 3109.89990234375
 endloop
endfacet
facet normal -0.02599097602069378 -0.0042983125895261765 -0.9996529221534729
 outer loop
  vertex 682500.0 5784500.0 3105.60009765625
  vertex 683500.0 5783500.0 3083.89990234375
  vertex 682500.0 5783500.0 3109.89990234375
 endloop
endfacet
facet normal 0.0007998005603440106 0.0030998375732451677 -0.9999948740005493
 outer loop
  vertex 680500.0 5785500.0 3092.699951171875
  vertex 681500.0 5784500.0 3090.39990234375
  vertex 680500.0 5784500.0 3089.60009765625
 endloop
endfacet
facet normal -0.005299950484186411 -0.002999944379553199 -0.9999814629554749
 outer loop
  vertex 680500.0 5785500.0 3092.699951171875
  vertex 681500.0 5785500.0 3087.39990234375
  vertex 681500.0 5784500.0 3090.39990234375
 endloop
endfacet
facet normal 0.01519837137311697 -0.002999640069901943 -0.9998800158500671
 outer loop
  vertex 681500.0 5785500.0 3087.39990234375
  vertex 682500.0 5784500.0 3105.60009765625
  vertex 681500.0 5784500.0 3090.39990234375
 endloop
endfacet
facet normal 0.02818758226931095 0.009995526634156704 -0.9995527267456055
 outer loop
  vertex 681500.0 5785500.0 3087.39990234375
  vertex 682500.0 5785500.0 3115.60009765625
  vertex 682500.0 5784500.0 3105.60009765625
 endloop
endfacet
facet normal -0.005299547221511602 -0.012698749080300331 -0.9999053478240967
 outer loop
  vertex 680500.0 5786500.0 3080.0
  vertex 681500.0 5785500.0 3087.39990234375
  vertex 680500.0 5785500.0 3092.699951171875
 endloop
endfacet
facet normal 0.009599631652235985 0.002200088696554303 -0.9999514818191528
 outer loop
  vertex 680500.0 5786500.0 3080.0
  vertex 681500.0 5786500.0 3089.60009765625
  vertex 681500.0 5785500.0 3087.39990234375
 endloop
endfacet
facet normal 0.02818892151117325 0.0021993156988173723 -0.9996002316474915
 outer loop
  vertex 681500.0 5786500.0 3089.60009765625
  vertex 682500.0 5785500.0 3115.60009765625
  vertex 681500.0 5785500.0 3087.39990234375
 endloop
endfacet
facet normal 0.014697425067424774 -0.011298106983304024 -0.9998281598091125
 outer loop
  vertex 681500.0 5786500.0 3089.60009765625
  vertex 682500.0 5786500.0 3104.300048828125
  vertex 682500.0 5785500.0 3115.60009765625
 endloop
endfacet
facet normal -0.044552963227033615 -0.011288107372820377 -0.9989432692527771
 outer loop
  vertex 682500.0 5786500.0 3104.300048828125
  vertex 683500.0 5785500.0 3071.0
  vertex 682500.0 5785500.0 3115.60009765625
 endloop
endfacet
facet normal 0.009599645622074604 -0.001399836502969265 -0.9999529123306274
 outer loop
  vertex 680500.0 5787500.0 3078.60009765625
  vertex 681500.0 5786500.0 3089.60009765625
  vertex 680500.0 5786500.0 3080.0
 endloop
endfacet
facet normal 0.001399836502969265 -0.009599645622074604 -0.9999529123306274
 outer loop
  vertex 680500.0 5787500.0 3078.60009765625
  vertex 681500.0 5787500.0 3080.0
  vertex 681500.0 5786500.0 3089.60009765625
 endloop
endfacet
facet normal 0.014697685837745667 -0.009598618373274803 -0.9998459219932556
 outer loop
  vertex 681500.0 5787500.0 3080.0
  vertex 682500.0 5786500.0 3104.300048828125
  vertex 681500.0 5786500.0 3089.60009765625
 endloop
endfacet
facet normal 0.018696390092372894 -0.00559903122484684 -0.9998095631599426
 outer loop
  vertex 681500.0 5787500.0 3080.0
  vertex 682500.0 5787500.0 3098.699951171875
  vertex 682500.0 5786500.0 3104.300048828125
 endloop
endfacet
facet normal 0.001399751752614975 -0.014598526991903782 -0.9998924732208252
 outer loop
  vertex 680500.0 5788500.0 3064.0
  vertex 681500.0 5787500.0 3080.0
  vertex 680500.0 5787500.0 3078.60009765625
 endloop
endfacet
facet normal -0.0019996720366179943 -0.017997048795223236 -0.9998360276222229
 outer loop
  vertex 680500.0 5788500.0 3064.0
  vertex 681500.0 5788500.0 3062.0
  vertex 681500.0 5787500.0 3080.0
 endloop
endfacet
facet normal 0.018693657591938972 -0.01799394004046917 -0.9996632933616638
 outer loop
  vertex 681500.0 5788500.0 3062.0
  vertex 682500.0 5787500.0 3098.699951171875
  vertex 681500.0 5787500.0 3080.0
 endloop
endfacet
endsolid
