solid
facet normal -0.07018262892961502 0.21804431080818176 -0.973412036895752
 outer loop
  vertex 645500.0 5463500.0 6400.7998046875
  vertex 646500.0 5463500.0 6328.7001953125
  vertex 646500.0 5462500.0 6104.7001953125
 endloop
endfacet
facet normal 0.007610979489982128 0.21857696771621704 -0.9757900238037109
 outer loop
  vertex 646500.0 5463500.0 6328.7001953125
  vertex 647500.0 5462500.0 6112.5
  vertex 646500.0 5462500.0 6104.7001953125
 endloop
endfacet
facet normal -0.10962589085102081 0.1040896624326706 -0.9885077476501465
 outer loop
  vertex 646500.0 5463500.0 6328.7001953125
  vertex 647500.0 5463500.0 6217.7998046875
  vertex 647500.0 5462500.0 6112.5
 endloop
endfacet
facet normal -0.2131798267364502 -0.21727560460567474 -0.9525469541549683
 outer loop
  vertex 644500.0 5464500.0 6396.5
  vertex 645500.0 5464500.0 6172.7001953125
  vertex 645500.0 5463500.0 6400.7998046875
 endloop
endfacet
facet normal -0.07012108713388443 -0.22184020280838013 -0.9725584983825684
 outer loop
  vertex 645500.0 5464500.0 6172.7001953125
  vertex 646500.0 5463500.0 6328.7001953125
  vertex 645500.0 5463500.0 6400.7998046875
 endloop
endfacet
facet normal 0.008111320436000824 -0.14620712399482727 -0.9892207980155945
 outer loop
  vertex 645500.0 5464500.0 6172.7001953125
  vertex 646500.0 5464500.0 6180.89990234375
  vertex 646500.0 5463500.0 6328.7001953125
 endloop
endfacet
facet normal -0.10905425250530243 -0.14533989131450653 -0.9833531975746155
 outer loop
  vertex 646500.0 5464500.0 6180.89990234375
  vertex 647500.0 5463500.0 6217.7998046875
  vertex 646500.0 5463500.0 6328.7001953125
 endloop
endfacet
facet normal -0.07158965617418289 -0.1081777811050415 -0.9915505647659302
 outer loop
  vertex 646500.0 5464500.0 6180.89990234375
  vertex 647500.0 5464500.0 6108.7001953125
  vertex 647500.0 5463500.0 6217.7998046875
 endloop
endfacet
facet normal -0.20304860174655914 -0.36826395988464355 -0.9072778224945068
 outer loop
  vertex 644500.0 5465500.0 5990.60009765625
  vertex 645500.0 5464500.0 6172.7001953125
  vertex 644500.0 5464500.0 6396.5
 endloop
endfacet
facet normal 0.026770710945129395 -0.15311606228351593 -0.9878455400466919
 outer loop
  vertex 644500.0 5465500.0 5990.60009765625
  vertex 645500.0 5465500.0 6017.7001953125
  vertex 645500.0 5464500.0 6172.7001953125
 endloop
endfacet
facet normal 0.008102677762508392 -0.15316592156887054 -0.9881672263145447
 outer loop
  vertex 645500.0 5465500.0 6017.7001953125
  vertex 646500.0 5464500.0 6180.89990234375
  vertex 645500.0 5464500.0 6172.7001953125
 endloop
endfacet
facet normal -0.114788718521595 -0.27077099680900574 -0.9557754397392273
 outer loop
  vertex 645500.0 5465500.0 6017.7001953125
  vertex 646500.0 5465500.0 5897.60009765625
  vertex 646500.0 5464500.0 6180.89990234375
 endloop
endfacet
facet normal -0.0692988857626915 -0.2719174325466156 -0.9598221182823181
 outer loop
  vertex 646500.0 5465500.0 5897.60009765625
  vertex 647500.0 5464500.0 6108.7001953125
  vertex 646500.0 5464500.0 6180.89990234375
 endloop
endfacet
facet normal 0.054162558168172836 -0.15410231053829193 -0.9865692853927612
 outer loop
  vertex 646500.0 5465500.0 5897.60009765625
  vertex 647500.0 5465500.0 5952.5
  vertex 647500.0 5464500.0 6108.7001953125
 endloop
endfacet
facet normal -0.03810993954539299 -0.1542167216539383 -0.987301766872406
 outer loop
  vertex 647500.0 5465500.0 5952.5
  vertex 648500.0 5464500.0 6070.10009765625
  vertex 647500.0 5464500.0 6108.7001953125
 endloop
endfacet
facet normal -0.07296726852655411 -0.1881479024887085 -0.979426383972168
 outer loop
  vertex 647500.0 5465500.0 5952.5
  vertex 648500.0 5465500.0 5878.0
  vertex 648500.0 5464500.0 6070.10009765625
 endloop
endfacet
facet normal 0.06682542711496353 -0.18822909891605377 -0.9798490405082703
 outer loop
  vertex 648500.0 5465500.0 5878.0
  vertex 649500.0 5464500.0 6138.2998046875
  vertex 648500.0 5464500.0 6070.10009765625
 endloop
endfacet
facet normal 0.09084738790988922 -0.16480189561843872 -0.9821339249610901
 outer loop
  vertex 648500.0 5465500.0 5878.0
  vertex 649500.0 5465500.0 5970.5
  vertex 649500.0 5464500.0 6138.2998046875
 endloop
endfacet
facet normal -0.3304389715194702 -0.1561904102563858 -0.9308139681816101
 outer loop
  vertex 649500.0 5465500.0 5970.5
  vertex 650500.0 5464500.0 5783.2998046875
  vertex 649500.0 5464500.0 6138.2998046875
 endloop
endfacet
facet normal -0.049475282430648804 0.1357603520154953 -0.9895055890083313
 outer loop
  vertex 649500.0 5465500.0 5970.5
  vertex 650500.0 5465500.0 5920.5
  vertex 650500.0 5464500.0 5783.2998046875
 endloop
endfacet
facet normal 0.025163372978568077 0.3703923225402832 -0.9285345077514648
 outer loop
  vertex 644500.0 5466500.0 6389.5
  vertex 645500.0 5465500.0 6017.7001953125
  vertex 644500.0 5465500.0 5990.60009765625
 endloop
endfacet
facet normal -0.16437415778636932 0.19512160122394562 -0.9669067859649658
 outer loop
  vertex 644500.0 5466500.0 6389.5
  vertex 645500.0 5466500.0 6219.5
  vertex 645500.0 5465500.0 6017.7001953125
 endloop
endfacet
facet normal -0.11691946536302567 0.19645552337169647 -0.9735168814659119
 outer loop
  vertex 645500.0 5466500.0 6219.5
  vertex 646500.0 5465500.0 5897.60009765625
  vertex 645500.0 5465500.0 6017.7001953125
 endloop
endfacet
facet normal -0.10335563868284225 0.2096286565065384 -0.9723031520843506
 outer loop
  vertex 645500.0 5466500.0 6219.5
  vertex 646500.0 5466500.0 6113.2001953125
  vertex 646500.0 5465500.0 5897.60009765625
 endloop
endfacet
facet normal 0.05358964949846268 0.210454523563385 -0.9761337041854858
 outer loop
  vertex 646500.0 5466500.0 6113.2001953125
  vertex 647500.0 5465500.0 5952.5
  vertex 646500.0 5465500.0 5897.60009765625
 endloop
endfacet
facet normal -0.035501882433891296 0.12385879456996918 -0.9916645884513855
 outer loop
  vertex 646500.0 5466500.0 6113.2001953125
  vertex 647500.0 5466500.0 6077.39990234375
  vertex 647500.0 5465500.0 5952.5
 endloop
endfacet
facet normal -0.07372443377971649 0.12359966337680817 -0.9895896911621094
 outer loop
  vertex 647500.0 5466500.0 6077.39990234375
  vertex 648500.0 5465500.0 5878.0
  vertex 647500.0 5465500.0 5952.5
 endloop
endfacet
facet normal -0.07809402048587799 0.11926920711994171 -0.9897859692573547
 outer loop
  vertex 647500.0 5466500.0 6077.39990234375
  vertex 648500.0 5466500.0 5998.5
  vertex 648500.0 5465500.0 5878.0
 endloop
endfacet
facet normal 0.09145083278417587 0.11913324892520905 -0.9886577129364014
 outer loop
  vertex 648500.0 5466500.0 5998.5
  vertex 649500.0 5465500.0 5970.5
  vertex 648500.0 5465500.0 5878.0
 endloop
endfacet
facet normal -0.2301962971687317 -0.20355099439620972 -0.951617956161499
 outer loop
  vertex 648500.0 5466500.0 5998.5
  vertex 649500.0 5466500.0 5756.60009765625
  vertex 649500.0 5465500.0 5970.5
 endloop
endfacet
facet normal -0.048835642635822296 -0.20891878008842468 -0.9767128229141235
 outer loop
  vertex 649500.0 5466500.0 5756.60009765625
  vertex 650500.0 5465500.0 5920.5
  vertex 649500.0 5465500.0 5970.5
 endloop
endfacet
facet normal 0.06743531674146652 -0.09534314274787903 -0.993157684803009
 outer loop
  vertex 649500.0 5466500.0 5756.60009765625
  vertex 650500.0 5466500.0 5824.5
  vertex 650500.0 5465500.0 5920.5
 endloop
endfacet
facet normal -0.16268666088581085 0.050549913197755814 -0.9853820204734802
 outer loop
  vertex 643500.0 5467500.0 6605.89990234375
  vertex 644500.0 5467500.0 6440.7998046875
  vertex 644500.0 5466500.0 6389.5
 endloop
endfacet
facet normal -0.16738156974315643 0.050509657710790634 -0.9845974445343018
 outer loop
  vertex 644500.0 5467500.0 6440.7998046875
  vertex 645500.0 5466500.0 6219.5
  vertex 644500.0 5466500.0 6389.5
 endloop
endfacet
facet normal -0.13565322756767273 0.08283334225416183 -0.9872876405715942
 outer loop
  vertex 644500.0 5467500.0 6440.7998046875
  vertex 645500.0 5467500.0 6303.39990234375
  vertex 645500.0 5466500.0 6219.5
 endloop
endfacet
facet normal -0.10533829778432846 0.0831410139799118 -0.9909548163414001
 outer loop
  vertex 645500.0 5467500.0 6303.39990234375
  vertex 646500.0 5466500.0 6113.2001953125
  vertex 645500.0 5466500.0 6219.5
 endloop
endfacet
facet normal -0.23870839178562164 -0.054296042770147324 -0.9695722460746765
 outer loop
  vertex 645500.0 5467500.0 6303.39990234375
  vertex 646500.0 5467500.0 6057.2001953125
  vertex 646500.0 5466500.0 6113.2001953125
 endloop
endfacet
facet normal -0.03572147712111473 -0.0558767132461071 -0.997798502445221
 outer loop
  vertex 646500.0 5467500.0 6057.2001953125
  vertex 647500.0 5466500.0 6077.39990234375
  vertex 646500.0 5466500.0 6113.2001953125
 endloop
endfacet
facet normal -0.07229780405759811 -0.09235808253288269 -0.9930976629257202
 outer loop
  vertex 646500.0 5467500.0 6057.2001953125
  vertex 647500.0 5467500.0 5984.39990234375
  vertex 647500.0 5466500.0 6077.39990234375
 endloop
endfacet
facet normal -0.07831958681344986 -0.09231597185134888 -0.9926448464393616
 outer loop
  vertex 647500.0 5467500.0 5984.39990234375
  vertex 648500.0 5466500.0 5998.5
  vertex 647500.0 5466500.0 6077.39990234375
 endloop
endfacet
facet normal -0.15615004301071167 -0.2847774922847748 -0.94579017162323
 outer loop
  vertex 643500.0 5468500.0 6304.7998046875
  vertex 644500.0 5467500.0 6440.7998046875
  vertex 643500.0 5467500.0 6605.89990234375
 endloop
endfacet
facet normal -0.20253346860408783 -0.32802116870880127 -0.922703742980957
 outer loop
  vertex 643500.0 5468500.0 6304.7998046875
  vertex 644500.0 5468500.0 6085.2998046875
  vertex 644500.0 5467500.0 6440.7998046875
 endloop
endfacet
facet normal -0.12839099764823914 -0.3321909010410309 -0.9344329237937927
 outer loop
  vertex 644500.0 5468500.0 6085.2998046875
  vertex 645500.0 5467500.0 6303.39990234375
  vertex 644500.0 5467500.0 6440.7998046875
 endloop
endfacet
facet normal 0.15316608548164368 -0.06193677335977554 -0.9862575531005859
 outer loop
  vertex 644500.0 5468500.0 6085.2998046875
  vertex 645500.0 5468500.0 6240.60009765625
  vertex 645500.0 5467500.0 6303.39990234375
 endloop
endfacet
facet normal -0.23861782252788544 -0.06086583808064461 -0.9692042469978333
 outer loop
  vertex 645500.0 5468500.0 6240.60009765625
  vertex 646500.0 5467500.0 6057.2001953125
  vertex 645500.0 5467500.0 6303.39990234375
 endloop
endfacet
facet normal -0.16421620547771454 0.01666809804737568 -0.9862834811210632
 outer loop
  vertex 645500.0 5468500.0 6240.60009765625
  vertex 646500.0 5468500.0 6074.10009765625
  vertex 646500.0 5467500.0 6057.2001953125
 endloop
endfacet
facet normal -0.07259783148765564 0.016852902248501778 -0.997218906879425
 outer loop
  vertex 646500.0 5468500.0 6074.10009765625
  vertex 647500.0 5467500.0 5984.39990234375
  vertex 646500.0 5467500.0 6057.2001953125
 endloop
endfacet
facet normal -0.04660638049244881 0.04291361942887306 -0.9979910850524902
 outer loop
  vertex 646500.0 5468500.0 6074.10009765625
  vertex 647500.0 5468500.0 6027.39990234375
  vertex 647500.0 5467500.0 5984.39990234375
 endloop
endfacet
facet normal 0.15222135186195374 0.1268349289894104 -0.9801742434501648
 outer loop
  vertex 644500.0 5469500.0 6214.7001953125
  vertex 645500.0 5468500.0 6240.60009765625
  vertex 644500.0 5468500.0 6085.2998046875
 endloop
endfacet
facet normal -0.062432657927274704 -0.08818094432353973 -0.9941459894180298
 outer loop
  vertex 644500.0 5469500.0 6214.7001953125
  vertex 645500.0 5469500.0 6151.89990234375
  vertex 645500.0 5468500.0 6240.60009765625
 endloop
endfacet
facet normal -0.1636139452457428 -0.08716269582509995 -0.9826663136482239
 outer loop
  vertex 645500.0 5469500.0 6151.89990234375
  vertex 646500.0 5468500.0 6074.10009765625
  vertex 645500.0 5468500.0 6240.60009765625
 endloop
endfacet
facet normal -0.09091342985630035 -0.013442868366837502 -0.9957680702209473
 outer loop
  vertex 645500.0 5469500.0 6151.89990234375
  vertex 646500.0 5469500.0 6060.60009765625
  vertex 646500.0 5468500.0 6074.10009765625
 endloop
endfacet
facet normal -0.046645112335681915 -0.013484076596796513 -0.9988205432891846
 outer loop
  vertex 646500.0 5469500.0 6060.60009765625
  vertex 647500.0 5468500.0 6027.39990234375
  vertex 646500.0 5468500.0 6074.10009765625
 endloop
endfacet
facet normal -0.3228960633277893 -0.2930181324481964 -0.8999325633049011
 outer loop
  vertex 646500.0 5469500.0 6060.60009765625
  vertex 647500.0 5469500.0 5701.7998046875
  vertex 647500.0 5468500.0 6027.39990234375
 endloop
endfacet
facet normal -0.06208984926342964 0.1365373134613037 -0.9886872172355652
 outer loop
  vertex 644500.0 5470500.0 6352.7998046875
  vertex 645500.0 5469500.0 6151.89990234375
  vertex 644500.0 5469500.0 6214.7001953125
 endloop
endfacet
endsolid
