solid
facet normal 0.01769297756254673 0.021791458129882812 -0.9996059536933899
 outer loop
  vertex 657500.0 5936500.0 3216.800048828125
  vertex 658500.0 5936500.0 3234.5
  vertex 658500.0 5935500.0 3212.699951171875
 endloop
endfacet
facet normal 0.006998781114816666 0.017297036945819855 -0.9998258948326111
 outer loop
  vertex 659500.0 5936500.0 3242.699951171875
  vertex 660500.0 5936500.0 3249.699951171875
  vertex 660500.0 5935500.0 3232.39990234375
 endloop
endfacet
facet normal 0.017697030678391457 0.0040991767309606075 -0.9998349547386169
 outer loop
  vertex 657500.0 5937500.0 3220.89990234375
  vertex 658500.0 5936500.0 3234.5
  vertex 657500.0 5936500.0 3216.800048828125
 endloop
endfacet
facet normal 0.07218575477600098 0.0586446076631546 -0.9956656098365784
 outer loop
  vertex 657500.0 5937500.0 3220.89990234375
  vertex 658500.0 5937500.0 3293.39990234375
  vertex 658500.0 5936500.0 3234.5
 endloop
endfacet
facet normal 0.008185488171875477 0.058796029537916183 -0.9982364177703857
 outer loop
  vertex 658500.0 5937500.0 3293.39990234375
  vertex 659500.0 5936500.0 3242.699951171875
  vertex 658500.0 5936500.0 3234.5
 endloop
endfacet
facet normal -0.027282174676656723 0.02338503673672676 -0.9993542432785034
 outer loop
  vertex 658500.0 5937500.0 3293.39990234375
  vertex 659500.0 5937500.0 3266.10009765625
  vertex 659500.0 5936500.0 3242.699951171875
 endloop
endfacet
facet normal 0.006997912656515837 0.023393169045448303 -0.9997018575668335
 outer loop
  vertex 659500.0 5937500.0 3266.10009765625
  vertex 660500.0 5936500.0 3249.699951171875
  vertex 659500.0 5936500.0 3242.699951171875
 endloop
endfacet
facet normal 0.023674283176660538 0.04005666449666023 -0.9989169239997864
 outer loop
  vertex 659500.0 5937500.0 3266.10009765625
  vertex 660500.0 5937500.0 3289.800048828125
  vertex 660500.0 5936500.0 3249.699951171875
 endloop
endfacet
facet normal 0.00010001727059716359 0.040067896246910095 -0.9991969466209412
 outer loop
  vertex 660500.0 5937500.0 3289.800048828125
  vertex 661500.0 5936500.0 3249.800048828125
  vertex 660500.0 5936500.0 3249.699951171875
 endloop
endfacet
facet normal -0.018092798069119453 0.021891068667173386 -0.9995966553688049
 outer loop
  vertex 660500.0 5937500.0 3289.800048828125
  vertex 661500.0 5937500.0 3271.699951171875
  vertex 661500.0 5936500.0 3249.800048828125
 endloop
endfacet
facet normal -0.009697169996798038 0.02189362235367298 -0.9997132420539856
 outer loop
  vertex 661500.0 5937500.0 3271.699951171875
  vertex 662500.0 5936500.0 3240.10009765625
  vertex 661500.0 5936500.0 3249.800048828125
 endloop
endfacet
facet normal 0.009291878901422024 0.040863972157239914 -0.9991215467453003
 outer loop
  vertex 661500.0 5937500.0 3271.699951171875
  vertex 662500.0 5937500.0 3281.0
  vertex 662500.0 5936500.0 3240.10009765625
 endloop
endfacet
facet normal 0.07211774587631226 -0.07291332632303238 -0.9947274327278137
 outer loop
  vertex 657500.0 5938500.0 3147.60009765625
  vertex 658500.0 5937500.0 3293.39990234375
  vertex 657500.0 5937500.0 3220.89990234375
 endloop
endfacet
facet normal 0.07619495689868927 -0.06883417814970016 -0.9947141408920288
 outer loop
  vertex 657500.0 5938500.0 3147.60009765625
  vertex 658500.0 5938500.0 3224.199951171875
  vertex 658500.0 5937500.0 3293.39990234375
 endloop
endfacet
facet normal -0.027224579825997353 -0.06900927424430847 -0.9972444772720337
 outer loop
  vertex 658500.0 5938500.0 3224.199951171875
  vertex 659500.0 5937500.0 3266.10009765625
  vertex 658500.0 5937500.0 3293.39990234375
 endloop
endfacet
facet normal -0.08110962808132172 -0.12255481630563736 -0.9891418218612671
 outer loop
  vertex 658500.0 5938500.0 3224.199951171875
  vertex 659500.0 5938500.0 3142.199951171875
  vertex 659500.0 5937500.0 3266.10009765625
 endloop
endfacet
facet normal 0.02351359836757183 -0.12292595207691193 -0.9921372532844543
 outer loop
  vertex 659500.0 5938500.0 3142.199951171875
  vertex 660500.0 5937500.0 3289.800048828125
  vertex 659500.0 5937500.0 3266.10009765625
 endloop
endfacet
facet normal 0.15922722220420837 0.013523899018764496 -0.9871492981910706
 outer loop
  vertex 659500.0 5938500.0 3142.199951171875
  vertex 660500.0 5938500.0 3303.5
  vertex 660500.0 5937500.0 3289.800048828125
 endloop
endfacet
facet normal -0.018095435574650764 0.013696422800421715 -0.9997424483299255
 outer loop
  vertex 660500.0 5938500.0 3303.5
  vertex 661500.0 5937500.0 3271.699951171875
  vertex 660500.0 5937500.0 3289.800048828125
 endloop
endfacet
facet normal 0.012486779130995274 0.04425319284200668 -0.9989423155784607
 outer loop
  vertex 660500.0 5938500.0 3303.5
  vertex 661500.0 5938500.0 3316.0
  vertex 661500.0 5937500.0 3271.699951171875
 endloop
endfacet
facet normal 0.009290534071624279 0.04425473138689995 -0.9989771246910095
 outer loop
  vertex 661500.0 5938500.0 3316.0
  vertex 662500.0 5937500.0 3281.0
  vertex 661500.0 5937500.0 3271.699951171875
 endloop
endfacet
facet normal 0.01595846563577652 -0.07021739333868027 -0.9974040985107422
 outer loop
  vertex 656500.0 5939500.0 3061.199951171875
  vertex 657500.0 5939500.0 3077.199951171875
  vertex 657500.0 5938500.0 3147.60009765625
 endloop
endfacet
facet normal 0.07618863880634308 -0.07002221792936325 -0.9946316480636597
 outer loop
  vertex 657500.0 5939500.0 3077.199951171875
  vertex 658500.0 5938500.0 3224.199951171875
  vertex 657500.0 5938500.0 3147.60009765625
 endloop
endfacet
facet normal -0.01736355572938919 -0.16238991916179657 -0.9865738153457642
 outer loop
  vertex 657500.0 5939500.0 3077.199951171875
  vertex 658500.0 5939500.0 3059.60009765625
  vertex 658500.0 5938500.0 3224.199951171875
 endloop
endfacet
facet normal -0.08064771443605423 -0.16188538074493408 -0.9835085868835449
 outer loop
  vertex 658500.0 5939500.0 3059.60009765625
  vertex 659500.0 5938500.0 3142.199951171875
  vertex 658500.0 5938500.0 3224.199951171875
 endloop
endfacet
facet normal 0.2269960343837738 0.14748013019561768 -0.9626641869544983
 outer loop
  vertex 658500.0 5939500.0 3059.60009765625
  vertex 659500.0 5939500.0 3295.39990234375
  vertex 659500.0 5938500.0 3142.199951171875
 endloop
endfacet
facet normal 0.15745112299919128 0.14954431354999542 -0.9761381149291992
 outer loop
  vertex 659500.0 5939500.0 3295.39990234375
  vertex 660500.0 5938500.0 3303.5
  vertex 659500.0 5938500.0 3142.199951171875
 endloop
endfacet
facet normal 0.044923994690179825 0.03683757781982422 -0.9983109831809998
 outer loop
  vertex 659500.0 5939500.0 3295.39990234375
  vertex 660500.0 5939500.0 3340.39990234375
  vertex 660500.0 5938500.0 3303.5
 endloop
endfacet
facet normal 0.012490523979067802 0.036871928721666336 -0.9992419481277466
 outer loop
  vertex 660500.0 5939500.0 3340.39990234375
  vertex 661500.0 5938500.0 3316.0
  vertex 660500.0 5938500.0 3303.5
 endloop
endfacet
facet normal -0.006998769007623196 0.017396843060851097 -0.9998241662979126
 outer loop
  vertex 660500.0 5939500.0 3340.39990234375
  vertex 661500.0 5939500.0 3333.39990234375
  vertex 661500.0 5938500.0 3316.0
 endloop
endfacet
facet normal 0.0 -0.006699800956994295 -0.9999775886535645
 outer loop
  vertex 655500.0 5940500.0 3054.5
  vertex 656500.0 5940500.0 3054.5
  vertex 656500.0 5939500.0 3061.199951171875
 endloop
endfacet
facet normal 0.015997594222426414 -0.006698943208903074 -0.9998495578765869
 outer loop
  vertex 656500.0 5940500.0 3054.5
  vertex 657500.0 5939500.0 3077.199951171875
  vertex 656500.0 5939500.0 3061.199951171875
 endloop
endfacet
facet normal 0.026190804317593575 0.0034987779799848795 -0.9996508955955505
 outer loop
  vertex 656500.0 5940500.0 3054.5
  vertex 657500.0 5940500.0 3080.699951171875
  vertex 657500.0 5939500.0 3077.199951171875
 endloop
endfacet
facet normal -0.0175970196723938 0.0034994366578757763 -0.9998390078544617
 outer loop
  vertex 657500.0 5940500.0 3080.699951171875
  vertex 658500.0 5939500.0 3059.60009765625
  vertex 657500.0 5939500.0 3077.199951171875
 endloop
endfacet
facet normal 0.012591950595378876 0.03367816284298897 -0.9993534088134766
 outer loop
  vertex 657500.0 5940500.0 3080.699951171875
  vertex 658500.0 5940500.0 3093.300048828125
  vertex 658500.0 5939500.0 3059.60009765625
 endloop
endfacet
facet normal 0.22938232123851776 0.03278278186917305 -0.972784161567688
 outer loop
  vertex 658500.0 5940500.0 3093.300048828125
  vertex 659500.0 5939500.0 3295.39990234375
  vertex 658500.0 5939500.0 3059.60009765625
 endloop
endfacet
facet normal 0.12681902945041656 -0.0731038823723793 -0.989228367805481
 outer loop
  vertex 658500.0 5940500.0 3093.300048828125
  vertex 659500.0 5940500.0 3221.5
  vertex 659500.0 5939500.0 3295.39990234375
 endloop
endfacet
facet normal 0.0448325015604496 -0.07362483441829681 -0.9962778091430664
 outer loop
  vertex 659500.0 5940500.0 3221.5
  vertex 660500.0 5939500.0 3340.39990234375
  vertex 659500.0 5939500.0 3295.39990234375
 endloop
endfacet
facet normal 0.1360013335943222 0.01822609454393387 -0.9905410408973694
 outer loop
  vertex 659500.0 5940500.0 3221.5
  vertex 660500.0 5940500.0 3358.800048828125
  vertex 660500.0 5939500.0 3340.39990234375
 endloop
endfacet
facet normal -0.006998644210398197 0.018396582454442978 -0.99980628490448
 outer loop
  vertex 660500.0 5940500.0 3358.800048828125
  vertex 661500.0 5939500.0 3333.39990234375
  vertex 660500.0 5939500.0 3340.39990234375
 endloop
endfacet
facet normal -0.0870988592505455 -0.06184404715895653 -0.9942781925201416
 outer loop
  vertex 660500.0 5940500.0 3358.800048828125
  vertex 661500.0 5940500.0 3271.199951171875
  vertex 661500.0 5939500.0 3333.39990234375
 endloop
endfacet
facet normal -0.0025948320981115103 -0.0620797723531723 -0.9980677962303162
 outer loop
  vertex 661500.0 5940500.0 3271.199951171875
  vertex 662500.0 5939500.0 3330.800048828125
  vertex 661500.0 5939500.0 3333.39990234375
 endloop
endfacet
facet normal 0.12116111814975739 0.062116049230098724 -0.9906874299049377
 outer loop
  vertex 661500.0 5940500.0 3271.199951171875
  vertex 662500.0 5940500.0 3393.5
  vertex 662500.0 5939500.0 3330.800048828125
 endloop
endfacet
facet normal 0.02617345005273819 0.036563076078891754 -0.9989885091781616
 outer loop
  vertex 656500.0 5941500.0 3091.10009765625
  vertex 657500.0 5940500.0 3080.699951171875
  vertex 656500.0 5940500.0 3054.5
 endloop
endfacet
facet normal -0.03706140071153641 -0.026672102510929108 -0.9989569783210754
 outer loop
  vertex 656500.0 5941500.0 3091.10009765625
  vertex 657500.0 5941500.0 3054.0
  vertex 657500.0 5940500.0 3080.699951171875
 endloop
endfacet
facet normal 0.012594608590006828 -0.02668832428753376 -0.999564528465271
 outer loop
  vertex 657500.0 5941500.0 3054.0
  vertex 658500.0 5940500.0 3093.300048828125
  vertex 657500.0 5940500.0 3080.699951171875
 endloop
endfacet
facet normal 0.0004996240022592247 -0.03877086937427521 -0.9992480278015137
 outer loop
  vertex 657500.0 5941500.0 3054.0
  vertex 658500.0 5941500.0 3054.5
  vertex 658500.0 5940500.0 3093.300048828125
 endloop
endfacet
facet normal 0.12706521153450012 -0.03845661133527756 -0.9911485910415649
 outer loop
  vertex 658500.0 5941500.0 3054.5
  vertex 659500.0 5940500.0 3221.5
  vertex 658500.0 5940500.0 3093.300048828125
 endloop
endfacet
facet normal 0.07089699804782867 -0.09492672979831696 -0.9929564595222473
 outer loop
  vertex 658500.0 5941500.0 3054.5
  vertex 659500.0 5941500.0 3125.89990234375
  vertex 659500.0 5940500.0 3221.5
 endloop
endfacet
facet normal 0.1354179084300995 -0.09428958594799042 -0.986291766166687
 outer loop
  vertex 659500.0 5941500.0 3125.89990234375
  vertex 660500.0 5940500.0 3358.800048828125
  vertex 659500.0 5940500.0 3221.5
 endloop
endfacet
facet normal 0.17210064828395844 -0.056940868496894836 -0.9834322929382324
 outer loop
  vertex 659500.0 5941500.0 3125.89990234375
  vertex 660500.0 5941500.0 3300.89990234375
  vertex 660500.0 5940500.0 3358.800048828125
 endloop
endfacet
facet normal -0.08712110668420792 -0.057583555579185486 -0.99453204870224
 outer loop
  vertex 660500.0 5941500.0 3300.89990234375
  vertex 661500.0 5940500.0 3271.199951171875
  vertex 660500.0 5940500.0 3358.800048828125
 endloop
endfacet
facet normal -0.17101050913333893 -0.14205379784107208 -0.9749749302864075
 outer loop
  vertex 660500.0 5941500.0 3300.89990234375
  vertex 661500.0 5941500.0 3125.5
  vertex 661500.0 5940500.0 3271.199951171875
 endloop
endfacet
facet normal 0.12014558166265488 -0.1431332677602768 -0.9823837876319885
 outer loop
  vertex 661500.0 5941500.0 3125.5
  vertex 662500.0 5940500.0 3393.5
  vertex 661500.0 5940500.0 3271.199951171875
 endloop
endfacet
facet normal -0.073970265686512 -0.3265056908130646 -0.9422963857650757
 outer loop
  vertex 661500.0 5941500.0 3125.5
  vertex 662500.0 5941500.0 3047.0
  vertex 662500.0 5940500.0 3393.5
 endloop
endfacet
facet normal -0.3197895586490631 -0.310210257768631 -0.8952676653862
 outer loop
  vertex 662500.0 5941500.0 3047.0
  vertex 663500.0 5940500.0 3036.300048828125
  vertex 662500.0 5940500.0 3393.5
 endloop
endfacet
facet normal -0.0035999836400151253 0.007099628448486328 -0.9999682903289795
 outer loop
  vertex 662500.0 5941500.0 3047.0
  vertex 663500.0 5941500.0 3043.39990234375
  vertex 663500.0 5940500.0 3036.300048828125
 endloop
endfacet
facet normal -0.03706008568406105 0.027969803661108017 -0.9989215135574341
 outer loop
  vertex 656500.0 5942500.0 3119.10009765625
  vertex 657500.0 5941500.0 3054.0
  vertex 656500.0 5941500.0 3091.10009765625
 endloop
endfacet
facet normal -0.06575749814510345 -0.0007983189425431192 -0.9978353381156921
 outer loop
  vertex 656500.0 5942500.0 3119.10009765625
  vertex 657500.0 5942500.0 3053.199951171875
  vertex 657500.0 5941500.0 3054.0
 endloop
endfacet
facet normal 0.000499999790918082 -0.000800048466771841 -0.9999995827674866
 outer loop
  vertex 657500.0 5942500.0 3053.199951171875
  vertex 658500.0 5941500.0 3054.5
  vertex 657500.0 5941500.0 3054.0
 endloop
endfacet
facet normal 0.013897700235247612 0.012597880326211452 -0.999824047088623
 outer loop
  vertex 657500.0 5942500.0 3053.199951171875
  vertex 658500.0 5942500.0 3067.10009765625
  vertex 658500.0 5941500.0 3054.5
 endloop
endfacet
facet normal 0.07121297717094421 0.012567109428346157 -0.9973819255828857
 outer loop
  vertex 658500.0 5942500.0 3067.10009765625
  vertex 659500.0 5941500.0 3125.89990234375
  vertex 658500.0 5941500.0 3054.5
 endloop
endfacet
facet normal -0.008281143382191658 -0.06694701313972473 -0.9977222084999084
 outer loop
  vertex 658500.0 5942500.0 3067.10009765625
  vertex 659500.0 5942500.0 3058.800048828125
  vertex 659500.0 5941500.0 3125.89990234375
 endloop
endfacet
facet normal 0.1720050424337387 -0.06595149636268616 -0.9828859567642212
 outer loop
  vertex 659500.0 5942500.0 3058.800048828125
  vertex 660500.0 5941500.0 3300.89990234375
  vertex 659500.0 5941500.0 3125.89990234375
 endloop
endfacet
facet normal 0.09802907705307007 -0.140491783618927 -0.9852168560028076
 outer loop
  vertex 659500.0 5942500.0 3058.800048828125
  vertex 660500.0 5942500.0 3158.300048828125
  vertex 660500.0 5941500.0 3300.89990234375
 endloop
endfacet
facet normal -0.17108319699764252 -0.1390903890132904 -0.9753893613815308
 outer loop
  vertex 660500.0 5942500.0 3158.300048828125
  vertex 661500.0 5941500.0 3125.5
  vertex 660500.0 5941500.0 3300.89990234375
 endloop
endfacet
facet normal -0.12572970986366272 -0.09333427995443344 -0.9876643419265747
 outer loop
  vertex 660500.0 5942500.0 3158.300048828125
  vertex 661500.0 5942500.0 3031.0
  vertex 661500.0 5941500.0 3125.5
 endloop
endfacet
facet normal -0.07791423797607422 -0.09379485249519348 -0.9925380945205688
 outer loop
  vertex 661500.0 5942500.0 3031.0
  vertex 662500.0 5941500.0 3047.0
  vertex 661500.0 5941500.0 3125.5
 endloop
endfacet
facet normal 0.0 -0.015997951850295067 -0.9998720288276672
 outer loop
  vertex 661500.0 5942500.0 3031.0
  vertex 662500.0 5942500.0 3031.0
  vertex 662500.0 5941500.0 3047.0
 endloop
endfacet
facet normal -0.0035996134392917156 -0.01599784754216671 -0.9998655319213867
 outer loop
  vertex 662500.0 5942500.0 3031.0
  vertex 663500.0 5941500.0 3043.39990234375
  vertex 662500.0 5941500.0 3047.0
 endloop
endfacet
facet normal 0.0 -0.012398948892951012 -0.9999231100082397
 outer loop
  vertex 662500.0 5942500.0 3031.0
  vertex 663500.0 5942500.0 3031.0
  vertex 663500.0 5941500.0 3043.39990234375
 endloop
endfacet
facet normal -0.01239799614995718 -0.01239799614995718 -0.9998462796211243
 outer loop
  vertex 663500.0 5942500.0 3031.0
  vertex 664500.0 5941500.0 3031.0
  vertex 663500.0 5941500.0 3043.39990234375
 endloop
endfacet
facet normal 0.0 0.0 -1.0
 outer loop
  vertex 663500.0 5942500.0 3031.0
  vertex 664500.0 5942500.0 3031.0
  vertex 664500.0 5941500.0 3031.0
 endloop
endfacet
facet normal -0.24235716462135315 -0.061000850051641464 -0.9682674407958984
 outer loop
  vertex 655500.0 5943500.0 3306.39990234375
  vertex 656500.0 5943500.0 3056.10009765625
  vertex 656500.0 5942500.0 3119.10009765625
 endloop
endfacet
facet normal -0.06562796980142593 -0.062739796936512 -0.9958698153495789
 outer loop
  vertex 656500.0 5943500.0 3056.10009765625
  vertex 657500.0 5942500.0 3053.199951171875
  vertex 656500.0 5942500.0 3119.10009765625
 endloop
endfacet
facet normal -0.008099722675979137 -0.005199710372835398 -0.9999536871910095
 outer loop
  vertex 656500.0 5943500.0 3056.10009765625
  vertex 657500.0 5943500.0 3048.0
  vertex 657500.0 5942500.0 3053.199951171875
 endloop
endfacet
facet normal 0.013898615725338459 -0.005199378821998835 -0.9998899102210999
 outer loop
  vertex 657500.0 5943500.0 3048.0
  vertex 658500.0 5942500.0 3067.10009765625
  vertex 657500.0 5942500.0 3053.199951171875
 endloop
endfacet
facet normal 0.043844208121299744 0.024768341332674026 -0.9987313151359558
 outer loop
  vertex 657500.0 5943500.0 3048.0
  vertex 658500.0 5943500.0 3091.89990234375
  vertex 658500.0 5942500.0 3067.10009765625
 endloop
endfacet
facet normal -0.00829720962792635 0.024791328236460686 -0.9996581673622131
 outer loop
  vertex 658500.0 5943500.0 3091.89990234375
  vertex 659500.0 5942500.0 3058.800048828125
  vertex 658500.0 5942500.0 3067.10009765625
 endloop
endfacet
facet normal -0.056493863463401794 -0.023455994203686714 -0.9981274008750916
 outer loop
  vertex 658500.0 5943500.0 3091.89990234375
  vertex 659500.0 5943500.0 3035.300048828125
  vertex 659500.0 5942500.0 3058.800048828125
 endloop
endfacet
facet normal 0.09898402541875839 -0.02337813749909401 -0.9948143362998962
 outer loop
  vertex 659500.0 5943500.0 3035.300048828125
  vertex 660500.0 5942500.0 3158.300048828125
  vertex 659500.0 5942500.0 3058.800048828125
 endloop
endfacet
facet normal -0.0042655859142541885 -0.1262798011302948 -0.9919854998588562
 outer loop
  vertex 659500.0 5943500.0 3035.300048828125
  vertex 660500.0 5943500.0 3031.0
  vertex 660500.0 5942500.0 3158.300048828125
 endloop
endfacet
facet normal -0.12528593838214874 -0.12528593838214874 -0.9841783046722412
 outer loop
  vertex 660500.0 5943500.0 3031.0
  vertex 661500.0 5942500.0 3031.0
  vertex 660500.0 5942500.0 3158.300048828125
 endloop
endfacet
facet normal 0.0 0.0 -1.0
 outer loop
  vertex 660500.0 5943500.0 3031.0
  vertex 661500.0 5943500.0 3031.0
  vertex 661500.0 5942500.0 3031.0
 endloop
endfacet
facet normal 0.0 0.0 -1.0
 outer loop
  vertex 661500.0 5943500.0 3031.0
  vertex 662500.0 5942500.0 3031.0
  vertex 661500.0 5942500.0 3031.0
 endloop
endfacet
facet normal 0.0 0.0 -1.0
 outer loop
  vertex 661500.0 5943500.0 3031.0
  vertex 662500.0 5943500.0 3031.0
  vertex 662500.0 5942500.0 3031.0
 endloop
endfacet
facet normal 0.0 0.0 -1.0
 outer loop
  vertex 662500.0 5943500.0 3031.0
  vertex 663500.0 5942500.0 3031.0
  vertex 662500.0 5942500.0 3031.0
 endloop
endfacet
facet normal 0.0 0.0 -1.0
 outer loop
  vertex 662500.0 5943500.0 3031.0
  vertex 663500.0 5943500.0 3031.0
  vertex 663500.0 5942500.0 3031.0
 endloop
endfacet
facet normal 0.0 0.0 -1.0
 outer loop
  vertex 663500.0 5943500.0 3031.0
  vertex 664500.0 5942500.0 3031.0
  vertex 663500.0 5942500.0 3031.0
 endloop
endfacet
facet normal 0.0 0.0 -1.0
 outer loop
  vertex 663500.0 5943500.0 3031.0
  vertex 664500.0 5943500.0 3031.0
  vertex 664500.0 5942500.0 3031.0
 endloop
endfacet
facet normal -0.24278727173805237 -0.013482708483934402 -0.969985842704773
 outer loop
  vertex 655500.0 5944500.0 3292.5
  vertex 656500.0 5943500.0 3056.10009765625
  vertex 655500.0 5943500.0 3306.39990234375
 endloop
endfacet
facet normal 0.08570392429828644 0.30957573652267456 -0.9470046758651733
 outer loop
  vertex 655500.0 5944500.0 3292.5
  vertex 656500.0 5944500.0 3383.0
  vertex 656500.0 5943500.0 3056.10009765625
 endloop
endfacet
facet normal -0.00769892567768693 0.31070974469184875 -0.9504736661911011
 outer loop
  vertex 656500.0 5944500.0 3383.0
  vertex 657500.0 5943500.0 3048.0
  vertex 656500.0 5943500.0 3056.10009765625
 endloop
endfacet
facet normal -0.02512197569012642 0.2948721647262573 -0.9552064538002014
 outer loop
  vertex 656500.0 5944500.0 3383.0
  vertex 657500.0 5944500.0 3356.699951171875
  vertex 657500.0 5943500.0 3048.0
 endloop
endfacet
facet normal 0.041909825056791306 0.2947061061859131 -0.9546684622764587
 outer loop
  vertex 657500.0 5944500.0 3356.699951171875
  vertex 658500.0 5943500.0 3091.89990234375
  vertex 657500.0 5943500.0 3048.0
 endloop
endfacet
facet normal -0.11418608576059341 0.14602471888065338 -0.9826689958572388
 outer loop
  vertex 657500.0 5944500.0 3356.699951171875
  vertex 658500.0 5944500.0 3240.5
  vertex 658500.0 5943500.0 3091.89990234375
 endloop
endfacet
facet normal -0.05589757114648819 0.14675626158714294 -0.9875920414924622
 outer loop
  vertex 658500.0 5944500.0 3240.5
  vertex 659500.0 5943500.0 3035.300048828125
  vertex 658500.0 5943500.0 3091.89990234375
 endloop
endfacet
facet normal -0.18092285096645355 0.020845413208007812 -0.9832763671875
 outer loop
  vertex 658500.0 5944500.0 3240.5
  vertex 659500.0 5944500.0 3056.5
  vertex 659500.0 5943500.0 3035.300048828125
 endloop
endfacet
facet normal -0.004299043212085962 0.02119499258697033 -0.9997661113739014
 outer loop
  vertex 659500.0 5944500.0 3056.5
  vertex 660500.0 5943500.0 3031.0
  vertex 659500.0 5943500.0 3035.300048828125
 endloop
endfacet
facet normal -0.025491714477539062 0.0 -0.9996750354766846
 outer loop
  vertex 659500.0 5944500.0 3056.5
  vertex 660500.0 5944500.0 3031.0
  vertex 660500.0 5943500.0 3031.0
 endloop
endfacet
facet normal 0.0 0.0 -1.0
 outer loop
  vertex 660500.0 5944500.0 3031.0
  vertex 661500.0 5943500.0 3031.0
  vertex 660500.0 5943500.0 3031.0
 endloop
endfacet
facet normal 0.0 0.0 -1.0
 outer loop
  vertex 660500.0 5944500.0 3031.0
  vertex 661500.0 5944500.0 3031.0
  vertex 661500.0 5943500.0 3031.0
 endloop
endfacet
facet normal 0.0 0.0 -1.0
 outer loop
  vertex 661500.0 5944500.0 3031.0
  vertex 662500.0 5943500.0 3031.0
  vertex 661500.0 5943500.0 3031.0
 endloop
endfacet
facet normal 0.0 0.0 -1.0
 outer loop
  vertex 661500.0 5944500.0 3031.0
  vertex 662500.0 5944500.0 3031.0
  vertex 662500.0 5943500.0 3031.0
 endloop
endfacet
facet normal 0.0 0.0 -1.0
 outer loop
  vertex 662500.0 5944500.0 3031.0
  vertex 663500.0 5943500.0 3031.0
  vertex 662500.0 5943500.0 3031.0
 endloop
endfacet
facet normal 0.0 0.0 -1.0
 outer loop
  vertex 662500.0 5944500.0 3031.0
  vertex 663500.0 5944500.0 3031.0
  vertex 663500.0 5943500.0 3031.0
 endloop
endfacet
facet normal 0.0 0.0 -1.0
 outer loop
  vertex 663500.0 5944500.0 3031.0
  vertex 664500.0 5943500.0 3031.0
  vertex 663500.0 5943500.0 3031.0
 endloop
endfacet
facet normal 0.0 0.0 -1.0
 outer loop
  vertex 663500.0 5944500.0 3031.0
  vertex 664500.0 5944500.0 3031.0
  vertex 664500.0 5943500.0 3031.0
 endloop
endfacet
facet normal 0.18360716104507446 -0.01346578635275364 -0.9829074740409851
 outer loop
  vertex 654500.0 5945500.0 3092.0
  vertex 655500.0 5945500.0 3278.800048828125
  vertex 655500.0 5944500.0 3292.5
 endloop
endfacet
facet normal 0.0901232585310936 -0.013642920181155205 -0.9958371520042419
 outer loop
  vertex 655500.0 5945500.0 3278.800048828125
  vertex 656500.0 5944500.0 3383.0
  vertex 655500.0 5944500.0 3292.5
 endloop
endfacet
facet normal -0.08829282224178314 -0.1901765763759613 -0.9777715802192688
 outer loop
  vertex 655500.0 5945500.0 3278.800048828125
  vertex 656500.0 5945500.0 3188.5
  vertex 656500.0 5944500.0 3383.0
 endloop
endfacet
facet normal -0.025807663798332214 -0.1908586174249649 -0.9812782406806946
 outer loop
  vertex 656500.0 5945500.0 3188.5
  vertex 657500.0 5944500.0 3356.699951171875
  vertex 656500.0 5944500.0 3383.0
 endloop
endfacet
facet normal 0.09848354756832123 -0.06850169599056244 -0.9927781820297241
 outer loop
  vertex 656500.0 5945500.0 3188.5
  vertex 657500.0 5945500.0 3287.699951171875
  vertex 657500.0 5944500.0 3356.699951171875
 endloop
endfacet
facet normal -0.11515317112207413 -0.06837841123342514 -0.9909915328025818
 outer loop
  vertex 657500.0 5945500.0 3287.699951171875
  vertex 658500.0 5944500.0 3240.5
  vertex 657500.0 5944500.0 3356.699951171875
 endloop
endfacet
facet normal -0.14473320543766022 -0.09826109558343887 -0.9845796227455139
 outer loop
  vertex 657500.0 5945500.0 3287.699951171875
  vertex 658500.0 5945500.0 3140.699951171875
  vertex 658500.0 5944500.0 3240.5
 endloop
endfacet
facet normal -0.18009673058986664 -0.09768294543027878 -0.9787865877151489
 outer loop
  vertex 658500.0 5945500.0 3140.699951171875
  vertex 659500.0 5944500.0 3056.5
  vertex 658500.0 5944500.0 3240.5
 endloop
endfacet
facet normal -0.10901076346635818 -0.025339797139167786 -0.9937175512313843
 outer loop
  vertex 658500.0 5945500.0 3140.699951171875
  vertex 659500.0 5945500.0 3031.0
  vertex 659500.0 5944500.0 3056.5
 endloop
endfacet
facet normal -0.02548343501985073 -0.02548343501985073 -0.999350368976593
 outer loop
  vertex 659500.0 5945500.0 3031.0
  vertex 660500.0 5944500.0 3031.0
  vertex 659500.0 5944500.0 3056.5
 endloop
endfacet
facet normal 0.0 0.0 -1.0
 outer loop
  vertex 659500.0 5945500.0 3031.0
  vertex 660500.0 5945500.0 3031.0
  vertex 660500.0 5944500.0 3031.0
 endloop
endfacet
facet normal 0.0 0.0 -1.0
 outer loop
  vertex 660500.0 5945500.0 3031.0
  vertex 661500.0 5944500.0 3031.0
  vertex 660500.0 5944500.0 3031.0
 endloop
endfacet
facet normal 0.0 0.0 -1.0
 outer loop
  vertex 660500.0 5945500.0 3031.0
  vertex 661500.0 5945500.0 3031.0
  vertex 661500.0 5944500.0 3031.0
 endloop
endfacet
facet normal 0.0 0.0 -1.0
 outer loop
  vertex 661500.0 5945500.0 3031.0
  vertex 662500.0 5944500.0 3031.0
  vertex 661500.0 5944500.0 3031.0
 endloop
endfacet
facet normal 0.0 0.0 -1.0
 outer loop
  vertex 661500.0 5945500.0 3031.0
  vertex 662500.0 5945500.0 3031.0
  vertex 662500.0 5944500.0 3031.0
 endloop
endfacet
facet normal 0.0 0.0 -1.0
 outer loop
  vertex 662500.0 5945500.0 3031.0
  vertex 663500.0 5944500.0 3031.0
  vertex 662500.0 5944500.0 3031.0
 endloop
endfacet
facet normal 0.0 0.0 -1.0
 outer loop
  vertex 662500.0 5945500.0 3031.0
  vertex 663500.0 5945500.0 3031.0
  vertex 663500.0 5944500.0 3031.0
 endloop
endfacet
facet normal 0.0 0.0 -1.0
 outer loop
  vertex 663500.0 5945500.0 3031.0
  vertex 664500.0 5944500.0 3031.0
  vertex 663500.0 5944500.0 3031.0
 endloop
endfacet
facet normal -0.044066209346055984 0.09260918200016022 -0.9947269558906555
 outer loop
  vertex 653500.0 5946500.0 3229.39990234375
  vertex 654500.0 5946500.0 3185.10009765625
  vertex 654500.0 5945500.0 3092.0
 endloop
endfacet
facet normal 0.1828596442937851 0.09113622456789017 -0.9789057970046997
 outer loop
  vertex 654500.0 5946500.0 3185.10009765625
  vertex 655500.0 5945500.0 3278.800048828125
  vertex 654500.0 5945500.0 3092.0
 endloop
endfacet
facet normal 0.011759614571928978 -0.0816211998462677 -0.9965940117835999
 outer loop
  vertex 654500.0 5946500.0 3185.10009765625
  vertex 655500.0 5946500.0 3196.89990234375
  vertex 655500.0 5945500.0 3278.800048828125
 endloop
endfacet
facet normal -0.08963643014431 -0.08129826188087463 -0.9926509857177734
 outer loop
  vertex 655500.0 5946500.0 3196.89990234375
  vertex 656500.0 5945500.0 3188.5
  vertex 655500.0 5945500.0 3278.800048828125
 endloop
endfacet
facet normal -0.02478884905576706 -0.016392657533288002 -0.9995582699775696
 outer loop
  vertex 655500.0 5946500.0 3196.89990234375
  vertex 656500.0 5946500.0 3172.10009765625
  vertex 656500.0 5945500.0 3188.5
 endloop
endfacet
facet normal 0.09870228916406631 -0.01631762832403183 -0.9949832558631897
 outer loop
  vertex 656500.0 5946500.0 3172.10009765625
  vertex 657500.0 5945500.0 3287.699951171875
  vertex 656500.0 5945500.0 3188.5
 endloop
endfacet
facet normal 0.05421844497323036 -0.06099580600857735 -0.9966643452644348
 outer loop
  vertex 656500.0 5946500.0 3172.10009765625
  vertex 657500.0 5946500.0 3226.5
  vertex 657500.0 5945500.0 3287.699951171875
 endloop
endfacet
facet normal -0.1451711505651474 -0.06043855473399162 -0.9875588417053223
 outer loop
  vertex 657500.0 5946500.0 3226.5
  vertex 658500.0 5945500.0 3140.699951171875
  vertex 657500.0 5945500.0 3287.699951171875
 endloop
endfacet
facet normal -0.10283579677343369 -0.01750384084880352 -0.9945443868637085
 outer loop
  vertex 657500.0 5946500.0 3226.5
  vertex 658500.0 5946500.0 3123.10009765625
  vertex 658500.0 5945500.0 3140.699951171875
 endloop
endfacet
facet normal -0.10902909189462662 -0.017492223531007767 -0.9938846230506897
 outer loop
  vertex 658500.0 5946500.0 3123.10009765625
  vertex 659500.0 5945500.0 3031.0
  vertex 658500.0 5945500.0 3140.699951171875
 endloop
endfacet
facet normal -0.04909570887684822 0.042808789759874344 -0.9978762865066528
 outer loop
  vertex 658500.0 5946500.0 3123.10009765625
  vertex 659500.0 5946500.0 3073.89990234375
  vertex 659500.0 5945500.0 3031.0
 endloop
endfacet
facet normal 0.0 0.0428604818880558 -0.9990810751914978
 outer loop
  vertex 659500.0 5946500.0 3073.89990234375
  vertex 660500.0 5945500.0 3031.0
  vertex 659500.0 5945500.0 3031.0
 endloop
endfacet
facet normal 0.06576555967330933 0.10831962525844574 -0.9919384121894836
 outer loop
  vertex 659500.0 5946500.0 3073.89990234375
  vertex 660500.0 5946500.0 3140.199951171875
  vertex 660500.0 5945500.0 3031.0
 endloop
endfacet
facet normal 0.0 0.10855463892221451 -0.9940904974937439
 outer loop
  vertex 660500.0 5946500.0 3140.199951171875
  vertex 661500.0 5945500.0 3031.0
  vertex 660500.0 5945500.0 3031.0
 endloop
endfacet
facet normal -0.026300767436623573 0.08248911798000336 -0.9962448477745056
 outer loop
  vertex 660500.0 5946500.0 3140.199951171875
  vertex 661500.0 5946500.0 3113.800048828125
  vertex 661500.0 5945500.0 3031.0
 endloop
endfacet
facet normal 0.0 0.08251766860485077 -0.9965896010398865
 outer loop
  vertex 661500.0 5946500.0 3113.800048828125
  vertex 662500.0 5945500.0 3031.0
  vertex 661500.0 5945500.0 3031.0
 endloop
endfacet
facet normal -0.08251766860485077 0.0 -0.9965896010398865
 outer loop
  vertex 661500.0 5946500.0 3113.800048828125
  vertex 662500.0 5946500.0 3031.0
  vertex 662500.0 5945500.0 3031.0
 endloop
endfacet
facet normal 0.0 0.0 -1.0
 outer loop
  vertex 662500.0 5946500.0 3031.0
  vertex 663500.0 5945500.0 3031.0
  vertex 662500.0 5945500.0 3031.0
 endloop
endfacet
facet normal 0.0 0.0 -1.0
 outer loop
  vertex 662500.0 5946500.0 3031.0
  vertex 663500.0 5946500.0 3031.0
  vertex 663500.0 5945500.0 3031.0
 endloop
endfacet
facet normal 0.13532564043998718 0.1079455018043518 -0.9849033951759338
 outer loop
  vertex 652500.0 5947500.0 3201.60009765625
  vertex 653500.0 5946500.0 3229.39990234375
  vertex 652500.0 5946500.0 3092.0
 endloop
endfacet
facet normal 0.008597951382398605 -0.01919570378959179 -0.9997788071632385
 outer loop
  vertex 652500.0 5947500.0 3201.60009765625
  vertex 653500.0 5947500.0 3210.199951171875
  vertex 653500.0 5946500.0 3229.39990234375
 endloop
endfacet
facet normal -0.04424826055765152 -0.01917761191725731 -0.9988364577293396
 outer loop
  vertex 653500.0 5947500.0 3210.199951171875
  vertex 654500.0 5946500.0 3185.10009765625
  vertex 653500.0 5946500.0 3229.39990234375
 endloop
endfacet
facet normal 0.027352225035429 0.05240818113088608 -0.9982510805130005
 outer loop
  vertex 653500.0 5947500.0 3210.199951171875
  vertex 654500.0 5947500.0 3237.60009765625
  vertex 654500.0 5946500.0 3185.10009765625
 endloop
endfacet
facet normal 0.011782758869230747 0.05242415890097618 -0.9985554218292236
 outer loop
  vertex 654500.0 5947500.0 3237.60009765625
  vertex 655500.0 5946500.0 3196.89990234375
  vertex 654500.0 5946500.0 3185.10009765625
 endloop
endfacet
facet normal -0.086088627576828 -0.04558199271559715 -0.9952442049980164
 outer loop
  vertex 654500.0 5947500.0 3237.60009765625
  vertex 655500.0 5947500.0 3151.10009765625
  vertex 655500.0 5946500.0 3196.89990234375
 endloop
endfacet
facet normal -0.024766234681010246 -0.04573781043291092 -0.9986463785171509
 outer loop
  vertex 655500.0 5947500.0 3151.10009765625
  vertex 656500.0 5946500.0 3172.10009765625
  vertex 655500.0 5946500.0 3196.89990234375
 endloop
endfacet
facet normal -0.014888903126120567 -0.035873059183359146 -0.9992454648017883
 outer loop
  vertex 655500.0 5947500.0 3151.10009765625
  vertex 656500.0 5947500.0 3136.199951171875
  vertex 656500.0 5946500.0 3172.10009765625
 endloop
endfacet
facet normal 0.05428471788764 -0.035824134945869446 -0.9978826642036438
 outer loop
  vertex 656500.0 5947500.0 3136.199951171875
  vertex 657500.0 5946500.0 3226.5
  vertex 656500.0 5946500.0 3172.10009765625
 endloop
endfacet
facet normal -0.08458366245031357 -0.17319054901599884 -0.9812495708465576
 outer loop
  vertex 656500.0 5947500.0 3136.199951171875
  vertex 657500.0 5947500.0 3050.0
  vertex 657500.0 5946500.0 3226.5
 endloop
endfacet
facet normal -0.10130219161510468 -0.17291927337646484 -0.9797126054763794
 outer loop
  vertex 657500.0 5947500.0 3050.0
  vertex 658500.0 5946500.0 3123.10009765625
  vertex 657500.0 5946500.0 3226.5
 endloop
endfacet
facet normal 0.13517223298549652 0.06288908421993256 -0.9888242483139038
 outer loop
  vertex 657500.0 5947500.0 3050.0
  vertex 658500.0 5947500.0 3186.699951171875
  vertex 658500.0 5946500.0 3123.10009765625
 endloop
endfacet
facet normal -0.049041908234357834 0.06339523941278458 -0.9967828392982483
 outer loop
  vertex 658500.0 5947500.0 3186.699951171875
  vertex 659500.0 5946500.0 3073.89990234375
  vertex 658500.0 5946500.0 3123.10009765625
 endloop
endfacet
facet normal -0.15370827913284302 -0.042351141571998596 -0.9872082471847534
 outer loop
  vertex 658500.0 5947500.0 3186.699951171875
  vertex 659500.0 5947500.0 3031.0
  vertex 659500.0 5946500.0 3073.89990234375
 endloop
endfacet
facet normal 0.0660942792892456 -0.0427667610347271 -0.9968964457511902
 outer loop
  vertex 659500.0 5947500.0 3031.0
  vertex 660500.0 5946500.0 3140.199951171875
  vertex 659500.0 5946500.0 3073.89990234375
 endloop
endfacet
facet normal 0.09811881184577942 -0.010548119433224201 -0.9951187968254089
 outer loop
  vertex 659500.0 5947500.0 3031.0
  vertex 660500.0 5947500.0 3129.60009765625
  vertex 660500.0 5946500.0 3140.199951171875
 endloop
endfacet
facet normal -0.0263892263174057 -0.010595566593110561 -0.999595582485199
 outer loop
  vertex 660500.0 5947500.0 3129.60009765625
  vertex 661500.0 5946500.0 3113.800048828125
  vertex 660500.0 5946500.0 3140.199951171875
 endloop
endfacet
facet normal -0.0523926205933094 -0.03662488982081413 -0.9979546666145325
 outer loop
  vertex 660500.0 5947500.0 3129.60009765625
  vertex 661500.0 5947500.0 3077.10009765625
  vertex 661500.0 5946500.0 3113.800048828125
 endloop
endfacet
facet normal -0.08246252685785294 -0.03655035421252251 -0.9959236979484558
 outer loop
  vertex 661500.0 5947500.0 3077.10009765625
  vertex 662500.0 5946500.0 3031.0
  vertex 661500.0 5946500.0 3113.800048828125
 endloop
endfacet
facet normal -0.04605118930339813 0.0 -0.998939037322998
 outer loop
  vertex 661500.0 5947500.0 3077.10009765625
  vertex 662500.0 5947500.0 3031.0
  vertex 662500.0 5946500.0 3031.0
 endloop
endfacet
facet normal 0.0 0.0 -1.0
 outer loop
  vertex 662500.0 5947500.0 3031.0
  vertex 663500.0 5946500.0 3031.0
  vertex 662500.0 5946500.0 3031.0
 endloop
endfacet
facet normal 0.0 0.0 -1.0
 outer loop
  vertex 662500.0 5947500.0 3031.0
  vertex 663500.0 5947500.0 3031.0
  vertex 663500.0 5946500.0 3031.0
 endloop
endfacet
facet normal 0.02738572470843792 0.017390988767147064 -0.9994736313819885
 outer loop
  vertex 653500.0 5948500.0 3227.60009765625
  vertex 654500.0 5947500.0 3237.60009765625
  vertex 653500.0 5947500.0 3210.199951171875
 endloop
endfacet
facet normal 0.0003998838656116277 -0.009599654003977776 -0.9999538064002991
 outer loop
  vertex 653500.0 5948500.0 3227.60009765625
  vertex 654500.0 5948500.0 3228.0
  vertex 654500.0 5947500.0 3237.60009765625
 endloop
endfacet
facet normal -0.08617425709962845 -0.009563945233821869 -0.9962341785430908
 outer loop
  vertex 654500.0 5948500.0 3228.0
  vertex 655500.0 5947500.0 3151.10009765625
  vertex 654500.0 5947500.0 3237.60009765625
 endloop
endfacet
facet normal -0.0642617717385292 0.012473192997276783 -0.9978551268577576
 outer loop
  vertex 654500.0 5948500.0 3228.0
  vertex 655500.0 5948500.0 3163.60009765625
  vertex 655500.0 5947500.0 3151.10009765625
 endloop
endfacet
facet normal -0.014897328801453114 0.01249763648957014 -0.9998109340667725
 outer loop
  vertex 655500.0 5948500.0 3163.60009765625
  vertex 656500.0 5947500.0 3136.199951171875
  vertex 655500.0 5947500.0 3151.10009765625
 endloop
endfacet
facet normal 0.04275515303015709 0.07006284594535828 -0.9966259002685547
 outer loop
  vertex 655500.0 5948500.0 3163.60009765625
  vertex 656500.0 5948500.0 3206.5
  vertex 656500.0 5947500.0 3136.199951171875
 endloop
endfacet
facet normal -0.08567159622907639 0.06986914575099945 -0.9938705563545227
 outer loop
  vertex 656500.0 5948500.0 3206.5
  vertex 657500.0 5947500.0 3050.0
  vertex 656500.0 5947500.0 3136.199951171875
 endloop
endfacet
facet normal -0.11375637352466583 0.041591428220272064 -0.9926377534866333
 outer loop
  vertex 656500.0 5948500.0 3206.5
  vertex 657500.0 5948500.0 3091.89990234375
  vertex 657500.0 5947500.0 3050.0
 endloop
endfacet
facet normal 0.13532377779483795 0.04147808998823166 -0.9899328947067261
 outer loop
  vertex 657500.0 5948500.0 3091.89990234375
  vertex 658500.0 5947500.0 3186.699951171875
  vertex 657500.0 5947500.0 3050.0
 endloop
endfacet
facet normal 0.028426075354218483 -0.06612807512283325 -0.9974061846733093
 outer loop
  vertex 657500.0 5948500.0 3091.89990234375
  vertex 658500.0 5948500.0 3120.39990234375
  vertex 658500.0 5947500.0 3186.699951171875
 endloop
endfacet
facet normal -0.1535172462463379 -0.0653706043958664 -0.9859813451766968
 outer loop
  vertex 658500.0 5948500.0 3120.39990234375
  vertex 659500.0 5947500.0 3031.0
  vertex 658500.0 5947500.0 3186.699951171875
 endloop
endfacet
facet normal -0.08904477953910828 0.0 -0.9960276484489441
 outer loop
  vertex 658500.0 5948500.0 3120.39990234375
  vertex 659500.0 5948500.0 3031.0
  vertex 659500.0 5947500.0 3031.0
 endloop
endfacet
facet normal 0.09812426567077637 0.0 -0.9951741695404053
 outer loop
  vertex 659500.0 5948500.0 3031.0
  vertex 660500.0 5947500.0 3129.60009765625
  vertex 659500.0 5947500.0 3031.0
 endloop
endfacet
facet normal 0.0005972365033812821 -0.09753274917602539 -0.9952321648597717
 outer loop
  vertex 659500.0 5948500.0 3031.0
  vertex 660500.0 5948500.0 3031.60009765625
  vertex 660500.0 5947500.0 3129.60009765625
 endloop
endfacet
facet normal -0.0521785207092762 -0.09739990532398224 -0.993876576423645
 outer loop
  vertex 660500.0 5948500.0 3031.60009765625
  vertex 661500.0 5947500.0 3077.10009765625
  vertex 660500.0 5947500.0 3129.60009765625
 endloop
endfacet
facet normal -0.0005994608509354293 -0.04605117812752724 -0.9989388585090637
 outer loop
  vertex 660500.0 5948500.0 3031.60009765625
  vertex 661500.0 5948500.0 3031.0
  vertex 661500.0 5947500.0 3077.10009765625
 endloop
endfacet
facet normal -0.04600243270397186 -0.04600243270397186 -0.9978814721107483
 outer loop
  vertex 661500.0 5948500.0 3031.0
  vertex 662500.0 5947500.0 3031.0
  vertex 661500.0 5947500.0 3077.10009765625
 endloop
endfacet
facet normal 0.0 0.0 -1.0
 outer loop
  vertex 661500.0 5948500.0 3031.0
  vertex 662500.0 5948500.0 3031.0
  vertex 662500.0 5947500.0 3031.0
 endloop
endfacet
facet normal 0.0 0.0 -1.0
 outer loop
  vertex 662500.0 5948500.0 3031.0
  vertex 663500.0 5947500.0 3031.0
  vertex 662500.0 5947500.0 3031.0
 endloop
endfacet
facet normal 0.0 0.0 -1.0
 outer loop
  vertex 662500.0 5948500.0 3031.0
  vertex 663500.0 5948500.0 3031.0
  vertex 663500.0 5947500.0 3031.0
 endloop
endfacet
facet normal -0.11373306810855865 0.046247538179159164 -0.9924343824386597
 outer loop
  vertex 656500.0 5949500.0 3253.10009765625
  vertex 657500.0 5948500.0 3091.89990234375
  vertex 656500.0 5948500.0 3206.5
 endloop
endfacet
facet normal -0.009689170867204666 0.14968720078468323 -0.9886859655380249
 outer loop
  vertex 656500.0 5949500.0 3253.10009765625
  vertex 657500.0 5949500.0 3243.300048828125
  vertex 657500.0 5948500.0 3091.89990234375
 endloop
endfacet
facet normal 0.028167681768536568 0.14963480830192566 -0.9883400201797485
 outer loop
  vertex 657500.0 5949500.0 3243.300048828125
  vertex 658500.0 5948500.0 3120.39990234375
  vertex 657500.0 5948500.0 3091.89990234375
 endloop
endfacet
facet normal -0.11257464438676834 0.009538636542856693 -0.9935975074768066
 outer loop
  vertex 657500.0 5949500.0 3243.300048828125
  vertex 658500.0 5949500.0 3130.0
  vertex 658500.0 5948500.0 3120.39990234375
 endloop
endfacet
facet normal -0.08904070407152176 0.009561525657773018 -0.9959821105003357
 outer loop
  vertex 658500.0 5949500.0 3130.0
  vertex 659500.0 5948500.0 3031.0
  vertex 658500.0 5948500.0 3120.39990234375
 endloop
endfacet
facet normal 0.10470014065504074 0.20112167298793793 -0.9739547967910767
 outer loop
  vertex 658500.0 5949500.0 3130.0
  vertex 659500.0 5949500.0 3237.5
  vertex 659500.0 5948500.0 3031.0
 endloop
endfacet
facet normal 0.000587694114074111 0.20223313570022583 -0.979337215423584
 outer loop
  vertex 659500.0 5949500.0 3237.5
  vertex 660500.0 5948500.0 3031.60009765625
  vertex 659500.0 5948500.0 3031.0
 endloop
endfacet
facet normal -0.2013876736164093 0.000293669814709574 -0.979511559009552
 outer loop
  vertex 659500.0 5949500.0 3237.5
  vertex 660500.0 5949500.0 3031.89990234375
  vertex 660500.0 5948500.0 3031.60009765625
 endloop
endfacet
facet normal -0.0006000975263305008 0.0002998046111315489 -0.9999997615814209
 outer loop
  vertex 660500.0 5949500.0 3031.89990234375
  vertex 661500.0 5948500.0 3031.0
  vertex 660500.0 5948500.0 3031.60009765625
 endloop
endfacet
facet normal -0.0007998044602572918 0.00010009762627305463 -0.9999997019767761
 outer loop
  vertex 660500.0 5949500.0 3031.89990234375
  vertex 661500.0 5949500.0 3031.10009765625
  vertex 661500.0 5948500.0 3031.0
 endloop
endfacet
facet normal 0.0 0.00010009765537688509 -1.0
 outer loop
  vertex 661500.0 5949500.0 3031.10009765625
  vertex 662500.0 5948500.0 3031.0
  vertex 661500.0 5948500.0 3031.0
 endloop
endfacet
facet normal -0.00010009765537688509 0.0 -1.0
 outer loop
  vertex 661500.0 5949500.0 3031.10009765625
  vertex 662500.0 5949500.0 3031.0
  vertex 662500.0 5948500.0 3031.0
 endloop
endfacet
facet normal 0.0 0.0 -1.0
 outer loop
  vertex 662500.0 5949500.0 3031.0
  vertex 663500.0 5948500.0 3031.0
  vertex 662500.0 5948500.0 3031.0
 endloop
endfacet
facet normal -0.20136874914169312 -0.013711873441934586 -0.9794195294380188
 outer loop
  vertex 659500.0 5950500.0 3223.5
  vertex 660500.0 5949500.0 3031.89990234375
  vertex 659500.0 5949500.0 3237.5
 endloop
endfacet
endsolid
