solid
facet normal -0.15428635478019714 0.0654606968164444 -0.9858552813529968
 outer loop
  vertex 642500.0 5479500.0 5772.89990234375
  vertex 643500.0 5479500.0 5616.39990234375
  vertex 643500.0 5478500.0 5550.0
 endloop
endfacet
facet normal -0.06255408376455307 -0.12817607820034027 -0.9897767305374146
 outer loop
  vertex 641500.0 5480500.0 5706.60009765625
  vertex 642500.0 5480500.0 5643.39990234375
  vertex 642500.0 5479500.0 5772.89990234375
 endloop
endfacet
facet normal -0.153367817401886 -0.12690819799900055 -0.9799860715866089
 outer loop
  vertex 642500.0 5480500.0 5643.39990234375
  vertex 643500.0 5479500.0 5616.39990234375
  vertex 642500.0 5479500.0 5772.89990234375
 endloop
endfacet
facet normal -0.028787821531295776 -0.001799055840820074 -0.999583899974823
 outer loop
  vertex 642500.0 5480500.0 5643.39990234375
  vertex 643500.0 5480500.0 5614.60009765625
  vertex 643500.0 5479500.0 5616.39990234375
 endloop
endfacet
facet normal 0.020495660603046417 -0.0017994237132370472 -0.9997882843017578
 outer loop
  vertex 643500.0 5480500.0 5614.60009765625
  vertex 644500.0 5479500.0 5636.89990234375
  vertex 643500.0 5479500.0 5616.39990234375
 endloop
endfacet
facet normal 0.009498792700469494 -0.012798178941011429 -0.9998729825019836
 outer loop
  vertex 643500.0 5480500.0 5614.60009765625
  vertex 644500.0 5480500.0 5624.10009765625
  vertex 644500.0 5479500.0 5636.89990234375
 endloop
endfacet
facet normal 0.1490999162197113 0.22639349102973938 -0.9625566005706787
 outer loop
  vertex 638500.0 5481500.0 6247.10009765625
  vertex 639500.0 5480500.0 6166.7998046875
  vertex 638500.0 5480500.0 6011.89990234375
 endloop
endfacet
facet normal -0.23688749969005585 -0.15993717312812805 -0.9582820534706116
 outer loop
  vertex 638500.0 5481500.0 6247.10009765625
  vertex 639500.0 5481500.0 5999.89990234375
  vertex 639500.0 5480500.0 6166.7998046875
 endloop
endfacet
facet normal -0.24050015211105347 -0.1597909927368164 -0.9574061632156372
 outer loop
  vertex 639500.0 5481500.0 5999.89990234375
  vertex 640500.0 5480500.0 5915.60009765625
  vertex 639500.0 5480500.0 6166.7998046875
 endloop
endfacet
facet normal -0.29136213660240173 -0.2127392739057541 -0.9326575994491577
 outer loop
  vertex 639500.0 5481500.0 5999.89990234375
  vertex 640500.0 5481500.0 5687.5
  vertex 640500.0 5480500.0 5915.60009765625
 endloop
endfacet
facet normal -0.19966334104537964 -0.21791018545627594 -0.9553269743919373
 outer loop
  vertex 640500.0 5481500.0 5687.5
  vertex 641500.0 5480500.0 5706.60009765625
  vertex 640500.0 5480500.0 5915.60009765625
 endloop
endfacet
facet normal 0.02908633090555668 0.009995268657803535 -0.9995269179344177
 outer loop
  vertex 640500.0 5481500.0 5687.5
  vertex 641500.0 5481500.0 5716.60009765625
  vertex 641500.0 5480500.0 5706.60009765625
 endloop
endfacet
facet normal -0.06307121366262436 0.009979590773582458 -0.9979591369628906
 outer loop
  vertex 641500.0 5481500.0 5716.60009765625
  vertex 642500.0 5480500.0 5643.39990234375
  vertex 641500.0 5480500.0 5706.60009765625
 endloop
endfacet
facet normal -0.11151465028524399 -0.038826558738946915 -0.9930040240287781
 outer loop
  vertex 641500.0 5481500.0 5716.60009765625
  vertex 642500.0 5481500.0 5604.2998046875
  vertex 642500.0 5480500.0 5643.39990234375
 endloop
endfacet
facet normal -0.028765905648469925 -0.03905407339334488 -0.9988229274749756
 outer loop
  vertex 642500.0 5481500.0 5604.2998046875
  vertex 643500.0 5480500.0 5614.60009765625
  vertex 642500.0 5480500.0 5643.39990234375
 endloop
endfacet
facet normal 0.04423137754201889 0.03394710645079613 -0.9984443783760071
 outer loop
  vertex 642500.0 5481500.0 5604.2998046875
  vertex 643500.0 5481500.0 5648.60009765625
  vertex 643500.0 5480500.0 5614.60009765625
 endloop
endfacet
facet normal 0.009494085796177387 0.03397883474826813 -0.999377429485321
 outer loop
  vertex 643500.0 5481500.0 5648.60009765625
  vertex 644500.0 5480500.0 5624.10009765625
  vertex 643500.0 5480500.0 5614.60009765625
 endloop
endfacet
facet normal -0.1295543611049652 -0.10539846867322922 -0.985954761505127
 outer loop
  vertex 643500.0 5481500.0 5648.60009765625
  vertex 644500.0 5481500.0 5517.2001953125
  vertex 644500.0 5480500.0 5624.10009765625
 endloop
endfacet
facet normal 0.03261324390769005 -0.40543094277381897 -0.913543701171875
 outer loop
  vertex 637500.0 5482500.0 5767.60009765625
  vertex 638500.0 5482500.0 5803.2998046875
  vertex 638500.0 5481500.0 6247.10009765625
 endloop
endfacet
facet normal -0.2203925997018814 -0.39567241072654724 -0.89155513048172
 outer loop
  vertex 638500.0 5482500.0 5803.2998046875
  vertex 639500.0 5481500.0 5999.89990234375
  vertex 638500.0 5481500.0 6247.10009765625
 endloop
endfacet
facet normal 0.02581929601728916 -0.16792263090610504 -0.985461950302124
 outer loop
  vertex 638500.0 5482500.0 5803.2998046875
  vertex 639500.0 5482500.0 5829.5
  vertex 639500.0 5481500.0 5999.89990234375
 endloop
endfacet
facet normal -0.29432034492492676 -0.16053833067417145 -0.9421269297599792
 outer loop
  vertex 639500.0 5482500.0 5829.5
  vertex 640500.0 5481500.0 5687.5
  vertex 639500.0 5481500.0 5999.89990234375
 endloop
endfacet
facet normal -0.057500701397657394 0.0837644711136818 -0.9948251843452454
 outer loop
  vertex 639500.0 5482500.0 5829.5
  vertex 640500.0 5482500.0 5771.7001953125
  vertex 640500.0 5481500.0 5687.5
 endloop
endfacet
facet normal 0.02898530475795269 0.08386804908514023 -0.9960552453994751
 outer loop
  vertex 640500.0 5482500.0 5771.7001953125
  vertex 641500.0 5481500.0 5716.60009765625
  vertex 640500.0 5481500.0 5687.5
 endloop
endfacet
facet normal -0.012188078835606575 0.042857296764850616 -0.9990068674087524
 outer loop
  vertex 640500.0 5482500.0 5771.7001953125
  vertex 641500.0 5482500.0 5759.5
  vertex 641500.0 5481500.0 5716.60009765625
 endloop
endfacet
facet normal -0.11149750649929047 0.04259323328733444 -0.9928515553474426
 outer loop
  vertex 641500.0 5482500.0 5759.5
  vertex 642500.0 5481500.0 5604.2998046875
  vertex 641500.0 5481500.0 5716.60009765625
 endloop
endfacet
facet normal -0.015448430553078651 0.13824287056922913 -0.9902778267860413
 outer loop
  vertex 641500.0 5482500.0 5759.5
  vertex 642500.0 5482500.0 5743.89990234375
  vertex 642500.0 5481500.0 5604.2998046875
 endloop
endfacet
facet normal 0.04383266344666481 0.13812649250030518 -0.9894441962242126
 outer loop
  vertex 642500.0 5482500.0 5743.89990234375
  vertex 643500.0 5481500.0 5648.60009765625
  vertex 642500.0 5481500.0 5604.2998046875
 endloop
endfacet
facet normal -0.23100844025611877 -0.13924074172973633 -0.9629367589950562
 outer loop
  vertex 642500.0 5482500.0 5743.89990234375
  vertex 643500.0 5482500.0 5504.0
  vertex 643500.0 5481500.0 5648.60009765625
 endloop
endfacet
facet normal -0.12896139919757843 -0.14191661775112152 -0.9814420938491821
 outer loop
  vertex 643500.0 5482500.0 5504.0
  vertex 644500.0 5481500.0 5517.2001953125
  vertex 643500.0 5481500.0 5648.60009765625
 endloop
endfacet
facet normal 0.08810450881719589 0.07499296218156815 -0.993284285068512
 outer loop
  vertex 643500.0 5482500.0 5504.0
  vertex 644500.0 5482500.0 5592.7001953125
  vertex 644500.0 5481500.0 5517.2001953125
 endloop
endfacet
facet normal 0.11900679022073746 0.07475070655345917 -0.9900755882263184
 outer loop
  vertex 644500.0 5482500.0 5592.7001953125
  vertex 645500.0 5481500.0 5637.39990234375
  vertex 644500.0 5481500.0 5517.2001953125
 endloop
endfacet
facet normal 0.06653580069541931 0.021945934742689133 -0.997542679309845
 outer loop
  vertex 644500.0 5482500.0 5592.7001953125
  vertex 645500.0 5482500.0 5659.39990234375
  vertex 645500.0 5481500.0 5637.39990234375
 endloop
endfacet
facet normal 0.035667143762111664 0.023478565737605095 -0.9990878701210022
 outer loop
  vertex 637500.0 5483500.0 5791.10009765625
  vertex 638500.0 5482500.0 5803.2998046875
  vertex 637500.0 5482500.0 5767.60009765625
 endloop
endfacet
facet normal 0.01379847340285778 0.0015999432653188705 -0.9999035000801086
 outer loop
  vertex 637500.0 5483500.0 5791.10009765625
  vertex 638500.0 5483500.0 5804.89990234375
  vertex 638500.0 5482500.0 5803.2998046875
 endloop
endfacet
facet normal 0.02619117498397827 0.001599546754732728 -0.9996556639671326
 outer loop
  vertex 638500.0 5483500.0 5804.89990234375
  vertex 639500.0 5482500.0 5829.5
  vertex 638500.0 5482500.0 5803.2998046875
 endloop
endfacet
facet normal -0.043953873217105865 -0.06847240775823593 -0.9966842532157898
 outer loop
  vertex 638500.0 5483500.0 5804.89990234375
  vertex 639500.0 5483500.0 5760.7998046875
  vertex 639500.0 5482500.0 5829.5
 endloop
endfacet
facet normal -0.0575682558119297 -0.06842497736215591 -0.9959939122200012
 outer loop
  vertex 639500.0 5483500.0 5760.7998046875
  vertex 640500.0 5482500.0 5771.7001953125
  vertex 639500.0 5482500.0 5829.5
 endloop
endfacet
facet normal -0.04855610057711601 -0.059424348175525665 -0.9970511794090271
 outer loop
  vertex 639500.0 5483500.0 5760.7998046875
  vertex 640500.0 5483500.0 5712.10009765625
  vertex 640500.0 5482500.0 5771.7001953125
 endloop
endfacet
facet normal -0.012177680619060993 -0.05949011072516441 -0.9981545805931091
 outer loop
  vertex 640500.0 5483500.0 5712.10009765625
  vertex 641500.0 5482500.0 5759.5
  vertex 640500.0 5482500.0 5771.7001953125
 endloop
endfacet
facet normal -0.13659970462322235 -0.18274937570095062 -0.9736237525939941
 outer loop
  vertex 640500.0 5483500.0 5712.10009765625
  vertex 641500.0 5483500.0 5571.7998046875
  vertex 641500.0 5482500.0 5759.5
 endloop
endfacet
facet normal -0.0153305409476161 -0.184456929564476 -0.9827210903167725
 outer loop
  vertex 641500.0 5483500.0 5571.7998046875
  vertex 642500.0 5482500.0 5743.89990234375
  vertex 641500.0 5482500.0 5759.5
 endloop
endfacet
facet normal 0.116230808198452 -0.05444581061601639 -0.9917287826538086
 outer loop
  vertex 641500.0 5483500.0 5571.7998046875
  vertex 642500.0 5483500.0 5689.0
  vertex 642500.0 5482500.0 5743.89990234375
 endloop
endfacet
facet normal -0.23294921219348907 -0.05330926924943924 -0.9710266590118408
 outer loop
  vertex 642500.0 5483500.0 5689.0
  vertex 643500.0 5482500.0 5504.0
  vertex 642500.0 5482500.0 5743.89990234375
 endloop
endfacet
facet normal -0.21131199598312378 -0.030578047037124634 -0.9769402146339417
 outer loop
  vertex 642500.0 5483500.0 5689.0
  vertex 643500.0 5483500.0 5472.7001953125
  vertex 643500.0 5482500.0 5504.0
 endloop
endfacet
facet normal 0.08831039071083069 -0.031162254512310028 -0.9956054091453552
 outer loop
  vertex 643500.0 5483500.0 5472.7001953125
  vertex 644500.0 5482500.0 5592.7001953125
  vertex 643500.0 5482500.0 5504.0
 endloop
endfacet
facet normal 0.12198162078857422 0.0028782386798411608 -0.9925282001495361
 outer loop
  vertex 643500.0 5483500.0 5472.7001953125
  vertex 644500.0 5483500.0 5595.60009765625
  vertex 644500.0 5482500.0 5592.7001953125
 endloop
endfacet
facet normal 0.06655155122280121 0.0028934611473232508 -0.9977788329124451
 outer loop
  vertex 644500.0 5483500.0 5595.60009765625
  vertex 645500.0 5482500.0 5659.39990234375
  vertex 644500.0 5482500.0 5592.7001953125
 endloop
endfacet
facet normal 0.08042679727077484 0.01684274710714817 -0.9966182112693787
 outer loop
  vertex 644500.0 5483500.0 5595.60009765625
  vertex 645500.0 5483500.0 5676.2998046875
  vertex 645500.0 5482500.0 5659.39990234375
 endloop
endfacet
facet normal 0.013788593001663685 0.03786911070346832 -0.9991875290870667
 outer loop
  vertex 637500.0 5484500.0 5829.0
  vertex 638500.0 5483500.0 5804.89990234375
  vertex 637500.0 5483500.0 5791.10009765625
 endloop
endfacet
facet normal 0.038992565125226974 0.06302638351917267 -0.9972498416900635
 outer loop
  vertex 637500.0 5484500.0 5829.0
  vertex 638500.0 5484500.0 5868.10009765625
  vertex 638500.0 5483500.0 5804.89990234375
 endloop
endfacet
facet normal -0.04396972432732582 0.06301335245370865 -0.9970436692237854
 outer loop
  vertex 638500.0 5484500.0 5868.10009765625
  vertex 639500.0 5483500.0 5760.7998046875
  vertex 638500.0 5483500.0 5804.89990234375
 endloop
endfacet
facet normal 0.012410297989845276 0.11894058436155319 -0.9928237795829773
 outer loop
  vertex 638500.0 5484500.0 5868.10009765625
  vertex 639500.0 5484500.0 5880.60009765625
  vertex 639500.0 5483500.0 5760.7998046875
 endloop
endfacet
facet normal -0.048297517001628876 0.11881092935800552 -0.9917415380477905
 outer loop
  vertex 639500.0 5484500.0 5880.60009765625
  vertex 640500.0 5483500.0 5712.10009765625
  vertex 639500.0 5483500.0 5760.7998046875
 endloop
endfacet
facet normal -0.13878779113292694 0.028014715760946274 -0.9899258613586426
 outer loop
  vertex 639500.0 5484500.0 5880.60009765625
  vertex 640500.0 5484500.0 5740.39990234375
  vertex 640500.0 5483500.0 5712.10009765625
 endloop
endfacet
facet normal -0.13888496160507202 0.028014320880174637 -0.9899121522903442
 outer loop
  vertex 640500.0 5484500.0 5740.39990234375
  vertex 641500.0 5483500.0 5571.7998046875
  vertex 640500.0 5483500.0 5712.10009765625
 endloop
endfacet
facet normal -0.0497896671295166 0.11743327975273132 -0.9918318390846252
 outer loop
  vertex 640500.0 5484500.0 5740.39990234375
  vertex 641500.0 5484500.0 5690.2001953125
  vertex 641500.0 5483500.0 5571.7998046875
 endloop
endfacet
facet normal 0.1156068667769432 0.11679074168205261 -0.986405074596405
 outer loop
  vertex 641500.0 5484500.0 5690.2001953125
  vertex 642500.0 5483500.0 5689.0
  vertex 641500.0 5483500.0 5571.7998046875
 endloop
endfacet
facet normal -0.21420015394687653 -0.2130560427904129 -0.9532709121704102
 outer loop
  vertex 641500.0 5484500.0 5690.2001953125
  vertex 642500.0 5484500.0 5465.5
  vertex 642500.0 5483500.0 5689.0
 endloop
endfacet
facet normal -0.20654025673866272 -0.21341556310653687 -0.9548795223236084
 outer loop
  vertex 642500.0 5484500.0 5465.5
  vertex 643500.0 5483500.0 5472.7001953125
  vertex 642500.0 5483500.0 5689.0
 endloop
endfacet
facet normal 0.12329170107841492 0.11619558185338974 -0.9855443835258484
 outer loop
  vertex 642500.0 5484500.0 5465.5
  vertex 643500.0 5484500.0 5590.60009765625
  vertex 643500.0 5483500.0 5472.7001953125
 endloop
endfacet
facet normal 0.12115541845560074 0.11622639000415802 -0.9858056306838989
 outer loop
  vertex 643500.0 5484500.0 5590.60009765625
  vertex 644500.0 5483500.0 5595.60009765625
  vertex 643500.0 5483500.0 5472.7001953125
 endloop
endfacet
facet normal -0.0017001547385007143 -0.006700035184621811 -0.9999760985374451
 outer loop
  vertex 643500.0 5484500.0 5590.60009765625
  vertex 644500.0 5484500.0 5588.89990234375
  vertex 644500.0 5483500.0 5595.60009765625
 endloop
endfacet
facet normal 0.08043641597032547 -0.006678334902971983 -0.9967373609542847
 outer loop
  vertex 644500.0 5484500.0 5588.89990234375
  vertex 645500.0 5483500.0 5676.2998046875
  vertex 644500.0 5483500.0 5595.60009765625
 endloop
endfacet
facet normal 0.04421591758728027 -0.04301752522587776 -0.9980953931808472
 outer loop
  vertex 644500.0 5484500.0 5588.89990234375
  vertex 645500.0 5484500.0 5633.2001953125
  vertex 645500.0 5483500.0 5676.2998046875
 endloop
endfacet
facet normal -0.13684840500354767 -0.16886407136917114 -0.9760929346084595
 outer loop
  vertex 639500.0 5485500.0 5707.60009765625
  vertex 640500.0 5484500.0 5740.39990234375
  vertex 639500.0 5484500.0 5880.60009765625
 endloop
endfacet
facet normal -0.024950575083494186 -0.05768553167581558 -0.9980229735374451
 outer loop
  vertex 639500.0 5485500.0 5707.60009765625
  vertex 640500.0 5485500.0 5682.60009765625
  vertex 640500.0 5484500.0 5740.39990234375
 endloop
endfacet
facet normal -0.050053246319293976 -0.05763116851449013 -0.9970824122428894
 outer loop
  vertex 640500.0 5485500.0 5682.60009765625
  vertex 641500.0 5484500.0 5690.2001953125
  vertex 640500.0 5484500.0 5740.39990234375
 endloop
endfacet
facet normal 0.2860095202922821 0.2790425419807434 -0.9166972041130066
 outer loop
  vertex 640500.0 5485500.0 5682.60009765625
  vertex 641500.0 5485500.0 5994.60009765625
  vertex 641500.0 5484500.0 5690.2001953125
 endloop
endfacet
facet normal -0.21016094088554382 0.28470364212989807 -0.9352948069572449
 outer loop
  vertex 641500.0 5485500.0 5994.60009765625
  vertex 642500.0 5484500.0 5465.5
  vertex 641500.0 5484500.0 5690.2001953125
 endloop
endfacet
facet normal -0.4005306363105774 0.08231478184461594 -0.9125785231590271
 outer loop
  vertex 641500.0 5485500.0 5994.60009765625
  vertex 642500.0 5485500.0 5555.7001953125
  vertex 642500.0 5484500.0 5465.5
 endloop
endfacet
facet normal 0.12363830208778381 0.0891462117433548 -0.9883150458335876
 outer loop
  vertex 642500.0 5485500.0 5555.7001953125
  vertex 643500.0 5484500.0 5590.60009765625
  vertex 642500.0 5484500.0 5465.5
 endloop
endfacet
facet normal -0.00939076580107212 -0.044254936277866364 -0.9989761114120483
 outer loop
  vertex 642500.0 5485500.0 5555.7001953125
  vertex 643500.0 5485500.0 5546.2998046875
  vertex 643500.0 5484500.0 5590.60009765625
 endloop
endfacet
facet normal -0.0016985269030556083 -0.044256821274757385 -0.9990187287330627
 outer loop
  vertex 643500.0 5485500.0 5546.2998046875
  vertex 644500.0 5484500.0 5588.89990234375
  vertex 643500.0 5484500.0 5590.60009765625
 endloop
endfacet
facet normal 0.09542594850063324 0.05308058485388756 -0.9940202832221985
 outer loop
  vertex 643500.0 5485500.0 5546.2998046875
  vertex 644500.0 5485500.0 5642.2998046875
  vertex 644500.0 5484500.0 5588.89990234375
 endloop
endfacet
facet normal 0.044194046407938004 0.0532718300819397 -0.9976016283035278
 outer loop
  vertex 644500.0 5485500.0 5642.2998046875
  vertex 645500.0 5484500.0 5633.2001953125
  vertex 644500.0 5484500.0 5588.89990234375
 endloop
endfacet
facet normal -0.024588091298937798 0.17909975349903107 -0.9835236668586731
 outer loop
  vertex 639500.0 5486500.0 5889.7001953125
  vertex 640500.0 5485500.0 5682.60009765625
  vertex 639500.0 5485500.0 5707.60009765625
 endloop
endfacet
facet normal -0.0491359606385231 0.15520143508911133 -0.9866601228713989
 outer loop
  vertex 639500.0 5486500.0 5889.7001953125
  vertex 640500.0 5486500.0 5839.89990234375
  vertex 640500.0 5485500.0 5682.60009765625
 endloop
endfacet
facet normal 0.2945379912853241 0.14849606156349182 -0.9440320134162903
 outer loop
  vertex 640500.0 5486500.0 5839.89990234375
  vertex 641500.0 5485500.0 5994.60009765625
  vertex 640500.0 5485500.0 5682.60009765625
 endloop
endfacet
facet normal -0.17959293723106384 -0.3233233690261841 -0.9290900826454163
 outer loop
  vertex 640500.0 5486500.0 5839.89990234375
  vertex 641500.0 5486500.0 5646.60009765625
  vertex 641500.0 5485500.0 5994.60009765625
 endloop
endfacet
facet normal -0.38292282819747925 -0.3036162257194519 -0.8724604845046997
 outer loop
  vertex 641500.0 5486500.0 5646.60009765625
  vertex 642500.0 5485500.0 5555.7001953125
  vertex 641500.0 5485500.0 5994.60009765625
 endloop
endfacet
facet normal -0.11977805942296982 -0.029572619125247 -0.9923601150512695
 outer loop
  vertex 641500.0 5486500.0 5646.60009765625
  vertex 642500.0 5486500.0 5525.89990234375
  vertex 642500.0 5485500.0 5555.7001953125
 endloop
endfacet
facet normal -0.009395805187523365 -0.029785756021738052 -0.9995121955871582
 outer loop
  vertex 642500.0 5486500.0 5525.89990234375
  vertex 643500.0 5485500.0 5546.2998046875
  vertex 642500.0 5485500.0 5555.7001953125
 endloop
endfacet
facet normal 0.00709929084405303 -0.013298293575644493 -0.9998863935470581
 outer loop
  vertex 642500.0 5486500.0 5525.89990234375
  vertex 643500.0 5486500.0 5533.0
  vertex 643500.0 5485500.0 5546.2998046875
 endloop
endfacet
facet normal 0.09555229544639587 -0.013237779960036278 -0.9953364133834839
 outer loop
  vertex 643500.0 5486500.0 5533.0
  vertex 644500.0 5485500.0 5642.2998046875
  vertex 643500.0 5485500.0 5546.2998046875
 endloop
endfacet
facet normal -0.04971452057361603 -0.0311464574187994 -0.9982776641845703
 outer loop
  vertex 639500.0 5487500.0 5858.5
  vertex 640500.0 5486500.0 5839.89990234375
  vertex 639500.0 5486500.0 5889.7001953125
 endloop
endfacet
facet normal -0.17888778448104858 -0.16083389520645142 -0.9706346392631531
 outer loop
  vertex 639500.0 5487500.0 5858.5
  vertex 640500.0 5487500.0 5674.2001953125
  vertex 640500.0 5486500.0 5839.89990234375
 endloop
endfacet
facet normal -0.18732383847236633 -0.16057701408863068 -0.9690845012664795
 outer loop
  vertex 640500.0 5487500.0 5674.2001953125
  vertex 641500.0 5486500.0 5646.60009765625
  vertex 640500.0 5486500.0 5839.89990234375
 endloop
endfacet
facet normal 0.02914033830165863 0.05668432265520096 -0.9979668259620667
 outer loop
  vertex 640500.0 5487500.0 5674.2001953125
  vertex 641500.0 5487500.0 5703.39990234375
  vertex 641500.0 5486500.0 5646.60009765625
 endloop
endfacet
facet normal -0.11964040249586105 0.05630108341574669 -0.9912196397781372
 outer loop
  vertex 641500.0 5487500.0 5703.39990234375
  vertex 642500.0 5486500.0 5525.89990234375
  vertex 641500.0 5486500.0 5646.60009765625
 endloop
endfacet
facet normal -0.17371772229671478 0.001083366689272225 -0.9847949147224426
 outer loop
  vertex 641500.0 5487500.0 5703.39990234375
  vertex 642500.0 5487500.0 5527.0
  vertex 642500.0 5486500.0 5525.89990234375
 endloop
endfacet
facet normal 0.007099914364516735 0.0011000692611560225 -0.9999741911888123
 outer loop
  vertex 642500.0 5487500.0 5527.0
  vertex 643500.0 5486500.0 5533.0
  vertex 642500.0 5486500.0 5525.89990234375
 endloop
endfacet
facet normal 0.00260007381439209 -0.0033998710568994284 -0.9999908208847046
 outer loop
  vertex 642500.0 5487500.0 5527.0
  vertex 643500.0 5487500.0 5529.60009765625
  vertex 643500.0 5486500.0 5533.0
 endloop
endfacet
facet normal 0.002590263495221734 -0.08687025308609009 -0.9962162375450134
 outer loop
  vertex 642500.0 5488500.0 5439.7998046875
  vertex 643500.0 5487500.0 5529.60009765625
  vertex 642500.0 5487500.0 5527.0
 endloop
endfacet
endsolid
