solid
facet normal 0.19778914749622345 -0.09840692579746246 -0.9752925634384155
 outer loop
  vertex 568500.0 5507500.0 5212.2001953125
  vertex 569500.0 5507500.0 5415.0
  vertex 569500.0 5506500.0 5515.89990234375
 endloop
endfacet
facet normal 0.12979435920715332 0.18338823318481445 -0.9744342565536499
 outer loop
  vertex 567500.0 5508500.0 5267.2001953125
  vertex 568500.0 5508500.0 5400.39990234375
  vertex 568500.0 5507500.0 5212.2001953125
 endloop
endfacet
facet normal 0.19545692205429077 0.18138545751571655 -0.9637925028800964
 outer loop
  vertex 568500.0 5508500.0 5400.39990234375
  vertex 569500.0 5507500.0 5415.0
  vertex 568500.0 5507500.0 5212.2001953125
 endloop
endfacet
facet normal 0.0503038689494133 0.035731591284275055 -0.9980945587158203
 outer loop
  vertex 568500.0 5508500.0 5400.39990234375
  vertex 569500.0 5508500.0 5450.7998046875
  vertex 569500.0 5507500.0 5415.0
 endloop
endfacet
facet normal -0.3738213777542114 0.03318308666348457 -0.9269068837165833
 outer loop
  vertex 569500.0 5508500.0 5450.7998046875
  vertex 570500.0 5507500.0 5011.7001953125
  vertex 569500.0 5507500.0 5415.0
 endloop
endfacet
facet normal -0.21214519441127777 -0.010944563895463943 -0.9771768450737
 outer loop
  vertex 566500.0 5509500.0 5473.10009765625
  vertex 567500.0 5509500.0 5256.0
  vertex 567500.0 5508500.0 5267.2001953125
 endloop
endfacet
facet normal 0.13202545046806335 -0.011101456359028816 -0.9911841750144958
 outer loop
  vertex 567500.0 5509500.0 5256.0
  vertex 568500.0 5508500.0 5400.39990234375
  vertex 567500.0 5508500.0 5267.2001953125
 endloop
endfacet
facet normal 0.303180068731308 0.16772478818893433 -0.9380565881729126
 outer loop
  vertex 567500.0 5509500.0 5256.0
  vertex 568500.0 5509500.0 5579.2001953125
  vertex 568500.0 5508500.0 5400.39990234375
 endloop
endfacet
facet normal 0.04955214262008667 0.17579275369644165 -0.9831792712211609
 outer loop
  vertex 568500.0 5509500.0 5579.2001953125
  vertex 569500.0 5508500.0 5450.7998046875
  vertex 568500.0 5508500.0 5400.39990234375
 endloop
endfacet
facet normal -0.35877665877342224 -0.24305935204029083 -0.9012222290039062
 outer loop
  vertex 568500.0 5509500.0 5579.2001953125
  vertex 569500.0 5509500.0 5181.10009765625
  vertex 569500.0 5508500.0 5450.7998046875
 endloop
endfacet
facet normal -0.17634032666683197 -0.3731747269630432 -0.9108483195304871
 outer loop
  vertex 565500.0 5510500.0 5257.0
  vertex 566500.0 5510500.0 5063.39990234375
  vertex 566500.0 5509500.0 5473.10009765625
 endloop
endfacet
facet normal -0.1969582736492157 -0.3716895878314972 -0.9072233438491821
 outer loop
  vertex 566500.0 5510500.0 5063.39990234375
  vertex 567500.0 5509500.0 5256.0
  vertex 566500.0 5509500.0 5473.10009765625
 endloop
endfacet
facet normal -0.16674523055553436 -0.3446684777736664 -0.9237962961196899
 outer loop
  vertex 566500.0 5510500.0 5063.39990234375
  vertex 567500.0 5510500.0 4882.89990234375
  vertex 567500.0 5509500.0 5256.0
 endloop
endfacet
facet normal 0.28981471061706543 -0.3345600962638855 -0.8967033624649048
 outer loop
  vertex 567500.0 5510500.0 4882.89990234375
  vertex 568500.0 5509500.0 5579.2001953125
  vertex 567500.0 5509500.0 5256.0
 endloop
endfacet
facet normal 0.5735694766044617 0.003194585209712386 -0.8191506862640381
 outer loop
  vertex 567500.0 5510500.0 4882.89990234375
  vertex 568500.0 5510500.0 5583.10009765625
  vertex 568500.0 5509500.0 5579.2001953125
 endloop
endfacet
facet normal -0.3698660433292389 0.0036233135033398867 -0.9290780425071716
 outer loop
  vertex 568500.0 5510500.0 5583.10009765625
  vertex 569500.0 5509500.0 5181.10009765625
  vertex 568500.0 5509500.0 5579.2001953125
 endloop
endfacet
facet normal -0.6396039128303528 -0.36837947368621826 -0.6746876835823059
 outer loop
  vertex 568500.0 5510500.0 5583.10009765625
  vertex 569500.0 5510500.0 4635.10009765625
  vertex 569500.0 5509500.0 5181.10009765625
 endloop
endfacet
facet normal -0.3003748655319214 -0.33959296345710754 -0.8913201093673706
 outer loop
  vertex 563500.0 5511500.0 5704.7998046875
  vertex 564500.0 5510500.0 5748.7998046875
  vertex 563500.0 5510500.0 6085.7998046875
 endloop
endfacet
facet normal 0.053322065621614456 0.00938660278916359 -0.998533308506012
 outer loop
  vertex 563500.0 5511500.0 5704.7998046875
  vertex 564500.0 5511500.0 5758.2001953125
  vertex 564500.0 5510500.0 5748.7998046875
 endloop
endfacet
facet normal -0.44130146503448486 0.008435151539742947 -0.8973193168640137
 outer loop
  vertex 564500.0 5511500.0 5758.2001953125
  vertex 565500.0 5510500.0 5257.0
  vertex 564500.0 5510500.0 5748.7998046875
 endloop
endfacet
facet normal -0.1975526511669159 0.2741636335849762 -0.9411733746528625
 outer loop
  vertex 564500.0 5511500.0 5758.2001953125
  vertex 565500.0 5511500.0 5548.2998046875
  vertex 565500.0 5510500.0 5257.0
 endloop
endfacet
facet normal -0.1827443689107895 0.2749657928943634 -0.9439270496368408
 outer loop
  vertex 565500.0 5511500.0 5548.2998046875
  vertex 566500.0 5510500.0 5063.39990234375
  vertex 565500.0 5510500.0 5257.0
 endloop
endfacet
facet normal -0.5003952980041504 -0.08247970789670944 -0.8618594408035278
 outer loop
  vertex 565500.0 5511500.0 5548.2998046875
  vertex 566500.0 5511500.0 4967.7001953125
  vertex 566500.0 5510500.0 5063.39990234375
 endloop
endfacet
facet normal -0.17684704065322876 -0.09376293420791626 -0.9797620177268982
 outer loop
  vertex 566500.0 5511500.0 4967.7001953125
  vertex 567500.0 5510500.0 4882.89990234375
  vertex 566500.0 5510500.0 5063.39990234375
 endloop
endfacet
facet normal -0.4156321883201599 -0.3442412316799164 -0.8418716788291931
 outer loop
  vertex 566500.0 5511500.0 4967.7001953125
  vertex 567500.0 5511500.0 4474.0
  vertex 567500.0 5510500.0 4882.89990234375
 endloop
endfacet
facet normal 0.5438738465309143 -0.31760910153388977 -0.7767404317855835
 outer loop
  vertex 567500.0 5511500.0 4474.0
  vertex 568500.0 5510500.0 5583.10009765625
  vertex 567500.0 5510500.0 4882.89990234375
 endloop
endfacet
facet normal 0.6156690716743469 -0.2226840853691101 -0.755885899066925
 outer loop
  vertex 567500.0 5511500.0 4474.0
  vertex 568500.0 5511500.0 5288.5
  vertex 568500.0 5510500.0 5583.10009765625
 endloop
endfacet
facet normal -0.6727816462516785 -0.20907336473464966 -0.7096853256225586
 outer loop
  vertex 568500.0 5511500.0 5288.5
  vertex 569500.0 5510500.0 4635.10009765625
  vertex 568500.0 5510500.0 5583.10009765625
 endloop
endfacet
facet normal -0.6344525218009949 -0.13744840025901794 -0.7606431245803833
 outer loop
  vertex 568500.0 5511500.0 5288.5
  vertex 569500.0 5511500.0 4454.39990234375
  vertex 569500.0 5510500.0 4635.10009765625
 endloop
endfacet
facet normal -0.20446062088012695 -0.09672683477401733 -0.9740840792655945
 outer loop
  vertex 564500.0 5512500.0 5658.89990234375
  vertex 565500.0 5511500.0 5548.2998046875
  vertex 564500.0 5511500.0 5758.2001953125
 endloop
endfacet
facet normal -0.22255584597587585 -0.11548882722854614 -0.9680553674697876
 outer loop
  vertex 564500.0 5512500.0 5658.89990234375
  vertex 565500.0 5512500.0 5429.0
  vertex 565500.0 5511500.0 5548.2998046875
 endloop
endfacet
facet normal -0.49945494532585144 -0.10262644290924072 -0.8602398633956909
 outer loop
  vertex 565500.0 5512500.0 5429.0
  vertex 566500.0 5511500.0 4967.7001953125
  vertex 565500.0 5511500.0 5548.2998046875
 endloop
endfacet
facet normal -0.5463417768478394 -0.16780853271484375 -0.8205796480178833
 outer loop
  vertex 565500.0 5512500.0 5429.0
  vertex 566500.0 5512500.0 4763.2001953125
  vertex 566500.0 5511500.0 4967.7001953125
 endloop
endfacet
facet normal -0.43542876839637756 -0.18036286532878876 -0.8819700479507446
 outer loop
  vertex 566500.0 5512500.0 4763.2001953125
  vertex 567500.0 5511500.0 4474.0
  vertex 566500.0 5511500.0 4967.7001953125
 endloop
endfacet
facet normal -0.32873842120170593 -0.05609384924173355 -0.9427537322044373
 outer loop
  vertex 566500.0 5512500.0 4763.2001953125
  vertex 567500.0 5512500.0 4414.5
  vertex 567500.0 5511500.0 4474.0
 endloop
endfacet
facet normal 0.6308552622795105 -0.046084579080343246 -0.7745307087898254
 outer loop
  vertex 567500.0 5512500.0 4414.5
  vertex 568500.0 5511500.0 5288.5
  vertex 567500.0 5511500.0 4474.0
 endloop
endfacet
facet normal -0.08756060898303986 0.09489905089139938 -0.9916285872459412
 outer loop
  vertex 563500.0 5513500.0 5842.89990234375
  vertex 564500.0 5513500.0 5754.60009765625
  vertex 564500.0 5512500.0 5658.89990234375
 endloop
endfacet
facet normal -0.22308684885501862 0.09286413341760635 -0.9703651070594788
 outer loop
  vertex 564500.0 5513500.0 5754.60009765625
  vertex 565500.0 5512500.0 5429.0
  vertex 564500.0 5512500.0 5658.89990234375
 endloop
endfacet
facet normal -0.3181469142436981 -0.009479940868914127 -0.9479941129684448
 outer loop
  vertex 564500.0 5513500.0 5754.60009765625
  vertex 565500.0 5513500.0 5419.0
  vertex 565500.0 5512500.0 5429.0
 endloop
endfacet
facet normal -0.5541813969612122 -0.008323543705046177 -0.8323543667793274
 outer loop
  vertex 565500.0 5513500.0 5419.0
  vertex 566500.0 5512500.0 4763.2001953125
  vertex 565500.0 5512500.0 5429.0
 endloop
endfacet
facet normal -0.7006323337554932 -0.2665925621986389 -0.6618479490280151
 outer loop
  vertex 565500.0 5513500.0 5419.0
  vertex 566500.0 5513500.0 4360.39990234375
  vertex 566500.0 5512500.0 4763.2001953125
 endloop
endfacet
facet normal -0.30774906277656555 -0.3554956614971161 -0.8825606107711792
 outer loop
  vertex 566500.0 5513500.0 4360.39990234375
  vertex 567500.0 5512500.0 4414.5
  vertex 566500.0 5512500.0 4763.2001953125
 endloop
endfacet
facet normal 0.20773272216320038 0.155485600233078 -0.9657490849494934
 outer loop
  vertex 566500.0 5513500.0 4360.39990234375
  vertex 567500.0 5513500.0 4575.5
  vertex 567500.0 5512500.0 4414.5
 endloop
endfacet
facet normal -0.7191808223724365 0.1457248032093048 -0.6793696880340576
 outer loop
  vertex 565500.0 5514500.0 5633.5
  vertex 566500.0 5513500.0 4360.39990234375
  vertex 565500.0 5513500.0 5419.0
 endloop
endfacet
facet normal -0.7835798263549805 0.007330958265811205 -0.6212478876113892
 outer loop
  vertex 565500.0 5514500.0 5633.5
  vertex 566500.0 5514500.0 4372.2001953125
  vertex 566500.0 5513500.0 4360.39990234375
 endloop
endfacet
facet normal 0.210276260972023 0.011535659432411194 -0.9775739908218384
 outer loop
  vertex 566500.0 5514500.0 4372.2001953125
  vertex 567500.0 5513500.0 4575.5
  vertex 566500.0 5513500.0 4360.39990234375
 endloop
endfacet
facet normal 0.2186308354139328 0.020292213186621666 -0.9755966663360596
 outer loop
  vertex 566500.0 5514500.0 4372.2001953125
  vertex 567500.0 5514500.0 4596.2998046875
  vertex 567500.0 5513500.0 4575.5
 endloop
endfacet
facet normal 0.5929373502731323 0.016745392233133316 -0.8050744533538818
 outer loop
  vertex 567500.0 5514500.0 4596.2998046875
  vertex 568500.0 5513500.0 5312.0
  vertex 567500.0 5513500.0 4575.5
 endloop
endfacet
facet normal 0.4395068883895874 -0.18897494673728943 -0.878135621547699
 outer loop
  vertex 567500.0 5514500.0 4596.2998046875
  vertex 568500.0 5514500.0 5096.7998046875
  vertex 568500.0 5513500.0 5312.0
 endloop
endfacet
facet normal 0.09932143241167068 -0.20934350788593292 -0.9727849364280701
 outer loop
  vertex 568500.0 5514500.0 5096.7998046875
  vertex 569500.0 5513500.0 5414.10009765625
  vertex 568500.0 5513500.0 5312.0
 endloop
endfacet
facet normal 0.2791428565979004 -0.02543768472969532 -0.9599125981330872
 outer loop
  vertex 568500.0 5514500.0 5096.7998046875
  vertex 569500.0 5514500.0 5387.60009765625
  vertex 569500.0 5513500.0 5414.10009765625
 endloop
endfacet
facet normal 0.06096549332141876 -0.7230525612831116 -0.6880974173545837
 outer loop
  vertex 564500.0 5515500.0 4494.10009765625
  vertex 565500.0 5515500.0 4582.7001953125
  vertex 565500.0 5514500.0 5633.5
 endloop
endfacet
facet normal -0.6561569571495056 -0.5466500520706177 -0.5202228426933289
 outer loop
  vertex 565500.0 5515500.0 4582.7001953125
  vertex 566500.0 5514500.0 4372.2001953125
  vertex 565500.0 5514500.0 5633.5
 endloop
endfacet
facet normal -0.17927555739879608 0.02773181162774563 -0.9834079146385193
 outer loop
  vertex 565500.0 5515500.0 4582.7001953125
  vertex 566500.0 5515500.0 4400.39990234375
  vertex 566500.0 5514500.0 4372.2001953125
 endloop
endfacet
facet normal 0.21859310567378998 0.027506792917847633 -0.9754283428192139
 outer loop
  vertex 566500.0 5515500.0 4400.39990234375
  vertex 567500.0 5514500.0 4596.2998046875
  vertex 566500.0 5514500.0 4372.2001953125
 endloop
endfacet
facet normal 0.1770356297492981 -0.01574525609612465 -0.9840785264968872
 outer loop
  vertex 566500.0 5515500.0 4400.39990234375
  vertex 567500.0 5515500.0 4580.2998046875
  vertex 567500.0 5514500.0 4596.2998046875
 endloop
endfacet
facet normal 0.4475254714488983 -0.014306508004665375 -0.8941567540168762
 outer loop
  vertex 567500.0 5515500.0 4580.2998046875
  vertex 568500.0 5514500.0 5096.7998046875
  vertex 567500.0 5514500.0 4596.2998046875
 endloop
endfacet
facet normal 0.4600238502025604 0.0014207318890839815 -0.8879053592681885
 outer loop
  vertex 567500.0 5515500.0 4580.2998046875
  vertex 568500.0 5515500.0 5098.39990234375
  vertex 568500.0 5514500.0 5096.7998046875
 endloop
endfacet
facet normal 0.2792328894138336 0.0015364493010565639 -0.9602221846580505
 outer loop
  vertex 568500.0 5515500.0 5098.39990234375
  vertex 569500.0 5514500.0 5387.60009765625
  vertex 568500.0 5514500.0 5096.7998046875
 endloop
endfacet
facet normal -0.029510576277971268 -0.3048158586025238 -0.9519540667533875
 outer loop
  vertex 568500.0 5515500.0 5098.39990234375
  vertex 569500.0 5515500.0 5067.39990234375
  vertex 569500.0 5514500.0 5387.60009765625
 endloop
endfacet
facet normal -0.4349527657032013 -0.5288234949111938 -0.7288084626197815
 outer loop
  vertex 563500.0 5516500.0 4365.2998046875
  vertex 564500.0 5515500.0 4494.10009765625
  vertex 563500.0 5515500.0 5090.89990234375
 endloop
endfacet
facet normal -0.04468167945742607 -0.1714443564414978 -0.9841800332069397
 outer loop
  vertex 563500.0 5516500.0 4365.2998046875
  vertex 564500.0 5516500.0 4319.89990234375
  vertex 564500.0 5515500.0 4494.10009765625
 endloop
endfacet
facet normal 0.0869550034403801 -0.17096570134162903 -0.9814323782920837
 outer loop
  vertex 564500.0 5516500.0 4319.89990234375
  vertex 565500.0 5515500.0 4582.7001953125
  vertex 564500.0 5515500.0 4494.10009765625
 endloop
endfacet
facet normal 0.0100831538438797 -0.24471305310726166 -0.9695431590080261
 outer loop
  vertex 564500.0 5516500.0 4319.89990234375
  vertex 565500.0 5516500.0 4330.2998046875
  vertex 565500.0 5515500.0 4582.7001953125
 endloop
endfacet
facet normal -0.17405882477760315 -0.2409898191690445 -0.954791784286499
 outer loop
  vertex 565500.0 5516500.0 4330.2998046875
  vertex 566500.0 5515500.0 4400.39990234375
  vertex 565500.0 5515500.0 4582.7001953125
 endloop
endfacet
facet normal 0.08616669476032257 0.01633671298623085 -0.9961467981338501
 outer loop
  vertex 565500.0 5516500.0 4330.2998046875
  vertex 566500.0 5516500.0 4416.7998046875
  vertex 566500.0 5515500.0 4400.39990234375
 endloop
endfacet
facet normal 0.17703451216220856 0.01613868959248066 -0.9840723276138306
 outer loop
  vertex 566500.0 5516500.0 4416.7998046875
  vertex 567500.0 5515500.0 4580.2998046875
  vertex 566500.0 5515500.0 4400.39990234375
 endloop
endfacet
facet normal 0.11096170544624329 -0.0513119138777256 -0.9924991726875305
 outer loop
  vertex 566500.0 5516500.0 4416.7998046875
  vertex 567500.0 5516500.0 4528.60009765625
  vertex 567500.0 5515500.0 4580.2998046875
 endloop
endfacet
facet normal 0.45954039692878723 -0.04585620388388634 -0.8869722485542297
 outer loop
  vertex 567500.0 5516500.0 4528.60009765625
  vertex 568500.0 5515500.0 5098.39990234375
  vertex 567500.0 5515500.0 4580.2998046875
 endloop
endfacet
facet normal 0.09041927009820938 -0.42324957251548767 -0.9014900326728821
 outer loop
  vertex 567500.0 5516500.0 4528.60009765625
  vertex 568500.0 5516500.0 4628.89990234375
  vertex 568500.0 5515500.0 5098.39990234375
 endloop
endfacet
facet normal -0.028050091117620468 -0.42482316493988037 -0.9048416614532471
 outer loop
  vertex 568500.0 5516500.0 4628.89990234375
  vertex 569500.0 5515500.0 5067.39990234375
  vertex 568500.0 5515500.0 5098.39990234375
 endloop
endfacet
facet normal 0.2638648450374603 -0.1536908894777298 -0.952236533164978
 outer loop
  vertex 568500.0 5516500.0 4628.89990234375
  vertex 569500.0 5516500.0 4906.0
  vertex 569500.0 5515500.0 5067.39990234375
 endloop
endfacet
facet normal 0.054021161049604416 -0.15910521149635315 -0.9857825636863708
 outer loop
  vertex 569500.0 5516500.0 4906.0
  vertex 570500.0 5515500.0 5122.2001953125
  vertex 569500.0 5515500.0 5067.39990234375
 endloop
endfacet
facet normal -0.04569081589579582 -0.25453656911849976 -0.9659832119941711
 outer loop
  vertex 569500.0 5516500.0 4906.0
  vertex 570500.0 5516500.0 4858.7001953125
  vertex 570500.0 5515500.0 5122.2001953125
 endloop
endfacet
facet normal -0.15635016560554504 -0.2516690492630005 -0.9551007151603699
 outer loop
  vertex 570500.0 5516500.0 4858.7001953125
  vertex 571500.0 5515500.0 4958.5
  vertex 570500.0 5515500.0 5122.2001953125
 endloop
endfacet
facet normal 0.24943701922893524 0.1540220081806183 -0.9560640454292297
 outer loop
  vertex 570500.0 5516500.0 4858.7001953125
  vertex 571500.0 5516500.0 5119.60009765625
  vertex 571500.0 5515500.0 4958.5
 endloop
endfacet
facet normal 0.28066885471343994 0.26970750093460083 -0.9211312532424927
 outer loop
  vertex 562500.0 5517500.0 4353.39990234375
  vertex 563500.0 5517500.0 4658.10009765625
  vertex 563500.0 5516500.0 4365.2998046875
 endloop
endfacet
facet normal -0.04352930933237076 0.28073614835739136 -0.9587973356246948
 outer loop
  vertex 563500.0 5517500.0 4658.10009765625
  vertex 564500.0 5516500.0 4319.89990234375
  vertex 563500.0 5516500.0 4365.2998046875
 endloop
endfacet
facet normal 0.16034287214279175 0.45634764432907104 -0.8752354383468628
 outer loop
  vertex 563500.0 5517500.0 4658.10009765625
  vertex 564500.0 5517500.0 4841.2998046875
  vertex 564500.0 5516500.0 4319.89990234375
 endloop
endfacet
facet normal 0.009221290238201618 0.46230992674827576 -0.8866705298423767
 outer loop
  vertex 564500.0 5517500.0 4841.2998046875
  vertex 565500.0 5516500.0 4330.2998046875
  vertex 564500.0 5516500.0 4319.89990234375
 endloop
endfacet
facet normal -0.322193443775177 0.1550264209508896 -0.9338940978050232
 outer loop
  vertex 564500.0 5517500.0 4841.2998046875
  vertex 565500.0 5517500.0 4496.2998046875
  vertex 565500.0 5516500.0 4330.2998046875
 endloop
endfacet
facet normal 0.08502329140901566 0.1631660759449005 -0.9829282164573669
 outer loop
  vertex 565500.0 5517500.0 4496.2998046875
  vertex 566500.0 5516500.0 4416.7998046875
  vertex 565500.0 5516500.0 4330.2998046875
 endloop
endfacet
facet normal 0.5865243077278137 0.6272587180137634 -0.512382447719574
 outer loop
  vertex 565500.0 5517500.0 4496.2998046875
  vertex 566500.0 5517500.0 5641.0
  vertex 566500.0 5516500.0 4416.7998046875
 endloop
endfacet
facet normal 0.07055139541625977 0.7725290060043335 -0.6310479044914246
 outer loop
  vertex 566500.0 5517500.0 5641.0
  vertex 567500.0 5516500.0 4528.60009765625
  vertex 566500.0 5516500.0 4416.7998046875
 endloop
endfacet
facet normal -0.0415775366127491 0.724166214466095 -0.688370943069458
 outer loop
  vertex 566500.0 5517500.0 5641.0
  vertex 567500.0 5517500.0 5580.60009765625
  vertex 567500.0 5516500.0 4528.60009765625
 endloop
endfacet
facet normal 0.06893882900476456 0.7230685949325562 -0.6873275637626648
 outer loop
  vertex 567500.0 5517500.0 5580.60009765625
  vertex 568500.0 5516500.0 4628.89990234375
  vertex 567500.0 5516500.0 4528.60009765625
 endloop
endfacet
facet normal -0.4980231523513794 0.2823008894920349 -0.8199263215065002
 outer loop
  vertex 567500.0 5517500.0 5580.60009765625
  vertex 568500.0 5517500.0 4973.2001953125
  vertex 568500.0 5516500.0 4628.89990234375
 endloop
endfacet
facet normal 0.2534506022930145 0.3149154782295227 -0.9146535396575928
 outer loop
  vertex 568500.0 5517500.0 4973.2001953125
  vertex 569500.0 5516500.0 4906.0
  vertex 568500.0 5516500.0 4628.89990234375
 endloop
endfacet
facet normal 0.1894513964653015 0.25320297479629517 -0.9486814141273499
 outer loop
  vertex 568500.0 5517500.0 4973.2001953125
  vertex 569500.0 5517500.0 5172.89990234375
  vertex 569500.0 5516500.0 4906.0
 endloop
endfacet
facet normal -0.04565242677927017 0.2576041519641876 -0.9651714563369751
 outer loop
  vertex 569500.0 5517500.0 5172.89990234375
  vertex 570500.0 5516500.0 4858.7001953125
  vertex 569500.0 5516500.0 4906.0
 endloop
endfacet
facet normal -0.36611175537109375 -0.07466941326856613 -0.9275703430175781
 outer loop
  vertex 569500.0 5517500.0 5172.89990234375
  vertex 570500.0 5517500.0 4778.2001953125
  vertex 570500.0 5516500.0 4858.7001953125
 endloop
endfacet
facet normal 0.25168702006340027 -0.07765738666057587 -0.9646880030632019
 outer loop
  vertex 570500.0 5517500.0 4778.2001953125
  vertex 571500.0 5516500.0 5119.60009765625
  vertex 570500.0 5516500.0 4858.7001953125
 endloop
endfacet
facet normal 0.2239704430103302 -0.10675440728664398 -0.9687315225601196
 outer loop
  vertex 570500.0 5517500.0 4778.2001953125
  vertex 571500.0 5517500.0 5009.39990234375
  vertex 571500.0 5516500.0 5119.60009765625
 endloop
endfacet
facet normal 0.2906033396720886 0.07706210017204285 -0.9537353515625
 outer loop
  vertex 562500.0 5518500.0 4434.2001953125
  vertex 563500.0 5517500.0 4658.10009765625
  vertex 562500.0 5517500.0 4353.39990234375
 endloop
endfacet
facet normal 0.6291716694831848 0.4949955940246582 -0.5992682576179504
 outer loop
  vertex 562500.0 5518500.0 4434.2001953125
  vertex 563500.0 5518500.0 5484.10009765625
  vertex 563500.0 5517500.0 4658.10009765625
 endloop
endfacet
facet normal 0.13985776901245117 0.6305825114250183 -0.7634170651435852
 outer loop
  vertex 563500.0 5518500.0 5484.10009765625
  vertex 564500.0 5517500.0 4841.2998046875
  vertex 563500.0 5517500.0 4658.10009765625
 endloop
endfacet
facet normal 0.06143869459629059 0.5824533700942993 -0.8105389475822449
 outer loop
  vertex 563500.0 5518500.0 5484.10009765625
  vertex 564500.0 5518500.0 5559.89990234375
  vertex 564500.0 5517500.0 4841.2998046875
 endloop
endfacet
facet normal -0.26977744698524475 0.5619191527366638 -0.7819636464118958
 outer loop
  vertex 564500.0 5518500.0 5559.89990234375
  vertex 565500.0 5517500.0 4496.2998046875
  vertex 564500.0 5517500.0 4841.2998046875
 endloop
endfacet
facet normal -0.6472063660621643 0.1481359452009201 -0.7477831840515137
 outer loop
  vertex 564500.0 5518500.0 5559.89990234375
  vertex 565500.0 5518500.0 4694.39990234375
  vertex 565500.0 5517500.0 4496.2998046875
 endloop
endfacet
facet normal 0.7467864751815796 0.12923774123191833 -0.6523860692977905
 outer loop
  vertex 565500.0 5518500.0 4694.39990234375
  vertex 566500.0 5517500.0 5641.0
  vertex 565500.0 5517500.0 4496.2998046875
 endloop
endfacet
facet normal 0.6848243474960327 -0.004954964388161898 -0.7286913394927979
 outer loop
  vertex 565500.0 5518500.0 4694.39990234375
  vertex 566500.0 5518500.0 5634.2001953125
  vertex 566500.0 5517500.0 5641.0
 endloop
endfacet
facet normal -0.06028863787651062 -0.006787278689444065 -0.9981579184532166
 outer loop
  vertex 566500.0 5518500.0 5634.2001953125
  vertex 567500.0 5517500.0 5580.60009765625
  vertex 566500.0 5517500.0 5641.0
 endloop
endfacet
facet normal 0.10190678387880325 0.15458016097545624 -0.9827104806900024
 outer loop
  vertex 566500.0 5518500.0 5634.2001953125
  vertex 567500.0 5518500.0 5737.89990234375
  vertex 567500.0 5517500.0 5580.60009765625
 endloop
endfacet
facet normal -0.5145096182823181 0.13324379920959473 -0.8470690250396729
 outer loop
  vertex 567500.0 5518500.0 5737.89990234375
  vertex 568500.0 5517500.0 4973.2001953125
  vertex 567500.0 5517500.0 5580.60009765625
 endloop
endfacet
facet normal -0.6689755320549011 -0.10644479095935822 -0.7356230616569519
 outer loop
  vertex 567500.0 5518500.0 5737.89990234375
  vertex 568500.0 5518500.0 4828.5
  vertex 568500.0 5517500.0 4973.2001953125
 endloop
endfacet
facet normal 0.19389070570468903 -0.1404910385608673 -0.9709112644195557
 outer loop
  vertex 568500.0 5518500.0 4828.5
  vertex 569500.0 5517500.0 5172.89990234375
  vertex 568500.0 5517500.0 4973.2001953125
 endloop
endfacet
facet normal 0.1905253380537033 -0.14391322433948517 -0.971076250076294
 outer loop
  vertex 568500.0 5518500.0 4828.5
  vertex 569500.0 5518500.0 5024.7001953125
  vertex 569500.0 5517500.0 5172.89990234375
 endloop
endfacet
facet normal -0.36369726061820984 -0.13655908405780792 -0.9214531183242798
 outer loop
  vertex 569500.0 5518500.0 5024.7001953125
  vertex 570500.0 5517500.0 4778.2001953125
  vertex 569500.0 5517500.0 5172.89990234375
 endloop
endfacet
facet normal 0.05773938447237015 0.292991578578949 -0.9543699622154236
 outer loop
  vertex 569500.0 5518500.0 5024.7001953125
  vertex 570500.0 5518500.0 5085.2001953125
  vertex 570500.0 5517500.0 4778.2001953125
 endloop
endfacet
facet normal 0.21581052243709564 0.2865653932094574 -0.933437705039978
 outer loop
  vertex 570500.0 5518500.0 5085.2001953125
  vertex 571500.0 5517500.0 5009.39990234375
  vertex 570500.0 5517500.0 4778.2001953125
 endloop
endfacet
facet normal 0.6716709733009338 0.19511184096336365 -0.714695394039154
 outer loop
  vertex 565500.0 5519500.0 4967.39990234375
  vertex 566500.0 5518500.0 5634.2001953125
  vertex 565500.0 5518500.0 4694.39990234375
 endloop
endfacet
facet normal 0.5304787755012512 -0.034303657710552216 -0.8470038771629333
 outer loop
  vertex 565500.0 5519500.0 4967.39990234375
  vertex 566500.0 5519500.0 5593.7001953125
  vertex 566500.0 5518500.0 5634.2001953125
 endloop
endfacet
facet normal 0.10306299477815628 -0.04025133326649666 -0.9938600659370422
 outer loop
  vertex 566500.0 5519500.0 5593.7001953125
  vertex 567500.0 5518500.0 5737.89990234375
  vertex 566500.0 5518500.0 5634.2001953125
 endloop
endfacet
facet normal -0.009192235767841339 -0.15171653032302856 -0.9883813261985779
 outer loop
  vertex 566500.0 5519500.0 5593.7001953125
  vertex 567500.0 5519500.0 5584.39990234375
  vertex 567500.0 5518500.0 5737.89990234375
 endloop
endfacet
facet normal -0.6685010194778442 -0.11283804476261139 -0.7351012825965881
 outer loop
  vertex 567500.0 5519500.0 5584.39990234375
  vertex 568500.0 5518500.0 4828.5
  vertex 567500.0 5518500.0 5737.89990234375
 endloop
endfacet
facet normal -0.3874790668487549 0.27713534235954285 -0.8792360424995422
 outer loop
  vertex 567500.0 5519500.0 5584.39990234375
  vertex 568500.0 5519500.0 5143.7001953125
  vertex 568500.0 5518500.0 4828.5
 endloop
endfacet
facet normal 0.18393218517303467 0.29549136757850647 -0.9374720454216003
 outer loop
  vertex 568500.0 5519500.0 5143.7001953125
  vertex 569500.0 5518500.0 5024.7001953125
  vertex 568500.0 5518500.0 4828.5
 endloop
endfacet
facet normal -0.028273237869143486 0.0901939794421196 -0.9955227971076965
 outer loop
  vertex 568500.0 5519500.0 5143.7001953125
  vertex 569500.0 5519500.0 5115.2998046875
  vertex 569500.0 5518500.0 5024.7001953125
 endloop
endfacet
facet normal 0.06014414131641388 0.09006670862436295 -0.9941180348396301
 outer loop
  vertex 569500.0 5519500.0 5115.2998046875
  vertex 570500.0 5518500.0 5085.2001953125
  vertex 569500.0 5518500.0 5024.7001953125
 endloop
endfacet
facet normal 0.12694305181503296 0.1564255654811859 -0.9794981479644775
 outer loop
  vertex 569500.0 5519500.0 5115.2998046875
  vertex 570500.0 5519500.0 5244.89990234375
  vertex 570500.0 5518500.0 5085.2001953125
 endloop
endfacet
facet normal 0.5293705463409424 -0.07311277836561203 -0.8452343940734863
 outer loop
  vertex 565500.0 5520500.0 4880.89990234375
  vertex 566500.0 5519500.0 5593.7001953125
  vertex 565500.0 5519500.0 4967.39990234375
 endloop
endfacet
facet normal 0.6297006011009216 0.07882846891880035 -0.7728281617164612
 outer loop
  vertex 565500.0 5520500.0 4880.89990234375
  vertex 566500.0 5520500.0 5695.7001953125
  vertex 566500.0 5519500.0 5593.7001953125
 endloop
endfacet
facet normal -0.009251895360648632 0.10146915912628174 -0.9947956800460815
 outer loop
  vertex 566500.0 5520500.0 5695.7001953125
  vertex 567500.0 5519500.0 5584.39990234375
  vertex 566500.0 5519500.0 5593.7001953125
 endloop
endfacet
facet normal -0.026847759261727333 -0.32500511407852173 -0.9453311562538147
 outer loop
  vertex 568500.0 5520500.0 4799.89990234375
  vertex 569500.0 5519500.0 5115.2998046875
  vertex 568500.0 5519500.0 5143.7001953125
 endloop
endfacet
facet normal 0.615032434463501 0.4008779525756836 -0.6789934039115906
 outer loop
  vertex 568500.0 5520500.0 4799.89990234375
  vertex 569500.0 5520500.0 5705.7001953125
  vertex 569500.0 5519500.0 5115.2998046875
 endloop
endfacet
facet normal 0.11091245710849762 0.5052677989006042 -0.8558053374290466
 outer loop
  vertex 569500.0 5520500.0 5705.7001953125
  vertex 570500.0 5519500.0 5244.89990234375
  vertex 569500.0 5519500.0 5115.2998046875
 endloop
endfacet
facet normal -0.3317694365978241 0.10045948624610901 -0.9379962086677551
 outer loop
  vertex 569500.0 5520500.0 5705.7001953125
  vertex 570500.0 5520500.0 5352.0
  vertex 570500.0 5519500.0 5244.89990234375
 endloop
endfacet
endsolid
