solid
facet normal -0.006097149103879929 -0.030485255643725395 -0.9995166063308716
 outer loop
  vertex 641500.0 5348500.0 7741.39990234375
  vertex 642500.0 5347500.0 7765.7998046875
  vertex 641500.0 5347500.0 7771.89990234375
 endloop
endfacet
facet normal -0.0001996466307900846 -0.024592168629169464 -0.9996975064277649
 outer loop
  vertex 641500.0 5348500.0 7741.39990234375
  vertex 642500.0 5348500.0 7741.2001953125
  vertex 642500.0 5347500.0 7765.7998046875
 endloop
endfacet
facet normal -0.005398190580308437 -0.024591811001300812 -0.9996829628944397
 outer loop
  vertex 642500.0 5348500.0 7741.2001953125
  vertex 643500.0 5347500.0 7760.39990234375
  vertex 642500.0 5347500.0 7765.7998046875
 endloop
endfacet
facet normal -0.011394317261874676 -0.03058379702270031 -0.9994673132896423
 outer loop
  vertex 642500.0 5348500.0 7741.2001953125
  vertex 643500.0 5348500.0 7729.7998046875
  vertex 643500.0 5347500.0 7760.39990234375
 endloop
endfacet
facet normal -0.002198370872065425 -0.034778669476509094 -0.9993926286697388
 outer loop
  vertex 640500.0 5349500.0 7708.7998046875
  vertex 641500.0 5349500.0 7706.60009765625
  vertex 641500.0 5348500.0 7741.39990234375
 endloop
endfacet
facet normal -0.00019958622578997165 -0.03477875143289566 -0.9993950724601746
 outer loop
  vertex 641500.0 5349500.0 7706.60009765625
  vertex 642500.0 5348500.0 7741.2001953125
  vertex 641500.0 5348500.0 7741.39990234375
 endloop
endfacet
facet normal -0.020066052675247192 -0.05460754781961441 -0.9983062744140625
 outer loop
  vertex 641500.0 5349500.0 7706.60009765625
  vertex 642500.0 5349500.0 7686.5
  vertex 642500.0 5348500.0 7741.2001953125
 endloop
endfacet
facet normal -0.011382635682821274 -0.05461500585079193 -0.9984425902366638
 outer loop
  vertex 642500.0 5349500.0 7686.5
  vertex 643500.0 5348500.0 7729.7998046875
  vertex 642500.0 5348500.0 7741.2001953125
 endloop
endfacet
facet normal -0.0002995201211888343 -0.04355822503566742 -0.9990508556365967
 outer loop
  vertex 642500.0 5349500.0 7686.5
  vertex 643500.0 5349500.0 7686.2001953125
  vertex 643500.0 5348500.0 7729.7998046875
 endloop
endfacet
facet normal -0.007399276364594698 -0.010698801837861538 -0.999915361404419
 outer loop
  vertex 639500.0 5350500.0 7705.5
  vertex 640500.0 5350500.0 7698.10009765625
  vertex 640500.0 5349500.0 7708.7998046875
 endloop
endfacet
facet normal -0.0021995757706463337 -0.010699068196117878 -0.9999403357505798
 outer loop
  vertex 640500.0 5350500.0 7698.10009765625
  vertex 641500.0 5349500.0 7706.60009765625
  vertex 640500.0 5349500.0 7708.7998046875
 endloop
endfacet
facet normal -0.025776563212275505 -0.03426874428987503 -0.999080240726471
 outer loop
  vertex 640500.0 5350500.0 7698.10009765625
  vertex 641500.0 5350500.0 7672.2998046875
  vertex 641500.0 5349500.0 7706.60009765625
 endloop
endfacet
facet normal -0.020084232091903687 -0.03427321836352348 -0.9992107152938843
 outer loop
  vertex 641500.0 5350500.0 7672.2998046875
  vertex 642500.0 5349500.0 7686.5
  vertex 641500.0 5349500.0 7706.60009765625
 endloop
endfacet
facet normal -0.00489894999191165 -0.019096385687589645 -0.9998056888580322
 outer loop
  vertex 641500.0 5350500.0 7672.2998046875
  vertex 642500.0 5350500.0 7667.39990234375
  vertex 642500.0 5349500.0 7686.5
 endloop
endfacet
facet normal -0.00029975001234561205 -0.01909661293029785 -0.9998176097869873
 outer loop
  vertex 642500.0 5350500.0 7667.39990234375
  vertex 643500.0 5349500.0 7686.2001953125
  vertex 642500.0 5349500.0 7686.5
 endloop
endfacet
facet normal -0.021676838397979736 -0.04045731574296951 -0.9989461302757263
 outer loop
  vertex 642500.0 5350500.0 7667.39990234375
  vertex 643500.0 5350500.0 7645.7001953125
  vertex 643500.0 5349500.0 7686.2001953125
 endloop
endfacet
facet normal -0.25541189312934875 -0.0479925200343132 -0.9656404852867126
 outer loop
  vertex 631500.0 5351500.0 8106.89990234375
  vertex 632500.0 5350500.0 7892.10009765625
  vertex 631500.0 5350500.0 8156.60009765625
 endloop
endfacet
facet normal -0.0665316954255104 0.14550118148326874 -0.9871185421943665
 outer loop
  vertex 631500.0 5351500.0 8106.89990234375
  vertex 632500.0 5351500.0 8039.5
  vertex 632500.0 5350500.0 7892.10009765625
 endloop
endfacet
facet normal -0.024725202471017838 0.14577969908714294 -0.9890081286430359
 outer loop
  vertex 632500.0 5351500.0 8039.5
  vertex 633500.0 5350500.0 7867.10009765625
  vertex 632500.0 5350500.0 7892.10009765625
 endloop
endfacet
facet normal -0.22224335372447968 -0.0544169619679451 -0.973471462726593
 outer loop
  vertex 632500.0 5351500.0 8039.5
  vertex 633500.0 5351500.0 7811.2001953125
  vertex 633500.0 5350500.0 7867.10009765625
 endloop
endfacet
facet normal -0.18931268155574799 -0.05480349808931351 -0.9803862571716309
 outer loop
  vertex 633500.0 5351500.0 7811.2001953125
  vertex 634500.0 5350500.0 7674.0
  vertex 633500.0 5350500.0 7867.10009765625
 endloop
endfacet
facet normal -0.15967600047588348 -0.024277132004499435 -0.9868709444999695
 outer loop
  vertex 633500.0 5351500.0 7811.2001953125
  vertex 634500.0 5351500.0 7649.39990234375
  vertex 634500.0 5350500.0 7674.0
 endloop
endfacet
facet normal -0.0175920519977808 -0.024588851258158684 -0.9995428323745728
 outer loop
  vertex 634500.0 5351500.0 7649.39990234375
  vertex 635500.0 5350500.0 7656.39990234375
  vertex 634500.0 5350500.0 7674.0
 endloop
endfacet
facet normal -0.009398223832249641 -0.01639697328209877 -0.9998214244842529
 outer loop
  vertex 634500.0 5351500.0 7649.39990234375
  vertex 635500.0 5351500.0 7640.0
  vertex 635500.0 5350500.0 7656.39990234375
 endloop
endfacet
facet normal -0.008798280730843544 -0.016397062689065933 -0.9998268485069275
 outer loop
  vertex 635500.0 5351500.0 7640.0
  vertex 636500.0 5350500.0 7647.60009765625
  vertex 635500.0 5350500.0 7656.39990234375
 endloop
endfacet
facet normal -0.02078692987561226 -0.028382323682308197 -0.9993810057640076
 outer loop
  vertex 635500.0 5351500.0 7640.0
  vertex 636500.0 5351500.0 7619.2001953125
  vertex 636500.0 5350500.0 7647.60009765625
 endloop
endfacet
facet normal 0.14402402937412262 -0.028092484921216965 -0.9891753792762756
 outer loop
  vertex 636500.0 5351500.0 7619.2001953125
  vertex 637500.0 5350500.0 7793.2001953125
  vertex 636500.0 5350500.0 7647.60009765625
 endloop
endfacet
facet normal 0.13730062544345856 -0.03494421765208244 -0.9899128675460815
 outer loop
  vertex 636500.0 5351500.0 7619.2001953125
  vertex 637500.0 5351500.0 7757.89990234375
  vertex 637500.0 5350500.0 7793.2001953125
 endloop
endfacet
facet normal -0.012491244822740555 -0.03527556732296944 -0.9992995262145996
 outer loop
  vertex 637500.0 5351500.0 7757.89990234375
  vertex 638500.0 5350500.0 7780.7001953125
  vertex 637500.0 5350500.0 7793.2001953125
 endloop
endfacet
facet normal -0.004697879310697317 -0.027489304542541504 -0.9996110796928406
 outer loop
  vertex 637500.0 5351500.0 7757.89990234375
  vertex 638500.0 5351500.0 7753.2001953125
  vertex 638500.0 5350500.0 7780.7001953125
 endloop
endfacet
facet normal -0.07496028393507004 -0.02741226553916931 -0.9968096613883972
 outer loop
  vertex 638500.0 5351500.0 7753.2001953125
  vertex 639500.0 5350500.0 7705.5
  vertex 638500.0 5350500.0 7780.7001953125
 endloop
endfacet
facet normal -0.07575130462646484 -0.028207197785377502 -0.996727705001831
 outer loop
  vertex 638500.0 5351500.0 7753.2001953125
  vertex 639500.0 5351500.0 7677.2001953125
  vertex 639500.0 5350500.0 7705.5
 endloop
endfacet
facet normal -0.007396738510578871 -0.028287705034017563 -0.9995724558830261
 outer loop
  vertex 639500.0 5351500.0 7677.2001953125
  vertex 640500.0 5350500.0 7698.10009765625
  vertex 639500.0 5350500.0 7705.5
 endloop
endfacet
facet normal -0.007197168190032244 -0.0280882827937603 -0.9995795488357544
 outer loop
  vertex 639500.0 5351500.0 7677.2001953125
  vertex 640500.0 5351500.0 7670.0
  vertex 640500.0 5350500.0 7698.10009765625
 endloop
endfacet
facet normal -0.02578154020011425 -0.028079673647880554 -0.9992731809616089
 outer loop
  vertex 640500.0 5351500.0 7670.0
  vertex 641500.0 5350500.0 7672.2998046875
  vertex 640500.0 5350500.0 7698.10009765625
 endloop
endfacet
facet normal -0.03545236587524414 -0.03774908557534218 -0.9986581802368164
 outer loop
  vertex 640500.0 5351500.0 7670.0
  vertex 641500.0 5351500.0 7634.5
  vertex 641500.0 5350500.0 7672.2998046875
 endloop
endfacet
facet normal -0.0048963469453155994 -0.03777237609028816 -0.9992743730545044
 outer loop
  vertex 641500.0 5351500.0 7634.5
  vertex 642500.0 5350500.0 7667.39990234375
  vertex 641500.0 5350500.0 7672.2998046875
 endloop
endfacet
facet normal 0.005597924347966909 -0.02728920988738537 -0.9996119141578674
 outer loop
  vertex 641500.0 5351500.0 7634.5
  vertex 642500.0 5351500.0 7640.10009765625
  vertex 642500.0 5350500.0 7667.39990234375
 endloop
endfacet
facet normal -0.021686524152755737 -0.02728321962058544 -0.9993925094604492
 outer loop
  vertex 642500.0 5351500.0 7640.10009765625
  vertex 643500.0 5350500.0 7645.7001953125
  vertex 642500.0 5350500.0 7667.39990234375
 endloop
endfacet
facet normal -0.01009833812713623 -0.015697460621595383 -0.9998257756233215
 outer loop
  vertex 642500.0 5351500.0 7640.10009765625
  vertex 643500.0 5351500.0 7630.0
  vertex 643500.0 5350500.0 7645.7001953125
 endloop
endfacet
facet normal -0.21855859458446503 0.18907296657562256 -0.9573314189910889
 outer loop
  vertex 632500.0 5352500.0 8237.0
  vertex 633500.0 5351500.0 7811.2001953125
  vertex 632500.0 5351500.0 8039.5
 endloop
endfacet
facet normal -0.07596824318170547 0.32536211609840393 -0.9425329566001892
 outer loop
  vertex 632500.0 5352500.0 8237.0
  vertex 633500.0 5352500.0 8156.39990234375
  vertex 633500.0 5351500.0 7811.2001953125
 endloop
endfacet
facet normal -0.1511860191822052 0.32255426049232483 -0.9343990087509155
 outer loop
  vertex 633500.0 5352500.0 8156.39990234375
  vertex 634500.0 5351500.0 7649.39990234375
  vertex 633500.0 5351500.0 7811.2001953125
 endloop
endfacet
facet normal -0.45692765712738037 -0.005959292408078909 -0.8894839286804199
 outer loop
  vertex 633500.0 5352500.0 8156.39990234375
  vertex 634500.0 5352500.0 7642.7001953125
  vertex 634500.0 5351500.0 7649.39990234375
 endloop
endfacet
facet normal -0.009399276226758957 -0.006699260789901018 -0.9999333620071411
 outer loop
  vertex 634500.0 5352500.0 7642.7001953125
  vertex 635500.0 5351500.0 7640.0
  vertex 634500.0 5351500.0 7649.39990234375
 endloop
endfacet
facet normal -0.03426305204629898 -0.03156578913331032 -0.9989142417907715
 outer loop
  vertex 634500.0 5352500.0 7642.7001953125
  vertex 635500.0 5352500.0 7608.39990234375
  vertex 635500.0 5351500.0 7640.0
 endloop
endfacet
facet normal -0.020784936845302582 -0.03157750889658928 -0.9992852210998535
 outer loop
  vertex 635500.0 5352500.0 7608.39990234375
  vertex 636500.0 5351500.0 7619.2001953125
  vertex 635500.0 5351500.0 7640.0
 endloop
endfacet
facet normal -0.04756440222263336 -0.05833405628800392 -0.9971633553504944
 outer loop
  vertex 635500.0 5352500.0 7608.39990234375
  vertex 636500.0 5352500.0 7560.7001953125
  vertex 636500.0 5351500.0 7619.2001953125
 endloop
endfacet
facet normal 0.1371544599533081 -0.0578482560813427 -0.9888590574264526
 outer loop
  vertex 636500.0 5352500.0 7560.7001953125
  vertex 637500.0 5351500.0 7757.89990234375
  vertex 636500.0 5351500.0 7619.2001953125
 endloop
endfacet
facet normal 0.1630060225725174 -0.03145723044872284 -0.9861234426498413
 outer loop
  vertex 636500.0 5352500.0 7560.7001953125
  vertex 637500.0 5352500.0 7726.0
  vertex 637500.0 5351500.0 7757.89990234375
 endloop
endfacet
facet normal -0.004697266034781933 -0.03188333287835121 -0.9994806051254272
 outer loop
  vertex 637500.0 5352500.0 7726.0
  vertex 638500.0 5351500.0 7753.2001953125
  vertex 637500.0 5351500.0 7757.89990234375
 endloop
endfacet
facet normal -0.0014993809163570404 -0.028688350692391396 -0.9995872974395752
 outer loop
  vertex 637500.0 5352500.0 7726.0
  vertex 638500.0 5352500.0 7724.5
  vertex 638500.0 5351500.0 7753.2001953125
 endloop
endfacet
facet normal -0.0757504478096962 -0.028605954721570015 -0.9967163801193237
 outer loop
  vertex 638500.0 5352500.0 7724.5
  vertex 639500.0 5351500.0 7677.2001953125
  vertex 638500.0 5351500.0 7753.2001953125
 endloop
endfacet
facet normal -0.08009772002696991 -0.0329756923019886 -0.9962414503097534
 outer loop
  vertex 638500.0 5352500.0 7724.5
  vertex 639500.0 5352500.0 7644.10009765625
  vertex 639500.0 5351500.0 7677.2001953125
 endloop
endfacet
facet normal -0.0071960678324103355 -0.03308112174272537 -0.9994267821311951
 outer loop
  vertex 639500.0 5352500.0 7644.10009765625
  vertex 640500.0 5351500.0 7670.0
  vertex 639500.0 5351500.0 7677.2001953125
 endloop
endfacet
facet normal -0.007595617324113846 -0.03348024934530258 -0.9994104504585266
 outer loop
  vertex 639500.0 5352500.0 7644.10009765625
  vertex 640500.0 5352500.0 7636.5
  vertex 640500.0 5351500.0 7670.0
 endloop
endfacet
facet normal -0.0354577861726284 -0.033460162580013275 -0.9988108277320862
 outer loop
  vertex 640500.0 5352500.0 7636.5
  vertex 641500.0 5351500.0 7634.5
  vertex 640500.0 5351500.0 7670.0
 endloop
endfacet
facet normal -0.025783924385905266 -0.02378515526652336 -0.9993845224380493
 outer loop
  vertex 640500.0 5352500.0 7636.5
  vertex 641500.0 5352500.0 7610.7001953125
  vertex 641500.0 5351500.0 7634.5
 endloop
endfacet
facet normal 0.005598424468189478 -0.0237926933914423 -0.999701201915741
 outer loop
  vertex 641500.0 5352500.0 7610.7001953125
  vertex 642500.0 5351500.0 7640.10009765625
  vertex 641500.0 5351500.0 7634.5
 endloop
endfacet
facet normal -0.00969233363866806 -0.03906840831041336 -0.999189555644989
 outer loop
  vertex 641500.0 5352500.0 7610.7001953125
  vertex 642500.0 5352500.0 7601.0
  vertex 642500.0 5351500.0 7640.10009765625
 endloop
endfacet
facet normal -0.010091871954500675 -0.039068255573511124 -0.9991856217384338
 outer loop
  vertex 642500.0 5352500.0 7601.0
  vertex 643500.0 5351500.0 7630.0
  vertex 642500.0 5351500.0 7640.10009765625
 endloop
endfacet
facet normal -0.013785872608423233 -0.042756594717502594 -0.9989904165267944
 outer loop
  vertex 642500.0 5352500.0 7601.0
  vertex 643500.0 5352500.0 7587.2001953125
  vertex 643500.0 5351500.0 7630.0
 endloop
endfacet
facet normal -0.07989650219678879 -0.10487623512744904 -0.9912706017494202
 outer loop
  vertex 632500.0 5353500.0 8131.2001953125
  vertex 633500.0 5352500.0 8156.39990234375
  vertex 632500.0 5352500.0 8237.0
 endloop
endfacet
facet normal 0.009298227727413177 -0.015897205099463463 -0.999830424785614
 outer loop
  vertex 632500.0 5353500.0 8131.2001953125
  vertex 633500.0 5353500.0 8140.5
  vertex 633500.0 5352500.0 8156.39990234375
 endloop
endfacet
facet normal -0.4568900763988495 -0.014141544699668884 -0.8894107937812805
 outer loop
  vertex 633500.0 5353500.0 8140.5
  vertex 634500.0 5352500.0 7642.7001953125
  vertex 633500.0 5352500.0 8156.39990234375
 endloop
endfacet
facet normal -0.3763040602207184 0.0830489993095398 -0.9227666258811951
 outer loop
  vertex 633500.0 5353500.0 8140.5
  vertex 634500.0 5353500.0 7732.7001953125
  vertex 634500.0 5352500.0 7642.7001953125
 endloop
endfacet
facet normal -0.034142300486564636 0.08958543837070465 -0.9953937530517578
 outer loop
  vertex 634500.0 5353500.0 7732.7001953125
  vertex 635500.0 5352500.0 7608.39990234375
  vertex 634500.0 5352500.0 7642.7001953125
 endloop
endfacet
facet normal -0.13183416426181793 -0.00862344354391098 -0.9912342429161072
 outer loop
  vertex 634500.0 5353500.0 7732.7001953125
  vertex 635500.0 5353500.0 7599.7001953125
  vertex 635500.0 5352500.0 7608.39990234375
 endloop
endfacet
facet normal -0.04764373600482941 -0.008689498528838158 -0.9988265633583069
 outer loop
  vertex 635500.0 5353500.0 7599.7001953125
  vertex 636500.0 5352500.0 7560.7001953125
  vertex 635500.0 5352500.0 7608.39990234375
 endloop
endfacet
facet normal -0.03497830405831337 0.003997520077973604 -0.9993800520896912
 outer loop
  vertex 635500.0 5353500.0 7599.7001953125
  vertex 636500.0 5353500.0 7564.7001953125
  vertex 636500.0 5352500.0 7560.7001953125
 endloop
endfacet
facet normal 0.163085475564003 0.003946416079998016 -0.9866040945053101
 outer loop
  vertex 636500.0 5353500.0 7564.7001953125
  vertex 637500.0 5352500.0 7726.0
  vertex 636500.0 5352500.0 7560.7001953125
 endloop
endfacet
facet normal 0.018608562648296356 -0.14105041325092316 -0.9898274540901184
 outer loop
  vertex 636500.0 5353500.0 7564.7001953125
  vertex 637500.0 5353500.0 7583.5
  vertex 637500.0 5352500.0 7726.0
 endloop
endfacet
facet normal -0.0014849967556074262 -0.14107470214366913 -0.9899978637695312
 outer loop
  vertex 637500.0 5353500.0 7583.5
  vertex 638500.0 5352500.0 7724.5
  vertex 637500.0 5352500.0 7726.0
 endloop
endfacet
facet normal 0.10712051391601562 -0.032990988343954086 -0.9936985969543457
 outer loop
  vertex 637500.0 5353500.0 7583.5
  vertex 638500.0 5353500.0 7691.2998046875
  vertex 638500.0 5352500.0 7724.5
 endloop
endfacet
facet normal -0.08009745180606842 -0.033075299113988876 -0.9962381720542908
 outer loop
  vertex 638500.0 5353500.0 7691.2998046875
  vertex 639500.0 5352500.0 7644.10009765625
  vertex 638500.0 5352500.0 7724.5
 endloop
endfacet
facet normal -0.017989419400691986 0.029182543978095055 -0.9994122385978699
 outer loop
  vertex 638500.0 5353500.0 7691.2998046875
  vertex 639500.0 5353500.0 7673.2998046875
  vertex 639500.0 5352500.0 7644.10009765625
 endloop
endfacet
facet normal -0.007596640847623348 0.029186425730586052 -0.999545156955719
 outer loop
  vertex 639500.0 5353500.0 7673.2998046875
  vertex 640500.0 5352500.0 7636.5
  vertex 639500.0 5352500.0 7644.10009765625
 endloop
endfacet
facet normal -0.06909769028425217 -0.03240521252155304 -0.9970834851264954
 outer loop
  vertex 639500.0 5353500.0 7673.2998046875
  vertex 640500.0 5353500.0 7604.0
  vertex 640500.0 5352500.0 7636.5
 endloop
endfacet
facet normal -0.025777621194720268 -0.03247205540537834 -0.999140202999115
 outer loop
  vertex 640500.0 5353500.0 7604.0
  vertex 641500.0 5352500.0 7610.7001953125
  vertex 640500.0 5352500.0 7636.5
 endloop
endfacet
facet normal -0.022284897044301033 -0.028980614617466927 -0.999331533908844
 outer loop
  vertex 640500.0 5353500.0 7604.0
  vertex 641500.0 5353500.0 7581.7001953125
  vertex 641500.0 5352500.0 7610.7001953125
 endloop
endfacet
facet normal -0.00969566311687231 -0.028986450284719467 -0.9995327591896057
 outer loop
  vertex 641500.0 5353500.0 7581.7001953125
  vertex 642500.0 5352500.0 7601.0
  vertex 641500.0 5352500.0 7610.7001953125
 endloop
endfacet
facet normal -0.00969566311687231 -0.028986450284719467 -0.9995327591896057
 outer loop
  vertex 641500.0 5353500.0 7581.7001953125
  vertex 642500.0 5353500.0 7572.0
  vertex 642500.0 5352500.0 7601.0
 endloop
endfacet
facet normal -0.013792693614959717 -0.028985057026147842 -0.9994847178459167
 outer loop
  vertex 642500.0 5353500.0 7572.0
  vertex 643500.0 5352500.0 7587.2001953125
  vertex 642500.0 5352500.0 7601.0
 endloop
endfacet
facet normal -0.01539087388664484 -0.030582157894968987 -0.9994137287139893
 outer loop
  vertex 642500.0 5353500.0 7572.0
  vertex 643500.0 5353500.0 7556.60009765625
  vertex 643500.0 5352500.0 7587.2001953125
 endloop
endfacet
facet normal 0.00929845217615366 -0.014298212714493275 -0.9998545050621033
 outer loop
  vertex 632500.0 5354500.0 8116.89990234375
  vertex 633500.0 5353500.0 8140.5
  vertex 632500.0 5353500.0 8131.2001953125
 endloop
endfacet
facet normal -0.0492091104388237 -0.0727180615067482 -0.996137797832489
 outer loop
  vertex 632500.0 5354500.0 8116.89990234375
  vertex 633500.0 5354500.0 8067.5
  vertex 633500.0 5353500.0 8140.5
 endloop
endfacet
facet normal -0.37674880027770996 -0.06744157522916794 -0.9238572120666504
 outer loop
  vertex 633500.0 5354500.0 8067.5
  vertex 634500.0 5353500.0 7732.7001953125
  vertex 633500.0 5353500.0 8140.5
 endloop
endfacet
facet normal -0.14015217125415802 0.18547509610652924 -0.9726028442382812
 outer loop
  vertex 633500.0 5354500.0 8067.5
  vertex 634500.0 5354500.0 7923.39990234375
  vertex 634500.0 5353500.0 7732.7001953125
 endloop
endfacet
facet normal -0.12954479455947876 0.1857454925775528 -0.9740208983421326
 outer loop
  vertex 634500.0 5354500.0 7923.39990234375
  vertex 635500.0 5353500.0 7599.7001953125
  vertex 634500.0 5353500.0 7732.7001953125
 endloop
endfacet
facet normal -0.34335029125213623 -0.03959948197007179 -0.9383721947669983
 outer loop
  vertex 634500.0 5354500.0 7923.39990234375
  vertex 635500.0 5354500.0 7557.5
  vertex 635500.0 5353500.0 7599.7001953125
 endloop
endfacet
facet normal -0.03494751453399658 -0.042136915028095245 -0.9985004663467407
 outer loop
  vertex 635500.0 5354500.0 7557.5
  vertex 636500.0 5353500.0 7564.7001953125
  vertex 635500.0 5353500.0 7599.7001953125
 endloop
endfacet
facet normal -0.01249659899622202 -0.01969483494758606 -0.9997279644012451
 outer loop
  vertex 635500.0 5354500.0 7557.5
  vertex 636500.0 5354500.0 7545.0
  vertex 636500.0 5353500.0 7564.7001953125
 endloop
endfacet
facet normal 0.018792837858200073 -0.01969289593398571 -0.9996294379234314
 outer loop
  vertex 636500.0 5354500.0 7545.0
  vertex 637500.0 5353500.0 7583.5
  vertex 636500.0 5353500.0 7564.7001953125
 endloop
endfacet
facet normal -0.010586749762296677 -0.04903826862573624 -0.9987407922744751
 outer loop
  vertex 636500.0 5354500.0 7545.0
  vertex 637500.0 5354500.0 7534.39990234375
  vertex 637500.0 5353500.0 7583.5
 endloop
endfacet
facet normal 0.10705137252807617 -0.048759203404188156 -0.9930571913719177
 outer loop
  vertex 637500.0 5354500.0 7534.39990234375
  vertex 638500.0 5353500.0 7691.2998046875
  vertex 637500.0 5353500.0 7583.5
 endloop
endfacet
facet normal 0.13316914439201355 -0.022293956950306892 -0.9908425807952881
 outer loop
  vertex 637500.0 5354500.0 7534.39990234375
  vertex 638500.0 5354500.0 7668.7998046875
  vertex 638500.0 5353500.0 7691.2998046875
 endloop
endfacet
facet normal -0.01799253188073635 -0.022490665316581726 -0.9995850920677185
 outer loop
  vertex 638500.0 5354500.0 7668.7998046875
  vertex 639500.0 5353500.0 7673.2998046875
  vertex 638500.0 5353500.0 7691.2998046875
 endloop
endfacet
facet normal -0.01899133063852787 -0.023489277809858322 -0.9995437264442444
 outer loop
  vertex 638500.0 5354500.0 7668.7998046875
  vertex 639500.0 5354500.0 7649.7998046875
  vertex 639500.0 5353500.0 7673.2998046875
 endloop
endfacet
facet normal -0.06911500543355942 -0.02343733422458172 -0.9973334074020386
 outer loop
  vertex 639500.0 5354500.0 7649.7998046875
  vertex 640500.0 5353500.0 7604.0
  vertex 639500.0 5353500.0 7673.2998046875
 endloop
endfacet
facet normal -0.074065662920475 -0.028410186991095543 -0.9968486428260803
 outer loop
  vertex 639500.0 5354500.0 7649.7998046875
  vertex 640500.0 5354500.0 7575.5
  vertex 640500.0 5353500.0 7604.0
 endloop
endfacet
facet normal -0.0222852174192667 -0.02848135679960251 -0.9993458390235901
 outer loop
  vertex 640500.0 5354500.0 7575.5
  vertex 641500.0 5353500.0 7581.7001953125
  vertex 640500.0 5353500.0 7604.0
 endloop
endfacet
facet normal -0.03803522512316704 -0.04422486200928688 -0.9982972741127014
 outer loop
  vertex 640500.0 5354500.0 7575.5
  vertex 641500.0 5354500.0 7537.39990234375
  vertex 641500.0 5353500.0 7581.7001953125
 endloop
endfacet
facet normal -0.009690236300230026 -0.044254809617996216 -0.9989733099937439
 outer loop
  vertex 641500.0 5354500.0 7537.39990234375
  vertex 642500.0 5353500.0 7572.0
  vertex 641500.0 5353500.0 7581.7001953125
 endloop
endfacet
facet normal 0.0 -0.034579407423734665 -0.9994019865989685
 outer loop
  vertex 641500.0 5354500.0 7537.39990234375
  vertex 642500.0 5354500.0 7537.39990234375
  vertex 642500.0 5353500.0 7572.0
 endloop
endfacet
facet normal -0.015388870611786842 -0.034575313329696655 -0.9992836117744446
 outer loop
  vertex 642500.0 5354500.0 7537.39990234375
  vertex 643500.0 5353500.0 7556.60009765625
  vertex 642500.0 5353500.0 7572.0
 endloop
endfacet
facet normal -0.007397083565592766 -0.02658996544778347 -0.9996190667152405
 outer loop
  vertex 642500.0 5354500.0 7537.39990234375
  vertex 643500.0 5354500.0 7530.0
  vertex 643500.0 5353500.0 7556.60009765625
 endloop
endfacet
facet normal -0.1426040083169937 0.017912177368998528 -0.9896177053451538
 outer loop
  vertex 633500.0 5355500.0 8085.60009765625
  vertex 634500.0 5354500.0 7923.39990234375
  vertex 633500.0 5354500.0 8067.5
 endloop
endfacet
facet normal -0.012494834139943123 -0.02588919922709465 -0.9995867609977722
 outer loop
  vertex 635500.0 5355500.0 7531.60009765625
  vertex 636500.0 5354500.0 7545.0
  vertex 635500.0 5354500.0 7557.5
 endloop
endfacet
facet normal -0.010596451349556446 -0.023991743102669716 -0.9996560215950012
 outer loop
  vertex 635500.0 5355500.0 7531.60009765625
  vertex 636500.0 5355500.0 7521.0
  vertex 636500.0 5354500.0 7545.0
 endloop
endfacet
facet normal -0.010596451349556446 -0.023991743102669716 -0.9996560215950012
 outer loop
  vertex 636500.0 5355500.0 7521.0
  vertex 637500.0 5354500.0 7534.39990234375
  vertex 636500.0 5354500.0 7545.0
 endloop
endfacet
facet normal -0.020084775984287262 -0.03347446396946907 -0.9992377758026123
 outer loop
  vertex 636500.0 5355500.0 7521.0
  vertex 637500.0 5355500.0 7500.89990234375
  vertex 637500.0 5354500.0 7534.39990234375
 endloop
endfacet
facet normal 0.13312889635562897 -0.03318319097161293 -0.9905430674552917
 outer loop
  vertex 637500.0 5355500.0 7500.89990234375
  vertex 638500.0 5354500.0 7668.7998046875
  vertex 637500.0 5354500.0 7534.39990234375
 endloop
endfacet
facet normal 0.11113272607326508 -0.055467043071985245 -0.9922564625740051
 outer loop
  vertex 637500.0 5355500.0 7500.89990234375
  vertex 638500.0 5355500.0 7612.89990234375
  vertex 638500.0 5354500.0 7668.7998046875
 endloop
endfacet
facet normal -0.018966970965266228 -0.05580272898077965 -0.9982616305351257
 outer loop
  vertex 638500.0 5355500.0 7612.89990234375
  vertex 639500.0 5354500.0 7649.7998046875
  vertex 638500.0 5354500.0 7668.7998046875
 endloop
endfacet
facet normal 0.018194003030657768 -0.0186933446675539 -0.9996597170829773
 outer loop
  vertex 638500.0 5355500.0 7612.89990234375
  vertex 639500.0 5355500.0 7631.10009765625
  vertex 639500.0 5354500.0 7649.7998046875
 endloop
endfacet
facet normal -0.07408268749713898 -0.018645063042640686 -0.9970778226852417
 outer loop
  vertex 639500.0 5355500.0 7631.10009765625
  vertex 640500.0 5354500.0 7575.5
  vertex 639500.0 5354500.0 7649.7998046875
 endloop
endfacet
facet normal -0.08919145911931992 -0.03384493291378021 -0.995439350605011
 outer loop
  vertex 639500.0 5355500.0 7631.10009765625
  vertex 640500.0 5355500.0 7541.5
  vertex 640500.0 5354500.0 7575.5
 endloop
endfacet
facet normal -0.03805052116513252 -0.033955756574869156 -0.9986987709999084
 outer loop
  vertex 640500.0 5355500.0 7541.5
  vertex 641500.0 5354500.0 7537.39990234375
  vertex 640500.0 5354500.0 7575.5
 endloop
endfacet
facet normal -0.0346631184220314 -0.03056740015745163 -0.9989314675331116
 outer loop
  vertex 640500.0 5355500.0 7541.5
  vertex 641500.0 5355500.0 7506.7998046875
  vertex 641500.0 5354500.0 7537.39990234375
 endloop
endfacet
facet normal 0.0 -0.03058578073978424 -0.999532163143158
 outer loop
  vertex 641500.0 5355500.0 7506.7998046875
  vertex 642500.0 5354500.0 7537.39990234375
  vertex 641500.0 5354500.0 7537.39990234375
 endloop
endfacet
facet normal 0.0007999375811778009 -0.029786571860313416 -0.9995559453964233
 outer loop
  vertex 641500.0 5355500.0 7506.7998046875
  vertex 642500.0 5355500.0 7507.60009765625
  vertex 642500.0 5354500.0 7537.39990234375
 endloop
endfacet
facet normal -0.007396416272968054 -0.029785767197608948 -0.9995288848876953
 outer loop
  vertex 642500.0 5355500.0 7507.60009765625
  vertex 643500.0 5354500.0 7530.0
  vertex 642500.0 5354500.0 7537.39990234375
 endloop
endfacet
facet normal 0.00659913057461381 -0.015797490254044533 -0.9998534321784973
 outer loop
  vertex 642500.0 5355500.0 7507.60009765625
  vertex 643500.0 5355500.0 7514.2001953125
  vertex 643500.0 5354500.0 7530.0
 endloop
endfacet
facet normal 0.11125431209802628 -0.02989969402551651 -0.9933420419692993
 outer loop
  vertex 637500.0 5356500.0 7470.7998046875
  vertex 638500.0 5355500.0 7612.89990234375
  vertex 637500.0 5355500.0 7500.89990234375
 endloop
endfacet
facet normal 0.11194346100091934 -0.02920248918235302 -0.9932854175567627
 outer loop
  vertex 637500.0 5356500.0 7470.7998046875
  vertex 638500.0 5356500.0 7583.5
  vertex 638500.0 5355500.0 7612.89990234375
 endloop
endfacet
facet normal 0.0181893240660429 -0.029382342472672462 -0.9994027614593506
 outer loop
  vertex 638500.0 5356500.0 7583.5
  vertex 639500.0 5355500.0 7631.10009765625
  vertex 638500.0 5355500.0 7612.89990234375
 endloop
endfacet
facet normal -0.007987407967448235 -0.05551258474588394 -0.9984260201454163
 outer loop
  vertex 638500.0 5356500.0 7583.5
  vertex 639500.0 5356500.0 7575.5
  vertex 639500.0 5355500.0 7631.10009765625
 endloop
endfacet
facet normal -0.08910605311393738 -0.055293526500463486 -0.9944861531257629
 outer loop
  vertex 639500.0 5356500.0 7575.5
  vertex 640500.0 5355500.0 7541.5
  vertex 639500.0 5355500.0 7631.10009765625
 endloop
endfacet
facet normal -0.07985886931419373 -0.046003568917512894 -0.9957440495491028
 outer loop
  vertex 639500.0 5356500.0 7575.5
  vertex 640500.0 5356500.0 7495.2998046875
  vertex 640500.0 5355500.0 7541.5
 endloop
endfacet
facet normal -0.03464241698384285 -0.04612326622009277 -0.9983348846435547
 outer loop
  vertex 640500.0 5356500.0 7495.2998046875
  vertex 641500.0 5355500.0 7506.7998046875
  vertex 640500.0 5355500.0 7541.5
 endloop
endfacet
facet normal -0.028266118839383125 -0.03975243121385574 -0.9988096952438354
 outer loop
  vertex 640500.0 5356500.0 7495.2998046875
  vertex 641500.0 5356500.0 7467.0
  vertex 641500.0 5355500.0 7506.7998046875
 endloop
endfacet
facet normal 0.0007996596395969391 -0.03976830840110779 -0.9992086291313171
 outer loop
  vertex 641500.0 5356500.0 7467.0
  vertex 642500.0 5355500.0 7507.60009765625
  vertex 641500.0 5355500.0 7506.7998046875
 endloop
endfacet
facet normal 0.01439347118139267 -0.026188494637608528 -0.999553382396698
 outer loop
  vertex 641500.0 5356500.0 7467.0
  vertex 642500.0 5356500.0 7481.39990234375
  vertex 642500.0 5355500.0 7507.60009765625
 endloop
endfacet
facet normal 0.0065976898185908794 -0.026190636679530144 -0.9996352195739746
 outer loop
  vertex 642500.0 5356500.0 7481.39990234375
  vertex 643500.0 5355500.0 7514.2001953125
  vertex 642500.0 5355500.0 7507.60009765625
 endloop
endfacet
facet normal 0.004398086573928595 -0.028388669714331627 -0.9995872974395752
 outer loop
  vertex 642500.0 5356500.0 7481.39990234375
  vertex 643500.0 5356500.0 7485.7998046875
  vertex 643500.0 5355500.0 7514.2001953125
 endloop
endfacet
facet normal 0.006696856580674648 -0.028388308361172676 -0.9995745420455933
 outer loop
  vertex 643500.0 5356500.0 7485.7998046875
  vertex 644500.0 5355500.0 7520.89990234375
  vertex 643500.0 5355500.0 7514.2001953125
 endloop
endfacet
facet normal 0.1119789406657219 -0.014804546721279621 -0.9936003088951111
 outer loop
  vertex 637500.0 5357500.0 7455.89990234375
  vertex 638500.0 5356500.0 7583.5
  vertex 637500.0 5356500.0 7470.7998046875
 endloop
endfacet
facet normal -0.018302597105503082 -0.14454112946987152 -0.9893295168876648
 outer loop
  vertex 637500.0 5357500.0 7455.89990234375
  vertex 638500.0 5357500.0 7437.39990234375
  vertex 638500.0 5356500.0 7583.5
 endloop
endfacet
facet normal -0.00791571382433176 -0.1445608139038086 -0.9894642233848572
 outer loop
  vertex 638500.0 5357500.0 7437.39990234375
  vertex 639500.0 5356500.0 7575.5
  vertex 638500.0 5356500.0 7583.5
 endloop
endfacet
facet normal 0.12910649180412292 -0.007833537645637989 -0.9915997982025146
 outer loop
  vertex 638500.0 5357500.0 7437.39990234375
  vertex 639500.0 5357500.0 7567.60009765625
  vertex 639500.0 5356500.0 7575.5
 endloop
endfacet
facet normal -0.0799410343170166 -0.007874373346567154 -0.9967684745788574
 outer loop
  vertex 639500.0 5357500.0 7567.60009765625
  vertex 640500.0 5356500.0 7495.2998046875
  vertex 639500.0 5356500.0 7575.5
 endloop
endfacet
facet normal 0.0024930275976657867 0.07459168136119843 -0.9972110390663147
 outer loop
  vertex 639500.0 5357500.0 7567.60009765625
  vertex 640500.0 5357500.0 7570.10009765625
  vertex 640500.0 5356500.0 7495.2998046875
 endloop
endfacet
facet normal -0.028209727257490158 0.07456222921609879 -0.9968172907829285
 outer loop
  vertex 640500.0 5357500.0 7570.10009765625
  vertex 641500.0 5356500.0 7467.0
  vertex 640500.0 5356500.0 7495.2998046875
 endloop
endfacet
facet normal -0.12176381051540375 -0.01945052295923233 -0.9923685193061829
 outer loop
  vertex 640500.0 5357500.0 7570.10009765625
  vertex 641500.0 5357500.0 7447.39990234375
  vertex 641500.0 5356500.0 7467.0
 endloop
endfacet
facet normal 0.014395645819604397 -0.019594304263591766 -0.9997044205665588
 outer loop
  vertex 641500.0 5357500.0 7447.39990234375
  vertex 642500.0 5356500.0 7481.39990234375
  vertex 641500.0 5356500.0 7467.0
 endloop
endfacet
facet normal 0.0025988079141825438 -0.03138432651758194 -0.9995039701461792
 outer loop
  vertex 641500.0 5357500.0 7447.39990234375
  vertex 642500.0 5357500.0 7450.0
  vertex 642500.0 5356500.0 7481.39990234375
 endloop
endfacet
facet normal 0.004397692158818245 -0.03138412907719612 -0.9994977116584778
 outer loop
  vertex 642500.0 5357500.0 7450.0
  vertex 643500.0 5356500.0 7485.7998046875
  vertex 642500.0 5356500.0 7481.39990234375
 endloop
endfacet
facet normal 0.00989609956741333 -0.02588995173573494 -0.9996158480644226
 outer loop
  vertex 642500.0 5357500.0 7450.0
  vertex 643500.0 5357500.0 7459.89990234375
  vertex 643500.0 5356500.0 7485.7998046875
 endloop
endfacet
facet normal -0.01849321275949478 -0.01979253999888897 -0.9996330738067627
 outer loop
  vertex 637500.0 5358500.0 7436.10009765625
  vertex 638500.0 5357500.0 7437.39990234375
  vertex 637500.0 5357500.0 7455.89990234375
 endloop
endfacet
facet normal -0.09550453722476959 -0.09679227322340012 -0.9907119274139404
 outer loop
  vertex 637500.0 5358500.0 7436.10009765625
  vertex 638500.0 5358500.0 7339.7001953125
  vertex 638500.0 5357500.0 7437.39990234375
 endloop
endfacet
facet normal 0.1285087615251541 -0.09643048048019409 -0.9870089292526245
 outer loop
  vertex 638500.0 5358500.0 7339.7001953125
  vertex 639500.0 5357500.0 7567.60009765625
  vertex 638500.0 5357500.0 7437.39990234375
 endloop
endfacet
facet normal 0.2270108312368393 0.0050638820976018906 -0.9738790988922119
 outer loop
  vertex 638500.0 5358500.0 7339.7001953125
  vertex 639500.0 5358500.0 7572.7998046875
  vertex 639500.0 5357500.0 7567.60009765625
 endloop
endfacet
facet normal 0.002499958500266075 0.005199620500206947 -0.9999833703041077
 outer loop
  vertex 639500.0 5358500.0 7572.7998046875
  vertex 640500.0 5357500.0 7570.10009765625
  vertex 639500.0 5357500.0 7567.60009765625
 endloop
endfacet
facet normal -0.1648091971874237 -0.16218265891075134 -0.9729001522064209
 outer loop
  vertex 639500.0 5358500.0 7572.7998046875
  vertex 640500.0 5358500.0 7403.39990234375
  vertex 640500.0 5357500.0 7570.10009765625
 endloop
endfacet
facet normal -0.12015324085950851 -0.16323991119861603 -0.9792425036430359
 outer loop
  vertex 640500.0 5358500.0 7403.39990234375
  vertex 641500.0 5357500.0 7447.39990234375
  vertex 640500.0 5357500.0 7570.10009765625
 endloop
endfacet
facet normal 0.023388540372252464 -0.020590094849467278 -0.9995144009590149
 outer loop
  vertex 640500.0 5358500.0 7403.39990234375
  vertex 641500.0 5358500.0 7426.7998046875
  vertex 641500.0 5357500.0 7447.39990234375
 endloop
endfacet
facet normal 0.0025995373725891113 -0.02059565857052803 -0.999784529209137
 outer loop
  vertex 641500.0 5358500.0 7426.7998046875
  vertex 642500.0 5357500.0 7450.0
  vertex 641500.0 5357500.0 7447.39990234375
 endloop
endfacet
facet normal -0.0007995741325430572 -0.023993082344532013 -0.9997117519378662
 outer loop
  vertex 641500.0 5358500.0 7426.7998046875
  vertex 642500.0 5358500.0 7426.0
  vertex 642500.0 5357500.0 7450.0
 endloop
endfacet
facet normal 0.009896568022668362 -0.023991916328668594 -0.9996631741523743
 outer loop
  vertex 642500.0 5358500.0 7426.0
  vertex 643500.0 5357500.0 7459.89990234375
  vertex 642500.0 5357500.0 7450.0
 endloop
endfacet
facet normal 0.008296800777316093 -0.02559083141386509 -0.9996380805969238
 outer loop
  vertex 642500.0 5358500.0 7426.0
  vertex 643500.0 5358500.0 7434.2998046875
  vertex 643500.0 5357500.0 7459.89990234375
 endloop
endfacet
facet normal -0.04224678874015808 -0.0272657610476017 -0.9987351298332214
 outer loop
  vertex 636500.0 5359500.0 7451.10009765625
  vertex 637500.0 5359500.0 7408.7998046875
  vertex 637500.0 5358500.0 7436.10009765625
 endloop
endfacet
facet normal -0.09591967612504959 -0.027164291590452194 -0.9950183033943176
 outer loop
  vertex 637500.0 5359500.0 7408.7998046875
  vertex 638500.0 5358500.0 7339.7001953125
  vertex 637500.0 5358500.0 7436.10009765625
 endloop
endfacet
facet normal -0.03056267276406288 0.03845352679491043 -0.9987928867340088
 outer loop
  vertex 637500.0 5359500.0 7408.7998046875
  vertex 638500.0 5359500.0 7378.2001953125
  vertex 638500.0 5358500.0 7339.7001953125
 endloop
endfacet
facet normal 0.2268543392419815 0.03746849671006203 -0.9732077121734619
 outer loop
  vertex 638500.0 5359500.0 7378.2001953125
  vertex 639500.0 5358500.0 7572.7998046875
  vertex 638500.0 5358500.0 7339.7001953125
 endloop
endfacet
facet normal 0.10549706965684891 -0.08726996183395386 -0.9905828237533569
 outer loop
  vertex 638500.0 5359500.0 7378.2001953125
  vertex 639500.0 5359500.0 7484.7001953125
  vertex 639500.0 5358500.0 7572.7998046875
 endloop
endfacet
facet normal -0.16639387607574463 -0.08653626590967178 -0.9822548031806946
 outer loop
  vertex 639500.0 5359500.0 7484.7001953125
  vertex 640500.0 5358500.0 7403.39990234375
  vertex 639500.0 5358500.0 7572.7998046875
 endloop
endfacet
facet normal -0.10037156939506531 -0.019497370347380638 -0.9947589635848999
 outer loop
  vertex 639500.0 5359500.0 7484.7001953125
  vertex 640500.0 5359500.0 7383.7998046875
  vertex 640500.0 5358500.0 7403.39990234375
 endloop
endfacet
facet normal 0.02338900975883007 -0.01959097385406494 -0.9995344877243042
 outer loop
  vertex 640500.0 5359500.0 7383.7998046875
  vertex 641500.0 5358500.0 7426.7998046875
  vertex 640500.0 5358500.0 7403.39990234375
 endloop
endfacet
facet normal 0.002898049307987094 -0.040067240595817566 -0.9991927742958069
 outer loop
  vertex 640500.0 5359500.0 7383.7998046875
  vertex 641500.0 5359500.0 7386.7001953125
  vertex 641500.0 5358500.0 7426.7998046875
 endloop
endfacet
facet normal -0.0007991621387191117 -0.0400673933327198 -0.9991966485977173
 outer loop
  vertex 641500.0 5359500.0 7386.7001953125
  vertex 642500.0 5358500.0 7426.0
  vertex 641500.0 5358500.0 7426.7998046875
 endloop
endfacet
facet normal 0.006496369373053312 -0.032781485468149185 -0.9994414448738098
 outer loop
  vertex 641500.0 5359500.0 7386.7001953125
  vertex 642500.0 5359500.0 7393.2001953125
  vertex 642500.0 5358500.0 7426.0
 endloop
endfacet
facet normal 0.008295058272778988 -0.032781049609184265 -0.9994281530380249
 outer loop
  vertex 642500.0 5359500.0 7393.2001953125
  vertex 643500.0 5358500.0 7434.2998046875
  vertex 642500.0 5358500.0 7426.0
 endloop
endfacet
facet normal 0.007595129776746035 -0.03348025307059288 -0.9994105100631714
 outer loop
  vertex 642500.0 5359500.0 7393.2001953125
  vertex 643500.0 5359500.0 7400.7998046875
  vertex 643500.0 5358500.0 7434.2998046875
 endloop
endfacet
facet normal -0.04223594442009926 0.03544599190354347 -0.9984787106513977
 outer loop
  vertex 636500.0 5360500.0 7486.60009765625
  vertex 637500.0 5359500.0 7408.7998046875
  vertex 636500.0 5359500.0 7451.10009765625
 endloop
endfacet
facet normal -0.09268846362829208 -0.015232150442898273 -0.9955786466598511
 outer loop
  vertex 636500.0 5360500.0 7486.60009765625
  vertex 637500.0 5360500.0 7393.5
  vertex 637500.0 5359500.0 7408.7998046875
 endloop
endfacet
facet normal -0.030581718310713768 -0.015290859155356884 -0.9994153380393982
 outer loop
  vertex 637500.0 5360500.0 7393.5
  vertex 638500.0 5359500.0 7378.2001953125
  vertex 637500.0 5359500.0 7408.7998046875
 endloop
endfacet
facet normal -0.024092169478535652 -0.008797397837042809 -0.9996710419654846
 outer loop
  vertex 637500.0 5360500.0 7393.5
  vertex 638500.0 5360500.0 7369.39990234375
  vertex 638500.0 5359500.0 7378.2001953125
 endloop
endfacet
facet normal 0.10589706152677536 -0.008750471286475658 -0.9943386316299438
 outer loop
  vertex 638500.0 5360500.0 7369.39990234375
  vertex 639500.0 5359500.0 7484.7001953125
  vertex 638500.0 5359500.0 7378.2001953125
 endloop
endfacet
facet normal -0.10407257825136185 -0.21600943803787231 -0.9708289504051208
 outer loop
  vertex 638500.0 5360500.0 7369.39990234375
  vertex 639500.0 5360500.0 7262.2001953125
  vertex 639500.0 5359500.0 7484.7001953125
 endloop
endfacet
facet normal -0.09801758825778961 -0.21614299714565277 -0.9714292287826538
 outer loop
  vertex 639500.0 5360500.0 7262.2001953125
  vertex 640500.0 5359500.0 7383.7998046875
  vertex 639500.0 5359500.0 7484.7001953125
 endloop
endfacet
facet normal 0.09374964982271194 -0.027268998324871063 -0.9952223300933838
 outer loop
  vertex 639500.0 5360500.0 7262.2001953125
  vertex 640500.0 5360500.0 7356.39990234375
  vertex 640500.0 5359500.0 7383.7998046875
 endloop
endfacet
facet normal 0.002899290295317769 -0.027389507740736008 -0.9996206164360046
 outer loop
  vertex 640500.0 5360500.0 7356.39990234375
  vertex 641500.0 5359500.0 7386.7001953125
  vertex 640500.0 5359500.0 7383.7998046875
 endloop
endfacet
facet normal 0.004298800602555275 -0.02599097602069378 -0.9996529221534729
 outer loop
  vertex 640500.0 5360500.0 7356.39990234375
  vertex 641500.0 5360500.0 7360.7001953125
  vertex 641500.0 5359500.0 7386.7001953125
 endloop
endfacet
facet normal 0.006497666705399752 -0.025990666821599007 -0.9996410608291626
 outer loop
  vertex 641500.0 5360500.0 7360.7001953125
  vertex 642500.0 5359500.0 7393.2001953125
  vertex 641500.0 5359500.0 7386.7001953125
 endloop
endfacet
facet normal 0.005297771189361811 -0.02718975767493248 -0.999616265296936
 outer loop
  vertex 641500.0 5360500.0 7360.7001953125
  vertex 642500.0 5360500.0 7366.0
  vertex 642500.0 5359500.0 7393.2001953125
 endloop
endfacet
facet normal 0.0075965807773172855 -0.027189355343580246 -0.9996014833450317
 outer loop
  vertex 642500.0 5360500.0 7366.0
  vertex 643500.0 5359500.0 7400.7998046875
  vertex 642500.0 5359500.0 7393.2001953125
 endloop
endfacet
facet normal 0.0014991674106568098 -0.033281322568655014 -0.9994449615478516
 outer loop
  vertex 642500.0 5360500.0 7366.0
  vertex 643500.0 5360500.0 7367.5
  vertex 643500.0 5359500.0 7400.7998046875
 endloop
endfacet
facet normal -0.09265337139368057 -0.031448472291231155 -0.9952017068862915
 outer loop
  vertex 636500.0 5361500.0 7455.0
  vertex 637500.0 5360500.0 7393.5
  vertex 636500.0 5360500.0 7486.60009765625
 endloop
endfacet
facet normal -0.04564686119556427 0.01578136533498764 -0.9988330006599426
 outer loop
  vertex 636500.0 5361500.0 7455.0
  vertex 637500.0 5361500.0 7409.2998046875
  vertex 637500.0 5360500.0 7393.5
 endloop
endfacet
facet normal -0.024090096354484558 0.015793249011039734 -0.9995850324630737
 outer loop
  vertex 637500.0 5361500.0 7409.2998046875
  vertex 638500.0 5360500.0 7369.39990234375
  vertex 637500.0 5360500.0 7393.5
 endloop
endfacet
facet normal -0.06127038598060608 -0.021454647183418274 -0.9978905916213989
 outer loop
  vertex 637500.0 5361500.0 7409.2998046875
  vertex 638500.0 5361500.0 7347.89990234375
  vertex 638500.0 5360500.0 7369.39990234375
 endloop
endfacet
facet normal -0.10656465590000153 -0.021372634917497635 -0.9940760731697083
 outer loop
  vertex 638500.0 5361500.0 7347.89990234375
  vertex 639500.0 5360500.0 7262.2001953125
  vertex 638500.0 5360500.0 7369.39990234375
 endloop
endfacet
facet normal -0.02994014136493206 0.05558856949210167 -0.9980047345161438
 outer loop
  vertex 638500.0 5361500.0 7347.89990234375
  vertex 639500.0 5361500.0 7317.89990234375
  vertex 639500.0 5360500.0 7262.2001953125
 endloop
endfacet
facet normal 0.09364064782857895 0.055369142442941666 -0.9940652251243591
 outer loop
  vertex 639500.0 5361500.0 7317.89990234375
  vertex 640500.0 5360500.0 7356.39990234375
  vertex 639500.0 5360500.0 7262.2001953125
 endloop
endfacet
facet normal 0.004997134208679199 -0.033480796962976456 -0.9994268417358398
 outer loop
  vertex 639500.0 5361500.0 7317.89990234375
  vertex 640500.0 5361500.0 7322.89990234375
  vertex 640500.0 5360500.0 7356.39990234375
 endloop
endfacet
facet normal 0.004297842271625996 -0.03348090872168541 -0.9994301199913025
 outer loop
  vertex 640500.0 5361500.0 7322.89990234375
  vertex 641500.0 5360500.0 7360.7001953125
  vertex 640500.0 5360500.0 7356.39990234375
 endloop
endfacet
facet normal 0.013994666747748852 -0.023791225627064705 -0.9996190071105957
 outer loop
  vertex 640500.0 5361500.0 7322.89990234375
  vertex 641500.0 5361500.0 7336.89990234375
  vertex 641500.0 5360500.0 7360.7001953125
 endloop
endfacet
facet normal 0.005298229865729809 -0.02379322052001953 -0.9997028112411499
 outer loop
  vertex 641500.0 5361500.0 7336.89990234375
  vertex 642500.0 5360500.0 7366.0
  vertex 641500.0 5360500.0 7360.7001953125
 endloop
endfacet
facet normal 0.00179961952380836 -0.02728959359228611 -0.9996259808540344
 outer loop
  vertex 641500.0 5361500.0 7336.89990234375
  vertex 642500.0 5361500.0 7338.7001953125
  vertex 642500.0 5360500.0 7366.0
 endloop
endfacet
facet normal 0.001499439706094563 -0.027289606630802155 -0.9996264576911926
 outer loop
  vertex 642500.0 5361500.0 7338.7001953125
  vertex 643500.0 5360500.0 7367.5
  vertex 642500.0 5360500.0 7366.0
 endloop
endfacet
facet normal 0.0024991279933601618 -0.02629063092172146 -0.9996511936187744
 outer loop
  vertex 642500.0 5361500.0 7338.7001953125
  vertex 643500.0 5361500.0 7341.2001953125
  vertex 643500.0 5360500.0 7367.5
 endloop
endfacet
facet normal -0.04565172642469406 -0.005993636790663004 -0.9989394545555115
 outer loop
  vertex 636500.0 5362500.0 7449.0
  vertex 637500.0 5361500.0 7409.2998046875
  vertex 636500.0 5361500.0 7455.0
 endloop
endfacet
facet normal -0.012794128619134426 0.026888461783528328 -0.9995566010475159
 outer loop
  vertex 636500.0 5362500.0 7449.0
  vertex 637500.0 5362500.0 7436.2001953125
  vertex 637500.0 5361500.0 7409.2998046875
 endloop
endfacet
facet normal -0.06126241385936737 0.026840152218937874 -0.9977607131004333
 outer loop
  vertex 637500.0 5362500.0 7436.2001953125
  vertex 638500.0 5361500.0 7347.89990234375
  vertex 637500.0 5361500.0 7409.2998046875
 endloop
endfacet
facet normal -0.09674046188592911 -0.008857804350554943 -0.9952702522277832
 outer loop
  vertex 637500.0 5362500.0 7436.2001953125
  vertex 638500.0 5362500.0 7339.0
  vertex 638500.0 5361500.0 7347.89990234375
 endloop
endfacet
facet normal -0.029985321685671806 -0.008895548060536385 -0.9995107650756836
 outer loop
  vertex 638500.0 5362500.0 7339.0
  vertex 639500.0 5361500.0 7317.89990234375
  vertex 638500.0 5361500.0 7347.89990234375
 endloop
endfacet
facet normal -0.04623561352491379 -0.02516476809978485 -0.9986135363578796
 outer loop
  vertex 638500.0 5362500.0 7339.0
  vertex 639500.0 5362500.0 7292.7001953125
  vertex 639500.0 5361500.0 7317.89990234375
 endloop
endfacet
facet normal 0.004998350981622934 -0.025191394612193108 -0.999670147895813
 outer loop
  vertex 639500.0 5362500.0 7292.7001953125
  vertex 640500.0 5361500.0 7322.89990234375
  vertex 639500.0 5361500.0 7317.89990234375
 endloop
endfacet
facet normal -0.005096856504678726 -0.03527737408876419 -0.9993645548820496
 outer loop
  vertex 639500.0 5362500.0 7292.7001953125
  vertex 640500.0 5362500.0 7287.60009765625
  vertex 640500.0 5361500.0 7322.89990234375
 endloop
endfacet
facet normal 0.013989917002618313 -0.03527437895536423 -0.999279797077179
 outer loop
  vertex 640500.0 5362500.0 7287.60009765625
  vertex 641500.0 5361500.0 7336.89990234375
  vertex 640500.0 5361500.0 7322.89990234375
 endloop
endfacet
facet normal 0.015189125202596188 -0.03407635539770126 -0.9993038177490234
 outer loop
  vertex 640500.0 5362500.0 7287.60009765625
  vertex 641500.0 5362500.0 7302.7998046875
  vertex 641500.0 5361500.0 7336.89990234375
 endloop
endfacet
facet normal 0.00179924420081079 -0.03408023342490196 -0.9994174838066101
 outer loop
  vertex 641500.0 5362500.0 7302.7998046875
  vertex 642500.0 5361500.0 7338.7001953125
  vertex 641500.0 5361500.0 7336.89990234375
 endloop
endfacet
facet normal 0.007397184614092112 -0.02848765254020691 -0.9995667338371277
 outer loop
  vertex 641500.0 5362500.0 7302.7998046875
  vertex 642500.0 5362500.0 7310.2001953125
  vertex 642500.0 5361500.0 7338.7001953125
 endloop
endfacet
facet normal 0.0024989775847643614 -0.028488345444202423 -0.999591052532196
 outer loop
  vertex 642500.0 5362500.0 7310.2001953125
  vertex 643500.0 5361500.0 7341.2001953125
  vertex 642500.0 5361500.0 7338.7001953125
 endloop
endfacet
facet normal -0.0050977072678506374 -0.030186040326952934 -0.9995312690734863
 outer loop
  vertex 639500.0 5363500.0 7262.5
  vertex 640500.0 5362500.0 7287.60009765625
  vertex 639500.0 5362500.0 7292.7001953125
 endloop
endfacet
facet normal 0.002299200976267457 -0.02279430814087391 -0.9997375011444092
 outer loop
  vertex 639500.0 5363500.0 7262.5
  vertex 640500.0 5363500.0 7264.7998046875
  vertex 640500.0 5362500.0 7287.60009765625
 endloop
endfacet
facet normal 0.015194003470242023 -0.02279173769056797 -0.9996247887611389
 outer loop
  vertex 640500.0 5363500.0 7264.7998046875
  vertex 641500.0 5362500.0 7302.7998046875
  vertex 640500.0 5362500.0 7287.60009765625
 endloop
endfacet
facet normal 0.01559428870677948 -0.022391561418771744 -0.9996276497840881
 outer loop
  vertex 640500.0 5363500.0 7264.7998046875
  vertex 641500.0 5363500.0 7280.39990234375
  vertex 641500.0 5362500.0 7302.7998046875
 endloop
endfacet
facet normal 0.007398332003504038 -0.022393671795725822 -0.9997218251228333
 outer loop
  vertex 641500.0 5363500.0 7280.39990234375
  vertex 642500.0 5362500.0 7310.2001953125
  vertex 641500.0 5362500.0 7302.7998046875
 endloop
endfacet
facet normal 0.026590555906295776 -0.0031990474089980125 -0.9996412992477417
 outer loop
  vertex 641500.0 5363500.0 7280.39990234375
  vertex 642500.0 5363500.0 7307.0
  vertex 642500.0 5362500.0 7310.2001953125
 endloop
endfacet
facet normal 0.0022977921180427074 -0.041763223707675934 -0.9991248846054077
 outer loop
  vertex 639500.0 5364500.0 7220.7001953125
  vertex 640500.0 5363500.0 7264.7998046875
  vertex 639500.0 5363500.0 7262.5
 endloop
endfacet
facet normal 0.019490400329232216 -0.024587498977780342 -0.9995076656341553
 outer loop
  vertex 639500.0 5364500.0 7220.7001953125
  vertex 640500.0 5364500.0 7240.2001953125
  vertex 640500.0 5363500.0 7264.7998046875
 endloop
endfacet
facet normal 0.015593484044075012 -0.024589180946350098 -0.9995760321617126
 outer loop
  vertex 640500.0 5364500.0 7240.2001953125
  vertex 641500.0 5363500.0 7280.39990234375
  vertex 640500.0 5363500.0 7264.7998046875
 endloop
endfacet
facet normal 0.009294966235756874 -0.030883828178048134 -0.9994797706604004
 outer loop
  vertex 640500.0 5364500.0 7240.2001953125
  vertex 641500.0 5364500.0 7249.5
  vertex 641500.0 5363500.0 7280.39990234375
 endloop
endfacet
facet normal 0.026578014716506004 -0.03087425045669079 -0.9991698265075684
 outer loop
  vertex 641500.0 5364500.0 7249.5
  vertex 642500.0 5363500.0 7307.0
  vertex 641500.0 5363500.0 7280.39990234375
 endloop
endfacet
facet normal 0.019491832703351974 0.021390939131379128 -0.9995811581611633
 outer loop
  vertex 639500.0 5365500.0 7242.10009765625
  vertex 640500.0 5364500.0 7240.2001953125
  vertex 639500.0 5364500.0 7220.7001953125
 endloop
endfacet
facet normal -0.022689443081617355 -0.02079044096171856 -0.99952632188797
 outer loop
  vertex 639500.0 5365500.0 7242.10009765625
  vertex 640500.0 5365500.0 7219.39990234375
  vertex 640500.0 5364500.0 7240.2001953125
 endloop
endfacet
facet normal 0.009297392331063747 -0.02079489640891552 -0.9997405409812927
 outer loop
  vertex 640500.0 5365500.0 7219.39990234375
  vertex 641500.0 5364500.0 7249.5
  vertex 640500.0 5364500.0 7240.2001953125
 endloop
endfacet
facet normal -0.022673889994621277 -0.04245075210928917 -0.9988412261009216
 outer loop
  vertex 639500.0 5366500.0 7199.60009765625
  vertex 640500.0 5365500.0 7219.39990234375
  vertex 639500.0 5365500.0 7242.10009765625
 endloop
endfacet
endsolid
