solid
facet normal 0.10557436943054199 -0.049559853971004486 -0.9931756258010864
 outer loop
  vertex 568500.0 5352500.0 7488.2998046875
  vertex 569500.0 5351500.0 7644.5
  vertex 568500.0 5351500.0 7538.2001953125
 endloop
endfacet
facet normal 0.13024112582206726 -0.024581002071499825 -0.9911776185035706
 outer loop
  vertex 568500.0 5352500.0 7488.2998046875
  vertex 569500.0 5352500.0 7619.7001953125
  vertex 569500.0 5351500.0 7644.5
 endloop
endfacet
facet normal 0.03855953365564346 -0.024773744866251945 -0.9989491701126099
 outer loop
  vertex 569500.0 5352500.0 7619.7001953125
  vertex 570500.0 5351500.0 7683.10009765625
  vertex 569500.0 5351500.0 7644.5
 endloop
endfacet
facet normal 0.024274097755551338 -0.039058733731508255 -0.9989420771598816
 outer loop
  vertex 569500.0 5352500.0 7619.7001953125
  vertex 570500.0 5352500.0 7644.0
  vertex 570500.0 5351500.0 7683.10009765625
 endloop
endfacet
facet normal 0.1297762095928192 -0.08789991587400436 -0.9876394867897034
 outer loop
  vertex 568500.0 5353500.0 7399.2998046875
  vertex 569500.0 5352500.0 7619.7001953125
  vertex 568500.0 5352500.0 7488.2998046875
 endloop
endfacet
facet normal 0.13252504169940948 -0.08512421697378159 -0.9875175952911377
 outer loop
  vertex 568500.0 5353500.0 7399.2998046875
  vertex 569500.0 5353500.0 7533.5
  vertex 569500.0 5352500.0 7619.7001953125
 endloop
endfacet
facet normal 0.02420293353497982 -0.08585655689239502 -0.9960135221481323
 outer loop
  vertex 569500.0 5353500.0 7533.5
  vertex 570500.0 5352500.0 7644.0
  vertex 569500.0 5352500.0 7619.7001953125
 endloop
endfacet
facet normal 0.09624214470386505 -0.01373443752527237 -0.9952631592750549
 outer loop
  vertex 569500.0 5353500.0 7533.5
  vertex 570500.0 5353500.0 7630.2001953125
  vertex 570500.0 5352500.0 7644.0
 endloop
endfacet
facet normal 0.12206854671239853 -0.013695300556719303 -0.9924271702766418
 outer loop
  vertex 570500.0 5353500.0 7630.2001953125
  vertex 571500.0 5352500.0 7767.0
  vertex 570500.0 5352500.0 7644.0
 endloop
endfacet
facet normal -0.0035651084035634995 -0.13903535902500153 -0.9902809858322144
 outer loop
  vertex 570500.0 5353500.0 7630.2001953125
  vertex 571500.0 5353500.0 7626.60009765625
  vertex 571500.0 5352500.0 7767.0
 endloop
endfacet
facet normal 0.04974956810474396 -0.13886408507823944 -0.9890610575675964
 outer loop
  vertex 571500.0 5353500.0 7626.60009765625
  vertex 572500.0 5352500.0 7817.2998046875
  vertex 571500.0 5352500.0 7767.0
 endloop
endfacet
facet normal -0.03643912822008133 -0.2222399264574051 -0.9743108153343201
 outer loop
  vertex 571500.0 5353500.0 7626.60009765625
  vertex 572500.0 5353500.0 7589.2001953125
  vertex 572500.0 5352500.0 7817.2998046875
 endloop
endfacet
facet normal 0.132985457777977 -0.018332546576857567 -0.9909484386444092
 outer loop
  vertex 568500.0 5354500.0 7380.7998046875
  vertex 569500.0 5353500.0 7533.5
  vertex 568500.0 5353500.0 7399.2998046875
 endloop
endfacet
facet normal 0.11052373796701431 -0.04111103713512421 -0.9930228590965271
 outer loop
  vertex 568500.0 5354500.0 7380.7998046875
  vertex 569500.0 5354500.0 7492.10009765625
  vertex 569500.0 5353500.0 7533.5
 endloop
endfacet
facet normal 0.0961695984005928 -0.04117274284362793 -0.9945130348205566
 outer loop
  vertex 569500.0 5354500.0 7492.10009765625
  vertex 570500.0 5353500.0 7630.2001953125
  vertex 569500.0 5353500.0 7533.5
 endloop
endfacet
facet normal 0.07185719907283783 -0.06558776646852493 -0.9952561259269714
 outer loop
  vertex 569500.0 5354500.0 7492.10009765625
  vertex 570500.0 5354500.0 7564.2998046875
  vertex 570500.0 5353500.0 7630.2001953125
 endloop
endfacet
facet normal -0.00359228253364563 -0.06575733423233032 -0.9978291392326355
 outer loop
  vertex 570500.0 5354500.0 7564.2998046875
  vertex 571500.0 5353500.0 7626.60009765625
  vertex 570500.0 5353500.0 7630.2001953125
 endloop
endfacet
facet normal 0.0007987835560925305 -0.06138400733470917 -0.9981139302253723
 outer loop
  vertex 570500.0 5354500.0 7564.2998046875
  vertex 571500.0 5354500.0 7565.10009765625
  vertex 571500.0 5353500.0 7626.60009765625
 endloop
endfacet
facet normal -0.037303391844034195 -0.0613412968814373 -0.9974194765090942
 outer loop
  vertex 571500.0 5354500.0 7565.10009765625
  vertex 572500.0 5353500.0 7589.2001953125
  vertex 571500.0 5353500.0 7626.60009765625
 endloop
endfacet
facet normal 0.011498327367007732 -0.012598264962434769 -0.9998545050621033
 outer loop
  vertex 571500.0 5354500.0 7565.10009765625
  vertex 572500.0 5354500.0 7576.60009765625
  vertex 572500.0 5353500.0 7589.2001953125
 endloop
endfacet
facet normal -0.11081328988075256 0.00039792468305677176 -0.9938411712646484
 outer loop
  vertex 567500.0 5355500.0 7492.7001953125
  vertex 568500.0 5355500.0 7381.2001953125
  vertex 568500.0 5354500.0 7380.7998046875
 endloop
endfacet
facet normal 0.1106172502040863 0.00039793344330973923 -0.993863046169281
 outer loop
  vertex 568500.0 5355500.0 7381.2001953125
  vertex 569500.0 5354500.0 7492.10009765625
  vertex 568500.0 5354500.0 7380.7998046875
 endloop
endfacet
facet normal 0.015527376905083656 -0.09485901892185211 -0.9953696131706238
 outer loop
  vertex 568500.0 5355500.0 7381.2001953125
  vertex 569500.0 5355500.0 7396.7998046875
  vertex 569500.0 5354500.0 7492.10009765625
 endloop
endfacet
facet normal 0.07168912142515182 -0.09462635964155197 -0.9929282665252686
 outer loop
  vertex 569500.0 5355500.0 7396.7998046875
  vertex 570500.0 5354500.0 7564.2998046875
  vertex 569500.0 5354500.0 7492.10009765625
 endloop
endfacet
facet normal 0.07168962061405182 -0.09462587535381317 -0.9929283261299133
 outer loop
  vertex 569500.0 5355500.0 7396.7998046875
  vertex 570500.0 5355500.0 7469.0
  vertex 570500.0 5354500.0 7564.2998046875
 endloop
endfacet
facet normal 0.0007966792327351868 -0.0948699414730072 -0.9954893589019775
 outer loop
  vertex 570500.0 5355500.0 7469.0
  vertex 571500.0 5354500.0 7565.10009765625
  vertex 570500.0 5354500.0 7564.2998046875
 endloop
endfacet
facet normal 0.06443389505147934 -0.03141895309090614 -0.9974272847175598
 outer loop
  vertex 570500.0 5355500.0 7469.0
  vertex 571500.0 5355500.0 7533.60009765625
  vertex 571500.0 5354500.0 7565.10009765625
 endloop
endfacet
facet normal 0.011493539437651634 -0.03148230165243149 -0.9994381666183472
 outer loop
  vertex 571500.0 5355500.0 7533.60009765625
  vertex 572500.0 5354500.0 7576.60009765625
  vertex 571500.0 5354500.0 7565.10009765625
 endloop
endfacet
facet normal -0.013676946051418781 -0.05660397559404373 -0.9983029961585999
 outer loop
  vertex 571500.0 5355500.0 7533.60009765625
  vertex 572500.0 5355500.0 7519.89990234375
  vertex 572500.0 5354500.0 7576.60009765625
 endloop
endfacet
facet normal -0.102760910987854 0.40486499667167664 -0.9085837602615356
 outer loop
  vertex 562500.0 5356500.0 8388.5
  vertex 563500.0 5355500.0 7829.7998046875
  vertex 562500.0 5355500.0 7942.89990234375
 endloop
endfacet
facet normal -0.08633172512054443 0.4187316298484802 -0.9039970636367798
 outer loop
  vertex 562500.0 5356500.0 8388.5
  vertex 563500.0 5356500.0 8293.0
  vertex 563500.0 5355500.0 7829.7998046875
 endloop
endfacet
facet normal -0.14561516046524048 0.2421170324087143 -0.9592577815055847
 outer loop
  vertex 564500.0 5356500.0 8045.0
  vertex 565500.0 5356500.0 7893.2001953125
  vertex 565500.0 5355500.0 7640.7998046875
 endloop
endfacet
facet normal -0.11509627103805542 0.2430991381406784 -0.963148832321167
 outer loop
  vertex 565500.0 5356500.0 7893.2001953125
  vertex 566500.0 5355500.0 7521.2998046875
  vertex 565500.0 5355500.0 7640.7998046875
 endloop
endfacet
facet normal -0.11265303939580917 0.24542993307113647 -0.9628465175628662
 outer loop
  vertex 565500.0 5356500.0 7893.2001953125
  vertex 566500.0 5356500.0 7776.2001953125
  vertex 566500.0 5355500.0 7521.2998046875
 endloop
endfacet
facet normal -0.027702810242772102 0.24690747261047363 -0.9686429500579834
 outer loop
  vertex 566500.0 5356500.0 7776.2001953125
  vertex 567500.0 5355500.0 7492.7001953125
  vertex 566500.0 5355500.0 7521.2998046875
 endloop
endfacet
facet normal -0.06672187894582748 0.2098211795091629 -0.9754605293273926
 outer loop
  vertex 566500.0 5356500.0 7776.2001953125
  vertex 567500.0 5356500.0 7707.7998046875
  vertex 567500.0 5355500.0 7492.7001953125
 endloop
endfacet
facet normal -0.10836485773324966 0.2090514451265335 -0.9718819856643677
 outer loop
  vertex 567500.0 5356500.0 7707.7998046875
  vertex 568500.0 5355500.0 7381.2001953125
  vertex 567500.0 5355500.0 7492.7001953125
 endloop
endfacet
facet normal -0.20933711528778076 0.10806981474161148 -0.9718533158302307
 outer loop
  vertex 567500.0 5356500.0 7707.7998046875
  vertex 568500.0 5356500.0 7492.39990234375
  vertex 568500.0 5355500.0 7381.2001953125
 endloop
endfacet
facet normal 0.015502183698117733 0.11050521582365036 -0.9937546253204346
 outer loop
  vertex 568500.0 5356500.0 7492.39990234375
  vertex 569500.0 5355500.0 7396.7998046875
  vertex 568500.0 5355500.0 7381.2001953125
 endloop
endfacet
facet normal -0.09950276464223862 -0.004378028213977814 -0.9950276613235474
 outer loop
  vertex 568500.0 5356500.0 7492.39990234375
  vertex 569500.0 5356500.0 7392.39990234375
  vertex 569500.0 5355500.0 7396.7998046875
 endloop
endfacet
facet normal 0.0720120444893837 -0.004388436675071716 -0.9973941445350647
 outer loop
  vertex 569500.0 5356500.0 7392.39990234375
  vertex 570500.0 5355500.0 7469.0
  vertex 569500.0 5355500.0 7396.7998046875
 endloop
endfacet
facet normal 0.005785713437944651 -0.07062183320522308 -0.997486412525177
 outer loop
  vertex 569500.0 5356500.0 7392.39990234375
  vertex 570500.0 5356500.0 7398.2001953125
  vertex 570500.0 5355500.0 7469.0
 endloop
endfacet
facet normal 0.06430543214082718 -0.07047685235738754 -0.9954385161399841
 outer loop
  vertex 570500.0 5356500.0 7398.2001953125
  vertex 571500.0 5355500.0 7533.60009765625
  vertex 570500.0 5355500.0 7469.0
 endloop
endfacet
facet normal 0.024144168943166733 -0.11038853228092194 -0.9935952425003052
 outer loop
  vertex 570500.0 5356500.0 7398.2001953125
  vertex 571500.0 5356500.0 7422.5
  vertex 571500.0 5355500.0 7533.60009765625
 endloop
endfacet
facet normal -0.013615148141980171 -0.11041047424077988 -0.9937928318977356
 outer loop
  vertex 571500.0 5356500.0 7422.5
  vertex 572500.0 5355500.0 7519.89990234375
  vertex 571500.0 5355500.0 7533.60009765625
 endloop
endfacet
facet normal 0.042198117822408676 -0.054967641830444336 -0.997596025466919
 outer loop
  vertex 571500.0 5356500.0 7422.5
  vertex 572500.0 5356500.0 7464.7998046875
  vertex 572500.0 5355500.0 7519.89990234375
 endloop
endfacet
facet normal -0.19994592666625977 0.5567845702171326 -0.8062335848808289
 outer loop
  vertex 563500.0 5357500.0 8983.599609375
  vertex 564500.0 5356500.0 8045.0
  vertex 563500.0 5356500.0 8293.0
 endloop
endfacet
facet normal -0.2967083752155304 0.47881561517715454 -0.8262564539909363
 outer loop
  vertex 563500.0 5357500.0 8983.599609375
  vertex 564500.0 5357500.0 8624.5
  vertex 564500.0 5356500.0 8045.0
 endloop
endfacet
facet normal -0.13022169470787048 0.49712491035461426 -0.8578514456748962
 outer loop
  vertex 564500.0 5357500.0 8624.5
  vertex 565500.0 5356500.0 7893.2001953125
  vertex 564500.0 5356500.0 8045.0
 endloop
endfacet
facet normal -0.2796935737133026 0.3686102330684662 -0.8865088820457458
 outer loop
  vertex 564500.0 5357500.0 8624.5
  vertex 565500.0 5357500.0 8309.0
  vertex 565500.0 5356500.0 7893.2001953125
 endloop
endfacet
facet normal -0.10740825533866882 0.3817122280597687 -0.9180192947387695
 outer loop
  vertex 565500.0 5357500.0 8309.0
  vertex 566500.0 5356500.0 7776.2001953125
  vertex 565500.0 5356500.0 7893.2001953125
 endloop
endfacet
facet normal -0.2225610762834549 0.27567631006240845 -0.9351305961608887
 outer loop
  vertex 565500.0 5357500.0 8309.0
  vertex 566500.0 5357500.0 8071.0
  vertex 566500.0 5356500.0 7776.2001953125
 endloop
endfacet
facet normal -0.06546807289123535 0.2821618616580963 -0.9571303725242615
 outer loop
  vertex 566500.0 5357500.0 8071.0
  vertex 567500.0 5356500.0 7707.7998046875
  vertex 566500.0 5356500.0 7776.2001953125
 endloop
endfacet
facet normal -0.05393792316317558 0.292792409658432 -0.9546535015106201
 outer loop
  vertex 566500.0 5357500.0 8071.0
  vertex 567500.0 5357500.0 8014.5
  vertex 567500.0 5356500.0 7707.7998046875
 endloop
endfacet
facet normal -0.2016996145248413 0.28719282150268555 -0.9363960027694702
 outer loop
  vertex 567500.0 5357500.0 8014.5
  vertex 568500.0 5356500.0 7492.39990234375
  vertex 567500.0 5356500.0 7707.7998046875
 endloop
endfacet
facet normal -0.14752471446990967 0.3378097116947174 -0.9295812249183655
 outer loop
  vertex 567500.0 5357500.0 8014.5
  vertex 568500.0 5357500.0 7855.7998046875
  vertex 568500.0 5356500.0 7492.39990234375
 endloop
endfacet
facet normal -0.09357409924268723 0.3400481939315796 -0.9357410073280334
 outer loop
  vertex 568500.0 5357500.0 7855.7998046875
  vertex 569500.0 5356500.0 7392.39990234375
  vertex 568500.0 5356500.0 7492.39990234375
 endloop
endfacet
facet normal -0.16012708842754364 0.2786845564842224 -0.9469394087791443
 outer loop
  vertex 568500.0 5357500.0 7855.7998046875
  vertex 569500.0 5357500.0 7686.7001953125
  vertex 569500.0 5356500.0 7392.39990234375
 endloop
endfacet
facet normal 0.005564228165894747 0.2823231816291809 -0.9593032002449036
 outer loop
  vertex 569500.0 5357500.0 7686.7001953125
  vertex 570500.0 5356500.0 7398.2001953125
  vertex 569500.0 5356500.0 7392.39990234375
 endloop
endfacet
facet normal -0.3168383538722992 -0.04348978027701378 -0.9474819898605347
 outer loop
  vertex 569500.0 5357500.0 7686.7001953125
  vertex 570500.0 5357500.0 7352.2998046875
  vertex 570500.0 5356500.0 7398.2001953125
 endloop
endfacet
facet normal 0.024267097935080528 -0.045838613063097 -0.9986540675163269
 outer loop
  vertex 570500.0 5357500.0 7352.2998046875
  vertex 571500.0 5356500.0 7422.5
  vertex 570500.0 5356500.0 7398.2001953125
 endloop
endfacet
facet normal -0.30065059661865234 0.039070285856723785 -0.9529337882995605
 outer loop
  vertex 564500.0 5358500.0 8665.5
  vertex 565500.0 5357500.0 8309.0
  vertex 564500.0 5357500.0 8624.5
 endloop
endfacet
facet normal 0.1492280662059784 0.46106821298599243 -0.8747268915176392
 outer loop
  vertex 564500.0 5358500.0 8665.5
  vertex 565500.0 5358500.0 8836.099609375
  vertex 565500.0 5357500.0 8309.0
 endloop
endfacet
facet normal -0.2060256153345108 0.45628583431243896 -0.8656538724899292
 outer loop
  vertex 565500.0 5358500.0 8836.099609375
  vertex 566500.0 5357500.0 8071.0
  vertex 565500.0 5357500.0 8309.0
 endloop
endfacet
facet normal -0.1916569620370865 0.46827632188796997 -0.8625456094741821
 outer loop
  vertex 565500.0 5358500.0 8836.099609375
  vertex 566500.0 5358500.0 8613.900390625
  vertex 566500.0 5357500.0 8071.0
 endloop
endfacet
facet normal -0.04959322139620781 0.4765341281890869 -0.8777561187744141
 outer loop
  vertex 566500.0 5358500.0 8613.900390625
  vertex 567500.0 5357500.0 8014.5
  vertex 566500.0 5357500.0 8071.0
 endloop
endfacet
facet normal -0.1805359274148941 0.3665463626384735 -0.9127159714698792
 outer loop
  vertex 566500.0 5358500.0 8613.900390625
  vertex 567500.0 5358500.0 8416.099609375
  vertex 567500.0 5357500.0 8014.5
 endloop
endfacet
facet normal -0.14569659531116486 0.3686933219432831 -0.9180619120597839
 outer loop
  vertex 567500.0 5358500.0 8416.099609375
  vertex 568500.0 5357500.0 7855.7998046875
  vertex 567500.0 5357500.0 8014.5
 endloop
endfacet
facet normal 0.21052832901477814 0.6295655369758606 -0.7478803396224976
 outer loop
  vertex 567500.0 5358500.0 8416.099609375
  vertex 568500.0 5358500.0 8697.599609375
  vertex 568500.0 5357500.0 7855.7998046875
 endloop
endfacet
facet normal -0.12829656898975372 0.6386769413948059 -0.7587040662765503
 outer loop
  vertex 568500.0 5358500.0 8697.599609375
  vertex 569500.0 5357500.0 7686.7001953125
  vertex 568500.0 5357500.0 7855.7998046875
 endloop
endfacet
facet normal -0.18807406723499298 0.5988641381263733 -0.7784534692764282
 outer loop
  vertex 568500.0 5358500.0 8697.599609375
  vertex 569500.0 5358500.0 8456.0
  vertex 569500.0 5357500.0 7686.7001953125
 endloop
endfacet
facet normal -0.25619885325431824 0.5893943309783936 -0.7661438584327698
 outer loop
  vertex 569500.0 5358500.0 8456.0
  vertex 570500.0 5357500.0 7352.2998046875
  vertex 569500.0 5357500.0 7686.7001953125
 endloop
endfacet
facet normal -0.3074057996273041 0.5498049855232239 -0.7766699194908142
 outer loop
  vertex 569500.0 5358500.0 8456.0
  vertex 570500.0 5358500.0 8060.2001953125
  vertex 570500.0 5357500.0 7352.2998046875
 endloop
endfacet
facet normal 0.16816271841526031 -0.009266112931072712 -0.9857156872749329
 outer loop
  vertex 564500.0 5359500.0 8656.099609375
  vertex 565500.0 5358500.0 8836.099609375
  vertex 564500.0 5358500.0 8665.5
 endloop
endfacet
facet normal 0.30160996317863464 0.131635844707489 -0.9443005323410034
 outer loop
  vertex 564500.0 5359500.0 8656.099609375
  vertex 565500.0 5359500.0 8975.5
  vertex 565500.0 5358500.0 8836.099609375
 endloop
endfacet
facet normal -0.21492816507816315 0.1348387598991394 -0.9672768115997314
 outer loop
  vertex 565500.0 5359500.0 8975.5
  vertex 566500.0 5358500.0 8613.900390625
  vertex 565500.0 5358500.0 8836.099609375
 endloop
endfacet
facet normal -0.3559757173061371 -0.018126146867871284 -0.9343194365501404
 outer loop
  vertex 565500.0 5359500.0 8975.5
  vertex 566500.0 5359500.0 8594.5
  vertex 566500.0 5358500.0 8613.900390625
 endloop
endfacet
facet normal -0.19400613009929657 -0.019028209149837494 -0.9808157682418823
 outer loop
  vertex 566500.0 5359500.0 8594.5
  vertex 567500.0 5358500.0 8416.099609375
  vertex 566500.0 5358500.0 8613.900390625
 endloop
endfacet
facet normal -0.35846400260925293 -0.19561682641506195 -0.9128185510635376
 outer loop
  vertex 566500.0 5359500.0 8594.5
  vertex 567500.0 5359500.0 8201.7998046875
  vertex 567500.0 5358500.0 8416.099609375
 endloop
endfacet
facet normal 0.2653810977935791 -0.20202884078025818 -0.9427391886711121
 outer loop
  vertex 567500.0 5359500.0 8201.7998046875
  vertex 568500.0 5358500.0 8697.599609375
  vertex 567500.0 5358500.0 8416.099609375
 endloop
endfacet
facet normal 0.32357650995254517 -0.1403600424528122 -0.9357335567474365
 outer loop
  vertex 567500.0 5359500.0 8201.7998046875
  vertex 568500.0 5359500.0 8547.599609375
  vertex 568500.0 5358500.0 8697.599609375
 endloop
endfacet
facet normal -0.23238570988178253 -0.14427943527698517 -0.9618629217147827
 outer loop
  vertex 568500.0 5359500.0 8547.599609375
  vertex 569500.0 5358500.0 8456.0
  vertex 568500.0 5358500.0 8697.599609375
 endloop
endfacet
facet normal -0.47873055934906006 -0.40749669075012207 -0.7776654362678528
 outer loop
  vertex 568500.0 5359500.0 8547.599609375
  vertex 569500.0 5359500.0 7932.0
  vertex 569500.0 5358500.0 8456.0
 endloop
endfacet
facet normal -0.3308417499065399 -0.43800193071365356 -0.8358815312385559
 outer loop
  vertex 569500.0 5359500.0 7932.0
  vertex 570500.0 5358500.0 8060.2001953125
  vertex 569500.0 5358500.0 8456.0
 endloop
endfacet
facet normal -0.20325574278831482 -0.3218064308166504 -0.9247311353683472
 outer loop
  vertex 569500.0 5359500.0 7932.0
  vertex 570500.0 5359500.0 7712.2001953125
  vertex 570500.0 5358500.0 8060.2001953125
 endloop
endfacet
facet normal -0.3520321249961853 0.26920074224472046 -0.8964399099349976
 outer loop
  vertex 566500.0 5360500.0 8894.7998046875
  vertex 567500.0 5359500.0 8201.7998046875
  vertex 566500.0 5359500.0 8594.5
 endloop
endfacet
facet normal -0.42512643337249756 0.1883939802646637 -0.8853108286857605
 outer loop
  vertex 566500.0 5360500.0 8894.7998046875
  vertex 567500.0 5360500.0 8414.599609375
  vertex 567500.0 5359500.0 8201.7998046875
 endloop
endfacet
facet normal 0.32039642333984375 0.19716696441173553 -0.926537275314331
 outer loop
  vertex 567500.0 5360500.0 8414.599609375
  vertex 568500.0 5359500.0 8547.599609375
  vertex 567500.0 5359500.0 8201.7998046875
 endloop
endfacet
facet normal -0.46201208233833313 -0.5541098713874817 -0.6924644708633423
 outer loop
  vertex 567500.0 5360500.0 8414.599609375
  vertex 568500.0 5360500.0 7747.39990234375
  vertex 568500.0 5359500.0 8547.599609375
 endloop
endfacet
facet normal -0.4332113265991211 -0.5631185173988342 -0.7037225365638733
 outer loop
  vertex 568500.0 5360500.0 7747.39990234375
  vertex 569500.0 5359500.0 7932.0
  vertex 568500.0 5359500.0 8547.599609375
 endloop
endfacet
facet normal -0.11639817804098129 -0.29166001081466675 -0.9494134783744812
 outer loop
  vertex 568500.0 5360500.0 7747.39990234375
  vertex 569500.0 5360500.0 7624.7998046875
  vertex 569500.0 5359500.0 7932.0
 endloop
endfacet
facet normal -0.20561948418617249 -0.28738126158714294 -0.935485303401947
 outer loop
  vertex 569500.0 5360500.0 7624.7998046875
  vertex 570500.0 5359500.0 7712.2001953125
  vertex 569500.0 5359500.0 7932.0
 endloop
endfacet
facet normal -0.1568966656923294 -0.2406136691570282 -0.9578561782836914
 outer loop
  vertex 569500.0 5360500.0 7624.7998046875
  vertex 570500.0 5360500.0 7461.0
  vertex 570500.0 5359500.0 7712.2001953125
 endloop
endfacet
facet normal -0.11588924378156662 -0.24198946356773376 -0.9633331298828125
 outer loop
  vertex 570500.0 5360500.0 7461.0
  vertex 571500.0 5359500.0 7591.89990234375
  vertex 570500.0 5359500.0 7712.2001953125
 endloop
endfacet
facet normal -0.01701214909553528 -0.14648094773292542 -0.9890671968460083
 outer loop
  vertex 570500.0 5360500.0 7461.0
  vertex 571500.0 5360500.0 7443.7998046875
  vertex 571500.0 5359500.0 7591.89990234375
 endloop
endfacet
facet normal -0.2650681436061859 -0.1412617266178131 -0.9538260102272034
 outer loop
  vertex 571500.0 5360500.0 7443.7998046875
  vertex 572500.0 5359500.0 7314.0
  vertex 571500.0 5359500.0 7591.89990234375
 endloop
endfacet
facet normal -0.0629350021481514 0.06632114201784134 -0.9958115816116333
 outer loop
  vertex 571500.0 5360500.0 7443.7998046875
  vertex 572500.0 5360500.0 7380.60009765625
  vertex 572500.0 5359500.0 7314.0
 endloop
endfacet
facet normal -0.5498149991035461 -0.13646461069583893 -0.8240636587142944
 outer loop
  vertex 567500.0 5361500.0 8249.0
  vertex 568500.0 5360500.0 7747.39990234375
  vertex 567500.0 5360500.0 8414.599609375
 endloop
endfacet
facet normal -0.575610339641571 -0.1749356985092163 -0.7987930178642273
 outer loop
  vertex 567500.0 5361500.0 8249.0
  vertex 568500.0 5361500.0 7528.39990234375
  vertex 568500.0 5360500.0 7747.39990234375
 endloop
endfacet
facet normal -0.11891204118728638 -0.2124120593070984 -0.9699180722236633
 outer loop
  vertex 568500.0 5361500.0 7528.39990234375
  vertex 569500.0 5360500.0 7624.7998046875
  vertex 568500.0 5360500.0 7747.39990234375
 endloop
endfacet
facet normal 0.05018362030386925 -0.04599268361926079 -0.9976804256439209
 outer loop
  vertex 568500.0 5361500.0 7528.39990234375
  vertex 569500.0 5361500.0 7578.7001953125
  vertex 569500.0 5360500.0 7624.7998046875
 endloop
endfacet
facet normal -0.16147863864898682 -0.04544633999466896 -0.9858291745185852
 outer loop
  vertex 569500.0 5361500.0 7578.7001953125
  vertex 570500.0 5360500.0 7461.0
  vertex 569500.0 5360500.0 7624.7998046875
 endloop
endfacet
facet normal 0.1833135187625885 0.2937334179878235 -0.9381453990936279
 outer loop
  vertex 569500.0 5361500.0 7578.7001953125
  vertex 570500.0 5361500.0 7774.10009765625
  vertex 570500.0 5360500.0 7461.0
 endloop
endfacet
facet normal -0.016412217170000076 0.2987564206123352 -0.9541882276535034
 outer loop
  vertex 570500.0 5361500.0 7774.10009765625
  vertex 571500.0 5360500.0 7443.7998046875
  vertex 570500.0 5360500.0 7461.0
 endloop
endfacet
facet normal -0.15258319675922394 0.16903908550739288 -0.9737269878387451
 outer loop
  vertex 570500.0 5361500.0 7774.10009765625
  vertex 571500.0 5361500.0 7617.39990234375
  vertex 571500.0 5360500.0 7443.7998046875
 endloop
endfacet
facet normal -0.06214802339673042 0.17071124911308289 -0.983359158039093
 outer loop
  vertex 571500.0 5361500.0 7617.39990234375
  vertex 572500.0 5360500.0 7380.60009765625
  vertex 571500.0 5360500.0 7443.7998046875
 endloop
endfacet
facet normal 0.0016538073541596532 0.23199279606342316 -0.9727160930633545
 outer loop
  vertex 571500.0 5361500.0 7617.39990234375
  vertex 572500.0 5361500.0 7619.10009765625
  vertex 572500.0 5360500.0 7380.60009765625
 endloop
endfacet
facet normal 0.0262543186545372 0.23191314935684204 -0.9723821878433228
 outer loop
  vertex 572500.0 5361500.0 7619.10009765625
  vertex 573500.0 5360500.0 7407.60009765625
  vertex 572500.0 5360500.0 7380.60009765625
 endloop
endfacet
facet normal -0.2533223330974579 -0.04898352921009064 -0.9661409854888916
 outer loop
  vertex 572500.0 5361500.0 7619.10009765625
  vertex 573500.0 5361500.0 7356.89990234375
  vertex 573500.0 5360500.0 7407.60009765625
 endloop
endfacet
facet normal 0.13357102870941162 0.717551589012146 -0.6835776567459106
 outer loop
  vertex 569500.0 5362500.0 8628.400390625
  vertex 570500.0 5361500.0 7774.10009765625
  vertex 569500.0 5361500.0 7578.7001953125
 endloop
endfacet
facet normal -0.1929953396320343 0.5185965299606323 -0.8329528570175171
 outer loop
  vertex 569500.0 5362500.0 8628.400390625
  vertex 570500.0 5362500.0 8396.7001953125
  vertex 570500.0 5361500.0 7774.10009765625
 endloop
endfacet
facet normal -0.13186319172382355 0.5239179730415344 -0.841499924659729
 outer loop
  vertex 570500.0 5362500.0 8396.7001953125
  vertex 571500.0 5361500.0 7617.39990234375
  vertex 570500.0 5361500.0 7774.10009765625
 endloop
endfacet
facet normal -0.3457700312137604 0.33674898743629456 -0.8758100271224976
 outer loop
  vertex 570500.0 5362500.0 8396.7001953125
  vertex 571500.0 5362500.0 8001.89990234375
  vertex 571500.0 5361500.0 7617.39990234375
 endloop
endfacet
facet normal 0.0015869219787418842 0.3588848114013672 -0.9333805441856384
 outer loop
  vertex 571500.0 5362500.0 8001.89990234375
  vertex 572500.0 5361500.0 7619.10009765625
  vertex 571500.0 5361500.0 7617.39990234375
 endloop
endfacet
facet normal 0.1669415682554245 0.49365508556365967 -0.8534840941429138
 outer loop
  vertex 571500.0 5362500.0 8001.89990234375
  vertex 572500.0 5362500.0 8197.5
  vertex 572500.0 5361500.0 7619.10009765625
 endloop
endfacet
facet normal -0.22133933007717133 0.4882628321647644 -0.8441613912582397
 outer loop
  vertex 572500.0 5362500.0 8197.5
  vertex 573500.0 5361500.0 7356.89990234375
  vertex 572500.0 5361500.0 7619.10009765625
 endloop
endfacet
facet normal -0.10350903868675232 0.5773191452026367 -0.8099311590194702
 outer loop
  vertex 572500.0 5362500.0 8197.5
  vertex 573500.0 5362500.0 8069.7001953125
  vertex 573500.0 5361500.0 7356.89990234375
 endloop
endfacet
facet normal -0.04506656900048256 0.5798472166061401 -0.8134777545928955
 outer loop
  vertex 573500.0 5362500.0 8069.7001953125
  vertex 574500.0 5361500.0 7301.5
  vertex 573500.0 5361500.0 7356.89990234375
 endloop
endfacet
facet normal -0.6036953926086426 0.008689029142260551 -0.7971677184104919
 outer loop
  vertex 573500.0 5362500.0 8069.7001953125
  vertex 574500.0 5362500.0 7312.39990234375
  vertex 574500.0 5361500.0 7301.5
 endloop
endfacet
facet normal 0.2635316252708435 0.1635187864303589 -0.9506906270980835
 outer loop
  vertex 568500.0 5363500.0 8523.2001953125
  vertex 569500.0 5363500.0 8800.400390625
  vertex 569500.0 5362500.0 8628.400390625
 endloop
endfacet
facet normal -0.22261695563793182 0.16525717079639435 -0.9607974886894226
 outer loop
  vertex 569500.0 5363500.0 8800.400390625
  vertex 570500.0 5362500.0 8396.7001953125
  vertex 569500.0 5362500.0 8628.400390625
 endloop
endfacet
facet normal -0.032916635274887085 0.34566542506217957 -0.9377802610397339
 outer loop
  vertex 569500.0 5363500.0 8800.400390625
  vertex 570500.0 5363500.0 8765.2998046875
  vertex 570500.0 5362500.0 8396.7001953125
 endloop
endfacet
facet normal -0.3473690152168274 0.3243161141872406 -0.8798601627349854
 outer loop
  vertex 570500.0 5363500.0 8765.2998046875
  vertex 571500.0 5362500.0 8001.89990234375
  vertex 570500.0 5362500.0 8396.7001953125
 endloop
endfacet
facet normal -0.5637714266777039 0.06480055302381516 -0.8233849406242371
 outer loop
  vertex 570500.0 5363500.0 8765.2998046875
  vertex 571500.0 5363500.0 8080.60009765625
  vertex 571500.0 5362500.0 8001.89990234375
 endloop
endfacet
facet normal 0.19139236211776733 0.07700720429420471 -0.9784880876541138
 outer loop
  vertex 571500.0 5363500.0 8080.60009765625
  vertex 572500.0 5362500.0 8197.5
  vertex 571500.0 5362500.0 8001.89990234375
 endloop
endfacet
facet normal 0.24821463227272034 0.13609625399112701 -0.959097146987915
 outer loop
  vertex 571500.0 5363500.0 8080.60009765625
  vertex 572500.0 5363500.0 8339.400390625
  vertex 572500.0 5362500.0 8197.5
 endloop
endfacet
facet normal -0.12553133070468903 0.13938163220882416 -0.9822497963905334
 outer loop
  vertex 572500.0 5363500.0 8339.400390625
  vertex 573500.0 5362500.0 8069.7001953125
  vertex 572500.0 5362500.0 8197.5
 endloop
endfacet
facet normal -0.48509952425956726 -0.2599165439605713 -0.8349382281303406
 outer loop
  vertex 572500.0 5363500.0 8339.400390625
  vertex 573500.0 5363500.0 7758.39990234375
  vertex 573500.0 5362500.0 8069.7001953125
 endloop
endfacet
facet normal -0.5859443545341492 -0.240861713886261 -0.7737278938293457
 outer loop
  vertex 573500.0 5363500.0 7758.39990234375
  vertex 574500.0 5362500.0 7312.39990234375
  vertex 573500.0 5362500.0 8069.7001953125
 endloop
endfacet
facet normal 0.2698320150375366 0.6042168140411377 -0.749741792678833
 outer loop
  vertex 573500.0 5363500.0 7758.39990234375
  vertex 574500.0 5363500.0 8118.2998046875
  vertex 574500.0 5362500.0 7312.39990234375
 endloop
endfacet
facet normal 0.18294039368629456 0.08618185669183731 -0.9793393015861511
 outer loop
  vertex 567500.0 5364500.0 8424.400390625
  vertex 568500.0 5363500.0 8523.2001953125
  vertex 567500.0 5363500.0 8336.400390625
 endloop
endfacet
facet normal -0.17504432797431946 -0.2686280608177185 -0.9472056031227112
 outer loop
  vertex 567500.0 5364500.0 8424.400390625
  vertex 568500.0 5364500.0 8239.599609375
  vertex 568500.0 5363500.0 8523.2001953125
 endloop
endfacet
facet normal 0.2576773464679718 -0.2636270225048065 -0.9295715093612671
 outer loop
  vertex 568500.0 5364500.0 8239.599609375
  vertex 569500.0 5363500.0 8800.400390625
  vertex 568500.0 5363500.0 8523.2001953125
 endloop
endfacet
facet normal -0.03979666158556938 -0.518727719783783 -0.8540127873420715
 outer loop
  vertex 568500.0 5364500.0 8239.599609375
  vertex 569500.0 5364500.0 8193.0
  vertex 569500.0 5363500.0 8800.400390625
 endloop
endfacet
facet normal -0.029986605048179626 -0.518905520439148 -0.8543055653572083
 outer loop
  vertex 569500.0 5364500.0 8193.0
  vertex 570500.0 5363500.0 8765.2998046875
  vertex 569500.0 5363500.0 8800.400390625
 endloop
endfacet
facet normal 0.2850242555141449 -0.24527329206466675 -0.9266079068183899
 outer loop
  vertex 569500.0 5364500.0 8193.0
  vertex 570500.0 5364500.0 8500.599609375
  vertex 570500.0 5363500.0 8765.2998046875
 endloop
endfacet
facet normal -0.5519474744796753 -0.21337909996509552 -0.8061161637306213
 outer loop
  vertex 570500.0 5364500.0 8500.599609375
  vertex 571500.0 5363500.0 8080.60009765625
  vertex 570500.0 5363500.0 8765.2998046875
 endloop
endfacet
facet normal -0.01176027674227953 0.37718573212623596 -0.9260630011558533
 outer loop
  vertex 570500.0 5364500.0 8500.599609375
  vertex 571500.0 5364500.0 8487.900390625
  vertex 571500.0 5363500.0 8080.60009765625
 endloop
endfacet
facet normal 0.23308049142360687 0.36682242155075073 -0.9006191492080688
 outer loop
  vertex 571500.0 5364500.0 8487.900390625
  vertex 572500.0 5363500.0 8339.400390625
  vertex 571500.0 5363500.0 8080.60009765625
 endloop
endfacet
facet normal -0.0015835886588320136 0.14533942937850952 -0.9893805980682373
 outer loop
  vertex 571500.0 5364500.0 8487.900390625
  vertex 572500.0 5364500.0 8486.2998046875
  vertex 572500.0 5363500.0 8339.400390625
 endloop
endfacet
facet normal -0.4983612298965454 0.12600500881671906 -0.8577638864517212
 outer loop
  vertex 572500.0 5364500.0 8486.2998046875
  vertex 573500.0 5363500.0 7758.39990234375
  vertex 572500.0 5363500.0 8339.400390625
 endloop
endfacet
facet normal -0.29441338777542114 0.35224783420562744 -0.8883930444717407
 outer loop
  vertex 572500.0 5364500.0 8486.2998046875
  vertex 573500.0 5364500.0 8154.89990234375
  vertex 573500.0 5363500.0 7758.39990234375
 endloop
endfacet
facet normal 0.31727534532546997 0.34954074025154114 -0.881565511226654
 outer loop
  vertex 573500.0 5364500.0 8154.89990234375
  vertex 574500.0 5363500.0 8118.2998046875
  vertex 573500.0 5363500.0 7758.39990234375
 endloop
endfacet
facet normal 0.16349650919437408 0.1988629400730133 -0.9662931561470032
 outer loop
  vertex 573500.0 5364500.0 8154.89990234375
  vertex 574500.0 5364500.0 8324.099609375
  vertex 574500.0 5363500.0 8118.2998046875
 endloop
endfacet
facet normal -0.632497251033783 0.1561327427625656 -0.7586631774902344
 outer loop
  vertex 574500.0 5364500.0 8324.099609375
  vertex 575500.0 5363500.0 7284.60009765625
  vertex 574500.0 5363500.0 8118.2998046875
 endloop
endfacet
facet normal -0.06791728734970093 0.6855573654174805 -0.7248436808586121
 outer loop
  vertex 574500.0 5364500.0 8324.099609375
  vertex 575500.0 5364500.0 8230.400390625
  vertex 575500.0 5363500.0 7284.60009765625
 endloop
endfacet
facet normal -0.04526744410395622 0.23304224014282227 -0.9714124798774719
 outer loop
  vertex 568500.0 5365500.0 8479.5
  vertex 569500.0 5364500.0 8193.0
  vertex 568500.0 5364500.0 8239.599609375
 endloop
endfacet
facet normal -0.3975380063056946 -0.1376233845949173 -0.9072064161300659
 outer loop
  vertex 568500.0 5365500.0 8479.5
  vertex 569500.0 5365500.0 8041.2998046875
  vertex 569500.0 5364500.0 8193.0
 endloop
endfacet
facet normal 0.29096224904060364 -0.14349506795406342 -0.94591224193573
 outer loop
  vertex 569500.0 5365500.0 8041.2998046875
  vertex 570500.0 5364500.0 8500.599609375
  vertex 569500.0 5364500.0 8193.0
 endloop
endfacet
facet normal 0.37766608595848083 -0.04706898704171181 -0.924744725227356
 outer loop
  vertex 569500.0 5365500.0 8041.2998046875
  vertex 570500.0 5365500.0 8449.7001953125
  vertex 570500.0 5364500.0 8500.599609375
 endloop
endfacet
facet normal -0.012681780382990837 -0.05082951858639717 -0.9986268281936646
 outer loop
  vertex 570500.0 5365500.0 8449.7001953125
  vertex 571500.0 5364500.0 8487.900390625
  vertex 570500.0 5364500.0 8500.599609375
 endloop
endfacet
facet normal 0.06305473297834396 0.024942459538578987 -0.9976983666419983
 outer loop
  vertex 570500.0 5365500.0 8449.7001953125
  vertex 571500.0 5365500.0 8512.900390625
  vertex 571500.0 5364500.0 8487.900390625
 endloop
endfacet
facet normal -0.0016000838950276375 0.024992158636450768 -0.9996863603591919
 outer loop
  vertex 571500.0 5365500.0 8512.900390625
  vertex 572500.0 5364500.0 8486.2998046875
  vertex 571500.0 5364500.0 8487.900390625
 endloop
endfacet
facet normal 0.0673464685678482 0.09376919269561768 -0.9933135509490967
 outer loop
  vertex 571500.0 5365500.0 8512.900390625
  vertex 572500.0 5365500.0 8580.7001953125
  vertex 572500.0 5364500.0 8486.2998046875
 endloop
endfacet
facet normal -0.313320130109787 0.08925031125545502 -0.9454443454742432
 outer loop
  vertex 572500.0 5365500.0 8580.7001953125
  vertex 573500.0 5364500.0 8154.89990234375
  vertex 572500.0 5364500.0 8486.2998046875
 endloop
endfacet
facet normal -0.13748371601104736 0.26848387718200684 -0.9534225463867188
 outer loop
  vertex 572500.0 5365500.0 8580.7001953125
  vertex 573500.0 5365500.0 8436.5
  vertex 573500.0 5364500.0 8154.89990234375
 endloop
endfacet
facet normal 0.16074742376804352 0.26753291487693787 -0.9500455260276794
 outer loop
  vertex 573500.0 5365500.0 8436.5
  vertex 574500.0 5364500.0 8324.099609375
  vertex 573500.0 5364500.0 8154.89990234375
 endloop
endfacet
facet normal -0.09554792940616608 0.016323160380125046 -0.995290994644165
 outer loop
  vertex 573500.0 5365500.0 8436.5
  vertex 574500.0 5365500.0 8340.5
  vertex 574500.0 5364500.0 8324.099609375
 endloop
endfacet
facet normal -0.09327815473079681 0.01632669009268284 -0.995506227016449
 outer loop
  vertex 574500.0 5365500.0 8340.5
  vertex 575500.0 5364500.0 8230.400390625
  vertex 574500.0 5364500.0 8324.099609375
 endloop
endfacet
facet normal -0.015329995192587376 0.09426634758710861 -0.9954289793968201
 outer loop
  vertex 574500.0 5365500.0 8340.5
  vertex 575500.0 5365500.0 8325.099609375
  vertex 575500.0 5364500.0 8230.400390625
 endloop
endfacet
facet normal 0.06757673621177673 0.044751692563295364 -0.996709942817688
 outer loop
  vertex 571500.0 5366500.0 8557.7998046875
  vertex 572500.0 5365500.0 8580.7001953125
  vertex 571500.0 5365500.0 8512.900390625
 endloop
endfacet
facet normal -0.0839170441031456 -0.10660569369792938 -0.9907538294792175
 outer loop
  vertex 571500.0 5366500.0 8557.7998046875
  vertex 572500.0 5366500.0 8473.099609375
  vertex 572500.0 5365500.0 8580.7001953125
 endloop
endfacet
facet normal -0.14192137122154236 -0.10590016096830368 -0.9841969013214111
 outer loop
  vertex 572500.0 5366500.0 8473.099609375
  vertex 573500.0 5365500.0 8436.5
  vertex 572500.0 5365500.0 8580.7001953125
 endloop
endfacet
facet normal -0.021292483434081078 0.015294546261429787 -0.9996563196182251
 outer loop
  vertex 572500.0 5366500.0 8473.099609375
  vertex 573500.0 5366500.0 8451.7998046875
  vertex 573500.0 5365500.0 8436.5
 endloop
endfacet
facet normal -0.0955495834350586 0.015228020958602428 -0.9953081607818604
 outer loop
  vertex 573500.0 5366500.0 8451.7998046875
  vertex 574500.0 5365500.0 8340.5
  vertex 573500.0 5365500.0 8436.5
 endloop
endfacet
facet normal -0.07633019983768463 0.034578148275613785 -0.9964828491210938
 outer loop
  vertex 573500.0 5366500.0 8451.7998046875
  vertex 574500.0 5366500.0 8375.2001953125
  vertex 574500.0 5365500.0 8340.5
 endloop
endfacet
facet normal -0.015389304608106613 0.03467521443963051 -0.9992801547050476
 outer loop
  vertex 574500.0 5366500.0 8375.2001953125
  vertex 575500.0 5365500.0 8325.099609375
  vertex 574500.0 5365500.0 8340.5
 endloop
endfacet
facet normal -0.0776352807879448 -0.027705196291208267 -0.9965968132019043
 outer loop
  vertex 574500.0 5366500.0 8375.2001953125
  vertex 575500.0 5366500.0 8297.2998046875
  vertex 575500.0 5365500.0 8325.099609375
 endloop
endfacet
facet normal -0.02129494585096836 0.0016002209158614278 -0.9997719526290894
 outer loop
  vertex 572500.0 5367500.0 8474.7001953125
  vertex 573500.0 5366500.0 8451.7998046875
  vertex 572500.0 5366500.0 8473.099609375
 endloop
endfacet
facet normal 0.008395006880164146 0.03128338232636452 -0.999475359916687
 outer loop
  vertex 572500.0 5367500.0 8474.7001953125
  vertex 573500.0 5367500.0 8483.099609375
  vertex 573500.0 5366500.0 8451.7998046875
 endloop
endfacet
facet normal -0.07633870095014572 0.031193194910883904 -0.9965938925743103
 outer loop
  vertex 573500.0 5367500.0 8483.099609375
  vertex 574500.0 5366500.0 8375.2001953125
  vertex 573500.0 5366500.0 8451.7998046875
 endloop
endfacet
facet normal -0.10314520448446274 0.004177755676209927 -0.9946575164794922
 outer loop
  vertex 573500.0 5367500.0 8483.099609375
  vertex 574500.0 5367500.0 8379.400390625
  vertex 574500.0 5366500.0 8375.2001953125
 endloop
endfacet
facet normal -0.07766441255807877 0.00418747216463089 -0.9969707727432251
 outer loop
  vertex 574500.0 5367500.0 8379.400390625
  vertex 575500.0 5366500.0 8297.2998046875
  vertex 574500.0 5366500.0 8375.2001953125
 endloop
endfacet
endsolid
