solid
facet normal -0.006299665663391352 0.0021000513806939125 -0.9999779462814331
 outer loop
  vertex 674500.0 5396500.0 6365.39990234375
  vertex 675500.0 5395500.0 6357.0
  vertex 674500.0 5395500.0 6363.2998046875
 endloop
endfacet
facet normal -0.004399824421852827 0.0039999294094741344 -0.9999822974205017
 outer loop
  vertex 674500.0 5396500.0 6365.39990234375
  vertex 675500.0 5396500.0 6361.0
  vertex 675500.0 5395500.0 6357.0
 endloop
endfacet
facet normal -0.02447851374745369 -0.0339701808989048 -0.9991230368614197
 outer loop
  vertex 673500.0 5397500.0 6355.89990234375
  vertex 674500.0 5397500.0 6331.39990234375
  vertex 674500.0 5396500.0 6365.39990234375
 endloop
endfacet
facet normal -0.004397318698465824 -0.03398003801703453 -0.9994128346443176
 outer loop
  vertex 674500.0 5397500.0 6331.39990234375
  vertex 675500.0 5396500.0 6361.0
  vertex 674500.0 5396500.0 6365.39990234375
 endloop
endfacet
facet normal 0.017395975068211555 -0.012197441421449184 -0.9997742772102356
 outer loop
  vertex 674500.0 5397500.0 6331.39990234375
  vertex 675500.0 5397500.0 6348.7998046875
  vertex 675500.0 5396500.0 6361.0
 endloop
endfacet
facet normal -0.0211938563734293 -0.012196547351777554 -0.9997010231018066
 outer loop
  vertex 675500.0 5397500.0 6348.7998046875
  vertex 676500.0 5396500.0 6339.7998046875
  vertex 675500.0 5396500.0 6361.0
 endloop
endfacet
facet normal -0.008799463510513306 0.00020018755458295345 -0.999961256980896
 outer loop
  vertex 675500.0 5397500.0 6348.7998046875
  vertex 676500.0 5397500.0 6340.0
  vertex 676500.0 5396500.0 6339.7998046875
 endloop
endfacet
facet normal 0.005300218239426613 0.0002001925022341311 -0.999985933303833
 outer loop
  vertex 676500.0 5397500.0 6340.0
  vertex 677500.0 5396500.0 6345.10009765625
  vertex 676500.0 5396500.0 6339.7998046875
 endloop
endfacet
facet normal -0.027774052694439888 -0.03286942467093468 -0.9990736842155457
 outer loop
  vertex 676500.0 5397500.0 6340.0
  vertex 677500.0 5397500.0 6312.2001953125
  vertex 677500.0 5396500.0 6345.10009765625
 endloop
endfacet
facet normal -0.007595768664032221 -0.03288116306066513 -0.9994303584098816
 outer loop
  vertex 677500.0 5397500.0 6312.2001953125
  vertex 678500.0 5396500.0 6337.5
  vertex 677500.0 5396500.0 6345.10009765625
 endloop
endfacet
facet normal 0.014397555030882359 -0.010898125357925892 -0.9998369812965393
 outer loop
  vertex 677500.0 5397500.0 6312.2001953125
  vertex 678500.0 5397500.0 6326.60009765625
  vertex 678500.0 5396500.0 6337.5
 endloop
endfacet
facet normal -0.024490676820278168 -0.012694873847067356 -0.9996194839477539
 outer loop
  vertex 673500.0 5398500.0 6343.2001953125
  vertex 674500.0 5397500.0 6331.39990234375
  vertex 673500.0 5397500.0 6355.89990234375
 endloop
endfacet
facet normal -0.003999846056103706 0.007799993269145489 -0.9999615550041199
 outer loop
  vertex 673500.0 5398500.0 6343.2001953125
  vertex 674500.0 5398500.0 6339.2001953125
  vertex 674500.0 5397500.0 6331.39990234375
 endloop
endfacet
facet normal 0.01739674061536789 0.00779887568205595 -0.9998182654380798
 outer loop
  vertex 674500.0 5398500.0 6339.2001953125
  vertex 675500.0 5397500.0 6348.7998046875
  vertex 674500.0 5397500.0 6331.39990234375
 endloop
endfacet
facet normal -0.015193769708275795 -0.024789320304989815 -0.9995772242546082
 outer loop
  vertex 674500.0 5398500.0 6339.2001953125
  vertex 675500.0 5398500.0 6324.0
  vertex 675500.0 5397500.0 6348.7998046875
 endloop
endfacet
facet normal -0.008796758949756622 -0.02479122206568718 -0.9996539354324341
 outer loop
  vertex 675500.0 5398500.0 6324.0
  vertex 676500.0 5397500.0 6340.0
  vertex 675500.0 5397500.0 6348.7998046875
 endloop
endfacet
facet normal 0.0 -0.015997951850295067 -0.9998720288276672
 outer loop
  vertex 675500.0 5398500.0 6324.0
  vertex 676500.0 5398500.0 6324.0
  vertex 676500.0 5397500.0 6340.0
 endloop
endfacet
facet normal -0.027785513550043106 -0.015991775318980217 -0.999485969543457
 outer loop
  vertex 676500.0 5398500.0 6324.0
  vertex 677500.0 5397500.0 6312.2001953125
  vertex 676500.0 5397500.0 6340.0
 endloop
endfacet
facet normal -0.00789959542453289 0.0038997509982436895 -0.9999611973762512
 outer loop
  vertex 676500.0 5398500.0 6324.0
  vertex 677500.0 5398500.0 6316.10009765625
  vertex 677500.0 5397500.0 6312.2001953125
 endloop
endfacet
facet normal 0.014398300088942051 0.0038994685746729374 -0.9998887777328491
 outer loop
  vertex 677500.0 5398500.0 6316.10009765625
  vertex 678500.0 5397500.0 6326.60009765625
  vertex 677500.0 5397500.0 6312.2001953125
 endloop
endfacet
facet normal -0.006398857571184635 -0.01689714379608631 -0.999836802482605
 outer loop
  vertex 677500.0 5398500.0 6316.10009765625
  vertex 678500.0 5398500.0 6309.7001953125
  vertex 678500.0 5397500.0 6326.60009765625
 endloop
endfacet
facet normal -0.003999830223619938 0.008299452252686024 -0.9999575614929199
 outer loop
  vertex 673500.0 5399500.0 6351.5
  vertex 674500.0 5398500.0 6339.2001953125
  vertex 673500.0 5398500.0 6343.2001953125
 endloop
endfacet
facet normal -0.014398378320038319 -0.00209987536072731 -0.9998941421508789
 outer loop
  vertex 673500.0 5399500.0 6351.5
  vertex 674500.0 5399500.0 6337.10009765625
  vertex 674500.0 5398500.0 6339.2001953125
 endloop
endfacet
facet normal -0.01519840583205223 -0.002099850447848439 -0.9998822808265686
 outer loop
  vertex 674500.0 5399500.0 6337.10009765625
  vertex 675500.0 5398500.0 6324.0
  vertex 674500.0 5398500.0 6339.2001953125
 endloop
endfacet
facet normal -0.0007001413032412529 0.012398946098983288 -0.9999228715896606
 outer loop
  vertex 674500.0 5399500.0 6337.10009765625
  vertex 675500.0 5399500.0 6336.39990234375
  vertex 675500.0 5398500.0 6324.0
 endloop
endfacet
facet normal 0.0 0.012398948892951012 -0.9999231100082397
 outer loop
  vertex 675500.0 5399500.0 6336.39990234375
  vertex 676500.0 5398500.0 6324.0
  vertex 675500.0 5398500.0 6324.0
 endloop
endfacet
facet normal 0.0009999097092077136 0.013398692943155766 -0.9999097585678101
 outer loop
  vertex 675500.0 5399500.0 6336.39990234375
  vertex 676500.0 5399500.0 6337.39990234375
  vertex 676500.0 5398500.0 6324.0
 endloop
endfacet
facet normal -0.007898946292698383 0.013398281298577785 -0.999879002571106
 outer loop
  vertex 676500.0 5399500.0 6337.39990234375
  vertex 677500.0 5398500.0 6316.10009765625
  vertex 676500.0 5398500.0 6324.0
 endloop
endfacet
facet normal -0.02778848260641098 -0.006497352849692106 -0.9995927214622498
 outer loop
  vertex 676500.0 5399500.0 6337.39990234375
  vertex 677500.0 5399500.0 6309.60009765625
  vertex 677500.0 5398500.0 6316.10009765625
 endloop
endfacet
facet normal -0.006399636156857014 -0.006499729584902525 -0.9999583959579468
 outer loop
  vertex 677500.0 5399500.0 6309.60009765625
  vertex 678500.0 5398500.0 6309.7001953125
  vertex 677500.0 5398500.0 6316.10009765625
 endloop
endfacet
facet normal -0.005499830469489098 -0.005599925294518471 -0.9999691843986511
 outer loop
  vertex 677500.0 5399500.0 6309.60009765625
  vertex 678500.0 5399500.0 6304.10009765625
  vertex 678500.0 5398500.0 6309.7001953125
 endloop
endfacet
facet normal -0.026390526443719864 -0.0036983932368457317 -0.9996448755264282
 outer loop
  vertex 669500.0 5400500.0 6374.0
  vertex 670500.0 5400500.0 6347.60009765625
  vertex 670500.0 5399500.0 6351.2998046875
 endloop
endfacet
facet normal 0.012498938478529453 -0.003699392778798938 -0.9999150633811951
 outer loop
  vertex 670500.0 5400500.0 6347.60009765625
  vertex 671500.0 5399500.0 6363.7998046875
  vertex 670500.0 5399500.0 6351.2998046875
 endloop
endfacet
facet normal 0.004199367482215166 -0.011999030597507954 -0.9999191761016846
 outer loop
  vertex 670500.0 5400500.0 6347.60009765625
  vertex 671500.0 5400500.0 6351.7998046875
  vertex 671500.0 5399500.0 6363.7998046875
 endloop
endfacet
facet normal -0.011597641743719578 -0.01699640043079853 -0.9997882843017578
 outer loop
  vertex 672500.0 5400500.0 6346.10009765625
  vertex 673500.0 5400500.0 6334.5
  vertex 673500.0 5399500.0 6351.5
 endloop
endfacet
facet normal -0.01439633034169674 -0.016995782032608986 -0.9997519254684448
 outer loop
  vertex 673500.0 5400500.0 6334.5
  vertex 674500.0 5399500.0 6337.10009765625
  vertex 673500.0 5399500.0 6351.5
 endloop
endfacet
facet normal 0.0068996744230389595 0.004299662541598082 -0.9999669194221497
 outer loop
  vertex 673500.0 5400500.0 6334.5
  vertex 674500.0 5400500.0 6341.39990234375
  vertex 674500.0 5399500.0 6337.10009765625
 endloop
endfacet
facet normal -0.0007001886842772365 0.004299764055758715 -0.9999905228614807
 outer loop
  vertex 674500.0 5400500.0 6341.39990234375
  vertex 675500.0 5399500.0 6336.39990234375
  vertex 674500.0 5399500.0 6337.10009765625
 endloop
endfacet
facet normal -0.008099792525172234 -0.0030999809969216585 -0.9999623894691467
 outer loop
  vertex 674500.0 5400500.0 6341.39990234375
  vertex 675500.0 5400500.0 6333.2998046875
  vertex 675500.0 5399500.0 6336.39990234375
 endloop
endfacet
facet normal 0.0009999946923926473 -0.0031000811140984297 -0.999994695186615
 outer loop
  vertex 675500.0 5400500.0 6333.2998046875
  vertex 676500.0 5399500.0 6337.39990234375
  vertex 675500.0 5399500.0 6336.39990234375
 endloop
endfacet
facet normal 0.0022001860197633505 -0.0018998943269252777 -0.999995768070221
 outer loop
  vertex 675500.0 5400500.0 6333.2998046875
  vertex 676500.0 5400500.0 6335.5
  vertex 676500.0 5399500.0 6337.39990234375
 endloop
endfacet
facet normal -0.02778901718556881 -0.0018991651013493538 -0.9996119737625122
 outer loop
  vertex 676500.0 5400500.0 6335.5
  vertex 677500.0 5399500.0 6309.60009765625
  vertex 676500.0 5399500.0 6337.39990234375
 endloop
endfacet
facet normal -0.016597094014286995 0.009298121556639671 -0.9998190402984619
 outer loop
  vertex 676500.0 5400500.0 6335.5
  vertex 677500.0 5400500.0 6318.89990234375
  vertex 677500.0 5399500.0 6309.60009765625
 endloop
endfacet
facet normal -0.005499679129570723 0.009299261495471 -0.9999416470527649
 outer loop
  vertex 677500.0 5400500.0 6318.89990234375
  vertex 678500.0 5399500.0 6304.10009765625
  vertex 677500.0 5399500.0 6309.60009765625
 endloop
endfacet
facet normal -0.005699378438293934 0.009099572896957397 -0.9999423623085022
 outer loop
  vertex 677500.0 5400500.0 6318.89990234375
  vertex 678500.0 5400500.0 6313.2001953125
  vertex 678500.0 5399500.0 6304.10009765625
 endloop
endfacet
facet normal -0.005099819973111153 0.009099602699279785 -0.9999455809593201
 outer loop
  vertex 678500.0 5400500.0 6313.2001953125
  vertex 679500.0 5399500.0 6299.0
  vertex 678500.0 5399500.0 6304.10009765625
 endloop
endfacet
facet normal -0.0034997782204300165 0.010699517093598843 -0.9999366402626038
 outer loop
  vertex 678500.0 5400500.0 6313.2001953125
  vertex 679500.0 5400500.0 6309.7001953125
  vertex 679500.0 5399500.0 6299.0
 endloop
endfacet
facet normal -0.026387030258774757 0.01669205352663994 -0.9995124340057373
 outer loop
  vertex 669500.0 5401500.0 6390.7001953125
  vertex 670500.0 5400500.0 6347.60009765625
  vertex 669500.0 5400500.0 6374.0
 endloop
endfacet
facet normal -0.011193799786269665 0.03188168630003929 -0.999428927898407
 outer loop
  vertex 669500.0 5401500.0 6390.7001953125
  vertex 670500.0 5401500.0 6379.5
  vertex 670500.0 5400500.0 6347.60009765625
 endloop
endfacet
facet normal 0.004197534639388323 0.03188340365886688 -0.9994827508926392
 outer loop
  vertex 670500.0 5401500.0 6379.5
  vertex 671500.0 5400500.0 6351.7998046875
  vertex 670500.0 5400500.0 6347.60009765625
 endloop
endfacet
facet normal -0.017496410757303238 0.01019810326397419 -0.9997949004173279
 outer loop
  vertex 670500.0 5401500.0 6379.5
  vertex 671500.0 5401500.0 6362.0
  vertex 671500.0 5400500.0 6351.7998046875
 endloop
endfacet
facet normal -0.005699317902326584 0.010199499316513538 -0.9999317526817322
 outer loop
  vertex 671500.0 5401500.0 6362.0
  vertex 672500.0 5400500.0 6346.10009765625
  vertex 671500.0 5400500.0 6351.7998046875
 endloop
endfacet
facet normal 0.0007000986952334642 0.01659780740737915 -0.999862015247345
 outer loop
  vertex 671500.0 5401500.0 6362.0
  vertex 672500.0 5401500.0 6362.7001953125
  vertex 672500.0 5400500.0 6346.10009765625
 endloop
endfacet
facet normal -0.011597719043493271 0.01659669354557991 -0.9997949600219727
 outer loop
  vertex 672500.0 5401500.0 6362.7001953125
  vertex 673500.0 5400500.0 6334.5
  vertex 672500.0 5400500.0 6346.10009765625
 endloop
endfacet
facet normal -0.008798296563327312 0.019395502284169197 -0.9997732043266296
 outer loop
  vertex 672500.0 5401500.0 6362.7001953125
  vertex 673500.0 5401500.0 6353.89990234375
  vertex 673500.0 5400500.0 6334.5
 endloop
endfacet
facet normal 0.006898440420627594 0.019395790994167328 -0.9997881054878235
 outer loop
  vertex 673500.0 5401500.0 6353.89990234375
  vertex 674500.0 5400500.0 6341.39990234375
  vertex 673500.0 5400500.0 6334.5
 endloop
endfacet
facet normal -0.011599312536418438 0.000899841426871717 -0.9999322891235352
 outer loop
  vertex 673500.0 5401500.0 6353.89990234375
  vertex 674500.0 5401500.0 6342.2998046875
  vertex 674500.0 5400500.0 6341.39990234375
 endloop
endfacet
facet normal -0.008099827915430069 0.0008998724515549839 -0.9999667406082153
 outer loop
  vertex 674500.0 5401500.0 6342.2998046875
  vertex 675500.0 5400500.0 6333.2998046875
  vertex 674500.0 5400500.0 6341.39990234375
 endloop
endfacet
facet normal 0.0024998269509524107 0.011499203741550446 -0.999930739402771
 outer loop
  vertex 674500.0 5401500.0 6342.2998046875
  vertex 675500.0 5401500.0 6344.7998046875
  vertex 675500.0 5400500.0 6333.2998046875
 endloop
endfacet
facet normal 0.002200044458732009 0.011499211192131042 -0.9999314546585083
 outer loop
  vertex 675500.0 5401500.0 6344.7998046875
  vertex 676500.0 5400500.0 6335.5
  vertex 675500.0 5400500.0 6333.2998046875
 endloop
endfacet
facet normal 0.0 0.009299402125179768 -0.9999567270278931
 outer loop
  vertex 675500.0 5401500.0 6344.7998046875
  vertex 676500.0 5401500.0 6344.7998046875
  vertex 676500.0 5400500.0 6335.5
 endloop
endfacet
facet normal -0.016597094014286995 0.009298121556639671 -0.9998190402984619
 outer loop
  vertex 676500.0 5401500.0 6344.7998046875
  vertex 677500.0 5400500.0 6318.89990234375
  vertex 676500.0 5400500.0 6335.5
 endloop
endfacet
facet normal -0.02788899466395378 -0.0019992180168628693 -0.9996090531349182
 outer loop
  vertex 676500.0 5401500.0 6344.7998046875
  vertex 677500.0 5401500.0 6316.89990234375
  vertex 677500.0 5400500.0 6318.89990234375
 endloop
endfacet
facet normal -0.005699602887034416 -0.001999963540583849 -0.9999817609786987
 outer loop
  vertex 677500.0 5401500.0 6316.89990234375
  vertex 678500.0 5400500.0 6313.2001953125
  vertex 677500.0 5400500.0 6318.89990234375
 endloop
endfacet
facet normal 0.006199772469699383 0.009899226948618889 -0.999931812286377
 outer loop
  vertex 677500.0 5401500.0 6316.89990234375
  vertex 678500.0 5401500.0 6323.10009765625
  vertex 678500.0 5400500.0 6313.2001953125
 endloop
endfacet
facet normal -0.0034998070914298296 0.00989935640245676 -0.9999448657035828
 outer loop
  vertex 678500.0 5401500.0 6323.10009765625
  vertex 679500.0 5400500.0 6309.7001953125
  vertex 678500.0 5400500.0 6313.2001953125
 endloop
endfacet
facet normal -0.016497675329446793 -0.0030996608547866344 -0.999859094619751
 outer loop
  vertex 678500.0 5401500.0 6323.10009765625
  vertex 679500.0 5401500.0 6306.60009765625
  vertex 679500.0 5400500.0 6309.7001953125
 endloop
endfacet
facet normal -0.01369884330779314 -0.003099791705608368 -0.999901294708252
 outer loop
  vertex 679500.0 5401500.0 6306.60009765625
  vertex 680500.0 5400500.0 6296.0
  vertex 679500.0 5400500.0 6309.7001953125
 endloop
endfacet
facet normal -0.0003998815082013607 0.01019966322928667 -0.9999479055404663
 outer loop
  vertex 679500.0 5401500.0 6306.60009765625
  vertex 680500.0 5401500.0 6306.2001953125
  vertex 680500.0 5400500.0 6296.0
 endloop
endfacet
facet normal -0.0036999774165451527 0.010199595242738724 -0.9999411106109619
 outer loop
  vertex 680500.0 5401500.0 6306.2001953125
  vertex 681500.0 5400500.0 6292.2998046875
  vertex 680500.0 5400500.0 6296.0
 endloop
endfacet
facet normal -0.025290558114647865 -0.011395515874028206 -0.9996151924133301
 outer loop
  vertex 680500.0 5401500.0 6306.2001953125
  vertex 681500.0 5401500.0 6280.89990234375
  vertex 681500.0 5400500.0 6292.2998046875
 endloop
endfacet
facet normal -0.007099898532032967 -0.0024003232829272747 -0.9999719262123108
 outer loop
  vertex 668500.0 5402500.0 6395.39990234375
  vertex 669500.0 5402500.0 6388.2998046875
  vertex 669500.0 5401500.0 6390.7001953125
 endloop
endfacet
facet normal -0.011199460364878178 -0.0024002331774681807 -0.9999343752861023
 outer loop
  vertex 669500.0 5402500.0 6388.2998046875
  vertex 670500.0 5401500.0 6379.5
  vertex 669500.0 5401500.0 6390.7001953125
 endloop
endfacet
facet normal -0.003499929327517748 0.005299697630107403 -0.9999797940254211
 outer loop
  vertex 669500.0 5402500.0 6388.2998046875
  vertex 670500.0 5402500.0 6384.7998046875
  vertex 670500.0 5401500.0 6379.5
 endloop
endfacet
facet normal -0.017497073858976364 0.005298918578773737 -0.9998328685760498
 outer loop
  vertex 670500.0 5402500.0 6384.7998046875
  vertex 671500.0 5401500.0 6362.0
  vertex 670500.0 5401500.0 6379.5
 endloop
endfacet
facet normal 0.027654360979795456 0.05041643977165222 -0.9983453750610352
 outer loop
  vertex 670500.0 5402500.0 6384.7998046875
  vertex 671500.0 5402500.0 6412.5
  vertex 671500.0 5401500.0 6362.0
 endloop
endfacet
facet normal 0.0006993039860390127 0.05043571814894676 -0.9987270832061768
 outer loop
  vertex 671500.0 5402500.0 6412.5
  vertex 672500.0 5401500.0 6362.7001953125
  vertex 671500.0 5401500.0 6362.0
 endloop
endfacet
facet normal 0.005491526797413826 0.05521461367607117 -0.9984594583511353
 outer loop
  vertex 671500.0 5402500.0 6412.5
  vertex 672500.0 5402500.0 6418.0
  vertex 672500.0 5401500.0 6362.7001953125
 endloop
endfacet
facet normal -0.008786529302597046 0.055213313549757004 -0.9984359741210938
 outer loop
  vertex 672500.0 5402500.0 6418.0
  vertex 673500.0 5401500.0 6353.89990234375
  vertex 672500.0 5401500.0 6362.7001953125
 endloop
endfacet
facet normal -0.06098609045147896 0.0029944023117423058 -0.9981341361999512
 outer loop
  vertex 672500.0 5402500.0 6418.0
  vertex 673500.0 5402500.0 6356.89990234375
  vertex 673500.0 5401500.0 6353.89990234375
 endloop
endfacet
facet normal -0.011599265038967133 0.0029997846577316523 -0.9999281764030457
 outer loop
  vertex 673500.0 5402500.0 6356.89990234375
  vertex 674500.0 5401500.0 6342.2998046875
  vertex 673500.0 5401500.0 6353.89990234375
 endloop
endfacet
facet normal -0.02339259348809719 -0.008797056041657925 -0.999687671661377
 outer loop
  vertex 673500.0 5402500.0 6356.89990234375
  vertex 674500.0 5402500.0 6333.5
  vertex 674500.0 5401500.0 6342.2998046875
 endloop
endfacet
facet normal 0.002499895403161645 -0.008799436502158642 -0.9999582171440125
 outer loop
  vertex 674500.0 5402500.0 6333.5
  vertex 675500.0 5401500.0 6344.7998046875
  vertex 674500.0 5401500.0 6342.2998046875
 endloop
endfacet
facet normal -0.011895859614014626 -0.023191826418042183 -0.999660313129425
 outer loop
  vertex 674500.0 5402500.0 6333.5
  vertex 675500.0 5402500.0 6321.60009765625
  vertex 675500.0 5401500.0 6344.7998046875
 endloop
endfacet
facet normal 0.0 -0.023193467408418655 -0.9997310042381287
 outer loop
  vertex 675500.0 5402500.0 6321.60009765625
  vertex 676500.0 5401500.0 6344.7998046875
  vertex 675500.0 5401500.0 6344.7998046875
 endloop
endfacet
facet normal -0.003998489119112492 -0.027189435437321663 -0.9996223449707031
 outer loop
  vertex 675500.0 5402500.0 6321.60009765625
  vertex 676500.0 5402500.0 6317.60009765625
  vertex 676500.0 5401500.0 6344.7998046875
 endloop
endfacet
facet normal -0.02787874825298786 -0.027179082855582237 -0.9992417693138123
 outer loop
  vertex 676500.0 5402500.0 6317.60009765625
  vertex 677500.0 5401500.0 6316.89990234375
  vertex 676500.0 5401500.0 6344.7998046875
 endloop
endfacet
facet normal -0.03993725776672363 -0.03923816233873367 -0.9984314441680908
 outer loop
  vertex 676500.0 5402500.0 6317.60009765625
  vertex 677500.0 5402500.0 6277.60009765625
  vertex 677500.0 5401500.0 6316.89990234375
 endloop
endfacet
facet normal 0.006195294205099344 -0.03926873952150345 -0.9992095232009888
 outer loop
  vertex 677500.0 5402500.0 6277.60009765625
  vertex 678500.0 5401500.0 6323.10009765625
  vertex 677500.0 5401500.0 6316.89990234375
 endloop
endfacet
facet normal 0.03547587990760803 -0.009993205778300762 -0.9993205666542053
 outer loop
  vertex 677500.0 5402500.0 6277.60009765625
  vertex 678500.0 5402500.0 6313.10009765625
  vertex 678500.0 5401500.0 6323.10009765625
 endloop
endfacet
facet normal -0.0164969302713871 -0.0099981389939785 -0.9998139142990112
 outer loop
  vertex 678500.0 5402500.0 6313.10009765625
  vertex 679500.0 5401500.0 6306.60009765625
  vertex 678500.0 5401500.0 6323.10009765625
 endloop
endfacet
facet normal -0.010799563489854336 -0.004300002474337816 -0.9999324679374695
 outer loop
  vertex 678500.0 5402500.0 6313.10009765625
  vertex 679500.0 5402500.0 6302.2998046875
  vertex 679500.0 5401500.0 6306.60009765625
 endloop
endfacet
facet normal -0.00039989862125366926 -0.004300253000110388 -0.999990701675415
 outer loop
  vertex 679500.0 5402500.0 6302.2998046875
  vertex 680500.0 5401500.0 6306.2001953125
  vertex 679500.0 5401500.0 6306.60009765625
 endloop
endfacet
facet normal -0.04002873972058296 -0.04392223805189133 -0.9982326626777649
 outer loop
  vertex 679500.0 5402500.0 6302.2998046875
  vertex 680500.0 5402500.0 6262.2001953125
  vertex 680500.0 5401500.0 6306.2001953125
 endloop
endfacet
facet normal -0.025267768651247025 -0.043943434953689575 -0.9987144470214844
 outer loop
  vertex 680500.0 5402500.0 6262.2001953125
  vertex 681500.0 5401500.0 6280.89990234375
  vertex 680500.0 5401500.0 6306.2001953125
 endloop
endfacet
facet normal 0.02459174208343029 0.005898015573620796 -0.9996801614761353
 outer loop
  vertex 680500.0 5402500.0 6262.2001953125
  vertex 681500.0 5402500.0 6286.7998046875
  vertex 681500.0 5401500.0 6280.89990234375
 endloop
endfacet
facet normal -0.008299260400235653 -0.007899384014308453 -0.9999343752861023
 outer loop
  vertex 667500.0 5403500.0 6395.7998046875
  vertex 668500.0 5403500.0 6387.5
  vertex 668500.0 5402500.0 6395.39990234375
 endloop
endfacet
facet normal -0.00709969736635685 -0.007899456657469273 -0.9999436140060425
 outer loop
  vertex 668500.0 5403500.0 6387.5
  vertex 669500.0 5402500.0 6388.2998046875
  vertex 668500.0 5402500.0 6395.39990234375
 endloop
endfacet
facet normal 0.004700107965618372 0.0039003179408609867 -0.9999814033508301
 outer loop
  vertex 668500.0 5403500.0 6387.5
  vertex 669500.0 5403500.0 6392.2001953125
  vertex 669500.0 5402500.0 6388.2998046875
 endloop
endfacet
facet normal -0.0034999519120901823 0.0039003370329737663 -0.9999862313270569
 outer loop
  vertex 669500.0 5403500.0 6392.2001953125
  vertex 670500.0 5402500.0 6384.7998046875
  vertex 669500.0 5402500.0 6388.2998046875
 endloop
endfacet
facet normal -0.007900143042206764 -0.0004999843658879399 -0.9999687075614929
 outer loop
  vertex 669500.0 5403500.0 6392.2001953125
  vertex 670500.0 5403500.0 6384.2998046875
  vertex 670500.0 5402500.0 6384.7998046875
 endloop
endfacet
facet normal 0.02768957056105137 -0.0004998082295060158 -0.9996164441108704
 outer loop
  vertex 670500.0 5403500.0 6384.2998046875
  vertex 671500.0 5402500.0 6412.5
  vertex 670500.0 5402500.0 6384.7998046875
 endloop
endfacet
facet normal -0.006195923313498497 -0.034378908574581146 -0.9993897080421448
 outer loop
  vertex 670500.0 5403500.0 6384.2998046875
  vertex 671500.0 5403500.0 6378.10009765625
  vertex 671500.0 5402500.0 6412.5
 endloop
endfacet
facet normal 0.005496665369719267 -0.03437904641032219 -0.9993937611579895
 outer loop
  vertex 671500.0 5403500.0 6378.10009765625
  vertex 672500.0 5402500.0 6418.0
  vertex 671500.0 5402500.0 6412.5
 endloop
endfacet
facet normal 0.02368994615972042 -0.01619352400302887 -0.9995881915092468
 outer loop
  vertex 671500.0 5403500.0 6378.10009765625
  vertex 672500.0 5403500.0 6401.7998046875
  vertex 672500.0 5402500.0 6418.0
 endloop
endfacet
facet normal -0.060978397727012634 -0.016167927533388138 -0.9980081915855408
 outer loop
  vertex 672500.0 5403500.0 6401.7998046875
  vertex 673500.0 5402500.0 6356.89990234375
  vertex 672500.0 5402500.0 6418.0
 endloop
endfacet
facet normal -0.021788816899061203 0.023088453337550163 -0.9994959235191345
 outer loop
  vertex 672500.0 5403500.0 6401.7998046875
  vertex 673500.0 5403500.0 6380.0
  vertex 673500.0 5402500.0 6356.89990234375
 endloop
endfacet
facet normal -0.023387262597680092 0.023087620735168457 -0.9994598627090454
 outer loop
  vertex 673500.0 5403500.0 6380.0
  vertex 674500.0 5402500.0 6333.5
  vertex 673500.0 5402500.0 6356.89990234375
 endloop
endfacet
facet normal 0.022241711616516113 0.06862057000398636 -0.997394859790802
 outer loop
  vertex 673500.0 5403500.0 6380.0
  vertex 674500.0 5403500.0 6402.2998046875
  vertex 674500.0 5402500.0 6333.5
 endloop
endfacet
facet normal -0.011870997957885265 0.06863271445035934 -0.9975713491439819
 outer loop
  vertex 674500.0 5403500.0 6402.2998046875
  vertex 675500.0 5402500.0 6321.60009765625
  vertex 674500.0 5402500.0 6333.5
 endloop
endfacet
facet normal -0.014166992157697678 0.06634678691625595 -0.997696042060852
 outer loop
  vertex 674500.0 5403500.0 6402.2998046875
  vertex 675500.0 5403500.0 6388.10009765625
  vertex 675500.0 5402500.0 6321.60009765625
 endloop
endfacet
facet normal -0.0039911530911922455 0.06635291874408722 -0.9977882504463196
 outer loop
  vertex 675500.0 5403500.0 6388.10009765625
  vertex 676500.0 5402500.0 6317.60009765625
  vertex 675500.0 5402500.0 6321.60009765625
 endloop
endfacet
facet normal -0.005488335154950619 0.06486214697360992 -0.997879147529602
 outer loop
  vertex 675500.0 5403500.0 6388.10009765625
  vertex 676500.0 5403500.0 6382.60009765625
  vertex 676500.0 5402500.0 6317.60009765625
 endloop
endfacet
facet normal -0.03988400846719742 0.06481151282787323 -0.9971001744270325
 outer loop
  vertex 676500.0 5403500.0 6382.60009765625
  vertex 677500.0 5402500.0 6277.60009765625
  vertex 676500.0 5402500.0 6317.60009765625
 endloop
endfacet
facet normal -0.023615669459104538 0.08100984990596771 -0.9964334964752197
 outer loop
  vertex 676500.0 5403500.0 6382.60009765625
  vertex 677500.0 5403500.0 6358.89990234375
  vertex 677500.0 5402500.0 6277.60009765625
 endloop
endfacet
facet normal 0.03536112979054451 0.0809817686676979 -0.9960880875587463
 outer loop
  vertex 677500.0 5403500.0 6358.89990234375
  vertex 678500.0 5402500.0 6313.10009765625
  vertex 677500.0 5402500.0 6277.60009765625
 endloop
endfacet
facet normal -0.03896947577595711 0.006794482469558716 -0.9992172718048096
 outer loop
  vertex 677500.0 5403500.0 6358.89990234375
  vertex 678500.0 5403500.0 6319.89990234375
  vertex 678500.0 5402500.0 6313.10009765625
 endloop
endfacet
facet normal -0.010799413546919823 0.006799250841140747 -0.9999185800552368
 outer loop
  vertex 678500.0 5403500.0 6319.89990234375
  vertex 679500.0 5402500.0 6302.2998046875
  vertex 678500.0 5402500.0 6313.10009765625
 endloop
endfacet
facet normal -0.007299222983419895 0.010299472138285637 -0.9999203085899353
 outer loop
  vertex 678500.0 5403500.0 6319.89990234375
  vertex 679500.0 5403500.0 6312.60009765625
  vertex 679500.0 5402500.0 6302.2998046875
 endloop
endfacet
facet normal -0.04006528481841087 0.010291476733982563 -0.9991440176963806
 outer loop
  vertex 679500.0 5403500.0 6312.60009765625
  vertex 680500.0 5402500.0 6262.2001953125
  vertex 679500.0 5402500.0 6302.2998046875
 endloop
endfacet
facet normal -0.045452430844306946 0.004894779529422522 -0.9989545345306396
 outer loop
  vertex 679500.0 5403500.0 6312.60009765625
  vertex 680500.0 5403500.0 6267.10009765625
  vertex 680500.0 5402500.0 6262.2001953125
 endloop
endfacet
facet normal 0.024591874331235886 0.00489836186170578 -0.9996855854988098
 outer loop
  vertex 680500.0 5403500.0 6267.10009765625
  vertex 681500.0 5402500.0 6286.7998046875
  vertex 680500.0 5402500.0 6262.2001953125
 endloop
endfacet
facet normal -0.009495524689555168 -0.029185950756072998 -0.9995288848876953
 outer loop
  vertex 680500.0 5403500.0 6267.10009765625
  vertex 681500.0 5403500.0 6257.60009765625
  vertex 681500.0 5402500.0 6286.7998046875
 endloop
endfacet
facet normal -0.013892640359699726 -0.029184451326727867 -0.9994775056838989
 outer loop
  vertex 681500.0 5403500.0 6257.60009765625
  vertex 682500.0 5402500.0 6272.89990234375
  vertex 681500.0 5402500.0 6286.7998046875
 endloop
endfacet
facet normal 0.03616812452673912 0.020881667733192444 -0.9991275072097778
 outer loop
  vertex 681500.0 5403500.0 6257.60009765625
  vertex 682500.0 5403500.0 6293.7998046875
  vertex 682500.0 5402500.0 6272.89990234375
 endloop
endfacet
facet normal -0.017271993681788445 0.2620652914047241 -0.9648956060409546
 outer loop
  vertex 666500.0 5404500.0 6685.2998046875
  vertex 667500.0 5403500.0 6395.7998046875
  vertex 666500.0 5403500.0 6413.7001953125
 endloop
endfacet
facet normal -0.07451438158750534 0.20784084498882294 -0.9753203392028809
 outer loop
  vertex 666500.0 5404500.0 6685.2998046875
  vertex 667500.0 5404500.0 6608.89990234375
  vertex 667500.0 5403500.0 6395.7998046875
 endloop
endfacet
facet normal -0.008117275312542915 0.20841340720653534 -0.9780071377754211
 outer loop
  vertex 667500.0 5404500.0 6608.89990234375
  vertex 668500.0 5403500.0 6387.5
  vertex 667500.0 5403500.0 6395.7998046875
 endloop
endfacet
facet normal -0.14484913647174835 0.07360880076885223 -0.9867119789123535
 outer loop
  vertex 667500.0 5404500.0 6608.89990234375
  vertex 668500.0 5404500.0 6462.10009765625
  vertex 668500.0 5403500.0 6387.5
 endloop
endfacet
facet normal 0.0046871118247509 0.07439255714416504 -0.9972180128097534
 outer loop
  vertex 668500.0 5404500.0 6462.10009765625
  vertex 669500.0 5403500.0 6392.2001953125
  vertex 668500.0 5403500.0 6387.5
 endloop
endfacet
facet normal 0.059688501060009 0.12887978553771973 -0.9898622632026672
 outer loop
  vertex 668500.0 5404500.0 6462.10009765625
  vertex 669500.0 5404500.0 6522.39990234375
  vertex 669500.0 5403500.0 6392.2001953125
 endloop
endfacet
facet normal -0.007834026589989662 0.12910600006580353 -0.9915998578071594
 outer loop
  vertex 669500.0 5404500.0 6522.39990234375
  vertex 670500.0 5403500.0 6384.2998046875
  vertex 669500.0 5403500.0 6392.2001953125
 endloop
endfacet
facet normal -0.11726187914609909 0.019858049228787422 -0.9929024577140808
 outer loop
  vertex 669500.0 5404500.0 6522.39990234375
  vertex 670500.0 5404500.0 6404.2998046875
  vertex 670500.0 5403500.0 6384.2998046875
 endloop
endfacet
facet normal -0.006198348477482796 0.019995616748929024 -0.9997808337211609
 outer loop
  vertex 670500.0 5404500.0 6404.2998046875
  vertex 671500.0 5403500.0 6378.10009765625
  vertex 670500.0 5403500.0 6384.2998046875
 endloop
endfacet
facet normal 0.03202924132347107 0.058171119540929794 -0.9977927207946777
 outer loop
  vertex 670500.0 5404500.0 6404.2998046875
  vertex 671500.0 5404500.0 6436.39990234375
  vertex 671500.0 5403500.0 6378.10009765625
 endloop
endfacet
facet normal 0.02365291491150856 0.05818469822406769 -0.9980255961418152
 outer loop
  vertex 671500.0 5404500.0 6436.39990234375
  vertex 672500.0 5403500.0 6401.7998046875
  vertex 671500.0 5403500.0 6378.10009765625
 endloop
endfacet
facet normal 0.12222415953874588 0.15613724291324615 -0.9801441431045532
 outer loop
  vertex 671500.0 5404500.0 6436.39990234375
  vertex 672500.0 5404500.0 6561.10009765625
  vertex 672500.0 5403500.0 6401.7998046875
 endloop
endfacet
facet normal -0.021523362025618553 0.15728028118610382 -0.9873194098472595
 outer loop
  vertex 672500.0 5404500.0 6561.10009765625
  vertex 673500.0 5403500.0 6380.0
  vertex 672500.0 5403500.0 6401.7998046875
 endloop
endfacet
facet normal -0.12217272818088531 0.05727122351527214 -0.9908550977706909
 outer loop
  vertex 672500.0 5404500.0 6561.10009765625
  vertex 673500.0 5404500.0 6437.7998046875
  vertex 673500.0 5403500.0 6380.0
 endloop
endfacet
facet normal 0.022257134318351746 0.057689204812049866 -0.9980864524841309
 outer loop
  vertex 673500.0 5404500.0 6437.7998046875
  vertex 674500.0 5403500.0 6402.2998046875
  vertex 673500.0 5403500.0 6380.0
 endloop
endfacet
facet normal -0.01849416457116604 0.01699463650584221 -0.9996845126152039
 outer loop
  vertex 673500.0 5404500.0 6437.7998046875
  vertex 674500.0 5404500.0 6419.2998046875
  vertex 674500.0 5403500.0 6402.2998046875
 endloop
endfacet
facet normal -0.014196225441992283 0.016995832324028015 -0.999754786491394
 outer loop
  vertex 674500.0 5404500.0 6419.2998046875
  vertex 675500.0 5403500.0 6388.10009765625
  vertex 674500.0 5403500.0 6402.2998046875
 endloop
endfacet
facet normal -0.020694134756922722 0.01049717329442501 -0.9997307658195496
 outer loop
  vertex 674500.0 5404500.0 6419.2998046875
  vertex 675500.0 5404500.0 6398.60009765625
  vertex 675500.0 5403500.0 6388.10009765625
 endloop
endfacet
facet normal -0.005499613471329212 0.010499262250959873 -0.9999297261238098
 outer loop
  vertex 675500.0 5404500.0 6398.60009765625
  vertex 676500.0 5403500.0 6382.60009765625
  vertex 675500.0 5403500.0 6388.10009765625
 endloop
endfacet
facet normal -0.006399476435035467 0.009599458426237106 -0.9999334216117859
 outer loop
  vertex 675500.0 5404500.0 6398.60009765625
  vertex 676500.0 5404500.0 6392.2001953125
  vertex 676500.0 5403500.0 6382.60009765625
 endloop
endfacet
facet normal -0.023692451417446136 0.009596960619091988 -0.9996732473373413
 outer loop
  vertex 676500.0 5404500.0 6392.2001953125
  vertex 677500.0 5403500.0 6358.89990234375
  vertex 676500.0 5403500.0 6382.60009765625
 endloop
endfacet
facet normal 0.01278518047183752 0.046047426760196686 -0.9988574385643005
 outer loop
  vertex 676500.0 5404500.0 6392.2001953125
  vertex 677500.0 5404500.0 6405.0
  vertex 677500.0 5403500.0 6358.89990234375
 endloop
endfacet
facet normal -0.03892908990383148 0.046016283333301544 -0.9981818795204163
 outer loop
  vertex 677500.0 5404500.0 6405.0
  vertex 678500.0 5403500.0 6319.89990234375
  vertex 677500.0 5403500.0 6358.89990234375
 endloop
endfacet
facet normal -0.02524663880467415 0.059674620628356934 -0.9978985786437988
 outer loop
  vertex 677500.0 5404500.0 6405.0
  vertex 678500.0 5404500.0 6379.7001953125
  vertex 678500.0 5403500.0 6319.89990234375
 endloop
endfacet
facet normal -0.007286589592695236 0.05969206616282463 -0.9981902241706848
 outer loop
  vertex 678500.0 5404500.0 6379.7001953125
  vertex 679500.0 5403500.0 6312.60009765625
  vertex 678500.0 5403500.0 6319.89990234375
 endloop
endfacet
facet normal -0.01437894906848669 0.05262123420834541 -0.998511016368866
 outer loop
  vertex 678500.0 5404500.0 6379.7001953125
  vertex 679500.0 5404500.0 6365.2998046875
  vertex 679500.0 5403500.0 6312.60009765625
 endloop
endfacet
facet normal -0.045390114188194275 0.05257244035601616 -0.9975850582122803
 outer loop
  vertex 679500.0 5404500.0 6365.2998046875
  vertex 680500.0 5403500.0 6267.10009765625
  vertex 679500.0 5403500.0 6312.60009765625
 endloop
endfacet
facet normal -0.006073791068047285 0.09171025454998016 -0.9957672357559204
 outer loop
  vertex 679500.0 5404500.0 6365.2998046875
  vertex 680500.0 5404500.0 6359.2001953125
  vertex 680500.0 5403500.0 6267.10009765625
 endloop
endfacet
facet normal -0.0094595393165946 0.09170784056186676 -0.9957410097122192
 outer loop
  vertex 680500.0 5404500.0 6359.2001953125
  vertex 681500.0 5403500.0 6257.60009765625
  vertex 680500.0 5403500.0 6267.10009765625
 endloop
endfacet
facet normal -0.005076449830085039 0.09605255722999573 -0.9953632950782776
 outer loop
  vertex 680500.0 5404500.0 6359.2001953125
  vertex 681500.0 5404500.0 6354.10009765625
  vertex 681500.0 5403500.0 6257.60009765625
 endloop
endfacet
facet normal 0.03600895777344704 0.09599149972200394 -0.9947305917739868
 outer loop
  vertex 681500.0 5404500.0 6354.10009765625
  vertex 682500.0 5403500.0 6293.7998046875
  vertex 681500.0 5403500.0 6257.60009765625
 endloop
endfacet
facet normal -0.05571306124329567 0.0044929650612175465 -0.998436689376831
 outer loop
  vertex 681500.0 5404500.0 6354.10009765625
  vertex 682500.0 5404500.0 6298.2998046875
  vertex 682500.0 5403500.0 6293.7998046875
 endloop
endfacet
facet normal -0.0746796652674675 -0.19735386967658997 -0.9774837493896484
 outer loop
  vertex 666500.0 5405500.0 6483.39990234375
  vertex 667500.0 5404500.0 6608.89990234375
  vertex 666500.0 5404500.0 6685.2998046875
 endloop
endfacet
facet normal -0.0466560423374176 -0.17018653452396393 -0.9843066930770874
 outer loop
  vertex 666500.0 5405500.0 6483.39990234375
  vertex 667500.0 5405500.0 6436.0
  vertex 667500.0 5404500.0 6608.89990234375
 endloop
endfacet
facet normal -0.1431635022163391 -0.16861708462238312 -0.9752295017242432
 outer loop
  vertex 667500.0 5405500.0 6436.0
  vertex 668500.0 5404500.0 6462.10009765625
  vertex 667500.0 5404500.0 6608.89990234375
 endloop
endfacet
facet normal -0.010791831649839878 -0.036872658878564835 -0.999261736869812
 outer loop
  vertex 667500.0 5405500.0 6436.0
  vertex 668500.0 5405500.0 6425.2001953125
  vertex 668500.0 5404500.0 6462.10009765625
 endloop
endfacet
facet normal 0.06014968454837799 -0.036808039993047714 -0.997510552406311
 outer loop
  vertex 668500.0 5405500.0 6425.2001953125
  vertex 669500.0 5404500.0 6522.39990234375
  vertex 668500.0 5404500.0 6462.10009765625
 endloop
endfacet
facet normal 0.03208180516958237 0.010494016110897064 -0.9994301199913025
 outer loop
  vertex 670500.0 5405500.0 6414.7998046875
  vertex 671500.0 5404500.0 6436.39990234375
  vertex 670500.0 5404500.0 6404.2998046875
 endloop
endfacet
facet normal 0.03327957168221474 0.011692914180457592 -0.9993777275085449
 outer loop
  vertex 670500.0 5405500.0 6414.7998046875
  vertex 671500.0 5405500.0 6448.10009765625
  vertex 671500.0 5404500.0 6436.39990234375
 endloop
endfacet
facet normal 0.12373346835374832 0.011609490029513836 -0.9922475814819336
 outer loop
  vertex 671500.0 5405500.0 6448.10009765625
  vertex 672500.0 5404500.0 6561.10009765625
  vertex 671500.0 5404500.0 6436.39990234375
 endloop
endfacet
facet normal -0.0063985674642026424 0.01939585618674755 -0.9997914433479309
 outer loop
  vertex 675500.0 5405500.0 6418.0
  vertex 676500.0 5404500.0 6392.2001953125
  vertex 675500.0 5404500.0 6398.60009765625
 endloop
endfacet
facet normal -0.03188309073448181 -0.006096883211284876 -0.9994730353355408
 outer loop
  vertex 675500.0 5405500.0 6418.0
  vertex 676500.0 5405500.0 6386.10009765625
  vertex 676500.0 5404500.0 6392.2001953125
 endloop
endfacet
facet normal 0.012798518873751163 -0.006099484860897064 -0.9998995065689087
 outer loop
  vertex 676500.0 5405500.0 6386.10009765625
  vertex 677500.0 5404500.0 6405.0
  vertex 676500.0 5404500.0 6392.2001953125
 endloop
endfacet
facet normal -0.004698834847658873 -0.023593267425894737 -0.9997105598449707
 outer loop
  vertex 676500.0 5405500.0 6386.10009765625
  vertex 677500.0 5405500.0 6381.39990234375
  vertex 677500.0 5404500.0 6405.0
 endloop
endfacet
facet normal -0.025284675881266594 -0.023585986346006393 -0.9994020462036133
 outer loop
  vertex 677500.0 5405500.0 6381.39990234375
  vertex 678500.0 5404500.0 6379.7001953125
  vertex 677500.0 5404500.0 6405.0
 endloop
endfacet
facet normal 0.0009999958565458655 0.0026996959932148457 -0.9999958872795105
 outer loop
  vertex 677500.0 5405500.0 6381.39990234375
  vertex 678500.0 5405500.0 6382.39990234375
  vertex 678500.0 5404500.0 6379.7001953125
 endloop
endfacet
facet normal -0.014398845843970776 0.002699417294934392 -0.9998927116394043
 outer loop
  vertex 678500.0 5405500.0 6382.39990234375
  vertex 679500.0 5404500.0 6365.2998046875
  vertex 678500.0 5404500.0 6379.7001953125
 endloop
endfacet
facet normal -0.012498891912400723 0.00459968950599432 -0.9999113082885742
 outer loop
  vertex 678500.0 5405500.0 6382.39990234375
  vertex 679500.0 5405500.0 6369.89990234375
  vertex 679500.0 5404500.0 6365.2998046875
 endloop
endfacet
facet normal -0.006099431309849024 0.004599963314831257 -0.9999707937240601
 outer loop
  vertex 679500.0 5405500.0 6369.89990234375
  vertex 680500.0 5404500.0 6359.2001953125
  vertex 679500.0 5404500.0 6365.2998046875
 endloop
endfacet
facet normal -0.052084024995565414 -0.041408028453588486 -0.9977838397026062
 outer loop
  vertex 679500.0 5405500.0 6369.89990234375
  vertex 680500.0 5405500.0 6317.7001953125
  vertex 680500.0 5404500.0 6359.2001953125
 endloop
endfacet
facet normal -0.005095645319670439 -0.04146376997232437 -0.9991270303726196
 outer loop
  vertex 680500.0 5405500.0 6317.7001953125
  vertex 681500.0 5404500.0 6354.10009765625
  vertex 680500.0 5404500.0 6359.2001953125
 endloop
endfacet
facet normal 0.0459492951631546 0.009589515626430511 -0.9988977313041687
 outer loop
  vertex 680500.0 5405500.0 6317.7001953125
  vertex 681500.0 5405500.0 6363.7001953125
  vertex 681500.0 5404500.0 6354.10009765625
 endloop
endfacet
facet normal -0.055711064487695694 0.009584746323525906 -0.9984009265899658
 outer loop
  vertex 681500.0 5405500.0 6363.7001953125
  vertex 682500.0 5404500.0 6298.2998046875
  vertex 681500.0 5404500.0 6354.10009765625
 endloop
endfacet
facet normal -0.007887117564678192 0.05740339308977127 -0.9983198642730713
 outer loop
  vertex 681500.0 5405500.0 6363.7001953125
  vertex 682500.0 5405500.0 6355.7998046875
  vertex 682500.0 5404500.0 6298.2998046875
 endloop
endfacet
facet normal -0.0318787544965744 -0.017588429152965546 -0.9993370175361633
 outer loop
  vertex 675500.0 5406500.0 6400.39990234375
  vertex 676500.0 5405500.0 6386.10009765625
  vertex 675500.0 5405500.0 6418.0
 endloop
endfacet
facet normal 0.03941231220960617 0.05368037149310112 -0.9977800846099854
 outer loop
  vertex 675500.0 5406500.0 6400.39990234375
  vertex 676500.0 5406500.0 6439.89990234375
  vertex 676500.0 5405500.0 6386.10009765625
 endloop
endfacet
facet normal -0.004693356342613697 0.05372152104973793 -0.9985449314117432
 outer loop
  vertex 676500.0 5406500.0 6439.89990234375
  vertex 677500.0 5405500.0 6381.39990234375
  vertex 676500.0 5405500.0 6386.10009765625
 endloop
endfacet
facet normal -0.060687579214572906 -0.002295559737831354 -0.9981541633605957
 outer loop
  vertex 676500.0 5406500.0 6439.89990234375
  vertex 677500.0 5406500.0 6379.10009765625
  vertex 677500.0 5405500.0 6381.39990234375
 endloop
endfacet
facet normal 0.000999996904283762 -0.0022997974883764982 -0.9999969005584717
 outer loop
  vertex 677500.0 5406500.0 6379.10009765625
  vertex 678500.0 5405500.0 6382.39990234375
  vertex 677500.0 5405500.0 6381.39990234375
 endloop
endfacet
facet normal -0.013996534049510956 -0.01729552261531353 -0.9997524619102478
 outer loop
  vertex 677500.0 5406500.0 6379.10009765625
  vertex 678500.0 5406500.0 6365.10009765625
  vertex 678500.0 5405500.0 6382.39990234375
 endloop
endfacet
facet normal -0.01249715406447649 -0.01729586534202099 -0.999772310256958
 outer loop
  vertex 678500.0 5406500.0 6365.10009765625
  vertex 679500.0 5405500.0 6369.89990234375
  vertex 678500.0 5405500.0 6382.39990234375
 endloop
endfacet
facet normal 0.004100062418729067 -0.0006997010204941034 -0.9999913573265076
 outer loop
  vertex 678500.0 5406500.0 6365.10009765625
  vertex 679500.0 5406500.0 6369.2001953125
  vertex 679500.0 5405500.0 6369.89990234375
 endloop
endfacet
facet normal -0.05212872102856636 -0.0006987554952502251 -0.9986401200294495
 outer loop
  vertex 679500.0 5406500.0 6369.2001953125
  vertex 680500.0 5405500.0 6317.7001953125
  vertex 679500.0 5405500.0 6369.89990234375
 endloop
endfacet
facet normal -0.0055941203609108925 0.04585091024637222 -0.9989326596260071
 outer loop
  vertex 679500.0 5406500.0 6369.2001953125
  vertex 680500.0 5406500.0 6363.60009765625
  vertex 680500.0 5405500.0 6317.7001953125
 endloop
endfacet
facet normal 0.04590317979454994 0.04580329358577728 -0.9978952407836914
 outer loop
  vertex 680500.0 5406500.0 6363.60009765625
  vertex 681500.0 5405500.0 6363.7001953125
  vertex 680500.0 5405500.0 6317.7001953125
 endloop
endfacet
facet normal -0.000999998883344233 -0.0011000963859260082 -0.9999988675117493
 outer loop
  vertex 680500.0 5406500.0 6363.60009765625
  vertex 681500.0 5406500.0 6362.60009765625
  vertex 681500.0 5405500.0 6363.7001953125
 endloop
endfacet
facet normal -0.007900139316916466 -0.0011000626254826784 -0.9999681711196899
 outer loop
  vertex 681500.0 5406500.0 6362.60009765625
  vertex 682500.0 5405500.0 6355.7998046875
  vertex 681500.0 5405500.0 6363.7001953125
 endloop
endfacet
facet normal 0.03946502134203911 0.014587168581783772 -0.999114453792572
 outer loop
  vertex 675500.0 5407500.0 6415.0
  vertex 676500.0 5406500.0 6439.89990234375
  vertex 675500.0 5406500.0 6400.39990234375
 endloop
endfacet
facet normal -0.04167090728878975 -0.06649401783943176 -0.9969162940979004
 outer loop
  vertex 675500.0 5407500.0 6415.0
  vertex 676500.0 5407500.0 6373.2001953125
  vertex 676500.0 5406500.0 6439.89990234375
 endloop
endfacet
facet normal -0.06055368110537529 -0.06642969697713852 -0.9959519505500793
 outer loop
  vertex 676500.0 5407500.0 6373.2001953125
  vertex 677500.0 5406500.0 6379.10009765625
  vertex 676500.0 5406500.0 6439.89990234375
 endloop
endfacet
facet normal 0.012098492123186588 0.006199134513735771 -0.9999076128005981
 outer loop
  vertex 676500.0 5407500.0 6373.2001953125
  vertex 677500.0 5407500.0 6385.2998046875
  vertex 677500.0 5406500.0 6379.10009765625
 endloop
endfacet
facet normal -0.013998359441757202 0.006198980379849672 -0.9998828172683716
 outer loop
  vertex 677500.0 5407500.0 6385.2998046875
  vertex 678500.0 5406500.0 6365.10009765625
  vertex 677500.0 5406500.0 6379.10009765625
 endloop
endfacet
facet normal 0.08949197083711624 0.10948869585990906 -0.9899511933326721
 outer loop
  vertex 677500.0 5407500.0 6385.2998046875
  vertex 678500.0 5407500.0 6475.7001953125
  vertex 678500.0 5406500.0 6365.10009765625
 endloop
endfacet
facet normal 0.00407521054148674 0.10992887616157532 -0.9939311146736145
 outer loop
  vertex 678500.0 5407500.0 6475.7001953125
  vertex 679500.0 5406500.0 6369.2001953125
  vertex 678500.0 5406500.0 6365.10009765625
 endloop
endfacet
facet normal -0.04168948903679848 0.05944279953837395 -0.9973608255386353
 outer loop
  vertex 675500.0 5408500.0 6474.60009765625
  vertex 676500.0 5407500.0 6373.2001953125
  vertex 675500.0 5407500.0 6415.0
 endloop
endfacet
facet normal -0.03709821403026581 0.0640237107872963 -0.9972586035728455
 outer loop
  vertex 675500.0 5408500.0 6474.60009765625
  vertex 676500.0 5408500.0 6437.39990234375
  vertex 676500.0 5407500.0 6373.2001953125
 endloop
endfacet
facet normal 0.012073870748281479 0.06406313925981522 -0.9978727698326111
 outer loop
  vertex 676500.0 5408500.0 6437.39990234375
  vertex 677500.0 5407500.0 6385.2998046875
  vertex 676500.0 5407500.0 6373.2001953125
 endloop
endfacet
facet normal 0.01337005477398634 0.06535410135984421 -0.9977725148200989
 outer loop
  vertex 676500.0 5408500.0 6437.39990234375
  vertex 677500.0 5408500.0 6450.7998046875
  vertex 677500.0 5407500.0 6385.2998046875
 endloop
endfacet
facet normal 0.0898422971367836 0.06509563326835632 -0.9938263893127441
 outer loop
  vertex 677500.0 5408500.0 6450.7998046875
  vertex 678500.0 5407500.0 6475.7001953125
  vertex 677500.0 5407500.0 6385.2998046875
 endloop
endfacet
facet normal -0.03705449029803276 0.08028438687324524 -0.9960830211639404
 outer loop
  vertex 675500.0 5409500.0 6555.2001953125
  vertex 676500.0 5408500.0 6437.39990234375
  vertex 675500.0 5408500.0 6474.60009765625
 endloop
endfacet
endsolid
