solid
facet normal -0.026374628767371178 -0.035166170448064804 -0.9990334510803223
 outer loop
  vertex 601500.0 5784500.0 3420.800048828125
  vertex 602500.0 5784500.0 3394.39990234375
  vertex 602500.0 5783500.0 3429.60009765625
 endloop
endfacet
facet normal 0.09983645379543304 -0.03500265255570412 -0.9943879842758179
 outer loop
  vertex 602500.0 5784500.0 3394.39990234375
  vertex 603500.0 5783500.0 3530.0
  vertex 602500.0 5783500.0 3429.60009765625
 endloop
endfacet
facet normal 0.01926690712571144 -0.11540188640356064 -0.9931319952011108
 outer loop
  vertex 602500.0 5784500.0 3394.39990234375
  vertex 603500.0 5784500.0 3413.800048828125
  vertex 603500.0 5783500.0 3530.0
 endloop
endfacet
facet normal -0.07301198691129684 -0.11511525511741638 -0.9906652569770813
 outer loop
  vertex 603500.0 5784500.0 3413.800048828125
  vertex 604500.0 5783500.0 3456.300048828125
  vertex 603500.0 5783500.0 3530.0
 endloop
endfacet
facet normal 0.015792449936270714 -0.02668711170554161 -0.9995191097259521
 outer loop
  vertex 603500.0 5784500.0 3413.800048828125
  vertex 604500.0 5784500.0 3429.60009765625
  vertex 604500.0 5783500.0 3456.300048828125
 endloop
endfacet
facet normal 0.05899373069405556 -0.01038147322833538 -0.9982043504714966
 outer loop
  vertex 597500.0 5785500.0 3445.800048828125
  vertex 598500.0 5785500.0 3504.89990234375
  vertex 598500.0 5784500.0 3515.300048828125
 endloop
endfacet
facet normal 0.09210185706615448 -0.010355381295084953 -0.9956957101821899
 outer loop
  vertex 598500.0 5785500.0 3504.89990234375
  vertex 599500.0 5784500.0 3607.800048828125
  vertex 598500.0 5784500.0 3515.300048828125
 endloop
endfacet
facet normal 0.22182250022888184 0.12227796018123627 -0.967389702796936
 outer loop
  vertex 598500.0 5785500.0 3504.89990234375
  vertex 599500.0 5785500.0 3734.199951171875
  vertex 599500.0 5784500.0 3607.800048828125
 endloop
endfacet
facet normal -0.15342627465724945 0.123917356133461 -0.9803595542907715
 outer loop
  vertex 599500.0 5785500.0 3734.199951171875
  vertex 600500.0 5784500.0 3451.300048828125
  vertex 599500.0 5784500.0 3607.800048828125
 endloop
endfacet
facet normal -0.26433977484703064 0.008486712351441383 -0.9643923044204712
 outer loop
  vertex 599500.0 5785500.0 3734.199951171875
  vertex 600500.0 5785500.0 3460.10009765625
  vertex 600500.0 5784500.0 3451.300048828125
 endloop
endfacet
facet normal -0.030484642833471298 0.008795619010925293 -0.999496579170227
 outer loop
  vertex 600500.0 5785500.0 3460.10009765625
  vertex 601500.0 5784500.0 3420.800048828125
  vertex 600500.0 5784500.0 3451.300048828125
 endloop
endfacet
facet normal -0.032582055777311325 0.006696241442114115 -0.9994466304779053
 outer loop
  vertex 600500.0 5785500.0 3460.10009765625
  vertex 601500.0 5785500.0 3427.5
  vertex 601500.0 5784500.0 3420.800048828125
 endloop
endfacet
facet normal -0.026390358805656433 0.006697467062622309 -0.9996292591094971
 outer loop
  vertex 601500.0 5785500.0 3427.5
  vertex 602500.0 5784500.0 3394.39990234375
  vertex 601500.0 5784500.0 3420.800048828125
 endloop
endfacet
facet normal -0.05311413109302521 -0.020067431032657623 -0.998386800289154
 outer loop
  vertex 601500.0 5785500.0 3427.5
  vertex 602500.0 5785500.0 3374.300048828125
  vertex 602500.0 5784500.0 3394.39990234375
 endloop
endfacet
facet normal 0.019392581656575203 -0.020092016085982323 -0.9996100664138794
 outer loop
  vertex 602500.0 5785500.0 3374.300048828125
  vertex 603500.0 5784500.0 3413.800048828125
  vertex 602500.0 5784500.0 3394.39990234375
 endloop
endfacet
facet normal 0.01769297756254673 -0.021791458129882812 -0.9996059536933899
 outer loop
  vertex 602500.0 5785500.0 3374.300048828125
  vertex 603500.0 5785500.0 3392.0
  vertex 603500.0 5784500.0 3413.800048828125
 endloop
endfacet
facet normal 0.01579432561993599 -0.021792151033878326 -0.9996377825737
 outer loop
  vertex 603500.0 5785500.0 3392.0
  vertex 604500.0 5784500.0 3429.60009765625
  vertex 603500.0 5784500.0 3413.800048828125
 endloop
endfacet
facet normal 0.024090908467769623 -0.013494852930307388 -0.9996187090873718
 outer loop
  vertex 603500.0 5785500.0 3392.0
  vertex 604500.0 5785500.0 3416.10009765625
  vertex 604500.0 5784500.0 3429.60009765625
 endloop
endfacet
facet normal 0.12792840600013733 -0.013387857005000114 -0.9916930794715881
 outer loop
  vertex 604500.0 5785500.0 3416.10009765625
  vertex 605500.0 5784500.0 3558.60009765625
  vertex 604500.0 5784500.0 3429.60009765625
 endloop
endfacet
facet normal 0.0238264799118042 -0.11764325201511383 -0.9927700161933899
 outer loop
  vertex 604500.0 5785500.0 3416.10009765625
  vertex 605500.0 5785500.0 3440.10009765625
  vertex 605500.0 5784500.0 3558.60009765625
 endloop
endfacet
facet normal 0.10575925558805466 -0.11701669543981552 -0.9874826669692993
 outer loop
  vertex 605500.0 5785500.0 3440.10009765625
  vertex 606500.0 5784500.0 3665.699951171875
  vertex 605500.0 5784500.0 3558.60009765625
 endloop
endfacet
facet normal 0.13511407375335693 -0.08754287660121918 -0.9869551658630371
 outer loop
  vertex 605500.0 5785500.0 3440.10009765625
  vertex 606500.0 5785500.0 3577.0
  vertex 606500.0 5784500.0 3665.699951171875
 endloop
endfacet
facet normal 0.05896905064582825 -0.03073187731206417 -0.9977866411209106
 outer loop
  vertex 597500.0 5786500.0 3415.0
  vertex 598500.0 5785500.0 3504.89990234375
  vertex 597500.0 5785500.0 3445.800048828125
 endloop
endfacet
facet normal 0.07964212447404861 -0.009967736899852753 -0.9967737197875977
 outer loop
  vertex 597500.0 5786500.0 3415.0
  vertex 598500.0 5786500.0 3494.89990234375
  vertex 598500.0 5785500.0 3504.89990234375
 endloop
endfacet
facet normal 0.22348906099796295 -0.009746577590703964 -0.9746577143669128
 outer loop
  vertex 598500.0 5786500.0 3494.89990234375
  vertex 599500.0 5785500.0 3734.199951171875
  vertex 598500.0 5785500.0 3504.89990234375
 endloop
endfacet
facet normal 0.15993718802928925 -0.07558882236480713 -0.9842288494110107
 outer loop
  vertex 598500.0 5786500.0 3494.89990234375
  vertex 599500.0 5786500.0 3657.39990234375
  vertex 599500.0 5785500.0 3734.199951171875
 endloop
endfacet
facet normal -0.26362717151641846 -0.07386569678783417 -0.9617923498153687
 outer loop
  vertex 599500.0 5786500.0 3657.39990234375
  vertex 600500.0 5785500.0 3460.10009765625
  vertex 599500.0 5785500.0 3734.199951171875
 endloop
endfacet
facet normal -0.18066056072711945 0.013374843634665012 -0.9834545254707336
 outer loop
  vertex 599500.0 5786500.0 3657.39990234375
  vertex 600500.0 5786500.0 3473.699951171875
  vertex 600500.0 5785500.0 3460.10009765625
 endloop
endfacet
facet normal -0.032579779624938965 0.013591377064585686 -0.9993767142295837
 outer loop
  vertex 600500.0 5786500.0 3473.699951171875
  vertex 601500.0 5785500.0 3427.5
  vertex 600500.0 5785500.0 3460.10009765625
 endloop
endfacet
facet normal 0.04407685995101929 0.0900440588593483 -0.9949619770050049
 outer loop
  vertex 600500.0 5786500.0 3473.699951171875
  vertex 601500.0 5786500.0 3518.0
  vertex 601500.0 5785500.0 3427.5
 endloop
endfacet
facet normal -0.052909210324287415 0.09000541269779205 -0.9945349097251892
 outer loop
  vertex 601500.0 5786500.0 3518.0
  vertex 602500.0 5785500.0 3374.300048828125
  vertex 601500.0 5785500.0 3427.5
 endloop
endfacet
facet normal -0.14088068902492523 0.0013859430328011513 -0.9900256395339966
 outer loop
  vertex 601500.0 5786500.0 3518.0
  vertex 602500.0 5786500.0 3375.699951171875
  vertex 602500.0 5785500.0 3374.300048828125
 endloop
endfacet
facet normal 0.017697161063551903 0.0013996816705912352 -0.9998424053192139
 outer loop
  vertex 602500.0 5786500.0 3375.699951171875
  vertex 603500.0 5785500.0 3392.0
  vertex 602500.0 5785500.0 3374.300048828125
 endloop
endfacet
facet normal 0.002099881414324045 -0.014198488555848598 -0.9998970031738281
 outer loop
  vertex 602500.0 5786500.0 3375.699951171875
  vertex 603500.0 5786500.0 3377.800048828125
  vertex 603500.0 5785500.0 3392.0
 endloop
endfacet
facet normal 0.02409067377448082 -0.014194399118423462 -0.9996090531349182
 outer loop
  vertex 603500.0 5786500.0 3377.800048828125
  vertex 604500.0 5785500.0 3416.10009765625
  vertex 603500.0 5785500.0 3392.0
 endloop
endfacet
facet normal 0.035577185451984406 -0.0026984759606420994 -0.9993633031845093
 outer loop
  vertex 603500.0 5786500.0 3377.800048828125
  vertex 604500.0 5786500.0 3413.39990234375
  vertex 604500.0 5785500.0 3416.10009765625
 endloop
endfacet
facet normal 0.023993004113435745 -0.0026994082145392895 -0.9997085332870483
 outer loop
  vertex 604500.0 5786500.0 3413.39990234375
  vertex 605500.0 5785500.0 3440.10009765625
  vertex 604500.0 5785500.0 3416.10009765625
 endloop
endfacet
facet normal 0.0304856039583683 0.003798010991886258 -0.9995279908180237
 outer loop
  vertex 604500.0 5786500.0 3413.39990234375
  vertex 605500.0 5786500.0 3443.89990234375
  vertex 605500.0 5785500.0 3440.10009765625
 endloop
endfacet
facet normal 0.13563384115695953 0.003764663590118289 -0.9907518625259399
 outer loop
  vertex 605500.0 5786500.0 3443.89990234375
  vertex 606500.0 5785500.0 3577.0
  vertex 605500.0 5785500.0 3440.10009765625
 endloop
endfacet
facet normal 0.04667593911290169 -0.08578786253929138 -0.9952194690704346
 outer loop
  vertex 605500.0 5786500.0 3443.89990234375
  vertex 606500.0 5786500.0 3490.800048828125
  vertex 606500.0 5785500.0 3577.0
 endloop
endfacet
facet normal 0.07929356396198273 0.0939812958240509 -0.992411196231842
 outer loop
  vertex 597500.0 5787500.0 3509.699951171875
  vertex 598500.0 5786500.0 3494.89990234375
  vertex 597500.0 5786500.0 3415.0
 endloop
endfacet
facet normal -0.02728775143623352 -0.01249436940997839 -0.9995495676994324
 outer loop
  vertex 597500.0 5787500.0 3509.699951171875
  vertex 598500.0 5787500.0 3482.39990234375
  vertex 598500.0 5786500.0 3494.89990234375
 endloop
endfacet
facet normal 0.16038386523723602 -0.012337220832705498 -0.9869776368141174
 outer loop
  vertex 598500.0 5787500.0 3482.39990234375
  vertex 599500.0 5786500.0 3657.39990234375
  vertex 598500.0 5786500.0 3494.89990234375
 endloop
endfacet
facet normal -0.03355344012379646 -0.20474545657634735 -0.9782400131225586
 outer loop
  vertex 598500.0 5787500.0 3482.39990234375
  vertex 599500.0 5787500.0 3448.10009765625
  vertex 599500.0 5786500.0 3657.39990234375
 endloop
endfacet
facet normal -0.17696602642536163 -0.2016274780035019 -0.9633428454399109
 outer loop
  vertex 599500.0 5787500.0 3448.10009765625
  vertex 600500.0 5786500.0 3473.699951171875
  vertex 599500.0 5786500.0 3657.39990234375
 endloop
endfacet
facet normal 0.07834766060113907 0.05286240205168724 -0.9955235719680786
 outer loop
  vertex 599500.0 5787500.0 3448.10009765625
  vertex 600500.0 5787500.0 3526.800048828125
  vertex 600500.0 5786500.0 3473.699951171875
 endloop
endfacet
facet normal 0.044194500893354416 0.052973587065935135 -0.9976174831390381
 outer loop
  vertex 600500.0 5787500.0 3526.800048828125
  vertex 601500.0 5786500.0 3518.0
  vertex 600500.0 5786500.0 3473.699951171875
 endloop
endfacet
facet normal -0.11110951006412506 -0.10241051018238068 -0.9885174632072449
 outer loop
  vertex 600500.0 5787500.0 3526.800048828125
  vertex 601500.0 5787500.0 3414.39990234375
  vertex 601500.0 5786500.0 3518.0
 endloop
endfacet
facet normal -0.14014558494091034 -0.10203156620264053 -0.9848597645759583
 outer loop
  vertex 601500.0 5787500.0 3414.39990234375
  vertex 602500.0 5786500.0 3375.699951171875
  vertex 601500.0 5786500.0 3518.0
 endloop
endfacet
facet normal -0.04704603925347328 -0.008390301838517189 -0.9988574981689453
 outer loop
  vertex 601500.0 5787500.0 3414.39990234375
  vertex 602500.0 5787500.0 3367.300048828125
  vertex 602500.0 5786500.0 3375.699951171875
 endloop
endfacet
facet normal 0.0021000190172344446 -0.008399587124586105 -0.9999625086784363
 outer loop
  vertex 602500.0 5787500.0 3367.300048828125
  vertex 603500.0 5786500.0 3377.800048828125
  vertex 602500.0 5786500.0 3375.699951171875
 endloop
endfacet
facet normal 0.04681747034192085 0.03633592650294304 -0.9982423782348633
 outer loop
  vertex 602500.0 5787500.0 3367.300048828125
  vertex 603500.0 5787500.0 3414.199951171875
  vertex 603500.0 5786500.0 3377.800048828125
 endloop
endfacet
facet normal 0.03555379807949066 0.03635281324386597 -0.9987063407897949
 outer loop
  vertex 603500.0 5787500.0 3414.199951171875
  vertex 604500.0 5786500.0 3413.39990234375
  vertex 603500.0 5786500.0 3377.800048828125
 endloop
endfacet
facet normal 0.05948546528816223 0.060282640159130096 -0.9964072704315186
 outer loop
  vertex 603500.0 5787500.0 3414.199951171875
  vertex 604500.0 5787500.0 3473.89990234375
  vertex 604500.0 5786500.0 3413.39990234375
 endloop
endfacet
facet normal 0.030430234968662262 0.06036161258816719 -0.9977126121520996
 outer loop
  vertex 604500.0 5787500.0 3473.89990234375
  vertex 605500.0 5786500.0 3443.89990234375
  vertex 604500.0 5786500.0 3413.39990234375
 endloop
endfacet
facet normal 0.08102627098560333 0.11074248701334 -0.990540623664856
 outer loop
  vertex 604500.0 5787500.0 3473.89990234375
  vertex 605500.0 5787500.0 3555.699951171875
  vertex 605500.0 5786500.0 3443.89990234375
 endloop
endfacet
facet normal 0.046559207141399384 0.11098732799291611 -0.9927306175231934
 outer loop
  vertex 605500.0 5787500.0 3555.699951171875
  vertex 606500.0 5786500.0 3490.800048828125
  vertex 605500.0 5786500.0 3443.89990234375
 endloop
endfacet
facet normal 0.04271283745765686 0.10717933624982834 -0.9933218359947205
 outer loop
  vertex 605500.0 5787500.0 3555.699951171875
  vertex 606500.0 5787500.0 3598.699951171875
  vertex 606500.0 5786500.0 3490.800048828125
 endloop
endfacet
facet normal 0.14971452951431274 0.10606813430786133 -0.9830234050750732
 outer loop
  vertex 606500.0 5787500.0 3598.699951171875
  vertex 607500.0 5786500.0 3643.10009765625
  vertex 606500.0 5786500.0 3490.800048828125
 endloop
endfacet
facet normal 0.01139320433139801 -0.03297990560531616 -0.9993910789489746
 outer loop
  vertex 606500.0 5787500.0 3598.699951171875
  vertex 607500.0 5787500.0 3610.10009765625
  vertex 607500.0 5786500.0 3643.10009765625
 endloop
endfacet
facet normal -0.19044402241706848 -0.032378412783145905 -0.9811639785766602
 outer loop
  vertex 607500.0 5787500.0 3610.10009765625
  vertex 608500.0 5786500.0 3449.0
  vertex 607500.0 5786500.0 3643.10009765625
 endloop
endfacet
facet normal -0.16825874149799347 -0.00946278776973486 -0.9856974482536316
 outer loop
  vertex 607500.0 5787500.0 3610.10009765625
  vertex 608500.0 5787500.0 3439.39990234375
  vertex 608500.0 5786500.0 3449.0
 endloop
endfacet
facet normal -0.027276955544948578 0.03077399544417858 -0.9991540908813477
 outer loop
  vertex 597500.0 5788500.0 3540.5
  vertex 598500.0 5787500.0 3482.39990234375
  vertex 597500.0 5787500.0 3509.699951171875
 endloop
endfacet
facet normal 0.009876611642539501 0.06784001737833023 -0.9976473450660706
 outer loop
  vertex 597500.0 5788500.0 3540.5
  vertex 598500.0 5788500.0 3550.39990234375
  vertex 598500.0 5787500.0 3482.39990234375
 endloop
endfacet
facet normal -0.0342007577419281 0.06780363619327545 -0.9971122741699219
 outer loop
  vertex 598500.0 5788500.0 3550.39990234375
  vertex 599500.0 5787500.0 3448.10009765625
  vertex 598500.0 5787500.0 3482.39990234375
 endloop
endfacet
facet normal -0.080122210085392 0.02182425744831562 -0.9965460896492004
 outer loop
  vertex 598500.0 5788500.0 3550.39990234375
  vertex 599500.0 5788500.0 3470.0
  vertex 599500.0 5787500.0 3448.10009765625
 endloop
endfacet
facet normal 0.0784386694431305 0.021827194839715958 -0.9966800212860107
 outer loop
  vertex 599500.0 5788500.0 3470.0
  vertex 600500.0 5787500.0 3526.800048828125
  vertex 599500.0 5787500.0 3448.10009765625
 endloop
endfacet
facet normal 0.016684217378497124 -0.040062315762043 -0.9990578889846802
 outer loop
  vertex 599500.0 5788500.0 3470.0
  vertex 600500.0 5788500.0 3486.699951171875
  vertex 600500.0 5787500.0 3526.800048828125
 endloop
endfacet
facet normal -0.11160819977521896 -0.03981756046414375 -0.9929542541503906
 outer loop
  vertex 600500.0 5788500.0 3486.699951171875
  vertex 601500.0 5787500.0 3414.39990234375
  vertex 600500.0 5787500.0 3526.800048828125
 endloop
endfacet
facet normal -0.04024679213762283 0.0319577157497406 -0.9986785650253296
 outer loop
  vertex 600500.0 5788500.0 3486.699951171875
  vertex 601500.0 5788500.0 3446.39990234375
  vertex 601500.0 5787500.0 3414.39990234375
 endloop
endfacet
facet normal -0.04702368006110191 0.03194824606180191 -0.9983827471733093
 outer loop
  vertex 601500.0 5788500.0 3446.39990234375
  vertex 602500.0 5787500.0 3367.300048828125
  vertex 601500.0 5787500.0 3414.39990234375
 endloop
endfacet
facet normal -0.0379406102001667 0.04103561490774155 -0.9984370470046997
 outer loop
  vertex 601500.0 5788500.0 3446.39990234375
  vertex 602500.0 5788500.0 3408.39990234375
  vertex 602500.0 5787500.0 3367.300048828125
 endloop
endfacet
facet normal 0.04680897295475006 0.041020169854164124 -0.9980612397193909
 outer loop
  vertex 602500.0 5788500.0 3408.39990234375
  vertex 603500.0 5787500.0 3414.199951171875
  vertex 602500.0 5787500.0 3367.300048828125
 endloop
endfacet
facet normal -0.051248591393232346 -0.05703156813979149 -0.9970561861991882
 outer loop
  vertex 602500.0 5788500.0 3408.39990234375
  vertex 603500.0 5788500.0 3357.0
  vertex 603500.0 5787500.0 3414.199951171875
 endloop
endfacet
facet normal 0.05949694290757179 -0.057005442678928375 -0.9965994954109192
 outer loop
  vertex 603500.0 5788500.0 3357.0
  vertex 604500.0 5787500.0 3473.89990234375
  vertex 603500.0 5787500.0 3414.199951171875
 endloop
endfacet
facet normal 0.08088238537311554 -0.03556033596396446 -0.9960891008377075
 outer loop
  vertex 603500.0 5788500.0 3357.0
  vertex 604500.0 5788500.0 3438.199951171875
  vertex 604500.0 5787500.0 3473.89990234375
 endloop
endfacet
facet normal 0.08147618174552917 -0.035558611154556274 -0.9960408210754395
 outer loop
  vertex 604500.0 5788500.0 3438.199951171875
  vertex 605500.0 5787500.0 3555.699951171875
  vertex 604500.0 5787500.0 3473.89990234375
 endloop
endfacet
facet normal 0.12890532612800598 0.012394743040204048 -0.9915794730186462
 outer loop
  vertex 604500.0 5788500.0 3438.199951171875
  vertex 605500.0 5788500.0 3568.199951171875
  vertex 605500.0 5787500.0 3555.699951171875
 endloop
endfacet
facet normal 0.04295695200562477 0.012487486004829407 -0.9989988803863525
 outer loop
  vertex 605500.0 5788500.0 3568.199951171875
  vertex 606500.0 5787500.0 3598.699951171875
  vertex 605500.0 5787500.0 3555.699951171875
 endloop
endfacet
facet normal 0.04265791177749634 0.012187940999865532 -0.9990153908729553
 outer loop
  vertex 605500.0 5788500.0 3568.199951171875
  vertex 606500.0 5788500.0 3610.89990234375
  vertex 606500.0 5787500.0 3598.699951171875
 endloop
endfacet
facet normal 0.0113985575735569 0.012198250740766525 -0.9998606443405151
 outer loop
  vertex 606500.0 5788500.0 3610.89990234375
  vertex 607500.0 5787500.0 3610.10009765625
  vertex 606500.0 5787500.0 3598.699951171875
 endloop
endfacet
facet normal -0.07586400955915451 -0.07506877183914185 -0.9942883849143982
 outer loop
  vertex 606500.0 5788500.0 3610.89990234375
  vertex 607500.0 5788500.0 3534.60009765625
  vertex 607500.0 5787500.0 3610.10009765625
 endloop
endfacet
facet normal -0.16780219972133636 -0.07421823590993881 -0.983022928237915
 outer loop
  vertex 607500.0 5788500.0 3534.60009765625
  vertex 608500.0 5787500.0 3439.39990234375
  vertex 607500.0 5787500.0 3610.10009765625
 endloop
endfacet
facet normal -0.10078240185976028 -0.006068681366741657 -0.9948899745941162
 outer loop
  vertex 607500.0 5788500.0 3534.60009765625
  vertex 608500.0 5788500.0 3433.300048828125
  vertex 608500.0 5787500.0 3439.39990234375
 endloop
endfacet
facet normal -0.08014128357172012 -0.0006976996082812548 -0.9967832565307617
 outer loop
  vertex 598500.0 5789500.0 3549.699951171875
  vertex 599500.0 5788500.0 3470.0
  vertex 598500.0 5788500.0 3550.39990234375
 endloop
endfacet
facet normal -0.01756330579519272 0.06197114288806915 -0.9979233741760254
 outer loop
  vertex 598500.0 5789500.0 3549.699951171875
  vertex 599500.0 5789500.0 3532.10009765625
  vertex 599500.0 5788500.0 3470.0
 endloop
endfacet
facet normal 0.01666552573442459 0.06197209283709526 -0.9979387521743774
 outer loop
  vertex 599500.0 5789500.0 3532.10009765625
  vertex 600500.0 5788500.0 3486.699951171875
  vertex 599500.0 5788500.0 3470.0
 endloop
endfacet
facet normal -0.006494950503110886 0.03886992856860161 -0.9992231726646423
 outer loop
  vertex 599500.0 5789500.0 3532.10009765625
  vertex 600500.0 5789500.0 3525.60009765625
  vertex 600500.0 5788500.0 3486.699951171875
 endloop
endfacet
facet normal -0.040236979722976685 0.03883926942944527 -0.9984350204467773
 outer loop
  vertex 600500.0 5789500.0 3525.60009765625
  vertex 601500.0 5788500.0 3446.39990234375
  vertex 600500.0 5788500.0 3486.699951171875
 endloop
endfacet
facet normal -0.022857964038848877 0.056196343153715134 -0.9981580376625061
 outer loop
  vertex 600500.0 5789500.0 3525.60009765625
  vertex 601500.0 5789500.0 3502.699951171875
  vertex 601500.0 5788500.0 3446.39990234375
 endloop
endfacet
facet normal -0.03791264072060585 0.056170620024204254 -0.997701108455658
 outer loop
  vertex 601500.0 5789500.0 3502.699951171875
  vertex 602500.0 5788500.0 3408.39990234375
  vertex 601500.0 5788500.0 3446.39990234375
 endloop
endfacet
facet normal -0.09763050079345703 -0.003781624836847186 -0.9952155351638794
 outer loop
  vertex 601500.0 5789500.0 3502.699951171875
  vertex 602500.0 5789500.0 3404.60009765625
  vertex 602500.0 5788500.0 3408.39990234375
 endloop
endfacet
facet normal -0.0513317696750164 -0.0037947678938508034 -0.9986744523048401
 outer loop
  vertex 602500.0 5789500.0 3404.60009765625
  vertex 603500.0 5788500.0 3357.0
  vertex 602500.0 5788500.0 3408.39990234375
 endloop
endfacet
facet normal -0.04734698683023453 0.0001997249637497589 -0.9988784193992615
 outer loop
  vertex 602500.0 5789500.0 3404.60009765625
  vertex 603500.0 5789500.0 3357.199951171875
  vertex 603500.0 5788500.0 3357.0
 endloop
endfacet
facet normal 0.080933578312397 0.00019929523114115 -0.996719479560852
 outer loop
  vertex 603500.0 5789500.0 3357.199951171875
  vertex 604500.0 5788500.0 3438.199951171875
  vertex 603500.0 5788500.0 3357.0
 endloop
endfacet
facet normal 0.11408443748950958 0.03365948051214218 -0.9929006695747375
 outer loop
  vertex 603500.0 5789500.0 3357.199951171875
  vertex 604500.0 5789500.0 3472.10009765625
  vertex 604500.0 5788500.0 3438.199951171875
 endloop
endfacet
facet normal 0.12884244322776794 0.033598292618989944 -0.9910957217216492
 outer loop
  vertex 604500.0 5789500.0 3472.10009765625
  vertex 605500.0 5788500.0 3568.199951171875
  vertex 604500.0 5788500.0 3438.199951171875
 endloop
endfacet
facet normal -0.004278499633073807 -0.09989675879478455 -0.9949886202812195
 outer loop
  vertex 604500.0 5789500.0 3472.10009765625
  vertex 605500.0 5789500.0 3467.800048828125
  vertex 605500.0 5788500.0 3568.199951171875
 endloop
endfacet
facet normal 0.04244806244969368 -0.09980763494968414 -0.9941008687019348
 outer loop
  vertex 605500.0 5789500.0 3467.800048828125
  vertex 606500.0 5788500.0 3610.89990234375
  vertex 605500.0 5788500.0 3568.199951171875
 endloop
endfacet
facet normal 0.027705956250429153 -0.11439913511276245 -0.9930484890937805
 outer loop
  vertex 605500.0 5789500.0 3467.800048828125
  vertex 606500.0 5789500.0 3495.699951171875
  vertex 606500.0 5788500.0 3610.89990234375
 endloop
endfacet
facet normal -0.07558169215917587 -0.11411571502685547 -0.9905882477760315
 outer loop
  vertex 606500.0 5789500.0 3495.699951171875
  vertex 607500.0 5788500.0 3534.60009765625
  vertex 606500.0 5788500.0 3610.89990234375
 endloop
endfacet
facet normal -0.037166528403759 -0.07592742890119553 -0.9964204430580139
 outer loop
  vertex 606500.0 5789500.0 3495.699951171875
  vertex 607500.0 5789500.0 3458.39990234375
  vertex 607500.0 5788500.0 3534.60009765625
 endloop
endfacet
facet normal -0.10049587488174438 -0.07559527456760406 -0.9920614361763
 outer loop
  vertex 607500.0 5789500.0 3458.39990234375
  vertex 608500.0 5788500.0 3433.300048828125
  vertex 607500.0 5788500.0 3534.60009765625
 endloop
endfacet
facet normal 0.006899296771734953 -0.014098117128014565 -0.999876856803894
 outer loop
  vertex 597500.0 5790500.0 3528.699951171875
  vertex 598500.0 5790500.0 3535.60009765625
  vertex 598500.0 5789500.0 3549.699951171875
 endloop
endfacet
facet normal -0.017595380544662476 -0.014096269384026527 -0.999745786190033
 outer loop
  vertex 598500.0 5790500.0 3535.60009765625
  vertex 599500.0 5789500.0 3532.10009765625
  vertex 598500.0 5789500.0 3549.699951171875
 endloop
endfacet
facet normal -0.04043919965624809 -0.03694445267319679 -0.9984987378120422
 outer loop
  vertex 598500.0 5790500.0 3535.60009765625
  vertex 599500.0 5790500.0 3495.10009765625
  vertex 599500.0 5789500.0 3532.10009765625
 endloop
endfacet
facet normal -0.00649541849270463 -0.036973919719457626 -0.9992951154708862
 outer loop
  vertex 599500.0 5790500.0 3495.10009765625
  vertex 600500.0 5789500.0 3525.60009765625
  vertex 599500.0 5789500.0 3532.10009765625
 endloop
endfacet
facet normal -0.10089226812124252 -0.13097254931926727 -0.9862387776374817
 outer loop
  vertex 599500.0 5790500.0 3495.10009765625
  vertex 600500.0 5790500.0 3392.800048828125
  vertex 600500.0 5789500.0 3525.60009765625
 endloop
endfacet
facet normal -0.022694993764162064 -0.13161037862300873 -0.9910416603088379
 outer loop
  vertex 600500.0 5790500.0 3392.800048828125
  vertex 601500.0 5789500.0 3502.699951171875
  vertex 600500.0 5789500.0 3525.60009765625
 endloop
endfacet
facet normal -0.004371640272438526 -0.11355956643819809 -0.9935215711593628
 outer loop
  vertex 600500.0 5790500.0 3392.800048828125
  vertex 601500.0 5790500.0 3388.39990234375
  vertex 601500.0 5789500.0 3502.699951171875
 endloop
endfacet
facet normal -0.09700558334589005 -0.11302507668733597 -0.9888454079627991
 outer loop
  vertex 601500.0 5790500.0 3388.39990234375
  vertex 602500.0 5789500.0 3404.60009765625
  vertex 601500.0 5789500.0 3502.699951171875
 endloop
endfacet
facet normal 0.01369886752218008 -0.002499757567420602 -0.9999030828475952
 outer loop
  vertex 601500.0 5790500.0 3388.39990234375
  vertex 602500.0 5790500.0 3402.10009765625
  vertex 602500.0 5789500.0 3404.60009765625
 endloop
endfacet
facet normal -0.04734684154391289 -0.002497188514098525 -0.9988753795623779
 outer loop
  vertex 602500.0 5790500.0 3402.10009765625
  vertex 603500.0 5789500.0 3357.199951171875
  vertex 602500.0 5789500.0 3404.60009765625
 endloop
endfacet
facet normal -0.045851849019527435 -0.0009989477694034576 -0.9989477396011353
 outer loop
  vertex 602500.0 5790500.0 3402.10009765625
  vertex 603500.0 5790500.0 3356.199951171875
  vertex 603500.0 5789500.0 3357.199951171875
 endloop
endfacet
facet normal 0.1141490638256073 -0.0009934630943462253 -0.9934631586074829
 outer loop
  vertex 603500.0 5790500.0 3356.199951171875
  vertex 604500.0 5789500.0 3472.10009765625
  vertex 603500.0 5789500.0 3357.199951171875
 endloop
endfacet
facet normal 0.09771470725536346 -0.017612731084227562 -0.9950585961341858
 outer loop
  vertex 603500.0 5790500.0 3356.199951171875
  vertex 604500.0 5790500.0 3454.39990234375
  vertex 604500.0 5789500.0 3472.10009765625
 endloop
endfacet
facet normal -0.0042993356473743916 -0.017697259783744812 -0.9998341798782349
 outer loop
  vertex 604500.0 5790500.0 3454.39990234375
  vertex 605500.0 5789500.0 3467.800048828125
  vertex 604500.0 5789500.0 3472.10009765625
 endloop
endfacet
facet normal 0.01879645325243473 0.005398869980126619 -0.9998087882995605
 outer loop
  vertex 604500.0 5790500.0 3454.39990234375
  vertex 605500.0 5790500.0 3473.199951171875
  vertex 605500.0 5789500.0 3467.800048828125
 endloop
endfacet
facet normal 0.027888644486665726 0.005397723522037268 -0.9995964765548706
 outer loop
  vertex 605500.0 5790500.0 3473.199951171875
  vertex 606500.0 5789500.0 3495.699951171875
  vertex 605500.0 5789500.0 3467.800048828125
 endloop
endfacet
facet normal 0.000899936247151345 -0.021594807505607605 -0.9997664093971252
 outer loop
  vertex 605500.0 5790500.0 3473.199951171875
  vertex 606500.0 5790500.0 3474.10009765625
  vertex 606500.0 5789500.0 3495.699951171875
 endloop
endfacet
facet normal -0.03726544603705406 -0.021579816937446594 -0.9990723729133606
 outer loop
  vertex 606500.0 5790500.0 3474.10009765625
  vertex 607500.0 5789500.0 3458.39990234375
  vertex 606500.0 5789500.0 3495.699951171875
 endloop
endfacet
facet normal -0.07465952634811401 -0.05903060734272003 -0.9954603910446167
 outer loop
  vertex 606500.0 5790500.0 3474.10009765625
  vertex 607500.0 5790500.0 3399.10009765625
  vertex 607500.0 5789500.0 3458.39990234375
 endloop
endfacet
facet normal 0.006897652987390757 -0.025990597903728485 -0.9996383786201477
 outer loop
  vertex 597500.0 5791500.0 3502.699951171875
  vertex 598500.0 5790500.0 3535.60009765625
  vertex 597500.0 5790500.0 3528.699951171875
 endloop
endfacet
facet normal -0.07162006944417953 -0.10425597429275513 -0.9919683337211609
 outer loop
  vertex 597500.0 5791500.0 3502.699951171875
  vertex 598500.0 5791500.0 3430.5
  vertex 598500.0 5790500.0 3535.60009765625
 endloop
endfacet
facet normal -0.04024551808834076 -0.10443970561027527 -0.9937165975570679
 outer loop
  vertex 598500.0 5791500.0 3430.5
  vertex 599500.0 5790500.0 3495.10009765625
  vertex 598500.0 5790500.0 3535.60009765625
 endloop
endfacet
facet normal 0.045245230197906494 -0.01927669532597065 -0.99878990650177
 outer loop
  vertex 598500.0 5791500.0 3430.5
  vertex 599500.0 5791500.0 3475.800048828125
  vertex 599500.0 5790500.0 3495.10009765625
 endloop
endfacet
facet normal -0.10175015777349472 -0.01919630542397499 -0.9946247339248657
 outer loop
  vertex 599500.0 5791500.0 3475.800048828125
  vertex 600500.0 5790500.0 3392.800048828125
  vertex 599500.0 5790500.0 3495.10009765625
 endloop
endfacet
facet normal -0.0661456286907196 0.016661057248711586 -0.9976708889007568
 outer loop
  vertex 599500.0 5791500.0 3475.800048828125
  vertex 600500.0 5791500.0 3409.5
  vertex 600500.0 5790500.0 3392.800048828125
 endloop
endfacet
facet normal -0.004399490542709827 0.016697460785508156 -0.999850869178772
 outer loop
  vertex 600500.0 5791500.0 3409.5
  vertex 601500.0 5790500.0 3388.39990234375
  vertex 600500.0 5790500.0 3392.800048828125
 endloop
endfacet
facet normal -0.025990905240178108 -0.004898188170045614 -0.9996501803398132
 outer loop
  vertex 600500.0 5791500.0 3409.5
  vertex 601500.0 5791500.0 3383.5
  vertex 601500.0 5790500.0 3388.39990234375
 endloop
endfacet
facet normal 0.013698745518922806 -0.0048993839882314205 -0.9998942017555237
 outer loop
  vertex 601500.0 5791500.0 3383.5
  vertex 602500.0 5790500.0 3402.10009765625
  vertex 601500.0 5790500.0 3388.39990234375
 endloop
endfacet
facet normal 0.0285869799554348 0.0099954130128026 -0.9995413422584534
 outer loop
  vertex 601500.0 5791500.0 3383.5
  vertex 602500.0 5791500.0 3412.10009765625
  vertex 602500.0 5790500.0 3402.10009765625
 endloop
endfacet
facet normal -0.04584958404302597 0.00998898409307003 -0.9988983869552612
 outer loop
  vertex 602500.0 5791500.0 3412.10009765625
  vertex 603500.0 5790500.0 3356.199951171875
  vertex 602500.0 5790500.0 3402.10009765625
 endloop
endfacet
facet normal -0.06595274806022644 -0.010177208110690117 -0.9977708458900452
 outer loop
  vertex 602500.0 5791500.0 3412.10009765625
  vertex 603500.0 5791500.0 3346.0
  vertex 603500.0 5790500.0 3356.199951171875
 endloop
endfacet
facet normal 0.09772483259439468 -0.010150601156055927 -0.9951617121696472
 outer loop
  vertex 603500.0 5791500.0 3346.0
  vertex 604500.0 5790500.0 3454.39990234375
  vertex 603500.0 5790500.0 3356.199951171875
 endloop
endfacet
facet normal 0.0697779506444931 -0.03827809914946556 -0.9968279004096985
 outer loop
  vertex 603500.0 5791500.0 3346.0
  vertex 604500.0 5791500.0 3416.0
  vertex 604500.0 5790500.0 3454.39990234375
 endloop
endfacet
facet normal 0.01878289133310318 -0.03836485370993614 -0.9990872740745544
 outer loop
  vertex 604500.0 5791500.0 3416.0
  vertex 605500.0 5790500.0 3473.199951171875
  vertex 604500.0 5790500.0 3454.39990234375
 endloop
endfacet
facet normal 0.03906385228037834 -0.018083076924085617 -0.9990730285644531
 outer loop
  vertex 604500.0 5791500.0 3416.0
  vertex 605500.0 5791500.0 3455.10009765625
  vertex 605500.0 5790500.0 3473.199951171875
 endloop
endfacet
facet normal 0.0008999987039715052 -0.018096882849931717 -0.9998358488082886
 outer loop
  vertex 605500.0 5791500.0 3455.10009765625
  vertex 606500.0 5790500.0 3474.10009765625
  vertex 605500.0 5790500.0 3473.199951171875
 endloop
endfacet
facet normal -0.06778609752655029 -0.08667072653770447 -0.9939281344413757
 outer loop
  vertex 605500.0 5791500.0 3455.10009765625
  vertex 606500.0 5791500.0 3386.89990234375
  vertex 606500.0 5790500.0 3474.10009765625
 endloop
endfacet
facet normal -0.07450878620147705 -0.08662907779216766 -0.9934504628181458
 outer loop
  vertex 606500.0 5791500.0 3386.89990234375
  vertex 607500.0 5790500.0 3399.10009765625
  vertex 606500.0 5790500.0 3474.10009765625
 endloop
endfacet
facet normal 0.1120159700512886 0.0999540463089943 -0.9886665940284729
 outer loop
  vertex 606500.0 5791500.0 3386.89990234375
  vertex 607500.0 5791500.0 3500.199951171875
  vertex 607500.0 5790500.0 3399.10009765625
 endloop
endfacet
facet normal 0.05968843027949333 0.10040775686502457 -0.9931543469429016
 outer loop
  vertex 607500.0 5791500.0 3500.199951171875
  vertex 608500.0 5790500.0 3459.199951171875
  vertex 607500.0 5790500.0 3399.10009765625
 endloop
endfacet
facet normal 0.04063064604997635 0.08146041631698608 -0.9958480596542358
 outer loop
  vertex 607500.0 5791500.0 3500.199951171875
  vertex 608500.0 5791500.0 3541.0
  vertex 608500.0 5790500.0 3459.199951171875
 endloop
endfacet
facet normal 0.22279265522956848 0.07947861403226852 -0.9716206192970276
 outer loop
  vertex 608500.0 5791500.0 3541.0
  vertex 609500.0 5790500.0 3688.5
  vertex 608500.0 5790500.0 3459.199951171875
 endloop
endfacet
facet normal -0.08402224630117416 -0.22713157534599304 -0.9702327251434326
 outer loop
  vertex 608500.0 5791500.0 3541.0
  vertex 609500.0 5791500.0 3454.39990234375
  vertex 609500.0 5790500.0 3688.5
 endloop
endfacet
facet normal 0.0452527180314064 -0.006393215619027615 -0.9989551305770874
 outer loop
  vertex 598500.0 5792500.0 3424.10009765625
  vertex 599500.0 5791500.0 3475.800048828125
  vertex 598500.0 5791500.0 3430.5
 endloop
endfacet
facet normal -0.02203480713069439 -0.07358201593160629 -0.9970456957817078
 outer loop
  vertex 598500.0 5792500.0 3424.10009765625
  vertex 599500.0 5792500.0 3402.0
  vertex 599500.0 5791500.0 3475.800048828125
 endloop
endfacet
facet normal -0.06597617268562317 -0.07343953102827072 -0.9951149821281433
 outer loop
  vertex 599500.0 5792500.0 3402.0
  vertex 600500.0 5791500.0 3409.5
  vertex 599500.0 5791500.0 3475.800048828125
 endloop
endfacet
facet normal 0.021293193101882935 0.013795606791973114 -0.9996780753135681
 outer loop
  vertex 599500.0 5792500.0 3402.0
  vertex 600500.0 5792500.0 3423.300048828125
  vertex 600500.0 5791500.0 3409.5
 endloop
endfacet
facet normal -0.025988740846514702 0.013794073835015297 -0.9995670914649963
 outer loop
  vertex 600500.0 5792500.0 3423.300048828125
  vertex 601500.0 5791500.0 3383.5
  vertex 600500.0 5791500.0 3409.5
 endloop
endfacet
facet normal -0.014793806709349155 0.024989454075694084 -0.9995782375335693
 outer loop
  vertex 600500.0 5792500.0 3423.300048828125
  vertex 601500.0 5792500.0 3408.5
  vertex 601500.0 5791500.0 3383.5
 endloop
endfacet
facet normal 0.028579484671354294 0.02498198114335537 -0.999279260635376
 outer loop
  vertex 601500.0 5792500.0 3408.5
  vertex 602500.0 5791500.0 3412.10009765625
  vertex 601500.0 5791500.0 3383.5
 endloop
endfacet
facet normal -0.06964167952537537 -0.07322334498167038 -0.9948810935020447
 outer loop
  vertex 601500.0 5792500.0 3408.5
  vertex 602500.0 5792500.0 3338.5
  vertex 602500.0 5791500.0 3412.10009765625
 endloop
endfacet
facet normal -0.06577901542186737 -0.07324258238077164 -0.9951425194740295
 outer loop
  vertex 602500.0 5792500.0 3338.5
  vertex 603500.0 5791500.0 3346.0
  vertex 602500.0 5791500.0 3412.10009765625
 endloop
endfacet
facet normal 0.04949546232819557 0.042011283338069916 -0.9978904128074646
 outer loop
  vertex 602500.0 5792500.0 3338.5
  vertex 603500.0 5792500.0 3388.10009765625
  vertex 603500.0 5791500.0 3346.0
 endloop
endfacet
facet normal 0.06976762413978577 0.04196033999323845 -0.9966803789138794
 outer loop
  vertex 603500.0 5792500.0 3388.10009765625
  vertex 604500.0 5791500.0 3416.0
  vertex 603500.0 5791500.0 3346.0
 endloop
endfacet
facet normal 0.002999057061970234 -0.02489207498729229 -0.9996856451034546
 outer loop
  vertex 603500.0 5792500.0 3388.10009765625
  vertex 604500.0 5792500.0 3391.10009765625
  vertex 604500.0 5791500.0 3416.0
 endloop
endfacet
facet normal 0.03905815631151199 -0.024873193353414536 -0.9989273548126221
 outer loop
  vertex 604500.0 5792500.0 3391.10009765625
  vertex 605500.0 5791500.0 3455.10009765625
  vertex 604500.0 5791500.0 3416.0
 endloop
endfacet
facet normal -0.004489433951675892 -0.06833916157484055 -0.9976520538330078
 outer loop
  vertex 604500.0 5792500.0 3391.10009765625
  vertex 605500.0 5792500.0 3386.60009765625
  vertex 605500.0 5791500.0 3455.10009765625
 endloop
endfacet
facet normal -0.06788379698991776 -0.06818220764398575 -0.9953607320785522
 outer loop
  vertex 605500.0 5792500.0 3386.60009765625
  vertex 606500.0 5791500.0 3386.89990234375
  vertex 605500.0 5791500.0 3455.10009765625
 endloop
endfacet
facet normal 0.09006273746490479 0.08976536244153976 -0.9918825030326843
 outer loop
  vertex 605500.0 5792500.0 3386.60009765625
  vertex 606500.0 5792500.0 3477.39990234375
  vertex 606500.0 5791500.0 3386.89990234375
 endloop
endfacet
facet normal 0.11212731897830963 0.0895632654428482 -0.9896493554115295
 outer loop
  vertex 606500.0 5792500.0 3477.39990234375
  vertex 607500.0 5791500.0 3500.199951171875
  vertex 606500.0 5791500.0 3386.89990234375
 endloop
endfacet
facet normal -0.06953182816505432 -0.09217938035726547 -0.9933117628097534
 outer loop
  vertex 606500.0 5792500.0 3477.39990234375
  vertex 607500.0 5792500.0 3407.39990234375
  vertex 607500.0 5791500.0 3500.199951171875
 endloop
endfacet
facet normal 0.0405920073390007 -0.09232685714960098 -0.9949010014533997
 outer loop
  vertex 607500.0 5792500.0 3407.39990234375
  vertex 608500.0 5791500.0 3541.0
  vertex 607500.0 5791500.0 3500.199951171875
 endloop
endfacet
facet normal 0.013800309039652348 -0.11884020268917084 -0.9928175210952759
 outer loop
  vertex 607500.0 5792500.0 3407.39990234375
  vertex 608500.0 5792500.0 3421.300048828125
  vertex 608500.0 5791500.0 3541.0
 endloop
endfacet
facet normal -0.08567015826702118 -0.11841457337141037 -0.9892616271972656
 outer loop
  vertex 608500.0 5792500.0 3421.300048828125
  vertex 609500.0 5791500.0 3454.39990234375
  vertex 608500.0 5791500.0 3541.0
 endloop
endfacet
facet normal 0.10532817989587784 0.07250003516674042 -0.9917911887168884
 outer loop
  vertex 608500.0 5792500.0 3421.300048828125
  vertex 609500.0 5792500.0 3527.5
  vertex 609500.0 5791500.0 3454.39990234375
 endloop
endfacet
facet normal 0.043020445853471756 0.08026494830846786 -0.9958447813987732
 outer loop
  vertex 597500.0 5793500.0 3461.5
  vertex 598500.0 5793500.0 3504.699951171875
  vertex 598500.0 5792500.0 3424.10009765625
 endloop
endfacet
facet normal -0.02202332206070423 0.0803198292851448 -0.9965258240699768
 outer loop
  vertex 598500.0 5793500.0 3504.699951171875
  vertex 599500.0 5792500.0 3402.0
  vertex 598500.0 5792500.0 3424.10009765625
 endloop
endfacet
facet normal 0.0031821413431316614 0.10531049966812134 -0.9944343566894531
 outer loop
  vertex 598500.0 5793500.0 3504.699951171875
  vertex 599500.0 5793500.0 3507.89990234375
  vertex 599500.0 5792500.0 3402.0
 endloop
endfacet
facet normal 0.021176861599087715 0.10528741776943207 -0.9942163228988647
 outer loop
  vertex 599500.0 5793500.0 3507.89990234375
  vertex 600500.0 5792500.0 3423.300048828125
  vertex 599500.0 5792500.0 3402.0
 endloop
endfacet
facet normal -0.03373705968260765 0.050705742090940475 -0.9981436133384705
 outer loop
  vertex 599500.0 5793500.0 3507.89990234375
  vertex 600500.0 5793500.0 3474.10009765625
  vertex 600500.0 5792500.0 3423.300048828125
 endloop
endfacet
facet normal -0.01477937214076519 0.05072908475995064 -0.998603105545044
 outer loop
  vertex 600500.0 5793500.0 3474.10009765625
  vertex 601500.0 5792500.0 3408.5
  vertex 600500.0 5792500.0 3423.300048828125
 endloop
endfacet
facet normal -0.06386924535036087 0.0015968247316777706 -0.9979569911956787
 outer loop
  vertex 600500.0 5793500.0 3474.10009765625
  vertex 601500.0 5793500.0 3410.10009765625
  vertex 601500.0 5792500.0 3408.5
 endloop
endfacet
facet normal -0.06982903927564621 0.0015961898025125265 -0.9975576996803284
 outer loop
  vertex 601500.0 5793500.0 3410.10009765625
  vertex 602500.0 5792500.0 3338.5
  vertex 601500.0 5792500.0 3408.5
 endloop
endfacet
facet normal -0.0978923887014389 -0.026661761105060577 -0.9948398470878601
 outer loop
  vertex 601500.0 5793500.0 3410.10009765625
  vertex 602500.0 5793500.0 3311.699951171875
  vertex 602500.0 5792500.0 3338.5
 endloop
endfacet
facet normal 0.049521464854478836 -0.026757558807730675 -0.9984145760536194
 outer loop
  vertex 602500.0 5793500.0 3311.699951171875
  vertex 603500.0 5792500.0 3388.10009765625
  vertex 602500.0 5792500.0 3338.5
 endloop
endfacet
facet normal 0.055303171277046204 -0.020963240414857864 -0.9982495307922363
 outer loop
  vertex 602500.0 5793500.0 3311.699951171875
  vertex 603500.0 5793500.0 3367.10009765625
  vertex 603500.0 5792500.0 3388.10009765625
 endloop
endfacet
facet normal 0.002999325282871723 -0.020995277911424637 -0.9997751116752625
 outer loop
  vertex 603500.0 5793500.0 3367.10009765625
  vertex 604500.0 5792500.0 3391.10009765625
  vertex 603500.0 5792500.0 3388.10009765625
 endloop
endfacet
facet normal 0.011898188851773739 -0.01209835521876812 -0.9998559951782227
 outer loop
  vertex 603500.0 5793500.0 3367.10009765625
  vertex 604500.0 5793500.0 3379.0
  vertex 604500.0 5792500.0 3391.10009765625
 endloop
endfacet
facet normal -0.004499624948948622 -0.012099090032279491 -0.999916672706604
 outer loop
  vertex 604500.0 5793500.0 3379.0
  vertex 605500.0 5792500.0 3386.60009765625
  vertex 604500.0 5792500.0 3391.10009765625
 endloop
endfacet
facet normal 0.0024999596644192934 -0.005100015550851822 -0.9999838471412659
 outer loop
  vertex 604500.0 5793500.0 3379.0
  vertex 605500.0 5793500.0 3381.5
  vertex 605500.0 5792500.0 3386.60009765625
 endloop
endfacet
facet normal 0.09042663872241974 -0.005079137161374092 -0.9958901405334473
 outer loop
  vertex 605500.0 5793500.0 3381.5
  vertex 606500.0 5792500.0 3477.39990234375
  vertex 605500.0 5792500.0 3386.60009765625
 endloop
endfacet
facet normal 0.022933093830943108 -0.07268784195184708 -0.9970910549163818
 outer loop
  vertex 605500.0 5793500.0 3381.5
  vertex 606500.0 5793500.0 3404.5
  vertex 606500.0 5792500.0 3477.39990234375
 endloop
endfacet
facet normal -0.06964521110057831 -0.07253042608499527 -0.9949316382408142
 outer loop
  vertex 606500.0 5793500.0 3404.5
  vertex 607500.0 5792500.0 3407.39990234375
  vertex 606500.0 5792500.0 3477.39990234375
 endloop
endfacet
facet normal 0.08274735510349274 0.0798666924238205 -0.9933650493621826
 outer loop
  vertex 606500.0 5793500.0 3404.5
  vertex 607500.0 5793500.0 3487.800048828125
  vertex 607500.0 5792500.0 3407.39990234375
 endloop
endfacet
facet normal 0.01385410875082016 0.0801338478922844 -0.9966878294944763
 outer loop
  vertex 607500.0 5793500.0 3487.800048828125
  vertex 608500.0 5792500.0 3421.300048828125
  vertex 607500.0 5792500.0 3407.39990234375
 endloop
endfacet
facet normal 0.030839020386338234 0.09699369221925735 -0.9948071241378784
 outer loop
  vertex 607500.0 5793500.0 3487.800048828125
  vertex 608500.0 5793500.0 3518.800048828125
  vertex 608500.0 5792500.0 3421.300048828125
 endloop
endfacet
facet normal 0.1051132008433342 0.09650227427482605 -0.9897668957710266
 outer loop
  vertex 608500.0 5793500.0 3518.800048828125
  vertex 609500.0 5792500.0 3527.5
  vertex 608500.0 5792500.0 3421.300048828125
 endloop
endfacet
facet normal -0.003099866909906268 -0.011799170635640621 -0.9999255537986755
 outer loop
  vertex 608500.0 5793500.0 3518.800048828125
  vertex 609500.0 5793500.0 3515.699951171875
  vertex 609500.0 5792500.0 3527.5
 endloop
endfacet
facet normal 0.043150994926691055 -0.02007731981575489 -0.9988667964935303
 outer loop
  vertex 597500.0 5794500.0 3441.39990234375
  vertex 598500.0 5793500.0 3504.699951171875
  vertex 597500.0 5793500.0 3461.5
 endloop
endfacet
facet normal -0.015450255014002323 -0.0785471498966217 -0.9967906475067139
 outer loop
  vertex 597500.0 5794500.0 3441.39990234375
  vertex 598500.0 5794500.0 3425.89990234375
  vertex 598500.0 5793500.0 3504.699951171875
 endloop
endfacet
facet normal 0.003190048038959503 -0.078556127846241 -0.9969046115875244
 outer loop
  vertex 598500.0 5794500.0 3425.89990234375
  vertex 599500.0 5793500.0 3507.89990234375
  vertex 598500.0 5793500.0 3504.699951171875
 endloop
endfacet
facet normal -0.0025905906222760677 -0.08429843932390213 -0.9964371919631958
 outer loop
  vertex 598500.0 5794500.0 3425.89990234375
  vertex 599500.0 5794500.0 3423.300048828125
  vertex 599500.0 5793500.0 3507.89990234375
 endloop
endfacet
facet normal -0.0336604118347168 -0.08425094932317734 -0.995875895023346
 outer loop
  vertex 599500.0 5794500.0 3423.300048828125
  vertex 600500.0 5793500.0 3474.10009765625
  vertex 599500.0 5793500.0 3507.89990234375
 endloop
endfacet
facet normal -0.051559921354055405 -0.10202695429325104 -0.993444561958313
 outer loop
  vertex 599500.0 5794500.0 3423.300048828125
  vertex 600500.0 5794500.0 3371.39990234375
  vertex 600500.0 5793500.0 3474.10009765625
 endloop
endfacet
facet normal -0.06353649497032166 -0.10195641964673996 -0.9927577972412109
 outer loop
  vertex 600500.0 5794500.0 3371.39990234375
  vertex 601500.0 5793500.0 3410.10009765625
  vertex 600500.0 5793500.0 3474.10009765625
 endloop
endfacet
facet normal -0.04826035350561142 -0.08676932752132416 -0.9950588345527649
 outer loop
  vertex 600500.0 5794500.0 3371.39990234375
  vertex 601500.0 5794500.0 3322.89990234375
  vertex 601500.0 5793500.0 3410.10009765625
 endloop
endfacet
facet normal -0.09756052494049072 -0.08645613491535187 -0.9914672374725342
 outer loop
  vertex 601500.0 5794500.0 3322.89990234375
  vertex 602500.0 5793500.0 3311.699951171875
  vertex 601500.0 5793500.0 3410.10009765625
 endloop
endfacet
facet normal 0.042798254638910294 0.053971607238054276 -0.997624933719635
 outer loop
  vertex 601500.0 5794500.0 3322.89990234375
  vertex 602500.0 5794500.0 3365.800048828125
  vertex 602500.0 5793500.0 3311.699951171875
 endloop
endfacet
facet normal 0.05523480474948883 0.05393863096833229 -0.9970154166221619
 outer loop
  vertex 602500.0 5794500.0 3365.800048828125
  vertex 603500.0 5793500.0 3367.10009765625
  vertex 602500.0 5793500.0 3311.699951171875
 endloop
endfacet
facet normal 0.006499774754047394 0.005199770908802748 -0.9999653697013855
 outer loop
  vertex 602500.0 5794500.0 3365.800048828125
  vertex 603500.0 5794500.0 3372.300048828125
  vertex 603500.0 5793500.0 3367.10009765625
 endloop
endfacet
facet normal 0.01189889945089817 0.005199512932449579 -0.9999157190322876
 outer loop
  vertex 603500.0 5794500.0 3372.300048828125
  vertex 604500.0 5793500.0 3379.0
  vertex 603500.0 5793500.0 3367.10009765625
 endloop
endfacet
facet normal 9.985133510781452e-05 -0.00659995386376977 -0.9999781847000122
 outer loop
  vertex 603500.0 5794500.0 3372.300048828125
  vertex 604500.0 5794500.0 3372.39990234375
  vertex 604500.0 5793500.0 3379.0
 endloop
endfacet
facet normal 0.00249993777833879 -0.006599933374673128 -0.9999751448631287
 outer loop
  vertex 604500.0 5794500.0 3372.39990234375
  vertex 605500.0 5793500.0 3381.5
  vertex 604500.0 5793500.0 3379.0
 endloop
endfacet
facet normal -0.02258274517953396 -0.031675953418016434 -0.9992430210113525
 outer loop
  vertex 604500.0 5794500.0 3372.39990234375
  vertex 605500.0 5794500.0 3349.800048828125
  vertex 605500.0 5793500.0 3381.5
 endloop
endfacet
facet normal 0.022982383146882057 -0.03167566657066345 -0.9992339611053467
 outer loop
  vertex 605500.0 5794500.0 3349.800048828125
  vertex 606500.0 5793500.0 3404.5
  vertex 605500.0 5793500.0 3381.5
 endloop
endfacet
facet normal 0.022182775661349297 -0.032474856823682785 -0.9992263317108154
 outer loop
  vertex 605500.0 5794500.0 3349.800048828125
  vertex 606500.0 5794500.0 3372.0
  vertex 606500.0 5793500.0 3404.5
 endloop
endfacet
facet normal 0.08296903222799301 -0.032370854169130325 -0.9960262179374695
 outer loop
  vertex 606500.0 5794500.0 3372.0
  vertex 607500.0 5793500.0 3487.800048828125
  vertex 606500.0 5793500.0 3404.5
 endloop
endfacet
facet normal 0.0018876936519518495 -0.11316822469234467 -0.9935740828514099
 outer loop
  vertex 606500.0 5794500.0 3372.0
  vertex 607500.0 5794500.0 3373.89990234375
  vertex 607500.0 5793500.0 3487.800048828125
 endloop
endfacet
facet normal 0.030786244198679924 -0.11311478912830353 -0.993104875087738
 outer loop
  vertex 607500.0 5794500.0 3373.89990234375
  vertex 608500.0 5793500.0 3518.800048828125
  vertex 607500.0 5793500.0 3487.800048828125
 endloop
endfacet
facet normal 0.05240550637245178 -0.09168437868356705 -0.9944081902503967
 outer loop
  vertex 607500.0 5794500.0 3373.89990234375
  vertex 608500.0 5794500.0 3426.60009765625
  vertex 608500.0 5793500.0 3518.800048828125
 endloop
endfacet
facet normal -0.0030869937036186457 -0.09181010723114014 -0.9957717657089233
 outer loop
  vertex 608500.0 5794500.0 3426.60009765625
  vertex 609500.0 5793500.0 3515.699951171875
  vertex 608500.0 5793500.0 3518.800048828125
 endloop
endfacet
facet normal -0.01819239929318428 -0.10676811635494232 -0.9941174983978271
 outer loop
  vertex 608500.0 5794500.0 3426.60009765625
  vertex 609500.0 5794500.0 3408.300048828125
  vertex 609500.0 5793500.0 3515.699951171875
 endloop
endfacet
facet normal 0.06637094169855118 -0.10655034333467484 -0.9920896887779236
 outer loop
  vertex 609500.0 5794500.0 3408.300048828125
  vertex 610500.0 5793500.0 3582.60009765625
  vertex 609500.0 5793500.0 3515.699951171875
 endloop
endfacet
facet normal 0.06587333232164383 -0.10704445093870163 -0.992069661617279
 outer loop
  vertex 609500.0 5794500.0 3408.300048828125
  vertex 610500.0 5794500.0 3474.699951171875
  vertex 610500.0 5793500.0 3582.60009765625
 endloop
endfacet
facet normal -0.015451695770025253 -0.07735802233219147 -0.9968836307525635
 outer loop
  vertex 597500.0 5795500.0 3363.800048828125
  vertex 598500.0 5794500.0 3425.89990234375
  vertex 597500.0 5794500.0 3441.39990234375
 endloop
endfacet
facet normal 0.0030944575555622578 -0.05889729782938957 -0.9982593059539795
 outer loop
  vertex 597500.0 5795500.0 3363.800048828125
  vertex 598500.0 5795500.0 3366.89990234375
  vertex 598500.0 5794500.0 3425.89990234375
 endloop
endfacet
facet normal -0.002595329424366355 -0.05889737978577614 -0.9982606768608093
 outer loop
  vertex 598500.0 5795500.0 3366.89990234375
  vertex 599500.0 5794500.0 3423.300048828125
  vertex 598500.0 5794500.0 3425.89990234375
 endloop
endfacet
facet normal -0.027691157534718513 -0.08387088030576706 -0.9960917830467224
 outer loop
  vertex 598500.0 5795500.0 3366.89990234375
  vertex 599500.0 5795500.0 3339.10009765625
  vertex 599500.0 5794500.0 3423.300048828125
 endloop
endfacet
facet normal -0.05164811760187149 -0.08379107713699341 -0.9951439499855042
 outer loop
  vertex 599500.0 5795500.0 3339.10009765625
  vertex 600500.0 5794500.0 3371.39990234375
  vertex 599500.0 5794500.0 3423.300048828125
 endloop
endfacet
facet normal 0.016395626589655876 -0.01589575596153736 -0.9997392296791077
 outer loop
  vertex 599500.0 5795500.0 3339.10009765625
  vertex 600500.0 5795500.0 3355.5
  vertex 600500.0 5794500.0 3371.39990234375
 endloop
endfacet
facet normal -0.04843695089221001 -0.015879232436418533 -0.9987000226974487
 outer loop
  vertex 600500.0 5795500.0 3355.5
  vertex 601500.0 5794500.0 3322.89990234375
  vertex 600500.0 5794500.0 3371.39990234375
 endloop
endfacet
facet normal -0.047640360891819 -0.015080991201102734 -0.9987506866455078
 outer loop
  vertex 600500.0 5795500.0 3355.5
  vertex 601500.0 5795500.0 3307.800048828125
  vertex 601500.0 5794500.0 3322.89990234375
 endloop
endfacet
facet normal 0.042855847626924515 -0.015084261074662209 -0.9989674091339111
 outer loop
  vertex 601500.0 5795500.0 3307.800048828125
  vertex 602500.0 5794500.0 3365.800048828125
  vertex 601500.0 5794500.0 3322.89990234375
 endloop
endfacet
facet normal 0.05999147146940231 0.002096064854413271 -0.9981967210769653
 outer loop
  vertex 601500.0 5795500.0 3307.800048828125
  vertex 602500.0 5795500.0 3367.89990234375
  vertex 602500.0 5794500.0 3365.800048828125
 endloop
endfacet
facet normal 0.006499848328530788 0.0020998045802116394 -0.9999766945838928
 outer loop
  vertex 602500.0 5795500.0 3367.89990234375
  vertex 603500.0 5794500.0 3372.300048828125
  vertex 602500.0 5794500.0 3365.800048828125
 endloop
endfacet
facet normal -0.0330585241317749 -0.03745317831635475 -0.9987514615058899
 outer loop
  vertex 602500.0 5795500.0 3367.89990234375
  vertex 603500.0 5795500.0 3334.800048828125
  vertex 603500.0 5794500.0 3372.300048828125
 endloop
endfacet
facet normal 9.978142770705745e-05 -0.037473659962415695 -0.9992976188659668
 outer loop
  vertex 603500.0 5795500.0 3334.800048828125
  vertex 604500.0 5794500.0 3372.39990234375
  vertex 603500.0 5794500.0 3372.300048828125
 endloop
endfacet
facet normal 0.07602233439683914 0.038559336215257645 -0.9963603019714355
 outer loop
  vertex 603500.0 5795500.0 3334.800048828125
  vertex 604500.0 5795500.0 3411.10009765625
  vertex 604500.0 5794500.0 3372.39990234375
 endloop
endfacet
facet normal -0.022577188909053802 0.03866139054298401 -0.9989972710609436
 outer loop
  vertex 604500.0 5795500.0 3411.10009765625
  vertex 605500.0 5794500.0 3349.800048828125
  vertex 604500.0 5794500.0 3372.39990234375
 endloop
endfacet
facet normal -0.021777894347906113 0.03945985808968544 -0.9989838004112244
 outer loop
  vertex 604500.0 5795500.0 3411.10009765625
  vertex 605500.0 5795500.0 3389.300048828125
  vertex 605500.0 5794500.0 3349.800048828125
 endloop
endfacet
facet normal 0.02217719703912735 0.03945951536297798 -0.9989750385284424
 outer loop
  vertex 605500.0 5795500.0 3389.300048828125
  vertex 606500.0 5794500.0 3372.0
  vertex 605500.0 5794500.0 3349.800048828125
 endloop
endfacet
facet normal 0.07182557880878448 0.08901209384202957 -0.9934374690055847
 outer loop
  vertex 605500.0 5795500.0 3389.300048828125
  vertex 606500.0 5795500.0 3461.60009765625
  vertex 606500.0 5794500.0 3372.0
 endloop
endfacet
facet normal 0.0018923142924904823 0.08924242109060287 -0.9960080981254578
 outer loop
  vertex 606500.0 5795500.0 3461.60009765625
  vertex 607500.0 5794500.0 3373.89990234375
  vertex 606500.0 5794500.0 3372.0
 endloop
endfacet
facet normal -0.08795779943466187 -0.0005975265521556139 -0.9961240291595459
 outer loop
  vertex 606500.0 5795500.0 3461.60009765625
  vertex 607500.0 5795500.0 3373.300048828125
  vertex 607500.0 5794500.0 3373.89990234375
 endloop
endfacet
facet normal 0.05262715369462967 -0.0005990221397951245 -0.9986140727996826
 outer loop
  vertex 607500.0 5795500.0 3373.300048828125
  vertex 608500.0 5794500.0 3426.60009765625
  vertex 607500.0 5794500.0 3373.89990234375
 endloop
endfacet
facet normal -0.0029952432960271835 -0.05621078237891197 -0.9984144568443298
 outer loop
  vertex 607500.0 5795500.0 3373.300048828125
  vertex 608500.0 5795500.0 3370.300048828125
  vertex 608500.0 5794500.0 3426.60009765625
 endloop
endfacet
facet normal -0.01826806366443634 -0.05620165169239044 -0.9982523322105408
 outer loop
  vertex 608500.0 5795500.0 3370.300048828125
  vertex 609500.0 5794500.0 3408.300048828125
  vertex 608500.0 5794500.0 3426.60009765625
 endloop
endfacet
facet normal 0.02818739227950573 -0.00979568436741829 -0.9995546340942383
 outer loop
  vertex 608500.0 5795500.0 3370.300048828125
  vertex 609500.0 5795500.0 3398.5
  vertex 609500.0 5794500.0 3408.300048828125
 endloop
endfacet
facet normal 0.06625083833932877 -0.009778047911822796 -0.9977550506591797
 outer loop
  vertex 609500.0 5795500.0 3398.5
  vertex 610500.0 5794500.0 3474.699951171875
  vertex 609500.0 5794500.0 3408.300048828125
 endloop
endfacet
facet normal 0.005899596493691206 -0.00829961895942688 -0.9999482035636902
 outer loop
  vertex 596500.0 5796500.0 3349.60009765625
  vertex 597500.0 5796500.0 3355.5
  vertex 597500.0 5795500.0 3363.800048828125
 endloop
endfacet
facet normal 0.003099731868132949 -0.008299723267555237 -0.9999607801437378
 outer loop
  vertex 597500.0 5796500.0 3355.5
  vertex 598500.0 5795500.0 3366.89990234375
  vertex 597500.0 5795500.0 3363.800048828125
 endloop
endfacet
facet normal -0.01649133861064911 -0.027885258197784424 -0.9994750618934631
 outer loop
  vertex 597500.0 5796500.0 3355.5
  vertex 598500.0 5796500.0 3339.0
  vertex 598500.0 5795500.0 3366.89990234375
 endloop
endfacet
facet normal -0.027778267860412598 -0.027878288179636 -0.9992252588272095
 outer loop
  vertex 598500.0 5796500.0 3339.0
  vertex 599500.0 5795500.0 3339.10009765625
  vertex 598500.0 5795500.0 3366.89990234375
 endloop
endfacet
facet normal -0.025483369827270508 -0.025583403185009956 -0.9993478655815125
 outer loop
  vertex 598500.0 5796500.0 3339.0
  vertex 599500.0 5796500.0 3313.5
  vertex 599500.0 5795500.0 3339.10009765625
 endloop
endfacet
facet normal 0.016392327845096588 -0.025588274002075195 -0.9995381236076355
 outer loop
  vertex 599500.0 5796500.0 3313.5
  vertex 600500.0 5795500.0 3355.5
  vertex 599500.0 5795500.0 3339.10009765625
 endloop
endfacet
facet normal 0.025688059628009796 -0.016292506828904152 -0.9995372891426086
 outer loop
  vertex 599500.0 5796500.0 3313.5
  vertex 600500.0 5796500.0 3339.199951171875
  vertex 600500.0 5795500.0 3355.5
 endloop
endfacet
facet normal -0.04763946682214737 -0.016279378905892372 -0.9987319111824036
 outer loop
  vertex 600500.0 5796500.0 3339.199951171875
  vertex 601500.0 5795500.0 3307.800048828125
  vertex 600500.0 5795500.0 3355.5
 endloop
endfacet
facet normal -0.0003997103194706142 0.030985113233327866 -0.9995197653770447
 outer loop
  vertex 600500.0 5796500.0 3339.199951171875
  vertex 601500.0 5796500.0 3338.800048828125
  vertex 601500.0 5795500.0 3307.800048828125
 endloop
endfacet
facet normal 0.05996290221810341 0.030929360538721085 -0.9977213144302368
 outer loop
  vertex 601500.0 5796500.0 3338.800048828125
  vertex 602500.0 5795500.0 3367.89990234375
  vertex 601500.0 5795500.0 3307.800048828125
 endloop
endfacet
facet normal 0.020794834941625595 -0.008297723717987537 -0.9997493028640747
 outer loop
  vertex 601500.0 5796500.0 3338.800048828125
  vertex 602500.0 5796500.0 3359.60009765625
  vertex 602500.0 5795500.0 3367.89990234375
 endloop
endfacet
facet normal -0.03308059647679329 -0.008294976316392422 -0.9994182586669922
 outer loop
  vertex 602500.0 5796500.0 3359.60009765625
  vertex 603500.0 5795500.0 3334.800048828125
  vertex 602500.0 5795500.0 3367.89990234375
 endloop
endfacet
facet normal 0.008794501423835754 0.03357960283756256 -0.999397337436676
 outer loop
  vertex 602500.0 5796500.0 3359.60009765625
  vertex 603500.0 5796500.0 3368.39990234375
  vertex 603500.0 5795500.0 3334.800048828125
 endloop
endfacet
facet normal 0.0760362520813942 0.03348368778824806 -0.9965426921844482
 outer loop
  vertex 603500.0 5796500.0 3368.39990234375
  vertex 604500.0 5795500.0 3411.10009765625
  vertex 603500.0 5795500.0 3334.800048828125
 endloop
endfacet
facet normal 0.11337153613567352 0.07105527073144913 -0.9910086393356323
 outer loop
  vertex 603500.0 5796500.0 3368.39990234375
  vertex 604500.0 5796500.0 3482.800048828125
  vertex 604500.0 5795500.0 3411.10009765625
 endloop
endfacet
facet normal -0.021739087998867035 0.07149945944547653 -0.9972037076950073
 outer loop
  vertex 604500.0 5796500.0 3482.800048828125
  vertex 605500.0 5795500.0 3389.300048828125
  vertex 604500.0 5795500.0 3411.10009765625
 endloop
endfacet
facet normal 0.024818651378154755 0.1176404058933258 -0.9927460551261902
 outer loop
  vertex 604500.0 5796500.0 3482.800048828125
  vertex 605500.0 5796500.0 3507.800048828125
  vertex 605500.0 5795500.0 3389.300048828125
 endloop
endfacet
facet normal 0.0716133564710617 0.11737451702356339 -0.9905022382736206
 outer loop
  vertex 605500.0 5796500.0 3507.800048828125
  vertex 606500.0 5795500.0 3461.60009765625
  vertex 605500.0 5795500.0 3389.300048828125
 endloop
endfacet
facet normal -0.029183298349380493 0.016990307718515396 -0.9994297027587891
 outer loop
  vertex 605500.0 5796500.0 3507.800048828125
  vertex 606500.0 5796500.0 3478.60009765625
  vertex 606500.0 5795500.0 3461.60009765625
 endloop
endfacet
facet normal -0.08794520795345306 0.01693168468773365 -0.9959813952445984
 outer loop
  vertex 606500.0 5796500.0 3478.60009765625
  vertex 607500.0 5795500.0 3373.300048828125
  vertex 606500.0 5795500.0 3461.60009765625
 endloop
endfacet
facet normal -0.0823979303240776 0.0225172508507967 -0.9963451027870178
 outer loop
  vertex 606500.0 5796500.0 3478.60009765625
  vertex 607500.0 5796500.0 3395.89990234375
  vertex 607500.0 5795500.0 3373.300048828125
 endloop
endfacet
facet normal -0.002999220509082079 0.02259398251771927 -0.9997401833534241
 outer loop
  vertex 607500.0 5796500.0 3395.89990234375
  vertex 608500.0 5795500.0 3370.300048828125
  vertex 607500.0 5795500.0 3373.300048828125
 endloop
endfacet
facet normal 0.06745131313800812 0.0928819477558136 -0.9933897852897644
 outer loop
  vertex 607500.0 5796500.0 3395.89990234375
  vertex 608500.0 5796500.0 3463.800048828125
  vertex 608500.0 5795500.0 3370.300048828125
 endloop
endfacet
facet normal 0.028066428378224373 0.09305728226900101 -0.9952650666236877
 outer loop
  vertex 608500.0 5796500.0 3463.800048828125
  vertex 609500.0 5795500.0 3398.5
  vertex 608500.0 5795500.0 3370.300048828125
 endloop
endfacet
facet normal -0.08161567896604538 -0.01654244214296341 -0.9965265989303589
 outer loop
  vertex 608500.0 5796500.0 3463.800048828125
  vertex 609500.0 5796500.0 3381.89990234375
  vertex 609500.0 5795500.0 3398.5
 endloop
endfacet
facet normal 0.005896913819015026 -0.031284183263778687 -0.9994931221008301
 outer loop
  vertex 596500.0 5797500.0 3318.300048828125
  vertex 597500.0 5796500.0 3355.5
  vertex 596500.0 5796500.0 3349.60009765625
 endloop
endfacet
facet normal -0.025446437299251556 -0.05957455188035965 -0.9978994727134705
 outer loop
  vertex 598500.0 5797500.0 3279.300048828125
  vertex 599500.0 5796500.0 3313.5
  vertex 598500.0 5796500.0 3339.0
 endloop
endfacet
facet normal 0.0390695296227932 0.004896098282188177 -0.9992244839668274
 outer loop
  vertex 598500.0 5797500.0 3279.300048828125
  vertex 599500.0 5797500.0 3318.39990234375
  vertex 599500.0 5796500.0 3313.5
 endloop
endfacet
facet normal 0.025691159069538116 0.0048982263542711735 -0.999657928943634
 outer loop
  vertex 599500.0 5797500.0 3318.39990234375
  vertex 600500.0 5796500.0 3339.199951171875
  vertex 599500.0 5796500.0 3313.5
 endloop
endfacet
facet normal 0.02079305425286293 0.015494788065552711 -0.9996637105941772
 outer loop
  vertex 601500.0 5797500.0 3354.300048828125
  vertex 602500.0 5796500.0 3359.60009765625
  vertex 601500.0 5796500.0 3338.800048828125
 endloop
endfacet
facet normal -0.007899211719632149 -0.013198633678257465 -0.9998816847801208
 outer loop
  vertex 601500.0 5797500.0 3354.300048828125
  vertex 602500.0 5797500.0 3346.39990234375
  vertex 602500.0 5796500.0 3359.60009765625
 endloop
endfacet
facet normal 0.008798697963356972 -0.013198534958064556 -0.9998741745948792
 outer loop
  vertex 602500.0 5797500.0 3346.39990234375
  vertex 603500.0 5796500.0 3368.39990234375
  vertex 602500.0 5796500.0 3359.60009765625
 endloop
endfacet
facet normal 0.02319393679499626 0.0011998715344816446 -0.9997302889823914
 outer loop
  vertex 602500.0 5797500.0 3346.39990234375
  vertex 603500.0 5797500.0 3369.60009765625
  vertex 603500.0 5796500.0 3368.39990234375
 endloop
endfacet
facet normal 0.11365874111652374 0.0011924169957637787 -0.993519127368927
 outer loop
  vertex 603500.0 5797500.0 3369.60009765625
  vertex 604500.0 5796500.0 3482.800048828125
  vertex 603500.0 5796500.0 3368.39990234375
 endloop
endfacet
facet normal 0.04445129632949829 -0.06837160885334015 -0.9966691732406616
 outer loop
  vertex 603500.0 5797500.0 3369.60009765625
  vertex 604500.0 5797500.0 3414.199951171875
  vertex 604500.0 5796500.0 3482.800048828125
 endloop
endfacet
facet normal 0.024933628737926483 -0.06841796636581421 -0.9973451495170593
 outer loop
  vertex 604500.0 5797500.0 3414.199951171875
  vertex 605500.0 5796500.0 3507.800048828125
  vertex 604500.0 5796500.0 3482.800048828125
 endloop
endfacet
facet normal 0.1065795049071312 0.013521146960556507 -0.99421226978302
 outer loop
  vertex 604500.0 5797500.0 3414.199951171875
  vertex 605500.0 5797500.0 3521.39990234375
  vertex 605500.0 5796500.0 3507.800048828125
 endloop
endfacet
facet normal -0.029184814542531967 0.013592803850769997 -0.9994816184043884
 outer loop
  vertex 605500.0 5797500.0 3521.39990234375
  vertex 606500.0 5796500.0 3478.60009765625
  vertex 605500.0 5796500.0 3507.800048828125
 endloop
endfacet
facet normal 0.06115245446562767 0.10364124178886414 -0.9927330613136292
 outer loop
  vertex 605500.0 5797500.0 3521.39990234375
  vertex 606500.0 5797500.0 3583.0
  vertex 606500.0 5796500.0 3478.60009765625
 endloop
endfacet
facet normal -0.08197630941867828 0.1034860834479332 -0.9912469387054443
 outer loop
  vertex 606500.0 5797500.0 3583.0
  vertex 607500.0 5796500.0 3395.89990234375
  vertex 606500.0 5796500.0 3478.60009765625
 endloop
endfacet
facet normal -0.1218336820602417 0.06349227577447891 -0.9905177354812622
 outer loop
  vertex 606500.0 5797500.0 3583.0
  vertex 607500.0 5797500.0 3460.0
  vertex 607500.0 5796500.0 3395.89990234375
 endloop
endfacet
facet normal 0.06760605424642563 0.06382246315479279 -0.9956687092781067
 outer loop
  vertex 607500.0 5797500.0 3460.0
  vertex 608500.0 5796500.0 3463.800048828125
  vertex 607500.0 5796500.0 3395.89990234375
 endloop
endfacet
facet normal 0.04640761390328407 0.04261511564254761 -0.9980131983757019
 outer loop
  vertex 607500.0 5797500.0 3460.0
  vertex 608500.0 5797500.0 3506.5
  vertex 608500.0 5796500.0 3463.800048828125
 endloop
endfacet
facet normal -0.08155301958322525 0.0425189770758152 -0.9957616925239563
 outer loop
  vertex 608500.0 5797500.0 3506.5
  vertex 609500.0 5796500.0 3381.89990234375
  vertex 608500.0 5796500.0 3463.800048828125
 endloop
endfacet
facet normal -0.10420902818441391 0.019688384607434273 -0.9943605661392212
 outer loop
  vertex 608500.0 5797500.0 3506.5
  vertex 609500.0 5797500.0 3401.699951171875
  vertex 609500.0 5796500.0 3381.89990234375
 endloop
endfacet
facet normal -0.007898620329797268 -0.017996523529291153 -0.999806821346283
 outer loop
  vertex 601500.0 5798500.0 3336.300048828125
  vertex 602500.0 5797500.0 3346.39990234375
  vertex 601500.0 5797500.0 3354.300048828125
 endloop
endfacet
facet normal 0.037957847118377686 0.027869196608662605 -0.9988906979560852
 outer loop
  vertex 601500.0 5798500.0 3336.300048828125
  vertex 602500.0 5798500.0 3374.300048828125
  vertex 602500.0 5797500.0 3346.39990234375
 endloop
endfacet
facet normal 0.023184936493635178 0.027881797403097153 -0.9993423223495483
 outer loop
  vertex 602500.0 5798500.0 3374.300048828125
  vertex 603500.0 5797500.0 3369.60009765625
  vertex 602500.0 5797500.0 3346.39990234375
 endloop
endfacet
facet normal 0.053630929440259933 0.05831610783934593 -0.9968565106391907
 outer loop
  vertex 602500.0 5798500.0 3374.300048828125
  vertex 603500.0 5798500.0 3428.10009765625
  vertex 603500.0 5797500.0 3369.60009765625
 endloop
endfacet
facet normal 0.04447966441512108 0.058342356234788895 -0.9973052144050598
 outer loop
  vertex 603500.0 5798500.0 3428.10009765625
  vertex 604500.0 5797500.0 3414.199951171875
  vertex 603500.0 5797500.0 3369.60009765625
 endloop
endfacet
facet normal 0.06095835939049721 -0.13042674958705902 -0.9895822405815125
 outer loop
  vertex 605500.0 5798500.0 3389.60009765625
  vertex 606500.0 5797500.0 3583.0
  vertex 605500.0 5797500.0 3521.39990234375
 endloop
endfacet
facet normal 0.126697838306427 -0.0647345781326294 -0.9898267984390259
 outer loop
  vertex 605500.0 5798500.0 3389.60009765625
  vertex 606500.0 5798500.0 3517.60009765625
  vertex 606500.0 5797500.0 3583.0
 endloop
endfacet
facet normal -0.12182361632585526 -0.06477440893650055 -0.9904358983039856
 outer loop
  vertex 606500.0 5798500.0 3517.60009765625
  vertex 607500.0 5797500.0 3460.0
  vertex 606500.0 5797500.0 3583.0
 endloop
endfacet
facet normal 0.03245094045996666 0.08978793025016785 -0.9954320788383484
 outer loop
  vertex 606500.0 5798500.0 3517.60009765625
  vertex 607500.0 5798500.0 3550.199951171875
  vertex 607500.0 5797500.0 3460.0
 endloop
endfacet
facet normal 0.04626239836215973 0.08973906189203262 -0.9948903322219849
 outer loop
  vertex 607500.0 5798500.0 3550.199951171875
  vertex 608500.0 5797500.0 3506.5
  vertex 607500.0 5797500.0 3460.0
 endloop
endfacet
facet normal -0.02908444218337536 0.014592367224395275 -0.9994704127311707
 outer loop
  vertex 607500.0 5798500.0 3550.199951171875
  vertex 608500.0 5798500.0 3521.10009765625
  vertex 608500.0 5797500.0 3506.5
 endloop
endfacet
facet normal -0.1042182445526123 0.014519044198095798 -0.9944484233856201
 outer loop
  vertex 608500.0 5798500.0 3521.10009765625
  vertex 609500.0 5797500.0 3401.699951171875
  vertex 608500.0 5797500.0 3506.5
 endloop
endfacet
facet normal -0.07441874593496323 0.04453153908252716 -0.9962323307991028
 outer loop
  vertex 608500.0 5798500.0 3521.10009765625
  vertex 609500.0 5798500.0 3446.39990234375
  vertex 609500.0 5797500.0 3401.699951171875
 endloop
endfacet
facet normal -0.07178883999586105 -0.026522085070610046 -0.9970672130584717
 outer loop
  vertex 600500.0 5799500.0 3381.699951171875
  vertex 601500.0 5799500.0 3309.699951171875
  vertex 601500.0 5798500.0 3336.300048828125
 endloop
endfacet
facet normal 0.03795918822288513 -0.026571528986096382 -0.9989259839057922
 outer loop
  vertex 601500.0 5799500.0 3309.699951171875
  vertex 602500.0 5798500.0 3374.300048828125
  vertex 601500.0 5798500.0 3336.300048828125
 endloop
endfacet
facet normal 0.07329938560724258 0.008875610306859016 -0.9972705245018005
 outer loop
  vertex 601500.0 5799500.0 3309.699951171875
  vertex 602500.0 5799500.0 3383.199951171875
  vertex 602500.0 5798500.0 3374.300048828125
 endloop
endfacet
facet normal 0.05372023954987526 0.008886699564754963 -0.9985164999961853
 outer loop
  vertex 602500.0 5799500.0 3383.199951171875
  vertex 603500.0 5798500.0 3428.10009765625
  vertex 602500.0 5798500.0 3374.300048828125
 endloop
endfacet
facet normal -0.08166288584470749 -0.12605370581150055 -0.9886565208435059
 outer loop
  vertex 602500.0 5799500.0 3383.199951171875
  vertex 603500.0 5799500.0 3300.60009765625
  vertex 603500.0 5798500.0 3428.10009765625
 endloop
endfacet
facet normal 0.126558318734169 0.07988974452018738 -0.9887368679046631
 outer loop
  vertex 605500.0 5799500.0 3470.39990234375
  vertex 606500.0 5798500.0 3517.60009765625
  vertex 605500.0 5798500.0 3389.60009765625
 endloop
endfacet
facet normal -0.025325100868940353 -0.07238629460334778 -0.9970550537109375
 outer loop
  vertex 605500.0 5799500.0 3470.39990234375
  vertex 606500.0 5799500.0 3445.0
  vertex 606500.0 5798500.0 3517.60009765625
 endloop
endfacet
facet normal 0.032497111707925797 -0.07237127423286438 -0.9968482255935669
 outer loop
  vertex 606500.0 5799500.0 3445.0
  vertex 607500.0 5798500.0 3550.199951171875
  vertex 606500.0 5798500.0 3517.60009765625
 endloop
endfacet
facet normal 0.09960104525089264 -0.005074434448033571 -0.9950145483016968
 outer loop
  vertex 606500.0 5799500.0 3445.0
  vertex 607500.0 5799500.0 3545.10009765625
  vertex 607500.0 5798500.0 3550.199951171875
 endloop
endfacet
facet normal -0.029087161645293236 -0.005097629502415657 -0.9995638728141785
 outer loop
  vertex 607500.0 5799500.0 3545.10009765625
  vertex 608500.0 5798500.0 3521.10009765625
  vertex 607500.0 5798500.0 3550.199951171875
 endloop
endfacet
facet normal 0.001999320462346077 0.02599116414785385 -0.9996601939201355
 outer loop
  vertex 607500.0 5799500.0 3545.10009765625
  vertex 608500.0 5799500.0 3547.10009765625
  vertex 608500.0 5798500.0 3521.10009765625
 endloop
endfacet
facet normal -0.07446762174367905 0.025919049978256226 -0.9968865513801575
 outer loop
  vertex 608500.0 5799500.0 3547.10009765625
  vertex 609500.0 5798500.0 3446.39990234375
  vertex 608500.0 5798500.0 3521.10009765625
 endloop
endfacet
facet normal -0.07132675498723984 0.11630239337682724 -0.9906494617462158
 outer loop
  vertex 600500.0 5800500.0 3499.10009765625
  vertex 601500.0 5799500.0 3309.699951171875
  vertex 600500.0 5799500.0 3381.699951171875
 endloop
endfacet
facet normal -0.08215823769569397 0.06256385892629623 -0.9946536421775818
 outer loop
  vertex 602500.0 5800500.0 3446.10009765625
  vertex 603500.0 5799500.0 3300.60009765625
  vertex 602500.0 5799500.0 3383.199951171875
 endloop
endfacet
facet normal 0.0696081593632698 0.21145689487457275 -0.9749054312705994
 outer loop
  vertex 602500.0 5800500.0 3446.10009765625
  vertex 603500.0 5800500.0 3517.5
  vertex 603500.0 5799500.0 3300.60009765625
 endloop
endfacet
facet normal 0.09937578439712524 0.06740858405828476 -0.9927640557289124
 outer loop
  vertex 606500.0 5800500.0 3512.89990234375
  vertex 607500.0 5799500.0 3545.10009765625
  vertex 606500.0 5799500.0 3445.0
 endloop
endfacet
facet normal 0.07047220319509506 0.0383758470416069 -0.9967752695083618
 outer loop
  vertex 606500.0 5800500.0 3512.89990234375
  vertex 607500.0 5800500.0 3583.60009765625
  vertex 607500.0 5799500.0 3545.10009765625
 endloop
endfacet
facet normal 0.0019985155668109655 0.03847142308950424 -0.9992577433586121
 outer loop
  vertex 607500.0 5800500.0 3583.60009765625
  vertex 608500.0 5799500.0 3547.10009765625
  vertex 607500.0 5799500.0 3545.10009765625
 endloop
endfacet
endsolid
