solid
facet normal 0.07757477462291718 -0.12219945341348648 -0.9894692897796631
 outer loop
  vertex 703500.0 5478500.0 6664.2998046875
  vertex 704500.0 5478500.0 6742.7001953125
  vertex 704500.0 5477500.0 6866.2001953125
 endloop
endfacet
facet normal -0.14713892340660095 -0.4616248905658722 -0.8747871518135071
 outer loop
  vertex 701500.0 5479500.0 6552.2001953125
  vertex 702500.0 5478500.0 6911.7001953125
  vertex 701500.0 5478500.0 7079.89990234375
 endloop
endfacet
facet normal -0.031714726239442825 -0.36606696248054504 -0.9300479292869568
 outer loop
  vertex 701500.0 5479500.0 6552.2001953125
  vertex 702500.0 5479500.0 6518.10009765625
  vertex 702500.0 5478500.0 6911.7001953125
 endloop
endfacet
facet normal -0.22434209287166595 -0.3569156229496002 -0.9067976474761963
 outer loop
  vertex 702500.0 5479500.0 6518.10009765625
  vertex 703500.0 5478500.0 6664.2998046875
  vertex 702500.0 5478500.0 6911.7001953125
 endloop
endfacet
facet normal 0.004752475302666426 -0.14000560343265533 -0.9901393055915833
 outer loop
  vertex 702500.0 5479500.0 6518.10009765625
  vertex 703500.0 5479500.0 6522.89990234375
  vertex 703500.0 5478500.0 6664.2998046875
 endloop
endfacet
facet normal 0.07739534229040146 -0.13958723843097687 -0.9871805310249329
 outer loop
  vertex 703500.0 5479500.0 6522.89990234375
  vertex 704500.0 5478500.0 6742.7001953125
  vertex 703500.0 5478500.0 6664.2998046875
 endloop
endfacet
facet normal 0.08334572613239288 -0.13370919227600098 -0.9875096678733826
 outer loop
  vertex 703500.0 5479500.0 6522.89990234375
  vertex 704500.0 5479500.0 6607.2998046875
  vertex 704500.0 5478500.0 6742.7001953125
 endloop
endfacet
facet normal -0.005648561287671328 -0.1341738998889923 -0.9909417629241943
 outer loop
  vertex 704500.0 5479500.0 6607.2998046875
  vertex 705500.0 5478500.0 6737.0
  vertex 704500.0 5478500.0 6742.7001953125
 endloop
endfacet
facet normal -0.042822543531656265 -0.17050281167030334 -0.9844262599945068
 outer loop
  vertex 704500.0 5479500.0 6607.2998046875
  vertex 705500.0 5479500.0 6563.7998046875
  vertex 705500.0 5478500.0 6737.0
 endloop
endfacet
facet normal -0.07555519044399261 -0.17017154395580292 -0.9825136661529541
 outer loop
  vertex 705500.0 5479500.0 6563.7998046875
  vertex 706500.0 5478500.0 6660.10009765625
  vertex 705500.0 5478500.0 6737.0
 endloop
endfacet
facet normal -0.1449434608221054 -0.2374425083398819 -0.9605271220207214
 outer loop
  vertex 705500.0 5479500.0 6563.7998046875
  vertex 706500.0 5479500.0 6412.89990234375
  vertex 706500.0 5478500.0 6660.10009765625
 endloop
endfacet
facet normal -0.2778109312057495 -0.23053017258644104 -0.9325647354125977
 outer loop
  vertex 706500.0 5479500.0 6412.89990234375
  vertex 707500.0 5478500.0 6362.2001953125
  vertex 706500.0 5478500.0 6660.10009765625
 endloop
endfacet
facet normal -0.04615001380443573 0.004495159722864628 -0.9989244341850281
 outer loop
  vertex 706500.0 5479500.0 6412.89990234375
  vertex 707500.0 5479500.0 6366.7001953125
  vertex 707500.0 5478500.0 6362.2001953125
 endloop
endfacet
facet normal 0.1356334537267685 0.004458370618522167 -0.9907490611076355
 outer loop
  vertex 707500.0 5479500.0 6366.7001953125
  vertex 708500.0 5478500.0 6499.10009765625
  vertex 707500.0 5478500.0 6362.2001953125
 endloop
endfacet
facet normal 0.2188027799129486 0.09016376733779907 -0.9715944528579712
 outer loop
  vertex 707500.0 5479500.0 6366.7001953125
  vertex 708500.0 5479500.0 6591.89990234375
  vertex 708500.0 5478500.0 6499.10009765625
 endloop
endfacet
facet normal -0.032120686024427414 0.3342047333717346 -0.9419529438018799
 outer loop
  vertex 701500.0 5480500.0 6907.0
  vertex 702500.0 5479500.0 6518.10009765625
  vertex 701500.0 5479500.0 6552.2001953125
 endloop
endfacet
facet normal -0.08639711141586304 0.2848716974258423 -0.9546641707420349
 outer loop
  vertex 701500.0 5480500.0 6907.0
  vertex 702500.0 5480500.0 6816.5
  vertex 702500.0 5479500.0 6518.10009765625
 endloop
endfacet
facet normal 0.004599358420819044 0.2859378755092621 -0.9582371711730957
 outer loop
  vertex 702500.0 5480500.0 6816.5
  vertex 703500.0 5479500.0 6522.89990234375
  vertex 702500.0 5479500.0 6518.10009765625
 endloop
endfacet
facet normal -0.2264339178800583 0.05901497229933739 -0.9722370505332947
 outer loop
  vertex 702500.0 5480500.0 6816.5
  vertex 703500.0 5480500.0 6583.60009765625
  vertex 703500.0 5479500.0 6522.89990234375
 endloop
endfacet
facet normal 0.08394747972488403 0.06037480756640434 -0.9946394562721252
 outer loop
  vertex 703500.0 5480500.0 6583.60009765625
  vertex 704500.0 5479500.0 6607.2998046875
  vertex 703500.0 5479500.0 6522.89990234375
 endloop
endfacet
facet normal -0.0853714868426323 -0.1088433489203453 -0.9903861880302429
 outer loop
  vertex 703500.0 5480500.0 6583.60009765625
  vertex 704500.0 5480500.0 6497.39990234375
  vertex 704500.0 5479500.0 6607.2998046875
 endloop
endfacet
facet normal -0.043199293315410614 -0.10914019495248795 -0.9930872321128845
 outer loop
  vertex 704500.0 5480500.0 6497.39990234375
  vertex 705500.0 5479500.0 6563.7998046875
  vertex 704500.0 5479500.0 6607.2998046875
 endloop
endfacet
facet normal 0.04594187065958977 -0.020374126732349396 -0.9987362623214722
 outer loop
  vertex 704500.0 5480500.0 6497.39990234375
  vertex 705500.0 5480500.0 6543.39990234375
  vertex 705500.0 5479500.0 6563.7998046875
 endloop
endfacet
facet normal -0.14918029308319092 -0.020167430862784386 -0.9886043071746826
 outer loop
  vertex 705500.0 5480500.0 6543.39990234375
  vertex 706500.0 5479500.0 6412.89990234375
  vertex 705500.0 5479500.0 6563.7998046875
 endloop
endfacet
facet normal -0.15600647032260895 -0.027153024449944496 -0.987382709980011
 outer loop
  vertex 705500.0 5480500.0 6543.39990234375
  vertex 706500.0 5480500.0 6385.39990234375
  vertex 706500.0 5479500.0 6412.89990234375
 endloop
endfacet
facet normal -0.046133074909448624 -0.027460338547825813 -0.9985577464103699
 outer loop
  vertex 706500.0 5480500.0 6385.39990234375
  vertex 707500.0 5479500.0 6366.7001953125
  vertex 706500.0 5479500.0 6412.89990234375
 endloop
endfacet
facet normal 0.14417466521263123 0.16242802143096924 -0.9761305451393127
 outer loop
  vertex 706500.0 5480500.0 6385.39990234375
  vertex 707500.0 5480500.0 6533.10009765625
  vertex 707500.0 5479500.0 6366.7001953125
 endloop
endfacet
facet normal 0.21685883402824402 0.16023683547973633 -0.9629623293876648
 outer loop
  vertex 707500.0 5480500.0 6533.10009765625
  vertex 708500.0 5479500.0 6591.89990234375
  vertex 707500.0 5479500.0 6366.7001953125
 endloop
endfacet
facet normal 0.3036276400089264 0.24955961108207703 -0.9195272326469421
 outer loop
  vertex 707500.0 5480500.0 6533.10009765625
  vertex 708500.0 5480500.0 6863.2998046875
  vertex 708500.0 5479500.0 6591.89990234375
 endloop
endfacet
facet normal -0.08974915742874146 -0.0920298844575882 -0.9917033910751343
 outer loop
  vertex 701500.0 5481500.0 6814.2001953125
  vertex 702500.0 5480500.0 6816.5
  vertex 701500.0 5480500.0 6907.0
 endloop
endfacet
facet normal -0.18071189522743225 -0.18293437361717224 -0.9663737416267395
 outer loop
  vertex 701500.0 5481500.0 6814.2001953125
  vertex 702500.0 5481500.0 6627.2001953125
  vertex 702500.0 5480500.0 6816.5
 endloop
endfacet
facet normal -0.22306978702545166 -0.18130995333194733 -0.9577925205230713
 outer loop
  vertex 702500.0 5481500.0 6627.2001953125
  vertex 703500.0 5480500.0 6583.60009765625
  vertex 702500.0 5480500.0 6816.5
 endloop
endfacet
facet normal -0.01929100602865219 0.024288112297654152 -0.999518871307373
 outer loop
  vertex 702500.0 5481500.0 6627.2001953125
  vertex 703500.0 5481500.0 6607.89990234375
  vertex 703500.0 5480500.0 6583.60009765625
 endloop
endfacet
facet normal -0.08585655689239502 0.02420293353497982 -0.9960135221481323
 outer loop
  vertex 703500.0 5481500.0 6607.89990234375
  vertex 704500.0 5480500.0 6497.39990234375
  vertex 703500.0 5480500.0 6583.60009765625
 endloop
endfacet
facet normal 0.07776958495378494 0.18600068986415863 -0.9794670343399048
 outer loop
  vertex 703500.0 5481500.0 6607.89990234375
  vertex 704500.0 5481500.0 6687.2998046875
  vertex 704500.0 5480500.0 6497.39990234375
 endloop
endfacet
facet normal 0.04514627531170845 0.18637551367282867 -0.9814407825469971
 outer loop
  vertex 704500.0 5481500.0 6687.2998046875
  vertex 705500.0 5480500.0 6543.39990234375
  vertex 704500.0 5480500.0 6497.39990234375
 endloop
endfacet
facet normal -0.09495731443166733 0.04812486842274666 -0.9943174123764038
 outer loop
  vertex 704500.0 5481500.0 6687.2998046875
  vertex 705500.0 5481500.0 6591.7998046875
  vertex 705500.0 5480500.0 6543.39990234375
 endloop
endfacet
facet normal -0.1558859795331955 0.047752317041158676 -0.9866201281547546
 outer loop
  vertex 705500.0 5481500.0 6591.7998046875
  vertex 706500.0 5480500.0 6385.39990234375
  vertex 705500.0 5480500.0 6543.39990234375
 endloop
endfacet
facet normal 0.36388230323791504 0.5229699015617371 -0.7707736492156982
 outer loop
  vertex 705500.0 5481500.0 6591.7998046875
  vertex 706500.0 5481500.0 7063.89990234375
  vertex 706500.0 5480500.0 6385.39990234375
 endloop
endfacet
facet normal 0.12131959199905396 0.5573137402534485 -0.8213909268379211
 outer loop
  vertex 706500.0 5481500.0 7063.89990234375
  vertex 707500.0 5480500.0 6533.10009765625
  vertex 706500.0 5480500.0 6385.39990234375
 endloop
endfacet
facet normal 0.39955079555511475 0.7083922028541565 -0.5818416476249695
 outer loop
  vertex 706500.0 5481500.0 7063.89990234375
  vertex 707500.0 5481500.0 7750.60009765625
  vertex 707500.0 5480500.0 6533.10009765625
 endloop
endfacet
facet normal 0.20512312650680542 0.7563223242759705 -0.6212093234062195
 outer loop
  vertex 707500.0 5481500.0 7750.60009765625
  vertex 708500.0 5480500.0 6863.2998046875
  vertex 707500.0 5480500.0 6533.10009765625
 endloop
endfacet
facet normal -0.4467257559299469 0.30087846517562866 -0.8425605297088623
 outer loop
  vertex 707500.0 5481500.0 7750.60009765625
  vertex 708500.0 5481500.0 7220.39990234375
  vertex 708500.0 5480500.0 6863.2998046875
 endloop
endfacet
facet normal -0.29176244139671326 0.32166850566864014 -0.900779664516449
 outer loop
  vertex 708500.0 5481500.0 7220.39990234375
  vertex 709500.0 5480500.0 6539.39990234375
  vertex 708500.0 5480500.0 6863.2998046875
 endloop
endfacet
facet normal -0.31092336773872375 0.3026342988014221 -0.9009657502174377
 outer loop
  vertex 708500.0 5481500.0 7220.39990234375
  vertex 709500.0 5481500.0 6875.2998046875
  vertex 709500.0 5480500.0 6539.39990234375
 endloop
endfacet
facet normal 0.3714948296546936 0.2956291139125824 -0.8801107406616211
 outer loop
  vertex 709500.0 5481500.0 6875.2998046875
  vertex 710500.0 5480500.0 6961.5
  vertex 709500.0 5480500.0 6539.39990234375
 endloop
endfacet
facet normal -0.18377076089382172 -0.021620089188218117 -0.9827313423156738
 outer loop
  vertex 701500.0 5482500.0 6792.2001953125
  vertex 702500.0 5481500.0 6627.2001953125
  vertex 701500.0 5481500.0 6814.2001953125
 endloop
endfacet
facet normal 0.2522052228450775 0.39775916934013367 -0.8821451663970947
 outer loop
  vertex 701500.0 5482500.0 6792.2001953125
  vertex 702500.0 5482500.0 7078.10009765625
  vertex 702500.0 5481500.0 6627.2001953125
 endloop
endfacet
facet normal -0.0175916887819767 0.4109831750392914 -0.9114731550216675
 outer loop
  vertex 702500.0 5482500.0 7078.10009765625
  vertex 703500.0 5481500.0 6607.89990234375
  vertex 702500.0 5481500.0 6627.2001953125
 endloop
endfacet
facet normal 0.27577662467956543 0.6208279728889465 -0.733839213848114
 outer loop
  vertex 702500.0 5482500.0 7078.10009765625
  vertex 703500.0 5482500.0 7453.89990234375
  vertex 703500.0 5481500.0 6607.89990234375
 endloop
endfacet
facet normal 0.06050631031394005 0.6446903944015503 -0.7620454430580139
 outer loop
  vertex 703500.0 5482500.0 7453.89990234375
  vertex 704500.0 5481500.0 6687.2998046875
  vertex 703500.0 5481500.0 6607.89990234375
 endloop
endfacet
facet normal -0.4292820692062378 0.23850975930690765 -0.8711084127426147
 outer loop
  vertex 703500.0 5482500.0 7453.89990234375
  vertex 704500.0 5482500.0 6961.10009765625
  vertex 704500.0 5481500.0 6687.2998046875
 endloop
endfacet
facet normal -0.0917215421795845 0.26296737790107727 -0.9604349732398987
 outer loop
  vertex 704500.0 5482500.0 6961.10009765625
  vertex 705500.0 5481500.0 6591.7998046875
  vertex 704500.0 5481500.0 6687.2998046875
 endloop
endfacet
facet normal -0.30110177397727966 0.050564590841531754 -0.9522504806518555
 outer loop
  vertex 704500.0 5482500.0 6961.10009765625
  vertex 705500.0 5482500.0 6644.89990234375
  vertex 705500.0 5481500.0 6591.7998046875
 endloop
endfacet
facet normal 0.42642468214035034 0.047962695360183716 -0.9032505750656128
 outer loop
  vertex 705500.0 5482500.0 6644.89990234375
  vertex 706500.0 5481500.0 7063.89990234375
  vertex 705500.0 5481500.0 6591.7998046875
 endloop
endfacet
facet normal 0.04476762190461159 -0.34764909744262695 -0.9365553855895996
 outer loop
  vertex 705500.0 5482500.0 6644.89990234375
  vertex 706500.0 5482500.0 6692.7001953125
  vertex 706500.0 5481500.0 7063.89990234375
 endloop
endfacet
facet normal 0.541305422782898 -0.29260575771331787 -0.7882704734802246
 outer loop
  vertex 706500.0 5482500.0 6692.7001953125
  vertex 707500.0 5481500.0 7750.60009765625
  vertex 706500.0 5481500.0 7063.89990234375
 endloop
endfacet
facet normal 0.48138880729675293 -0.36273735761642456 -0.7979263663291931
 outer loop
  vertex 706500.0 5482500.0 6692.7001953125
  vertex 707500.0 5482500.0 7296.0
  vertex 707500.0 5481500.0 7750.60009765625
 endloop
endfacet
facet normal -0.43468180298805237 -0.3727014660835266 -0.819844663143158
 outer loop
  vertex 707500.0 5482500.0 7296.0
  vertex 708500.0 5481500.0 7220.39990234375
  vertex 707500.0 5481500.0 7750.60009765625
 endloop
endfacet
facet normal -0.3601073920726776 -0.2931517958641052 -0.8856549859046936
 outer loop
  vertex 707500.0 5482500.0 7296.0
  vertex 708500.0 5482500.0 6889.39990234375
  vertex 708500.0 5481500.0 7220.39990234375
 endloop
endfacet
facet normal -0.31133654713630676 -0.298615962266922 -0.902163028717041
 outer loop
  vertex 708500.0 5482500.0 6889.39990234375
  vertex 709500.0 5481500.0 6875.2998046875
  vertex 708500.0 5481500.0 7220.39990234375
 endloop
endfacet
facet normal 0.5093974471092224 -0.1660842001438141 -0.8443520665168762
 outer loop
  vertex 706500.0 5483500.0 6496.0
  vertex 707500.0 5482500.0 7296.0
  vertex 706500.0 5482500.0 6692.7001953125
 endloop
endfacet
facet normal 0.3381996750831604 -0.3580424189567566 -0.8703026175498962
 outer loop
  vertex 706500.0 5483500.0 6496.0
  vertex 707500.0 5483500.0 6884.60009765625
  vertex 707500.0 5482500.0 7296.0
 endloop
endfacet
facet normal -0.3519623875617981 -0.35611721873283386 -0.8656229376792908
 outer loop
  vertex 707500.0 5483500.0 6884.60009765625
  vertex 708500.0 5482500.0 6889.39990234375
  vertex 707500.0 5482500.0 7296.0
 endloop
endfacet
facet normal -0.09196998924016953 -0.09672684222459793 -0.9910526871681213
 outer loop
  vertex 707500.0 5483500.0 6884.60009765625
  vertex 708500.0 5483500.0 6791.7998046875
  vertex 708500.0 5482500.0 6889.39990234375
 endloop
endfacet
facet normal 0.3622110188007355 -0.00279627600684762 -0.9320919513702393
 outer loop
  vertex 706500.0 5484500.0 6493.0
  vertex 707500.0 5483500.0 6884.60009765625
  vertex 706500.0 5483500.0 6496.0
 endloop
endfacet
facet normal 0.17575585842132568 -0.20157992839813232 -0.9635742902755737
 outer loop
  vertex 706500.0 5484500.0 6493.0
  vertex 707500.0 5484500.0 6675.39990234375
  vertex 707500.0 5483500.0 6884.60009765625
 endloop
endfacet
facet normal -0.09046147763729095 -0.20392781496047974 -0.9747974872589111
 outer loop
  vertex 707500.0 5484500.0 6675.39990234375
  vertex 708500.0 5483500.0 6791.7998046875
  vertex 707500.0 5483500.0 6884.60009765625
 endloop
endfacet
facet normal 0.09049750119447708 -0.0253871139138937 -0.9955730438232422
 outer loop
  vertex 707500.0 5484500.0 6675.39990234375
  vertex 708500.0 5484500.0 6766.2998046875
  vertex 708500.0 5483500.0 6791.7998046875
 endloop
endfacet
facet normal 0.09020932018756866 0.08365985006093979 -0.9924027919769287
 outer loop
  vertex 707500.0 5485500.0 6759.7001953125
  vertex 708500.0 5484500.0 6766.2998046875
  vertex 707500.0 5484500.0 6675.39990234375
 endloop
endfacet
endsolid
