solid
facet normal 0.06348557025194168 -0.5861541628837585 -0.8077084422111511
 outer loop
  vertex 774500.0 5629500.0 6820.7001953125
  vertex 775500.0 5629500.0 6899.2998046875
  vertex 775500.0 5628500.0 7625.0
 endloop
endfacet
facet normal 0.014971132390201092 -0.5872731804847717 -0.8092503547668457
 outer loop
  vertex 775500.0 5629500.0 6899.2998046875
  vertex 776500.0 5628500.0 7643.5
  vertex 775500.0 5628500.0 7625.0
 endloop
endfacet
facet normal 0.4053780138492584 -0.24917210638523102 -0.8795350193977356
 outer loop
  vertex 775500.0 5629500.0 6899.2998046875
  vertex 776500.0 5629500.0 7360.2001953125
  vertex 776500.0 5628500.0 7643.5
 endloop
endfacet
facet normal 0.22527526319026947 -0.45132800936698914 -0.8634547591209412
 outer loop
  vertex 773500.0 5630500.0 6037.10009765625
  vertex 774500.0 5630500.0 6298.0
  vertex 774500.0 5629500.0 6820.7001953125
 endloop
endfacet
facet normal 0.06948937475681305 -0.4621155560016632 -0.8840929865837097
 outer loop
  vertex 774500.0 5630500.0 6298.0
  vertex 775500.0 5629500.0 6899.2998046875
  vertex 774500.0 5629500.0 6820.7001953125
 endloop
endfacet
facet normal 0.4134715795516968 -0.1285390555858612 -0.9013983011245728
 outer loop
  vertex 774500.0 5630500.0 6298.0
  vertex 775500.0 5630500.0 6756.7001953125
  vertex 775500.0 5629500.0 6899.2998046875
 endloop
endfacet
facet normal 0.41511374711990356 -0.12843352556228638 -0.9006583094596863
 outer loop
  vertex 775500.0 5630500.0 6756.7001953125
  vertex 776500.0 5629500.0 7360.2001953125
  vertex 775500.0 5629500.0 6899.2998046875
 endloop
endfacet
facet normal 0.09696665406227112 -0.44139155745506287 -0.8920599818229675
 outer loop
  vertex 775500.0 5630500.0 6756.7001953125
  vertex 776500.0 5630500.0 6865.39990234375
  vertex 776500.0 5629500.0 7360.2001953125
 endloop
endfacet
facet normal 0.4018707275390625 -0.26633673906326294 -0.8761076331138611
 outer loop
  vertex 774500.0 5631500.0 5994.0
  vertex 775500.0 5630500.0 6756.7001953125
  vertex 774500.0 5630500.0 6298.0
 endloop
endfacet
facet normal 0.2728674113750458 -0.3958854675292969 -0.8768227100372314
 outer loop
  vertex 774500.0 5631500.0 5994.0
  vertex 775500.0 5631500.0 6305.2001953125
  vertex 775500.0 5630500.0 6756.7001953125
 endloop
endfacet
facet normal 0.098587267100811 -0.40949660539627075 -0.9069692492485046
 outer loop
  vertex 775500.0 5631500.0 6305.2001953125
  vertex 776500.0 5630500.0 6865.39990234375
  vertex 775500.0 5630500.0 6756.7001953125
 endloop
endfacet
facet normal -0.05617806315422058 -0.5301350951194763 -0.8460501432418823
 outer loop
  vertex 775500.0 5631500.0 6305.2001953125
  vertex 776500.0 5631500.0 6238.7998046875
  vertex 776500.0 5630500.0 6865.39990234375
 endloop
endfacet
facet normal 0.25084632635116577 -0.5139967799186707 -0.8202947378158569
 outer loop
  vertex 776500.0 5631500.0 6238.7998046875
  vertex 777500.0 5630500.0 7171.2001953125
  vertex 776500.0 5630500.0 6865.39990234375
 endloop
endfacet
facet normal 0.318659245967865 -0.456094354391098 -0.8309237360954285
 outer loop
  vertex 776500.0 5631500.0 6238.7998046875
  vertex 777500.0 5631500.0 6622.2998046875
  vertex 777500.0 5630500.0 7171.2001953125
 endloop
endfacet
facet normal -0.3642740547657013 -0.44811761379241943 -0.8163915276527405
 outer loop
  vertex 777500.0 5631500.0 6622.2998046875
  vertex 778500.0 5630500.0 6725.0
  vertex 777500.0 5630500.0 7171.2001953125
 endloop
endfacet
facet normal 0.47321581840515137 0.3922034502029419 -0.7888240218162537
 outer loop
  vertex 777500.0 5631500.0 6622.2998046875
  vertex 778500.0 5631500.0 7222.2001953125
  vertex 778500.0 5630500.0 6725.0
 endloop
endfacet
facet normal -0.2270781546831131 0.4335765242576599 -0.8720360994338989
 outer loop
  vertex 778500.0 5631500.0 7222.2001953125
  vertex 779500.0 5630500.0 6464.60009765625
  vertex 778500.0 5630500.0 6725.0
 endloop
endfacet
facet normal -0.6743093729019165 -0.1226280927658081 -0.7281959056854248
 outer loop
  vertex 778500.0 5631500.0 7222.2001953125
  vertex 779500.0 5631500.0 6296.2001953125
  vertex 779500.0 5630500.0 6464.60009765625
 endloop
endfacet
facet normal 0.2913716435432434 0.19615143537521362 -0.9362836480140686
 outer loop
  vertex 774500.0 5632500.0 6203.5
  vertex 775500.0 5631500.0 6305.2001953125
  vertex 774500.0 5631500.0 5994.0
 endloop
endfacet
facet normal -0.029434308409690857 -0.1302240490913391 -0.9910476207733154
 outer loop
  vertex 774500.0 5632500.0 6203.5
  vertex 775500.0 5632500.0 6173.7998046875
  vertex 775500.0 5631500.0 6305.2001953125
 endloop
endfacet
facet normal -0.06569226831197739 -0.1299990713596344 -0.9893355369567871
 outer loop
  vertex 775500.0 5632500.0 6173.7998046875
  vertex 776500.0 5631500.0 6238.7998046875
  vertex 775500.0 5631500.0 6305.2001953125
 endloop
endfacet
facet normal 0.2840975522994995 0.2234925925731659 -0.9323838949203491
 outer loop
  vertex 775500.0 5632500.0 6173.7998046875
  vertex 776500.0 5632500.0 6478.5
  vertex 776500.0 5631500.0 6238.7998046875
 endloop
endfacet
facet normal 0.34942731261253357 0.218403622508049 -0.9111533164978027
 outer loop
  vertex 776500.0 5632500.0 6478.5
  vertex 777500.0 5631500.0 6622.2998046875
  vertex 776500.0 5631500.0 6238.7998046875
 endloop
endfacet
facet normal 0.3976336419582367 0.271604061126709 -0.8764237761497498
 outer loop
  vertex 776500.0 5632500.0 6478.5
  vertex 777500.0 5632500.0 6932.2001953125
  vertex 777500.0 5631500.0 6622.2998046875
 endloop
endfacet
facet normal 0.49717649817466736 0.25683462619781494 -0.8287650942802429
 outer loop
  vertex 777500.0 5632500.0 6932.2001953125
  vertex 778500.0 5631500.0 7222.2001953125
  vertex 777500.0 5631500.0 6622.2998046875
 endloop
endfacet
facet normal -0.29123035073280334 -0.5234457850456238 -0.8007429242134094
 outer loop
  vertex 777500.0 5632500.0 6932.2001953125
  vertex 778500.0 5632500.0 6568.5
  vertex 778500.0 5631500.0 7222.2001953125
 endloop
endfacet
facet normal -0.6126139760017395 -0.4324685335159302 -0.661570131778717
 outer loop
  vertex 778500.0 5632500.0 6568.5
  vertex 779500.0 5631500.0 6296.2001953125
  vertex 778500.0 5631500.0 7222.2001953125
 endloop
endfacet
facet normal -0.464291512966156 -0.23150479793548584 -0.8548911809921265
 outer loop
  vertex 778500.0 5632500.0 6568.5
  vertex 779500.0 5632500.0 6025.39990234375
  vertex 779500.0 5631500.0 6296.2001953125
 endloop
endfacet
facet normal 0.5651423931121826 -0.21564149856567383 -0.7963119745254517
 outer loop
  vertex 779500.0 5632500.0 6025.39990234375
  vertex 780500.0 5631500.0 7005.89990234375
  vertex 779500.0 5631500.0 6296.2001953125
 endloop
endfacet
facet normal 0.7341765761375427 0.07223622500896454 -0.6751049160957336
 outer loop
  vertex 779500.0 5632500.0 6025.39990234375
  vertex 780500.0 5632500.0 7112.89990234375
  vertex 780500.0 5631500.0 7005.89990234375
 endloop
endfacet
facet normal -0.42372798919677734 -0.28849565982818604 -0.8586180210113525
 outer loop
  vertex 773500.0 5633500.0 6361.0
  vertex 774500.0 5633500.0 5867.5
  vertex 774500.0 5632500.0 6203.5
 endloop
endfacet
facet normal -0.02814231626689434 -0.31837570667266846 -0.9475467801094055
 outer loop
  vertex 774500.0 5633500.0 5867.5
  vertex 775500.0 5632500.0 6173.7998046875
  vertex 774500.0 5632500.0 6203.5
 endloop
endfacet
facet normal -0.07026863843202591 -0.35572350025177 -0.9319459199905396
 outer loop
  vertex 774500.0 5633500.0 5867.5
  vertex 775500.0 5633500.0 5792.10009765625
  vertex 775500.0 5632500.0 6173.7998046875
 endloop
endfacet
facet normal 0.2737903892993927 -0.3429788649082184 -0.8985567688941956
 outer loop
  vertex 775500.0 5633500.0 5792.10009765625
  vertex 776500.0 5632500.0 6478.5
  vertex 775500.0 5632500.0 6173.7998046875
 endloop
endfacet
facet normal 0.035453490912914276 -0.5412157773971558 -0.8401359915733337
 outer loop
  vertex 775500.0 5633500.0 5792.10009765625
  vertex 776500.0 5633500.0 5834.2998046875
  vertex 776500.0 5632500.0 6478.5
 endloop
endfacet
facet normal 0.35636839270591736 -0.5060006380081177 -0.7854711413383484
 outer loop
  vertex 776500.0 5633500.0 5834.2998046875
  vertex 777500.0 5632500.0 6932.2001953125
  vertex 776500.0 5632500.0 6478.5
 endloop
endfacet
facet normal 0.08316096663475037 -0.6978668570518494 -0.7113831639289856
 outer loop
  vertex 776500.0 5633500.0 5834.2998046875
  vertex 777500.0 5633500.0 5951.2001953125
  vertex 777500.0 5632500.0 6932.2001953125
 endloop
endfacet
facet normal -0.2512979507446289 -0.677820086479187 -0.6909480690956116
 outer loop
  vertex 777500.0 5633500.0 5951.2001953125
  vertex 778500.0 5632500.0 6568.5
  vertex 777500.0 5632500.0 6932.2001953125
 endloop
endfacet
facet normal 0.4457526206970215 -0.10314647108316422 -0.8891937136650085
 outer loop
  vertex 777500.0 5633500.0 5951.2001953125
  vertex 778500.0 5633500.0 6452.5
  vertex 778500.0 5632500.0 6568.5
 endloop
endfacet
facet normal -0.474796324968338 -0.10141108930110931 -0.8742335438728333
 outer loop
  vertex 778500.0 5633500.0 6452.5
  vertex 779500.0 5632500.0 6025.39990234375
  vertex 778500.0 5632500.0 6568.5
 endloop
endfacet
facet normal 0.07382054626941681 0.45322760939598083 -0.8883329033851624
 outer loop
  vertex 778500.0 5633500.0 6452.5
  vertex 779500.0 5633500.0 6535.60009765625
  vertex 779500.0 5632500.0 6025.39990234375
 endloop
endfacet
facet normal 0.6957785487174988 0.326424241065979 -0.6397963762283325
 outer loop
  vertex 779500.0 5633500.0 6535.60009765625
  vertex 780500.0 5632500.0 7112.89990234375
  vertex 779500.0 5632500.0 6025.39990234375
 endloop
endfacet
facet normal 0.6413224339485168 0.21635061502456665 -0.7361371517181396
 outer loop
  vertex 779500.0 5633500.0 6535.60009765625
  vertex 780500.0 5633500.0 7406.7998046875
  vertex 780500.0 5632500.0 7112.89990234375
 endloop
endfacet
facet normal 0.26770728826522827 0.2716820538043976 -0.9244033098220825
 outer loop
  vertex 780500.0 5633500.0 7406.7998046875
  vertex 781500.0 5632500.0 7402.5
  vertex 780500.0 5632500.0 7112.89990234375
 endloop
endfacet
facet normal -0.1749267578125 -0.17075739800930023 -0.9696610569953918
 outer loop
  vertex 780500.0 5633500.0 7406.7998046875
  vertex 781500.0 5633500.0 7226.39990234375
  vertex 781500.0 5632500.0 7402.5
 endloop
endfacet
facet normal -0.3559037148952484 -0.16207562386989594 -0.920360803604126
 outer loop
  vertex 781500.0 5633500.0 7226.39990234375
  vertex 782500.0 5632500.0 7015.7998046875
  vertex 781500.0 5632500.0 7402.5
 endloop
endfacet
facet normal -0.20504838228225708 0.0010767180938273668 -0.9787512421607971
 outer loop
  vertex 781500.0 5633500.0 7226.39990234375
  vertex 782500.0 5633500.0 7016.89990234375
  vertex 782500.0 5632500.0 7015.7998046875
 endloop
endfacet
facet normal -0.12361203879117966 -0.1071372702717781 -0.9865301847457886
 outer loop
  vertex 765500.0 5634500.0 6293.89990234375
  vertex 766500.0 5634500.0 6168.60009765625
  vertex 766500.0 5633500.0 6277.2001953125
 endloop
endfacet
facet normal -0.028917895630002022 -0.10792013257741928 -0.9937388896942139
 outer loop
  vertex 766500.0 5634500.0 6168.60009765625
  vertex 767500.0 5633500.0 6248.10009765625
  vertex 766500.0 5633500.0 6277.2001953125
 endloop
endfacet
facet normal -0.09566383063793182 -0.1735866516828537 -0.9801613092422485
 outer loop
  vertex 766500.0 5634500.0 6168.60009765625
  vertex 767500.0 5634500.0 6071.0
  vertex 767500.0 5633500.0 6248.10009765625
 endloop
endfacet
facet normal 0.021165819838643074 -0.17434737086296082 -0.9844567179679871
 outer loop
  vertex 767500.0 5634500.0 6071.0
  vertex 768500.0 5633500.0 6269.60009765625
  vertex 767500.0 5633500.0 6248.10009765625
 endloop
endfacet
facet normal -0.0074432953260838985 -0.2019459456205368 -0.9793683886528015
 outer loop
  vertex 767500.0 5634500.0 6071.0
  vertex 768500.0 5634500.0 6063.39990234375
  vertex 768500.0 5633500.0 6269.60009765625
 endloop
endfacet
facet normal 0.022142276167869568 -0.2841099798679352 -0.9585360288619995
 outer loop
  vertex 770500.0 5634500.0 6164.0
  vertex 771500.0 5634500.0 6187.10009765625
  vertex 771500.0 5633500.0 6483.5
 endloop
endfacet
facet normal 0.18904942274093628 -0.2790552079677582 -0.9414820671081543
 outer loop
  vertex 771500.0 5634500.0 6187.10009765625
  vertex 772500.0 5633500.0 6684.2998046875
  vertex 771500.0 5633500.0 6483.5
 endloop
endfacet
facet normal 0.05498592555522919 -0.3999049663543701 -0.9149057865142822
 outer loop
  vertex 771500.0 5634500.0 6187.10009765625
  vertex 772500.0 5634500.0 6247.2001953125
  vertex 772500.0 5633500.0 6684.2998046875
 endloop
endfacet
facet normal -0.2840360701084137 -0.3840152621269226 -0.8785532116889954
 outer loop
  vertex 772500.0 5634500.0 6247.2001953125
  vertex 773500.0 5633500.0 6361.0
  vertex 772500.0 5633500.0 6684.2998046875
 endloop
endfacet
facet normal -0.05025764927268028 -0.1624010056257248 -0.9854441285133362
 outer loop
  vertex 772500.0 5634500.0 6247.2001953125
  vertex 773500.0 5634500.0 6196.2001953125
  vertex 773500.0 5633500.0 6361.0
 endloop
endfacet
facet normal -0.43778958916664124 -0.14619582891464233 -0.8871116042137146
 outer loop
  vertex 773500.0 5634500.0 6196.2001953125
  vertex 774500.0 5633500.0 5867.5
  vertex 773500.0 5633500.0 6361.0
 endloop
endfacet
facet normal -0.4105848968029022 -0.11318681389093399 -0.904770016670227
 outer loop
  vertex 773500.0 5634500.0 6196.2001953125
  vertex 774500.0 5634500.0 5742.39990234375
  vertex 774500.0 5633500.0 5867.5
 endloop
endfacet
facet normal -0.0746082067489624 -0.1237865537405014 -0.989500105381012
 outer loop
  vertex 774500.0 5634500.0 5742.39990234375
  vertex 775500.0 5633500.0 5792.10009765625
  vertex 774500.0 5633500.0 5867.5
 endloop
endfacet
facet normal 0.1231105849146843 0.07392549514770508 -0.9896356463432312
 outer loop
  vertex 774500.0 5634500.0 5742.39990234375
  vertex 775500.0 5634500.0 5866.7998046875
  vertex 775500.0 5633500.0 5792.10009765625
 endloop
endfacet
facet normal 0.042045243084430695 0.07442628592252731 -0.996339738368988
 outer loop
  vertex 775500.0 5634500.0 5866.7998046875
  vertex 776500.0 5633500.0 5834.2998046875
  vertex 775500.0 5633500.0 5792.10009765625
 endloop
endfacet
facet normal 0.18271136283874512 0.2138988971710205 -0.9596165418624878
 outer loop
  vertex 775500.0 5634500.0 5866.7998046875
  vertex 776500.0 5634500.0 6057.2001953125
  vertex 776500.0 5633500.0 5834.2998046875
 endloop
endfacet
facet normal 0.11336468160152435 0.2161586582660675 -0.9697545170783997
 outer loop
  vertex 776500.0 5634500.0 6057.2001953125
  vertex 777500.0 5633500.0 5951.2001953125
  vertex 776500.0 5633500.0 5834.2998046875
 endloop
endfacet
facet normal 0.1278277337551117 0.23008993268013 -0.9647376537322998
 outer loop
  vertex 776500.0 5634500.0 6057.2001953125
  vertex 777500.0 5634500.0 6189.7001953125
  vertex 777500.0 5633500.0 5951.2001953125
 endloop
endfacet
facet normal 0.43829160928726196 0.20852302014827728 -0.8743103742599487
 outer loop
  vertex 777500.0 5634500.0 6189.7001953125
  vertex 778500.0 5633500.0 6452.5
  vertex 777500.0 5633500.0 5951.2001953125
 endloop
endfacet
facet normal 0.42006489634513855 0.18667593598365784 -0.8880864381790161
 outer loop
  vertex 777500.0 5634500.0 6189.7001953125
  vertex 778500.0 5634500.0 6662.7001953125
  vertex 778500.0 5633500.0 6452.5
 endloop
endfacet
facet normal 0.08105533570051193 0.2050280123949051 -0.9753940105438232
 outer loop
  vertex 778500.0 5634500.0 6662.7001953125
  vertex 779500.0 5633500.0 6535.60009765625
  vertex 778500.0 5633500.0 6452.5
 endloop
endfacet
facet normal 0.33028826117515564 0.4366467595100403 -0.836808979511261
 outer loop
  vertex 778500.0 5634500.0 6662.7001953125
  vertex 779500.0 5634500.0 7057.39990234375
  vertex 779500.0 5633500.0 6535.60009765625
 endloop
endfacet
facet normal 0.6112720966339111 0.3661177158355713 -0.7016440033912659
 outer loop
  vertex 779500.0 5634500.0 7057.39990234375
  vertex 780500.0 5633500.0 7406.7998046875
  vertex 779500.0 5633500.0 6535.60009765625
 endloop
endfacet
facet normal 0.0885489284992218 -0.24847598373889923 -0.9645821452140808
 outer loop
  vertex 779500.0 5634500.0 7057.39990234375
  vertex 780500.0 5634500.0 7149.2001953125
  vertex 780500.0 5633500.0 7406.7998046875
 endloop
endfacet
facet normal -0.17209050059318542 -0.245734304189682 -0.9539389610290527
 outer loop
  vertex 780500.0 5634500.0 7149.2001953125
  vertex 781500.0 5633500.0 7226.39990234375
  vertex 780500.0 5633500.0 7406.7998046875
 endloop
endfacet
facet normal 0.14375150203704834 0.06753170490264893 -0.9873069524765015
 outer loop
  vertex 780500.0 5634500.0 7149.2001953125
  vertex 781500.0 5634500.0 7294.7998046875
  vertex 781500.0 5633500.0 7226.39990234375
 endloop
endfacet
facet normal -0.2045905441045761 0.06679701060056686 -0.9765658378601074
 outer loop
  vertex 781500.0 5634500.0 7294.7998046875
  vertex 782500.0 5633500.0 7016.89990234375
  vertex 781500.0 5633500.0 7226.39990234375
 endloop
endfacet
facet normal -0.3267989158630371 -0.0647750124335289 -0.9428715109825134
 outer loop
  vertex 781500.0 5634500.0 7294.7998046875
  vertex 782500.0 5634500.0 6948.2001953125
  vertex 782500.0 5633500.0 7016.89990234375
 endloop
endfacet
facet normal 0.12326008081436157 -0.06801550835371017 -0.9900407791137695
 outer loop
  vertex 782500.0 5634500.0 6948.2001953125
  vertex 783500.0 5633500.0 7141.39990234375
  vertex 782500.0 5633500.0 7016.89990234375
 endloop
endfacet
facet normal -0.4328882396221161 -0.5681087374687195 -0.6999001502990723
 outer loop
  vertex 782500.0 5634500.0 6948.2001953125
  vertex 783500.0 5634500.0 6329.7001953125
  vertex 783500.0 5633500.0 7141.39990234375
 endloop
endfacet
facet normal -0.2864729166030884 0.13460424542427063 -0.9485858082771301
 outer loop
  vertex 764500.0 5635500.0 6737.7998046875
  vertex 765500.0 5635500.0 6435.7998046875
  vertex 765500.0 5634500.0 6293.89990234375
 endloop
endfacet
facet normal -0.12311331182718277 0.13942372798919678 -0.9825498461723328
 outer loop
  vertex 765500.0 5635500.0 6435.7998046875
  vertex 766500.0 5634500.0 6168.60009765625
  vertex 765500.0 5634500.0 6293.89990234375
 endloop
endfacet
facet normal -0.2650594413280487 -0.007424547336995602 -0.9642034769058228
 outer loop
  vertex 765500.0 5635500.0 6435.7998046875
  vertex 766500.0 5635500.0 6160.89990234375
  vertex 766500.0 5634500.0 6168.60009765625
 endloop
endfacet
facet normal -0.09713568538427353 -0.0076635549776256084 -0.995241641998291
 outer loop
  vertex 766500.0 5635500.0 6160.89990234375
  vertex 767500.0 5634500.0 6071.0
  vertex 766500.0 5634500.0 6168.60009765625
 endloop
endfacet
facet normal -0.05179286375641823 0.03792163357138634 -0.9979375600814819
 outer loop
  vertex 766500.0 5635500.0 6160.89990234375
  vertex 767500.0 5635500.0 6109.0
  vertex 767500.0 5634500.0 6071.0
 endloop
endfacet
facet normal -0.0075943972915410995 0.03797149658203125 -0.9992499351501465
 outer loop
  vertex 767500.0 5635500.0 6109.0
  vertex 768500.0 5634500.0 6063.39990234375
  vertex 767500.0 5634500.0 6071.0
 endloop
endfacet
facet normal -0.11795054376125336 -0.07279057800769806 -0.9903479814529419
 outer loop
  vertex 767500.0 5635500.0 6109.0
  vertex 768500.0 5635500.0 5989.89990234375
  vertex 768500.0 5634500.0 6063.39990234375
 endloop
endfacet
facet normal 0.15901613235473633 -0.07236956804990768 -0.9846199750900269
 outer loop
  vertex 768500.0 5635500.0 5989.89990234375
  vertex 769500.0 5634500.0 6224.89990234375
  vertex 768500.0 5634500.0 6063.39990234375
 endloop
endfacet
facet normal -0.040062401443719864 -0.26637592911720276 -0.9630362391471863
 outer loop
  vertex 768500.0 5635500.0 5989.89990234375
  vertex 769500.0 5635500.0 5948.2998046875
  vertex 769500.0 5634500.0 6224.89990234375
 endloop
endfacet
facet normal -0.058595094829797745 -0.2661319077014923 -0.9621540904045105
 outer loop
  vertex 769500.0 5635500.0 5948.2998046875
  vertex 770500.0 5634500.0 6164.0
  vertex 769500.0 5634500.0 6224.89990234375
 endloop
endfacet
facet normal 0.06940101832151413 -0.14353995025157928 -0.9872080683708191
 outer loop
  vertex 769500.0 5635500.0 5948.2998046875
  vertex 770500.0 5635500.0 6018.60009765625
  vertex 770500.0 5634500.0 6164.0
 endloop
endfacet
facet normal 0.022853747010231018 -0.14384931325912476 -0.9893357157707214
 outer loop
  vertex 770500.0 5635500.0 6018.60009765625
  vertex 771500.0 5634500.0 6187.10009765625
  vertex 770500.0 5634500.0 6164.0
 endloop
endfacet
facet normal 0.030001020058989525 -0.1368374079465866 -0.9901390671730042
 outer loop
  vertex 770500.0 5635500.0 6018.60009765625
  vertex 771500.0 5635500.0 6048.89990234375
  vertex 771500.0 5634500.0 6187.10009765625
 endloop
endfacet
facet normal 0.059429045766592026 -0.13665707409381866 -0.9888342022895813
 outer loop
  vertex 771500.0 5635500.0 6048.89990234375
  vertex 772500.0 5634500.0 6247.2001953125
  vertex 771500.0 5634500.0 6187.10009765625
 endloop
endfacet
facet normal -0.12177857011556625 -0.3088328540325165 -0.9432879686355591
 outer loop
  vertex 771500.0 5635500.0 6048.89990234375
  vertex 772500.0 5635500.0 5919.7998046875
  vertex 772500.0 5634500.0 6247.2001953125
 endloop
endfacet
facet normal -0.048411596566438675 -0.3107838034629822 -0.9492469429969788
 outer loop
  vertex 772500.0 5635500.0 5919.7998046875
  vertex 773500.0 5634500.0 6196.2001953125
  vertex 772500.0 5634500.0 6247.2001953125
 endloop
endfacet
facet normal 0.2657839059829712 -0.0006750033935531974 -0.9640323519706726
 outer loop
  vertex 772500.0 5635500.0 5919.7998046875
  vertex 773500.0 5635500.0 6195.5
  vertex 773500.0 5634500.0 6196.2001953125
 endloop
endfacet
facet normal -0.4132404327392578 -0.0006376131204888225 -0.9106217622756958
 outer loop
  vertex 773500.0 5635500.0 6195.5
  vertex 774500.0 5634500.0 5742.39990234375
  vertex 773500.0 5634500.0 6196.2001953125
 endloop
endfacet
facet normal -0.44696044921875 -0.04208690673112869 -0.8935630917549133
 outer loop
  vertex 773500.0 5635500.0 6195.5
  vertex 774500.0 5635500.0 5695.2998046875
  vertex 774500.0 5634500.0 5742.39990234375
 endloop
endfacet
facet normal 0.12331374734640121 -0.046688858419656754 -0.9912688136100769
 outer loop
  vertex 774500.0 5635500.0 5695.2998046875
  vertex 775500.0 5634500.0 5866.7998046875
  vertex 774500.0 5634500.0 5742.39990234375
 endloop
endfacet
facet normal 0.13096052408218384 -0.03893129527568817 -0.990622878074646
 outer loop
  vertex 774500.0 5635500.0 5695.2998046875
  vertex 775500.0 5635500.0 5827.5
  vertex 775500.0 5634500.0 5866.7998046875
 endloop
endfacet
facet normal 0.1869010031223297 -0.03857751190662384 -0.9816209673881531
 outer loop
  vertex 775500.0 5635500.0 5827.5
  vertex 776500.0 5634500.0 6057.2001953125
  vertex 775500.0 5634500.0 5866.7998046875
 endloop
endfacet
facet normal 0.2626006305217743 0.041163645684719086 -0.964026153087616
 outer loop
  vertex 775500.0 5635500.0 5827.5
  vertex 776500.0 5635500.0 6099.89990234375
  vertex 776500.0 5634500.0 6057.2001953125
 endloop
endfacet
facet normal 0.13123446702957153 0.042291875928640366 -0.9904488325119019
 outer loop
  vertex 776500.0 5635500.0 6099.89990234375
  vertex 777500.0 5634500.0 6189.7001953125
  vertex 776500.0 5634500.0 6057.2001953125
 endloop
endfacet
facet normal 0.051892876625061035 -0.037722427397966385 -0.997939944267273
 outer loop
  vertex 776500.0 5635500.0 6099.89990234375
  vertex 777500.0 5635500.0 6151.89990234375
  vertex 777500.0 5634500.0 6189.7001953125
 endloop
endfacet
facet normal 0.42733171582221985 -0.03415066376328468 -0.9034497141838074
 outer loop
  vertex 777500.0 5635500.0 6151.89990234375
  vertex 778500.0 5634500.0 6662.7001953125
  vertex 777500.0 5634500.0 6189.7001953125
 endloop
endfacet
facet normal 0.19925199449062347 -0.28037989139556885 -0.9389812350273132
 outer loop
  vertex 777500.0 5635500.0 6151.89990234375
  vertex 778500.0 5635500.0 6364.10009765625
  vertex 778500.0 5634500.0 6662.7001953125
 endloop
endfacet
facet normal 0.3537454605102539 -0.26761719584465027 -0.8962394595146179
 outer loop
  vertex 778500.0 5635500.0 6364.10009765625
  vertex 779500.0 5634500.0 7057.39990234375
  vertex 778500.0 5634500.0 6662.7001953125
 endloop
endfacet
facet normal 0.4635683298110962 -0.14271682500839233 -0.8744920492172241
 outer loop
  vertex 778500.0 5635500.0 6364.10009765625
  vertex 779500.0 5635500.0 6894.2001953125
  vertex 779500.0 5634500.0 7057.39990234375
 endloop
endfacet
facet normal 0.09023208916187286 -0.1604117900133133 -0.9829171895980835
 outer loop
  vertex 779500.0 5635500.0 6894.2001953125
  vertex 780500.0 5634500.0 7149.2001953125
  vertex 779500.0 5634500.0 7057.39990234375
 endloop
endfacet
facet normal -0.22821469604969025 -0.448565810918808 -0.8641219735145569
 outer loop
  vertex 779500.0 5635500.0 6894.2001953125
  vertex 780500.0 5635500.0 6630.10009765625
  vertex 780500.0 5634500.0 7149.2001953125
 endloop
endfacet
facet normal 0.12816031277179718 -0.45692455768585205 -0.880224347114563
 outer loop
  vertex 780500.0 5635500.0 6630.10009765625
  vertex 781500.0 5634500.0 7294.7998046875
  vertex 780500.0 5634500.0 7149.2001953125
 endloop
endfacet
facet normal 0.5664839744567871 0.018866680562496185 -0.823856770992279
 outer loop
  vertex 780500.0 5635500.0 6630.10009765625
  vertex 781500.0 5635500.0 7317.7001953125
  vertex 781500.0 5634500.0 7294.7998046875
 endloop
endfacet
facet normal -0.3274100422859192 0.02163250371813774 -0.944634735584259
 outer loop
  vertex 781500.0 5635500.0 7317.7001953125
  vertex 782500.0 5634500.0 6948.2001953125
  vertex 781500.0 5634500.0 7294.7998046875
 endloop
endfacet
facet normal -0.11643196642398834 0.23970632255077362 -0.9638383984565735
 outer loop
  vertex 781500.0 5635500.0 7317.7001953125
  vertex 782500.0 5635500.0 7196.89990234375
  vertex 782500.0 5634500.0 6948.2001953125
 endloop
endfacet
facet normal -0.5146321058273315 0.20693428814411163 -0.8320648670196533
 outer loop
  vertex 782500.0 5635500.0 7196.89990234375
  vertex 783500.0 5634500.0 6329.7001953125
  vertex 782500.0 5634500.0 6948.2001953125
 endloop
endfacet
facet normal -0.45278868079185486 0.2810145616531372 -0.8461756110191345
 outer loop
  vertex 782500.0 5635500.0 7196.89990234375
  vertex 783500.0 5635500.0 6661.7998046875
  vertex 783500.0 5634500.0 6329.7001953125
 endloop
endfacet
facet normal -0.19503606855869293 0.6771990060806274 -0.7094804048538208
 outer loop
  vertex 765500.0 5636500.0 7390.2998046875
  vertex 766500.0 5635500.0 6160.89990234375
  vertex 765500.0 5635500.0 6435.7998046875
 endloop
endfacet
facet normal -0.333761602640152 0.5799030661582947 -0.7431793808937073
 outer loop
  vertex 765500.0 5636500.0 7390.2998046875
  vertex 766500.0 5636500.0 6941.2001953125
  vertex 766500.0 5635500.0 6160.89990234375
 endloop
endfacet
facet normal -0.04088300094008446 0.614664614200592 -0.7877283096313477
 outer loop
  vertex 766500.0 5636500.0 6941.2001953125
  vertex 767500.0 5635500.0 6109.0
  vertex 766500.0 5635500.0 6160.89990234375
 endloop
endfacet
facet normal -0.6003323197364807 0.06314267218112946 -0.7972540855407715
 outer loop
  vertex 766500.0 5636500.0 6941.2001953125
  vertex 767500.0 5636500.0 6188.2001953125
  vertex 767500.0 5635500.0 6109.0
 endloop
endfacet
facet normal -0.11790022999048233 0.07840229570865631 -0.9899255037307739
 outer loop
  vertex 767500.0 5636500.0 6188.2001953125
  vertex 768500.0 5635500.0 5989.89990234375
  vertex 767500.0 5635500.0 6109.0
 endloop
endfacet
facet normal -0.061714161187410355 0.13440538942813873 -0.9890027642250061
 outer loop
  vertex 767500.0 5636500.0 6188.2001953125
  vertex 768500.0 5636500.0 6125.7998046875
  vertex 768500.0 5635500.0 5989.89990234375
 endloop
endfacet
facet normal -0.04118620604276657 0.13454781472682953 -0.9900507926940918
 outer loop
  vertex 768500.0 5636500.0 6125.7998046875
  vertex 769500.0 5635500.0 5948.2998046875
  vertex 768500.0 5635500.0 5989.89990234375
 endloop
endfacet
facet normal -0.11008226126432419 0.0659501850605011 -0.9917320609092712
 outer loop
  vertex 768500.0 5636500.0 6125.7998046875
  vertex 769500.0 5636500.0 6014.7998046875
  vertex 769500.0 5635500.0 5948.2998046875
 endloop
endfacet
facet normal 0.0699734315276146 0.06619080901145935 -0.9953504800796509
 outer loop
  vertex 769500.0 5636500.0 6014.7998046875
  vertex 770500.0 5635500.0 6018.60009765625
  vertex 769500.0 5635500.0 5948.2998046875
 endloop
endfacet
facet normal -0.0965503677725792 -0.10031364858150482 -0.9902601838111877
 outer loop
  vertex 769500.0 5636500.0 6014.7998046875
  vertex 770500.0 5636500.0 5917.2998046875
  vertex 770500.0 5635500.0 6018.60009765625
 endloop
endfacet
facet normal 0.030131829902529716 -0.10073874145746231 -0.9944565296173096
 outer loop
  vertex 770500.0 5636500.0 5917.2998046875
  vertex 771500.0 5635500.0 6048.89990234375
  vertex 770500.0 5635500.0 6018.60009765625
 endloop
endfacet
facet normal -0.1578320860862732 -0.2823569178581238 -0.9462366104125977
 outer loop
  vertex 770500.0 5636500.0 5917.2998046875
  vertex 771500.0 5636500.0 5750.5
  vertex 771500.0 5635500.0 6048.89990234375
 endloop
endfacet
facet normal -0.1227739080786705 -0.28377765417099 -0.9509978294372559
 outer loop
  vertex 771500.0 5636500.0 5750.5
  vertex 772500.0 5635500.0 5919.7998046875
  vertex 771500.0 5635500.0 6048.89990234375
 endloop
endfacet
facet normal -0.0014785862294957042 -0.16836149990558624 -0.9857242107391357
 outer loop
  vertex 771500.0 5636500.0 5750.5
  vertex 772500.0 5636500.0 5749.0
  vertex 772500.0 5635500.0 5919.7998046875
 endloop
endfacet
facet normal 0.26225268840789795 -0.16246891021728516 -0.9512242078781128
 outer loop
  vertex 772500.0 5636500.0 5749.0
  vertex 773500.0 5635500.0 6195.5
  vertex 772500.0 5635500.0 5919.7998046875
 endloop
endfacet
facet normal 0.0881149172782898 -0.3313242197036743 -0.9393934011459351
 outer loop
  vertex 772500.0 5636500.0 5749.0
  vertex 773500.0 5636500.0 5842.7998046875
  vertex 773500.0 5635500.0 6195.5
 endloop
endfacet
facet normal -0.4266345798969269 -0.3008277416229248 -0.8529276847839355
 outer loop
  vertex 773500.0 5636500.0 5842.7998046875
  vertex 774500.0 5635500.0 5695.2998046875
  vertex 773500.0 5635500.0 6195.5
 endloop
endfacet
facet normal 0.0866653099656105 0.2296527475118637 -0.9694063663482666
 outer loop
  vertex 773500.0 5636500.0 5842.7998046875
  vertex 774500.0 5636500.0 5932.2001953125
  vertex 774500.0 5635500.0 5695.2998046875
 endloop
endfacet
facet normal 0.12758837640285492 0.22863610088825226 -0.9651148915290833
 outer loop
  vertex 774500.0 5636500.0 5932.2001953125
  vertex 775500.0 5635500.0 5827.5
  vertex 774500.0 5635500.0 5695.2998046875
 endloop
endfacet
facet normal -0.24112112820148468 -0.14058183133602142 -0.9602590203285217
 outer loop
  vertex 774500.0 5636500.0 5932.2001953125
  vertex 775500.0 5636500.0 5681.10009765625
  vertex 775500.0 5635500.0 5827.5
 endloop
endfacet
facet normal 0.26024001836776733 -0.13986463844776154 -0.9553601145744324
 outer loop
  vertex 775500.0 5636500.0 5681.10009765625
  vertex 776500.0 5635500.0 6099.89990234375
  vertex 775500.0 5635500.0 5827.5
 endloop
endfacet
facet normal 0.14326447248458862 -0.25699684023857117 -0.9557341933250427
 outer loop
  vertex 775500.0 5636500.0 5681.10009765625
  vertex 776500.0 5636500.0 5831.0
  vertex 776500.0 5635500.0 6099.89990234375
 endloop
endfacet
facet normal 0.05015299469232559 -0.2593487501144409 -0.9644806385040283
 outer loop
  vertex 776500.0 5636500.0 5831.0
  vertex 777500.0 5635500.0 6151.89990234375
  vertex 776500.0 5635500.0 6099.89990234375
 endloop
endfacet
facet normal 0.33742260932922363 0.03555802255868912 -0.9406814575195312
 outer loop
  vertex 776500.0 5636500.0 5831.0
  vertex 777500.0 5636500.0 6189.7001953125
  vertex 777500.0 5635500.0 6151.89990234375
 endloop
endfacet
facet normal 0.20743638277053833 0.036951690912246704 -0.9775503873825073
 outer loop
  vertex 777500.0 5636500.0 6189.7001953125
  vertex 778500.0 5635500.0 6364.10009765625
  vertex 777500.0 5635500.0 6151.89990234375
 endloop
endfacet
facet normal 0.06507652252912521 -0.10793272405862808 -0.9920260310173035
 outer loop
  vertex 777500.0 5636500.0 6189.7001953125
  vertex 778500.0 5636500.0 6255.2998046875
  vertex 778500.0 5635500.0 6364.10009765625
 endloop
endfacet
facet normal 0.46621352434158325 -0.09568791836500168 -0.8794821500778198
 outer loop
  vertex 778500.0 5636500.0 6255.2998046875
  vertex 779500.0 5635500.0 6894.2001953125
  vertex 778500.0 5635500.0 6364.10009765625
 endloop
endfacet
facet normal 0.00803978368639946 -0.5326571464538574 -0.8462929725646973
 outer loop
  vertex 778500.0 5636500.0 6255.2998046875
  vertex 779500.0 5636500.0 6264.7998046875
  vertex 779500.0 5635500.0 6894.2001953125
 endloop
endfacet
facet normal -0.218130961060524 -0.5198472738265991 -0.8259404897689819
 outer loop
  vertex 779500.0 5636500.0 6264.7998046875
  vertex 780500.0 5635500.0 6630.10009765625
  vertex 779500.0 5635500.0 6894.2001953125
 endloop
endfacet
facet normal 0.4294675588607788 0.101668581366539 -0.8973411321640015
 outer loop
  vertex 779500.0 5636500.0 6264.7998046875
  vertex 780500.0 5636500.0 6743.39990234375
  vertex 780500.0 5635500.0 6630.10009765625
 endloop
endfacet
facet normal 0.5641317367553711 0.09295520931482315 -0.8204357624053955
 outer loop
  vertex 780500.0 5636500.0 6743.39990234375
  vertex 781500.0 5635500.0 7317.7001953125
  vertex 780500.0 5635500.0 6630.10009765625
 endloop
endfacet
facet normal 0.25690221786499023 -0.27515286207199097 -0.9264405369758606
 outer loop
  vertex 780500.0 5636500.0 6743.39990234375
  vertex 781500.0 5636500.0 7020.7001953125
  vertex 781500.0 5635500.0 7317.7001953125
 endloop
endfacet
facet normal -0.11503216624259949 -0.282818466424942 -0.9522507190704346
 outer loop
  vertex 781500.0 5636500.0 7020.7001953125
  vertex 782500.0 5635500.0 7196.89990234375
  vertex 781500.0 5635500.0 7317.7001953125
 endloop
endfacet
facet normal 0.47711873054504395 0.33387765288352966 -0.8129473924636841
 outer loop
  vertex 781500.0 5636500.0 7020.7001953125
  vertex 782500.0 5636500.0 7607.60009765625
  vertex 782500.0 5635500.0 7196.89990234375
 endloop
endfacet
facet normal -0.4436112344264984 0.34048062562942505 -0.8290247321128845
 outer loop
  vertex 782500.0 5636500.0 7607.60009765625
  vertex 783500.0 5635500.0 6661.7998046875
  vertex 782500.0 5635500.0 7196.89990234375
 endloop
endfacet
facet normal -0.5731264352798462 0.1824677288532257 -0.798893928527832
 outer loop
  vertex 782500.0 5636500.0 7607.60009765625
  vertex 783500.0 5636500.0 6890.2001953125
  vertex 783500.0 5635500.0 6661.7998046875
 endloop
endfacet
facet normal -0.5988956689834595 0.09353239834308624 -0.795346200466156
 outer loop
  vertex 766500.0 5637500.0 7058.7998046875
  vertex 767500.0 5636500.0 6188.2001953125
  vertex 766500.0 5636500.0 6941.2001953125
 endloop
endfacet
facet normal -0.11089245229959488 0.5871773958206177 -0.8018264770507812
 outer loop
  vertex 766500.0 5637500.0 7058.7998046875
  vertex 767500.0 5637500.0 6920.5
  vertex 767500.0 5636500.0 6188.2001953125
 endloop
endfacet
facet normal -0.0502810962498188 0.5900740027427673 -0.8057819604873657
 outer loop
  vertex 767500.0 5637500.0 6920.5
  vertex 768500.0 5636500.0 6125.7998046875
  vertex 767500.0 5636500.0 6188.2001953125
 endloop
endfacet
facet normal -0.5558164715766907 0.10002236813306808 -0.8252657651901245
 outer loop
  vertex 767500.0 5637500.0 6920.5
  vertex 768500.0 5637500.0 6247.0
  vertex 768500.0 5636500.0 6125.7998046875
 endloop
endfacet
facet normal -0.10953061282634735 0.11959578841924667 -0.9867623448371887
 outer loop
  vertex 768500.0 5637500.0 6247.0
  vertex 769500.0 5636500.0 6014.7998046875
  vertex 768500.0 5636500.0 6125.7998046875
 endloop
endfacet
facet normal -0.25369933247566223 -0.02919836714863777 -0.9668423533439636
 outer loop
  vertex 768500.0 5637500.0 6247.0
  vertex 769500.0 5637500.0 5984.60009765625
  vertex 769500.0 5636500.0 6014.7998046875
 endloop
endfacet
facet normal -0.09699604660272598 -0.03004361130297184 -0.9948312044143677
 outer loop
  vertex 769500.0 5637500.0 5984.60009765625
  vertex 770500.0 5636500.0 5917.2998046875
  vertex 769500.0 5636500.0 6014.7998046875
 endloop
endfacet
facet normal -0.05521196499466896 0.01198083721101284 -0.9984027147293091
 outer loop
  vertex 769500.0 5637500.0 5984.60009765625
  vertex 770500.0 5637500.0 5929.2998046875
  vertex 770500.0 5636500.0 5917.2998046875
 endloop
endfacet
facet normal -0.16451524198055267 0.011835642158985138 -0.9863035082817078
 outer loop
  vertex 770500.0 5637500.0 5929.2998046875
  vertex 771500.0 5636500.0 5750.5
  vertex 770500.0 5636500.0 5917.2998046875
 endloop
endfacet
facet normal -0.07250332832336426 0.10483799874782562 -0.9918429255485535
 outer loop
  vertex 770500.0 5637500.0 5929.2998046875
  vertex 771500.0 5637500.0 5856.2001953125
  vertex 771500.0 5636500.0 5750.5
 endloop
endfacet
facet normal -0.001491688541136682 0.10511451214551926 -0.9944589734077454
 outer loop
  vertex 771500.0 5637500.0 5856.2001953125
  vertex 772500.0 5636500.0 5749.0
  vertex 771500.0 5636500.0 5750.5
 endloop
endfacet
facet normal -0.05364638939499855 0.05324714258313179 -0.9971393346786499
 outer loop
  vertex 771500.0 5637500.0 5856.2001953125
  vertex 772500.0 5637500.0 5802.39990234375
  vertex 772500.0 5636500.0 5749.0
 endloop
endfacet
facet normal 0.09325814992189407 0.053091540932655334 -0.9942254424095154
 outer loop
  vertex 772500.0 5637500.0 5802.39990234375
  vertex 773500.0 5636500.0 5842.7998046875
  vertex 772500.0 5636500.0 5749.0
 endloop
endfacet
facet normal 0.12648753821849823 0.08656499534845352 -0.988183856010437
 outer loop
  vertex 772500.0 5637500.0 5802.39990234375
  vertex 773500.0 5637500.0 5930.39990234375
  vertex 773500.0 5636500.0 5842.7998046875
 endloop
endfacet
facet normal 0.08870823681354523 0.08692187815904617 -0.9922577738761902
 outer loop
  vertex 773500.0 5637500.0 5930.39990234375
  vertex 774500.0 5636500.0 5932.2001953125
  vertex 773500.0 5636500.0 5842.7998046875
 endloop
endfacet
facet normal -0.14809921383857727 -0.14985908567905426 -0.9775525331497192
 outer loop
  vertex 773500.0 5637500.0 5930.39990234375
  vertex 774500.0 5637500.0 5778.89990234375
  vertex 774500.0 5636500.0 5932.2001953125
 endloop
endfacet
facet normal -0.24089156091213226 -0.1470678448677063 -0.959344744682312
 outer loop
  vertex 774500.0 5637500.0 5778.89990234375
  vertex 775500.0 5636500.0 5681.10009765625
  vertex 774500.0 5636500.0 5932.2001953125
 endloop
endfacet
facet normal -0.16006998717784882 -0.06373267620801926 -0.9850460886955261
 outer loop
  vertex 774500.0 5637500.0 5778.89990234375
  vertex 775500.0 5637500.0 5616.39990234375
  vertex 775500.0 5636500.0 5681.10009765625
 endloop
endfacet
facet normal 0.14794111251831055 -0.06385473161935806 -0.986932635307312
 outer loop
  vertex 775500.0 5637500.0 5616.39990234375
  vertex 776500.0 5636500.0 5831.0
  vertex 775500.0 5636500.0 5681.10009765625
 endloop
endfacet
facet normal 0.17829647660255432 -0.03274807706475258 -0.9834317564964294
 outer loop
  vertex 775500.0 5637500.0 5616.39990234375
  vertex 776500.0 5637500.0 5797.7001953125
  vertex 776500.0 5636500.0 5831.0
 endloop
endfacet
facet normal 0.3374703824520111 -0.031328942626714706 -0.9408146739006042
 outer loop
  vertex 776500.0 5637500.0 5797.7001953125
  vertex 777500.0 5636500.0 6189.7001953125
  vertex 776500.0 5636500.0 5831.0
 endloop
endfacet
facet normal 0.05435314401984215 -0.31683969497680664 -0.9469205141067505
 outer loop
  vertex 776500.0 5637500.0 5797.7001953125
  vertex 777500.0 5637500.0 5855.10009765625
  vertex 777500.0 5636500.0 6189.7001953125
 endloop
endfacet
facet normal 0.06208955496549606 -0.31669649481773376 -0.9464925527572632
 outer loop
  vertex 777500.0 5637500.0 5855.10009765625
  vertex 778500.0 5636500.0 6255.2998046875
  vertex 777500.0 5636500.0 6189.7001953125
 endloop
endfacet
facet normal 0.10204329341650009 -0.2799747884273529 -0.95456862449646
 outer loop
  vertex 777500.0 5637500.0 5855.10009765625
  vertex 778500.0 5637500.0 5962.0
  vertex 778500.0 5636500.0 6255.2998046875
 endloop
endfacet
facet normal 0.009115609340369701 -0.28143224120140076 -0.9595378041267395
 outer loop
  vertex 778500.0 5637500.0 5962.0
  vertex 779500.0 5636500.0 6264.7998046875
  vertex 778500.0 5636500.0 6255.2998046875
 endloop
endfacet
facet normal 0.17432460188865662 -0.12155815958976746 -0.9771563410758972
 outer loop
  vertex 778500.0 5637500.0 5962.0
  vertex 779500.0 5637500.0 6140.39990234375
  vertex 779500.0 5636500.0 6264.7998046875
 endloop
endfacet
facet normal 0.42901208996772766 -0.11151076853275299 -0.8963894844055176
 outer loop
  vertex 779500.0 5637500.0 6140.39990234375
  vertex 780500.0 5636500.0 6743.39990234375
  vertex 779500.0 5636500.0 6264.7998046875
 endloop
endfacet
facet normal 0.2977294325828552 -0.2567198872566223 -0.9194847345352173
 outer loop
  vertex 779500.0 5637500.0 6140.39990234375
  vertex 780500.0 5637500.0 6464.2001953125
  vertex 780500.0 5636500.0 6743.39990234375
 endloop
endfacet
facet normal 0.25804051756858826 -0.2598080337047577 -0.9305455088615417
 outer loop
  vertex 780500.0 5637500.0 6464.2001953125
  vertex 781500.0 5636500.0 7020.7001953125
  vertex 780500.0 5636500.0 6743.39990234375
 endloop
endfacet
facet normal 0.4862734377384186 0.0 -0.8738067150115967
 outer loop
  vertex 780500.0 5637500.0 6464.2001953125
  vertex 781500.0 5637500.0 7020.7001953125
  vertex 781500.0 5636500.0 7020.7001953125
 endloop
endfacet
facet normal 0.5061642527580261 0.0 -0.8624371886253357
 outer loop
  vertex 781500.0 5637500.0 7020.7001953125
  vertex 782500.0 5636500.0 7607.60009765625
  vertex 781500.0 5636500.0 7020.7001953125
 endloop
endfacet
facet normal -0.033456116914749146 -0.5305545926094055 -0.8469902276992798
 outer loop
  vertex 781500.0 5637500.0 7020.7001953125
  vertex 782500.0 5637500.0 6981.2001953125
  vertex 782500.0 5636500.0 7607.60009765625
 endloop
endfacet
facet normal -0.5194950699806213 -0.4535987079143524 -0.7241360545158386
 outer loop
  vertex 782500.0 5637500.0 6981.2001953125
  vertex 783500.0 5636500.0 6890.2001953125
  vertex 782500.0 5636500.0 7607.60009765625
 endloop
endfacet
facet normal 0.24426323175430298 0.3273274600505829 -0.9127936363220215
 outer loop
  vertex 782500.0 5637500.0 6981.2001953125
  vertex 783500.0 5637500.0 7248.7998046875
  vertex 783500.0 5636500.0 6890.2001953125
 endloop
endfacet
facet normal -0.5294414758682251 0.2863612771034241 -0.7985543012619019
 outer loop
  vertex 783500.0 5637500.0 7248.7998046875
  vertex 784500.0 5636500.0 6227.2001953125
  vertex 783500.0 5636500.0 6890.2001953125
 endloop
endfacet
facet normal -0.1369253695011139 -0.032077908515930176 -0.99006187915802
 outer loop
  vertex 766500.0 5638500.0 7026.39990234375
  vertex 767500.0 5637500.0 6920.5
  vertex 766500.0 5637500.0 7058.7998046875
 endloop
endfacet
facet normal -0.2038196176290512 -0.10069253295660019 -0.9738165140151978
 outer loop
  vertex 766500.0 5638500.0 7026.39990234375
  vertex 767500.0 5638500.0 6817.10009765625
  vertex 767500.0 5637500.0 6920.5
 endloop
endfacet
facet normal -0.5565747022628784 -0.08544880896806717 -0.8263915777206421
 outer loop
  vertex 767500.0 5638500.0 6817.10009765625
  vertex 768500.0 5637500.0 6247.0
  vertex 767500.0 5637500.0 6920.5
 endloop
endfacet
facet normal -0.23660457134246826 0.29174691438674927 -0.9267696738243103
 outer loop
  vertex 767500.0 5638500.0 6817.10009765625
  vertex 768500.0 5638500.0 6561.7998046875
  vertex 768500.0 5637500.0 6247.0
 endloop
endfacet
facet normal -0.24280132353305817 0.29128751158714294 -0.9253103137016296
 outer loop
  vertex 768500.0 5638500.0 6561.7998046875
  vertex 769500.0 5637500.0 5984.60009765625
  vertex 768500.0 5637500.0 6247.0
 endloop
endfacet
facet normal -0.4372381567955017 0.0798155665397644 -0.8957969546318054
 outer loop
  vertex 768500.0 5638500.0 6561.7998046875
  vertex 769500.0 5638500.0 6073.7001953125
  vertex 769500.0 5637500.0 5984.60009765625
 endloop
endfacet
facet normal -0.05499871447682381 0.08861418068408966 -0.9945464730262756
 outer loop
  vertex 769500.0 5638500.0 6073.7001953125
  vertex 770500.0 5637500.0 5929.2998046875
  vertex 769500.0 5637500.0 5984.60009765625
 endloop
endfacet
facet normal 0.09883572161197662 0.2383464127779007 -0.9661379456520081
 outer loop
  vertex 769500.0 5638500.0 6073.7001953125
  vertex 770500.0 5638500.0 6176.0
  vertex 770500.0 5637500.0 5929.2998046875
 endloop
endfacet
facet normal -0.0707937479019165 0.23891818523406982 -0.9684556722640991
 outer loop
  vertex 770500.0 5638500.0 6176.0
  vertex 771500.0 5637500.0 5856.2001953125
  vertex 770500.0 5637500.0 5929.2998046875
 endloop
endfacet
facet normal -0.3366695046424866 -0.03575586527585983 -0.9409437775611877
 outer loop
  vertex 770500.0 5638500.0 6176.0
  vertex 771500.0 5638500.0 5818.2001953125
  vertex 771500.0 5637500.0 5856.2001953125
 endloop
endfacet
facet normal -0.053683966398239136 -0.037917837500572205 -0.9978377819061279
 outer loop
  vertex 771500.0 5638500.0 5818.2001953125
  vertex 772500.0 5637500.0 5802.39990234375
  vertex 771500.0 5637500.0 5856.2001953125
 endloop
endfacet
facet normal 0.03274356946349144 0.04851677268743515 -0.9982855319976807
 outer loop
  vertex 771500.0 5638500.0 5818.2001953125
  vertex 772500.0 5638500.0 5851.0
  vertex 772500.0 5637500.0 5802.39990234375
 endloop
endfacet
facet normal 0.12681686878204346 0.04815087467432022 -0.9907567501068115
 outer loop
  vertex 772500.0 5638500.0 5851.0
  vertex 773500.0 5637500.0 5930.39990234375
  vertex 772500.0 5637500.0 5802.39990234375
 endloop
endfacet
facet normal -0.20250537991523743 -0.2770828604698181 -0.9392638802528381
 outer loop
  vertex 772500.0 5638500.0 5851.0
  vertex 773500.0 5638500.0 5635.39990234375
  vertex 773500.0 5637500.0 5930.39990234375
 endloop
endfacet
facet normal -0.14379891753196716 -0.28000450134277344 -0.949167788028717
 outer loop
  vertex 773500.0 5638500.0 5635.39990234375
  vertex 774500.0 5637500.0 5778.89990234375
  vertex 773500.0 5637500.0 5930.39990234375
 endloop
endfacet
facet normal 0.03447611257433891 -0.10809721052646637 -0.9935423731803894
 outer loop
  vertex 773500.0 5638500.0 5635.39990234375
  vertex 774500.0 5638500.0 5670.10009765625
  vertex 774500.0 5637500.0 5778.89990234375
 endloop
endfacet
facet normal -0.1594790816307068 -0.10677718371152878 -0.9814097285270691
 outer loop
  vertex 774500.0 5638500.0 5670.10009765625
  vertex 775500.0 5637500.0 5616.39990234375
  vertex 774500.0 5637500.0 5778.89990234375
 endloop
endfacet
facet normal -0.07071197032928467 -0.017154118046164513 -0.9973492622375488
 outer loop
  vertex 774500.0 5638500.0 5670.10009765625
  vertex 775500.0 5638500.0 5599.2001953125
  vertex 775500.0 5637500.0 5616.39990234375
 endloop
endfacet
facet normal 0.17836660146713257 -0.016921391710639 -0.9838185906410217
 outer loop
  vertex 775500.0 5638500.0 5599.2001953125
  vertex 776500.0 5637500.0 5797.7001953125
  vertex 775500.0 5637500.0 5616.39990234375
 endloop
endfacet
facet normal 0.24501971900463104 0.05285658314824104 -0.968076229095459
 outer loop
  vertex 775500.0 5638500.0 5599.2001953125
  vertex 776500.0 5638500.0 5852.2998046875
  vertex 776500.0 5637500.0 5797.7001953125
 endloop
endfacet
facet normal 0.05722063034772873 0.054429084062576294 -0.9968767762184143
 outer loop
  vertex 776500.0 5638500.0 5852.2998046875
  vertex 777500.0 5637500.0 5855.10009765625
  vertex 776500.0 5637500.0 5797.7001953125
 endloop
endfacet
facet normal 0.22211125493049622 0.2194509506225586 -0.9500041604042053
 outer loop
  vertex 776500.0 5638500.0 5852.2998046875
  vertex 777500.0 5638500.0 6086.10009765625
  vertex 777500.0 5637500.0 5855.10009765625
 endloop
endfacet
facet normal 0.10359662771224976 0.2238619476556778 -0.9690993428230286
 outer loop
  vertex 777500.0 5638500.0 6086.10009765625
  vertex 778500.0 5637500.0 5962.0
  vertex 777500.0 5637500.0 5855.10009765625
 endloop
endfacet
facet normal -0.07807907462120056 0.04551317170262337 -0.995907723903656
 outer loop
  vertex 777500.0 5638500.0 6086.10009765625
  vertex 778500.0 5638500.0 6007.7001953125
  vertex 778500.0 5637500.0 5962.0
 endloop
endfacet
facet normal 0.17544952034950256 0.0449444055557251 -0.9834619760513306
 outer loop
  vertex 778500.0 5638500.0 6007.7001953125
  vertex 779500.0 5637500.0 6140.39990234375
  vertex 778500.0 5637500.0 5962.0
 endloop
endfacet
facet normal 0.18645887076854706 0.05630059912800789 -0.9808482527732849
 outer loop
  vertex 778500.0 5638500.0 6007.7001953125
  vertex 779500.0 5638500.0 6197.7998046875
  vertex 779500.0 5637500.0 6140.39990234375
 endloop
endfacet
facet normal 0.30759525299072266 0.05452724173665047 -0.9499536156654358
 outer loop
  vertex 779500.0 5638500.0 6197.7998046875
  vertex 780500.0 5637500.0 6464.2001953125
  vertex 779500.0 5637500.0 6140.39990234375
 endloop
endfacet
facet normal 0.15068970620632172 -0.11100320518016815 -0.9823293685913086
 outer loop
  vertex 779500.0 5638500.0 6197.7998046875
  vertex 780500.0 5638500.0 6351.2001953125
  vertex 780500.0 5637500.0 6464.2001953125
 endloop
endfacet
facet normal 0.483920156955719 -0.09826231002807617 -0.8695780038833618
 outer loop
  vertex 780500.0 5638500.0 6351.2001953125
  vertex 781500.0 5637500.0 7020.7001953125
  vertex 780500.0 5637500.0 6464.2001953125
 endloop
endfacet
facet normal 0.06477558612823486 -0.5096251368522644 -0.857954740524292
 outer loop
  vertex 780500.0 5638500.0 6351.2001953125
  vertex 781500.0 5638500.0 6426.7001953125
  vertex 781500.0 5637500.0 7020.7001953125
 endloop
endfacet
facet normal -0.03394097089767456 -0.5104034543037415 -0.8592650294303894
 outer loop
  vertex 781500.0 5638500.0 6426.7001953125
  vertex 782500.0 5637500.0 6981.2001953125
  vertex 781500.0 5637500.0 7020.7001953125
 endloop
endfacet
facet normal 0.10104361921548843 -0.4032667577266693 -0.9094867706298828
 outer loop
  vertex 781500.0 5638500.0 6426.7001953125
  vertex 782500.0 5638500.0 6537.7998046875
  vertex 782500.0 5637500.0 6981.2001953125
 endloop
endfacet
facet normal 0.2376234531402588 -0.3937312364578247 -0.8879812955856323
 outer loop
  vertex 782500.0 5638500.0 6537.7998046875
  vertex 783500.0 5637500.0 7248.7998046875
  vertex 782500.0 5637500.0 6981.2001953125
 endloop
endfacet
facet normal 0.2832505404949188 -0.35125136375427246 -0.8924077749252319
 outer loop
  vertex 782500.0 5638500.0 6537.7998046875
  vertex 783500.0 5638500.0 6855.2001953125
  vertex 783500.0 5637500.0 7248.7998046875
 endloop
endfacet
facet normal -0.2436876744031906 -0.171812504529953 -0.9545139074325562
 outer loop
  vertex 767500.0 5639500.0 6637.10009765625
  vertex 768500.0 5638500.0 6561.7998046875
  vertex 767500.0 5638500.0 6817.10009765625
 endloop
endfacet
facet normal -0.35558298230171204 -0.2886441946029663 -0.8889574408531189
 outer loop
  vertex 767500.0 5639500.0 6637.10009765625
  vertex 768500.0 5639500.0 6237.10009765625
  vertex 768500.0 5638500.0 6561.7998046875
 endloop
endfacet
facet normal -0.4210774302482605 -0.28011438250541687 -0.8626874685287476
 outer loop
  vertex 768500.0 5639500.0 6237.10009765625
  vertex 769500.0 5638500.0 6073.7001953125
  vertex 768500.0 5638500.0 6561.7998046875
 endloop
endfacet
facet normal -0.07002541422843933 0.09227453172206879 -0.9932683110237122
 outer loop
  vertex 768500.0 5639500.0 6237.10009765625
  vertex 769500.0 5639500.0 6166.60009765625
  vertex 769500.0 5638500.0 6073.7001953125
 endloop
endfacet
facet normal 0.10133683681488037 0.09202541410923004 -0.9905867576599121
 outer loop
  vertex 769500.0 5639500.0 6166.60009765625
  vertex 770500.0 5638500.0 6176.0
  vertex 769500.0 5638500.0 6073.7001953125
 endloop
endfacet
facet normal -0.31419995427131653 -0.3225928246974945 -0.892867386341095
 outer loop
  vertex 769500.0 5639500.0 6166.60009765625
  vertex 770500.0 5639500.0 5814.7001953125
  vertex 770500.0 5638500.0 6176.0
 endloop
endfacet
facet normal -0.31893593072891235 -0.32205575704574585 -0.8913809061050415
 outer loop
  vertex 770500.0 5639500.0 5814.7001953125
  vertex 771500.0 5638500.0 5818.2001953125
  vertex 770500.0 5638500.0 6176.0
 endloop
endfacet
facet normal 0.4231566786766052 0.4203473925590515 -0.802649736404419
 outer loop
  vertex 770500.0 5639500.0 5814.7001953125
  vertex 771500.0 5639500.0 6341.89990234375
  vertex 771500.0 5638500.0 5818.2001953125
 endloop
endfacet
facet normal 0.02904416248202324 0.4637349545955658 -0.8854978084564209
 outer loop
  vertex 771500.0 5639500.0 6341.89990234375
  vertex 772500.0 5638500.0 5851.0
  vertex 771500.0 5638500.0 5818.2001953125
 endloop
endfacet
facet normal -0.2841244637966156 0.178331196308136 -0.9420568943023682
 outer loop
  vertex 771500.0 5639500.0 6341.89990234375
  vertex 772500.0 5639500.0 6040.2998046875
  vertex 772500.0 5638500.0 5851.0
 endloop
endfacet
facet normal -0.20723901689052582 0.18195867538452148 -0.9612195491790771
 outer loop
  vertex 772500.0 5639500.0 6040.2998046875
  vertex 773500.0 5638500.0 5635.39990234375
  vertex 772500.0 5638500.0 5851.0
 endloop
endfacet
facet normal -0.11824575066566467 0.2688019871711731 -0.9559097290039062
 outer loop
  vertex 772500.0 5639500.0 6040.2998046875
  vertex 773500.0 5639500.0 5916.60009765625
  vertex 773500.0 5638500.0 5635.39990234375
 endloop
endfacet
facet normal 0.0333859808743 0.2705502212047577 -0.9621267914772034
 outer loop
  vertex 773500.0 5639500.0 5916.60009765625
  vertex 774500.0 5638500.0 5670.10009765625
  vertex 773500.0 5638500.0 5635.39990234375
 endloop
endfacet
facet normal -0.13130751252174377 0.11150741577148438 -0.9850504398345947
 outer loop
  vertex 773500.0 5639500.0 5916.60009765625
  vertex 774500.0 5639500.0 5783.2998046875
  vertex 774500.0 5638500.0 5670.10009765625
 endloop
endfacet
facet normal -0.07027578353881836 0.1122032180428505 -0.9911971092224121
 outer loop
  vertex 774500.0 5639500.0 5783.2998046875
  vertex 775500.0 5638500.0 5599.2001953125
  vertex 774500.0 5638500.0 5670.10009765625
 endloop
endfacet
facet normal -0.19993853569030762 -0.019592251628637314 -0.9796125292778015
 outer loop
  vertex 774500.0 5639500.0 5783.2998046875
  vertex 775500.0 5639500.0 5579.2001953125
  vertex 775500.0 5638500.0 5599.2001953125
 endloop
endfacet
facet normal 0.24531660974025726 -0.01938498392701149 -0.9692491888999939
 outer loop
  vertex 775500.0 5639500.0 5579.2001953125
  vertex 776500.0 5638500.0 5852.2998046875
  vertex 775500.0 5638500.0 5599.2001953125
 endloop
endfacet
facet normal 0.11404631286859512 -0.15399228036403656 -0.9814682006835938
 outer loop
  vertex 775500.0 5639500.0 5579.2001953125
  vertex 776500.0 5639500.0 5695.39990234375
  vertex 776500.0 5638500.0 5852.2998046875
 endloop
endfacet
facet normal 0.2250494509935379 -0.1510273516178131 -0.9625713229179382
 outer loop
  vertex 776500.0 5639500.0 5695.39990234375
  vertex 777500.0 5638500.0 6086.10009765625
  vertex 776500.0 5638500.0 5852.2998046875
 endloop
endfacet
facet normal 0.07443346828222275 -0.2974475920200348 -0.9518322944641113
 outer loop
  vertex 776500.0 5639500.0 5695.39990234375
  vertex 777500.0 5639500.0 5773.60009765625
  vertex 777500.0 5638500.0 6086.10009765625
 endloop
endfacet
facet normal -0.0746224969625473 -0.29744333028793335 -0.9518187046051025
 outer loop
  vertex 777500.0 5639500.0 5773.60009765625
  vertex 778500.0 5638500.0 6007.7001953125
  vertex 777500.0 5638500.0 6086.10009765625
 endloop
endfacet
facet normal 0.30935096740722656 0.08768229931592941 -0.9468969702720642
 outer loop
  vertex 777500.0 5639500.0 5773.60009765625
  vertex 778500.0 5639500.0 6100.2998046875
  vertex 778500.0 5638500.0 6007.7001953125
 endloop
endfacet
facet normal 0.18598710000514984 0.09059636294841766 -0.9783665537834167
 outer loop
  vertex 778500.0 5639500.0 6100.2998046875
  vertex 779500.0 5638500.0 6197.7998046875
  vertex 778500.0 5638500.0 6007.7001953125
 endloop
endfacet
facet normal 0.3896639049053192 0.3049355447292328 -0.8690088391304016
 outer loop
  vertex 778500.0 5639500.0 6100.2998046875
  vertex 779500.0 5639500.0 6548.7001953125
  vertex 779500.0 5638500.0 6197.7998046875
 endloop
endfacet
facet normal 0.1432546079158783 0.3276921212673187 -0.9338608384132385
 outer loop
  vertex 779500.0 5639500.0 6548.7001953125
  vertex 780500.0 5638500.0 6351.2001953125
  vertex 779500.0 5638500.0 6197.7998046875
 endloop
endfacet
facet normal -0.07125800102949142 0.12420665472745895 -0.9896944165229797
 outer loop
  vertex 779500.0 5639500.0 6548.7001953125
  vertex 780500.0 5639500.0 6476.7001953125
  vertex 780500.0 5638500.0 6351.2001953125
 endloop
endfacet
facet normal 0.07470303773880005 0.12417525053024292 -0.9894442558288574
 outer loop
  vertex 780500.0 5639500.0 6476.7001953125
  vertex 781500.0 5638500.0 6426.7001953125
  vertex 780500.0 5638500.0 6351.2001953125
 endloop
endfacet
facet normal -0.4100262224674225 -0.368306040763855 -0.8344035148620605
 outer loop
  vertex 780500.0 5639500.0 6476.7001953125
  vertex 781500.0 5639500.0 5985.2998046875
  vertex 781500.0 5638500.0 6426.7001953125
 endloop
endfacet
facet normal 0.10111767053604126 -0.4017419219017029 -0.9101530909538269
 outer loop
  vertex 781500.0 5639500.0 5985.2998046875
  vertex 782500.0 5638500.0 6537.7998046875
  vertex 781500.0 5638500.0 6426.7001953125
 endloop
endfacet
facet normal 0.057044047862291336 -0.4385029375553131 -0.8969175815582275
 outer loop
  vertex 781500.0 5639500.0 5985.2998046875
  vertex 782500.0 5639500.0 6048.89990234375
  vertex 782500.0 5638500.0 6537.7998046875
 endloop
endfacet
facet normal 0.2742161154747009 -0.42238205671310425 -0.863943874835968
 outer loop
  vertex 782500.0 5639500.0 6048.89990234375
  vertex 783500.0 5638500.0 6855.2001953125
  vertex 782500.0 5638500.0 6537.7998046875
 endloop
endfacet
facet normal 0.42577630281448364 -0.27043846249580383 -0.8634682893753052
 outer loop
  vertex 782500.0 5639500.0 6048.89990234375
  vertex 783500.0 5639500.0 6542.0
  vertex 783500.0 5638500.0 6855.2001953125
 endloop
endfacet
facet normal 0.21669338643550873 -0.29178211092948914 -0.9316153526306152
 outer loop
  vertex 783500.0 5639500.0 6542.0
  vertex 784500.0 5638500.0 7087.7998046875
  vertex 783500.0 5638500.0 6855.2001953125
 endloop
endfacet
facet normal -0.3523724675178528 -0.3159019947052002 -0.8809311389923096
 outer loop
  vertex 767500.0 5640500.0 6278.5
  vertex 768500.0 5639500.0 6237.10009765625
  vertex 767500.0 5639500.0 6637.10009765625
 endloop
endfacet
facet normal -0.01669277809560299 0.024688735604286194 -0.9995558261871338
 outer loop
  vertex 767500.0 5640500.0 6278.5
  vertex 768500.0 5640500.0 6261.7998046875
  vertex 768500.0 5639500.0 6237.10009765625
 endloop
endfacet
facet normal -0.07030411809682846 0.0246310792863369 -0.9972214698791504
 outer loop
  vertex 768500.0 5640500.0 6261.7998046875
  vertex 769500.0 5639500.0 6166.60009765625
  vertex 768500.0 5639500.0 6237.10009765625
 endloop
endfacet
facet normal -0.11451813578605652 -0.019963832572102547 -0.9932205080986023
 outer loop
  vertex 768500.0 5640500.0 6261.7998046875
  vertex 769500.0 5640500.0 6146.5
  vertex 769500.0 5639500.0 6166.60009765625
 endloop
endfacet
facet normal -0.331886887550354 -0.018956977874040604 -0.9431286454200745
 outer loop
  vertex 769500.0 5640500.0 6146.5
  vertex 770500.0 5639500.0 5814.7001953125
  vertex 769500.0 5639500.0 6166.60009765625
 endloop
endfacet
facet normal -0.11590763926506042 0.20645777881145477 -0.9715660214424133
 outer loop
  vertex 769500.0 5640500.0 6146.5
  vertex 770500.0 5640500.0 6027.2001953125
  vertex 770500.0 5639500.0 5814.7001953125
 endloop
endfacet
facet normal 0.4583313465118408 0.18474100530147552 -0.8693694472312927
 outer loop
  vertex 770500.0 5640500.0 6027.2001953125
  vertex 771500.0 5639500.0 6341.89990234375
  vertex 770500.0 5639500.0 5814.7001953125
 endloop
endfacet
facet normal 0.16484633088111877 -0.14230063557624817 -0.9760000705718994
 outer loop
  vertex 770500.0 5640500.0 6027.2001953125
  vertex 771500.0 5640500.0 6196.10009765625
  vertex 771500.0 5639500.0 6341.89990234375
 endloop
endfacet
facet normal -0.28598031401634216 -0.13824886083602905 -0.9482101798057556
 outer loop
  vertex 771500.0 5640500.0 6196.10009765625
  vertex 772500.0 5639500.0 6040.2998046875
  vertex 771500.0 5639500.0 6341.89990234375
 endloop
endfacet
facet normal -0.04408403858542442 0.11060787737369537 -0.9928858876228333
 outer loop
  vertex 771500.0 5640500.0 6196.10009765625
  vertex 772500.0 5640500.0 6151.7001953125
  vertex 772500.0 5639500.0 6040.2998046875
 endloop
endfacet
facet normal -0.12202056497335434 0.10988820344209671 -0.9864256978034973
 outer loop
  vertex 772500.0 5640500.0 6151.7001953125
  vertex 773500.0 5639500.0 5916.60009765625
  vertex 772500.0 5639500.0 6040.2998046875
 endloop
endfacet
facet normal -0.26496046781539917 -0.03844326734542847 -0.9634926319122314
 outer loop
  vertex 772500.0 5640500.0 6151.7001953125
  vertex 773500.0 5640500.0 5876.7001953125
  vertex 773500.0 5639500.0 5916.60009765625
 endloop
endfacet
facet normal -0.13202832639217377 -0.03951917216181755 -0.9904578924179077
 outer loop
  vertex 773500.0 5640500.0 5876.7001953125
  vertex 774500.0 5639500.0 5783.2998046875
  vertex 773500.0 5639500.0 5916.60009765625
 endloop
endfacet
facet normal -0.11812810599803925 -0.025412045419216156 -0.9926731586456299
 outer loop
  vertex 773500.0 5640500.0 5876.7001953125
  vertex 774500.0 5640500.0 5757.7001953125
  vertex 774500.0 5639500.0 5783.2998046875
 endloop
endfacet
facet normal -0.19991405308246613 -0.025074627250432968 -0.9794925451278687
 outer loop
  vertex 774500.0 5640500.0 5757.7001953125
  vertex 775500.0 5639500.0 5579.2001953125
  vertex 774500.0 5639500.0 5783.2998046875
 endloop
endfacet
facet normal -0.211081862449646 -0.036726951599121094 -0.9767782092094421
 outer loop
  vertex 774500.0 5640500.0 5757.7001953125
  vertex 775500.0 5640500.0 5541.60009765625
  vertex 775500.0 5639500.0 5579.2001953125
 endloop
endfacet
facet normal 0.11534266918897629 -0.03732277452945709 -0.9926243424415588
 outer loop
  vertex 775500.0 5640500.0 5541.60009765625
  vertex 776500.0 5639500.0 5695.39990234375
  vertex 775500.0 5639500.0 5579.2001953125
 endloop
endfacet
facet normal 0.15635138750076294 0.0044446117244660854 -0.9876915216445923
 outer loop
  vertex 775500.0 5640500.0 5541.60009765625
  vertex 776500.0 5640500.0 5699.89990234375
  vertex 776500.0 5639500.0 5695.39990234375
 endloop
endfacet
facet normal 0.07796139270067215 0.004486258141696453 -0.9969462752342224
 outer loop
  vertex 776500.0 5640500.0 5699.89990234375
  vertex 777500.0 5639500.0 5773.60009765625
  vertex 776500.0 5639500.0 5695.39990234375
 endloop
endfacet
facet normal 0.3632972836494446 0.2982460856437683 -0.8826462030410767
 outer loop
  vertex 776500.0 5640500.0 5699.89990234375
  vertex 777500.0 5640500.0 6111.5
  vertex 777500.0 5639500.0 5773.60009765625
 endloop
endfacet
facet normal 0.29566991329193115 0.30580630898475647 -0.9050203561782837
 outer loop
  vertex 777500.0 5640500.0 6111.5
  vertex 778500.0 5639500.0 6100.2998046875
  vertex 777500.0 5639500.0 5773.60009765625
 endloop
endfacet
facet normal 0.36479392647743225 0.37434232234954834 -0.8525216579437256
 outer loop
  vertex 777500.0 5640500.0 6111.5
  vertex 778500.0 5640500.0 6539.39990234375
  vertex 778500.0 5639500.0 6100.2998046875
 endloop
endfacet
facet normal 0.37979963421821594 0.37192219495773315 -0.84701007604599
 outer loop
  vertex 778500.0 5640500.0 6539.39990234375
  vertex 779500.0 5639500.0 6548.7001953125
  vertex 778500.0 5639500.0 6100.2998046875
 endloop
endfacet
facet normal 0.2883591055870056 0.27984270453453064 -0.9157167673110962
 outer loop
  vertex 778500.0 5640500.0 6539.39990234375
  vertex 779500.0 5640500.0 6854.2998046875
  vertex 779500.0 5639500.0 6548.7001953125
 endloop
endfacet
facet normal -0.06869381666183472 0.29156672954559326 -0.9540807604789734
 outer loop
  vertex 779500.0 5640500.0 6854.2998046875
  vertex 780500.0 5639500.0 6476.7001953125
  vertex 779500.0 5639500.0 6548.7001953125
 endloop
endfacet
facet normal 0.06089290603995323 -0.2821556031703949 -0.9574342370033264
 outer loop
  vertex 781500.0 5640500.0 5690.60009765625
  vertex 782500.0 5639500.0 6048.89990234375
  vertex 781500.0 5639500.0 5985.2998046875
 endloop
endfacet
facet normal -0.016656536608934402 0.07031569629907608 -0.9973857402801514
 outer loop
  vertex 767500.0 5641500.0 6349.0
  vertex 768500.0 5640500.0 6261.7998046875
  vertex 767500.0 5640500.0 6278.5
 endloop
endfacet
facet normal -0.18756520748138428 -0.10237915068864822 -0.9769021272659302
 outer loop
  vertex 767500.0 5641500.0 6349.0
  vertex 768500.0 5641500.0 6157.0
  vertex 768500.0 5640500.0 6261.7998046875
 endloop
endfacet
facet normal -0.11392521113157272 -0.10355038940906525 -0.9880781173706055
 outer loop
  vertex 768500.0 5641500.0 6157.0
  vertex 769500.0 5640500.0 6146.5
  vertex 768500.0 5640500.0 6261.7998046875
 endloop
endfacet
facet normal 0.04915240779519081 0.059621017426252365 -0.9970102310180664
 outer loop
  vertex 768500.0 5641500.0 6157.0
  vertex 769500.0 5641500.0 6206.2998046875
  vertex 769500.0 5640500.0 6146.5
 endloop
endfacet
facet normal -0.1182515099644661 0.0592743419110775 -0.9912129640579224
 outer loop
  vertex 769500.0 5641500.0 6206.2998046875
  vertex 770500.0 5640500.0 6027.2001953125
  vertex 769500.0 5640500.0 6146.5
 endloop
endfacet
facet normal -0.04058108478784561 0.13668857514858246 -0.9897825121879578
 outer loop
  vertex 769500.0 5641500.0 6206.2998046875
  vertex 770500.0 5641500.0 6165.2998046875
  vertex 770500.0 5640500.0 6027.2001953125
 endloop
endfacet
facet normal 0.165018230676651 0.13492579758167267 -0.9770179390907288
 outer loop
  vertex 770500.0 5641500.0 6165.2998046875
  vertex 771500.0 5640500.0 6196.10009765625
  vertex 770500.0 5640500.0 6027.2001953125
 endloop
endfacet
facet normal -0.23532982170581818 -0.264138400554657 -0.9353345632553101
 outer loop
  vertex 770500.0 5641500.0 6165.2998046875
  vertex 771500.0 5641500.0 5913.7001953125
  vertex 771500.0 5640500.0 6196.10009765625
 endloop
endfacet
facet normal -0.04268983006477356 -0.2715231776237488 -0.9614846706390381
 outer loop
  vertex 771500.0 5641500.0 5913.7001953125
  vertex 772500.0 5640500.0 6151.7001953125
  vertex 771500.0 5640500.0 6196.10009765625
 endloop
endfacet
facet normal -0.04770840331912041 -0.2761702835559845 -0.9599239230155945
 outer loop
  vertex 771500.0 5641500.0 5913.7001953125
  vertex 772500.0 5641500.0 5864.0
  vertex 772500.0 5640500.0 6151.7001953125
 endloop
endfacet
facet normal -0.25550776720046997 -0.26730775833129883 -0.9291191101074219
 outer loop
  vertex 772500.0 5641500.0 5864.0
  vertex 773500.0 5640500.0 5876.7001953125
  vertex 772500.0 5640500.0 6151.7001953125
 endloop
endfacet
facet normal -0.15083158016204834 -0.16321416199207306 -0.9749928116798401
 outer loop
  vertex 772500.0 5641500.0 5864.0
  vertex 773500.0 5641500.0 5709.2998046875
  vertex 773500.0 5640500.0 5876.7001953125
 endloop
endfacet
facet normal -0.11656677722930908 -0.1639775186777115 -0.9795527458190918
 outer loop
  vertex 773500.0 5641500.0 5709.2998046875
  vertex 774500.0 5640500.0 5757.7001953125
  vertex 773500.0 5640500.0 5876.7001953125
 endloop
endfacet
facet normal -0.17480672895908356 -0.221243217587471 -0.9594237804412842
 outer loop
  vertex 773500.0 5641500.0 5709.2998046875
  vertex 774500.0 5641500.0 5527.10009765625
  vertex 774500.0 5640500.0 5757.7001953125
 endloop
endfacet
facet normal -0.20605501532554626 -0.21988099813461304 -0.9535165429115295
 outer loop
  vertex 774500.0 5641500.0 5527.10009765625
  vertex 775500.0 5640500.0 5541.60009765625
  vertex 774500.0 5640500.0 5757.7001953125
 endloop
endfacet
facet normal -0.009896472096443176 -0.024391448125243187 -0.9996535181999207
 outer loop
  vertex 774500.0 5641500.0 5527.10009765625
  vertex 775500.0 5641500.0 5517.2001953125
  vertex 775500.0 5640500.0 5541.60009765625
 endloop
endfacet
facet normal 0.15630751848220825 -0.024092817679047585 -0.987414538860321
 outer loop
  vertex 775500.0 5641500.0 5517.2001953125
  vertex 776500.0 5640500.0 5699.89990234375
  vertex 775500.0 5640500.0 5541.60009765625
 endloop
endfacet
facet normal 0.33239784836769104 0.16266889870166779 -0.9290050864219666
 outer loop
  vertex 775500.0 5641500.0 5517.2001953125
  vertex 776500.0 5641500.0 5875.0
  vertex 776500.0 5640500.0 5699.89990234375
 endloop
endfacet
facet normal 0.37572604417800903 0.15983881056308746 -0.9128425121307373
 outer loop
  vertex 776500.0 5641500.0 5875.0
  vertex 777500.0 5640500.0 6111.5
  vertex 776500.0 5640500.0 5699.89990234375
 endloop
endfacet
facet normal -0.015221749432384968 -0.24451465904712677 -0.9695261120796204
 outer loop
  vertex 776500.0 5641500.0 5875.0
  vertex 777500.0 5641500.0 5859.2998046875
  vertex 777500.0 5640500.0 6111.5
 endloop
endfacet
facet normal 0.3832310438156128 -0.22587276995182037 -0.8956090211868286
 outer loop
  vertex 777500.0 5641500.0 5859.2998046875
  vertex 778500.0 5640500.0 6539.39990234375
  vertex 777500.0 5640500.0 6111.5
 endloop
endfacet
facet normal 0.036928482353687286 -0.5364710092544556 -0.8431104421615601
 outer loop
  vertex 777500.0 5641500.0 5859.2998046875
  vertex 778500.0 5641500.0 5903.10009765625
  vertex 778500.0 5640500.0 6539.39990234375
 endloop
endfacet
facet normal 0.25676918029785156 -0.5188384652137756 -0.8153994083404541
 outer loop
  vertex 778500.0 5641500.0 5903.10009765625
  vertex 779500.0 5640500.0 6854.2998046875
  vertex 778500.0 5640500.0 6539.39990234375
 endloop
endfacet
facet normal 0.05314240604639053 -0.6598209738731384 -0.7495412826538086
 outer loop
  vertex 778500.0 5641500.0 5903.10009765625
  vertex 779500.0 5641500.0 5974.0
  vertex 779500.0 5640500.0 6854.2998046875
 endloop
endfacet
facet normal 0.047466956079006195 0.26593175530433655 -0.9628225564956665
 outer loop
  vertex 768500.0 5642500.0 6433.2001953125
  vertex 769500.0 5641500.0 6206.2998046875
  vertex 768500.0 5641500.0 6157.0
 endloop
endfacet
facet normal -0.14195500314235687 0.0818779245018959 -0.9864810109138489
 outer loop
  vertex 768500.0 5642500.0 6433.2001953125
  vertex 769500.0 5642500.0 6289.2998046875
  vertex 769500.0 5641500.0 6206.2998046875
 endloop
endfacet
facet normal -0.040825434029102325 0.08264661580324173 -0.9957423210144043
 outer loop
  vertex 769500.0 5642500.0 6289.2998046875
  vertex 770500.0 5641500.0 6165.2998046875
  vertex 769500.0 5641500.0 6206.2998046875
 endloop
endfacet
facet normal -0.07161813974380493 0.05189592018723488 -0.9960811138153076
 outer loop
  vertex 769500.0 5642500.0 6289.2998046875
  vertex 770500.0 5642500.0 6217.39990234375
  vertex 770500.0 5641500.0 6165.2998046875
 endloop
endfacet
facet normal -0.2436845451593399 0.05046107620000839 -0.9685409665107727
 outer loop
  vertex 770500.0 5642500.0 6217.39990234375
  vertex 771500.0 5641500.0 5913.7001953125
  vertex 770500.0 5641500.0 6165.2998046875
 endloop
endfacet
facet normal -0.17207805812358856 0.12468531727790833 -0.9771605134010315
 outer loop
  vertex 770500.0 5642500.0 6217.39990234375
  vertex 771500.0 5642500.0 6041.2998046875
  vertex 771500.0 5641500.0 5913.7001953125
 endloop
endfacet
facet normal -0.04924067482352257 0.1264198273420334 -0.9907539486885071
 outer loop
  vertex 771500.0 5642500.0 6041.2998046875
  vertex 772500.0 5641500.0 5864.0
  vertex 771500.0 5641500.0 5913.7001953125
 endloop
endfacet
facet normal -0.22958846390247345 -0.05732429400086403 -0.971598207950592
 outer loop
  vertex 771500.0 5642500.0 6041.2998046875
  vertex 772500.0 5642500.0 5805.0
  vertex 772500.0 5641500.0 5864.0
 endloop
endfacet
facet normal -0.15262240171432495 -0.058207567781209946 -0.9865689873695374
 outer loop
  vertex 772500.0 5642500.0 5805.0
  vertex 773500.0 5641500.0 5709.2998046875
  vertex 772500.0 5641500.0 5864.0
 endloop
endfacet
facet normal -0.25074270367622375 -0.1593637466430664 -0.954846203327179
 outer loop
  vertex 772500.0 5642500.0 5805.0
  vertex 773500.0 5642500.0 5542.39990234375
  vertex 773500.0 5641500.0 5709.2998046875
 endloop
endfacet
facet normal -0.17688024044036865 -0.16202710568904877 -0.9708040952682495
 outer loop
  vertex 773500.0 5642500.0 5542.39990234375
  vertex 774500.0 5641500.0 5527.10009765625
  vertex 773500.0 5641500.0 5709.2998046875
 endloop
endfacet
facet normal -0.054278235882520676 -0.03901264816522598 -0.997763454914093
 outer loop
  vertex 773500.0 5642500.0 5542.39990234375
  vertex 774500.0 5642500.0 5488.0
  vertex 774500.0 5641500.0 5527.10009765625
 endloop
endfacet
facet normal -0.009891859255731106 -0.03906833380460739 -0.9991875886917114
 outer loop
  vertex 774500.0 5642500.0 5488.0
  vertex 775500.0 5641500.0 5517.2001953125
  vertex 774500.0 5641500.0 5527.10009765625
 endloop
endfacet
facet normal 0.190627321600914 0.16235734522342682 -0.9681432247161865
 outer loop
  vertex 774500.0 5642500.0 5488.0
  vertex 775500.0 5642500.0 5684.89990234375
  vertex 775500.0 5641500.0 5517.2001953125
 endloop
endfacet
facet normal 0.33276233077049255 0.1559647023677826 -0.930023729801178
 outer loop
  vertex 775500.0 5642500.0 5684.89990234375
  vertex 776500.0 5641500.0 5875.0
  vertex 775500.0 5641500.0 5517.2001953125
 endloop
endfacet
facet normal 0.2785358428955078 0.09689025580883026 -0.9555260539054871
 outer loop
  vertex 775500.0 5642500.0 5684.89990234375
  vertex 776500.0 5642500.0 5976.39990234375
  vertex 776500.0 5641500.0 5875.0
 endloop
endfacet
facet normal -0.015618185512721539 0.1008702963590622 -0.9947769641876221
 outer loop
  vertex 776500.0 5642500.0 5976.39990234375
  vertex 777500.0 5641500.0 5859.2998046875
  vertex 776500.0 5641500.0 5875.0
 endloop
endfacet
facet normal 0.2337871789932251 0.3404349386692047 -0.9107401967048645
 outer loop
  vertex 776500.0 5642500.0 5976.39990234375
  vertex 777500.0 5642500.0 6233.10009765625
  vertex 777500.0 5641500.0 5859.2998046875
 endloop
endfacet
facet normal 0.04099315032362938 0.34984368085861206 -0.935910701751709
 outer loop
  vertex 777500.0 5642500.0 6233.10009765625
  vertex 778500.0 5641500.0 5903.10009765625
  vertex 777500.0 5641500.0 5859.2998046875
 endloop
endfacet
facet normal -0.017660146579146385 0.2973586916923523 -0.9546024799346924
 outer loop
  vertex 777500.0 5642500.0 6233.10009765625
  vertex 778500.0 5642500.0 6214.60009765625
  vertex 778500.0 5641500.0 5903.10009765625
 endloop
endfacet
facet normal 0.06753722578287125 0.2967260181903839 -0.952571451663971
 outer loop
  vertex 778500.0 5642500.0 6214.60009765625
  vertex 779500.0 5641500.0 5974.0
  vertex 778500.0 5641500.0 5903.10009765625
 endloop
endfacet
facet normal -0.3351711928844452 -0.11003948748111725 -0.9357091784477234
 outer loop
  vertex 778500.0 5642500.0 6214.60009765625
  vertex 779500.0 5642500.0 5856.39990234375
  vertex 779500.0 5641500.0 5974.0
 endloop
endfacet
facet normal -0.07156360894441605 -0.06489475071430206 -0.9953227043151855
 outer loop
  vertex 769500.0 5643500.0 6224.10009765625
  vertex 770500.0 5642500.0 6217.39990234375
  vertex 769500.0 5642500.0 6289.2998046875
 endloop
endfacet
facet normal -0.18406672775745392 -0.17758941650390625 -0.9667375087738037
 outer loop
  vertex 769500.0 5643500.0 6224.10009765625
  vertex 770500.0 5643500.0 6033.7001953125
  vertex 770500.0 5642500.0 6217.39990234375
 endloop
endfacet
facet normal -0.17066103219985962 -0.17802591621875763 -0.969113826751709
 outer loop
  vertex 770500.0 5643500.0 6033.7001953125
  vertex 771500.0 5642500.0 6041.2998046875
  vertex 770500.0 5642500.0 6217.39990234375
 endloop
endfacet
facet normal -0.19766460359096527 -0.20494963228702545 -0.9586054086685181
 outer loop
  vertex 770500.0 5643500.0 6033.7001953125
  vertex 771500.0 5643500.0 5827.5
  vertex 771500.0 5642500.0 6041.2998046875
 endloop
endfacet
facet normal -0.22514468431472778 -0.20370684564113617 -0.9527924656867981
 outer loop
  vertex 771500.0 5643500.0 5827.5
  vertex 772500.0 5642500.0 5805.0
  vertex 771500.0 5642500.0 6041.2998046875
 endloop
endfacet
facet normal -0.044943153858184814 -0.022471576929092407 -0.9987367987632751
 outer loop
  vertex 771500.0 5643500.0 5827.5
  vertex 772500.0 5643500.0 5782.5
  vertex 772500.0 5642500.0 5805.0
 endloop
endfacet
facet normal -0.2539285719394684 -0.021757010370492935 -0.9669782519340515
 outer loop
  vertex 772500.0 5643500.0 5782.5
  vertex 773500.0 5642500.0 5542.39990234375
  vertex 772500.0 5642500.0 5805.0
 endloop
endfacet
facet normal -0.3507543206214905 -0.1280192732810974 -0.9276758432388306
 outer loop
  vertex 772500.0 5643500.0 5782.5
  vertex 773500.0 5643500.0 5404.39990234375
  vertex 773500.0 5642500.0 5542.39990234375
 endloop
endfacet
facet normal -0.05381111428141594 -0.13650637865066528 -0.9891766309738159
 outer loop
  vertex 773500.0 5643500.0 5404.39990234375
  vertex 774500.0 5642500.0 5488.0
  vertex 773500.0 5642500.0 5542.39990234375
 endloop
endfacet
facet normal 0.44196778535842896 0.3737970292568207 -0.8154386878013611
 outer loop
  vertex 773500.0 5643500.0 5404.39990234375
  vertex 774500.0 5643500.0 5946.39990234375
  vertex 774500.0 5642500.0 5488.0
 endloop
endfacet
facet normal 0.17619016766548157 0.410185843706131 -0.8948209285736084
 outer loop
  vertex 774500.0 5643500.0 5946.39990234375
  vertex 775500.0 5642500.0 5684.89990234375
  vertex 774500.0 5642500.0 5488.0
 endloop
endfacet
facet normal 0.07978421449661255 0.3261067867279053 -0.9419601559638977
 outer loop
  vertex 774500.0 5643500.0 5946.39990234375
  vertex 775500.0 5643500.0 6031.10009765625
  vertex 775500.0 5642500.0 5684.89990234375
 endloop
endfacet
facet normal 0.2655683159828186 0.31540241837501526 -0.9110405445098877
 outer loop
  vertex 775500.0 5643500.0 6031.10009765625
  vertex 776500.0 5642500.0 5976.39990234375
  vertex 775500.0 5642500.0 5684.89990234375
 endloop
endfacet
facet normal -0.07269499450922012 -0.018148554489016533 -0.9971891045570374
 outer loop
  vertex 775500.0 5643500.0 6031.10009765625
  vertex 776500.0 5643500.0 5958.2001953125
  vertex 776500.0 5642500.0 5976.39990234375
 endloop
endfacet
facet normal 0.24860022962093353 -0.01762543059885502 -0.9684457778930664
 outer loop
  vertex 776500.0 5643500.0 5958.2001953125
  vertex 777500.0 5642500.0 6233.10009765625
  vertex 776500.0 5642500.0 5976.39990234375
 endloop
endfacet
facet normal 0.14731904864311218 -0.12248840183019638 -0.981475293636322
 outer loop
  vertex 776500.0 5643500.0 5958.2001953125
  vertex 777500.0 5643500.0 6108.2998046875
  vertex 777500.0 5642500.0 6233.10009765625
 endloop
endfacet
facet normal -0.018354499712586403 -0.12381875514984131 -0.9921351075172424
 outer loop
  vertex 777500.0 5643500.0 6108.2998046875
  vertex 778500.0 5642500.0 6214.60009765625
  vertex 777500.0 5642500.0 6233.10009765625
 endloop
endfacet
facet normal -0.20787782967090607 -0.30661553144454956 -0.9288561344146729
 outer loop
  vertex 777500.0 5643500.0 6108.2998046875
  vertex 778500.0 5643500.0 5884.5
  vertex 778500.0 5642500.0 6214.60009765625
 endloop
endfacet
facet normal -0.3220275342464447 -0.2967650890350342 -0.899015486240387
 outer loop
  vertex 778500.0 5643500.0 5884.5
  vertex 779500.0 5642500.0 5856.39990234375
  vertex 778500.0 5642500.0 6214.60009765625
 endloop
endfacet
facet normal 0.06998773664236069 0.09788364917039871 -0.992733895778656
 outer loop
  vertex 778500.0 5643500.0 5884.5
  vertex 779500.0 5643500.0 5955.0
  vertex 779500.0 5642500.0 5856.39990234375
 endloop
endfacet
facet normal -0.2019505500793457 -0.003134241560474038 -0.9793907403945923
 outer loop
  vertex 770500.0 5644500.0 6030.5
  vertex 771500.0 5643500.0 5827.5
  vertex 770500.0 5643500.0 6033.7001953125
 endloop
endfacet
facet normal -0.06991793215274811 0.13083598017692566 -0.9889354705810547
 outer loop
  vertex 770500.0 5644500.0 6030.5
  vertex 771500.0 5644500.0 5959.7998046875
  vertex 771500.0 5643500.0 5827.5
 endloop
endfacet
facet normal -0.04456694796681404 0.13102664053440094 -0.9903766512870789
 outer loop
  vertex 771500.0 5644500.0 5959.7998046875
  vertex 772500.0 5643500.0 5782.5
  vertex 771500.0 5643500.0 5827.5
 endloop
endfacet
facet normal -0.16394095122814178 0.010949252173304558 -0.9864093661308289
 outer loop
  vertex 771500.0 5644500.0 5959.7998046875
  vertex 772500.0 5644500.0 5793.60009765625
  vertex 772500.0 5643500.0 5782.5
 endloop
endfacet
facet normal -0.35364535450935364 0.010382166132330894 -0.9353219866752625
 outer loop
  vertex 772500.0 5644500.0 5793.60009765625
  vertex 773500.0 5643500.0 5404.39990234375
  vertex 772500.0 5643500.0 5782.5
 endloop
endfacet
facet normal -0.14474612474441528 0.22982338070869446 -0.9624083042144775
 outer loop
  vertex 772500.0 5644500.0 5793.60009765625
  vertex 773500.0 5644500.0 5643.2001953125
  vertex 773500.0 5643500.0 5404.39990234375
 endloop
endfacet
facet normal 0.466342955827713 0.20546649396419525 -0.8604113459587097
 outer loop
  vertex 773500.0 5644500.0 5643.2001953125
  vertex 774500.0 5643500.0 5946.39990234375
  vertex 773500.0 5643500.0 5404.39990234375
 endloop
endfacet
facet normal 0.2841736078262329 -0.006519325077533722 -0.9587507247924805
 outer loop
  vertex 773500.0 5644500.0 5643.2001953125
  vertex 774500.0 5644500.0 5939.60009765625
  vertex 774500.0 5643500.0 5946.39990234375
 endloop
endfacet
facet normal 0.08439605683088303 -0.006775388494133949 -0.9964092373847961
 outer loop
  vertex 774500.0 5644500.0 5939.60009765625
  vertex 775500.0 5643500.0 6031.10009765625
  vertex 774500.0 5643500.0 5946.39990234375
 endloop
endfacet
facet normal -0.2165345549583435 -0.13032692670822144 -0.9675369262695312
 outer loop
  vertex 777500.0 5644500.0 5973.60009765625
  vertex 778500.0 5643500.0 5884.5
  vertex 777500.0 5643500.0 6108.2998046875
 endloop
endfacet
facet normal -0.20690426230430603 -0.12039472907781601 -0.9709252119064331
 outer loop
  vertex 777500.0 5644500.0 5973.60009765625
  vertex 778500.0 5644500.0 5760.5
  vertex 778500.0 5643500.0 5884.5
 endloop
endfacet
facet normal 0.06979355961084366 -0.12275746464729309 -0.9899795651435852
 outer loop
  vertex 778500.0 5644500.0 5760.5
  vertex 779500.0 5643500.0 5955.0
  vertex 778500.0 5643500.0 5884.5
 endloop
endfacet
facet normal -0.12664374709129333 -0.30991923809051514 -0.9422904849052429
 outer loop
  vertex 778500.0 5644500.0 5760.5
  vertex 779500.0 5644500.0 5626.10009765625
  vertex 779500.0 5643500.0 5955.0
 endloop
endfacet
facet normal -0.16267909109592438 -0.12430974841117859 -0.9788169264793396
 outer loop
  vertex 771500.0 5645500.0 5832.7998046875
  vertex 772500.0 5644500.0 5793.60009765625
  vertex 771500.0 5644500.0 5959.7998046875
 endloop
endfacet
facet normal 0.06451529264450073 0.10342267900705338 -0.9925429821014404
 outer loop
  vertex 771500.0 5645500.0 5832.7998046875
  vertex 772500.0 5645500.0 5897.7998046875
  vertex 772500.0 5644500.0 5793.60009765625
 endloop
endfacet
facet normal -0.1479438841342926 0.1024981290102005 -0.9836700558662415
 outer loop
  vertex 772500.0 5645500.0 5897.7998046875
  vertex 773500.0 5644500.0 5643.2001953125
  vertex 772500.0 5644500.0 5793.60009765625
 endloop
endfacet
facet normal -0.45583853125572205 -0.23744119703769684 -0.8578070402145386
 outer loop
  vertex 772500.0 5645500.0 5897.7998046875
  vertex 773500.0 5645500.0 5366.39990234375
  vertex 773500.0 5644500.0 5643.2001953125
 endloop
endfacet
facet normal 0.2746715247631073 -0.2565087080001831 -0.9266923666000366
 outer loop
  vertex 773500.0 5645500.0 5366.39990234375
  vertex 774500.0 5644500.0 5939.60009765625
  vertex 773500.0 5644500.0 5643.2001953125
 endloop
endfacet
endsolid
