solid
facet normal -0.13715989887714386 0.2394290268421173 -0.961176872253418
 outer loop
  vertex 354500.0 5708500.0 3400.39990234375
  vertex 355500.0 5707500.0 3008.60009765625
  vertex 354500.0 5707500.0 3151.300048828125
 endloop
endfacet
facet normal -0.008779519237577915 0.3571619391441345 -0.9340011477470398
 outer loop
  vertex 354500.0 5708500.0 3400.39990234375
  vertex 355500.0 5708500.0 3391.0
  vertex 355500.0 5707500.0 3008.60009765625
 endloop
endfacet
facet normal 0.02091776765882969 0.3570975661277771 -0.9338328242301941
 outer loop
  vertex 355500.0 5708500.0 3391.0
  vertex 356500.0 5707500.0 3031.0
  vertex 355500.0 5707500.0 3008.60009765625
 endloop
endfacet
facet normal -0.3232106864452362 0.01740938238799572 -0.9461668729782104
 outer loop
  vertex 355500.0 5708500.0 3391.0
  vertex 356500.0 5708500.0 3049.39990234375
  vertex 356500.0 5707500.0 3031.0
 endloop
endfacet
facet normal -0.05431042239069939 0.018369637429714203 -0.9983551502227783
 outer loop
  vertex 356500.0 5708500.0 3049.39990234375
  vertex 357500.0 5707500.0 2976.60009765625
  vertex 356500.0 5707500.0 3031.0
 endloop
endfacet
facet normal -0.10035096108913422 -0.02794722281396389 -0.9945595264434814
 outer loop
  vertex 356500.0 5708500.0 3049.39990234375
  vertex 357500.0 5708500.0 2948.5
  vertex 357500.0 5707500.0 2976.60009765625
 endloop
endfacet
facet normal 0.012693914584815502 -0.028086746111512184 -0.9995248317718506
 outer loop
  vertex 357500.0 5708500.0 2948.5
  vertex 358500.0 5707500.0 2989.300048828125
  vertex 357500.0 5707500.0 2976.60009765625
 endloop
endfacet
facet normal 0.22945940494537354 0.1905161589384079 -0.9544904232025146
 outer loop
  vertex 357500.0 5708500.0 2948.5
  vertex 358500.0 5708500.0 3188.89990234375
  vertex 358500.0 5707500.0 2989.300048828125
 endloop
endfacet
facet normal -0.0787569209933281 -0.08630471676588058 -0.9931510090827942
 outer loop
  vertex 353500.0 5709500.0 3392.800048828125
  vertex 354500.0 5709500.0 3313.5
  vertex 354500.0 5708500.0 3400.39990234375
 endloop
endfacet
facet normal -0.009364203549921513 -0.08656984567642212 -0.9962018132209778
 outer loop
  vertex 354500.0 5709500.0 3313.5
  vertex 355500.0 5708500.0 3391.0
  vertex 354500.0 5708500.0 3400.39990234375
 endloop
endfacet
facet normal -0.0871666669845581 -0.16332697868347168 -0.9827137589454651
 outer loop
  vertex 354500.0 5709500.0 3313.5
  vertex 355500.0 5709500.0 3224.800048828125
  vertex 355500.0 5708500.0 3391.0
 endloop
endfacet
facet normal -0.3193342685699463 -0.15536688268184662 -0.9348190426826477
 outer loop
  vertex 355500.0 5709500.0 3224.800048828125
  vertex 356500.0 5708500.0 3049.39990234375
  vertex 355500.0 5708500.0 3391.0
 endloop
endfacet
facet normal -0.11473165452480316 0.059200555086135864 -0.9916309714317322
 outer loop
  vertex 355500.0 5709500.0 3224.800048828125
  vertex 356500.0 5709500.0 3109.10009765625
  vertex 356500.0 5708500.0 3049.39990234375
 endloop
endfacet
facet normal -0.10021353513002396 0.059294089674949646 -0.9931975603103638
 outer loop
  vertex 356500.0 5709500.0 3109.10009765625
  vertex 357500.0 5708500.0 2948.5
  vertex 356500.0 5708500.0 3049.39990234375
 endloop
endfacet
facet normal -0.09239135682582855 0.06715767830610275 -0.9934554100036621
 outer loop
  vertex 356500.0 5709500.0 3109.10009765625
  vertex 357500.0 5709500.0 3016.10009765625
  vertex 357500.0 5708500.0 2948.5
 endloop
endfacet
facet normal 0.23323732614517212 0.06558598577976227 -0.970205545425415
 outer loop
  vertex 357500.0 5709500.0 3016.10009765625
  vertex 358500.0 5708500.0 3188.89990234375
  vertex 357500.0 5708500.0 2948.5
 endloop
endfacet
facet normal 0.30402758717536926 0.14122647047042847 -0.9421371221542358
 outer loop
  vertex 357500.0 5709500.0 3016.10009765625
  vertex 358500.0 5709500.0 3338.800048828125
  vertex 358500.0 5708500.0 3188.89990234375
 endloop
endfacet
facet normal -0.2162817269563675 0.14473508298397064 -0.9655433893203735
 outer loop
  vertex 358500.0 5709500.0 3338.800048828125
  vertex 359500.0 5708500.0 2964.89990234375
  vertex 358500.0 5708500.0 3188.89990234375
 endloop
endfacet
facet normal -0.3672278821468353 -0.01952844299376011 -0.9299259185791016
 outer loop
  vertex 358500.0 5709500.0 3338.800048828125
  vertex 359500.0 5709500.0 2943.89990234375
  vertex 359500.0 5708500.0 2964.89990234375
 endloop
endfacet
facet normal -0.07899492233991623 -0.03795349597930908 -0.9961522221565247
 outer loop
  vertex 353500.0 5710500.0 3354.699951171875
  vertex 354500.0 5709500.0 3313.5
  vertex 353500.0 5709500.0 3392.800048828125
 endloop
endfacet
facet normal -0.21316011250019073 -0.17354716360569 -0.9614801406860352
 outer loop
  vertex 353500.0 5710500.0 3354.699951171875
  vertex 354500.0 5710500.0 3133.0
  vertex 354500.0 5709500.0 3313.5
 endloop
endfacet
facet normal -0.08695873618125916 -0.17695671319961548 -0.9803695678710938
 outer loop
  vertex 354500.0 5710500.0 3133.0
  vertex 355500.0 5709500.0 3224.800048828125
  vertex 354500.0 5709500.0 3313.5
 endloop
endfacet
facet normal -0.04797429218888283 -0.13877928256988525 -0.9891606569290161
 outer loop
  vertex 354500.0 5710500.0 3133.0
  vertex 355500.0 5710500.0 3084.5
  vertex 355500.0 5709500.0 3224.800048828125
 endloop
endfacet
facet normal -0.1138330027461052 -0.13803614675998688 -0.9838638305664062
 outer loop
  vertex 355500.0 5710500.0 3084.5
  vertex 356500.0 5709500.0 3109.10009765625
  vertex 355500.0 5709500.0 3224.800048828125
 endloop
endfacet
facet normal 0.03607421740889549 0.011491755023598671 -0.9992830753326416
 outer loop
  vertex 355500.0 5710500.0 3084.5
  vertex 356500.0 5710500.0 3120.60009765625
  vertex 356500.0 5709500.0 3109.10009765625
 endloop
endfacet
facet normal -0.09259434789419174 0.011449838057160378 -0.9956381320953369
 outer loop
  vertex 356500.0 5710500.0 3120.60009765625
  vertex 357500.0 5709500.0 3016.10009765625
  vertex 356500.0 5709500.0 3109.10009765625
 endloop
endfacet
facet normal 0.05042802542448044 0.15355411171913147 -0.9868526458740234
 outer loop
  vertex 356500.0 5710500.0 3120.60009765625
  vertex 357500.0 5710500.0 3171.699951171875
  vertex 357500.0 5709500.0 3016.10009765625
 endloop
endfacet
facet normal 0.30379289388656616 0.14648324251174927 -0.9414098262786865
 outer loop
  vertex 357500.0 5710500.0 3171.699951171875
  vertex 358500.0 5709500.0 3338.800048828125
  vertex 357500.0 5709500.0 3016.10009765625
 endloop
endfacet
facet normal -0.041850555688142776 -0.20524364709854126 -0.9778156876564026
 outer loop
  vertex 357500.0 5710500.0 3171.699951171875
  vertex 358500.0 5710500.0 3128.89990234375
  vertex 358500.0 5709500.0 3338.800048828125
 endloop
endfacet
facet normal -0.3604922294616699 -0.1916114091873169 -0.9128693342208862
 outer loop
  vertex 358500.0 5710500.0 3128.89990234375
  vertex 359500.0 5709500.0 2943.89990234375
  vertex 358500.0 5709500.0 3338.800048828125
 endloop
endfacet
facet normal -0.10449239611625671 0.07891472429037094 -0.9913898706436157
 outer loop
  vertex 358500.0 5710500.0 3128.89990234375
  vertex 359500.0 5710500.0 3023.5
  vertex 359500.0 5709500.0 2943.89990234375
 endloop
endfacet
facet normal -0.06626635044813156 -0.051219310611486435 -0.996486485004425
 outer loop
  vertex 352500.0 5711500.0 3369.800048828125
  vertex 353500.0 5711500.0 3303.300048828125
  vertex 353500.0 5710500.0 3354.699951171875
 endloop
endfacet
facet normal -0.21617253124713898 -0.050118401646614075 -0.9750679731369019
 outer loop
  vertex 353500.0 5711500.0 3303.300048828125
  vertex 354500.0 5710500.0 3133.0
  vertex 353500.0 5710500.0 3354.699951171875
 endloop
endfacet
facet normal -0.15962080657482147 0.008489512838423252 -0.9871419072151184
 outer loop
  vertex 353500.0 5711500.0 3303.300048828125
  vertex 354500.0 5711500.0 3141.60009765625
  vertex 354500.0 5710500.0 3133.0
 endloop
endfacet
facet normal -0.04844127222895622 0.008589684031903744 -0.9987890720367432
 outer loop
  vertex 354500.0 5711500.0 3141.60009765625
  vertex 355500.0 5710500.0 3084.5
  vertex 354500.0 5710500.0 3133.0
 endloop
endfacet
facet normal -0.028377024456858635 0.028676584362983704 -0.9991858601570129
 outer loop
  vertex 354500.0 5711500.0 3141.60009765625
  vertex 355500.0 5711500.0 3113.199951171875
  vertex 355500.0 5710500.0 3084.5
 endloop
endfacet
facet normal 0.03606176748871803 0.028669478371739388 -0.998938262462616
 outer loop
  vertex 355500.0 5711500.0 3113.199951171875
  vertex 356500.0 5710500.0 3120.60009765625
  vertex 355500.0 5710500.0 3084.5
 endloop
endfacet
facet normal -0.03156011924147606 -0.03895096108317375 -0.9987425804138184
 outer loop
  vertex 355500.0 5711500.0 3113.199951171875
  vertex 356500.0 5711500.0 3081.60009765625
  vertex 356500.0 5710500.0 3120.60009765625
 endloop
endfacet
facet normal 0.05099460110068321 -0.03891967236995697 -0.9979403018951416
 outer loop
  vertex 356500.0 5711500.0 3081.60009765625
  vertex 357500.0 5710500.0 3171.699951171875
  vertex 356500.0 5710500.0 3120.60009765625
 endloop
endfacet
facet normal 0.03452608734369278 -0.05538168177008629 -0.9978681206703186
 outer loop
  vertex 356500.0 5711500.0 3081.60009765625
  vertex 357500.0 5711500.0 3116.199951171875
  vertex 357500.0 5710500.0 3171.699951171875
 endloop
endfacet
facet normal -0.042695313692092896 -0.05536418780684471 -0.9975529313087463
 outer loop
  vertex 357500.0 5711500.0 3116.199951171875
  vertex 358500.0 5710500.0 3128.89990234375
  vertex 357500.0 5710500.0 3171.699951171875
 endloop
endfacet
facet normal -0.007198339328169823 -0.01989544741809368 -0.9997761249542236
 outer loop
  vertex 357500.0 5711500.0 3116.199951171875
  vertex 358500.0 5711500.0 3109.0
  vertex 358500.0 5710500.0 3128.89990234375
 endloop
endfacet
facet normal -0.10479876399040222 -0.019786404445767403 -0.9942966103553772
 outer loop
  vertex 358500.0 5711500.0 3109.0
  vertex 359500.0 5710500.0 3023.5
  vertex 358500.0 5710500.0 3128.89990234375
 endloop
endfacet
facet normal -0.09042677283287048 -0.005278259050101042 -0.9958890676498413
 outer loop
  vertex 358500.0 5711500.0 3109.0
  vertex 359500.0 5711500.0 3018.199951171875
  vertex 359500.0 5710500.0 3023.5
 endloop
endfacet
facet normal -0.022493992000818253 -0.005298633594065905 -0.9997329711914062
 outer loop
  vertex 359500.0 5711500.0 3018.199951171875
  vertex 360500.0 5710500.0 3001.0
  vertex 359500.0 5710500.0 3023.5
 endloop
endfacet
facet normal -0.06263162940740585 0.3302050828933716 -0.9418289661407471
 outer loop
  vertex 352500.0 5712500.0 3720.39990234375
  vertex 353500.0 5711500.0 3303.300048828125
  vertex 352500.0 5711500.0 3369.800048828125
 endloop
endfacet
facet normal -0.33933451771736145 0.052407655864953995 -0.9392048120498657
 outer loop
  vertex 352500.0 5712500.0 3720.39990234375
  vertex 353500.0 5712500.0 3359.10009765625
  vertex 353500.0 5711500.0 3303.300048828125
 endloop
endfacet
facet normal -0.15938492119312286 0.05500116944313049 -0.9856832027435303
 outer loop
  vertex 353500.0 5712500.0 3359.10009765625
  vertex 354500.0 5711500.0 3141.60009765625
  vertex 353500.0 5711500.0 3303.300048828125
 endloop
endfacet
facet normal -0.14567023515701294 0.0689859688282013 -0.9869250655174255
 outer loop
  vertex 353500.0 5712500.0 3359.10009765625
  vertex 354500.0 5712500.0 3211.5
  vertex 354500.0 5711500.0 3141.60009765625
 endloop
endfacet
facet normal -0.028319649398326874 0.06970179826021194 -0.9971657991409302
 outer loop
  vertex 354500.0 5712500.0 3211.5
  vertex 355500.0 5711500.0 3113.199951171875
  vertex 354500.0 5711500.0 3141.60009765625
 endloop
endfacet
facet normal -0.1552213430404663 -0.05828185752034187 -0.9861590266227722
 outer loop
  vertex 354500.0 5712500.0 3211.5
  vertex 355500.0 5712500.0 3054.10009765625
  vertex 355500.0 5711500.0 3113.199951171875
 endloop
endfacet
facet normal -0.031529128551483154 -0.058967579156160355 -0.9977619051933289
 outer loop
  vertex 355500.0 5712500.0 3054.10009765625
  vertex 356500.0 5711500.0 3081.60009765625
  vertex 355500.0 5711500.0 3113.199951171875
 endloop
endfacet
facet normal 0.03218291699886322 0.004697464872151613 -0.9994709491729736
 outer loop
  vertex 355500.0 5712500.0 3054.10009765625
  vertex 356500.0 5712500.0 3086.300048828125
  vertex 356500.0 5711500.0 3081.60009765625
 endloop
endfacet
facet normal 0.034578777849674225 0.004697088617831469 -0.9993909597396851
 outer loop
  vertex 356500.0 5712500.0 3086.300048828125
  vertex 357500.0 5711500.0 3116.199951171875
  vertex 356500.0 5711500.0 3081.60009765625
 endloop
endfacet
facet normal 0.06779436022043228 0.037984881550073624 -0.9969758987426758
 outer loop
  vertex 356500.0 5712500.0 3086.300048828125
  vertex 357500.0 5712500.0 3154.300048828125
  vertex 357500.0 5711500.0 3116.199951171875
 endloop
endfacet
facet normal -0.007194542791694403 0.038071490824222565 -0.9992491006851196
 outer loop
  vertex 357500.0 5712500.0 3154.300048828125
  vertex 358500.0 5711500.0 3109.0
  vertex 357500.0 5711500.0 3116.199951171875
 endloop
endfacet
facet normal 0.06867276877164841 -0.4151211380958557 -0.9071705937385559
 outer loop
  vertex 351500.0 5713500.0 3187.10009765625
  vertex 352500.0 5713500.0 3262.800048828125
  vertex 352500.0 5712500.0 3720.39990234375
 endloop
endfacet
facet normal -0.31212306022644043 -0.39531564712524414 -0.8638893961906433
 outer loop
  vertex 352500.0 5713500.0 3262.800048828125
  vertex 353500.0 5712500.0 3359.10009765625
  vertex 352500.0 5712500.0 3720.39990234375
 endloop
endfacet
facet normal -0.09604395925998688 -0.19013382494449615 -0.9770489931106567
 outer loop
  vertex 352500.0 5713500.0 3262.800048828125
  vertex 353500.0 5713500.0 3164.5
  vertex 353500.0 5712500.0 3359.10009765625
 endloop
endfacet
facet normal -0.14338521659374237 -0.1890430897474289 -0.9714439511299133
 outer loop
  vertex 353500.0 5713500.0 3164.5
  vertex 354500.0 5712500.0 3211.5
  vertex 353500.0 5712500.0 3359.10009765625
 endloop
endfacet
facet normal -0.002097566146403551 -0.049040909856557846 -0.9987945556640625
 outer loop
  vertex 353500.0 5713500.0 3164.5
  vertex 354500.0 5713500.0 3162.39990234375
  vertex 354500.0 5712500.0 3211.5
 endloop
endfacet
facet normal -0.15530306100845337 -0.04844599962234497 -0.9866782426834106
 outer loop
  vertex 354500.0 5713500.0 3162.39990234375
  vertex 355500.0 5712500.0 3054.10009765625
  vertex 354500.0 5712500.0 3211.5
 endloop
endfacet
facet normal -0.06360766291618347 0.044365979731082916 -0.9969883561134338
 outer loop
  vertex 354500.0 5713500.0 3162.39990234375
  vertex 355500.0 5713500.0 3098.60009765625
  vertex 355500.0 5712500.0 3054.10009765625
 endloop
endfacet
facet normal 0.0321514867246151 0.044433023780584335 -0.9984949231147766
 outer loop
  vertex 355500.0 5713500.0 3098.60009765625
  vertex 356500.0 5712500.0 3086.300048828125
  vertex 355500.0 5712500.0 3054.10009765625
 endloop
endfacet
facet normal -0.09757067263126373 -0.07255770266056061 -0.9925801753997803
 outer loop
  vertex 352500.0 5714500.0 3189.699951171875
  vertex 353500.0 5713500.0 3164.5
  vertex 352500.0 5713500.0 3262.800048828125
 endloop
endfacet
facet normal -0.0021993641275912523 0.022993862628936768 -0.9997332096099854
 outer loop
  vertex 352500.0 5714500.0 3189.699951171875
  vertex 353500.0 5714500.0 3187.5
  vertex 353500.0 5713500.0 3164.5
 endloop
endfacet
facet normal -0.002099537756294012 0.022993868216872215 -0.9997333884239197
 outer loop
  vertex 353500.0 5714500.0 3187.5
  vertex 354500.0 5713500.0 3162.39990234375
  vertex 353500.0 5713500.0 3164.5
 endloop
endfacet
facet normal -0.028088882565498352 -0.002998802810907364 -0.999600887298584
 outer loop
  vertex 353500.0 5714500.0 3187.5
  vertex 354500.0 5714500.0 3159.39990234375
  vertex 354500.0 5713500.0 3162.39990234375
 endloop
endfacet
facet normal -0.0636700689792633 -0.002993899630382657 -0.9979665279388428
 outer loop
  vertex 354500.0 5714500.0 3159.39990234375
  vertex 355500.0 5713500.0 3098.60009765625
  vertex 354500.0 5713500.0 3162.39990234375
 endloop
endfacet
facet normal -0.060986120253801346 -0.000299488368909806 -0.9981386065483093
 outer loop
  vertex 354500.0 5714500.0 3159.39990234375
  vertex 355500.0 5714500.0 3098.300048828125
  vertex 355500.0 5713500.0 3098.60009765625
 endloop
endfacet
facet normal 0.07907237112522125 0.10909611731767654 -0.9908812046051025
 outer loop
  vertex 351500.0 5715500.0 3220.0
  vertex 352500.0 5715500.0 3299.800048828125
  vertex 352500.0 5714500.0 3189.699951171875
 endloop
endfacet
facet normal -0.0021867339964956045 0.10943852365016937 -0.9939911961555481
 outer loop
  vertex 352500.0 5715500.0 3299.800048828125
  vertex 353500.0 5714500.0 3187.5
  vertex 352500.0 5714500.0 3189.699951171875
 endloop
endfacet
facet normal 0.006355158984661102 0.11787009239196777 -0.9930087327957153
 outer loop
  vertex 352500.0 5715500.0 3299.800048828125
  vertex 353500.0 5715500.0 3306.199951171875
  vertex 353500.0 5714500.0 3187.5
 endloop
endfacet
facet normal -0.027893343940377235 0.11782660335302353 -0.992642343044281
 outer loop
  vertex 353500.0 5715500.0 3306.199951171875
  vertex 354500.0 5714500.0 3159.39990234375
  vertex 353500.0 5714500.0 3187.5
 endloop
endfacet
facet normal -0.20105426013469696 -0.05749981105327606 -0.9778910279273987
 outer loop
  vertex 353500.0 5715500.0 3306.199951171875
  vertex 354500.0 5715500.0 3100.60009765625
  vertex 354500.0 5714500.0 3159.39990234375
 endloop
endfacet
facet normal -0.060881357640028 -0.05858953297138214 -0.9964239597320557
 outer loop
  vertex 354500.0 5715500.0 3100.60009765625
  vertex 355500.0 5714500.0 3098.300048828125
  vertex 354500.0 5714500.0 3159.39990234375
 endloop
endfacet
facet normal -0.019293667748570442 -0.016994379460811615 -0.9996694326400757
 outer loop
  vertex 354500.0 5715500.0 3100.60009765625
  vertex 355500.0 5715500.0 3081.300048828125
  vertex 355500.0 5714500.0 3098.300048828125
 endloop
endfacet
facet normal -0.011402275413274765 -0.1295892894268036 -0.9915022253990173
 outer loop
  vertex 350500.0 5716500.0 3100.800048828125
  vertex 351500.0 5715500.0 3220.0
  vertex 350500.0 5715500.0 3231.5
 endloop
endfacet
facet normal 0.07928711175918579 -0.039444517344236374 -0.9960711002349854
 outer loop
  vertex 350500.0 5716500.0 3100.800048828125
  vertex 351500.0 5716500.0 3180.39990234375
  vertex 351500.0 5715500.0 3220.0
 endloop
endfacet
facet normal 0.07948526740074158 -0.03944389149546623 -0.9960553646087646
 outer loop
  vertex 351500.0 5716500.0 3180.39990234375
  vertex 352500.0 5715500.0 3299.800048828125
  vertex 351500.0 5715500.0 3220.0
 endloop
endfacet
facet normal 0.08821287006139755 -0.03066544234752655 -0.9956294894218445
 outer loop
  vertex 351500.0 5716500.0 3180.39990234375
  vertex 352500.0 5716500.0 3269.0
  vertex 352500.0 5715500.0 3299.800048828125
 endloop
endfacet
facet normal 0.0063967397436499596 -0.030784819275140762 -0.9995055794715881
 outer loop
  vertex 352500.0 5716500.0 3269.0
  vertex 353500.0 5715500.0 3306.199951171875
  vertex 352500.0 5715500.0 3299.800048828125
 endloop
endfacet
facet normal -0.02026241272687912 -0.0573933944106102 -0.9981459975242615
 outer loop
  vertex 352500.0 5716500.0 3269.0
  vertex 353500.0 5716500.0 3248.699951171875
  vertex 353500.0 5715500.0 3306.199951171875
 endloop
endfacet
facet normal -0.20106880366802216 -0.05623280256986618 -0.9779617786407471
 outer loop
  vertex 353500.0 5716500.0 3248.699951171875
  vertex 354500.0 5715500.0 3100.60009765625
  vertex 353500.0 5715500.0 3306.199951171875
 endloop
endfacet
facet normal -0.17744456231594086 -0.03177090361714363 -0.9836178421974182
 outer loop
  vertex 353500.0 5716500.0 3248.699951171875
  vertex 354500.0 5716500.0 3068.300048828125
  vertex 354500.0 5715500.0 3100.60009765625
 endloop
endfacet
facet normal -0.019286401569843292 -0.03227720782160759 -0.9992928504943848
 outer loop
  vertex 354500.0 5716500.0 3068.300048828125
  vertex 355500.0 5715500.0 3081.300048828125
  vertex 354500.0 5715500.0 3100.60009765625
 endloop
endfacet
facet normal 0.08251503854990005 0.0695909932255745 -0.994157075881958
 outer loop
  vertex 354500.0 5716500.0 3068.300048828125
  vertex 355500.0 5716500.0 3151.300048828125
  vertex 355500.0 5715500.0 3081.300048828125
 endloop
endfacet
facet normal 0.0882234126329422 -0.02648676373064518 -0.9957484602928162
 outer loop
  vertex 351500.0 5717500.0 3153.800048828125
  vertex 352500.0 5716500.0 3269.0
  vertex 351500.0 5716500.0 3180.39990234375
 endloop
endfacet
facet normal 0.15391479432582855 0.040181711316108704 -0.9872667789459229
 outer loop
  vertex 351500.0 5717500.0 3153.800048828125
  vertex 352500.0 5717500.0 3309.699951171875
  vertex 352500.0 5716500.0 3269.0
 endloop
endfacet
facet normal -0.020279083400964737 0.04065792262554169 -0.9989672899246216
 outer loop
  vertex 352500.0 5717500.0 3309.699951171875
  vertex 353500.0 5716500.0 3248.699951171875
  vertex 352500.0 5716500.0 3269.0
 endloop
endfacet
facet normal -0.059593796730041504 0.0012977352598682046 -0.9982218742370605
 outer loop
  vertex 352500.0 5717500.0 3309.699951171875
  vertex 353500.0 5717500.0 3250.0
  vertex 353500.0 5716500.0 3248.699951171875
 endloop
endfacet
facet normal -0.1775340437889099 0.001279396004974842 -0.9841138124465942
 outer loop
  vertex 353500.0 5717500.0 3250.0
  vertex 354500.0 5716500.0 3068.300048828125
  vertex 353500.0 5716500.0 3248.699951171875
 endloop
endfacet
facet normal -0.0842047929763794 0.09600749611854553 -0.991812527179718
 outer loop
  vertex 353500.0 5717500.0 3250.0
  vertex 354500.0 5717500.0 3165.10009765625
  vertex 354500.0 5716500.0 3068.300048828125
 endloop
endfacet
facet normal 0.08233336359262466 0.09602256864309311 -0.9919682145118713
 outer loop
  vertex 354500.0 5717500.0 3165.10009765625
  vertex 355500.0 5716500.0 3151.300048828125
  vertex 354500.0 5716500.0 3068.300048828125
 endloop
endfacet
facet normal 0.025970669463276863 0.03975514695048332 -0.998871922492981
 outer loop
  vertex 354500.0 5717500.0 3165.10009765625
  vertex 355500.0 5717500.0 3191.10009765625
  vertex 355500.0 5716500.0 3151.300048828125
 endloop
endfacet
facet normal 0.15366998314857483 0.06919584423303604 -0.9856964349746704
 outer loop
  vertex 351500.0 5718500.0 3224.0
  vertex 352500.0 5717500.0 3309.699951171875
  vertex 351500.0 5717500.0 3153.800048828125
 endloop
endfacet
facet normal 0.004883926827460527 -0.0805366113781929 -0.9967396855354309
 outer loop
  vertex 351500.0 5718500.0 3224.0
  vertex 352500.0 5718500.0 3228.89990234375
  vertex 352500.0 5717500.0 3309.699951171875
 endloop
endfacet
facet normal -0.05940094217658043 -0.08039536327123642 -0.9949915409088135
 outer loop
  vertex 352500.0 5718500.0 3228.89990234375
  vertex 353500.0 5717500.0 3250.0
  vertex 352500.0 5717500.0 3309.699951171875
 endloop
endfacet
facet normal 0.07399174571037292 0.05297920107841492 -0.9958506226539612
 outer loop
  vertex 352500.0 5718500.0 3228.89990234375
  vertex 353500.0 5718500.0 3303.199951171875
  vertex 353500.0 5717500.0 3250.0
 endloop
endfacet
facet normal -0.08447697013616562 0.052934929728507996 -0.9950183629989624
 outer loop
  vertex 353500.0 5718500.0 3303.199951171875
  vertex 354500.0 5717500.0 3165.10009765625
  vertex 353500.0 5717500.0 3250.0
 endloop
endfacet
facet normal 0.03808128461241722 0.1739734411239624 -0.9840137362480164
 outer loop
  vertex 353500.0 5718500.0 3303.199951171875
  vertex 354500.0 5718500.0 3341.89990234375
  vertex 354500.0 5717500.0 3165.10009765625
 endloop
endfacet
facet normal 0.025594541803002357 0.1740426868200302 -0.9844053983688354
 outer loop
  vertex 354500.0 5718500.0 3341.89990234375
  vertex 355500.0 5717500.0 3191.10009765625
  vertex 354500.0 5717500.0 3165.10009765625
 endloop
endfacet
facet normal -0.11387959867715836 0.03584166616201401 -0.9928478598594666
 outer loop
  vertex 354500.0 5718500.0 3341.89990234375
  vertex 355500.0 5718500.0 3227.199951171875
  vertex 355500.0 5717500.0 3191.10009765625
 endloop
endfacet
facet normal -0.037150315940380096 0.03605144843459129 -0.9986591935157776
 outer loop
  vertex 355500.0 5718500.0 3227.199951171875
  vertex 356500.0 5717500.0 3153.89990234375
  vertex 355500.0 5717500.0 3191.10009765625
 endloop
endfacet
facet normal -0.09868265688419342 -0.025764847174286842 -0.9947853088378906
 outer loop
  vertex 355500.0 5718500.0 3227.199951171875
  vertex 356500.0 5718500.0 3128.0
  vertex 356500.0 5717500.0 3153.89990234375
 endloop
endfacet
facet normal 0.07307954132556915 -0.02582198940217495 -0.996991753578186
 outer loop
  vertex 356500.0 5718500.0 3128.0
  vertex 357500.0 5717500.0 3227.199951171875
  vertex 356500.0 5717500.0 3153.89990234375
 endloop
endfacet
facet normal 0.20677556097507477 0.11033865064382553 -0.97214674949646
 outer loop
  vertex 356500.0 5718500.0 3128.0
  vertex 357500.0 5718500.0 3340.699951171875
  vertex 357500.0 5717500.0 3227.199951171875
 endloop
endfacet
facet normal 0.00488630635663867 0.07429322600364685 -0.9972244501113892
 outer loop
  vertex 351500.0 5719500.0 3298.5
  vertex 352500.0 5718500.0 3228.89990234375
  vertex 351500.0 5718500.0 3224.0
 endloop
endfacet
facet normal 0.039631664752960205 0.10876385867595673 -0.9932772517204285
 outer loop
  vertex 351500.0 5719500.0 3298.5
  vertex 352500.0 5719500.0 3338.39990234375
  vertex 352500.0 5718500.0 3228.89990234375
 endloop
endfacet
facet normal 0.07365794479846954 0.1085537001490593 -0.9913579821586609
 outer loop
  vertex 352500.0 5719500.0 3338.39990234375
  vertex 353500.0 5718500.0 3303.199951171875
  vertex 352500.0 5718500.0 3228.89990234375
 endloop
endfacet
facet normal 0.03191173076629639 0.06701458990573883 -0.9972415566444397
 outer loop
  vertex 352500.0 5719500.0 3338.39990234375
  vertex 353500.0 5719500.0 3370.39990234375
  vertex 353500.0 5718500.0 3303.199951171875
 endloop
endfacet
facet normal 0.038584113121032715 0.06699880957603455 -0.9970067143440247
 outer loop
  vertex 353500.0 5719500.0 3370.39990234375
  vertex 354500.0 5718500.0 3341.89990234375
  vertex 353500.0 5718500.0 3303.199951171875
 endloop
endfacet
facet normal -0.05211438611149788 -0.02366110496222973 -0.998360812664032
 outer loop
  vertex 353500.0 5719500.0 3370.39990234375
  vertex 354500.0 5719500.0 3318.199951171875
  vertex 354500.0 5718500.0 3341.89990234375
 endloop
endfacet
facet normal -0.11392123997211456 -0.023539047688245773 -0.9932108521461487
 outer loop
  vertex 354500.0 5719500.0 3318.199951171875
  vertex 355500.0 5718500.0 3227.199951171875
  vertex 354500.0 5718500.0 3341.89990234375
 endloop
endfacet
facet normal -0.12435299903154373 -0.03411271795630455 -0.9916514754295349
 outer loop
  vertex 354500.0 5719500.0 3318.199951171875
  vertex 355500.0 5719500.0 3192.800048828125
  vertex 355500.0 5718500.0 3227.199951171875
 endloop
endfacet
facet normal -0.09865764528512955 -0.03421184420585632 -0.9945331811904907
 outer loop
  vertex 355500.0 5719500.0 3192.800048828125
  vertex 356500.0 5718500.0 3128.0
  vertex 355500.0 5718500.0 3227.199951171875
 endloop
endfacet
facet normal -0.09354791790246964 -0.02905951999127865 -0.9951906204223633
 outer loop
  vertex 355500.0 5719500.0 3192.800048828125
  vertex 356500.0 5719500.0 3098.800048828125
  vertex 356500.0 5718500.0 3128.0
 endloop
endfacet
facet normal 0.2079610824584961 -0.02854938805103302 -0.9777203798294067
 outer loop
  vertex 356500.0 5719500.0 3098.800048828125
  vertex 357500.0 5718500.0 3340.699951171875
  vertex 356500.0 5718500.0 3128.0
 endloop
endfacet
facet normal 0.09456853568553925 -0.14372438192367554 -0.9850888848304749
 outer loop
  vertex 356500.0 5719500.0 3098.800048828125
  vertex 357500.0 5719500.0 3194.800048828125
  vertex 357500.0 5718500.0 3340.699951171875
 endloop
endfacet
facet normal -0.04014213755726814 -0.14425502717494965 -0.988726019859314
 outer loop
  vertex 357500.0 5719500.0 3194.800048828125
  vertex 358500.0 5718500.0 3300.10009765625
  vertex 357500.0 5718500.0 3340.699951171875
 endloop
endfacet
facet normal 0.020023280754685402 -0.08487561345100403 -0.9961903691291809
 outer loop
  vertex 357500.0 5719500.0 3194.800048828125
  vertex 358500.0 5719500.0 3214.89990234375
  vertex 358500.0 5718500.0 3300.10009765625
 endloop
endfacet
facet normal 0.03198041021823883 -0.01419125683605671 -0.9993877410888672
 outer loop
  vertex 352500.0 5720500.0 3324.199951171875
  vertex 353500.0 5719500.0 3370.39990234375
  vertex 352500.0 5719500.0 3338.39990234375
 endloop
endfacet
facet normal -0.09683238714933395 -0.14234255254268646 -0.9850696325302124
 outer loop
  vertex 352500.0 5720500.0 3324.199951171875
  vertex 353500.0 5720500.0 3225.89990234375
  vertex 353500.0 5719500.0 3370.39990234375
 endloop
endfacet
facet normal -0.051594559103250504 -0.14282414317131042 -0.9884023666381836
 outer loop
  vertex 353500.0 5720500.0 3225.89990234375
  vertex 354500.0 5719500.0 3318.199951171875
  vertex 353500.0 5719500.0 3370.39990234375
 endloop
endfacet
facet normal 0.010863572359085083 -0.08112677186727524 -0.9966446161270142
 outer loop
  vertex 353500.0 5720500.0 3225.89990234375
  vertex 354500.0 5720500.0 3236.800048828125
  vertex 354500.0 5719500.0 3318.199951171875
 endloop
endfacet
facet normal -0.12402155995368958 -0.08050519227981567 -0.9890084266662598
 outer loop
  vertex 354500.0 5720500.0 3236.800048828125
  vertex 355500.0 5719500.0 3192.800048828125
  vertex 354500.0 5719500.0 3318.199951171875
 endloop
endfacet
facet normal 0.008388099260628223 0.052326273173093796 -0.9985948801040649
 outer loop
  vertex 354500.0 5720500.0 3236.800048828125
  vertex 355500.0 5720500.0 3245.199951171875
  vertex 355500.0 5719500.0 3192.800048828125
 endloop
endfacet
facet normal -0.09346034377813339 0.0520990714430809 -0.9942589402198792
 outer loop
  vertex 355500.0 5720500.0 3245.199951171875
  vertex 356500.0 5719500.0 3098.800048828125
  vertex 355500.0 5719500.0 3192.800048828125
 endloop
endfacet
facet normal -0.15682311356067657 -0.012245768681168556 -0.9875507950782776
 outer loop
  vertex 355500.0 5720500.0 3245.199951171875
  vertex 356500.0 5720500.0 3086.39990234375
  vertex 356500.0 5719500.0 3098.800048828125
 endloop
endfacet
facet normal 0.09555339068174362 -0.012342458590865135 -0.995347797870636
 outer loop
  vertex 356500.0 5720500.0 3086.39990234375
  vertex 357500.0 5719500.0 3194.800048828125
  vertex 356500.0 5719500.0 3098.800048828125
 endloop
endfacet
facet normal 0.008756386116147041 -0.09910592436790466 -0.9950383901596069
 outer loop
  vertex 356500.0 5720500.0 3086.39990234375
  vertex 357500.0 5720500.0 3095.199951171875
  vertex 357500.0 5719500.0 3194.800048828125
 endloop
endfacet
facet normal 0.019996898248791695 -0.09908989071846008 -0.9948775172233582
 outer loop
  vertex 357500.0 5720500.0 3095.199951171875
  vertex 358500.0 5719500.0 3214.89990234375
  vertex 357500.0 5719500.0 3194.800048828125
 endloop
endfacet
facet normal -0.020198477432131767 -0.13871653378009796 -0.9901261329650879
 outer loop
  vertex 357500.0 5720500.0 3095.199951171875
  vertex 358500.0 5720500.0 3074.800048828125
  vertex 358500.0 5719500.0 3214.89990234375
 endloop
endfacet
facet normal -0.07181093096733093 -0.13838663697242737 -0.9877713918685913
 outer loop
  vertex 358500.0 5720500.0 3074.800048828125
  vertex 359500.0 5719500.0 3142.199951171875
  vertex 358500.0 5719500.0 3214.89990234375
 endloop
endfacet
facet normal 0.006687492597848177 -0.0605870820581913 -0.9981405138969421
 outer loop
  vertex 358500.0 5720500.0 3074.800048828125
  vertex 359500.0 5720500.0 3081.5
  vertex 359500.0 5719500.0 3142.199951171875
 endloop
endfacet
facet normal -0.09709320217370987 -0.12237875908613205 -0.9877228140830994
 outer loop
  vertex 352500.0 5721500.0 3200.300048828125
  vertex 353500.0 5720500.0 3225.89990234375
  vertex 352500.0 5720500.0 3324.199951171875
 endloop
endfacet
facet normal 0.04793279990553856 0.022368786856532097 -0.9986000061035156
 outer loop
  vertex 352500.0 5721500.0 3200.300048828125
  vertex 353500.0 5721500.0 3248.300048828125
  vertex 353500.0 5720500.0 3225.89990234375
 endloop
endfacet
facet normal 0.010896765626966953 0.022393198683857918 -0.9996898174285889
 outer loop
  vertex 353500.0 5721500.0 3248.300048828125
  vertex 354500.0 5720500.0 3236.800048828125
  vertex 353500.0 5720500.0 3225.89990234375
 endloop
endfacet
facet normal 0.06940275430679321 0.08083729445934296 -0.9943080544471741
 outer loop
  vertex 353500.0 5721500.0 3248.300048828125
  vertex 354500.0 5721500.0 3318.10009765625
  vertex 354500.0 5720500.0 3236.800048828125
 endloop
endfacet
facet normal 0.008371981792151928 0.08102984726428986 -0.996676504611969
 outer loop
  vertex 354500.0 5721500.0 3318.10009765625
  vertex 355500.0 5720500.0 3245.199951171875
  vertex 354500.0 5720500.0 3236.800048828125
 endloop
endfacet
facet normal -0.15807169675827026 -0.08636394143104553 -0.9836435317993164
 outer loop
  vertex 354500.0 5721500.0 3318.10009765625
  vertex 355500.0 5721500.0 3157.39990234375
  vertex 355500.0 5720500.0 3245.199951171875
 endloop
endfacet
facet normal -0.156248539686203 -0.08638932555913925 -0.9839325547218323
 outer loop
  vertex 355500.0 5721500.0 3157.39990234375
  vertex 356500.0 5720500.0 3086.39990234375
  vertex 355500.0 5720500.0 3245.199951171875
 endloop
endfacet
facet normal 0.02616746723651886 0.09680954366922379 -0.9949588775634766
 outer loop
  vertex 355500.0 5721500.0 3157.39990234375
  vertex 356500.0 5721500.0 3183.699951171875
  vertex 356500.0 5720500.0 3086.39990234375
 endloop
endfacet
facet normal 0.008758348412811756 0.09683899581432343 -0.995261549949646
 outer loop
  vertex 356500.0 5721500.0 3183.699951171875
  vertex 357500.0 5720500.0 3095.199951171875
  vertex 356500.0 5720500.0 3086.39990234375
 endloop
endfacet
facet normal -0.1082376092672348 -0.020275840535759926 -0.9939182996749878
 outer loop
  vertex 356500.0 5721500.0 3183.699951171875
  vertex 357500.0 5721500.0 3074.800048828125
  vertex 357500.0 5720500.0 3095.199951171875
 endloop
endfacet
facet normal -0.020391417667269707 -0.020391417667269707 -0.9995841383934021
 outer loop
  vertex 357500.0 5721500.0 3074.800048828125
  vertex 358500.0 5720500.0 3074.800048828125
  vertex 357500.0 5720500.0 3095.199951171875
 endloop
endfacet
facet normal -0.047989197075366974 -0.047989197075366974 -0.9976943731307983
 outer loop
  vertex 357500.0 5721500.0 3074.800048828125
  vertex 358500.0 5721500.0 3026.699951171875
  vertex 358500.0 5720500.0 3074.800048828125
 endloop
endfacet
facet normal 0.006692062132060528 -0.048043474555015564 -0.998822808265686
 outer loop
  vertex 358500.0 5721500.0 3026.699951171875
  vertex 359500.0 5720500.0 3081.5
  vertex 358500.0 5720500.0 3074.800048828125
 endloop
endfacet
facet normal 0.026032177731394768 0.13995996117591858 -0.9898148775100708
 outer loop
  vertex 355500.0 5722500.0 3298.800048828125
  vertex 356500.0 5721500.0 3183.699951171875
  vertex 355500.0 5721500.0 3157.39990234375
 endloop
endfacet
facet normal -0.1300685554742813 -0.015961023047566414 -0.991376519203186
 outer loop
  vertex 355500.0 5722500.0 3298.800048828125
  vertex 356500.0 5722500.0 3167.60009765625
  vertex 356500.0 5721500.0 3183.699951171875
 endloop
endfacet
facet normal -0.10824599117040634 -0.01600317843258381 -0.9939953088760376
 outer loop
  vertex 356500.0 5722500.0 3167.60009765625
  vertex 357500.0 5721500.0 3074.800048828125
  vertex 356500.0 5721500.0 3183.699951171875
 endloop
endfacet
endsolid
