solid
facet normal -0.005098788067698479 -0.019795667380094528 -0.9997910261154175
 outer loop
  vertex 383500.0 5910500.0 2655.199951171875
  vertex 384500.0 5910500.0 2650.10009765625
  vertex 384500.0 5909500.0 2669.89990234375
 endloop
endfacet
facet normal 0.00010007803939515725 -0.019795924425125122 -0.9998040199279785
 outer loop
  vertex 384500.0 5910500.0 2650.10009765625
  vertex 385500.0 5909500.0 2670.0
  vertex 384500.0 5909500.0 2669.89990234375
 endloop
endfacet
facet normal -0.004498615395277739 -0.024392396211624146 -0.9996923208236694
 outer loop
  vertex 384500.0 5910500.0 2650.10009765625
  vertex 385500.0 5910500.0 2645.60009765625
  vertex 385500.0 5909500.0 2670.0
 endloop
endfacet
facet normal -0.02408645488321781 -0.023486698046326637 -0.9994339346885681
 outer loop
  vertex 378500.0 5911500.0 2685.800048828125
  vertex 379500.0 5911500.0 2661.699951171875
  vertex 379500.0 5910500.0 2685.199951171875
 endloop
endfacet
facet normal 0.004698602017015219 -0.02349325455725193 -0.9997129440307617
 outer loop
  vertex 379500.0 5911500.0 2661.699951171875
  vertex 380500.0 5910500.0 2689.89990234375
  vertex 379500.0 5910500.0 2685.199951171875
 endloop
endfacet
facet normal 0.015296985395252705 -0.012897320091724396 -0.9997997879981995
 outer loop
  vertex 379500.0 5911500.0 2661.699951171875
  vertex 380500.0 5911500.0 2677.0
  vertex 380500.0 5910500.0 2689.89990234375
 endloop
endfacet
facet normal 0.0017000514781102538 -0.012898811139166355 -0.999915361404419
 outer loop
  vertex 380500.0 5911500.0 2677.0
  vertex 381500.0 5910500.0 2691.60009765625
  vertex 380500.0 5910500.0 2689.89990234375
 endloop
endfacet
facet normal -0.01778789795935154 -0.03237802907824516 -0.9993174076080322
 outer loop
  vertex 380500.0 5911500.0 2677.0
  vertex 381500.0 5911500.0 2659.199951171875
  vertex 381500.0 5910500.0 2691.60009765625
 endloop
endfacet
facet normal -0.0332641638815403 -0.032365232706069946 -0.9989224076271057
 outer loop
  vertex 381500.0 5911500.0 2659.199951171875
  vertex 382500.0 5910500.0 2658.300048828125
  vertex 381500.0 5910500.0 2691.60009765625
 endloop
endfacet
facet normal -0.01239812932908535 -0.01149835530668497 -0.9998570084571838
 outer loop
  vertex 381500.0 5911500.0 2659.199951171875
  vertex 382500.0 5911500.0 2646.800048828125
  vertex 382500.0 5910500.0 2658.300048828125
 endloop
endfacet
facet normal -0.00309987785294652 -0.011499184183776379 -0.9999290704727173
 outer loop
  vertex 382500.0 5911500.0 2646.800048828125
  vertex 383500.0 5910500.0 2655.199951171875
  vertex 382500.0 5910500.0 2658.300048828125
 endloop
endfacet
facet normal -0.001900042174383998 -0.010299483314156532 -0.9999451041221619
 outer loop
  vertex 382500.0 5911500.0 2646.800048828125
  vertex 383500.0 5911500.0 2644.89990234375
  vertex 383500.0 5910500.0 2655.199951171875
 endloop
endfacet
facet normal -0.005099516827613115 -0.010299368761479855 -0.9999339580535889
 outer loop
  vertex 383500.0 5911500.0 2644.89990234375
  vertex 384500.0 5910500.0 2650.10009765625
  vertex 383500.0 5910500.0 2655.199951171875
 endloop
endfacet
facet normal -0.000699938798788935 -0.0059000421315431595 -0.9999822974205017
 outer loop
  vertex 383500.0 5911500.0 2644.89990234375
  vertex 384500.0 5911500.0 2644.199951171875
  vertex 384500.0 5910500.0 2650.10009765625
 endloop
endfacet
facet normal -0.004499876406043768 -0.005899984389543533 -0.9999725222587585
 outer loop
  vertex 384500.0 5911500.0 2644.199951171875
  vertex 385500.0 5910500.0 2645.60009765625
  vertex 384500.0 5910500.0 2650.10009765625
 endloop
endfacet
facet normal -0.002300027059391141 -0.003700160188600421 -0.9999905228614807
 outer loop
  vertex 384500.0 5911500.0 2644.199951171875
  vertex 385500.0 5911500.0 2641.89990234375
  vertex 385500.0 5910500.0 2645.60009765625
 endloop
endfacet
facet normal 0.00309981731697917 -0.003700152039527893 -0.999988317489624
 outer loop
  vertex 385500.0 5911500.0 2641.89990234375
  vertex 386500.0 5910500.0 2648.699951171875
  vertex 385500.0 5910500.0 2645.60009765625
 endloop
endfacet
facet normal -0.0010998185025528073 -0.007899651303887367 -0.9999681711196899
 outer loop
  vertex 385500.0 5911500.0 2641.89990234375
  vertex 386500.0 5911500.0 2640.800048828125
  vertex 386500.0 5910500.0 2648.699951171875
 endloop
endfacet
facet normal -0.016047403216362 0.07904170453548431 -0.9967421293258667
 outer loop
  vertex 367500.0 5912500.0 2733.39990234375
  vertex 368500.0 5912500.0 2717.300048828125
  vertex 368500.0 5911500.0 2638.0
 endloop
endfacet
facet normal -0.0067786104045808315 0.07905006408691406 -0.9968475699424744
 outer loop
  vertex 368500.0 5912500.0 2717.300048828125
  vertex 369500.0 5911500.0 2631.199951171875
  vertex 368500.0 5911500.0 2638.0
 endloop
endfacet
facet normal -0.07379284501075745 0.012066220864653587 -0.997200608253479
 outer loop
  vertex 368500.0 5912500.0 2717.300048828125
  vertex 369500.0 5912500.0 2643.300048828125
  vertex 369500.0 5911500.0 2631.199951171875
 endloop
endfacet
facet normal 0.029584975913167 0.012093916535377502 -0.9994891285896301
 outer loop
  vertex 369500.0 5912500.0 2643.300048828125
  vertex 370500.0 5911500.0 2660.800048828125
  vertex 369500.0 5911500.0 2631.199951171875
 endloop
endfacet
facet normal -0.0037991595454514027 -0.02129506506025791 -0.9997659921646118
 outer loop
  vertex 369500.0 5912500.0 2643.300048828125
  vertex 370500.0 5912500.0 2639.5
  vertex 370500.0 5911500.0 2660.800048828125
 endloop
endfacet
facet normal 0.016494013369083405 -0.021292323246598244 -0.999637246131897
 outer loop
  vertex 370500.0 5912500.0 2639.5
  vertex 371500.0 5911500.0 2677.300048828125
  vertex 370500.0 5911500.0 2660.800048828125
 endloop
endfacet
facet normal 0.013594861142337322 -0.02419063076376915 -0.999614953994751
 outer loop
  vertex 370500.0 5912500.0 2639.5
  vertex 371500.0 5912500.0 2653.10009765625
  vertex 371500.0 5911500.0 2677.300048828125
 endloop
endfacet
facet normal 0.0016994512407109141 -0.02419283427298069 -0.9997059106826782
 outer loop
  vertex 371500.0 5912500.0 2653.10009765625
  vertex 372500.0 5911500.0 2679.0
  vertex 371500.0 5911500.0 2677.300048828125
 endloop
endfacet
facet normal 0.01739664003252983 -0.00849840696901083 -0.9998125433921814
 outer loop
  vertex 371500.0 5912500.0 2653.10009765625
  vertex 372500.0 5912500.0 2670.5
  vertex 372500.0 5911500.0 2679.0
 endloop
endfacet
facet normal -0.0004999818629585207 -0.0084996921941638 -0.9999637603759766
 outer loop
  vertex 372500.0 5912500.0 2670.5
  vertex 373500.0 5911500.0 2678.5
  vertex 372500.0 5911500.0 2679.0
 endloop
endfacet
facet normal 0.0021999087184667587 -0.0057999370619654655 -0.9999807476997375
 outer loop
  vertex 372500.0 5912500.0 2670.5
  vertex 373500.0 5912500.0 2672.699951171875
  vertex 373500.0 5911500.0 2678.5
 endloop
endfacet
facet normal -0.012498813681304455 -0.005799498409032822 -0.9999050498008728
 outer loop
  vertex 373500.0 5912500.0 2672.699951171875
  vertex 374500.0 5911500.0 2666.0
  vertex 373500.0 5911500.0 2678.5
 endloop
endfacet
facet normal -0.032072994858026505 -0.025378650054335594 -0.9991632699966431
 outer loop
  vertex 373500.0 5912500.0 2672.699951171875
  vertex 374500.0 5912500.0 2640.60009765625
  vertex 374500.0 5911500.0 2666.0
 endloop
endfacet
facet normal 0.01769147254526615 -0.025387737900018692 -0.9995210766792297
 outer loop
  vertex 374500.0 5912500.0 2640.60009765625
  vertex 375500.0 5911500.0 2683.699951171875
  vertex 374500.0 5911500.0 2666.0
 endloop
endfacet
facet normal 0.010193905793130398 -0.032880399376153946 -0.9994072914123535
 outer loop
  vertex 374500.0 5912500.0 2640.60009765625
  vertex 375500.0 5912500.0 2650.800048828125
  vertex 375500.0 5911500.0 2683.699951171875
 endloop
endfacet
facet normal 0.0006995705189183354 -0.03288210183382034 -0.9994589686393738
 outer loop
  vertex 375500.0 5912500.0 2650.800048828125
  vertex 376500.0 5911500.0 2684.39990234375
  vertex 375500.0 5911500.0 2683.699951171875
 endloop
endfacet
facet normal 0.0384710356593132 0.0048964619636535645 -0.999247670173645
 outer loop
  vertex 375500.0 5912500.0 2650.800048828125
  vertex 376500.0 5912500.0 2689.300048828125
  vertex 376500.0 5911500.0 2684.39990234375
 endloop
endfacet
facet normal -0.004699843004345894 0.004900033585727215 -0.9999769330024719
 outer loop
  vertex 376500.0 5912500.0 2689.300048828125
  vertex 377500.0 5911500.0 2679.699951171875
  vertex 376500.0 5911500.0 2684.39990234375
 endloop
endfacet
facet normal -0.018396319821476936 -0.00879821926355362 -0.9997920393943787
 outer loop
  vertex 376500.0 5912500.0 2689.300048828125
  vertex 377500.0 5912500.0 2670.89990234375
  vertex 377500.0 5911500.0 2679.699951171875
 endloop
endfacet
facet normal 0.006099747959524393 -0.008799544535577297 -0.9999427199363708
 outer loop
  vertex 377500.0 5912500.0 2670.89990234375
  vertex 378500.0 5911500.0 2685.800048828125
  vertex 377500.0 5911500.0 2679.699951171875
 endloop
endfacet
facet normal 0.014698606915771961 -0.00019992956367786974 -0.9998919367790222
 outer loop
  vertex 377500.0 5912500.0 2670.89990234375
  vertex 378500.0 5912500.0 2685.60009765625
  vertex 378500.0 5911500.0 2685.800048828125
 endloop
endfacet
facet normal -0.024093100801110268 -0.0001998931256821379 -0.9997097253799438
 outer loop
  vertex 378500.0 5912500.0 2685.60009765625
  vertex 379500.0 5911500.0 2661.699951171875
  vertex 378500.0 5911500.0 2685.800048828125
 endloop
endfacet
facet normal -0.020195938646793365 0.003699171356856823 -0.9997892379760742
 outer loop
  vertex 378500.0 5912500.0 2685.60009765625
  vertex 379500.0 5912500.0 2665.39990234375
  vertex 379500.0 5911500.0 2661.699951171875
 endloop
endfacet
facet normal 0.015298154205083847 0.003699492895975709 -0.9998761415481567
 outer loop
  vertex 379500.0 5912500.0 2665.39990234375
  vertex 380500.0 5911500.0 2677.0
  vertex 379500.0 5911500.0 2661.699951171875
 endloop
endfacet
facet normal 0.011499240063130856 -0.00010009103425545618 -0.9999338984489441
 outer loop
  vertex 379500.0 5912500.0 2665.39990234375
  vertex 380500.0 5912500.0 2676.89990234375
  vertex 380500.0 5911500.0 2677.0
 endloop
endfacet
facet normal -0.017797229811549187 -0.00010008180106524378 -0.999841570854187
 outer loop
  vertex 380500.0 5912500.0 2676.89990234375
  vertex 381500.0 5911500.0 2659.199951171875
  vertex 380500.0 5911500.0 2677.0
 endloop
endfacet
facet normal -0.02868640422821045 -0.010994807817041874 -0.9995279908180237
 outer loop
  vertex 380500.0 5912500.0 2676.89990234375
  vertex 381500.0 5912500.0 2648.199951171875
  vertex 381500.0 5911500.0 2659.199951171875
 endloop
endfacet
facet normal -0.012398199178278446 -0.010998489335179329 -0.9998626708984375
 outer loop
  vertex 381500.0 5912500.0 2648.199951171875
  vertex 382500.0 5911500.0 2646.800048828125
  vertex 381500.0 5911500.0 2659.199951171875
 endloop
endfacet
facet normal 0.001800036639906466 0.003199929604306817 -0.9999932646751404
 outer loop
  vertex 381500.0 5912500.0 2648.199951171875
  vertex 382500.0 5912500.0 2650.0
  vertex 382500.0 5911500.0 2646.800048828125
 endloop
endfacet
facet normal -0.0019001333275809884 0.003199928905814886 -0.999993085861206
 outer loop
  vertex 382500.0 5912500.0 2650.0
  vertex 383500.0 5911500.0 2644.89990234375
  vertex 382500.0 5911500.0 2646.800048828125
 endloop
endfacet
facet normal -0.0039999657310545444 0.0011000881204381585 -0.9999913573265076
 outer loop
  vertex 382500.0 5912500.0 2650.0
  vertex 383500.0 5912500.0 2646.0
  vertex 383500.0 5911500.0 2644.89990234375
 endloop
endfacet
facet normal -0.0006999505567364395 0.0011000967351719737 -0.9999991059303284
 outer loop
  vertex 383500.0 5912500.0 2646.0
  vertex 384500.0 5911500.0 2644.199951171875
  vertex 383500.0 5911500.0 2644.89990234375
 endloop
endfacet
facet normal -0.004399844910949469 -0.00259981956332922 -0.9999869465827942
 outer loop
  vertex 383500.0 5912500.0 2646.0
  vertex 384500.0 5912500.0 2641.60009765625
  vertex 384500.0 5911500.0 2644.199951171875
 endloop
endfacet
facet normal -0.002300034975633025 -0.0025998379569500685 -0.9999939799308777
 outer loop
  vertex 384500.0 5912500.0 2641.60009765625
  vertex 385500.0 5911500.0 2641.89990234375
  vertex 384500.0 5911500.0 2644.199951171875
 endloop
endfacet
facet normal -0.0021000870037823915 -0.0023998902179300785 -0.9999949336051941
 outer loop
  vertex 384500.0 5912500.0 2641.60009765625
  vertex 385500.0 5912500.0 2639.5
  vertex 385500.0 5911500.0 2641.89990234375
 endloop
endfacet
facet normal -0.001099849701859057 -0.002399893943220377 -0.9999964833259583
 outer loop
  vertex 385500.0 5912500.0 2639.5
  vertex 386500.0 5911500.0 2640.800048828125
  vertex 385500.0 5911500.0 2641.89990234375
 endloop
endfacet
facet normal 0.0018998985178768635 0.0005998522974550724 -0.9999979734420776
 outer loop
  vertex 385500.0 5912500.0 2639.5
  vertex 386500.0 5912500.0 2641.39990234375
  vertex 386500.0 5911500.0 2640.800048828125
 endloop
endfacet
facet normal 0.02449226565659046 0.0055983299389481544 -0.9996843338012695
 outer loop
  vertex 366500.0 5913500.0 2714.5
  vertex 367500.0 5913500.0 2739.0
  vertex 367500.0 5912500.0 2733.39990234375
 endloop
endfacet
facet normal -0.01609751582145691 0.005599284544587135 -0.9998547434806824
 outer loop
  vertex 367500.0 5913500.0 2739.0
  vertex 368500.0 5912500.0 2717.300048828125
  vertex 367500.0 5912500.0 2733.39990234375
 endloop
endfacet
facet normal -0.016197580844163895 0.00549919530749321 -0.9998537302017212
 outer loop
  vertex 367500.0 5913500.0 2739.0
  vertex 368500.0 5913500.0 2722.800048828125
  vertex 368500.0 5912500.0 2717.300048828125
 endloop
endfacet
facet normal -0.07379710674285889 0.005484919995069504 -0.997258186340332
 outer loop
  vertex 368500.0 5913500.0 2722.800048828125
  vertex 369500.0 5912500.0 2643.300048828125
  vertex 368500.0 5912500.0 2717.300048828125
 endloop
endfacet
facet normal 0.017396118491888046 -0.0114974994212389 -0.9997825622558594
 outer loop
  vertex 371500.0 5913500.0 2641.60009765625
  vertex 372500.0 5912500.0 2670.5
  vertex 371500.0 5912500.0 2653.10009765625
 endloop
endfacet
facet normal 0.00019986888219136745 -0.028688138350844383 -0.9995884299278259
 outer loop
  vertex 371500.0 5913500.0 2641.60009765625
  vertex 372500.0 5913500.0 2641.800048828125
  vertex 372500.0 5912500.0 2670.5
 endloop
endfacet
facet normal 0.00219904026016593 -0.02868806943297386 -0.9995859861373901
 outer loop
  vertex 372500.0 5913500.0 2641.800048828125
  vertex 373500.0 5912500.0 2672.699951171875
  vertex 372500.0 5912500.0 2670.5
 endloop
endfacet
facet normal 0.0011994213564321399 -0.029686838388442993 -0.9995585083961487
 outer loop
  vertex 372500.0 5913500.0 2641.800048828125
  vertex 373500.0 5913500.0 2643.0
  vertex 373500.0 5912500.0 2672.699951171875
 endloop
endfacet
facet normal -0.03206920251250267 -0.029671592637896538 -0.9990451335906982
 outer loop
  vertex 373500.0 5913500.0 2643.0
  vertex 374500.0 5912500.0 2640.60009765625
  vertex 373500.0 5912500.0 2672.699951171875
 endloop
endfacet
facet normal 0.0029999427497386932 0.005399799440056086 -0.9999809265136719
 outer loop
  vertex 373500.0 5913500.0 2643.0
  vertex 374500.0 5913500.0 2646.0
  vertex 374500.0 5912500.0 2640.60009765625
 endloop
endfacet
facet normal 0.010199272073805332 0.005399542860686779 -0.9999334216117859
 outer loop
  vertex 374500.0 5913500.0 2646.0
  vertex 375500.0 5912500.0 2650.800048828125
  vertex 374500.0 5912500.0 2640.60009765625
 endloop
endfacet
facet normal 0.0034999754279851913 -0.0013000397011637688 -0.9999930262565613
 outer loop
  vertex 374500.0 5913500.0 2646.0
  vertex 375500.0 5913500.0 2649.5
  vertex 375500.0 5912500.0 2650.800048828125
 endloop
endfacet
facet normal 0.038471467792987823 -0.0012990853283554316 -0.9992588758468628
 outer loop
  vertex 375500.0 5913500.0 2649.5
  vertex 376500.0 5912500.0 2689.300048828125
  vertex 375500.0 5912500.0 2650.800048828125
 endloop
endfacet
facet normal 0.018092874437570572 -0.02169129066169262 -0.9996009469032288
 outer loop
  vertex 375500.0 5913500.0 2649.5
  vertex 376500.0 5913500.0 2667.60009765625
  vertex 376500.0 5912500.0 2689.300048828125
 endloop
endfacet
facet normal -0.01839270442724228 -0.021691175177693367 -0.9995955228805542
 outer loop
  vertex 376500.0 5913500.0 2667.60009765625
  vertex 377500.0 5912500.0 2670.89990234375
  vertex 376500.0 5912500.0 2689.300048828125
 endloop
endfacet
facet normal -0.002300006803125143 -0.005599751137197018 -0.999981701374054
 outer loop
  vertex 376500.0 5913500.0 2667.60009765625
  vertex 377500.0 5913500.0 2665.300048828125
  vertex 377500.0 5912500.0 2670.89990234375
 endloop
endfacet
facet normal 0.014698375947773457 -0.0055991606786847115 -0.9998762607574463
 outer loop
  vertex 377500.0 5913500.0 2665.300048828125
  vertex 378500.0 5912500.0 2685.60009765625
  vertex 377500.0 5912500.0 2670.89990234375
 endloop
endfacet
facet normal -0.0011996730463579297 -0.021495016291737556 -0.9997682571411133
 outer loop
  vertex 377500.0 5913500.0 2665.300048828125
  vertex 378500.0 5913500.0 2664.10009765625
  vertex 378500.0 5912500.0 2685.60009765625
 endloop
endfacet
facet normal -0.020191410556435585 -0.02149065025150776 -0.9995651245117188
 outer loop
  vertex 378500.0 5913500.0 2664.10009765625
  vertex 379500.0 5912500.0 2665.39990234375
  vertex 378500.0 5912500.0 2685.60009765625
 endloop
endfacet
facet normal 0.00079980434384197 -0.000499999790918082 -0.9999995827674866
 outer loop
  vertex 378500.0 5913500.0 2664.10009765625
  vertex 379500.0 5913500.0 2664.89990234375
  vertex 379500.0 5912500.0 2665.39990234375
 endloop
endfacet
facet normal 0.011499238200485706 -0.0004999669035896659 -0.9999337792396545
 outer loop
  vertex 379500.0 5913500.0 2664.89990234375
  vertex 380500.0 5912500.0 2676.89990234375
  vertex 379500.0 5912500.0 2665.39990234375
 endloop
endfacet
facet normal 0.018796293064951897 0.0067986901849508286 -0.9998002052307129
 outer loop
  vertex 379500.0 5913500.0 2664.89990234375
  vertex 380500.0 5913500.0 2683.699951171875
  vertex 380500.0 5912500.0 2676.89990234375
 endloop
endfacet
facet normal -0.028687475249171257 0.006797092966735363 -0.9995653033256531
 outer loop
  vertex 380500.0 5913500.0 2683.699951171875
  vertex 381500.0 5912500.0 2648.199951171875
  vertex 380500.0 5912500.0 2676.89990234375
 endloop
endfacet
facet normal -0.04555019736289978 -0.010088854469358921 -0.9989111423492432
 outer loop
  vertex 380500.0 5913500.0 2683.699951171875
  vertex 381500.0 5913500.0 2638.10009765625
  vertex 381500.0 5912500.0 2648.199951171875
 endloop
endfacet
facet normal 0.0017999541014432907 -0.010099321603775024 -0.9999473690986633
 outer loop
  vertex 381500.0 5913500.0 2638.10009765625
  vertex 382500.0 5912500.0 2650.0
  vertex 381500.0 5912500.0 2648.199951171875
 endloop
endfacet
facet normal 0.009099441580474377 -0.002799921901896596 -0.9999547004699707
 outer loop
  vertex 381500.0 5913500.0 2638.10009765625
  vertex 382500.0 5913500.0 2647.199951171875
  vertex 382500.0 5912500.0 2650.0
 endloop
endfacet
facet normal -0.0039999522268772125 -0.002800015499815345 -0.9999880790710449
 outer loop
  vertex 382500.0 5913500.0 2647.199951171875
  vertex 383500.0 5912500.0 2646.0
  vertex 382500.0 5912500.0 2650.0
 endloop
endfacet
facet normal -0.0030998329166322947 -0.0018998897867277265 -0.9999933838844299
 outer loop
  vertex 382500.0 5913500.0 2647.199951171875
  vertex 383500.0 5913500.0 2644.10009765625
  vertex 383500.0 5912500.0 2646.0
 endloop
endfacet
facet normal -0.004399851895868778 -0.0018998805899173021 -0.9999885559082031
 outer loop
  vertex 383500.0 5913500.0 2644.10009765625
  vertex 384500.0 5912500.0 2641.60009765625
  vertex 383500.0 5912500.0 2646.0
 endloop
endfacet
facet normal 0.0037997018080204725 0.006299633998423815 -0.999972939491272
 outer loop
  vertex 383500.0 5913500.0 2644.10009765625
  vertex 384500.0 5913500.0 2647.89990234375
  vertex 384500.0 5912500.0 2641.60009765625
 endloop
endfacet
facet normal -0.0021000513806939125 0.006299665663391352 -0.9999779462814331
 outer loop
  vertex 384500.0 5913500.0 2647.89990234375
  vertex 385500.0 5912500.0 2639.5
  vertex 384500.0 5912500.0 2641.60009765625
 endloop
endfacet
facet normal -0.0007997813518159091 0.007599875796586275 -0.9999707937240601
 outer loop
  vertex 384500.0 5913500.0 2647.89990234375
  vertex 385500.0 5913500.0 2647.10009765625
  vertex 385500.0 5912500.0 2639.5
 endloop
endfacet
facet normal 0.0018998440355062485 0.00759986462071538 -0.9999693036079407
 outer loop
  vertex 385500.0 5913500.0 2647.10009765625
  vertex 386500.0 5912500.0 2641.39990234375
  vertex 385500.0 5912500.0 2639.5
 endloop
endfacet
facet normal 0.0011999218259006739 0.006899977568536997 -0.9999755024909973
 outer loop
  vertex 385500.0 5913500.0 2647.10009765625
  vertex 386500.0 5913500.0 2648.300048828125
  vertex 386500.0 5912500.0 2641.39990234375
 endloop
endfacet
facet normal -0.016189999878406525 -0.03108099475502968 -0.9993857741355896
 outer loop
  vertex 367500.0 5914500.0 2707.89990234375
  vertex 368500.0 5913500.0 2722.800048828125
  vertex 367500.0 5913500.0 2739.0
 endloop
endfacet
facet normal 0.001199899590574205 0.009199555963277817 -0.9999570250511169
 outer loop
  vertex 372500.0 5914500.0 2651.0
  vertex 373500.0 5913500.0 2643.0
  vertex 372500.0 5913500.0 2641.800048828125
 endloop
endfacet
facet normal -0.004999915137887001 0.002999949036166072 -0.999983012676239
 outer loop
  vertex 372500.0 5914500.0 2651.0
  vertex 373500.0 5914500.0 2646.0
  vertex 373500.0 5913500.0 2643.0
 endloop
endfacet
facet normal 0.0029999730177223682 0.0029999730177223682 -0.9999909996986389
 outer loop
  vertex 373500.0 5914500.0 2646.0
  vertex 374500.0 5913500.0 2646.0
  vertex 373500.0 5913500.0 2643.0
 endloop
endfacet
facet normal -0.0028998779598623514 -0.0028998779598623514 -0.9999915361404419
 outer loop
  vertex 373500.0 5914500.0 2646.0
  vertex 374500.0 5914500.0 2643.10009765625
  vertex 374500.0 5913500.0 2646.0
 endloop
endfacet
facet normal 0.0034999640192836523 -0.0028998723719269037 -0.9999896883964539
 outer loop
  vertex 374500.0 5914500.0 2643.10009765625
  vertex 375500.0 5913500.0 2649.5
  vertex 374500.0 5913500.0 2646.0
 endloop
endfacet
facet normal 0.013198495842516422 0.006799299269914627 -0.9998897910118103
 outer loop
  vertex 374500.0 5914500.0 2643.10009765625
  vertex 375500.0 5914500.0 2656.300048828125
  vertex 375500.0 5913500.0 2649.5
 endloop
endfacet
facet normal 0.018096715211868286 0.006798777729272842 -0.9998130798339844
 outer loop
  vertex 375500.0 5914500.0 2656.300048828125
  vertex 376500.0 5913500.0 2667.60009765625
  vertex 375500.0 5913500.0 2649.5
 endloop
endfacet
facet normal -0.00899778213351965 -0.020295046269893646 -0.9997535347938538
 outer loop
  vertex 375500.0 5914500.0 2656.300048828125
  vertex 376500.0 5914500.0 2647.300048828125
  vertex 376500.0 5913500.0 2667.60009765625
 endloop
endfacet
facet normal -0.00229956884868443 -0.02029581367969513 -0.9997913837432861
 outer loop
  vertex 376500.0 5914500.0 2647.300048828125
  vertex 377500.0 5913500.0 2665.300048828125
  vertex 376500.0 5913500.0 2667.60009765625
 endloop
endfacet
facet normal 0.014898177236318588 -0.003099738620221615 -0.9998841881752014
 outer loop
  vertex 376500.0 5914500.0 2647.300048828125
  vertex 377500.0 5914500.0 2662.199951171875
  vertex 377500.0 5913500.0 2665.300048828125
 endloop
endfacet
facet normal -0.0011999445268884301 -0.0031000804156064987 -0.9999944567680359
 outer loop
  vertex 377500.0 5914500.0 2662.199951171875
  vertex 378500.0 5913500.0 2664.10009765625
  vertex 377500.0 5913500.0 2665.300048828125
 endloop
endfacet
facet normal 0.0018000459531322122 -0.00010009749530581757 -0.9999983906745911
 outer loop
  vertex 377500.0 5914500.0 2662.199951171875
  vertex 378500.0 5914500.0 2664.0
  vertex 378500.0 5913500.0 2664.10009765625
 endloop
endfacet
facet normal 0.0007998044602572918 -0.00010009762627305463 -0.9999997019767761
 outer loop
  vertex 378500.0 5914500.0 2664.0
  vertex 379500.0 5913500.0 2664.89990234375
  vertex 378500.0 5913500.0 2664.10009765625
 endloop
endfacet
facet normal 0.0003000487631652504 -0.0005998533451929688 -0.9999997615814209
 outer loop
  vertex 378500.0 5914500.0 2664.0
  vertex 379500.0 5914500.0 2664.300048828125
  vertex 379500.0 5913500.0 2664.89990234375
 endloop
endfacet
facet normal 0.01879672333598137 -0.0005997474072501063 -0.9998231530189514
 outer loop
  vertex 379500.0 5914500.0 2664.300048828125
  vertex 380500.0 5913500.0 2683.699951171875
  vertex 379500.0 5913500.0 2664.89990234375
 endloop
endfacet
facet normal -0.013990827836096287 -0.03337801992893219 -0.9993448853492737
 outer loop
  vertex 379500.0 5914500.0 2664.300048828125
  vertex 380500.0 5914500.0 2650.300048828125
  vertex 380500.0 5913500.0 2683.699951171875
 endloop
endfacet
facet normal -0.04552718251943588 -0.03334667533636093 -0.9984063506126404
 outer loop
  vertex 380500.0 5914500.0 2650.300048828125
  vertex 381500.0 5913500.0 2638.10009765625
  vertex 380500.0 5913500.0 2683.699951171875
 endloop
endfacet
facet normal -0.0003000275755766779 0.011899059638381004 -0.9999291896820068
 outer loop
  vertex 380500.0 5914500.0 2650.300048828125
  vertex 381500.0 5914500.0 2650.0
  vertex 381500.0 5913500.0 2638.10009765625
 endloop
endfacet
facet normal 0.009098832495510578 0.011898567900061607 -0.9998878240585327
 outer loop
  vertex 381500.0 5914500.0 2650.0
  vertex 382500.0 5913500.0 2647.199951171875
  vertex 381500.0 5913500.0 2638.10009765625
 endloop
endfacet
facet normal 0.06885746121406555 0.0716436505317688 -0.9950506687164307
 outer loop
  vertex 381500.0 5914500.0 2650.0
  vertex 382500.0 5914500.0 2719.199951171875
  vertex 382500.0 5913500.0 2647.199951171875
 endloop
endfacet
facet normal -0.0030918330885469913 0.07181375473737717 -0.9974132776260376
 outer loop
  vertex 382500.0 5914500.0 2719.199951171875
  vertex 383500.0 5913500.0 2644.10009765625
  vertex 382500.0 5913500.0 2647.199951171875
 endloop
endfacet
facet normal -0.07002677768468857 0.004887811373919249 -0.9975331425666809
 outer loop
  vertex 382500.0 5914500.0 2719.199951171875
  vertex 383500.0 5914500.0 2649.0
  vertex 383500.0 5913500.0 2644.10009765625
 endloop
endfacet
facet normal 0.0037997316103428602 0.004899808205664158 -0.9999807476997375
 outer loop
  vertex 383500.0 5914500.0 2649.0
  vertex 384500.0 5913500.0 2647.89990234375
  vertex 383500.0 5913500.0 2644.10009765625
 endloop
endfacet
facet normal -0.01029906701296568 -0.009199073538184166 -0.9999046325683594
 outer loop
  vertex 383500.0 5914500.0 2649.0
  vertex 384500.0 5914500.0 2638.699951171875
  vertex 384500.0 5913500.0 2647.89990234375
 endloop
endfacet
facet normal -0.0007997705833986402 -0.00919955875724554 -0.9999573826789856
 outer loop
  vertex 384500.0 5914500.0 2638.699951171875
  vertex 385500.0 5913500.0 2647.10009765625
  vertex 384500.0 5913500.0 2647.89990234375
 endloop
endfacet
facet normal 0.00979956891387701 0.0013998337090015411 -0.9999510049819946
 outer loop
  vertex 384500.0 5914500.0 2638.699951171875
  vertex 385500.0 5914500.0 2648.5
  vertex 385500.0 5913500.0 2647.10009765625
 endloop
endfacet
facet normal 0.0011999491835013032 0.0013998999493196607 -0.9999983310699463
 outer loop
  vertex 385500.0 5914500.0 2648.5
  vertex 386500.0 5913500.0 2648.300048828125
  vertex 385500.0 5913500.0 2647.10009765625
 endloop
endfacet
facet normal -0.009799126535654068 -0.009599193930625916 -0.9999058842658997
 outer loop
  vertex 385500.0 5914500.0 2648.5
  vertex 386500.0 5914500.0 2638.699951171875
  vertex 386500.0 5913500.0 2648.300048828125
 endloop
endfacet
facet normal -0.002899839775636792 -0.005899775307625532 -0.9999784231185913
 outer loop
  vertex 373500.0 5915500.0 2640.10009765625
  vertex 374500.0 5914500.0 2643.10009765625
  vertex 373500.0 5914500.0 2646.0
 endloop
endfacet
facet normal 0.003299786476418376 0.0002998030395247042 -0.9999945163726807
 outer loop
  vertex 373500.0 5915500.0 2640.10009765625
  vertex 374500.0 5915500.0 2643.39990234375
  vertex 374500.0 5914500.0 2643.10009765625
 endloop
endfacet
facet normal 0.013198800384998322 0.0002997785632032901 -0.9999127984046936
 outer loop
  vertex 374500.0 5915500.0 2643.39990234375
  vertex 375500.0 5914500.0 2656.300048828125
  vertex 374500.0 5914500.0 2643.10009765625
 endloop
endfacet
facet normal -0.0014998428523540497 -0.014398637227714062 -0.9998952150344849
 outer loop
  vertex 374500.0 5915500.0 2643.39990234375
  vertex 375500.0 5915500.0 2641.89990234375
  vertex 375500.0 5914500.0 2656.300048828125
 endloop
endfacet
facet normal -0.00899870228022337 -0.014398070052266121 -0.9998558163642883
 outer loop
  vertex 375500.0 5915500.0 2641.89990234375
  vertex 376500.0 5914500.0 2647.300048828125
  vertex 375500.0 5914500.0 2656.300048828125
 endloop
endfacet
facet normal 0.005200125277042389 -0.00019994846661575139 -0.9999865293502808
 outer loop
  vertex 375500.0 5915500.0 2641.89990234375
  vertex 376500.0 5915500.0 2647.10009765625
  vertex 376500.0 5914500.0 2647.300048828125
 endloop
endfacet
facet normal 0.014898248948156834 -0.0001999289816012606 -0.9998890161514282
 outer loop
  vertex 376500.0 5915500.0 2647.10009765625
  vertex 377500.0 5914500.0 2662.199951171875
  vertex 376500.0 5914500.0 2647.300048828125
 endloop
endfacet
facet normal 0.0026997339446097612 -0.01239890418946743 -0.9999195337295532
 outer loop
  vertex 376500.0 5915500.0 2647.10009765625
  vertex 377500.0 5915500.0 2649.800048828125
  vertex 377500.0 5914500.0 2662.199951171875
 endloop
endfacet
facet normal 0.00179990753531456 -0.012398929335176945 -0.9999215006828308
 outer loop
  vertex 377500.0 5915500.0 2649.800048828125
  vertex 378500.0 5914500.0 2664.0
  vertex 377500.0 5914500.0 2662.199951171875
 endloop
endfacet
facet normal -0.0040993764996528625 -0.018296830356121063 -0.9998241662979126
 outer loop
  vertex 377500.0 5915500.0 2649.800048828125
  vertex 378500.0 5915500.0 2645.699951171875
  vertex 378500.0 5914500.0 2664.0
 endloop
endfacet
facet normal 0.000299998588161543 -0.01829698495566845 -0.9998325705528259
 outer loop
  vertex 378500.0 5915500.0 2645.699951171875
  vertex 379500.0 5914500.0 2664.300048828125
  vertex 378500.0 5914500.0 2664.0
 endloop
endfacet
facet normal 0.009599266573786736 -0.00899922102689743 -0.9999134540557861
 outer loop
  vertex 378500.0 5915500.0 2645.699951171875
  vertex 379500.0 5915500.0 2655.300048828125
  vertex 379500.0 5914500.0 2664.300048828125
 endloop
endfacet
facet normal -0.013998061418533325 -0.008998753502964973 -0.9998615384101868
 outer loop
  vertex 379500.0 5915500.0 2655.300048828125
  vertex 380500.0 5914500.0 2650.300048828125
  vertex 379500.0 5914500.0 2664.300048828125
 endloop
endfacet
facet normal 0.0006999396136961877 0.005699857138097286 -0.9999834895133972
 outer loop
  vertex 379500.0 5915500.0 2655.300048828125
  vertex 380500.0 5915500.0 2656.0
  vertex 380500.0 5914500.0 2650.300048828125
 endloop
endfacet
facet normal -0.0003000439319293946 0.005699858069419861 -0.9999836683273315
 outer loop
  vertex 380500.0 5915500.0 2656.0
  vertex 381500.0 5914500.0 2650.0
  vertex 380500.0 5914500.0 2650.300048828125
 endloop
endfacet
facet normal -0.0021999299060553312 0.003800012171268463 -0.9999904036521912
 outer loop
  vertex 380500.0 5915500.0 2656.0
  vertex 381500.0 5915500.0 2653.800048828125
  vertex 381500.0 5914500.0 2650.0
 endloop
endfacet
facet normal 0.06903436779975891 0.0037909557577222586 -0.9976071119308472
 outer loop
  vertex 381500.0 5915500.0 2653.800048828125
  vertex 382500.0 5914500.0 2719.199951171875
  vertex 381500.0 5914500.0 2650.0
 endloop
endfacet
facet normal -0.009672259911894798 -0.07488545775413513 -0.9971452355384827
 outer loop
  vertex 381500.0 5915500.0 2653.800048828125
  vertex 382500.0 5915500.0 2644.10009765625
  vertex 382500.0 5914500.0 2719.199951171875
 endloop
endfacet
facet normal -0.06983193010091782 -0.07470613718032837 -0.9947575330734253
 outer loop
  vertex 382500.0 5915500.0 2644.10009765625
  vertex 383500.0 5914500.0 2649.0
  vertex 382500.0 5914500.0 2719.199951171875
 endloop
endfacet
facet normal 0.0016999400686472654 -0.0031999300699681044 -0.9999934434890747
 outer loop
  vertex 382500.0 5915500.0 2644.10009765625
  vertex 383500.0 5915500.0 2645.800048828125
  vertex 383500.0 5914500.0 2649.0
 endloop
endfacet
facet normal -0.010299449786543846 -0.0031997649930417538 -0.9999418258666992
 outer loop
  vertex 383500.0 5915500.0 2645.800048828125
  vertex 384500.0 5914500.0 2638.699951171875
  vertex 383500.0 5914500.0 2649.0
 endloop
endfacet
facet normal -0.002300016349181533 0.004799981135874987 -0.9999858736991882
 outer loop
  vertex 383500.0 5915500.0 2645.800048828125
  vertex 384500.0 5915500.0 2643.5
  vertex 384500.0 5914500.0 2638.699951171875
 endloop
endfacet
facet normal 0.009799465537071228 0.004799762740731239 -0.9999404549598694
 outer loop
  vertex 384500.0 5915500.0 2643.5
  vertex 385500.0 5914500.0 2648.5
  vertex 384500.0 5914500.0 2638.699951171875
 endloop
endfacet
facet normal 0.0032997839152812958 0.0012997965095564723 -0.9999936819076538
 outer loop
  vertex 373500.0 5916500.0 2641.39990234375
  vertex 374500.0 5915500.0 2643.39990234375
  vertex 373500.0 5915500.0 2640.10009765625
 endloop
endfacet
facet normal 0.0007001945632509887 -0.0012998032616451383 -0.999998927116394
 outer loop
  vertex 373500.0 5916500.0 2641.39990234375
  vertex 374500.0 5916500.0 2642.10009765625
  vertex 374500.0 5915500.0 2643.39990234375
 endloop
endfacet
facet normal -0.0014999971026554704 -0.0012998022139072418 -0.9999980330467224
 outer loop
  vertex 374500.0 5916500.0 2642.10009765625
  vertex 375500.0 5915500.0 2641.89990234375
  vertex 374500.0 5915500.0 2643.39990234375
 endloop
endfacet
facet normal 0.0019999910145998 0.002200185554102063 -0.9999955892562866
 outer loop
  vertex 374500.0 5916500.0 2642.10009765625
  vertex 375500.0 5916500.0 2644.10009765625
  vertex 375500.0 5915500.0 2641.89990234375
 endloop
endfacet
facet normal 0.005200112238526344 0.002200160175561905 -0.999984085559845
 outer loop
  vertex 375500.0 5916500.0 2644.10009765625
  vertex 376500.0 5915500.0 2647.10009765625
  vertex 375500.0 5915500.0 2641.89990234375
 endloop
endfacet
facet normal -0.0027999908197671175 -0.005799928680062294 -0.9999792575836182
 outer loop
  vertex 375500.0 5916500.0 2644.10009765625
  vertex 376500.0 5916500.0 2641.300048828125
  vertex 376500.0 5915500.0 2647.10009765625
 endloop
endfacet
facet normal 0.0026998957619071007 -0.005799930077046156 -0.9999794960021973
 outer loop
  vertex 376500.0 5916500.0 2641.300048828125
  vertex 377500.0 5915500.0 2649.800048828125
  vertex 376500.0 5915500.0 2647.10009765625
 endloop
endfacet
facet normal 0.0049999067559838295 -0.0034999349154531956 -0.9999814033508301
 outer loop
  vertex 376500.0 5916500.0 2641.300048828125
  vertex 377500.0 5916500.0 2646.300048828125
  vertex 377500.0 5915500.0 2649.800048828125
 endloop
endfacet
facet normal -0.004100038204342127 -0.003499949350953102 -0.9999855160713196
 outer loop
  vertex 377500.0 5916500.0 2646.300048828125
  vertex 378500.0 5915500.0 2645.699951171875
  vertex 377500.0 5915500.0 2649.800048828125
 endloop
endfacet
facet normal 0.0006999343167990446 -0.006899980362504721 -0.9999759197235107
 outer loop
  vertex 379500.0 5916500.0 2648.39990234375
  vertex 380500.0 5915500.0 2656.0
  vertex 379500.0 5915500.0 2655.300048828125
 endloop
endfacet
facet normal 0.004499932751059532 -0.003100051311776042 -0.9999850392341614
 outer loop
  vertex 379500.0 5916500.0 2648.39990234375
  vertex 380500.0 5916500.0 2652.89990234375
  vertex 380500.0 5915500.0 2656.0
 endloop
endfacet
facet normal -0.0021999352611601353 -0.0031000752933323383 -0.9999927878379822
 outer loop
  vertex 380500.0 5916500.0 2652.89990234375
  vertex 381500.0 5915500.0 2653.800048828125
  vertex 380500.0 5915500.0 2656.0
 endloop
endfacet
facet normal -0.005799577105790377 -0.006699688266962767 -0.9999607801437378
 outer loop
  vertex 380500.0 5916500.0 2652.89990234375
  vertex 381500.0 5916500.0 2647.10009765625
  vertex 381500.0 5915500.0 2653.800048828125
 endloop
endfacet
facet normal -0.009699276648461819 -0.006699485704302788 -0.9999305009841919
 outer loop
  vertex 381500.0 5916500.0 2647.10009765625
  vertex 382500.0 5915500.0 2644.10009765625
  vertex 381500.0 5915500.0 2653.800048828125
 endloop
endfacet
facet normal 0.003899779636412859 0.006899685598909855 -0.9999685883522034
 outer loop
  vertex 381500.0 5916500.0 2647.10009765625
  vertex 382500.0 5916500.0 2651.0
  vertex 382500.0 5915500.0 2644.10009765625
 endloop
endfacet
facet normal 0.0016999082872644067 0.006899727974087 -0.9999747276306152
 outer loop
  vertex 382500.0 5916500.0 2651.0
  vertex 383500.0 5915500.0 2645.800048828125
  vertex 382500.0 5915500.0 2644.10009765625
 endloop
endfacet
facet normal -0.006699793506413698 -0.0014999646227806807 -0.9999764561653137
 outer loop
  vertex 382500.0 5916500.0 2651.0
  vertex 383500.0 5916500.0 2644.300048828125
  vertex 383500.0 5915500.0 2645.800048828125
 endloop
endfacet
facet normal -0.0023000400979071856 -0.0014999944251030684 -0.9999962449073792
 outer loop
  vertex 383500.0 5916500.0 2644.300048828125
  vertex 384500.0 5915500.0 2643.5
  vertex 383500.0 5915500.0 2645.800048828125
 endloop
endfacet
facet normal 0.006599529180675745 0.0073995389975607395 -0.9999508857727051
 outer loop
  vertex 383500.0 5916500.0 2644.300048828125
  vertex 384500.0 5916500.0 2650.89990234375
  vertex 384500.0 5915500.0 2643.5
 endloop
endfacet
facet normal -0.0057997070252895355 -0.0 -0.9999831914901733
 outer loop
  vertex 380500.0 5917500.0 2652.89990234375
  vertex 381500.0 5916500.0 2647.10009765625
  vertex 380500.0 5916500.0 2652.89990234375
 endloop
endfacet
facet normal 0.006599636748433113 -0.00469979690387845 -0.9999672174453735
 outer loop
  vertex 383500.0 5917500.0 2639.60009765625
  vertex 384500.0 5916500.0 2650.89990234375
  vertex 383500.0 5916500.0 2644.300048828125
 endloop
endfacet
facet normal 0.0003998785396106541 -0.010899254120886326 -0.9999405145645142
 outer loop
  vertex 383500.0 5917500.0 2639.60009765625
  vertex 384500.0 5917500.0 2640.0
  vertex 384500.0 5916500.0 2650.89990234375
 endloop
endfacet
endsolid
