solid
facet normal 0.0022963155061006546 -0.05690747871994972 -0.9983768463134766
 outer loop
  vertex 454500.0 5476500.0 3613.0
  vertex 455500.0 5476500.0 3615.300048828125
  vertex 455500.0 5475500.0 3672.300048828125
 endloop
endfacet
facet normal -0.09373273700475693 -0.0566570870578289 -0.9939839839935303
 outer loop
  vertex 455500.0 5476500.0 3615.300048828125
  vertex 456500.0 5475500.0 3578.0
  vertex 455500.0 5475500.0 3672.300048828125
 endloop
endfacet
facet normal 0.0064936368726193905 0.04375717043876648 -0.9990211129188538
 outer loop
  vertex 455500.0 5476500.0 3615.300048828125
  vertex 456500.0 5476500.0 3621.800048828125
  vertex 456500.0 5475500.0 3578.0
 endloop
endfacet
facet normal 0.013286134228110313 0.04375423118472099 -0.9989539980888367
 outer loop
  vertex 456500.0 5476500.0 3621.800048828125
  vertex 457500.0 5475500.0 3591.300048828125
  vertex 456500.0 5475500.0 3578.0
 endloop
endfacet
facet normal -0.03946762531995773 -0.008992623537778854 -0.9991804361343384
 outer loop
  vertex 456500.0 5476500.0 3621.800048828125
  vertex 457500.0 5476500.0 3582.300048828125
  vertex 457500.0 5475500.0 3591.300048828125
 endloop
endfacet
facet normal -0.02229360304772854 -0.008997398428618908 -0.9997109770774841
 outer loop
  vertex 457500.0 5476500.0 3582.300048828125
  vertex 458500.0 5475500.0 3569.0
  vertex 457500.0 5475500.0 3591.300048828125
 endloop
endfacet
facet normal 0.01289440505206585 0.026188787072896957 -0.9995738863945007
 outer loop
  vertex 457500.0 5476500.0 3582.300048828125
  vertex 458500.0 5476500.0 3595.199951171875
  vertex 458500.0 5475500.0 3569.0
 endloop
endfacet
facet normal 0.0022999909706413746 0.00669978279620409 -0.9999748468399048
 outer loop
  vertex 454500.0 5477500.0 3619.699951171875
  vertex 455500.0 5476500.0 3615.300048828125
  vertex 454500.0 5476500.0 3613.0
 endloop
endfacet
facet normal -0.0038000207860022783 0.0005998490960337222 -0.9999926090240479
 outer loop
  vertex 454500.0 5477500.0 3619.699951171875
  vertex 455500.0 5477500.0 3615.89990234375
  vertex 455500.0 5476500.0 3615.300048828125
 endloop
endfacet
facet normal 0.006499861367046833 0.0005998407141305506 -0.9999786615371704
 outer loop
  vertex 455500.0 5477500.0 3615.89990234375
  vertex 456500.0 5476500.0 3621.800048828125
  vertex 455500.0 5476500.0 3615.300048828125
 endloop
endfacet
facet normal 0.009999415837228298 0.0040996139869093895 -0.9999416470527649
 outer loop
  vertex 455500.0 5477500.0 3615.89990234375
  vertex 456500.0 5477500.0 3625.89990234375
  vertex 456500.0 5476500.0 3621.800048828125
 endloop
endfacet
facet normal -0.03946889191865921 0.004096624441444874 -0.9992124438285828
 outer loop
  vertex 456500.0 5477500.0 3625.89990234375
  vertex 457500.0 5476500.0 3582.300048828125
  vertex 456500.0 5476500.0 3621.800048828125
 endloop
endfacet
facet normal -0.027086224406957626 0.01649169996380806 -0.9994970560073853
 outer loop
  vertex 456500.0 5477500.0 3625.89990234375
  vertex 457500.0 5477500.0 3598.800048828125
  vertex 457500.0 5476500.0 3582.300048828125
 endloop
endfacet
facet normal 0.012897074222564697 0.016496382653713226 -0.9997807145118713
 outer loop
  vertex 457500.0 5477500.0 3598.800048828125
  vertex 458500.0 5476500.0 3595.199951171875
  vertex 457500.0 5476500.0 3582.300048828125
 endloop
endfacet
facet normal 0.009398693218827248 0.012998327612876892 -0.9998713135719299
 outer loop
  vertex 457500.0 5477500.0 3598.800048828125
  vertex 458500.0 5477500.0 3608.199951171875
  vertex 458500.0 5476500.0 3595.199951171875
 endloop
endfacet
facet normal -0.023091740906238556 0.012995434924960136 -0.9996488690376282
 outer loop
  vertex 458500.0 5477500.0 3608.199951171875
  vertex 459500.0 5476500.0 3572.10009765625
  vertex 458500.0 5476500.0 3595.199951171875
 endloop
endfacet
facet normal -0.04011235758662224 -0.0523856021463871 -0.997821033000946
 outer loop
  vertex 453500.0 5478500.0 3607.39990234375
  vertex 454500.0 5478500.0 3567.199951171875
  vertex 454500.0 5477500.0 3619.699951171875
 endloop
endfacet
facet normal -0.0037947935052216053 -0.052427422255277634 -0.9986175298690796
 outer loop
  vertex 454500.0 5478500.0 3567.199951171875
  vertex 455500.0 5477500.0 3615.89990234375
  vertex 454500.0 5477500.0 3619.699951171875
 endloop
endfacet
facet normal -0.033765580505132675 -0.08227257430553436 -0.9960377216339111
 outer loop
  vertex 454500.0 5478500.0 3567.199951171875
  vertex 455500.0 5478500.0 3533.300048828125
  vertex 455500.0 5477500.0 3615.89990234375
 endloop
endfacet
facet normal 0.00996556505560875 -0.08231541514396667 -0.9965564608573914
 outer loop
  vertex 455500.0 5478500.0 3533.300048828125
  vertex 456500.0 5477500.0 3625.89990234375
  vertex 455500.0 5477500.0 3615.89990234375
 endloop
endfacet
facet normal 0.07795390486717224 -0.014354591257870197 -0.9968535900115967
 outer loop
  vertex 455500.0 5478500.0 3533.300048828125
  vertex 456500.0 5478500.0 3611.5
  vertex 456500.0 5477500.0 3625.89990234375
 endloop
endfacet
facet normal -0.027087101712822914 -0.014393126592040062 -0.9995294809341431
 outer loop
  vertex 456500.0 5478500.0 3611.5
  vertex 457500.0 5477500.0 3598.800048828125
  vertex 456500.0 5477500.0 3625.89990234375
 endloop
endfacet
facet normal -0.005099884234368801 0.007599535398185253 -0.9999580979347229
 outer loop
  vertex 456500.0 5478500.0 3611.5
  vertex 457500.0 5478500.0 3606.39990234375
  vertex 457500.0 5477500.0 3598.800048828125
 endloop
endfacet
facet normal 0.009399215690791607 0.0075992983765900135 -0.9999269247055054
 outer loop
  vertex 457500.0 5478500.0 3606.39990234375
  vertex 458500.0 5477500.0 3608.199951171875
  vertex 457500.0 5477500.0 3598.800048828125
 endloop
endfacet
facet normal -0.018992464989423752 -0.02079179883003235 -0.9996033906936646
 outer loop
  vertex 457500.0 5478500.0 3606.39990234375
  vertex 458500.0 5478500.0 3587.39990234375
  vertex 458500.0 5477500.0 3608.199951171875
 endloop
endfacet
facet normal -0.00029980408726260066 -0.001999995904043317 -0.9999979734420776
 outer loop
  vertex 449500.0 5479500.0 3603.39990234375
  vertex 450500.0 5479500.0 3603.10009765625
  vertex 450500.0 5478500.0 3605.10009765625
 endloop
endfacet
facet normal -0.03345620259642601 -0.03864935785531998 -0.9986925721168518
 outer loop
  vertex 452500.0 5479500.0 3602.199951171875
  vertex 453500.0 5479500.0 3568.699951171875
  vertex 453500.0 5478500.0 3607.39990234375
 endloop
endfacet
facet normal -0.04013751074671745 -0.038639843463897705 -0.9984467029571533
 outer loop
  vertex 453500.0 5479500.0 3568.699951171875
  vertex 454500.0 5478500.0 3567.199951171875
  vertex 453500.0 5478500.0 3607.39990234375
 endloop
endfacet
facet normal -0.015296801924705505 -0.013797120191156864 -0.9997878074645996
 outer loop
  vertex 453500.0 5479500.0 3568.699951171875
  vertex 454500.0 5479500.0 3553.39990234375
  vertex 454500.0 5478500.0 3567.199951171875
 endloop
endfacet
facet normal -0.03387722000479698 -0.013790815137326717 -0.9993308782577515
 outer loop
  vertex 454500.0 5479500.0 3553.39990234375
  vertex 455500.0 5478500.0 3533.300048828125
  vertex 454500.0 5478500.0 3567.199951171875
 endloop
endfacet
facet normal 0.016187410801649094 0.03627140074968338 -0.9992108941078186
 outer loop
  vertex 454500.0 5479500.0 3553.39990234375
  vertex 455500.0 5479500.0 3569.60009765625
  vertex 455500.0 5478500.0 3533.300048828125
 endloop
endfacet
facet normal 0.07791093736886978 0.036165885627269745 -0.9963041543960571
 outer loop
  vertex 455500.0 5479500.0 3569.60009765625
  vertex 456500.0 5478500.0 3611.5
  vertex 455500.0 5478500.0 3533.300048828125
 endloop
endfacet
facet normal 0.0027976559940725565 -0.03907008841633797 -0.9992325305938721
 outer loop
  vertex 455500.0 5479500.0 3569.60009765625
  vertex 456500.0 5479500.0 3572.39990234375
  vertex 456500.0 5478500.0 3611.5
 endloop
endfacet
facet normal -0.005096137523651123 -0.03906973451375961 -0.9992234706878662
 outer loop
  vertex 456500.0 5479500.0 3572.39990234375
  vertex 457500.0 5478500.0 3606.39990234375
  vertex 456500.0 5478500.0 3611.5
 endloop
endfacet
facet normal -0.01607760787010193 -0.050030626356601715 -0.9986183047294617
 outer loop
  vertex 456500.0 5479500.0 3572.39990234375
  vertex 457500.0 5479500.0 3556.300048828125
  vertex 457500.0 5478500.0 3606.39990234375
 endloop
endfacet
facet normal -0.01897278241813183 -0.050028085708618164 -0.9985675811767578
 outer loop
  vertex 457500.0 5479500.0 3556.300048828125
  vertex 458500.0 5478500.0 3587.39990234375
  vertex 457500.0 5478500.0 3606.39990234375
 endloop
endfacet
facet normal 0.028788037598133087 -0.0022988454438745975 -0.9995829463005066
 outer loop
  vertex 457500.0 5479500.0 3556.300048828125
  vertex 458500.0 5479500.0 3585.10009765625
  vertex 458500.0 5478500.0 3587.39990234375
 endloop
endfacet
facet normal -0.03637571632862091 -0.002298276638612151 -0.9993355870246887
 outer loop
  vertex 458500.0 5479500.0 3585.10009765625
  vertex 459500.0 5478500.0 3551.0
  vertex 458500.0 5478500.0 3587.39990234375
 endloop
endfacet
facet normal 0.018870053812861443 0.05291629582643509 -0.9984207153320312
 outer loop
  vertex 458500.0 5479500.0 3585.10009765625
  vertex 459500.0 5479500.0 3604.0
  vertex 459500.0 5478500.0 3551.0
 endloop
endfacet
facet normal -0.00029980388353578746 -0.002299798419699073 -0.9999973177909851
 outer loop
  vertex 449500.0 5480500.0 3601.10009765625
  vertex 450500.0 5479500.0 3603.10009765625
  vertex 449500.0 5479500.0 3603.39990234375
 endloop
endfacet
facet normal 0.019992763176560402 0.017993487417697906 -0.9996381998062134
 outer loop
  vertex 449500.0 5480500.0 3601.10009765625
  vertex 450500.0 5480500.0 3621.10009765625
  vertex 450500.0 5479500.0 3603.10009765625
 endloop
endfacet
facet normal 0.006698715500533581 0.01799667999148369 -0.9998155832290649
 outer loop
  vertex 450500.0 5480500.0 3621.10009765625
  vertex 451500.0 5479500.0 3609.800048828125
  vertex 450500.0 5479500.0 3603.10009765625
 endloop
endfacet
facet normal -0.019995244219899178 -0.008697882294654846 -0.999762237071991
 outer loop
  vertex 450500.0 5480500.0 3621.10009765625
  vertex 451500.0 5480500.0 3601.10009765625
  vertex 451500.0 5479500.0 3609.800048828125
 endloop
endfacet
facet normal -0.007599590811878443 -0.008699371479451656 -0.9999333024024963
 outer loop
  vertex 451500.0 5480500.0 3601.10009765625
  vertex 452500.0 5479500.0 3602.199951171875
  vertex 451500.0 5479500.0 3609.800048828125
 endloop
endfacet
facet normal 0.003799763275310397 0.00269992183893919 -0.9999891519546509
 outer loop
  vertex 451500.0 5480500.0 3601.10009765625
  vertex 452500.0 5480500.0 3604.89990234375
  vertex 452500.0 5479500.0 3602.199951171875
 endloop
endfacet
facet normal -0.03348109498620033 0.0026984275318682194 -0.9994357228279114
 outer loop
  vertex 452500.0 5480500.0 3604.89990234375
  vertex 453500.0 5479500.0 3568.699951171875
  vertex 452500.0 5479500.0 3602.199951171875
 endloop
endfacet
facet normal 0.07120374590158463 0.10710305720567703 -0.991694986820221
 outer loop
  vertex 452500.0 5480500.0 3604.89990234375
  vertex 453500.0 5480500.0 3676.699951171875
  vertex 453500.0 5479500.0 3568.699951171875
 endloop
endfacet
facet normal -0.015209830366075039 0.10736317932605743 -0.9941035509109497
 outer loop
  vertex 453500.0 5480500.0 3676.699951171875
  vertex 454500.0 5479500.0 3553.39990234375
  vertex 453500.0 5479500.0 3568.699951171875
 endloop
endfacet
facet normal -0.12540151178836823 -0.003075374523177743 -0.9921013116836548
 outer loop
  vertex 453500.0 5480500.0 3676.699951171875
  vertex 454500.0 5480500.0 3550.300048828125
  vertex 454500.0 5479500.0 3553.39990234375
 endloop
endfacet
facet normal 0.016197992488741875 -0.0030994319822639227 -0.9998640418052673
 outer loop
  vertex 454500.0 5480500.0 3550.300048828125
  vertex 455500.0 5479500.0 3569.60009765625
  vertex 454500.0 5479500.0 3553.39990234375
 endloop
endfacet
facet normal 0.011298966594040394 -0.007999233901500702 -0.999904215335846
 outer loop
  vertex 454500.0 5480500.0 3550.300048828125
  vertex 455500.0 5480500.0 3561.60009765625
  vertex 455500.0 5479500.0 3569.60009765625
 endloop
endfacet
facet normal 0.002799703972414136 -0.007999712601304054 -0.9999640583992004
 outer loop
  vertex 455500.0 5480500.0 3561.60009765625
  vertex 456500.0 5479500.0 3572.39990234375
  vertex 455500.0 5479500.0 3569.60009765625
 endloop
endfacet
facet normal 0.005799634847790003 -0.004999853670597076 -0.9999706745147705
 outer loop
  vertex 455500.0 5480500.0 3561.60009765625
  vertex 456500.0 5480500.0 3567.39990234375
  vertex 456500.0 5479500.0 3572.39990234375
 endloop
endfacet
facet normal -0.01609756611287594 -0.0049992892891168594 -0.9998579025268555
 outer loop
  vertex 456500.0 5480500.0 3567.39990234375
  vertex 457500.0 5479500.0 3556.300048828125
  vertex 456500.0 5479500.0 3572.39990234375
 endloop
endfacet
facet normal 0.0032996886875480413 0.014398330822587013 -0.9998908638954163
 outer loop
  vertex 456500.0 5480500.0 3567.39990234375
  vertex 457500.0 5480500.0 3570.699951171875
  vertex 457500.0 5479500.0 3556.300048828125
 endloop
endfacet
facet normal 0.028785130009055138 0.014392443001270294 -0.9994820356369019
 outer loop
  vertex 457500.0 5480500.0 3570.699951171875
  vertex 458500.0 5479500.0 3585.10009765625
  vertex 457500.0 5479500.0 3556.300048828125
 endloop
endfacet
facet normal 0.007499610539525747 -0.006899788044393063 -0.9999480843544006
 outer loop
  vertex 457500.0 5480500.0 3570.699951171875
  vertex 458500.0 5480500.0 3578.199951171875
  vertex 458500.0 5479500.0 3585.10009765625
 endloop
endfacet
facet normal 0.018896078690886497 -0.006898750551044941 -0.9997976422309875
 outer loop
  vertex 458500.0 5480500.0 3578.199951171875
  vertex 459500.0 5479500.0 3604.0
  vertex 458500.0 5479500.0 3585.10009765625
 endloop
endfacet
facet normal 0.016097255051136017 -0.009698238223791122 -0.9998233914375305
 outer loop
  vertex 458500.0 5480500.0 3578.199951171875
  vertex 459500.0 5480500.0 3594.300048828125
  vertex 459500.0 5479500.0 3604.0
 endloop
endfacet
facet normal -0.03208206221461296 -0.009694501757621765 -0.9994381666183472
 outer loop
  vertex 459500.0 5480500.0 3594.300048828125
  vertex 460500.0 5479500.0 3571.89990234375
  vertex 459500.0 5479500.0 3604.0
 endloop
endfacet
facet normal 0.0037997704930603504 -0.0019001293694600463 -0.9999909996986389
 outer loop
  vertex 451500.0 5481500.0 3599.199951171875
  vertex 452500.0 5480500.0 3604.89990234375
  vertex 451500.0 5480500.0 3601.10009765625
 endloop
endfacet
facet normal 0.006199831608682871 0.000499990361277014 -0.9999806880950928
 outer loop
  vertex 451500.0 5481500.0 3599.199951171875
  vertex 452500.0 5481500.0 3605.39990234375
  vertex 452500.0 5480500.0 3604.89990234375
 endloop
endfacet
facet normal 0.07161567360162735 0.0004987160791642964 -0.9974321722984314
 outer loop
  vertex 452500.0 5481500.0 3605.39990234375
  vertex 453500.0 5480500.0 3676.699951171875
  vertex 452500.0 5480500.0 3604.89990234375
 endloop
endfacet
facet normal 0.0013967370614409447 -0.06972968578338623 -0.997564971446991
 outer loop
  vertex 452500.0 5481500.0 3605.39990234375
  vertex 453500.0 5481500.0 3606.800048828125
  vertex 453500.0 5480500.0 3676.699951171875
 endloop
endfacet
facet normal -0.12510164082050323 -0.06918196380138397 -0.9897289872169495
 outer loop
  vertex 453500.0 5481500.0 3606.800048828125
  vertex 454500.0 5480500.0 3550.300048828125
  vertex 453500.0 5480500.0 3676.699951171875
 endloop
endfacet
facet normal -0.03866489231586456 0.017783919349312782 -0.9990940093994141
 outer loop
  vertex 453500.0 5481500.0 3606.800048828125
  vertex 454500.0 5481500.0 3568.10009765625
  vertex 454500.0 5480500.0 3550.300048828125
 endloop
endfacet
facet normal 0.011297537945210934 0.017796093598008156 -0.9997777938842773
 outer loop
  vertex 454500.0 5481500.0 3568.10009765625
  vertex 455500.0 5480500.0 3561.60009765625
  vertex 454500.0 5480500.0 3550.300048828125
 endloop
endfacet
facet normal -0.009899604134261608 -0.003399960231035948 -0.9999451637268066
 outer loop
  vertex 454500.0 5481500.0 3568.10009765625
  vertex 455500.0 5481500.0 3558.199951171875
  vertex 455500.0 5480500.0 3561.60009765625
 endloop
endfacet
facet normal 0.005799673497676849 -0.003400069661438465 -0.9999773502349854
 outer loop
  vertex 455500.0 5481500.0 3558.199951171875
  vertex 456500.0 5480500.0 3567.39990234375
  vertex 455500.0 5480500.0 3561.60009765625
 endloop
endfacet
facet normal 0.019595274701714516 0.010397586971521378 -0.9997539520263672
 outer loop
  vertex 455500.0 5481500.0 3558.199951171875
  vertex 456500.0 5481500.0 3577.800048828125
  vertex 456500.0 5480500.0 3567.39990234375
 endloop
endfacet
facet normal 0.00329985236749053 0.010399526916444302 -0.9999404549598694
 outer loop
  vertex 456500.0 5481500.0 3577.800048828125
  vertex 457500.0 5480500.0 3570.699951171875
  vertex 456500.0 5480500.0 3567.39990234375
 endloop
endfacet
facet normal -0.0031999105121940374 0.003900096984580159 -0.9999873042106628
 outer loop
  vertex 456500.0 5481500.0 3577.800048828125
  vertex 457500.0 5481500.0 3574.60009765625
  vertex 457500.0 5480500.0 3570.699951171875
 endloop
endfacet
facet normal 0.007499732542783022 0.0039000073447823524 -0.9999642968177795
 outer loop
  vertex 457500.0 5481500.0 3574.60009765625
  vertex 458500.0 5480500.0 3578.199951171875
  vertex 457500.0 5480500.0 3570.699951171875
 endloop
endfacet
facet normal 0.0024999906308948994 -0.0010998493526130915 -0.9999962449073792
 outer loop
  vertex 457500.0 5481500.0 3574.60009765625
  vertex 458500.0 5481500.0 3577.10009765625
  vertex 458500.0 5480500.0 3578.199951171875
 endloop
endfacet
facet normal 0.01609800197184086 -0.0010997103527188301 -0.9998698234558105
 outer loop
  vertex 458500.0 5481500.0 3577.10009765625
  vertex 459500.0 5480500.0 3594.300048828125
  vertex 458500.0 5480500.0 3578.199951171875
 endloop
endfacet
facet normal -0.03867044299840927 -0.0053960285149514675 -0.9992374777793884
 outer loop
  vertex 453500.0 5482500.0 3601.39990234375
  vertex 454500.0 5481500.0 3568.10009765625
  vertex 453500.0 5481500.0 3606.800048828125
 endloop
endfacet
facet normal -0.04883561655879021 -0.01557958871126175 -0.998685359954834
 outer loop
  vertex 453500.0 5482500.0 3601.39990234375
  vertex 454500.0 5482500.0 3552.5
  vertex 454500.0 5481500.0 3568.10009765625
 endloop
endfacet
facet normal -0.009898456744849682 -0.015597435645759106 -0.9998293519020081
 outer loop
  vertex 454500.0 5482500.0 3552.5
  vertex 455500.0 5481500.0 3558.199951171875
  vertex 454500.0 5481500.0 3568.10009765625
 endloop
endfacet
facet normal 0.032969776540994644 0.027275044471025467 -0.9990841150283813
 outer loop
  vertex 454500.0 5482500.0 3552.5
  vertex 455500.0 5482500.0 3585.5
  vertex 455500.0 5481500.0 3558.199951171875
 endloop
endfacet
facet normal 0.01958903856575489 0.027284644544124603 -0.9994357824325562
 outer loop
  vertex 455500.0 5482500.0 3585.5
  vertex 456500.0 5481500.0 3577.800048828125
  vertex 455500.0 5481500.0 3558.199951171875
 endloop
endfacet
facet normal -0.035862550139427185 -0.028170611709356308 -0.9989596009254456
 outer loop
  vertex 455500.0 5482500.0 3585.5
  vertex 456500.0 5482500.0 3549.60009765625
  vertex 456500.0 5481500.0 3577.800048828125
 endloop
endfacet
facet normal -0.00319866300560534 -0.02818859927356243 -0.9995974898338318
 outer loop
  vertex 456500.0 5482500.0 3549.60009765625
  vertex 457500.0 5481500.0 3574.60009765625
  vertex 456500.0 5481500.0 3577.800048828125
 endloop
endfacet
facet normal 0.02129482850432396 -0.003699330845847726 -0.9997663497924805
 outer loop
  vertex 456500.0 5482500.0 3549.60009765625
  vertex 457500.0 5482500.0 3570.89990234375
  vertex 457500.0 5481500.0 3574.60009765625
 endloop
endfacet
facet normal 0.002499975264072418 -0.0037001585587859154 -0.9999900460243225
 outer loop
  vertex 457500.0 5482500.0 3570.89990234375
  vertex 458500.0 5481500.0 3577.10009765625
  vertex 457500.0 5481500.0 3574.60009765625
 endloop
endfacet
facet normal 0.025087716057896614 0.018890580162405968 -0.9995067715644836
 outer loop
  vertex 457500.0 5482500.0 3570.89990234375
  vertex 458500.0 5482500.0 3596.0
  vertex 458500.0 5481500.0 3577.10009765625
 endloop
endfacet
facet normal 0.03297750651836395 -0.016588782891631126 -0.9993184208869934
 outer loop
  vertex 454500.0 5483500.0 3535.89990234375
  vertex 455500.0 5482500.0 3585.5
  vertex 454500.0 5482500.0 3552.5
 endloop
endfacet
facet normal 0.025384528562426567 -0.024185070767998695 -0.9993851184844971
 outer loop
  vertex 454500.0 5483500.0 3535.89990234375
  vertex 455500.0 5483500.0 3561.300048828125
  vertex 455500.0 5482500.0 3585.5
 endloop
endfacet
facet normal -0.035866301506757736 -0.024177301675081253 -0.9990640878677368
 outer loop
  vertex 455500.0 5483500.0 3561.300048828125
  vertex 456500.0 5482500.0 3549.60009765625
  vertex 455500.0 5482500.0 3585.5
 endloop
endfacet
facet normal 9.984656207961962e-05 0.011798983439803123 -0.9999303817749023
 outer loop
  vertex 455500.0 5483500.0 3561.300048828125
  vertex 456500.0 5483500.0 3561.39990234375
  vertex 456500.0 5482500.0 3549.60009765625
 endloop
endfacet
facet normal 0.02129349298775196 0.011796308681368828 -0.9997037053108215
 outer loop
  vertex 456500.0 5483500.0 3561.39990234375
  vertex 457500.0 5482500.0 3570.89990234375
  vertex 456500.0 5482500.0 3549.60009765625
 endloop
endfacet
facet normal 0.04502583667635918 0.03554147854447365 -0.9983534216880798
 outer loop
  vertex 456500.0 5483500.0 3561.39990234375
  vertex 457500.0 5483500.0 3606.5
  vertex 457500.0 5482500.0 3570.89990234375
 endloop
endfacet
facet normal 0.02507631853222847 0.03556637093424797 -0.9990526437759399
 outer loop
  vertex 457500.0 5483500.0 3606.5
  vertex 458500.0 5482500.0 3596.0
  vertex 457500.0 5482500.0 3570.89990234375
 endloop
endfacet
facet normal -0.008899538777768612 0.0016000322066247463 -0.9999591112136841
 outer loop
  vertex 457500.0 5483500.0 3606.5
  vertex 458500.0 5483500.0 3597.60009765625
  vertex 458500.0 5482500.0 3596.0
 endloop
endfacet
facet normal 0.02539108134806156 0.0082970866933465 -0.9996431469917297
 outer loop
  vertex 454500.0 5484500.0 3544.199951171875
  vertex 455500.0 5483500.0 3561.300048828125
  vertex 454500.0 5483500.0 3535.89990234375
 endloop
endfacet
facet normal 0.023293279111385345 0.006198149640113115 -0.9997094869613647
 outer loop
  vertex 454500.0 5484500.0 3544.199951171875
  vertex 455500.0 5484500.0 3567.5
  vertex 455500.0 5483500.0 3561.300048828125
 endloop
endfacet
facet normal 9.985159704228863e-05 0.006199831608682871 -0.9999807476997375
 outer loop
  vertex 455500.0 5484500.0 3567.5
  vertex 456500.0 5483500.0 3561.39990234375
  vertex 455500.0 5483500.0 3561.300048828125
 endloop
endfacet
facet normal -0.0021000762935727835 0.003999959211796522 -0.9999898076057434
 outer loop
  vertex 455500.0 5484500.0 3567.5
  vertex 456500.0 5484500.0 3565.39990234375
  vertex 456500.0 5483500.0 3561.39990234375
 endloop
endfacet
facet normal 0.04505394026637077 0.003995906095951796 -0.9989765286445618
 outer loop
  vertex 456500.0 5484500.0 3565.39990234375
  vertex 457500.0 5483500.0 3606.5
  vertex 456500.0 5483500.0 3561.39990234375
 endloop
endfacet
facet normal 0.027187513187527657 -0.013893421739339828 -0.9995337724685669
 outer loop
  vertex 456500.0 5484500.0 3565.39990234375
  vertex 457500.0 5484500.0 3592.60009765625
  vertex 457500.0 5483500.0 3606.5
 endloop
endfacet
facet normal -0.008898690342903137 -0.013898009434342384 -0.9998638033866882
 outer loop
  vertex 457500.0 5484500.0 3592.60009765625
  vertex 458500.0 5483500.0 3597.60009765625
  vertex 457500.0 5483500.0 3606.5
 endloop
endfacet
facet normal -0.06598801910877228 -0.07096449285745621 -0.9952937364578247
 outer loop
  vertex 457500.0 5484500.0 3592.60009765625
  vertex 458500.0 5484500.0 3526.300048828125
  vertex 458500.0 5483500.0 3597.60009765625
 endloop
endfacet
facet normal 0.023292886093258858 0.008497387170791626 -0.9996926188468933
 outer loop
  vertex 454500.0 5485500.0 3552.699951171875
  vertex 455500.0 5484500.0 3567.5
  vertex 454500.0 5484500.0 3544.199951171875
 endloop
endfacet
facet normal 0.028685370460152626 0.013892840594053268 -0.9994919300079346
 outer loop
  vertex 454500.0 5485500.0 3552.699951171875
  vertex 455500.0 5485500.0 3581.39990234375
  vertex 455500.0 5484500.0 3567.5
 endloop
endfacet
facet normal -0.002099890261888504 0.01389852911233902 -0.9999011754989624
 outer loop
  vertex 455500.0 5485500.0 3581.39990234375
  vertex 456500.0 5484500.0 3565.39990234375
  vertex 455500.0 5484500.0 3567.5
 endloop
endfacet
facet normal -0.0119990399107337 0.0039996798150241375 -0.9999200105667114
 outer loop
  vertex 455500.0 5485500.0 3581.39990234375
  vertex 456500.0 5485500.0 3569.39990234375
  vertex 456500.0 5484500.0 3565.39990234375
 endloop
endfacet
facet normal 0.02718992345035076 0.003998489119112492 -0.9996223449707031
 outer loop
  vertex 456500.0 5485500.0 3569.39990234375
  vertex 457500.0 5484500.0 3592.60009765625
  vertex 456500.0 5484500.0 3565.39990234375
 endloop
endfacet
facet normal 0.025991113856434822 0.0027988478541374207 -0.9996582269668579
 outer loop
  vertex 456500.0 5485500.0 3569.39990234375
  vertex 457500.0 5485500.0 3595.39990234375
  vertex 457500.0 5484500.0 3592.60009765625
 endloop
endfacet
facet normal -0.06615454703569412 0.0027936603873968124 -0.9978054761886597
 outer loop
  vertex 457500.0 5485500.0 3595.39990234375
  vertex 458500.0 5484500.0 3526.300048828125
  vertex 457500.0 5484500.0 3592.60009765625
 endloop
endfacet
facet normal -0.011992687359452248 -0.032779816538095474 -0.9993906021118164
 outer loop
  vertex 455500.0 5486500.0 3548.60009765625
  vertex 456500.0 5485500.0 3569.39990234375
  vertex 455500.0 5485500.0 3581.39990234375
 endloop
endfacet
facet normal 0.015797635540366173 -0.0049993135035037994 -0.9998627305030823
 outer loop
  vertex 455500.0 5486500.0 3548.60009765625
  vertex 456500.0 5486500.0 3564.39990234375
  vertex 456500.0 5485500.0 3569.39990234375
 endloop
endfacet
facet normal 0.025990892201662064 -0.004998248536139727 -0.999649703502655
 outer loop
  vertex 456500.0 5486500.0 3564.39990234375
  vertex 457500.0 5485500.0 3595.39990234375
  vertex 456500.0 5485500.0 3569.39990234375
 endloop
endfacet
facet normal 0.0027989251539111137 -0.028188634663820267 -0.9995987415313721
 outer loop
  vertex 456500.0 5486500.0 3564.39990234375
  vertex 457500.0 5486500.0 3567.199951171875
  vertex 457500.0 5485500.0 3595.39990234375
 endloop
endfacet
facet normal 0.015766583383083344 0.06286753714084625 -0.9978973865509033
 outer loop
  vertex 455500.0 5487500.0 3611.60009765625
  vertex 456500.0 5486500.0 3564.39990234375
  vertex 455500.0 5486500.0 3548.60009765625
 endloop
endfacet
facet normal -0.05421881005167961 -0.007089229766279459 -0.9985039234161377
 outer loop
  vertex 455500.0 5487500.0 3611.60009765625
  vertex 456500.0 5487500.0 3557.300048828125
  vertex 456500.0 5486500.0 3564.39990234375
 endloop
endfacet
facet normal 0.0027999673038721085 -0.007099646609276533 -0.9999708533287048
 outer loop
  vertex 456500.0 5487500.0 3557.300048828125
  vertex 457500.0 5486500.0 3567.199951171875
  vertex 456500.0 5486500.0 3564.39990234375
 endloop
endfacet
endsolid
