solid
facet normal -0.13884180784225464 -0.0018815015209838748 -0.9903128147125244
 outer loop
  vertex 606500.0 5959500.0 2818.5
  vertex 607500.0 5959500.0 2678.300048828125
  vertex 607500.0 5958500.0 2680.199951171875
 endloop
endfacet
facet normal -0.02159450203180313 -0.0053985645063221455 -0.9997522234916687
 outer loop
  vertex 604500.0 5960500.0 2835.699951171875
  vertex 605500.0 5960500.0 2814.10009765625
  vertex 605500.0 5959500.0 2819.5
 endloop
endfacet
facet normal -0.0009999849135056138 -0.005399820860475302 -0.9999849200248718
 outer loop
  vertex 605500.0 5960500.0 2814.10009765625
  vertex 606500.0 5959500.0 2818.5
  vertex 605500.0 5959500.0 2819.5
 endloop
endfacet
facet normal -0.0018000113777816296 -0.006199822295457125 -0.9999791979789734
 outer loop
  vertex 605500.0 5960500.0 2814.10009765625
  vertex 606500.0 5960500.0 2812.300048828125
  vertex 606500.0 5959500.0 2818.5
 endloop
endfacet
facet normal -0.13883942365646362 -0.0061397859826684 -0.9902958273887634
 outer loop
  vertex 606500.0 5960500.0 2812.300048828125
  vertex 607500.0 5959500.0 2678.300048828125
  vertex 606500.0 5959500.0 2818.5
 endloop
endfacet
facet normal -0.10280417650938034 0.0304234828799963 -0.9942362904548645
 outer loop
  vertex 606500.0 5960500.0 2812.300048828125
  vertex 607500.0 5960500.0 2708.89990234375
  vertex 607500.0 5959500.0 2678.300048828125
 endloop
endfacet
facet normal -0.0017985912272706628 -0.040167685598134995 -0.9991913437843323
 outer loop
  vertex 605500.0 5961500.0 2773.89990234375
  vertex 606500.0 5960500.0 2812.300048828125
  vertex 605500.0 5960500.0 2814.10009765625
 endloop
endfacet
facet normal 0.028986534103751183 -0.009395783767104149 -0.9995356798171997
 outer loop
  vertex 605500.0 5961500.0 2773.89990234375
  vertex 606500.0 5961500.0 2802.89990234375
  vertex 606500.0 5960500.0 2812.300048828125
 endloop
endfacet
facet normal -0.10284729301929474 -0.009349886327981949 -0.9946532249450684
 outer loop
  vertex 606500.0 5961500.0 2802.89990234375
  vertex 607500.0 5960500.0 2708.89990234375
  vertex 606500.0 5960500.0 2812.300048828125
 endloop
endfacet
facet normal 0.017092330381274223 0.11050283908843994 -0.9937288165092468
 outer loop
  vertex 606500.0 5961500.0 2802.89990234375
  vertex 607500.0 5961500.0 2820.10009765625
  vertex 607500.0 5960500.0 2708.89990234375
 endloop
endfacet
facet normal 0.029703866690397263 0.11047021299600601 -0.9934354424476624
 outer loop
  vertex 607500.0 5961500.0 2820.10009765625
  vertex 608500.0 5960500.0 2738.800048828125
  vertex 607500.0 5960500.0 2708.89990234375
 endloop
endfacet
facet normal -0.022633027285337448 0.01075663324445486 -0.9996860027313232
 outer loop
  vertex 609500.0 5961500.0 2814.60009765625
  vertex 610500.0 5961500.0 2791.9599609375
  vertex 610500.0 5960500.0 2781.199951171875
 endloop
endfacet
facet normal -0.02768772840499878 0.010755262337625027 -0.9995587468147278
 outer loop
  vertex 610500.0 5961500.0 2791.9599609375
  vertex 611500.0 5960500.0 2753.5
  vertex 610500.0 5960500.0 2781.199951171875
 endloop
endfacet
facet normal 0.006433326285332441 0.044853780418634415 -0.9989728331565857
 outer loop
  vertex 610500.0 5961500.0 2791.9599609375
  vertex 611500.0 5961500.0 2798.39990234375
  vertex 611500.0 5960500.0 2753.5
 endloop
endfacet
facet normal 0.02898525260388851 0.013293284922838211 -0.9994914531707764
 outer loop
  vertex 605500.0 5962500.0 2787.199951171875
  vertex 606500.0 5961500.0 2802.89990234375
  vertex 605500.0 5961500.0 2773.89990234375
 endloop
endfacet
facet normal -0.1062837615609169 -0.12177726626396179 -0.9868505597114563
 outer loop
  vertex 605500.0 5962500.0 2787.199951171875
  vertex 606500.0 5962500.0 2679.5
  vertex 606500.0 5961500.0 2802.89990234375
 endloop
endfacet
facet normal 0.01706821843981743 -0.12245312333106995 -0.9923275113105774
 outer loop
  vertex 606500.0 5962500.0 2679.5
  vertex 607500.0 5961500.0 2820.10009765625
  vertex 606500.0 5961500.0 2802.89990234375
 endloop
endfacet
facet normal 0.13757888972759247 -0.001684017712250352 -0.9904893636703491
 outer loop
  vertex 606500.0 5962500.0 2679.5
  vertex 607500.0 5962500.0 2818.39990234375
  vertex 607500.0 5961500.0 2820.10009765625
 endloop
endfacet
facet normal 0.00439399154856801 -0.051630739122629166 -0.9986565709114075
 outer loop
  vertex 608500.0 5962500.0 2758.5
  vertex 609500.0 5962500.0 2762.89990234375
  vertex 609500.0 5961500.0 2814.60009765625
 endloop
endfacet
facet normal -0.022604161873459816 -0.05161804333329201 -0.9984109997749329
 outer loop
  vertex 609500.0 5962500.0 2762.89990234375
  vertex 610500.0 5961500.0 2791.9599609375
  vertex 609500.0 5961500.0 2814.60009765625
 endloop
endfacet
facet normal -0.0005695741856470704 -0.029616881161928177 -0.9995611906051636
 outer loop
  vertex 609500.0 5962500.0 2762.89990234375
  vertex 610500.0 5962500.0 2762.330078125
  vertex 610500.0 5961500.0 2791.9599609375
 endloop
endfacet
facet normal 0.006436982657760382 -0.02961627021431923 -0.9995405673980713
 outer loop
  vertex 610500.0 5962500.0 2762.330078125
  vertex 611500.0 5961500.0 2798.39990234375
  vertex 610500.0 5961500.0 2791.9599609375
 endloop
endfacet
facet normal 0.04001740738749504 0.003976760897785425 -0.9991910457611084
 outer loop
  vertex 610500.0 5962500.0 2762.330078125
  vertex 611500.0 5962500.0 2802.3798828125
  vertex 611500.0 5961500.0 2798.39990234375
 endloop
endfacet
facet normal 0.09662987291812897 0.01801244169473648 -0.9951573610305786
 outer loop
  vertex 604500.0 5963500.0 2708.199951171875
  vertex 605500.0 5963500.0 2805.300048828125
  vertex 605500.0 5962500.0 2787.199951171875
 endloop
endfacet
facet normal -0.10706338286399841 0.01799311488866806 -0.9940893650054932
 outer loop
  vertex 605500.0 5963500.0 2805.300048828125
  vertex 606500.0 5962500.0 2679.5
  vertex 605500.0 5962500.0 2787.199951171875
 endloop
endfacet
facet normal -0.08809465914964676 0.03712920844554901 -0.9954198598861694
 outer loop
  vertex 605500.0 5963500.0 2805.300048828125
  vertex 606500.0 5963500.0 2716.800048828125
  vertex 606500.0 5962500.0 2679.5
 endloop
endfacet
facet normal 0.13748528063297272 0.03692016378045082 -0.9898154735565186
 outer loop
  vertex 606500.0 5963500.0 2716.800048828125
  vertex 607500.0 5962500.0 2818.39990234375
  vertex 606500.0 5962500.0 2679.5
 endloop
endfacet
facet normal 0.07794073224067688 -0.0233223307877779 -0.9966851472854614
 outer loop
  vertex 606500.0 5963500.0 2716.800048828125
  vertex 607500.0 5963500.0 2795.0
  vertex 607500.0 5962500.0 2818.39990234375
 endloop
endfacet
facet normal -0.059776421636343 -0.02335166558623314 -0.9979385733604431
 outer loop
  vertex 607500.0 5963500.0 2795.0
  vertex 608500.0 5962500.0 2758.5
  vertex 607500.0 5962500.0 2818.39990234375
 endloop
endfacet
facet normal -0.04096516966819763 -0.004496177192777395 -0.9991504549980164
 outer loop
  vertex 607500.0 5963500.0 2795.0
  vertex 608500.0 5963500.0 2754.0
  vertex 608500.0 5962500.0 2758.5
 endloop
endfacet
facet normal 0.004399815108627081 -0.004499910864979029 -0.9999802112579346
 outer loop
  vertex 608500.0 5963500.0 2754.0
  vertex 609500.0 5962500.0 2762.89990234375
  vertex 608500.0 5962500.0 2758.5
 endloop
endfacet
facet normal -0.02138519287109375 -0.030278978869318962 -0.9993126392364502
 outer loop
  vertex 608500.0 5963500.0 2754.0
  vertex 609500.0 5963500.0 2732.60009765625
  vertex 609500.0 5962500.0 2762.89990234375
 endloop
endfacet
facet normal -0.0005695627187378705 -0.030285900458693504 -0.9995411038398743
 outer loop
  vertex 609500.0 5963500.0 2732.60009765625
  vertex 610500.0 5962500.0 2762.330078125
  vertex 609500.0 5962500.0 2762.89990234375
 endloop
endfacet
facet normal -0.01100021880120039 -0.04070376232266426 -0.999110758304596
 outer loop
  vertex 609500.0 5963500.0 2732.60009765625
  vertex 610500.0 5963500.0 2721.590087890625
  vertex 610500.0 5962500.0 2762.330078125
 endloop
endfacet
facet normal 0.039984606206417084 -0.040673669427633286 -0.9983720779418945
 outer loop
  vertex 610500.0 5963500.0 2721.590087890625
  vertex 611500.0 5962500.0 2802.3798828125
  vertex 610500.0 5962500.0 2762.330078125
 endloop
endfacet
facet normal 0.06277579814195633 -0.0178417656570673 -0.9978681802749634
 outer loop
  vertex 610500.0 5963500.0 2721.590087890625
  vertex 611500.0 5963500.0 2784.5
  vertex 611500.0 5962500.0 2802.3798828125
 endloop
endfacet
facet normal 0.004719408228993416 -0.017876826226711273 -0.999829113483429
 outer loop
  vertex 611500.0 5963500.0 2784.5
  vertex 612500.0 5962500.0 2807.10009765625
  vertex 611500.0 5962500.0 2802.3798828125
 endloop
endfacet
facet normal -0.009095152840018272 -0.03168296813964844 -0.9994565844535828
 outer loop
  vertex 611500.0 5963500.0 2784.5
  vertex 612500.0 5963500.0 2775.39990234375
  vertex 612500.0 5962500.0 2807.10009765625
 endloop
endfacet
facet normal -0.024092180654406548 -0.0074976119212806225 -0.9996815919876099
 outer loop
  vertex 602500.0 5964500.0 2833.199951171875
  vertex 603500.0 5964500.0 2809.10009765625
  vertex 603500.0 5963500.0 2816.60009765625
 endloop
endfacet
facet normal -0.10776583105325699 -0.007456112653017044 -0.9941483736038208
 outer loop
  vertex 603500.0 5964500.0 2809.10009765625
  vertex 604500.0 5963500.0 2708.199951171875
  vertex 603500.0 5963500.0 2816.60009765625
 endloop
endfacet
facet normal -0.006670515518635511 0.09378267824649811 -0.9955703616142273
 outer loop
  vertex 603500.0 5964500.0 2809.10009765625
  vertex 604500.0 5964500.0 2802.39990234375
  vertex 604500.0 5963500.0 2708.199951171875
 endloop
endfacet
facet normal 0.09622355550527573 0.09334958344697952 -0.9909727573394775
 outer loop
  vertex 604500.0 5964500.0 2802.39990234375
  vertex 605500.0 5963500.0 2805.300048828125
  vertex 604500.0 5963500.0 2708.199951171875
 endloop
endfacet
facet normal -0.09471175819635391 -0.09758496284484863 -0.9907103180885315
 outer loop
  vertex 604500.0 5964500.0 2802.39990234375
  vertex 605500.0 5964500.0 2706.800048828125
  vertex 605500.0 5963500.0 2805.300048828125
 endloop
endfacet
facet normal -0.087734155356884 -0.09764762222766876 -0.9913464188575745
 outer loop
  vertex 605500.0 5964500.0 2706.800048828125
  vertex 606500.0 5963500.0 2716.800048828125
  vertex 605500.0 5963500.0 2805.300048828125
 endloop
endfacet
facet normal 0.015997665002942085 0.005999124143272638 -0.9998540282249451
 outer loop
  vertex 605500.0 5964500.0 2706.800048828125
  vertex 606500.0 5964500.0 2722.800048828125
  vertex 606500.0 5963500.0 2716.800048828125
 endloop
endfacet
facet normal 0.0779605433344841 0.005981631111353636 -0.9969385266304016
 outer loop
  vertex 606500.0 5964500.0 2722.800048828125
  vertex 607500.0 5963500.0 2795.0
  vertex 606500.0 5963500.0 2716.800048828125
 endloop
endfacet
facet normal 0.005886875558644533 -0.06615366041660309 -0.9977920651435852
 outer loop
  vertex 606500.0 5964500.0 2722.800048828125
  vertex 607500.0 5964500.0 2728.699951171875
  vertex 607500.0 5963500.0 2795.0
 endloop
endfacet
facet normal -0.04087599366903305 -0.06609951704740524 -0.9969754219055176
 outer loop
  vertex 607500.0 5964500.0 2728.699951171875
  vertex 608500.0 5963500.0 2754.0
  vertex 607500.0 5963500.0 2795.0
 endloop
endfacet
facet normal 0.046339988708496094 0.021072741597890854 -0.9987034201622009
 outer loop
  vertex 607500.0 5964500.0 2728.699951171875
  vertex 608500.0 5964500.0 2775.10009765625
  vertex 608500.0 5963500.0 2754.0
 endloop
endfacet
facet normal -0.021390244364738464 0.02109057456254959 -0.9995487332344055
 outer loop
  vertex 608500.0 5964500.0 2775.10009765625
  vertex 609500.0 5963500.0 2732.60009765625
  vertex 608500.0 5963500.0 2754.0
 endloop
endfacet
facet normal -0.016732096672058105 0.025747863575816154 -0.9995284676551819
 outer loop
  vertex 608500.0 5964500.0 2775.10009765625
  vertex 609500.0 5964500.0 2758.360107421875
  vertex 609500.0 5963500.0 2732.60009765625
 endloop
endfacet
facet normal -0.011005692183971405 0.02574990689754486 -0.9996078610420227
 outer loop
  vertex 609500.0 5964500.0 2758.360107421875
  vertex 610500.0 5963500.0 2721.590087890625
  vertex 609500.0 5963500.0 2732.60009765625
 endloop
endfacet
facet normal -0.05849580094218254 -0.02179749496281147 -0.9980496764183044
 outer loop
  vertex 609500.0 5964500.0 2758.360107421875
  vertex 610500.0 5964500.0 2699.75
  vertex 610500.0 5963500.0 2721.590087890625
 endloop
endfacet
facet normal 0.06277088075876236 -0.021791821345686913 -0.9977900385856628
 outer loop
  vertex 610500.0 5964500.0 2699.75
  vertex 611500.0 5963500.0 2784.5
  vertex 610500.0 5963500.0 2721.590087890625
 endloop
endfacet
facet normal 0.016908708959817886 -0.06763508170843124 -0.9975668787956238
 outer loop
  vertex 610500.0 5964500.0 2699.75
  vertex 611500.0 5964500.0 2716.699951171875
  vertex 611500.0 5963500.0 2784.5
 endloop
endfacet
facet normal -0.009078875184059143 -0.0676419585943222 -0.9976683259010315
 outer loop
  vertex 611500.0 5964500.0 2716.699951171875
  vertex 612500.0 5963500.0 2775.39990234375
  vertex 611500.0 5963500.0 2784.5
 endloop
endfacet
facet normal 0.05282539874315262 -0.005791609175503254 -0.9985869526863098
 outer loop
  vertex 611500.0 5964500.0 2716.699951171875
  vertex 612500.0 5964500.0 2769.60009765625
  vertex 612500.0 5963500.0 2775.39990234375
 endloop
endfacet
facet normal 0.024292469024658203 -0.00579799572005868 -0.9996880888938904
 outer loop
  vertex 612500.0 5964500.0 2769.60009765625
  vertex 613500.0 5963500.0 2799.699951171875
  vertex 612500.0 5963500.0 2775.39990234375
 endloop
endfacet
facet normal -0.07974507659673691 -0.0018938521388918161 -0.9968134760856628
 outer loop
  vertex 614500.0 5964500.0 2764.0
  vertex 615500.0 5964500.0 2684.0
  vertex 615500.0 5963500.0 2685.89990234375
 endloop
endfacet
facet normal -0.023808002471923828 -0.15332043170928955 -0.9878897070884705
 outer loop
  vertex 602500.0 5965500.0 2678.0
  vertex 603500.0 5964500.0 2809.10009765625
  vertex 602500.0 5964500.0 2833.199951171875
 endloop
endfacet
facet normal 0.1189420223236084 -0.011219114065170288 -0.9928378462791443
 outer loop
  vertex 602500.0 5965500.0 2678.0
  vertex 603500.0 5965500.0 2797.800048828125
  vertex 603500.0 5964500.0 2809.10009765625
 endloop
endfacet
facet normal -0.006699617486447096 -0.01129907462745905 -0.99991375207901
 outer loop
  vertex 603500.0 5965500.0 2797.800048828125
  vertex 604500.0 5964500.0 2802.39990234375
  vertex 603500.0 5964500.0 2809.10009765625
 endloop
endfacet
facet normal -0.0004999934462830424 -0.0050997864454984665 -0.9999868869781494
 outer loop
  vertex 603500.0 5965500.0 2797.800048828125
  vertex 604500.0 5965500.0 2797.300048828125
  vertex 604500.0 5964500.0 2802.39990234375
 endloop
endfacet
facet normal -0.09516473859548569 -0.005076642148196697 -0.995448648929596
 outer loop
  vertex 604500.0 5965500.0 2797.300048828125
  vertex 605500.0 5964500.0 2706.800048828125
  vertex 604500.0 5964500.0 2802.39990234375
 endloop
endfacet
facet normal -0.004284122493118048 0.08588068932294846 -0.996296226978302
 outer loop
  vertex 604500.0 5965500.0 2797.300048828125
  vertex 605500.0 5965500.0 2793.0
  vertex 605500.0 5964500.0 2706.800048828125
 endloop
endfacet
facet normal 0.015938861295580864 0.08587056398391724 -0.9961788058280945
 outer loop
  vertex 605500.0 5965500.0 2793.0
  vertex 606500.0 5964500.0 2722.800048828125
  vertex 605500.0 5964500.0 2706.800048828125
 endloop
endfacet
facet normal -0.014576034620404243 0.055508218705654144 -0.9983518719673157
 outer loop
  vertex 605500.0 5965500.0 2793.0
  vertex 606500.0 5965500.0 2778.39990234375
  vertex 606500.0 5964500.0 2722.800048828125
 endloop
endfacet
facet normal 0.005890697706490755 0.05551314726471901 -0.9984405636787415
 outer loop
  vertex 606500.0 5965500.0 2778.39990234375
  vertex 607500.0 5964500.0 2728.699951171875
  vertex 606500.0 5964500.0 2722.800048828125
 endloop
endfacet
facet normal -0.1288931518793106 -0.07976747304201126 -0.9884451031684875
 outer loop
  vertex 606500.0 5965500.0 2778.39990234375
  vertex 607500.0 5965500.0 2648.0
  vertex 607500.0 5964500.0 2728.699951171875
 endloop
endfacet
facet normal 0.04620039835572243 -0.08035255968570709 -0.9956952333450317
 outer loop
  vertex 607500.0 5965500.0 2648.0
  vertex 608500.0 5964500.0 2775.10009765625
  vertex 607500.0 5964500.0 2728.699951171875
 endloop
endfacet
facet normal 0.10902947932481766 -0.017293792217969894 -0.9938880801200867
 outer loop
  vertex 607500.0 5965500.0 2648.0
  vertex 608500.0 5965500.0 2757.699951171875
  vertex 608500.0 5964500.0 2775.10009765625
 endloop
endfacet
facet normal -0.01673511229455471 -0.017395077273249626 -0.9997086524963379
 outer loop
  vertex 608500.0 5965500.0 2757.699951171875
  vertex 609500.0 5964500.0 2758.360107421875
  vertex 608500.0 5964500.0 2775.10009765625
 endloop
endfacet
facet normal 0.04061385616660118 0.0399547703564167 -0.9983757734298706
 outer loop
  vertex 608500.0 5965500.0 2757.699951171875
  vertex 609500.0 5965500.0 2798.3798828125
  vertex 609500.0 5964500.0 2758.360107421875
 endloop
endfacet
facet normal -0.05846306309103966 0.03991936892271042 -0.9974911212921143
 outer loop
  vertex 609500.0 5965500.0 2798.3798828125
  vertex 610500.0 5964500.0 2699.75
  vertex 609500.0 5964500.0 2758.360107421875
 endloop
endfacet
facet normal 0.019084641709923744 0.11701881140470505 -0.9929462671279907
 outer loop
  vertex 609500.0 5965500.0 2798.3798828125
  vertex 610500.0 5965500.0 2817.60009765625
  vertex 610500.0 5964500.0 2699.75
 endloop
endfacet
facet normal 0.016831066459417343 0.11702354997396469 -0.9929865002632141
 outer loop
  vertex 610500.0 5965500.0 2817.60009765625
  vertex 611500.0 5964500.0 2716.699951171875
  vertex 610500.0 5964500.0 2699.75
 endloop
endfacet
facet normal 0.0029839237686246634 0.10334337502717972 -0.9946412444114685
 outer loop
  vertex 610500.0 5965500.0 2817.60009765625
  vertex 611500.0 5965500.0 2820.60009765625
  vertex 611500.0 5964500.0 2716.699951171875
 endloop
endfacet
facet normal 0.05254422128200531 0.10320107638835907 -0.9932717084884644
 outer loop
  vertex 611500.0 5965500.0 2820.60009765625
  vertex 612500.0 5964500.0 2769.60009765625
  vertex 611500.0 5964500.0 2716.699951171875
 endloop
endfacet
facet normal -0.05252741649746895 -0.001597886672243476 -0.9986182451248169
 outer loop
  vertex 611500.0 5965500.0 2820.60009765625
  vertex 612500.0 5965500.0 2768.0
  vertex 612500.0 5964500.0 2769.60009765625
 endloop
endfacet
facet normal -0.05504704266786575 -0.07804156094789505 -0.9954292178153992
 outer loop
  vertex 613500.0 5965500.0 2740.89990234375
  vertex 614500.0 5965500.0 2685.60009765625
  vertex 614500.0 5964500.0 2764.0
 endloop
endfacet
facet normal -0.07950281351804733 -0.07791266590356827 -0.9937852025032043
 outer loop
  vertex 614500.0 5965500.0 2685.60009765625
  vertex 615500.0 5964500.0 2684.0
  vertex 614500.0 5964500.0 2764.0
 endloop
endfacet
facet normal -0.014472275972366333 -0.13124072551727295 -0.991244912147522
 outer loop
  vertex 605500.0 5966500.0 2660.60009765625
  vertex 606500.0 5965500.0 2778.39990234375
  vertex 605500.0 5965500.0 2793.0
 endloop
endfacet
facet normal 0.07809983938932419 -0.03924909979104996 -0.9961726665496826
 outer loop
  vertex 605500.0 5966500.0 2660.60009765625
  vertex 606500.0 5966500.0 2739.0
  vertex 606500.0 5965500.0 2778.39990234375
 endloop
endfacet
facet normal -0.1292065978050232 -0.03903935104608536 -0.9908488988876343
 outer loop
  vertex 606500.0 5966500.0 2739.0
  vertex 607500.0 5965500.0 2648.0
  vertex 606500.0 5965500.0 2778.39990234375
 endloop
endfacet
facet normal -0.0064767817966639996 0.08419816195964813 -0.9964280128479004
 outer loop
  vertex 606500.0 5966500.0 2739.0
  vertex 607500.0 5966500.0 2732.5
  vertex 607500.0 5965500.0 2648.0
 endloop
endfacet
facet normal 0.10866312682628632 0.08370134979486465 -0.9905485510826111
 outer loop
  vertex 607500.0 5966500.0 2732.5
  vertex 608500.0 5965500.0 2757.699951171875
  vertex 607500.0 5965500.0 2648.0
 endloop
endfacet
facet normal 0.018696287646889687 -0.006498726550489664 -0.9998040795326233
 outer loop
  vertex 607500.0 5966500.0 2732.5
  vertex 608500.0 5966500.0 2751.199951171875
  vertex 608500.0 5965500.0 2757.699951171875
 endloop
endfacet
facet normal 0.040645454078912735 -0.0064944913610816 -0.9991525411605835
 outer loop
  vertex 608500.0 5966500.0 2751.199951171875
  vertex 609500.0 5965500.0 2798.3798828125
  vertex 608500.0 5965500.0 2757.699951171875
 endloop
endfacet
facet normal -0.019951049238443375 -0.06701550632715225 -0.9975524544715881
 outer loop
  vertex 608500.0 5966500.0 2751.199951171875
  vertex 609500.0 5966500.0 2731.199951171875
  vertex 609500.0 5965500.0 2798.3798828125
 endloop
endfacet
facet normal 0.01917346753180027 -0.06701651960611343 -0.9975675940513611
 outer loop
  vertex 609500.0 5966500.0 2731.199951171875
  vertex 610500.0 5965500.0 2817.60009765625
  vertex 609500.0 5965500.0 2798.3798828125
 endloop
endfacet
facet normal 0.04561461880803108 -0.04062419757246971 -0.9981327652931213
 outer loop
  vertex 609500.0 5966500.0 2731.199951171875
  vertex 610500.0 5966500.0 2776.89990234375
  vertex 610500.0 5965500.0 2817.60009765625
 endloop
endfacet
facet normal 0.0029975047800689936 -0.04066634178161621 -0.9991682767868042
 outer loop
  vertex 610500.0 5966500.0 2776.89990234375
  vertex 611500.0 5965500.0 2820.60009765625
  vertex 610500.0 5965500.0 2817.60009765625
 endloop
endfacet
facet normal -0.019158564507961273 -0.06276456266641617 -0.9978444576263428
 outer loop
  vertex 610500.0 5966500.0 2776.89990234375
  vertex 611500.0 5966500.0 2757.699951171875
  vertex 611500.0 5965500.0 2820.60009765625
 endloop
endfacet
facet normal -0.05242416635155678 -0.06268975883722305 -0.9966552257537842
 outer loop
  vertex 611500.0 5966500.0 2757.699951171875
  vertex 612500.0 5965500.0 2768.0
  vertex 611500.0 5965500.0 2820.60009765625
 endloop
endfacet
facet normal -0.03165615350008011 -0.04194197431206703 -0.9986184239387512
 outer loop
  vertex 611500.0 5966500.0 2757.699951171875
  vertex 612500.0 5966500.0 2726.0
  vertex 612500.0 5965500.0 2768.0
 endloop
endfacet
facet normal -0.0270663071423769 -0.0419476293027401 -0.9987531304359436
 outer loop
  vertex 612500.0 5966500.0 2726.0
  vertex 613500.0 5965500.0 2740.89990234375
  vertex 612500.0 5965500.0 2768.0
 endloop
endfacet
facet normal 0.019695904105901718 0.004799062851816416 -0.9997945427894592
 outer loop
  vertex 612500.0 5966500.0 2726.0
  vertex 613500.0 5966500.0 2745.699951171875
  vertex 613500.0 5965500.0 2740.89990234375
 endloop
endfacet
facet normal -0.05521480739116669 0.00479267118498683 -0.998462975025177
 outer loop
  vertex 613500.0 5966500.0 2745.699951171875
  vertex 614500.0 5965500.0 2685.60009765625
  vertex 613500.0 5965500.0 2740.89990234375
 endloop
endfacet
facet normal -0.017981162294745445 0.04205579310655594 -0.9989534616470337
 outer loop
  vertex 613500.0 5966500.0 2745.699951171875
  vertex 614500.0 5966500.0 2727.699951171875
  vertex 614500.0 5965500.0 2685.60009765625
 endloop
endfacet
facet normal -0.006477536167949438 -0.08281290531158447 -0.9965440630912781
 outer loop
  vertex 606500.0 5967500.0 2655.89990234375
  vertex 607500.0 5966500.0 2732.5
  vertex 606500.0 5966500.0 2739.0
 endloop
endfacet
facet normal 0.06933101266622543 -0.007082830183207989 -0.9975685477256775
 outer loop
  vertex 606500.0 5967500.0 2655.89990234375
  vertex 607500.0 5967500.0 2725.39990234375
  vertex 607500.0 5966500.0 2732.5
 endloop
endfacet
facet normal 0.018696211278438568 -0.007098678033798933 -0.9998000264167786
 outer loop
  vertex 607500.0 5967500.0 2725.39990234375
  vertex 608500.0 5966500.0 2751.199951171875
  vertex 607500.0 5966500.0 2732.5
 endloop
endfacet
facet normal 0.026890402659773827 0.0010996991768479347 -0.9996377825737
 outer loop
  vertex 607500.0 5967500.0 2725.39990234375
  vertex 608500.0 5967500.0 2752.300048828125
  vertex 608500.0 5966500.0 2751.199951171875
 endloop
endfacet
facet normal -0.01999598927795887 0.0010998770594596863 -0.9997994899749756
 outer loop
  vertex 608500.0 5967500.0 2752.300048828125
  vertex 609500.0 5966500.0 2731.199951171875
  vertex 608500.0 5966500.0 2751.199951171875
 endloop
endfacet
facet normal -0.05428982898592949 -0.03323252126574516 -0.9979720711708069
 outer loop
  vertex 608500.0 5967500.0 2752.300048828125
  vertex 609500.0 5967500.0 2697.89990234375
  vertex 609500.0 5966500.0 2731.199951171875
 endloop
endfacet
facet normal 0.04562706500291824 -0.03324693813920021 -0.9984050989151001
 outer loop
  vertex 609500.0 5967500.0 2697.89990234375
  vertex 610500.0 5966500.0 2776.89990234375
  vertex 609500.0 5966500.0 2731.199951171875
 endloop
endfacet
facet normal 0.08943497389554977 0.010756140574812889 -0.9959346055984497
 outer loop
  vertex 609500.0 5967500.0 2697.89990234375
  vertex 610500.0 5967500.0 2787.699951171875
  vertex 610500.0 5966500.0 2776.89990234375
 endloop
endfacet
facet normal -0.01919529400765896 0.010797428898513317 -0.9997574090957642
 outer loop
  vertex 610500.0 5967500.0 2787.699951171875
  vertex 611500.0 5966500.0 2757.699951171875
  vertex 610500.0 5966500.0 2776.89990234375
 endloop
endfacet
facet normal -0.004198517184704542 0.025791238993406296 -0.9996585249900818
 outer loop
  vertex 610500.0 5967500.0 2787.699951171875
  vertex 611500.0 5967500.0 2783.5
  vertex 611500.0 5966500.0 2757.699951171875
 endloop
endfacet
facet normal -0.031673505902290344 0.025778526440262794 -0.9991658329963684
 outer loop
  vertex 611500.0 5967500.0 2783.5
  vertex 612500.0 5966500.0 2726.0
  vertex 611500.0 5966500.0 2757.699951171875
 endloop
endfacet
facet normal -0.07041878998279572 -0.013066451996564865 -0.9974319338798523
 outer loop
  vertex 611500.0 5967500.0 2783.5
  vertex 612500.0 5967500.0 2712.89990234375
  vertex 612500.0 5966500.0 2726.0
 endloop
endfacet
facet normal 0.019694438204169273 -0.013096433132886887 -0.9997202754020691
 outer loop
  vertex 612500.0 5967500.0 2712.89990234375
  vertex 613500.0 5966500.0 2745.699951171875
  vertex 612500.0 5966500.0 2726.0
 endloop
endfacet
facet normal -0.002598217222839594 -0.0353776179254055 -0.9993706345558167
 outer loop
  vertex 612500.0 5967500.0 2712.89990234375
  vertex 613500.0 5967500.0 2710.300048828125
  vertex 613500.0 5966500.0 2745.699951171875
 endloop
endfacet
facet normal -0.01798582263290882 -0.035372018814086914 -0.999212384223938
 outer loop
  vertex 613500.0 5967500.0 2710.300048828125
  vertex 614500.0 5966500.0 2727.699951171875
  vertex 613500.0 5966500.0 2745.699951171875
 endloop
endfacet
facet normal 0.023992568254470825 0.006598053965717554 -0.9996903538703918
 outer loop
  vertex 613500.0 5967500.0 2710.300048828125
  vertex 614500.0 5967500.0 2734.300048828125
  vertex 614500.0 5966500.0 2727.699951171875
 endloop
endfacet
facet normal -0.030839595943689346 0.16809040307998657 -0.9852890968322754
 outer loop
  vertex 605500.0 5968500.0 2857.800048828125
  vertex 606500.0 5968500.0 2826.5
  vertex 606500.0 5967500.0 2655.89990234375
 endloop
endfacet
facet normal 0.06834995746612549 0.16777712106704712 -0.9834526777267456
 outer loop
  vertex 606500.0 5968500.0 2826.5
  vertex 607500.0 5967500.0 2725.39990234375
  vertex 606500.0 5967500.0 2655.89990234375
 endloop
endfacet
facet normal -0.03080941177904606 0.06999460607767105 -0.9970715045928955
 outer loop
  vertex 606500.0 5968500.0 2826.5
  vertex 607500.0 5968500.0 2795.60009765625
  vertex 607500.0 5967500.0 2725.39990234375
 endloop
endfacet
facet normal 0.026824453845620155 0.07000266015529633 -0.9971860647201538
 outer loop
  vertex 607500.0 5968500.0 2795.60009765625
  vertex 608500.0 5967500.0 2752.300048828125
  vertex 607500.0 5967500.0 2725.39990234375
 endloop
endfacet
facet normal -0.04425662010908127 -0.0009990197140723467 -0.9990196824073792
 outer loop
  vertex 607500.0 5968500.0 2795.60009765625
  vertex 608500.0 5968500.0 2751.300048828125
  vertex 608500.0 5967500.0 2752.300048828125
 endloop
endfacet
facet normal -0.054319802671670914 -0.000998523086309433 -0.9985230565071106
 outer loop
  vertex 608500.0 5968500.0 2751.300048828125
  vertex 609500.0 5967500.0 2697.89990234375
  vertex 608500.0 5967500.0 2752.300048828125
 endloop
endfacet
facet normal 0.03692365437746048 0.09007018804550171 -0.9952507019042969
 outer loop
  vertex 608500.0 5968500.0 2751.300048828125
  vertex 609500.0 5968500.0 2788.39990234375
  vertex 609500.0 5967500.0 2697.89990234375
 endloop
endfacet
facet normal 0.08907900750637054 0.08977334201335907 -0.9919705986976624
 outer loop
  vertex 609500.0 5968500.0 2788.39990234375
  vertex 610500.0 5967500.0 2787.699951171875
  vertex 609500.0 5967500.0 2697.89990234375
 endloop
endfacet
facet normal -0.11236277967691422 -0.11167166382074356 -0.9873723387718201
 outer loop
  vertex 609500.0 5968500.0 2788.39990234375
  vertex 610500.0 5968500.0 2674.60009765625
  vertex 610500.0 5967500.0 2787.699951171875
 endloop
endfacet
facet normal -0.004173302091658115 -0.11238237470388412 -0.9936562776565552
 outer loop
  vertex 610500.0 5968500.0 2674.60009765625
  vertex 611500.0 5967500.0 2783.5
  vertex 610500.0 5967500.0 2787.699951171875
 endloop
endfacet
facet normal 0.008457178249955177 -0.09989410638809204 -0.9949621558189392
 outer loop
  vertex 610500.0 5968500.0 2674.60009765625
  vertex 611500.0 5968500.0 2683.10009765625
  vertex 611500.0 5967500.0 2783.5
 endloop
endfacet
facet normal -0.07007426023483276 -0.09965211153030396 -0.9925518035888672
 outer loop
  vertex 611500.0 5968500.0 2683.10009765625
  vertex 612500.0 5967500.0 2712.89990234375
  vertex 611500.0 5967500.0 2783.5
 endloop
endfacet
facet normal 0.037472549825906754 0.007694559171795845 -0.9992680549621582
 outer loop
  vertex 611500.0 5968500.0 2683.10009765625
  vertex 612500.0 5968500.0 2720.60009765625
  vertex 612500.0 5967500.0 2712.89990234375
 endloop
endfacet
facet normal -0.002599767642095685 0.007699941284954548 -0.9999669790267944
 outer loop
  vertex 612500.0 5968500.0 2720.60009765625
  vertex 613500.0 5967500.0 2710.300048828125
  vertex 612500.0 5967500.0 2712.89990234375
 endloop
endfacet
facet normal 0.011096629314124584 0.021393686532974243 -0.9997095465660095
 outer loop
  vertex 612500.0 5968500.0 2720.60009765625
  vertex 613500.0 5968500.0 2731.699951171875
  vertex 613500.0 5967500.0 2710.300048828125
 endloop
endfacet
facet normal 0.023987600579857826 0.02138884738087654 -0.9994834065437317
 outer loop
  vertex 613500.0 5968500.0 2731.699951171875
  vertex 614500.0 5967500.0 2734.300048828125
  vertex 613500.0 5967500.0 2710.300048828125
 endloop
endfacet
facet normal 0.06641637533903122 0.06382732838392258 -0.9957484006881714
 outer loop
  vertex 613500.0 5968500.0 2731.699951171875
  vertex 614500.0 5968500.0 2798.39990234375
  vertex 614500.0 5967500.0 2734.300048828125
 endloop
endfacet
facet normal 0.032382965087890625 -0.003398099448531866 -0.9994696974754333
 outer loop
  vertex 604500.0 5969500.0 2822.0
  vertex 605500.0 5968500.0 2857.800048828125
  vertex 604500.0 5968500.0 2825.39990234375
 endloop
endfacet
facet normal 0.01769428327679634 -0.018094299361109734 -0.9996797442436218
 outer loop
  vertex 604500.0 5969500.0 2822.0
  vertex 605500.0 5969500.0 2839.699951171875
  vertex 605500.0 5968500.0 2857.800048828125
 endloop
endfacet
facet normal -0.031279608607292175 -0.01808827742934227 -0.9993469715118408
 outer loop
  vertex 605500.0 5969500.0 2839.699951171875
  vertex 606500.0 5968500.0 2826.5
  vertex 605500.0 5968500.0 2857.800048828125
 endloop
endfacet
facet normal 0.006598660256713629 0.01979573629796505 -0.9997822642326355
 outer loop
  vertex 605500.0 5969500.0 2839.699951171875
  vertex 606500.0 5969500.0 2846.300048828125
  vertex 606500.0 5968500.0 2826.5
 endloop
endfacet
facet normal -0.03087911754846573 0.01978672854602337 -0.9993272423744202
 outer loop
  vertex 606500.0 5969500.0 2846.300048828125
  vertex 607500.0 5968500.0 2795.60009765625
  vertex 606500.0 5968500.0 2826.5
 endloop
endfacet
facet normal -0.010690790601074696 0.03996575251221657 -0.9991438388824463
 outer loop
  vertex 606500.0 5969500.0 2846.300048828125
  vertex 607500.0 5969500.0 2835.60009765625
  vertex 607500.0 5968500.0 2795.60009765625
 endloop
endfacet
facet normal -0.04422134906053543 0.039928942918777466 -0.9982235431671143
 outer loop
  vertex 607500.0 5969500.0 2835.60009765625
  vertex 608500.0 5968500.0 2751.300048828125
  vertex 607500.0 5968500.0 2795.60009765625
 endloop
endfacet
facet normal -0.044321250170469284 0.03982899710536003 -0.998223066329956
 outer loop
  vertex 607500.0 5969500.0 2835.60009765625
  vertex 608500.0 5969500.0 2791.199951171875
  vertex 608500.0 5968500.0 2751.300048828125
 endloop
endfacet
facet normal 0.037044912576675415 0.03984081745147705 -0.9985191226005554
 outer loop
  vertex 608500.0 5969500.0 2791.199951171875
  vertex 609500.0 5968500.0 2788.39990234375
  vertex 608500.0 5968500.0 2751.300048828125
 endloop
endfacet
facet normal -0.06197117269039154 -0.059181421995162964 -0.9963218569755554
 outer loop
  vertex 608500.0 5969500.0 2791.199951171875
  vertex 609500.0 5969500.0 2729.0
  vertex 609500.0 5968500.0 2788.39990234375
 endloop
endfacet
facet normal -0.11287359893321991 -0.05891645327210426 -0.99186110496521
 outer loop
  vertex 609500.0 5969500.0 2729.0
  vertex 610500.0 5968500.0 2674.60009765625
  vertex 609500.0 5968500.0 2788.39990234375
 endloop
endfacet
facet normal 0.022328564897179604 0.07655522227287292 -0.9968153238296509
 outer loop
  vertex 609500.0 5969500.0 2729.0
  vertex 610500.0 5969500.0 2751.39990234375
  vertex 610500.0 5968500.0 2674.60009765625
 endloop
endfacet
facet normal 0.008474738337099552 0.07657156139612198 -0.9970280528068542
 outer loop
  vertex 610500.0 5969500.0 2751.39990234375
  vertex 611500.0 5968500.0 2683.10009765625
  vertex 610500.0 5968500.0 2674.60009765625
 endloop
endfacet
facet normal -0.0517234280705452 0.016475671902298927 -0.9985255599021912
 outer loop
  vertex 610500.0 5969500.0 2751.39990234375
  vertex 611500.0 5969500.0 2699.60009765625
  vertex 611500.0 5968500.0 2683.10009765625
 endloop
endfacet
facet normal 0.0374685674905777 0.016486169770359993 -0.9991618394851685
 outer loop
  vertex 611500.0 5969500.0 2699.60009765625
  vertex 612500.0 5968500.0 2720.60009765625
  vertex 611500.0 5968500.0 2683.10009765625
 endloop
endfacet
facet normal 0.10241043567657471 0.08159123361110687 -0.9913904070854187
 outer loop
  vertex 611500.0 5969500.0 2699.60009765625
  vertex 612500.0 5969500.0 2802.89990234375
  vertex 612500.0 5968500.0 2720.60009765625
 endloop
endfacet
facet normal 0.011061773635447025 0.08201747387647629 -0.9965695142745972
 outer loop
  vertex 612500.0 5969500.0 2802.89990234375
  vertex 613500.0 5968500.0 2731.699951171875
  vertex 612500.0 5968500.0 2720.60009765625
 endloop
endfacet
facet normal -0.03096013329923153 0.04014825448393822 -0.9987139701843262
 outer loop
  vertex 612500.0 5969500.0 2802.89990234375
  vertex 613500.0 5969500.0 2771.89990234375
  vertex 613500.0 5968500.0 2731.699951171875
 endloop
endfacet
facet normal 0.06649859994649887 0.040078599005937576 -0.9969812631607056
 outer loop
  vertex 613500.0 5969500.0 2771.89990234375
  vertex 614500.0 5968500.0 2798.39990234375
  vertex 613500.0 5968500.0 2731.699951171875
 endloop
endfacet
facet normal 0.03168385103344917 0.005197514314204454 -0.9994844794273376
 outer loop
  vertex 613500.0 5969500.0 2771.89990234375
  vertex 614500.0 5969500.0 2803.60009765625
  vertex 614500.0 5968500.0 2798.39990234375
 endloop
endfacet
facet normal -0.09052205830812454 0.010356641374528408 -0.9958406090736389
 outer loop
  vertex 603500.0 5970500.0 2923.300048828125
  vertex 604500.0 5970500.0 2832.39990234375
  vertex 604500.0 5969500.0 2822.0
 endloop
endfacet
facet normal 0.01769622229039669 0.010397711768746376 -0.9997893571853638
 outer loop
  vertex 604500.0 5970500.0 2832.39990234375
  vertex 605500.0 5969500.0 2839.699951171875
  vertex 604500.0 5969500.0 2822.0
 endloop
endfacet
facet normal 0.08100944012403488 0.07375332713127136 -0.9939808249473572
 outer loop
  vertex 604500.0 5970500.0 2832.39990234375
  vertex 605500.0 5970500.0 2913.89990234375
  vertex 605500.0 5969500.0 2839.699951171875
 endloop
endfacet
facet normal 0.006581864785403013 0.07399493455886841 -0.9972369074821472
 outer loop
  vertex 605500.0 5970500.0 2913.89990234375
  vertex 606500.0 5969500.0 2846.300048828125
  vertex 605500.0 5969500.0 2839.699951171875
 endloop
endfacet
facet normal -0.10865729302167892 -0.04151631519198418 -0.9932119846343994
 outer loop
  vertex 605500.0 5970500.0 2913.89990234375
  vertex 606500.0 5970500.0 2804.5
  vertex 606500.0 5969500.0 2846.300048828125
 endloop
endfacet
facet normal -0.010690002702176571 -0.041761189699172974 -0.999070405960083
 outer loop
  vertex 606500.0 5970500.0 2804.5
  vertex 607500.0 5969500.0 2835.60009765625
  vertex 606500.0 5969500.0 2846.300048828125
 endloop
endfacet
facet normal 0.012097029946744442 -0.01899518258869648 -0.9997464418411255
 outer loop
  vertex 606500.0 5970500.0 2804.5
  vertex 607500.0 5970500.0 2816.60009765625
  vertex 607500.0 5969500.0 2835.60009765625
 endloop
endfacet
facet normal -0.04434845969080925 -0.018977880477905273 -0.9988358616828918
 outer loop
  vertex 607500.0 5970500.0 2816.60009765625
  vertex 608500.0 5969500.0 2791.199951171875
  vertex 607500.0 5969500.0 2835.60009765625
 endloop
endfacet
facet normal 9.982106712413952e-05 0.025491714477539062 -0.9996750354766846
 outer loop
  vertex 607500.0 5970500.0 2816.60009765625
  vertex 608500.0 5970500.0 2816.699951171875
  vertex 608500.0 5969500.0 2791.199951171875
 endloop
endfacet
facet normal -0.062059883028268814 0.0254425760358572 -0.997748076915741
 outer loop
  vertex 608500.0 5970500.0 2816.699951171875
  vertex 609500.0 5969500.0 2729.0
  vertex 608500.0 5969500.0 2791.199951171875
 endloop
endfacet
facet normal -0.04690942540764809 0.04062151908874512 -0.9980728626251221
 outer loop
  vertex 608500.0 5970500.0 2816.699951171875
  vertex 609500.0 5970500.0 2769.699951171875
  vertex 609500.0 5969500.0 2729.0
 endloop
endfacet
facet normal 0.022375769913196564 0.04065610468387604 -0.99892258644104
 outer loop
  vertex 609500.0 5970500.0 2769.699951171875
  vertex 610500.0 5969500.0 2751.39990234375
  vertex 609500.0 5969500.0 2729.0
 endloop
endfacet
facet normal -0.0946902334690094 -0.07652632147073746 -0.9925610423088074
 outer loop
  vertex 609500.0 5970500.0 2769.699951171875
  vertex 610500.0 5970500.0 2674.300048828125
  vertex 610500.0 5969500.0 2751.39990234375
 endloop
endfacet
facet normal -0.05157778412103653 -0.0767693892121315 -0.9957138895988464
 outer loop
  vertex 610500.0 5970500.0 2674.300048828125
  vertex 611500.0 5969500.0 2699.60009765625
  vertex 610500.0 5969500.0 2751.39990234375
 endloop
endfacet
facet normal 0.03437814489006996 0.009094097651541233 -0.9993675351142883
 outer loop
  vertex 610500.0 5970500.0 2674.300048828125
  vertex 611500.0 5970500.0 2708.699951171875
  vertex 611500.0 5969500.0 2699.60009765625
 endloop
endfacet
facet normal 0.1027488186955452 0.009051316417753696 -0.9946661591529846
 outer loop
  vertex 611500.0 5970500.0 2708.699951171875
  vertex 612500.0 5969500.0 2802.89990234375
  vertex 611500.0 5969500.0 2699.60009765625
 endloop
endfacet
facet normal -0.00726254191249609 -0.10097850114107132 -0.9948620796203613
 outer loop
  vertex 611500.0 5970500.0 2708.699951171875
  vertex 612500.0 5970500.0 2701.39990234375
  vertex 612500.0 5969500.0 2802.89990234375
 endloop
endfacet
facet normal -0.030826879665255547 -0.10093317180871964 -0.9944154620170593
 outer loop
  vertex 612500.0 5970500.0 2701.39990234375
  vertex 613500.0 5969500.0 2771.89990234375
  vertex 612500.0 5969500.0 2802.89990234375
 endloop
endfacet
facet normal 0.004590093158185482 -0.06575658172369003 -0.9978250861167908
 outer loop
  vertex 612500.0 5970500.0 2701.39990234375
  vertex 613500.0 5970500.0 2706.0
  vertex 613500.0 5969500.0 2771.89990234375
 endloop
endfacet
facet normal 0.031615763902664185 -0.06572440266609192 -0.9973368644714355
 outer loop
  vertex 613500.0 5970500.0 2706.0
  vertex 614500.0 5969500.0 2803.60009765625
  vertex 613500.0 5969500.0 2771.89990234375
 endloop
endfacet
facet normal 0.08894306421279907 -0.008266867138445377 -0.9960024356842041
 outer loop
  vertex 613500.0 5970500.0 2706.0
  vertex 614500.0 5970500.0 2795.300048828125
  vertex 614500.0 5969500.0 2803.60009765625
 endloop
endfacet
facet normal 0.031064046546816826 -0.036557961255311966 -0.9988486170768738
 outer loop
  vertex 602500.0 5971500.0 2855.60009765625
  vertex 603500.0 5971500.0 2886.699951171875
  vertex 603500.0 5970500.0 2923.300048828125
 endloop
endfacet
facet normal -0.09046682715415955 -0.0364256277680397 -0.9952330589294434
 outer loop
  vertex 603500.0 5971500.0 2886.699951171875
  vertex 604500.0 5970500.0 2832.39990234375
  vertex 603500.0 5970500.0 2923.300048828125
 endloop
endfacet
facet normal -0.004094663076102734 0.050136640667915344 -0.9987339973449707
 outer loop
  vertex 603500.0 5971500.0 2886.699951171875
  vertex 604500.0 5971500.0 2882.60009765625
  vertex 604500.0 5970500.0 2832.39990234375
 endloop
endfacet
facet normal 0.08112918585538864 0.04997178912162781 -0.9954500794410706
 outer loop
  vertex 604500.0 5971500.0 2882.60009765625
  vertex 605500.0 5970500.0 2913.89990234375
  vertex 604500.0 5970500.0 2832.39990234375
 endloop
endfacet
facet normal -0.01368506345897913 -0.044950295239686966 -0.9988954663276672
 outer loop
  vertex 604500.0 5971500.0 2882.60009765625
  vertex 605500.0 5971500.0 2868.89990234375
  vertex 605500.0 5970500.0 2913.89990234375
 endloop
endfacet
facet normal -0.10864241421222687 -0.04468841478228569 -0.9930759072303772
 outer loop
  vertex 605500.0 5971500.0 2868.89990234375
  vertex 606500.0 5970500.0 2804.5
  vertex 605500.0 5970500.0 2913.89990234375
 endloop
endfacet
facet normal -0.057801876217126846 0.006488995626568794 -0.9983069896697998
 outer loop
  vertex 605500.0 5971500.0 2868.89990234375
  vertex 606500.0 5971500.0 2811.0
  vertex 606500.0 5970500.0 2804.5
 endloop
endfacet
facet normal 0.012098956853151321 0.0064993868581950665 -0.9999057054519653
 outer loop
  vertex 606500.0 5971500.0 2811.0
  vertex 607500.0 5970500.0 2816.60009765625
  vertex 606500.0 5970500.0 2804.5
 endloop
endfacet
facet normal -0.04693989455699921 0.018776006996631622 -0.998721182346344
 outer loop
  vertex 608500.0 5971500.0 2835.5
  vertex 609500.0 5970500.0 2769.699951171875
  vertex 608500.0 5970500.0 2816.699951171875
 endloop
endfacet
facet normal -0.025970669463276863 0.03975514695048332 -0.998871922492981
 outer loop
  vertex 608500.0 5971500.0 2835.5
  vertex 609500.0 5971500.0 2809.5
  vertex 609500.0 5970500.0 2769.699951171875
 endloop
endfacet
facet normal -0.09489427506923676 0.03958909958600998 -0.9946998953819275
 outer loop
  vertex 609500.0 5971500.0 2809.5
  vertex 610500.0 5970500.0 2674.300048828125
  vertex 609500.0 5970500.0 2769.699951171875
 endloop
endfacet
facet normal -0.0628124475479126 0.07177118211984634 -0.9954413771629333
 outer loop
  vertex 609500.0 5971500.0 2809.5
  vertex 610500.0 5971500.0 2746.39990234375
  vertex 610500.0 5970500.0 2674.300048828125
 endloop
endfacet
facet normal 0.034290656447410583 0.07187088578939438 -0.996824324131012
 outer loop
  vertex 610500.0 5971500.0 2746.39990234375
  vertex 611500.0 5970500.0 2708.699951171875
  vertex 610500.0 5970500.0 2674.300048828125
 endloop
endfacet
facet normal 0.035085417330265045 0.07266244292259216 -0.9967392683029175
 outer loop
  vertex 610500.0 5971500.0 2746.39990234375
  vertex 611500.0 5971500.0 2781.60009765625
  vertex 611500.0 5970500.0 2708.699951171875
 endloop
endfacet
facet normal -0.007280533201992512 0.07270528376102448 -0.9973269104957581
 outer loop
  vertex 611500.0 5971500.0 2781.60009765625
  vertex 612500.0 5970500.0 2701.39990234375
  vertex 611500.0 5970500.0 2708.699951171875
 endloop
endfacet
facet normal -0.09958281368017197 -0.019797062501311302 -0.9948323369026184
 outer loop
  vertex 611500.0 5971500.0 2781.60009765625
  vertex 612500.0 5971500.0 2681.5
  vertex 612500.0 5970500.0 2701.39990234375
 endloop
endfacet
facet normal 0.004599138628691435 -0.019895752891898155 -0.9997915029525757
 outer loop
  vertex 612500.0 5971500.0 2681.5
  vertex 613500.0 5970500.0 2706.0
  vertex 612500.0 5970500.0 2701.39990234375
 endloop
endfacet
facet normal 0.0038990455213934183 -0.020595571026206017 -0.9997802972793579
 outer loop
  vertex 612500.0 5971500.0 2681.5
  vertex 613500.0 5971500.0 2685.39990234375
  vertex 613500.0 5970500.0 2706.0
 endloop
endfacet
facet normal 0.08892738819122314 -0.02051413059234619 -0.9958268404006958
 outer loop
  vertex 613500.0 5971500.0 2685.39990234375
  vertex 614500.0 5970500.0 2795.300048828125
  vertex 613500.0 5970500.0 2706.0
 endloop
endfacet
facet normal 0.07911448180675507 -0.030390266329050064 -0.9964022040367126
 outer loop
  vertex 613500.0 5971500.0 2685.39990234375
  vertex 614500.0 5971500.0 2764.800048828125
  vertex 614500.0 5970500.0 2795.300048828125
 endloop
endfacet
facet normal -0.01109425537288189 -0.030483946204185486 -0.9994736313819885
 outer loop
  vertex 614500.0 5971500.0 2764.800048828125
  vertex 615500.0 5970500.0 2784.199951171875
  vertex 614500.0 5970500.0 2795.300048828125
 endloop
endfacet
facet normal -0.03442956879734993 -0.05378986895084381 -0.9979585409164429
 outer loop
  vertex 614500.0 5971500.0 2764.800048828125
  vertex 615500.0 5971500.0 2730.300048828125
  vertex 615500.0 5970500.0 2784.199951171875
 endloop
endfacet
facet normal -0.004076684825122356 -0.10609682649374008 -0.9943474531173706
 outer loop
  vertex 603500.0 5972500.0 2780.0
  vertex 604500.0 5971500.0 2882.60009765625
  vertex 603500.0 5971500.0 2886.699951171875
 endloop
endfacet
facet normal -0.025969520211219788 -0.040851954370737076 -0.9988276958465576
 outer loop
  vertex 608500.0 5972500.0 2794.60009765625
  vertex 609500.0 5971500.0 2809.5
  vertex 608500.0 5971500.0 2835.5
 endloop
endfacet
facet normal -0.034537170082330704 -0.04940997064113617 -0.9981812238693237
 outer loop
  vertex 608500.0 5972500.0 2794.60009765625
  vertex 609500.0 5972500.0 2760.0
  vertex 609500.0 5971500.0 2809.5
 endloop
endfacet
facet normal -0.06289814412593842 -0.04934157431125641 -0.9967994689941406
 outer loop
  vertex 609500.0 5972500.0 2760.0
  vertex 610500.0 5971500.0 2746.39990234375
  vertex 609500.0 5971500.0 2809.5
 endloop
endfacet
facet normal 0.008197727613151073 0.021794138476252556 -0.9997288584709167
 outer loop
  vertex 609500.0 5972500.0 2760.0
  vertex 610500.0 5972500.0 2768.199951171875
  vertex 610500.0 5971500.0 2746.39990234375
 endloop
endfacet
facet normal 0.0351700633764267 0.02178138680756092 -0.9991439580917358
 outer loop
  vertex 610500.0 5972500.0 2768.199951171875
  vertex 611500.0 5971500.0 2781.60009765625
  vertex 610500.0 5971500.0 2746.39990234375
 endloop
endfacet
facet normal -0.0929597020149231 -0.10622567683458328 -0.9899871349334717
 outer loop
  vertex 610500.0 5972500.0 2768.199951171875
  vertex 611500.0 5972500.0 2674.300048828125
  vertex 611500.0 5971500.0 2781.60009765625
 endloop
endfacet
facet normal -0.09903945028781891 -0.10616311430931091 -0.9894041419029236
 outer loop
  vertex 611500.0 5972500.0 2674.300048828125
  vertex 612500.0 5971500.0 2681.5
  vertex 611500.0 5971500.0 2781.60009765625
 endloop
endfacet
facet normal 0.000399893062422052 -0.006799891125410795 -0.9999768137931824
 outer loop
  vertex 611500.0 5972500.0 2674.300048828125
  vertex 612500.0 5972500.0 2674.699951171875
  vertex 612500.0 5971500.0 2681.5
 endloop
endfacet
facet normal 0.003899782430380583 -0.006799839902669191 -0.9999692440032959
 outer loop
  vertex 612500.0 5972500.0 2674.699951171875
  vertex 613500.0 5971500.0 2685.39990234375
  vertex 612500.0 5971500.0 2681.5
 endloop
endfacet
facet normal 0.02359156683087349 0.012895483523607254 -0.9996384978294373
 outer loop
  vertex 612500.0 5972500.0 2674.699951171875
  vertex 613500.0 5972500.0 2698.300048828125
  vertex 613500.0 5971500.0 2685.39990234375
 endloop
endfacet
facet normal 0.07914450019598007 0.012858610600233078 -0.9967802166938782
 outer loop
  vertex 613500.0 5972500.0 2698.300048828125
  vertex 614500.0 5971500.0 2764.800048828125
  vertex 613500.0 5971500.0 2685.39990234375
 endloop
endfacet
facet normal 0.023272033780813217 -0.04314801096916199 -0.9987976551055908
 outer loop
  vertex 613500.0 5972500.0 2698.300048828125
  vertex 614500.0 5972500.0 2721.60009765625
  vertex 614500.0 5971500.0 2764.800048828125
 endloop
endfacet
facet normal -0.03444739803671837 -0.04313408583402634 -0.9984752535820007
 outer loop
  vertex 614500.0 5972500.0 2721.60009765625
  vertex 615500.0 5971500.0 2730.300048828125
  vertex 614500.0 5971500.0 2764.800048828125
 endloop
endfacet
facet normal -0.026873407885432243 -0.03556470945477486 -0.9990059733390808
 outer loop
  vertex 614500.0 5972500.0 2721.60009765625
  vertex 615500.0 5972500.0 2694.699951171875
  vertex 615500.0 5971500.0 2730.300048828125
 endloop
endfacet
facet normal 0.024976378306746483 -0.035566460341215134 -0.9990551471710205
 outer loop
  vertex 615500.0 5972500.0 2694.699951171875
  vertex 616500.0 5971500.0 2755.300048828125
  vertex 615500.0 5971500.0 2730.300048828125
 endloop
endfacet
facet normal -0.04559432715177536 -0.10579098016023636 -0.9933425784111023
 outer loop
  vertex 615500.0 5972500.0 2694.699951171875
  vertex 616500.0 5972500.0 2648.800048828125
  vertex 616500.0 5971500.0 2755.300048828125
 endloop
endfacet
facet normal -0.06252316385507584 -0.10569392144680023 -0.9924311637878418
 outer loop
  vertex 616500.0 5972500.0 2648.800048828125
  vertex 617500.0 5971500.0 2692.300048828125
  vertex 616500.0 5971500.0 2755.300048828125
 endloop
endfacet
facet normal 0.0328802652657032 -0.010593771003186703 -0.999403178691864
 outer loop
  vertex 616500.0 5972500.0 2648.800048828125
  vertex 617500.0 5972500.0 2681.699951171875
  vertex 617500.0 5971500.0 2692.300048828125
 endloop
endfacet
facet normal 0.00039977437700144947 -0.02529195323586464 -0.9996800422668457
 outer loop
  vertex 611500.0 5973500.0 2649.0
  vertex 612500.0 5972500.0 2674.699951171875
  vertex 611500.0 5972500.0 2674.300048828125
 endloop
endfacet
facet normal 0.00029995208024047315 -0.02539171278476715 -0.9996775388717651
 outer loop
  vertex 611500.0 5973500.0 2649.0
  vertex 612500.0 5973500.0 2649.300048828125
  vertex 612500.0 5972500.0 2674.699951171875
 endloop
endfacet
facet normal 0.02358592487871647 -0.025384649634361267 -0.9993994832038879
 outer loop
  vertex 612500.0 5973500.0 2649.300048828125
  vertex 613500.0 5972500.0 2698.300048828125
  vertex 612500.0 5972500.0 2674.699951171875
 endloop
endfacet
facet normal 0.014089874923229218 -0.034875448793172836 -0.9992923140525818
 outer loop
  vertex 612500.0 5973500.0 2649.300048828125
  vertex 613500.0 5973500.0 2663.39990234375
  vertex 613500.0 5972500.0 2698.300048828125
 endloop
endfacet
facet normal 0.02327955886721611 -0.03486946225166321 -0.9991207122802734
 outer loop
  vertex 613500.0 5973500.0 2663.39990234375
  vertex 614500.0 5972500.0 2721.60009765625
  vertex 613500.0 5972500.0 2698.300048828125
 endloop
endfacet
facet normal 0.09264329820871353 0.03472866117954254 -0.9950935244560242
 outer loop
  vertex 613500.0 5973500.0 2663.39990234375
  vertex 614500.0 5973500.0 2756.5
  vertex 614500.0 5972500.0 2721.60009765625
 endloop
endfacet
facet normal -0.02687406726181507 0.03486606851220131 -0.999030590057373
 outer loop
  vertex 614500.0 5973500.0 2756.5
  vertex 615500.0 5972500.0 2694.699951171875
  vertex 614500.0 5972500.0 2721.60009765625
 endloop
endfacet
facet normal -0.10667621344327927 -0.04529259353876114 -0.9932616949081421
 outer loop
  vertex 614500.0 5973500.0 2756.5
  vertex 615500.0 5973500.0 2649.10009765625
  vertex 615500.0 5972500.0 2694.699951171875
 endloop
endfacet
facet normal -0.04580412805080414 -0.04550470784306526 -0.9979134798049927
 outer loop
  vertex 615500.0 5973500.0 2649.10009765625
  vertex 616500.0 5972500.0 2648.800048828125
  vertex 615500.0 5972500.0 2694.699951171875
 endloop
endfacet
facet normal 0.06502186506986618 0.06532063335180283 -0.9957436323165894
 outer loop
  vertex 615500.0 5973500.0 2649.10009765625
  vertex 616500.0 5973500.0 2714.39990234375
  vertex 616500.0 5972500.0 2648.800048828125
 endloop
endfacet
facet normal 0.03281166031956673 0.06542391330003738 -0.9973179697990417
 outer loop
  vertex 616500.0 5973500.0 2714.39990234375
  vertex 617500.0 5972500.0 2681.699951171875
  vertex 616500.0 5972500.0 2648.800048828125
 endloop
endfacet
facet normal 0.07201345264911652 0.10444917529821396 -0.9919195771217346
 outer loop
  vertex 616500.0 5973500.0 2714.39990234375
  vertex 617500.0 5973500.0 2787.0
  vertex 617500.0 5972500.0 2681.699951171875
 endloop
endfacet
facet normal -0.03260235860943794 0.10466539859771729 -0.9939729571342468
 outer loop
  vertex 617500.0 5973500.0 2787.0
  vertex 618500.0 5972500.0 2648.89990234375
  vertex 617500.0 5972500.0 2681.699951171875
 endloop
endfacet
facet normal 0.0026735702995210886 0.13942430913448334 -0.9902291893959045
 outer loop
  vertex 617500.0 5973500.0 2787.0
  vertex 618500.0 5973500.0 2789.699951171875
  vertex 618500.0 5972500.0 2648.89990234375
 endloop
endfacet
facet normal 0.00029998883837834 0.019996000453829765 -0.9998000264167786
 outer loop
  vertex 611500.0 5974500.0 2669.0
  vertex 612500.0 5973500.0 2649.300048828125
  vertex 611500.0 5973500.0 2649.0
 endloop
endfacet
facet normal -0.0003998278407379985 0.01929645426571369 -0.9998137354850769
 outer loop
  vertex 611500.0 5974500.0 2669.0
  vertex 612500.0 5974500.0 2668.60009765625
  vertex 612500.0 5973500.0 2649.300048828125
 endloop
endfacet
facet normal 0.014095827005803585 0.019294537603855133 -0.9997144341468811
 outer loop
  vertex 612500.0 5974500.0 2668.60009765625
  vertex 613500.0 5973500.0 2663.39990234375
  vertex 612500.0 5973500.0 2649.300048828125
 endloop
endfacet
facet normal 0.014195848256349564 0.019394541159272194 -0.9997110962867737
 outer loop
  vertex 612500.0 5974500.0 2668.60009765625
  vertex 613500.0 5974500.0 2682.800048828125
  vertex 613500.0 5973500.0 2663.39990234375
 endloop
endfacet
facet normal 0.09268193691968918 0.019313009455800056 -0.9955084323883057
 outer loop
  vertex 613500.0 5974500.0 2682.800048828125
  vertex 614500.0 5973500.0 2756.5
  vertex 613500.0 5973500.0 2663.39990234375
 endloop
endfacet
facet normal 0.0063853273168206215 -0.06714677810668945 -0.9977226257324219
 outer loop
  vertex 613500.0 5974500.0 2682.800048828125
  vertex 614500.0 5974500.0 2689.199951171875
  vertex 614500.0 5973500.0 2756.5
 endloop
endfacet
facet normal -0.1065475195646286 -0.0667659193277359 -0.9920634627342224
 outer loop
  vertex 614500.0 5974500.0 2689.199951171875
  vertex 615500.0 5973500.0 2649.10009765625
  vertex 614500.0 5973500.0 2756.5
 endloop
endfacet
facet normal 0.0672561526298523 0.10703431814908981 -0.9919779300689697
 outer loop
  vertex 614500.0 5974500.0 2689.199951171875
  vertex 615500.0 5974500.0 2757.0
  vertex 615500.0 5973500.0 2649.10009765625
 endloop
endfacet
facet normal 0.06478658318519592 0.10705186426639557 -0.9921404719352722
 outer loop
  vertex 615500.0 5974500.0 2757.0
  vertex 616500.0 5973500.0 2714.39990234375
  vertex 615500.0 5973500.0 2649.10009765625
 endloop
endfacet
facet normal 0.04972540959715843 0.09209155291318893 -0.9945082068443298
 outer loop
  vertex 615500.0 5974500.0 2757.0
  vertex 616500.0 5974500.0 2807.0
  vertex 616500.0 5973500.0 2714.39990234375
 endloop
endfacet
facet normal 0.07210265845060349 0.09196563065052032 -0.9931483268737793
 outer loop
  vertex 616500.0 5974500.0 2807.0
  vertex 617500.0 5973500.0 2787.0
  vertex 616500.0 5973500.0 2714.39990234375
 endloop
endfacet
facet normal -0.01959633268415928 0.0003998255415353924 -0.9998078942298889
 outer loop
  vertex 616500.0 5974500.0 2807.0
  vertex 617500.0 5974500.0 2787.39990234375
  vertex 617500.0 5973500.0 2787.0
 endloop
endfacet
facet normal 0.0026999409310519695 0.000399900833144784 -0.9999962449073792
 outer loop
  vertex 617500.0 5974500.0 2787.39990234375
  vertex 618500.0 5973500.0 2789.699951171875
  vertex 617500.0 5973500.0 2787.0
 endloop
endfacet
facet normal 0.07597106695175171 0.07368393987417221 -0.9943838119506836
 outer loop
  vertex 617500.0 5974500.0 2787.39990234375
  vertex 618500.0 5974500.0 2863.800048828125
  vertex 618500.0 5973500.0 2789.699951171875
 endloop
endfacet
facet normal 0.06448835879564285 0.07374367117881775 -0.9951900243759155
 outer loop
  vertex 618500.0 5974500.0 2863.800048828125
  vertex 619500.0 5973500.0 2854.5
  vertex 618500.0 5973500.0 2789.699951171875
 endloop
endfacet
facet normal -0.11082548648118973 -0.10163118690252304 -0.9886297583580017
 outer loop
  vertex 618500.0 5974500.0 2863.800048828125
  vertex 619500.0 5974500.0 2751.699951171875
  vertex 619500.0 5973500.0 2854.5
 endloop
endfacet
facet normal -0.19906410574913025 -0.10021451860666275 -0.9748489856719971
 outer loop
  vertex 619500.0 5974500.0 2751.699951171875
  vertex 620500.0 5973500.0 2650.300048828125
  vertex 619500.0 5973500.0 2854.5
 endloop
endfacet
facet normal 0.060782719403505325 0.16067521274089813 -0.985133945941925
 outer loop
  vertex 619500.0 5974500.0 2751.699951171875
  vertex 620500.0 5974500.0 2813.39990234375
  vertex 620500.0 5973500.0 2650.300048828125
 endloop
endfacet
facet normal -0.0009001460857689381 -0.0001999510859604925 -0.9999995827674866
 outer loop
  vertex 624500.0 5974500.0 2650.60009765625
  vertex 625500.0 5974500.0 2649.699951171875
  vertex 625500.0 5973500.0 2649.89990234375
 endloop
endfacet
facet normal 0.06758113205432892 0.04335954412817955 -0.9967711567878723
 outer loop
  vertex 614500.0 5975500.0 2732.699951171875
  vertex 615500.0 5974500.0 2757.0
  vertex 614500.0 5974500.0 2689.199951171875
 endloop
endfacet
facet normal 0.013197988271713257 -0.011098446324467659 -0.9998512864112854
 outer loop
  vertex 614500.0 5975500.0 2732.699951171875
  vertex 615500.0 5975500.0 2745.89990234375
  vertex 615500.0 5974500.0 2757.0
 endloop
endfacet
facet normal 0.049934547394514084 -0.011085567064583302 -0.9986909627914429
 outer loop
  vertex 615500.0 5975500.0 2745.89990234375
  vertex 616500.0 5974500.0 2807.0
  vertex 615500.0 5974500.0 2757.0
 endloop
endfacet
facet normal 0.10999200493097305 0.04933749884366989 -0.9927071928977966
 outer loop
  vertex 615500.0 5975500.0 2745.89990234375
  vertex 616500.0 5975500.0 2856.699951171875
  vertex 616500.0 5974500.0 2807.0
 endloop
endfacet
facet normal -0.0195721834897995 0.049629177898168564 -0.9985759854316711
 outer loop
  vertex 616500.0 5975500.0 2856.699951171875
  vertex 617500.0 5974500.0 2787.39990234375
  vertex 616500.0 5974500.0 2807.0
 endloop
endfacet
facet normal 0.039534345269203186 0.10837174952030182 -0.9933240413665771
 outer loop
  vertex 616500.0 5975500.0 2856.699951171875
  vertex 617500.0 5975500.0 2896.5
  vertex 617500.0 5974500.0 2787.39990234375
 endloop
endfacet
facet normal 0.07573135942220688 0.10814507305622101 -0.9912463426589966
 outer loop
  vertex 617500.0 5975500.0 2896.5
  vertex 618500.0 5974500.0 2863.800048828125
  vertex 617500.0 5974500.0 2787.39990234375
 endloop
endfacet
facet normal -0.04146270826458931 -0.008792140521109104 -0.9991014003753662
 outer loop
  vertex 617500.0 5975500.0 2896.5
  vertex 618500.0 5975500.0 2855.0
  vertex 618500.0 5974500.0 2863.800048828125
 endloop
endfacet
facet normal -0.11139805614948273 -0.008744937367737293 -0.9937373995780945
 outer loop
  vertex 618500.0 5975500.0 2855.0
  vertex 619500.0 5974500.0 2751.699951171875
  vertex 618500.0 5974500.0 2863.800048828125
 endloop
endfacet
facet normal 0.00556709710508585 0.10825841128826141 -0.994107186794281
 outer loop
  vertex 618500.0 5975500.0 2855.0
  vertex 619500.0 5975500.0 2860.60009765625
  vertex 619500.0 5974500.0 2751.699951171875
 endloop
endfacet
facet normal 0.06122225895524025 0.10805702209472656 -0.9922577738761902
 outer loop
  vertex 619500.0 5975500.0 2860.60009765625
  vertex 620500.0 5974500.0 2813.39990234375
  vertex 619500.0 5974500.0 2751.699951171875
 endloop
endfacet
facet normal -0.08630935847759247 -0.039321936666965485 -0.9954921007156372
 outer loop
  vertex 619500.0 5975500.0 2860.60009765625
  vertex 620500.0 5975500.0 2773.89990234375
  vertex 620500.0 5974500.0 2813.39990234375
 endloop
endfacet
facet normal -0.1611388921737671 -0.038953427225351334 -0.9861627221107483
 outer loop
  vertex 620500.0 5975500.0 2773.89990234375
  vertex 621500.0 5974500.0 2650.0
  vertex 620500.0 5974500.0 2813.39990234375
 endloop
endfacet
facet normal 0.05056336894631386 0.17244622111320496 -0.9837203025817871
 outer loop
  vertex 620500.0 5975500.0 2773.89990234375
  vertex 621500.0 5975500.0 2825.300048828125
  vertex 621500.0 5974500.0 2650.0
 endloop
endfacet
facet normal -0.0009001455618999898 -0.00110009650234133 -0.9999989867210388
 outer loop
  vertex 624500.0 5975500.0 2649.5
  vertex 625500.0 5974500.0 2649.699951171875
  vertex 624500.0 5974500.0 2650.60009765625
 endloop
endfacet
facet normal 0.0 -0.00019995117327198386 -1.0
 outer loop
  vertex 624500.0 5975500.0 2649.5
  vertex 625500.0 5975500.0 2649.5
  vertex 625500.0 5974500.0 2649.699951171875
 endloop
endfacet
facet normal -9.985351789509878e-05 -0.00019995117327198386 -1.0
 outer loop
  vertex 625500.0 5975500.0 2649.5
  vertex 626500.0 5974500.0 2649.60009765625
  vertex 625500.0 5974500.0 2649.699951171875
 endloop
endfacet
facet normal -0.00019995115872006863 -0.00030004882137291133 -0.9999999403953552
 outer loop
  vertex 625500.0 5975500.0 2649.5
  vertex 626500.0 5975500.0 2649.300048828125
  vertex 626500.0 5974500.0 2649.60009765625
 endloop
endfacet
facet normal 9.985351061914116e-05 -0.00030004882137291133 -0.9999999403953552
 outer loop
  vertex 626500.0 5975500.0 2649.300048828125
  vertex 627500.0 5974500.0 2649.699951171875
  vertex 626500.0 5974500.0 2649.60009765625
 endloop
endfacet
facet normal 0.03969870135188103 -0.05924864485859871 -0.9974535703659058
 outer loop
  vertex 616500.0 5976500.0 2797.300048828125
  vertex 617500.0 5975500.0 2896.5
  vertex 616500.0 5975500.0 2856.699951171875
 endloop
endfacet
facet normal 0.10913803428411484 0.01053618360310793 -0.9939707517623901
 outer loop
  vertex 616500.0 5976500.0 2797.300048828125
  vertex 617500.0 5976500.0 2907.10009765625
  vertex 617500.0 5975500.0 2896.5
 endloop
endfacet
facet normal -0.04146198555827141 0.010590387508273125 -0.999083936214447
 outer loop
  vertex 617500.0 5976500.0 2907.10009765625
  vertex 618500.0 5975500.0 2855.0
  vertex 617500.0 5975500.0 2896.5
 endloop
endfacet
facet normal -0.09576395899057388 -0.043953895568847656 -0.9944331645965576
 outer loop
  vertex 617500.0 5976500.0 2907.10009765625
  vertex 618500.0 5976500.0 2810.800048828125
  vertex 618500.0 5975500.0 2855.0
 endloop
endfacet
facet normal 0.0055945441126823425 -0.04415614902973175 -0.9990089535713196
 outer loop
  vertex 618500.0 5976500.0 2810.800048828125
  vertex 619500.0 5975500.0 2860.60009765625
  vertex 618500.0 5975500.0 2855.0
 endloop
endfacet
facet normal 0.016488617286086082 -0.03327707201242447 -0.9993100762367249
 outer loop
  vertex 618500.0 5976500.0 2810.800048828125
  vertex 619500.0 5976500.0 2827.300048828125
  vertex 619500.0 5975500.0 2860.60009765625
 endloop
endfacet
facet normal -0.0863286629319191 -0.0331573486328125 -0.9957147836685181
 outer loop
  vertex 619500.0 5976500.0 2827.300048828125
  vertex 620500.0 5975500.0 2773.89990234375
  vertex 619500.0 5975500.0 2860.60009765625
 endloop
endfacet
facet normal 0.0017973097274079919 0.0551161989569664 -0.9984782934188843
 outer loop
  vertex 619500.0 5976500.0 2827.300048828125
  vertex 620500.0 5976500.0 2829.10009765625
  vertex 620500.0 5975500.0 2773.89990234375
 endloop
endfacet
facet normal 0.05125455930829048 0.055043842643499374 -0.9971675276756287
 outer loop
  vertex 620500.0 5976500.0 2829.10009765625
  vertex 621500.0 5975500.0 2825.300048828125
  vertex 620500.0 5975500.0 2773.89990234375
 endloop
endfacet
facet normal 0.0646119937300682 0.06839518994092941 -0.995563805103302
 outer loop
  vertex 620500.0 5976500.0 2829.10009765625
  vertex 621500.0 5976500.0 2894.0
  vertex 621500.0 5975500.0 2825.300048828125
 endloop
endfacet
facet normal -0.1727498322725296 0.06750797480344772 -0.982649564743042
 outer loop
  vertex 621500.0 5976500.0 2894.0
  vertex 622500.0 5975500.0 2649.5
  vertex 621500.0 5975500.0 2825.300048828125
 endloop
endfacet
facet normal -0.23713739216327667 0.00038849934935569763 -0.9714760780334473
 outer loop
  vertex 621500.0 5976500.0 2894.0
  vertex 622500.0 5976500.0 2649.89990234375
  vertex 622500.0 5975500.0 2649.5
 endloop
endfacet
facet normal 0.016496961936354637 0.009798244573175907 -0.9998158812522888
 outer loop
  vertex 618500.0 5977500.0 2820.60009765625
  vertex 619500.0 5976500.0 2827.300048828125
  vertex 618500.0 5976500.0 2810.800048828125
 endloop
endfacet
facet normal 0.04979156702756882 0.043106164783239365 -0.9978289604187012
 outer loop
  vertex 618500.0 5977500.0 2820.60009765625
  vertex 619500.0 5977500.0 2870.5
  vertex 619500.0 5976500.0 2827.300048828125
 endloop
endfacet
facet normal 0.001798370503820479 0.04315963014960289 -0.9990665316581726
 outer loop
  vertex 619500.0 5977500.0 2870.5
  vertex 620500.0 5976500.0 2829.10009765625
  vertex 619500.0 5976500.0 2827.300048828125
 endloop
endfacet
facet normal 0.041818078607320786 0.08303866535425186 -0.9956685304641724
 outer loop
  vertex 619500.0 5977500.0 2870.5
  vertex 620500.0 5977500.0 2912.5
  vertex 620500.0 5976500.0 2829.10009765625
 endloop
endfacet
facet normal 0.06454052776098251 0.08293808996677399 -0.9944626092910767
 outer loop
  vertex 620500.0 5977500.0 2912.5
  vertex 621500.0 5976500.0 2894.0
  vertex 620500.0 5976500.0 2829.10009765625
 endloop
endfacet
facet normal -0.057064030319452286 -0.038607992231845856 -0.9976237416267395
 outer loop
  vertex 620500.0 5977500.0 2912.5
  vertex 621500.0 5977500.0 2855.300048828125
  vertex 621500.0 5976500.0 2894.0
 endloop
endfacet
facet normal -0.236969992518425 -0.03756953775882721 -0.9707902669906616
 outer loop
  vertex 621500.0 5977500.0 2855.300048828125
  vertex 622500.0 5976500.0 2649.89990234375
  vertex 621500.0 5976500.0 2894.0
 endloop
endfacet
facet normal -0.2013876736164093 -0.0001958564098458737 -0.9795116186141968
 outer loop
  vertex 621500.0 5977500.0 2855.300048828125
  vertex 622500.0 5977500.0 2649.699951171875
  vertex 622500.0 5976500.0 2649.89990234375
 endloop
endfacet
facet normal -0.0006999510223977268 -0.00019995111506432295 -0.9999997615814209
 outer loop
  vertex 622500.0 5977500.0 2649.699951171875
  vertex 623500.0 5976500.0 2649.199951171875
  vertex 622500.0 5976500.0 2649.89990234375
 endloop
endfacet
facet normal -0.0005998534034006298 -9.985349606722593e-05 -0.9999998211860657
 outer loop
  vertex 622500.0 5977500.0 2649.699951171875
  vertex 623500.0 5977500.0 2649.10009765625
  vertex 623500.0 5976500.0 2649.199951171875
 endloop
endfacet
facet normal 0.04195872321724892 -0.014285994693636894 -0.9990172386169434
 outer loop
  vertex 619500.0 5978500.0 2856.199951171875
  vertex 620500.0 5977500.0 2912.5
  vertex 619500.0 5977500.0 2870.5
 endloop
endfacet
facet normal 0.05501660704612732 -0.0011981310090050101 -0.99848473072052
 outer loop
  vertex 619500.0 5978500.0 2856.199951171875
  vertex 620500.0 5978500.0 2911.300048828125
  vertex 620500.0 5977500.0 2912.5
 endloop
endfacet
facet normal -0.057106565684080124 -0.0011979921255260706 -0.9983673691749573
 outer loop
  vertex 620500.0 5978500.0 2911.300048828125
  vertex 621500.0 5977500.0 2855.300048828125
  vertex 620500.0 5977500.0 2912.5
 endloop
endfacet
facet normal -0.22790002822875977 -0.17425398528575897 -0.957965075969696
 outer loop
  vertex 620500.0 5978500.0 2911.300048828125
  vertex 621500.0 5978500.0 2673.39990234375
  vertex 621500.0 5977500.0 2855.300048828125
 endloop
endfacet
facet normal -0.19826523959636688 -0.17541079223155975 -0.9643246531486511
 outer loop
  vertex 621500.0 5978500.0 2673.39990234375
  vertex 622500.0 5977500.0 2649.699951171875
  vertex 621500.0 5977500.0 2855.300048828125
 endloop
endfacet
facet normal -0.005698935128748417 0.017996791750192642 -0.9998217821121216
 outer loop
  vertex 621500.0 5978500.0 2673.39990234375
  vertex 622500.0 5978500.0 2667.699951171875
  vertex 622500.0 5977500.0 2649.699951171875
 endloop
endfacet
facet normal -0.0005997562548145652 0.017997082322835922 -0.9998378753662109
 outer loop
  vertex 622500.0 5978500.0 2667.699951171875
  vertex 623500.0 5977500.0 2649.10009765625
  vertex 622500.0 5977500.0 2649.699951171875
 endloop
endfacet
facet normal -0.01859663799405098 0.0 -0.9998270869255066
 outer loop
  vertex 622500.0 5978500.0 2667.699951171875
  vertex 623500.0 5978500.0 2649.10009765625
  vertex 623500.0 5977500.0 2649.10009765625
 endloop
endfacet
facet normal -0.22718891501426697 -0.19080422818660736 -0.9549759030342102
 outer loop
  vertex 620500.0 5979500.0 2711.5
  vertex 621500.0 5978500.0 2673.39990234375
  vertex 620500.0 5978500.0 2911.300048828125
 endloop
endfacet
facet normal -0.0616651214659214 -0.023648206144571304 -0.9978167414665222
 outer loop
  vertex 620500.0 5979500.0 2711.5
  vertex 621500.0 5979500.0 2649.699951171875
  vertex 621500.0 5978500.0 2673.39990234375
 endloop
endfacet
facet normal -0.005698258988559246 -0.023692915216088295 -0.9997031092643738
 outer loop
  vertex 621500.0 5979500.0 2649.699951171875
  vertex 622500.0 5978500.0 2667.699951171875
  vertex 621500.0 5978500.0 2673.39990234375
 endloop
endfacet
facet normal 0.023293400183320045 0.005298536270856857 -0.9997146725654602
 outer loop
  vertex 621500.0 5979500.0 2649.699951171875
  vertex 622500.0 5979500.0 2673.0
  vertex 622500.0 5978500.0 2667.699951171875
 endloop
endfacet
facet normal -0.018596375361084938 0.005299057811498642 -0.9998130202293396
 outer loop
  vertex 622500.0 5979500.0 2673.0
  vertex 623500.0 5978500.0 2649.10009765625
  vertex 622500.0 5978500.0 2667.699951171875
 endloop
endfacet
facet normal -0.004499107599258423 0.01939605548977852 -0.999801754951477
 outer loop
  vertex 622500.0 5979500.0 2673.0
  vertex 623500.0 5979500.0 2668.5
  vertex 623500.0 5978500.0 2649.10009765625
 endloop
endfacet
facet normal -0.00040007117786444724 0.019396251067519188 -0.9998117685317993
 outer loop
  vertex 623500.0 5979500.0 2668.5
  vertex 624500.0 5978500.0 2648.699951171875
  vertex 623500.0 5978500.0 2649.10009765625
 endloop
endfacet
facet normal -0.019096611067652702 0.0006998233729973435 -0.999817430973053
 outer loop
  vertex 623500.0 5979500.0 2668.5
  vertex 624500.0 5979500.0 2649.39990234375
  vertex 624500.0 5978500.0 2648.699951171875
 endloop
endfacet
facet normal -0.003969324287027121 0.12354521453380585 -0.9923310279846191
 outer loop
  vertex 619500.0 5980500.0 2840.0
  vertex 620500.0 5980500.0 2836.0
  vertex 620500.0 5979500.0 2711.5
 endloop
endfacet
facet normal -0.061211585998535156 0.1233145073056221 -0.990477979183197
 outer loop
  vertex 620500.0 5980500.0 2836.0
  vertex 621500.0 5979500.0 2649.699951171875
  vertex 620500.0 5979500.0 2711.5
 endloop
endfacet
facet normal -0.06707736849784851 0.11750942468643188 -0.9908037781715393
 outer loop
  vertex 620500.0 5980500.0 2836.0
  vertex 621500.0 5980500.0 2768.300048828125
  vertex 621500.0 5979500.0 2649.699951171875
 endloop
endfacet
facet normal 0.02313169650733471 0.11774316430091858 -0.9927746653556824
 outer loop
  vertex 621500.0 5980500.0 2768.300048828125
  vertex 622500.0 5979500.0 2673.0
  vertex 621500.0 5979500.0 2649.699951171875
 endloop
endfacet
facet normal 0.015701495110988617 0.11040709912776947 -0.9937623739242554
 outer loop
  vertex 621500.0 5980500.0 2768.300048828125
  vertex 622500.0 5980500.0 2784.10009765625
  vertex 622500.0 5979500.0 2673.0
 endloop
endfacet
facet normal -0.004472437314689159 0.1104196086525917 -0.9938749670982361
 outer loop
  vertex 622500.0 5980500.0 2784.10009765625
  vertex 623500.0 5979500.0 2668.5
  vertex 622500.0 5979500.0 2673.0
 endloop
endfacet
facet normal -0.06752614676952362 0.023838544264435768 -0.9974326491355896
 outer loop
  vertex 620500.0 5981500.0 2859.89990234375
  vertex 621500.0 5980500.0 2768.300048828125
  vertex 620500.0 5980500.0 2836.0
 endloop
endfacet
facet normal 0.13247159123420715 0.2209790199995041 -0.9662399291992188
 outer loop
  vertex 620500.0 5981500.0 2859.89990234375
  vertex 621500.0 5981500.0 2997.0
  vertex 621500.0 5980500.0 2768.300048828125
 endloop
endfacet
facet normal 0.015400554053485394 0.22291743755340576 -0.9747157096862793
 outer loop
  vertex 621500.0 5981500.0 2997.0
  vertex 622500.0 5980500.0 2784.10009765625
  vertex 621500.0 5980500.0 2768.300048828125
 endloop
endfacet
facet normal -0.17648492753505707 0.032955676317214966 -0.9837514758110046
 outer loop
  vertex 621500.0 5981500.0 2997.0
  vertex 622500.0 5981500.0 2817.60009765625
  vertex 622500.0 5980500.0 2784.10009765625
 endloop
endfacet
facet normal -0.1738641858100891 -0.17473655939102173 -0.9691431522369385
 outer loop
  vertex 621500.0 5982500.0 2816.699951171875
  vertex 622500.0 5981500.0 2817.60009765625
  vertex 621500.0 5981500.0 2997.0
 endloop
endfacet
facet normal 0.04640169441699982 0.04550344869494438 -0.9978859424591064
 outer loop
  vertex 621500.0 5982500.0 2816.699951171875
  vertex 622500.0 5982500.0 2863.199951171875
  vertex 622500.0 5981500.0 2817.60009765625
 endloop
endfacet
facet normal -0.06605792045593262 -0.054101742804050446 -0.9963480234146118
 outer loop
  vertex 620500.0 5983500.0 2828.699951171875
  vertex 621500.0 5983500.0 2762.39990234375
  vertex 621500.0 5982500.0 2816.699951171875
 endloop
endfacet
facet normal 0.0463816300034523 -0.05416182056069374 -0.9974543452262878
 outer loop
  vertex 621500.0 5983500.0 2762.39990234375
  vertex 622500.0 5982500.0 2863.199951171875
  vertex 621500.0 5982500.0 2816.699951171875
 endloop
endfacet
endsolid
