solid
facet normal 0.067099429666996 0.03808608278632164 -0.9970191121101379
 outer loop
  vertex 464500.0 5474500.0 3611.89990234375
  vertex 465500.0 5473500.0 3641.0
  vertex 464500.0 5473500.0 3573.699951171875
 endloop
endfacet
facet normal 0.05897071585059166 0.029934324324131012 -0.9978107810020447
 outer loop
  vertex 464500.0 5474500.0 3611.89990234375
  vertex 465500.0 5474500.0 3671.0
  vertex 465500.0 5473500.0 3641.0
 endloop
endfacet
facet normal 0.015191362239420414 0.029983049258589745 -0.9994349479675293
 outer loop
  vertex 465500.0 5474500.0 3671.0
  vertex 466500.0 5473500.0 3656.199951171875
  vertex 465500.0 5473500.0 3641.0
 endloop
endfacet
facet normal -0.007799620274454355 0.006999615579843521 -0.9999450445175171
 outer loop
  vertex 465500.0 5474500.0 3671.0
  vertex 466500.0 5474500.0 3663.199951171875
  vertex 466500.0 5473500.0 3656.199951171875
 endloop
endfacet
facet normal 0.008199474774301052 0.00699959322810173 -0.999941885471344
 outer loop
  vertex 466500.0 5474500.0 3663.199951171875
  vertex 467500.0 5473500.0 3664.39990234375
  vertex 466500.0 5473500.0 3656.199951171875
 endloop
endfacet
facet normal 0.007099795155227184 0.00589989498257637 -0.9999573826789856
 outer loop
  vertex 466500.0 5474500.0 3663.199951171875
  vertex 467500.0 5474500.0 3670.300048828125
  vertex 467500.0 5473500.0 3664.39990234375
 endloop
endfacet
facet normal 0.02409268356859684 0.005898331291973591 -0.9996923208236694
 outer loop
  vertex 467500.0 5474500.0 3670.300048828125
  vertex 468500.0 5473500.0 3688.5
  vertex 467500.0 5473500.0 3664.39990234375
 endloop
endfacet
facet normal 0.01019909419119358 -0.007999327965080738 -0.9999160170555115
 outer loop
  vertex 467500.0 5474500.0 3670.300048828125
  vertex 468500.0 5474500.0 3680.5
  vertex 468500.0 5473500.0 3688.5
 endloop
endfacet
facet normal 0.058997124433517456 -0.0009982576593756676 -0.9982576370239258
 outer loop
  vertex 464500.0 5475500.0 3610.89990234375
  vertex 465500.0 5474500.0 3671.0
  vertex 464500.0 5474500.0 3611.89990234375
 endloop
endfacet
facet normal 0.046545352786779404 -0.013484139926731586 -0.998825192451477
 outer loop
  vertex 464500.0 5475500.0 3610.89990234375
  vertex 465500.0 5475500.0 3657.5
  vertex 465500.0 5474500.0 3671.0
 endloop
endfacet
facet normal -0.007799101062119007 -0.01349836029112339 -0.9998785257339478
 outer loop
  vertex 465500.0 5475500.0 3657.5
  vertex 466500.0 5474500.0 3663.199951171875
  vertex 465500.0 5474500.0 3671.0
 endloop
endfacet
facet normal 0.00689973309636116 0.0011999218259006739 -0.9999755024909973
 outer loop
  vertex 465500.0 5475500.0 3657.5
  vertex 466500.0 5475500.0 3664.39990234375
  vertex 466500.0 5474500.0 3663.199951171875
 endloop
endfacet
facet normal 0.0070999134331941605 0.0011999200796708465 -0.9999740719795227
 outer loop
  vertex 466500.0 5475500.0 3664.39990234375
  vertex 467500.0 5474500.0 3670.300048828125
  vertex 466500.0 5474500.0 3663.199951171875
 endloop
endfacet
facet normal 0.0013000339968129992 -0.004600045271217823 -0.9999885559082031
 outer loop
  vertex 466500.0 5475500.0 3664.39990234375
  vertex 467500.0 5475500.0 3665.699951171875
  vertex 467500.0 5474500.0 3670.300048828125
 endloop
endfacet
facet normal 0.010199313051998615 -0.004599810112267733 -0.9999374151229858
 outer loop
  vertex 467500.0 5475500.0 3665.699951171875
  vertex 468500.0 5474500.0 3680.5
  vertex 467500.0 5474500.0 3670.300048828125
 endloop
endfacet
facet normal 0.02149455063045025 0.006698253098875284 -0.999746561050415
 outer loop
  vertex 467500.0 5475500.0 3665.699951171875
  vertex 468500.0 5475500.0 3687.199951171875
  vertex 468500.0 5474500.0 3680.5
 endloop
endfacet
facet normal -0.0036990141961723566 -0.024992018938064575 -0.9996808171272278
 outer loop
  vertex 463500.0 5476500.0 3589.60009765625
  vertex 464500.0 5476500.0 3585.89990234375
  vertex 464500.0 5475500.0 3610.89990234375
 endloop
endfacet
facet normal 0.04653507098555565 -0.024965116754174232 -0.9986046552658081
 outer loop
  vertex 464500.0 5476500.0 3585.89990234375
  vertex 465500.0 5475500.0 3657.5
  vertex 464500.0 5475500.0 3610.89990234375
 endloop
endfacet
facet normal 0.0639670193195343 -0.007484425790607929 -0.9979239702224731
 outer loop
  vertex 464500.0 5476500.0 3585.89990234375
  vertex 465500.0 5476500.0 3650.0
  vertex 465500.0 5475500.0 3657.5
 endloop
endfacet
facet normal 0.006899544037878513 -0.007499610539525747 -0.9999480843544006
 outer loop
  vertex 465500.0 5476500.0 3650.0
  vertex 466500.0 5475500.0 3664.39990234375
  vertex 465500.0 5475500.0 3657.5
 endloop
endfacet
facet normal 0.004999716766178608 -0.009399369359016418 -0.9999433159828186
 outer loop
  vertex 465500.0 5476500.0 3650.0
  vertex 466500.0 5476500.0 3655.0
  vertex 466500.0 5475500.0 3664.39990234375
 endloop
endfacet
facet normal 0.0012999903410673141 -0.009399479255080223 -0.9999549984931946
 outer loop
  vertex 466500.0 5476500.0 3655.0
  vertex 467500.0 5475500.0 3665.699951171875
  vertex 466500.0 5475500.0 3664.39990234375
 endloop
endfacet
facet normal 0.004399772733449936 -0.00629986310377717 -0.9999704957008362
 outer loop
  vertex 466500.0 5476500.0 3655.0
  vertex 467500.0 5476500.0 3659.39990234375
  vertex 467500.0 5475500.0 3665.699951171875
 endloop
endfacet
facet normal 0.021494606509804726 -0.0062984684482216835 -0.9997491240501404
 outer loop
  vertex 467500.0 5476500.0 3659.39990234375
  vertex 468500.0 5475500.0 3687.199951171875
  vertex 467500.0 5475500.0 3665.699951171875
 endloop
endfacet
facet normal 0.025991173461079597 -0.0017994377994909883 -0.9996605515480042
 outer loop
  vertex 467500.0 5476500.0 3659.39990234375
  vertex 468500.0 5476500.0 3685.39990234375
  vertex 468500.0 5475500.0 3687.199951171875
 endloop
endfacet
facet normal 0.0011999483685940504 -0.001800044672563672 -0.9999976754188538
 outer loop
  vertex 468500.0 5476500.0 3685.39990234375
  vertex 469500.0 5475500.0 3688.39990234375
  vertex 468500.0 5475500.0 3687.199951171875
 endloop
endfacet
facet normal 0.032173704355955124 0.024380015209317207 -0.9991849064826965
 outer loop
  vertex 459500.0 5477500.0 3559.699951171875
  vertex 460500.0 5477500.0 3591.89990234375
  vertex 460500.0 5476500.0 3567.5
 endloop
endfacet
facet normal -0.02688218094408512 0.024383828043937683 -0.9993411898612976
 outer loop
  vertex 460500.0 5477500.0 3591.89990234375
  vertex 461500.0 5476500.0 3540.60009765625
  vertex 460500.0 5476500.0 3567.5
 endloop
endfacet
facet normal -0.005394144915044308 0.0458509624004364 -0.9989337921142578
 outer loop
  vertex 460500.0 5477500.0 3591.89990234375
  vertex 461500.0 5477500.0 3586.5
  vertex 461500.0 5476500.0 3540.60009765625
 endloop
endfacet
facet normal 0.002097642282024026 0.04585152491927147 -0.9989460706710815
 outer loop
  vertex 461500.0 5477500.0 3586.5
  vertex 462500.0 5476500.0 3542.699951171875
  vertex 461500.0 5476500.0 3540.60009765625
 endloop
endfacet
facet normal 0.021449372172355652 0.06514627486467361 -0.9976451992988586
 outer loop
  vertex 461500.0 5477500.0 3586.5
  vertex 462500.0 5477500.0 3608.0
  vertex 462500.0 5476500.0 3542.699951171875
 endloop
endfacet
facet normal 0.046749297529459 0.06509002298116684 -0.9967836737632751
 outer loop
  vertex 462500.0 5477500.0 3608.0
  vertex 463500.0 5476500.0 3589.60009765625
  vertex 462500.0 5476500.0 3542.699951171875
 endloop
endfacet
facet normal -0.021494930610060692 -0.003099366556853056 -0.9997642040252686
 outer loop
  vertex 462500.0 5477500.0 3608.0
  vertex 463500.0 5477500.0 3586.5
  vertex 463500.0 5476500.0 3589.60009765625
 endloop
endfacet
facet normal -0.003700152039527893 -0.003100061323493719 -0.999988317489624
 outer loop
  vertex 463500.0 5477500.0 3586.5
  vertex 464500.0 5476500.0 3585.89990234375
  vertex 463500.0 5476500.0 3589.60009765625
 endloop
endfacet
facet normal 0.002199937356635928 0.0028000310994684696 -0.9999936819076538
 outer loop
  vertex 463500.0 5477500.0 3586.5
  vertex 464500.0 5477500.0 3588.699951171875
  vertex 464500.0 5476500.0 3585.89990234375
 endloop
endfacet
facet normal 0.06396856158971786 0.0027943032328039408 -0.9979480504989624
 outer loop
  vertex 464500.0 5477500.0 3588.699951171875
  vertex 465500.0 5476500.0 3650.0
  vertex 464500.0 5476500.0 3585.89990234375
 endloop
endfacet
facet normal 0.040458086878061295 -0.02077852189540863 -0.9989651441574097
 outer loop
  vertex 464500.0 5477500.0 3588.699951171875
  vertex 465500.0 5477500.0 3629.199951171875
  vertex 465500.0 5476500.0 3650.0
 endloop
endfacet
facet normal 0.004998856224119663 -0.020795291289687157 -0.999771237373352
 outer loop
  vertex 465500.0 5477500.0 3629.199951171875
  vertex 466500.0 5476500.0 3655.0
  vertex 465500.0 5476500.0 3650.0
 endloop
endfacet
facet normal -0.002698845462873578 -0.02848832868039608 -0.9995904564857483
 outer loop
  vertex 465500.0 5477500.0 3629.199951171875
  vertex 466500.0 5477500.0 3626.5
  vertex 466500.0 5476500.0 3655.0
 endloop
endfacet
facet normal 0.004398074001073837 -0.02848815731704235 -0.9995844960212708
 outer loop
  vertex 466500.0 5477500.0 3626.5
  vertex 467500.0 5476500.0 3659.39990234375
  vertex 466500.0 5476500.0 3655.0
 endloop
endfacet
facet normal 0.005697750952094793 -0.027189452201128006 -0.9996140003204346
 outer loop
  vertex 466500.0 5477500.0 3626.5
  vertex 467500.0 5477500.0 3632.199951171875
  vertex 467500.0 5476500.0 3659.39990234375
 endloop
endfacet
facet normal 0.025981614366173744 -0.027180716395378113 -0.99929279088974
 outer loop
  vertex 467500.0 5477500.0 3632.199951171875
  vertex 468500.0 5476500.0 3685.39990234375
  vertex 467500.0 5476500.0 3659.39990234375
 endloop
endfacet
facet normal 0.025382157415151596 -0.027780117467045784 -0.9992917776107788
 outer loop
  vertex 467500.0 5477500.0 3632.199951171875
  vertex 468500.0 5477500.0 3657.60009765625
  vertex 468500.0 5476500.0 3685.39990234375
 endloop
endfacet
facet normal -0.005398320499807596 -0.023592941462993622 -0.9997071027755737
 outer loop
  vertex 460500.0 5478500.0 3568.300048828125
  vertex 461500.0 5477500.0 3586.5
  vertex 460500.0 5477500.0 3591.89990234375
 endloop
endfacet
facet normal 0.022593867033720016 0.004398736637085676 -0.9997350573539734
 outer loop
  vertex 460500.0 5478500.0 3568.300048828125
  vertex 461500.0 5478500.0 3590.89990234375
  vertex 461500.0 5477500.0 3586.5
 endloop
endfacet
facet normal 0.021494824439287186 0.00439884327352047 -0.999759316444397
 outer loop
  vertex 461500.0 5478500.0 3590.89990234375
  vertex 462500.0 5477500.0 3608.0
  vertex 461500.0 5477500.0 3586.5
 endloop
endfacet
facet normal -0.003199275815859437 -0.0202957633882761 -0.9997889399528503
 outer loop
  vertex 461500.0 5478500.0 3590.89990234375
  vertex 462500.0 5478500.0 3587.699951171875
  vertex 462500.0 5477500.0 3608.0
 endloop
endfacet
facet normal -0.021490607410669327 -0.020291179418563843 -0.9995631575584412
 outer loop
  vertex 462500.0 5478500.0 3587.699951171875
  vertex 463500.0 5477500.0 3586.5
  vertex 462500.0 5477500.0 3608.0
 endloop
endfacet
facet normal 0.03565299138426781 0.036851365119218826 -0.9986845254898071
 outer loop
  vertex 462500.0 5478500.0 3587.699951171875
  vertex 463500.0 5478500.0 3623.39990234375
  vertex 463500.0 5477500.0 3586.5
 endloop
endfacet
facet normal 0.0021984477061778307 0.036874715238809586 -0.999317467212677
 outer loop
  vertex 463500.0 5478500.0 3623.39990234375
  vertex 464500.0 5477500.0 3588.699951171875
  vertex 463500.0 5477500.0 3586.5
 endloop
endfacet
facet normal -0.029586510732769966 0.005097800400108099 -0.9995492100715637
 outer loop
  vertex 463500.0 5478500.0 3623.39990234375
  vertex 464500.0 5478500.0 3593.800048828125
  vertex 464500.0 5477500.0 3588.699951171875
 endloop
endfacet
facet normal 0.0404663011431694 0.005095853935927153 -0.9991679191589355
 outer loop
  vertex 464500.0 5478500.0 3593.800048828125
  vertex 465500.0 5477500.0 3629.199951171875
  vertex 464500.0 5477500.0 3588.699951171875
 endloop
endfacet
facet normal 0.013995423913002014 -0.021392907947301865 -0.9996731877326965
 outer loop
  vertex 464500.0 5478500.0 3593.800048828125
  vertex 465500.0 5478500.0 3607.800048828125
  vertex 465500.0 5477500.0 3629.199951171875
 endloop
endfacet
facet normal -0.0026993234641849995 -0.02139492705464363 -0.9997674822807312
 outer loop
  vertex 465500.0 5478500.0 3607.800048828125
  vertex 466500.0 5477500.0 3626.5
  vertex 465500.0 5477500.0 3629.199951171875
 endloop
endfacet
facet normal -0.009296003729104996 -0.02798781916499138 -0.9995650053024292
 outer loop
  vertex 465500.0 5478500.0 3607.800048828125
  vertex 466500.0 5478500.0 3598.5
  vertex 466500.0 5477500.0 3626.5
 endloop
endfacet
facet normal 0.005697627551853657 -0.027988575398921967 -0.9995920062065125
 outer loop
  vertex 466500.0 5478500.0 3598.5
  vertex 467500.0 5477500.0 3632.199951171875
  vertex 466500.0 5477500.0 3626.5
 endloop
endfacet
facet normal 0.047143176198005676 0.013483760878443718 -0.9987971186637878
 outer loop
  vertex 466500.0 5478500.0 3598.5
  vertex 467500.0 5478500.0 3645.699951171875
  vertex 467500.0 5477500.0 3632.199951171875
 endloop
endfacet
facet normal 0.025389645248651505 0.013494418002665043 -0.9995865225791931
 outer loop
  vertex 467500.0 5478500.0 3645.699951171875
  vertex 468500.0 5477500.0 3657.60009765625
  vertex 467500.0 5477500.0 3632.199951171875
 endloop
endfacet
facet normal -0.003199879080057144 0.005900013726204634 -0.9999775290489197
 outer loop
  vertex 461500.0 5479500.0 3596.800048828125
  vertex 462500.0 5478500.0 3587.699951171875
  vertex 461500.0 5478500.0 3590.89990234375
 endloop
endfacet
facet normal -0.010399575345218182 -0.0012999774189665914 -0.9999450445175171
 outer loop
  vertex 461500.0 5479500.0 3596.800048828125
  vertex 462500.0 5479500.0 3586.39990234375
  vertex 462500.0 5478500.0 3587.699951171875
 endloop
endfacet
facet normal 0.035677194595336914 -0.0012992201372981071 -0.9993625283241272
 outer loop
  vertex 462500.0 5479500.0 3586.39990234375
  vertex 463500.0 5478500.0 3623.39990234375
  vertex 462500.0 5478500.0 3587.699951171875
 endloop
endfacet
facet normal -0.005394976586103439 -0.04236122593283653 -0.9990878105163574
 outer loop
  vertex 462500.0 5479500.0 3586.39990234375
  vertex 463500.0 5479500.0 3581.0
  vertex 463500.0 5478500.0 3623.39990234375
 endloop
endfacet
facet normal -0.029560359194874763 -0.04234332963824272 -0.9986656904220581
 outer loop
  vertex 463500.0 5479500.0 3581.0
  vertex 464500.0 5478500.0 3593.800048828125
  vertex 463500.0 5478500.0 3623.39990234375
 endloop
endfacet
facet normal -0.009297377429902554 -0.022093748673796654 -0.9997127056121826
 outer loop
  vertex 463500.0 5479500.0 3581.0
  vertex 464500.0 5479500.0 3571.699951171875
  vertex 464500.0 5478500.0 3593.800048828125
 endloop
endfacet
facet normal 0.013995211571455002 -0.022092539817094803 -0.9996579885482788
 outer loop
  vertex 464500.0 5479500.0 3571.699951171875
  vertex 465500.0 5478500.0 3607.800048828125
  vertex 464500.0 5478500.0 3593.800048828125
 endloop
endfacet
facet normal 0.03517815098166466 -0.0008995870011858642 -0.9993806481361389
 outer loop
  vertex 464500.0 5479500.0 3571.699951171875
  vertex 465500.0 5479500.0 3606.89990234375
  vertex 465500.0 5478500.0 3607.800048828125
 endloop
endfacet
facet normal -0.009299643337726593 -0.0009001072030514479 -0.9999563694000244
 outer loop
  vertex 465500.0 5479500.0 3606.89990234375
  vertex 466500.0 5478500.0 3598.5
  vertex 465500.0 5478500.0 3607.800048828125
 endloop
endfacet
facet normal 0.007199132815003395 0.015597796067595482 -0.9998524785041809
 outer loop
  vertex 465500.0 5479500.0 3606.89990234375
  vertex 466500.0 5479500.0 3614.10009765625
  vertex 466500.0 5478500.0 3598.5
 endloop
endfacet
facet normal 0.04714174196124077 0.01558085810393095 -0.9987667202949524
 outer loop
  vertex 466500.0 5479500.0 3614.10009765625
  vertex 467500.0 5478500.0 3645.699951171875
  vertex 466500.0 5478500.0 3598.5
 endloop
endfacet
facet normal -0.0023987535387277603 -0.033980268985033035 -0.999419629573822
 outer loop
  vertex 466500.0 5479500.0 3614.10009765625
  vertex 467500.0 5479500.0 3611.699951171875
  vertex 467500.0 5478500.0 3645.699951171875
 endloop
endfacet
facet normal 0.007299503777176142 -0.005399923771619797 -0.9999587535858154
 outer loop
  vertex 460500.0 5480500.0 3584.10009765625
  vertex 461500.0 5480500.0 3591.39990234375
  vertex 461500.0 5479500.0 3596.800048828125
 endloop
endfacet
facet normal -0.010399432852864265 -0.00539977615699172 -0.9999313950538635
 outer loop
  vertex 461500.0 5480500.0 3591.39990234375
  vertex 462500.0 5479500.0 3586.39990234375
  vertex 461500.0 5479500.0 3596.800048828125
 endloop
endfacet
facet normal 0.008998753502964973 0.013998061418533325 -0.9998615384101868
 outer loop
  vertex 461500.0 5480500.0 3591.39990234375
  vertex 462500.0 5480500.0 3600.39990234375
  vertex 462500.0 5479500.0 3586.39990234375
 endloop
endfacet
facet normal -0.005399294663220644 0.013998424634337425 -0.9998874664306641
 outer loop
  vertex 462500.0 5480500.0 3600.39990234375
  vertex 463500.0 5479500.0 3581.0
  vertex 462500.0 5479500.0 3586.39990234375
 endloop
endfacet
facet normal -0.020695500075817108 -0.0012997692683711648 -0.9997850060462952
 outer loop
  vertex 462500.0 5480500.0 3600.39990234375
  vertex 463500.0 5480500.0 3579.699951171875
  vertex 463500.0 5479500.0 3581.0
 endloop
endfacet
facet normal -0.00929963868111372 -0.0012999915052205324 -0.9999558925628662
 outer loop
  vertex 463500.0 5480500.0 3579.699951171875
  vertex 464500.0 5479500.0 3571.699951171875
  vertex 463500.0 5479500.0 3581.0
 endloop
endfacet
facet normal -0.027584053575992584 -0.019588632509112358 -0.9994274973869324
 outer loop
  vertex 463500.0 5480500.0 3579.699951171875
  vertex 464500.0 5480500.0 3552.10009765625
  vertex 464500.0 5479500.0 3571.699951171875
 endloop
endfacet
facet normal 0.03517141938209534 -0.019583966583013535 -0.9991894364356995
 outer loop
  vertex 464500.0 5480500.0 3552.10009765625
  vertex 465500.0 5479500.0 3606.89990234375
  vertex 464500.0 5479500.0 3571.699951171875
 endloop
endfacet
facet normal 0.03986376151442528 -0.014886406250298023 -0.9990941882133484
 outer loop
  vertex 464500.0 5480500.0 3552.10009765625
  vertex 465500.0 5480500.0 3592.0
  vertex 465500.0 5479500.0 3606.89990234375
 endloop
endfacet
facet normal 0.007199209649115801 -0.014897862449288368 -0.9998630881309509
 outer loop
  vertex 465500.0 5480500.0 3592.0
  vertex 466500.0 5479500.0 3614.10009765625
  vertex 465500.0 5479500.0 3606.89990234375
 endloop
endfacet
facet normal 0.03916415199637413 0.017084239050745964 -0.9990867376327515
 outer loop
  vertex 465500.0 5480500.0 3592.0
  vertex 466500.0 5480500.0 3631.199951171875
  vertex 466500.0 5479500.0 3614.10009765625
 endloop
endfacet
facet normal -0.0023997887037694454 0.01709730550646782 -0.9998509883880615
 outer loop
  vertex 466500.0 5480500.0 3631.199951171875
  vertex 467500.0 5479500.0 3611.699951171875
  vertex 466500.0 5479500.0 3614.10009765625
 endloop
endfacet
facet normal 0.07477260380983353 0.021534360945224762 -0.9969680309295654
 outer loop
  vertex 459500.0 5481500.0 3530.699951171875
  vertex 460500.0 5481500.0 3605.699951171875
  vertex 460500.0 5480500.0 3584.10009765625
 endloop
endfacet
facet normal 0.007297907955944538 0.02159424126148224 -0.9997401833534241
 outer loop
  vertex 460500.0 5481500.0 3605.699951171875
  vertex 461500.0 5480500.0 3591.39990234375
  vertex 460500.0 5480500.0 3584.10009765625
 endloop
endfacet
facet normal -0.001499875565059483 0.01279898639768362 -0.9999170303344727
 outer loop
  vertex 460500.0 5481500.0 3605.699951171875
  vertex 461500.0 5481500.0 3604.199951171875
  vertex 461500.0 5480500.0 3591.39990234375
 endloop
endfacet
facet normal 0.008998897857964039 0.012798481620848179 -0.9998775720596313
 outer loop
  vertex 461500.0 5481500.0 3604.199951171875
  vertex 462500.0 5480500.0 3600.39990234375
  vertex 461500.0 5480500.0 3591.39990234375
 endloop
endfacet
facet normal -0.07204246520996094 -0.06826117634773254 -0.9950629472732544
 outer loop
  vertex 461500.0 5481500.0 3604.199951171875
  vertex 462500.0 5481500.0 3531.800048828125
  vertex 462500.0 5480500.0 3600.39990234375
 endloop
endfacet
facet normal -0.020647011697292328 -0.06842441856861115 -0.9974426031112671
 outer loop
  vertex 462500.0 5481500.0 3531.800048828125
  vertex 463500.0 5480500.0 3579.699951171875
  vertex 462500.0 5480500.0 3600.39990234375
 endloop
endfacet
facet normal 0.05153094604611397 0.0036950083449482918 -0.9986646175384521
 outer loop
  vertex 462500.0 5481500.0 3531.800048828125
  vertex 463500.0 5481500.0 3583.39990234375
  vertex 463500.0 5480500.0 3579.699951171875
 endloop
endfacet
facet normal -0.027589159086346626 0.003698517568409443 -0.9996125102043152
 outer loop
  vertex 463500.0 5481500.0 3583.39990234375
  vertex 464500.0 5480500.0 3552.10009765625
  vertex 463500.0 5480500.0 3579.699951171875
 endloop
endfacet
facet normal 0.003597883740440011 0.0348784402012825 -0.9993850588798523
 outer loop
  vertex 463500.0 5481500.0 3583.39990234375
  vertex 464500.0 5481500.0 3587.0
  vertex 464500.0 5480500.0 3552.10009765625
 endloop
endfacet
facet normal 0.03984396159648895 0.03485096991062164 -0.9985979795455933
 outer loop
  vertex 464500.0 5481500.0 3587.0
  vertex 465500.0 5480500.0 3592.0
  vertex 464500.0 5480500.0 3552.10009765625
 endloop
endfacet
facet normal 0.06790704280138016 0.06292851269245148 -0.9957050681114197
 outer loop
  vertex 464500.0 5481500.0 3587.0
  vertex 465500.0 5481500.0 3655.199951171875
  vertex 465500.0 5480500.0 3592.0
 endloop
endfacet
facet normal 0.03909199684858322 0.06302589923143387 -0.9972459673881531
 outer loop
  vertex 465500.0 5481500.0 3655.199951171875
  vertex 466500.0 5480500.0 3631.199951171875
  vertex 465500.0 5480500.0 3592.0
 endloop
endfacet
facet normal 0.006197006907314062 0.030185610055923462 -0.9995251297950745
 outer loop
  vertex 465500.0 5481500.0 3655.199951171875
  vertex 466500.0 5481500.0 3661.39990234375
  vertex 466500.0 5480500.0 3631.199951171875
 endloop
endfacet
facet normal 0.07467973977327347 0.0542672798037529 -0.9957298636436462
 outer loop
  vertex 459500.0 5482500.0 3585.199951171875
  vertex 460500.0 5481500.0 3605.699951171875
  vertex 459500.0 5481500.0 3530.699951171875
 endloop
endfacet
facet normal -0.053476110100746155 -0.07389065623283386 -0.9958315491676331
 outer loop
  vertex 459500.0 5482500.0 3585.199951171875
  vertex 460500.0 5482500.0 3531.5
  vertex 460500.0 5481500.0 3605.699951171875
 endloop
endfacet
facet normal -0.001495886011980474 -0.07399644702672958 -0.9972573518753052
 outer loop
  vertex 460500.0 5482500.0 3531.5
  vertex 461500.0 5481500.0 3604.199951171875
  vertex 460500.0 5481500.0 3605.699951171875
 endloop
endfacet
facet normal 0.06565650552511215 -0.006884854286909103 -0.9978185296058655
 outer loop
  vertex 460500.0 5482500.0 3531.5
  vertex 461500.0 5482500.0 3597.300048828125
  vertex 461500.0 5481500.0 3604.199951171875
 endloop
endfacet
facet normal -0.0722091868519783 -0.006881726440042257 -0.9973657727241516
 outer loop
  vertex 461500.0 5482500.0 3597.300048828125
  vertex 462500.0 5481500.0 3531.800048828125
  vertex 461500.0 5481500.0 3604.199951171875
 endloop
endfacet
facet normal 0.02141418121755123 0.0866527333855629 -0.9960084557533264
 outer loop
  vertex 461500.0 5482500.0 3597.300048828125
  vertex 462500.0 5482500.0 3618.800048828125
  vertex 462500.0 5481500.0 3531.800048828125
 endloop
endfacet
facet normal 0.05133788660168648 0.08655831217765808 -0.9949231743812561
 outer loop
  vertex 462500.0 5482500.0 3618.800048828125
  vertex 463500.0 5481500.0 3583.39990234375
  vertex 462500.0 5481500.0 3531.800048828125
 endloop
endfacet
facet normal 0.020064927637577057 0.055403564125299454 -0.9982624053955078
 outer loop
  vertex 462500.0 5482500.0 3618.800048828125
  vertex 463500.0 5482500.0 3638.89990234375
  vertex 463500.0 5481500.0 3583.39990234375
 endloop
endfacet
facet normal 0.003594542620703578 0.055414360016584396 -0.9984569549560547
 outer loop
  vertex 463500.0 5482500.0 3638.89990234375
  vertex 464500.0 5481500.0 3587.0
  vertex 463500.0 5481500.0 3583.39990234375
 endloop
endfacet
facet normal -0.0006990354158915579 0.051132965832948685 -0.9986916780471802
 outer loop
  vertex 463500.0 5482500.0 3638.89990234375
  vertex 464500.0 5482500.0 3638.199951171875
  vertex 464500.0 5481500.0 3587.0
 endloop
endfacet
facet normal 0.06795329600572586 0.05101478099822998 -0.9963833689689636
 outer loop
  vertex 464500.0 5482500.0 3638.199951171875
  vertex 465500.0 5481500.0 3655.199951171875
  vertex 464500.0 5481500.0 3587.0
 endloop
endfacet
facet normal 0.014898460358381271 -0.002099615754559636 -0.9998868107795715
 outer loop
  vertex 464500.0 5482500.0 3638.199951171875
  vertex 465500.0 5482500.0 3653.10009765625
  vertex 465500.0 5481500.0 3655.199951171875
 endloop
endfacet
facet normal 0.006199818104505539 -0.0020998085383325815 -0.9999785423278809
 outer loop
  vertex 465500.0 5482500.0 3653.10009765625
  vertex 466500.0 5481500.0 3661.39990234375
  vertex 465500.0 5481500.0 3655.199951171875
 endloop
endfacet
facet normal 0.0048998151905834675 -0.003399841720238328 -0.9999821782112122
 outer loop
  vertex 465500.0 5482500.0 3653.10009765625
  vertex 466500.0 5482500.0 3658.0
  vertex 466500.0 5481500.0 3661.39990234375
 endloop
endfacet
facet normal -0.05362114682793617 0.007588944863528013 -0.9985325336456299
 outer loop
  vertex 459500.0 5483500.0 3592.800048828125
  vertex 460500.0 5482500.0 3531.5
  vertex 459500.0 5482500.0 3585.199951171875
 endloop
endfacet
facet normal -0.06466402858495712 -0.0034926533699035645 -0.9979009628295898
 outer loop
  vertex 459500.0 5483500.0 3592.800048828125
  vertex 460500.0 5483500.0 3528.0
  vertex 460500.0 5482500.0 3531.5
 endloop
endfacet
facet normal 0.06565766781568527 -0.003492426360026002 -0.9978361129760742
 outer loop
  vertex 460500.0 5483500.0 3528.0
  vertex 461500.0 5482500.0 3597.300048828125
  vertex 460500.0 5482500.0 3531.5
 endloop
endfacet
facet normal 0.05839676037430763 -0.010780987329781055 -0.9982352256774902
 outer loop
  vertex 460500.0 5483500.0 3528.0
  vertex 461500.0 5483500.0 3586.5
  vertex 461500.0 5482500.0 3597.300048828125
 endloop
endfacet
facet normal 0.021493779495358467 -0.010796924121677876 -0.9997106790542603
 outer loop
  vertex 461500.0 5483500.0 3586.5
  vertex 462500.0 5482500.0 3618.800048828125
  vertex 461500.0 5482500.0 3597.300048828125
 endloop
endfacet
facet normal 0.042559243738651276 0.010290171019732952 -0.999040961265564
 outer loop
  vertex 461500.0 5483500.0 3586.5
  vertex 462500.0 5483500.0 3629.10009765625
  vertex 462500.0 5482500.0 3618.800048828125
 endloop
endfacet
facet normal 0.020094729959964752 0.010297423228621483 -0.9997450709342957
 outer loop
  vertex 462500.0 5483500.0 3629.10009765625
  vertex 463500.0 5482500.0 3638.89990234375
  vertex 462500.0 5482500.0 3618.800048828125
 endloop
endfacet
facet normal 0.00919956061989069 -0.0005998280248604715 -0.9999575018882751
 outer loop
  vertex 462500.0 5483500.0 3629.10009765625
  vertex 463500.0 5483500.0 3638.300048828125
  vertex 463500.0 5482500.0 3638.89990234375
 endloop
endfacet
facet normal -0.000699950847774744 -0.000599853228777647 -0.9999995827674866
 outer loop
  vertex 463500.0 5483500.0 3638.300048828125
  vertex 464500.0 5482500.0 3638.199951171875
  vertex 463500.0 5482500.0 3638.89990234375
 endloop
endfacet
facet normal 0.008399303071200848 0.008499393239617348 -0.9999286532402039
 outer loop
  vertex 463500.0 5483500.0 3638.300048828125
  vertex 464500.0 5483500.0 3646.699951171875
  vertex 464500.0 5482500.0 3638.199951171875
 endloop
endfacet
facet normal 0.014897954650223255 0.008498749695718288 -0.9998528957366943
 outer loop
  vertex 464500.0 5483500.0 3646.699951171875
  vertex 465500.0 5482500.0 3653.10009765625
  vertex 464500.0 5482500.0 3638.199951171875
 endloop
endfacet
facet normal 0.0271840188652277 0.020787620916962624 -0.9994142651557922
 outer loop
  vertex 464500.0 5483500.0 3646.699951171875
  vertex 465500.0 5483500.0 3673.89990234375
  vertex 465500.0 5482500.0 3653.10009765625
 endloop
endfacet
facet normal 0.004898783750832081 0.020795056596398354 -0.9997717142105103
 outer loop
  vertex 465500.0 5483500.0 3673.89990234375
  vertex 466500.0 5482500.0 3658.0
  vertex 465500.0 5482500.0 3653.10009765625
 endloop
endfacet
facet normal -0.02648921310901642 -0.010595782659947872 -0.9995929002761841
 outer loop
  vertex 465500.0 5483500.0 3673.89990234375
  vertex 466500.0 5483500.0 3647.39990234375
  vertex 466500.0 5482500.0 3658.0
 endloop
endfacet
facet normal -0.009199044667184353 -0.010599053464829922 -0.999901533126831
 outer loop
  vertex 466500.0 5483500.0 3647.39990234375
  vertex 467500.0 5482500.0 3648.800048828125
  vertex 466500.0 5482500.0 3658.0
 endloop
endfacet
facet normal 0.0003000486467499286 -0.0011000969680026174 -0.9999994039535522
 outer loop
  vertex 466500.0 5483500.0 3647.39990234375
  vertex 467500.0 5483500.0 3647.699951171875
  vertex 467500.0 5482500.0 3648.800048828125
 endloop
endfacet
facet normal -0.014798419550061226 -0.0010999764781445265 -0.9998899102210999
 outer loop
  vertex 467500.0 5483500.0 3647.699951171875
  vertex 468500.0 5482500.0 3634.0
  vertex 467500.0 5482500.0 3648.800048828125
 endloop
endfacet
facet normal -0.003399702487513423 0.010299443267285824 -0.9999411702156067
 outer loop
  vertex 467500.0 5483500.0 3647.699951171875
  vertex 468500.0 5483500.0 3644.300048828125
  vertex 468500.0 5482500.0 3634.0
 endloop
endfacet
facet normal -0.06462204456329346 -0.036200329661369324 -0.9972530007362366
 outer loop
  vertex 459500.0 5484500.0 3556.5
  vertex 460500.0 5483500.0 3528.0
  vertex 459500.0 5483500.0 3592.800048828125
 endloop
endfacet
facet normal 0.03093046508729458 0.059366535395383835 -0.9977568984031677
 outer loop
  vertex 459500.0 5484500.0 3556.5
  vertex 460500.0 5484500.0 3587.5
  vertex 460500.0 5483500.0 3528.0
 endloop
endfacet
facet normal 0.05829740688204765 0.05929394066333771 -0.9965368509292603
 outer loop
  vertex 460500.0 5484500.0 3587.5
  vertex 461500.0 5483500.0 3586.5
  vertex 460500.0 5483500.0 3528.0
 endloop
endfacet
facet normal 0.04082997143268585 0.04182825982570648 -0.9982901811599731
 outer loop
  vertex 460500.0 5484500.0 3587.5
  vertex 461500.0 5484500.0 3628.39990234375
  vertex 461500.0 5483500.0 3586.5
 endloop
endfacet
facet normal 0.04252425208687782 0.0418253019452095 -0.9982195496559143
 outer loop
  vertex 461500.0 5484500.0 3628.39990234375
  vertex 462500.0 5483500.0 3629.10009765625
  vertex 461500.0 5483500.0 3586.5
 endloop
endfacet
facet normal -0.001699943793937564 -0.002400136087089777 -0.9999957084655762
 outer loop
  vertex 461500.0 5484500.0 3628.39990234375
  vertex 462500.0 5484500.0 3626.699951171875
  vertex 462500.0 5483500.0 3629.10009765625
 endloop
endfacet
facet normal 0.009199535474181175 -0.0024000380653887987 -0.9999548196792603
 outer loop
  vertex 462500.0 5484500.0 3626.699951171875
  vertex 463500.0 5483500.0 3638.300048828125
  vertex 462500.0 5483500.0 3629.10009765625
 endloop
endfacet
facet normal 0.0022999432403594255 -0.009299621917307377 -0.999954104423523
 outer loop
  vertex 462500.0 5484500.0 3626.699951171875
  vertex 463500.0 5484500.0 3629.0
  vertex 463500.0 5483500.0 3638.300048828125
 endloop
endfacet
facet normal 0.008399243466556072 -0.009299319237470627 -0.9999215006828308
 outer loop
  vertex 463500.0 5484500.0 3629.0
  vertex 464500.0 5483500.0 3646.699951171875
  vertex 463500.0 5483500.0 3638.300048828125
 endloop
endfacet
facet normal 0.004699502140283585 -0.012998757883906364 -0.999904453754425
 outer loop
  vertex 463500.0 5484500.0 3629.0
  vertex 464500.0 5484500.0 3633.699951171875
  vertex 464500.0 5483500.0 3646.699951171875
 endloop
endfacet
facet normal 0.02718760073184967 -0.012994096614420414 -0.9995458722114563
 outer loop
  vertex 464500.0 5484500.0 3633.699951171875
  vertex 465500.0 5483500.0 3673.89990234375
  vertex 464500.0 5483500.0 3646.699951171875
 endloop
endfacet
facet normal 0.008995259180665016 -0.0311835166066885 -0.9994732141494751
 outer loop
  vertex 464500.0 5484500.0 3633.699951171875
  vertex 465500.0 5484500.0 3642.699951171875
  vertex 465500.0 5483500.0 3673.89990234375
 endloop
endfacet
facet normal -0.02647782489657402 -0.031173843890428543 -0.9991632103919983
 outer loop
  vertex 465500.0 5484500.0 3642.699951171875
  vertex 466500.0 5483500.0 3647.39990234375
  vertex 465500.0 5483500.0 3673.89990234375
 endloop
endfacet
facet normal -0.00569955026730895 -0.010399171151220798 -0.999929666519165
 outer loop
  vertex 465500.0 5484500.0 3642.699951171875
  vertex 466500.0 5484500.0 3637.0
  vertex 466500.0 5483500.0 3647.39990234375
 endloop
endfacet
facet normal 0.0003000325814355165 -0.010399339720606804 -0.999945878982544
 outer loop
  vertex 466500.0 5484500.0 3637.0
  vertex 467500.0 5483500.0 3647.699951171875
  vertex 466500.0 5483500.0 3647.39990234375
 endloop
endfacet
facet normal -0.009497634135186672 -0.020194919779896736 -0.9997509121894836
 outer loop
  vertex 466500.0 5484500.0 3637.0
  vertex 467500.0 5484500.0 3627.5
  vertex 467500.0 5483500.0 3647.699951171875
 endloop
endfacet
facet normal -0.003399189095944166 -0.02019571326673031 -0.9997902512550354
 outer loop
  vertex 467500.0 5484500.0 3627.5
  vertex 468500.0 5483500.0 3644.300048828125
  vertex 467500.0 5483500.0 3647.699951171875
 endloop
endfacet
facet normal 0.018496807664632797 0.001699657877907157 -0.9998274445533752
 outer loop
  vertex 467500.0 5484500.0 3627.5
  vertex 468500.0 5484500.0 3646.0
  vertex 468500.0 5483500.0 3644.300048828125
 endloop
endfacet
facet normal 0.003799846163019538 0.009599586017429829 -0.9999467134475708
 outer loop
  vertex 458500.0 5485500.0 3562.300048828125
  vertex 459500.0 5485500.0 3566.10009765625
  vertex 459500.0 5484500.0 3556.5
 endloop
endfacet
facet normal 0.030983688309788704 0.009595046751201153 -0.9994738101959229
 outer loop
  vertex 459500.0 5485500.0 3566.10009765625
  vertex 460500.0 5484500.0 3587.5
  vertex 459500.0 5484500.0 3556.5
 endloop
endfacet
facet normal 0.11915579438209534 0.09801213443279266 -0.9880260229110718
 outer loop
  vertex 459500.0 5485500.0 3566.10009765625
  vertex 460500.0 5485500.0 3686.699951171875
  vertex 460500.0 5484500.0 3587.5
 endloop
endfacet
facet normal 0.04066647216677666 0.098633773624897 -0.9942924976348877
 outer loop
  vertex 460500.0 5485500.0 3686.699951171875
  vertex 461500.0 5484500.0 3628.39990234375
  vertex 460500.0 5484500.0 3587.5
 endloop
endfacet
facet normal -0.09146308898925781 -0.033440154045820236 -0.9952468276023865
 outer loop
  vertex 460500.0 5485500.0 3686.699951171875
  vertex 461500.0 5485500.0 3594.800048828125
  vertex 461500.0 5484500.0 3628.39990234375
 endloop
endfacet
facet normal -0.0016989880241453648 -0.033580854535102844 -0.9994345903396606
 outer loop
  vertex 461500.0 5485500.0 3594.800048828125
  vertex 462500.0 5484500.0 3626.699951171875
  vertex 461500.0 5484500.0 3628.39990234375
 endloop
endfacet
facet normal 0.023492684587836266 -0.00839728768914938 -0.9996887445449829
 outer loop
  vertex 461500.0 5485500.0 3594.800048828125
  vertex 462500.0 5485500.0 3618.300048828125
  vertex 462500.0 5484500.0 3626.699951171875
 endloop
endfacet
facet normal 0.002299961633980274 -0.008399583399295807 -0.9999620914459229
 outer loop
  vertex 462500.0 5485500.0 3618.300048828125
  vertex 463500.0 5484500.0 3629.0
  vertex 462500.0 5484500.0 3626.699951171875
 endloop
endfacet
facet normal 0.009099464863538742 -0.0016000294126570225 -0.9999573230743408
 outer loop
  vertex 462500.0 5485500.0 3618.300048828125
  vertex 463500.0 5485500.0 3627.39990234375
  vertex 463500.0 5484500.0 3629.0
 endloop
endfacet
facet normal 0.004699893295764923 -0.0016000779578462243 -0.9999876618385315
 outer loop
  vertex 463500.0 5485500.0 3627.39990234375
  vertex 464500.0 5484500.0 3633.699951171875
  vertex 463500.0 5484500.0 3629.0
 endloop
endfacet
facet normal 0.0009001329890452325 -0.005399821326136589 -0.9999849796295166
 outer loop
  vertex 463500.0 5485500.0 3627.39990234375
  vertex 464500.0 5485500.0 3628.300048828125
  vertex 464500.0 5484500.0 3633.699951171875
 endloop
endfacet
facet normal 0.008999504148960114 -0.005399605259299278 -0.9999449253082275
 outer loop
  vertex 464500.0 5485500.0 3628.300048828125
  vertex 465500.0 5484500.0 3642.699951171875
  vertex 464500.0 5484500.0 3633.699951171875
 endloop
endfacet
facet normal -0.007598039694130421 -0.02199404314160347 -0.9997292160987854
 outer loop
  vertex 464500.0 5485500.0 3628.300048828125
  vertex 465500.0 5485500.0 3620.699951171875
  vertex 465500.0 5484500.0 3642.699951171875
 endloop
endfacet
facet normal -0.00569847971200943 -0.021994320675730705 -0.9997418522834778
 outer loop
  vertex 465500.0 5485500.0 3620.699951171875
  vertex 466500.0 5484500.0 3637.0
  vertex 465500.0 5484500.0 3642.699951171875
 endloop
endfacet
facet normal 0.03247859328985214 0.01618928089737892 -0.9993413090705872
 outer loop
  vertex 465500.0 5485500.0 3620.699951171875
  vertex 466500.0 5485500.0 3653.199951171875
  vertex 466500.0 5484500.0 3637.0
 endloop
endfacet
facet normal -0.009498325176537037 0.016197094693779945 -0.9998236894607544
 outer loop
  vertex 466500.0 5485500.0 3653.199951171875
  vertex 467500.0 5484500.0 3627.5
  vertex 466500.0 5484500.0 3637.0
 endloop
endfacet
facet normal 0.0037989725824445486 0.023493343964219093 -0.9997167587280273
 outer loop
  vertex 458500.0 5486500.0 3585.800048828125
  vertex 459500.0 5485500.0 3566.10009765625
  vertex 458500.0 5485500.0 3562.300048828125
 endloop
endfacet
facet normal -0.055677223950624466 -0.036020632833242416 -0.9977988600730896
 outer loop
  vertex 458500.0 5486500.0 3585.800048828125
  vertex 459500.0 5486500.0 3530.0
  vertex 459500.0 5485500.0 3566.10009765625
 endloop
endfacet
facet normal 0.11965546011924744 -0.035817403346300125 -0.992169201374054
 outer loop
  vertex 459500.0 5486500.0 3530.0
  vertex 460500.0 5485500.0 3686.699951171875
  vertex 459500.0 5485500.0 3566.10009765625
 endloop
endfacet
facet normal 0.07056435942649841 -0.08517411351203918 -0.9938641786575317
 outer loop
  vertex 459500.0 5486500.0 3530.0
  vertex 460500.0 5486500.0 3601.0
  vertex 460500.0 5485500.0 3686.699951171875
 endloop
endfacet
facet normal -0.09118283540010452 -0.08503125607967377 -0.9921972155570984
 outer loop
  vertex 460500.0 5486500.0 3601.0
  vertex 461500.0 5485500.0 3594.800048828125
  vertex 460500.0 5485500.0 3686.699951171875
 endloop
endfacet
facet normal 0.008398711681365967 0.014597783796489239 -0.9998582005500793
 outer loop
  vertex 460500.0 5486500.0 3601.0
  vertex 461500.0 5486500.0 3609.39990234375
  vertex 461500.0 5485500.0 3594.800048828125
 endloop
endfacet
facet normal 0.023491011932492256 0.01459426898509264 -0.9996175169944763
 outer loop
  vertex 461500.0 5486500.0 3609.39990234375
  vertex 462500.0 5485500.0 3618.300048828125
  vertex 461500.0 5485500.0 3594.800048828125
 endloop
endfacet
facet normal 0.009399729780852795 0.0004999778466299176 -0.9999557137489319
 outer loop
  vertex 461500.0 5486500.0 3609.39990234375
  vertex 462500.0 5486500.0 3618.800048828125
  vertex 462500.0 5485500.0 3618.300048828125
 endloop
endfacet
facet normal 0.009099476039409637 0.0004999792436137795 -0.9999585151672363
 outer loop
  vertex 462500.0 5486500.0 3618.800048828125
  vertex 463500.0 5485500.0 3627.39990234375
  vertex 462500.0 5485500.0 3618.300048828125
 endloop
endfacet
facet normal 0.008199675008654594 -0.00039988887147046626 -0.9999663233757019
 outer loop
  vertex 462500.0 5486500.0 3618.800048828125
  vertex 463500.0 5486500.0 3627.0
  vertex 463500.0 5485500.0 3627.39990234375
 endloop
endfacet
facet normal 0.0009001460275612772 -0.0003999021428171545 -0.9999995231628418
 outer loop
  vertex 463500.0 5486500.0 3627.0
  vertex 464500.0 5485500.0 3628.300048828125
  vertex 463500.0 5485500.0 3627.39990234375
 endloop
endfacet
facet normal 0.03983855992555618 0.03854050487279892 -0.9984625577926636
 outer loop
  vertex 463500.0 5486500.0 3627.0
  vertex 464500.0 5486500.0 3666.89990234375
  vertex 464500.0 5485500.0 3628.300048828125
 endloop
endfacet
facet normal -0.007594226859509945 0.038570016622543335 -0.9992270469665527
 outer loop
  vertex 464500.0 5486500.0 3666.89990234375
  vertex 465500.0 5485500.0 3620.699951171875
  vertex 464500.0 5485500.0 3628.300048828125
 endloop
endfacet
facet normal -0.0388694703578949 0.007294339593499899 -0.999217689037323
 outer loop
  vertex 464500.0 5486500.0 3666.89990234375
  vertex 465500.0 5486500.0 3628.0
  vertex 465500.0 5485500.0 3620.699951171875
 endloop
endfacet
facet normal 0.03248198330402374 0.007296002469956875 -0.9994456768035889
 outer loop
  vertex 465500.0 5486500.0 3628.0
  vertex 466500.0 5485500.0 3653.199951171875
  vertex 465500.0 5485500.0 3620.699951171875
 endloop
endfacet
facet normal -0.055694472044706345 -0.026050714775919914 -0.9981079697608948
 outer loop
  vertex 458500.0 5487500.0 3559.699951171875
  vertex 459500.0 5486500.0 3530.0
  vertex 458500.0 5486500.0 3585.800048828125
 endloop
endfacet
facet normal 0.019173510372638702 0.04883256182074547 -0.9986228942871094
 outer loop
  vertex 458500.0 5487500.0 3559.699951171875
  vertex 459500.0 5487500.0 3578.89990234375
  vertex 459500.0 5486500.0 3530.0
 endloop
endfacet
facet normal 0.07073762267827988 0.048719193786382675 -0.9963045120239258
 outer loop
  vertex 459500.0 5487500.0 3578.89990234375
  vertex 460500.0 5486500.0 3601.0
  vertex 459500.0 5486500.0 3530.0
 endloop
endfacet
facet normal 0.016897505149245262 -0.005199138540774584 -0.9998437166213989
 outer loop
  vertex 459500.0 5487500.0 3578.89990234375
  vertex 460500.0 5487500.0 3595.800048828125
  vertex 460500.0 5486500.0 3601.0
 endloop
endfacet
facet normal 0.008399492129683495 -0.005199697334319353 -0.999951183795929
 outer loop
  vertex 460500.0 5487500.0 3595.800048828125
  vertex 461500.0 5486500.0 3609.39990234375
  vertex 460500.0 5486500.0 3601.0
 endloop
endfacet
facet normal -0.0038995197974145412 -0.017497189342975616 -0.9998393654823303
 outer loop
  vertex 460500.0 5487500.0 3595.800048828125
  vertex 461500.0 5487500.0 3591.89990234375
  vertex 461500.0 5486500.0 3609.39990234375
 endloop
endfacet
facet normal 0.009398292750120163 -0.01749654859304428 -0.9998027682304382
 outer loop
  vertex 461500.0 5487500.0 3591.89990234375
  vertex 462500.0 5486500.0 3618.800048828125
  vertex 461500.0 5486500.0 3609.39990234375
 endloop
endfacet
facet normal 0.01629696786403656 -0.010598094202578068 -0.999811053276062
 outer loop
  vertex 461500.0 5487500.0 3591.89990234375
  vertex 462500.0 5487500.0 3608.199951171875
  vertex 462500.0 5486500.0 3618.800048828125
 endloop
endfacet
facet normal 0.008199214935302734 -0.010599146597087383 -0.9999102354049683
 outer loop
  vertex 462500.0 5487500.0 3608.199951171875
  vertex 463500.0 5486500.0 3627.0
  vertex 462500.0 5486500.0 3618.800048828125
 endloop
endfacet
facet normal 0.008199214935302734 -0.010599146597087383 -0.9999102354049683
 outer loop
  vertex 462500.0 5487500.0 3608.199951171875
  vertex 463500.0 5487500.0 3616.39990234375
  vertex 463500.0 5486500.0 3627.0
 endloop
endfacet
facet normal 0.039865944534540176 -0.010591075755655766 -0.9991489052772522
 outer loop
  vertex 463500.0 5487500.0 3616.39990234375
  vertex 464500.0 5486500.0 3666.89990234375
  vertex 463500.0 5486500.0 3627.0
 endloop
endfacet
facet normal 0.008492207154631615 -0.041961491107940674 -0.9990831613540649
 outer loop
  vertex 463500.0 5487500.0 3616.39990234375
  vertex 464500.0 5487500.0 3624.89990234375
  vertex 464500.0 5486500.0 3666.89990234375
 endloop
endfacet
facet normal -0.038836318999528885 -0.04193134605884552 -0.9983654022216797
 outer loop
  vertex 464500.0 5487500.0 3624.89990234375
  vertex 465500.0 5486500.0 3628.0
  vertex 464500.0 5486500.0 3666.89990234375
 endloop
endfacet
facet normal 0.0136971864849329 0.014696984551846981 -0.9997981786727905
 outer loop
  vertex 457500.0 5488500.0 3560.699951171875
  vertex 458500.0 5488500.0 3574.39990234375
  vertex 458500.0 5487500.0 3559.699951171875
 endloop
endfacet
facet normal 0.019194340333342552 0.014695655554533005 -0.9997077584266663
 outer loop
  vertex 458500.0 5488500.0 3574.39990234375
  vertex 459500.0 5487500.0 3578.89990234375
  vertex 458500.0 5487500.0 3559.699951171875
 endloop
endfacet
facet normal 0.010399403050541878 0.005899724550545216 -0.9999285340309143
 outer loop
  vertex 458500.0 5488500.0 3574.39990234375
  vertex 459500.0 5488500.0 3584.800048828125
  vertex 459500.0 5487500.0 3578.89990234375
 endloop
endfacet
facet normal 0.01689743995666504 0.005899201612919569 -0.9998398423194885
 outer loop
  vertex 459500.0 5488500.0 3584.800048828125
  vertex 460500.0 5487500.0 3595.800048828125
  vertex 459500.0 5487500.0 3578.89990234375
 endloop
endfacet
facet normal 0.0014999306295067072 -0.009499561041593552 -0.9999537467956543
 outer loop
  vertex 459500.0 5488500.0 3584.800048828125
  vertex 460500.0 5488500.0 3586.300048828125
  vertex 460500.0 5487500.0 3595.800048828125
 endloop
endfacet
facet normal -0.0038999407552182674 -0.009499498642981052 -0.9999472498893738
 outer loop
  vertex 460500.0 5488500.0 3586.300048828125
  vertex 461500.0 5487500.0 3591.89990234375
  vertex 460500.0 5487500.0 3595.800048828125
 endloop
endfacet
facet normal 0.013598160818219185 0.007999003864824772 -0.9998754858970642
 outer loop
  vertex 460500.0 5488500.0 3586.300048828125
  vertex 461500.0 5488500.0 3599.89990234375
  vertex 461500.0 5487500.0 3591.89990234375
 endloop
endfacet
facet normal 0.016297362744808197 0.007998681627213955 -0.999835193157196
 outer loop
  vertex 461500.0 5488500.0 3599.89990234375
  vertex 462500.0 5487500.0 3608.199951171875
  vertex 461500.0 5487500.0 3591.89990234375
 endloop
endfacet
facet normal 0.005400045309215784 -0.00289984792470932 -0.9999812245368958
 outer loop
  vertex 461500.0 5488500.0 3599.89990234375
  vertex 462500.0 5488500.0 3605.300048828125
  vertex 462500.0 5487500.0 3608.199951171875
 endloop
endfacet
facet normal 0.008199641481041908 -0.002899792743846774 -0.9999622106552124
 outer loop
  vertex 462500.0 5488500.0 3605.300048828125
  vertex 463500.0 5487500.0 3616.39990234375
  vertex 462500.0 5487500.0 3608.199951171875
 endloop
endfacet
facet normal 0.007999705150723457 -0.003099739318713546 -0.9999631643295288
 outer loop
  vertex 462500.0 5488500.0 3605.300048828125
  vertex 463500.0 5488500.0 3613.300048828125
  vertex 463500.0 5487500.0 3616.39990234375
 endloop
endfacet
facet normal 0.00849965214729309 -0.003099726513028145 -0.9999590516090393
 outer loop
  vertex 463500.0 5488500.0 3613.300048828125
  vertex 464500.0 5487500.0 3624.89990234375
  vertex 463500.0 5487500.0 3616.39990234375
 endloop
endfacet
facet normal 0.008199628442525864 -0.003399768378585577 -0.9999606013298035
 outer loop
  vertex 463500.0 5488500.0 3613.300048828125
  vertex 464500.0 5488500.0 3621.5
  vertex 464500.0 5487500.0 3624.89990234375
 endloop
endfacet
facet normal 0.013698393478989601 -0.006299332715570927 -0.9998863339424133
 outer loop
  vertex 457500.0 5489500.0 3554.39990234375
  vertex 458500.0 5488500.0 3574.39990234375
  vertex 457500.0 5488500.0 3560.699951171875
 endloop
endfacet
facet normal 0.007899321615695953 -0.012098590843379498 -0.9998956322669983
 outer loop
  vertex 457500.0 5489500.0 3554.39990234375
  vertex 458500.0 5489500.0 3562.300048828125
  vertex 458500.0 5488500.0 3574.39990234375
 endloop
endfacet
facet normal 0.010398822836577892 -0.012098314240574837 -0.9998727440834045
 outer loop
  vertex 458500.0 5489500.0 3562.300048828125
  vertex 459500.0 5488500.0 3584.800048828125
  vertex 458500.0 5488500.0 3574.39990234375
 endloop
endfacet
facet normal 0.018196770921349525 -0.004299297463148832 -0.9998252391815186
 outer loop
  vertex 458500.0 5489500.0 3562.300048828125
  vertex 459500.0 5489500.0 3580.5
  vertex 459500.0 5488500.0 3584.800048828125
 endloop
endfacet
facet normal 0.0014999844133853912 -0.0043000043369829655 -0.9999896287918091
 outer loop
  vertex 459500.0 5489500.0 3580.5
  vertex 460500.0 5488500.0 3586.300048828125
  vertex 459500.0 5488500.0 3584.800048828125
 endloop
endfacet
facet normal 0.0026999283581972122 -0.00310007156804204 -0.9999915361404419
 outer loop
  vertex 459500.0 5489500.0 3580.5
  vertex 460500.0 5489500.0 3583.199951171875
  vertex 460500.0 5488500.0 3586.300048828125
 endloop
endfacet
facet normal 0.013598530553281307 -0.0030997958965599537 -0.9999027252197266
 outer loop
  vertex 460500.0 5489500.0 3583.199951171875
  vertex 461500.0 5488500.0 3599.89990234375
  vertex 460500.0 5488500.0 3586.300048828125
 endloop
endfacet
facet normal -0.02746281400322914 -0.04414018616080284 -0.9986477494239807
 outer loop
  vertex 460500.0 5489500.0 3583.199951171875
  vertex 461500.0 5489500.0 3555.699951171875
  vertex 461500.0 5488500.0 3599.89990234375
 endloop
endfacet
facet normal 0.005394799169152975 -0.04415620118379593 -0.9990100860595703
 outer loop
  vertex 461500.0 5489500.0 3555.699951171875
  vertex 462500.0 5488500.0 3605.300048828125
  vertex 461500.0 5488500.0 3599.89990234375
 endloop
endfacet
facet normal 0.04555239900946617 -0.003995815757662058 -0.9989539980888367
 outer loop
  vertex 461500.0 5489500.0 3555.699951171875
  vertex 462500.0 5489500.0 3601.300048828125
  vertex 462500.0 5488500.0 3605.300048828125
 endloop
endfacet
facet normal 0.007999680005013943 -0.003999840002506971 -0.9999600052833557
 outer loop
  vertex 462500.0 5489500.0 3601.300048828125
  vertex 463500.0 5488500.0 3613.300048828125
  vertex 462500.0 5488500.0 3605.300048828125
 endloop
endfacet
facet normal 0.00729977386072278 -0.004699774086475372 -0.999962329864502
 outer loop
  vertex 462500.0 5489500.0 3601.300048828125
  vertex 463500.0 5489500.0 3608.60009765625
  vertex 463500.0 5488500.0 3613.300048828125
 endloop
endfacet
facet normal 0.008199584670364857 -0.0046997410245239735 -0.9999552965164185
 outer loop
  vertex 463500.0 5489500.0 3608.60009765625
  vertex 464500.0 5488500.0 3621.5
  vertex 463500.0 5488500.0 3613.300048828125
 endloop
endfacet
facet normal 0.018193481490015984 -0.019493065774440765 -0.9996444582939148
 outer loop
  vertex 458500.0 5490500.0 3542.800048828125
  vertex 459500.0 5489500.0 3580.5
  vertex 458500.0 5489500.0 3562.300048828125
 endloop
endfacet
facet normal 0.01719379611313343 -0.020492665469646454 -0.9996421337127686
 outer loop
  vertex 458500.0 5490500.0 3542.800048828125
  vertex 459500.0 5490500.0 3560.0
  vertex 459500.0 5489500.0 3580.5
 endloop
endfacet
facet normal 0.002699374221265316 -0.020495619624853134 -0.9997863173484802
 outer loop
  vertex 459500.0 5490500.0 3560.0
  vertex 460500.0 5489500.0 3583.199951171875
  vertex 459500.0 5489500.0 3580.5
 endloop
endfacet
facet normal -0.01648477278649807 -0.03966331481933594 -0.9990770816802979
 outer loop
  vertex 459500.0 5490500.0 3560.0
  vertex 460500.0 5490500.0 3543.5
  vertex 460500.0 5489500.0 3583.199951171875
 endloop
endfacet
facet normal -0.027467988431453705 -0.03965373709797859 -0.9988358616828918
 outer loop
  vertex 460500.0 5490500.0 3543.5
  vertex 461500.0 5489500.0 3555.699951171875
  vertex 460500.0 5489500.0 3583.199951171875
 endloop
endfacet
facet normal -0.003499547252431512 -0.015697920694947243 -0.9998706579208374
 outer loop
  vertex 460500.0 5490500.0 3543.5
  vertex 461500.0 5490500.0 3540.0
  vertex 461500.0 5489500.0 3555.699951171875
 endloop
endfacet
facet normal 0.045547157526016235 -0.01568172499537468 -0.9988390803337097
 outer loop
  vertex 461500.0 5490500.0 3540.0
  vertex 462500.0 5489500.0 3601.300048828125
  vertex 461500.0 5489500.0 3555.699951171875
 endloop
endfacet
facet normal -0.000598951184656471 -0.06178188696503639 -0.9980895519256592
 outer loop
  vertex 461500.0 5490500.0 3540.0
  vertex 462500.0 5490500.0 3539.39990234375
  vertex 462500.0 5489500.0 3601.300048828125
 endloop
endfacet
facet normal 0.007285908330231905 -0.061780259013175964 -0.9980632066726685
 outer loop
  vertex 462500.0 5490500.0 3539.39990234375
  vertex 463500.0 5489500.0 3608.60009765625
  vertex 462500.0 5489500.0 3601.300048828125
 endloop
endfacet
facet normal 0.017197217792272568 0.004699204117059708 -0.9998410940170288
 outer loop
  vertex 458500.0 5491500.0 3547.5
  vertex 459500.0 5490500.0 3560.0
  vertex 458500.0 5490500.0 3542.800048828125
 endloop
endfacet
facet normal 0.0006999022443778813 -0.011799224652349949 -0.9999301433563232
 outer loop
  vertex 458500.0 5491500.0 3547.5
  vertex 459500.0 5491500.0 3548.199951171875
  vertex 459500.0 5490500.0 3560.0
 endloop
endfacet
facet normal -0.016496606171131134 -0.011797621846199036 -0.9997943043708801
 outer loop
  vertex 459500.0 5491500.0 3548.199951171875
  vertex 460500.0 5490500.0 3543.5
  vertex 459500.0 5490500.0 3560.0
 endloop
endfacet
facet normal 0.013196687214076519 0.017895476892590523 -0.9997527599334717
 outer loop
  vertex 459500.0 5491500.0 3548.199951171875
  vertex 460500.0 5491500.0 3561.39990234375
  vertex 460500.0 5490500.0 3543.5
 endloop
endfacet
facet normal -0.003499418031424284 0.017896926030516624 -0.9998337030410767
 outer loop
  vertex 460500.0 5491500.0 3561.39990234375
  vertex 461500.0 5490500.0 3540.0
  vertex 460500.0 5490500.0 3543.5
 endloop
endfacet
facet normal -0.010098693892359734 0.011298751458525658 -0.9998852014541626
 outer loop
  vertex 460500.0 5491500.0 3561.39990234375
  vertex 461500.0 5491500.0 3551.300048828125
  vertex 461500.0 5490500.0 3540.0
 endloop
endfacet
facet normal -0.0006000592256896198 0.011299326084554195 -0.9999359846115112
 outer loop
  vertex 461500.0 5491500.0 3551.300048828125
  vertex 462500.0 5490500.0 3539.39990234375
  vertex 461500.0 5490500.0 3540.0
 endloop
endfacet
facet normal 0.013198114931583405 -0.010198532603681087 -0.9998608827590942
 outer loop
  vertex 459500.0 5492500.0 3538.0
  vertex 460500.0 5491500.0 3561.39990234375
  vertex 459500.0 5491500.0 3548.199951171875
 endloop
endfacet
facet normal -0.0003997891035396606 -0.023793065920472145 -0.9997168183326721
 outer loop
  vertex 459500.0 5492500.0 3538.0
  vertex 460500.0 5492500.0 3537.60009765625
  vertex 460500.0 5491500.0 3561.39990234375
 endloop
endfacet
facet normal -0.010096479207277298 -0.023791853338479996 -0.9996659159660339
 outer loop
  vertex 460500.0 5492500.0 3537.60009765625
  vertex 461500.0 5491500.0 3551.300048828125
  vertex 460500.0 5491500.0 3561.39990234375
 endloop
endfacet
endsolid
