solid
facet normal 0.015197155997157097 0.01299740094691515 -0.9998000264167786
 outer loop
  vertex 471500.0 5467500.0 3674.89990234375
  vertex 472500.0 5467500.0 3690.10009765625
  vertex 472500.0 5466500.0 3677.10009765625
 endloop
endfacet
facet normal 0.015198257751762867 0.004899521823972464 -0.9998725056648254
 outer loop
  vertex 471500.0 5468500.0 3679.800048828125
  vertex 472500.0 5467500.0 3690.10009765625
  vertex 471500.0 5467500.0 3674.89990234375
 endloop
endfacet
facet normal 0.021393686532974243 0.011096629314124584 -0.9997095465660095
 outer loop
  vertex 471500.0 5468500.0 3679.800048828125
  vertex 472500.0 5468500.0 3701.199951171875
  vertex 472500.0 5467500.0 3690.10009765625
 endloop
endfacet
facet normal -0.029665017500519753 -0.03835473582148552 -0.9988237619400024
 outer loop
  vertex 473500.0 5468500.0 3696.0
  vertex 474500.0 5468500.0 3666.300048828125
  vertex 474500.0 5467500.0 3704.699951171875
 endloop
endfacet
facet normal 0.019681628793478012 -0.038364190608263016 -0.9990699887275696
 outer loop
  vertex 474500.0 5468500.0 3666.300048828125
  vertex 475500.0 5467500.0 3724.39990234375
  vertex 474500.0 5467500.0 3704.699951171875
 endloop
endfacet
facet normal 0.05103202164173126 -0.006990707945078611 -0.998672604560852
 outer loop
  vertex 474500.0 5468500.0 3666.300048828125
  vertex 475500.0 5468500.0 3717.39990234375
  vertex 475500.0 5467500.0 3724.39990234375
 endloop
endfacet
facet normal 0.0189961064606905 -0.006998565513640642 -0.9997950196266174
 outer loop
  vertex 475500.0 5468500.0 3717.39990234375
  vertex 476500.0 5467500.0 3743.39990234375
  vertex 475500.0 5467500.0 3724.39990234375
 endloop
endfacet
facet normal 0.012997804209589958 -0.012997804209589958 -0.9998310804367065
 outer loop
  vertex 475500.0 5468500.0 3717.39990234375
  vertex 476500.0 5468500.0 3730.39990234375
  vertex 476500.0 5467500.0 3743.39990234375
 endloop
endfacet
facet normal 0.44711175560951233 -0.01162723358720541 -0.8944025635719299
 outer loop
  vertex 476500.0 5468500.0 3730.39990234375
  vertex 477500.0 5467500.0 4243.2998046875
  vertex 476500.0 5467500.0 3743.39990234375
 endloop
endfacet
facet normal 0.5218318104743958 0.08656178414821625 -0.8486452102661133
 outer loop
  vertex 476500.0 5468500.0 3730.39990234375
  vertex 477500.0 5468500.0 4345.2998046875
  vertex 477500.0 5467500.0 4243.2998046875
 endloop
endfacet
facet normal 0.8572332859039307 0.05225156992673874 -0.5122702717781067
 outer loop
  vertex 477500.0 5468500.0 4345.2998046875
  vertex 478500.0 5467500.0 5916.7001953125
  vertex 477500.0 5467500.0 4243.2998046875
 endloop
endfacet
facet normal 0.8565953373908997 0.049511734396219254 -0.5136078596115112
 outer loop
  vertex 477500.0 5468500.0 4345.2998046875
  vertex 478500.0 5468500.0 6013.10009765625
  vertex 478500.0 5467500.0 5916.7001953125
 endloop
endfacet
facet normal 0.4555460214614868 0.0854203924536705 -0.8861045241355896
 outer loop
  vertex 478500.0 5468500.0 6013.10009765625
  vertex 479500.0 5467500.0 6430.7998046875
  vertex 478500.0 5467500.0 5916.7001953125
 endloop
endfacet
facet normal -0.00519982073456049 0.004799928516149521 -0.9999749660491943
 outer loop
  vertex 472500.0 5469500.0 3706.0
  vertex 473500.0 5468500.0 3696.0
  vertex 472500.0 5468500.0 3701.199951171875
 endloop
endfacet
facet normal 0.010097543708980083 0.020095014944672585 -0.999747097492218
 outer loop
  vertex 472500.0 5469500.0 3706.0
  vertex 473500.0 5469500.0 3716.10009765625
  vertex 473500.0 5468500.0 3696.0
 endloop
endfacet
facet normal -0.029680870473384857 0.020087186247110367 -0.9993575811386108
 outer loop
  vertex 473500.0 5469500.0 3716.10009765625
  vertex 474500.0 5468500.0 3666.300048828125
  vertex 473500.0 5468500.0 3696.0
 endloop
endfacet
facet normal 0.0077866618521511555 0.05750279501080513 -0.9983149766921997
 outer loop
  vertex 473500.0 5469500.0 3716.10009765625
  vertex 474500.0 5469500.0 3723.89990234375
  vertex 474500.0 5468500.0 3666.300048828125
 endloop
endfacet
facet normal 0.05094904080033302 0.057429853826761246 -0.9970486760139465
 outer loop
  vertex 474500.0 5469500.0 3723.89990234375
  vertex 475500.0 5468500.0 3717.39990234375
  vertex 474500.0 5468500.0 3666.300048828125
 endloop
endfacet
facet normal 0.01849105954170227 0.024987919256091118 -0.9995167255401611
 outer loop
  vertex 474500.0 5469500.0 3723.89990234375
  vertex 475500.0 5469500.0 3742.39990234375
  vertex 475500.0 5468500.0 3717.39990234375
 endloop
endfacet
facet normal 0.012994842603802681 0.024990081787109375 -0.999603271484375
 outer loop
  vertex 475500.0 5469500.0 3742.39990234375
  vertex 476500.0 5468500.0 3730.39990234375
  vertex 475500.0 5468500.0 3717.39990234375
 endloop
endfacet
facet normal 0.0056992098689079285 0.017697136849164963 -0.9998271465301514
 outer loop
  vertex 475500.0 5469500.0 3742.39990234375
  vertex 476500.0 5469500.0 3748.10009765625
  vertex 476500.0 5468500.0 3730.39990234375
 endloop
endfacet
facet normal 0.5237383842468262 0.015076066367328167 -0.8517457842826843
 outer loop
  vertex 476500.0 5469500.0 3748.10009765625
  vertex 477500.0 5468500.0 4345.2998046875
  vertex 476500.0 5468500.0 3730.39990234375
 endloop
endfacet
facet normal 0.7166789174079895 0.3599523603916168 -0.5973321199417114
 outer loop
  vertex 476500.0 5469500.0 3748.10009765625
  vertex 477500.0 5469500.0 4947.89990234375
  vertex 477500.0 5468500.0 4345.2998046875
 endloop
endfacet
facet normal 0.8192157745361328 0.295994371175766 -0.49119535088539124
 outer loop
  vertex 477500.0 5469500.0 4947.89990234375
  vertex 478500.0 5468500.0 6013.10009765625
  vertex 477500.0 5468500.0 4345.2998046875
 endloop
endfacet
facet normal 0.39870575070381165 -0.45154741406440735 -0.7982096672058105
 outer loop
  vertex 477500.0 5469500.0 4947.89990234375
  vertex 478500.0 5469500.0 5447.39990234375
  vertex 478500.0 5468500.0 6013.10009765625
 endloop
endfacet
facet normal 0.018495947122573853 0.009797901846468449 -0.9997808933258057
 outer loop
  vertex 474500.0 5470500.0 3733.699951171875
  vertex 475500.0 5469500.0 3742.39990234375
  vertex 474500.0 5469500.0 3723.89990234375
 endloop
endfacet
facet normal 0.006699787452816963 -0.0019999512005597353 -0.9999755620956421
 outer loop
  vertex 474500.0 5470500.0 3733.699951171875
  vertex 475500.0 5470500.0 3740.39990234375
  vertex 475500.0 5469500.0 3742.39990234375
 endloop
endfacet
facet normal 0.005700091365724802 -0.001999963540583849 -0.9999817609786987
 outer loop
  vertex 475500.0 5470500.0 3740.39990234375
  vertex 476500.0 5469500.0 3748.10009765625
  vertex 475500.0 5469500.0 3742.39990234375
 endloop
endfacet
facet normal 0.014698246493935585 0.006999072153121233 -0.9998674392700195
 outer loop
  vertex 475500.0 5470500.0 3740.39990234375
  vertex 476500.0 5470500.0 3755.10009765625
  vertex 476500.0 5469500.0 3748.10009765625
 endloop
endfacet
facet normal 0.7681610584259033 0.00448168721050024 -0.6402410268783569
 outer loop
  vertex 476500.0 5470500.0 3755.10009765625
  vertex 477500.0 5469500.0 4947.89990234375
  vertex 476500.0 5469500.0 3748.10009765625
 endloop
endfacet
facet normal 0.830583393573761 0.22072210907936096 -0.5112856030464172
 outer loop
  vertex 476500.0 5470500.0 3755.10009765625
  vertex 477500.0 5470500.0 5379.60009765625
  vertex 477500.0 5469500.0 4947.89990234375
 endloop
endfacet
facet normal 0.4168488681316376 0.3602677285671234 -0.8345322608947754
 outer loop
  vertex 477500.0 5470500.0 5379.60009765625
  vertex 478500.0 5469500.0 5447.39990234375
  vertex 477500.0 5469500.0 4947.89990234375
 endloop
endfacet
facet normal 0.47512438893318176 0.42280450463294983 -0.7716820240020752
 outer loop
  vertex 477500.0 5470500.0 5379.60009765625
  vertex 478500.0 5470500.0 5995.2998046875
  vertex 478500.0 5469500.0 5447.39990234375
 endloop
endfacet
facet normal 0.8711062073707581 0.23597297072410583 -0.4306863248348236
 outer loop
  vertex 478500.0 5470500.0 5995.2998046875
  vertex 479500.0 5469500.0 7470.0
  vertex 478500.0 5469500.0 5447.39990234375
 endloop
endfacet
facet normal 0.8637104630470276 0.15789535641670227 -0.47861596941947937
 outer loop
  vertex 478500.0 5470500.0 5995.2998046875
  vertex 479500.0 5470500.0 7799.89990234375
  vertex 479500.0 5469500.0 7470.0
 endloop
endfacet
facet normal -0.5737712979316711 0.2565907835960388 -0.7777837514877319
 outer loop
  vertex 479500.0 5470500.0 7799.89990234375
  vertex 480500.0 5469500.0 6732.2998046875
  vertex 479500.0 5469500.0 7470.0
 endloop
endfacet
facet normal -0.48931360244750977 0.35913780331611633 -0.7947276830673218
 outer loop
  vertex 479500.0 5470500.0 7799.89990234375
  vertex 480500.0 5470500.0 7184.2001953125
  vertex 480500.0 5469500.0 6732.2998046875
 endloop
endfacet
facet normal -0.4188690185546875 0.3739374876022339 -0.8274776935577393
 outer loop
  vertex 480500.0 5470500.0 7184.2001953125
  vertex 481500.0 5469500.0 6226.10009765625
  vertex 480500.0 5469500.0 6732.2998046875
 endloop
endfacet
facet normal -0.39399316906929016 0.3992083668708801 -0.8278900384902954
 outer loop
  vertex 480500.0 5470500.0 7184.2001953125
  vertex 481500.0 5470500.0 6708.2998046875
  vertex 481500.0 5469500.0 6226.10009765625
 endloop
endfacet
facet normal -0.6039712429046631 0.3461722135543823 -0.7179021239280701
 outer loop
  vertex 481500.0 5470500.0 6708.2998046875
  vertex 482500.0 5469500.0 5384.7998046875
  vertex 481500.0 5469500.0 6226.10009765625
 endloop
endfacet
facet normal -0.1308150589466095 0.7409576773643494 -0.6586873531341553
 outer loop
  vertex 481500.0 5470500.0 6708.2998046875
  vertex 482500.0 5470500.0 6509.7001953125
  vertex 482500.0 5469500.0 5384.7998046875
 endloop
endfacet
facet normal 0.0038000093773007393 0.0024999740999192 -0.9999896287918091
 outer loop
  vertex 473500.0 5471500.0 3732.39990234375
  vertex 474500.0 5471500.0 3736.199951171875
  vertex 474500.0 5470500.0 3733.699951171875
 endloop
endfacet
facet normal 0.006699780002236366 0.0024999361485242844 -0.9999744296073914
 outer loop
  vertex 474500.0 5471500.0 3736.199951171875
  vertex 475500.0 5470500.0 3740.39990234375
  vertex 474500.0 5470500.0 3733.699951171875
 endloop
endfacet
facet normal 0.0392456017434597 0.03505146503448486 -0.9986146092414856
 outer loop
  vertex 474500.0 5471500.0 3736.199951171875
  vertex 475500.0 5471500.0 3775.5
  vertex 475500.0 5470500.0 3740.39990234375
 endloop
endfacet
facet normal 0.014689563773572445 0.035074710845947266 -0.9992767572402954
 outer loop
  vertex 475500.0 5471500.0 3775.5
  vertex 476500.0 5470500.0 3755.10009765625
  vertex 475500.0 5470500.0 3740.39990234375
 endloop
endfacet
facet normal 0.0058977603912353516 0.026290256530046463 -0.9996369481086731
 outer loop
  vertex 475500.0 5471500.0 3775.5
  vertex 476500.0 5471500.0 3781.39990234375
  vertex 476500.0 5470500.0 3755.10009765625
 endloop
endfacet
facet normal 0.8515053987503052 0.013785426504909992 -0.524164617061615
 outer loop
  vertex 476500.0 5471500.0 3781.39990234375
  vertex 477500.0 5470500.0 5379.60009765625
  vertex 476500.0 5470500.0 3755.10009765625
 endloop
endfacet
facet normal 0.712333619594574 -0.300974577665329 -0.634030818939209
 outer loop
  vertex 476500.0 5471500.0 3781.39990234375
  vertex 477500.0 5471500.0 4904.89990234375
  vertex 477500.0 5470500.0 5379.60009765625
 endloop
endfacet
facet normal 0.48608145117759705 -0.37476542592048645 -0.7894781231880188
 outer loop
  vertex 477500.0 5471500.0 4904.89990234375
  vertex 478500.0 5470500.0 5995.2998046875
  vertex 477500.0 5470500.0 5379.60009765625
 endloop
endfacet
facet normal 0.7578012943267822 0.048281848430633545 -0.6506965756416321
 outer loop
  vertex 477500.0 5471500.0 4904.89990234375
  vertex 478500.0 5471500.0 6069.5
  vertex 478500.0 5470500.0 5995.2998046875
 endloop
endfacet
facet normal 0.8741175532341003 0.03594131022691727 -0.4843829572200775
 outer loop
  vertex 478500.0 5471500.0 6069.5
  vertex 479500.0 5470500.0 7799.89990234375
  vertex 478500.0 5470500.0 5995.2998046875
 endloop
endfacet
facet normal 0.8617770075798035 -0.015616917982697487 -0.5070468783378601
 outer loop
  vertex 478500.0 5471500.0 6069.5
  vertex 479500.0 5471500.0 7769.10009765625
  vertex 479500.0 5470500.0 7799.89990234375
 endloop
endfacet
facet normal -0.5241117477416992 -0.026218203827738762 -0.8512457609176636
 outer loop
  vertex 479500.0 5471500.0 7769.10009765625
  vertex 480500.0 5470500.0 7184.2001953125
  vertex 479500.0 5470500.0 7799.89990234375
 endloop
endfacet
facet normal 0.22273913025856018 0.6484910845756531 -0.7279056906700134
 outer loop
  vertex 479500.0 5471500.0 7769.10009765625
  vertex 480500.0 5471500.0 8075.10009765625
  vertex 480500.0 5470500.0 7184.2001953125
 endloop
endfacet
facet normal -0.33482712507247925 0.6268064975738525 -0.7035655975341797
 outer loop
  vertex 480500.0 5471500.0 8075.10009765625
  vertex 481500.0 5470500.0 6708.2998046875
  vertex 480500.0 5470500.0 7184.2001953125
 endloop
endfacet
facet normal -0.7302740216255188 0.1730189323425293 -0.6608814597129822
 outer loop
  vertex 480500.0 5471500.0 8075.10009765625
  vertex 481500.0 5471500.0 6970.10009765625
  vertex 481500.0 5470500.0 6708.2998046875
 endloop
endfacet
facet normal -0.18867406249046326 0.24871611595153809 -0.950022280216217
 outer loop
  vertex 481500.0 5471500.0 6970.10009765625
  vertex 482500.0 5470500.0 6509.7001953125
  vertex 481500.0 5470500.0 6708.2998046875
 endloop
endfacet
facet normal 0.016772596165537834 0.43193715810775757 -0.9017477035522461
 outer loop
  vertex 481500.0 5471500.0 6970.10009765625
  vertex 482500.0 5471500.0 6988.7001953125
  vertex 482500.0 5470500.0 6509.7001953125
 endloop
endfacet
facet normal 0.003799981204792857 -0.004599771462380886 -0.9999821782112122
 outer loop
  vertex 473500.0 5472500.0 3727.800048828125
  vertex 474500.0 5471500.0 3736.199951171875
  vertex 473500.0 5471500.0 3732.39990234375
 endloop
endfacet
facet normal 0.013398532755672932 0.004999488592147827 -0.9998977780342102
 outer loop
  vertex 473500.0 5472500.0 3727.800048828125
  vertex 474500.0 5472500.0 3741.199951171875
  vertex 474500.0 5471500.0 3736.199951171875
 endloop
endfacet
facet normal 0.03926924243569374 0.004996080882847309 -0.9992161989212036
 outer loop
  vertex 474500.0 5472500.0 3741.199951171875
  vertex 475500.0 5471500.0 3775.5
  vertex 474500.0 5471500.0 3736.199951171875
 endloop
endfacet
facet normal -0.008691591210663319 -0.04295868054032326 -0.9990390539169312
 outer loop
  vertex 474500.0 5472500.0 3741.199951171875
  vertex 475500.0 5472500.0 3732.5
  vertex 475500.0 5471500.0 3775.5
 endloop
endfacet
facet normal 0.0058943526819348335 -0.0429595522582531 -0.9990593791007996
 outer loop
  vertex 475500.0 5472500.0 3732.5
  vertex 476500.0 5471500.0 3781.39990234375
  vertex 475500.0 5471500.0 3775.5
 endloop
endfacet
facet normal 0.03517486900091171 -0.01369018666446209 -0.9992873668670654
 outer loop
  vertex 475500.0 5472500.0 3732.5
  vertex 476500.0 5472500.0 3767.699951171875
  vertex 476500.0 5471500.0 3781.39990234375
 endloop
endfacet
facet normal 0.7469379901885986 -0.009108156897127628 -0.6648313403129578
 outer loop
  vertex 476500.0 5472500.0 3767.699951171875
  vertex 477500.0 5471500.0 4904.89990234375
  vertex 476500.0 5471500.0 3781.39990234375
 endloop
endfacet
facet normal 0.008573056198656559 -0.747176468372345 -0.6645704507827759
 outer loop
  vertex 476500.0 5472500.0 3767.699951171875
  vertex 477500.0 5472500.0 3780.60009765625
  vertex 477500.0 5471500.0 4904.89990234375
 endloop
endfacet
facet normal 0.6120712161064148 -0.5908907651901245 -0.5255633592605591
 outer loop
  vertex 477500.0 5472500.0 3780.60009765625
  vertex 478500.0 5471500.0 6069.5
  vertex 477500.0 5471500.0 4904.89990234375
 endloop
endfacet
facet normal 0.1987202912569046 -0.8632715344429016 -0.4639747440814972
 outer loop
  vertex 477500.0 5472500.0 3780.60009765625
  vertex 478500.0 5472500.0 4208.89990234375
  vertex 478500.0 5471500.0 6069.5
 endloop
endfacet
facet normal 0.626886785030365 -0.6862706542015076 -0.3688437044620514
 outer loop
  vertex 478500.0 5472500.0 4208.89990234375
  vertex 479500.0 5471500.0 7769.10009765625
  vertex 478500.0 5471500.0 6069.5
 endloop
endfacet
facet normal 0.808634340763092 -0.46668246388435364 -0.3582149147987366
 outer loop
  vertex 478500.0 5472500.0 4208.89990234375
  vertex 479500.0 5472500.0 6466.2998046875
  vertex 479500.0 5471500.0 7769.10009765625
 endloop
endfacet
facet normal 0.18316707015037537 -0.7798369526863098 -0.5985851883888245
 outer loop
  vertex 479500.0 5472500.0 6466.2998046875
  vertex 480500.0 5471500.0 8075.10009765625
  vertex 479500.0 5471500.0 7769.10009765625
 endloop
endfacet
facet normal -0.24300706386566162 -0.8843293786048889 -0.3986338675022125
 outer loop
  vertex 479500.0 5472500.0 6466.2998046875
  vertex 480500.0 5472500.0 5856.7001953125
  vertex 480500.0 5471500.0 8075.10009765625
 endloop
endfacet
facet normal -0.413468599319458 -0.8300802111625671 -0.3741796910762787
 outer loop
  vertex 480500.0 5472500.0 5856.7001953125
  vertex 481500.0 5471500.0 6970.10009765625
  vertex 480500.0 5471500.0 8075.10009765625
 endloop
endfacet
facet normal -0.11347808688879013 -0.7876841425895691 -0.6055381298065186
 outer loop
  vertex 480500.0 5472500.0 5856.7001953125
  vertex 481500.0 5472500.0 5669.2998046875
  vertex 481500.0 5471500.0 6970.10009765625
 endloop
endfacet
facet normal 0.01133558340370655 -0.7927543520927429 -0.6094358563423157
 outer loop
  vertex 481500.0 5472500.0 5669.2998046875
  vertex 482500.0 5471500.0 6988.7001953125
  vertex 481500.0 5471500.0 6970.10009765625
 endloop
endfacet
facet normal -0.30644363164901733 -0.8559434413909912 -0.41647690534591675
 outer loop
  vertex 481500.0 5472500.0 5669.2998046875
  vertex 482500.0 5472500.0 4933.5
  vertex 482500.0 5471500.0 6988.7001953125
 endloop
endfacet
facet normal 0.008999592624604702 -0.003099957248196006 -0.9999547004699707
 outer loop
  vertex 470500.0 5473500.0 3691.199951171875
  vertex 471500.0 5473500.0 3700.199951171875
  vertex 471500.0 5472500.0 3703.300048828125
 endloop
endfacet
facet normal 0.01169909443706274 0.0030996263958513737 -0.999926745891571
 outer loop
  vertex 472500.0 5473500.0 3719.199951171875
  vertex 473500.0 5473500.0 3730.89990234375
  vertex 473500.0 5472500.0 3727.800048828125
 endloop
endfacet
facet normal 0.01339863520115614 0.0030995605047792196 -0.9999054670333862
 outer loop
  vertex 473500.0 5473500.0 3730.89990234375
  vertex 474500.0 5472500.0 3741.199951171875
  vertex 473500.0 5472500.0 3727.800048828125
 endloop
endfacet
facet normal -0.068621926009655 -0.07886553555727005 -0.9945206046104431
 outer loop
  vertex 473500.0 5473500.0 3730.89990234375
  vertex 474500.0 5473500.0 3661.89990234375
  vertex 474500.0 5472500.0 3741.199951171875
 endloop
endfacet
facet normal -0.008672400377690792 -0.07904890179634094 -0.9968330264091492
 outer loop
  vertex 474500.0 5473500.0 3661.89990234375
  vertex 475500.0 5472500.0 3732.5
  vertex 474500.0 5472500.0 3741.199951171875
 endloop
endfacet
facet normal 0.08350012451410294 0.013152710162103176 -0.9964209794998169
 outer loop
  vertex 474500.0 5473500.0 3661.89990234375
  vertex 475500.0 5473500.0 3745.699951171875
  vertex 475500.0 5472500.0 3732.5
 endloop
endfacet
facet normal 0.035175107419490814 0.013190633617341518 -0.999294102191925
 outer loop
  vertex 475500.0 5473500.0 3745.699951171875
  vertex 476500.0 5472500.0 3767.699951171875
  vertex 475500.0 5472500.0 3732.5
 endloop
endfacet
facet normal 0.023193692788481712 0.0011996275279670954 -0.9997302889823914
 outer loop
  vertex 475500.0 5473500.0 3745.699951171875
  vertex 476500.0 5473500.0 3768.89990234375
  vertex 476500.0 5472500.0 3767.699951171875
 endloop
endfacet
facet normal 0.012899063527584076 0.001199850463308394 -0.9999160766601562
 outer loop
  vertex 476500.0 5473500.0 3768.89990234375
  vertex 477500.0 5472500.0 3780.60009765625
  vertex 476500.0 5472500.0 3767.699951171875
 endloop
endfacet
facet normal 0.5630861520767212 0.5559320449829102 -0.6114521026611328
 outer loop
  vertex 476500.0 5473500.0 3768.89990234375
  vertex 477500.0 5473500.0 4689.7998046875
  vertex 477500.0 5472500.0 3780.60009765625
 endloop
endfacet
facet normal 0.3020929992198944 0.6412864923477173 -0.7053307294845581
 outer loop
  vertex 477500.0 5473500.0 4689.7998046875
  vertex 478500.0 5472500.0 4208.89990234375
  vertex 477500.0 5472500.0 3780.60009765625
 endloop
endfacet
facet normal 0.02837432734668255 0.4561186730861664 -0.8894664645195007
 outer loop
  vertex 477500.0 5473500.0 4689.7998046875
  vertex 478500.0 5473500.0 4721.7001953125
  vertex 478500.0 5472500.0 4208.89990234375
 endloop
endfacet
facet normal 0.8952004313468933 0.20335741341114044 -0.3965626060962677
 outer loop
  vertex 478500.0 5473500.0 4721.7001953125
  vertex 479500.0 5472500.0 6466.2998046875
  vertex 478500.0 5472500.0 4208.89990234375
 endloop
endfacet
facet normal -0.32228514552116394 -0.8891351222991943 -0.32491692900657654
 outer loop
  vertex 478500.0 5473500.0 4721.7001953125
  vertex 479500.0 5473500.0 3729.800048828125
  vertex 479500.0 5472500.0 6466.2998046875
 endloop
endfacet
facet normal -0.20479847490787506 -0.9193428754806519 -0.33595576882362366
 outer loop
  vertex 479500.0 5473500.0 3729.800048828125
  vertex 480500.0 5472500.0 5856.7001953125
  vertex 479500.0 5472500.0 6466.2998046875
 endloop
endfacet
facet normal 0.012738284654915333 -0.9025723934173584 -0.43034958839416504
 outer loop
  vertex 479500.0 5473500.0 3729.800048828125
  vertex 480500.0 5473500.0 3759.39990234375
  vertex 480500.0 5472500.0 5856.7001953125
 endloop
endfacet
facet normal -0.08039316534996033 -0.899724006652832 -0.42899149656295776
 outer loop
  vertex 480500.0 5473500.0 3759.39990234375
  vertex 481500.0 5472500.0 5669.2998046875
  vertex 480500.0 5472500.0 5856.7001953125
 endloop
endfacet
facet normal 0.4179784655570984 -0.6963391900062561 -0.5834429264068604
 outer loop
  vertex 480500.0 5473500.0 3759.39990234375
  vertex 481500.0 5473500.0 4475.7998046875
  vertex 481500.0 5472500.0 5669.2998046875
 endloop
endfacet
facet normal -0.4272534251213074 -0.6930240392684937 -0.5806652903556824
 outer loop
  vertex 481500.0 5473500.0 4475.7998046875
  vertex 482500.0 5472500.0 4933.5
  vertex 481500.0 5472500.0 5669.2998046875
 endloop
endfacet
facet normal 0.017120366916060448 -0.4019124209880829 -0.915518045425415
 outer loop
  vertex 481500.0 5473500.0 4475.7998046875
  vertex 482500.0 5473500.0 4494.5
  vertex 482500.0 5472500.0 4933.5
 endloop
endfacet
facet normal -0.6039217710494995 -0.32038870453834534 -0.7298148274421692
 outer loop
  vertex 482500.0 5473500.0 4494.5
  vertex 483500.0 5472500.0 4106.0
  vertex 482500.0 5472500.0 4933.5
 endloop
endfacet
facet normal 0.4070380926132202 0.6545484066009521 -0.6370921730995178
 outer loop
  vertex 482500.0 5473500.0 4494.5
  vertex 483500.0 5473500.0 5133.39990234375
  vertex 483500.0 5472500.0 4106.0
 endloop
endfacet
facet normal 0.9095115661621094 0.29787442088127136 -0.2899303734302521
 outer loop
  vertex 483500.0 5473500.0 5133.39990234375
  vertex 484500.0 5472500.0 7243.0
  vertex 483500.0 5472500.0 4106.0
 endloop
endfacet
facet normal 0.011699037626385689 -0.004399558529257774 -0.9999218583106995
 outer loop
  vertex 472500.0 5474500.0 3714.800048828125
  vertex 473500.0 5473500.0 3730.89990234375
  vertex 472500.0 5473500.0 3719.199951171875
 endloop
endfacet
facet normal 0.015098124742507935 -0.0009998854948207736 -0.9998854994773865
 outer loop
  vertex 472500.0 5474500.0 3714.800048828125
  vertex 473500.0 5474500.0 3729.89990234375
  vertex 473500.0 5473500.0 3730.89990234375
 endloop
endfacet
facet normal -0.06883629411458969 -0.0009976275032386184 -0.9976274371147156
 outer loop
  vertex 473500.0 5474500.0 3729.89990234375
  vertex 474500.0 5473500.0 3661.89990234375
  vertex 473500.0 5473500.0 3730.89990234375
 endloop
endfacet
facet normal 0.0016960779903456569 0.0695314034819603 -0.9975783228874207
 outer loop
  vertex 473500.0 5474500.0 3729.89990234375
  vertex 474500.0 5474500.0 3731.60009765625
  vertex 474500.0 5473500.0 3661.89990234375
 endloop
endfacet
facet normal 0.08330664038658142 0.06928981095552444 -0.9941121339797974
 outer loop
  vertex 474500.0 5474500.0 3731.60009765625
  vertex 475500.0 5473500.0 3745.699951171875
  vertex 474500.0 5473500.0 3661.89990234375
 endloop
endfacet
facet normal 0.014498475007712841 0.00040010438533499837 -0.9998947978019714
 outer loop
  vertex 474500.0 5474500.0 3731.60009765625
  vertex 475500.0 5474500.0 3746.10009765625
  vertex 475500.0 5473500.0 3745.699951171875
 endloop
endfacet
facet normal 0.023193709552288055 0.00040003881440497935 -0.9997309446334839
 outer loop
  vertex 475500.0 5474500.0 3746.10009765625
  vertex 476500.0 5473500.0 3768.89990234375
  vertex 475500.0 5473500.0 3745.699951171875
 endloop
endfacet
facet normal 0.03258097916841507 0.009794375859200954 -0.9994210600852966
 outer loop
  vertex 475500.0 5474500.0 3746.10009765625
  vertex 476500.0 5474500.0 3778.699951171875
  vertex 476500.0 5473500.0 3768.89990234375
 endloop
endfacet
facet normal 0.6773974299430847 0.007208739407360554 -0.7355819940567017
 outer loop
  vertex 476500.0 5474500.0 3778.699951171875
  vertex 477500.0 5473500.0 4689.7998046875
  vertex 476500.0 5473500.0 3768.89990234375
 endloop
endfacet
facet normal 0.7248286604881287 0.10439346730709076 -0.6809738874435425
 outer loop
  vertex 476500.0 5474500.0 3778.699951171875
  vertex 477500.0 5474500.0 4843.10009765625
  vertex 477500.0 5473500.0 4689.7998046875
 endloop
endfacet
facet normal 0.031516361981630325 0.15145480632781982 -0.9879616498947144
 outer loop
  vertex 477500.0 5474500.0 4843.10009765625
  vertex 478500.0 5473500.0 4721.7001953125
  vertex 477500.0 5473500.0 4689.7998046875
 endloop
endfacet
facet normal 0.6126797795295715 0.6646024584770203 -0.42769965529441833
 outer loop
  vertex 477500.0 5474500.0 4843.10009765625
  vertex 478500.0 5474500.0 6275.60009765625
  vertex 478500.0 5473500.0 4721.7001953125
 endloop
endfacet
facet normal -0.47295206785202026 0.7409214973449707 -0.4768141806125641
 outer loop
  vertex 478500.0 5474500.0 6275.60009765625
  vertex 479500.0 5473500.0 3729.800048828125
  vertex 478500.0 5473500.0 4721.7001953125
 endloop
endfacet
facet normal 0.10197673738002777 0.9388968348503113 -0.32874542474746704
 outer loop
  vertex 478500.0 5474500.0 6275.60009765625
  vertex 479500.0 5474500.0 6585.7998046875
  vertex 479500.0 5473500.0 3729.800048828125
 endloop
endfacet
facet normal 0.009781308472156525 0.9437719583511353 -0.3304523825645447
 outer loop
  vertex 479500.0 5474500.0 6585.7998046875
  vertex 480500.0 5473500.0 3759.39990234375
  vertex 479500.0 5473500.0 3729.800048828125
 endloop
endfacet
facet normal -0.5306780338287354 0.7223782539367676 -0.4433400332927704
 outer loop
  vertex 479500.0 5474500.0 6585.7998046875
  vertex 480500.0 5474500.0 5388.7998046875
  vertex 480500.0 5473500.0 3759.39990234375
 endloop
endfacet
facet normal 0.35089942812919617 0.7980954647064209 -0.48980945348739624
 outer loop
  vertex 480500.0 5474500.0 5388.7998046875
  vertex 481500.0 5473500.0 4475.7998046875
  vertex 480500.0 5473500.0 3759.39990234375
 endloop
endfacet
facet normal -0.5446180105209351 0.1991908699274063 -0.8146865963935852
 outer loop
  vertex 480500.0 5474500.0 5388.7998046875
  vertex 481500.0 5474500.0 4720.2998046875
  vertex 481500.0 5473500.0 4475.7998046875
 endloop
endfacet
facet normal 0.018162114545702934 0.23746483027935028 -0.9712263345718384
 outer loop
  vertex 481500.0 5474500.0 4720.2998046875
  vertex 482500.0 5473500.0 4494.5
  vertex 481500.0 5473500.0 4475.7998046875
 endloop
endfacet
facet normal 0.5688650608062744 0.6749691367149353 -0.4699033498764038
 outer loop
  vertex 481500.0 5474500.0 4720.2998046875
  vertex 482500.0 5474500.0 5930.89990234375
  vertex 482500.0 5473500.0 4494.5
 endloop
endfacet
facet normal 0.34290841221809387 0.7709401845932007 -0.5367169976234436
 outer loop
  vertex 482500.0 5474500.0 5930.89990234375
  vertex 483500.0 5473500.0 5133.39990234375
  vertex 482500.0 5473500.0 4494.5
 endloop
endfacet
facet normal -0.4424077570438385 0.2454851120710373 -0.8625615835189819
 outer loop
  vertex 482500.0 5474500.0 5930.89990234375
  vertex 483500.0 5474500.0 5418.0
  vertex 483500.0 5473500.0 5133.39990234375
 endloop
endfacet
facet normal 0.015095322392880917 -0.0192942563444376 -0.9996998906135559
 outer loop
  vertex 472500.0 5475500.0 3695.5
  vertex 473500.0 5474500.0 3729.89990234375
  vertex 472500.0 5474500.0 3714.800048828125
 endloop
endfacet
facet normal 0.012296115979552269 -0.02209278754889965 -0.9996802806854248
 outer loop
  vertex 472500.0 5475500.0 3695.5
  vertex 473500.0 5475500.0 3707.800048828125
  vertex 473500.0 5474500.0 3729.89990234375
 endloop
endfacet
facet normal 0.0016997777856886387 -0.022094426676630974 -0.9997544288635254
 outer loop
  vertex 473500.0 5475500.0 3707.800048828125
  vertex 474500.0 5474500.0 3731.60009765625
  vertex 473500.0 5474500.0 3729.89990234375
 endloop
endfacet
facet normal 0.011198359541594982 -0.012598306871950626 -0.9998579025268555
 outer loop
  vertex 473500.0 5475500.0 3707.800048828125
  vertex 474500.0 5475500.0 3719.0
  vertex 474500.0 5474500.0 3731.60009765625
 endloop
endfacet
facet normal 0.014497324824333191 -0.012597773224115372 -0.9998155236244202
 outer loop
  vertex 474500.0 5475500.0 3719.0
  vertex 475500.0 5474500.0 3746.10009765625
  vertex 474500.0 5474500.0 3731.60009765625
 endloop
endfacet
facet normal 0.021394656971096992 -0.005698798224329948 -0.9997548460960388
 outer loop
  vertex 474500.0 5475500.0 3719.0
  vertex 475500.0 5475500.0 3740.39990234375
  vertex 475500.0 5474500.0 3746.10009765625
 endloop
endfacet
facet normal 0.03258201479911804 -0.005697076674550772 -0.9994528889656067
 outer loop
  vertex 475500.0 5475500.0 3740.39990234375
  vertex 476500.0 5474500.0 3778.699951171875
  vertex 475500.0 5474500.0 3746.10009765625
 endloop
endfacet
facet normal 0.023890849202871323 -0.014394298195838928 -0.999610960483551
 outer loop
  vertex 475500.0 5475500.0 3740.39990234375
  vertex 476500.0 5475500.0 3764.300048828125
  vertex 476500.0 5474500.0 3778.699951171875
 endloop
endfacet
facet normal 0.7287754416465759 -0.009859351441264153 -0.6846818327903748
 outer loop
  vertex 476500.0 5475500.0 3764.300048828125
  vertex 477500.0 5474500.0 4843.10009765625
  vertex 476500.0 5474500.0 3778.699951171875
 endloop
endfacet
facet normal 0.8153913021087646 0.25439369678497314 -0.520020067691803
 outer loop
  vertex 476500.0 5475500.0 3764.300048828125
  vertex 477500.0 5475500.0 5332.2998046875
  vertex 477500.0 5474500.0 4843.10009765625
 endloop
endfacet
facet normal 0.7895981669425964 0.26964831352233887 -0.5512028932571411
 outer loop
  vertex 477500.0 5475500.0 5332.2998046875
  vertex 478500.0 5474500.0 6275.60009765625
  vertex 477500.0 5474500.0 4843.10009765625
 endloop
endfacet
facet normal -0.11943066120147705 -0.7418559193611145 -0.6598379015922546
 outer loop
  vertex 477500.0 5475500.0 5332.2998046875
  vertex 478500.0 5475500.0 5151.2998046875
  vertex 478500.0 5474500.0 6275.60009765625
 endloop
endfacet
facet normal 0.2019110769033432 -0.7318145036697388 -0.6509066224098206
 outer loop
  vertex 478500.0 5475500.0 5151.2998046875
  vertex 479500.0 5474500.0 6585.7998046875
  vertex 478500.0 5474500.0 6275.60009765625
 endloop
endfacet
facet normal 0.8671756386756897 0.321002721786499 -0.3807409703731537
 outer loop
  vertex 478500.0 5475500.0 5151.2998046875
  vertex 479500.0 5475500.0 7428.89990234375
  vertex 479500.0 5474500.0 6585.7998046875
 endloop
endfacet
facet normal -0.6751164197921753 0.47551441192626953 -0.564007043838501
 outer loop
  vertex 479500.0 5475500.0 7428.89990234375
  vertex 480500.0 5474500.0 5388.7998046875
  vertex 479500.0 5474500.0 6585.7998046875
 endloop
endfacet
facet normal -0.8209127187728882 0.2380465865135193 -0.5190722346305847
 outer loop
  vertex 479500.0 5475500.0 7428.89990234375
  vertex 480500.0 5475500.0 5847.39990234375
  vertex 480500.0 5474500.0 5388.7998046875
 endloop
endfacet
facet normal -0.5192937850952148 0.3562425971031189 -0.7768044471740723
 outer loop
  vertex 480500.0 5475500.0 5847.39990234375
  vertex 481500.0 5474500.0 4720.2998046875
  vertex 480500.0 5474500.0 5388.7998046875
 endloop
endfacet
facet normal -0.6930651068687439 0.10993029177188873 -0.7124437093734741
 outer loop
  vertex 480500.0 5475500.0 5847.39990234375
  vertex 481500.0 5475500.0 4874.60009765625
  vertex 481500.0 5474500.0 4720.2998046875
 endloop
endfacet
facet normal 0.7672850489616394 0.09779638797044754 -0.6338055729866028
 outer loop
  vertex 481500.0 5475500.0 4874.60009765625
  vertex 482500.0 5474500.0 5930.89990234375
  vertex 481500.0 5474500.0 4720.2998046875
 endloop
endfacet
facet normal 0.8199173212051392 0.46013060212135315 -0.34061041474342346
 outer loop
  vertex 481500.0 5475500.0 4874.60009765625
  vertex 482500.0 5475500.0 7281.7998046875
  vertex 482500.0 5474500.0 5930.89990234375
 endloop
endfacet
facet normal -0.29187315702438354 0.7687492966651917 -0.5690646171569824
 outer loop
  vertex 482500.0 5475500.0 7281.7998046875
  vertex 483500.0 5474500.0 5418.0
  vertex 482500.0 5474500.0 5930.89990234375
 endloop
endfacet
facet normal 0.692016065120697 0.6548265814781189 -0.30383560061454773
 outer loop
  vertex 478500.0 5476500.0 7306.5
  vertex 479500.0 5475500.0 7428.89990234375
  vertex 478500.0 5475500.0 5151.2998046875
 endloop
endfacet
facet normal 0.1762092411518097 0.05591912940144539 -0.9827631115913391
 outer loop
  vertex 478500.0 5476500.0 7306.5
  vertex 479500.0 5476500.0 7485.7998046875
  vertex 479500.0 5475500.0 7428.89990234375
 endloop
endfacet
facet normal -0.8448188900947571 0.0303952656686306 -0.5341883301734924
 outer loop
  vertex 479500.0 5476500.0 7485.7998046875
  vertex 480500.0 5475500.0 5847.39990234375
  vertex 479500.0 5475500.0 7428.89990234375
 endloop
endfacet
facet normal -0.8619098663330078 -0.03288960084319115 -0.5059938430786133
 outer loop
  vertex 479500.0 5476500.0 7485.7998046875
  vertex 480500.0 5476500.0 5782.39990234375
  vertex 480500.0 5475500.0 5847.39990234375
 endloop
endfacet
facet normal -0.696535587310791 -0.04654072970151901 -0.7160112261772156
 outer loop
  vertex 480500.0 5476500.0 5782.39990234375
  vertex 481500.0 5475500.0 4874.60009765625
  vertex 480500.0 5475500.0 5847.39990234375
 endloop
endfacet
facet normal 0.0988624319434166 0.7212423086166382 -0.6855915784835815
 outer loop
  vertex 480500.0 5476500.0 5782.39990234375
  vertex 481500.0 5476500.0 5926.60009765625
  vertex 481500.0 5475500.0 4874.60009765625
 endloop
endfacet
facet normal 0.8563719987869263 0.37425366044044495 -0.35575443506240845
 outer loop
  vertex 481500.0 5476500.0 5926.60009765625
  vertex 482500.0 5475500.0 7281.7998046875
  vertex 481500.0 5475500.0 4874.60009765625
 endloop
endfacet
endsolid
