solid
facet normal 0.22754338383674622 0.42628276348114014 -0.8755038976669312
 outer loop
  vertex 659500.0 5644500.0 5788.7001953125
  vertex 660500.0 5644500.0 6048.60009765625
  vertex 660500.0 5643500.0 5561.7001953125
 endloop
endfacet
facet normal 0.5180860757827759 0.3744339346885681 -0.7690162658691406
 outer loop
  vertex 660500.0 5644500.0 6048.60009765625
  vertex 661500.0 5643500.0 6235.39990234375
  vertex 660500.0 5643500.0 5561.7001953125
 endloop
endfacet
facet normal 0.14064639806747437 -0.0441129244863987 -0.9890766143798828
 outer loop
  vertex 660500.0 5644500.0 6048.60009765625
  vertex 661500.0 5644500.0 6190.7998046875
  vertex 661500.0 5643500.0 6235.39990234375
 endloop
endfacet
facet normal 0.14655336737632751 -0.04407472535967827 -0.9882203340530396
 outer loop
  vertex 661500.0 5644500.0 6190.7998046875
  vertex 662500.0 5643500.0 6383.7001953125
  vertex 661500.0 5643500.0 6235.39990234375
 endloop
endfacet
facet normal -0.016927406191825867 -0.2056753933429718 -0.9784739017486572
 outer loop
  vertex 661500.0 5644500.0 6190.7998046875
  vertex 662500.0 5644500.0 6173.5
  vertex 662500.0 5643500.0 6383.7001953125
 endloop
endfacet
facet normal 0.23142379522323608 0.3918797969818115 -0.8904342651367188
 outer loop
  vertex 659500.0 5645500.0 6228.7998046875
  vertex 660500.0 5644500.0 6048.60009765625
  vertex 659500.0 5644500.0 5788.7001953125
 endloop
endfacet
facet normal -0.024795426055788994 0.15322043001651764 -0.9878809452056885
 outer loop
  vertex 659500.0 5645500.0 6228.7998046875
  vertex 660500.0 5645500.0 6203.7001953125
  vertex 660500.0 5644500.0 6048.60009765625
 endloop
endfacet
facet normal 0.13915245234966278 0.15177640318870544 -0.9785706400871277
 outer loop
  vertex 660500.0 5645500.0 6203.7001953125
  vertex 661500.0 5644500.0 6190.7998046875
  vertex 660500.0 5644500.0 6048.60009765625
 endloop
endfacet
facet normal 0.02637036330997944 0.039256319403648376 -0.9988811016082764
 outer loop
  vertex 660500.0 5645500.0 6203.7001953125
  vertex 661500.0 5645500.0 6230.10009765625
  vertex 661500.0 5644500.0 6190.7998046875
 endloop
endfacet
facet normal -0.017283879220485687 0.03926411271095276 -0.9990794062614441
 outer loop
  vertex 661500.0 5645500.0 6230.10009765625
  vertex 662500.0 5644500.0 6173.5
  vertex 661500.0 5644500.0 6190.7998046875
 endloop
endfacet
facet normal -0.2406873106956482 -0.18677787482738495 -0.9524618983268738
 outer loop
  vertex 661500.0 5645500.0 6230.10009765625
  vertex 662500.0 5645500.0 5977.39990234375
  vertex 662500.0 5644500.0 6173.5
 endloop
endfacet
facet normal -0.024747570976614952 -0.16505201160907745 -0.9859743118286133
 outer loop
  vertex 659500.0 5646500.0 6061.39990234375
  vertex 660500.0 5645500.0 6203.7001953125
  vertex 659500.0 5645500.0 6228.7998046875
 endloop
endfacet
facet normal -0.05726101994514465 -0.1965475231409073 -0.9788208603858948
 outer loop
  vertex 659500.0 5646500.0 6061.39990234375
  vertex 660500.0 5646500.0 6002.89990234375
  vertex 660500.0 5645500.0 6203.7001953125
 endloop
endfacet
facet normal 0.025874566286802292 -0.19680462777614594 -0.9801012277603149
 outer loop
  vertex 660500.0 5646500.0 6002.89990234375
  vertex 661500.0 5645500.0 6230.10009765625
  vertex 660500.0 5645500.0 6203.7001953125
 endloop
endfacet
facet normal -0.037756383419036865 -0.2571485936641693 -0.9656339883804321
 outer loop
  vertex 660500.0 5646500.0 6002.89990234375
  vertex 661500.0 5646500.0 5963.7998046875
  vertex 661500.0 5645500.0 6230.10009765625
 endloop
endfacet
facet normal -0.23721984028816223 -0.24998679757118225 -0.9387402534484863
 outer loop
  vertex 661500.0 5646500.0 5963.7998046875
  vertex 662500.0 5645500.0 5977.39990234375
  vertex 661500.0 5645500.0 6230.10009765625
 endloop
endfacet
facet normal 0.06932403147220612 0.05577787756919861 -0.9960336089134216
 outer loop
  vertex 661500.0 5646500.0 5963.7998046875
  vertex 662500.0 5646500.0 6033.39990234375
  vertex 662500.0 5645500.0 5977.39990234375
 endloop
endfacet
facet normal -0.3067563772201538 0.05321675166487694 -0.9502991437911987
 outer loop
  vertex 662500.0 5646500.0 6033.39990234375
  vertex 663500.0 5645500.0 5654.60009765625
  vertex 662500.0 5645500.0 5977.39990234375
 endloop
endfacet
facet normal -0.29714763164520264 0.06373567134141922 -0.9527019262313843
 outer loop
  vertex 662500.0 5646500.0 6033.39990234375
  vertex 663500.0 5646500.0 5721.5
  vertex 663500.0 5645500.0 5654.60009765625
 endloop
endfacet
facet normal -0.1189810112118721 0.06627653539180756 -0.990682065486908
 outer loop
  vertex 663500.0 5646500.0 5721.5
  vertex 664500.0 5645500.0 5534.5
  vertex 663500.0 5645500.0 5654.60009765625
 endloop
endfacet
facet normal -0.32343006134033203 -0.14867882430553436 -0.93449866771698
 outer loop
  vertex 663500.0 5646500.0 5721.5
  vertex 664500.0 5646500.0 5375.39990234375
  vertex 664500.0 5645500.0 5534.5
 endloop
endfacet
facet normal 0.30073612928390503 -0.14985021948814392 -0.9418612718582153
 outer loop
  vertex 664500.0 5646500.0 5375.39990234375
  vertex 665500.0 5645500.0 5853.7998046875
  vertex 664500.0 5645500.0 5534.5
 endloop
endfacet
facet normal -0.2364715188741684 -0.6015182733535767 -0.7630577087402344
 outer loop
  vertex 664500.0 5646500.0 5375.39990234375
  vertex 665500.0 5646500.0 5065.5
  vertex 665500.0 5645500.0 5853.7998046875
 endloop
endfacet
facet normal -0.05458516627550125 -0.3555033802986145 -0.9330797791481018
 outer loop
  vertex 659500.0 5647500.0 5680.39990234375
  vertex 660500.0 5646500.0 6002.89990234375
  vertex 659500.0 5646500.0 6061.39990234375
 endloop
endfacet
facet normal -0.13181822001934052 -0.42120829224586487 -0.8973336219787598
 outer loop
  vertex 659500.0 5647500.0 5680.39990234375
  vertex 660500.0 5647500.0 5533.5
  vertex 660500.0 5646500.0 6002.89990234375
 endloop
endfacet
facet normal -0.0353725329041481 -0.4246502220630646 -0.9046661853790283
 outer loop
  vertex 660500.0 5647500.0 5533.5
  vertex 661500.0 5646500.0 5963.7998046875
  vertex 660500.0 5646500.0 6002.89990234375
 endloop
endfacet
facet normal -0.036617595702409744 -0.4256680905818939 -0.9041382074356079
 outer loop
  vertex 660500.0 5647500.0 5533.5
  vertex 661500.0 5647500.0 5493.0
  vertex 661500.0 5646500.0 5963.7998046875
 endloop
endfacet
facet normal 0.06284582614898682 -0.4251117408275604 -0.9029564261436462
 outer loop
  vertex 661500.0 5647500.0 5493.0
  vertex 662500.0 5646500.0 6033.39990234375
  vertex 661500.0 5646500.0 5963.7998046875
 endloop
endfacet
facet normal -0.08526581525802612 -0.5383390188217163 -0.8384036421775818
 outer loop
  vertex 661500.0 5647500.0 5493.0
  vertex 662500.0 5647500.0 5391.2998046875
  vertex 662500.0 5646500.0 6033.39990234375
 endloop
endfacet
facet normal -0.253856360912323 -0.5226073861122131 -0.813903272151947
 outer loop
  vertex 662500.0 5647500.0 5391.2998046875
  vertex 663500.0 5646500.0 5721.5
  vertex 662500.0 5646500.0 6033.39990234375
 endloop
endfacet
facet normal -0.27354565262794495 -0.5370371341705322 -0.7979748845100403
 outer loop
  vertex 662500.0 5647500.0 5391.2998046875
  vertex 663500.0 5647500.0 5048.5
  vertex 663500.0 5646500.0 5721.5
 endloop
endfacet
facet normal -0.2759794592857361 -0.5366487503051758 -0.7973978519439697
 outer loop
  vertex 663500.0 5647500.0 5048.5
  vertex 664500.0 5646500.0 5375.39990234375
  vertex 663500.0 5646500.0 5721.5
 endloop
endfacet
facet normal -0.2051820456981659 -0.48338183760643005 -0.851024329662323
 outer loop
  vertex 663500.0 5647500.0 5048.5
  vertex 664500.0 5647500.0 4807.39990234375
  vertex 664500.0 5646500.0 5375.39990234375
 endloop
endfacet
facet normal -0.2601848244667053 -0.47687971591949463 -0.8395769596099854
 outer loop
  vertex 664500.0 5647500.0 4807.39990234375
  vertex 665500.0 5646500.0 5065.5
  vertex 664500.0 5646500.0 5375.39990234375
 endloop
endfacet
facet normal 0.5237054228782654 0.3199238181114197 -0.7895449995994568
 outer loop
  vertex 664500.0 5647500.0 4807.39990234375
  vertex 665500.0 5647500.0 5470.7001953125
  vertex 665500.0 5646500.0 5065.5
 endloop
endfacet
facet normal -0.0742170587182045 0.37450605630874634 -0.9242494106292725
 outer loop
  vertex 665500.0 5647500.0 5470.7001953125
  vertex 666500.0 5646500.0 4985.2001953125
  vertex 665500.0 5646500.0 5065.5
 endloop
endfacet
facet normal 0.08654773235321045 0.5038173198699951 -0.859463632106781
 outer loop
  vertex 665500.0 5647500.0 5470.7001953125
  vertex 666500.0 5647500.0 5571.39990234375
  vertex 666500.0 5646500.0 4985.2001953125
 endloop
endfacet
facet normal -0.14197386801242828 -0.21397563815116882 -0.9664666652679443
 outer loop
  vertex 659500.0 5648500.0 5459.0
  vertex 660500.0 5647500.0 5533.5
  vertex 659500.0 5647500.0 5680.39990234375
 endloop
endfacet
facet normal -0.05063669756054878 -0.1244610995054245 -0.9909315705299377
 outer loop
  vertex 659500.0 5648500.0 5459.0
  vertex 660500.0 5648500.0 5407.89990234375
  vertex 660500.0 5647500.0 5533.5
 endloop
endfacet
facet normal -0.04015187546610832 -0.12452048063278198 -0.9914043545722961
 outer loop
  vertex 660500.0 5648500.0 5407.89990234375
  vertex 661500.0 5647500.0 5493.0
  vertex 660500.0 5647500.0 5533.5
 endloop
endfacet
facet normal 0.03852980211377144 -0.046415314078330994 -0.9981788992881775
 outer loop
  vertex 660500.0 5648500.0 5407.89990234375
  vertex 661500.0 5648500.0 5446.5
  vertex 661500.0 5647500.0 5493.0
 endloop
endfacet
facet normal -0.10107020288705826 -0.04621195048093796 -0.9938054084777832
 outer loop
  vertex 661500.0 5648500.0 5446.5
  vertex 662500.0 5647500.0 5391.2998046875
  vertex 661500.0 5647500.0 5493.0
 endloop
endfacet
facet normal -0.19271495938301086 -0.1390964835882187 -0.9713460206985474
 outer loop
  vertex 661500.0 5648500.0 5446.5
  vertex 662500.0 5648500.0 5248.10009765625
  vertex 662500.0 5647500.0 5391.2998046875
 endloop
endfacet
facet normal -0.321340948343277 -0.13423557579517365 -0.9374011754989624
 outer loop
  vertex 662500.0 5648500.0 5248.10009765625
  vertex 663500.0 5647500.0 5048.5
  vertex 662500.0 5647500.0 5391.2998046875
 endloop
endfacet
facet normal -0.3270713686943054 -0.14054714143276215 -0.9344896078109741
 outer loop
  vertex 662500.0 5648500.0 5248.10009765625
  vertex 663500.0 5648500.0 4898.10009765625
  vertex 663500.0 5647500.0 5048.5
 endloop
endfacet
facet normal -0.23191821575164795 -0.1446721851825714 -0.9619167447090149
 outer loop
  vertex 663500.0 5648500.0 4898.10009765625
  vertex 664500.0 5647500.0 4807.39990234375
  vertex 663500.0 5647500.0 5048.5
 endloop
endfacet
facet normal 0.10325958579778671 0.19178210198879242 -0.975990355014801
 outer loop
  vertex 663500.0 5648500.0 4898.10009765625
  vertex 664500.0 5648500.0 5003.89990234375
  vertex 664500.0 5647500.0 4807.39990234375
 endloop
endfacet
facet normal 0.5454913377761841 0.16159957647323608 -0.8223897218704224
 outer loop
  vertex 664500.0 5648500.0 5003.89990234375
  vertex 665500.0 5647500.0 5470.7001953125
  vertex 664500.0 5647500.0 4807.39990234375
 endloop
endfacet
facet normal 0.23771950602531433 -0.20544172823429108 -0.9493594169616699
 outer loop
  vertex 664500.0 5648500.0 5003.89990234375
  vertex 665500.0 5648500.0 5254.2998046875
  vertex 665500.0 5647500.0 5470.7001953125
 endloop
endfacet
facet normal 0.09794831275939941 -0.2104877382516861 -0.9726772308349609
 outer loop
  vertex 665500.0 5648500.0 5254.2998046875
  vertex 666500.0 5647500.0 5571.39990234375
  vertex 665500.0 5647500.0 5470.7001953125
 endloop
endfacet
facet normal 0.2295401394367218 -0.07809794694185257 -0.9701608419418335
 outer loop
  vertex 665500.0 5648500.0 5254.2998046875
  vertex 666500.0 5648500.0 5490.89990234375
  vertex 666500.0 5647500.0 5571.39990234375
 endloop
endfacet
facet normal -0.14314280450344086 -0.07941411435604095 -0.9865107536315918
 outer loop
  vertex 666500.0 5648500.0 5490.89990234375
  vertex 667500.0 5647500.0 5426.2998046875
  vertex 666500.0 5647500.0 5571.39990234375
 endloop
endfacet
facet normal -0.05098973587155342 -0.04141037166118622 -0.9978402853012085
 outer loop
  vertex 659500.0 5649500.0 5417.5
  vertex 660500.0 5648500.0 5407.89990234375
  vertex 659500.0 5648500.0 5459.0
 endloop
endfacet
facet normal -0.13911379873752594 -0.12968893349170685 -0.9817474484443665
 outer loop
  vertex 659500.0 5649500.0 5417.5
  vertex 660500.0 5649500.0 5275.7998046875
  vertex 660500.0 5648500.0 5407.89990234375
 endloop
endfacet
facet normal 0.038239654153585434 -0.13086657226085663 -0.9906622171401978
 outer loop
  vertex 660500.0 5649500.0 5275.7998046875
  vertex 661500.0 5648500.0 5446.5
  vertex 660500.0 5648500.0 5407.89990234375
 endloop
endfacet
facet normal -0.2790234386920929 -0.42593708634376526 -0.8606529831886292
 outer loop
  vertex 660500.0 5649500.0 5275.7998046875
  vertex 661500.0 5649500.0 4951.60009765625
  vertex 661500.0 5648500.0 5446.5
 endloop
endfacet
facet normal -0.17506937682628632 -0.4367029070854187 -0.8824065327644348
 outer loop
  vertex 661500.0 5649500.0 4951.60009765625
  vertex 662500.0 5648500.0 5248.10009765625
  vertex 661500.0 5648500.0 5446.5
 endloop
endfacet
facet normal -0.08195167034864426 -0.3577592074871063 -0.9302109479904175
 outer loop
  vertex 661500.0 5649500.0 4951.60009765625
  vertex 662500.0 5649500.0 4863.5
  vertex 662500.0 5648500.0 5248.10009765625
 endloop
endfacet
facet normal -0.31052377820014954 -0.3412213623523712 -0.8872107863426208
 outer loop
  vertex 662500.0 5649500.0 4863.5
  vertex 663500.0 5648500.0 4898.10009765625
  vertex 662500.0 5648500.0 5248.10009765625
 endloop
endfacet
facet normal -0.0018986345967277884 -0.03647564724087715 -0.9993327856063843
 outer loop
  vertex 662500.0 5649500.0 4863.5
  vertex 663500.0 5649500.0 4861.60009765625
  vertex 663500.0 5648500.0 4898.10009765625
 endloop
endfacet
facet normal 0.10514335334300995 -0.0362735278904438 -0.9937952756881714
 outer loop
  vertex 663500.0 5649500.0 4861.60009765625
  vertex 664500.0 5648500.0 5003.89990234375
  vertex 663500.0 5648500.0 4898.10009765625
 endloop
endfacet
facet normal 0.44923731684684753 0.331161230802536 -0.8297699093818665
 outer loop
  vertex 663500.0 5649500.0 4861.60009765625
  vertex 664500.0 5649500.0 5403.0
  vertex 664500.0 5648500.0 5003.89990234375
 endloop
endfacet
facet normal 0.22651758790016174 0.3610352575778961 -0.9046233296394348
 outer loop
  vertex 664500.0 5649500.0 5403.0
  vertex 665500.0 5648500.0 5254.2998046875
  vertex 664500.0 5648500.0 5003.89990234375
 endloop
endfacet
facet normal -0.04053102061152458 0.10718955099582672 -0.9934121370315552
 outer loop
  vertex 664500.0 5649500.0 5403.0
  vertex 665500.0 5649500.0 5362.2001953125
  vertex 665500.0 5648500.0 5254.2998046875
 endloop
endfacet
facet normal 0.2289845198392868 0.10442734509706497 -0.9678124785423279
 outer loop
  vertex 665500.0 5649500.0 5362.2001953125
  vertex 666500.0 5648500.0 5490.89990234375
  vertex 665500.0 5648500.0 5254.2998046875
 endloop
endfacet
facet normal 0.02266719751060009 -0.10528396815061569 -0.9941838383674622
 outer loop
  vertex 665500.0 5649500.0 5362.2001953125
  vertex 666500.0 5649500.0 5385.0
  vertex 666500.0 5648500.0 5490.89990234375
 endloop
endfacet
facet normal -0.25848203897476196 -0.19998106360435486 -0.9450896978378296
 outer loop
  vertex 658500.0 5650500.0 5479.39990234375
  vertex 659500.0 5650500.0 5205.89990234375
  vertex 659500.0 5649500.0 5417.5
 endloop
endfacet
facet normal -0.13731737434864044 -0.20505525171756744 -0.96906977891922
 outer loop
  vertex 659500.0 5650500.0 5205.89990234375
  vertex 660500.0 5649500.0 5275.7998046875
  vertex 659500.0 5649500.0 5417.5
 endloop
endfacet
facet normal -0.1501605212688446 -0.21757365763187408 -0.9644238948822021
 outer loop
  vertex 659500.0 5650500.0 5205.89990234375
  vertex 660500.0 5650500.0 5050.2001953125
  vertex 660500.0 5649500.0 5275.7998046875
 endloop
endfacet
facet normal -0.3015320897102356 -0.20982599258422852 -0.9300813674926758
 outer loop
  vertex 660500.0 5650500.0 5050.2001953125
  vertex 661500.0 5649500.0 4951.60009765625
  vertex 660500.0 5649500.0 5275.7998046875
 endloop
endfacet
facet normal -0.07794605940580368 0.020333601161837578 -0.9967501759529114
 outer loop
  vertex 660500.0 5650500.0 5050.2001953125
  vertex 661500.0 5650500.0 4972.0
  vertex 661500.0 5649500.0 4951.60009765625
 endloop
endfacet
facet normal -0.08774206042289734 0.020316997542977333 -0.9959360361099243
 outer loop
  vertex 661500.0 5650500.0 4972.0
  vertex 662500.0 5649500.0 4863.5
  vertex 661500.0 5649500.0 4951.60009765625
 endloop
endfacet
facet normal -0.06510056555271149 0.04306838661432266 -0.9969488978385925
 outer loop
  vertex 661500.0 5650500.0 4972.0
  vertex 662500.0 5650500.0 4906.7001953125
  vertex 662500.0 5649500.0 4863.5
 endloop
endfacet
facet normal -0.0018981285393238068 0.043159861117601395 -0.9990663528442383
 outer loop
  vertex 662500.0 5650500.0 4906.7001953125
  vertex 663500.0 5649500.0 4861.60009765625
  vertex 662500.0 5649500.0 4863.5
 endloop
endfacet
facet normal -0.11833333224058151 -0.0736735463142395 -0.9902370572090149
 outer loop
  vertex 662500.0 5650500.0 4906.7001953125
  vertex 663500.0 5650500.0 4787.2001953125
  vertex 663500.0 5649500.0 4861.60009765625
 endloop
endfacet
facet normal 0.4750860035419464 -0.06528696417808533 -0.8775140643119812
 outer loop
  vertex 663500.0 5650500.0 4787.2001953125
  vertex 664500.0 5649500.0 5403.0
  vertex 663500.0 5649500.0 4861.60009765625
 endloop
endfacet
facet normal -0.026765188202261925 -0.5434358716011047 -0.8390238285064697
 outer loop
  vertex 663500.0 5650500.0 4787.2001953125
  vertex 664500.0 5650500.0 4755.2998046875
  vertex 664500.0 5649500.0 5403.0
 endloop
endfacet
facet normal -0.03422422334551811 -0.5433121919631958 -0.8388328552246094
 outer loop
  vertex 664500.0 5650500.0 4755.2998046875
  vertex 665500.0 5649500.0 5362.2001953125
  vertex 664500.0 5649500.0 5403.0
 endloop
endfacet
facet normal 0.4079173505306244 -0.13967199623584747 -0.9022721648216248
 outer loop
  vertex 664500.0 5650500.0 4755.2998046875
  vertex 665500.0 5650500.0 5207.39990234375
  vertex 665500.0 5649500.0 5362.2001953125
 endloop
endfacet
facet normal 0.022525716572999954 -0.15293940901756287 -0.9879788160324097
 outer loop
  vertex 665500.0 5650500.0 5207.39990234375
  vertex 666500.0 5649500.0 5385.0
  vertex 665500.0 5649500.0 5362.2001953125
 endloop
endfacet
facet normal -0.05119224637746811 -0.22403883934020996 -0.9732348322868347
 outer loop
  vertex 665500.0 5650500.0 5207.39990234375
  vertex 666500.0 5650500.0 5154.7998046875
  vertex 666500.0 5649500.0 5385.0
 endloop
endfacet
facet normal -0.1495775580406189 0.23392550647258759 -0.9606797099113464
 outer loop
  vertex 659500.0 5651500.0 5449.39990234375
  vertex 660500.0 5650500.0 5050.2001953125
  vertex 659500.0 5650500.0 5205.89990234375
 endloop
endfacet
facet normal -0.14442038536071777 0.23890814185142517 -0.960242509841919
 outer loop
  vertex 659500.0 5651500.0 5449.39990234375
  vertex 660500.0 5651500.0 5299.0
  vertex 660500.0 5650500.0 5050.2001953125
 endloop
endfacet
facet normal -0.07566913962364197 0.2407470941543579 -0.9676337242126465
 outer loop
  vertex 660500.0 5651500.0 5299.0
  vertex 661500.0 5650500.0 4972.0
  vertex 660500.0 5650500.0 5050.2001953125
 endloop
endfacet
facet normal 0.0010452730348333716 0.3117488622665405 -0.9501639008522034
 outer loop
  vertex 660500.0 5651500.0 5299.0
  vertex 661500.0 5651500.0 5300.10009765625
  vertex 661500.0 5650500.0 4972.0
 endloop
endfacet
facet normal -0.061926476657390594 0.3111506998538971 -0.9483407735824585
 outer loop
  vertex 661500.0 5651500.0 5300.10009765625
  vertex 662500.0 5650500.0 4906.7001953125
  vertex 661500.0 5650500.0 4972.0
 endloop
endfacet
facet normal -0.1179075837135315 0.2592048943042755 -0.958598256111145
 outer loop
  vertex 661500.0 5651500.0 5300.10009765625
  vertex 662500.0 5651500.0 5177.10009765625
  vertex 662500.0 5650500.0 4906.7001953125
 endloop
endfacet
facet normal -0.11459718644618988 0.25930601358413696 -0.9589722752571106
 outer loop
  vertex 662500.0 5651500.0 5177.10009765625
  vertex 663500.0 5650500.0 4787.2001953125
  vertex 662500.0 5650500.0 4906.7001953125
 endloop
endfacet
facet normal -0.05448349937796593 0.31496191024780273 -0.9475391507148743
 outer loop
  vertex 662500.0 5651500.0 5177.10009765625
  vertex 663500.0 5651500.0 5119.60009765625
  vertex 663500.0 5650500.0 4787.2001953125
 endloop
endfacet
facet normal -0.03025795705616474 0.3152860105037689 -0.9485141634941101
 outer loop
  vertex 663500.0 5651500.0 5119.60009765625
  vertex 664500.0 5650500.0 4755.2998046875
  vertex 663500.0 5650500.0 4787.2001953125
 endloop
endfacet
facet normal -0.15798762440681458 0.19467701017856598 -0.968060314655304
 outer loop
  vertex 663500.0 5651500.0 5119.60009765625
  vertex 664500.0 5651500.0 4956.39990234375
  vertex 664500.0 5650500.0 4755.2998046875
 endloop
endfacet
facet normal 0.4052084982395172 0.18024209141731262 -0.8962805271148682
 outer loop
  vertex 664500.0 5651500.0 4956.39990234375
  vertex 665500.0 5650500.0 5207.39990234375
  vertex 664500.0 5650500.0 4755.2998046875
 endloop
endfacet
facet normal -0.2782520353794098 -0.4861748516559601 -0.8283778429031372
 outer loop
  vertex 664500.0 5651500.0 4956.39990234375
  vertex 665500.0 5651500.0 4620.5
  vertex 665500.0 5650500.0 5207.39990234375
 endloop
endfacet
facet normal -0.045317642390728 -0.5056442618370056 -0.8615511059761047
 outer loop
  vertex 665500.0 5651500.0 4620.5
  vertex 666500.0 5650500.0 5154.7998046875
  vertex 665500.0 5650500.0 5207.39990234375
 endloop
endfacet
facet normal -0.2835427224636078 0.6018754839897156 -0.7465583682060242
 outer loop
  vertex 658500.0 5652500.0 6635.39990234375
  vertex 659500.0 5652500.0 6255.60009765625
  vertex 659500.0 5651500.0 5449.39990234375
 endloop
endfacet
facet normal -0.11629320681095123 0.6233752965927124 -0.7732264399528503
 outer loop
  vertex 659500.0 5652500.0 6255.60009765625
  vertex 660500.0 5651500.0 5299.0
  vertex 659500.0 5651500.0 5449.39990234375
 endloop
endfacet
facet normal -0.25105634331703186 0.5261622071266174 -0.812480092048645
 outer loop
  vertex 659500.0 5652500.0 6255.60009765625
  vertex 660500.0 5652500.0 5946.60009765625
  vertex 660500.0 5651500.0 5299.0
 endloop
endfacet
facet normal 0.0009234036551788449 0.5435712337493896 -0.8393625020980835
 outer loop
  vertex 660500.0 5652500.0 5946.60009765625
  vertex 661500.0 5651500.0 5300.10009765625
  vertex 660500.0 5651500.0 5299.0
 endloop
endfacet
facet normal -0.0723007470369339 0.4895060360431671 -0.86899733543396
 outer loop
  vertex 660500.0 5652500.0 5946.60009765625
  vertex 661500.0 5652500.0 5863.39990234375
  vertex 661500.0 5651500.0 5300.10009765625
 endloop
endfacet
facet normal -0.10655700415372849 0.48799625039100647 -0.866317093372345
 outer loop
  vertex 661500.0 5652500.0 5863.39990234375
  vertex 662500.0 5651500.0 5177.10009765625
  vertex 661500.0 5651500.0 5300.10009765625
 endloop
endfacet
facet normal -0.23575960099697113 0.37852218747138977 -0.8950633406639099
 outer loop
  vertex 661500.0 5652500.0 5863.39990234375
  vertex 662500.0 5652500.0 5600.0
  vertex 662500.0 5651500.0 5177.10009765625
 endloop
endfacet
facet normal -0.052884869277477264 0.38895663619041443 -0.9197368621826172
 outer loop
  vertex 662500.0 5652500.0 5600.0
  vertex 663500.0 5651500.0 5119.60009765625
  vertex 662500.0 5651500.0 5177.10009765625
 endloop
endfacet
facet normal -0.2982197403907776 0.1542903333902359 -0.9419445395469666
 outer loop
  vertex 662500.0 5652500.0 5600.0
  vertex 663500.0 5652500.0 5283.39990234375
  vertex 663500.0 5651500.0 5119.60009765625
 endloop
endfacet
facet normal -0.15900495648384094 0.15958917140960693 -0.9742940068244934
 outer loop
  vertex 663500.0 5652500.0 5283.39990234375
  vertex 664500.0 5651500.0 4956.39990234375
  vertex 663500.0 5651500.0 5119.60009765625
 endloop
endfacet
facet normal 0.15885548293590546 0.6683411598205566 -0.7266945838928223
 outer loop
  vertex 657500.0 5653500.0 7336.5
  vertex 658500.0 5652500.0 6635.39990234375
  vertex 657500.0 5652500.0 6416.7998046875
 endloop
endfacet
facet normal -0.05234375596046448 0.5376577973365784 -0.841536819934845
 outer loop
  vertex 657500.0 5653500.0 7336.5
  vertex 658500.0 5653500.0 7274.2998046875
  vertex 658500.0 5652500.0 6635.39990234375
 endloop
endfacet
facet normal -0.3048226237297058 0.5127731561660767 -0.802587628364563
 outer loop
  vertex 658500.0 5653500.0 7274.2998046875
  vertex 659500.0 5652500.0 6255.60009765625
  vertex 658500.0 5652500.0 6635.39990234375
 endloop
endfacet
facet normal -0.3228883445262909 0.49737662076950073 -0.8052078485488892
 outer loop
  vertex 658500.0 5653500.0 7274.2998046875
  vertex 659500.0 5653500.0 6873.2998046875
  vertex 659500.0 5652500.0 6255.60009765625
 endloop
endfacet
facet normal -0.2542513310909271 0.5082555413246155 -0.8228198289871216
 outer loop
  vertex 659500.0 5653500.0 6873.2998046875
  vertex 660500.0 5652500.0 5946.60009765625
  vertex 659500.0 5652500.0 6255.60009765625
 endloop
endfacet
facet normal -0.20040598511695862 0.5505697727203369 -0.8103766441345215
 outer loop
  vertex 659500.0 5653500.0 6873.2998046875
  vertex 660500.0 5653500.0 6626.0
  vertex 660500.0 5652500.0 5946.60009765625
 endloop
endfacet
facet normal -0.0686572939157486 0.5606444478034973 -0.825205385684967
 outer loop
  vertex 660500.0 5653500.0 6626.0
  vertex 661500.0 5652500.0 5863.39990234375
  vertex 660500.0 5652500.0 5946.60009765625
 endloop
endfacet
facet normal -0.27450764179229736 0.394308865070343 -0.8770212531089783
 outer loop
  vertex 660500.0 5653500.0 6626.0
  vertex 661500.0 5653500.0 6313.0
  vertex 661500.0 5652500.0 5863.39990234375
 endloop
endfacet
facet normal -0.23358988761901855 0.39871707558631897 -0.8868260383605957
 outer loop
  vertex 661500.0 5653500.0 6313.0
  vertex 662500.0 5652500.0 5600.0
  vertex 661500.0 5652500.0 5863.39990234375
 endloop
endfacet
facet normal -0.12797953188419342 0.4877376854419708 -0.8635585308074951
 outer loop
  vertex 661500.0 5653500.0 6313.0
  vertex 662500.0 5653500.0 6164.7998046875
  vertex 662500.0 5652500.0 5600.0
 endloop
endfacet
facet normal -0.2657565176486969 0.47409728169441223 -0.8394076824188232
 outer loop
  vertex 662500.0 5653500.0 6164.7998046875
  vertex 663500.0 5652500.0 5283.39990234375
  vertex 662500.0 5652500.0 5600.0
 endloop
endfacet
facet normal -0.22730794548988342 0.5060353875160217 -0.832021176815033
 outer loop
  vertex 662500.0 5653500.0 6164.7998046875
  vertex 663500.0 5653500.0 5891.60009765625
  vertex 663500.0 5652500.0 5283.39990234375
 endloop
endfacet
facet normal -0.05327223241329193 -0.5134502649307251 -0.8564642071723938
 outer loop
  vertex 657500.0 5654500.0 6737.0
  vertex 658500.0 5653500.0 7274.2998046875
  vertex 657500.0 5653500.0 7336.5
 endloop
endfacet
facet normal -0.189866304397583 -0.6052371859550476 -0.7730709910392761
 outer loop
  vertex 657500.0 5654500.0 6737.0
  vertex 658500.0 5654500.0 6491.39990234375
  vertex 658500.0 5653500.0 7274.2998046875
 endloop
endfacet
facet normal -0.3010926842689514 -0.5878439545631409 -0.7508546113967896
 outer loop
  vertex 658500.0 5654500.0 6491.39990234375
  vertex 659500.0 5653500.0 6873.2998046875
  vertex 658500.0 5653500.0 7274.2998046875
 endloop
endfacet
facet normal -0.09924144297838211 -0.4400723874568939 -0.8924614191055298
 outer loop
  vertex 658500.0 5654500.0 6491.39990234375
  vertex 659500.0 5654500.0 6380.2001953125
  vertex 659500.0 5653500.0 6873.2998046875
 endloop
endfacet
facet normal -0.21653808653354645 -0.4317627549171448 -0.8756095767021179
 outer loop
  vertex 659500.0 5654500.0 6380.2001953125
  vertex 660500.0 5653500.0 6626.0
  vertex 659500.0 5653500.0 6873.2998046875
 endloop
endfacet
facet normal -0.1661071926355362 -0.3888516128063202 -0.906202495098114
 outer loop
  vertex 659500.0 5654500.0 6380.2001953125
  vertex 660500.0 5654500.0 6196.89990234375
  vertex 660500.0 5653500.0 6626.0
 endloop
endfacet
facet normal -0.27642929553985596 -0.3789643347263336 -0.8831607103347778
 outer loop
  vertex 660500.0 5654500.0 6196.89990234375
  vertex 661500.0 5653500.0 6313.0
  vertex 660500.0 5653500.0 6626.0
 endloop
endfacet
facet normal -0.26270291209220886 -0.07971474528312683 -0.9615782499313354
 outer loop
  vertex 662500.0 5654500.0 6081.89990234375
  vertex 663500.0 5653500.0 5891.60009765625
  vertex 662500.0 5653500.0 6164.7998046875
 endloop
endfacet
endsolid
