solid
facet normal -0.15222683548927307 -0.3332059979438782 -0.9304841160774231
 outer loop
  vertex 595500.0 5284500.0 10020.2998046875
  vertex 596500.0 5284500.0 9856.7001953125
  vertex 596500.0 5283500.0 10214.7998046875
 endloop
endfacet
facet normal -0.3361383080482483 -0.31751811504364014 -0.8866753578186035
 outer loop
  vertex 596500.0 5284500.0 9856.7001953125
  vertex 597500.0 5283500.0 9835.7001953125
  vertex 596500.0 5283500.0 10214.7998046875
 endloop
endfacet
facet normal 0.1910478174686432 0.21117830276489258 -0.9585950374603271
 outer loop
  vertex 596500.0 5284500.0 9856.7001953125
  vertex 597500.0 5284500.0 10056.0
  vertex 597500.0 5283500.0 9835.7001953125
 endloop
endfacet
facet normal -0.29624107480049133 0.2054840475320816 -0.9327473044395447
 outer loop
  vertex 597500.0 5284500.0 10056.0
  vertex 598500.0 5283500.0 9518.099609375
  vertex 597500.0 5283500.0 9835.7001953125
 endloop
endfacet
facet normal -0.33870044350624084 0.16003261506557465 -0.9271848201751709
 outer loop
  vertex 597500.0 5284500.0 10056.0
  vertex 598500.0 5284500.0 9690.7001953125
  vertex 598500.0 5283500.0 9518.099609375
 endloop
endfacet
facet normal -0.14746123552322388 -0.1350174844264984 -0.9798088669776917
 outer loop
  vertex 593500.0 5285500.0 10543.7001953125
  vertex 594500.0 5284500.0 10531.0
  vertex 593500.0 5284500.0 10681.5
 endloop
endfacet
facet normal 0.5847651362419128 0.5918112993240356 -0.5548055768013
 outer loop
  vertex 593500.0 5285500.0 10543.7001953125
  vertex 594500.0 5285500.0 11597.7001953125
  vertex 594500.0 5284500.0 10531.0
 endloop
endfacet
facet normal -0.3297472894191742 0.6887437701225281 -0.6456769704818726
 outer loop
  vertex 594500.0 5285500.0 11597.7001953125
  vertex 595500.0 5284500.0 10020.2998046875
  vertex 594500.0 5284500.0 10531.0
 endloop
endfacet
facet normal -0.741003692150116 0.24512618780136108 -0.6251614093780518
 outer loop
  vertex 594500.0 5285500.0 11597.7001953125
  vertex 595500.0 5285500.0 10412.400390625
  vertex 595500.0 5284500.0 10020.2998046875
 endloop
endfacet
facet normal -0.1505732387304306 0.3608802258968353 -0.9203765988349915
 outer loop
  vertex 595500.0 5285500.0 10412.400390625
  vertex 596500.0 5284500.0 9856.7001953125
  vertex 595500.0 5284500.0 10020.2998046875
 endloop
endfacet
facet normal -0.5735206604003906 -0.1234988421201706 -0.8098284602165222
 outer loop
  vertex 595500.0 5285500.0 10412.400390625
  vertex 596500.0 5285500.0 9704.2001953125
  vertex 596500.0 5284500.0 9856.7001953125
 endloop
endfacet
facet normal 0.1933058500289917 -0.14791354537010193 -0.9699249267578125
 outer loop
  vertex 596500.0 5285500.0 9704.2001953125
  vertex 597500.0 5284500.0 10056.0
  vertex 596500.0 5284500.0 9856.7001953125
 endloop
endfacet
facet normal 0.1352056860923767 -0.20576445758342743 -0.9692164063453674
 outer loop
  vertex 596500.0 5285500.0 9704.2001953125
  vertex 597500.0 5285500.0 9843.7001953125
  vertex 597500.0 5284500.0 10056.0
 endloop
endfacet
facet normal -0.3364975154399872 -0.19556090235710144 -0.9211543798446655
 outer loop
  vertex 597500.0 5285500.0 9843.7001953125
  vertex 598500.0 5284500.0 9690.7001953125
  vertex 597500.0 5284500.0 10056.0
 endloop
endfacet
facet normal -0.3819476366043091 -0.2456332892179489 -0.8909435272216797
 outer loop
  vertex 597500.0 5285500.0 9843.7001953125
  vertex 598500.0 5285500.0 9415.0
  vertex 598500.0 5284500.0 9690.7001953125
 endloop
endfacet
facet normal -0.0233234241604805 -0.2657116651535034 -0.9637703895568848
 outer loop
  vertex 598500.0 5285500.0 9415.0
  vertex 599500.0 5284500.0 9666.5
  vertex 598500.0 5284500.0 9690.7001953125
 endloop
endfacet
facet normal 0.2450893372297287 0.001260167802684009 -0.9694996476173401
 outer loop
  vertex 598500.0 5285500.0 9415.0
  vertex 599500.0 5285500.0 9667.7998046875
  vertex 599500.0 5284500.0 9666.5
 endloop
endfacet
facet normal -0.7292782068252563 -0.29932835698127747 -0.6152690052986145
 outer loop
  vertex 594500.0 5286500.0 11111.2001953125
  vertex 595500.0 5285500.0 10412.400390625
  vertex 594500.0 5285500.0 11597.7001953125
 endloop
endfacet
facet normal -0.19029057025909424 0.42733660340309143 -0.8838399052619934
 outer loop
  vertex 594500.0 5286500.0 11111.2001953125
  vertex 595500.0 5286500.0 10895.900390625
  vertex 595500.0 5285500.0 10412.400390625
 endloop
endfacet
facet normal -0.5376087427139282 0.36703434586524963 -0.7591196894645691
 outer loop
  vertex 595500.0 5286500.0 10895.900390625
  vertex 596500.0 5285500.0 9704.2001953125
  vertex 595500.0 5285500.0 10412.400390625
 endloop
endfacet
facet normal -0.8179244995117188 -0.15901803970336914 -0.5529129505157471
 outer loop
  vertex 595500.0 5286500.0 10895.900390625
  vertex 596500.0 5286500.0 9416.599609375
  vertex 596500.0 5285500.0 9704.2001953125
 endloop
endfacet
facet normal 0.13287676870822906 -0.27394580841064453 -0.9525216817855835
 outer loop
  vertex 596500.0 5286500.0 9416.599609375
  vertex 597500.0 5285500.0 9843.7001953125
  vertex 596500.0 5285500.0 9704.2001953125
 endloop
endfacet
facet normal -0.03077101707458496 -0.4184567630290985 -0.9077153205871582
 outer loop
  vertex 596500.0 5286500.0 9416.599609375
  vertex 597500.0 5286500.0 9382.7001953125
  vertex 597500.0 5285500.0 9843.7001953125
 endloop
endfacet
facet normal -0.3627969026565552 -0.3901313245296478 -0.8462718725204468
 outer loop
  vertex 597500.0 5286500.0 9382.7001953125
  vertex 598500.0 5285500.0 9415.0
  vertex 597500.0 5285500.0 9843.7001953125
 endloop
endfacet
facet normal -0.10433084517717361 -0.13615192472934723 -0.9851790070533752
 outer loop
  vertex 597500.0 5286500.0 9382.7001953125
  vertex 598500.0 5286500.0 9276.7998046875
  vertex 598500.0 5285500.0 9415.0
 endloop
endfacet
facet normal 0.24291878938674927 -0.1327984482049942 -0.9609136581420898
 outer loop
  vertex 598500.0 5286500.0 9276.7998046875
  vertex 599500.0 5285500.0 9667.7998046875
  vertex 598500.0 5285500.0 9415.0
 endloop
endfacet
facet normal 0.36769723892211914 0.0040920693427324295 -0.9299364686012268
 outer loop
  vertex 598500.0 5286500.0 9276.7998046875
  vertex 599500.0 5286500.0 9672.2001953125
  vertex 599500.0 5285500.0 9667.7998046875
 endloop
endfacet
facet normal 0.1532665640115738 0.004348357208073139 -0.9881753325462341
 outer loop
  vertex 599500.0 5286500.0 9672.2001953125
  vertex 600500.0 5285500.0 9822.900390625
  vertex 599500.0 5285500.0 9667.7998046875
 endloop
endfacet
facet normal 0.21565167605876923 0.06886380165815353 -0.9740390777587891
 outer loop
  vertex 599500.0 5286500.0 9672.2001953125
  vertex 600500.0 5286500.0 9893.599609375
  vertex 600500.0 5285500.0 9822.900390625
 endloop
endfacet
facet normal 0.1376306414604187 0.0698520615696907 -0.9880174398422241
 outer loop
  vertex 600500.0 5286500.0 9893.599609375
  vertex 601500.0 5285500.0 9962.2001953125
  vertex 600500.0 5285500.0 9822.900390625
 endloop
endfacet
facet normal -0.20457841455936432 -0.23508046567440033 -0.9502025246620178
 outer loop
  vertex 594500.0 5287500.0 10863.7998046875
  vertex 595500.0 5286500.0 10895.900390625
  vertex 594500.0 5286500.0 11111.2001953125
 endloop
endfacet
facet normal -0.5162811875343323 -0.5376793742179871 -0.6665993332862854
 outer loop
  vertex 594500.0 5287500.0 10863.7998046875
  vertex 595500.0 5287500.0 10089.2998046875
  vertex 595500.0 5286500.0 10895.900390625
 endloop
endfacet
facet normal -0.7550072073936462 -0.41167372465133667 -0.5103811621665955
 outer loop
  vertex 595500.0 5287500.0 10089.2998046875
  vertex 596500.0 5286500.0 9416.599609375
  vertex 595500.0 5286500.0 10895.900390625
 endloop
endfacet
facet normal -0.31512072682380676 0.29227691888809204 -0.9029247760772705
 outer loop
  vertex 595500.0 5287500.0 10089.2998046875
  vertex 596500.0 5287500.0 9740.2998046875
  vertex 596500.0 5286500.0 9416.599609375
 endloop
endfacet
facet normal -0.03223505988717079 0.3078073263168335 -0.95090252161026
 outer loop
  vertex 596500.0 5287500.0 9740.2998046875
  vertex 597500.0 5286500.0 9382.7001953125
  vertex 596500.0 5286500.0 9416.599609375
 endloop
endfacet
facet normal -0.36683887243270874 -0.03439698740839958 -0.9296482801437378
 outer loop
  vertex 596500.0 5287500.0 9740.2998046875
  vertex 597500.0 5287500.0 9345.7001953125
  vertex 597500.0 5286500.0 9382.7001953125
 endloop
endfacet
facet normal -0.10524030029773712 -0.03676937147974968 -0.9937668442726135
 outer loop
  vertex 597500.0 5287500.0 9345.7001953125
  vertex 598500.0 5286500.0 9276.7998046875
  vertex 597500.0 5286500.0 9382.7001953125
 endloop
endfacet
facet normal -0.020471738651394844 0.04833366721868515 -0.99862140417099
 outer loop
  vertex 597500.0 5287500.0 9345.7001953125
  vertex 598500.0 5287500.0 9325.2001953125
  vertex 598500.0 5286500.0 9276.7998046875
 endloop
endfacet
facet normal 0.3673284351825714 0.04496414586901665 -0.9290037751197815
 outer loop
  vertex 598500.0 5287500.0 9325.2001953125
  vertex 599500.0 5286500.0 9672.2001953125
  vertex 598500.0 5286500.0 9276.7998046875
 endloop
endfacet
facet normal 0.4124448299407959 0.09817486256361008 -0.9056771397590637
 outer loop
  vertex 598500.0 5287500.0 9325.2001953125
  vertex 599500.0 5287500.0 9780.599609375
  vertex 599500.0 5286500.0 9672.2001953125
 endloop
endfacet
facet normal 0.21496424078941345 0.10524868965148926 -0.9709340929985046
 outer loop
  vertex 599500.0 5287500.0 9780.599609375
  vertex 600500.0 5286500.0 9893.599609375
  vertex 599500.0 5286500.0 9672.2001953125
 endloop
endfacet
facet normal 0.26839861273765564 0.1610773801803589 -0.9497454166412354
 outer loop
  vertex 599500.0 5287500.0 9780.599609375
  vertex 600500.0 5287500.0 10063.2001953125
  vertex 600500.0 5286500.0 9893.599609375
 endloop
endfacet
facet normal -0.6108879446983337 -0.06846346706151962 -0.7887513637542725
 outer loop
  vertex 594500.0 5288500.0 10777.0
  vertex 595500.0 5287500.0 10089.2998046875
  vertex 594500.0 5287500.0 10863.7998046875
 endloop
endfacet
facet normal -0.6901350021362305 -0.2149113267660141 -0.6910331845283508
 outer loop
  vertex 594500.0 5288500.0 10777.0
  vertex 595500.0 5288500.0 9778.2998046875
  vertex 595500.0 5287500.0 10089.2998046875
 endloop
endfacet
facet normal -0.31616130471229553 -0.2817368805408478 -0.9059063196182251
 outer loop
  vertex 595500.0 5288500.0 9778.2998046875
  vertex 596500.0 5287500.0 9740.2998046875
  vertex 595500.0 5287500.0 10089.2998046875
 endloop
endfacet
facet normal -0.14630337059497833 -0.10894090682268143 -0.9832228422164917
 outer loop
  vertex 595500.0 5288500.0 9778.2998046875
  vertex 596500.0 5288500.0 9629.5
  vertex 596500.0 5287500.0 9740.2998046875
 endloop
endfacet
facet normal -0.3651219606399536 -0.10252276062965393 -0.9252972602844238
 outer loop
  vertex 596500.0 5288500.0 9629.5
  vertex 597500.0 5287500.0 9345.7001953125
  vertex 596500.0 5287500.0 9740.2998046875
 endloop
endfacet
facet normal -0.34572088718414307 -0.0804002434015274 -0.9348865747451782
 outer loop
  vertex 596500.0 5288500.0 9629.5
  vertex 597500.0 5288500.0 9259.7001953125
  vertex 597500.0 5287500.0 9345.7001953125
 endloop
endfacet
facet normal -0.020420348271727562 -0.08566585183143616 -0.9961146116256714
 outer loop
  vertex 597500.0 5288500.0 9259.7001953125
  vertex 598500.0 5287500.0 9325.2001953125
  vertex 597500.0 5287500.0 9345.7001953125
 endloop
endfacet
facet normal 0.19242647290229797 0.12870581448078156 -0.9728344678878784
 outer loop
  vertex 597500.0 5288500.0 9259.7001953125
  vertex 598500.0 5288500.0 9457.5
  vertex 598500.0 5287500.0 9325.2001953125
 endloop
endfacet
facet normal 0.41147512197494507 0.11953919380903244 -0.9035477638244629
 outer loop
  vertex 598500.0 5288500.0 9457.5
  vertex 599500.0 5287500.0 9780.599609375
  vertex 598500.0 5287500.0 9325.2001953125
 endloop
endfacet
facet normal 0.3007858395576477 -0.007342493627220392 -0.9536635279655457
 outer loop
  vertex 598500.0 5288500.0 9457.5
  vertex 599500.0 5288500.0 9772.900390625
  vertex 599500.0 5287500.0 9780.599609375
 endloop
endfacet
facet normal 0.2719423174858093 -0.007408842910081148 -0.962285041809082
 outer loop
  vertex 599500.0 5288500.0 9772.900390625
  vertex 600500.0 5287500.0 10063.2001953125
  vertex 599500.0 5287500.0 9780.599609375
 endloop
endfacet
facet normal 0.2761285603046417 -0.0028833490796387196 -0.961116373538971
 outer loop
  vertex 599500.0 5288500.0 9772.900390625
  vertex 600500.0 5288500.0 10060.2001953125
  vertex 600500.0 5287500.0 10063.2001953125
 endloop
endfacet
facet normal -0.2103828638792038 -0.002932844217866659 -0.97761470079422
 outer loop
  vertex 600500.0 5288500.0 10060.2001953125
  vertex 601500.0 5287500.0 9848.0
  vertex 600500.0 5287500.0 10063.2001953125
 endloop
endfacet
facet normal -0.15117652714252472 0.05822065472602844 -0.9867907762527466
 outer loop
  vertex 600500.0 5288500.0 10060.2001953125
  vertex 601500.0 5288500.0 9907.0
  vertex 601500.0 5287500.0 9848.0
 endloop
endfacet
facet normal -0.5986460447311401 -0.5313307046890259 -0.599425196647644
 outer loop
  vertex 594500.0 5289500.0 9890.599609375
  vertex 595500.0 5288500.0 9778.2998046875
  vertex 594500.0 5288500.0 10777.0
 endloop
endfacet
facet normal -0.20339390635490417 -0.0939488559961319 -0.9745791554450989
 outer loop
  vertex 594500.0 5289500.0 9890.599609375
  vertex 595500.0 5289500.0 9681.900390625
  vertex 595500.0 5288500.0 9778.2998046875
 endloop
endfacet
facet normal -0.14651483297348022 -0.0949191004037857 -0.9846439957618713
 outer loop
  vertex 595500.0 5289500.0 9681.900390625
  vertex 596500.0 5288500.0 9629.5
  vertex 595500.0 5288500.0 9778.2998046875
 endloop
endfacet
facet normal -0.20517757534980774 -0.15453535318374634 -0.9664475917816162
 outer loop
  vertex 595500.0 5289500.0 9681.900390625
  vertex 596500.0 5289500.0 9469.599609375
  vertex 596500.0 5288500.0 9629.5
 endloop
endfacet
facet normal -0.3430076539516449 -0.14831553399562836 -0.9275495409965515
 outer loop
  vertex 596500.0 5289500.0 9469.599609375
  vertex 597500.0 5288500.0 9259.7001953125
  vertex 596500.0 5288500.0 9629.5
 endloop
endfacet
facet normal -0.262082040309906 -0.05991026386618614 -0.9631841778755188
 outer loop
  vertex 596500.0 5289500.0 9469.599609375
  vertex 597500.0 5289500.0 9197.5
  vertex 597500.0 5288500.0 9259.7001953125
 endloop
endfacet
facet normal 0.19368012249469757 -0.060904715210199356 -0.97917240858078
 outer loop
  vertex 597500.0 5289500.0 9197.5
  vertex 598500.0 5288500.0 9457.5
  vertex 597500.0 5288500.0 9259.7001953125
 endloop
endfacet
facet normal 0.3426467180252075 0.09976724535226822 -0.9341518878936768
 outer loop
  vertex 597500.0 5289500.0 9197.5
  vertex 598500.0 5289500.0 9564.2998046875
  vertex 598500.0 5288500.0 9457.5
 endloop
endfacet
facet normal 0.2992457449436188 0.10132956504821777 -0.9487804174423218
 outer loop
  vertex 598500.0 5289500.0 9564.2998046875
  vertex 599500.0 5288500.0 9772.900390625
  vertex 598500.0 5288500.0 9457.5
 endloop
endfacet
facet normal 0.09347967058420181 -0.11286862939596176 -0.9892028570175171
 outer loop
  vertex 598500.0 5289500.0 9564.2998046875
  vertex 599500.0 5289500.0 9658.7998046875
  vertex 599500.0 5288500.0 9772.900390625
 endloop
endfacet
facet normal 0.2744840979576111 -0.10901086032390594 -0.9553926587104797
 outer loop
  vertex 599500.0 5289500.0 9658.7998046875
  vertex 600500.0 5288500.0 10060.2001953125
  vertex 599500.0 5288500.0 9772.900390625
 endloop
endfacet
facet normal 0.40526750683784485 0.03863586112856865 -0.9133813977241516
 outer loop
  vertex 599500.0 5289500.0 9658.7998046875
  vertex 600500.0 5289500.0 10102.5
  vertex 600500.0 5288500.0 10060.2001953125
 endloop
endfacet
facet normal -0.15130120515823364 0.041775479912757874 -0.987604558467865
 outer loop
  vertex 600500.0 5289500.0 10102.5
  vertex 601500.0 5288500.0 9907.0
  vertex 600500.0 5288500.0 10060.2001953125
 endloop
endfacet
facet normal -0.06968607008457184 0.12383028119802475 -0.9898534417152405
 outer loop
  vertex 600500.0 5289500.0 10102.5
  vertex 601500.0 5289500.0 10032.099609375
  vertex 601500.0 5288500.0 9907.0
 endloop
endfacet
facet normal -0.14932969212532043 0.12274021655321121 -0.9811398983001709
 outer loop
  vertex 601500.0 5289500.0 10032.099609375
  vertex 602500.0 5288500.0 9754.7998046875
  vertex 601500.0 5288500.0 9907.0
 endloop
endfacet
facet normal -0.01742112822830677 0.2509608566761017 -0.9678404927253723
 outer loop
  vertex 601500.0 5289500.0 10032.099609375
  vertex 602500.0 5289500.0 10014.099609375
  vertex 602500.0 5288500.0 9754.7998046875
 endloop
endfacet
facet normal -0.2836942970752716 -0.12268342822790146 -0.9510343074798584
 outer loop
  vertex 593500.0 5290500.0 10059.900390625
  vertex 594500.0 5290500.0 9761.599609375
  vertex 594500.0 5289500.0 9890.599609375
 endloop
endfacet
facet normal -0.2026878297328949 -0.12528426945209503 -0.9711959362030029
 outer loop
  vertex 594500.0 5290500.0 9761.599609375
  vertex 595500.0 5289500.0 9681.900390625
  vertex 594500.0 5289500.0 9890.599609375
 endloop
endfacet
facet normal -0.032946180552244186 0.04662305861711502 -0.9983690977096558
 outer loop
  vertex 594500.0 5290500.0 9761.599609375
  vertex 595500.0 5290500.0 9728.599609375
  vertex 595500.0 5289500.0 9681.900390625
 endloop
endfacet
facet normal -0.20745596289634705 0.04563351720571518 -0.9771794676780701
 outer loop
  vertex 595500.0 5290500.0 9728.599609375
  vertex 596500.0 5289500.0 9469.599609375
  vertex 595500.0 5289500.0 9681.900390625
 endloop
endfacet
facet normal -0.43966925144195557 -0.21372810006141663 -0.8723596334457397
 outer loop
  vertex 595500.0 5290500.0 9728.599609375
  vertex 596500.0 5290500.0 9224.599609375
  vertex 596500.0 5289500.0 9469.599609375
 endloop
endfacet
facet normal -0.2555108368396759 -0.23006336390972137 -0.9390341639518738
 outer loop
  vertex 596500.0 5290500.0 9224.599609375
  vertex 597500.0 5289500.0 9197.5
  vertex 596500.0 5289500.0 9469.599609375
 endloop
endfacet
facet normal -0.07815669476985931 -0.05117560178041458 -0.99562668800354
 outer loop
  vertex 596500.0 5290500.0 9224.599609375
  vertex 597500.0 5290500.0 9146.099609375
  vertex 597500.0 5289500.0 9197.5
 endloop
endfacet
facet normal 0.3439645767211914 -0.048200443387031555 -0.937744677066803
 outer loop
  vertex 597500.0 5290500.0 9146.099609375
  vertex 598500.0 5289500.0 9564.2998046875
  vertex 597500.0 5289500.0 9197.5
 endloop
endfacet
facet normal 0.36035245656967163 -0.029555603861808777 -0.9323478937149048
 outer loop
  vertex 597500.0 5290500.0 9146.099609375
  vertex 598500.0 5290500.0 9532.599609375
  vertex 598500.0 5289500.0 9564.2998046875
 endloop
endfacet
facet normal 0.09403403103351593 -0.03154388442635536 -0.995069146156311
 outer loop
  vertex 598500.0 5290500.0 9532.599609375
  vertex 599500.0 5289500.0 9658.7998046875
  vertex 598500.0 5289500.0 9564.2998046875
 endloop
endfacet
facet normal 0.13679271936416626 0.011787695810198784 -0.9905295372009277
 outer loop
  vertex 598500.0 5290500.0 9532.599609375
  vertex 599500.0 5290500.0 9670.7001953125
  vertex 599500.0 5289500.0 9658.7998046875
 endloop
endfacet
facet normal 0.40554627776145935 0.010877072811126709 -0.9140097498893738
 outer loop
  vertex 599500.0 5290500.0 9670.7001953125
  vertex 600500.0 5289500.0 10102.5
  vertex 599500.0 5289500.0 9658.7998046875
 endloop
endfacet
facet normal 0.1585005223751068 -0.2535443603992462 -0.9542498588562012
 outer loop
  vertex 599500.0 5290500.0 9670.7001953125
  vertex 600500.0 5290500.0 9836.7998046875
  vertex 600500.0 5289500.0 10102.5
 endloop
endfacet
facet normal -0.06788270175457001 -0.25619813799858093 -0.9642377495765686
 outer loop
  vertex 600500.0 5290500.0 9836.7998046875
  vertex 601500.0 5289500.0 10032.099609375
  vertex 600500.0 5289500.0 10102.5
 endloop
endfacet
facet normal 0.030377324670553207 -0.1622435599565506 -0.986283004283905
 outer loop
  vertex 600500.0 5290500.0 9836.7998046875
  vertex 601500.0 5290500.0 9867.599609375
  vertex 601500.0 5289500.0 10032.099609375
 endloop
endfacet
facet normal -0.01775849051773548 -0.16229286789894104 -0.9865827560424805
 outer loop
  vertex 601500.0 5290500.0 9867.599609375
  vertex 602500.0 5289500.0 10014.099609375
  vertex 601500.0 5289500.0 10032.099609375
 endloop
endfacet
facet normal -0.4416196346282959 -0.1928577572107315 -0.8762294054031372
 outer loop
  vertex 595500.0 5291500.0 9508.5
  vertex 596500.0 5290500.0 9224.599609375
  vertex 595500.0 5290500.0 9728.599609375
 endloop
endfacet
endsolid
