solid
facet normal -0.043127309530973434 -0.0387348048388958 -0.9983183741569519
 outer loop
  vertex 316500.0 5663500.0 3397.199951171875
  vertex 317500.0 5663500.0 3354.0
  vertex 317500.0 5662500.0 3392.800048828125
 endloop
endfacet
facet normal 0.09193937480449677 -0.038606662303209305 -0.9950159192085266
 outer loop
  vertex 317500.0 5663500.0 3354.0
  vertex 318500.0 5662500.0 3485.199951171875
  vertex 317500.0 5662500.0 3392.800048828125
 endloop
endfacet
facet normal 0.0005950444028712809 -0.1295001059770584 -0.9915792346000671
 outer loop
  vertex 317500.0 5663500.0 3354.0
  vertex 318500.0 5663500.0 3354.60009765625
  vertex 318500.0 5662500.0 3485.199951171875
 endloop
endfacet
facet normal -0.002379683079198003 -0.12949976325035095 -0.991576611995697
 outer loop
  vertex 318500.0 5663500.0 3354.60009765625
  vertex 319500.0 5662500.0 3482.800048828125
  vertex 318500.0 5662500.0 3485.199951171875
 endloop
endfacet
facet normal 0.08620293438434601 -0.041409432888031006 -0.9954166412353516
 outer loop
  vertex 318500.0 5663500.0 3354.60009765625
  vertex 319500.0 5663500.0 3441.199951171875
  vertex 319500.0 5662500.0 3482.800048828125
 endloop
endfacet
facet normal -0.04494763910770416 0.017479637637734413 -0.9988363981246948
 outer loop
  vertex 315500.0 5664500.0 3459.699951171875
  vertex 316500.0 5664500.0 3414.699951171875
  vertex 316500.0 5663500.0 3397.199951171875
 endloop
endfacet
facet normal -0.043153103440999985 0.017481021583080292 -0.9989154934883118
 outer loop
  vertex 316500.0 5664500.0 3414.699951171875
  vertex 317500.0 5663500.0 3354.0
  vertex 316500.0 5663500.0 3397.199951171875
 endloop
endfacet
facet normal -0.06754369288682938 -0.006983843166381121 -0.9976919293403625
 outer loop
  vertex 316500.0 5664500.0 3414.699951171875
  vertex 317500.0 5664500.0 3347.0
  vertex 317500.0 5663500.0 3354.0
 endloop
endfacet
facet normal 0.0006000828579999506 -0.006999826990067959 -0.999975323677063
 outer loop
  vertex 317500.0 5664500.0 3347.0
  vertex 318500.0 5663500.0 3354.60009765625
  vertex 317500.0 5663500.0 3354.0
 endloop
endfacet
facet normal -0.07807068526744843 -0.08561958372592926 -0.9932644963264465
 outer loop
  vertex 317500.0 5664500.0 3347.0
  vertex 318500.0 5664500.0 3268.39990234375
  vertex 318500.0 5663500.0 3354.60009765625
 endloop
endfacet
facet normal 0.08596052974462509 -0.08556382358074188 -0.9926175475120544
 outer loop
  vertex 318500.0 5664500.0 3268.39990234375
  vertex 319500.0 5663500.0 3441.199951171875
  vertex 318500.0 5663500.0 3354.60009765625
 endloop
endfacet
facet normal 0.1951085925102234 0.02568761818110943 -0.9804452061653137
 outer loop
  vertex 318500.0 5664500.0 3268.39990234375
  vertex 319500.0 5664500.0 3467.39990234375
  vertex 319500.0 5663500.0 3441.199951171875
 endloop
endfacet
facet normal 0.03607606515288353 0.003997364081442356 -0.9993410706520081
 outer loop
  vertex 314500.0 5665500.0 3427.60009765625
  vertex 315500.0 5664500.0 3459.699951171875
  vertex 314500.0 5664500.0 3423.60009765625
 endloop
endfacet
facet normal 0.0014992965152487159 -0.030585503205657005 -0.9995310306549072
 outer loop
  vertex 314500.0 5665500.0 3427.60009765625
  vertex 315500.0 5665500.0 3429.10009765625
  vertex 315500.0 5664500.0 3459.699951171875
 endloop
endfacet
facet normal -0.044933516532182693 -0.030554646626114845 -0.9985226392745972
 outer loop
  vertex 315500.0 5665500.0 3429.10009765625
  vertex 316500.0 5664500.0 3414.699951171875
  vertex 315500.0 5664500.0 3459.699951171875
 endloop
endfacet
facet normal -0.024191949516534805 -0.00979670975357294 -0.9996592998504639
 outer loop
  vertex 315500.0 5665500.0 3429.10009765625
  vertex 316500.0 5665500.0 3404.89990234375
  vertex 316500.0 5664500.0 3414.699951171875
 endloop
endfacet
facet normal -0.06754211336374283 -0.009777200408279896 -0.9976685047149658
 outer loop
  vertex 316500.0 5665500.0 3404.89990234375
  vertex 317500.0 5664500.0 3347.0
  vertex 316500.0 5664500.0 3414.699951171875
 endloop
endfacet
facet normal -0.010087821632623672 0.04774310439825058 -0.998808741569519
 outer loop
  vertex 316500.0 5665500.0 3404.89990234375
  vertex 317500.0 5665500.0 3394.800048828125
  vertex 317500.0 5664500.0 3347.0
 endloop
endfacet
facet normal -0.0782696083188057 0.04759905859827995 -0.9957952499389648
 outer loop
  vertex 317500.0 5665500.0 3394.800048828125
  vertex 318500.0 5664500.0 3268.39990234375
  vertex 317500.0 5664500.0 3347.0
 endloop
endfacet
facet normal -0.05288391560316086 0.07300162315368652 -0.9959287643432617
 outer loop
  vertex 317500.0 5665500.0 3394.800048828125
  vertex 318500.0 5665500.0 3341.699951171875
  vertex 318500.0 5664500.0 3268.39990234375
 endloop
endfacet
facet normal 0.19467060267925262 0.07170534878969193 -0.9782442450523376
 outer loop
  vertex 318500.0 5665500.0 3341.699951171875
  vertex 319500.0 5664500.0 3467.39990234375
  vertex 318500.0 5664500.0 3268.39990234375
 endloop
endfacet
facet normal 0.09581557661294937 -0.029252000153064728 -0.9949691891670227
 outer loop
  vertex 318500.0 5665500.0 3341.699951171875
  vertex 319500.0 5665500.0 3438.0
  vertex 319500.0 5664500.0 3467.39990234375
 endloop
endfacet
facet normal 0.0014990379568189383 -0.03577708825469017 -0.9993586540222168
 outer loop
  vertex 314500.0 5666500.0 3391.800048828125
  vertex 315500.0 5665500.0 3429.10009765625
  vertex 314500.0 5665500.0 3427.60009765625
 endloop
endfacet
facet normal 0.02009282261133194 -0.017194177955389023 -0.999650239944458
 outer loop
  vertex 314500.0 5666500.0 3391.800048828125
  vertex 315500.0 5666500.0 3411.89990234375
  vertex 315500.0 5665500.0 3429.10009765625
 endloop
endfacet
facet normal -0.024189535528421402 -0.017192618921399117 -0.9995595216751099
 outer loop
  vertex 315500.0 5666500.0 3411.89990234375
  vertex 316500.0 5665500.0 3404.89990234375
  vertex 315500.0 5665500.0 3429.10009765625
 endloop
endfacet
facet normal -0.006899738218635321 0.00010009527613874525 -0.9999762177467346
 outer loop
  vertex 315500.0 5666500.0 3411.89990234375
  vertex 316500.0 5666500.0 3405.0
  vertex 316500.0 5665500.0 3404.89990234375
 endloop
endfacet
facet normal -0.010099338367581367 0.00010009255493059754 -0.9999489784240723
 outer loop
  vertex 316500.0 5666500.0 3405.0
  vertex 317500.0 5665500.0 3394.800048828125
  vertex 316500.0 5665500.0 3404.89990234375
 endloop
endfacet
facet normal -0.011599306017160416 -0.0014000509399920702 -0.9999317526817322
 outer loop
  vertex 316500.0 5666500.0 3405.0
  vertex 317500.0 5666500.0 3393.39990234375
  vertex 317500.0 5665500.0 3394.800048828125
 endloop
endfacet
facet normal -0.053025346249341965 -0.0013981753727421165 -0.99859219789505
 outer loop
  vertex 317500.0 5666500.0 3393.39990234375
  vertex 318500.0 5665500.0 3341.699951171875
  vertex 317500.0 5665500.0 3394.800048828125
 endloop
endfacet
facet normal -0.1695420742034912 -0.11896315217018127 -0.9783165454864502
 outer loop
  vertex 317500.0 5666500.0 3393.39990234375
  vertex 318500.0 5666500.0 3220.10009765625
  vertex 318500.0 5665500.0 3341.699951171875
 endloop
endfacet
facet normal 0.0951620489358902 -0.12016286700963974 -0.9881827235221863
 outer loop
  vertex 318500.0 5666500.0 3220.10009765625
  vertex 319500.0 5665500.0 3438.0
  vertex 318500.0 5665500.0 3341.699951171875
 endloop
endfacet
facet normal 0.11276619881391525 -0.1025867909193039 -0.9883115291595459
 outer loop
  vertex 318500.0 5666500.0 3220.10009765625
  vertex 319500.0 5666500.0 3334.199951171875
  vertex 319500.0 5665500.0 3438.0
 endloop
endfacet
facet normal -0.017105532810091972 -0.10323023051023483 -0.9945104122161865
 outer loop
  vertex 319500.0 5666500.0 3334.199951171875
  vertex 320500.0 5665500.0 3420.800048828125
  vertex 319500.0 5665500.0 3438.0
 endloop
endfacet
facet normal 0.05349423363804817 -0.03293481841683388 -0.9980248808860779
 outer loop
  vertex 319500.0 5666500.0 3334.199951171875
  vertex 320500.0 5666500.0 3387.800048828125
  vertex 320500.0 5665500.0 3420.800048828125
 endloop
endfacet
facet normal 0.047121867537498474 -0.032945405691862106 -0.998345673084259
 outer loop
  vertex 320500.0 5666500.0 3387.800048828125
  vertex 321500.0 5665500.0 3468.0
  vertex 320500.0 5665500.0 3420.800048828125
 endloop
endfacet
facet normal 0.004387273918837309 -0.07558248937129974 -0.9971298575401306
 outer loop
  vertex 320500.0 5666500.0 3387.800048828125
  vertex 321500.0 5666500.0 3392.199951171875
  vertex 321500.0 5665500.0 3468.0
 endloop
endfacet
facet normal 0.0035897805355489254 -0.07558273524045944 -0.9971331357955933
 outer loop
  vertex 321500.0 5666500.0 3392.199951171875
  vertex 322500.0 5665500.0 3471.60009765625
  vertex 321500.0 5665500.0 3468.0
 endloop
endfacet
facet normal 0.036475200206041336 -0.0052964454516768456 -0.9993205070495605
 outer loop
  vertex 313500.0 5667500.0 3350.0
  vertex 314500.0 5667500.0 3386.5
  vertex 314500.0 5666500.0 3391.800048828125
 endloop
endfacet
facet normal 0.02009551227092743 -0.00529890414327383 -0.9997840523719788
 outer loop
  vertex 314500.0 5667500.0 3386.5
  vertex 315500.0 5666500.0 3411.89990234375
  vertex 314500.0 5666500.0 3391.800048828125
 endloop
endfacet
facet normal 0.0067987157963216305 -0.018596207723021507 -0.9998039603233337
 outer loop
  vertex 314500.0 5667500.0 3386.5
  vertex 315500.0 5667500.0 3393.300048828125
  vertex 315500.0 5666500.0 3411.89990234375
 endloop
endfacet
facet normal -0.006898545194417238 -0.018596194684505463 -0.9998033046722412
 outer loop
  vertex 315500.0 5667500.0 3393.300048828125
  vertex 316500.0 5666500.0 3405.0
  vertex 315500.0 5666500.0 3411.89990234375
 endloop
endfacet
facet normal -0.001799881923943758 -0.01349874772131443 -0.9999072551727295
 outer loop
  vertex 315500.0 5667500.0 3393.300048828125
  vertex 316500.0 5667500.0 3391.5
  vertex 316500.0 5666500.0 3405.0
 endloop
endfacet
facet normal -0.011598261073231697 -0.013497862033545971 -0.9998416304588318
 outer loop
  vertex 316500.0 5667500.0 3391.5
  vertex 317500.0 5666500.0 3393.39990234375
  vertex 316500.0 5666500.0 3405.0
 endloop
endfacet
facet normal 0.005499881226569414 0.0036000199615955353 -0.9999784231185913
 outer loop
  vertex 316500.0 5667500.0 3391.5
  vertex 317500.0 5667500.0 3397.0
  vertex 317500.0 5666500.0 3393.39990234375
 endloop
endfacet
facet normal -0.1707535833120346 0.0035472027957439423 -0.9853073954582214
 outer loop
  vertex 317500.0 5667500.0 3397.0
  vertex 318500.0 5666500.0 3220.10009765625
  vertex 317500.0 5666500.0 3393.39990234375
 endloop
endfacet
facet normal -0.05471358075737953 0.12062764167785645 -0.9911888837814331
 outer loop
  vertex 317500.0 5667500.0 3397.0
  vertex 318500.0 5667500.0 3341.800048828125
  vertex 318500.0 5666500.0 3220.10009765625
 endloop
endfacet
facet normal 0.11254457384347916 0.12004106491804123 -0.9863690733909607
 outer loop
  vertex 318500.0 5667500.0 3341.800048828125
  vertex 319500.0 5666500.0 3334.199951171875
  vertex 318500.0 5666500.0 3220.10009765625
 endloop
endfacet
facet normal 0.009597992524504662 0.017196616157889366 -0.9998061060905457
 outer loop
  vertex 318500.0 5667500.0 3341.800048828125
  vertex 319500.0 5667500.0 3351.39990234375
  vertex 319500.0 5666500.0 3334.199951171875
 endloop
endfacet
facet normal 0.05351537838578224 0.017172764986753464 -0.9984194040298462
 outer loop
  vertex 319500.0 5667500.0 3351.39990234375
  vertex 320500.0 5666500.0 3387.800048828125
  vertex 319500.0 5666500.0 3334.199951171875
 endloop
endfacet
facet normal -0.09483782947063446 -0.13075995445251465 -0.9868675470352173
 outer loop
  vertex 319500.0 5667500.0 3351.39990234375
  vertex 320500.0 5667500.0 3255.300048828125
  vertex 320500.0 5666500.0 3387.800048828125
 endloop
endfacet
facet normal 0.0043617431074380875 -0.13135074079036713 -0.9913263320922852
 outer loop
  vertex 320500.0 5667500.0 3255.300048828125
  vertex 321500.0 5666500.0 3392.199951171875
  vertex 320500.0 5666500.0 3387.800048828125
 endloop
endfacet
facet normal 0.07623843848705292 -0.06001554802060127 -0.9952818155288696
 outer loop
  vertex 320500.0 5667500.0 3255.300048828125
  vertex 321500.0 5667500.0 3331.89990234375
  vertex 321500.0 5666500.0 3392.199951171875
 endloop
endfacet
facet normal 0.03647565841674805 0.0016988174756988883 -0.9993330836296082
 outer loop
  vertex 313500.0 5668500.0 3351.699951171875
  vertex 314500.0 5667500.0 3386.5
  vertex 313500.0 5667500.0 3350.0
 endloop
endfacet
facet normal 0.034878913313150406 0.00010004065552493557 -0.9993915557861328
 outer loop
  vertex 313500.0 5668500.0 3351.699951171875
  vertex 314500.0 5668500.0 3386.60009765625
  vertex 314500.0 5667500.0 3386.5
 endloop
endfacet
facet normal 0.0067998915910720825 0.00010009534162236378 -0.9999768733978271
 outer loop
  vertex 314500.0 5668500.0 3386.60009765625
  vertex 315500.0 5667500.0 3393.300048828125
  vertex 314500.0 5667500.0 3386.5
 endloop
endfacet
facet normal 0.008599519729614258 0.0018998285522684455 -0.9999611973762512
 outer loop
  vertex 314500.0 5668500.0 3386.60009765625
  vertex 315500.0 5668500.0 3395.199951171875
  vertex 315500.0 5667500.0 3393.300048828125
 endloop
endfacet
facet normal -0.001800042693503201 0.0018998958403244615 -0.999996542930603
 outer loop
  vertex 315500.0 5668500.0 3395.199951171875
  vertex 316500.0 5667500.0 3391.5
  vertex 315500.0 5667500.0 3393.300048828125
 endloop
endfacet
facet normal 0.010098621249198914 0.013798031955957413 -0.9998538494110107
 outer loop
  vertex 315500.0 5668500.0 3395.199951171875
  vertex 316500.0 5668500.0 3405.300048828125
  vertex 316500.0 5667500.0 3391.5
 endloop
endfacet
facet normal 0.005499393213540316 0.013798526488244534 -0.9998896718025208
 outer loop
  vertex 316500.0 5668500.0 3405.300048828125
  vertex 317500.0 5667500.0 3397.0
  vertex 316500.0 5667500.0 3391.5
 endloop
endfacet
facet normal -0.02159315161406994 -0.013295771554112434 -0.9996784329414368
 outer loop
  vertex 316500.0 5668500.0 3405.300048828125
  vertex 317500.0 5668500.0 3383.699951171875
  vertex 317500.0 5667500.0 3397.0
 endloop
endfacet
facet normal -0.05511118471622467 -0.013278661295771599 -0.9983919262886047
 outer loop
  vertex 317500.0 5668500.0 3383.699951171875
  vertex 318500.0 5667500.0 3341.800048828125
  vertex 317500.0 5667500.0 3397.0
 endloop
endfacet
facet normal -0.003797266399487853 0.038071952760219574 -0.9992677569389343
 outer loop
  vertex 317500.0 5668500.0 3383.699951171875
  vertex 318500.0 5668500.0 3379.89990234375
  vertex 318500.0 5667500.0 3341.800048828125
 endloop
endfacet
facet normal 0.009592450223863125 0.03807047754526138 -0.9992290139198303
 outer loop
  vertex 318500.0 5668500.0 3379.89990234375
  vertex 319500.0 5667500.0 3351.39990234375
  vertex 318500.0 5667500.0 3341.800048828125
 endloop
endfacet
facet normal -0.0022990095894783735 0.026191137731075287 -0.9996542930603027
 outer loop
  vertex 318500.0 5668500.0 3379.89990234375
  vertex 319500.0 5668500.0 3377.60009765625
  vertex 319500.0 5667500.0 3351.39990234375
 endloop
endfacet
facet normal -0.09562663733959198 0.026071179658174515 -0.9950758218765259
 outer loop
  vertex 319500.0 5668500.0 3377.60009765625
  vertex 320500.0 5667500.0 3255.300048828125
  vertex 319500.0 5667500.0 3351.39990234375
 endloop
endfacet
facet normal -0.1311507374048233 -0.009913128800690174 -0.9913128614425659
 outer loop
  vertex 319500.0 5668500.0 3377.60009765625
  vertex 320500.0 5668500.0 3245.300048828125
  vertex 320500.0 5667500.0 3255.300048828125
 endloop
endfacet
facet normal 0.07637231796979904 -0.009970295242965221 -0.9970295429229736
 outer loop
  vertex 320500.0 5668500.0 3245.300048828125
  vertex 321500.0 5667500.0 3331.89990234375
  vertex 320500.0 5667500.0 3255.300048828125
 endloop
endfacet
facet normal -0.03057566098868847 -0.11654460430145264 -0.9927147030830383
 outer loop
  vertex 320500.0 5668500.0 3245.300048828125
  vertex 321500.0 5668500.0 3214.5
  vertex 321500.0 5667500.0 3331.89990234375
 endloop
endfacet
facet normal 0.15358829498291016 -0.11521566659212112 -0.98139488697052
 outer loop
  vertex 321500.0 5668500.0 3214.5
  vertex 322500.0 5667500.0 3488.39990234375
  vertex 321500.0 5667500.0 3331.89990234375
 endloop
endfacet
facet normal 0.045099567621946335 -0.2216985821723938 -0.974071741104126
 outer loop
  vertex 321500.0 5668500.0 3214.5
  vertex 322500.0 5668500.0 3260.800048828125
  vertex 322500.0 5667500.0 3488.39990234375
 endloop
endfacet
facet normal 0.015195868909358978 -0.017495300620794296 -0.9997314214706421
 outer loop
  vertex 312500.0 5669500.0 3319.0
  vertex 313500.0 5669500.0 3334.199951171875
  vertex 313500.0 5668500.0 3351.699951171875
 endloop
endfacet
facet normal 0.03487357869744301 -0.017486676573753357 -0.9992387294769287
 outer loop
  vertex 313500.0 5669500.0 3334.199951171875
  vertex 314500.0 5668500.0 3386.60009765625
  vertex 313500.0 5668500.0 3351.699951171875
 endloop
endfacet
facet normal 0.015387794002890587 -0.03697032108902931 -0.9991979002952576
 outer loop
  vertex 313500.0 5669500.0 3334.199951171875
  vertex 314500.0 5669500.0 3349.60009765625
  vertex 314500.0 5668500.0 3386.60009765625
 endloop
endfacet
facet normal 0.008593653328716755 -0.03697333112359047 -0.999279260635376
 outer loop
  vertex 314500.0 5669500.0 3349.60009765625
  vertex 315500.0 5668500.0 3395.199951171875
  vertex 314500.0 5668500.0 3386.60009765625
 endloop
endfacet
facet normal 0.0614754743874073 0.01596769504249096 -0.9979808926582336
 outer loop
  vertex 314500.0 5669500.0 3349.60009765625
  vertex 315500.0 5669500.0 3411.199951171875
  vertex 315500.0 5668500.0 3395.199951171875
 endloop
endfacet
facet normal 0.01009828969836235 0.015997136011719704 -0.9998210072517395
 outer loop
  vertex 315500.0 5669500.0 3411.199951171875
  vertex 316500.0 5668500.0 3405.300048828125
  vertex 315500.0 5668500.0 3395.199951171875
 endloop
endfacet
facet normal -0.015497424639761448 -0.00959850288927555 -0.9998338222503662
 outer loop
  vertex 315500.0 5669500.0 3411.199951171875
  vertex 316500.0 5669500.0 3395.699951171875
  vertex 316500.0 5668500.0 3405.300048828125
 endloop
endfacet
facet normal -0.02159406617283821 -0.00959741696715355 -0.9997207522392273
 outer loop
  vertex 316500.0 5669500.0 3395.699951171875
  vertex 317500.0 5668500.0 3383.699951171875
  vertex 316500.0 5668500.0 3405.300048828125
 endloop
endfacet
facet normal 0.0464700348675251 0.05843654274940491 -0.9972089529037476
 outer loop
  vertex 316500.0 5669500.0 3395.699951171875
  vertex 317500.0 5669500.0 3442.300048828125
  vertex 317500.0 5668500.0 3383.699951171875
 endloop
endfacet
facet normal -0.003793515497818589 0.05849931761622429 -0.9982802271842957
 outer loop
  vertex 317500.0 5669500.0 3442.300048828125
  vertex 318500.0 5668500.0 3379.89990234375
  vertex 317500.0 5668500.0 3383.699951171875
 endloop
endfacet
facet normal -0.009886047802865505 0.052425235509872437 -0.9985759258270264
 outer loop
  vertex 317500.0 5669500.0 3442.300048828125
  vertex 318500.0 5669500.0 3432.39990234375
  vertex 318500.0 5668500.0 3379.89990234375
 endloop
endfacet
facet normal -0.0022966356482356787 0.052427660673856735 -0.9986220598220825
 outer loop
  vertex 318500.0 5669500.0 3432.39990234375
  vertex 319500.0 5668500.0 3377.60009765625
  vertex 318500.0 5668500.0 3379.89990234375
 endloop
endfacet
facet normal 0.011872926726937294 0.06654738634824753 -0.9977126121520996
 outer loop
  vertex 318500.0 5669500.0 3432.39990234375
  vertex 319500.0 5669500.0 3444.300048828125
  vertex 319500.0 5668500.0 3377.60009765625
 endloop
endfacet
facet normal -0.13087138533592224 0.06597968935966492 -0.9892013669013977
 outer loop
  vertex 319500.0 5669500.0 3444.300048828125
  vertex 320500.0 5668500.0 3245.300048828125
  vertex 319500.0 5668500.0 3377.60009765625
 endloop
endfacet
facet normal -0.0612114779651165 0.13557453453540802 -0.9888744950294495
 outer loop
  vertex 319500.0 5669500.0 3444.300048828125
  vertex 320500.0 5669500.0 3382.39990234375
  vertex 320500.0 5668500.0 3245.300048828125
 endloop
endfacet
facet normal -0.03050040267407894 0.13576605916023254 -0.9902713298797607
 outer loop
  vertex 320500.0 5669500.0 3382.39990234375
  vertex 321500.0 5668500.0 3214.5
  vertex 320500.0 5668500.0 3245.300048828125
 endloop
endfacet
facet normal -0.21981292963027954 -0.056292422115802765 -0.9739165902137756
 outer loop
  vertex 320500.0 5669500.0 3382.39990234375
  vertex 321500.0 5669500.0 3156.699951171875
  vertex 321500.0 5668500.0 3214.5
 endloop
endfacet
facet normal 0.04617359861731529 -0.057642195373773575 -0.9972689747810364
 outer loop
  vertex 321500.0 5669500.0 3156.699951171875
  vertex 322500.0 5668500.0 3260.800048828125
  vertex 321500.0 5668500.0 3214.5
 endloop
endfacet
facet normal -0.0010938168270513415 -0.10462254285812378 -0.9945114254951477
 outer loop
  vertex 321500.0 5669500.0 3156.699951171875
  vertex 322500.0 5669500.0 3155.60009765625
  vertex 322500.0 5668500.0 3260.800048828125
 endloop
endfacet
facet normal -0.008588310331106186 -0.051629334688186646 -0.9986293911933899
 outer loop
  vertex 325500.0 5669500.0 3220.5
  vertex 326500.0 5669500.0 3211.89990234375
  vertex 326500.0 5668500.0 3263.60009765625
 endloop
endfacet
facet normal -0.004699349403381348 -0.015298089943826199 -0.9998719692230225
 outer loop
  vertex 311500.0 5670500.0 3308.39990234375
  vertex 312500.0 5670500.0 3303.699951171875
  vertex 312500.0 5669500.0 3319.0
 endloop
endfacet
facet normal 0.015196418389678001 -0.015296492725610733 -0.999767541885376
 outer loop
  vertex 312500.0 5670500.0 3303.699951171875
  vertex 313500.0 5669500.0 3334.199951171875
  vertex 312500.0 5669500.0 3319.0
 endloop
endfacet
facet normal 0.026590490713715553 -0.0038984937127679586 -0.9996387958526611
 outer loop
  vertex 312500.0 5670500.0 3303.699951171875
  vertex 313500.0 5670500.0 3330.300048828125
  vertex 313500.0 5669500.0 3334.199951171875
 endloop
endfacet
facet normal 0.015398203395307064 -0.003899410367012024 -0.9998738169670105
 outer loop
  vertex 313500.0 5670500.0 3330.300048828125
  vertex 314500.0 5669500.0 3349.60009765625
  vertex 313500.0 5669500.0 3334.199951171875
 endloop
endfacet
facet normal 0.09039538353681564 0.07122357189655304 -0.9933558702468872
 outer loop
  vertex 313500.0 5670500.0 3330.300048828125
  vertex 314500.0 5670500.0 3421.300048828125
  vertex 314500.0 5669500.0 3349.60009765625
 endloop
endfacet
facet normal 0.06132647395133972 0.07138174772262573 -0.995561957359314
 outer loop
  vertex 314500.0 5670500.0 3421.300048828125
  vertex 315500.0 5669500.0 3411.199951171875
  vertex 314500.0 5669500.0 3349.60009765625
 endloop
endfacet
facet normal 0.02796875312924385 0.03805758059024811 -0.9988840818405151
 outer loop
  vertex 314500.0 5670500.0 3421.300048828125
  vertex 315500.0 5670500.0 3449.300048828125
  vertex 315500.0 5669500.0 3411.199951171875
 endloop
endfacet
facet normal -0.015486904419958591 0.038067907094955444 -0.9991551637649536
 outer loop
  vertex 315500.0 5670500.0 3449.300048828125
  vertex 316500.0 5669500.0 3395.699951171875
  vertex 315500.0 5669500.0 3411.199951171875
 endloop
endfacet
facet normal 0.0085829496383667 0.06207769364118576 -0.9980344176292419
 outer loop
  vertex 315500.0 5670500.0 3449.300048828125
  vertex 316500.0 5670500.0 3457.89990234375
  vertex 316500.0 5669500.0 3395.699951171875
 endloop
endfacet
facet normal 0.046459995210170746 0.062012944370508194 -0.9969934225082397
 outer loop
  vertex 316500.0 5670500.0 3457.89990234375
  vertex 317500.0 5669500.0 3442.300048828125
  vertex 316500.0 5669500.0 3395.699951171875
 endloop
endfacet
facet normal 0.005898680537939072 0.021494658663868904 -0.9997515678405762
 outer loop
  vertex 316500.0 5670500.0 3457.89990234375
  vertex 317500.0 5670500.0 3463.800048828125
  vertex 317500.0 5669500.0 3442.300048828125
 endloop
endfacet
facet normal -0.009897374548017979 0.021493980661034584 -0.99972003698349
 outer loop
  vertex 317500.0 5670500.0 3463.800048828125
  vertex 318500.0 5669500.0 3432.39990234375
  vertex 317500.0 5669500.0 3442.300048828125
 endloop
endfacet
facet normal -0.019395101815462112 0.011996879242360592 -0.999739944934845
 outer loop
  vertex 317500.0 5670500.0 3463.800048828125
  vertex 318500.0 5670500.0 3444.39990234375
  vertex 318500.0 5669500.0 3432.39990234375
 endloop
endfacet
facet normal 0.011898446828126907 0.011998286470770836 -0.9998571872711182
 outer loop
  vertex 318500.0 5670500.0 3444.39990234375
  vertex 319500.0 5669500.0 3444.300048828125
  vertex 318500.0 5669500.0 3432.39990234375
 endloop
endfacet
facet normal -0.03694958612322807 -0.03684987127780914 -0.9986374974250793
 outer loop
  vertex 318500.0 5670500.0 3444.39990234375
  vertex 319500.0 5670500.0 3407.39990234375
  vertex 319500.0 5669500.0 3444.300048828125
 endloop
endfacet
facet normal -0.06174004077911377 -0.03680470585823059 -0.9974134564399719
 outer loop
  vertex 319500.0 5670500.0 3407.39990234375
  vertex 320500.0 5669500.0 3382.39990234375
  vertex 319500.0 5669500.0 3444.300048828125
 endloop
endfacet
facet normal -0.09473636001348495 -0.06991024315357208 -0.9930446147918701
 outer loop
  vertex 319500.0 5670500.0 3407.39990234375
  vertex 320500.0 5670500.0 3312.0
  vertex 320500.0 5669500.0 3382.39990234375
 endloop
endfacet
facet normal -0.2196447253227234 -0.06851116567850113 -0.9731712937355042
 outer loop
  vertex 320500.0 5670500.0 3312.0
  vertex 321500.0 5669500.0 3156.699951171875
  vertex 320500.0 5669500.0 3382.39990234375
 endloop
endfacet
facet normal -0.1511429399251938 0.002372560789808631 -0.9885090589523315
 outer loop
  vertex 320500.0 5670500.0 3312.0
  vertex 321500.0 5670500.0 3159.10009765625
  vertex 321500.0 5669500.0 3156.699951171875
 endloop
endfacet
facet normal -0.001099849701859057 0.00240013818256557 -0.9999964833259583
 outer loop
  vertex 321500.0 5670500.0 3159.10009765625
  vertex 322500.0 5669500.0 3155.60009765625
  vertex 321500.0 5669500.0 3156.699951171875
 endloop
endfacet
facet normal -0.01809520460665226 -0.014596151188015938 -0.9997296929359436
 outer loop
  vertex 321500.0 5670500.0 3159.10009765625
  vertex 322500.0 5670500.0 3141.0
  vertex 322500.0 5669500.0 3155.60009765625
 endloop
endfacet
facet normal 0.008698694407939911 -0.014597989618778229 -0.9998555779457092
 outer loop
  vertex 322500.0 5670500.0 3141.0
  vertex 323500.0 5669500.0 3164.300048828125
  vertex 322500.0 5669500.0 3155.60009765625
 endloop
endfacet
facet normal 0.003199288621544838 -0.020095935091376305 -0.9997929334640503
 outer loop
  vertex 322500.0 5670500.0 3141.0
  vertex 323500.0 5670500.0 3144.199951171875
  vertex 323500.0 5669500.0 3164.300048828125
 endloop
endfacet
facet normal 0.01959213614463806 -0.020092181861400604 -0.9996061325073242
 outer loop
  vertex 323500.0 5670500.0 3144.199951171875
  vertex 324500.0 5669500.0 3183.89990234375
  vertex 323500.0 5669500.0 3164.300048828125
 endloop
endfacet
facet normal 0.02339063584804535 -0.016293182969093323 -0.9995936155319214
 outer loop
  vertex 323500.0 5670500.0 3144.199951171875
  vertex 324500.0 5670500.0 3167.60009765625
  vertex 324500.0 5669500.0 3183.89990234375
 endloop
endfacet
facet normal 0.03657075762748718 -0.016286738216876984 -0.999198317527771
 outer loop
  vertex 324500.0 5670500.0 3167.60009765625
  vertex 325500.0 5669500.0 3220.5
  vertex 324500.0 5669500.0 3183.89990234375
 endloop
endfacet
facet normal -0.022132432088255882 -0.07487085461616516 -0.9969475865364075
 outer loop
  vertex 324500.0 5670500.0 3167.60009765625
  vertex 325500.0 5670500.0 3145.39990234375
  vertex 325500.0 5669500.0 3220.5
 endloop
endfacet
facet normal -0.008575627580285072 -0.07488644868135452 -0.9971551895141602
 outer loop
  vertex 325500.0 5670500.0 3145.39990234375
  vertex 326500.0 5669500.0 3211.89990234375
  vertex 325500.0 5669500.0 3220.5
 endloop
endfacet
facet normal 0.06773030757904053 0.020049896091222763 -0.9975022077560425
 outer loop
  vertex 310500.0 5671500.0 3260.60009765625
  vertex 311500.0 5671500.0 3328.5
  vertex 311500.0 5670500.0 3308.39990234375
 endloop
endfacet
facet normal -0.004698949865996838 0.020095815882086754 -0.9997869729995728
 outer loop
  vertex 311500.0 5671500.0 3328.5
  vertex 312500.0 5670500.0 3303.699951171875
  vertex 311500.0 5670500.0 3308.39990234375
 endloop
endfacet
facet normal 0.012190703302621841 0.03697195276618004 -0.9992419481277466
 outer loop
  vertex 311500.0 5671500.0 3328.5
  vertex 312500.0 5671500.0 3340.699951171875
  vertex 312500.0 5670500.0 3303.699951171875
 endloop
endfacet
facet normal 0.026572521775960922 0.036961644887924194 -0.9989632964134216
 outer loop
  vertex 312500.0 5671500.0 3340.699951171875
  vertex 313500.0 5670500.0 3330.300048828125
  vertex 312500.0 5670500.0 3303.699951171875
 endloop
endfacet
facet normal 0.05826249718666077 0.06862018257379532 -0.995940089225769
 outer loop
  vertex 312500.0 5671500.0 3340.699951171875
  vertex 313500.0 5671500.0 3399.199951171875
  vertex 313500.0 5670500.0 3330.300048828125
 endloop
endfacet
facet normal 0.09041294455528259 0.06845542043447495 -0.9935488104820251
 outer loop
  vertex 313500.0 5671500.0 3399.199951171875
  vertex 314500.0 5670500.0 3421.300048828125
  vertex 313500.0 5670500.0 3330.300048828125
 endloop
endfacet
facet normal 0.008598996326327324 -0.013498271815478802 -0.9998719692230225
 outer loop
  vertex 313500.0 5671500.0 3399.199951171875
  vertex 314500.0 5671500.0 3407.800048828125
  vertex 314500.0 5670500.0 3421.300048828125
 endloop
endfacet
facet normal 0.02798648178577423 -0.013493482954800129 -0.9995172619819641
 outer loop
  vertex 314500.0 5671500.0 3407.800048828125
  vertex 315500.0 5670500.0 3449.300048828125
  vertex 314500.0 5670500.0 3421.300048828125
 endloop
endfacet
facet normal 0.015392836183309555 -0.02608812227845192 -0.999541163444519
 outer loop
  vertex 314500.0 5671500.0 3407.800048828125
  vertex 315500.0 5671500.0 3423.199951171875
  vertex 315500.0 5670500.0 3449.300048828125
 endloop
endfacet
facet normal 0.008596610277891159 -0.02609024941921234 -0.999622642993927
 outer loop
  vertex 315500.0 5671500.0 3423.199951171875
  vertex 316500.0 5670500.0 3457.89990234375
  vertex 315500.0 5670500.0 3449.300048828125
 endloop
endfacet
facet normal 0.017994577065110207 -0.016694922000169754 -0.9996986985206604
 outer loop
  vertex 315500.0 5671500.0 3423.199951171875
  vertex 316500.0 5671500.0 3441.199951171875
  vertex 316500.0 5670500.0 3457.89990234375
 endloop
endfacet
facet normal 0.005899221170693636 -0.01669733226299286 -0.9998431205749512
 outer loop
  vertex 316500.0 5671500.0 3441.199951171875
  vertex 317500.0 5670500.0 3463.800048828125
  vertex 316500.0 5670500.0 3457.89990234375
 endloop
endfacet
facet normal 0.01189862284809351 -0.010698581114411354 -0.9998719692230225
 outer loop
  vertex 316500.0 5671500.0 3441.199951171875
  vertex 317500.0 5671500.0 3453.10009765625
  vertex 317500.0 5670500.0 3463.800048828125
 endloop
endfacet
facet normal -0.019395386800169945 -0.010697326622903347 -0.9997546672821045
 outer loop
  vertex 317500.0 5671500.0 3453.10009765625
  vertex 318500.0 5670500.0 3444.39990234375
  vertex 317500.0 5670500.0 3463.800048828125
 endloop
endfacet
facet normal -0.048206109553575516 -0.03952283784747124 -0.9980551600456238
 outer loop
  vertex 317500.0 5671500.0 3453.10009765625
  vertex 318500.0 5671500.0 3404.800048828125
  vertex 318500.0 5670500.0 3444.39990234375
 endloop
endfacet
facet normal -0.036945782601833344 -0.0395418256521225 -0.9985346794128418
 outer loop
  vertex 318500.0 5671500.0 3404.800048828125
  vertex 319500.0 5670500.0 3407.39990234375
  vertex 318500.0 5670500.0 3444.39990234375
 endloop
endfacet
facet normal 0.0038998695090413094 0.0013000378385186195 -0.9999915361404419
 outer loop
  vertex 318500.0 5671500.0 3404.800048828125
  vertex 319500.0 5671500.0 3408.699951171875
  vertex 319500.0 5670500.0 3407.39990234375
 endloop
endfacet
facet normal -0.09496863931417465 0.0012941717868670821 -0.9954794049263
 outer loop
  vertex 319500.0 5671500.0 3408.699951171875
  vertex 320500.0 5670500.0 3312.0
  vertex 319500.0 5670500.0 3407.39990234375
 endloop
endfacet
facet normal -0.11011531203985214 -0.01401295606046915 -0.993820071220398
 outer loop
  vertex 319500.0 5671500.0 3408.699951171875
  vertex 320500.0 5671500.0 3297.89990234375
  vertex 320500.0 5670500.0 3312.0
 endloop
endfacet
facet normal -0.15112869441509247 -0.01393676083534956 -0.9884158968925476
 outer loop
  vertex 320500.0 5671500.0 3297.89990234375
  vertex 321500.0 5670500.0 3159.10009765625
  vertex 320500.0 5670500.0 3312.0
 endloop
endfacet
facet normal -0.1128385066986084 0.02503107115626335 -0.9932980537414551
 outer loop
  vertex 320500.0 5671500.0 3297.89990234375
  vertex 321500.0 5671500.0 3184.300048828125
  vertex 321500.0 5670500.0 3159.10009765625
 endloop
endfacet
facet normal -0.018091389909386635 0.02518783137202263 -0.9995190501213074
 outer loop
  vertex 321500.0 5671500.0 3184.300048828125
  vertex 322500.0 5670500.0 3141.0
  vertex 321500.0 5670500.0 3159.10009765625
 endloop
endfacet
facet normal -0.05680302157998085 -0.013576886616647243 -0.9982930421829224
 outer loop
  vertex 321500.0 5671500.0 3184.300048828125
  vertex 322500.0 5671500.0 3127.39990234375
  vertex 322500.0 5670500.0 3141.0
 endloop
endfacet
facet normal 0.0031996387988328934 -0.013598769903182983 -0.9999023675918579
 outer loop
  vertex 322500.0 5671500.0 3127.39990234375
  vertex 323500.0 5670500.0 3144.199951171875
  vertex 322500.0 5670500.0 3141.0
 endloop
endfacet
facet normal 0.001399979111738503 -0.015398060902953148 -0.9998804330825806
 outer loop
  vertex 322500.0 5671500.0 3127.39990234375
  vertex 323500.0 5671500.0 3128.800048828125
  vertex 323500.0 5670500.0 3144.199951171875
 endloop
endfacet
facet normal 0.023390967398881912 -0.015393863432109356 -0.9996078610420227
 outer loop
  vertex 323500.0 5671500.0 3128.800048828125
  vertex 324500.0 5670500.0 3167.60009765625
  vertex 323500.0 5670500.0 3144.199951171875
 endloop
endfacet
facet normal -0.019463257864117622 -0.05819019302725792 -0.9981157183647156
 outer loop
  vertex 323500.0 5671500.0 3128.800048828125
  vertex 324500.0 5671500.0 3109.300048828125
  vertex 324500.0 5670500.0 3167.60009765625
 endloop
endfacet
facet normal -0.02215712144970894 -0.05818692967295647 -0.9980597496032715
 outer loop
  vertex 324500.0 5671500.0 3109.300048828125
  vertex 325500.0 5670500.0 3145.39990234375
  vertex 324500.0 5670500.0 3167.60009765625
 endloop
endfacet
facet normal 0.014795073308050632 -0.021292641758918762 -0.9996638298034668
 outer loop
  vertex 324500.0 5671500.0 3109.300048828125
  vertex 325500.0 5671500.0 3124.10009765625
  vertex 325500.0 5670500.0 3145.39990234375
 endloop
endfacet
facet normal 0.06764833629131317 -0.05310257151722908 -0.9962950348854065
 outer loop
  vertex 310500.0 5672500.0 3207.300048828125
  vertex 311500.0 5671500.0 3328.5
  vertex 310500.0 5671500.0 3260.60009765625
 endloop
endfacet
facet normal 0.09375090152025223 -0.026871290057897568 -0.9952329397201538
 outer loop
  vertex 310500.0 5672500.0 3207.300048828125
  vertex 311500.0 5672500.0 3301.5
  vertex 311500.0 5671500.0 3328.5
 endloop
endfacet
facet normal 0.012194601818919182 -0.026988158002495766 -0.9995613694190979
 outer loop
  vertex 311500.0 5672500.0 3301.5
  vertex 312500.0 5671500.0 3340.699951171875
  vertex 311500.0 5671500.0 3328.5
 endloop
endfacet
facet normal 0.08509868383407593 0.04608272761106491 -0.9953062534332275
 outer loop
  vertex 311500.0 5672500.0 3301.5
  vertex 312500.0 5672500.0 3387.0
  vertex 312500.0 5671500.0 3340.699951171875
 endloop
endfacet
facet normal 0.058337870985269547 0.046171728521585464 -0.9972285628318787
 outer loop
  vertex 312500.0 5672500.0 3387.0
  vertex 313500.0 5671500.0 3399.199951171875
  vertex 312500.0 5671500.0 3340.699951171875
 endloop
endfacet
facet normal 0.005799832288175821 -0.006399663630872965 -0.9999626874923706
 outer loop
  vertex 312500.0 5672500.0 3387.0
  vertex 313500.0 5672500.0 3392.800048828125
  vertex 313500.0 5671500.0 3399.199951171875
 endloop
endfacet
facet normal 0.008599603548645973 -0.006399534177035093 -0.9999424815177917
 outer loop
  vertex 313500.0 5672500.0 3392.800048828125
  vertex 314500.0 5671500.0 3407.800048828125
  vertex 313500.0 5671500.0 3399.199951171875
 endloop
endfacet
facet normal 0.0015997078735381365 -0.013398926705121994 -0.9999089241027832
 outer loop
  vertex 313500.0 5672500.0 3392.800048828125
  vertex 314500.0 5672500.0 3394.39990234375
  vertex 314500.0 5671500.0 3407.800048828125
 endloop
endfacet
facet normal 0.015396693721413612 -0.013397354632616043 -0.99979168176651
 outer loop
  vertex 314500.0 5672500.0 3394.39990234375
  vertex 315500.0 5671500.0 3423.199951171875
  vertex 314500.0 5671500.0 3407.800048828125
 endloop
endfacet
facet normal 0.027190104126930237 -0.0015992600237950683 -0.999629020690918
 outer loop
  vertex 314500.0 5672500.0 3394.39990234375
  vertex 315500.0 5672500.0 3421.60009765625
  vertex 315500.0 5671500.0 3423.199951171875
 endloop
endfacet
facet normal 0.01799706183373928 -0.0015995923895388842 -0.999836802482605
 outer loop
  vertex 315500.0 5672500.0 3421.60009765625
  vertex 316500.0 5671500.0 3441.199951171875
  vertex 315500.0 5671500.0 3423.199951171875
 endloop
endfacet
facet normal 9.983453492168337e-05 -0.019496293738484383 -0.9998099207878113
 outer loop
  vertex 315500.0 5672500.0 3421.60009765625
  vertex 316500.0 5672500.0 3421.699951171875
  vertex 316500.0 5671500.0 3441.199951171875
 endloop
endfacet
facet normal 0.011897042393684387 -0.019494913518428802 -0.9997391700744629
 outer loop
  vertex 316500.0 5672500.0 3421.699951171875
  vertex 317500.0 5671500.0 3453.10009765625
  vertex 316500.0 5671500.0 3441.199951171875
 endloop
endfacet
facet normal 0.026290617883205414 -0.005098268855363131 -0.9996413588523865
 outer loop
  vertex 316500.0 5672500.0 3421.699951171875
  vertex 317500.0 5672500.0 3448.0
  vertex 317500.0 5671500.0 3453.10009765625
 endloop
endfacet
facet normal -0.04824318364262581 -0.005094092804938555 -0.9988226294517517
 outer loop
  vertex 317500.0 5672500.0 3448.0
  vertex 318500.0 5671500.0 3404.800048828125
  vertex 317500.0 5671500.0 3453.10009765625
 endloop
endfacet
facet normal -0.03318001329898834 0.009993994608521461 -0.9993994235992432
 outer loop
  vertex 317500.0 5672500.0 3448.0
  vertex 318500.0 5672500.0 3414.800048828125
  vertex 318500.0 5671500.0 3404.800048828125
 endloop
endfacet
facet normal 0.0038996776565909386 0.00999942421913147 -0.9999423623085022
 outer loop
  vertex 318500.0 5672500.0 3414.800048828125
  vertex 319500.0 5671500.0 3408.699951171875
  vertex 318500.0 5671500.0 3404.800048828125
 endloop
endfacet
facet normal -0.11368061602115631 -0.10765574872493744 -0.987667441368103
 outer loop
  vertex 318500.0 5672500.0 3414.800048828125
  vertex 319500.0 5672500.0 3299.699951171875
  vertex 319500.0 5671500.0 3408.699951171875
 endloop
endfacet
facet normal -0.10948548465967178 -0.10770679265260696 -0.9881356954574585
 outer loop
  vertex 319500.0 5672500.0 3299.699951171875
  vertex 320500.0 5671500.0 3297.89990234375
  vertex 319500.0 5671500.0 3408.699951171875
 endloop
endfacet
facet normal -0.0378480926156044 -0.036050502210855484 -0.9986329674720764
 outer loop
  vertex 319500.0 5672500.0 3299.699951171875
  vertex 320500.0 5672500.0 3261.800048828125
  vertex 320500.0 5671500.0 3297.89990234375
 endloop
endfacet
facet normal -0.11280132830142975 -0.03584609553217888 -0.9929707646369934
 outer loop
  vertex 320500.0 5672500.0 3261.800048828125
  vertex 321500.0 5671500.0 3184.300048828125
  vertex 320500.0 5671500.0 3297.89990234375
 endloop
endfacet
facet normal -0.11806605756282806 -0.04117430001497269 -0.9921517968177795
 outer loop
  vertex 320500.0 5672500.0 3261.800048828125
  vertex 321500.0 5672500.0 3142.800048828125
  vertex 321500.0 5671500.0 3184.300048828125
 endloop
endfacet
facet normal -0.056759562343358994 -0.04139746353030205 -0.9975292682647705
 outer loop
  vertex 321500.0 5672500.0 3142.800048828125
  vertex 322500.0 5671500.0 3127.39990234375
  vertex 321500.0 5671500.0 3184.300048828125
 endloop
endfacet
facet normal 0.0010997031349688768 0.016497744247317314 -0.9998632669448853
 outer loop
  vertex 321500.0 5672500.0 3142.800048828125
  vertex 322500.0 5672500.0 3143.89990234375
  vertex 322500.0 5671500.0 3127.39990234375
 endloop
endfacet
facet normal 0.0013999545481055975 0.016497738659381866 -0.9998629689216614
 outer loop
  vertex 322500.0 5672500.0 3143.89990234375
  vertex 323500.0 5671500.0 3128.800048828125
  vertex 322500.0 5671500.0 3127.39990234375
 endloop
endfacet
facet normal -0.047719839960336685 -0.032645247876644135 -0.9983271360397339
 outer loop
  vertex 322500.0 5672500.0 3143.89990234375
  vertex 323500.0 5672500.0 3096.10009765625
  vertex 323500.0 5671500.0 3128.800048828125
 endloop
endfacet
facet normal -0.01948588155210018 -0.032676275819540024 -0.9992760419845581
 outer loop
  vertex 323500.0 5672500.0 3096.10009765625
  vertex 324500.0 5671500.0 3109.300048828125
  vertex 323500.0 5671500.0 3128.800048828125
 endloop
endfacet
facet normal 0.005799949634820223 -0.0006999392062425613 -0.9999829530715942
 outer loop
  vertex 312500.0 5673500.0 3386.300048828125
  vertex 313500.0 5672500.0 3392.800048828125
  vertex 312500.0 5672500.0 3387.0
 endloop
endfacet
facet normal -0.0001999466767301783 -0.006699800491333008 -0.9999775290489197
 outer loop
  vertex 312500.0 5673500.0 3386.300048828125
  vertex 313500.0 5673500.0 3386.10009765625
  vertex 313500.0 5672500.0 3392.800048828125
 endloop
endfacet
facet normal 0.0015998155577108264 -0.006699792109429836 -0.9999762773513794
 outer loop
  vertex 313500.0 5673500.0 3386.10009765625
  vertex 314500.0 5672500.0 3394.39990234375
  vertex 313500.0 5672500.0 3392.800048828125
 endloop
endfacet
facet normal 0.0038998350501060486 -0.004399826284497976 -0.9999827742576599
 outer loop
  vertex 313500.0 5673500.0 3386.10009765625
  vertex 314500.0 5673500.0 3390.0
  vertex 314500.0 5672500.0 3394.39990234375
 endloop
endfacet
facet normal 0.02718987502157688 -0.004398232791572809 -0.9996205568313599
 outer loop
  vertex 314500.0 5673500.0 3390.0
  vertex 315500.0 5672500.0 3421.60009765625
  vertex 314500.0 5672500.0 3394.39990234375
 endloop
endfacet
facet normal 0.014596433378756046 -0.016995733603835106 -0.9997490048408508
 outer loop
  vertex 314500.0 5673500.0 3390.0
  vertex 315500.0 5673500.0 3404.60009765625
  vertex 315500.0 5672500.0 3421.60009765625
 endloop
endfacet
facet normal 9.983908967114985e-05 -0.01699754409492016 -0.9998555183410645
 outer loop
  vertex 315500.0 5673500.0 3404.60009765625
  vertex 316500.0 5672500.0 3421.699951171875
  vertex 315500.0 5672500.0 3421.60009765625
 endloop
endfacet
facet normal -0.001999631291255355 -0.019096333533525467 -0.9998156428337097
 outer loop
  vertex 315500.0 5673500.0 3404.60009765625
  vertex 316500.0 5673500.0 3402.60009765625
  vertex 316500.0 5672500.0 3421.699951171875
 endloop
endfacet
facet normal 0.026286166161298752 -0.019089771434664726 -0.9994721412658691
 outer loop
  vertex 316500.0 5673500.0 3402.60009765625
  vertex 317500.0 5672500.0 3448.0
  vertex 316500.0 5672500.0 3421.699951171875
 endloop
endfacet
facet normal 0.01629074662923813 -0.029083924368023872 -0.9994442462921143
 outer loop
  vertex 316500.0 5673500.0 3402.60009765625
  vertex 317500.0 5673500.0 3418.89990234375
  vertex 317500.0 5672500.0 3448.0
 endloop
endfacet
facet normal -0.03316764533519745 -0.029071779921650887 -0.999026894569397
 outer loop
  vertex 317500.0 5673500.0 3418.89990234375
  vertex 318500.0 5672500.0 3414.800048828125
  vertex 317500.0 5672500.0 3448.0
 endloop
endfacet
facet normal -0.02728230133652687 -0.02318507619202137 -0.9993588328361511
 outer loop
  vertex 317500.0 5673500.0 3418.89990234375
  vertex 318500.0 5673500.0 3391.60009765625
  vertex 318500.0 5672500.0 3414.800048828125
 endloop
endfacet
facet normal -0.11431480944156647 -0.02304166555404663 -0.9931772947311401
 outer loop
  vertex 318500.0 5673500.0 3391.60009765625
  vertex 319500.0 5672500.0 3299.699951171875
  vertex 318500.0 5672500.0 3414.800048828125
 endloop
endfacet
facet normal -0.05497954040765762 0.036719534546136856 -0.997812032699585
 outer loop
  vertex 318500.0 5673500.0 3391.60009765625
  vertex 319500.0 5673500.0 3336.5
  vertex 319500.0 5672500.0 3299.699951171875
 endloop
endfacet
facet normal -0.0378471314907074 0.03674880415201187 -0.9986075758934021
 outer loop
  vertex 319500.0 5673500.0 3336.5
  vertex 320500.0 5672500.0 3261.800048828125
  vertex 319500.0 5672500.0 3299.699951171875
 endloop
endfacet
facet normal -0.11766292154788971 -0.043553244322538376 -0.9920980334281921
 outer loop
  vertex 319500.0 5673500.0 3336.5
  vertex 320500.0 5673500.0 3217.89990234375
  vertex 320500.0 5672500.0 3261.800048828125
 endloop
endfacet
facet normal -0.11805415153503418 -0.04355121776461601 -0.9920516610145569
 outer loop
  vertex 320500.0 5673500.0 3217.89990234375
  vertex 321500.0 5672500.0 3142.800048828125
  vertex 320500.0 5672500.0 3261.800048828125
 endloop
endfacet
facet normal -0.07280610501766205 0.002094274153932929 -0.9973439574241638
 outer loop
  vertex 320500.0 5673500.0 3217.89990234375
  vertex 321500.0 5673500.0 3144.89990234375
  vertex 321500.0 5672500.0 3142.800048828125
 endloop
endfacet
facet normal 0.001099850400350988 0.0020998476538807154 -0.9999971985816956
 outer loop
  vertex 321500.0 5673500.0 3144.89990234375
  vertex 322500.0 5672500.0 3143.89990234375
  vertex 321500.0 5672500.0 3142.800048828125
 endloop
endfacet
facet normal -0.05929394066333771 -0.05829740688204765 -0.9965368509292603
 outer loop
  vertex 321500.0 5673500.0 3144.89990234375
  vertex 322500.0 5673500.0 3085.39990234375
  vertex 322500.0 5672500.0 3143.89990234375
 endloop
endfacet
facet normal -0.047663986682891846 -0.05833377689123154 -0.9971585869789124
 outer loop
  vertex 322500.0 5673500.0 3085.39990234375
  vertex 323500.0 5672500.0 3096.10009765625
  vertex 322500.0 5672500.0 3143.89990234375
 endloop
endfacet
facet normal -0.0035994623322039843 -0.014298494905233383 -0.9998913407325745
 outer loop
  vertex 322500.0 5673500.0 3085.39990234375
  vertex 323500.0 5673500.0 3081.800048828125
  vertex 323500.0 5672500.0 3096.10009765625
 endloop
endfacet
facet normal -0.00019926956156268716 -0.08261673897504807 -0.9965813755989075
 outer loop
  vertex 312500.0 5674500.0 3303.39990234375
  vertex 313500.0 5673500.0 3386.10009765625
  vertex 312500.0 5673500.0 3386.300048828125
 endloop
endfacet
facet normal 0.06525100767612457 -0.0172605961561203 -0.9977195858955383
 outer loop
  vertex 312500.0 5674500.0 3303.39990234375
  vertex 313500.0 5674500.0 3368.800048828125
  vertex 313500.0 5673500.0 3386.10009765625
 endloop
endfacet
facet normal 0.003899289295077324 -0.017297329381108284 -0.9998427629470825
 outer loop
  vertex 313500.0 5674500.0 3368.800048828125
  vertex 314500.0 5673500.0 3390.0
  vertex 313500.0 5673500.0 3386.10009765625
 endloop
endfacet
facet normal 0.01699739322066307 -0.004199307411909103 -0.9998466968536377
 outer loop
  vertex 313500.0 5674500.0 3368.800048828125
  vertex 314500.0 5674500.0 3385.800048828125
  vertex 314500.0 5673500.0 3390.0
 endloop
endfacet
facet normal 0.014598413370549679 -0.004199466668069363 -0.9998846650123596
 outer loop
  vertex 314500.0 5674500.0 3385.800048828125
  vertex 315500.0 5673500.0 3404.60009765625
  vertex 314500.0 5673500.0 3390.0
 endloop
endfacet
facet normal -0.0035991715267300606 -0.02239438332617283 -0.9997427463531494
 outer loop
  vertex 314500.0 5674500.0 3385.800048828125
  vertex 315500.0 5674500.0 3382.199951171875
  vertex 315500.0 5673500.0 3404.60009765625
 endloop
endfacet
facet normal -0.0019994943868368864 -0.022394485771656036 -0.9997472763061523
 outer loop
  vertex 315500.0 5674500.0 3382.199951171875
  vertex 316500.0 5673500.0 3402.60009765625
  vertex 315500.0 5673500.0 3404.60009765625
 endloop
endfacet
facet normal 0.0039994302205741405 -0.016397811472415924 -0.9998576045036316
 outer loop
  vertex 315500.0 5674500.0 3382.199951171875
  vertex 316500.0 5674500.0 3386.199951171875
  vertex 316500.0 5673500.0 3402.60009765625
 endloop
endfacet
facet normal 0.016295447945594788 -0.01639576442539692 -0.9997327327728271
 outer loop
  vertex 316500.0 5674500.0 3386.199951171875
  vertex 317500.0 5673500.0 3418.89990234375
  vertex 316500.0 5673500.0 3402.60009765625
 endloop
endfacet
facet normal -0.041945621371269226 -0.07452578097581863 -0.9963365197181702
 outer loop
  vertex 316500.0 5674500.0 3386.199951171875
  vertex 317500.0 5674500.0 3344.10009765625
  vertex 317500.0 5673500.0 3418.89990234375
 endloop
endfacet
facet normal -0.027213670313358307 -0.07456380128860474 -0.9968448877334595
 outer loop
  vertex 317500.0 5674500.0 3344.10009765625
  vertex 318500.0 5673500.0 3391.60009765625
  vertex 317500.0 5673500.0 3418.89990234375
 endloop
endfacet
facet normal -0.060041703283786774 -0.10718188434839249 -0.9924248456954956
 outer loop
  vertex 317500.0 5674500.0 3344.10009765625
  vertex 318500.0 5674500.0 3283.60009765625
  vertex 318500.0 5673500.0 3391.60009765625
 endloop
endfacet
facet normal -0.05469952151179314 -0.10721484571695328 -0.9927300810813904
 outer loop
  vertex 318500.0 5674500.0 3283.60009765625
  vertex 319500.0 5673500.0 3336.5
  vertex 318500.0 5673500.0 3391.60009765625
 endloop
endfacet
facet normal 0.029878651723265648 -0.022983653470873833 -0.9992892742156982
 outer loop
  vertex 318500.0 5674500.0 3283.60009765625
  vertex 319500.0 5674500.0 3313.5
  vertex 319500.0 5673500.0 3336.5
 endloop
endfacet
facet normal -0.11774396896362305 -0.022833973169326782 -0.992781400680542
 outer loop
  vertex 319500.0 5674500.0 3313.5
  vertex 320500.0 5673500.0 3217.89990234375
  vertex 319500.0 5673500.0 3336.5
 endloop
endfacet
facet normal -0.09319256991147995 0.001991292228922248 -0.9956461191177368
 outer loop
  vertex 319500.0 5674500.0 3313.5
  vertex 320500.0 5674500.0 3219.89990234375
  vertex 320500.0 5673500.0 3217.89990234375
 endloop
endfacet
facet normal -0.07280611991882324 0.0019946882966905832 -0.9973441362380981
 outer loop
  vertex 320500.0 5674500.0 3219.89990234375
  vertex 321500.0 5673500.0 3144.89990234375
  vertex 320500.0 5673500.0 3217.89990234375
 endloop
endfacet
facet normal -0.07984308898448944 -0.005083504132926464 -0.9967945218086243
 outer loop
  vertex 320500.0 5674500.0 3219.89990234375
  vertex 321500.0 5674500.0 3139.800048828125
  vertex 321500.0 5673500.0 3144.89990234375
 endloop
endfacet
facet normal -0.05939418449997902 -0.005090783815830946 -0.9982215762138367
 outer loop
  vertex 321500.0 5674500.0 3139.800048828125
  vertex 322500.0 5673500.0 3085.39990234375
  vertex 321500.0 5673500.0 3144.89990234375
 endloop
endfacet
facet normal -0.06466094404459 -0.010377572849392891 -0.9978532791137695
 outer loop
  vertex 321500.0 5674500.0 3139.800048828125
  vertex 322500.0 5674500.0 3075.0
  vertex 322500.0 5673500.0 3085.39990234375
 endloop
endfacet
facet normal -0.0035996355582028627 -0.010399272665381432 -0.9999394416809082
 outer loop
  vertex 322500.0 5674500.0 3075.0
  vertex 323500.0 5673500.0 3081.800048828125
  vertex 322500.0 5673500.0 3085.39990234375
 endloop
endfacet
facet normal -0.006399213802069426 -0.013198530301451683 -0.9998924136161804
 outer loop
  vertex 322500.0 5674500.0 3075.0
  vertex 323500.0 5674500.0 3068.60009765625
  vertex 323500.0 5673500.0 3081.800048828125
 endloop
endfacet
facet normal 0.016996854916214943 0.008998335339128971 -0.999815046787262
 outer loop
  vertex 313500.0 5675500.0 3377.800048828125
  vertex 314500.0 5674500.0 3385.800048828125
  vertex 313500.0 5674500.0 3368.800048828125
 endloop
endfacet
facet normal -0.0006000754074193537 -0.008599778637290001 -0.9999628663063049
 outer loop
  vertex 313500.0 5675500.0 3377.800048828125
  vertex 314500.0 5675500.0 3377.199951171875
  vertex 314500.0 5674500.0 3385.800048828125
 endloop
endfacet
facet normal -0.0035999412648379803 -0.008599723689258099 -0.9999565482139587
 outer loop
  vertex 314500.0 5675500.0 3377.199951171875
  vertex 315500.0 5674500.0 3382.199951171875
  vertex 314500.0 5674500.0 3385.800048828125
 endloop
endfacet
facet normal -0.02358364686369896 -0.028580212965607643 -0.9993132948875427
 outer loop
  vertex 314500.0 5675500.0 3377.199951171875
  vertex 315500.0 5675500.0 3353.60009765625
  vertex 315500.0 5674500.0 3382.199951171875
 endloop
endfacet
facet normal 0.0039983331225812435 -0.028587935492396355 -0.9995833039283752
 outer loop
  vertex 315500.0 5675500.0 3353.60009765625
  vertex 316500.0 5674500.0 3386.199951171875
  vertex 315500.0 5674500.0 3382.199951171875
 endloop
endfacet
facet normal -0.013384792022407055 -0.04594729095697403 -0.9988541603088379
 outer loop
  vertex 315500.0 5675500.0 3353.60009765625
  vertex 316500.0 5675500.0 3340.199951171875
  vertex 316500.0 5674500.0 3386.199951171875
 endloop
endfacet
facet normal -0.042018238455057144 -0.045910827815532684 -0.99806147813797
 outer loop
  vertex 316500.0 5675500.0 3340.199951171875
  vertex 317500.0 5674500.0 3344.10009765625
  vertex 316500.0 5674500.0 3386.199951171875
 endloop
endfacet
facet normal 0.004799991380423307 0.0008998916018754244 -0.9999880790710449
 outer loop
  vertex 316500.0 5675500.0 3340.199951171875
  vertex 317500.0 5675500.0 3345.0
  vertex 317500.0 5674500.0 3344.10009765625
 endloop
endfacet
facet normal -0.06038955599069595 0.0008982595172710717 -0.9981744885444641
 outer loop
  vertex 317500.0 5675500.0 3345.0
  vertex 318500.0 5674500.0 3283.60009765625
  vertex 317500.0 5674500.0 3344.10009765625
 endloop
endfacet
facet normal 0.08119428157806396 0.14176923036575317 -0.9865642189979553
 outer loop
  vertex 317500.0 5675500.0 3345.0
  vertex 318500.0 5675500.0 3427.300048828125
  vertex 318500.0 5674500.0 3283.60009765625
 endloop
endfacet
facet normal 0.02958294190466404 0.14217661321163177 -0.9893991351127625
 outer loop
  vertex 318500.0 5675500.0 3427.300048828125
  vertex 319500.0 5674500.0 3313.5
  vertex 318500.0 5674500.0 3283.60009765625
 endloop
endfacet
facet normal -0.015324327163398266 0.09791544824838638 -0.9950767159461975
 outer loop
  vertex 318500.0 5675500.0 3427.300048828125
  vertex 319500.0 5675500.0 3411.89990234375
  vertex 319500.0 5674500.0 3313.5
 endloop
endfacet
facet normal -0.09274869412183762 0.09750484675168991 -0.9909038543701172
 outer loop
  vertex 319500.0 5675500.0 3411.89990234375
  vertex 320500.0 5674500.0 3219.89990234375
  vertex 319500.0 5674500.0 3313.5
 endloop
endfacet
facet normal -0.03931626304984093 0.15035104751586914 -0.9878506064414978
 outer loop
  vertex 319500.0 5675500.0 3411.89990234375
  vertex 320500.0 5675500.0 3372.10009765625
  vertex 320500.0 5674500.0 3219.89990234375
 endloop
endfacet
facet normal -0.07894079387187958 0.14999781548976898 -0.9855297803878784
 outer loop
  vertex 320500.0 5675500.0 3372.10009765625
  vertex 321500.0 5674500.0 3139.800048828125
  vertex 320500.0 5674500.0 3219.89990234375
 endloop
endfacet
facet normal -0.2706651985645294 -0.04730626940727234 -0.9615104794502258
 outer loop
  vertex 320500.0 5675500.0 3372.10009765625
  vertex 321500.0 5675500.0 3090.60009765625
  vertex 321500.0 5674500.0 3139.800048828125
 endloop
endfacet
facet normal -0.06458663195371628 -0.04903791472315788 -0.996706485748291
 outer loop
  vertex 321500.0 5675500.0 3090.60009765625
  vertex 322500.0 5674500.0 3075.0
  vertex 321500.0 5674500.0 3139.800048828125
 endloop
endfacet
facet normal 0.021080972626805305 0.0366671122610569 -0.9991051554679871
 outer loop
  vertex 321500.0 5675500.0 3090.60009765625
  vertex 322500.0 5675500.0 3111.699951171875
  vertex 322500.0 5674500.0 3075.0
 endloop
endfacet
facet normal -0.006395461969077587 0.036674510687589645 -0.9993067979812622
 outer loop
  vertex 322500.0 5675500.0 3111.699951171875
  vertex 323500.0 5674500.0 3068.60009765625
  vertex 322500.0 5674500.0 3075.0
 endloop
endfacet
facet normal -0.031681980937719345 0.011393437162041664 -0.9994331002235413
 outer loop
  vertex 322500.0 5675500.0 3111.699951171875
  vertex 323500.0 5675500.0 3080.0
  vertex 323500.0 5674500.0 3068.60009765625
 endloop
endfacet
facet normal -0.0006000379216857255 -0.014098693616688251 -0.9999004602432251
 outer loop
  vertex 313500.0 5676500.0 3363.699951171875
  vertex 314500.0 5675500.0 3377.199951171875
  vertex 313500.0 5675500.0 3377.800048828125
 endloop
endfacet
facet normal -0.02038395404815674 -0.03387340158224106 -0.999218225479126
 outer loop
  vertex 313500.0 5676500.0 3363.699951171875
  vertex 314500.0 5676500.0 3343.300048828125
  vertex 314500.0 5675500.0 3377.199951171875
 endloop
endfacet
facet normal -0.02357974648475647 -0.03387102112174034 -0.9991480112075806
 outer loop
  vertex 314500.0 5676500.0 3343.300048828125
  vertex 315500.0 5675500.0 3353.60009765625
  vertex 314500.0 5675500.0 3377.199951171875
 endloop
endfacet
facet normal -0.018289510160684586 -0.028583627194166183 -0.9994240999221802
 outer loop
  vertex 314500.0 5676500.0 3343.300048828125
  vertex 315500.0 5676500.0 3325.0
  vertex 315500.0 5675500.0 3353.60009765625
 endloop
endfacet
facet normal -0.013393468223512173 -0.02858584374189377 -0.999501645565033
 outer loop
  vertex 315500.0 5676500.0 3325.0
  vertex 316500.0 5675500.0 3340.199951171875
  vertex 315500.0 5675500.0 3353.60009765625
 endloop
endfacet
facet normal 0.05715574696660042 0.04199407249689102 -0.997481644153595
 outer loop
  vertex 315500.0 5676500.0 3325.0
  vertex 316500.0 5676500.0 3382.300048828125
  vertex 316500.0 5675500.0 3340.199951171875
 endloop
endfacet
facet normal 0.004795747343450785 0.04206235334277153 -0.9991034865379333
 outer loop
  vertex 316500.0 5676500.0 3382.300048828125
  vertex 317500.0 5675500.0 3345.0
  vertex 316500.0 5675500.0 3340.199951171875
 endloop
endfacet
facet normal 0.02643698826432228 0.06364834308624268 -0.9976221919059753
 outer loop
  vertex 316500.0 5676500.0 3382.300048828125
  vertex 317500.0 5676500.0 3408.800048828125
  vertex 317500.0 5675500.0 3345.0
 endloop
endfacet
facet normal 0.08185742050409317 0.06345692276954651 -0.9946218132972717
 outer loop
  vertex 317500.0 5676500.0 3408.800048828125
  vertex 318500.0 5675500.0 3427.300048828125
  vertex 317500.0 5675500.0 3345.0
 endloop
endfacet
facet normal 0.011598797515034676 -0.006899518426507711 -0.9999089241027832
 outer loop
  vertex 317500.0 5676500.0 3408.800048828125
  vertex 318500.0 5676500.0 3420.39990234375
  vertex 318500.0 5675500.0 3427.300048828125
 endloop
endfacet
facet normal -0.015397953800857067 -0.00689916405826807 -0.9998576641082764
 outer loop
  vertex 318500.0 5676500.0 3420.39990234375
  vertex 319500.0 5675500.0 3411.89990234375
  vertex 318500.0 5675500.0 3427.300048828125
 endloop
endfacet
facet normal -0.027185145765542984 -0.018689772114157677 -0.9994556903839111
 outer loop
  vertex 318500.0 5676500.0 3420.39990234375
  vertex 319500.0 5676500.0 3393.199951171875
  vertex 319500.0 5675500.0 3411.89990234375
 endloop
endfacet
facet normal -0.03976137936115265 -0.018681896850466728 -0.999034583568573
 outer loop
  vertex 319500.0 5676500.0 3393.199951171875
  vertex 320500.0 5675500.0 3372.10009765625
  vertex 319500.0 5675500.0 3411.89990234375
 endloop
endfacet
facet normal -0.04295002296566963 -0.021874692291021347 -0.9988377094268799
 outer loop
  vertex 319500.0 5676500.0 3393.199951171875
  vertex 320500.0 5676500.0 3350.199951171875
  vertex 320500.0 5675500.0 3372.10009765625
 endloop
endfacet
facet normal -0.270908385515213 -0.0210761409252882 -0.9623743891716003
 outer loop
  vertex 320500.0 5676500.0 3350.199951171875
  vertex 321500.0 5675500.0 3090.60009765625
  vertex 320500.0 5675500.0 3372.10009765625
 endloop
endfacet
facet normal -0.24891047179698944 0.002518024295568466 -0.9685232639312744
 outer loop
  vertex 320500.0 5676500.0 3350.199951171875
  vertex 321500.0 5676500.0 3093.199951171875
  vertex 321500.0 5675500.0 3090.60009765625
 endloop
endfacet
facet normal 0.021095087751746178 0.0025992663577198982 -0.9997740983963013
 outer loop
  vertex 321500.0 5676500.0 3093.199951171875
  vertex 322500.0 5675500.0 3111.699951171875
  vertex 321500.0 5675500.0 3090.60009765625
 endloop
endfacet
facet normal -0.015189575031399727 -0.03367694839835167 -0.9993173480033875
 outer loop
  vertex 321500.0 5676500.0 3093.199951171875
  vertex 322500.0 5676500.0 3078.0
  vertex 322500.0 5675500.0 3111.699951171875
 endloop
endfacet
facet normal -0.03166607767343521 -0.03366393968462944 -0.9989314079284668
 outer loop
  vertex 322500.0 5676500.0 3078.0
  vertex 323500.0 5675500.0 3080.0
  vertex 322500.0 5675500.0 3111.699951171875
 endloop
endfacet
facet normal 0.007299751974642277 0.005299833137542009 -0.9999592900276184
 outer loop
  vertex 322500.0 5676500.0 3078.0
  vertex 323500.0 5676500.0 3085.300048828125
  vertex 323500.0 5675500.0 3080.0
 endloop
endfacet
facet normal -0.02038087695837021 -0.038064319640398026 -0.9990674257278442
 outer loop
  vertex 313500.0 5677500.0 3325.60009765625
  vertex 314500.0 5676500.0 3343.300048828125
  vertex 313500.0 5676500.0 3363.699951171875
 endloop
endfacet
facet normal -0.015489606186747551 -0.0331776924431324 -0.9993294477462769
 outer loop
  vertex 313500.0 5677500.0 3325.60009765625
  vertex 314500.0 5677500.0 3310.10009765625
  vertex 314500.0 5676500.0 3343.300048828125
 endloop
endfacet
facet normal -0.018286915495991707 -0.03317612409591675 -0.99928218126297
 outer loop
  vertex 314500.0 5677500.0 3310.10009765625
  vertex 315500.0 5676500.0 3325.0
  vertex 314500.0 5676500.0 3343.300048828125
 endloop
endfacet
facet normal -0.23906931281089783 -0.2784181237220764 -0.9302307367324829
 outer loop
  vertex 320500.0 5677500.0 3050.89990234375
  vertex 321500.0 5676500.0 3093.199951171875
  vertex 320500.0 5676500.0 3350.199951171875
 endloop
endfacet
facet normal 0.0026980708353221416 -0.0395686961710453 -0.9992132186889648
 outer loop
  vertex 320500.0 5677500.0 3050.89990234375
  vertex 321500.0 5677500.0 3053.60009765625
  vertex 321500.0 5676500.0 3093.199951171875
 endloop
endfacet
facet normal -0.015186293981969357 -0.03956427425146103 -0.9991016387939453
 outer loop
  vertex 321500.0 5677500.0 3053.60009765625
  vertex 322500.0 5676500.0 3078.0
  vertex 321500.0 5676500.0 3093.199951171875
 endloop
endfacet
facet normal -0.011891473084688187 -0.036273591220378876 -0.9992711544036865
 outer loop
  vertex 321500.0 5677500.0 3053.60009765625
  vertex 322500.0 5677500.0 3041.699951171875
  vertex 322500.0 5676500.0 3078.0
 endloop
endfacet
facet normal 0.00729505205526948 -0.036275189369916916 -0.9993152022361755
 outer loop
  vertex 322500.0 5677500.0 3041.699951171875
  vertex 323500.0 5676500.0 3085.300048828125
  vertex 322500.0 5676500.0 3078.0
 endloop
endfacet
facet normal -0.001398485735990107 -0.044954463839530945 -0.9989880919456482
 outer loop
  vertex 322500.0 5677500.0 3041.699951171875
  vertex 323500.0 5677500.0 3040.300048828125
  vertex 323500.0 5676500.0 3085.300048828125
 endloop
endfacet
facet normal -0.011894269846379757 -0.029085727408528328 -0.9995061755180359
 outer loop
  vertex 321500.0 5678500.0 3024.5
  vertex 322500.0 5677500.0 3041.699951171875
  vertex 321500.0 5677500.0 3053.60009765625
 endloop
endfacet
facet normal 0.000999868381768465 -0.016197817400097847 -0.9998683333396912
 outer loop
  vertex 321500.0 5678500.0 3024.5
  vertex 322500.0 5678500.0 3025.5
  vertex 322500.0 5677500.0 3041.699951171875
 endloop
endfacet
facet normal -0.0013997172936797142 -0.01619780994951725 -0.999867856502533
 outer loop
  vertex 322500.0 5678500.0 3025.5
  vertex 323500.0 5677500.0 3040.300048828125
  vertex 322500.0 5677500.0 3041.699951171875
 endloop
endfacet
facet normal -0.01179505605250597 -0.026588842272758484 -0.9995768666267395
 outer loop
  vertex 322500.0 5678500.0 3025.5
  vertex 323500.0 5678500.0 3013.699951171875
  vertex 323500.0 5677500.0 3040.300048828125
 endloop
endfacet
facet normal -0.011798320338129997 -0.012398086488246918 -0.9998534917831421
 outer loop
  vertex 322500.0 5679500.0 3013.10009765625
  vertex 323500.0 5678500.0 3013.699951171875
  vertex 322500.0 5678500.0 3025.5
 endloop
endfacet
endsolid
