solid
facet normal -0.06972731649875641 0.18270328640937805 -0.9806923866271973
 outer loop
  vertex 431500.0 5446500.0 4945.2001953125
  vertex 432500.0 5445500.0 4687.7998046875
  vertex 431500.0 5445500.0 4758.89990234375
 endloop
endfacet
facet normal -0.44096335768699646 -0.2167799025774002 -0.8709521889686584
 outer loop
  vertex 431500.0 5446500.0 4945.2001953125
  vertex 432500.0 5446500.0 4438.89990234375
  vertex 432500.0 5445500.0 4687.7998046875
 endloop
endfacet
facet normal -0.29858332872390747 -0.23051297664642334 -0.9261272549629211
 outer loop
  vertex 432500.0 5446500.0 4438.89990234375
  vertex 433500.0 5445500.0 4365.39990234375
  vertex 432500.0 5445500.0 4687.7998046875
 endloop
endfacet
facet normal -0.04284046217799187 0.030557701364159584 -0.998614490032196
 outer loop
  vertex 432500.0 5446500.0 4438.89990234375
  vertex 433500.0 5446500.0 4396.0
  vertex 433500.0 5445500.0 4365.39990234375
 endloop
endfacet
facet normal -0.43652036786079407 -0.25710129737854004 -0.8621768355369568
 outer loop
  vertex 431500.0 5447500.0 4647.0
  vertex 432500.0 5446500.0 4438.89990234375
  vertex 431500.0 5446500.0 4945.2001953125
 endloop
endfacet
facet normal -0.21233569085597992 -0.008989555761218071 -0.9771554470062256
 outer loop
  vertex 431500.0 5447500.0 4647.0
  vertex 432500.0 5447500.0 4429.7001953125
  vertex 432500.0 5446500.0 4438.89990234375
 endloop
endfacet
facet normal -0.04285867139697075 -0.009190864861011505 -0.9990388751029968
 outer loop
  vertex 432500.0 5447500.0 4429.7001953125
  vertex 433500.0 5446500.0 4396.0
  vertex 432500.0 5446500.0 4438.89990234375
 endloop
endfacet
facet normal -0.1400737762451172 -0.10690087080001831 -0.9843533635139465
 outer loop
  vertex 432500.0 5447500.0 4429.7001953125
  vertex 433500.0 5447500.0 4287.39990234375
  vertex 433500.0 5446500.0 4396.0
 endloop
endfacet
facet normal -0.08923938125371933 0.0084657808765769 -0.9959741830825806
 outer loop
  vertex 434500.0 5447500.0 4358.2001953125
  vertex 435500.0 5447500.0 4268.60009765625
  vertex 435500.0 5446500.0 4260.10009765625
 endloop
endfacet
facet normal -0.017197029665112495 0.008498435840010643 -0.9998160004615784
 outer loop
  vertex 435500.0 5447500.0 4268.60009765625
  vertex 436500.0 5446500.0 4242.89990234375
  vertex 435500.0 5446500.0 4260.10009765625
 endloop
endfacet
facet normal -0.0764755979180336 -0.05088406056165695 -0.9957721829414368
 outer loop
  vertex 435500.0 5447500.0 4268.60009765625
  vertex 436500.0 5447500.0 4191.7998046875
  vertex 436500.0 5446500.0 4242.89990234375
 endloop
endfacet
facet normal -0.04575825482606888 -0.1944975107908249 -0.9798350930213928
 outer loop
  vertex 437500.0 5447500.0 4074.39990234375
  vertex 438500.0 5447500.0 4027.699951171875
  vertex 438500.0 5446500.0 4226.2001953125
 endloop
endfacet
facet normal -0.20936672389507294 0.16687707602977753 -0.9634924530982971
 outer loop
  vertex 431500.0 5448500.0 4820.2001953125
  vertex 432500.0 5447500.0 4429.7001953125
  vertex 431500.0 5447500.0 4647.0
 endloop
endfacet
facet normal -0.39377662539482117 -0.035088252276182175 -0.9185361862182617
 outer loop
  vertex 431500.0 5448500.0 4820.2001953125
  vertex 432500.0 5448500.0 4391.5
  vertex 432500.0 5447500.0 4429.7001953125
 endloop
endfacet
facet normal -0.14078041911125183 -0.03779219090938568 -0.9893193244934082
 outer loop
  vertex 432500.0 5448500.0 4391.5
  vertex 433500.0 5447500.0 4287.39990234375
  vertex 432500.0 5447500.0 4429.7001953125
 endloop
endfacet
facet normal -0.12400806695222855 -0.02073405496776104 -0.9920645356178284
 outer loop
  vertex 432500.0 5448500.0 4391.5
  vertex 433500.0 5448500.0 4266.5
  vertex 433500.0 5447500.0 4287.39990234375
 endloop
endfacet
facet normal 0.07060816884040833 -0.02084318734705448 -0.997286319732666
 outer loop
  vertex 433500.0 5448500.0 4266.5
  vertex 434500.0 5447500.0 4358.2001953125
  vertex 433500.0 5447500.0 4287.39990234375
 endloop
endfacet
facet normal -0.09859622269868851 -0.18820276856422424 -0.977168619632721
 outer loop
  vertex 433500.0 5448500.0 4266.5
  vertex 434500.0 5448500.0 4165.60009765625
  vertex 434500.0 5447500.0 4358.2001953125
 endloop
endfacet
facet normal -0.08764451742172241 -0.18839648365974426 -0.9781744480133057
 outer loop
  vertex 434500.0 5448500.0 4165.60009765625
  vertex 435500.0 5447500.0 4268.60009765625
  vertex 434500.0 5447500.0 4358.2001953125
 endloop
endfacet
facet normal -0.0639704018831253 -0.16533887386322021 -0.9841600060462952
 outer loop
  vertex 434500.0 5448500.0 4165.60009765625
  vertex 435500.0 5448500.0 4100.60009765625
  vertex 435500.0 5447500.0 4268.60009765625
 endloop
endfacet
facet normal -0.07552260160446167 -0.16520504653453827 -0.9833633899688721
 outer loop
  vertex 435500.0 5448500.0 4100.60009765625
  vertex 436500.0 5447500.0 4191.7998046875
  vertex 435500.0 5447500.0 4268.60009765625
 endloop
endfacet
facet normal -0.023835541680455208 -0.11441031098365784 -0.993147611618042
 outer loop
  vertex 435500.0 5448500.0 4100.60009765625
  vertex 436500.0 5448500.0 4076.60009765625
  vertex 436500.0 5447500.0 4191.7998046875
 endloop
endfacet
facet normal -0.11584336310625076 -0.11367233842611313 -0.9867416024208069
 outer loop
  vertex 436500.0 5448500.0 4076.60009765625
  vertex 437500.0 5447500.0 4074.39990234375
  vertex 436500.0 5447500.0 4191.7998046875
 endloop
endfacet
facet normal -0.032966431230306625 -0.03076847270131111 -0.9989827275276184
 outer loop
  vertex 436500.0 5448500.0 4076.60009765625
  vertex 437500.0 5448500.0 4043.60009765625
  vertex 437500.0 5447500.0 4074.39990234375
 endloop
endfacet
facet normal -0.04662704840302467 -0.030751721933484077 -0.9984388947486877
 outer loop
  vertex 437500.0 5448500.0 4043.60009765625
  vertex 438500.0 5447500.0 4027.699951171875
  vertex 437500.0 5447500.0 4074.39990234375
 endloop
endfacet
facet normal -0.02429202012717724 -0.008397127501666546 -0.99966961145401
 outer loop
  vertex 437500.0 5448500.0 4043.60009765625
  vertex 438500.0 5448500.0 4019.300048828125
  vertex 438500.0 5447500.0 4027.699951171875
 endloop
endfacet
facet normal -0.00949923601001501 -0.00839922670274973 -0.999919593334198
 outer loop
  vertex 438500.0 5448500.0 4019.300048828125
  vertex 439500.0 5447500.0 4018.199951171875
  vertex 438500.0 5447500.0 4027.699951171875
 endloop
endfacet
facet normal -0.0341612808406353 -0.03306242823600769 -0.9988692998886108
 outer loop
  vertex 438500.0 5448500.0 4019.300048828125
  vertex 439500.0 5448500.0 3985.10009765625
  vertex 439500.0 5447500.0 4018.199951171875
 endloop
endfacet
facet normal -0.22963029146194458 -0.1762191504240036 -0.9571921229362488
 outer loop
  vertex 430500.0 5449500.0 4876.0
  vertex 431500.0 5449500.0 4636.10009765625
  vertex 431500.0 5448500.0 4820.2001953125
 endloop
endfacet
facet normal -0.3884970247745514 -0.16683532297611237 -0.9062207341194153
 outer loop
  vertex 431500.0 5449500.0 4636.10009765625
  vertex 432500.0 5448500.0 4391.5
  vertex 431500.0 5448500.0 4820.2001953125
 endloop
endfacet
facet normal -0.2721199691295624 -0.0369236096739769 -0.9615546464920044
 outer loop
  vertex 431500.0 5449500.0 4636.10009765625
  vertex 432500.0 5449500.0 4353.10009765625
  vertex 432500.0 5448500.0 4391.5
 endloop
endfacet
facet normal -0.12394479662179947 -0.03807574510574341 -0.9915583729743958
 outer loop
  vertex 432500.0 5449500.0 4353.10009765625
  vertex 433500.0 5448500.0 4266.5
  vertex 432500.0 5448500.0 4391.5
 endloop
endfacet
facet normal -0.23728600144386292 -0.1542261838912964 -0.9591192007064819
 outer loop
  vertex 432500.0 5449500.0 4353.10009765625
  vertex 433500.0 5449500.0 4105.7001953125
  vertex 433500.0 5448500.0 4266.5
 endloop
endfacet
facet normal -0.09912952780723572 -0.15797843039035797 -0.9824541211128235
 outer loop
  vertex 433500.0 5449500.0 4105.7001953125
  vertex 434500.0 5448500.0 4165.60009765625
  vertex 433500.0 5448500.0 4266.5
 endloop
endfacet
facet normal 0.007189544383436441 -0.052625805139541626 -0.9985884428024292
 outer loop
  vertex 433500.0 5449500.0 4105.7001953125
  vertex 434500.0 5449500.0 4112.89990234375
  vertex 434500.0 5448500.0 4165.60009765625
 endloop
endfacet
facet normal -0.06477361172437668 -0.052516646683216095 -0.9965171217918396
 outer loop
  vertex 434500.0 5449500.0 4112.89990234375
  vertex 435500.0 5448500.0 4100.60009765625
  vertex 434500.0 5448500.0 4165.60009765625
 endloop
endfacet
facet normal -0.05119362100958824 -0.038919273763895035 -0.997930109500885
 outer loop
  vertex 434500.0 5449500.0 4112.89990234375
  vertex 435500.0 5449500.0 4061.60009765625
  vertex 435500.0 5448500.0 4100.60009765625
 endloop
endfacet
facet normal -0.02397487498819828 -0.03895917162299156 -0.9989531636238098
 outer loop
  vertex 435500.0 5449500.0 4061.60009765625
  vertex 436500.0 5448500.0 4076.60009765625
  vertex 435500.0 5448500.0 4100.60009765625
 endloop
endfacet
facet normal -0.03712400794029236 -0.05209328606724739 -0.9979519248008728
 outer loop
  vertex 435500.0 5449500.0 4061.60009765625
  vertex 436500.0 5449500.0 4024.39990234375
  vertex 436500.0 5448500.0 4076.60009765625
 endloop
endfacet
facet normal -0.03293725103139877 -0.05210093781352043 -0.9980984926223755
 outer loop
  vertex 436500.0 5449500.0 4024.39990234375
  vertex 437500.0 5448500.0 4043.60009765625
  vertex 436500.0 5448500.0 4076.60009765625
 endloop
endfacet
facet normal -0.022474784404039383 -0.04165346175432205 -0.9988793134689331
 outer loop
  vertex 436500.0 5449500.0 4024.39990234375
  vertex 437500.0 5449500.0 4001.89990234375
  vertex 437500.0 5448500.0 4043.60009765625
 endloop
endfacet
facet normal -0.02427179552614689 -0.041651710867881775 -0.9988373517990112
 outer loop
  vertex 437500.0 5449500.0 4001.89990234375
  vertex 438500.0 5448500.0 4019.300048828125
  vertex 437500.0 5448500.0 4043.60009765625
 endloop
endfacet
facet normal -0.022177109494805336 -0.03955935314297676 -0.9989711046218872
 outer loop
  vertex 437500.0 5449500.0 4001.89990234375
  vertex 438500.0 5449500.0 3979.699951171875
  vertex 438500.0 5448500.0 4019.300048828125
 endloop
endfacet
facet normal -0.034153230488300323 -0.039545997977256775 -0.998633861541748
 outer loop
  vertex 438500.0 5449500.0 3979.699951171875
  vertex 439500.0 5448500.0 3985.10009765625
  vertex 438500.0 5448500.0 4019.300048828125
 endloop
endfacet
facet normal -0.2478257268667221 -0.4143857955932617 -0.8757092952728271
 outer loop
  vertex 431500.0 5450500.0 4162.89990234375
  vertex 432500.0 5449500.0 4353.10009765625
  vertex 431500.0 5449500.0 4636.10009765625
 endloop
endfacet
facet normal -0.029770072549581528 -0.21541838347911835 -0.9760679602622986
 outer loop
  vertex 431500.0 5450500.0 4162.89990234375
  vertex 432500.0 5450500.0 4132.39990234375
  vertex 432500.0 5449500.0 4353.10009765625
 endloop
endfacet
facet normal -0.23483052849769592 -0.20948731899261475 -0.9491941332817078
 outer loop
  vertex 432500.0 5450500.0 4132.39990234375
  vertex 433500.0 5449500.0 4105.7001953125
  vertex 432500.0 5449500.0 4353.10009765625
 endloop
endfacet
facet normal 0.12729184329509735 0.15345549583435059 -0.9799225330352783
 outer loop
  vertex 432500.0 5450500.0 4132.39990234375
  vertex 433500.0 5450500.0 4262.2998046875
  vertex 433500.0 5449500.0 4105.7001953125
 endloop
endfacet
facet normal 0.007112833671271801 0.15471012890338898 -0.9879342913627625
 outer loop
  vertex 433500.0 5450500.0 4262.2998046875
  vertex 434500.0 5449500.0 4112.89990234375
  vertex 433500.0 5449500.0 4105.7001953125
 endloop
endfacet
facet normal -0.06562985479831696 0.08293218165636063 -0.9943917393684387
 outer loop
  vertex 433500.0 5450500.0 4262.2998046875
  vertex 434500.0 5450500.0 4196.2998046875
  vertex 434500.0 5449500.0 4112.89990234375
 endloop
endfacet
facet normal -0.05105563998222351 0.083002969622612 -0.9952405691146851
 outer loop
  vertex 434500.0 5450500.0 4196.2998046875
  vertex 435500.0 5449500.0 4061.60009765625
  vertex 434500.0 5449500.0 4112.89990234375
 endloop
endfacet
facet normal -0.12109223008155823 0.012605473399162292 -0.9925612211227417
 outer loop
  vertex 434500.0 5450500.0 4196.2998046875
  vertex 435500.0 5450500.0 4074.300048828125
  vertex 435500.0 5449500.0 4061.60009765625
 endloop
endfacet
facet normal -0.037171490490436554 0.012690151110291481 -0.9992283582687378
 outer loop
  vertex 435500.0 5450500.0 4074.300048828125
  vertex 436500.0 5449500.0 4024.39990234375
  vertex 435500.0 5449500.0 4061.60009765625
 endloop
endfacet
facet normal -0.040165625512599945 0.00969191174954176 -0.999146044254303
 outer loop
  vertex 435500.0 5450500.0 4074.300048828125
  vertex 436500.0 5450500.0 4034.10009765625
  vertex 436500.0 5449500.0 4024.39990234375
 endloop
endfacet
facet normal -0.02249324880540371 0.009697284549474716 -0.9996999502182007
 outer loop
  vertex 436500.0 5450500.0 4034.10009765625
  vertex 437500.0 5449500.0 4001.89990234375
  vertex 436500.0 5449500.0 4024.39990234375
 endloop
endfacet
facet normal -0.0319836288690567 0.00020009289437439293 -0.9994884133338928
 outer loop
  vertex 436500.0 5450500.0 4034.10009765625
  vertex 437500.0 5450500.0 4002.10009765625
  vertex 437500.0 5449500.0 4001.89990234375
 endloop
endfacet
facet normal -0.022194482386112213 0.00020014599431306124 -0.9997535943984985
 outer loop
  vertex 437500.0 5450500.0 4002.10009765625
  vertex 438500.0 5449500.0 3979.699951171875
  vertex 437500.0 5449500.0 4001.89990234375
 endloop
endfacet
facet normal -0.02960880845785141 0.23813289403915405 -0.970781147480011
 outer loop
  vertex 431500.0 5451500.0 4408.2001953125
  vertex 432500.0 5450500.0 4132.39990234375
  vertex 431500.0 5450500.0 4162.89990234375
 endloop
endfacet
facet normal 0.03961915522813797 0.30228927731513977 -0.9523925185203552
 outer loop
  vertex 431500.0 5451500.0 4408.2001953125
  vertex 432500.0 5451500.0 4449.7998046875
  vertex 432500.0 5450500.0 4132.39990234375
 endloop
endfacet
facet normal 0.1228746697306633 0.300234317779541 -0.945918083190918
 outer loop
  vertex 432500.0 5451500.0 4449.7998046875
  vertex 433500.0 5450500.0 4262.2998046875
  vertex 432500.0 5450500.0 4132.39990234375
 endloop
endfacet
facet normal 0.2145565152168274 0.38302090764045715 -0.8984767198562622
 outer loop
  vertex 432500.0 5451500.0 4449.7998046875
  vertex 433500.0 5451500.0 4688.60009765625
  vertex 433500.0 5450500.0 4262.2998046875
 endloop
endfacet
facet normal -0.060601796954870224 0.3914327621459961 -0.9182090163230896
 outer loop
  vertex 433500.0 5451500.0 4688.60009765625
  vertex 434500.0 5450500.0 4196.2998046875
  vertex 433500.0 5450500.0 4262.2998046875
 endloop
endfacet
facet normal -0.14300571382045746 0.31834232807159424 -0.9371272921562195
 outer loop
  vertex 433500.0 5451500.0 4688.60009765625
  vertex 434500.0 5451500.0 4536.0
  vertex 434500.0 5450500.0 4196.2998046875
 endloop
endfacet
facet normal -0.11475348472595215 0.3195234537124634 -0.9406042695045471
 outer loop
  vertex 434500.0 5451500.0 4536.0
  vertex 435500.0 5450500.0 4074.300048828125
  vertex 434500.0 5450500.0 4196.2998046875
 endloop
endfacet
facet normal -0.2219688594341278 0.2169305384159088 -0.9506160616874695
 outer loop
  vertex 434500.0 5451500.0 4536.0
  vertex 435500.0 5451500.0 4302.5
  vertex 435500.0 5450500.0 4074.300048828125
 endloop
endfacet
facet normal -0.03916236013174057 0.2223099321126938 -0.9741892218589783
 outer loop
  vertex 435500.0 5451500.0 4302.5
  vertex 436500.0 5450500.0 4034.10009765625
  vertex 435500.0 5450500.0 4074.300048828125
 endloop
endfacet
facet normal -0.08667430281639099 0.1764863282442093 -0.9804795980453491
 outer loop
  vertex 435500.0 5451500.0 4302.5
  vertex 436500.0 5451500.0 4214.10009765625
  vertex 436500.0 5450500.0 4034.10009765625
 endloop
endfacet
facet normal -0.03147825971245766 0.17706520855426788 -0.9836956262588501
 outer loop
  vertex 436500.0 5451500.0 4214.10009765625
  vertex 437500.0 5450500.0 4002.10009765625
  vertex 436500.0 5450500.0 4034.10009765625
 endloop
endfacet
facet normal -0.1836629956960678 0.024665124714374542 -0.9826797842979431
 outer loop
  vertex 436500.0 5451500.0 4214.10009765625
  vertex 437500.0 5451500.0 4027.199951171875
  vertex 437500.0 5450500.0 4002.10009765625
 endloop
endfacet
facet normal 0.2028283029794693 0.48728013038635254 -0.8493637442588806
 outer loop
  vertex 432500.0 5452500.0 5023.5
  vertex 433500.0 5451500.0 4688.60009765625
  vertex 432500.0 5451500.0 4449.7998046875
 endloop
endfacet
facet normal -0.20227915048599243 0.12309648096561432 -0.9715608358383179
 outer loop
  vertex 432500.0 5452500.0 5023.5
  vertex 433500.0 5452500.0 4815.2998046875
  vertex 433500.0 5451500.0 4688.60009765625
 endloop
endfacet
facet normal -0.14968425035476685 0.12427874654531479 -0.9808921813964844
 outer loop
  vertex 433500.0 5452500.0 4815.2998046875
  vertex 434500.0 5451500.0 4536.0
  vertex 433500.0 5451500.0 4688.60009765625
 endloop
endfacet
facet normal -0.1544680893421173 0.11945513635873795 -0.980749785900116
 outer loop
  vertex 433500.0 5452500.0 4815.2998046875
  vertex 434500.0 5452500.0 4657.7998046875
  vertex 434500.0 5451500.0 4536.0
 endloop
endfacet
facet normal -0.2258007675409317 0.11778368055820465 -0.9670268893241882
 outer loop
  vertex 434500.0 5452500.0 4657.7998046875
  vertex 435500.0 5451500.0 4302.5
  vertex 434500.0 5451500.0 4536.0
 endloop
endfacet
facet normal -0.35293442010879517 -0.020579276606440544 -0.9354216456413269
 outer loop
  vertex 434500.0 5452500.0 4657.7998046875
  vertex 435500.0 5452500.0 4280.5
  vertex 435500.0 5451500.0 4302.5
 endloop
endfacet
facet normal -0.08803538233041763 -0.021909279748797417 -0.9958763718605042
 outer loop
  vertex 435500.0 5452500.0 4280.5
  vertex 436500.0 5451500.0 4214.10009765625
  vertex 435500.0 5451500.0 4302.5
 endloop
endfacet
facet normal -0.12663105130195618 -0.06088987737894058 -0.9900792837142944
 outer loop
  vertex 435500.0 5452500.0 4280.5
  vertex 436500.0 5452500.0 4152.60009765625
  vertex 436500.0 5451500.0 4214.10009765625
 endloop
endfacet
facet normal -0.18338410556316376 -0.06034303456544876 -0.9811875820159912
 outer loop
  vertex 436500.0 5452500.0 4152.60009765625
  vertex 437500.0 5451500.0 4027.199951171875
  vertex 436500.0 5451500.0 4214.10009765625
 endloop
endfacet
facet normal -0.02436899021267891 0.10036060214042664 -0.9946526885032654
 outer loop
  vertex 436500.0 5452500.0 4152.60009765625
  vertex 437500.0 5452500.0 4128.10009765625
  vertex 437500.0 5451500.0 4027.199951171875
 endloop
endfacet
facet normal -0.8962067365646362 -0.2174685001373291 -0.38667941093444824
 outer loop
  vertex 422500.0 5457500.0 7381.7998046875
  vertex 423500.0 5457500.0 5064.10009765625
  vertex 423500.0 5456500.0 5626.5
 endloop
endfacet
facet normal -0.6671510934829712 -0.5315706133842468 -0.5218641757965088
 outer loop
  vertex 421500.0 5458500.0 7641.60009765625
  vertex 422500.0 5458500.0 6363.2001953125
  vertex 422500.0 5457500.0 7381.7998046875
 endloop
endfacet
facet normal -0.8514698147773743 -0.3742101788520813 -0.3673771023750305
 outer loop
  vertex 422500.0 5458500.0 6363.2001953125
  vertex 423500.0 5457500.0 5064.10009765625
  vertex 422500.0 5457500.0 7381.7998046875
 endloop
endfacet
facet normal -0.12385479360818863 0.7379536032676697 -0.6633886694908142
 outer loop
  vertex 422500.0 5458500.0 6363.2001953125
  vertex 423500.0 5458500.0 6176.5
  vertex 423500.0 5457500.0 5064.10009765625
 endloop
endfacet
facet normal 0.5806086659431458 0.13481459021568298 -0.8029436469078064
 outer loop
  vertex 417500.0 5459500.0 6862.60009765625
  vertex 418500.0 5459500.0 7585.7001953125
  vertex 418500.0 5458500.0 7417.7998046875
 endloop
endfacet
facet normal 0.584218442440033 0.07699612528085709 -0.8079357743263245
 outer loop
  vertex 417500.0 5460500.0 6957.89990234375
  vertex 418500.0 5459500.0 7585.7001953125
  vertex 417500.0 5459500.0 6862.60009765625
 endloop
endfacet
facet normal 0.3859187066555023 -0.1818801611661911 -0.9044259190559387
 outer loop
  vertex 417500.0 5460500.0 6957.89990234375
  vertex 418500.0 5460500.0 7384.60009765625
  vertex 418500.0 5459500.0 7585.7001953125
 endloop
endfacet
facet normal -0.5004399418830872 -0.1706894487142563 -0.8487785458564758
 outer loop
  vertex 418500.0 5460500.0 7384.60009765625
  vertex 419500.0 5459500.0 6996.10009765625
  vertex 418500.0 5459500.0 7585.7001953125
 endloop
endfacet
facet normal -0.46269550919532776 -0.12153542041778564 -0.8781468868255615
 outer loop
  vertex 418500.0 5460500.0 7384.60009765625
  vertex 419500.0 5460500.0 6857.7001953125
  vertex 419500.0 5459500.0 6996.10009765625
 endloop
endfacet
facet normal 0.5822540521621704 -0.11145768314599991 -0.8053306341171265
 outer loop
  vertex 419500.0 5460500.0 6857.7001953125
  vertex 420500.0 5459500.0 7719.10009765625
  vertex 419500.0 5459500.0 6996.10009765625
 endloop
endfacet
facet normal 0.09737636148929596 -0.5918610692024231 -0.8001364469528198
 outer loop
  vertex 419500.0 5460500.0 6857.7001953125
  vertex 420500.0 5460500.0 6979.39990234375
  vertex 420500.0 5459500.0 7719.10009765625
 endloop
endfacet
facet normal 0.3818289339542389 0.23122690618038177 -0.8948412537574768
 outer loop
  vertex 417500.0 5461500.0 7216.2998046875
  vertex 418500.0 5460500.0 7384.60009765625
  vertex 417500.0 5460500.0 6957.89990234375
 endloop
endfacet
facet normal 0.18312038481235504 0.01769276335835457 -0.9829312562942505
 outer loop
  vertex 417500.0 5461500.0 7216.2998046875
  vertex 418500.0 5461500.0 7402.60009765625
  vertex 418500.0 5460500.0 7384.60009765625
 endloop
endfacet
facet normal -0.46609196066856384 0.015922674909234047 -0.8845930099487305
 outer loop
  vertex 418500.0 5461500.0 7402.60009765625
  vertex 419500.0 5460500.0 6857.7001953125
  vertex 418500.0 5460500.0 7384.60009765625
 endloop
endfacet
facet normal -0.699126124382019 -0.3636910319328308 -0.6155903935432434
 outer loop
  vertex 418500.0 5461500.0 7402.60009765625
  vertex 419500.0 5461500.0 6266.89990234375
  vertex 419500.0 5460500.0 6857.7001953125
 endloop
endfacet
facet normal 0.10420899838209152 -0.505890429019928 -0.8562799692153931
 outer loop
  vertex 419500.0 5461500.0 6266.89990234375
  vertex 420500.0 5460500.0 6979.39990234375
  vertex 419500.0 5460500.0 6857.7001953125
 endloop
endfacet
facet normal 0.4844783544540405 -0.13171355426311493 -0.864830732345581
 outer loop
  vertex 419500.0 5461500.0 6266.89990234375
  vertex 420500.0 5461500.0 6827.10009765625
  vertex 420500.0 5460500.0 6979.39990234375
 endloop
endfacet
facet normal -0.641551673412323 -0.11549432575702667 -0.758335292339325
 outer loop
  vertex 420500.0 5461500.0 6827.10009765625
  vertex 421500.0 5460500.0 6133.39990234375
  vertex 420500.0 5460500.0 6979.39990234375
 endloop
endfacet
facet normal -0.5964292287826538 -0.04032295569777489 -0.801652193069458
 outer loop
  vertex 420500.0 5461500.0 6827.10009765625
  vertex 421500.0 5461500.0 6083.10009765625
  vertex 421500.0 5460500.0 6133.39990234375
 endloop
endfacet
facet normal -0.5764681696891785 -0.2594881057739258 -0.7748228311538696
 outer loop
  vertex 420500.0 5462500.0 6492.2001953125
  vertex 421500.0 5461500.0 6083.10009765625
  vertex 420500.0 5461500.0 6827.10009765625
 endloop
endfacet
endsolid
