solid
facet normal -0.4961194396018982 -0.001649595214985311 -0.8682526350021362
 outer loop
  vertex 459500.0 5422500.0 5673.0
  vertex 460500.0 5421500.0 5103.5
  vertex 459500.0 5421500.0 5674.89990234375
 endloop
endfacet
facet normal -0.6187101006507874 -0.18370342254638672 -0.763839602470398
 outer loop
  vertex 459500.0 5422500.0 5673.0
  vertex 460500.0 5422500.0 4863.0
  vertex 460500.0 5421500.0 5103.5
 endloop
endfacet
facet normal 0.2288569211959839 -0.22762668132781982 -0.946472704410553
 outer loop
  vertex 460500.0 5422500.0 4863.0
  vertex 461500.0 5421500.0 5345.2998046875
  vertex 460500.0 5421500.0 5103.5
 endloop
endfacet
facet normal 0.33172833919525146 -0.11959046870470047 -0.9357640147209167
 outer loop
  vertex 460500.0 5422500.0 4863.0
  vertex 461500.0 5422500.0 5217.5
  vertex 461500.0 5421500.0 5345.2998046875
 endloop
endfacet
facet normal -0.14630526304244995 -0.12540465593338013 -0.9812585711479187
 outer loop
  vertex 461500.0 5422500.0 5217.5
  vertex 462500.0 5421500.0 5196.2001953125
  vertex 461500.0 5421500.0 5345.2998046875
 endloop
endfacet
facet normal -0.07704867422580719 -0.05584552511572838 -0.9954621195793152
 outer loop
  vertex 461500.0 5422500.0 5217.5
  vertex 462500.0 5422500.0 5140.10009765625
  vertex 462500.0 5421500.0 5196.2001953125
 endloop
endfacet
facet normal -0.1835348904132843 -0.05506056174635887 -0.981469988822937
 outer loop
  vertex 462500.0 5422500.0 5140.10009765625
  vertex 463500.0 5421500.0 5009.2001953125
  vertex 462500.0 5421500.0 5196.2001953125
 endloop
endfacet
facet normal -0.32058200240135193 -0.1993684470653534 -0.926001787185669
 outer loop
  vertex 462500.0 5422500.0 5140.10009765625
  vertex 463500.0 5422500.0 4793.89990234375
  vertex 463500.0 5421500.0 5009.2001953125
 endloop
endfacet
facet normal -0.5544471144676208 -0.47333353757858276 -0.6845026016235352
 outer loop
  vertex 459500.0 5423500.0 4981.5
  vertex 460500.0 5422500.0 4863.0
  vertex 459500.0 5422500.0 5673.0
 endloop
endfacet
facet normal 0.19093261659145355 0.30162501335144043 -0.9341130256652832
 outer loop
  vertex 459500.0 5423500.0 4981.5
  vertex 460500.0 5423500.0 5185.89990234375
  vertex 460500.0 5422500.0 4863.0
 endloop
endfacet
facet normal 0.3196503818035126 0.2911567986011505 -0.9016936421394348
 outer loop
  vertex 460500.0 5423500.0 5185.89990234375
  vertex 461500.0 5422500.0 5217.5
  vertex 460500.0 5422500.0 4863.0
 endloop
endfacet
facet normal -0.33213010430336 -0.35968416929244995 -0.8719615936279297
 outer loop
  vertex 460500.0 5423500.0 5185.89990234375
  vertex 461500.0 5423500.0 4805.0
  vertex 461500.0 5422500.0 5217.5
 endloop
endfacet
facet normal -0.0713689997792244 -0.3803585171699524 -0.9220812320709229
 outer loop
  vertex 461500.0 5423500.0 4805.0
  vertex 462500.0 5422500.0 5140.10009765625
  vertex 461500.0 5422500.0 5217.5
 endloop
endfacet
facet normal 0.30021658539772034 -0.019359862431883812 -0.9536746144294739
 outer loop
  vertex 461500.0 5423500.0 4805.0
  vertex 462500.0 5423500.0 5119.7998046875
  vertex 462500.0 5422500.0 5140.10009765625
 endloop
endfacet
facet normal -0.32708948850631714 -0.01917969062924385 -0.9447987079620361
 outer loop
  vertex 462500.0 5423500.0 5119.7998046875
  vertex 463500.0 5422500.0 4793.89990234375
  vertex 462500.0 5422500.0 5140.10009765625
 endloop
endfacet
facet normal 0.1414620280265808 0.43177923560142517 -0.8908171057701111
 outer loop
  vertex 462500.0 5423500.0 5119.7998046875
  vertex 463500.0 5423500.0 5278.60009765625
  vertex 463500.0 5422500.0 4793.89990234375
 endloop
endfacet
facet normal -0.03974239528179169 0.4358208477497101 -0.8991555571556091
 outer loop
  vertex 463500.0 5423500.0 5278.60009765625
  vertex 464500.0 5422500.0 4749.7001953125
  vertex 463500.0 5422500.0 4793.89990234375
 endloop
endfacet
facet normal 0.012798722833395004 0.0022996102925390005 -0.9999154210090637
 outer loop
  vertex 453500.0 5424500.0 3784.10009765625
  vertex 454500.0 5424500.0 3796.89990234375
  vertex 454500.0 5423500.0 3794.60009765625
 endloop
endfacet
facet normal 0.025091882795095444 0.002299074549227953 -0.9996824860572815
 outer loop
  vertex 454500.0 5424500.0 3796.89990234375
  vertex 455500.0 5423500.0 3819.699951171875
  vertex 454500.0 5423500.0 3794.60009765625
 endloop
endfacet
facet normal -0.0014995556557551026 -0.024292850866913795 -0.9997037649154663
 outer loop
  vertex 454500.0 5424500.0 3796.89990234375
  vertex 455500.0 5424500.0 3795.39990234375
  vertex 455500.0 5423500.0 3819.699951171875
 endloop
endfacet
facet normal -0.02378629334270954 -0.024286003783345222 -0.999422013759613
 outer loop
  vertex 455500.0 5424500.0 3795.39990234375
  vertex 456500.0 5423500.0 3795.89990234375
  vertex 455500.0 5423500.0 3819.699951171875
 endloop
endfacet
facet normal 0.02817818894982338 0.027678579092025757 -0.9992195963859558
 outer loop
  vertex 455500.0 5424500.0 3795.39990234375
  vertex 456500.0 5424500.0 3823.60009765625
  vertex 456500.0 5423500.0 3795.89990234375
 endloop
endfacet
facet normal 0.009696019813418388 0.027688272297382355 -0.9995695352554321
 outer loop
  vertex 456500.0 5424500.0 3823.60009765625
  vertex 457500.0 5423500.0 3805.60009765625
  vertex 456500.0 5423500.0 3795.89990234375
 endloop
endfacet
facet normal -0.03148151934146881 -0.013492079451680183 -0.9994133114814758
 outer loop
  vertex 456500.0 5424500.0 3823.60009765625
  vertex 457500.0 5424500.0 3792.10009765625
  vertex 457500.0 5423500.0 3805.60009765625
 endloop
endfacet
facet normal 0.06847786903381348 -0.7287271618843079 -0.681371808052063
 outer loop
  vertex 458500.0 5424500.0 3811.5
  vertex 459500.0 5424500.0 3912.0
  vertex 459500.0 5423500.0 4981.5
 endloop
endfacet
facet normal 0.13825929164886475 -0.7234266400337219 -0.676415741443634
 outer loop
  vertex 459500.0 5424500.0 3912.0
  vertex 460500.0 5423500.0 5185.89990234375
  vertex 459500.0 5423500.0 4981.5
 endloop
endfacet
facet normal 0.4464554488658905 -0.4993947446346283 -0.742483913898468
 outer loop
  vertex 459500.0 5424500.0 3912.0
  vertex 460500.0 5424500.0 4513.2998046875
  vertex 460500.0 5423500.0 5185.89990234375
 endloop
endfacet
facet normal -0.3013656735420227 -0.5321570038795471 -0.7911937832832336
 outer loop
  vertex 460500.0 5424500.0 4513.2998046875
  vertex 461500.0 5423500.0 4805.0
  vertex 460500.0 5423500.0 5185.89990234375
 endloop
endfacet
facet normal 0.5158751606941223 0.2796785533428192 -0.8097237944602966
 outer loop
  vertex 460500.0 5424500.0 4513.2998046875
  vertex 461500.0 5424500.0 5150.39990234375
  vertex 461500.0 5423500.0 4805.0
 endloop
endfacet
facet normal 0.28519344329833984 0.3129156529903412 -0.9059517979621887
 outer loop
  vertex 461500.0 5424500.0 5150.39990234375
  vertex 462500.0 5423500.0 5119.7998046875
  vertex 461500.0 5423500.0 4805.0
 endloop
endfacet
facet normal -0.2173289805650711 -0.18801963329315186 -0.9578187465667725
 outer loop
  vertex 461500.0 5424500.0 5150.39990234375
  vertex 462500.0 5424500.0 4923.5
  vertex 462500.0 5423500.0 5119.7998046875
 endloop
endfacet
facet normal 0.15396827459335327 -0.1903267651796341 -0.9695718288421631
 outer loop
  vertex 462500.0 5424500.0 4923.5
  vertex 463500.0 5423500.0 5278.60009765625
  vertex 462500.0 5423500.0 5119.7998046875
 endloop
endfacet
facet normal -0.023692360147833824 0.008897052146494389 -0.9996797442436218
 outer loop
  vertex 452500.0 5425500.0 3816.699951171875
  vertex 453500.0 5425500.0 3793.0
  vertex 453500.0 5424500.0 3784.10009765625
 endloop
endfacet
facet normal 0.0127982497215271 0.008898820728063583 -0.9998785257339478
 outer loop
  vertex 453500.0 5425500.0 3793.0
  vertex 454500.0 5424500.0 3796.89990234375
  vertex 453500.0 5424500.0 3784.10009765625
 endloop
endfacet
facet normal 0.050381194800138474 0.046490468084812164 -0.9976474046707153
 outer loop
  vertex 453500.0 5425500.0 3793.0
  vertex 454500.0 5425500.0 3843.5
  vertex 454500.0 5424500.0 3796.89990234375
 endloop
endfacet
facet normal -0.0014983722940087318 0.04654952883720398 -0.9989148378372192
 outer loop
  vertex 454500.0 5425500.0 3843.5
  vertex 455500.0 5424500.0 3795.39990234375
  vertex 454500.0 5424500.0 3796.89990234375
 endloop
endfacet
facet normal -0.044754914939403534 0.0032967261504381895 -0.9989925622940063
 outer loop
  vertex 454500.0 5425500.0 3843.5
  vertex 455500.0 5425500.0 3798.699951171875
  vertex 455500.0 5424500.0 3795.39990234375
 endloop
endfacet
facet normal 0.028188835829496384 0.0032987194135785103 -0.9995971918106079
 outer loop
  vertex 455500.0 5425500.0 3798.699951171875
  vertex 456500.0 5424500.0 3823.60009765625
  vertex 455500.0 5424500.0 3795.39990234375
 endloop
endfacet
facet normal 0.001999471802264452 -0.02289409749209881 -0.9997358918190002
 outer loop
  vertex 455500.0 5425500.0 3798.699951171875
  vertex 456500.0 5425500.0 3800.699951171875
  vertex 456500.0 5424500.0 3823.60009765625
 endloop
endfacet
facet normal -0.03147614002227783 -0.022882800549268723 -0.9992426037788391
 outer loop
  vertex 456500.0 5425500.0 3800.699951171875
  vertex 457500.0 5424500.0 3792.10009765625
  vertex 456500.0 5424500.0 3823.60009765625
 endloop
endfacet
facet normal 0.0037997295148670673 0.012398860417306423 -0.9999159574508667
 outer loop
  vertex 456500.0 5425500.0 3800.699951171875
  vertex 457500.0 5425500.0 3804.5
  vertex 457500.0 5424500.0 3792.10009765625
 endloop
endfacet
facet normal 0.019394762814044952 0.012396616861224174 -0.9997350573539734
 outer loop
  vertex 457500.0 5425500.0 3804.5
  vertex 458500.0 5424500.0 3811.5
  vertex 457500.0 5424500.0 3792.10009765625
 endloop
endfacet
facet normal -0.003899641102179885 -0.01089917216449976 -0.9999330043792725
 outer loop
  vertex 457500.0 5425500.0 3804.5
  vertex 458500.0 5425500.0 3800.60009765625
  vertex 458500.0 5424500.0 3811.5
 endloop
endfacet
facet normal 0.09999039769172668 -0.010844632983207703 -0.994929313659668
 outer loop
  vertex 458500.0 5425500.0 3800.60009765625
  vertex 459500.0 5424500.0 3912.0
  vertex 458500.0 5424500.0 3811.5
 endloop
endfacet
facet normal 0.020012592896819115 -0.09090368449687958 -0.9956586360931396
 outer loop
  vertex 458500.0 5425500.0 3800.60009765625
  vertex 459500.0 5425500.0 3820.699951171875
  vertex 459500.0 5424500.0 3912.0
 endloop
endfacet
facet normal 0.5137443542480469 -0.0780058205127716 -0.8543896675109863
 outer loop
  vertex 459500.0 5425500.0 3820.699951171875
  vertex 460500.0 5424500.0 4513.2998046875
  vertex 459500.0 5424500.0 3912.0
 endloop
endfacet
facet normal 0.01625843346118927 -0.5582585334777832 -0.8295077681541443
 outer loop
  vertex 459500.0 5425500.0 3820.699951171875
  vertex 460500.0 5425500.0 3840.300048828125
  vertex 460500.0 5424500.0 4513.2998046875
 endloop
endfacet
facet normal 0.46729207038879395 -0.493623286485672 -0.7334672808647156
 outer loop
  vertex 460500.0 5425500.0 3840.300048828125
  vertex 461500.0 5424500.0 5150.39990234375
  vertex 460500.0 5424500.0 4513.2998046875
 endloop
endfacet
facet normal 0.6500200033187866 -0.27703338861465454 -0.70762038230896
 outer loop
  vertex 460500.0 5425500.0 3840.300048828125
  vertex 461500.0 5425500.0 4758.89990234375
  vertex 461500.0 5424500.0 5150.39990234375
 endloop
endfacet
facet normal -0.20672108232975006 -0.35668283700942993 -0.9110673069953918
 outer loop
  vertex 461500.0 5425500.0 4758.89990234375
  vertex 462500.0 5424500.0 4923.5
  vertex 461500.0 5424500.0 5150.39990234375
 endloop
endfacet
facet normal -0.235579714179039 -0.3826274275779724 -0.8933635354042053
 outer loop
  vertex 461500.0 5425500.0 4758.89990234375
  vertex 462500.0 5425500.0 4495.2001953125
  vertex 462500.0 5424500.0 4923.5
 endloop
endfacet
facet normal 0.018695857375860214 -0.009398087859153748 -0.99978107213974
 outer loop
  vertex 448500.0 5426500.0 3690.0
  vertex 449500.0 5426500.0 3708.699951171875
  vertex 449500.0 5425500.0 3718.10009765625
 endloop
endfacet
facet normal 0.10462236404418945 0.002187874633818865 -0.9945096373558044
 outer loop
  vertex 450500.0 5426500.0 3698.699951171875
  vertex 451500.0 5426500.0 3803.89990234375
  vertex 451500.0 5425500.0 3801.699951171875
 endloop
endfacet
facet normal 0.01499827578663826 0.0021996982395648956 -0.999885082244873
 outer loop
  vertex 451500.0 5426500.0 3803.89990234375
  vertex 452500.0 5425500.0 3816.699951171875
  vertex 451500.0 5425500.0 3801.699951171875
 endloop
endfacet
facet normal 0.004399948753416538 -0.008399524725973606 -0.9999550580978394
 outer loop
  vertex 451500.0 5426500.0 3803.89990234375
  vertex 452500.0 5426500.0 3808.300048828125
  vertex 452500.0 5425500.0 3816.699951171875
 endloop
endfacet
facet normal -0.023692462593317032 -0.008397248573601246 -0.9996840357780457
 outer loop
  vertex 452500.0 5426500.0 3808.300048828125
  vertex 453500.0 5425500.0 3793.0
  vertex 452500.0 5425500.0 3816.699951171875
 endloop
endfacet
facet normal -0.029683787375688553 -0.014392064884305 -0.9994557499885559
 outer loop
  vertex 452500.0 5426500.0 3808.300048828125
  vertex 453500.0 5426500.0 3778.60009765625
  vertex 453500.0 5425500.0 3793.0
 endloop
endfacet
facet normal 0.05043051391839981 -0.014380088075995445 -0.9986240267753601
 outer loop
  vertex 453500.0 5426500.0 3778.60009765625
  vertex 454500.0 5425500.0 3843.5
  vertex 453500.0 5425500.0 3793.0
 endloop
endfacet
facet normal 0.03646102920174599 -0.028369581326842308 -0.9989323019981384
 outer loop
  vertex 453500.0 5426500.0 3778.60009765625
  vertex 454500.0 5426500.0 3815.10009765625
  vertex 454500.0 5425500.0 3843.5
 endloop
endfacet
facet normal -0.044737156480550766 -0.02836003340780735 -0.9985961318016052
 outer loop
  vertex 454500.0 5426500.0 3815.10009765625
  vertex 455500.0 5425500.0 3798.699951171875
  vertex 454500.0 5425500.0 3843.5
 endloop
endfacet
facet normal -0.008299490436911583 0.008099553175270557 -0.9999327659606934
 outer loop
  vertex 454500.0 5426500.0 3815.10009765625
  vertex 455500.0 5426500.0 3806.800048828125
  vertex 455500.0 5425500.0 3798.699951171875
 endloop
endfacet
facet normal 0.00199993047863245 0.008099815808236599 -0.9999651908874512
 outer loop
  vertex 455500.0 5426500.0 3806.800048828125
  vertex 456500.0 5425500.0 3800.699951171875
  vertex 455500.0 5425500.0 3798.699951171875
 endloop
endfacet
facet normal -0.011998927220702171 -0.005899375304579735 -0.9999106526374817
 outer loop
  vertex 455500.0 5426500.0 3806.800048828125
  vertex 456500.0 5426500.0 3794.800048828125
  vertex 456500.0 5425500.0 3800.699951171875
 endloop
endfacet
facet normal 0.0037999553605914116 -0.005899757146835327 -0.9999753832817078
 outer loop
  vertex 456500.0 5426500.0 3794.800048828125
  vertex 457500.0 5425500.0 3804.5
  vertex 456500.0 5425500.0 3800.699951171875
 endloop
endfacet
facet normal -0.01039748452603817 -0.02009495161473751 -0.9997439980506897
 outer loop
  vertex 456500.0 5426500.0 3794.800048828125
  vertex 457500.0 5426500.0 3784.39990234375
  vertex 457500.0 5425500.0 3804.5
 endloop
endfacet
facet normal -0.003899085335433483 -0.020095886662602425 -0.9997904896736145
 outer loop
  vertex 457500.0 5426500.0 3784.39990234375
  vertex 458500.0 5425500.0 3800.60009765625
  vertex 457500.0 5425500.0 3804.5
 endloop
endfacet
facet normal 0.023592881858348846 0.0073976400308310986 -0.999694287776947
 outer loop
  vertex 457500.0 5426500.0 3784.39990234375
  vertex 458500.0 5426500.0 3808.0
  vertex 458500.0 5425500.0 3800.60009765625
 endloop
endfacet
facet normal 0.02009524405002594 0.00739820534363389 -0.9997707009315491
 outer loop
  vertex 458500.0 5426500.0 3808.0
  vertex 459500.0 5425500.0 3820.699951171875
  vertex 458500.0 5425500.0 3800.60009765625
 endloop
endfacet
facet normal 0.007099807262420654 -0.00559962447732687 -0.9999591112136841
 outer loop
  vertex 458500.0 5426500.0 3808.0
  vertex 459500.0 5426500.0 3815.10009765625
  vertex 459500.0 5425500.0 3820.699951171875
 endloop
endfacet
facet normal 0.019596027210354805 -0.005598690360784531 -0.9997922778129578
 outer loop
  vertex 459500.0 5426500.0 3815.10009765625
  vertex 460500.0 5425500.0 3840.300048828125
  vertex 459500.0 5425500.0 3820.699951171875
 endloop
endfacet
facet normal -0.017980320379137993 -0.04315272346138954 -0.998906672000885
 outer loop
  vertex 459500.0 5426500.0 3815.10009765625
  vertex 460500.0 5426500.0 3797.10009765625
  vertex 460500.0 5425500.0 3840.300048828125
 endloop
endfacet
facet normal 0.6761557459831238 -0.03179828077554703 -0.7360721230506897
 outer loop
  vertex 460500.0 5426500.0 3797.10009765625
  vertex 461500.0 5425500.0 4758.89990234375
  vertex 460500.0 5425500.0 3840.300048828125
 endloop
endfacet
facet normal 0.20231899619102478 -0.5662055611610413 -0.7990483045578003
 outer loop
  vertex 460500.0 5426500.0 3797.10009765625
  vertex 461500.0 5426500.0 4050.300048828125
  vertex 461500.0 5425500.0 4758.89990234375
 endloop
endfacet
facet normal -0.21034470200538635 -0.5652270913124084 -0.7976675629615784
 outer loop
  vertex 461500.0 5426500.0 4050.300048828125
  vertex 462500.0 5425500.0 4495.2001953125
  vertex 461500.0 5425500.0 4758.89990234375
 endloop
endfacet
facet normal 0.6070554852485657 0.2754260003566742 -0.7454019784927368
 outer loop
  vertex 461500.0 5426500.0 4050.300048828125
  vertex 462500.0 5426500.0 4864.7001953125
  vertex 462500.0 5425500.0 4495.2001953125
 endloop
endfacet
facet normal 0.018696680665016174 0.0004999125376343727 -0.999825119972229
 outer loop
  vertex 448500.0 5427500.0 3690.5
  vertex 449500.0 5426500.0 3708.699951171875
  vertex 448500.0 5426500.0 3690.0
 endloop
endfacet
facet normal 0.00879931915551424 -0.00939912348985672 -0.9999171495437622
 outer loop
  vertex 448500.0 5427500.0 3690.5
  vertex 449500.0 5427500.0 3699.300048828125
  vertex 449500.0 5426500.0 3708.699951171875
 endloop
endfacet
facet normal -0.009999058209359646 -0.009399017319083214 -0.9999058246612549
 outer loop
  vertex 449500.0 5427500.0 3699.300048828125
  vertex 450500.0 5426500.0 3698.699951171875
  vertex 449500.0 5426500.0 3708.699951171875
 endloop
endfacet
facet normal 0.0924932211637497 0.09308812767267227 -0.991352379322052
 outer loop
  vertex 449500.0 5427500.0 3699.300048828125
  vertex 450500.0 5427500.0 3792.60009765625
  vertex 450500.0 5426500.0 3698.699951171875
 endloop
endfacet
facet normal 0.10416938364505768 0.0929802805185318 -0.9902037382125854
 outer loop
  vertex 450500.0 5427500.0 3792.60009765625
  vertex 451500.0 5426500.0 3803.89990234375
  vertex 450500.0 5426500.0 3698.699951171875
 endloop
endfacet
facet normal 0.003099734429270029 -0.00819963589310646 -0.9999615550041199
 outer loop
  vertex 450500.0 5427500.0 3792.60009765625
  vertex 451500.0 5427500.0 3795.699951171875
  vertex 451500.0 5426500.0 3803.89990234375
 endloop
endfacet
facet normal 0.004399955738335848 -0.008199595846235752 -0.9999566674232483
 outer loop
  vertex 451500.0 5427500.0 3795.699951171875
  vertex 452500.0 5426500.0 3808.300048828125
  vertex 451500.0 5426500.0 3803.89990234375
 endloop
endfacet
facet normal 0.01029947493225336 -0.002299920655786991 -0.9999443292617798
 outer loop
  vertex 451500.0 5427500.0 3795.699951171875
  vertex 452500.0 5427500.0 3806.0
  vertex 452500.0 5426500.0 3808.300048828125
 endloop
endfacet
facet normal -0.029686782509088516 -0.0022990291472524405 -0.9995566606521606
 outer loop
  vertex 452500.0 5427500.0 3806.0
  vertex 453500.0 5426500.0 3778.60009765625
  vertex 452500.0 5426500.0 3808.300048828125
 endloop
endfacet
facet normal 0.003798173274844885 0.031184552237391472 -0.999506413936615
 outer loop
  vertex 452500.0 5427500.0 3806.0
  vertex 453500.0 5427500.0 3809.800048828125
  vertex 453500.0 5426500.0 3778.60009765625
 endloop
endfacet
facet normal 0.03645799309015274 0.03116404451429844 -0.9988491535186768
 outer loop
  vertex 453500.0 5427500.0 3809.800048828125
  vertex 454500.0 5426500.0 3815.10009765625
  vertex 453500.0 5426500.0 3778.60009765625
 endloop
endfacet
facet normal -0.0006999383913353086 -0.005999890621751547 -0.9999817609786987
 outer loop
  vertex 453500.0 5427500.0 3809.800048828125
  vertex 454500.0 5427500.0 3809.10009765625
  vertex 454500.0 5426500.0 3815.10009765625
 endloop
endfacet
facet normal -0.008299613371491432 -0.005999685265123844 -0.9999475479125977
 outer loop
  vertex 454500.0 5427500.0 3809.10009765625
  vertex 455500.0 5426500.0 3806.800048828125
  vertex 454500.0 5426500.0 3815.10009765625
 endloop
endfacet
facet normal -0.006099940277636051 -0.0037999507039785385 -0.9999741911888123
 outer loop
  vertex 454500.0 5427500.0 3809.10009765625
  vertex 455500.0 5427500.0 3803.0
  vertex 455500.0 5426500.0 3806.800048828125
 endloop
endfacet
facet normal -0.011999049223959446 -0.0037997476756572723 -0.9999207854270935
 outer loop
  vertex 455500.0 5427500.0 3803.0
  vertex 456500.0 5426500.0 3794.800048828125
  vertex 455500.0 5426500.0 3806.800048828125
 endloop
endfacet
facet normal -0.0029999460093677044 0.005199857521802187 -0.9999819993972778
 outer loop
  vertex 455500.0 5427500.0 3803.0
  vertex 456500.0 5427500.0 3800.0
  vertex 456500.0 5426500.0 3794.800048828125
 endloop
endfacet
facet normal -0.010399443097412586 0.0051995995454490185 -0.9999324083328247
 outer loop
  vertex 456500.0 5427500.0 3800.0
  vertex 457500.0 5426500.0 3784.39990234375
  vertex 456500.0 5426500.0 3794.800048828125
 endloop
endfacet
facet normal -0.0006000300636515021 0.01499831024557352 -0.9998873472213745
 outer loop
  vertex 456500.0 5427500.0 3800.0
  vertex 457500.0 5427500.0 3799.39990234375
  vertex 457500.0 5426500.0 3784.39990234375
 endloop
endfacet
facet normal 0.023590875789523125 0.014994137920439243 -0.9996092319488525
 outer loop
  vertex 457500.0 5427500.0 3799.39990234375
  vertex 458500.0 5426500.0 3808.0
  vertex 457500.0 5426500.0 3784.39990234375
 endloop
endfacet
facet normal 0.0029000872746109962 -0.0056998347863554955 -0.999979555606842
 outer loop
  vertex 457500.0 5427500.0 3799.39990234375
  vertex 458500.0 5427500.0 3802.300048828125
  vertex 458500.0 5426500.0 3808.0
 endloop
endfacet
facet normal 0.007099803537130356 -0.005699715111404657 -0.9999585747718811
 outer loop
  vertex 458500.0 5427500.0 3802.300048828125
  vertex 459500.0 5426500.0 3815.10009765625
  vertex 458500.0 5426500.0 3808.0
 endloop
endfacet
facet normal 0.0 -0.01279900036752224 -0.9999180436134338
 outer loop
  vertex 458500.0 5427500.0 3802.300048828125
  vertex 459500.0 5427500.0 3802.300048828125
  vertex 459500.0 5426500.0 3815.10009765625
 endloop
endfacet
facet normal -0.01799561083316803 -0.01279692817479372 -0.9997561573982239
 outer loop
  vertex 459500.0 5427500.0 3802.300048828125
  vertex 460500.0 5426500.0 3797.10009765625
  vertex 459500.0 5426500.0 3815.10009765625
 endloop
endfacet
facet normal 0.016793616116046906 0.02199157513678074 -0.9996170997619629
 outer loop
  vertex 459500.0 5427500.0 3802.300048828125
  vertex 460500.0 5427500.0 3819.10009765625
  vertex 460500.0 5426500.0 3797.10009765625
 endloop
endfacet
facet normal 0.24539831280708313 0.021322133019566536 -0.9691877961158752
 outer loop
  vertex 460500.0 5427500.0 3819.10009765625
  vertex 461500.0 5426500.0 4050.300048828125
  vertex 460500.0 5426500.0 3797.10009765625
 endloop
endfacet
facet normal 0.006439299322664738 -0.21913625299930573 -0.9756730794906616
 outer loop
  vertex 460500.0 5427500.0 3819.10009765625
  vertex 461500.0 5427500.0 3825.699951171875
  vertex 461500.0 5426500.0 4050.300048828125
 endloop
endfacet
facet normal 0.622115969657898 -0.17157083749771118 -0.7638947367668152
 outer loop
  vertex 461500.0 5427500.0 3825.699951171875
  vertex 462500.0 5426500.0 4864.7001953125
  vertex 461500.0 5426500.0 4050.300048828125
 endloop
endfacet
facet normal 0.2912216782569885 -0.5336947441101074 -0.7939520478248596
 outer loop
  vertex 461500.0 5427500.0 3825.699951171875
  vertex 462500.0 5427500.0 4192.5
  vertex 462500.0 5426500.0 4864.7001953125
 endloop
endfacet
facet normal 0.008793884888291359 0.03637440502643585 -0.9992995262145996
 outer loop
  vertex 448500.0 5428500.0 3726.89990234375
  vertex 449500.0 5427500.0 3699.300048828125
  vertex 448500.0 5427500.0 3690.5
 endloop
endfacet
facet normal -0.010497886687517166 0.01709641143679619 -0.9997987151145935
 outer loop
  vertex 448500.0 5428500.0 3726.89990234375
  vertex 449500.0 5428500.0 3716.39990234375
  vertex 449500.0 5427500.0 3699.300048828125
 endloop
endfacet
facet normal 0.09288313239812851 0.017023442313075066 -0.9955314993858337
 outer loop
  vertex 449500.0 5428500.0 3716.39990234375
  vertex 450500.0 5427500.0 3792.60009765625
  vertex 449500.0 5427500.0 3699.300048828125
 endloop
endfacet
facet normal -0.027045803144574165 -0.10281416028738022 -0.9943327903747559
 outer loop
  vertex 449500.0 5428500.0 3716.39990234375
  vertex 450500.0 5428500.0 3689.199951171875
  vertex 450500.0 5427500.0 3792.60009765625
 endloop
endfacet
facet normal 0.003083397401496768 -0.10285129398107529 -0.9946919679641724
 outer loop
  vertex 450500.0 5428500.0 3689.199951171875
  vertex 451500.0 5427500.0 3795.699951171875
  vertex 450500.0 5427500.0 3792.60009765625
 endloop
endfacet
facet normal 0.03349236771464348 -0.07266617566347122 -0.996793806552887
 outer loop
  vertex 450500.0 5428500.0 3689.199951171875
  vertex 451500.0 5428500.0 3722.800048828125
  vertex 451500.0 5427500.0 3795.699951171875
 endloop
endfacet
facet normal 0.010272243991494179 -0.07270313054323196 -0.9973007440567017
 outer loop
  vertex 451500.0 5428500.0 3722.800048828125
  vertex 452500.0 5427500.0 3806.0
  vertex 451500.0 5427500.0 3795.699951171875
 endloop
endfacet
facet normal 0.07984373718500137 -0.003090189304202795 -0.996802568435669
 outer loop
  vertex 451500.0 5428500.0 3722.800048828125
  vertex 452500.0 5428500.0 3802.89990234375
  vertex 452500.0 5427500.0 3806.0
 endloop
endfacet
facet normal 0.0038000033237040043 -0.0031000603921711445 -0.9999880194664001
 outer loop
  vertex 452500.0 5428500.0 3802.89990234375
  vertex 453500.0 5427500.0 3809.800048828125
  vertex 452500.0 5427500.0 3806.0
 endloop
endfacet
facet normal 0.012199116870760918 0.005299580283463001 -0.9999115467071533
 outer loop
  vertex 452500.0 5428500.0 3802.89990234375
  vertex 453500.0 5428500.0 3815.10009765625
  vertex 453500.0 5427500.0 3809.800048828125
 endloop
endfacet
facet normal -0.0006999411270953715 0.005299972835928202 -0.9999856948852539
 outer loop
  vertex 453500.0 5428500.0 3815.10009765625
  vertex 454500.0 5427500.0 3809.10009765625
  vertex 453500.0 5427500.0 3809.800048828125
 endloop
endfacet
facet normal -0.006799889262765646 -0.0008000300731509924 -0.9999765753746033
 outer loop
  vertex 453500.0 5428500.0 3815.10009765625
  vertex 454500.0 5428500.0 3808.300048828125
  vertex 454500.0 5427500.0 3809.10009765625
 endloop
endfacet
facet normal -0.006099982187151909 -0.000800033682025969 -0.9999810457229614
 outer loop
  vertex 454500.0 5428500.0 3808.300048828125
  vertex 455500.0 5427500.0 3803.0
  vertex 454500.0 5427500.0 3809.10009765625
 endloop
endfacet
facet normal -0.0016000847099348903 0.0036999210715293884 -0.9999918937683105
 outer loop
  vertex 454500.0 5428500.0 3808.300048828125
  vertex 455500.0 5428500.0 3806.699951171875
  vertex 455500.0 5427500.0 3803.0
 endloop
endfacet
facet normal -0.0029999660328030586 0.0036999094299972057 -0.9999886751174927
 outer loop
  vertex 455500.0 5428500.0 3806.699951171875
  vertex 456500.0 5427500.0 3800.0
  vertex 455500.0 5427500.0 3803.0
 endloop
endfacet
facet normal -0.0023998732212930918 0.0042999968864023685 -0.9999879002571106
 outer loop
  vertex 455500.0 5428500.0 3806.699951171875
  vertex 456500.0 5428500.0 3804.300048828125
  vertex 456500.0 5427500.0 3800.0
 endloop
endfacet
facet normal -0.0006000919966027141 0.004300008062273264 -0.9999905824661255
 outer loop
  vertex 456500.0 5428500.0 3804.300048828125
  vertex 457500.0 5427500.0 3799.39990234375
  vertex 456500.0 5427500.0 3800.0
 endloop
endfacet
facet normal -0.017196107655763626 -0.012297055684030056 -0.9997764825820923
 outer loop
  vertex 456500.0 5428500.0 3804.300048828125
  vertex 457500.0 5428500.0 3787.10009765625
  vertex 457500.0 5427500.0 3799.39990234375
 endloop
endfacet
facet normal 0.0028999147471040487 -0.012298822402954102 -0.999920129776001
 outer loop
  vertex 457500.0 5428500.0 3787.10009765625
  vertex 458500.0 5427500.0 3802.300048828125
  vertex 457500.0 5427500.0 3799.39990234375
 endloop
endfacet
facet normal 0.012698887847363949 -0.0024997906293720007 -0.9999162554740906
 outer loop
  vertex 457500.0 5428500.0 3787.10009765625
  vertex 458500.0 5428500.0 3799.800048828125
  vertex 458500.0 5427500.0 3802.300048828125
 endloop
endfacet
facet normal 0.0 -0.002499992260709405 -0.9999969005584717
 outer loop
  vertex 458500.0 5428500.0 3799.800048828125
  vertex 459500.0 5427500.0 3802.300048828125
  vertex 458500.0 5427500.0 3802.300048828125
 endloop
endfacet
facet normal -0.016095228493213654 -0.018594471737742424 -0.9996975064277649
 outer loop
  vertex 458500.0 5428500.0 3799.800048828125
  vertex 459500.0 5428500.0 3783.699951171875
  vertex 459500.0 5427500.0 3802.300048828125
 endloop
endfacet
facet normal 0.016794776543974876 -0.018594257533550262 -0.999686062335968
 outer loop
  vertex 459500.0 5428500.0 3783.699951171875
  vertex 460500.0 5427500.0 3819.10009765625
  vertex 459500.0 5427500.0 3802.300048828125
 endloop
endfacet
facet normal 0.004197871312499046 -0.03118474781513214 -0.999504804611206
 outer loop
  vertex 459500.0 5428500.0 3783.699951171875
  vertex 460500.0 5428500.0 3787.89990234375
  vertex 460500.0 5427500.0 3819.10009765625
 endloop
endfacet
facet normal 0.006596498191356659 -0.03118434175848961 -0.9994918704032898
 outer loop
  vertex 460500.0 5428500.0 3787.89990234375
  vertex 461500.0 5427500.0 3825.699951171875
  vertex 460500.0 5427500.0 3819.10009765625
 endloop
endfacet
facet normal 0.02149217762053013 -0.016294116154313087 -0.999636173248291
 outer loop
  vertex 460500.0 5428500.0 3787.89990234375
  vertex 461500.0 5428500.0 3809.39990234375
  vertex 461500.0 5427500.0 3825.699951171875
 endloop
endfacet
facet normal 0.3443247079849243 -0.015301278792321682 -0.9387259483337402
 outer loop
  vertex 461500.0 5428500.0 3809.39990234375
  vertex 462500.0 5427500.0 4192.5
  vertex 461500.0 5427500.0 3825.699951171875
 endloop
endfacet
facet normal 0.0565192848443985 -0.3073890209197998 -0.9499039649963379
 outer loop
  vertex 461500.0 5428500.0 3809.39990234375
  vertex 462500.0 5428500.0 3868.89990234375
  vertex 462500.0 5427500.0 4192.5
 endloop
endfacet
facet normal -0.19287368655204773 -0.302100270986557 -0.9335604906082153
 outer loop
  vertex 462500.0 5428500.0 3868.89990234375
  vertex 463500.0 5427500.0 3985.89990234375
  vertex 462500.0 5427500.0 4192.5
 endloop
endfacet
facet normal 0.5930706262588501 0.5212762355804443 -0.6136271357536316
 outer loop
  vertex 462500.0 5428500.0 3868.89990234375
  vertex 463500.0 5428500.0 4835.39990234375
  vertex 463500.0 5427500.0 3985.89990234375
 endloop
endfacet
facet normal -0.010491849854588509 -0.03797050565481186 -0.9992237687110901
 outer loop
  vertex 448500.0 5429500.0 3688.89990234375
  vertex 449500.0 5428500.0 3716.39990234375
  vertex 448500.0 5428500.0 3726.89990234375
 endloop
endfacet
facet normal 0.01089799776673317 -0.016596581786870956 -0.999802827835083
 outer loop
  vertex 448500.0 5429500.0 3688.89990234375
  vertex 449500.0 5429500.0 3699.800048828125
  vertex 449500.0 5428500.0 3716.39990234375
 endloop
endfacet
facet normal -0.02718615159392357 -0.016591431573033333 -0.9994927048683167
 outer loop
  vertex 449500.0 5429500.0 3699.800048828125
  vertex 450500.0 5428500.0 3689.199951171875
  vertex 449500.0 5428500.0 3716.39990234375
 endloop
endfacet
facet normal -0.0014000858645886183 0.009199553169310093 -0.9999566674232483
 outer loop
  vertex 449500.0 5429500.0 3699.800048828125
  vertex 450500.0 5429500.0 3698.39990234375
  vertex 450500.0 5428500.0 3689.199951171875
 endloop
endfacet
facet normal 0.03357972577214241 0.009194374084472656 -0.9993937611579895
 outer loop
  vertex 450500.0 5429500.0 3698.39990234375
  vertex 451500.0 5428500.0 3722.800048828125
  vertex 450500.0 5428500.0 3689.199951171875
 endloop
endfacet
facet normal -0.011991195380687714 -0.03637344017624855 -0.9992662668228149
 outer loop
  vertex 450500.0 5429500.0 3698.39990234375
  vertex 451500.0 5429500.0 3686.39990234375
  vertex 451500.0 5428500.0 3722.800048828125
 endloop
endfacet
facet normal 0.0797916129231453 -0.036260075867176056 -0.996151864528656
 outer loop
  vertex 451500.0 5429500.0 3686.39990234375
  vertex 452500.0 5428500.0 3802.89990234375
  vertex 451500.0 5428500.0 3722.800048828125
 endloop
endfacet
facet normal 0.0963311716914177 -0.019604532048106194 -0.9951562881469727
 outer loop
  vertex 451500.0 5429500.0 3686.39990234375
  vertex 452500.0 5429500.0 3783.199951171875
  vertex 452500.0 5428500.0 3802.89990234375
 endloop
endfacet
facet normal 0.012196920812129974 -0.01969466358423233 -0.9997316598892212
 outer loop
  vertex 452500.0 5429500.0 3783.199951171875
  vertex 453500.0 5428500.0 3815.10009765625
  vertex 452500.0 5428500.0 3802.89990234375
 endloop
endfacet
facet normal 0.011596928350627422 -0.02029450424015522 -0.9997268319129944
 outer loop
  vertex 452500.0 5429500.0 3783.199951171875
  vertex 453500.0 5429500.0 3794.800048828125
  vertex 453500.0 5428500.0 3815.10009765625
 endloop
endfacet
facet normal -0.006798491347581148 -0.02029539830982685 -0.9997709393501282
 outer loop
  vertex 453500.0 5429500.0 3794.800048828125
  vertex 454500.0 5428500.0 3808.300048828125
  vertex 453500.0 5428500.0 3815.10009765625
 endloop
endfacet
facet normal 0.003399709239602089 -0.010099523700773716 -0.999943196773529
 outer loop
  vertex 453500.0 5429500.0 3794.800048828125
  vertex 454500.0 5429500.0 3798.199951171875
  vertex 454500.0 5428500.0 3808.300048828125
 endloop
endfacet
facet normal -0.0016000139294192195 -0.010099569335579872 -0.9999476671218872
 outer loop
  vertex 454500.0 5429500.0 3798.199951171875
  vertex 455500.0 5428500.0 3806.699951171875
  vertex 454500.0 5428500.0 3808.300048828125
 endloop
endfacet
facet normal -0.0012999853352084756 -0.009799569845199585 -0.9999511241912842
 outer loop
  vertex 454500.0 5429500.0 3798.199951171875
  vertex 455500.0 5429500.0 3796.89990234375
  vertex 455500.0 5428500.0 3806.699951171875
 endloop
endfacet
facet normal -0.002399780321866274 -0.009799550287425518 -0.9999491572380066
 outer loop
  vertex 455500.0 5429500.0 3796.89990234375
  vertex 456500.0 5428500.0 3804.300048828125
  vertex 455500.0 5428500.0 3806.699951171875
 endloop
endfacet
facet normal -0.001499938894994557 -0.008899783715605736 -0.9999592304229736
 outer loop
  vertex 455500.0 5429500.0 3796.89990234375
  vertex 456500.0 5429500.0 3795.39990234375
  vertex 456500.0 5428500.0 3804.300048828125
 endloop
endfacet
facet normal -0.01719672605395317 -0.008898478001356125 -0.9998125433921814
 outer loop
  vertex 456500.0 5429500.0 3795.39990234375
  vertex 457500.0 5428500.0 3787.10009765625
  vertex 456500.0 5428500.0 3804.300048828125
 endloop
endfacet
facet normal -0.0014999635750427842 0.006799639668315649 -0.9999757409095764
 outer loop
  vertex 456500.0 5429500.0 3795.39990234375
  vertex 457500.0 5429500.0 3793.89990234375
  vertex 457500.0 5428500.0 3787.10009765625
 endloop
endfacet
facet normal 0.012698633596301079 0.006799099501222372 -0.9998962879180908
 outer loop
  vertex 457500.0 5429500.0 3793.89990234375
  vertex 458500.0 5428500.0 3799.800048828125
  vertex 457500.0 5428500.0 3787.10009765625
 endloop
endfacet
facet normal 0.004999935161322355 -0.0009001348516903818 -0.9999870657920837
 outer loop
  vertex 457500.0 5429500.0 3793.89990234375
  vertex 458500.0 5429500.0 3798.89990234375
  vertex 458500.0 5428500.0 3799.800048828125
 endloop
endfacet
facet normal -0.016098005697131157 -0.0009000294958241284 -0.9998700022697449
 outer loop
  vertex 458500.0 5429500.0 3798.89990234375
  vertex 459500.0 5428500.0 3783.699951171875
  vertex 458500.0 5428500.0 3799.800048828125
 endloop
endfacet
facet normal -0.017297178506851196 -0.0020995347294956446 -0.9998481869697571
 outer loop
  vertex 458500.0 5429500.0 3798.89990234375
  vertex 459500.0 5429500.0 3781.60009765625
  vertex 459500.0 5428500.0 3783.699951171875
 endloop
endfacet
facet normal 0.004199904855340719 -0.002099830424413085 -0.9999889731407166
 outer loop
  vertex 459500.0 5429500.0 3781.60009765625
  vertex 460500.0 5428500.0 3787.89990234375
  vertex 459500.0 5428500.0 3783.699951171875
 endloop
endfacet
facet normal 0.01029917597770691 0.003999755717813969 -0.99993896484375
 outer loop
  vertex 459500.0 5429500.0 3781.60009765625
  vertex 460500.0 5429500.0 3791.89990234375
  vertex 460500.0 5428500.0 3787.89990234375
 endloop
endfacet
facet normal 0.02149485982954502 0.003999043721705675 -0.9997609257698059
 outer loop
  vertex 460500.0 5429500.0 3791.89990234375
  vertex 461500.0 5428500.0 3809.39990234375
  vertex 460500.0 5428500.0 3787.89990234375
 endloop
endfacet
facet normal -0.00029975720099173486 -0.017796985805034637 -0.999841570854187
 outer loop
  vertex 460500.0 5429500.0 3791.89990234375
  vertex 461500.0 5429500.0 3791.60009765625
  vertex 461500.0 5428500.0 3809.39990234375
 endloop
endfacet
facet normal 0.05938558280467987 -0.017765576019883156 -0.9980770349502563
 outer loop
  vertex 461500.0 5429500.0 3791.60009765625
  vertex 462500.0 5428500.0 3868.89990234375
  vertex 461500.0 5428500.0 3809.39990234375
 endloop
endfacet
facet normal 0.006084338296204805 -0.07101885229349136 -0.997456431388855
 outer loop
  vertex 461500.0 5429500.0 3791.60009765625
  vertex 462500.0 5429500.0 3797.699951171875
  vertex 462500.0 5428500.0 3868.89990234375
 endloop
endfacet
facet normal 0.6940511465072632 -0.05112924054265022 -0.7181077599525452
 outer loop
  vertex 462500.0 5429500.0 3797.699951171875
  vertex 463500.0 5428500.0 4835.39990234375
  vertex 462500.0 5428500.0 3868.89990234375
 endloop
endfacet
facet normal 0.42647212743759155 -0.4101061224937439 -0.8061851263046265
 outer loop
  vertex 462500.0 5429500.0 3797.699951171875
  vertex 463500.0 5429500.0 4326.7001953125
  vertex 463500.0 5428500.0 4835.39990234375
 endloop
endfacet
facet normal 0.010899428278207779 -0.003599616466090083 -0.9999341368675232
 outer loop
  vertex 448500.0 5430500.0 3685.300048828125
  vertex 449500.0 5429500.0 3699.800048828125
  vertex 448500.0 5429500.0 3688.89990234375
 endloop
endfacet
facet normal 0.008799565024673939 -0.005699638277292252 -0.9999450445175171
 outer loop
  vertex 448500.0 5430500.0 3685.300048828125
  vertex 449500.0 5430500.0 3694.10009765625
  vertex 449500.0 5429500.0 3699.800048828125
 endloop
endfacet
facet normal -0.0014001223025843501 -0.0056998529471457005 -0.9999827742576599
 outer loop
  vertex 449500.0 5430500.0 3694.10009765625
  vertex 450500.0 5429500.0 3698.39990234375
  vertex 449500.0 5429500.0 3699.800048828125
 endloop
endfacet
facet normal -0.003499872051179409 -0.007799519691616297 -0.9999634623527527
 outer loop
  vertex 449500.0 5430500.0 3694.10009765625
  vertex 450500.0 5430500.0 3690.60009765625
  vertex 450500.0 5429500.0 3698.39990234375
 endloop
endfacet
facet normal -0.011998770758509636 -0.007799005601555109 -0.9998975992202759
 outer loop
  vertex 450500.0 5430500.0 3690.60009765625
  vertex 451500.0 5429500.0 3686.39990234375
  vertex 450500.0 5429500.0 3698.39990234375
 endloop
endfacet
facet normal 0.09031830728054047 0.09448247402906418 -0.9914210438728333
 outer loop
  vertex 450500.0 5430500.0 3690.60009765625
  vertex 451500.0 5430500.0 3781.699951171875
  vertex 451500.0 5429500.0 3686.39990234375
 endloop
endfacet
facet normal 0.09591912478208542 0.0944327786564827 -0.9908995628356934
 outer loop
  vertex 451500.0 5430500.0 3781.699951171875
  vertex 452500.0 5429500.0 3783.199951171875
  vertex 451500.0 5429500.0 3686.39990234375
 endloop
endfacet
facet normal 0.002499990863725543 0.0009999963222071528 -0.9999963641166687
 outer loop
  vertex 451500.0 5430500.0 3781.699951171875
  vertex 452500.0 5430500.0 3784.199951171875
  vertex 452500.0 5429500.0 3783.199951171875
 endloop
endfacet
facet normal 0.011599310673773289 0.0009999321773648262 -0.9999321699142456
 outer loop
  vertex 452500.0 5430500.0 3784.199951171875
  vertex 453500.0 5429500.0 3794.800048828125
  vertex 452500.0 5429500.0 3783.199951171875
 endloop
endfacet
facet normal -0.007098562549799681 -0.01769673265516758 -0.9998181462287903
 outer loop
  vertex 452500.0 5430500.0 3784.199951171875
  vertex 453500.0 5430500.0 3777.10009765625
  vertex 453500.0 5429500.0 3794.800048828125
 endloop
endfacet
facet normal 0.0033993502147495747 -0.017697077244520187 -0.9998375773429871
 outer loop
  vertex 453500.0 5430500.0 3777.10009765625
  vertex 454500.0 5429500.0 3798.199951171875
  vertex 453500.0 5429500.0 3794.800048828125
 endloop
endfacet
facet normal 0.015197930857539177 -0.005899118259549141 -0.9998670816421509
 outer loop
  vertex 453500.0 5430500.0 3777.10009765625
  vertex 454500.0 5430500.0 3792.300048828125
  vertex 454500.0 5429500.0 3798.199951171875
 endloop
endfacet
facet normal -0.0013000251492485404 -0.005899794865399599 -0.9999817609786987
 outer loop
  vertex 454500.0 5430500.0 3792.300048828125
  vertex 455500.0 5429500.0 3796.89990234375
  vertex 454500.0 5429500.0 3798.199951171875
 endloop
endfacet
facet normal -0.0011000791564583778 -0.005699855275452137 -0.9999831914901733
 outer loop
  vertex 454500.0 5430500.0 3792.300048828125
  vertex 455500.0 5430500.0 3791.199951171875
  vertex 455500.0 5429500.0 3796.89990234375
 endloop
endfacet
facet normal -0.0014999739360064268 -0.005699852015823126 -0.9999826550483704
 outer loop
  vertex 455500.0 5430500.0 3791.199951171875
  vertex 456500.0 5429500.0 3795.39990234375
  vertex 455500.0 5429500.0 3796.89990234375
 endloop
endfacet
facet normal 0.0006999467150308192 -0.003499977756291628 -0.999993622303009
 outer loop
  vertex 455500.0 5430500.0 3791.199951171875
  vertex 456500.0 5430500.0 3791.89990234375
  vertex 456500.0 5429500.0 3795.39990234375
 endloop
endfacet
facet normal -0.0014999890699982643 -0.0034999747294932604 -0.9999927282333374
 outer loop
  vertex 456500.0 5430500.0 3791.89990234375
  vertex 457500.0 5429500.0 3793.89990234375
  vertex 456500.0 5429500.0 3795.39990234375
 endloop
endfacet
facet normal -0.0019999800715595484 -0.003999960143119097 -0.9999899864196777
 outer loop
  vertex 456500.0 5430500.0 3791.89990234375
  vertex 457500.0 5430500.0 3789.89990234375
  vertex 457500.0 5429500.0 3793.89990234375
 endloop
endfacet
facet normal 0.004999897442758083 -0.003999918233603239 -0.9999794960021973
 outer loop
  vertex 457500.0 5430500.0 3789.89990234375
  vertex 458500.0 5429500.0 3798.89990234375
  vertex 457500.0 5429500.0 3793.89990234375
 endloop
endfacet
facet normal 0.0019000951433554292 -0.007099661976099014 -0.9999729990959167
 outer loop
  vertex 457500.0 5430500.0 3789.89990234375
  vertex 458500.0 5430500.0 3791.800048828125
  vertex 458500.0 5429500.0 3798.89990234375
 endloop
endfacet
facet normal -0.01729678176343441 -0.007098612375557423 -0.9998252391815186
 outer loop
  vertex 458500.0 5430500.0 3791.800048828125
  vertex 459500.0 5429500.0 3781.60009765625
  vertex 458500.0 5429500.0 3798.89990234375
 endloop
endfacet
facet normal 9.984822099795565e-05 0.010299257934093475 -0.9999469518661499
 outer loop
  vertex 458500.0 5430500.0 3791.800048828125
  vertex 459500.0 5430500.0 3791.89990234375
  vertex 459500.0 5429500.0 3781.60009765625
 endloop
endfacet
facet normal 0.01029871217906475 0.01029871217906475 -0.9998939633369446
 outer loop
  vertex 459500.0 5430500.0 3791.89990234375
  vertex 460500.0 5429500.0 3791.89990234375
  vertex 459500.0 5429500.0 3781.60009765625
 endloop
endfacet
facet normal 0.0014001437230035663 0.0014001437230035663 -0.9999980330467224
 outer loop
  vertex 459500.0 5430500.0 3791.89990234375
  vertex 460500.0 5430500.0 3793.300048828125
  vertex 460500.0 5429500.0 3791.89990234375
 endloop
endfacet
facet normal -0.00029980437830090523 0.0014001451199874282 -0.9999989867210388
 outer loop
  vertex 460500.0 5430500.0 3793.300048828125
  vertex 461500.0 5429500.0 3791.60009765625
  vertex 460500.0 5429500.0 3791.89990234375
 endloop
endfacet
facet normal -0.01829446479678154 -0.016595033928751945 -0.9996948838233948
 outer loop
  vertex 460500.0 5430500.0 3793.300048828125
  vertex 461500.0 5430500.0 3775.0
  vertex 461500.0 5429500.0 3791.60009765625
 endloop
endfacet
facet normal 0.006098899990320206 -0.016597501933574677 -0.9998436570167542
 outer loop
  vertex 461500.0 5430500.0 3775.0
  vertex 462500.0 5429500.0 3797.699951171875
  vertex 461500.0 5429500.0 3791.60009765625
 endloop
endfacet
facet normal 0.008398747071623802 -0.014298083260655403 -0.9998624920845032
 outer loop
  vertex 461500.0 5430500.0 3775.0
  vertex 462500.0 5430500.0 3783.39990234375
  vertex 462500.0 5429500.0 3797.699951171875
 endloop
endfacet
facet normal 0.46756619215011597 -0.01263935025781393 -0.883867621421814
 outer loop
  vertex 462500.0 5430500.0 3783.39990234375
  vertex 463500.0 5429500.0 4326.7001953125
  vertex 462500.0 5429500.0 3797.699951171875
 endloop
endfacet
facet normal 0.001582876779139042 -0.4761694073677063 -0.8793520927429199
 outer loop
  vertex 462500.0 5430500.0 3783.39990234375
  vertex 463500.0 5430500.0 3785.199951171875
  vertex 463500.0 5429500.0 4326.7001953125
 endloop
endfacet
facet normal 0.444185733795166 -0.42661723494529724 -0.7878431081771851
 outer loop
  vertex 463500.0 5430500.0 3785.199951171875
  vertex 464500.0 5429500.0 4890.5
  vertex 463500.0 5429500.0 4326.7001953125
 endloop
endfacet
facet normal -0.0034999046474695206 0.0064998227171599865 -0.9999727606773376
 outer loop
  vertex 449500.0 5431500.0 3700.60009765625
  vertex 450500.0 5430500.0 3690.60009765625
  vertex 449500.0 5430500.0 3694.10009765625
 endloop
endfacet
facet normal -0.009699738584458828 0.00029979058308526874 -0.9999529123306274
 outer loop
  vertex 449500.0 5431500.0 3700.60009765625
  vertex 450500.0 5431500.0 3690.89990234375
  vertex 450500.0 5430500.0 3690.60009765625
 endloop
endfacet
facet normal 0.0907241553068161 0.0002985683095175773 -0.9958760142326355
 outer loop
  vertex 450500.0 5431500.0 3690.89990234375
  vertex 451500.0 5430500.0 3781.699951171875
  vertex 450500.0 5430500.0 3690.60009765625
 endloop
endfacet
facet normal 0.005181177984923124 -0.08528681099414825 -0.9963429570198059
 outer loop
  vertex 450500.0 5431500.0 3690.89990234375
  vertex 451500.0 5431500.0 3696.10009765625
  vertex 451500.0 5430500.0 3781.699951171875
 endloop
endfacet
facet normal 0.002490882994607091 -0.08528769016265869 -0.9963532090187073
 outer loop
  vertex 451500.0 5431500.0 3696.10009765625
  vertex 452500.0 5430500.0 3784.199951171875
  vertex 451500.0 5430500.0 3781.699951171875
 endloop
endfacet
facet normal 0.08320954442024231 -0.004583850968629122 -0.996521532535553
 outer loop
  vertex 451500.0 5431500.0 3696.10009765625
  vertex 452500.0 5431500.0 3779.60009765625
  vertex 452500.0 5430500.0 3784.199951171875
 endloop
endfacet
facet normal -0.007099599577486515 -0.004599689040333033 -0.9999642372131348
 outer loop
  vertex 452500.0 5431500.0 3779.60009765625
  vertex 453500.0 5430500.0 3777.10009765625
  vertex 452500.0 5430500.0 3784.199951171875
 endloop
endfacet
facet normal -0.011298890225589275 -0.008799145929515362 -0.9998974204063416
 outer loop
  vertex 452500.0 5431500.0 3779.60009765625
  vertex 453500.0 5431500.0 3768.300048828125
  vertex 453500.0 5430500.0 3777.10009765625
 endloop
endfacet
facet normal 0.01519760675728321 -0.00879869144409895 -0.9998458027839661
 outer loop
  vertex 453500.0 5431500.0 3768.300048828125
  vertex 454500.0 5430500.0 3792.300048828125
  vertex 453500.0 5430500.0 3777.10009765625
 endloop
endfacet
facet normal 0.016497289761900902 -0.007498768158257008 -0.9998357892036438
 outer loop
  vertex 453500.0 5431500.0 3768.300048828125
  vertex 454500.0 5431500.0 3784.800048828125
  vertex 454500.0 5430500.0 3792.300048828125
 endloop
endfacet
facet normal -0.0011000660015270114 -0.007499784231185913 -0.9999712705612183
 outer loop
  vertex 454500.0 5431500.0 3784.800048828125
  vertex 455500.0 5430500.0 3791.199951171875
  vertex 454500.0 5430500.0 3792.300048828125
 endloop
endfacet
facet normal -0.0013000092003494501 -0.007699716370552778 -0.999969482421875
 outer loop
  vertex 454500.0 5431500.0 3784.800048828125
  vertex 455500.0 5431500.0 3783.5
  vertex 455500.0 5430500.0 3791.199951171875
 endloop
endfacet
facet normal 0.0006999302422627807 -0.007699721027165651 -0.9999701380729675
 outer loop
  vertex 455500.0 5431500.0 3783.5
  vertex 456500.0 5430500.0 3791.89990234375
  vertex 455500.0 5430500.0 3791.199951171875
 endloop
endfacet
facet normal 0.004600015934556723 -0.0037997369654476643 -0.9999821782112122
 outer loop
  vertex 455500.0 5431500.0 3783.5
  vertex 456500.0 5431500.0 3788.10009765625
  vertex 456500.0 5430500.0 3791.89990234375
 endloop
endfacet
facet normal -0.001999981701374054 -0.0037997697945684195 -0.9999908208847046
 outer loop
  vertex 456500.0 5431500.0 3788.10009765625
  vertex 457500.0 5430500.0 3789.89990234375
  vertex 456500.0 5430500.0 3791.89990234375
 endloop
endfacet
facet normal -0.003999900538474321 -0.005799660924822092 -0.9999752044677734
 outer loop
  vertex 456500.0 5431500.0 3788.10009765625
  vertex 457500.0 5431500.0 3784.10009765625
  vertex 457500.0 5430500.0 3789.89990234375
 endloop
endfacet
facet normal 0.0019001110922545195 -0.005799696780741215 -0.9999814033508301
 outer loop
  vertex 457500.0 5431500.0 3784.10009765625
  vertex 458500.0 5430500.0 3791.800048828125
  vertex 457500.0 5430500.0 3789.89990234375
 endloop
endfacet
facet normal -0.002799883484840393 -0.010499379597604275 -0.9999409317970276
 outer loop
  vertex 457500.0 5431500.0 3784.10009765625
  vertex 458500.0 5431500.0 3781.300048828125
  vertex 458500.0 5430500.0 3791.800048828125
 endloop
endfacet
facet normal 9.984800999518484e-05 -0.010499421507120132 -0.9999448657035828
 outer loop
  vertex 458500.0 5431500.0 3781.300048828125
  vertex 459500.0 5430500.0 3791.89990234375
  vertex 458500.0 5430500.0 3791.800048828125
 endloop
endfacet
facet normal 0.010699338279664516 0.00010009192919824272 -0.9999427795410156
 outer loop
  vertex 458500.0 5431500.0 3781.300048828125
  vertex 459500.0 5431500.0 3792.0
  vertex 459500.0 5430500.0 3791.89990234375
 endloop
endfacet
facet normal 0.0014001451199874282 0.00010009755351347849 -0.9999989867210388
 outer loop
  vertex 459500.0 5431500.0 3792.0
  vertex 460500.0 5430500.0 3793.300048828125
  vertex 459500.0 5430500.0 3791.89990234375
 endloop
endfacet
facet normal -0.015995558351278305 -0.017295246943831444 -0.9997224807739258
 outer loop
  vertex 459500.0 5431500.0 3792.0
  vertex 460500.0 5431500.0 3776.0
  vertex 460500.0 5430500.0 3793.300048828125
 endloop
endfacet
facet normal -0.01829424872994423 -0.017294565215706825 -0.9996830224990845
 outer loop
  vertex 460500.0 5431500.0 3776.0
  vertex 461500.0 5430500.0 3775.0
  vertex 460500.0 5430500.0 3793.300048828125
 endloop
endfacet
facet normal -0.0013999008806422353 -0.00039990190998651087 -0.999998927116394
 outer loop
  vertex 460500.0 5431500.0 3776.0
  vertex 461500.0 5431500.0 3774.60009765625
  vertex 461500.0 5430500.0 3775.0
 endloop
endfacet
facet normal 0.008399604819715023 -0.00039988820208236575 -0.9999646544456482
 outer loop
  vertex 461500.0 5431500.0 3774.60009765625
  vertex 462500.0 5430500.0 3783.39990234375
  vertex 461500.0 5430500.0 3775.0
 endloop
endfacet
facet normal 0.008399604819715023 -0.00039988820208236575 -0.9999646544456482
 outer loop
  vertex 461500.0 5431500.0 3774.60009765625
  vertex 462500.0 5431500.0 3783.0
  vertex 462500.0 5430500.0 3783.39990234375
 endloop
endfacet
facet normal 0.0018000458367168903 -0.0003999016771558672 -0.9999983310699463
 outer loop
  vertex 462500.0 5431500.0 3783.0
  vertex 463500.0 5430500.0 3785.199951171875
  vertex 462500.0 5430500.0 3783.39990234375
 endloop
endfacet
facet normal -0.008599277585744858 -0.01079901959747076 -0.9999046921730042
 outer loop
  vertex 462500.0 5431500.0 3783.0
  vertex 463500.0 5431500.0 3774.39990234375
  vertex 463500.0 5430500.0 3785.199951171875
 endloop
endfacet
facet normal -0.00969880260527134 -0.013898150064051151 -0.9998564124107361
 outer loop
  vertex 449500.0 5432500.0 3686.699951171875
  vertex 450500.0 5431500.0 3690.89990234375
  vertex 449500.0 5431500.0 3700.60009765625
 endloop
endfacet
facet normal -0.0013998791109770536 -0.005599760450422764 -0.9999833703041077
 outer loop
  vertex 449500.0 5432500.0 3686.699951171875
  vertex 450500.0 5432500.0 3685.300048828125
  vertex 450500.0 5431500.0 3690.89990234375
 endloop
endfacet
facet normal 0.005200043320655823 -0.00559969013556838 -0.9999707937240601
 outer loop
  vertex 450500.0 5432500.0 3685.300048828125
  vertex 451500.0 5431500.0 3696.10009765625
  vertex 450500.0 5431500.0 3690.89990234375
 endloop
endfacet
facet normal 0.0016998782521113753 -0.009099707938730717 -0.9999571442604065
 outer loop
  vertex 450500.0 5432500.0 3685.300048828125
  vertex 451500.0 5432500.0 3687.0
  vertex 451500.0 5431500.0 3696.10009765625
 endloop
endfacet
facet normal 0.08320700377225876 -0.00906816590577364 -0.996491014957428
 outer loop
  vertex 451500.0 5432500.0 3687.0
  vertex 452500.0 5431500.0 3779.60009765625
  vertex 451500.0 5431500.0 3696.10009765625
 endloop
endfacet
facet normal 0.0017926710424944758 -0.09042789041996002 -0.995901346206665
 outer loop
  vertex 451500.0 5432500.0 3687.0
  vertex 452500.0 5432500.0 3688.800048828125
  vertex 452500.0 5431500.0 3779.60009765625
 endloop
endfacet
facet normal -0.011253038421273232 -0.09042230993509293 -0.9958399534225464
 outer loop
  vertex 452500.0 5432500.0 3688.800048828125
  vertex 453500.0 5431500.0 3768.300048828125
  vertex 452500.0 5431500.0 3779.60009765625
 endloop
endfacet
facet normal 0.0034899143502116203 -0.07578099519014359 -0.9971184134483337
 outer loop
  vertex 452500.0 5432500.0 3688.800048828125
  vertex 453500.0 5432500.0 3692.300048828125
  vertex 453500.0 5431500.0 3768.300048828125
 endloop
endfacet
facet normal 0.01645032688975334 -0.07577120512723923 -0.9969895482063293
 outer loop
  vertex 453500.0 5432500.0 3692.300048828125
  vertex 454500.0 5431500.0 3784.800048828125
  vertex 453500.0 5431500.0 3768.300048828125
 endloop
endfacet
facet normal 0.094179168343544 0.0020905137062072754 -0.9955530762672424
 outer loop
  vertex 453500.0 5432500.0 3692.300048828125
  vertex 454500.0 5432500.0 3786.89990234375
  vertex 454500.0 5431500.0 3784.800048828125
 endloop
endfacet
facet normal -0.0013000448234379292 0.002099847188219428 -0.9999969601631165
 outer loop
  vertex 454500.0 5432500.0 3786.89990234375
  vertex 455500.0 5431500.0 3783.5
  vertex 454500.0 5431500.0 3784.800048828125
 endloop
endfacet
facet normal 0.005599782802164555 0.008999493904411793 -0.9999437928199768
 outer loop
  vertex 454500.0 5432500.0 3786.89990234375
  vertex 455500.0 5432500.0 3792.5
  vertex 455500.0 5431500.0 3783.5
 endloop
endfacet
facet normal 0.004599862731993198 0.008999540470540524 -0.9999489188194275
 outer loop
  vertex 455500.0 5432500.0 3792.5
  vertex 456500.0 5431500.0 3788.10009765625
  vertex 455500.0 5431500.0 3783.5
 endloop
endfacet
facet normal -0.010499225929379463 -0.006099647842347622 -0.9999262690544128
 outer loop
  vertex 455500.0 5432500.0 3792.5
  vertex 456500.0 5432500.0 3782.0
  vertex 456500.0 5431500.0 3788.10009765625
 endloop
endfacet
facet normal -0.003999893553555012 -0.006099935155361891 -0.9999733567237854
 outer loop
  vertex 456500.0 5432500.0 3782.0
  vertex 457500.0 5431500.0 3784.10009765625
  vertex 456500.0 5431500.0 3788.10009765625
 endloop
endfacet
facet normal -0.0076993536204099655 -0.009799288585782051 -0.9999223947525024
 outer loop
  vertex 456500.0 5432500.0 3782.0
  vertex 457500.0 5432500.0 3774.300048828125
  vertex 457500.0 5431500.0 3784.10009765625
 endloop
endfacet
facet normal -0.0027999035082757473 -0.009799540042877197 -0.9999480843544006
 outer loop
  vertex 457500.0 5432500.0 3774.300048828125
  vertex 458500.0 5431500.0 3781.300048828125
  vertex 457500.0 5431500.0 3784.10009765625
 endloop
endfacet
facet normal 0.0034999570343643427 -0.0034999570343643427 -0.9999877214431763
 outer loop
  vertex 457500.0 5432500.0 3774.300048828125
  vertex 458500.0 5432500.0 3777.800048828125
  vertex 458500.0 5431500.0 3781.300048828125
 endloop
endfacet
facet normal 0.010699273087084293 -0.0034997782204300165 -0.9999366402626038
 outer loop
  vertex 458500.0 5432500.0 3777.800048828125
  vertex 459500.0 5431500.0 3792.0
  vertex 458500.0 5431500.0 3781.300048828125
 endloop
endfacet
facet normal 0.00839942879974842 -0.0064996336586773396 -0.9999436140060425
 outer loop
  vertex 461500.0 5432500.0 3768.10009765625
  vertex 462500.0 5431500.0 3783.0
  vertex 461500.0 5431500.0 3774.60009765625
 endloop
endfacet
facet normal 0.011999085545539856 -0.0028996814507991076 -0.999923825263977
 outer loop
  vertex 461500.0 5432500.0 3768.10009765625
  vertex 462500.0 5432500.0 3780.10009765625
  vertex 462500.0 5431500.0 3783.0
 endloop
endfacet
facet normal -0.008599743247032166 -0.0028997829649597406 -0.9999588131904602
 outer loop
  vertex 462500.0 5432500.0 3780.10009765625
  vertex 463500.0 5431500.0 3774.39990234375
  vertex 462500.0 5431500.0 3783.0
 endloop
endfacet
facet normal -0.0013999005313962698 0.0008000477682799101 -0.9999986886978149
 outer loop
  vertex 449500.0 5433500.0 3687.5
  vertex 450500.0 5432500.0 3685.300048828125
  vertex 449500.0 5432500.0 3686.699951171875
 endloop
endfacet
facet normal 0.0003999009495601058 0.0025998444762080908 -0.9999964833259583
 outer loop
  vertex 449500.0 5433500.0 3687.5
  vertex 450500.0 5433500.0 3687.89990234375
  vertex 450500.0 5432500.0 3685.300048828125
 endloop
endfacet
facet normal 0.001699942979030311 0.002599840983748436 -0.9999951720237732
 outer loop
  vertex 450500.0 5433500.0 3687.89990234375
  vertex 451500.0 5432500.0 3687.0
  vertex 450500.0 5432500.0 3685.300048828125
 endloop
endfacet
facet normal 0.007199772633612156 0.008099622093141079 -0.9999412894248962
 outer loop
  vertex 450500.0 5433500.0 3687.89990234375
  vertex 451500.0 5433500.0 3695.10009765625
  vertex 451500.0 5432500.0 3687.0
 endloop
endfacet
facet normal 0.001799986814148724 0.008099818602204323 -0.9999655485153198
 outer loop
  vertex 451500.0 5433500.0 3695.10009765625
  vertex 452500.0 5432500.0 3688.800048828125
  vertex 451500.0 5432500.0 3687.0
 endloop
endfacet
facet normal -0.014198320917785168 -0.007899103686213493 -0.9998680353164673
 outer loop
  vertex 451500.0 5433500.0 3695.10009765625
  vertex 452500.0 5433500.0 3680.89990234375
  vertex 452500.0 5432500.0 3688.800048828125
 endloop
endfacet
facet normal 0.003499869490042329 -0.00789985153824091 -0.9999626874923706
 outer loop
  vertex 452500.0 5433500.0 3680.89990234375
  vertex 453500.0 5432500.0 3692.300048828125
  vertex 452500.0 5432500.0 3688.800048828125
 endloop
endfacet
facet normal 0.02129417471587658 0.009897172451019287 -0.999724268913269
 outer loop
  vertex 452500.0 5433500.0 3680.89990234375
  vertex 453500.0 5433500.0 3702.199951171875
  vertex 453500.0 5432500.0 3692.300048828125
 endloop
endfacet
facet normal 0.0941748097538948 0.009855421259999275 -0.9955068826675415
 outer loop
  vertex 453500.0 5433500.0 3702.199951171875
  vertex 454500.0 5432500.0 3786.89990234375
  vertex 453500.0 5432500.0 3692.300048828125
 endloop
endfacet
facet normal 0.0696229413151741 -0.014862099662423134 -0.9974626302719116
 outer loop
  vertex 453500.0 5433500.0 3702.199951171875
  vertex 454500.0 5433500.0 3772.0
  vertex 454500.0 5432500.0 3786.89990234375
 endloop
endfacet
facet normal 0.005599388387054205 -0.014898015186190605 -0.9998733401298523
 outer loop
  vertex 454500.0 5433500.0 3772.0
  vertex 455500.0 5432500.0 3792.5
  vertex 454500.0 5432500.0 3786.89990234375
 endloop
endfacet
facet normal 0.05746537819504738 0.037013325840234756 -0.9976611137390137
 outer loop
  vertex 454500.0 5433500.0 3772.0
  vertex 455500.0 5433500.0 3829.60009765625
  vertex 455500.0 5432500.0 3792.5
 endloop
endfacet
facet normal -0.010492203757166862 0.037072550505399704 -0.999257504940033
 outer loop
  vertex 455500.0 5433500.0 3829.60009765625
  vertex 456500.0 5432500.0 3782.0
  vertex 455500.0 5432500.0 3792.5
 endloop
endfacet
facet normal -0.0513320155441761 -0.003795013530179858 -0.9986744523048401
 outer loop
  vertex 455500.0 5433500.0 3829.60009765625
  vertex 456500.0 5433500.0 3778.199951171875
  vertex 456500.0 5432500.0 3782.0
 endloop
endfacet
facet normal -0.007699667476117611 -0.003799908794462681 -0.999963104724884
 outer loop
  vertex 456500.0 5433500.0 3778.199951171875
  vertex 457500.0 5432500.0 3774.300048828125
  vertex 456500.0 5432500.0 3782.0
 endloop
endfacet
facet normal -0.011598729528486729 -0.007699204608798027 -0.9999030828475952
 outer loop
  vertex 456500.0 5433500.0 3778.199951171875
  vertex 457500.0 5433500.0 3766.60009765625
  vertex 457500.0 5432500.0 3774.300048828125
 endloop
endfacet
facet normal 0.003499874845147133 -0.0076996758580207825 -0.9999642372131348
 outer loop
  vertex 457500.0 5433500.0 3766.60009765625
  vertex 458500.0 5432500.0 3777.800048828125
  vertex 457500.0 5432500.0 3774.300048828125
 endloop
endfacet
facet normal 0.004599704407155514 -0.0065998840145766735 -0.999967634677887
 outer loop
  vertex 457500.0 5433500.0 3766.60009765625
  vertex 458500.0 5433500.0 3771.199951171875
  vertex 458500.0 5432500.0 3777.800048828125
 endloop
endfacet
facet normal 0.007199847139418125 -0.006699627265334129 -0.9999516010284424
 outer loop
  vertex 450500.0 5434500.0 3681.199951171875
  vertex 451500.0 5433500.0 3695.10009765625
  vertex 450500.0 5433500.0 3687.89990234375
 endloop
endfacet
facet normal -0.009896614588797092 -0.023792145773768425 -0.9996679425239563
 outer loop
  vertex 450500.0 5434500.0 3681.199951171875
  vertex 451500.0 5434500.0 3671.300048828125
  vertex 451500.0 5433500.0 3695.10009765625
 endloop
endfacet
facet normal -0.014194745570421219 -0.023790914565324783 -0.9996162056922913
 outer loop
  vertex 451500.0 5434500.0 3671.300048828125
  vertex 452500.0 5433500.0 3680.89990234375
  vertex 451500.0 5433500.0 3695.10009765625
 endloop
endfacet
facet normal -0.017690591514110565 -0.027285367250442505 -0.999471127986908
 outer loop
  vertex 451500.0 5434500.0 3671.300048828125
  vertex 452500.0 5434500.0 3653.60009765625
  vertex 452500.0 5433500.0 3680.89990234375
 endloop
endfacet
facet normal 0.021287288516759872 -0.027283452451229095 -0.9994010329246521
 outer loop
  vertex 452500.0 5434500.0 3653.60009765625
  vertex 453500.0 5433500.0 3702.199951171875
  vertex 452500.0 5433500.0 3680.89990234375
 endloop
endfacet
facet normal 0.04266033694148064 -0.005894424859434366 -0.999072253704071
 outer loop
  vertex 452500.0 5434500.0 3653.60009765625
  vertex 453500.0 5434500.0 3696.300048828125
  vertex 453500.0 5433500.0 3702.199951171875
 endloop
endfacet
facet normal 0.06962942332029343 -0.005885480437427759 -0.9975555539131165
 outer loop
  vertex 453500.0 5434500.0 3696.300048828125
  vertex 454500.0 5433500.0 3772.0
  vertex 453500.0 5433500.0 3702.199951171875
 endloop
endfacet
facet normal -0.006577716208994389 -0.08202096074819565 -0.9966089129447937
 outer loop
  vertex 453500.0 5434500.0 3696.300048828125
  vertex 454500.0 5434500.0 3689.699951171875
  vertex 454500.0 5433500.0 3772.0
 endloop
endfacet
facet normal 0.05731165036559105 -0.08188791573047638 -0.9949923157691956
 outer loop
  vertex 454500.0 5434500.0 3689.699951171875
  vertex 455500.0 5433500.0 3829.60009765625
  vertex 454500.0 5433500.0 3772.0
 endloop
endfacet
facet normal 0.07662221044301987 -0.06259153038263321 -0.9950936436653137
 outer loop
  vertex 454500.0 5434500.0 3689.699951171875
  vertex 455500.0 5434500.0 3766.699951171875
  vertex 455500.0 5433500.0 3829.60009765625
 endloop
endfacet
facet normal -0.05123140290379524 -0.06269364804029465 -0.9967169761657715
 outer loop
  vertex 455500.0 5434500.0 3766.699951171875
  vertex 456500.0 5433500.0 3778.199951171875
  vertex 455500.0 5433500.0 3829.60009765625
 endloop
endfacet
facet normal 0.004599076695740223 0.017796797677874565 -0.9998310804367065
 outer loop
  vertex 457500.0 5434500.0 3784.39990234375
  vertex 458500.0 5433500.0 3771.199951171875
  vertex 457500.0 5433500.0 3766.60009765625
 endloop
endfacet
facet normal -0.017697177827358246 -0.00040008380892686546 -0.9998433589935303
 outer loop
  vertex 451500.0 5435500.0 3670.89990234375
  vertex 452500.0 5434500.0 3653.60009765625
  vertex 451500.0 5434500.0 3671.300048828125
 endloop
endfacet
facet normal -0.0021996167488396168 -0.017297174781560898 -0.999847948551178
 outer loop
  vertex 456500.0 5435500.0 3769.300048828125
  vertex 457500.0 5435500.0 3767.10009765625
  vertex 457500.0 5434500.0 3784.39990234375
 endloop
endfacet
endsolid
