solid
facet normal -0.43268516659736633 -0.5421710014343262 -0.7203013896942139
 outer loop
  vertex 684500.0 5530500.0 6535.0
  vertex 685500.0 5529500.0 6687.0
  vertex 684500.0 5529500.0 7287.7001953125
 endloop
endfacet
facet normal -0.1223336011171341 -0.2676047384738922 -0.9557312726974487
 outer loop
  vertex 684500.0 5530500.0 6535.0
  vertex 685500.0 5530500.0 6407.0
  vertex 685500.0 5529500.0 6687.0
 endloop
endfacet
facet normal 0.10737307369709015 -0.006859853398054838 -0.9941951632499695
 outer loop
  vertex 683500.0 5531500.0 6420.10009765625
  vertex 684500.0 5531500.0 6528.10009765625
  vertex 684500.0 5530500.0 6535.0
 endloop
endfacet
facet normal -0.12696115672588348 -0.0068439035676419735 -0.9918841123580933
 outer loop
  vertex 684500.0 5531500.0 6528.10009765625
  vertex 685500.0 5530500.0 6407.0
  vertex 684500.0 5530500.0 6535.0
 endloop
endfacet
facet normal -0.20694145560264587 -0.08895350247621536 -0.9743010401725769
 outer loop
  vertex 684500.0 5531500.0 6528.10009765625
  vertex 685500.0 5531500.0 6315.7001953125
  vertex 685500.0 5530500.0 6407.0
 endloop
endfacet
facet normal 0.2938494384288788 -0.08690761029720306 -0.9518926739692688
 outer loop
  vertex 685500.0 5531500.0 6315.7001953125
  vertex 686500.0 5530500.0 6715.7001953125
  vertex 685500.0 5530500.0 6407.0
 endloop
endfacet
facet normal 0.21790286898612976 -0.1667454093694687 -0.9616206884384155
 outer loop
  vertex 685500.0 5531500.0 6315.7001953125
  vertex 686500.0 5531500.0 6542.2998046875
  vertex 686500.0 5530500.0 6715.7001953125
 endloop
endfacet
facet normal 0.0681222602725029 -0.1704539805650711 -0.9830080270767212
 outer loop
  vertex 686500.0 5531500.0 6542.2998046875
  vertex 687500.0 5530500.0 6785.0
  vertex 686500.0 5530500.0 6715.7001953125
 endloop
endfacet
facet normal 0.0038906645495444536 -0.23217558860778809 -0.9726661443710327
 outer loop
  vertex 686500.0 5531500.0 6542.2998046875
  vertex 687500.0 5531500.0 6546.2998046875
  vertex 687500.0 5530500.0 6785.0
 endloop
endfacet
facet normal -0.5685035586357117 -0.14417101442813873 -0.8099496364593506
 outer loop
  vertex 682500.0 5532500.0 6944.0
  vertex 683500.0 5532500.0 6242.10009765625
  vertex 683500.0 5531500.0 6420.10009765625
 endloop
endfacet
facet normal 0.10573266446590424 -0.1742630898952484 -0.9790061116218567
 outer loop
  vertex 683500.0 5532500.0 6242.10009765625
  vertex 684500.0 5531500.0 6528.10009765625
  vertex 683500.0 5531500.0 6420.10009765625
 endloop
endfacet
facet normal -0.03048105724155903 -0.30290549993515015 -0.9525330066680908
 outer loop
  vertex 683500.0 5532500.0 6242.10009765625
  vertex 684500.0 5532500.0 6210.10009765625
  vertex 684500.0 5531500.0 6528.10009765625
 endloop
endfacet
facet normal -0.1983887255191803 -0.2970227897167206 -0.934033989906311
 outer loop
  vertex 684500.0 5532500.0 6210.10009765625
  vertex 685500.0 5531500.0 6315.7001953125
  vertex 684500.0 5531500.0 6528.10009765625
 endloop
endfacet
facet normal 0.01433891337364912 -0.09081391990184784 -0.9957646131515503
 outer loop
  vertex 684500.0 5532500.0 6210.10009765625
  vertex 685500.0 5532500.0 6224.5
  vertex 685500.0 5531500.0 6315.7001953125
 endloop
endfacet
facet normal 0.22012780606746674 -0.08859546482563019 -0.9714394211769104
 outer loop
  vertex 685500.0 5532500.0 6224.5
  vertex 686500.0 5531500.0 6542.2998046875
  vertex 685500.0 5531500.0 6315.7001953125
 endloop
endfacet
facet normal 0.42158791422843933 0.13670462369918823 -0.8964237570762634
 outer loop
  vertex 685500.0 5532500.0 6224.5
  vertex 686500.0 5532500.0 6694.7998046875
  vertex 686500.0 5531500.0 6542.2998046875
 endloop
endfacet
facet normal 0.003954252693802118 0.1507558822631836 -0.9885631203651428
 outer loop
  vertex 686500.0 5532500.0 6694.7998046875
  vertex 687500.0 5531500.0 6546.2998046875
  vertex 686500.0 5531500.0 6542.2998046875
 endloop
endfacet
facet normal 0.14093337953090668 0.28186675906181335 -0.9490463137626648
 outer loop
  vertex 686500.0 5532500.0 6694.7998046875
  vertex 687500.0 5532500.0 6843.2998046875
  vertex 687500.0 5531500.0 6546.2998046875
 endloop
endfacet
facet normal 0.11783726513385773 -0.541834831237793 -0.8321835398674011
 outer loop
  vertex 681500.0 5533500.0 6151.2998046875
  vertex 682500.0 5533500.0 6292.89990234375
  vertex 682500.0 5532500.0 6944.0
 endloop
endfacet
facet normal -0.5070024132728577 -0.4703082740306854 -0.7223286628723145
 outer loop
  vertex 682500.0 5533500.0 6292.89990234375
  vertex 683500.0 5532500.0 6242.10009765625
  vertex 682500.0 5532500.0 6944.0
 endloop
endfacet
facet normal -0.1458282172679901 -0.09580768644809723 -0.9846598505973816
 outer loop
  vertex 682500.0 5533500.0 6292.89990234375
  vertex 683500.0 5533500.0 6144.7998046875
  vertex 683500.0 5532500.0 6242.10009765625
 endloop
endfacet
facet normal -0.031833451241254807 -0.09679386764764786 -0.9947952032089233
 outer loop
  vertex 683500.0 5533500.0 6144.7998046875
  vertex 684500.0 5532500.0 6210.10009765625
  vertex 683500.0 5532500.0 6242.10009765625
 endloop
endfacet
facet normal 0.10757245123386383 0.04271101951599121 -0.9932793974876404
 outer loop
  vertex 683500.0 5533500.0 6144.7998046875
  vertex 684500.0 5533500.0 6253.10009765625
  vertex 684500.0 5532500.0 6210.10009765625
 endloop
endfacet
facet normal 0.014385119080543518 0.042955853044986725 -0.9989733695983887
 outer loop
  vertex 684500.0 5533500.0 6253.10009765625
  vertex 685500.0 5532500.0 6224.5
  vertex 684500.0 5532500.0 6210.10009765625
 endloop
endfacet
facet normal -0.1126675084233284 -0.08435210585594177 -0.9900458455085754
 outer loop
  vertex 684500.0 5533500.0 6253.10009765625
  vertex 685500.0 5533500.0 6139.2998046875
  vertex 685500.0 5532500.0 6224.5
 endloop
endfacet
facet normal 0.42432403564453125 -0.07687115669250488 -0.902241587638855
 outer loop
  vertex 685500.0 5533500.0 6139.2998046875
  vertex 686500.0 5532500.0 6694.7998046875
  vertex 685500.0 5532500.0 6224.5
 endloop
endfacet
facet normal 0.4555412828922272 -0.0385100431740284 -0.8893812894821167
 outer loop
  vertex 685500.0 5533500.0 6139.2998046875
  vertex 686500.0 5533500.0 6651.5
  vertex 686500.0 5532500.0 6694.7998046875
 endloop
endfacet
facet normal 0.1467546671628952 -0.04279090091586113 -0.9882469773292542
 outer loop
  vertex 686500.0 5533500.0 6651.5
  vertex 687500.0 5532500.0 6843.2998046875
  vertex 686500.0 5532500.0 6694.7998046875
 endloop
endfacet
facet normal 0.032375916838645935 -0.15694516897201538 -0.9870765209197998
 outer loop
  vertex 686500.0 5533500.0 6651.5
  vertex 687500.0 5533500.0 6684.2998046875
  vertex 687500.0 5532500.0 6843.2998046875
 endloop
endfacet
facet normal -0.1606314331293106 0.2758691906929016 -0.9476780891418457
 outer loop
  vertex 680500.0 5534500.0 6611.89990234375
  vertex 681500.0 5534500.0 6442.39990234375
  vertex 681500.0 5533500.0 6151.2998046875
 endloop
endfacet
facet normal 0.1347174048423767 0.2769507169723511 -0.9513934254646301
 outer loop
  vertex 681500.0 5534500.0 6442.39990234375
  vertex 682500.0 5533500.0 6292.89990234375
  vertex 681500.0 5533500.0 6151.2998046875
 endloop
endfacet
facet normal -0.34606799483299255 -0.2093418389558792 -0.9145562052726746
 outer loop
  vertex 681500.0 5534500.0 6442.39990234375
  vertex 682500.0 5534500.0 6064.0
  vertex 682500.0 5533500.0 6292.89990234375
 endloop
endfacet
facet normal -0.1428850293159485 -0.22083963453769684 -0.9647868871688843
 outer loop
  vertex 682500.0 5534500.0 6064.0
  vertex 683500.0 5533500.0 6144.7998046875
  vertex 682500.0 5533500.0 6292.89990234375
 endloop
endfacet
facet normal 0.06306462734937668 -0.017561856657266617 -0.9978549480438232
 outer loop
  vertex 682500.0 5534500.0 6064.0
  vertex 683500.0 5534500.0 6127.2001953125
  vertex 683500.0 5533500.0 6144.7998046875
 endloop
endfacet
facet normal 0.10765422880649567 -0.017494618892669678 -0.994034469127655
 outer loop
  vertex 683500.0 5534500.0 6127.2001953125
  vertex 684500.0 5533500.0 6253.10009765625
  vertex 683500.0 5533500.0 6144.7998046875
 endloop
endfacet
facet normal -0.0426546186208725 -0.16667716205120087 -0.9850884675979614
 outer loop
  vertex 683500.0 5534500.0 6127.2001953125
  vertex 684500.0 5534500.0 6083.89990234375
  vertex 684500.0 5533500.0 6253.10009765625
 endloop
endfacet
facet normal -0.11150573194026947 -0.16578860580921173 -0.9798370599746704
 outer loop
  vertex 684500.0 5534500.0 6083.89990234375
  vertex 685500.0 5533500.0 6139.2998046875
  vertex 684500.0 5533500.0 6253.10009765625
 endloop
endfacet
facet normal 0.007291668560355902 -0.04804278537631035 -0.9988186359405518
 outer loop
  vertex 684500.0 5534500.0 6083.89990234375
  vertex 685500.0 5534500.0 6091.2001953125
  vertex 685500.0 5533500.0 6139.2998046875
 endloop
endfacet
facet normal 0.455462247133255 -0.04277146980166435 -0.8892269730567932
 outer loop
  vertex 685500.0 5534500.0 6091.2001953125
  vertex 686500.0 5533500.0 6651.5
  vertex 685500.0 5533500.0 6139.2998046875
 endloop
endfacet
facet normal 0.2178100049495697 -0.30216896533966064 -0.9280369877815247
 outer loop
  vertex 685500.0 5534500.0 6091.2001953125
  vertex 686500.0 5534500.0 6325.89990234375
  vertex 686500.0 5533500.0 6651.5
 endloop
endfacet
facet normal 0.03117307648062706 -0.3094516694545746 -0.9504041075706482
 outer loop
  vertex 686500.0 5534500.0 6325.89990234375
  vertex 687500.0 5533500.0 6684.2998046875
  vertex 686500.0 5533500.0 6651.5
 endloop
endfacet
facet normal -0.018609365448355675 -0.353766530752182 -0.9351485967636108
 outer loop
  vertex 686500.0 5534500.0 6325.89990234375
  vertex 687500.0 5534500.0 6306.0
  vertex 687500.0 5533500.0 6684.2998046875
 endloop
endfacet
facet normal -0.17362818121910095 -0.3484536409378052 -0.9211044311523438
 outer loop
  vertex 687500.0 5534500.0 6306.0
  vertex 688500.0 5533500.0 6495.7998046875
  vertex 687500.0 5533500.0 6684.2998046875
 endloop
endfacet
facet normal 0.08115866035223007 -0.10692334175109863 -0.9909493327140808
 outer loop
  vertex 687500.0 5534500.0 6306.0
  vertex 688500.0 5534500.0 6387.89990234375
  vertex 688500.0 5533500.0 6495.7998046875
 endloop
endfacet
facet normal -0.24038882553577423 0.033662401139736176 -0.9700928330421448
 outer loop
  vertex 679500.0 5535500.0 6894.39990234375
  vertex 680500.0 5535500.0 6646.60009765625
  vertex 680500.0 5534500.0 6611.89990234375
 endloop
endfacet
facet normal -0.16701863706111908 0.03419220820069313 -0.9853606820106506
 outer loop
  vertex 680500.0 5535500.0 6646.60009765625
  vertex 681500.0 5534500.0 6442.39990234375
  vertex 680500.0 5534500.0 6611.89990234375
 endloop
endfacet
facet normal -0.3059960901737213 -0.1129642054438591 -0.9453071355819702
 outer loop
  vertex 680500.0 5535500.0 6646.60009765625
  vertex 681500.0 5535500.0 6322.89990234375
  vertex 681500.0 5534500.0 6442.39990234375
 endloop
endfacet
facet normal -0.35171976685523987 -0.11107432097196579 -0.9294922351837158
 outer loop
  vertex 681500.0 5535500.0 6322.89990234375
  vertex 682500.0 5534500.0 6064.0
  vertex 681500.0 5534500.0 6442.39990234375
 endloop
endfacet
facet normal 0.00811473187059164 0.2582251727581024 -0.9660506844520569
 outer loop
  vertex 681500.0 5535500.0 6322.89990234375
  vertex 682500.0 5535500.0 6331.2998046875
  vertex 682500.0 5534500.0 6064.0
 endloop
endfacet
facet normal 0.0609431229531765 0.2577536702156067 -0.9642868041992188
 outer loop
  vertex 682500.0 5535500.0 6331.2998046875
  vertex 683500.0 5534500.0 6127.2001953125
  vertex 682500.0 5534500.0 6064.0
 endloop
endfacet
facet normal -0.3282918334007263 -0.13755950331687927 -0.9345061779022217
 outer loop
  vertex 682500.0 5535500.0 6331.2998046875
  vertex 683500.0 5535500.0 5980.0
  vertex 683500.0 5534500.0 6127.2001953125
 endloop
endfacet
facet normal -0.04279940202832222 -0.14549744129180908 -0.9884324073791504
 outer loop
  vertex 683500.0 5535500.0 5980.0
  vertex 684500.0 5534500.0 6083.89990234375
  vertex 683500.0 5534500.0 6127.2001953125
 endloop
endfacet
facet normal 0.030204283073544502 -0.07336807250976562 -0.9968474507331848
 outer loop
  vertex 683500.0 5535500.0 5980.0
  vertex 684500.0 5535500.0 6010.2998046875
  vertex 684500.0 5534500.0 6083.89990234375
 endloop
endfacet
facet normal 0.00728041073307395 -0.0733996108174324 -0.9972760081291199
 outer loop
  vertex 684500.0 5535500.0 6010.2998046875
  vertex 685500.0 5534500.0 6091.2001953125
  vertex 684500.0 5534500.0 6083.89990234375
 endloop
endfacet
facet normal 0.10478866845369339 0.024357806891202927 -0.9941961765289307
 outer loop
  vertex 684500.0 5535500.0 6010.2998046875
  vertex 685500.0 5535500.0 6115.7001953125
  vertex 685500.0 5534500.0 6091.2001953125
 endloop
endfacet
facet normal 0.228425994515419 0.023845095187425613 -0.9732692241668701
 outer loop
  vertex 685500.0 5535500.0 6115.7001953125
  vertex 686500.0 5534500.0 6325.89990234375
  vertex 685500.0 5534500.0 6091.2001953125
 endloop
endfacet
facet normal 0.17054559290409088 -0.036433011293411255 -0.9846760034561157
 outer loop
  vertex 685500.0 5535500.0 6115.7001953125
  vertex 686500.0 5535500.0 6288.89990234375
  vertex 686500.0 5534500.0 6325.89990234375
 endloop
endfacet
facet normal -0.019882364198565483 -0.03696738928556442 -0.9991186261177063
 outer loop
  vertex 686500.0 5535500.0 6288.89990234375
  vertex 687500.0 5534500.0 6306.0
  vertex 686500.0 5534500.0 6325.89990234375
 endloop
endfacet
facet normal 0.173637256026268 0.15701232850551605 -0.9722126126289368
 outer loop
  vertex 686500.0 5535500.0 6288.89990234375
  vertex 687500.0 5535500.0 6467.5
  vertex 687500.0 5534500.0 6306.0
 endloop
endfacet
facet normal 0.08058930933475494 0.15891560912132263 -0.9839975833892822
 outer loop
  vertex 687500.0 5535500.0 6467.5
  vertex 688500.0 5534500.0 6387.89990234375
  vertex 687500.0 5534500.0 6306.0
 endloop
endfacet
facet normal 0.04431524500250816 0.12322983890771866 -0.991388201713562
 outer loop
  vertex 687500.0 5535500.0 6467.5
  vertex 688500.0 5535500.0 6512.2001953125
  vertex 688500.0 5534500.0 6387.89990234375
 endloop
endfacet
facet normal 0.32264646887779236 0.11675415188074112 -0.9392910599708557
 outer loop
  vertex 688500.0 5535500.0 6512.2001953125
  vertex 689500.0 5534500.0 6731.39990234375
  vertex 688500.0 5534500.0 6387.89990234375
 endloop
endfacet
facet normal 0.4677411615848541 0.2842937707901001 -0.8368961811065674
 outer loop
  vertex 688500.0 5535500.0 6512.2001953125
  vertex 689500.0 5535500.0 7071.10009765625
  vertex 689500.0 5534500.0 6731.39990234375
 endloop
endfacet
facet normal 0.5665369629859924 0.26504984498023987 -0.7802463173866272
 outer loop
  vertex 689500.0 5535500.0 7071.10009765625
  vertex 690500.0 5534500.0 7457.5
  vertex 689500.0 5534500.0 6731.39990234375
 endloop
endfacet
facet normal -0.2388724535703659 -0.11702629178762436 -0.9639734625816345
 outer loop
  vertex 679500.0 5536500.0 6773.0
  vertex 680500.0 5535500.0 6646.60009765625
  vertex 679500.0 5535500.0 6894.39990234375
 endloop
endfacet
facet normal -0.4256094992160797 -0.31855079531669617 -0.8469840884208679
 outer loop
  vertex 679500.0 5536500.0 6773.0
  vertex 680500.0 5536500.0 6270.5
  vertex 680500.0 5535500.0 6646.60009765625
 endloop
endfacet
facet normal -0.2899634838104248 -0.3369021713733673 -0.8957779407501221
 outer loop
  vertex 680500.0 5536500.0 6270.5
  vertex 681500.0 5535500.0 6322.89990234375
  vertex 680500.0 5535500.0 6646.60009765625
 endloop
endfacet
facet normal -0.07458329200744629 -0.1264156848192215 -0.9891695976257324
 outer loop
  vertex 680500.0 5536500.0 6270.5
  vertex 681500.0 5536500.0 6195.10009765625
  vertex 681500.0 5535500.0 6322.89990234375
 endloop
endfacet
facet normal 0.008331841789186 -0.12676435708999634 -0.9918978810310364
 outer loop
  vertex 681500.0 5536500.0 6195.10009765625
  vertex 682500.0 5535500.0 6331.2998046875
  vertex 681500.0 5535500.0 6322.89990234375
 endloop
endfacet
facet normal -0.22371388971805573 -0.34772586822509766 -0.9105157852172852
 outer loop
  vertex 681500.0 5536500.0 6195.10009765625
  vertex 682500.0 5536500.0 5949.39990234375
  vertex 682500.0 5535500.0 6331.2998046875
 endloop
endfacet
facet normal -0.3118191361427307 -0.3389802575111389 -0.887615442276001
 outer loop
  vertex 682500.0 5536500.0 5949.39990234375
  vertex 683500.0 5535500.0 5980.0
  vertex 682500.0 5535500.0 6331.2998046875
 endloop
endfacet
facet normal 0.03926849365234375 0.008693155832588673 -0.9991909265518188
 outer loop
  vertex 682500.0 5536500.0 5949.39990234375
  vertex 683500.0 5536500.0 5988.7001953125
  vertex 683500.0 5535500.0 5980.0
 endloop
endfacet
facet normal 0.030284760519862175 0.00869587529450655 -0.999503493309021
 outer loop
  vertex 683500.0 5536500.0 5988.7001953125
  vertex 684500.0 5535500.0 6010.2998046875
  vertex 683500.0 5535500.0 5980.0
 endloop
endfacet
facet normal 0.13285408914089203 0.11158204823732376 -0.984834611415863
 outer loop
  vertex 683500.0 5536500.0 5988.7001953125
  vertex 684500.0 5536500.0 6123.60009765625
  vertex 684500.0 5535500.0 6010.2998046875
 endloop
endfacet
facet normal 0.10416064411401749 0.11196763068437576 -0.988237738609314
 outer loop
  vertex 684500.0 5536500.0 6123.60009765625
  vertex 685500.0 5535500.0 6115.7001953125
  vertex 684500.0 5535500.0 6010.2998046875
 endloop
endfacet
facet normal 0.11340487748384476 0.12119520455598831 -0.9861293435096741
 outer loop
  vertex 684500.0 5536500.0 6123.60009765625
  vertex 685500.0 5536500.0 6238.60009765625
  vertex 685500.0 5535500.0 6115.7001953125
 endloop
endfacet
facet normal 0.16942119598388672 0.12021872401237488 -0.9781839847564697
 outer loop
  vertex 685500.0 5536500.0 6238.60009765625
  vertex 686500.0 5535500.0 6288.89990234375
  vertex 685500.0 5535500.0 6115.7001953125
 endloop
endfacet
facet normal 0.02698284573853016 -0.023285001516342163 -0.9993646740913391
 outer loop
  vertex 685500.0 5536500.0 6238.60009765625
  vertex 686500.0 5536500.0 6265.60009765625
  vertex 686500.0 5535500.0 6288.89990234375
 endloop
endfacet
facet normal 0.17577175796031952 -0.022930826991796494 -0.9841638803482056
 outer loop
  vertex 686500.0 5536500.0 6265.60009765625
  vertex 687500.0 5535500.0 6467.5
  vertex 686500.0 5535500.0 6288.89990234375
 endloop
endfacet
facet normal -0.04661322757601738 -0.24227198958396912 -0.9690879583358765
 outer loop
  vertex 686500.0 5536500.0 6265.60009765625
  vertex 687500.0 5536500.0 6217.5
  vertex 687500.0 5535500.0 6467.5
 endloop
endfacet
facet normal 0.04332483187317848 -0.2423078864812851 -0.9692315459251404
 outer loop
  vertex 687500.0 5536500.0 6217.5
  vertex 688500.0 5535500.0 6512.2001953125
  vertex 687500.0 5535500.0 6467.5
 endloop
endfacet
facet normal 0.47391390800476074 0.22285771369934082 -0.8519037961959839
 outer loop
  vertex 687500.0 5536500.0 6217.5
  vertex 688500.0 5536500.0 6773.7998046875
  vertex 688500.0 5535500.0 6512.2001953125
 endloop
endfacet
facet normal 0.4756287634372711 0.22262358665466309 -0.8510088920593262
 outer loop
  vertex 688500.0 5536500.0 6773.7998046875
  vertex 689500.0 5535500.0 7071.10009765625
  vertex 688500.0 5535500.0 6512.2001953125
 endloop
endfacet
facet normal 0.039114225655794144 0.08897663652896881 -0.9952654242515564
 outer loop
  vertex 682500.0 5537500.0 6038.7998046875
  vertex 683500.0 5536500.0 5988.7001953125
  vertex 682500.0 5536500.0 5949.39990234375
 endloop
endfacet
facet normal 0.2650679349899292 0.31079721450805664 -0.9127671718597412
 outer loop
  vertex 682500.0 5537500.0 6038.7998046875
  vertex 683500.0 5537500.0 6329.2001953125
  vertex 683500.0 5536500.0 5988.7001953125
 endloop
endfacet
facet normal 0.1266714185476303 0.3197305500507355 -0.939003050327301
 outer loop
  vertex 683500.0 5537500.0 6329.2001953125
  vertex 684500.0 5536500.0 6123.60009765625
  vertex 683500.0 5536500.0 5988.7001953125
 endloop
endfacet
facet normal 0.254353791475296 0.4322284758090973 -0.8651489019393921
 outer loop
  vertex 683500.0 5537500.0 6329.2001953125
  vertex 684500.0 5537500.0 6623.2001953125
  vertex 684500.0 5536500.0 6123.60009765625
 endloop
endfacet
facet normal 0.10233547538518906 0.44458097219467163 -0.8898736834526062
 outer loop
  vertex 684500.0 5537500.0 6623.2001953125
  vertex 685500.0 5536500.0 6238.60009765625
  vertex 684500.0 5536500.0 6123.60009765625
 endloop
endfacet
facet normal -0.19028468430042267 0.18082807958126068 -0.9649315476417542
 outer loop
  vertex 684500.0 5537500.0 6623.2001953125
  vertex 685500.0 5537500.0 6426.0
  vertex 685500.0 5536500.0 6238.60009765625
 endloop
endfacet
facet normal 0.02652869001030922 0.18412867188453674 -0.9825440645217896
 outer loop
  vertex 685500.0 5537500.0 6426.0
  vertex 686500.0 5536500.0 6265.60009765625
  vertex 685500.0 5536500.0 6238.60009765625
 endloop
endfacet
facet normal -0.16720539331436157 -0.009070283733308315 -0.9858803153038025
 outer loop
  vertex 685500.0 5537500.0 6426.0
  vertex 686500.0 5537500.0 6256.39990234375
  vertex 686500.0 5536500.0 6265.60009765625
 endloop
endfacet
facet normal -0.04804252088069916 -0.00918918289244175 -0.9988030195236206
 outer loop
  vertex 686500.0 5537500.0 6256.39990234375
  vertex 687500.0 5536500.0 6217.5
  vertex 686500.0 5536500.0 6265.60009765625
 endloop
endfacet
facet normal 0.1387602686882019 0.17666591703891754 -0.9744407534599304
 outer loop
  vertex 686500.0 5537500.0 6256.39990234375
  vertex 687500.0 5537500.0 6398.7998046875
  vertex 687500.0 5536500.0 6217.5
 endloop
endfacet
facet normal 0.4801509976387024 0.15648268163204193 -0.8631154894828796
 outer loop
  vertex 687500.0 5537500.0 6398.7998046875
  vertex 688500.0 5536500.0 6773.7998046875
  vertex 687500.0 5536500.0 6217.5
 endloop
endfacet
facet normal 0.2815755307674408 -0.07708849757909775 -0.9564374685287476
 outer loop
  vertex 687500.0 5537500.0 6398.7998046875
  vertex 688500.0 5537500.0 6693.2001953125
  vertex 688500.0 5536500.0 6773.7998046875
 endloop
endfacet
facet normal -0.17771223187446594 0.395346075296402 -0.901176929473877
 outer loop
  vertex 684500.0 5538500.0 7061.89990234375
  vertex 685500.0 5537500.0 6426.0
  vertex 684500.0 5537500.0 6623.2001953125
 endloop
endfacet
endsolid
