solid
facet normal 0.548707902431488 -0.5346973538398743 -0.6426650285720825
 outer loop
  vertex 443500.0 5391500.0 10019.099609375
  vertex 444500.0 5390500.0 11704.900390625
  vertex 443500.0 5390500.0 10851.099609375
 endloop
endfacet
facet normal -0.29559752345085144 -0.8882695436477661 -0.3515670597553253
 outer loop
  vertex 443500.0 5391500.0 10019.099609375
  vertex 444500.0 5391500.0 9178.2998046875
  vertex 444500.0 5390500.0 11704.900390625
 endloop
endfacet
facet normal 3.6709257983602583e-05 -0.9298208355903625 -0.36801260709762573
 outer loop
  vertex 444500.0 5391500.0 9178.2998046875
  vertex 445500.0 5390500.0 11705.0
  vertex 444500.0 5390500.0 11704.900390625
 endloop
endfacet
facet normal 0.0077089364640414715 -0.9287503957748413 -0.37062540650367737
 outer loop
  vertex 444500.0 5391500.0 9178.2998046875
  vertex 445500.0 5391500.0 9199.099609375
  vertex 445500.0 5390500.0 11705.0
 endloop
endfacet
facet normal -0.5868890285491943 -0.41029179096221924 -0.6980127692222595
 outer loop
  vertex 443500.0 5392500.0 9431.2998046875
  vertex 444500.0 5391500.0 9178.2998046875
  vertex 443500.0 5391500.0 10019.099609375
 endloop
endfacet
facet normal -0.13710105419158936 0.11190550029277802 -0.9842156171798706
 outer loop
  vertex 443500.0 5392500.0 9431.2998046875
  vertex 444500.0 5392500.0 9292.0
  vertex 444500.0 5391500.0 9178.2998046875
 endloop
endfacet
facet normal 0.020662235096096992 0.11294818669557571 -0.9933860301971436
 outer loop
  vertex 444500.0 5392500.0 9292.0
  vertex 445500.0 5391500.0 9199.099609375
  vertex 444500.0 5391500.0 9178.2998046875
 endloop
endfacet
facet normal -0.6462438106536865 -0.6027644276618958 -0.4680213928222656
 outer loop
  vertex 444500.0 5392500.0 9292.0
  vertex 445500.0 5392500.0 7911.2001953125
  vertex 445500.0 5391500.0 9199.099609375
 endloop
endfacet
facet normal 0.471882164478302 -0.6963866949081421 -0.5407151579856873
 outer loop
  vertex 445500.0 5392500.0 7911.2001953125
  vertex 446500.0 5391500.0 10071.7998046875
  vertex 445500.0 5391500.0 9199.099609375
 endloop
endfacet
facet normal 0.6055378317832947 -0.5775035619735718 -0.5475524067878723
 outer loop
  vertex 445500.0 5392500.0 7911.2001953125
  vertex 446500.0 5392500.0 9017.099609375
  vertex 446500.0 5391500.0 10071.7998046875
 endloop
endfacet
facet normal -0.08653296530246735 -0.7788600325584412 -0.6211997270584106
 outer loop
  vertex 443500.0 5393500.0 8177.5
  vertex 444500.0 5392500.0 9292.0
  vertex 443500.0 5392500.0 9431.2998046875
 endloop
endfacet
facet normal -0.07018233090639114 -0.772952675819397 -0.630570113658905
 outer loop
  vertex 443500.0 5393500.0 8177.5
  vertex 444500.0 5393500.0 8066.2001953125
  vertex 444500.0 5392500.0 9292.0
 endloop
endfacet
facet normal -0.6575838923454285 -0.5837675929069519 -0.4762340784072876
 outer loop
  vertex 444500.0 5393500.0 8066.2001953125
  vertex 445500.0 5392500.0 7911.2001953125
  vertex 444500.0 5392500.0 9292.0
 endloop
endfacet
facet normal -0.46384939551353455 -0.3368459641933441 -0.8193769454956055
 outer loop
  vertex 444500.0 5393500.0 8066.2001953125
  vertex 445500.0 5393500.0 7500.10009765625
  vertex 445500.0 5392500.0 7911.2001953125
 endloop
endfacet
facet normal 0.7150452136993408 -0.2658064067363739 -0.6465734839439392
 outer loop
  vertex 445500.0 5393500.0 7500.10009765625
  vertex 446500.0 5392500.0 9017.099609375
  vertex 445500.0 5392500.0 7911.2001953125
 endloop
endfacet
facet normal 0.8760610222816467 0.2602773606777191 -0.4059221148490906
 outer loop
  vertex 445500.0 5393500.0 7500.10009765625
  vertex 446500.0 5393500.0 9658.2998046875
  vertex 446500.0 5392500.0 9017.099609375
 endloop
endfacet
facet normal 0.8435674905776978 0.2898690402507782 -0.4520726203918457
 outer loop
  vertex 446500.0 5393500.0 9658.2998046875
  vertex 447500.0 5392500.0 10883.099609375
  vertex 446500.0 5392500.0 9017.099609375
 endloop
endfacet
facet normal 0.7495425343513489 -0.05809299275279045 -0.659402072429657
 outer loop
  vertex 446500.0 5393500.0 9658.2998046875
  vertex 447500.0 5393500.0 10795.0
  vertex 447500.0 5392500.0 10883.099609375
 endloop
endfacet
facet normal 0.09613317996263504 0.020301682874560356 -0.9951614737510681
 outer loop
  vertex 442500.0 5394500.0 8101.2998046875
  vertex 443500.0 5394500.0 8197.900390625
  vertex 443500.0 5393500.0 8177.5
 endloop
endfacet
facet normal -0.11059403419494629 0.020271029323339462 -0.9936589002609253
 outer loop
  vertex 443500.0 5394500.0 8197.900390625
  vertex 444500.0 5393500.0 8066.2001953125
  vertex 443500.0 5393500.0 8177.5
 endloop
endfacet
facet normal -0.6688174605369568 -0.6135234236717224 -0.41984763741493225
 outer loop
  vertex 443500.0 5394500.0 8197.900390625
  vertex 444500.0 5394500.0 6604.89990234375
  vertex 444500.0 5393500.0 8066.2001953125
 endloop
endfacet
facet normal -0.3045191764831543 -0.7860694527626038 -0.5379246473312378
 outer loop
  vertex 444500.0 5394500.0 6604.89990234375
  vertex 445500.0 5393500.0 7500.10009765625
  vertex 444500.0 5393500.0 8066.2001953125
 endloop
endfacet
facet normal 0.7882041931152344 0.31483742594718933 -0.5287831425666809
 outer loop
  vertex 444500.0 5394500.0 6604.89990234375
  vertex 445500.0 5394500.0 8095.5
  vertex 445500.0 5393500.0 7500.10009765625
 endloop
endfacet
facet normal 0.8801776170730591 0.24282169342041016 -0.4078295826911926
 outer loop
  vertex 445500.0 5394500.0 8095.5
  vertex 446500.0 5393500.0 9658.2998046875
  vertex 445500.0 5393500.0 7500.10009765625
 endloop
endfacet
facet normal 0.7347042560577393 -0.2505328059196472 -0.6304307579994202
 outer loop
  vertex 445500.0 5394500.0 8095.5
  vertex 446500.0 5394500.0 9260.900390625
  vertex 446500.0 5393500.0 9658.2998046875
 endloop
endfacet
facet normal 0.7262091040611267 -0.25388845801353455 -0.6388747692108154
 outer loop
  vertex 446500.0 5394500.0 9260.900390625
  vertex 447500.0 5393500.0 10795.0
  vertex 446500.0 5393500.0 9658.2998046875
 endloop
endfacet
facet normal -0.2877887487411499 -0.8772367835044861 -0.3842306435108185
 outer loop
  vertex 446500.0 5394500.0 9260.900390625
  vertex 447500.0 5394500.0 8511.900390625
  vertex 447500.0 5393500.0 10795.0
 endloop
endfacet
facet normal -0.04775256663560867 -0.8606640696525574 -0.5069290399551392
 outer loop
  vertex 440500.0 5395500.0 5765.7998046875
  vertex 441500.0 5395500.0 5671.60009765625
  vertex 441500.0 5394500.0 7369.39990234375
 endloop
endfacet
facet normal 0.34820014238357544 -0.8077252507209778 -0.4757482707500458
 outer loop
  vertex 441500.0 5395500.0 5671.60009765625
  vertex 442500.0 5394500.0 8101.2998046875
  vertex 441500.0 5394500.0 7369.39990234375
 endloop
endfacet
facet normal 0.4132595658302307 -0.7695615291595459 -0.4868178069591522
 outer loop
  vertex 441500.0 5395500.0 5671.60009765625
  vertex 442500.0 5395500.0 6520.5
  vertex 442500.0 5394500.0 8101.2998046875
 endloop
endfacet
facet normal 0.05157438665628433 -0.8439777493476868 -0.5338928699493408
 outer loop
  vertex 442500.0 5395500.0 6520.5
  vertex 443500.0 5394500.0 8197.900390625
  vertex 442500.0 5394500.0 8101.2998046875
 endloop
endfacet
facet normal -0.02753424271941185 -0.8657532334327698 -0.49971312284469604
 outer loop
  vertex 442500.0 5395500.0 6520.5
  vertex 443500.0 5395500.0 6465.39990234375
  vertex 443500.0 5394500.0 8197.900390625
 endloop
endfacet
facet normal -0.6229501366615295 -0.6775022745132446 -0.39105460047721863
 outer loop
  vertex 443500.0 5395500.0 6465.39990234375
  vertex 444500.0 5394500.0 6604.89990234375
  vertex 443500.0 5394500.0 8197.900390625
 endloop
endfacet
facet normal 0.3870640993118286 0.2638149857521057 -0.8835060596466064
 outer loop
  vertex 443500.0 5395500.0 6465.39990234375
  vertex 444500.0 5395500.0 6903.5
  vertex 444500.0 5394500.0 6604.89990234375
 endloop
endfacet
facet normal 0.8191779255867004 0.16409941017627716 -0.5495625138282776
 outer loop
  vertex 444500.0 5395500.0 6903.5
  vertex 445500.0 5394500.0 8095.5
  vertex 444500.0 5394500.0 6604.89990234375
 endloop
endfacet
facet normal 0.1777878999710083 -0.6753653287887573 -0.7157325744628906
 outer loop
  vertex 444500.0 5395500.0 6903.5
  vertex 445500.0 5395500.0 7151.89990234375
  vertex 445500.0 5394500.0 8095.5
 endloop
endfacet
facet normal 0.6465931534767151 -0.5235328674316406 -0.554824948310852
 outer loop
  vertex 445500.0 5395500.0 7151.89990234375
  vertex 446500.0 5394500.0 9260.900390625
  vertex 445500.0 5394500.0 8095.5
 endloop
endfacet
facet normal 0.8413025736808777 -0.20957854390144348 -0.4982839524745941
 outer loop
  vertex 445500.0 5395500.0 7151.89990234375
  vertex 446500.0 5395500.0 8840.2998046875
  vertex 446500.0 5394500.0 9260.900390625
 endloop
endfacet
facet normal -0.568157434463501 -0.31904852390289307 -0.7585546374320984
 outer loop
  vertex 446500.0 5395500.0 8840.2998046875
  vertex 447500.0 5394500.0 8511.900390625
  vertex 446500.0 5394500.0 9260.900390625
 endloop
endfacet
facet normal -0.5894941687583923 -0.35049474239349365 -0.7277705669403076
 outer loop
  vertex 446500.0 5395500.0 8840.2998046875
  vertex 447500.0 5395500.0 8030.2998046875
  vertex 447500.0 5394500.0 8511.900390625
 endloop
endfacet
facet normal 0.7266578078269958 -0.29809099435806274 -0.6189589500427246
 outer loop
  vertex 447500.0 5395500.0 8030.2998046875
  vertex 448500.0 5394500.0 9685.900390625
  vertex 447500.0 5394500.0 8511.900390625
 endloop
endfacet
facet normal 0.7167502045631409 -0.31404533982276917 -0.6226112246513367
 outer loop
  vertex 447500.0 5395500.0 8030.2998046875
  vertex 448500.0 5395500.0 9181.5
  vertex 448500.0 5394500.0 9685.900390625
 endloop
endfacet
facet normal 0.28085434436798096 -0.5472011566162109 -0.7884743213653564
 outer loop
  vertex 439500.0 5396500.0 4715.60009765625
  vertex 440500.0 5396500.0 5071.7998046875
  vertex 440500.0 5395500.0 5765.7998046875
 endloop
endfacet
facet normal -0.07715819776058197 -0.5684497952461243 -0.8190918564796448
 outer loop
  vertex 440500.0 5396500.0 5071.7998046875
  vertex 441500.0 5395500.0 5671.60009765625
  vertex 440500.0 5395500.0 5765.7998046875
 endloop
endfacet
facet normal 0.6668813228607178 0.24472235143184662 -0.7038325667381287
 outer loop
  vertex 440500.0 5396500.0 5071.7998046875
  vertex 441500.0 5396500.0 6019.2998046875
  vertex 441500.0 5395500.0 5671.60009765625
 endloop
endfacet
facet normal 0.6255579590797424 0.2562214136123657 -0.7369042634963989
 outer loop
  vertex 441500.0 5396500.0 6019.2998046875
  vertex 442500.0 5395500.0 6520.5
  vertex 441500.0 5395500.0 5671.60009765625
 endloop
endfacet
facet normal 0.7301297783851624 0.49298304319381714 -0.47315776348114014
 outer loop
  vertex 441500.0 5396500.0 6019.2998046875
  vertex 442500.0 5396500.0 7562.39990234375
  vertex 442500.0 5395500.0 6520.5
 endloop
endfacet
facet normal -0.03812640160322189 0.7209401726722717 -0.6919476389884949
 outer loop
  vertex 442500.0 5396500.0 7562.39990234375
  vertex 443500.0 5395500.0 6465.39990234375
  vertex 442500.0 5395500.0 6520.5
 endloop
endfacet
facet normal -0.825898289680481 -0.3074076771736145 -0.4726441204547882
 outer loop
  vertex 442500.0 5396500.0 7562.39990234375
  vertex 443500.0 5396500.0 5815.0
  vertex 443500.0 5395500.0 6465.39990234375
 endloop
endfacet
facet normal 0.3447415232658386 -0.5118004679679871 -0.7869012355804443
 outer loop
  vertex 443500.0 5396500.0 5815.0
  vertex 444500.0 5395500.0 6903.5
  vertex 443500.0 5395500.0 6465.39990234375
 endloop
endfacet
facet normal -0.051697153598070145 -0.7586354613304138 -0.6494609713554382
 outer loop
  vertex 443500.0 5396500.0 5815.0
  vertex 444500.0 5396500.0 5735.39990234375
  vertex 444500.0 5395500.0 6903.5
 endloop
endfacet
facet normal 0.15947462618350983 -0.7499292492866516 -0.6420077085494995
 outer loop
  vertex 444500.0 5396500.0 5735.39990234375
  vertex 445500.0 5395500.0 7151.89990234375
  vertex 444500.0 5395500.0 6903.5
 endloop
endfacet
facet normal -0.03330034390091896 -0.8274083137512207 -0.5606127381324768
 outer loop
  vertex 444500.0 5396500.0 5735.39990234375
  vertex 445500.0 5396500.0 5676.0
  vertex 445500.0 5395500.0 7151.89990234375
 endloop
endfacet
facet normal 0.6876280307769775 -0.6010839939117432 -0.40726611018180847
 outer loop
  vertex 445500.0 5396500.0 5676.0
  vertex 446500.0 5395500.0 8840.2998046875
  vertex 445500.0 5395500.0 7151.89990234375
 endloop
endfacet
facet normal 0.44266101717948914 -0.805300772190094 -0.39438799023628235
 outer loop
  vertex 445500.0 5396500.0 5676.0
  vertex 446500.0 5396500.0 6798.39990234375
  vertex 446500.0 5395500.0 8840.2998046875
 endloop
endfacet
facet normal -0.33559855818748474 -0.8459983468055725 -0.4143192172050476
 outer loop
  vertex 446500.0 5396500.0 6798.39990234375
  vertex 447500.0 5395500.0 8030.2998046875
  vertex 446500.0 5395500.0 8840.2998046875
 endloop
endfacet
facet normal -0.11407501995563507 -0.8146181106567383 -0.5686688423156738
 outer loop
  vertex 446500.0 5396500.0 6798.39990234375
  vertex 447500.0 5396500.0 6597.7998046875
  vertex 447500.0 5395500.0 8030.2998046875
 endloop
endfacet
facet normal 0.5502332448959351 -0.6846846342086792 -0.477964848279953
 outer loop
  vertex 447500.0 5396500.0 6597.7998046875
  vertex 448500.0 5395500.0 9181.5
  vertex 447500.0 5395500.0 8030.2998046875
 endloop
endfacet
facet normal 0.8073635101318359 -0.373293936252594 -0.45696377754211426
 outer loop
  vertex 447500.0 5396500.0 6597.7998046875
  vertex 448500.0 5396500.0 8364.599609375
  vertex 448500.0 5395500.0 9181.5
 endloop
endfacet
facet normal -0.1663241982460022 -0.6238310933113098 -0.7636563181877136
 outer loop
  vertex 448500.0 5396500.0 8364.599609375
  vertex 449500.0 5395500.0 8963.7001953125
  vertex 448500.0 5395500.0 9181.5
 endloop
endfacet
facet normal 0.03135324642062187 -0.4904175102710724 -0.8709234595298767
 outer loop
  vertex 448500.0 5396500.0 8364.599609375
  vertex 449500.0 5396500.0 8400.599609375
  vertex 449500.0 5395500.0 8963.7001953125
 endloop
endfacet
facet normal 0.10649009793996811 -0.003778413636609912 -0.9943066239356995
 outer loop
  vertex 436500.0 5397500.0 3954.0
  vertex 437500.0 5396500.0 4064.89990234375
  vertex 436500.0 5396500.0 3957.800048828125
 endloop
endfacet
facet normal 0.051441412419080734 -0.05911744758486748 -0.9969247579574585
 outer loop
  vertex 436500.0 5397500.0 3954.0
  vertex 437500.0 5397500.0 4005.60009765625
  vertex 437500.0 5396500.0 4064.89990234375
 endloop
endfacet
facet normal 0.2825767993927002 -0.056783273816108704 -0.9575625658035278
 outer loop
  vertex 437500.0 5397500.0 4005.60009765625
  vertex 438500.0 5396500.0 4360.0
  vertex 437500.0 5396500.0 4064.89990234375
 endloop
endfacet
facet normal 0.17566561698913574 -0.16809940338134766 -0.9699918627738953
 outer loop
  vertex 437500.0 5397500.0 4005.60009765625
  vertex 438500.0 5397500.0 4186.7001953125
  vertex 438500.0 5396500.0 4360.0
 endloop
endfacet
facet normal 0.3306678831577301 -0.16114923357963562 -0.9298869967460632
 outer loop
  vertex 438500.0 5397500.0 4186.7001953125
  vertex 439500.0 5396500.0 4715.60009765625
  vertex 438500.0 5396500.0 4360.0
 endloop
endfacet
facet normal 0.7233237624168396 0.4433223605155945 -0.5294034481048584
 outer loop
  vertex 438500.0 5397500.0 4186.7001953125
  vertex 439500.0 5397500.0 5553.0
  vertex 439500.0 5396500.0 4715.60009765625
 endloop
endfacet
facet normal 0.26344597339630127 0.619342565536499 -0.7396019697189331
 outer loop
  vertex 439500.0 5397500.0 5553.0
  vertex 440500.0 5396500.0 5071.7998046875
  vertex 439500.0 5396500.0 4715.60009765625
 endloop
endfacet
facet normal 0.5224852561950684 0.7324919104576111 -0.4364226162433624
 outer loop
  vertex 439500.0 5397500.0 5553.0
  vertex 440500.0 5397500.0 6750.2001953125
  vertex 440500.0 5396500.0 5071.7998046875
 endloop
endfacet
facet normal 0.43636342883110046 0.7729736566543579 -0.46054187417030334
 outer loop
  vertex 440500.0 5397500.0 6750.2001953125
  vertex 441500.0 5396500.0 6019.2998046875
  vertex 440500.0 5396500.0 5071.7998046875
 endloop
endfacet
facet normal -0.1003672182559967 0.5197363495826721 -0.8484105467796326
 outer loop
  vertex 440500.0 5397500.0 6750.2001953125
  vertex 441500.0 5397500.0 6631.89990234375
  vertex 441500.0 5396500.0 6019.2998046875
 endloop
endfacet
facet normal 0.7961704730987549 0.3160741925239563 -0.5159551501274109
 outer loop
  vertex 441500.0 5397500.0 6631.89990234375
  vertex 442500.0 5396500.0 7562.39990234375
  vertex 441500.0 5396500.0 6019.2998046875
 endloop
endfacet
facet normal 0.6303611397743225 -0.08739572018384933 -0.7713668346405029
 outer loop
  vertex 441500.0 5397500.0 6631.89990234375
  vertex 442500.0 5397500.0 7449.10009765625
  vertex 442500.0 5396500.0 7562.39990234375
 endloop
endfacet
facet normal -0.8665540218353271 -0.05618656799197197 -0.49591052532196045
 outer loop
  vertex 442500.0 5397500.0 7449.10009765625
  vertex 443500.0 5396500.0 5815.0
  vertex 442500.0 5396500.0 7562.39990234375
 endloop
endfacet
facet normal -0.7772659063339233 0.19840629398822784 -0.597070038318634
 outer loop
  vertex 442500.0 5397500.0 7449.10009765625
  vertex 443500.0 5397500.0 6147.2998046875
  vertex 443500.0 5396500.0 5815.0
 endloop
endfacet
facet normal -0.07532406598329544 0.3144490420818329 -0.9462811350822449
 outer loop
  vertex 443500.0 5397500.0 6147.2998046875
  vertex 444500.0 5396500.0 5735.39990234375
  vertex 443500.0 5396500.0 5815.0
 endloop
endfacet
facet normal -0.676608145236969 -0.43056342005729675 -0.5973411202430725
 outer loop
  vertex 443500.0 5397500.0 6147.2998046875
  vertex 444500.0 5397500.0 5014.60009765625
  vertex 444500.0 5396500.0 5735.39990234375
 endloop
endfacet
facet normal -0.048130959272384644 -0.5840542316436768 -0.8102863430976868
 outer loop
  vertex 444500.0 5397500.0 5014.60009765625
  vertex 445500.0 5396500.0 5676.0
  vertex 444500.0 5396500.0 5735.39990234375
 endloop
endfacet
facet normal 0.024160681292414665 -0.5345741510391235 -0.8447761535644531
 outer loop
  vertex 444500.0 5397500.0 5014.60009765625
  vertex 445500.0 5397500.0 5043.2001953125
  vertex 445500.0 5396500.0 5676.0
 endloop
endfacet
facet normal 0.6881594657897949 -0.38797861337661743 -0.6131142973899841
 outer loop
  vertex 445500.0 5397500.0 5043.2001953125
  vertex 446500.0 5396500.0 6798.39990234375
  vertex 445500.0 5396500.0 5676.0
 endloop
endfacet
facet normal 0.2776391804218292 -0.7580934762954712 -0.5900938510894775
 outer loop
  vertex 445500.0 5397500.0 5043.2001953125
  vertex 446500.0 5397500.0 5513.7001953125
  vertex 446500.0 5396500.0 6798.39990234375
 endloop
endfacet
facet normal -0.12229228019714355 -0.7831942439079285 -0.609632134437561
 outer loop
  vertex 446500.0 5397500.0 5513.7001953125
  vertex 447500.0 5396500.0 6597.7998046875
  vertex 446500.0 5396500.0 6798.39990234375
 endloop
endfacet
facet normal 0.6384831666946411 -0.17422038316726685 -0.7496576309204102
 outer loop
  vertex 446500.0 5397500.0 5513.7001953125
  vertex 447500.0 5397500.0 6365.39990234375
  vertex 447500.0 5396500.0 6597.7998046875
 endloop
endfacet
facet normal 0.8646261096000671 -0.11373049765825272 -0.4893741011619568
 outer loop
  vertex 447500.0 5397500.0 6365.39990234375
  vertex 448500.0 5396500.0 8364.599609375
  vertex 447500.0 5396500.0 6597.7998046875
 endloop
endfacet
facet normal 0.40797123312950134 -0.7184144258499146 -0.5634182691574097
 outer loop
  vertex 447500.0 5397500.0 6365.39990234375
  vertex 448500.0 5397500.0 7089.5
  vertex 448500.0 5396500.0 8364.599609375
 endloop
endfacet
facet normal 0.022210480645298958 -0.786682665348053 -0.6169577836990356
 outer loop
  vertex 448500.0 5397500.0 7089.5
  vertex 449500.0 5396500.0 8400.599609375
  vertex 448500.0 5396500.0 8364.599609375
 endloop
endfacet
facet normal 0.0514860525727272 -0.042007047683000565 -0.9977898597717285
 outer loop
  vertex 436500.0 5398500.0 3911.89990234375
  vertex 437500.0 5397500.0 4005.60009765625
  vertex 436500.0 5397500.0 3954.0
 endloop
endfacet
facet normal 0.041408028453588486 -0.052084509283304214 -0.9977837800979614
 outer loop
  vertex 436500.0 5398500.0 3911.89990234375
  vertex 437500.0 5398500.0 3953.39990234375
  vertex 437500.0 5397500.0 4005.60009765625
 endloop
endfacet
facet normal 0.17796680331230164 -0.051297057420015335 -0.9826985597610474
 outer loop
  vertex 437500.0 5398500.0 3953.39990234375
  vertex 438500.0 5397500.0 4186.7001953125
  vertex 437500.0 5397500.0 4005.60009765625
 endloop
endfacet
facet normal 0.2942880690097809 0.07195182144641876 -0.9530044794082642
 outer loop
  vertex 437500.0 5398500.0 3953.39990234375
  vertex 438500.0 5398500.0 4262.2001953125
  vertex 438500.0 5397500.0 4186.7001953125
 endloop
endfacet
facet normal 0.8061537146568298 0.04454703629016876 -0.5900269746780396
 outer loop
  vertex 438500.0 5398500.0 4262.2001953125
  vertex 439500.0 5397500.0 5553.0
  vertex 438500.0 5397500.0 4186.7001953125
 endloop
endfacet
facet normal 0.29122892022132874 -0.6337669491767883 -0.7166067361831665
 outer loop
  vertex 438500.0 5398500.0 4262.2001953125
  vertex 439500.0 5398500.0 4668.60009765625
  vertex 439500.0 5397500.0 5553.0
 endloop
endfacet
facet normal 0.6676453351974487 -0.4932052493095398 -0.5576722025871277
 outer loop
  vertex 439500.0 5398500.0 4668.60009765625
  vertex 440500.0 5397500.0 6750.2001953125
  vertex 439500.0 5397500.0 5553.0
 endloop
endfacet
facet normal 0.09329899400472641 -0.8792171478271484 -0.46719643473625183
 outer loop
  vertex 439500.0 5398500.0 4668.60009765625
  vertex 440500.0 5398500.0 4868.2998046875
  vertex 440500.0 5397500.0 6750.2001953125
 endloop
endfacet
facet normal -0.055426254868507385 -0.8817115426063538 -0.4685218930244446
 outer loop
  vertex 440500.0 5398500.0 4868.2998046875
  vertex 441500.0 5397500.0 6631.89990234375
  vertex 440500.0 5397500.0 6750.2001953125
 endloop
endfacet
facet normal 0.6598769426345825 -0.42856186628341675 -0.6171687245368958
 outer loop
  vertex 440500.0 5398500.0 4868.2998046875
  vertex 441500.0 5398500.0 5937.5
  vertex 441500.0 5397500.0 6631.89990234375
 endloop
endfacet
facet normal 0.557325005531311 -0.4735759496688843 -0.6819931268692017
 outer loop
  vertex 441500.0 5398500.0 5937.5
  vertex 442500.0 5397500.0 7449.10009765625
  vertex 441500.0 5397500.0 6631.89990234375
 endloop
endfacet
facet normal 0.7855529189109802 -0.1292007863521576 -0.605155885219574
 outer loop
  vertex 441500.0 5398500.0 5937.5
  vertex 442500.0 5398500.0 7235.60009765625
  vertex 442500.0 5397500.0 7449.10009765625
 endloop
endfacet
facet normal -0.7864080667495728 -0.1289737969636917 -0.6040927171707153
 outer loop
  vertex 442500.0 5398500.0 7235.60009765625
  vertex 443500.0 5397500.0 6147.2998046875
  vertex 442500.0 5397500.0 7449.10009765625
 endloop
endfacet
facet normal -0.8268488645553589 -0.4210679233074188 -0.37285754084587097
 outer loop
  vertex 442500.0 5398500.0 7235.60009765625
  vertex 443500.0 5398500.0 5018.0
  vertex 443500.0 5397500.0 6147.2998046875
 endloop
endfacet
facet normal -0.600470781326294 -0.5986683964729309 -0.5301235914230347
 outer loop
  vertex 443500.0 5398500.0 5018.0
  vertex 444500.0 5397500.0 5014.60009765625
  vertex 443500.0 5397500.0 6147.2998046875
 endloop
endfacet
facet normal 0.533043622970581 0.535271406173706 -0.6552472114562988
 outer loop
  vertex 443500.0 5398500.0 5018.0
  vertex 444500.0 5398500.0 5831.5
  vertex 444500.0 5397500.0 5014.60009765625
 endloop
endfacet
facet normal 0.022143704816699028 0.6324877738952637 -0.7742537260055542
 outer loop
  vertex 444500.0 5398500.0 5831.5
  vertex 445500.0 5397500.0 5043.2001953125
  vertex 444500.0 5397500.0 5014.60009765625
 endloop
endfacet
facet normal -0.6987435221672058 -0.1468202918767929 -0.7001438140869141
 outer loop
  vertex 444500.0 5398500.0 5831.5
  vertex 445500.0 5398500.0 4833.5
  vertex 445500.0 5397500.0 5043.2001953125
 endloop
endfacet
facet normal 0.4182685911655426 -0.18642084300518036 -0.8889874815940857
 outer loop
  vertex 445500.0 5398500.0 4833.5
  vertex 446500.0 5397500.0 5513.7001953125
  vertex 445500.0 5397500.0 5043.2001953125
 endloop
endfacet
facet normal 0.4509426951408386 -0.1477912813425064 -0.8802319765090942
 outer loop
  vertex 445500.0 5398500.0 4833.5
  vertex 446500.0 5398500.0 5345.7998046875
  vertex 446500.0 5397500.0 5513.7001953125
 endloop
endfacet
facet normal 0.6431663632392883 -0.12679103016853333 -0.7551562786102295
 outer loop
  vertex 446500.0 5398500.0 5345.7998046875
  vertex 447500.0 5397500.0 6365.39990234375
  vertex 446500.0 5397500.0 5513.7001953125
 endloop
endfacet
facet normal 0.4162046015262604 -0.4108509123325348 -0.8111567497253418
 outer loop
  vertex 446500.0 5398500.0 5345.7998046875
  vertex 447500.0 5398500.0 5858.89990234375
  vertex 447500.0 5397500.0 6365.39990234375
 endloop
endfacet
facet normal 0.5426044464111328 -0.37954577803611755 -0.7493500113487244
 outer loop
  vertex 447500.0 5398500.0 5858.89990234375
  vertex 448500.0 5397500.0 7089.5
  vertex 447500.0 5397500.0 6365.39990234375
 endloop
endfacet
facet normal 0.408898264169693 0.8285810351371765 -0.38243377208709717
 outer loop
  vertex 440500.0 5399500.0 7034.89990234375
  vertex 441500.0 5398500.0 5937.5
  vertex 440500.0 5398500.0 4868.2998046875
 endloop
endfacet
facet normal -0.7934916615486145 -0.14481933414936066 -0.5910993218421936
 outer loop
  vertex 440500.0 5399500.0 7034.89990234375
  vertex 441500.0 5399500.0 5692.5
  vertex 441500.0 5398500.0 5937.5
 endloop
endfacet
facet normal 0.7834837436676025 -0.147872656583786 -0.6035618782043457
 outer loop
  vertex 441500.0 5399500.0 5692.5
  vertex 442500.0 5398500.0 7235.60009765625
  vertex 441500.0 5398500.0 5937.5
 endloop
endfacet
facet normal -0.303925096988678 -0.8772585988044739 -0.37154656648635864
 outer loop
  vertex 441500.0 5399500.0 5692.5
  vertex 442500.0 5399500.0 4874.5
  vertex 442500.0 5398500.0 7235.60009765625
 endloop
endfacet
facet normal -0.6541467308998108 -0.6964762806892395 -0.2949795722961426
 outer loop
  vertex 442500.0 5399500.0 4874.5
  vertex 443500.0 5398500.0 5018.0
  vertex 442500.0 5398500.0 7235.60009765625
 endloop
endfacet
facet normal -0.1465574949979782 -0.2825923562049866 -0.9479780197143555
 outer loop
  vertex 442500.0 5399500.0 4874.5
  vertex 443500.0 5399500.0 4719.89990234375
  vertex 443500.0 5398500.0 5018.0
 endloop
endfacet
facet normal 0.614834725856781 -0.22530092298984528 -0.7557895183563232
 outer loop
  vertex 443500.0 5399500.0 4719.89990234375
  vertex 444500.0 5398500.0 5831.5
  vertex 443500.0 5398500.0 5018.0
 endloop
endfacet
facet normal -0.14548078179359436 -0.7970386147499084 -0.5861440300941467
 outer loop
  vertex 443500.0 5399500.0 4719.89990234375
  vertex 444500.0 5399500.0 4471.7001953125
  vertex 444500.0 5398500.0 5831.5
 endloop
endfacet
facet normal -0.5089545249938965 -0.6934632062911987 -0.5099745392799377
 outer loop
  vertex 444500.0 5399500.0 4471.7001953125
  vertex 445500.0 5398500.0 4833.5
  vertex 444500.0 5398500.0 5831.5
 endloop
endfacet
facet normal 0.6832565665245056 0.4861413538455963 -0.5448184013366699
 outer loop
  vertex 444500.0 5399500.0 4471.7001953125
  vertex 445500.0 5399500.0 5725.7998046875
  vertex 445500.0 5398500.0 4833.5
 endloop
endfacet
facet normal 0.3570532202720642 0.6218985319137573 -0.6969614028930664
 outer loop
  vertex 445500.0 5399500.0 5725.7998046875
  vertex 446500.0 5398500.0 5345.7998046875
  vertex 445500.0 5398500.0 4833.5
 endloop
endfacet
facet normal 0.3734610080718994 0.6316293478012085 -0.6793903708457947
 outer loop
  vertex 445500.0 5399500.0 5725.7998046875
  vertex 446500.0 5399500.0 6275.5
  vertex 446500.0 5398500.0 5345.7998046875
 endloop
endfacet
facet normal 0.3517674505710602 0.637377142906189 -0.6855727434158325
 outer loop
  vertex 446500.0 5399500.0 6275.5
  vertex 447500.0 5398500.0 5858.89990234375
  vertex 446500.0 5398500.0 5345.7998046875
 endloop
endfacet
facet normal 0.06594309210777283 0.43920212984085083 -0.8959648013114929
 outer loop
  vertex 446500.0 5399500.0 6275.5
  vertex 447500.0 5399500.0 6349.10009765625
  vertex 447500.0 5398500.0 5858.89990234375
 endloop
endfacet
facet normal -0.4776037633419037 0.6565007567405701 -0.5838676691055298
 outer loop
  vertex 441500.0 5400500.0 6816.89990234375
  vertex 442500.0 5399500.0 4874.5
  vertex 441500.0 5399500.0 5692.5
 endloop
endfacet
facet normal -0.8864110708236694 0.012401124462485313 -0.46273282170295715
 outer loop
  vertex 441500.0 5400500.0 6816.89990234375
  vertex 442500.0 5400500.0 4901.2998046875
  vertex 442500.0 5399500.0 4874.5
 endloop
endfacet
facet normal -0.15273144841194153 0.026475876569747925 -0.9879130125045776
 outer loop
  vertex 442500.0 5400500.0 4901.2998046875
  vertex 443500.0 5399500.0 4719.89990234375
  vertex 442500.0 5399500.0 4874.5
 endloop
endfacet
facet normal -0.4975736439228058 -0.3539164066314697 -0.7919366359710693
 outer loop
  vertex 442500.0 5400500.0 4901.2998046875
  vertex 443500.0 5400500.0 4273.0
  vertex 443500.0 5399500.0 4719.89990234375
 endloop
endfacet
facet normal -0.2209979146718979 -0.39792126417160034 -0.8904035687446594
 outer loop
  vertex 443500.0 5400500.0 4273.0
  vertex 444500.0 5399500.0 4471.7001953125
  vertex 443500.0 5399500.0 4719.89990234375
 endloop
endfacet
facet normal 0.5765739679336548 0.43974679708480835 -0.6886110901832581
 outer loop
  vertex 443500.0 5400500.0 4273.0
  vertex 444500.0 5400500.0 5110.2998046875
  vertex 444500.0 5399500.0 4471.7001953125
 endloop
endfacet
facet normal 0.7264103293418884 0.3698951303958893 -0.5792285203933716
 outer loop
  vertex 444500.0 5400500.0 5110.2998046875
  vertex 445500.0 5399500.0 5725.7998046875
  vertex 444500.0 5399500.0 4471.7001953125
 endloop
endfacet
facet normal 0.4088321626186371 -0.14567652344703674 -0.9009076952934265
 outer loop
  vertex 444500.0 5400500.0 5110.2998046875
  vertex 445500.0 5400500.0 5564.10009765625
  vertex 445500.0 5399500.0 5725.7998046875
 endloop
endfacet
facet normal 0.47695237398147583 -0.1403002142906189 -0.8676590919494629
 outer loop
  vertex 445500.0 5400500.0 5564.10009765625
  vertex 446500.0 5399500.0 6275.5
  vertex 445500.0 5399500.0 5725.7998046875
 endloop
endfacet
facet normal 0.7596142292022705 0.388620525598526 -0.5214980840682983
 outer loop
  vertex 445500.0 5400500.0 5564.10009765625
  vertex 446500.0 5400500.0 7020.7001953125
  vertex 446500.0 5399500.0 6275.5
 endloop
endfacet
facet normal 0.05891323462128639 0.5964961647987366 -0.8004509210586548
 outer loop
  vertex 446500.0 5400500.0 7020.7001953125
  vertex 447500.0 5399500.0 6349.10009765625
  vertex 446500.0 5399500.0 6275.5
 endloop
endfacet
facet normal -0.015233076177537441 -0.8680813312530518 -0.4961882531642914
 outer loop
  vertex 440500.0 5401500.0 5098.10009765625
  vertex 441500.0 5401500.0 5067.39990234375
  vertex 441500.0 5400500.0 6816.89990234375
 endloop
endfacet
facet normal -0.6889812350273132 -0.6292402148246765 -0.3596686124801636
 outer loop
  vertex 441500.0 5401500.0 5067.39990234375
  vertex 442500.0 5400500.0 4901.2998046875
  vertex 441500.0 5400500.0 6816.89990234375
 endloop
endfacet
facet normal -0.5547997951507568 -0.43722862005233765 -0.7078335881233215
 outer loop
  vertex 441500.0 5401500.0 5067.39990234375
  vertex 442500.0 5401500.0 4283.60009765625
  vertex 442500.0 5400500.0 4901.2998046875
 endloop
endfacet
facet normal -0.4714190363883972 -0.4634656608104706 -0.7503090500831604
 outer loop
  vertex 442500.0 5401500.0 4283.60009765625
  vertex 443500.0 5400500.0 4273.0
  vertex 442500.0 5400500.0 4901.2998046875
 endloop
endfacet
facet normal 0.38249725103378296 0.3913692533969879 -0.8369742631912231
 outer loop
  vertex 442500.0 5401500.0 4283.60009765625
  vertex 443500.0 5401500.0 4740.60009765625
  vertex 443500.0 5400500.0 4273.0
 endloop
endfacet
facet normal 0.6043130159378052 0.3374858498573303 -0.7217403054237366
 outer loop
  vertex 443500.0 5401500.0 4740.60009765625
  vertex 444500.0 5400500.0 5110.2998046875
  vertex 443500.0 5400500.0 4273.0
 endloop
endfacet
facet normal 0.5467016100883484 0.2514270544052124 -0.7986875176429749
 outer loop
  vertex 443500.0 5401500.0 4740.60009765625
  vertex 444500.0 5401500.0 5425.10009765625
  vertex 444500.0 5400500.0 5110.2998046875
 endloop
endfacet
facet normal 0.39724084734916687 0.27556511759757996 -0.8753648996353149
 outer loop
  vertex 444500.0 5401500.0 5425.10009765625
  vertex 445500.0 5400500.0 5564.10009765625
  vertex 444500.0 5400500.0 5110.2998046875
 endloop
endfacet
facet normal 0.4295341372489929 0.31172579526901245 -0.8475420475006104
 outer loop
  vertex 444500.0 5401500.0 5425.10009765625
  vertex 445500.0 5401500.0 5931.89990234375
  vertex 445500.0 5400500.0 5564.10009765625
 endloop
endfacet
facet normal 0.8071125149726868 0.2038005143404007 -0.5541071891784668
 outer loop
  vertex 445500.0 5401500.0 5931.89990234375
  vertex 446500.0 5400500.0 7020.7001953125
  vertex 445500.0 5400500.0 5564.10009765625
 endloop
endfacet
facet normal 0.8272904753684998 0.41483840346336365 -0.37881335616111755
 outer loop
  vertex 445500.0 5401500.0 5931.89990234375
  vertex 446500.0 5401500.0 8115.7998046875
  vertex 446500.0 5400500.0 7020.7001953125
 endloop
endfacet
facet normal 0.23787946999073029 -0.5964233875274658 -0.7666110992431641
 outer loop
  vertex 439500.0 5402500.0 4009.800048828125
  vertex 440500.0 5402500.0 4320.10009765625
  vertex 440500.0 5401500.0 5098.10009765625
 endloop
endfacet
facet normal -0.02422354184091091 -0.6138697266578674 -0.7890356183052063
 outer loop
  vertex 440500.0 5402500.0 4320.10009765625
  vertex 441500.0 5401500.0 5067.39990234375
  vertex 440500.0 5401500.0 5098.10009765625
 endloop
endfacet
facet normal -0.16151852905750275 -0.6892958283424377 -0.7062457203865051
 outer loop
  vertex 440500.0 5402500.0 4320.10009765625
  vertex 441500.0 5402500.0 4091.39990234375
  vertex 441500.0 5401500.0 5067.39990234375
 endloop
endfacet
facet normal -0.48921433091163635 -0.6091774702072144 -0.6241572499275208
 outer loop
  vertex 441500.0 5402500.0 4091.39990234375
  vertex 442500.0 5401500.0 4283.60009765625
  vertex 441500.0 5401500.0 5067.39990234375
 endloop
endfacet
facet normal 0.3661903738975525 0.19115470349788666 -0.9106945395469666
 outer loop
  vertex 441500.0 5402500.0 4091.39990234375
  vertex 442500.0 5402500.0 4493.5
  vertex 442500.0 5401500.0 4283.60009765625
 endloop
endfacet
facet normal 0.40827876329421997 0.1875222623348236 -0.8933889865875244
 outer loop
  vertex 442500.0 5402500.0 4493.5
  vertex 443500.0 5401500.0 4740.60009765625
  vertex 442500.0 5401500.0 4283.60009765625
 endloop
endfacet
facet normal 0.6365213394165039 0.4891822338104248 -0.5962729454040527
 outer loop
  vertex 442500.0 5402500.0 4493.5
  vertex 443500.0 5402500.0 5561.0
  vertex 443500.0 5401500.0 4740.60009765625
 endloop
endfacet
facet normal 0.46774014830589294 0.5606047511100769 -0.6833311319351196
 outer loop
  vertex 443500.0 5402500.0 5561.0
  vertex 444500.0 5401500.0 5425.10009765625
  vertex 443500.0 5401500.0 4740.60009765625
 endloop
endfacet
facet normal 0.6680616140365601 0.7017085552215576 -0.24758613109588623
 outer loop
  vertex 443500.0 5402500.0 5561.0
  vertex 444500.0 5402500.0 8259.2998046875
  vertex 444500.0 5401500.0 5425.10009765625
 endloop
endfacet
facet normal 0.16627977788448334 0.9298940896987915 -0.3280975818634033
 outer loop
  vertex 444500.0 5402500.0 8259.2998046875
  vertex 445500.0 5401500.0 5931.89990234375
  vertex 444500.0 5401500.0 5425.10009765625
 endloop
endfacet
facet normal -0.42408689856529236 0.7516365647315979 -0.5051660537719727
 outer loop
  vertex 444500.0 5402500.0 8259.2998046875
  vertex 445500.0 5402500.0 7419.7998046875
  vertex 445500.0 5401500.0 5931.89990234375
 endloop
endfacet
facet normal 0.772934079170227 0.526603102684021 -0.3539237678050995
 outer loop
  vertex 445500.0 5402500.0 7419.7998046875
  vertex 446500.0 5401500.0 8115.7998046875
  vertex 445500.0 5401500.0 5931.89990234375
 endloop
endfacet
facet normal -0.47751384973526 -0.770901620388031 -0.4215342104434967
 outer loop
  vertex 445500.0 5402500.0 7419.7998046875
  vertex 446500.0 5402500.0 6287.0
  vertex 446500.0 5401500.0 8115.7998046875
 endloop
endfacet
facet normal -0.0004961511003784835 -0.1238393560051918 -0.9923021793365479
 outer loop
  vertex 438500.0 5403500.0 3885.5
  vertex 439500.0 5403500.0 3885.0
  vertex 439500.0 5402500.0 4009.800048828125
 endloop
endfacet
facet normal 0.2942771911621094 -0.11835578083992004 -0.9483633041381836
 outer loop
  vertex 439500.0 5403500.0 3885.0
  vertex 440500.0 5402500.0 4320.10009765625
  vertex 439500.0 5402500.0 4009.800048828125
 endloop
endfacet
facet normal 0.07881731539964676 -0.3304118514060974 -0.9405401945114136
 outer loop
  vertex 439500.0 5403500.0 3885.0
  vertex 440500.0 5403500.0 3968.800048828125
  vertex 440500.0 5402500.0 4320.10009765625
 endloop
endfacet
facet normal -0.2109188586473465 -0.32398661971092224 -0.9222503900527954
 outer loop
  vertex 440500.0 5403500.0 3968.800048828125
  vertex 441500.0 5402500.0 4091.39990234375
  vertex 440500.0 5402500.0 4320.10009765625
 endloop
endfacet
facet normal 0.36412161588668823 0.2542760670185089 -0.8959682583808899
 outer loop
  vertex 440500.0 5403500.0 3968.800048828125
  vertex 441500.0 5403500.0 4375.2001953125
  vertex 441500.0 5402500.0 4091.39990234375
 endloop
endfacet
facet normal 0.3607727289199829 0.2546316385269165 -0.8972212076187134
 outer loop
  vertex 441500.0 5403500.0 4375.2001953125
  vertex 442500.0 5402500.0 4493.5
  vertex 441500.0 5402500.0 4091.39990234375
 endloop
endfacet
facet normal 0.47627636790275574 0.3826203942298889 -0.7916833162307739
 outer loop
  vertex 441500.0 5403500.0 4375.2001953125
  vertex 442500.0 5403500.0 4976.7998046875
  vertex 442500.0 5402500.0 4493.5
 endloop
endfacet
facet normal 0.6929576396942139 0.31372955441474915 -0.6491406559944153
 outer loop
  vertex 442500.0 5403500.0 4976.7998046875
  vertex 443500.0 5402500.0 5561.0
  vertex 442500.0 5402500.0 4493.5
 endloop
endfacet
facet normal 0.5585893988609314 0.07606998085975647 -0.8259487748146057
 outer loop
  vertex 442500.0 5403500.0 4976.7998046875
  vertex 443500.0 5403500.0 5653.10009765625
  vertex 443500.0 5402500.0 5561.0
 endloop
endfacet
facet normal 0.9371975660324097 0.03198902681469917 -0.34732893109321594
 outer loop
  vertex 443500.0 5403500.0 5653.10009765625
  vertex 444500.0 5402500.0 8259.2998046875
  vertex 443500.0 5402500.0 5561.0
 endloop
endfacet
facet normal -0.04549727961421013 -0.9383793473243713 -0.3425992429256439
 outer loop
  vertex 443500.0 5403500.0 5653.10009765625
  vertex 444500.0 5403500.0 5520.2998046875
  vertex 444500.0 5402500.0 8259.2998046875
 endloop
endfacet
facet normal -0.27667149901390076 -0.9026840329170227 -0.329567015171051
 outer loop
  vertex 444500.0 5403500.0 5520.2998046875
  vertex 445500.0 5402500.0 7419.7998046875
  vertex 444500.0 5402500.0 8259.2998046875
 endloop
endfacet
facet normal 0.22015038132667542 -0.8106000423431396 -0.5426430106163025
 outer loop
  vertex 444500.0 5403500.0 5520.2998046875
  vertex 445500.0 5403500.0 5926.0
  vertex 445500.0 5402500.0 7419.7998046875
 endloop
endfacet
facet normal -0.5331384539604187 -0.7030386924743652 -0.47063785791397095
 outer loop
  vertex 445500.0 5403500.0 5926.0
  vertex 446500.0 5402500.0 6287.0
  vertex 445500.0 5402500.0 7419.7998046875
 endloop
endfacet
facet normal 0.023689713329076767 0.017392385751008987 -0.9995680451393127
 outer loop
  vertex 437500.0 5404500.0 3879.199951171875
  vertex 438500.0 5403500.0 3885.5
  vertex 437500.0 5403500.0 3861.800048828125
 endloop
endfacet
facet normal 0.02957911789417267 0.02328353561460972 -0.9992912411689758
 outer loop
  vertex 437500.0 5404500.0 3879.199951171875
  vertex 438500.0 5404500.0 3908.800048828125
  vertex 438500.0 5403500.0 3885.5
 endloop
endfacet
facet normal -0.0004998642834834754 0.023293722420930862 -0.9997285008430481
 outer loop
  vertex 438500.0 5404500.0 3908.800048828125
  vertex 439500.0 5403500.0 3885.0
  vertex 438500.0 5403500.0 3885.5
 endloop
endfacet
facet normal -0.03537560999393463 -0.011592059396207333 -0.999306857585907
 outer loop
  vertex 438500.0 5404500.0 3908.800048828125
  vertex 439500.0 5404500.0 3873.39990234375
  vertex 439500.0 5403500.0 3885.0
 endloop
endfacet
facet normal 0.08350177109241486 -0.011558808386325836 -0.996440589427948
 outer loop
  vertex 439500.0 5404500.0 3873.39990234375
  vertex 440500.0 5403500.0 3968.800048828125
  vertex 439500.0 5403500.0 3885.0
 endloop
endfacet
facet normal 0.0291240606456995 -0.06602735072374344 -0.9973927140235901
 outer loop
  vertex 439500.0 5404500.0 3873.39990234375
  vertex 440500.0 5404500.0 3902.60009765625
  vertex 440500.0 5403500.0 3968.800048828125
 endloop
endfacet
facet normal 0.3757903575897217 -0.06121382117271423 -0.9246807098388672
 outer loop
  vertex 440500.0 5404500.0 3902.60009765625
  vertex 441500.0 5403500.0 4375.2001953125
  vertex 440500.0 5403500.0 3968.800048828125
 endloop
endfacet
facet normal 0.28705400228500366 -0.159348726272583 -0.9445675611495972
 outer loop
  vertex 440500.0 5404500.0 3902.60009765625
  vertex 441500.0 5404500.0 4206.5
  vertex 441500.0 5403500.0 4375.2001953125
 endloop
endfacet
facet normal 0.5102000832557678 -0.14306998252868652 -0.8480724692344666
 outer loop
  vertex 441500.0 5404500.0 4206.5
  vertex 442500.0 5403500.0 4976.7998046875
  vertex 441500.0 5403500.0 4375.2001953125
 endloop
endfacet
facet normal 0.09791823476552963 -0.5440085530281067 -0.8333467245101929
 outer loop
  vertex 441500.0 5404500.0 4206.5
  vertex 442500.0 5404500.0 4324.0
  vertex 442500.0 5403500.0 4976.7998046875
 endloop
endfacet
facet normal 0.49278029799461365 -0.4756568670272827 -0.7286412715911865
 outer loop
  vertex 442500.0 5404500.0 4324.0
  vertex 443500.0 5403500.0 5653.10009765625
  vertex 442500.0 5403500.0 4976.7998046875
 endloop
endfacet
facet normal 0.3525906503200531 -0.6008748412132263 -0.717376708984375
 outer loop
  vertex 442500.0 5404500.0 4324.0
  vertex 443500.0 5404500.0 4815.5
  vertex 443500.0 5403500.0 5653.10009765625
 endloop
endfacet
facet normal -0.10128255933523178 -0.6388108730316162 -0.7626680731773376
 outer loop
  vertex 443500.0 5404500.0 4815.5
  vertex 444500.0 5403500.0 5520.2998046875
  vertex 443500.0 5403500.0 5653.10009765625
 endloop
endfacet
facet normal 0.5413480401039124 -0.05018993839621544 -0.8392992615699768
 outer loop
  vertex 443500.0 5404500.0 4815.5
  vertex 444500.0 5404500.0 5460.5
  vertex 444500.0 5403500.0 5520.2998046875
 endloop
endfacet
facet normal 0.37536385655403137 -0.055328257381916046 -0.9252247214317322
 outer loop
  vertex 444500.0 5404500.0 5460.5
  vertex 445500.0 5403500.0 5926.0
  vertex 444500.0 5403500.0 5520.2998046875
 endloop
endfacet
facet normal -0.4400124251842499 -0.7011699080467224 -0.5610257983207703
 outer loop
  vertex 444500.0 5404500.0 5460.5
  vertex 445500.0 5404500.0 4676.2001953125
  vertex 445500.0 5403500.0 5926.0
 endloop
endfacet
facet normal -0.03537796437740326 -0.001099408371374011 -0.9993733763694763
 outer loop
  vertex 438500.0 5405500.0 3907.699951171875
  vertex 439500.0 5404500.0 3873.39990234375
  vertex 438500.0 5404500.0 3908.800048828125
 endloop
endfacet
facet normal 0.007992597296833992 0.04226090386509895 -0.9990746974945068
 outer loop
  vertex 438500.0 5405500.0 3907.699951171875
  vertex 439500.0 5405500.0 3915.699951171875
  vertex 439500.0 5404500.0 3873.39990234375
 endloop
endfacet
facet normal 0.029161695390939713 0.04224427789449692 -0.9986816048622131
 outer loop
  vertex 439500.0 5405500.0 3915.699951171875
  vertex 440500.0 5404500.0 3902.60009765625
  vertex 439500.0 5404500.0 3873.39990234375
 endloop
endfacet
facet normal -0.043239835649728775 -0.03015819750726223 -0.9986094236373901
 outer loop
  vertex 439500.0 5405500.0 3915.699951171875
  vertex 440500.0 5405500.0 3872.39990234375
  vertex 440500.0 5404500.0 3902.60009765625
 endloop
endfacet
facet normal 0.29064804315567017 -0.02888328582048416 -0.9563940167427063
 outer loop
  vertex 440500.0 5405500.0 3872.39990234375
  vertex 441500.0 5404500.0 4206.5
  vertex 440500.0 5404500.0 3902.60009765625
 endloop
endfacet
facet normal 0.011994539760053158 -0.30604878067970276 -0.9519402384757996
 outer loop
  vertex 440500.0 5405500.0 3872.39990234375
  vertex 441500.0 5405500.0 3885.0
  vertex 441500.0 5404500.0 4206.5
 endloop
endfacet
facet normal 0.11116768419742584 -0.30417370796203613 -0.9461079239845276
 outer loop
  vertex 441500.0 5405500.0 3885.0
  vertex 442500.0 5404500.0 4324.0
  vertex 441500.0 5404500.0 4206.5
 endloop
endfacet
facet normal 0.15270322561264038 -0.2652316689491272 -0.9520156979560852
 outer loop
  vertex 441500.0 5405500.0 3885.0
  vertex 442500.0 5405500.0 4045.39990234375
  vertex 442500.0 5404500.0 4324.0
 endloop
endfacet
facet normal 0.4279271364212036 -0.24256466329097748 -0.870655357837677
 outer loop
  vertex 442500.0 5405500.0 4045.39990234375
  vertex 443500.0 5404500.0 4815.5
  vertex 442500.0 5404500.0 4324.0
 endloop
endfacet
facet normal 0.3598158359527588 -0.3161887526512146 -0.8778138756752014
 outer loop
  vertex 442500.0 5405500.0 4045.39990234375
  vertex 443500.0 5405500.0 4455.2998046875
  vertex 443500.0 5404500.0 4815.5
 endloop
endfacet
facet normal 0.5187849998474121 -0.289715439081192 -0.804317831993103
 outer loop
  vertex 443500.0 5405500.0 4455.2998046875
  vertex 444500.0 5404500.0 5460.5
  vertex 443500.0 5404500.0 4815.5
 endloop
endfacet
facet normal 0.34257417917251587 -0.4732409715652466 -0.8115946650505066
 outer loop
  vertex 443500.0 5405500.0 4455.2998046875
  vertex 444500.0 5405500.0 4877.39990234375
  vertex 444500.0 5404500.0 5460.5
 endloop
endfacet
facet normal -0.5609111189842224 -0.41701826453208923 -0.7151743769645691
 outer loop
  vertex 444500.0 5405500.0 4877.39990234375
  vertex 445500.0 5404500.0 4676.2001953125
  vertex 444500.0 5404500.0 5460.5
 endloop
endfacet
facet normal 0.0079601239413023 -0.09940195828676224 -0.995015561580658
 outer loop
  vertex 438500.0 5406500.0 3807.800048828125
  vertex 439500.0 5405500.0 3915.699951171875
  vertex 438500.0 5405500.0 3907.699951171875
 endloop
endfacet
facet normal 0.07395477592945099 -0.03358859941363335 -0.9966957569122314
 outer loop
  vertex 438500.0 5406500.0 3807.800048828125
  vertex 439500.0 5406500.0 3882.0
  vertex 439500.0 5405500.0 3915.699951171875
 endloop
endfacet
facet normal -0.043235018849372864 -0.03364933654665947 -0.9984980821609497
 outer loop
  vertex 439500.0 5406500.0 3882.0
  vertex 440500.0 5405500.0 3872.39990234375
  vertex 439500.0 5405500.0 3915.699951171875
 endloop
endfacet
facet normal -0.0022999814245849848 0.0072998348623514175 -0.9999706745147705
 outer loop
  vertex 439500.0 5406500.0 3882.0
  vertex 440500.0 5406500.0 3879.699951171875
  vertex 440500.0 5405500.0 3872.39990234375
 endloop
endfacet
facet normal 0.012598762288689613 0.007299275137484074 -0.9998940229415894
 outer loop
  vertex 440500.0 5406500.0 3879.699951171875
  vertex 441500.0 5405500.0 3885.0
  vertex 440500.0 5405500.0 3872.39990234375
 endloop
endfacet
facet normal -0.005199594423174858 -0.010499279946088791 -0.9999313950538635
 outer loop
  vertex 440500.0 5406500.0 3879.699951171875
  vertex 441500.0 5406500.0 3874.5
  vertex 441500.0 5405500.0 3885.0
 endloop
endfacet
facet normal 0.15836697816848755 -0.010366921313107014 -0.98732590675354
 outer loop
  vertex 441500.0 5406500.0 3874.5
  vertex 442500.0 5405500.0 4045.39990234375
  vertex 441500.0 5405500.0 3885.0
 endloop
endfacet
facet normal 0.042414940893650055 -0.12694723904132843 -0.9910022020339966
 outer loop
  vertex 441500.0 5406500.0 3874.5
  vertex 442500.0 5406500.0 3917.300048828125
  vertex 442500.0 5405500.0 4045.39990234375
 endloop
endfacet
facet normal 0.3766374886035919 -0.1177048534154892 -0.9188523292541504
 outer loop
  vertex 442500.0 5406500.0 3917.300048828125
  vertex 443500.0 5405500.0 4455.2998046875
  vertex 442500.0 5405500.0 4045.39990234375
 endloop
endfacet
facet normal 0.0954410582780838 -0.3959203362464905 -0.9133115410804749
 outer loop
  vertex 442500.0 5406500.0 3917.300048828125
  vertex 443500.0 5406500.0 4021.800048828125
  vertex 443500.0 5405500.0 4455.2998046875
 endloop
endfacet
facet normal 0.3611401319503784 -0.3708934187889099 -0.8555792570114136
 outer loop
  vertex 443500.0 5406500.0 4021.800048828125
  vertex 444500.0 5405500.0 4877.39990234375
  vertex 443500.0 5405500.0 4455.2998046875
 endloop
endfacet
facet normal -0.002299596555531025 0.019696079194545746 -0.9998034238815308
 outer loop
  vertex 439500.0 5407500.0 3901.699951171875
  vertex 440500.0 5406500.0 3879.699951171875
  vertex 439500.0 5406500.0 3882.0
 endloop
endfacet
facet normal -0.025091830641031265 -0.003098862711340189 -0.9996803402900696
 outer loop
  vertex 439500.0 5407500.0 3901.699951171875
  vertex 440500.0 5407500.0 3876.60009765625
  vertex 440500.0 5406500.0 3879.699951171875
 endloop
endfacet
facet normal -0.005199856124818325 -0.0030997968278825283 -0.999981701374054
 outer loop
  vertex 440500.0 5407500.0 3876.60009765625
  vertex 441500.0 5406500.0 3874.5
  vertex 440500.0 5406500.0 3879.699951171875
 endloop
endfacet
facet normal -0.03476043790578842 -0.032662730664014816 -0.9988617897033691
 outer loop
  vertex 440500.0 5407500.0 3876.60009765625
  vertex 441500.0 5407500.0 3841.800048828125
  vertex 441500.0 5406500.0 3874.5
 endloop
endfacet
facet normal 0.04273809865117073 -0.03265262022614479 -0.9985526204109192
 outer loop
  vertex 441500.0 5407500.0 3841.800048828125
  vertex 442500.0 5406500.0 3917.300048828125
  vertex 441500.0 5406500.0 3874.5
 endloop
endfacet
facet normal 0.039044179022312164 -0.03634832054376602 -0.9985761642456055
 outer loop
  vertex 441500.0 5407500.0 3841.800048828125
  vertex 442500.0 5407500.0 3880.89990234375
  vertex 442500.0 5406500.0 3917.300048828125
 endloop
endfacet
facet normal 0.10386599600315094 -0.0361793115735054 -0.9939330220222473
 outer loop
  vertex 442500.0 5407500.0 3880.89990234375
  vertex 443500.0 5406500.0 4021.800048828125
  vertex 442500.0 5406500.0 3917.300048828125
 endloop
endfacet
facet normal -0.03477880731225014 0.003297790652140975 -0.9993896484375
 outer loop
  vertex 440500.0 5408500.0 3879.89990234375
  vertex 441500.0 5407500.0 3841.800048828125
  vertex 440500.0 5407500.0 3876.60009765625
 endloop
endfacet
endsolid
