solid
facet normal -0.01991194486618042 -0.33020076155662537 -0.9437006115913391
 outer loop
  vertex 354500.0 5691500.0 3110.39990234375
  vertex 355500.0 5691500.0 3089.300048828125
  vertex 355500.0 5690500.0 3439.199951171875
 endloop
endfacet
facet normal 0.5687040686607361 -0.27165794372558594 -0.7763875722885132
 outer loop
  vertex 355500.0 5691500.0 3089.300048828125
  vertex 356500.0 5690500.0 4171.7001953125
  vertex 355500.0 5690500.0 3439.199951171875
 endloop
endfacet
facet normal 0.02753949910402298 -0.7214233875274658 -0.6919463872909546
 outer loop
  vertex 355500.0 5691500.0 3089.300048828125
  vertex 356500.0 5691500.0 3129.10009765625
  vertex 356500.0 5690500.0 4171.7001953125
 endloop
endfacet
facet normal -0.15322400629520416 -0.7131749987602234 -0.6840350031852722
 outer loop
  vertex 356500.0 5691500.0 3129.10009765625
  vertex 357500.0 5690500.0 3947.699951171875
  vertex 356500.0 5690500.0 4171.7001953125
 endloop
endfacet
facet normal 0.09747324138879776 -0.5702387690544128 -0.815675675868988
 outer loop
  vertex 356500.0 5691500.0 3129.10009765625
  vertex 357500.0 5691500.0 3248.60009765625
  vertex 357500.0 5690500.0 3947.699951171875
 endloop
endfacet
facet normal -0.292347252368927 -0.547935426235199 -0.7837727665901184
 outer loop
  vertex 357500.0 5691500.0 3248.60009765625
  vertex 358500.0 5690500.0 3574.699951171875
  vertex 357500.0 5690500.0 3947.699951171875
 endloop
endfacet
facet normal 0.2472476065158844 -0.06794967502355576 -0.966566801071167
 outer loop
  vertex 357500.0 5691500.0 3248.60009765625
  vertex 358500.0 5691500.0 3504.39990234375
  vertex 358500.0 5690500.0 3574.699951171875
 endloop
endfacet
facet normal -0.021072005853056908 -0.046838004142045975 -0.9986801743507385
 outer loop
  vertex 354500.0 5692500.0 3063.5
  vertex 355500.0 5691500.0 3089.300048828125
  vertex 354500.0 5691500.0 3110.39990234375
 endloop
endfacet
facet normal 0.2931663393974304 0.26950016617774963 -0.9172911643981934
 outer loop
  vertex 354500.0 5692500.0 3063.5
  vertex 355500.0 5692500.0 3383.10009765625
  vertex 355500.0 5691500.0 3089.300048828125
 endloop
endfacet
facet normal 0.03815827891230583 0.2816805839538574 -0.9587492346763611
 outer loop
  vertex 355500.0 5692500.0 3383.10009765625
  vertex 356500.0 5691500.0 3129.10009765625
  vertex 355500.0 5691500.0 3089.300048828125
 endloop
endfacet
facet normal 0.22705864906311035 0.4468487501144409 -0.865315318107605
 outer loop
  vertex 355500.0 5692500.0 3383.10009765625
  vertex 356500.0 5692500.0 3645.5
  vertex 356500.0 5691500.0 3129.10009765625
 endloop
endfacet
facet normal 0.10558493435382843 0.45626819133758545 -0.8835559487342834
 outer loop
  vertex 356500.0 5692500.0 3645.5
  vertex 357500.0 5691500.0 3248.60009765625
  vertex 356500.0 5691500.0 3129.10009765625
 endloop
endfacet
facet normal -0.45422542095184326 -0.10300390422344208 -0.8849120736122131
 outer loop
  vertex 356500.0 5692500.0 3645.5
  vertex 357500.0 5692500.0 3132.199951171875
  vertex 357500.0 5691500.0 3248.60009765625
 endloop
endfacet
facet normal 0.24625948071479797 -0.11205888539552689 -0.9627040028572083
 outer loop
  vertex 357500.0 5692500.0 3132.199951171875
  vertex 358500.0 5691500.0 3504.39990234375
  vertex 357500.0 5691500.0 3248.60009765625
 endloop
endfacet
facet normal 0.40047645568847656 0.06016295775771141 -0.9143298268318176
 outer loop
  vertex 357500.0 5692500.0 3132.199951171875
  vertex 358500.0 5692500.0 3570.199951171875
  vertex 358500.0 5691500.0 3504.39990234375
 endloop
endfacet
facet normal 0.44651269912719727 0.05874934792518616 -0.8928465843200684
 outer loop
  vertex 358500.0 5692500.0 3570.199951171875
  vertex 359500.0 5691500.0 4004.5
  vertex 358500.0 5691500.0 3504.39990234375
 endloop
endfacet
facet normal 0.4599583148956299 0.0757308378815651 -0.884705126285553
 outer loop
  vertex 358500.0 5692500.0 3570.199951171875
  vertex 359500.0 5692500.0 4090.10009765625
  vertex 359500.0 5691500.0 4004.5
 endloop
endfacet
facet normal 0.07244343310594559 0.0850641056895256 -0.9937384724617004
 outer loop
  vertex 359500.0 5692500.0 4090.10009765625
  vertex 360500.0 5691500.0 4077.39990234375
  vertex 359500.0 5691500.0 4004.5
 endloop
endfacet
facet normal 0.1831558793783188 0.19539213180541992 -0.9634707570075989
 outer loop
  vertex 359500.0 5692500.0 4090.10009765625
  vertex 360500.0 5692500.0 4280.2001953125
  vertex 360500.0 5691500.0 4077.39990234375
 endloop
endfacet
facet normal 0.29122596979141235 0.291316956281662 -0.9112199544906616
 outer loop
  vertex 354500.0 5693500.0 3383.199951171875
  vertex 355500.0 5692500.0 3383.10009765625
  vertex 354500.0 5692500.0 3063.5
 endloop
endfacet
facet normal 0.3027348518371582 0.30282509326934814 -0.9036861658096313
 outer loop
  vertex 354500.0 5693500.0 3383.199951171875
  vertex 355500.0 5693500.0 3718.199951171875
  vertex 355500.0 5692500.0 3383.10009765625
 endloop
endfacet
facet normal 0.2414414882659912 0.3083347678184509 -0.9201280474662781
 outer loop
  vertex 355500.0 5693500.0 3718.199951171875
  vertex 356500.0 5692500.0 3645.5
  vertex 355500.0 5692500.0 3383.10009765625
 endloop
endfacet
facet normal 0.2688841223716736 0.33454710245132446 -0.9032052159309387
 outer loop
  vertex 355500.0 5693500.0 3718.199951171875
  vertex 356500.0 5693500.0 4015.89990234375
  vertex 356500.0 5692500.0 3645.5
 endloop
endfacet
facet normal -0.433713436126709 0.312969833612442 -0.8449511528015137
 outer loop
  vertex 356500.0 5693500.0 4015.89990234375
  vertex 357500.0 5692500.0 3132.199951171875
  vertex 356500.0 5692500.0 3645.5
 endloop
endfacet
facet normal -0.2861205041408539 0.457759290933609 -0.8417787551879883
 outer loop
  vertex 356500.0 5693500.0 4015.89990234375
  vertex 357500.0 5693500.0 3676.0
  vertex 357500.0 5692500.0 3132.199951171875
 endloop
endfacet
facet normal 0.35911741852760315 0.44586318731307983 -0.8199028372764587
 outer loop
  vertex 357500.0 5693500.0 3676.0
  vertex 358500.0 5692500.0 3570.199951171875
  vertex 357500.0 5692500.0 3132.199951171875
 endloop
endfacet
facet normal -0.4508587718009949 -0.36466270685195923 -0.8147069811820984
 outer loop
  vertex 357500.0 5693500.0 3676.0
  vertex 358500.0 5693500.0 3122.60009765625
  vertex 358500.0 5692500.0 3570.199951171875
 endloop
endfacet
facet normal 0.4287128746509552 -0.3690935969352722 -0.82460618019104
 outer loop
  vertex 358500.0 5693500.0 3122.60009765625
  vertex 359500.0 5692500.0 4090.10009765625
  vertex 358500.0 5692500.0 3570.199951171875
 endloop
endfacet
facet normal -0.030163923278450966 -0.7104318141937256 -0.7031192779541016
 outer loop
  vertex 358500.0 5693500.0 3122.60009765625
  vertex 359500.0 5693500.0 3079.699951171875
  vertex 359500.0 5692500.0 4090.10009765625
 endloop
endfacet
facet normal 0.13254408538341522 -0.7044843435287476 -0.6972330212593079
 outer loop
  vertex 359500.0 5693500.0 3079.699951171875
  vertex 360500.0 5692500.0 4280.2001953125
  vertex 359500.0 5692500.0 4090.10009765625
 endloop
endfacet
facet normal 0.7161406874656677 -0.11107669025659561 -0.6890605688095093
 outer loop
  vertex 359500.0 5693500.0 3079.699951171875
  vertex 360500.0 5693500.0 4119.0
  vertex 360500.0 5692500.0 4280.2001953125
 endloop
endfacet
facet normal 0.2930816411972046 -0.15215721726417542 -0.9439022541046143
 outer loop
  vertex 360500.0 5693500.0 4119.0
  vertex 361500.0 5692500.0 4590.7001953125
  vertex 360500.0 5692500.0 4280.2001953125
 endloop
endfacet
facet normal 0.16709671914577484 -0.2789670526981354 -0.9456510543823242
 outer loop
  vertex 360500.0 5693500.0 4119.0
  vertex 361500.0 5693500.0 4295.7001953125
  vertex 361500.0 5692500.0 4590.7001953125
 endloop
endfacet
facet normal -0.5746086239814758 -0.23157033324241638 -0.7849841713905334
 outer loop
  vertex 361500.0 5693500.0 4295.7001953125
  vertex 362500.0 5692500.0 3858.699951171875
  vertex 361500.0 5692500.0 4590.7001953125
 endloop
endfacet
facet normal -0.3501138985157013 0.05843018367886543 -0.9348829388618469
 outer loop
  vertex 361500.0 5693500.0 4295.7001953125
  vertex 362500.0 5693500.0 3921.199951171875
  vertex 362500.0 5692500.0 3858.699951171875
 endloop
endfacet
facet normal 0.32151007652282715 0.05906638130545616 -0.9450621008872986
 outer loop
  vertex 362500.0 5693500.0 3921.199951171875
  vertex 363500.0 5692500.0 4198.89990234375
  vertex 362500.0 5692500.0 3858.699951171875
 endloop
endfacet
facet normal -0.07947143167257309 -0.3397214114665985 -0.9371625185012817
 outer loop
  vertex 362500.0 5693500.0 3921.199951171875
  vertex 363500.0 5693500.0 3836.39990234375
  vertex 363500.0 5692500.0 4198.89990234375
 endloop
endfacet
facet normal -0.1804107278585434 -0.3352072536945343 -0.924709677696228
 outer loop
  vertex 363500.0 5693500.0 3836.39990234375
  vertex 364500.0 5692500.0 4003.800048828125
  vertex 363500.0 5692500.0 4198.89990234375
 endloop
endfacet
facet normal -0.14980462193489075 -0.3071278929710388 -0.9398037195205688
 outer loop
  vertex 363500.0 5693500.0 3836.39990234375
  vertex 364500.0 5693500.0 3677.0
  vertex 364500.0 5692500.0 4003.800048828125
 endloop
endfacet
facet normal -0.33000311255455017 -0.6968147158622742 -0.6368258595466614
 outer loop
  vertex 365500.0 5693500.0 3763.800048828125
  vertex 366500.0 5693500.0 3245.60009765625
  vertex 366500.0 5692500.0 4339.7998046875
 endloop
endfacet
facet normal -0.311890184879303 0.24646589159965515 -0.9175941944122314
 outer loop
  vertex 356500.0 5694500.0 4284.5
  vertex 357500.0 5693500.0 3676.0
  vertex 356500.0 5693500.0 4015.89990234375
 endloop
endfacet
facet normal -0.536571741104126 -0.023281630128622055 -0.8435335159301758
 outer loop
  vertex 356500.0 5694500.0 4284.5
  vertex 357500.0 5694500.0 3648.39990234375
  vertex 357500.0 5693500.0 3676.0
 endloop
endfacet
facet normal -0.4840598702430725 -0.02414185181260109 -0.874701738357544
 outer loop
  vertex 357500.0 5694500.0 3648.39990234375
  vertex 358500.0 5693500.0 3122.60009765625
  vertex 357500.0 5693500.0 3676.0
 endloop
endfacet
facet normal -0.09030207246541977 0.391248494386673 -0.9158439040184021
 outer loop
  vertex 357500.0 5694500.0 3648.39990234375
  vertex 358500.0 5694500.0 3549.800048828125
  vertex 358500.0 5693500.0 3122.60009765625
 endloop
endfacet
facet normal -0.03942036256194115 0.392548143863678 -0.9188862442970276
 outer loop
  vertex 358500.0 5694500.0 3549.800048828125
  vertex 359500.0 5693500.0 3079.699951171875
  vertex 358500.0 5693500.0 3122.60009765625
 endloop
endfacet
facet normal 0.2224796861410141 0.5880433917045593 -0.777629554271698
 outer loop
  vertex 358500.0 5694500.0 3549.800048828125
  vertex 359500.0 5694500.0 3835.89990234375
  vertex 359500.0 5693500.0 3079.699951171875
 endloop
endfacet
facet normal 0.63819819688797 0.4643562138080597 -0.614065408706665
 outer loop
  vertex 359500.0 5694500.0 3835.89990234375
  vertex 360500.0 5693500.0 4119.0
  vertex 359500.0 5693500.0 3079.699951171875
 endloop
endfacet
facet normal -0.4389265775680542 -0.6223905682563782 -0.6480535864830017
 outer loop
  vertex 359500.0 5694500.0 3835.89990234375
  vertex 360500.0 5694500.0 3158.60009765625
  vertex 360500.0 5693500.0 4119.0
 endloop
endfacet
facet normal 0.12642133235931396 -0.6871242523193359 -0.7154564261436462
 outer loop
  vertex 360500.0 5694500.0 3158.60009765625
  vertex 361500.0 5693500.0 4295.7001953125
  vertex 360500.0 5693500.0 4119.0
 endloop
endfacet
facet normal 0.44825640320777893 -0.4378918409347534 -0.7793053984642029
 outer loop
  vertex 360500.0 5694500.0 3158.60009765625
  vertex 361500.0 5694500.0 3733.800048828125
  vertex 361500.0 5693500.0 4295.7001953125
 endloop
endfacet
facet normal -0.3103659451007843 -0.46567302942276 -0.8287469744682312
 outer loop
  vertex 361500.0 5694500.0 3733.800048828125
  vertex 362500.0 5693500.0 3921.199951171875
  vertex 361500.0 5693500.0 4295.7001953125
 endloop
endfacet
facet normal -0.028429683297872543 -0.2115122228860855 -0.9769617915153503
 outer loop
  vertex 361500.0 5694500.0 3733.800048828125
  vertex 362500.0 5694500.0 3704.699951171875
  vertex 362500.0 5693500.0 3921.199951171875
 endloop
endfacet
facet normal -0.08259671181440353 -0.2108747512102127 -0.974017322063446
 outer loop
  vertex 362500.0 5694500.0 3704.699951171875
  vertex 363500.0 5693500.0 3836.39990234375
  vertex 362500.0 5693500.0 3921.199951171875
 endloop
endfacet
facet normal -0.13325142860412598 -0.2592327892780304 -0.9565784931182861
 outer loop
  vertex 362500.0 5694500.0 3704.699951171875
  vertex 363500.0 5694500.0 3565.39990234375
  vertex 363500.0 5693500.0 3836.39990234375
 endloop
endfacet
facet normal -0.15206140279769897 -0.2585236132144928 -0.9539616703987122
 outer loop
  vertex 363500.0 5694500.0 3565.39990234375
  vertex 364500.0 5693500.0 3677.0
  vertex 363500.0 5693500.0 3836.39990234375
 endloop
endfacet
facet normal -0.3259219229221344 -0.4204216003417969 -0.8467705845832825
 outer loop
  vertex 363500.0 5694500.0 3565.39990234375
  vertex 364500.0 5694500.0 3180.5
  vertex 364500.0 5693500.0 3677.0
 endloop
endfacet
facet normal 0.07751097530126572 -0.44336602091789246 -0.8929829001426697
 outer loop
  vertex 364500.0 5694500.0 3180.5
  vertex 365500.0 5693500.0 3763.800048828125
  vertex 364500.0 5693500.0 3677.0
 endloop
endfacet
facet normal -0.010481548495590687 -0.51162189245224 -0.859146773815155
 outer loop
  vertex 364500.0 5694500.0 3180.5
  vertex 365500.0 5694500.0 3168.300048828125
  vertex 365500.0 5693500.0 3763.800048828125
 endloop
endfacet
facet normal -0.40674087405204773 -0.4674145579338074 -0.7849110960960388
 outer loop
  vertex 365500.0 5694500.0 3168.300048828125
  vertex 366500.0 5693500.0 3245.60009765625
  vertex 365500.0 5693500.0 3763.800048828125
 endloop
endfacet
facet normal 0.34194013476371765 0.2724188268184662 -0.8993692398071289
 outer loop
  vertex 365500.0 5694500.0 3168.300048828125
  vertex 366500.0 5694500.0 3548.5
  vertex 366500.0 5693500.0 3245.60009765625
 endloop
endfacet
facet normal 0.2399839609861374 0.2814215123653412 -0.9290907382965088
 outer loop
  vertex 366500.0 5694500.0 3548.5
  vertex 367500.0 5693500.0 3503.89990234375
  vertex 366500.0 5693500.0 3245.60009765625
 endloop
endfacet
facet normal 0.43922391533851624 0.473280668258667 -0.7636018395423889
 outer loop
  vertex 366500.0 5694500.0 3548.5
  vertex 367500.0 5694500.0 4123.7001953125
  vertex 367500.0 5693500.0 3503.89990234375
 endloop
endfacet
facet normal -0.48470228910446167 -0.42945796251296997 -0.7619905471801758
 outer loop
  vertex 356500.0 5695500.0 3720.89990234375
  vertex 357500.0 5694500.0 3648.39990234375
  vertex 356500.0 5694500.0 4284.5
 endloop
endfacet
facet normal 0.21148402988910675 0.2793874442577362 -0.9365987181663513
 outer loop
  vertex 356500.0 5695500.0 3720.89990234375
  vertex 357500.0 5695500.0 3946.699951171875
  vertex 357500.0 5694500.0 3648.39990234375
 endloop
endfacet
facet normal -0.09406665712594986 0.28458553552627563 -0.9540243744850159
 outer loop
  vertex 357500.0 5695500.0 3946.699951171875
  vertex 358500.0 5694500.0 3549.800048828125
  vertex 357500.0 5694500.0 3648.39990234375
 endloop
endfacet
facet normal 0.07045798748731613 0.42806392908096313 -0.9009978175163269
 outer loop
  vertex 357500.0 5695500.0 3946.699951171875
  vertex 358500.0 5695500.0 4024.89990234375
  vertex 358500.0 5694500.0 3549.800048828125
 endloop
endfacet
facet normal 0.25019845366477966 0.41548168659210205 -0.8745145201683044
 outer loop
  vertex 358500.0 5695500.0 4024.89990234375
  vertex 359500.0 5694500.0 3835.89990234375
  vertex 358500.0 5694500.0 3549.800048828125
 endloop
endfacet
facet normal 0.023466959595680237 0.20826926827430725 -0.9777899980545044
 outer loop
  vertex 358500.0 5695500.0 4024.89990234375
  vertex 359500.0 5695500.0 4048.89990234375
  vertex 359500.0 5694500.0 3835.89990234375
 endloop
endfacet
facet normal -0.5522580146789551 0.17367635667324066 -0.8153819441795349
 outer loop
  vertex 359500.0 5695500.0 4048.89990234375
  vertex 360500.0 5694500.0 3158.60009765625
  vertex 359500.0 5694500.0 3835.89990234375
 endloop
endfacet
facet normal -0.6612048149108887 0.0066765169613063335 -0.7501757144927979
 outer loop
  vertex 359500.0 5695500.0 4048.89990234375
  vertex 360500.0 5695500.0 3167.5
  vertex 360500.0 5694500.0 3158.60009765625
 endloop
endfacet
facet normal 0.498586505651474 0.007714484818279743 -0.8668055534362793
 outer loop
  vertex 360500.0 5695500.0 3167.5
  vertex 361500.0 5694500.0 3733.800048828125
  vertex 360500.0 5694500.0 3158.60009765625
 endloop
endfacet
facet normal 0.17602893710136414 -0.3458831012248993 -0.9216174483299255
 outer loop
  vertex 360500.0 5695500.0 3167.5
  vertex 361500.0 5695500.0 3358.5
  vertex 361500.0 5694500.0 3733.800048828125
 endloop
endfacet
facet normal -0.027234503999352455 -0.351239413022995 -0.9358896017074585
 outer loop
  vertex 361500.0 5695500.0 3358.5
  vertex 362500.0 5694500.0 3704.699951171875
  vertex 361500.0 5694500.0 3733.800048828125
 endloop
endfacet
facet normal 0.15128886699676514 -0.1848868727684021 -0.9710450768470764
 outer loop
  vertex 361500.0 5695500.0 3358.5
  vertex 362500.0 5695500.0 3514.300048828125
  vertex 362500.0 5694500.0 3704.699951171875
 endloop
endfacet
facet normal -0.1355782300233841 -0.18531279265880585 -0.973281979560852
 outer loop
  vertex 362500.0 5695500.0 3514.300048828125
  vertex 363500.0 5694500.0 3565.39990234375
  vertex 362500.0 5694500.0 3704.699951171875
 endloop
endfacet
facet normal -0.14077851176261902 -0.190424844622612 -0.9715553522109985
 outer loop
  vertex 362500.0 5695500.0 3514.300048828125
  vertex 363500.0 5695500.0 3369.39990234375
  vertex 363500.0 5694500.0 3565.39990234375
 endloop
endfacet
facet normal -0.35334768891334534 -0.1799328774213791 -0.9180248379707336
 outer loop
  vertex 363500.0 5695500.0 3369.39990234375
  vertex 364500.0 5694500.0 3180.5
  vertex 363500.0 5694500.0 3565.39990234375
 endloop
endfacet
facet normal -0.01191421877592802 0.17408759891986847 -0.9846581220626831
 outer loop
  vertex 363500.0 5695500.0 3369.39990234375
  vertex 364500.0 5695500.0 3357.300048828125
  vertex 364500.0 5694500.0 3180.5
 endloop
endfacet
facet normal -0.012012768536806107 0.17408739030361176 -0.9846569299697876
 outer loop
  vertex 364500.0 5695500.0 3357.300048828125
  vertex 365500.0 5694500.0 3168.300048828125
  vertex 364500.0 5694500.0 3180.5
 endloop
endfacet
facet normal 0.1284501999616623 0.3066961169242859 -0.9431001543998718
 outer loop
  vertex 364500.0 5695500.0 3357.300048828125
  vertex 365500.0 5695500.0 3493.5
  vertex 365500.0 5694500.0 3168.300048828125
 endloop
endfacet
facet normal 0.3400194048881531 0.29083195328712463 -0.8943173885345459
 outer loop
  vertex 365500.0 5695500.0 3493.5
  vertex 366500.0 5694500.0 3548.5
  vertex 365500.0 5694500.0 3168.300048828125
 endloop
endfacet
facet normal -0.041470639407634735 -0.09616818279027939 -0.9945008158683777
 outer loop
  vertex 365500.0 5695500.0 3493.5
  vertex 366500.0 5695500.0 3451.800048828125
  vertex 366500.0 5694500.0 3548.5
 endloop
endfacet
facet normal 0.49685904383659363 -0.08352960646152496 -0.8638019561767578
 outer loop
  vertex 366500.0 5695500.0 3451.800048828125
  vertex 367500.0 5694500.0 4123.7001953125
  vertex 366500.0 5694500.0 3548.5
 endloop
endfacet
facet normal 0.3613002598285675 -0.24347738921642303 -0.9001005291938782
 outer loop
  vertex 366500.0 5695500.0 3451.800048828125
  vertex 367500.0 5695500.0 3853.199951171875
  vertex 367500.0 5694500.0 4123.7001953125
 endloop
endfacet
facet normal 0.21728138625621796 -0.25487759709358215 -0.9422453045845032
 outer loop
  vertex 367500.0 5695500.0 3853.199951171875
  vertex 368500.0 5694500.0 4354.2998046875
  vertex 367500.0 5694500.0 4123.7001953125
 endloop
endfacet
facet normal 0.07796154171228409 -0.003190195420756936 -0.9969512820243835
 outer loop
  vertex 357500.0 5696500.0 3943.5
  vertex 358500.0 5695500.0 4024.89990234375
  vertex 357500.0 5695500.0 3946.699951171875
 endloop
endfacet
facet normal -0.04735283926129341 -0.127991184592247 -0.9906442165374756
 outer loop
  vertex 357500.0 5696500.0 3943.5
  vertex 358500.0 5696500.0 3895.699951171875
  vertex 358500.0 5695500.0 4024.89990234375
 endloop
endfacet
facet normal 0.02379542402923107 -0.12809865176677704 -0.9914759993553162
 outer loop
  vertex 358500.0 5696500.0 3895.699951171875
  vertex 359500.0 5695500.0 4048.89990234375
  vertex 358500.0 5695500.0 4024.89990234375
 endloop
endfacet
facet normal 0.24067366123199463 0.09265594184398651 -0.9661734104156494
 outer loop
  vertex 358500.0 5696500.0 3895.699951171875
  vertex 359500.0 5696500.0 4144.7998046875
  vertex 359500.0 5695500.0 4048.89990234375
 endloop
endfacet
facet normal -0.6595149636268616 0.07175792008638382 -0.7482585310935974
 outer loop
  vertex 359500.0 5696500.0 4144.7998046875
  vertex 360500.0 5695500.0 3167.5
  vertex 359500.0 5695500.0 4048.89990234375
 endloop
endfacet
facet normal -0.35818395018577576 0.4443225562572479 -0.8211466670036316
 outer loop
  vertex 359500.0 5696500.0 4144.7998046875
  vertex 360500.0 5696500.0 3708.60009765625
  vertex 360500.0 5695500.0 3167.5
 endloop
endfacet
facet normal 0.165663480758667 0.4693220555782318 -0.8673478960990906
 outer loop
  vertex 360500.0 5696500.0 3708.60009765625
  vertex 361500.0 5695500.0 3358.5
  vertex 360500.0 5695500.0 3167.5
 endloop
endfacet
facet normal -0.30342891812324524 0.030000025406479836 -0.9523817300796509
 outer loop
  vertex 360500.0 5696500.0 3708.60009765625
  vertex 361500.0 5696500.0 3390.0
  vertex 361500.0 5695500.0 3358.5
 endloop
endfacet
facet normal 0.15386836230754852 0.03110944852232933 -0.9876015186309814
 outer loop
  vertex 361500.0 5696500.0 3390.0
  vertex 362500.0 5695500.0 3514.300048828125
  vertex 361500.0 5695500.0 3358.5
 endloop
endfacet
facet normal -0.2057209610939026 -0.32064738869667053 -0.9245885610580444
 outer loop
  vertex 361500.0 5696500.0 3390.0
  vertex 362500.0 5696500.0 3167.5
  vertex 362500.0 5695500.0 3514.300048828125
 endloop
endfacet
facet normal -0.1356361210346222 -0.3246277868747711 -0.9360660910606384
 outer loop
  vertex 362500.0 5696500.0 3167.5
  vertex 363500.0 5695500.0 3369.39990234375
  vertex 362500.0 5695500.0 3514.300048828125
 endloop
endfacet
facet normal 0.5625380873680115 0.4185883104801178 -0.7129759788513184
 outer loop
  vertex 362500.0 5696500.0 3167.5
  vertex 363500.0 5696500.0 3956.5
  vertex 363500.0 5695500.0 3369.39990234375
 endloop
endfacet
facet normal -0.010433847084641457 0.5062651038169861 -0.862314760684967
 outer loop
  vertex 363500.0 5696500.0 3956.5
  vertex 364500.0 5695500.0 3357.300048828125
  vertex 363500.0 5695500.0 3369.39990234375
 endloop
endfacet
facet normal -0.0012875429820269346 0.5130429267883301 -0.8583620190620422
 outer loop
  vertex 363500.0 5696500.0 3956.5
  vertex 364500.0 5696500.0 3955.0
  vertex 364500.0 5695500.0 3357.300048828125
 endloop
endfacet
facet normal 0.11611811071634293 0.5095728039741516 -0.8525562286376953
 outer loop
  vertex 364500.0 5696500.0 3955.0
  vertex 365500.0 5695500.0 3493.5
  vertex 364500.0 5695500.0 3357.300048828125
 endloop
endfacet
facet normal -0.5747466087341309 -0.20969635248184204 -0.7910081148147583
 outer loop
  vertex 364500.0 5696500.0 3955.0
  vertex 365500.0 5696500.0 3228.39990234375
  vertex 365500.0 5695500.0 3493.5
 endloop
endfacet
facet normal -0.04027492552995682 -0.2560407221317291 -0.9658266305923462
 outer loop
  vertex 365500.0 5696500.0 3228.39990234375
  vertex 366500.0 5695500.0 3451.800048828125
  vertex 365500.0 5695500.0 3493.5
 endloop
endfacet
facet normal 0.2205326110124588 0.002633469644933939 -0.9753760099411011
 outer loop
  vertex 365500.0 5696500.0 3228.39990234375
  vertex 366500.0 5696500.0 3454.5
  vertex 366500.0 5695500.0 3451.800048828125
 endloop
endfacet
facet normal 0.3725091814994812 0.002505622571334243 -0.9280251264572144
 outer loop
  vertex 366500.0 5696500.0 3454.5
  vertex 367500.0 5695500.0 3853.199951171875
  vertex 366500.0 5695500.0 3451.800048828125
 endloop
endfacet
facet normal 0.253395676612854 -0.1288548707962036 -0.9587424397468567
 outer loop
  vertex 366500.0 5696500.0 3454.5
  vertex 367500.0 5696500.0 3718.800048828125
  vertex 367500.0 5695500.0 3853.199951171875
 endloop
endfacet
facet normal -0.04761176183819771 -0.07480426877737045 -0.9960609674453735
 outer loop
  vertex 357500.0 5697500.0 3868.39990234375
  vertex 358500.0 5696500.0 3895.699951171875
  vertex 357500.0 5696500.0 3943.5
 endloop
endfacet
facet normal 0.16354885697364807 0.1368768960237503 -0.9769935607910156
 outer loop
  vertex 357500.0 5697500.0 3868.39990234375
  vertex 358500.0 5697500.0 4035.800048828125
  vertex 358500.0 5696500.0 3895.699951171875
 endloop
endfacet
facet normal 0.23951035737991333 0.13470672070980072 -0.9615034461021423
 outer loop
  vertex 358500.0 5697500.0 4035.800048828125
  vertex 359500.0 5696500.0 4144.7998046875
  vertex 358500.0 5696500.0 3895.699951171875
 endloop
endfacet
facet normal -0.08124174922704697 -0.18793246150016785 -0.9788162112236023
 outer loop
  vertex 358500.0 5697500.0 4035.800048828125
  vertex 359500.0 5697500.0 3952.800048828125
  vertex 359500.0 5696500.0 4144.7998046875
 endloop
endfacet
facet normal -0.39376699924468994 -0.1733223795890808 -0.9027218818664551
 outer loop
  vertex 359500.0 5697500.0 3952.800048828125
  vertex 360500.0 5696500.0 3708.60009765625
  vertex 359500.0 5696500.0 4144.7998046875
 endloop
endfacet
facet normal 0.1474972367286682 0.37135544419288635 -0.9167004823684692
 outer loop
  vertex 359500.0 5697500.0 3952.800048828125
  vertex 360500.0 5697500.0 4113.7001953125
  vertex 360500.0 5696500.0 3708.60009765625
 endloop
endfacet
facet normal -0.28320154547691345 0.36009082198143005 -0.8888934254646301
 outer loop
  vertex 360500.0 5697500.0 4113.7001953125
  vertex 361500.0 5696500.0 3390.0
  vertex 360500.0 5696500.0 3708.60009765625
 endloop
endfacet
facet normal -0.1868295967578888 0.44646528363227844 -0.8750790953636169
 outer loop
  vertex 360500.0 5697500.0 4113.7001953125
  vertex 361500.0 5697500.0 3900.199951171875
  vertex 361500.0 5696500.0 3390.0
 endloop
endfacet
facet normal -0.19441324472427368 0.44579607248306274 -0.8737673759460449
 outer loop
  vertex 361500.0 5697500.0 3900.199951171875
  vertex 362500.0 5696500.0 3167.5
  vertex 361500.0 5696500.0 3390.0
 endloop
endfacet
facet normal 0.10758201032876968 0.6553600430488586 -0.7476157546043396
 outer loop
  vertex 361500.0 5697500.0 3900.199951171875
  vertex 362500.0 5697500.0 4044.10009765625
  vertex 362500.0 5696500.0 3167.5
 endloop
endfacet
facet normal 0.5102604031562805 0.5669129490852356 -0.6467178463935852
 outer loop
  vertex 362500.0 5697500.0 4044.10009765625
  vertex 363500.0 5696500.0 3956.5
  vertex 362500.0 5696500.0 3167.5
 endloop
endfacet
facet normal -0.07637175917625427 0.010967209935188293 -0.9970191121101379
 outer loop
  vertex 362500.0 5697500.0 4044.10009765625
  vertex 363500.0 5697500.0 3967.5
  vertex 363500.0 5696500.0 3956.5
 endloop
endfacet
facet normal -0.0014999075792729855 0.010999321937561035 -0.9999383687973022
 outer loop
  vertex 363500.0 5697500.0 3967.5
  vertex 364500.0 5696500.0 3955.0
  vertex 363500.0 5696500.0 3956.5
 endloop
endfacet
facet normal -0.31686103343963623 -0.30563756823539734 -0.8978779315948486
 outer loop
  vertex 363500.0 5697500.0 3967.5
  vertex 364500.0 5697500.0 3614.60009765625
  vertex 364500.0 5696500.0 3955.0
 endloop
endfacet
facet normal -0.5667197704315186 -0.26549866795539856 -0.7799609899520874
 outer loop
  vertex 364500.0 5697500.0 3614.60009765625
  vertex 365500.0 5696500.0 3228.39990234375
  vertex 364500.0 5696500.0 3955.0
 endloop
endfacet
facet normal -0.3769821524620056 -0.019353695213794708 -0.9260182976722717
 outer loop
  vertex 364500.0 5697500.0 3614.60009765625
  vertex 365500.0 5697500.0 3207.5
  vertex 365500.0 5696500.0 3228.39990234375
 endloop
endfacet
facet normal 0.2204875648021698 -0.020381100475788116 -0.9751768112182617
 outer loop
  vertex 365500.0 5697500.0 3207.5
  vertex 366500.0 5696500.0 3454.5
  vertex 365500.0 5696500.0 3228.39990234375
 endloop
endfacet
facet normal 0.4003453552722931 0.1783307045698166 -0.8988447189331055
 outer loop
  vertex 365500.0 5697500.0 3207.5
  vertex 366500.0 5697500.0 3652.89990234375
  vertex 366500.0 5696500.0 3454.5
 endloop
endfacet
facet normal 0.25095102190971375 0.18837930262088776 -0.9494929313659668
 outer loop
  vertex 366500.0 5697500.0 3652.89990234375
  vertex 367500.0 5696500.0 3718.800048828125
  vertex 366500.0 5696500.0 3454.5
 endloop
endfacet
facet normal 0.30396372079849243 0.24326294660568237 -0.9211021661758423
 outer loop
  vertex 366500.0 5697500.0 3652.89990234375
  vertex 367500.0 5697500.0 3982.89990234375
  vertex 367500.0 5696500.0 3718.800048828125
 endloop
endfacet
facet normal 0.22594885528087616 0.2487414926290512 -0.9418463706970215
 outer loop
  vertex 367500.0 5697500.0 3982.89990234375
  vertex 368500.0 5696500.0 3958.699951171875
  vertex 367500.0 5696500.0 3718.800048828125
 endloop
endfacet
facet normal -0.2615603804588318 -0.2389298677444458 -0.9351463317871094
 outer loop
  vertex 367500.0 5697500.0 3982.89990234375
  vertex 368500.0 5697500.0 3703.199951171875
  vertex 368500.0 5696500.0 3958.699951171875
 endloop
endfacet
facet normal 0.16485247015953064 0.05504939332604408 -0.9847808480262756
 outer loop
  vertex 357500.0 5698500.0 3924.300048828125
  vertex 358500.0 5697500.0 4035.800048828125
  vertex 357500.0 5697500.0 3868.39990234375
 endloop
endfacet
facet normal -0.2890751361846924 -0.38671785593032837 -0.8757196068763733
 outer loop
  vertex 357500.0 5698500.0 3924.300048828125
  vertex 358500.0 5698500.0 3594.199951171875
  vertex 358500.0 5697500.0 4035.800048828125
 endloop
endfacet
facet normal -0.07570838928222656 -0.4028052091598511 -0.9121493101119995
 outer loop
  vertex 358500.0 5698500.0 3594.199951171875
  vertex 359500.0 5697500.0 3952.800048828125
  vertex 358500.0 5697500.0 4035.800048828125
 endloop
endfacet
facet normal 0.15201528370380402 -0.19542032480239868 -0.9688665270805359
 outer loop
  vertex 358500.0 5698500.0 3594.199951171875
  vertex 359500.0 5698500.0 3751.10009765625
  vertex 359500.0 5697500.0 3952.800048828125
 endloop
endfacet
facet normal 0.1557978242635727 -0.19530382752418518 -0.9682888984680176
 outer loop
  vertex 359500.0 5698500.0 3751.10009765625
  vertex 360500.0 5697500.0 4113.7001953125
  vertex 359500.0 5697500.0 3952.800048828125
 endloop
endfacet
facet normal 0.08826251327991486 -0.26036563515663147 -0.9614673256874084
 outer loop
  vertex 359500.0 5698500.0 3751.10009765625
  vertex 360500.0 5698500.0 3842.89990234375
  vertex 360500.0 5697500.0 4113.7001953125
 endloop
endfacet
facet normal -0.20183652639389038 -0.2560062110424042 -0.9453691244125366
 outer loop
  vertex 360500.0 5698500.0 3842.89990234375
  vertex 361500.0 5697500.0 3900.199951171875
  vertex 360500.0 5697500.0 4113.7001953125
 endloop
endfacet
facet normal -0.04551110416650772 -0.10244996100664139 -0.9936965107917786
 outer loop
  vertex 360500.0 5698500.0 3842.89990234375
  vertex 361500.0 5698500.0 3797.10009765625
  vertex 361500.0 5697500.0 3900.199951171875
 endloop
endfacet
facet normal 0.14169710874557495 -0.10152143985033035 -0.9846904873847961
 outer loop
  vertex 361500.0 5698500.0 3797.10009765625
  vertex 362500.0 5697500.0 4044.10009765625
  vertex 361500.0 5697500.0 3900.199951171875
 endloop
endfacet
facet normal -0.12937843799591064 -0.3578018844127655 -0.9247913360595703
 outer loop
  vertex 361500.0 5698500.0 3797.10009765625
  vertex 362500.0 5698500.0 3657.199951171875
  vertex 362500.0 5697500.0 4044.10009765625
 endloop
endfacet
facet normal -0.07125792652368546 -0.3599173426628113 -0.9302589297294617
 outer loop
  vertex 362500.0 5698500.0 3657.199951171875
  vertex 363500.0 5697500.0 3967.5
  vertex 362500.0 5697500.0 4044.10009765625
 endloop
endfacet
facet normal -0.1529342085123062 -0.42915940284729004 -0.8901872634887695
 outer loop
  vertex 362500.0 5698500.0 3657.199951171875
  vertex 363500.0 5698500.0 3485.39990234375
  vertex 363500.0 5697500.0 3967.5
 endloop
endfacet
facet normal -0.30294808745384216 -0.41386041045188904 -0.8584532737731934
 outer loop
  vertex 363500.0 5698500.0 3485.39990234375
  vertex 364500.0 5697500.0 3614.60009765625
  vertex 363500.0 5697500.0 3967.5
 endloop
endfacet
facet normal -0.2658397853374481 -0.3802901804447174 -0.8858377933502197
 outer loop
  vertex 363500.0 5698500.0 3485.39990234375
  vertex 364500.0 5698500.0 3185.300048828125
  vertex 364500.0 5697500.0 3614.60009765625
 endloop
endfacet
facet normal -0.35037222504615784 -0.369478702545166 -0.8606536984443665
 outer loop
  vertex 364500.0 5698500.0 3185.300048828125
  vertex 365500.0 5697500.0 3207.5
  vertex 364500.0 5697500.0 3614.60009765625
 endloop
endfacet
facet normal 0.29106536507606506 0.2706945240497589 -0.9176084995269775
 outer loop
  vertex 364500.0 5698500.0 3185.300048828125
  vertex 365500.0 5698500.0 3502.5
  vertex 365500.0 5697500.0 3207.5
 endloop
endfacet
facet normal 0.39285287261009216 0.2601967453956604 -0.8820228576660156
 outer loop
  vertex 365500.0 5698500.0 3502.5
  vertex 366500.0 5697500.0 3652.89990234375
  vertex 365500.0 5697500.0 3207.5
 endloop
endfacet
facet normal -0.08340161293745041 -0.22925736010074615 -0.9697861671447754
 outer loop
  vertex 365500.0 5698500.0 3502.5
  vertex 366500.0 5698500.0 3416.5
  vertex 366500.0 5697500.0 3652.89990234375
 endloop
endfacet
facet normal 0.305767297744751 -0.21904051303863525 -0.9265676736831665
 outer loop
  vertex 366500.0 5698500.0 3416.5
  vertex 367500.0 5697500.0 3982.89990234375
  vertex 366500.0 5697500.0 3652.89990234375
 endloop
endfacet
facet normal -0.14213187992572784 -0.5916206240653992 -0.7935890555381775
 outer loop
  vertex 366500.0 5698500.0 3416.5
  vertex 367500.0 5698500.0 3237.39990234375
  vertex 367500.0 5697500.0 3982.89990234375
 endloop
endfacet
facet normal -0.21880942583084106 -0.5832051038742065 -0.782300591468811
 outer loop
  vertex 367500.0 5698500.0 3237.39990234375
  vertex 368500.0 5697500.0 3703.199951171875
  vertex 367500.0 5697500.0 3982.89990234375
 endloop
endfacet
facet normal 0.07091829925775528 -0.36202698945999146 -0.9294659495353699
 outer loop
  vertex 367500.0 5698500.0 3237.39990234375
  vertex 368500.0 5698500.0 3313.699951171875
  vertex 368500.0 5697500.0 3703.199951171875
 endloop
endfacet
facet normal -0.009876581840217113 -0.36292314529418945 -0.9317667484283447
 outer loop
  vertex 368500.0 5698500.0 3313.699951171875
  vertex 369500.0 5697500.0 3692.60009765625
  vertex 368500.0 5697500.0 3703.199951171875
 endloop
endfacet
facet normal -0.05325247347354889 -0.39994296431541443 -0.9149916768074036
 outer loop
  vertex 368500.0 5698500.0 3313.699951171875
  vertex 369500.0 5698500.0 3255.5
  vertex 369500.0 5697500.0 3692.60009765625
 endloop
endfacet
facet normal 0.1549462378025055 0.02725639007985592 -0.9875468611717224
 outer loop
  vertex 358500.0 5699500.0 3621.800048828125
  vertex 359500.0 5698500.0 3751.10009765625
  vertex 358500.0 5698500.0 3594.199951171875
 endloop
endfacet
facet normal -0.11055973172187805 -0.2354101985692978 -0.9655871987342834
 outer loop
  vertex 358500.0 5699500.0 3621.800048828125
  vertex 359500.0 5699500.0 3507.300048828125
  vertex 359500.0 5698500.0 3751.10009765625
 endloop
endfacet
facet normal 0.08883485943078995 -0.2359258234500885 -0.9677020907402039
 outer loop
  vertex 359500.0 5699500.0 3507.300048828125
  vertex 360500.0 5698500.0 3842.89990234375
  vertex 359500.0 5698500.0 3751.10009765625
 endloop
endfacet
facet normal 0.2245728075504303 -0.10070390999317169 -0.9692397713661194
 outer loop
  vertex 359500.0 5699500.0 3507.300048828125
  vertex 360500.0 5699500.0 3739.0
  vertex 360500.0 5698500.0 3842.89990234375
 endloop
endfacet
facet normal -0.045507390052080154 -0.10323653370141983 -0.9936152696609497
 outer loop
  vertex 360500.0 5699500.0 3739.0
  vertex 361500.0 5698500.0 3797.10009765625
  vertex 360500.0 5698500.0 3842.89990234375
 endloop
endfacet
facet normal -0.05171729251742363 -0.1093904972076416 -0.9926525354385376
 outer loop
  vertex 360500.0 5699500.0 3739.0
  vertex 361500.0 5699500.0 3686.89990234375
  vertex 361500.0 5698500.0 3797.10009765625
 endloop
endfacet
facet normal -0.13773301243782043 -0.1084931269288063 -0.9845094084739685
 outer loop
  vertex 361500.0 5699500.0 3686.89990234375
  vertex 362500.0 5698500.0 3657.199951171875
  vertex 361500.0 5698500.0 3797.10009765625
 endloop
endfacet
facet normal 0.10628744959831238 0.13554349541664124 -0.9850537776947021
 outer loop
  vertex 361500.0 5699500.0 3686.89990234375
  vertex 362500.0 5699500.0 3794.800048828125
  vertex 362500.0 5698500.0 3657.199951171875
 endloop
endfacet
facet normal -0.16778366267681122 0.13438323140144348 -0.9766216278076172
 outer loop
  vertex 362500.0 5699500.0 3794.800048828125
  vertex 363500.0 5698500.0 3485.39990234375
  vertex 362500.0 5698500.0 3657.199951171875
 endloop
endfacet
facet normal 0.036431267857551575 0.32844895124435425 -0.9438188076019287
 outer loop
  vertex 362500.0 5699500.0 3794.800048828125
  vertex 363500.0 5699500.0 3833.39990234375
  vertex 363500.0 5698500.0 3485.39990234375
 endloop
endfacet
facet normal -0.2726869285106659 0.3162115812301636 -0.9086539149284363
 outer loop
  vertex 363500.0 5699500.0 3833.39990234375
  vertex 364500.0 5698500.0 3185.300048828125
  vertex 363500.0 5698500.0 3485.39990234375
 endloop
endfacet
facet normal -0.5149005651473999 0.040075480937957764 -0.8563125729560852
 outer loop
  vertex 363500.0 5699500.0 3833.39990234375
  vertex 364500.0 5699500.0 3232.10009765625
  vertex 364500.0 5698500.0 3185.300048828125
 endloop
endfacet
facet normal 0.3020532429218292 0.04456528648734093 -0.952248752117157
 outer loop
  vertex 364500.0 5699500.0 3232.10009765625
  vertex 365500.0 5698500.0 3502.5
  vertex 364500.0 5698500.0 3185.300048828125
 endloop
endfacet
facet normal -0.008571762591600418 -0.26899486780166626 -0.9631035327911377
 outer loop
  vertex 364500.0 5699500.0 3232.10009765625
  vertex 365500.0 5699500.0 3223.199951171875
  vertex 365500.0 5698500.0 3502.5
 endloop
endfacet
facet normal -0.08254726976156235 -0.26808667182922363 -0.9598518013954163
 outer loop
  vertex 365500.0 5699500.0 3223.199951171875
  vertex 366500.0 5698500.0 3416.5
  vertex 365500.0 5698500.0 3502.5
 endloop
endfacet
facet normal 0.005405424162745476 -0.18457069993019104 -0.9828043580055237
 outer loop
  vertex 365500.0 5699500.0 3223.199951171875
  vertex 366500.0 5699500.0 3228.699951171875
  vertex 366500.0 5698500.0 3416.5
 endloop
endfacet
facet normal -0.173357754945755 -0.18177875876426697 -0.9679377675056458
 outer loop
  vertex 366500.0 5699500.0 3228.699951171875
  vertex 367500.0 5698500.0 3237.39990234375
  vertex 366500.0 5698500.0 3416.5
 endloop
endfacet
facet normal 0.1573718786239624 0.1488785296678543 -0.9762526750564575
 outer loop
  vertex 366500.0 5699500.0 3228.699951171875
  vertex 367500.0 5699500.0 3389.89990234375
  vertex 367500.0 5698500.0 3237.39990234375
 endloop
endfacet
facet normal 0.07521434128284454 0.15033000707626343 -0.985770583152771
 outer loop
  vertex 367500.0 5699500.0 3389.89990234375
  vertex 368500.0 5698500.0 3313.699951171875
  vertex 367500.0 5698500.0 3237.39990234375
 endloop
endfacet
facet normal 0.2522415816783905 0.32178136706352234 -0.9125956892967224
 outer loop
  vertex 367500.0 5699500.0 3389.89990234375
  vertex 368500.0 5699500.0 3666.300048828125
  vertex 368500.0 5698500.0 3313.699951171875
 endloop
endfacet
facet normal -0.05480538308620453 0.33203426003456116 -0.941673755645752
 outer loop
  vertex 368500.0 5699500.0 3666.300048828125
  vertex 369500.0 5698500.0 3255.5
  vertex 368500.0 5698500.0 3313.699951171875
 endloop
endfacet
facet normal -0.11355516314506531 -0.05950488895177841 -0.9917481541633606
 outer loop
  vertex 358500.0 5700500.0 3561.800048828125
  vertex 359500.0 5699500.0 3507.300048828125
  vertex 358500.0 5699500.0 3621.800048828125
 endloop
endfacet
facet normal 0.11730163544416428 0.1706206053495407 -0.9783297181129456
 outer loop
  vertex 358500.0 5700500.0 3561.800048828125
  vertex 359500.0 5700500.0 3681.699951171875
  vertex 359500.0 5699500.0 3507.300048828125
 endloop
endfacet
facet normal 0.22253136336803436 0.16749873757362366 -0.9604290723800659
 outer loop
  vertex 359500.0 5700500.0 3681.699951171875
  vertex 360500.0 5699500.0 3739.0
  vertex 359500.0 5699500.0 3507.300048828125
 endloop
endfacet
facet normal 0.0873245894908905 0.030269792303442955 -0.9957199096679688
 outer loop
  vertex 359500.0 5700500.0 3681.699951171875
  vertex 360500.0 5700500.0 3769.39990234375
  vertex 360500.0 5699500.0 3739.0
 endloop
endfacet
facet normal -0.052005570381879807 0.030344747006893158 -0.9981856942176819
 outer loop
  vertex 360500.0 5700500.0 3769.39990234375
  vertex 361500.0 5699500.0 3686.89990234375
  vertex 360500.0 5699500.0 3739.0
 endloop
endfacet
facet normal -0.08528754860162735 -0.003088542027398944 -0.9963515996932983
 outer loop
  vertex 360500.0 5700500.0 3769.39990234375
  vertex 361500.0 5700500.0 3683.800048828125
  vertex 361500.0 5699500.0 3686.89990234375
 endloop
endfacet
facet normal 0.10727696120738983 -0.0030819501262158155 -0.9942244291305542
 outer loop
  vertex 361500.0 5700500.0 3683.800048828125
  vertex 362500.0 5699500.0 3794.800048828125
  vertex 361500.0 5699500.0 3686.89990234375
 endloop
endfacet
facet normal 0.1067851185798645 -0.003579485695809126 -0.994275689125061
 outer loop
  vertex 361500.0 5700500.0 3683.800048828125
  vertex 362500.0 5700500.0 3791.199951171875
  vertex 362500.0 5699500.0 3794.800048828125
 endloop
endfacet
facet normal 0.03857088088989258 -0.003597395261749625 -0.9992493987083435
 outer loop
  vertex 362500.0 5700500.0 3791.199951171875
  vertex 363500.0 5699500.0 3833.39990234375
  vertex 362500.0 5699500.0 3794.800048828125
 endloop
endfacet
facet normal -0.2507747411727905 -0.2897533178329468 -0.9236639142036438
 outer loop
  vertex 362500.0 5700500.0 3791.199951171875
  vertex 363500.0 5700500.0 3519.699951171875
  vertex 363500.0 5699500.0 3833.39990234375
 endloop
endfacet
facet normal -0.4976445138454437 -0.2596226632595062 -0.8276146650314331
 outer loop
  vertex 363500.0 5700500.0 3519.699951171875
  vertex 364500.0 5699500.0 3232.10009765625
  vertex 363500.0 5699500.0 3833.39990234375
 endloop
endfacet
facet normal 0.17937420308589935 0.4333769977092743 -0.8831812739372253
 outer loop
  vertex 363500.0 5700500.0 3519.699951171875
  vertex 364500.0 5700500.0 3722.800048828125
  vertex 364500.0 5699500.0 3232.10009765625
 endloop
endfacet
facet normal -0.007989787496626377 0.44050782918930054 -0.8977131843566895
 outer loop
  vertex 364500.0 5700500.0 3722.800048828125
  vertex 365500.0 5699500.0 3223.199951171875
  vertex 364500.0 5699500.0 3232.10009765625
 endloop
endfacet
facet normal -0.44506189227104187 0.0023283755872398615 -0.8954967856407166
 outer loop
  vertex 364500.0 5700500.0 3722.800048828125
  vertex 365500.0 5700500.0 3225.800048828125
  vertex 365500.0 5699500.0 3223.199951171875
 endloop
endfacet
facet normal 0.0054998984560370445 0.00260004960000515 -0.9999815225601196
 outer loop
  vertex 365500.0 5700500.0 3225.800048828125
  vertex 366500.0 5699500.0 3228.699951171875
  vertex 365500.0 5699500.0 3223.199951171875
 endloop
endfacet
facet normal 9.985312499338761e-05 -0.0028000378515571356 -0.9999960660934448
 outer loop
  vertex 365500.0 5700500.0 3225.800048828125
  vertex 366500.0 5700500.0 3225.89990234375
  vertex 366500.0 5699500.0 3228.699951171875
 endloop
endfacet
facet normal 0.15914487838745117 -0.0027643521316349506 -0.9872514009475708
 outer loop
  vertex 366500.0 5700500.0 3225.89990234375
  vertex 367500.0 5699500.0 3389.89990234375
  vertex 366500.0 5699500.0 3228.699951171875
 endloop
endfacet
facet normal 0.24187420308589935 0.08333167433738708 -0.9667226672172546
 outer loop
  vertex 366500.0 5700500.0 3225.89990234375
  vertex 367500.0 5700500.0 3476.10009765625
  vertex 367500.0 5699500.0 3389.89990234375
 endloop
endfacet
facet normal 0.2654961347579956 0.08279958367347717 -0.9605498313903809
 outer loop
  vertex 367500.0 5700500.0 3476.10009765625
  vertex 368500.0 5699500.0 3666.300048828125
  vertex 367500.0 5699500.0 3389.89990234375
 endloop
endfacet
facet normal -0.003828662447631359 -0.19054251909255981 -0.9816714525222778
 outer loop
  vertex 367500.0 5700500.0 3476.10009765625
  vertex 368500.0 5700500.0 3472.199951171875
  vertex 368500.0 5699500.0 3666.300048828125
 endloop
endfacet
facet normal 0.1848152130842209 -0.038593243807554245 -0.9820151925086975
 outer loop
  vertex 357500.0 5701500.0 3334.300048828125
  vertex 358500.0 5701500.0 3522.5
  vertex 358500.0 5700500.0 3561.800048828125
 endloop
endfacet
facet normal 0.11895672231912613 -0.038990896195173264 -0.9921335577964783
 outer loop
  vertex 358500.0 5701500.0 3522.5
  vertex 359500.0 5700500.0 3681.699951171875
  vertex 358500.0 5700500.0 3561.800048828125
 endloop
endfacet
facet normal -0.1118834838271141 -0.26438209414482117 -0.9579061269760132
 outer loop
  vertex 358500.0 5701500.0 3522.5
  vertex 359500.0 5701500.0 3405.699951171875
  vertex 359500.0 5700500.0 3681.699951171875
 endloop
endfacet
facet normal 0.08423861861228943 -0.2651069164276123 -0.9605322480201721
 outer loop
  vertex 359500.0 5701500.0 3405.699951171875
  vertex 360500.0 5700500.0 3769.39990234375
  vertex 359500.0 5700500.0 3681.699951171875
 endloop
endfacet
facet normal 0.0331357941031456 -0.31217753887176514 -0.9494457244873047
 outer loop
  vertex 359500.0 5701500.0 3405.699951171875
  vertex 360500.0 5701500.0 3440.60009765625
  vertex 360500.0 5700500.0 3769.39990234375
 endloop
endfacet
facet normal -0.08104954659938812 -0.311321496963501 -0.9468420147895813
 outer loop
  vertex 360500.0 5701500.0 3440.60009765625
  vertex 361500.0 5700500.0 3683.800048828125
  vertex 360500.0 5700500.0 3769.39990234375
 endloop
endfacet
facet normal 0.05002063512802124 -0.18850909173488617 -0.980796754360199
 outer loop
  vertex 360500.0 5701500.0 3440.60009765625
  vertex 361500.0 5701500.0 3491.60009765625
  vertex 361500.0 5700500.0 3683.800048828125
 endloop
endfacet
facet normal 0.10488773137331009 -0.18770426511764526 -0.9766092896461487
 outer loop
  vertex 361500.0 5701500.0 3491.60009765625
  vertex 362500.0 5700500.0 3791.199951171875
  vertex 361500.0 5700500.0 3683.800048828125
 endloop
endfacet
facet normal 0.2125129997730255 -0.079278364777565 -0.9739369750022888
 outer loop
  vertex 361500.0 5701500.0 3491.60009765625
  vertex 362500.0 5701500.0 3709.800048828125
  vertex 362500.0 5700500.0 3791.199951171875
 endloop
endfacet
facet normal -0.2612101137638092 -0.07831483334302902 -0.9620998501777649
 outer loop
  vertex 362500.0 5701500.0 3709.800048828125
  vertex 363500.0 5700500.0 3519.699951171875
  vertex 362500.0 5700500.0 3791.199951171875
 endloop
endfacet
facet normal 0.03373890370130539 0.2191087156534195 -0.9751169681549072
 outer loop
  vertex 362500.0 5701500.0 3709.800048828125
  vertex 363500.0 5701500.0 3744.39990234375
  vertex 363500.0 5700500.0 3519.699951171875
 endloop
endfacet
facet normal 0.1943795531988144 0.21505196392536163 -0.957062840461731
 outer loop
  vertex 363500.0 5701500.0 3744.39990234375
  vertex 364500.0 5700500.0 3722.800048828125
  vertex 363500.0 5700500.0 3519.699951171875
 endloop
endfacet
facet normal -0.18361280858516693 -0.16267293691635132 -0.9694451093673706
 outer loop
  vertex 363500.0 5701500.0 3744.39990234375
  vertex 364500.0 5701500.0 3555.0
  vertex 364500.0 5700500.0 3722.800048828125
 endloop
endfacet
facet normal -0.44012194871902466 -0.14859654009342194 -0.885557234287262
 outer loop
  vertex 364500.0 5701500.0 3555.0
  vertex 365500.0 5700500.0 3225.800048828125
  vertex 364500.0 5700500.0 3722.800048828125
 endloop
endfacet
facet normal 0.06343217939138412 0.3687230944633484 -0.927372395992279
 outer loop
  vertex 364500.0 5701500.0 3555.0
  vertex 365500.0 5701500.0 3623.39990234375
  vertex 365500.0 5700500.0 3225.800048828125
 endloop
endfacet
facet normal 9.277918434236199e-05 0.369467169046402 -0.929243803024292
 outer loop
  vertex 365500.0 5701500.0 3623.39990234375
  vertex 366500.0 5700500.0 3225.89990234375
  vertex 365500.0 5700500.0 3225.800048828125
 endloop
endfacet
facet normal -0.25194674730300903 0.12928225100040436 -0.9590666890144348
 outer loop
  vertex 365500.0 5701500.0 3623.39990234375
  vertex 366500.0 5701500.0 3360.699951171875
  vertex 366500.0 5700500.0 3225.89990234375
 endloop
endfacet
facet normal 0.24066932499408722 0.12966510653495789 -0.9619070291519165
 outer loop
  vertex 366500.0 5701500.0 3360.699951171875
  vertex 367500.0 5700500.0 3476.10009765625
  vertex 366500.0 5700500.0 3225.89990234375
 endloop
endfacet
facet normal 0.2746059000492096 0.16529391705989838 -0.9472430348396301
 outer loop
  vertex 366500.0 5701500.0 3360.699951171875
  vertex 367500.0 5701500.0 3650.60009765625
  vertex 367500.0 5700500.0 3476.10009765625
 endloop
endfacet
facet normal -0.0038420548662543297 0.17190112173557281 -0.9851067066192627
 outer loop
  vertex 367500.0 5701500.0 3650.60009765625
  vertex 368500.0 5700500.0 3472.199951171875
  vertex 367500.0 5700500.0 3476.10009765625
 endloop
endfacet
facet normal 0.10922606289386749 0.2794089615345001 -0.9539393782615662
 outer loop
  vertex 367500.0 5701500.0 3650.60009765625
  vertex 368500.0 5701500.0 3765.10009765625
  vertex 368500.0 5700500.0 3472.199951171875
 endloop
endfacet
facet normal -0.19724591076374054 0.003529343754053116 -0.9803476929664612
 outer loop
  vertex 355500.0 5702500.0 3656.699951171875
  vertex 356500.0 5702500.0 3455.5
  vertex 356500.0 5701500.0 3451.89990234375
 endloop
endfacet
facet normal -0.11679426580667496 0.0035754358395934105 -0.9931496977806091
 outer loop
  vertex 356500.0 5702500.0 3455.5
  vertex 357500.0 5701500.0 3334.300048828125
  vertex 356500.0 5701500.0 3451.89990234375
 endloop
endfacet
facet normal -0.20254267752170563 -0.08429531753063202 -0.9756386876106262
 outer loop
  vertex 356500.0 5702500.0 3455.5
  vertex 357500.0 5702500.0 3247.89990234375
  vertex 357500.0 5701500.0 3334.300048828125
 endloop
endfacet
facet normal 0.1842898577451706 -0.08460508286952972 -0.9792237877845764
 outer loop
  vertex 357500.0 5702500.0 3247.89990234375
  vertex 358500.0 5701500.0 3522.5
  vertex 357500.0 5701500.0 3334.300048828125
 endloop
endfacet
facet normal 0.09546802192926407 -0.17368482053279877 -0.9801629781723022
 outer loop
  vertex 357500.0 5702500.0 3247.89990234375
  vertex 358500.0 5702500.0 3345.300048828125
  vertex 358500.0 5701500.0 3522.5
 endloop
endfacet
facet normal -0.11425524204969406 -0.17333917319774628 -0.978212296962738
 outer loop
  vertex 358500.0 5702500.0 3345.300048828125
  vertex 359500.0 5701500.0 3405.699951171875
  vertex 358500.0 5701500.0 3522.5
 endloop
endfacet
facet normal -0.11056006699800491 -0.16970805823802948 -0.9792730212211609
 outer loop
  vertex 358500.0 5702500.0 3345.300048828125
  vertex 359500.0 5702500.0 3232.39990234375
  vertex 359500.0 5701500.0 3405.699951171875
 endloop
endfacet
facet normal 0.03436726704239845 -0.17065401375293732 -0.9847314953804016
 outer loop
  vertex 359500.0 5702500.0 3232.39990234375
  vertex 360500.0 5701500.0 3440.60009765625
  vertex 359500.0 5701500.0 3405.699951171875
 endloop
endfacet
facet normal 0.049424972385168076 -0.15596961975097656 -0.9865245223045349
 outer loop
  vertex 359500.0 5702500.0 3232.39990234375
  vertex 360500.0 5702500.0 3282.5
  vertex 360500.0 5701500.0 3440.60009765625
 endloop
endfacet
facet normal 0.05031052604317665 -0.1559627205133438 -0.9864808917045593
 outer loop
  vertex 360500.0 5702500.0 3282.5
  vertex 361500.0 5701500.0 3491.60009765625
  vertex 360500.0 5701500.0 3440.60009765625
 endloop
endfacet
facet normal -0.017841646447777748 -0.22170394659042358 -0.9749507904052734
 outer loop
  vertex 360500.0 5702500.0 3282.5
  vertex 361500.0 5702500.0 3264.199951171875
  vertex 361500.0 5701500.0 3491.60009765625
 endloop
endfacet
facet normal 0.20810964703559875 -0.21688437461853027 -0.95375657081604
 outer loop
  vertex 361500.0 5702500.0 3264.199951171875
  vertex 362500.0 5701500.0 3709.800048828125
  vertex 361500.0 5701500.0 3491.60009765625
 endloop
endfacet
facet normal 0.14925320446491241 -0.27408990263938904 -0.9500516057014465
 outer loop
  vertex 361500.0 5702500.0 3264.199951171875
  vertex 362500.0 5702500.0 3421.300048828125
  vertex 362500.0 5701500.0 3709.800048828125
 endloop
endfacet
facet normal 0.0332256518304348 -0.2770417332649231 -0.9602832794189453
 outer loop
  vertex 362500.0 5702500.0 3421.300048828125
  vertex 363500.0 5701500.0 3744.39990234375
  vertex 362500.0 5701500.0 3709.800048828125
 endloop
endfacet
facet normal 0.19977998733520508 -0.11463242769241333 -0.9731122255325317
 outer loop
  vertex 362500.0 5702500.0 3421.300048828125
  vertex 363500.0 5702500.0 3626.60009765625
  vertex 363500.0 5701500.0 3744.39990234375
 endloop
endfacet
facet normal -0.18485747277736664 -0.11497458070516586 -0.9760167002677917
 outer loop
  vertex 363500.0 5702500.0 3626.60009765625
  vertex 364500.0 5701500.0 3555.0
  vertex 363500.0 5701500.0 3744.39990234375
 endloop
endfacet
facet normal 0.010464217513799667 0.08182030916213989 -0.9965921640396118
 outer loop
  vertex 363500.0 5702500.0 3626.60009765625
  vertex 364500.0 5702500.0 3637.10009765625
  vertex 364500.0 5701500.0 3555.0
 endloop
endfacet
facet normal 0.06801268458366394 0.08163531869649887 -0.9943389296531677
 outer loop
  vertex 364500.0 5702500.0 3637.10009765625
  vertex 365500.0 5701500.0 3623.39990234375
  vertex 364500.0 5701500.0 3555.0
 endloop
endfacet
facet normal -0.10622859746217728 -0.09266521036624908 -0.9900144934654236
 outer loop
  vertex 364500.0 5702500.0 3637.10009765625
  vertex 365500.0 5702500.0 3529.800048828125
  vertex 365500.0 5701500.0 3623.39990234375
 endloop
endfacet
facet normal -0.2530442476272583 -0.09015953540802002 -0.9632444381713867
 outer loop
  vertex 365500.0 5702500.0 3529.800048828125
  vertex 366500.0 5701500.0 3360.699951171875
  vertex 365500.0 5701500.0 3623.39990234375
 endloop
endfacet
facet normal 0.038348015397787094 0.20377302169799805 -0.9782668352127075
 outer loop
  vertex 365500.0 5702500.0 3529.800048828125
  vertex 366500.0 5702500.0 3569.0
  vertex 366500.0 5701500.0 3360.699951171875
 endloop
endfacet
facet normal 0.27302563190460205 0.19617533683776855 -0.9417920708656311
 outer loop
  vertex 366500.0 5702500.0 3569.0
  vertex 367500.0 5701500.0 3650.60009765625
  vertex 366500.0 5701500.0 3360.699951171875
 endloop
endfacet
facet normal 0.055993881076574326 -0.025451716035604477 -0.9981066584587097
 outer loop
  vertex 366500.0 5702500.0 3569.0
  vertex 367500.0 5702500.0 3625.10009765625
  vertex 367500.0 5701500.0 3650.60009765625
 endloop
endfacet
facet normal 0.11372024565935135 -0.02532634325325489 -0.9931899309158325
 outer loop
  vertex 367500.0 5702500.0 3625.10009765625
  vertex 368500.0 5701500.0 3765.10009765625
  vertex 367500.0 5701500.0 3650.60009765625
 endloop
endfacet
facet normal 0.22267019748687744 -0.07590790092945099 -0.9719341397285461
 outer loop
  vertex 354500.0 5703500.0 3349.5
  vertex 355500.0 5703500.0 3578.60009765625
  vertex 355500.0 5702500.0 3656.699951171875
 endloop
endfacet
facet normal -0.1966714859008789 -0.07634204626083374 -0.9774928092956543
 outer loop
  vertex 355500.0 5703500.0 3578.60009765625
  vertex 356500.0 5702500.0 3455.5
  vertex 355500.0 5702500.0 3656.699951171875
 endloop
endfacet
facet normal -0.20990103483200073 -0.09005489945411682 -0.9735665321350098
 outer loop
  vertex 355500.0 5703500.0 3578.60009765625
  vertex 356500.0 5703500.0 3363.0
  vertex 356500.0 5702500.0 3455.5
 endloop
endfacet
facet normal -0.20243756473064423 -0.09019974619150162 -0.9751323461532593
 outer loop
  vertex 356500.0 5703500.0 3363.0
  vertex 357500.0 5702500.0 3247.89990234375
  vertex 356500.0 5702500.0 3455.5
 endloop
endfacet
facet normal -0.18625067174434662 -0.07348129153251648 -0.9797505736351013
 outer loop
  vertex 356500.0 5703500.0 3363.0
  vertex 357500.0 5703500.0 3172.89990234375
  vertex 357500.0 5702500.0 3247.89990234375
 endloop
endfacet
facet normal 0.0966724306344986 -0.0744396522641182 -0.9925286769866943
 outer loop
  vertex 357500.0 5703500.0 3172.89990234375
  vertex 358500.0 5702500.0 3345.300048828125
  vertex 357500.0 5702500.0 3247.89990234375
 endloop
endfacet
facet normal -0.05652480572462082 -0.22425130009651184 -0.9728906750679016
 outer loop
  vertex 357500.0 5703500.0 3172.89990234375
  vertex 358500.0 5703500.0 3114.800048828125
  vertex 358500.0 5702500.0 3345.300048828125
 endloop
endfacet
facet normal -0.10935559868812561 -0.22326335310935974 -0.968604564666748
 outer loop
  vertex 358500.0 5703500.0 3114.800048828125
  vertex 359500.0 5702500.0 3232.39990234375
  vertex 358500.0 5702500.0 3345.300048828125
 endloop
endfacet
facet normal 0.06696411967277527 -0.05022302269935608 -0.9964905381202698
 outer loop
  vertex 358500.0 5703500.0 3114.800048828125
  vertex 359500.0 5703500.0 3182.0
  vertex 359500.0 5702500.0 3232.39990234375
 endloop
endfacet
facet normal 0.049974068999290466 -0.050273120403289795 -0.9974844455718994
 outer loop
  vertex 359500.0 5703500.0 3182.0
  vertex 360500.0 5702500.0 3282.5
  vertex 359500.0 5702500.0 3232.39990234375
 endloop
endfacet
facet normal 0.05974368751049042 -0.04049421474337578 -0.9973920583724976
 outer loop
  vertex 359500.0 5703500.0 3182.0
  vertex 360500.0 5703500.0 3241.89990234375
  vertex 360500.0 5702500.0 3282.5
 endloop
endfacet
facet normal -0.018281929194927216 -0.04055989906191826 -0.9990098476409912
 outer loop
  vertex 360500.0 5703500.0 3241.89990234375
  vertex 361500.0 5702500.0 3264.199951171875
  vertex 360500.0 5702500.0 3282.5
 endloop
endfacet
facet normal -0.01558676827698946 -0.037868112325668335 -0.9991611838340759
 outer loop
  vertex 360500.0 5703500.0 3241.89990234375
  vertex 361500.0 5703500.0 3226.300048828125
  vertex 361500.0 5702500.0 3264.199951171875
 endloop
endfacet
facet normal 0.15508794784545898 -0.03741447627544403 -0.987191915512085
 outer loop
  vertex 361500.0 5703500.0 3226.300048828125
  vertex 362500.0 5702500.0 3421.300048828125
  vertex 361500.0 5702500.0 3264.199951171875
 endloop
endfacet
facet normal -0.05880152806639671 -0.24739180505275726 -0.967129647731781
 outer loop
  vertex 361500.0 5703500.0 3226.300048828125
  vertex 362500.0 5703500.0 3165.5
  vertex 362500.0 5702500.0 3421.300048828125
 endloop
endfacet
facet normal 0.19507478177547455 -0.24305956065654755 -0.9501935839653015
 outer loop
  vertex 362500.0 5703500.0 3165.5
  vertex 363500.0 5702500.0 3626.60009765625
  vertex 362500.0 5702500.0 3421.300048828125
 endloop
endfacet
facet normal 0.33599239587783813 -0.09603795409202576 -0.9369556307792664
 outer loop
  vertex 362500.0 5703500.0 3165.5
  vertex 363500.0 5703500.0 3524.10009765625
  vertex 363500.0 5702500.0 3626.60009765625
 endloop
endfacet
facet normal 0.01044470351189375 -0.1019601970911026 -0.9947336316108704
 outer loop
  vertex 363500.0 5703500.0 3524.10009765625
  vertex 364500.0 5702500.0 3637.10009765625
  vertex 363500.0 5702500.0 3626.60009765625
 endloop
endfacet
facet normal -0.0686938688158989 -0.17958541214466095 -0.9813410043716431
 outer loop
  vertex 363500.0 5703500.0 3524.10009765625
  vertex 364500.0 5703500.0 3454.10009765625
  vertex 364500.0 5702500.0 3637.10009765625
 endloop
endfacet
facet normal -0.10496421903371811 -0.17901624739170074 -0.978230893611908
 outer loop
  vertex 364500.0 5703500.0 3454.10009765625
  vertex 365500.0 5702500.0 3529.800048828125
  vertex 364500.0 5702500.0 3637.10009765625
 endloop
endfacet
facet normal -0.07889855653047562 -0.1534629762172699 -0.9849995374679565
 outer loop
  vertex 364500.0 5703500.0 3454.10009765625
  vertex 365500.0 5703500.0 3374.0
  vertex 365500.0 5702500.0 3529.800048828125
 endloop
endfacet
facet normal 0.03870365768671036 -0.15382753312587738 -0.987339437007904
 outer loop
  vertex 365500.0 5703500.0 3374.0
  vertex 366500.0 5702500.0 3569.0
  vertex 365500.0 5702500.0 3529.800048828125
 endloop
endfacet
facet normal -0.07775008678436279 -0.2651577889919281 -0.9610652327537537
 outer loop
  vertex 365500.0 5703500.0 3374.0
  vertex 366500.0 5703500.0 3293.10009765625
  vertex 366500.0 5702500.0 3569.0
 endloop
endfacet
facet normal 0.054000645875930786 -0.2655748426914215 -0.9625767469406128
 outer loop
  vertex 366500.0 5703500.0 3293.10009765625
  vertex 367500.0 5702500.0 3625.10009765625
  vertex 366500.0 5702500.0 3569.0
 endloop
endfacet
facet normal 0.14785172045230865 -0.17530037462711334 -0.9733496904373169
 outer loop
  vertex 366500.0 5703500.0 3293.10009765625
  vertex 367500.0 5703500.0 3445.0
  vertex 367500.0 5702500.0 3625.10009765625
 endloop
endfacet
facet normal 0.3273186683654785 0.0816178098320961 -0.9413825869560242
 outer loop
  vertex 353500.0 5704500.0 3088.5
  vertex 354500.0 5704500.0 3436.199951171875
  vertex 354500.0 5703500.0 3349.5
 endloop
endfacet
facet normal 0.22252129018306732 0.08421029150485992 -0.9712841510772705
 outer loop
  vertex 354500.0 5704500.0 3436.199951171875
  vertex 355500.0 5703500.0 3578.60009765625
  vertex 354500.0 5703500.0 3349.5
 endloop
endfacet
facet normal -0.001682569389231503 -0.14262668788433075 -0.9897751212120056
 outer loop
  vertex 354500.0 5704500.0 3436.199951171875
  vertex 355500.0 5704500.0 3434.5
  vertex 355500.0 5703500.0 3578.60009765625
 endloop
endfacet
facet normal -0.20869700610637665 -0.13948629796504974 -0.9679819941520691
 outer loop
  vertex 355500.0 5704500.0 3434.5
  vertex 356500.0 5703500.0 3363.0
  vertex 355500.0 5703500.0 3578.60009765625
 endloop
endfacet
facet normal -0.20608964562416077 -0.13681171834468842 -0.9689218997955322
 outer loop
  vertex 355500.0 5704500.0 3434.5
  vertex 356500.0 5704500.0 3221.800048828125
  vertex 356500.0 5703500.0 3363.0
 endloop
endfacet
facet normal -0.18498429656028748 -0.13740010559558868 -0.9730889201164246
 outer loop
  vertex 356500.0 5704500.0 3221.800048828125
  vertex 357500.0 5703500.0 3172.89990234375
  vertex 356500.0 5703500.0 3363.0
 endloop
endfacet
facet normal -0.051132842898368835 -0.002296790247783065 -0.9986892342567444
 outer loop
  vertex 356500.0 5704500.0 3221.800048828125
  vertex 357500.0 5704500.0 3170.60009765625
  vertex 357500.0 5703500.0 3172.89990234375
 endloop
endfacet
facet normal -0.058001887053251266 -0.0022959269117563963 -0.998313844203949
 outer loop
  vertex 357500.0 5704500.0 3170.60009765625
  vertex 358500.0 5703500.0 3114.800048828125
  vertex 357500.0 5703500.0 3172.89990234375
 endloop
endfacet
facet normal -0.061879996210336685 -0.0061879525892436504 -0.9980644583702087
 outer loop
  vertex 357500.0 5704500.0 3170.60009765625
  vertex 358500.0 5704500.0 3108.60009765625
  vertex 358500.0 5703500.0 3114.800048828125
 endloop
endfacet
facet normal 0.06704744696617126 -0.006185880862176418 -0.9977306127548218
 outer loop
  vertex 358500.0 5704500.0 3108.60009765625
  vertex 359500.0 5703500.0 3182.0
  vertex 358500.0 5703500.0 3114.800048828125
 endloop
endfacet
facet normal 0.028559541329741478 -0.04473690688610077 -0.9985904693603516
 outer loop
  vertex 358500.0 5704500.0 3108.60009765625
  vertex 359500.0 5704500.0 3137.199951171875
  vertex 359500.0 5703500.0 3182.0
 endloop
endfacet
facet normal 0.059733033180236816 -0.04467524215579033 -0.997214138507843
 outer loop
  vertex 359500.0 5704500.0 3137.199951171875
  vertex 360500.0 5703500.0 3241.89990234375
  vertex 359500.0 5703500.0 3182.0
 endloop
endfacet
facet normal 0.0158358383923769 -0.0884406566619873 -0.9959555268287659
 outer loop
  vertex 359500.0 5704500.0 3137.199951171875
  vertex 360500.0 5704500.0 3153.10009765625
  vertex 360500.0 5703500.0 3241.89990234375
 endloop
endfacet
facet normal -0.015536832623183727 -0.08844107389450073 -0.9959602355957031
 outer loop
  vertex 360500.0 5704500.0 3153.10009765625
  vertex 361500.0 5703500.0 3226.300048828125
  vertex 360500.0 5703500.0 3241.89990234375
 endloop
endfacet
facet normal 0.006585122086107731 -0.06645144522190094 -0.9977679252624512
 outer loop
  vertex 360500.0 5704500.0 3153.10009765625
  vertex 361500.0 5704500.0 3159.699951171875
  vertex 361500.0 5703500.0 3226.300048828125
 endloop
endfacet
facet normal -0.060554325580596924 -0.0663309320807457 -0.9959585070610046
 outer loop
  vertex 361500.0 5704500.0 3159.699951171875
  vertex 362500.0 5703500.0 3165.5
  vertex 361500.0 5703500.0 3226.300048828125
 endloop
endfacet
facet normal -0.07994519174098969 -0.08570526540279388 -0.9931079745292664
 outer loop
  vertex 361500.0 5704500.0 3159.699951171875
  vertex 362500.0 5704500.0 3079.199951171875
  vertex 362500.0 5703500.0 3165.5
 endloop
endfacet
facet normal 0.3364443778991699 -0.08096808940172195 -0.9382160305976868
 outer loop
  vertex 362500.0 5704500.0 3079.199951171875
  vertex 363500.0 5703500.0 3524.10009765625
  vertex 362500.0 5703500.0 3165.5
 endloop
endfacet
facet normal 0.07379528135061264 -0.3428482711315155 -0.9364877343177795
 outer loop
  vertex 362500.0 5704500.0 3079.199951171875
  vertex 363500.0 5704500.0 3158.0
  vertex 363500.0 5703500.0 3524.10009765625
 endloop
endfacet
facet normal -0.06559181958436966 -0.34304529428482056 -0.9370260238647461
 outer loop
  vertex 363500.0 5704500.0 3158.0
  vertex 364500.0 5703500.0 3454.10009765625
  vertex 363500.0 5703500.0 3524.10009765625
 endloop
endfacet
facet normal 0.07096977531909943 -0.21729062497615814 -0.9735234975814819
 outer loop
  vertex 363500.0 5704500.0 3158.0
  vertex 364500.0 5704500.0 3230.89990234375
  vertex 364500.0 5703500.0 3454.10009765625
 endloop
endfacet
facet normal -0.07793865352869034 -0.21717728674411774 -0.9730157256126404
 outer loop
  vertex 364500.0 5704500.0 3230.89990234375
  vertex 365500.0 5703500.0 3374.0
  vertex 364500.0 5703500.0 3454.10009765625
 endloop
endfacet
facet normal -0.06081639975309372 -0.20073342323303223 -0.9777563214302063
 outer loop
  vertex 364500.0 5704500.0 3230.89990234375
  vertex 365500.0 5704500.0 3168.699951171875
  vertex 365500.0 5703500.0 3374.0
 endloop
endfacet
facet normal -0.07899940758943558 -0.20047715306282043 -0.9765080809593201
 outer loop
  vertex 365500.0 5704500.0 3168.699951171875
  vertex 366500.0 5703500.0 3293.10009765625
  vertex 365500.0 5703500.0 3374.0
 endloop
endfacet
facet normal -0.0758444294333458 -0.19743047654628754 -0.9773785471916199
 outer loop
  vertex 365500.0 5704500.0 3168.699951171875
  vertex 366500.0 5704500.0 3091.10009765625
  vertex 366500.0 5703500.0 3293.10009765625
 endloop
endfacet
facet normal 0.1472691148519516 -0.19584186375141144 -0.9695141911506653
 outer loop
  vertex 366500.0 5704500.0 3091.10009765625
  vertex 367500.0 5703500.0 3445.0
  vertex 366500.0 5703500.0 3293.10009765625
 endloop
endfacet
facet normal 0.08639995753765106 -0.2544802129268646 -0.9632107019424438
 outer loop
  vertex 366500.0 5704500.0 3091.10009765625
  vertex 367500.0 5704500.0 3180.800048828125
  vertex 367500.0 5703500.0 3445.0
 endloop
endfacet
facet normal -0.0015808745520189404 -0.3676995038986206 -0.929943323135376
 outer loop
  vertex 354500.0 5705500.0 3040.800048828125
  vertex 355500.0 5704500.0 3434.5
  vertex 354500.0 5704500.0 3436.199951171875
 endloop
endfacet
facet normal 0.011585438624024391 -0.35625508427619934 -0.9343169331550598
 outer loop
  vertex 354500.0 5705500.0 3040.800048828125
  vertex 355500.0 5705500.0 3053.199951171875
  vertex 355500.0 5704500.0 3434.5
 endloop
endfacet
facet normal -0.1949300765991211 -0.34944456815719604 -0.9164555668830872
 outer loop
  vertex 355500.0 5705500.0 3053.199951171875
  vertex 356500.0 5704500.0 3221.800048828125
  vertex 355500.0 5704500.0 3434.5
 endloop
endfacet
facet normal 0.04521273821592331 -0.12195514887571335 -0.9915052652359009
 outer loop
  vertex 355500.0 5705500.0 3053.199951171875
  vertex 356500.0 5705500.0 3098.800048828125
  vertex 356500.0 5704500.0 3221.800048828125
 endloop
endfacet
facet normal -0.05075150355696678 -0.12192267179489136 -0.9912412166595459
 outer loop
  vertex 356500.0 5705500.0 3098.800048828125
  vertex 357500.0 5704500.0 3170.60009765625
  vertex 356500.0 5704500.0 3221.800048828125
 endloop
endfacet
facet normal 0.2246159017086029 0.15554767847061157 -0.9619525074958801
 outer loop
  vertex 356500.0 5705500.0 3098.800048828125
  vertex 357500.0 5705500.0 3332.300048828125
  vertex 357500.0 5704500.0 3170.60009765625
 endloop
endfacet
facet normal -0.06109068915247917 0.1593284159898758 -0.9853336811065674
 outer loop
  vertex 357500.0 5705500.0 3332.300048828125
  vertex 358500.0 5704500.0 3108.60009765625
  vertex 357500.0 5704500.0 3170.60009765625
 endloop
endfacet
facet normal -0.2794346809387207 -0.0651407539844513 -0.9579524993896484
 outer loop
  vertex 357500.0 5705500.0 3332.300048828125
  vertex 358500.0 5705500.0 3040.60009765625
  vertex 358500.0 5704500.0 3108.60009765625
 endloop
endfacet
facet normal 0.028522348031401634 -0.06781572103500366 -0.9972900748252869
 outer loop
  vertex 358500.0 5705500.0 3040.60009765625
  vertex 359500.0 5704500.0 3137.199951171875
  vertex 358500.0 5704500.0 3108.60009765625
 endloop
endfacet
facet normal -0.004676212090998888 -0.10078315436840057 -0.9948974251747131
 outer loop
  vertex 358500.0 5705500.0 3040.60009765625
  vertex 359500.0 5705500.0 3035.89990234375
  vertex 359500.0 5704500.0 3137.199951171875
 endloop
endfacet
facet normal 0.01581721007823944 -0.10077165067195892 -0.994783878326416
 outer loop
  vertex 359500.0 5705500.0 3035.89990234375
  vertex 360500.0 5704500.0 3153.10009765625
  vertex 359500.0 5704500.0 3137.199951171875
 endloop
endfacet
facet normal 0.026881111785769463 -0.08980301767587662 -0.995596706867218
 outer loop
  vertex 359500.0 5705500.0 3035.89990234375
  vertex 360500.0 5705500.0 3062.89990234375
  vertex 360500.0 5704500.0 3153.10009765625
 endloop
endfacet
facet normal 0.0065730237402021885 -0.08983354270458221 -0.9959350824356079
 outer loop
  vertex 360500.0 5705500.0 3062.89990234375
  vertex 361500.0 5704500.0 3159.699951171875
  vertex 360500.0 5704500.0 3153.10009765625
 endloop
endfacet
facet normal 0.031617421656847 -0.06492986530065536 -0.9973888397216797
 outer loop
  vertex 360500.0 5705500.0 3062.89990234375
  vertex 361500.0 5705500.0 3094.60009765625
  vertex 361500.0 5704500.0 3159.699951171875
 endloop
endfacet
facet normal -0.08007203042507172 -0.06475375592708588 -0.9946836233139038
 outer loop
  vertex 361500.0 5705500.0 3094.60009765625
  vertex 362500.0 5704500.0 3079.199951171875
  vertex 361500.0 5704500.0 3159.699951171875
 endloop
endfacet
facet normal 0.02786296233534813 0.043242719024419785 -0.9986760020256042
 outer loop
  vertex 361500.0 5705500.0 3094.60009765625
  vertex 362500.0 5705500.0 3122.5
  vertex 362500.0 5704500.0 3079.199951171875
 endloop
endfacet
facet normal 0.078483447432518 0.043126076459884644 -0.9959822297096252
 outer loop
  vertex 362500.0 5705500.0 3122.5
  vertex 363500.0 5704500.0 3158.0
  vertex 362500.0 5704500.0 3079.199951171875
 endloop
endfacet
facet normal 0.00459785433486104 -0.03088483400642872 -0.9995123744010925
 outer loop
  vertex 362500.0 5705500.0 3122.5
  vertex 363500.0 5705500.0 3127.10009765625
  vertex 363500.0 5704500.0 3158.0
 endloop
endfacet
facet normal 0.07267246395349503 -0.03080349788069725 -0.996880054473877
 outer loop
  vertex 363500.0 5705500.0 3127.10009765625
  vertex 364500.0 5704500.0 3230.89990234375
  vertex 363500.0 5704500.0 3158.0
 endloop
endfacet
facet normal -0.04701171815395355 -0.14952847361564636 -0.9876391291618347
 outer loop
  vertex 363500.0 5705500.0 3127.10009765625
  vertex 364500.0 5705500.0 3079.5
  vertex 364500.0 5704500.0 3230.89990234375
 endloop
endfacet
facet normal -0.06138313561677933 -0.14941170811653137 -0.9868678450584412
 outer loop
  vertex 364500.0 5705500.0 3079.5
  vertex 365500.0 5704500.0 3168.699951171875
  vertex 364500.0 5704500.0 3230.89990234375
 endloop
endfacet
facet normal -0.03412023186683655 -0.12259500473737717 -0.9918700456619263
 outer loop
  vertex 364500.0 5705500.0 3079.5
  vertex 365500.0 5705500.0 3045.10009765625
  vertex 365500.0 5704500.0 3168.699951171875
 endloop
endfacet
facet normal -0.07678643614053726 -0.12230425328016281 -0.9895178079605103
 outer loop
  vertex 365500.0 5705500.0 3045.10009765625
  vertex 366500.0 5704500.0 3091.10009765625
  vertex 365500.0 5704500.0 3168.699951171875
 endloop
endfacet
facet normal 0.04551733657717705 -0.03942831605672836 -0.9981851577758789
 outer loop
  vertex 355500.0 5706500.0 3013.699951171875
  vertex 356500.0 5705500.0 3098.800048828125
  vertex 355500.0 5705500.0 3053.199951171875
 endloop
endfacet
facet normal 0.002192425075918436 -0.08261653780937195 -0.9965789914131165
 outer loop
  vertex 355500.0 5706500.0 3013.699951171875
  vertex 356500.0 5706500.0 3015.89990234375
  vertex 356500.0 5705500.0 3098.800048828125
 endloop
endfacet
facet normal 0.22664618492126465 -0.08046682178974152 -0.9706475138664246
 outer loop
  vertex 356500.0 5706500.0 3015.89990234375
  vertex 357500.0 5705500.0 3332.300048828125
  vertex 356500.0 5705500.0 3098.800048828125
 endloop
endfacet
facet normal 0.03309072554111481 -0.27126580476760864 -0.9619355201721191
 outer loop
  vertex 356500.0 5706500.0 3015.89990234375
  vertex 357500.0 5706500.0 3050.300048828125
  vertex 357500.0 5705500.0 3332.300048828125
 endloop
endfacet
facet normal -0.2702997028827667 -0.2613113820552826 -0.9266361594200134
 outer loop
  vertex 357500.0 5706500.0 3050.300048828125
  vertex 358500.0 5705500.0 3040.60009765625
  vertex 357500.0 5705500.0 3332.300048828125
 endloop
endfacet
facet normal 0.00839823018759489 0.018096251413226128 -0.999800980091095
 outer loop
  vertex 357500.0 5706500.0 3050.300048828125
  vertex 358500.0 5706500.0 3058.699951171875
  vertex 358500.0 5705500.0 3040.60009765625
 endloop
endfacet
facet normal -0.004699373617768288 0.018096689134836197 -0.9998252391815186
 outer loop
  vertex 358500.0 5706500.0 3058.699951171875
  vertex 359500.0 5705500.0 3035.89990234375
  vertex 358500.0 5705500.0 3040.60009765625
 endloop
endfacet
facet normal 0.05475204437971115 0.07744930684566498 -0.9954917430877686
 outer loop
  vertex 358500.0 5706500.0 3058.699951171875
  vertex 359500.0 5706500.0 3113.699951171875
  vertex 359500.0 5705500.0 3035.89990234375
 endloop
endfacet
facet normal 0.026908908039331436 0.07753756642341614 -0.9966262578964233
 outer loop
  vertex 359500.0 5706500.0 3113.699951171875
  vertex 360500.0 5705500.0 3062.89990234375
  vertex 359500.0 5705500.0 3035.89990234375
 endloop
endfacet
facet normal 0.019846687093377113 0.07051026821136475 -0.9973136186599731
 outer loop
  vertex 359500.0 5706500.0 3113.699951171875
  vertex 360500.0 5706500.0 3133.60009765625
  vertex 360500.0 5705500.0 3062.89990234375
 endloop
endfacet
facet normal 0.031605467200279236 0.07048892229795456 -0.9970117211341858
 outer loop
  vertex 360500.0 5706500.0 3133.60009765625
  vertex 361500.0 5705500.0 3094.60009765625
  vertex 360500.0 5705500.0 3062.89990234375
 endloop
endfacet
facet normal 9.977727313525975e-05 0.039069999009370804 -0.9992364645004272
 outer loop
  vertex 360500.0 5706500.0 3133.60009765625
  vertex 361500.0 5706500.0 3133.699951171875
  vertex 361500.0 5705500.0 3094.60009765625
 endloop
endfacet
facet normal 0.027867769822478294 0.03905482217669487 -0.9988483786582947
 outer loop
  vertex 361500.0 5706500.0 3133.699951171875
  vertex 362500.0 5705500.0 3122.5
  vertex 361500.0 5705500.0 3094.60009765625
 endloop
endfacet
facet normal 0.03145574778318405 0.04263996705412865 -0.9985951781272888
 outer loop
  vertex 361500.0 5706500.0 3133.699951171875
  vertex 362500.0 5706500.0 3165.199951171875
  vertex 362500.0 5705500.0 3122.5
 endloop
endfacet
facet normal 0.0045958650298416615 0.04266062751412392 -0.9990790486335754
 outer loop
  vertex 362500.0 5706500.0 3165.199951171875
  vertex 363500.0 5705500.0 3127.10009765625
  vertex 362500.0 5705500.0 3122.5
 endloop
endfacet
facet normal -0.029086362570524216 0.008995825424790382 -0.999536395072937
 outer loop
  vertex 362500.0 5706500.0 3165.199951171875
  vertex 363500.0 5706500.0 3136.10009765625
  vertex 363500.0 5705500.0 3127.10009765625
 endloop
endfacet
facet normal -0.047544341534376144 0.008989457972347736 -0.9988287091255188
 outer loop
  vertex 363500.0 5706500.0 3136.10009765625
  vertex 364500.0 5705500.0 3079.5
  vertex 363500.0 5705500.0 3127.10009765625
 endloop
endfacet
facet normal -0.07962484657764435 -0.023219767957925797 -0.996554434299469
 outer loop
  vertex 363500.0 5706500.0 3136.10009765625
  vertex 364500.0 5706500.0 3056.199951171875
  vertex 364500.0 5705500.0 3079.5
 endloop
endfacet
facet normal -0.03437025099992752 -0.023279964923858643 -0.9991379976272583
 outer loop
  vertex 364500.0 5706500.0 3056.199951171875
  vertex 365500.0 5705500.0 3045.10009765625
  vertex 364500.0 5705500.0 3079.5
 endloop
endfacet
facet normal 0.019707078114151955 -0.13755235075950623 -0.9902983903884888
 outer loop
  vertex 359500.0 5707500.0 2974.800048828125
  vertex 360500.0 5706500.0 3133.60009765625
  vertex 359500.0 5706500.0 3113.699951171875
 endloop
endfacet
facet normal 0.015341458842158318 -0.1418343037366867 -0.9897715449333191
 outer loop
  vertex 359500.0 5707500.0 2974.800048828125
  vertex 360500.0 5707500.0 2990.300048828125
  vertex 360500.0 5706500.0 3133.60009765625
 endloop
endfacet
facet normal 9.884959581540897e-05 -0.14185099303722382 -0.9898880124092102
 outer loop
  vertex 360500.0 5707500.0 2990.300048828125
  vertex 361500.0 5706500.0 3133.699951171875
  vertex 360500.0 5706500.0 3133.60009765625
 endloop
endfacet
facet normal 0.06974205374717712 -0.07292592525482178 -0.9948959350585938
 outer loop
  vertex 360500.0 5707500.0 2990.300048828125
  vertex 361500.0 5707500.0 3060.39990234375
  vertex 361500.0 5706500.0 3133.699951171875
 endloop
endfacet
facet normal 0.031400226056575775 -0.07306787371635437 -0.996832549571991
 outer loop
  vertex 361500.0 5707500.0 3060.39990234375
  vertex 362500.0 5706500.0 3165.199951171875
  vertex 361500.0 5706500.0 3133.699951171875
 endloop
endfacet
facet normal 0.012745185755193233 -0.09160567075014114 -0.9957138299942017
 outer loop
  vertex 361500.0 5707500.0 3060.39990234375
  vertex 362500.0 5707500.0 3073.199951171875
  vertex 362500.0 5706500.0 3165.199951171875
 endloop
endfacet
facet normal -0.028965318575501442 -0.09157466888427734 -0.9953768253326416
 outer loop
  vertex 362500.0 5707500.0 3073.199951171875
  vertex 363500.0 5706500.0 3136.10009765625
  vertex 362500.0 5706500.0 3165.199951171875
 endloop
endfacet
facet normal 0.01937817968428135 -0.043450742959976196 -0.9988676309585571
 outer loop
  vertex 362500.0 5707500.0 3073.199951171875
  vertex 363500.0 5707500.0 3092.60009765625
  vertex 363500.0 5706500.0 3136.10009765625
 endloop
endfacet
facet normal -0.07957154512405396 -0.04332109913229942 -0.9958873391151428
 outer loop
  vertex 363500.0 5707500.0 3092.60009765625
  vertex 364500.0 5706500.0 3056.199951171875
  vertex 363500.0 5706500.0 3136.10009765625
 endloop
endfacet
facet normal 0.06971590965986252 -0.07787118852138519 -0.9945228695869446
 outer loop
  vertex 360500.0 5708500.0 2912.0
  vertex 361500.0 5707500.0 3060.39990234375
  vertex 360500.0 5707500.0 2990.300048828125
 endloop
endfacet
facet normal 0.10679591447114944 -0.04063202813267708 -0.9934503436088562
 outer loop
  vertex 360500.0 5708500.0 2912.0
  vertex 361500.0 5708500.0 3019.5
  vertex 361500.0 5707500.0 3060.39990234375
 endloop
endfacet
facet normal 0.012788312509655952 -0.040862396359443665 -0.9990829825401306
 outer loop
  vertex 361500.0 5708500.0 3019.5
  vertex 362500.0 5707500.0 3073.199951171875
  vertex 361500.0 5707500.0 3060.39990234375
 endloop
endfacet
facet normal -0.04592262953519821 -0.09930023550987244 -0.99399733543396
 outer loop
  vertex 361500.0 5708500.0 3019.5
  vertex 362500.0 5708500.0 2973.300048828125
  vertex 362500.0 5707500.0 3073.199951171875
 endloop
endfacet
facet normal 0.01930045709013939 -0.09938659518957138 -0.9948617219924927
 outer loop
  vertex 362500.0 5708500.0 2973.300048828125
  vertex 363500.0 5707500.0 3092.60009765625
  vertex 362500.0 5707500.0 3073.199951171875
 endloop
endfacet
facet normal 0.10648105293512344 0.08676977455615997 -0.9905214309692383
 outer loop
  vertex 360500.0 5709500.0 2999.60009765625
  vertex 361500.0 5708500.0 3019.5
  vertex 360500.0 5708500.0 2912.0
 endloop
endfacet
facet normal -0.06492703408002853 -0.08471327275037766 -0.9942877292633057
 outer loop
  vertex 360500.0 5709500.0 2999.60009765625
  vertex 361500.0 5709500.0 2934.300048828125
  vertex 361500.0 5708500.0 3019.5
 endloop
endfacet
facet normal -0.045984480530023575 -0.08480259031057358 -0.99533611536026
 outer loop
  vertex 361500.0 5709500.0 2934.300048828125
  vertex 362500.0 5708500.0 2973.300048828125
  vertex 361500.0 5708500.0 3019.5
 endloop
endfacet
endsolid
