solid
facet normal -0.0028974954038858414 -0.040666114538908005 -0.9991686344146729
 outer loop
  vertex 348500.0 5703500.0 2937.699951171875
  vertex 349500.0 5702500.0 2975.5
  vertex 348500.0 5702500.0 2978.39990234375
 endloop
endfacet
facet normal 0.030784696340560913 -0.006996509153395891 -0.9995015859603882
 outer loop
  vertex 348500.0 5703500.0 2937.699951171875
  vertex 349500.0 5703500.0 2968.5
  vertex 349500.0 5702500.0 2975.5
 endloop
endfacet
facet normal 0.023093372583389282 -0.006997962016612291 -0.9997088313102722
 outer loop
  vertex 349500.0 5703500.0 2968.5
  vertex 350500.0 5702500.0 2998.60009765625
  vertex 349500.0 5702500.0 2975.5
 endloop
endfacet
facet normal 0.03268237039446831 0.002598455874249339 -0.9994624257087708
 outer loop
  vertex 349500.0 5703500.0 2968.5
  vertex 350500.0 5703500.0 3001.199951171875
  vertex 350500.0 5702500.0 2998.60009765625
 endloop
endfacet
facet normal 0.045652151107788086 0.002597134094685316 -0.9989540576934814
 outer loop
  vertex 350500.0 5703500.0 3001.199951171875
  vertex 351500.0 5702500.0 3044.300048828125
  vertex 350500.0 5702500.0 2998.60009765625
 endloop
endfacet
facet normal 0.10617858171463013 0.06340935826301575 -0.9923232197761536
 outer loop
  vertex 350500.0 5703500.0 3001.199951171875
  vertex 351500.0 5703500.0 3108.199951171875
  vertex 351500.0 5702500.0 3044.300048828125
 endloop
endfacet
facet normal 0.05961529538035393 0.05114155635237694 -0.9969105124473572
 outer loop
  vertex 347500.0 5704500.0 2929.199951171875
  vertex 348500.0 5704500.0 2989.0
  vertex 348500.0 5703500.0 2937.699951171875
 endloop
endfacet
facet normal 0.03074505738914013 0.051208458840847015 -0.998214602470398
 outer loop
  vertex 348500.0 5704500.0 2989.0
  vertex 349500.0 5703500.0 2968.5
  vertex 348500.0 5703500.0 2937.699951171875
 endloop
endfacet
facet normal -0.02069551683962345 -0.00019990834698546678 -0.9997857809066772
 outer loop
  vertex 348500.0 5704500.0 2989.0
  vertex 349500.0 5704500.0 2968.300048828125
  vertex 349500.0 5703500.0 2968.5
 endloop
endfacet
facet normal 0.03268248215317726 -0.00019984436221420765 -0.9994657635688782
 outer loop
  vertex 349500.0 5704500.0 2968.300048828125
  vertex 350500.0 5703500.0 3001.199951171875
  vertex 349500.0 5703500.0 2968.5
 endloop
endfacet
facet normal 0.0008994415984489024 -0.031983617693185806 -0.9994879961013794
 outer loop
  vertex 349500.0 5704500.0 2968.300048828125
  vertex 350500.0 5704500.0 2969.199951171875
  vertex 350500.0 5703500.0 3001.199951171875
 endloop
endfacet
facet normal 0.10633887350559235 -0.03180227801203728 -0.9938212037086487
 outer loop
  vertex 350500.0 5704500.0 2969.199951171875
  vertex 351500.0 5703500.0 3108.199951171875
  vertex 350500.0 5703500.0 3001.199951171875
 endloop
endfacet
facet normal 0.11912403255701065 -0.018861304968595505 -0.9927002191543579
 outer loop
  vertex 350500.0 5704500.0 2969.199951171875
  vertex 351500.0 5704500.0 3089.199951171875
  vertex 351500.0 5703500.0 3108.199951171875
 endloop
endfacet
facet normal -0.0091979019343853 -0.01899576745927334 -0.9997772574424744
 outer loop
  vertex 351500.0 5704500.0 3089.199951171875
  vertex 352500.0 5703500.0 3099.0
  vertex 351500.0 5703500.0 3108.199951171875
 endloop
endfacet
facet normal 0.00269987341016531 -0.007099892944097519 -0.9999712109565735
 outer loop
  vertex 351500.0 5704500.0 3089.199951171875
  vertex 352500.0 5704500.0 3091.89990234375
  vertex 352500.0 5703500.0 3099.0
 endloop
endfacet
facet normal -0.02068682387471199 -0.028981609269976616 -0.9993658661842346
 outer loop
  vertex 348500.0 5705500.0 2960.0
  vertex 349500.0 5704500.0 2968.300048828125
  vertex 348500.0 5704500.0 2989.0
 endloop
endfacet
facet normal -0.011396950110793114 -0.019694849848747253 -0.9997410774230957
 outer loop
  vertex 348500.0 5705500.0 2960.0
  vertex 349500.0 5705500.0 2948.60009765625
  vertex 349500.0 5704500.0 2968.300048828125
 endloop
endfacet
facet normal 0.0008997273980639875 -0.019696122035384178 -0.9998056292533875
 outer loop
  vertex 349500.0 5705500.0 2948.60009765625
  vertex 350500.0 5704500.0 2969.199951171875
  vertex 349500.0 5704500.0 2968.300048828125
 endloop
endfacet
facet normal 0.09919461607933044 0.07876066863536835 -0.9919461607933044
 outer loop
  vertex 349500.0 5705500.0 2948.60009765625
  vertex 350500.0 5705500.0 3048.60009765625
  vertex 350500.0 5704500.0 2969.199951171875
 endloop
endfacet
facet normal 0.11877669394016266 0.07859072834253311 -0.9898058176040649
 outer loop
  vertex 350500.0 5705500.0 3048.60009765625
  vertex 351500.0 5704500.0 3089.199951171875
  vertex 350500.0 5704500.0 2969.199951171875
 endloop
endfacet
facet normal -0.007491128519177437 -0.04804295673966408 -0.9988171458244324
 outer loop
  vertex 350500.0 5705500.0 3048.60009765625
  vertex 351500.0 5705500.0 3041.10009765625
  vertex 351500.0 5704500.0 3089.199951171875
 endloop
endfacet
facet normal 0.002696825424209237 -0.04804413393139839 -0.9988415837287903
 outer loop
  vertex 351500.0 5705500.0 3041.10009765625
  vertex 352500.0 5704500.0 3091.89990234375
  vertex 351500.0 5704500.0 3089.199951171875
 endloop
endfacet
facet normal -0.005990237463265657 -0.056707385927438736 -0.9983729124069214
 outer loop
  vertex 351500.0 5705500.0 3041.10009765625
  vertex 352500.0 5705500.0 3035.10009765625
  vertex 352500.0 5704500.0 3091.89990234375
 endloop
endfacet
facet normal -0.011394535191357136 -0.02848658338189125 -0.999529242515564
 outer loop
  vertex 348500.0 5706500.0 2931.5
  vertex 349500.0 5705500.0 2948.60009765625
  vertex 348500.0 5705500.0 2960.0
 endloop
endfacet
facet normal -0.016887733712792397 -0.033975519239902496 -0.9992799758911133
 outer loop
  vertex 348500.0 5706500.0 2931.5
  vertex 349500.0 5706500.0 2914.60009765625
  vertex 349500.0 5705500.0 2948.60009765625
 endloop
endfacet
facet normal 0.09944682568311691 -0.03381191939115524 -0.9944682717323303
 outer loop
  vertex 349500.0 5706500.0 2914.60009765625
  vertex 350500.0 5705500.0 3048.60009765625
  vertex 349500.0 5705500.0 2948.60009765625
 endloop
endfacet
facet normal 0.026339054107666016 -0.10684710741043091 -0.9939265251159668
 outer loop
  vertex 349500.0 5706500.0 2914.60009765625
  vertex 350500.0 5706500.0 2941.10009765625
  vertex 350500.0 5705500.0 3048.60009765625
 endloop
endfacet
facet normal -0.007456828840076923 -0.10688120871782303 -0.9942438006401062
 outer loop
  vertex 350500.0 5706500.0 2941.10009765625
  vertex 351500.0 5705500.0 3041.10009765625
  vertex 350500.0 5705500.0 3048.60009765625
 endloop
endfacet
facet normal -0.0008955986704677343 -0.10039037466049194 -0.9949477314949036
 outer loop
  vertex 350500.0 5706500.0 2941.10009765625
  vertex 351500.0 5706500.0 2940.199951171875
  vertex 351500.0 5705500.0 3041.10009765625
 endloop
endfacet
facet normal -0.005969582591205835 -0.10038862377405167 -0.9949303865432739
 outer loop
  vertex 351500.0 5706500.0 2940.199951171875
  vertex 352500.0 5705500.0 3035.10009765625
  vertex 351500.0 5705500.0 3041.10009765625
 endloop
endfacet
facet normal -0.00019905307271983474 -0.09467294812202454 -0.9955083727836609
 outer loop
  vertex 351500.0 5706500.0 2940.199951171875
  vertex 352500.0 5706500.0 2940.0
  vertex 352500.0 5705500.0 3035.10009765625
 endloop
endfacet
facet normal 0.005076887551695108 -0.09467171877622604 -0.9954955577850342
 outer loop
  vertex 352500.0 5706500.0 2940.0
  vertex 353500.0 5705500.0 3040.199951171875
  vertex 352500.0 5705500.0 3035.10009765625
 endloop
endfacet
facet normal 0.037899456918239594 -0.06203538179397583 -0.9973541498184204
 outer loop
  vertex 352500.0 5706500.0 2940.0
  vertex 353500.0 5706500.0 2978.0
  vertex 353500.0 5705500.0 3040.199951171875
 endloop
endfacet
facet normal -0.016887564212083817 0.03427499905228615 -0.9992697238922119
 outer loop
  vertex 348500.0 5707500.0 2965.800048828125
  vertex 349500.0 5706500.0 2914.60009765625
  vertex 348500.0 5706500.0 2931.5
 endloop
endfacet
facet normal -0.01938670128583908 0.0317777656018734 -0.9993069171905518
 outer loop
  vertex 348500.0 5707500.0 2965.800048828125
  vertex 349500.0 5707500.0 2946.39990234375
  vertex 349500.0 5706500.0 2914.60009765625
 endloop
endfacet
facet normal 0.026477325707674026 0.03177259489893913 -0.9991443753242493
 outer loop
  vertex 349500.0 5707500.0 2946.39990234375
  vertex 350500.0 5706500.0 2941.10009765625
  vertex 349500.0 5706500.0 2914.60009765625
 endloop
endfacet
facet normal 0.03743943199515343 0.042730677872896194 -0.9983848333358765
 outer loop
  vertex 349500.0 5707500.0 2946.39990234375
  vertex 350500.0 5707500.0 2983.89990234375
  vertex 350500.0 5706500.0 2941.10009765625
 endloop
endfacet
facet normal -0.000899324775673449 0.042760640382766724 -0.9990849494934082
 outer loop
  vertex 350500.0 5707500.0 2983.89990234375
  vertex 351500.0 5706500.0 2940.199951171875
  vertex 350500.0 5706500.0 2941.10009765625
 endloop
endfacet
facet normal 0.10732222348451614 0.15027065575122833 -0.9828025102615356
 outer loop
  vertex 350500.0 5707500.0 2983.89990234375
  vertex 351500.0 5707500.0 3093.10009765625
  vertex 351500.0 5706500.0 2940.199951171875
 endloop
endfacet
facet normal -0.00019765603065025061 0.15114359557628632 -0.9885118007659912
 outer loop
  vertex 351500.0 5707500.0 3093.10009765625
  vertex 352500.0 5706500.0 2940.0
  vertex 351500.0 5706500.0 2940.199951171875
 endloop
endfacet
facet normal 0.017346298322081566 0.1682407408952713 -0.985593318939209
 outer loop
  vertex 351500.0 5707500.0 3093.10009765625
  vertex 352500.0 5707500.0 3110.699951171875
  vertex 352500.0 5706500.0 2940.0
 endloop
endfacet
facet normal 0.037431929260492325 0.16814811527729034 -0.9850507378578186
 outer loop
  vertex 352500.0 5707500.0 3110.699951171875
  vertex 353500.0 5706500.0 2978.0
  vertex 352500.0 5706500.0 2940.0
 endloop
endfacet
facet normal 0.08048776537179947 0.20979419350624084 -0.9744271039962769
 outer loop
  vertex 352500.0 5707500.0 3110.699951171875
  vertex 353500.0 5707500.0 3193.300048828125
  vertex 353500.0 5706500.0 2978.0
 endloop
endfacet
facet normal 0.044144343584775925 0.21027188003063202 -0.9766457676887512
 outer loop
  vertex 353500.0 5707500.0 3193.300048828125
  vertex 354500.0 5706500.0 3023.199951171875
  vertex 353500.0 5706500.0 2978.0
 endloop
endfacet
facet normal 0.0034999398048967123 0.004699870478361845 -0.9999828338623047
 outer loop
  vertex 347500.0 5708500.0 2967.0
  vertex 348500.0 5708500.0 2970.5
  vertex 348500.0 5707500.0 2965.800048828125
 endloop
endfacet
facet normal -0.019396282732486725 0.004699015058577061 -0.9998008608818054
 outer loop
  vertex 348500.0 5708500.0 2970.5
  vertex 349500.0 5707500.0 2946.39990234375
  vertex 348500.0 5707500.0 2965.800048828125
 endloop
endfacet
facet normal -0.005898823030292988 0.018196865916252136 -0.9998170137405396
 outer loop
  vertex 348500.0 5708500.0 2970.5
  vertex 349500.0 5708500.0 2964.60009765625
  vertex 349500.0 5707500.0 2946.39990234375
 endloop
endfacet
facet normal 0.03746746480464935 0.01818440482020378 -0.9991323947906494
 outer loop
  vertex 349500.0 5708500.0 2964.60009765625
  vertex 350500.0 5707500.0 2983.89990234375
  vertex 349500.0 5707500.0 2946.39990234375
 endloop
endfacet
facet normal 0.07664600759744644 0.05743493139743805 -0.9954027533531189
 outer loop
  vertex 349500.0 5708500.0 2964.60009765625
  vertex 350500.0 5708500.0 3041.60009765625
  vertex 350500.0 5707500.0 2983.89990234375
 endloop
endfacet
facet normal 0.10837673395872116 0.057265087962150574 -0.9924591779708862
 outer loop
  vertex 350500.0 5708500.0 3041.60009765625
  vertex 351500.0 5707500.0 3093.10009765625
  vertex 350500.0 5707500.0 2983.89990234375
 endloop
endfacet
facet normal 0.24208436906337738 0.1931159794330597 -0.9508424997329712
 outer loop
  vertex 350500.0 5708500.0 3041.60009765625
  vertex 351500.0 5708500.0 3296.199951171875
  vertex 351500.0 5707500.0 3093.10009765625
 endloop
endfacet
facet normal 0.017245158553123474 0.19900666177272797 -0.9798464179039001
 outer loop
  vertex 351500.0 5708500.0 3296.199951171875
  vertex 352500.0 5707500.0 3110.699951171875
  vertex 351500.0 5707500.0 3093.10009765625
 endloop
endfacet
facet normal 0.008540085516870022 0.1906314343214035 -0.9816245436668396
 outer loop
  vertex 351500.0 5708500.0 3296.199951171875
  vertex 352500.0 5708500.0 3304.89990234375
  vertex 352500.0 5707500.0 3110.699951171875
 endloop
endfacet
facet normal 0.0808199942111969 0.1900147646665573 -0.9784490466117859
 outer loop
  vertex 352500.0 5708500.0 3304.89990234375
  vertex 353500.0 5707500.0 3193.300048828125
  vertex 352500.0 5707500.0 3110.699951171875
 endloop
endfacet
facet normal -0.1155199259519577 -0.004668436013162136 -0.9932941794395447
 outer loop
  vertex 352500.0 5708500.0 3304.89990234375
  vertex 353500.0 5708500.0 3188.60009765625
  vertex 353500.0 5707500.0 3193.300048828125
 endloop
endfacet
facet normal 0.017197400331497192 0.000999851617962122 -0.999851644039154
 outer loop
  vertex 346500.0 5709500.0 2950.800048828125
  vertex 347500.0 5709500.0 2968.0
  vertex 347500.0 5708500.0 2967.0
 endloop
endfacet
facet normal 0.0034999768249690533 0.0009999934118241072 -0.9999933838844299
 outer loop
  vertex 347500.0 5709500.0 2968.0
  vertex 348500.0 5708500.0 2970.5
  vertex 347500.0 5708500.0 2967.0
 endloop
endfacet
facet normal 0.021591123193502426 0.01909216307103634 -0.9995845556259155
 outer loop
  vertex 347500.0 5709500.0 2968.0
  vertex 348500.0 5709500.0 2989.60009765625
  vertex 348500.0 5708500.0 2970.5
 endloop
endfacet
facet normal -0.005898723844438791 0.01909628137946129 -0.9998002052307129
 outer loop
  vertex 348500.0 5709500.0 2989.60009765625
  vertex 349500.0 5708500.0 2964.60009765625
  vertex 348500.0 5708500.0 2970.5
 endloop
endfacet
facet normal 0.038592904806137085 0.06352374702692032 -0.9972338676452637
 outer loop
  vertex 348500.0 5709500.0 2989.60009765625
  vertex 349500.0 5709500.0 3028.300048828125
  vertex 349500.0 5708500.0 2964.60009765625
 endloop
endfacet
facet normal 0.07661836594343185 0.06338424235582352 -0.9950437545776367
 outer loop
  vertex 349500.0 5709500.0 3028.300048828125
  vertex 350500.0 5708500.0 3041.60009765625
  vertex 349500.0 5708500.0 2964.60009765625
 endloop
endfacet
facet normal 0.026688044890761375 0.013393927365541458 -0.9995540976524353
 outer loop
  vertex 349500.0 5709500.0 3028.300048828125
  vertex 350500.0 5709500.0 3055.0
  vertex 350500.0 5708500.0 3041.60009765625
 endloop
endfacet
facet normal 0.2467079907655716 0.012984544038772583 -0.9690028429031372
 outer loop
  vertex 350500.0 5709500.0 3055.0
  vertex 351500.0 5708500.0 3296.199951171875
  vertex 350500.0 5708500.0 3041.60009765625
 endloop
endfacet
facet normal 0.27226153016090393 0.04037776589393616 -0.9613757133483887
 outer loop
  vertex 350500.0 5709500.0 3055.0
  vertex 351500.0 5709500.0 3338.199951171875
  vertex 351500.0 5708500.0 3296.199951171875
 endloop
endfacet
facet normal 0.008691961877048016 0.041961420327425 -0.9990814924240112
 outer loop
  vertex 351500.0 5709500.0 3338.199951171875
  vertex 352500.0 5708500.0 3304.89990234375
  vertex 351500.0 5708500.0 3296.199951171875
 endloop
endfacet
facet normal -0.014095854945480824 0.019194748252630234 -0.9997164011001587
 outer loop
  vertex 351500.0 5709500.0 3338.199951171875
  vertex 352500.0 5709500.0 3324.10009765625
  vertex 352500.0 5708500.0 3304.89990234375
 endloop
endfacet
facet normal -0.11550017446279526 0.01906818337738514 -0.9931244254112244
 outer loop
  vertex 352500.0 5709500.0 3324.10009765625
  vertex 353500.0 5708500.0 3188.60009765625
  vertex 352500.0 5708500.0 3304.89990234375
 endloop
endfacet
facet normal 0.017175870016217232 0.05002971366047859 -0.9986000061035156
 outer loop
  vertex 346500.0 5710500.0 3000.89990234375
  vertex 347500.0 5709500.0 2968.0
  vertex 346500.0 5709500.0 2950.800048828125
 endloop
endfacet
facet normal -0.0829077884554863 -0.05016271770000458 -0.995293915271759
 outer loop
  vertex 346500.0 5710500.0 3000.89990234375
  vertex 347500.0 5710500.0 2917.60009765625
  vertex 347500.0 5709500.0 2968.0
 endloop
endfacet
facet normal 0.02156769670546055 -0.05032430216670036 -0.9984999895095825
 outer loop
  vertex 347500.0 5710500.0 2917.60009765625
  vertex 348500.0 5709500.0 2989.60009765625
  vertex 347500.0 5709500.0 2968.0
 endloop
endfacet
facet normal 0.037551119923591614 -0.034355562180280685 -0.9987039566040039
 outer loop
  vertex 347500.0 5710500.0 2917.60009765625
  vertex 348500.0 5710500.0 2955.199951171875
  vertex 348500.0 5709500.0 2989.60009765625
 endloop
endfacet
facet normal 0.03864816948771477 -0.03435412794351578 -0.9986621737480164
 outer loop
  vertex 348500.0 5710500.0 2955.199951171875
  vertex 349500.0 5709500.0 3028.300048828125
  vertex 348500.0 5709500.0 2989.60009765625
 endloop
endfacet
facet normal 0.18211773037910461 0.11069706082344055 -0.9770257472991943
 outer loop
  vertex 348500.0 5710500.0 2955.199951171875
  vertex 349500.0 5710500.0 3141.60009765625
  vertex 349500.0 5709500.0 3028.300048828125
 endloop
endfacet
facet normal 0.026520881801843643 0.11254017055034637 -0.9932932257652283
 outer loop
  vertex 349500.0 5710500.0 3141.60009765625
  vertex 350500.0 5709500.0 3055.0
  vertex 349500.0 5709500.0 3028.300048828125
 endloop
endfacet
facet normal 0.095450758934021 0.18023069202899933 -0.9789820909500122
 outer loop
  vertex 349500.0 5710500.0 3141.60009765625
  vertex 350500.0 5710500.0 3239.10009765625
  vertex 350500.0 5709500.0 3055.0
 endloop
endfacet
facet normal 0.26830703020095825 0.174418643116951 -0.9474120140075684
 outer loop
  vertex 350500.0 5710500.0 3239.10009765625
  vertex 351500.0 5709500.0 3338.199951171875
  vertex 350500.0 5709500.0 3055.0
 endloop
endfacet
facet normal 0.07695258408784866 -0.021829726174473763 -0.9967957139015198
 outer loop
  vertex 350500.0 5710500.0 3239.10009765625
  vertex 351500.0 5710500.0 3316.300048828125
  vertex 351500.0 5709500.0 3338.199951171875
 endloop
endfacet
facet normal -0.014095073565840721 -0.021892478689551353 -0.9996609687805176
 outer loop
  vertex 351500.0 5710500.0 3316.300048828125
  vertex 352500.0 5709500.0 3324.10009765625
  vertex 351500.0 5709500.0 3338.199951171875
 endloop
endfacet
facet normal 0.060405053198337555 0.05263007804751396 -0.9967854619026184
 outer loop
  vertex 351500.0 5710500.0 3316.300048828125
  vertex 352500.0 5710500.0 3376.89990234375
  vertex 352500.0 5709500.0 3324.10009765625
 endloop
endfacet
facet normal -0.08297397941350937 0.030380699783563614 -0.9960885643959045
 outer loop
  vertex 346500.0 5711500.0 3031.39990234375
  vertex 347500.0 5710500.0 2917.60009765625
  vertex 346500.0 5710500.0 3000.89990234375
 endloop
endfacet
facet normal -0.0022856348659843206 0.11081300675868988 -0.9938386082649231
 outer loop
  vertex 346500.0 5711500.0 3031.39990234375
  vertex 347500.0 5711500.0 3029.10009765625
  vertex 347500.0 5710500.0 2917.60009765625
 endloop
endfacet
facet normal 0.037342220544815063 0.11073601245880127 -0.9931480884552002
 outer loop
  vertex 347500.0 5711500.0 3029.10009765625
  vertex 348500.0 5710500.0 2955.199951171875
  vertex 347500.0 5710500.0 2917.60009765625
 endloop
endfacet
facet normal 0.021794917061924934 0.0953407883644104 -0.9952061176300049
 outer loop
  vertex 347500.0 5711500.0 3029.10009765625
  vertex 348500.0 5711500.0 3051.0
  vertex 348500.0 5710500.0 2955.199951171875
 endloop
endfacet
facet normal 0.18243663012981415 0.09376300871372223 -0.9787365794181824
 outer loop
  vertex 348500.0 5711500.0 3051.0
  vertex 349500.0 5710500.0 3141.60009765625
  vertex 348500.0 5710500.0 2955.199951171875
 endloop
endfacet
facet normal 0.16368602216243744 0.07456356287002563 -0.983690619468689
 outer loop
  vertex 348500.0 5711500.0 3051.0
  vertex 349500.0 5711500.0 3217.39990234375
  vertex 349500.0 5710500.0 3141.60009765625
 endloop
endfacet
facet normal 0.09676486998796463 0.07522828876972198 -0.9924601912498474
 outer loop
  vertex 349500.0 5711500.0 3217.39990234375
  vertex 350500.0 5710500.0 3239.10009765625
  vertex 349500.0 5710500.0 3141.60009765625
 endloop
endfacet
facet normal 0.12377218157052994 0.10235369950532913 -0.987017810344696
 outer loop
  vertex 349500.0 5711500.0 3217.39990234375
  vertex 350500.0 5711500.0 3342.800048828125
  vertex 350500.0 5710500.0 3239.10009765625
 endloop
endfacet
facet normal 0.0765627846121788 0.10284407436847687 -0.9917465448379517
 outer loop
  vertex 350500.0 5711500.0 3342.800048828125
  vertex 351500.0 5710500.0 3316.300048828125
  vertex 350500.0 5710500.0 3239.10009765625
 endloop
endfacet
facet normal 0.03133201226592064 0.05777471512556076 -0.9978379011154175
 outer loop
  vertex 350500.0 5711500.0 3342.800048828125
  vertex 351500.0 5711500.0 3374.199951171875
  vertex 351500.0 5710500.0 3316.300048828125
 endloop
endfacet
facet normal 0.06038811430335045 0.0576976016163826 -0.9965059757232666
 outer loop
  vertex 351500.0 5711500.0 3374.199951171875
  vertex 352500.0 5710500.0 3376.89990234375
  vertex 351500.0 5710500.0 3316.300048828125
 endloop
endfacet
facet normal -0.002299774205312133 0.0046000368893146515 -0.9999867677688599
 outer loop
  vertex 346500.0 5712500.0 3036.0
  vertex 347500.0 5711500.0 3029.10009765625
  vertex 346500.0 5711500.0 3031.39990234375
 endloop
endfacet
facet normal -0.020194046199321747 -0.013296160846948624 -0.9997076392173767
 outer loop
  vertex 346500.0 5712500.0 3036.0
  vertex 347500.0 5712500.0 3015.800048828125
  vertex 347500.0 5711500.0 3029.10009765625
 endloop
endfacet
facet normal 0.021892718970775604 -0.013295684941112995 -0.9996719360351562
 outer loop
  vertex 347500.0 5712500.0 3015.800048828125
  vertex 348500.0 5711500.0 3051.0
  vertex 347500.0 5711500.0 3029.10009765625
 endloop
endfacet
facet normal 0.13657303154468536 0.10188782960176468 -0.9853764176368713
 outer loop
  vertex 347500.0 5712500.0 3015.800048828125
  vertex 348500.0 5712500.0 3154.39990234375
  vertex 348500.0 5711500.0 3051.0
 endloop
endfacet
facet normal 0.16329573094844818 0.10147098451852798 -0.9813450574874878
 outer loop
  vertex 348500.0 5712500.0 3154.39990234375
  vertex 349500.0 5711500.0 3217.39990234375
  vertex 348500.0 5711500.0 3051.0
 endloop
endfacet
facet normal 0.09639354050159454 0.03372291475534439 -0.9947718381881714
 outer loop
  vertex 348500.0 5712500.0 3154.39990234375
  vertex 349500.0 5712500.0 3251.300048828125
  vertex 349500.0 5711500.0 3217.39990234375
 endloop
endfacet
facet normal 0.12435533106327057 0.03361769765615463 -0.9916681051254272
 outer loop
  vertex 349500.0 5712500.0 3251.300048828125
  vertex 350500.0 5711500.0 3342.800048828125
  vertex 349500.0 5711500.0 3217.39990234375
 endloop
endfacet
facet normal 0.08835272490978241 -0.0027890854980796576 -0.9960853457450867
 outer loop
  vertex 349500.0 5712500.0 3251.300048828125
  vertex 350500.0 5712500.0 3340.0
  vertex 350500.0 5711500.0 3342.800048828125
 endloop
endfacet
facet normal 0.031384315341711044 -0.00279865856282413 -0.999503493309021
 outer loop
  vertex 350500.0 5712500.0 3340.0
  vertex 351500.0 5711500.0 3374.199951171875
  vertex 350500.0 5711500.0 3342.800048828125
 endloop
endfacet
facet normal -0.08663053810596466 -0.12045196443796158 -0.9889320135116577
 outer loop
  vertex 350500.0 5712500.0 3340.0
  vertex 351500.0 5712500.0 3252.39990234375
  vertex 351500.0 5711500.0 3374.199951171875
 endloop
endfacet
facet normal 0.1361529529094696 0.1282941997051239 -0.9823456406593323
 outer loop
  vertex 347500.0 5713500.0 3146.39990234375
  vertex 348500.0 5712500.0 3154.39990234375
  vertex 347500.0 5712500.0 3015.800048828125
 endloop
endfacet
facet normal 0.07885295152664185 0.07089805603027344 -0.9943619966506958
 outer loop
  vertex 347500.0 5713500.0 3146.39990234375
  vertex 348500.0 5713500.0 3225.699951171875
  vertex 348500.0 5712500.0 3154.39990234375
 endloop
endfacet
facet normal 0.0962064266204834 0.07078960537910461 -0.9928409457206726
 outer loop
  vertex 348500.0 5713500.0 3225.699951171875
  vertex 349500.0 5712500.0 3251.300048828125
  vertex 348500.0 5712500.0 3154.39990234375
 endloop
endfacet
facet normal 0.07529144734144211 0.04979586601257324 -0.9959174394607544
 outer loop
  vertex 348500.0 5713500.0 3225.699951171875
  vertex 349500.0 5713500.0 3301.300048828125
  vertex 349500.0 5712500.0 3251.300048828125
 endloop
endfacet
facet normal 0.08824369311332703 0.04974280670285225 -0.9948561787605286
 outer loop
  vertex 349500.0 5713500.0 3301.300048828125
  vertex 350500.0 5712500.0 3340.0
  vertex 349500.0 5712500.0 3251.300048828125
 endloop
endfacet
facet normal -0.010686309076845646 -0.04933692142367363 -0.9987249970436096
 outer loop
  vertex 349500.0 5713500.0 3301.300048828125
  vertex 350500.0 5713500.0 3290.60009765625
  vertex 350500.0 5712500.0 3340.0
 endloop
endfacet
facet normal -0.08716043084859848 -0.049151964485645294 -0.9949809908866882
 outer loop
  vertex 350500.0 5713500.0 3290.60009765625
  vertex 351500.0 5712500.0 3252.39990234375
  vertex 350500.0 5712500.0 3340.0
 endloop
endfacet
facet normal -0.010679035447537899 -0.06157933548092842 -0.9980450868606567
 outer loop
  vertex 349500.0 5714500.0 3239.60009765625
  vertex 350500.0 5713500.0 3290.60009765625
  vertex 349500.0 5713500.0 3301.300048828125
 endloop
endfacet
facet normal -0.06119713559746742 -0.11178132146596909 -0.9918466806411743
 outer loop
  vertex 349500.0 5714500.0 3239.60009765625
  vertex 350500.0 5714500.0 3177.89990234375
  vertex 350500.0 5713500.0 3290.60009765625
 endloop
endfacet
facet normal 0.01754993014037609 -0.07319194823503494 -0.9971634149551392
 outer loop
  vertex 348500.0 5715500.0 3148.60009765625
  vertex 349500.0 5715500.0 3166.199951171875
  vertex 349500.0 5714500.0 3239.60009765625
 endloop
endfacet
facet normal -0.06141848489642143 -0.07306502014398575 -0.9954341650009155
 outer loop
  vertex 349500.0 5715500.0 3166.199951171875
  vertex 350500.0 5714500.0 3177.89990234375
  vertex 349500.0 5714500.0 3239.60009765625
 endloop
endfacet
endsolid
