solid
facet normal -0.05312107503414154 -0.011882259510457516 0.9985173940658569
 outer loop
  vertex 563500.0 5999500.0 2916.800048828125
  vertex 564500.0 6000500.0 2981.89990234375
  vertex 563500.0 6000500.0 2928.699951171875
 endloop
endfacet
facet normal -0.0024951081722974777 -0.06247736141085625 0.9980432987213135
 outer loop
  vertex 563500.0 5999500.0 2916.800048828125
  vertex 564500.0 5999500.0 2919.300048828125
  vertex 564500.0 6000500.0 2981.89990234375
 endloop
endfacet
facet normal -0.0205902848392725 0.022989043965935707 0.9995236396789551
 outer loop
  vertex 562500.0 5998500.0 2919.199951171875
  vertex 563500.0 5998500.0 2939.800048828125
  vertex 563500.0 5999500.0 2916.800048828125
 endloop
endfacet
facet normal -0.0024993312545120716 0.022993847727775574 0.999732494354248
 outer loop
  vertex 563500.0 5998500.0 2939.800048828125
  vertex 564500.0 5999500.0 2919.300048828125
  vertex 563500.0 5999500.0 2916.800048828125
 endloop
endfacet
facet normal -0.024866588413715363 0.04533916339278221 0.9986621141433716
 outer loop
  vertex 563500.0 5998500.0 2939.800048828125
  vertex 564500.0 5998500.0 2964.699951171875
  vertex 564500.0 5999500.0 2919.300048828125
 endloop
endfacet
facet normal -0.009889231994748116 0.04535096883773804 0.9989221692085266
 outer loop
  vertex 564500.0 5998500.0 2964.699951171875
  vertex 565500.0 5999500.0 2929.199951171875
  vertex 564500.0 5999500.0 2919.300048828125
 endloop
endfacet
facet normal 0.01539496798068285 0.020093657076358795 0.9996796250343323
 outer loop
  vertex 564500.0 5998500.0 2964.699951171875
  vertex 565500.0 5998500.0 2949.300048828125
  vertex 565500.0 5999500.0 2929.199951171875
 endloop
endfacet
facet normal -0.025591155514121056 0.006597792264074087 0.9996506571769714
 outer loop
  vertex 561500.0 5997500.0 2900.199951171875
  vertex 562500.0 5997500.0 2925.800048828125
  vertex 562500.0 5998500.0 2919.199951171875
 endloop
endfacet
facet normal -0.020595280453562737 0.006598554085940123 0.9997661113739014
 outer loop
  vertex 562500.0 5997500.0 2925.800048828125
  vertex 563500.0 5998500.0 2939.800048828125
  vertex 562500.0 5998500.0 2919.199951171875
 endloop
endfacet
facet normal -0.013698665425181389 -0.00030002067796885967 0.9999061226844788
 outer loop
  vertex 562500.0 5997500.0 2925.800048828125
  vertex 563500.0 5997500.0 2939.5
  vertex 563500.0 5998500.0 2939.800048828125
 endloop
endfacet
facet normal -0.024892184883356094 -0.00029995583463460207 0.9996901154518127
 outer loop
  vertex 563500.0 5997500.0 2939.5
  vertex 564500.0 5998500.0 2964.699951171875
  vertex 563500.0 5998500.0 2939.800048828125
 endloop
endfacet
facet normal -0.012997934594750404 -0.012198012322187424 0.9998410940170288
 outer loop
  vertex 563500.0 5997500.0 2939.5
  vertex 564500.0 5997500.0 2952.5
  vertex 564500.0 5998500.0 2964.699951171875
 endloop
endfacet
facet normal 0.015396930277347565 -0.012197596952319145 0.9998070597648621
 outer loop
  vertex 564500.0 5997500.0 2952.5
  vertex 565500.0 5998500.0 2949.300048828125
  vertex 564500.0 5998500.0 2964.699951171875
 endloop
endfacet
facet normal 0.003999966662377119 -0.0008000421803444624 0.9999917149543762
 outer loop
  vertex 564500.0 5997500.0 2952.5
  vertex 565500.0 5997500.0 2948.5
  vertex 565500.0 5998500.0 2949.300048828125
 endloop
endfacet
facet normal -0.004300007596611977 -0.0008000411908142269 0.9999904632568359
 outer loop
  vertex 565500.0 5997500.0 2948.5
  vertex 566500.0 5998500.0 2953.60009765625
  vertex 565500.0 5998500.0 2949.300048828125
 endloop
endfacet
facet normal -0.025590330362319946 -0.01039593480527401 0.9996184706687927
 outer loop
  vertex 561500.0 5996500.0 2889.800048828125
  vertex 562500.0 5997500.0 2925.800048828125
  vertex 561500.0 5997500.0 2900.199951171875
 endloop
endfacet
facet normal -0.014894934371113777 -0.021093061193823814 0.9996665716171265
 outer loop
  vertex 561500.0 5996500.0 2889.800048828125
  vertex 562500.0 5996500.0 2904.699951171875
  vertex 562500.0 5997500.0 2925.800048828125
 endloop
endfacet
facet normal -0.013695616275072098 -0.021093424409627914 0.9996837377548218
 outer loop
  vertex 562500.0 5996500.0 2904.699951171875
  vertex 563500.0 5997500.0 2939.5
  vertex 562500.0 5997500.0 2925.800048828125
 endloop
endfacet
facet normal -0.025190794840455055 -0.009596607647836208 0.9996366500854492
 outer loop
  vertex 562500.0 5996500.0 2904.699951171875
  vertex 563500.0 5996500.0 2929.89990234375
  vertex 563500.0 5997500.0 2939.5
 endloop
endfacet
facet normal -0.012998302467167377 -0.009598844684660435 0.9998694658279419
 outer loop
  vertex 563500.0 5996500.0 2929.89990234375
  vertex 564500.0 5997500.0 2952.5
  vertex 563500.0 5997500.0 2939.5
 endloop
endfacet
facet normal -0.021095378324389458 -0.0014996645040810108 0.9997763633728027
 outer loop
  vertex 563500.0 5996500.0 2929.89990234375
  vertex 564500.0 5996500.0 2951.0
  vertex 564500.0 5997500.0 2952.5
 endloop
endfacet
facet normal 0.003999963402748108 -0.0014999862760305405 0.9999908804893494
 outer loop
  vertex 564500.0 5996500.0 2951.0
  vertex 565500.0 5997500.0 2948.5
  vertex 564500.0 5997500.0 2952.5
 endloop
endfacet
facet normal 0.002100092824548483 0.0003999014152213931 0.9999976754188538
 outer loop
  vertex 564500.0 5996500.0 2951.0
  vertex 565500.0 5996500.0 2948.89990234375
  vertex 565500.0 5997500.0 2948.5
 endloop
endfacet
facet normal -0.019596083089709282 -0.000899973267223686 0.999807596206665
 outer loop
  vertex 560500.0 5995500.0 2869.300048828125
  vertex 561500.0 5995500.0 2888.89990234375
  vertex 561500.0 5996500.0 2889.800048828125
 endloop
endfacet
facet normal -0.014898243360221386 -0.0009000462596304715 0.9998886585235596
 outer loop
  vertex 561500.0 5995500.0 2888.89990234375
  vertex 562500.0 5996500.0 2904.699951171875
  vertex 561500.0 5996500.0 2889.800048828125
 endloop
endfacet
facet normal -0.03128097206354141 0.015490553341805935 0.9993905425071716
 outer loop
  vertex 561500.0 5995500.0 2888.89990234375
  vertex 562500.0 5995500.0 2920.199951171875
  vertex 562500.0 5996500.0 2904.699951171875
 endloop
endfacet
facet normal -0.025188930332660675 0.015493220649659634 0.9995626211166382
 outer loop
  vertex 562500.0 5995500.0 2920.199951171875
  vertex 563500.0 5996500.0 2929.89990234375
  vertex 562500.0 5996500.0 2904.699951171875
 endloop
endfacet
facet normal -0.0016998943174257874 -0.007999732159078121 0.999966561794281
 outer loop
  vertex 562500.0 5995500.0 2920.199951171875
  vertex 563500.0 5995500.0 2921.89990234375
  vertex 563500.0 5996500.0 2929.89990234375
 endloop
endfacet
facet normal -0.021094728261232376 -0.007997963577508926 0.9997454881668091
 outer loop
  vertex 563500.0 5995500.0 2921.89990234375
  vertex 564500.0 5996500.0 2951.0
  vertex 563500.0 5996500.0 2929.89990234375
 endloop
endfacet
facet normal -0.02029508166015148 -0.008797895163297653 0.999755322933197
 outer loop
  vertex 563500.0 5995500.0 2921.89990234375
  vertex 564500.0 5995500.0 2942.199951171875
  vertex 564500.0 5996500.0 2951.0
 endloop
endfacet
facet normal 0.0021000117994844913 -0.008799688890576363 0.9999590516090393
 outer loop
  vertex 564500.0 5995500.0 2942.199951171875
  vertex 565500.0 5996500.0 2948.89990234375
  vertex 564500.0 5996500.0 2951.0
 endloop
endfacet
facet normal 0.0031997780315577984 -0.009899366647005081 0.999945878982544
 outer loop
  vertex 564500.0 5995500.0 2942.199951171875
  vertex 565500.0 5995500.0 2939.0
  vertex 565500.0 5996500.0 2948.89990234375
 endloop
endfacet
facet normal -0.019595917314291 0.004199107643216848 0.9997991919517517
 outer loop
  vertex 560500.0 5994500.0 2873.5
  vertex 561500.0 5995500.0 2888.89990234375
  vertex 560500.0 5995500.0 2869.300048828125
 endloop
endfacet
facet normal -0.0009998958557844162 -0.014398402534425259 0.9998958110809326
 outer loop
  vertex 560500.0 5994500.0 2873.5
  vertex 561500.0 5994500.0 2874.5
  vertex 561500.0 5995500.0 2888.89990234375
 endloop
endfacet
facet normal -0.0312814898788929 -0.01439136266708374 0.9994069933891296
 outer loop
  vertex 561500.0 5994500.0 2874.5
  vertex 562500.0 5995500.0 2920.199951171875
  vertex 561500.0 5995500.0 2888.89990234375
 endloop
endfacet
facet normal -0.02658584527671337 -0.019089622423052788 0.999464213848114
 outer loop
  vertex 561500.0 5994500.0 2874.5
  vertex 562500.0 5994500.0 2901.10009765625
  vertex 562500.0 5995500.0 2920.199951171875
 endloop
endfacet
facet normal -0.0016996387857943773 -0.019096342846751213 0.9998162388801575
 outer loop
  vertex 562500.0 5994500.0 2901.10009765625
  vertex 563500.0 5995500.0 2921.89990234375
  vertex 562500.0 5995500.0 2920.199951171875
 endloop
endfacet
facet normal -0.007099008187651634 -0.013698319904506207 0.9998809695243835
 outer loop
  vertex 562500.0 5994500.0 2901.10009765625
  vertex 563500.0 5994500.0 2908.199951171875
  vertex 563500.0 5995500.0 2921.89990234375
 endloop
endfacet
facet normal -0.020293964073061943 -0.013695844449102879 0.9997001886367798
 outer loop
  vertex 563500.0 5994500.0 2908.199951171875
  vertex 564500.0 5995500.0 2942.199951171875
  vertex 563500.0 5995500.0 2921.89990234375
 endloop
endfacet
facet normal -0.009596799500286579 -0.024391518905758858 0.9996564388275146
 outer loop
  vertex 563500.0 5994500.0 2908.199951171875
  vertex 564500.0 5994500.0 2917.800048828125
  vertex 564500.0 5995500.0 2942.199951171875
 endloop
endfacet
facet normal 0.0031989826820790768 -0.024392517283558846 0.9996973276138306
 outer loop
  vertex 564500.0 5994500.0 2917.800048828125
  vertex 565500.0 5995500.0 2939.0
  vertex 564500.0 5995500.0 2942.199951171875
 endloop
endfacet
facet normal 0.009595105424523354 -0.030784033238887787 0.9994800090789795
 outer loop
  vertex 564500.0 5994500.0 2917.800048828125
  vertex 565500.0 5994500.0 2908.199951171875
  vertex 565500.0 5995500.0 2939.0
 endloop
endfacet
facet normal -0.026590621098876 0.0022992293816059828 0.9996437430381775
 outer loop
  vertex 561500.0 5993500.0 2876.800048828125
  vertex 562500.0 5994500.0 2901.10009765625
  vertex 561500.0 5994500.0 2874.5
 endloop
endfacet
facet normal -0.012698073871433735 -0.011598382145166397 0.9998521208763123
 outer loop
  vertex 561500.0 5993500.0 2876.800048828125
  vertex 562500.0 5993500.0 2889.5
  vertex 562500.0 5994500.0 2901.10009765625
 endloop
endfacet
facet normal -0.007099197246134281 -0.011599025689065456 0.9999075531959534
 outer loop
  vertex 562500.0 5993500.0 2889.5
  vertex 563500.0 5994500.0 2908.199951171875
  vertex 562500.0 5994500.0 2901.10009765625
 endloop
endfacet
facet normal -0.008499250747263432 -0.010199052281677723 0.999911904335022
 outer loop
  vertex 562500.0 5993500.0 2889.5
  vertex 563500.0 5993500.0 2898.0
  vertex 563500.0 5994500.0 2908.199951171875
 endloop
endfacet
facet normal -0.009599155746400356 -0.01019895076751709 0.9999018907546997
 outer loop
  vertex 563500.0 5993500.0 2898.0
  vertex 564500.0 5994500.0 2917.800048828125
  vertex 563500.0 5994500.0 2908.199951171875
 endloop
endfacet
facet normal -0.0029995632357895374 -0.01679760217666626 0.9998543858528137
 outer loop
  vertex 563500.0 5993500.0 2898.0
  vertex 564500.0 5993500.0 2901.0
  vertex 564500.0 5994500.0 2917.800048828125
 endloop
endfacet
facet normal 0.00959830079227686 -0.016796905547380447 0.9998128414154053
 outer loop
  vertex 564500.0 5993500.0 2901.0
  vertex 565500.0 5994500.0 2908.199951171875
  vertex 564500.0 5994500.0 2917.800048828125
 endloop
endfacet
facet normal 0.00919832568615675 -0.016397004947066307 0.999823272228241
 outer loop
  vertex 564500.0 5993500.0 2901.0
  vertex 565500.0 5993500.0 2891.800048828125
  vertex 565500.0 5994500.0 2908.199951171875
 endloop
endfacet
facet normal -0.012697461061179638 -0.015196970663964748 0.999803900718689
 outer loop
  vertex 561500.0 5992500.0 2861.60009765625
  vertex 562500.0 5993500.0 2889.5
  vertex 561500.0 5993500.0 2876.800048828125
 endloop
endfacet
facet normal 0.005796660669147968 -0.0336802676320076 0.9994158148765564
 outer loop
  vertex 561500.0 5992500.0 2861.60009765625
  vertex 562500.0 5992500.0 2855.800048828125
  vertex 562500.0 5993500.0 2889.5
 endloop
endfacet
facet normal -0.008494870737195015 -0.03367961570620537 0.999396562576294
 outer loop
  vertex 562500.0 5992500.0 2855.800048828125
  vertex 563500.0 5993500.0 2898.0
  vertex 562500.0 5993500.0 2889.5
 endloop
endfacet
facet normal -0.06315960735082626 0.02105328068137169 0.9977813959121704
 outer loop
  vertex 562500.0 5992500.0 2855.800048828125
  vertex 563500.0 5992500.0 2919.10009765625
  vertex 563500.0 5993500.0 2898.0
 endloop
endfacet
facet normal -0.0029993189964443445 0.021095307543873787 0.9997729659080505
 outer loop
  vertex 563500.0 5992500.0 2919.10009765625
  vertex 564500.0 5993500.0 2901.0
  vertex 563500.0 5993500.0 2898.0
 endloop
endfacet
facet normal 0.0214949082583189 -0.003399097127839923 0.9997631907463074
 outer loop
  vertex 563500.0 5992500.0 2919.10009765625
  vertex 564500.0 5992500.0 2897.60009765625
  vertex 564500.0 5993500.0 2901.0
 endloop
endfacet
facet normal 0.009199508465826511 -0.003399738809093833 0.9999518990516663
 outer loop
  vertex 564500.0 5992500.0 2897.60009765625
  vertex 565500.0 5993500.0 2891.800048828125
  vertex 564500.0 5993500.0 2901.0
 endloop
endfacet
facet normal -0.0008998818229883909 0.006699798163026571 0.999977171421051
 outer loop
  vertex 564500.0 5992500.0 2897.60009765625
  vertex 565500.0 5992500.0 2898.5
  vertex 565500.0 5993500.0 2891.800048828125
 endloop
endfacet
facet normal -0.006198998540639877 -0.01639762707054615 0.999846339225769
 outer loop
  vertex 560500.0 5991500.0 2839.0
  vertex 561500.0 5991500.0 2845.199951171875
  vertex 561500.0 5992500.0 2861.60009765625
 endloop
endfacet
facet normal 0.005799171514809132 -0.016397666186094284 0.9998487830162048
 outer loop
  vertex 561500.0 5991500.0 2845.199951171875
  vertex 562500.0 5992500.0 2855.800048828125
  vertex 561500.0 5992500.0 2861.60009765625
 endloop
endfacet
facet normal -0.006399958860129118 -0.0041998280212283134 0.9999706745147705
 outer loop
  vertex 561500.0 5991500.0 2845.199951171875
  vertex 562500.0 5991500.0 2851.60009765625
  vertex 562500.0 5992500.0 2855.800048828125
 endloop
endfacet
facet normal -0.06317305564880371 -0.0041915252804756165 0.9979937672615051
 outer loop
  vertex 562500.0 5991500.0 2851.60009765625
  vertex 563500.0 5992500.0 2919.10009765625
  vertex 562500.0 5992500.0 2855.800048828125
 endloop
endfacet
facet normal -0.0009977957233786583 -0.06635341048240662 0.9977957010269165
 outer loop
  vertex 562500.0 5991500.0 2851.60009765625
  vertex 563500.0 5991500.0 2852.60009765625
  vertex 563500.0 5992500.0 2919.10009765625
 endloop
endfacet
facet normal 0.0214476827532053 -0.0663381814956665 0.9975666403770447
 outer loop
  vertex 563500.0 5991500.0 2852.60009765625
  vertex 564500.0 5992500.0 2897.60009765625
  vertex 563500.0 5992500.0 2919.10009765625
 endloop
endfacet
facet normal -0.03597524017095566 -0.008993810042738914 0.9993122220039368
 outer loop
  vertex 563500.0 5991500.0 2852.60009765625
  vertex 564500.0 5991500.0 2888.60009765625
  vertex 564500.0 5992500.0 2897.60009765625
 endloop
endfacet
facet normal -0.0008998655830509961 -0.008999631740152836 0.9999591112136841
 outer loop
  vertex 564500.0 5991500.0 2888.60009765625
  vertex 565500.0 5992500.0 2898.5
  vertex 564500.0 5992500.0 2897.60009765625
 endloop
endfacet
facet normal -0.0012997555313631892 -0.008599772118031979 0.9999622106552124
 outer loop
  vertex 564500.0 5991500.0 2888.60009765625
  vertex 565500.0 5991500.0 2889.89990234375
  vertex 565500.0 5992500.0 2898.5
 endloop
endfacet
facet normal -0.012598631903529167 -0.008599096909165382 0.9998836517333984
 outer loop
  vertex 565500.0 5991500.0 2889.89990234375
  vertex 566500.0 5992500.0 2911.10009765625
  vertex 565500.0 5992500.0 2898.5
 endloop
endfacet
facet normal 0.013890007510781288 -0.0350751094520092 0.9992881417274475
 outer loop
  vertex 565500.0 5991500.0 2889.89990234375
  vertex 566500.0 5991500.0 2876.0
  vertex 566500.0 5992500.0 2911.10009765625
 endloop
endfacet
facet normal -0.006191943772137165 -0.050434764474630356 0.998708188533783
 outer loop
  vertex 560500.0 5990500.0 2788.5
  vertex 561500.0 5991500.0 2845.199951171875
  vertex 560500.0 5991500.0 2839.0
 endloop
endfacet
facet normal -0.0050932555459439754 -0.0515306293964386 0.9986584186553955
 outer loop
  vertex 560500.0 5990500.0 2788.5
  vertex 561500.0 5990500.0 2793.60009765625
  vertex 561500.0 5991500.0 2845.199951171875
 endloop
endfacet
facet normal -0.006391514558345079 -0.05153024569153786 0.9986510276794434
 outer loop
  vertex 561500.0 5990500.0 2793.60009765625
  vertex 562500.0 5991500.0 2851.60009765625
  vertex 561500.0 5991500.0 2845.199951171875
 endloop
endfacet
facet normal -0.018982145935297012 -0.038963351398706436 0.999060332775116
 outer loop
  vertex 561500.0 5990500.0 2793.60009765625
  vertex 562500.0 5990500.0 2812.60009765625
  vertex 562500.0 5991500.0 2851.60009765625
 endloop
endfacet
facet normal -0.0009992398554459214 -0.038970354944467545 0.9992398619651794
 outer loop
  vertex 562500.0 5990500.0 2812.60009765625
  vertex 563500.0 5991500.0 2852.60009765625
  vertex 562500.0 5991500.0 2851.60009765625
 endloop
endfacet
facet normal -0.034079451113939285 -0.005896618589758873 0.9994017481803894
 outer loop
  vertex 562500.0 5990500.0 2812.60009765625
  vertex 563500.0 5990500.0 2846.699951171875
  vertex 563500.0 5991500.0 2852.60009765625
 endloop
endfacet
facet normal -0.035976070910692215 -0.005896224174648523 0.9993352293968201
 outer loop
  vertex 563500.0 5990500.0 2846.699951171875
  vertex 564500.0 5991500.0 2888.60009765625
  vertex 563500.0 5991500.0 2852.60009765625
 endloop
endfacet
facet normal 0.00589307164773345 -0.04774470999836922 0.9988422393798828
 outer loop
  vertex 563500.0 5990500.0 2846.699951171875
  vertex 564500.0 5990500.0 2840.800048828125
  vertex 564500.0 5991500.0 2888.60009765625
 endloop
endfacet
facet normal -0.0012983211781829596 -0.047745492309331894 0.9988586902618408
 outer loop
  vertex 564500.0 5990500.0 2840.800048828125
  vertex 565500.0 5991500.0 2889.89990234375
  vertex 564500.0 5991500.0 2888.60009765625
 endloop
endfacet
facet normal -0.03806992992758751 -0.010991360992193222 0.9992145895957947
 outer loop
  vertex 564500.0 5990500.0 2840.800048828125
  vertex 565500.0 5990500.0 2878.89990234375
  vertex 565500.0 5991500.0 2889.89990234375
 endloop
endfacet
facet normal 0.013897719793021679 -0.010998272337019444 0.9998429417610168
 outer loop
  vertex 565500.0 5990500.0 2878.89990234375
  vertex 566500.0 5991500.0 2876.0
  vertex 565500.0 5991500.0 2889.89990234375
 endloop
endfacet
facet normal -0.026679007336497307 0.029576608911156654 0.9992064237594604
 outer loop
  vertex 565500.0 5990500.0 2878.89990234375
  vertex 566500.0 5990500.0 2905.60009765625
  vertex 566500.0 5991500.0 2876.0
 endloop
endfacet
facet normal -0.0340568944811821 0.03685341775417328 0.9987401962280273
 outer loop
  vertex 562500.0 5989500.0 2849.5
  vertex 563500.0 5990500.0 2846.699951171875
  vertex 562500.0 5990500.0 2812.60009765625
 endloop
endfacet
facet normal -0.009398788213729858 0.012198504991829395 0.9998814463615417
 outer loop
  vertex 562500.0 5989500.0 2849.5
  vertex 563500.0 5989500.0 2858.89990234375
  vertex 563500.0 5990500.0 2846.699951171875
 endloop
endfacet
facet normal 0.005899360869079828 0.01219883095473051 0.9999082088470459
 outer loop
  vertex 563500.0 5989500.0 2858.89990234375
  vertex 564500.0 5990500.0 2840.800048828125
  vertex 563500.0 5990500.0 2846.699951171875
 endloop
endfacet
facet normal -0.0005999926361255348 0.018696678802371025 0.9998250603675842
 outer loop
  vertex 563500.0 5989500.0 2858.89990234375
  vertex 564500.0 5989500.0 2859.5
  vertex 564500.0 5990500.0 2840.800048828125
 endloop
endfacet
facet normal -0.038065582513809204 0.01868313178420067 0.9991005659103394
 outer loop
  vertex 564500.0 5989500.0 2859.5
  vertex 565500.0 5990500.0 2878.89990234375
  vertex 564500.0 5990500.0 2840.800048828125
 endloop
endfacet
facet normal -0.019796166568994522 0.0004000680346507579 0.999803900718689
 outer loop
  vertex 564500.0 5989500.0 2859.5
  vertex 565500.0 5989500.0 2879.300048828125
  vertex 565500.0 5990500.0 2878.89990234375
 endloop
endfacet
facet normal -0.026690682396292686 0.0004000039189122617 0.9996436834335327
 outer loop
  vertex 565500.0 5989500.0 2879.300048828125
  vertex 566500.0 5990500.0 2905.60009765625
  vertex 565500.0 5990500.0 2878.89990234375
 endloop
endfacet
facet normal -0.019195929169654846 -0.007098610512912273 0.9997905492782593
 outer loop
  vertex 565500.0 5989500.0 2879.300048828125
  vertex 566500.0 5989500.0 2898.5
  vertex 566500.0 5990500.0 2905.60009765625
 endloop
endfacet
facet normal -0.018996093422174454 -0.007098637521266937 0.9997943639755249
 outer loop
  vertex 566500.0 5989500.0 2898.5
  vertex 567500.0 5990500.0 2924.60009765625
  vertex 566500.0 5990500.0 2905.60009765625
 endloop
endfacet
facet normal -0.022794000804424286 -0.0032991734333336353 0.9997347593307495
 outer loop
  vertex 566500.0 5989500.0 2898.5
  vertex 567500.0 5989500.0 2921.300048828125
  vertex 567500.0 5990500.0 2924.60009765625
 endloop
endfacet
facet normal -0.010499363765120506 -0.003299848875030875 0.9999394416809082
 outer loop
  vertex 567500.0 5989500.0 2921.300048828125
  vertex 568500.0 5990500.0 2935.10009765625
  vertex 567500.0 5990500.0 2924.60009765625
 endloop
endfacet
facet normal -0.0093994764611125 0.0014999320264905691 0.9999547004699707
 outer loop
  vertex 562500.0 5988500.0 2851.0
  vertex 563500.0 5989500.0 2858.89990234375
  vertex 562500.0 5989500.0 2849.5
 endloop
endfacet
facet normal -0.0006000815774314106 -0.007299609016627073 0.9999731779098511
 outer loop
  vertex 562500.0 5988500.0 2851.0
  vertex 563500.0 5988500.0 2851.60009765625
  vertex 563500.0 5989500.0 2858.89990234375
 endloop
endfacet
facet normal -0.0006000815774314106 -0.007299609016627073 0.9999731779098511
 outer loop
  vertex 563500.0 5988500.0 2851.60009765625
  vertex 564500.0 5989500.0 2859.5
  vertex 563500.0 5989500.0 2858.89990234375
 endloop
endfacet
facet normal -0.014698022976517677 0.006799156777560711 0.9998688101768494
 outer loop
  vertex 563500.0 5988500.0 2851.60009765625
  vertex 564500.0 5988500.0 2866.300048828125
  vertex 564500.0 5989500.0 2859.5
 endloop
endfacet
facet normal -0.01979571022093296 0.006798558868467808 0.9997808933258057
 outer loop
  vertex 564500.0 5988500.0 2866.300048828125
  vertex 565500.0 5989500.0 2879.300048828125
  vertex 564500.0 5989500.0 2859.5
 endloop
endfacet
facet normal -0.015298217535018921 0.002299773506820202 0.999880313873291
 outer loop
  vertex 564500.0 5988500.0 2866.300048828125
  vertex 565500.0 5988500.0 2881.60009765625
  vertex 565500.0 5989500.0 2879.300048828125
 endloop
endfacet
facet normal -0.019196363165974617 0.0022996189072728157 0.9998130798339844
 outer loop
  vertex 565500.0 5988500.0 2881.60009765625
  vertex 566500.0 5989500.0 2898.5
  vertex 565500.0 5989500.0 2879.300048828125
 endloop
endfacet
facet normal -0.013898763805627823 -0.0023996636737138033 0.9999005198478699
 outer loop
  vertex 561500.0 5987500.0 2834.699951171875
  vertex 562500.0 5987500.0 2848.60009765625
  vertex 562500.0 5988500.0 2851.0
 endloop
endfacet
facet normal -0.0006000958383083344 -0.0023998951073735952 0.9999969601631165
 outer loop
  vertex 562500.0 5987500.0 2848.60009765625
  vertex 563500.0 5988500.0 2851.60009765625
  vertex 562500.0 5988500.0 2851.0
 endloop
endfacet
facet normal -0.015297744423151016 0.008198716677725315 0.9998493790626526
 outer loop
  vertex 564500.0 5987500.0 2874.5
  vertex 565500.0 5988500.0 2881.60009765625
  vertex 564500.0 5988500.0 2866.300048828125
 endloop
endfacet
facet normal -0.013898561708629131 -0.005899230018258095 0.9998860359191895
 outer loop
  vertex 561500.0 5986500.0 2828.800048828125
  vertex 562500.0 5987500.0 2848.60009765625
  vertex 561500.0 5987500.0 2834.699951171875
 endloop
endfacet
endsolid
