solid
facet normal 0.0691952109336853 0.033201590180397034 -0.9970504641532898
 outer loop
  vertex 447500.0 5539500.0 3461.5
  vertex 448500.0 5539500.0 3530.89990234375
  vertex 448500.0 5538500.0 3497.60009765625
 endloop
endfacet
facet normal 0.030468950048089027 0.03326590359210968 -0.9989819526672363
 outer loop
  vertex 448500.0 5539500.0 3530.89990234375
  vertex 449500.0 5538500.0 3528.10009765625
  vertex 448500.0 5538500.0 3497.60009765625
 endloop
endfacet
facet normal 0.022087858989834785 0.02488611452281475 -0.9994462728500366
 outer loop
  vertex 448500.0 5539500.0 3530.89990234375
  vertex 449500.0 5539500.0 3553.0
  vertex 449500.0 5538500.0 3528.10009765625
 endloop
endfacet
facet normal 0.16122525930404663 0.3153432607650757 -0.9351818561553955
 outer loop
  vertex 450500.0 5539500.0 3638.800048828125
  vertex 451500.0 5539500.0 3811.199951171875
  vertex 451500.0 5538500.0 3474.0
 endloop
endfacet
facet normal 0.06621433049440384 0.0647207722067833 -0.9957042336463928
 outer loop
  vertex 446500.0 5540500.0 3460.0
  vertex 447500.0 5540500.0 3526.5
  vertex 447500.0 5539500.0 3461.5
 endloop
endfacet
facet normal 0.06908828020095825 0.06470813602209091 -0.9955097436904907
 outer loop
  vertex 447500.0 5540500.0 3526.5
  vertex 448500.0 5539500.0 3530.89990234375
  vertex 447500.0 5539500.0 3461.5
 endloop
endfacet
facet normal 0.0026999374385923147 -0.0016999425133690238 -0.9999949336051941
 outer loop
  vertex 447500.0 5540500.0 3526.5
  vertex 448500.0 5540500.0 3529.199951171875
  vertex 448500.0 5539500.0 3530.89990234375
 endloop
endfacet
facet normal 0.022094670683145523 -0.0016995337791740894 -0.9997544288635254
 outer loop
  vertex 448500.0 5540500.0 3529.199951171875
  vertex 449500.0 5539500.0 3553.0
  vertex 448500.0 5539500.0 3530.89990234375
 endloop
endfacet
facet normal 0.052704501897096634 0.02894752100110054 -0.9981904625892639
 outer loop
  vertex 448500.0 5540500.0 3529.199951171875
  vertex 449500.0 5540500.0 3582.0
  vertex 449500.0 5539500.0 3553.0
 endloop
endfacet
facet normal 0.08545030653476715 0.02888178825378418 -0.9959237575531006
 outer loop
  vertex 449500.0 5540500.0 3582.0
  vertex 450500.0 5539500.0 3638.800048828125
  vertex 449500.0 5539500.0 3553.0
 endloop
endfacet
facet normal 0.26624026894569397 0.21284173429012299 -0.9401141405105591
 outer loop
  vertex 449500.0 5540500.0 3582.0
  vertex 450500.0 5540500.0 3865.199951171875
  vertex 450500.0 5539500.0 3638.800048828125
 endloop
endfacet
facet normal 0.1658167690038681 0.2177547663450241 -0.9618147611618042
 outer loop
  vertex 450500.0 5540500.0 3865.199951171875
  vertex 451500.0 5539500.0 3811.199951171875
  vertex 450500.0 5539500.0 3638.800048828125
 endloop
endfacet
facet normal -0.06585200130939484 -0.011973090469837189 -0.9977575540542603
 outer loop
  vertex 450500.0 5540500.0 3865.199951171875
  vertex 451500.0 5540500.0 3799.199951171875
  vertex 451500.0 5539500.0 3811.199951171875
 endloop
endfacet
facet normal 0.060775745660066605 0.06037731468677521 -0.9963237047195435
 outer loop
  vertex 445500.0 5541500.0 3459.60009765625
  vertex 446500.0 5541500.0 3520.60009765625
  vertex 446500.0 5540500.0 3460.0
 endloop
endfacet
facet normal 0.06623248010873795 0.06035631150007248 -0.9959771037101746
 outer loop
  vertex 446500.0 5541500.0 3520.60009765625
  vertex 447500.0 5540500.0 3526.5
  vertex 446500.0 5540500.0 3460.0
 endloop
endfacet
facet normal 0.009599345736205578 0.003699755296111107 -0.9999470710754395
 outer loop
  vertex 446500.0 5541500.0 3520.60009765625
  vertex 447500.0 5541500.0 3530.199951171875
  vertex 447500.0 5540500.0 3526.5
 endloop
endfacet
facet normal 0.0026999227702617645 0.0036999122239649296 -0.9999895095825195
 outer loop
  vertex 447500.0 5541500.0 3530.199951171875
  vertex 448500.0 5540500.0 3529.199951171875
  vertex 447500.0 5540500.0 3526.5
 endloop
endfacet
facet normal 0.01759433001279831 0.018594002351164818 -0.9996722936630249
 outer loop
  vertex 447500.0 5541500.0 3530.199951171875
  vertex 448500.0 5541500.0 3547.800048828125
  vertex 448500.0 5540500.0 3529.199951171875
 endloop
endfacet
facet normal 0.05271751061081886 0.018571021035313606 -0.9984367489814758
 outer loop
  vertex 448500.0 5541500.0 3547.800048828125
  vertex 449500.0 5540500.0 3582.0
  vertex 448500.0 5540500.0 3529.199951171875
 endloop
endfacet
facet normal 0.22624880075454712 0.19360028207302094 -0.95463627576828
 outer loop
  vertex 448500.0 5541500.0 3547.800048828125
  vertex 449500.0 5541500.0 3784.800048828125
  vertex 449500.0 5540500.0 3582.0
 endloop
endfacet
facet normal 0.2674400210380554 0.19151434302330017 -0.9443506002426147
 outer loop
  vertex 449500.0 5541500.0 3784.800048828125
  vertex 450500.0 5540500.0 3865.199951171875
  vertex 449500.0 5540500.0 3582.0
 endloop
endfacet
facet normal 0.14961270987987518 0.0703190267086029 -0.9862409234046936
 outer loop
  vertex 449500.0 5541500.0 3784.800048828125
  vertex 450500.0 5541500.0 3936.5
  vertex 450500.0 5540500.0 3865.199951171875
 endloop
endfacet
facet normal -0.06569068133831024 0.07096588611602783 -0.9953133463859558
 outer loop
  vertex 450500.0 5541500.0 3936.5
  vertex 451500.0 5540500.0 3799.199951171875
  vertex 450500.0 5540500.0 3865.199951171875
 endloop
endfacet
facet normal -0.01876549981534481 0.11755815893411636 -0.9928886890411377
 outer loop
  vertex 450500.0 5541500.0 3936.5
  vertex 451500.0 5541500.0 3917.60009765625
  vertex 451500.0 5540500.0 3799.199951171875
 endloop
endfacet
facet normal 0.04688127711415291 0.05336485803127289 -0.997473955154419
 outer loop
  vertex 444500.0 5542500.0 3466.10009765625
  vertex 445500.0 5542500.0 3513.10009765625
  vertex 445500.0 5541500.0 3459.60009765625
 endloop
endfacet
facet normal 0.06080019846558571 0.05332476645708084 -0.9967246055603027
 outer loop
  vertex 445500.0 5542500.0 3513.10009765625
  vertex 446500.0 5541500.0 3520.60009765625
  vertex 445500.0 5541500.0 3459.60009765625
 endloop
endfacet
facet normal 0.06396573781967163 0.05649309977889061 -0.9963517785072327
 outer loop
  vertex 445500.0 5542500.0 3513.10009765625
  vertex 446500.0 5542500.0 3577.300048828125
  vertex 446500.0 5541500.0 3520.60009765625
 endloop
endfacet
facet normal 0.009584021754562855 0.05660643056035042 -0.9983506202697754
 outer loop
  vertex 446500.0 5542500.0 3577.300048828125
  vertex 447500.0 5541500.0 3530.199951171875
  vertex 446500.0 5541500.0 3520.60009765625
 endloop
endfacet
facet normal 0.22026534378528595 0.26448753476142883 -0.9388980269432068
 outer loop
  vertex 446500.0 5542500.0 3577.300048828125
  vertex 447500.0 5542500.0 3811.89990234375
  vertex 447500.0 5541500.0 3530.199951171875
 endloop
endfacet
facet normal 0.016938328742980957 0.2711079716682434 -0.9623998999595642
 outer loop
  vertex 447500.0 5542500.0 3811.89990234375
  vertex 448500.0 5541500.0 3547.800048828125
  vertex 447500.0 5541500.0 3530.199951171875
 endloop
endfacet
facet normal 0.09820865094661713 0.344756543636322 -0.9335405230522156
 outer loop
  vertex 447500.0 5542500.0 3811.89990234375
  vertex 448500.0 5542500.0 3917.10009765625
  vertex 448500.0 5541500.0 3547.800048828125
 endloop
endfacet
facet normal 0.2170250117778778 0.338174432516098 -0.9157172441482544
 outer loop
  vertex 448500.0 5542500.0 3917.10009765625
  vertex 449500.0 5541500.0 3784.800048828125
  vertex 448500.0 5541500.0 3547.800048828125
 endloop
endfacet
facet normal 0.06873700767755508 0.19809594750404358 -0.9777694940567017
 outer loop
  vertex 448500.0 5542500.0 3917.10009765625
  vertex 449500.0 5542500.0 3987.39990234375
  vertex 449500.0 5541500.0 3784.800048828125
 endloop
endfacet
facet normal 0.14706267416477203 0.19640664756298065 -0.9694312810897827
 outer loop
  vertex 449500.0 5542500.0 3987.39990234375
  vertex 450500.0 5541500.0 3936.5
  vertex 449500.0 5541500.0 3784.800048828125
 endloop
endfacet
facet normal 0.02492055855691433 0.07565872371196747 -0.9968222975730896
 outer loop
  vertex 449500.0 5542500.0 3987.39990234375
  vertex 450500.0 5542500.0 4012.39990234375
  vertex 450500.0 5541500.0 3936.5
 endloop
endfacet
facet normal -0.01884234882891178 0.07566878944635391 -0.9969549775123596
 outer loop
  vertex 450500.0 5542500.0 4012.39990234375
  vertex 451500.0 5541500.0 3917.60009765625
  vertex 450500.0 5541500.0 3936.5
 endloop
endfacet
facet normal -0.013653845526278019 0.08082691580057144 -0.9966346025466919
 outer loop
  vertex 450500.0 5542500.0 4012.39990234375
  vertex 451500.0 5542500.0 3998.699951171875
  vertex 451500.0 5541500.0 3917.60009765625
 endloop
endfacet
facet normal 9.943023906089365e-05 0.11561927944421768 -0.9932935833930969
 outer loop
  vertex 440500.0 5543500.0 3573.39990234375
  vertex 441500.0 5542500.0 3457.10009765625
  vertex 440500.0 5542500.0 3457.0
 endloop
endfacet
facet normal -0.02249559760093689 0.09326770156621933 -0.9953868985176086
 outer loop
  vertex 440500.0 5543500.0 3573.39990234375
  vertex 441500.0 5543500.0 3550.800048828125
  vertex 441500.0 5542500.0 3457.10009765625
 endloop
endfacet
facet normal 0.006371865980327129 0.09328942000865936 -0.9956186413764954
 outer loop
  vertex 441500.0 5543500.0 3550.800048828125
  vertex 442500.0 5542500.0 3463.5
  vertex 441500.0 5542500.0 3457.10009765625
 endloop
endfacet
facet normal -0.014659787528216839 0.0724017322063446 -0.9972677826881409
 outer loop
  vertex 441500.0 5543500.0 3550.800048828125
  vertex 442500.0 5543500.0 3536.10009765625
  vertex 442500.0 5542500.0 3463.5
 endloop
endfacet
facet normal 0.0014960607513785362 0.07240943610668182 -0.9973738789558411
 outer loop
  vertex 442500.0 5543500.0 3536.10009765625
  vertex 443500.0 5542500.0 3465.0
  vertex 442500.0 5542500.0 3463.5
 endloop
endfacet
facet normal 0.01872101053595543 0.08952311426401138 -0.9958088397979736
 outer loop
  vertex 442500.0 5543500.0 3536.10009765625
  vertex 443500.0 5543500.0 3554.89990234375
  vertex 443500.0 5542500.0 3465.0
 endloop
endfacet
facet normal 0.0010956821497529745 0.08953876048326492 -0.9959827661514282
 outer loop
  vertex 443500.0 5543500.0 3554.89990234375
  vertex 444500.0 5542500.0 3466.10009765625
  vertex 443500.0 5542500.0 3465.0
 endloop
endfacet
facet normal 0.023545097559690475 0.11176378279924393 -0.9934558868408203
 outer loop
  vertex 443500.0 5543500.0 3554.89990234375
  vertex 444500.0 5543500.0 3578.60009765625
  vertex 444500.0 5542500.0 3466.10009765625
 endloop
endfacet
facet normal 0.04665451496839523 0.11167304217815399 -0.992649257183075
 outer loop
  vertex 444500.0 5543500.0 3578.60009765625
  vertex 445500.0 5542500.0 3513.10009765625
  vertex 444500.0 5542500.0 3466.10009765625
 endloop
endfacet
facet normal 0.03668324276804924 0.1017986610531807 -0.994128406047821
 outer loop
  vertex 444500.0 5543500.0 3578.60009765625
  vertex 445500.0 5543500.0 3615.5
  vertex 445500.0 5542500.0 3513.10009765625
 endloop
endfacet
facet normal 0.06373613327741623 0.1016601100564003 -0.9927753806114197
 outer loop
  vertex 445500.0 5543500.0 3615.5
  vertex 446500.0 5542500.0 3577.300048828125
  vertex 445500.0 5542500.0 3513.10009765625
 endloop
endfacet
facet normal 0.24783305823802948 0.283224493265152 -0.9264786839485168
 outer loop
  vertex 445500.0 5543500.0 3615.5
  vertex 446500.0 5543500.0 3883.0
  vertex 446500.0 5542500.0 3577.300048828125
 endloop
endfacet
facet normal 0.21890929341316223 0.2852540612220764 -0.9331178665161133
 outer loop
  vertex 446500.0 5543500.0 3883.0
  vertex 447500.0 5542500.0 3811.89990234375
  vertex 446500.0 5542500.0 3577.300048828125
 endloop
endfacet
facet normal -0.22573497891426086 -0.1573798954486847 -0.9613924026489258
 outer loop
  vertex 446500.0 5543500.0 3883.0
  vertex 447500.0 5543500.0 3648.199951171875
  vertex 447500.0 5542500.0 3811.89990234375
 endloop
endfacet
facet normal 0.10326334834098816 -0.16068606078624725 -0.9815889000892639
 outer loop
  vertex 447500.0 5543500.0 3648.199951171875
  vertex 448500.0 5542500.0 3917.10009765625
  vertex 447500.0 5542500.0 3811.89990234375
 endloop
endfacet
facet normal 0.3670806884765625 0.11900827288627625 -0.9225447773933411
 outer loop
  vertex 447500.0 5543500.0 3648.199951171875
  vertex 448500.0 5543500.0 4046.10009765625
  vertex 448500.0 5542500.0 3917.10009765625
 endloop
endfacet
facet normal 0.06955322623252869 0.12763002514839172 -0.9893800616264343
 outer loop
  vertex 448500.0 5543500.0 4046.10009765625
  vertex 449500.0 5542500.0 3987.39990234375
  vertex 448500.0 5542500.0 3917.10009765625
 endloop
endfacet
facet normal -0.007290231063961983 0.05133102089166641 -0.9986551403999329
 outer loop
  vertex 448500.0 5543500.0 4046.10009765625
  vertex 449500.0 5543500.0 4038.800048828125
  vertex 449500.0 5542500.0 3987.39990234375
 endloop
endfacet
facet normal 0.024959266185760498 0.05131639540195465 -0.9983705282211304
 outer loop
  vertex 449500.0 5543500.0 4038.800048828125
  vertex 450500.0 5542500.0 4012.39990234375
  vertex 449500.0 5542500.0 3987.39990234375
 endloop
endfacet
facet normal -0.0069985114969313145 0.019396021962165833 -0.9997873306274414
 outer loop
  vertex 449500.0 5543500.0 4038.800048828125
  vertex 450500.0 5543500.0 4031.800048828125
  vertex 450500.0 5542500.0 4012.39990234375
 endloop
endfacet
facet normal -0.013696088455617428 0.019394677132368088 -0.9997180700302124
 outer loop
  vertex 450500.0 5543500.0 4031.800048828125
  vertex 451500.0 5542500.0 3998.699951171875
  vertex 450500.0 5542500.0 4012.39990234375
 endloop
endfacet
facet normal -0.011296643875539303 0.021793479099869728 -0.9996986389160156
 outer loop
  vertex 450500.0 5543500.0 4031.800048828125
  vertex 451500.0 5543500.0 4020.5
  vertex 451500.0 5542500.0 3998.699951171875
 endloop
endfacet
facet normal -0.024886280298233032 0.02178812026977539 -0.9994528889656067
 outer loop
  vertex 451500.0 5543500.0 4020.5
  vertex 452500.0 5542500.0 3973.800048828125
  vertex 451500.0 5542500.0 3998.699951171875
 endloop
endfacet
facet normal 0.010582146234810352 0.0572030134499073 -0.9983065128326416
 outer loop
  vertex 451500.0 5543500.0 4020.5
  vertex 452500.0 5543500.0 4031.10009765625
  vertex 452500.0 5542500.0 3973.800048828125
 endloop
endfacet
facet normal 0.01307728048413992 0.0572013184428215 -0.998276948928833
 outer loop
  vertex 452500.0 5543500.0 4031.10009765625
  vertex 453500.0 5542500.0 3986.89990234375
  vertex 452500.0 5542500.0 3973.800048828125
 endloop
endfacet
facet normal -0.13056397438049316 -0.08691082894802094 -0.9876231551170349
 outer loop
  vertex 452500.0 5543500.0 4031.10009765625
  vertex 453500.0 5543500.0 3898.89990234375
  vertex 453500.0 5542500.0 3986.89990234375
 endloop
endfacet
facet normal -0.33769065141677856 0.17854933440685272 -0.9241673350334167
 outer loop
  vertex 439500.0 5544500.0 4132.0
  vertex 440500.0 5544500.0 3766.60009765625
  vertex 440500.0 5543500.0 3573.39990234375
 endloop
endfacet
facet normal -0.022184066474437714 0.1896456778049469 -0.9816019535064697
 outer loop
  vertex 440500.0 5544500.0 3766.60009765625
  vertex 441500.0 5543500.0 3550.800048828125
  vertex 440500.0 5543500.0 3573.39990234375
 endloop
endfacet
facet normal 0.2420835644006729 0.42980071902275085 -0.8698660731315613
 outer loop
  vertex 440500.0 5544500.0 3766.60009765625
  vertex 441500.0 5544500.0 4044.89990234375
  vertex 441500.0 5543500.0 3550.800048828125
 endloop
endfacet
facet normal -0.013177863322198391 0.44293835759162903 -0.8964551687240601
 outer loop
  vertex 441500.0 5544500.0 4044.89990234375
  vertex 442500.0 5543500.0 3536.10009765625
  vertex 441500.0 5543500.0 3550.800048828125
 endloop
endfacet
facet normal -0.19811560213565826 0.2798418402671814 -0.9393821358680725
 outer loop
  vertex 441500.0 5544500.0 4044.89990234375
  vertex 442500.0 5544500.0 3834.0
  vertex 442500.0 5543500.0 3536.10009765625
 endloop
endfacet
facet normal 0.018014412373304367 0.28545454144477844 -0.9582229852676392
 outer loop
  vertex 442500.0 5544500.0 3834.0
  vertex 443500.0 5543500.0 3554.89990234375
  vertex 442500.0 5543500.0 3536.10009765625
 endloop
endfacet
facet normal 0.13282723724842072 0.3874431252479553 -0.9122744202613831
 outer loop
  vertex 442500.0 5544500.0 3834.0
  vertex 443500.0 5544500.0 3979.60009765625
  vertex 443500.0 5543500.0 3554.89990234375
 endloop
endfacet
facet normal 0.021809179335832596 0.3908138871192932 -0.9202112555503845
 outer loop
  vertex 443500.0 5544500.0 3979.60009765625
  vertex 444500.0 5543500.0 3578.60009765625
  vertex 443500.0 5543500.0 3554.89990234375
 endloop
endfacet
facet normal -0.25369468331336975 0.13063283264636993 -0.9584227204322815
 outer loop
  vertex 443500.0 5544500.0 3979.60009765625
  vertex 444500.0 5544500.0 3714.89990234375
  vertex 444500.0 5543500.0 3578.60009765625
 endloop
endfacet
facet normal 0.03653743863105774 0.13496093451976776 -0.9901770353317261
 outer loop
  vertex 444500.0 5544500.0 3714.89990234375
  vertex 445500.0 5543500.0 3615.5
  vertex 444500.0 5543500.0 3578.60009765625
 endloop
endfacet
facet normal 0.2257521152496338 0.3173055052757263 -0.9210609197616577
 outer loop
  vertex 444500.0 5544500.0 3714.89990234375
  vertex 445500.0 5544500.0 3960.0
  vertex 445500.0 5543500.0 3615.5
 endloop
endfacet
facet normal 0.2451924830675125 0.3157712519168854 -0.9166073799133301
 outer loop
  vertex 445500.0 5544500.0 3960.0
  vertex 446500.0 5543500.0 3883.0
  vertex 445500.0 5543500.0 3615.5
 endloop
endfacet
facet normal -0.22390609979629517 -0.14975225925445557 -0.9630370140075684
 outer loop
  vertex 445500.0 5544500.0 3960.0
  vertex 446500.0 5544500.0 3727.5
  vertex 446500.0 5543500.0 3883.0
 endloop
endfacet
facet normal -0.22600851953029633 -0.14967766404151917 -0.9625573754310608
 outer loop
  vertex 446500.0 5544500.0 3727.5
  vertex 447500.0 5543500.0 3648.199951171875
  vertex 446500.0 5543500.0 3883.0
 endloop
endfacet
facet normal 0.038010433316230774 0.1167108342051506 -0.9924383163452148
 outer loop
  vertex 446500.0 5544500.0 3727.5
  vertex 447500.0 5544500.0 3765.800048828125
  vertex 447500.0 5543500.0 3648.199951171875
 endloop
endfacet
facet normal 0.36752063035964966 0.10862136632204056 -0.9236503839492798
 outer loop
  vertex 447500.0 5544500.0 3765.800048828125
  vertex 448500.0 5543500.0 4046.10009765625
  vertex 447500.0 5543500.0 3648.199951171875
 endloop
endfacet
facet normal 0.34435316920280457 0.08220697194337845 -0.9352341890335083
 outer loop
  vertex 447500.0 5544500.0 3765.800048828125
  vertex 448500.0 5544500.0 4134.0
  vertex 448500.0 5543500.0 4046.10009765625
 endloop
endfacet
facet normal -0.0072718155570328236 0.08755996823310852 -0.9961326718330383
 outer loop
  vertex 448500.0 5544500.0 4134.0
  vertex 449500.0 5543500.0 4038.800048828125
  vertex 448500.0 5543500.0 4046.10009765625
 endloop
endfacet
facet normal -0.04290200024843216 0.05208098515868187 -0.9977208971977234
 outer loop
  vertex 448500.0 5544500.0 4134.0
  vertex 449500.0 5544500.0 4091.0
  vertex 449500.0 5543500.0 4038.800048828125
 endloop
endfacet
facet normal -0.0069903116673231125 0.05212770774960518 -0.9986159801483154
 outer loop
  vertex 449500.0 5544500.0 4091.0
  vertex 450500.0 5543500.0 4031.800048828125
  vertex 449500.0 5543500.0 4038.800048828125
 endloop
endfacet
facet normal 0.08209124207496643 0.14050213992595673 -0.9866712689399719
 outer loop
  vertex 449500.0 5544500.0 4091.0
  vertex 450500.0 5544500.0 4174.2001953125
  vertex 450500.0 5543500.0 4031.800048828125
 endloop
endfacet
facet normal -0.011186490766704082 0.1409691423177719 -0.9899508357048035
 outer loop
  vertex 450500.0 5544500.0 4174.2001953125
  vertex 451500.0 5543500.0 4020.5
  vertex 450500.0 5543500.0 4031.800048828125
 endloop
endfacet
facet normal -0.10005445033311844 0.052660126239061356 -0.9935874342918396
 outer loop
  vertex 450500.0 5544500.0 4174.2001953125
  vertex 451500.0 5544500.0 4073.5
  vertex 451500.0 5543500.0 4020.5
 endloop
endfacet
facet normal 0.01058464776724577 0.052922751754522324 -0.9985424876213074
 outer loop
  vertex 451500.0 5544500.0 4073.5
  vertex 452500.0 5543500.0 4031.10009765625
  vertex 451500.0 5543500.0 4020.5
 endloop
endfacet
facet normal -0.04674842953681946 -0.004395291209220886 -0.9988970160484314
 outer loop
  vertex 451500.0 5544500.0 4073.5
  vertex 452500.0 5544500.0 4026.699951171875
  vertex 452500.0 5543500.0 4031.10009765625
 endloop
endfacet
facet normal -0.13105864822864532 -0.004362151492387056 -0.9913650155067444
 outer loop
  vertex 452500.0 5544500.0 4026.699951171875
  vertex 453500.0 5543500.0 3898.89990234375
  vertex 452500.0 5543500.0 4031.10009765625
 endloop
endfacet
facet normal 0.0158351082354784 0.14231808483600616 -0.9896942973136902
 outer loop
  vertex 452500.0 5544500.0 4026.699951171875
  vertex 453500.0 5544500.0 4042.699951171875
  vertex 453500.0 5543500.0 3898.89990234375
 endloop
endfacet
facet normal 0.25952765345573425 0.1374588906764984 -0.9559029340744019
 outer loop
  vertex 453500.0 5544500.0 4042.699951171875
  vertex 454500.0 5543500.0 4170.39990234375
  vertex 453500.0 5543500.0 3898.89990234375
 endloop
endfacet
facet normal 0.35770896077156067 0.5854876637458801 -0.7274947166442871
 outer loop
  vertex 438500.0 5545500.0 4445.10009765625
  vertex 439500.0 5545500.0 4936.7998046875
  vertex 439500.0 5544500.0 4132.0
 endloop
endfacet
facet normal -0.2737850248813629 0.6030163764953613 -0.7492749691009521
 outer loop
  vertex 439500.0 5545500.0 4936.7998046875
  vertex 440500.0 5544500.0 3766.60009765625
  vertex 439500.0 5544500.0 4132.0
 endloop
endfacet
facet normal -0.34911999106407166 0.5438638925552368 -0.7631037831306458
 outer loop
  vertex 439500.0 5545500.0 4936.7998046875
  vertex 440500.0 5545500.0 4479.2998046875
  vertex 440500.0 5544500.0 3766.60009765625
 endloop
endfacet
facet normal 0.22102661430835724 0.5660284757614136 -0.7942033410072327
 outer loop
  vertex 440500.0 5545500.0 4479.2998046875
  vertex 441500.0 5544500.0 4044.89990234375
  vertex 440500.0 5544500.0 3766.60009765625
 endloop
endfacet
facet normal 0.19054311513900757 0.5451779961585999 -0.8163787722587585
 outer loop
  vertex 440500.0 5545500.0 4479.2998046875
  vertex 441500.0 5545500.0 4712.7001953125
  vertex 441500.0 5544500.0 4044.89990234375
 endloop
endfacet
facet normal -0.17275063693523407 0.5470033288002014 -0.8191121220588684
 outer loop
  vertex 441500.0 5545500.0 4712.7001953125
  vertex 442500.0 5544500.0 3834.0
  vertex 441500.0 5544500.0 4044.89990234375
 endloop
endfacet
facet normal -0.34829482436180115 0.39761433005332947 -0.8488779067993164
 outer loop
  vertex 441500.0 5545500.0 4712.7001953125
  vertex 442500.0 5545500.0 4302.39990234375
  vertex 442500.0 5544500.0 3834.0
 endloop
endfacet
facet normal 0.13072124123573303 0.4205341935157776 -0.8978101015090942
 outer loop
  vertex 442500.0 5545500.0 4302.39990234375
  vertex 443500.0 5544500.0 3979.60009765625
  vertex 442500.0 5544500.0 3834.0
 endloop
endfacet
facet normal -0.33892273902893066 -0.03544368967413902 -0.940146267414093
 outer loop
  vertex 442500.0 5545500.0 4302.39990234375
  vertex 443500.0 5545500.0 3941.89990234375
  vertex 443500.0 5544500.0 3979.60009765625
 endloop
endfacet
facet normal -0.2557176351547241 -0.03642084822058678 -0.9660652279853821
 outer loop
  vertex 443500.0 5545500.0 3941.89990234375
  vertex 444500.0 5544500.0 3714.89990234375
  vertex 443500.0 5544500.0 3979.60009765625
 endloop
endfacet
facet normal 0.12037594616413116 0.3326936960220337 -0.9353206157684326
 outer loop
  vertex 443500.0 5545500.0 3941.89990234375
  vertex 444500.0 5545500.0 4070.60009765625
  vertex 444500.0 5544500.0 3714.89990234375
 endloop
endfacet
facet normal 0.2250048816204071 0.3265371024608612 -0.9180122017860413
 outer loop
  vertex 444500.0 5545500.0 4070.60009765625
  vertex 445500.0 5544500.0 3960.0
  vertex 444500.0 5544500.0 3714.89990234375
 endloop
endfacet
facet normal -0.1964738816022873 -0.08847184479236603 -0.9765094518661499
 outer loop
  vertex 444500.0 5545500.0 4070.60009765625
  vertex 445500.0 5545500.0 3869.39990234375
  vertex 445500.0 5544500.0 3960.0
 endloop
endfacet
facet normal -0.22558312118053436 -0.08790473639965057 -0.9702499508857727
 outer loop
  vertex 445500.0 5545500.0 3869.39990234375
  vertex 446500.0 5544500.0 3727.5
  vertex 445500.0 5544500.0 3960.0
 endloop
endfacet
facet normal 0.05291847512125969 0.1919763833284378 -0.9799717664718628
 outer loop
  vertex 445500.0 5545500.0 3869.39990234375
  vertex 446500.0 5545500.0 3923.39990234375
  vertex 446500.0 5544500.0 3727.5
 endloop
endfacet
facet normal 0.037559110671281815 0.1921101063489914 -0.9806543588638306
 outer loop
  vertex 446500.0 5545500.0 3923.39990234375
  vertex 447500.0 5544500.0 3765.800048828125
  vertex 446500.0 5544500.0 3727.5
 endloop
endfacet
facet normal 0.3242163360118866 0.45493125915527344 -0.8294101357460022
 outer loop
  vertex 446500.0 5545500.0 3923.39990234375
  vertex 447500.0 5545500.0 4314.2998046875
  vertex 447500.0 5544500.0 3765.800048828125
 endloop
endfacet
facet normal 0.3072150647640228 0.45765185356140137 -0.8343701958656311
 outer loop
  vertex 447500.0 5545500.0 4314.2998046875
  vertex 448500.0 5544500.0 4134.0
  vertex 447500.0 5544500.0 3765.800048828125
 endloop
endfacet
facet normal -0.006206430960446596 0.17142102122306824 -0.9851782917976379
 outer loop
  vertex 447500.0 5545500.0 4314.2998046875
  vertex 448500.0 5545500.0 4308.0
  vertex 448500.0 5544500.0 4134.0
 endloop
endfacet
facet normal -0.042325519025325775 0.1712706983089447 -0.9843143820762634
 outer loop
  vertex 448500.0 5545500.0 4308.0
  vertex 449500.0 5544500.0 4091.0
  vertex 448500.0 5544500.0 4134.0
 endloop
endfacet
facet normal -0.0954693853855133 0.11899061501026154 -0.9882949590682983
 outer loop
  vertex 448500.0 5545500.0 4308.0
  vertex 449500.0 5545500.0 4211.39990234375
  vertex 449500.0 5544500.0 4091.0
 endloop
endfacet
facet normal 0.08232326060533524 0.11913087218999863 -0.9894598126411438
 outer loop
  vertex 449500.0 5545500.0 4211.39990234375
  vertex 450500.0 5544500.0 4174.2001953125
  vertex 449500.0 5544500.0 4091.0
 endloop
endfacet
facet normal 0.1556280553340912 0.1916760802268982 -0.9690408706665039
 outer loop
  vertex 449500.0 5545500.0 4211.39990234375
  vertex 450500.0 5545500.0 4372.0
  vertex 450500.0 5544500.0 4174.2001953125
 endloop
endfacet
facet normal -0.09830772131681442 0.19310042262077332 -0.9762417078018188
 outer loop
  vertex 450500.0 5545500.0 4372.0
  vertex 451500.0 5544500.0 4073.5
  vertex 450500.0 5544500.0 4174.2001953125
 endloop
endfacet
facet normal -0.09653383493423462 0.19482487440109253 -0.976076066493988
 outer loop
  vertex 450500.0 5545500.0 4372.0
  vertex 451500.0 5545500.0 4273.10009765625
  vertex 451500.0 5544500.0 4073.5
 endloop
endfacet
facet normal -0.04584648832678795 0.19553321599960327 -0.97962486743927
 outer loop
  vertex 451500.0 5545500.0 4273.10009765625
  vertex 452500.0 5544500.0 4026.699951171875
  vertex 451500.0 5544500.0 4073.5
 endloop
endfacet
facet normal 0.08636116236448288 0.3189229369163513 -0.9438378810882568
 outer loop
  vertex 451500.0 5545500.0 4273.10009765625
  vertex 452500.0 5545500.0 4364.60009765625
  vertex 452500.0 5544500.0 4026.699951171875
 endloop
endfacet
facet normal 0.015156296081840992 0.3200821876525879 -0.947268545627594
 outer loop
  vertex 452500.0 5545500.0 4364.60009765625
  vertex 453500.0 5544500.0 4042.699951171875
  vertex 452500.0 5544500.0 4026.699951171875
 endloop
endfacet
facet normal -0.0015165938530117273 0.6519076228141785 -0.7582969069480896
 outer loop
  vertex 437500.0 5546500.0 5306.7998046875
  vertex 438500.0 5546500.0 5304.7998046875
  vertex 438500.0 5545500.0 4445.10009765625
 endloop
endfacet
facet normal 0.3493605852127075 0.610830545425415 -0.7105161547660828
 outer loop
  vertex 438500.0 5546500.0 5304.7998046875
  vertex 439500.0 5545500.0 4936.7998046875
  vertex 438500.0 5545500.0 4445.10009765625
 endloop
endfacet
facet normal -0.3696446120738983 -0.027862658724188805 -0.9287552833557129
 outer loop
  vertex 438500.0 5546500.0 5304.7998046875
  vertex 439500.0 5546500.0 4906.7998046875
  vertex 439500.0 5545500.0 4936.7998046875
 endloop
endfacet
facet normal -0.415873646736145 -0.027270402759313583 -0.9090134501457214
 outer loop
  vertex 439500.0 5546500.0 4906.7998046875
  vertex 440500.0 5545500.0 4479.2998046875
  vertex 439500.0 5545500.0 4936.7998046875
 endloop
endfacet
facet normal 0.21145543456077576 0.5553012490272522 -0.8043177127838135
 outer loop
  vertex 439500.0 5546500.0 4906.7998046875
  vertex 440500.0 5546500.0 5169.7001953125
  vertex 440500.0 5545500.0 4479.2998046875
 endloop
endfacet
facet normal 0.18862347304821014 0.5579499006271362 -0.8081541061401367
 outer loop
  vertex 440500.0 5546500.0 5169.7001953125
  vertex 441500.0 5545500.0 4712.7001953125
  vertex 440500.0 5545500.0 4479.2998046875
 endloop
endfacet
facet normal -0.5664421319961548 -0.20122776925563812 -0.7991561889648438
 outer loop
  vertex 440500.0 5546500.0 5169.7001953125
  vertex 441500.0 5546500.0 4460.89990234375
  vertex 441500.0 5545500.0 4712.7001953125
 endloop
endfacet
facet normal -0.36969247460365295 -0.22687935829162598 -0.9010289311408997
 outer loop
  vertex 441500.0 5546500.0 4460.89990234375
  vertex 442500.0 5545500.0 4302.39990234375
  vertex 441500.0 5545500.0 4712.7001953125
 endloop
endfacet
facet normal -0.07134915143251419 0.08615602552890778 -0.9937235116958618
 outer loop
  vertex 441500.0 5546500.0 4460.89990234375
  vertex 442500.0 5546500.0 4389.10009765625
  vertex 442500.0 5545500.0 4302.39990234375
 endloop
endfacet
facet normal -0.3380134105682373 0.08129217475652695 -0.9376238584518433
 outer loop
  vertex 442500.0 5546500.0 4389.10009765625
  vertex 443500.0 5545500.0 3941.89990234375
  vertex 442500.0 5545500.0 4302.39990234375
 endloop
endfacet
facet normal -0.08368614315986633 0.3358696699142456 -0.9381834268569946
 outer loop
  vertex 442500.0 5546500.0 4389.10009765625
  vertex 443500.0 5546500.0 4299.89990234375
  vertex 443500.0 5545500.0 3941.89990234375
 endloop
endfacet
facet normal 0.12028960138559341 0.3346046209335327 -0.9346497654914856
 outer loop
  vertex 443500.0 5546500.0 4299.89990234375
  vertex 444500.0 5545500.0 4070.60009765625
  vertex 443500.0 5545500.0 3941.89990234375
 endloop
endfacet
facet normal -0.26170894503593445 -0.04059681296348572 -0.9642926454544067
 outer loop
  vertex 443500.0 5546500.0 4299.89990234375
  vertex 444500.0 5546500.0 4028.5
  vertex 444500.0 5545500.0 4070.60009765625
 endloop
endfacet
facet normal -0.19707956910133362 -0.041237879544496536 -0.9795198440551758
 outer loop
  vertex 444500.0 5546500.0 4028.5
  vertex 445500.0 5545500.0 3869.39990234375
  vertex 444500.0 5545500.0 4070.60009765625
 endloop
endfacet
facet normal -0.27930784225463867 -0.12790101766586304 -0.9516451358795166
 outer loop
  vertex 444500.0 5546500.0 4028.5
  vertex 445500.0 5546500.0 3735.0
  vertex 445500.0 5545500.0 3869.39990234375
 endloop
endfacet
facet normal 0.05344231799244881 -0.13301190733909607 -0.9896726012229919
 outer loop
  vertex 445500.0 5546500.0 3735.0
  vertex 446500.0 5545500.0 3923.39990234375
  vertex 445500.0 5545500.0 3869.39990234375
 endloop
endfacet
facet normal 0.3954952657222748 0.22786585986614227 -0.8897531628608704
 outer loop
  vertex 445500.0 5546500.0 3735.0
  vertex 446500.0 5546500.0 4179.5
  vertex 446500.0 5545500.0 3923.39990234375
 endloop
endfacet
facet normal 0.3541378974914551 0.23201528191566467 -0.9059554934501648
 outer loop
  vertex 446500.0 5546500.0 4179.5
  vertex 447500.0 5545500.0 4314.2998046875
  vertex 446500.0 5545500.0 3923.39990234375
 endloop
endfacet
facet normal 0.3639964163303375 0.2427842766046524 -0.8992010354995728
 outer loop
  vertex 446500.0 5546500.0 4179.5
  vertex 447500.0 5546500.0 4584.2998046875
  vertex 447500.0 5545500.0 4314.2998046875
 endloop
endfacet
facet normal -0.0060819098725914955 0.2606610357761383 -0.9654112458229065
 outer loop
  vertex 447500.0 5546500.0 4584.2998046875
  vertex 448500.0 5545500.0 4308.0
  vertex 447500.0 5545500.0 4314.2998046875
 endloop
endfacet
facet normal -0.27814698219299316 -0.012773851864039898 -0.9604535698890686
 outer loop
  vertex 447500.0 5546500.0 4584.2998046875
  vertex 448500.0 5546500.0 4294.7001953125
  vertex 448500.0 5545500.0 4308.0
 endloop
endfacet
facet normal -0.09614408761262894 -0.01323702186346054 -0.9952793717384338
 outer loop
  vertex 448500.0 5546500.0 4294.7001953125
  vertex 449500.0 5545500.0 4211.39990234375
  vertex 448500.0 5545500.0 4308.0
 endloop
endfacet
facet normal -0.0227527879178524 0.060373950749635696 -0.9979164600372314
 outer loop
  vertex 448500.0 5546500.0 4294.7001953125
  vertex 449500.0 5546500.0 4271.89990234375
  vertex 449500.0 5545500.0 4211.39990234375
 endloop
endfacet
facet normal 0.15828603506088257 0.05962826684117317 -0.9855912327766418
 outer loop
  vertex 449500.0 5546500.0 4271.89990234375
  vertex 450500.0 5545500.0 4372.0
  vertex 449500.0 5545500.0 4211.39990234375
 endloop
endfacet
facet normal -0.030426323413848877 -0.1296350061893463 -0.9910948872566223
 outer loop
  vertex 449500.0 5546500.0 4271.89990234375
  vertex 450500.0 5546500.0 4241.2001953125
  vertex 450500.0 5545500.0 4372.0
 endloop
endfacet
facet normal -0.0975964367389679 -0.12907591462135315 -0.9868203401565552
 outer loop
  vertex 450500.0 5546500.0 4241.2001953125
  vertex 451500.0 5545500.0 4273.10009765625
  vertex 450500.0 5545500.0 4372.0
 endloop
endfacet
facet normal 0.3779601454734802 0.3506264388561249 -0.8568589091300964
 outer loop
  vertex 450500.0 5546500.0 4241.2001953125
  vertex 451500.0 5546500.0 4682.2998046875
  vertex 451500.0 5545500.0 4273.10009765625
 endloop
endfacet
facet normal 0.08438228815793991 0.37736842036247253 -0.9222108125686646
 outer loop
  vertex 451500.0 5546500.0 4682.2998046875
  vertex 452500.0 5545500.0 4364.60009765625
  vertex 451500.0 5545500.0 4273.10009765625
 endloop
endfacet
facet normal -0.1482972353696823 0.1616632342338562 -0.9756397604942322
 outer loop
  vertex 451500.0 5546500.0 4682.2998046875
  vertex 452500.0 5546500.0 4530.2998046875
  vertex 452500.0 5545500.0 4364.60009765625
 endloop
endfacet
facet normal -0.11849300563335419 0.41264960169792175 -0.9031499028205872
 outer loop
  vertex 436500.0 5547500.0 5894.89990234375
  vertex 437500.0 5547500.0 5763.7001953125
  vertex 437500.0 5546500.0 5306.7998046875
 endloop
endfacet
facet normal -0.0018191126873716712 0.41557663679122925 -0.9095563292503357
 outer loop
  vertex 437500.0 5547500.0 5763.7001953125
  vertex 438500.0 5546500.0 5304.7998046875
  vertex 437500.0 5546500.0 5306.7998046875
 endloop
endfacet
facet normal -0.4211171269416809 -0.004897677805274725 -0.9069930911064148
 outer loop
  vertex 437500.0 5547500.0 5763.7001953125
  vertex 438500.0 5547500.0 5299.39990234375
  vertex 438500.0 5546500.0 5304.7998046875
 endloop
endfacet
facet normal -0.36978352069854736 -0.005017072893679142 -0.9291043281555176
 outer loop
  vertex 438500.0 5547500.0 5299.39990234375
  vertex 439500.0 5546500.0 4906.7998046875
  vertex 438500.0 5546500.0 5304.7998046875
 endloop
endfacet
facet normal 0.34796732664108276 0.6230064630508423 -0.700558066368103
 outer loop
  vertex 438500.0 5547500.0 5299.39990234375
  vertex 439500.0 5547500.0 5796.10009765625
  vertex 439500.0 5546500.0 4906.7998046875
 endloop
endfacet
facet normal 0.19276942312717438 0.6520715951919556 -0.7332412004470825
 outer loop
  vertex 439500.0 5547500.0 5796.10009765625
  vertex 440500.0 5546500.0 5169.7001953125
  vertex 439500.0 5546500.0 4906.7998046875
 endloop
endfacet
facet normal -0.6026415824890137 -0.10730691999197006 -0.790764331817627
 outer loop
  vertex 439500.0 5547500.0 5796.10009765625
  vertex 440500.0 5547500.0 5034.0
  vertex 440500.0 5546500.0 5169.7001953125
 endloop
endfacet
facet normal -0.5747593641281128 -0.11003798246383667 -0.8108904361724854
 outer loop
  vertex 440500.0 5547500.0 5034.0
  vertex 441500.0 5546500.0 4460.89990234375
  vertex 440500.0 5546500.0 5169.7001953125
 endloop
endfacet
facet normal -0.09978839010000229 0.4177567660808563 -0.9030623435974121
 outer loop
  vertex 440500.0 5547500.0 5034.0
  vertex 441500.0 5547500.0 4923.5
  vertex 441500.0 5546500.0 4460.89990234375
 endloop
endfacet
facet normal -0.06502701342105865 0.4189637005329132 -0.9056714773178101
 outer loop
  vertex 441500.0 5547500.0 4923.5
  vertex 442500.0 5546500.0 4389.10009765625
  vertex 441500.0 5546500.0 4460.89990234375
 endloop
endfacet
facet normal -0.3250160217285156 0.17194683849811554 -0.929945707321167
 outer loop
  vertex 441500.0 5547500.0 4923.5
  vertex 442500.0 5547500.0 4574.0
  vertex 442500.0 5546500.0 4389.10009765625
 endloop
endfacet
facet normal -0.08737792819738388 0.18112261593341827 -0.9795711636543274
 outer loop
  vertex 442500.0 5547500.0 4574.0
  vertex 443500.0 5546500.0 4299.89990234375
  vertex 442500.0 5546500.0 4389.10009765625
 endloop
endfacet
facet normal -0.424080491065979 -0.18084858357906342 -0.8873835206031799
 outer loop
  vertex 442500.0 5547500.0 4574.0
  vertex 443500.0 5547500.0 4096.10009765625
  vertex 443500.0 5546500.0 4299.89990234375
 endloop
endfacet
facet normal -0.25700101256370544 -0.1929873824119568 -0.94694584608078
 outer loop
  vertex 443500.0 5547500.0 4096.10009765625
  vertex 444500.0 5546500.0 4028.5
  vertex 443500.0 5546500.0 4299.89990234375
 endloop
endfacet
facet normal -0.18495745956897736 -0.11901265382766724 -0.9755135774612427
 outer loop
  vertex 443500.0 5547500.0 4096.10009765625
  vertex 444500.0 5547500.0 3906.5
  vertex 444500.0 5546500.0 4028.5
 endloop
endfacet
facet normal -0.2797108292579651 -0.11626821011304855 -0.9530181288719177
 outer loop
  vertex 444500.0 5547500.0 3906.5
  vertex 445500.0 5546500.0 3735.0
  vertex 444500.0 5546500.0 4028.5
 endloop
endfacet
facet normal -0.13965287804603577 0.03008810244500637 -0.9897432923316956
 outer loop
  vertex 444500.0 5547500.0 3906.5
  vertex 445500.0 5547500.0 3765.39990234375
  vertex 445500.0 5546500.0 3735.0
 endloop
endfacet
facet normal 0.4060242176055908 0.027768496423959732 -0.9134403467178345
 outer loop
  vertex 445500.0 5547500.0 3765.39990234375
  vertex 446500.0 5546500.0 4179.5
  vertex 445500.0 5546500.0 3735.0
 endloop
endfacet
facet normal 0.49018484354019165 0.1335066705942154 -0.8613331913948059
 outer loop
  vertex 445500.0 5547500.0 3765.39990234375
  vertex 446500.0 5547500.0 4334.5
  vertex 446500.0 5546500.0 4179.5
 endloop
endfacet
facet normal 0.371409147977829 0.14221453666687012 -0.9175131320953369
 outer loop
  vertex 446500.0 5547500.0 4334.5
  vertex 447500.0 5546500.0 4584.2998046875
  vertex 446500.0 5546500.0 4179.5
 endloop
endfacet
facet normal 0.36482736468315125 0.1346914917230606 -0.9212812185287476
 outer loop
  vertex 446500.0 5547500.0 4334.5
  vertex 447500.0 5547500.0 4730.5
  vertex 447500.0 5546500.0 4584.2998046875
 endloop
endfacet
facet normal -0.27546676993370056 0.13906541466712952 -0.9511986374855042
 outer loop
  vertex 447500.0 5547500.0 4730.5
  vertex 448500.0 5546500.0 4294.7001953125
  vertex 447500.0 5546500.0 4584.2998046875
 endloop
endfacet
facet normal -0.2567387521266937 0.15873385965824127 -0.9533565640449524
 outer loop
  vertex 447500.0 5547500.0 4730.5
  vertex 448500.0 5547500.0 4461.2001953125
  vertex 448500.0 5546500.0 4294.7001953125
 endloop
endfacet
facet normal -0.022484995424747467 0.16419750452041626 -0.9861711859703064
 outer loop
  vertex 448500.0 5547500.0 4461.2001953125
  vertex 449500.0 5546500.0 4271.89990234375
  vertex 448500.0 5546500.0 4294.7001953125
 endloop
endfacet
facet normal 0.0035344287753105164 0.18940693140029907 -0.9818922877311707
 outer loop
  vertex 448500.0 5547500.0 4461.2001953125
  vertex 449500.0 5547500.0 4464.7998046875
  vertex 449500.0 5546500.0 4271.89990234375
 endloop
endfacet
facet normal -0.030130304396152496 0.1893221139907837 -0.9814526438713074
 outer loop
  vertex 449500.0 5547500.0 4464.7998046875
  vertex 450500.0 5546500.0 4241.2001953125
  vertex 449500.0 5546500.0 4271.89990234375
 endloop
endfacet
facet normal -0.031314071267843246 0.18817920982837677 -0.9816353917121887
 outer loop
  vertex 449500.0 5547500.0 4464.7998046875
  vertex 450500.0 5547500.0 4432.89990234375
  vertex 450500.0 5546500.0 4241.2001953125
 endloop
endfacet
facet normal 0.3975133001804352 0.17275729775428772 -0.9011870622634888
 outer loop
  vertex 450500.0 5547500.0 4432.89990234375
  vertex 451500.0 5546500.0 4682.2998046875
  vertex 450500.0 5546500.0 4241.2001953125
 endloop
endfacet
facet normal 0.2962016761302948 0.05843976512551308 -0.9533360004425049
 outer loop
  vertex 450500.0 5547500.0 4432.89990234375
  vertex 451500.0 5547500.0 4743.60009765625
  vertex 451500.0 5546500.0 4682.2998046875
 endloop
endfacet
facet normal -0.149998739361763 0.06049320101737976 -0.9868338108062744
 outer loop
  vertex 451500.0 5547500.0 4743.60009765625
  vertex 452500.0 5546500.0 4530.2998046875
  vertex 451500.0 5546500.0 4682.2998046875
 endloop
endfacet
facet normal -0.362982839345932 -0.16746681928634644 -0.9166233539581299
 outer loop
  vertex 451500.0 5547500.0 4743.60009765625
  vertex 452500.0 5547500.0 4347.60009765625
  vertex 452500.0 5546500.0 4530.2998046875
 endloop
endfacet
facet normal -0.2633456289768219 -0.1733807921409607 -0.9489932656288147
 outer loop
  vertex 452500.0 5547500.0 4347.60009765625
  vertex 453500.0 5546500.0 4252.7998046875
  vertex 452500.0 5546500.0 4530.2998046875
 endloop
endfacet
facet normal -0.0017925548600032926 0.0926002636551857 -0.9957017302513123
 outer loop
  vertex 452500.0 5547500.0 4347.60009765625
  vertex 453500.0 5547500.0 4345.7998046875
  vertex 453500.0 5546500.0 4252.7998046875
 endloop
endfacet
facet normal -0.005476286169141531 0.09259901940822601 -0.9956884384155273
 outer loop
  vertex 453500.0 5547500.0 4345.7998046875
  vertex 454500.0 5546500.0 4247.2998046875
  vertex 453500.0 5546500.0 4252.7998046875
 endloop
endfacet
facet normal -0.043393440544605255 0.0548652708530426 -0.997550368309021
 outer loop
  vertex 453500.0 5547500.0 4345.7998046875
  vertex 454500.0 5547500.0 4302.2998046875
  vertex 454500.0 5546500.0 4247.2998046875
 endloop
endfacet
facet normal 0.40893614292144775 0.39362257719039917 -0.8233057856559753
 outer loop
  vertex 438500.0 5548500.0 5777.5
  vertex 439500.0 5547500.0 5796.10009765625
  vertex 438500.0 5547500.0 5299.39990234375
 endloop
endfacet
facet normal -0.284030944108963 -0.3009636402130127 -0.9103555679321289
 outer loop
  vertex 438500.0 5548500.0 5777.5
  vertex 439500.0 5548500.0 5465.5
  vertex 439500.0 5547500.0 5796.10009765625
 endloop
endfacet
facet normal -0.5862147212028503 -0.2543007731437683 -0.769209623336792
 outer loop
  vertex 439500.0 5548500.0 5465.5
  vertex 440500.0 5547500.0 5034.0
  vertex 439500.0 5547500.0 5796.10009765625
 endloop
endfacet
facet normal -0.18026858568191528 0.23216967284679413 -0.9558244943618774
 outer loop
  vertex 439500.0 5548500.0 5465.5
  vertex 440500.0 5548500.0 5276.89990234375
  vertex 440500.0 5547500.0 5034.0
 endloop
endfacet
facet normal -0.10676400363445282 0.23468747735023499 -0.9661900401115417
 outer loop
  vertex 440500.0 5548500.0 5276.89990234375
  vertex 441500.0 5547500.0 4923.5
  vertex 440500.0 5547500.0 5034.0
 endloop
endfacet
facet normal 0.04359091445803642 0.37135738134384155 -0.9274662137031555
 outer loop
  vertex 440500.0 5548500.0 5276.89990234375
  vertex 441500.0 5548500.0 5323.89990234375
  vertex 441500.0 5547500.0 4923.5
 endloop
endfacet
facet normal -0.30861958861351013 0.35356587171554565 -0.8830318450927734
 outer loop
  vertex 441500.0 5548500.0 5323.89990234375
  vertex 442500.0 5547500.0 4574.0
  vertex 441500.0 5547500.0 4923.5
 endloop
endfacet
facet normal -0.5955033302307129 0.006908629555255175 -0.8033232092857361
 outer loop
  vertex 441500.0 5548500.0 5323.89990234375
  vertex 442500.0 5548500.0 4582.60009765625
  vertex 442500.0 5547500.0 4574.0
 endloop
endfacet
facet normal -0.4311774671077728 0.007759299129247665 -0.9022338390350342
 outer loop
  vertex 442500.0 5548500.0 4582.60009765625
  vertex 443500.0 5547500.0 4096.10009765625
  vertex 442500.0 5547500.0 4574.0
 endloop
endfacet
facet normal -0.32255372405052185 0.1333507001399994 -0.9371108412742615
 outer loop
  vertex 442500.0 5548500.0 4582.60009765625
  vertex 443500.0 5548500.0 4238.39990234375
  vertex 443500.0 5547500.0 4096.10009765625
 endloop
endfacet
facet normal -0.18448708951473236 0.1384623646736145 -0.9730327129364014
 outer loop
  vertex 443500.0 5548500.0 4238.39990234375
  vertex 444500.0 5547500.0 3906.5
  vertex 443500.0 5547500.0 4096.10009765625
 endloop
endfacet
facet normal 0.09655701369047165 0.3991754353046417 -0.9117761850357056
 outer loop
  vertex 443500.0 5548500.0 4238.39990234375
  vertex 444500.0 5548500.0 4344.2998046875
  vertex 444500.0 5547500.0 3906.5
 endloop
endfacet
facet normal -0.12818922102451324 0.39774057269096375 -0.9084987044334412
 outer loop
  vertex 444500.0 5548500.0 4344.2998046875
  vertex 445500.0 5547500.0 3765.39990234375
  vertex 444500.0 5547500.0 3906.5
 endloop
endfacet
facet normal -0.09001125395298004 0.43002524971961975 -0.8983185291290283
 outer loop
  vertex 444500.0 5548500.0 4344.2998046875
  vertex 445500.0 5548500.0 4244.10009765625
  vertex 445500.0 5547500.0 3765.39990234375
 endloop
endfacet
facet normal 0.4566662609577179 0.38412612676620483 -0.8024356961250305
 outer loop
  vertex 445500.0 5548500.0 4244.10009765625
  vertex 446500.0 5547500.0 4334.5
  vertex 445500.0 5547500.0 3765.39990234375
 endloop
endfacet
facet normal -0.14994245767593384 -0.2367207407951355 -0.9599377512931824
 outer loop
  vertex 445500.0 5548500.0 4244.10009765625
  vertex 446500.0 5548500.0 4087.89990234375
  vertex 446500.0 5547500.0 4334.5
 endloop
endfacet
facet normal 0.3588706851005554 -0.22347863018512726 -0.9062390327453613
 outer loop
  vertex 446500.0 5548500.0 4087.89990234375
  vertex 447500.0 5547500.0 4730.5
  vertex 446500.0 5547500.0 4334.5
 endloop
endfacet
facet normal 0.5131168365478516 -0.0379008986055851 -0.8574815392494202
 outer loop
  vertex 446500.0 5548500.0 4087.89990234375
  vertex 447500.0 5548500.0 4686.2998046875
  vertex 447500.0 5547500.0 4730.5
 endloop
endfacet
facet normal -0.25979912281036377 -0.042640846222639084 -0.9647207856178284
 outer loop
  vertex 447500.0 5548500.0 4686.2998046875
  vertex 448500.0 5547500.0 4461.2001953125
  vertex 447500.0 5547500.0 4730.5
 endloop
endfacet
facet normal 0.0019503349903970957 0.22146014869213104 -0.975167453289032
 outer loop
  vertex 447500.0 5548500.0 4686.2998046875
  vertex 448500.0 5548500.0 4688.2998046875
  vertex 448500.0 5547500.0 4461.2001953125
 endloop
endfacet
facet normal 0.003510206937789917 0.22145920991897583 -0.9751633405685425
 outer loop
  vertex 448500.0 5548500.0 4688.2998046875
  vertex 449500.0 5547500.0 4464.7998046875
  vertex 448500.0 5547500.0 4461.2001953125
 endloop
endfacet
facet normal -0.0700162723660469 0.15038706362247467 -0.9861447215080261
 outer loop
  vertex 448500.0 5548500.0 4688.2998046875
  vertex 449500.0 5548500.0 4617.2998046875
  vertex 449500.0 5547500.0 4464.7998046875
 endloop
endfacet
facet normal -0.03151964768767357 0.15068213641643524 -0.9880796074867249
 outer loop
  vertex 449500.0 5548500.0 4617.2998046875
  vertex 450500.0 5547500.0 4432.89990234375
  vertex 449500.0 5547500.0 4464.7998046875
 endloop
endfacet
facet normal -0.14046593010425568 0.041941847652196884 -0.9891967177391052
 outer loop
  vertex 449500.0 5548500.0 4617.2998046875
  vertex 450500.0 5548500.0 4475.2998046875
  vertex 450500.0 5547500.0 4432.89990234375
 endloop
endfacet
facet normal 0.29646581411361694 0.04045739769935608 -0.9541861414909363
 outer loop
  vertex 450500.0 5548500.0 4475.2998046875
  vertex 451500.0 5547500.0 4743.60009765625
  vertex 450500.0 5547500.0 4432.89990234375
 endloop
endfacet
facet normal 0.2358727604150772 -0.02477242238819599 -0.9714681506156921
 outer loop
  vertex 450500.0 5548500.0 4475.2998046875
  vertex 451500.0 5548500.0 4718.10009765625
  vertex 451500.0 5547500.0 4743.60009765625
 endloop
endfacet
facet normal -0.36807894706726074 -0.023702053353190422 -0.9294922947883606
 outer loop
  vertex 451500.0 5548500.0 4718.10009765625
  vertex 452500.0 5547500.0 4347.60009765625
  vertex 451500.0 5547500.0 4743.60009765625
 endloop
endfacet
facet normal -0.0735854059457779 0.2809455096721649 -0.9568985104560852
 outer loop
  vertex 451500.0 5548500.0 4718.10009765625
  vertex 452500.0 5548500.0 4641.2001953125
  vertex 452500.0 5547500.0 4347.60009765625
 endloop
endfacet
facet normal -0.0017273669363930821 0.28170880675315857 -0.9594983458518982
 outer loop
  vertex 452500.0 5548500.0 4641.2001953125
  vertex 453500.0 5547500.0 4345.7998046875
  vertex 452500.0 5547500.0 4347.60009765625
 endloop
endfacet
facet normal -0.019085140898823738 0.2656458914279938 -0.9638817310333252
 outer loop
  vertex 452500.0 5548500.0 4641.2001953125
  vertex 453500.0 5548500.0 4621.39990234375
  vertex 453500.0 5547500.0 4345.7998046875
 endloop
endfacet
facet normal -0.0418996661901474 0.2654609680175781 -0.9632107019424438
 outer loop
  vertex 453500.0 5548500.0 4621.39990234375
  vertex 454500.0 5547500.0 4302.2998046875
  vertex 453500.0 5547500.0 4345.7998046875
 endloop
endfacet
facet normal 0.2781394124031067 0.5331072211265564 -0.7990213632583618
 outer loop
  vertex 453500.0 5548500.0 4621.39990234375
  vertex 454500.0 5548500.0 4969.5
  vertex 454500.0 5547500.0 4302.2998046875
 endloop
endfacet
facet normal 0.4666631817817688 0.49086806178092957 -0.7357133030891418
 outer loop
  vertex 454500.0 5548500.0 4969.5
  vertex 455500.0 5547500.0 4936.60009765625
  vertex 454500.0 5547500.0 4302.2998046875
 endloop
endfacet
facet normal -0.3493812084197998 0.7458869218826294 -0.5670850872993469
 outer loop
  vertex 437500.0 5549500.0 7708.89990234375
  vertex 438500.0 5549500.0 7092.7998046875
  vertex 438500.0 5548500.0 5777.5
 endloop
endfacet
facet normal -0.18555140495300293 0.7822298407554626 -0.5947160124778748
 outer loop
  vertex 438500.0 5549500.0 7092.7998046875
  vertex 439500.0 5548500.0 5465.5
  vertex 438500.0 5548500.0 5777.5
 endloop
endfacet
facet normal -0.621815025806427 0.4364152252674103 -0.6502982974052429
 outer loop
  vertex 438500.0 5549500.0 7092.7998046875
  vertex 439500.0 5549500.0 6136.60009765625
  vertex 439500.0 5548500.0 5465.5
 endloop
endfacet
facet normal -0.1547178477048874 0.5505362153053284 -0.820348858833313
 outer loop
  vertex 439500.0 5549500.0 6136.60009765625
  vertex 440500.0 5548500.0 5276.89990234375
  vertex 439500.0 5548500.0 5465.5
 endloop
endfacet
facet normal -0.6571947932243347 -0.009269922971725464 -0.7536637783050537
 outer loop
  vertex 439500.0 5549500.0 6136.60009765625
  vertex 440500.0 5549500.0 5264.60009765625
  vertex 440500.0 5548500.0 5276.89990234375
 endloop
endfacet
facet normal 0.04694463312625885 -0.012285314500331879 -0.9988219738006592
 outer loop
  vertex 440500.0 5549500.0 5264.60009765625
  vertex 441500.0 5548500.0 5323.89990234375
  vertex 440500.0 5548500.0 5276.89990234375
 endloop
endfacet
facet normal -0.32892242074012756 -0.38018402457237244 -0.8644478917121887
 outer loop
  vertex 440500.0 5549500.0 5264.60009765625
  vertex 441500.0 5549500.0 4884.10009765625
  vertex 441500.0 5548500.0 5323.89990234375
 endloop
endfacet
facet normal -0.5615022778511047 -0.3331291973590851 -0.7574564218521118
 outer loop
  vertex 441500.0 5549500.0 4884.10009765625
  vertex 442500.0 5548500.0 4582.60009765625
  vertex 441500.0 5548500.0 5323.89990234375
 endloop
endfacet
facet normal -0.019248198717832565 0.2709183990955353 -0.9624099135398865
 outer loop
  vertex 441500.0 5549500.0 4884.10009765625
  vertex 442500.0 5549500.0 4864.10009765625
  vertex 442500.0 5548500.0 4582.60009765625
 endloop
endfacet
facet normal -0.3145098090171814 0.25721806287765503 -0.9137409329414368
 outer loop
  vertex 442500.0 5549500.0 4864.10009765625
  vertex 443500.0 5548500.0 4238.39990234375
  vertex 442500.0 5548500.0 4582.60009765625
 endloop
endfacet
facet normal 0.055706366896629333 0.5690426826477051 -0.8204188942909241
 outer loop
  vertex 442500.0 5549500.0 4864.10009765625
  vertex 443500.0 5549500.0 4932.0
  vertex 443500.0 5548500.0 4238.39990234375
 endloop
endfacet
facet normal 0.08668984472751617 0.5677821040153503 -0.8186014890670776
 outer loop
  vertex 443500.0 5549500.0 4932.0
  vertex 444500.0 5548500.0 4344.2998046875
  vertex 443500.0 5548500.0 4238.39990234375
 endloop
endfacet
facet normal 0.13866767287254333 0.6011814475059509 -0.7869893312454224
 outer loop
  vertex 443500.0 5549500.0 4932.0
  vertex 444500.0 5549500.0 5108.2001953125
  vertex 444500.0 5548500.0 4344.2998046875
 endloop
endfacet
facet normal -0.07937417179346085 0.6051308512687683 -0.792159378528595
 outer loop
  vertex 444500.0 5549500.0 5108.2001953125
  vertex 445500.0 5548500.0 4244.10009765625
  vertex 444500.0 5548500.0 4344.2998046875
 endloop
endfacet
facet normal -0.3546561896800995 0.3825541138648987 -0.8531537652015686
 outer loop
  vertex 444500.0 5549500.0 5108.2001953125
  vertex 445500.0 5549500.0 4692.5
  vertex 445500.0 5548500.0 4244.10009765625
 endloop
endfacet
facet normal -0.14110158383846283 0.4050566554069519 -0.9033379554748535
 outer loop
  vertex 445500.0 5549500.0 4692.5
  vertex 446500.0 5548500.0 4087.89990234375
  vertex 445500.0 5548500.0 4244.10009765625
 endloop
endfacet
facet normal -0.07639595866203308 0.4588196873664856 -0.8852390646934509
 outer loop
  vertex 445500.0 5549500.0 4692.5
  vertex 446500.0 5549500.0 4606.2001953125
  vertex 446500.0 5548500.0 4087.89990234375
 endloop
endfacet
facet normal 0.4691756069660187 0.4063735008239746 -0.7840502858161926
 outer loop
  vertex 446500.0 5549500.0 4606.2001953125
  vertex 447500.0 5548500.0 4686.2998046875
  vertex 446500.0 5548500.0 4087.89990234375
 endloop
endfacet
facet normal 0.459253191947937 0.3955434262752533 -0.7953815460205078
 outer loop
  vertex 446500.0 5549500.0 4606.2001953125
  vertex 447500.0 5549500.0 5183.60009765625
  vertex 447500.0 5548500.0 4686.2998046875
 endloop
endfacet
facet normal 0.0017907812725752592 0.44527801871299744 -0.8953906297683716
 outer loop
  vertex 447500.0 5549500.0 5183.60009765625
  vertex 448500.0 5548500.0 4688.2998046875
  vertex 447500.0 5548500.0 4686.2998046875
 endloop
endfacet
facet normal -0.19230316579341888 0.27436888217926025 -0.942200243473053
 outer loop
  vertex 447500.0 5549500.0 5183.60009765625
  vertex 448500.0 5549500.0 4979.5
  vertex 448500.0 5548500.0 4688.2998046875
 endloop
endfacet
facet normal -0.06801070272922516 0.2789398431777954 -0.9578972458839417
 outer loop
  vertex 448500.0 5549500.0 4979.5
  vertex 449500.0 5548500.0 4617.2998046875
  vertex 448500.0 5548500.0 4688.2998046875
 endloop
endfacet
facet normal -0.09852869063615799 0.25031957030296326 -0.9631366729736328
 outer loop
  vertex 448500.0 5549500.0 4979.5
  vertex 449500.0 5549500.0 4877.2001953125
  vertex 449500.0 5548500.0 4617.2998046875
 endloop
endfacet
facet normal -0.13615427911281586 0.24920108914375305 -0.9588330388069153
 outer loop
  vertex 449500.0 5549500.0 4877.2001953125
  vertex 450500.0 5548500.0 4475.2998046875
  vertex 449500.0 5548500.0 4617.2998046875
 endloop
endfacet
facet normal 0.07663095742464066 0.43684157729148865 -0.8962684869766235
 outer loop
  vertex 449500.0 5549500.0 4877.2001953125
  vertex 450500.0 5549500.0 4962.7001953125
  vertex 450500.0 5548500.0 4475.2998046875
 endloop
endfacet
facet normal 0.2132362723350525 0.42805320024490356 -0.8782373070716858
 outer loop
  vertex 450500.0 5549500.0 4962.7001953125
  vertex 451500.0 5548500.0 4718.10009765625
  vertex 450500.0 5548500.0 4475.2998046875
 endloop
endfacet
facet normal -0.2223592847585678 0.01608472876250744 -0.9748321175575256
 outer loop
  vertex 450500.0 5549500.0 4962.7001953125
  vertex 451500.0 5549500.0 4734.60009765625
  vertex 451500.0 5548500.0 4718.10009765625
 endloop
endfacet
facet normal -0.07666315883398056 0.016449201852083206 -0.9969213008880615
 outer loop
  vertex 451500.0 5549500.0 4734.60009765625
  vertex 452500.0 5548500.0 4641.2001953125
  vertex 451500.0 5548500.0 4718.10009765625
 endloop
endfacet
facet normal -0.02982652559876442 0.06334416568279266 -0.9975458979606628
 outer loop
  vertex 451500.0 5549500.0 4734.60009765625
  vertex 452500.0 5549500.0 4704.7001953125
  vertex 452500.0 5548500.0 4641.2001953125
 endloop
endfacet
facet normal -0.01975664123892784 0.06335999071598053 -0.9977951645851135
 outer loop
  vertex 452500.0 5549500.0 4704.7001953125
  vertex 453500.0 5548500.0 4621.39990234375
  vertex 452500.0 5548500.0 4641.2001953125
 endloop
endfacet
facet normal 0.30927491188049316 0.3818255066871643 -0.8709524869918823
 outer loop
  vertex 452500.0 5549500.0 4704.7001953125
  vertex 453500.0 5549500.0 5059.7998046875
  vertex 453500.0 5548500.0 4621.39990234375
 endloop
endfacet
facet normal 0.30374622344970703 0.3825403153896332 -0.8725830316543579
 outer loop
  vertex 453500.0 5549500.0 5059.7998046875
  vertex 454500.0 5548500.0 4969.5
  vertex 453500.0 5548500.0 4621.39990234375
 endloop
endfacet
facet normal -0.5817119479179382 0.5399179458618164 -0.6083582043647766
 outer loop
  vertex 438500.0 5550500.0 7980.2998046875
  vertex 439500.0 5549500.0 6136.60009765625
  vertex 438500.0 5549500.0 7092.7998046875
 endloop
endfacet
facet normal -0.7108657360076904 0.3801383972167969 -0.5917471647262573
 outer loop
  vertex 438500.0 5550500.0 7980.2998046875
  vertex 439500.0 5550500.0 6779.0
  vertex 439500.0 5549500.0 6136.60009765625
 endloop
endfacet
facet normal -0.5915350317955017 0.43578216433525085 -0.6783658862113953
 outer loop
  vertex 439500.0 5550500.0 6779.0
  vertex 440500.0 5549500.0 5264.60009765625
  vertex 439500.0 5549500.0 6136.60009765625
 endloop
endfacet
facet normal -0.548317015171051 0.48422592878341675 -0.681816577911377
 outer loop
  vertex 439500.0 5550500.0 6779.0
  vertex 440500.0 5550500.0 5974.7998046875
  vertex 440500.0 5549500.0 5264.60009765625
 endloop
endfacet
facet normal -0.2962939739227295 0.5530298352241516 -0.7786962985992432
 outer loop
  vertex 440500.0 5550500.0 5974.7998046875
  vertex 441500.0 5549500.0 4884.10009765625
  vertex 440500.0 5549500.0 5264.60009765625
 endloop
endfacet
facet normal -0.44962844252586365 0.41376879811286926 -0.7915993928909302
 outer loop
  vertex 440500.0 5550500.0 5974.7998046875
  vertex 441500.0 5550500.0 5406.7998046875
  vertex 441500.0 5549500.0 4884.10009765625
 endloop
endfacet
facet normal -0.01772189885377884 0.46316230297088623 -0.8860962986946106
 outer loop
  vertex 441500.0 5550500.0 5406.7998046875
  vertex 442500.0 5549500.0 4864.10009765625
  vertex 441500.0 5549500.0 4884.10009765625
 endloop
endfacet
facet normal -0.3746965825557709 0.12394934892654419 -0.9188247919082642
 outer loop
  vertex 441500.0 5550500.0 5406.7998046875
  vertex 442500.0 5550500.0 4999.0
  vertex 442500.0 5549500.0 4864.10009765625
 endloop
endfacet
facet normal 0.06713856011629105 0.13338731229305267 -0.9887872934341431
 outer loop
  vertex 442500.0 5550500.0 4999.0
  vertex 443500.0 5549500.0 4932.0
  vertex 442500.0 5549500.0 4864.10009765625
 endloop
endfacet
facet normal -0.11450681835412979 -0.04802533611655235 -0.9922609329223633
 outer loop
  vertex 442500.0 5550500.0 4999.0
  vertex 443500.0 5550500.0 4883.60009765625
  vertex 443500.0 5549500.0 4932.0
 endloop
endfacet
facet normal 0.17333027720451355 -0.047611575573682785 -0.9837122559547424
 outer loop
  vertex 443500.0 5550500.0 4883.60009765625
  vertex 444500.0 5549500.0 5108.2001953125
  vertex 443500.0 5549500.0 4932.0
 endloop
endfacet
facet normal 0.22377485036849976 0.004873143509030342 -0.9746286869049072
 outer loop
  vertex 443500.0 5550500.0 4883.60009765625
  vertex 444500.0 5550500.0 5113.2001953125
  vertex 444500.0 5549500.0 5108.2001953125
 endloop
endfacet
facet normal -0.38385075330734253 0.004616918042302132 -0.9233836531639099
 outer loop
  vertex 444500.0 5550500.0 5113.2001953125
  vertex 445500.0 5549500.0 4692.5
  vertex 444500.0 5549500.0 5108.2001953125
 endloop
endfacet
facet normal 0.012746998108923435 0.39855292439460754 -0.917056679725647
 outer loop
  vertex 444500.0 5550500.0 5113.2001953125
  vertex 445500.0 5550500.0 5127.10009765625
  vertex 445500.0 5549500.0 4692.5
 endloop
endfacet
facet normal -0.078901506960392 0.397342711687088 -0.9142720103263855
 outer loop
  vertex 445500.0 5550500.0 5127.10009765625
  vertex 446500.0 5549500.0 4606.2001953125
  vertex 445500.0 5549500.0 4692.5
 endloop
endfacet
facet normal -0.12181824445724487 0.35999664664268494 -0.9249663949012756
 outer loop
  vertex 445500.0 5550500.0 5127.10009765625
  vertex 446500.0 5550500.0 4995.39990234375
  vertex 446500.0 5549500.0 4606.2001953125
 endloop
endfacet
facet normal 0.4738413095474243 0.3193954825401306 -0.8206467628479004
 outer loop
  vertex 446500.0 5550500.0 4995.39990234375
  vertex 447500.0 5549500.0 5183.60009765625
  vertex 446500.0 5549500.0 4606.2001953125
 endloop
endfacet
facet normal 0.12879924476146698 -0.05751916021108627 -0.9900012016296387
 outer loop
  vertex 446500.0 5550500.0 4995.39990234375
  vertex 447500.0 5550500.0 5125.5
  vertex 447500.0 5549500.0 5183.60009765625
 endloop
endfacet
facet normal -0.19965413212776184 -0.05683448910713196 -0.9782167673110962
 outer loop
  vertex 447500.0 5550500.0 5125.5
  vertex 448500.0 5549500.0 4979.5
  vertex 447500.0 5549500.0 5183.60009765625
 endloop
endfacet
facet normal -0.06773845851421356 0.07748622447252274 -0.9946895837783813
 outer loop
  vertex 447500.0 5550500.0 5125.5
  vertex 448500.0 5550500.0 5057.39990234375
  vertex 448500.0 5549500.0 4979.5
 endloop
endfacet
facet normal -0.10146444290876389 0.07726379483938217 -0.991834282875061
 outer loop
  vertex 448500.0 5550500.0 5057.39990234375
  vertex 449500.0 5549500.0 4877.2001953125
  vertex 448500.0 5549500.0 4979.5
 endloop
endfacet
facet normal 0.22675472497940063 0.38775190711021423 -0.8934375643730164
 outer loop
  vertex 448500.0 5550500.0 5057.39990234375
  vertex 449500.0 5550500.0 5311.2001953125
  vertex 449500.0 5549500.0 4877.2001953125
 endloop
endfacet
facet normal 0.07819178700447083 0.3969033360481262 -0.9145237803459167
 outer loop
  vertex 449500.0 5550500.0 5311.2001953125
  vertex 450500.0 5549500.0 4962.7001953125
  vertex 449500.0 5549500.0 4877.2001953125
 endloop
endfacet
facet normal -0.2624838948249817 0.07283701747655869 -0.96218341588974
 outer loop
  vertex 449500.0 5550500.0 5311.2001953125
  vertex 450500.0 5550500.0 5038.39990234375
  vertex 450500.0 5549500.0 4962.7001953125
 endloop
endfacet
facet normal -0.22178487479686737 0.07360386103391647 -0.9723137021064758
 outer loop
  vertex 450500.0 5550500.0 5038.39990234375
  vertex 451500.0 5549500.0 4734.60009765625
  vertex 450500.0 5549500.0 4962.7001953125
 endloop
endfacet
facet normal 0.21116678416728973 0.47131437063217163 -0.85631263256073
 outer loop
  vertex 450500.0 5550500.0 5038.39990234375
  vertex 451500.0 5550500.0 5285.0
  vertex 451500.0 5549500.0 4734.60009765625
 endloop
endfacet
facet normal -0.026185395196080208 0.48202234506607056 -0.8757675290107727
 outer loop
  vertex 451500.0 5550500.0 5285.0
  vertex 452500.0 5549500.0 4704.7001953125
  vertex 451500.0 5549500.0 4734.60009765625
 endloop
endfacet
facet normal -0.4344842731952667 0.08580275624990463 -0.8965831398963928
 outer loop
  vertex 451500.0 5550500.0 5285.0
  vertex 452500.0 5550500.0 4800.39990234375
  vertex 452500.0 5549500.0 4704.7001953125
 endloop
endfacet
facet normal 0.333275705575943 0.08981813490390778 -0.9385413527488708
 outer loop
  vertex 452500.0 5550500.0 4800.39990234375
  vertex 453500.0 5549500.0 5059.7998046875
  vertex 452500.0 5549500.0 4704.7001953125
 endloop
endfacet
facet normal -0.5840066075325012 0.3627346456050873 -0.7261955142021179
 outer loop
  vertex 439500.0 5551500.0 7278.5
  vertex 440500.0 5550500.0 5974.7998046875
  vertex 439500.0 5550500.0 6779.0
 endloop
endfacet
facet normal -0.7896552681922913 0.010122210718691349 -0.613467276096344
 outer loop
  vertex 439500.0 5551500.0 7278.5
  vertex 440500.0 5551500.0 5991.2998046875
  vertex 440500.0 5550500.0 5974.7998046875
 endloop
endfacet
facet normal -0.4938390851020813 0.014345677569508553 -0.8694350123405457
 outer loop
  vertex 440500.0 5551500.0 5991.2998046875
  vertex 441500.0 5550500.0 5406.7998046875
  vertex 440500.0 5550500.0 5974.7998046875
 endloop
endfacet
facet normal 0.05329553410410881 0.5430941581726074 -0.8379787802696228
 outer loop
  vertex 440500.0 5551500.0 5991.2998046875
  vertex 441500.0 5551500.0 6054.89990234375
  vertex 441500.0 5550500.0 5406.7998046875
 endloop
endfacet
facet normal -0.3237797021865845 0.5145703554153442 -0.7939673662185669
 outer loop
  vertex 441500.0 5551500.0 6054.89990234375
  vertex 442500.0 5550500.0 4999.0
  vertex 441500.0 5550500.0 5406.7998046875
 endloop
endfacet
facet normal -0.071345753967762 0.6896034479141235 -0.7206641435623169
 outer loop
  vertex 441500.0 5551500.0 6054.89990234375
  vertex 442500.0 5551500.0 5955.89990234375
  vertex 442500.0 5550500.0 4999.0
 endloop
endfacet
facet normal -0.08308872580528259 0.6889746785163879 -0.720007061958313
 outer loop
  vertex 442500.0 5551500.0 5955.89990234375
  vertex 443500.0 5550500.0 4883.60009765625
  vertex 442500.0 5550500.0 4999.0
 endloop
endfacet
facet normal -0.5376969575881958 0.30512163043022156 -0.7859916090965271
 outer loop
  vertex 442500.0 5551500.0 5955.89990234375
  vertex 443500.0 5551500.0 5271.7998046875
  vertex 443500.0 5550500.0 4883.60009765625
 endloop
endfacet
facet normal 0.20929764211177826 0.35387301445007324 -0.91157466173172
 outer loop
  vertex 443500.0 5551500.0 5271.7998046875
  vertex 444500.0 5550500.0 5113.2001953125
  vertex 443500.0 5550500.0 4883.60009765625
 endloop
endfacet
facet normal -0.04974563047289848 0.10773339867591858 -0.99293452501297
 outer loop
  vertex 443500.0 5551500.0 5271.7998046875
  vertex 444500.0 5551500.0 5221.7001953125
  vertex 444500.0 5550500.0 5113.2001953125
 endloop
endfacet
facet normal 0.01381748542189598 0.1078566387295723 -0.9940704107284546
 outer loop
  vertex 444500.0 5551500.0 5221.7001953125
  vertex 445500.0 5550500.0 5127.10009765625
  vertex 444500.0 5550500.0 5113.2001953125
 endloop
endfacet
facet normal 0.16456739604473114 0.254712849855423 -0.9529107213020325
 outer loop
  vertex 444500.0 5551500.0 5221.7001953125
  vertex 445500.0 5551500.0 5394.39990234375
  vertex 445500.0 5550500.0 5127.10009765625
 endloop
endfacet
facet normal -0.12621574103832245 0.25616851449012756 -0.9583565592765808
 outer loop
  vertex 445500.0 5551500.0 5394.39990234375
  vertex 446500.0 5550500.0 4995.39990234375
  vertex 445500.0 5550500.0 5127.10009765625
 endloop
endfacet
facet normal -0.480392187833786 -0.13459289073944092 -0.8666648864746094
 outer loop
  vertex 445500.0 5551500.0 5394.39990234375
  vertex 446500.0 5551500.0 4840.10009765625
  vertex 446500.0 5550500.0 4995.39990234375
 endloop
endfacet
facet normal 0.12750965356826782 -0.152207612991333 -0.9800888299942017
 outer loop
  vertex 446500.0 5551500.0 4840.10009765625
  vertex 447500.0 5550500.0 5125.5
  vertex 446500.0 5550500.0 4995.39990234375
 endloop
endfacet
facet normal 0.191891610622406 -0.08709921687841415 -0.9775435328483582
 outer loop
  vertex 446500.0 5551500.0 4840.10009765625
  vertex 447500.0 5551500.0 5036.39990234375
  vertex 447500.0 5550500.0 5125.5
 endloop
endfacet
facet normal -0.0676758661866188 -0.0885450467467308 -0.9937704801559448
 outer loop
  vertex 447500.0 5551500.0 5036.39990234375
  vertex 448500.0 5550500.0 5057.39990234375
  vertex 447500.0 5550500.0 5125.5
 endloop
endfacet
facet normal 0.2876686453819275 0.26836201548576355 -0.9193631410598755
 outer loop
  vertex 447500.0 5551500.0 5036.39990234375
  vertex 448500.0 5551500.0 5349.2998046875
  vertex 448500.0 5550500.0 5057.39990234375
 endloop
endfacet
facet normal 0.2367091029882431 0.27224305272102356 -0.9326589107513428
 outer loop
  vertex 448500.0 5551500.0 5349.2998046875
  vertex 449500.0 5550500.0 5311.2001953125
  vertex 448500.0 5550500.0 5057.39990234375
 endloop
endfacet
facet normal 0.38275283575057983 0.4142150580883026 -0.8257881999015808
 outer loop
  vertex 448500.0 5551500.0 5349.2998046875
  vertex 449500.0 5551500.0 5812.7998046875
  vertex 449500.0 5550500.0 5311.2001953125
 endloop
endfacet
facet normal -0.23690234124660492 0.4355939030647278 -0.8684095740318298
 outer loop
  vertex 449500.0 5551500.0 5812.7998046875
  vertex 450500.0 5550500.0 5038.39990234375
  vertex 449500.0 5550500.0 5311.2001953125
 endloop
endfacet
facet normal -0.45088455080986023 0.21916955709457397 -0.8652559518814087
 outer loop
  vertex 449500.0 5551500.0 5812.7998046875
  vertex 450500.0 5551500.0 5291.7001953125
  vertex 450500.0 5550500.0 5038.39990234375
 endloop
endfacet
facet normal 0.2324996292591095 0.23881672322750092 -0.9428205490112305
 outer loop
  vertex 450500.0 5551500.0 5291.7001953125
  vertex 451500.0 5550500.0 5285.0
  vertex 450500.0 5550500.0 5038.39990234375
 endloop
endfacet
facet normal -0.37085041403770447 -0.36512911319732666 -0.8539032340049744
 outer loop
  vertex 450500.0 5551500.0 5291.7001953125
  vertex 451500.0 5551500.0 4857.39990234375
  vertex 451500.0 5550500.0 5285.0
 endloop
endfacet
facet normal -0.4070001244544983 -0.35912764072418213 -0.8398680090904236
 outer loop
  vertex 451500.0 5551500.0 4857.39990234375
  vertex 452500.0 5550500.0 4800.39990234375
  vertex 451500.0 5550500.0 5285.0
 endloop
endfacet
facet normal 0.33280250430107117 0.3819469213485718 -0.8621826767921448
 outer loop
  vertex 451500.0 5551500.0 4857.39990234375
  vertex 452500.0 5551500.0 5243.39990234375
  vertex 452500.0 5550500.0 4800.39990234375
 endloop
endfacet
facet normal -0.34721070528030396 0.7885708808898926 -0.5075438022613525
 outer loop
  vertex 442500.0 5552500.0 7509.60009765625
  vertex 443500.0 5551500.0 5271.7998046875
  vertex 442500.0 5551500.0 5955.89990234375
 endloop
endfacet
facet normal -0.5963563919067383 0.5991342663764954 -0.5342258214950562
 outer loop
  vertex 442500.0 5552500.0 7509.60009765625
  vertex 443500.0 5552500.0 6393.2998046875
  vertex 443500.0 5551500.0 5271.7998046875
 endloop
endfacet
facet normal -0.03332376852631569 0.7459657788276672 -0.6651500463485718
 outer loop
  vertex 443500.0 5552500.0 6393.2998046875
  vertex 444500.0 5551500.0 5221.7001953125
  vertex 443500.0 5551500.0 5271.7998046875
 endloop
endfacet
facet normal 0.1404467225074768 0.8090662956237793 -0.5706894397735596
 outer loop
  vertex 443500.0 5552500.0 6393.2998046875
  vertex 444500.0 5552500.0 6639.39990234375
  vertex 444500.0 5551500.0 5221.7001953125
 endloop
endfacet
facet normal 0.09905502200126648 0.8131470084190369 -0.5735678672790527
 outer loop
  vertex 444500.0 5552500.0 6639.39990234375
  vertex 445500.0 5551500.0 5394.39990234375
  vertex 444500.0 5551500.0 5221.7001953125
 endloop
endfacet
facet normal -0.7844950556755066 -0.01258599292486906 -0.6200072765350342
 outer loop
  vertex 444500.0 5552500.0 6639.39990234375
  vertex 445500.0 5552500.0 5374.10009765625
  vertex 445500.0 5551500.0 5394.39990234375
 endloop
endfacet
facet normal -0.48472705483436584 -0.01775188185274601 -0.8744853138923645
 outer loop
  vertex 445500.0 5552500.0 5374.10009765625
  vertex 446500.0 5551500.0 4840.10009765625
  vertex 445500.0 5551500.0 5394.39990234375
 endloop
endfacet
facet normal 0.01306048035621643 0.48113712668418884 -0.8765480518341064
 outer loop
  vertex 445500.0 5552500.0 5374.10009765625
  vertex 446500.0 5552500.0 5389.0
  vertex 446500.0 5551500.0 4840.10009765625
 endloop
endfacet
facet normal 0.16958826780319214 0.474208265542984 -0.8639249205589294
 outer loop
  vertex 446500.0 5552500.0 5389.0
  vertex 447500.0 5551500.0 5036.39990234375
  vertex 446500.0 5551500.0 4840.10009765625
 endloop
endfacet
facet normal -0.16484688222408295 0.177266463637352 -0.9702587723731995
 outer loop
  vertex 446500.0 5552500.0 5389.0
  vertex 447500.0 5552500.0 5219.10009765625
  vertex 447500.0 5551500.0 5036.39990234375
 endloop
endfacet
facet normal 0.294184148311615 0.17177219688892365 -0.9401862025260925
 outer loop
  vertex 447500.0 5552500.0 5219.10009765625
  vertex 448500.0 5551500.0 5349.2998046875
  vertex 447500.0 5551500.0 5036.39990234375
 endloop
endfacet
facet normal 0.3205401599407196 0.19999057054519653 -0.9258822202682495
 outer loop
  vertex 447500.0 5552500.0 5219.10009765625
  vertex 448500.0 5552500.0 5565.2998046875
  vertex 448500.0 5551500.0 5349.2998046875
 endloop
endfacet
facet normal 0.4126749634742737 0.1923145353794098 -0.8903450965881348
 outer loop
  vertex 448500.0 5552500.0 5565.2998046875
  vertex 449500.0 5551500.0 5812.7998046875
  vertex 448500.0 5551500.0 5349.2998046875
 endloop
endfacet
facet normal 0.24290019273757935 0.002813515719026327 -0.9700471758842468
 outer loop
  vertex 448500.0 5552500.0 5565.2998046875
  vertex 449500.0 5552500.0 5815.7001953125
  vertex 449500.0 5551500.0 5812.7998046875
 endloop
endfacet
facet normal -0.46211865544319153 0.00257210829295218 -0.8868144154548645
 outer loop
  vertex 449500.0 5552500.0 5815.7001953125
  vertex 450500.0 5551500.0 5291.7001953125
  vertex 449500.0 5551500.0 5812.7998046875
 endloop
endfacet
facet normal -0.6209611296653748 -0.22798573970794678 -0.7499530911445618
 outer loop
  vertex 449500.0 5552500.0 5815.7001953125
  vertex 450500.0 5552500.0 4987.7001953125
  vertex 450500.0 5551500.0 5291.7001953125
 endloop
endfacet
facet normal -0.3837161064147949 -0.2685922682285309 -0.8835271596908569
 outer loop
  vertex 450500.0 5552500.0 4987.7001953125
  vertex 451500.0 5551500.0 4857.39990234375
  vertex 450500.0 5551500.0 5291.7001953125
 endloop
endfacet
facet normal -0.05874894931912422 0.07099691033363342 -0.9957449436187744
 outer loop
  vertex 450500.0 5552500.0 4987.7001953125
  vertex 451500.0 5552500.0 4928.7001953125
  vertex 451500.0 5551500.0 4857.39990234375
 endloop
endfacet
facet normal 0.3593100905418396 0.06637024879455566 -0.9308551549911499
 outer loop
  vertex 451500.0 5552500.0 4928.7001953125
  vertex 452500.0 5551500.0 5243.39990234375
  vertex 451500.0 5551500.0 4857.39990234375
 endloop
endfacet
facet normal 0.5027370452880859 0.24153301119804382 -0.8300104141235352
 outer loop
  vertex 451500.0 5552500.0 4928.7001953125
  vertex 452500.0 5552500.0 5534.39990234375
  vertex 452500.0 5551500.0 5243.39990234375
 endloop
endfacet
facet normal -0.6581781506538391 0.5442599654197693 -0.5201756358146667
 outer loop
  vertex 444500.0 5553500.0 7685.7001953125
  vertex 445500.0 5552500.0 5374.10009765625
  vertex 444500.0 5552500.0 6639.39990234375
 endloop
endfacet
facet normal -0.5894490480422974 0.6166854500770569 -0.5217747092247009
 outer loop
  vertex 444500.0 5553500.0 7685.7001953125
  vertex 445500.0 5553500.0 6556.0
  vertex 445500.0 5552500.0 5374.10009765625
 endloop
endfacet
facet normal 0.009623625315725803 0.7633729577064514 -0.6458863019943237
 outer loop
  vertex 445500.0 5553500.0 6556.0
  vertex 446500.0 5552500.0 5389.0
  vertex 445500.0 5552500.0 5374.10009765625
 endloop
endfacet
facet normal -0.08579324185848236 0.7190362215042114 -0.6896567940711975
 outer loop
  vertex 445500.0 5553500.0 6556.0
  vertex 446500.0 5553500.0 6431.60009765625
  vertex 446500.0 5552500.0 5389.0
 endloop
endfacet
facet normal -0.11680123955011368 0.7167573571205139 -0.6874710321426392
 outer loop
  vertex 446500.0 5553500.0 6431.60009765625
  vertex 447500.0 5552500.0 5219.10009765625
  vertex 446500.0 5552500.0 5389.0
 endloop
endfacet
facet normal -0.18493671715259552 0.6778407096862793 -0.7115690112113953
 outer loop
  vertex 446500.0 5553500.0 6431.60009765625
  vertex 447500.0 5553500.0 6171.7001953125
  vertex 447500.0 5552500.0 5219.10009765625
 endloop
endfacet
facet normal 0.24314627051353455 0.6690391302108765 -0.7023294568061829
 outer loop
  vertex 447500.0 5553500.0 6171.7001953125
  vertex 448500.0 5552500.0 5565.2998046875
  vertex 447500.0 5552500.0 5219.10009765625
 endloop
endfacet
facet normal 0.3081311583518982 0.6992782950401306 -0.6450310945510864
 outer loop
  vertex 447500.0 5553500.0 6171.7001953125
  vertex 448500.0 5553500.0 6649.39990234375
  vertex 448500.0 5552500.0 5565.2998046875
 endloop
endfacet
facet normal 0.16738156974315643 0.7246727347373962 -0.6684555411338806
 outer loop
  vertex 448500.0 5553500.0 6649.39990234375
  vertex 449500.0 5552500.0 5815.7001953125
  vertex 448500.0 5552500.0 5565.2998046875
 endloop
endfacet
facet normal -0.7542657256126404 -0.24714386463165283 -0.6082788109779358
 outer loop
  vertex 448500.0 5553500.0 6649.39990234375
  vertex 449500.0 5553500.0 5409.39990234375
  vertex 449500.0 5552500.0 5815.7001953125
 endloop
endfacet
facet normal -0.6086484789848328 -0.29866430163383484 -0.7350826859474182
 outer loop
  vertex 449500.0 5553500.0 5409.39990234375
  vertex 450500.0 5552500.0 4987.7001953125
  vertex 449500.0 5552500.0 5815.7001953125
 endloop
endfacet
facet normal 0.011282738298177719 0.39809688925743103 -0.9172739386558533
 outer loop
  vertex 449500.0 5553500.0 5409.39990234375
  vertex 450500.0 5553500.0 5421.7001953125
  vertex 450500.0 5552500.0 4987.7001953125
 endloop
endfacet
facet normal -0.05404351279139519 0.397540420293808 -0.9159917831420898
 outer loop
  vertex 450500.0 5553500.0 5421.7001953125
  vertex 451500.0 5552500.0 4928.7001953125
  vertex 450500.0 5552500.0 4987.7001953125
 endloop
endfacet
facet normal -0.07007192075252533 0.8232896327972412 -0.5632796883583069
 outer loop
  vertex 445500.0 5554500.0 8017.60009765625
  vertex 446500.0 5553500.0 6431.60009765625
  vertex 445500.0 5553500.0 6556.0
 endloop
endfacet
facet normal -0.07596602290868759 0.8211438059806824 -0.5656430125236511
 outer loop
  vertex 445500.0 5554500.0 8017.60009765625
  vertex 446500.0 5554500.0 7883.2998046875
  vertex 446500.0 5553500.0 6431.60009765625
 endloop
endfacet
facet normal -0.14585977792739868 0.814716100692749 -0.5612152814865112
 outer loop
  vertex 446500.0 5554500.0 7883.2998046875
  vertex 447500.0 5553500.0 6171.7001953125
  vertex 446500.0 5553500.0 6431.60009765625
 endloop
endfacet
facet normal -0.43247947096824646 0.645318865776062 -0.6297023296356201
 outer loop
  vertex 446500.0 5554500.0 7883.2998046875
  vertex 447500.0 5554500.0 7196.5
  vertex 447500.0 5553500.0 6171.7001953125
 endloop
endfacet
facet normal 0.316474586725235 0.6789267659187317 -0.6624969840049744
 outer loop
  vertex 447500.0 5554500.0 7196.5
  vertex 448500.0 5553500.0 6649.39990234375
  vertex 447500.0 5553500.0 6171.7001953125
 endloop
endfacet
facet normal -0.2771386206150055 0.2328602820634842 -0.932185709476471
 outer loop
  vertex 447500.0 5554500.0 7196.5
  vertex 448500.0 5554500.0 6899.2001953125
  vertex 448500.0 5553500.0 6649.39990234375
 endloop
endfacet
facet normal -0.7690153121948242 0.1549195647239685 -0.6201736330986023
 outer loop
  vertex 448500.0 5554500.0 6899.2001953125
  vertex 449500.0 5553500.0 5409.39990234375
  vertex 448500.0 5553500.0 6649.39990234375
 endloop
endfacet
facet normal -0.34101739525794983 0.6584858894348145 -0.6708975434303284
 outer loop
  vertex 448500.0 5554500.0 6899.2001953125
  vertex 449500.0 5554500.0 6390.89990234375
  vertex 449500.0 5553500.0 5409.39990234375
 endloop
endfacet
facet normal 0.008778117597103119 0.7004474401473999 -0.7136499881744385
 outer loop
  vertex 449500.0 5554500.0 6390.89990234375
  vertex 450500.0 5553500.0 5421.7001953125
  vertex 449500.0 5553500.0 5409.39990234375
 endloop
endfacet
facet normal -0.30259984731674194 0.4898335933685303 -0.8176162838935852
 outer loop
  vertex 449500.0 5554500.0 6390.89990234375
  vertex 450500.0 5554500.0 6020.7998046875
  vertex 450500.0 5553500.0 5421.7001953125
 endloop
endfacet
endsolid
