solid
facet normal 0.5488967895507812 -0.3001927137374878 -0.7801260352134705
 outer loop
  vertex 394500.0 5572500.0 4348.2998046875
  vertex 395500.0 5572500.0 5051.89990234375
  vertex 395500.0 5571500.0 5436.7001953125
 endloop
endfacet
facet normal 0.11514312028884888 -0.356740802526474 -0.9270803928375244
 outer loop
  vertex 395500.0 5572500.0 5051.89990234375
  vertex 396500.0 5571500.0 5560.89990234375
  vertex 395500.0 5571500.0 5436.7001953125
 endloop
endfacet
facet normal 0.4011481702327728 -0.06396439671516418 -0.9137771129608154
 outer loop
  vertex 395500.0 5572500.0 5051.89990234375
  vertex 396500.0 5572500.0 5490.89990234375
  vertex 396500.0 5571500.0 5560.89990234375
 endloop
endfacet
facet normal 0.5362038016319275 -0.05894197151064873 -0.8420281410217285
 outer loop
  vertex 396500.0 5572500.0 5490.89990234375
  vertex 397500.0 5571500.0 6197.7001953125
  vertex 396500.0 5571500.0 5560.89990234375
 endloop
endfacet
facet normal 0.38722097873687744 -0.24165722727775574 -0.8897537589073181
 outer loop
  vertex 396500.0 5572500.0 5490.89990234375
  vertex 397500.0 5572500.0 5926.10009765625
  vertex 397500.0 5571500.0 6197.7001953125
 endloop
endfacet
facet normal 0.4306049048900604 0.6633495092391968 -0.6120023131370544
 outer loop
  vertex 394500.0 5573500.0 5432.2001953125
  vertex 395500.0 5572500.0 5051.89990234375
  vertex 394500.0 5572500.0 4348.2998046875
 endloop
endfacet
facet normal 0.22321154177188873 0.5334729552268982 -0.815832793712616
 outer loop
  vertex 394500.0 5573500.0 5432.2001953125
  vertex 395500.0 5573500.0 5705.7998046875
  vertex 395500.0 5572500.0 5051.89990234375
 endloop
endfacet
facet normal 0.3448783755302429 0.5137037634849548 -0.7856000065803528
 outer loop
  vertex 395500.0 5573500.0 5705.7998046875
  vertex 396500.0 5572500.0 5490.89990234375
  vertex 395500.0 5572500.0 5051.89990234375
 endloop
endfacet
facet normal -0.008324244059622288 0.20213215053081512 -0.9793229103088379
 outer loop
  vertex 395500.0 5573500.0 5705.7998046875
  vertex 396500.0 5573500.0 5697.2998046875
  vertex 396500.0 5572500.0 5490.89990234375
 endloop
endfacet
facet normal 0.3920881450176239 0.18595339357852936 -0.9009374380111694
 outer loop
  vertex 396500.0 5573500.0 5697.2998046875
  vertex 397500.0 5572500.0 5926.10009765625
  vertex 396500.0 5572500.0 5490.89990234375
 endloop
endfacet
facet normal 0.5530776977539062 0.3839007616043091 -0.7394087314605713
 outer loop
  vertex 396500.0 5573500.0 5697.2998046875
  vertex 397500.0 5573500.0 6445.2998046875
  vertex 397500.0 5572500.0 5926.10009765625
 endloop
endfacet
facet normal -0.23905621469020844 0.4474331736564636 -0.8617746829986572
 outer loop
  vertex 397500.0 5573500.0 6445.2998046875
  vertex 398500.0 5572500.0 5648.7001953125
  vertex 397500.0 5572500.0 5926.10009765625
 endloop
endfacet
facet normal -0.7876737713813782 -0.4828888475894928 -0.3826074004173279
 outer loop
  vertex 397500.0 5573500.0 6445.2998046875
  vertex 398500.0 5573500.0 4386.60009765625
  vertex 398500.0 5572500.0 5648.7001953125
 endloop
endfacet
facet normal -0.8175995349884033 -0.4512977600097656 -0.357576847076416
 outer loop
  vertex 398500.0 5573500.0 4386.60009765625
  vertex 399500.0 5572500.0 3362.199951171875
  vertex 398500.0 5572500.0 5648.7001953125
 endloop
endfacet
facet normal -0.004235192202031612 -0.8670185208320618 -0.49825790524482727
 outer loop
  vertex 395500.0 5574500.0 3965.699951171875
  vertex 396500.0 5573500.0 5697.2998046875
  vertex 395500.0 5573500.0 5705.7998046875
 endloop
endfacet
facet normal 0.8480865955352783 -0.06292234361171722 -0.5261082053184509
 outer loop
  vertex 395500.0 5574500.0 3965.699951171875
  vertex 396500.0 5574500.0 5577.7001953125
  vertex 396500.0 5573500.0 5697.2998046875
 endloop
endfacet
facet normal 0.5962463021278381 -0.09533532708883286 -0.7971207499504089
 outer loop
  vertex 396500.0 5574500.0 5577.7001953125
  vertex 397500.0 5573500.0 6445.2998046875
  vertex 396500.0 5573500.0 5697.2998046875
 endloop
endfacet
facet normal -0.3013969957828522 -0.7787460088729858 -0.550195038318634
 outer loop
  vertex 396500.0 5574500.0 5577.7001953125
  vertex 397500.0 5574500.0 5029.89990234375
  vertex 397500.0 5573500.0 6445.2998046875
 endloop
endfacet
facet normal -0.7650250792503357 -0.5259710550308228 -0.3716059625148773
 outer loop
  vertex 397500.0 5574500.0 5029.89990234375
  vertex 398500.0 5573500.0 4386.60009765625
  vertex 397500.0 5573500.0 6445.2998046875
 endloop
endfacet
facet normal -0.4674932658672333 0.09769797325134277 -0.8785813450813293
 outer loop
  vertex 397500.0 5574500.0 5029.89990234375
  vertex 398500.0 5574500.0 4497.7998046875
  vertex 398500.0 5573500.0 4386.60009765625
 endloop
endfacet
facet normal 0.8484938740730286 -0.05479408800601959 -0.5263608694076538
 outer loop
  vertex 395500.0 5575500.0 3861.60009765625
  vertex 396500.0 5574500.0 5577.7001953125
  vertex 395500.0 5574500.0 3965.699951171875
 endloop
endfacet
facet normal -0.21327760815620422 -0.8930800557136536 -0.3961321711540222
 outer loop
  vertex 395500.0 5575500.0 3861.60009765625
  vertex 396500.0 5575500.0 3323.199951171875
  vertex 396500.0 5574500.0 5577.7001953125
 endloop
endfacet
facet normal -0.2168276607990265 -0.8923654556274414 -0.3958151936531067
 outer loop
  vertex 396500.0 5575500.0 3323.199951171875
  vertex 397500.0 5574500.0 5029.89990234375
  vertex 396500.0 5574500.0 5577.7001953125
 endloop
endfacet
facet normal 0.7048422694206238 -0.34908637404441833 -0.617524266242981
 outer loop
  vertex 396500.0 5575500.0 3323.199951171875
  vertex 397500.0 5575500.0 4464.60009765625
  vertex 397500.0 5574500.0 5029.89990234375
 endloop
endfacet
facet normal -0.42030835151672363 -0.4465329349040985 -0.7899045944213867
 outer loop
  vertex 397500.0 5575500.0 4464.60009765625
  vertex 398500.0 5574500.0 4497.7998046875
  vertex 397500.0 5574500.0 5029.89990234375
 endloop
endfacet
facet normal -0.1366521716117859 -0.1690579652786255 -0.9760869145393372
 outer loop
  vertex 397500.0 5575500.0 4464.60009765625
  vertex 398500.0 5575500.0 4324.60009765625
  vertex 398500.0 5574500.0 4497.7998046875
 endloop
endfacet
facet normal -0.4740399122238159 -0.008716685697436333 -0.880460262298584
 outer loop
  vertex 395500.0 5576500.0 3851.699951171875
  vertex 396500.0 5575500.0 3323.199951171875
  vertex 395500.0 5575500.0 3861.60009765625
 endloop
endfacet
facet normal -0.4069608449935913 0.07419979572296143 -0.9104269742965698
 outer loop
  vertex 395500.0 5576500.0 3851.699951171875
  vertex 396500.0 5576500.0 3404.699951171875
  vertex 396500.0 5575500.0 3323.199951171875
 endloop
endfacet
facet normal 0.7510777711868286 0.05362960696220398 -0.6580320000648499
 outer loop
  vertex 396500.0 5576500.0 3404.699951171875
  vertex 397500.0 5575500.0 4464.60009765625
  vertex 396500.0 5575500.0 3323.199951171875
 endloop
endfacet
facet normal 0.6888355016708374 -0.07534362375736237 -0.7209916710853577
 outer loop
  vertex 396500.0 5576500.0 3404.699951171875
  vertex 397500.0 5576500.0 4360.10009765625
  vertex 397500.0 5575500.0 4464.60009765625
 endloop
endfacet
facet normal -0.13791127502918243 -0.10294091701507568 -0.9850805401802063
 outer loop
  vertex 397500.0 5576500.0 4360.10009765625
  vertex 398500.0 5575500.0 4324.60009765625
  vertex 397500.0 5575500.0 4464.60009765625
 endloop
endfacet
facet normal -0.08282019197940826 -0.047482334077358246 -0.9954327344894409
 outer loop
  vertex 397500.0 5576500.0 4360.10009765625
  vertex 398500.0 5576500.0 4276.89990234375
  vertex 398500.0 5575500.0 4324.60009765625
 endloop
endfacet
facet normal -0.6836827993392944 -0.03477108106017113 -0.7289505004882812
 outer loop
  vertex 398500.0 5576500.0 4276.89990234375
  vertex 399500.0 5575500.0 3386.699951171875
  vertex 398500.0 5575500.0 4324.60009765625
 endloop
endfacet
facet normal -0.7144498229026794 -0.09768952429294586 -0.6928334832191467
 outer loop
  vertex 398500.0 5576500.0 4276.89990234375
  vertex 399500.0 5576500.0 3245.699951171875
  vertex 399500.0 5575500.0 3386.699951171875
 endloop
endfacet
facet normal 0.5696743726730347 -0.11474869400262833 -0.8138205409049988
 outer loop
  vertex 399500.0 5576500.0 3245.699951171875
  vertex 400500.0 5575500.0 4086.699951171875
  vertex 399500.0 5575500.0 3386.699951171875
 endloop
endfacet
facet normal 0.7112846374511719 0.130404531955719 -0.6907017230987549
 outer loop
  vertex 399500.0 5576500.0 3245.699951171875
  vertex 400500.0 5576500.0 4275.5
  vertex 400500.0 5575500.0 4086.699951171875
 endloop
endfacet
facet normal 0.8177769184112549 0.10677474737167358 -0.565544068813324
 outer loop
  vertex 400500.0 5576500.0 4275.5
  vertex 401500.0 5575500.0 5532.7001953125
  vertex 400500.0 5575500.0 4086.699951171875
 endloop
endfacet
facet normal 0.6169837117195129 -0.298479825258255 -0.7281764149665833
 outer loop
  vertex 400500.0 5576500.0 4275.5
  vertex 401500.0 5576500.0 5122.7998046875
  vertex 401500.0 5575500.0 5532.7001953125
 endloop
endfacet
facet normal -0.14770321547985077 -0.375114381313324 -0.9151355028152466
 outer loop
  vertex 401500.0 5576500.0 5122.7998046875
  vertex 402500.0 5575500.0 5371.2998046875
  vertex 401500.0 5575500.0 5532.7001953125
 endloop
endfacet
facet normal 0.4842250943183899 0.27807486057281494 -0.8295784592628479
 outer loop
  vertex 401500.0 5576500.0 5122.7998046875
  vertex 402500.0 5576500.0 5706.5
  vertex 402500.0 5575500.0 5371.2998046875
 endloop
endfacet
facet normal 0.4328365623950958 0.2865062952041626 -0.8547319173812866
 outer loop
  vertex 402500.0 5576500.0 5706.5
  vertex 403500.0 5575500.0 5877.7001953125
  vertex 402500.0 5575500.0 5371.2998046875
 endloop
endfacet
facet normal -0.043941300362348557 -0.21111372113227844 -0.976473331451416
 outer loop
  vertex 402500.0 5576500.0 5706.5
  vertex 403500.0 5576500.0 5661.5
  vertex 403500.0 5575500.0 5877.7001953125
 endloop
endfacet
facet normal -0.5102934837341309 -0.00945943221449852 -0.8599483966827393
 outer loop
  vertex 394500.0 5577500.0 4434.10009765625
  vertex 395500.0 5577500.0 3840.699951171875
  vertex 395500.0 5576500.0 3851.699951171875
 endloop
endfacet
facet normal -0.40806522965431213 -0.010041873902082443 -0.9128975868225098
 outer loop
  vertex 395500.0 5577500.0 3840.699951171875
  vertex 396500.0 5576500.0 3404.699951171875
  vertex 395500.0 5576500.0 3851.699951171875
 endloop
endfacet
facet normal -0.4773203432559967 -0.09651216864585876 -0.8734132647514343
 outer loop
  vertex 395500.0 5577500.0 3840.699951171875
  vertex 396500.0 5577500.0 3294.199951171875
  vertex 396500.0 5576500.0 3404.699951171875
 endloop
endfacet
facet normal 0.6886046528816223 -0.0796428769826889 -0.7207500338554382
 outer loop
  vertex 396500.0 5577500.0 3294.199951171875
  vertex 397500.0 5576500.0 4360.10009765625
  vertex 396500.0 5576500.0 3404.699951171875
 endloop
endfacet
facet normal 0.6723251342773438 -0.1082342192530632 -0.7323006391525269
 outer loop
  vertex 396500.0 5577500.0 3294.199951171875
  vertex 397500.0 5577500.0 4212.2998046875
  vertex 397500.0 5576500.0 4360.10009765625
 endloop
endfacet
facet normal -0.08202870190143585 -0.14571918547153473 -0.9859194755554199
 outer loop
  vertex 397500.0 5577500.0 4212.2998046875
  vertex 398500.0 5576500.0 4276.89990234375
  vertex 397500.0 5576500.0 4360.10009765625
 endloop
endfacet
facet normal 0.0887221023440361 0.024396058171987534 -0.9957576394081116
 outer loop
  vertex 397500.0 5577500.0 4212.2998046875
  vertex 398500.0 5577500.0 4301.39990234375
  vertex 398500.0 5576500.0 4276.89990234375
 endloop
endfacet
facet normal -0.7177791595458984 0.017053518444299698 -0.6960620284080505
 outer loop
  vertex 398500.0 5577500.0 4301.39990234375
  vertex 399500.0 5576500.0 3245.699951171875
  vertex 398500.0 5576500.0 4276.89990234375
 endloop
endfacet
facet normal -0.7009709477424622 0.05008473992347717 -0.7114290595054626
 outer loop
  vertex 398500.0 5577500.0 4301.39990234375
  vertex 399500.0 5577500.0 3316.10009765625
  vertex 399500.0 5576500.0 3245.699951171875
 endloop
endfacet
facet normal 0.7165494561195374 0.048985421657562256 -0.6958141922950745
 outer loop
  vertex 399500.0 5577500.0 3316.10009765625
  vertex 400500.0 5576500.0 4275.5
  vertex 399500.0 5576500.0 3245.699951171875
 endloop
endfacet
facet normal 0.3586408197879791 -0.4341701567173004 -0.826361358165741
 outer loop
  vertex 399500.0 5577500.0 3316.10009765625
  vertex 400500.0 5577500.0 3750.10009765625
  vertex 400500.0 5576500.0 4275.5
 endloop
endfacet
facet normal 0.6000379323959351 -0.3720758855342865 -0.7081765532493591
 outer loop
  vertex 400500.0 5577500.0 3750.10009765625
  vertex 401500.0 5576500.0 5122.7998046875
  vertex 400500.0 5576500.0 4275.5
 endloop
endfacet
facet normal 0.6039947867393494 -0.36708003282546997 -0.7074196934700012
 outer loop
  vertex 400500.0 5577500.0 3750.10009765625
  vertex 401500.0 5577500.0 4603.89990234375
  vertex 401500.0 5576500.0 5122.7998046875
 endloop
endfacet
facet normal 0.46002548933029175 -0.40895509719848633 -0.7881194353103638
 outer loop
  vertex 401500.0 5577500.0 4603.89990234375
  vertex 402500.0 5576500.0 5706.5
  vertex 401500.0 5576500.0 5122.7998046875
 endloop
endfacet
facet normal 0.18672683835029602 -0.6374716758728027 -0.747504472732544
 outer loop
  vertex 401500.0 5577500.0 4603.89990234375
  vertex 402500.0 5577500.0 4853.7001953125
  vertex 402500.0 5576500.0 5706.5
 endloop
endfacet
facet normal -0.03421986475586891 -0.6485043168067932 -0.7604414820671082
 outer loop
  vertex 402500.0 5577500.0 4853.7001953125
  vertex 403500.0 5576500.0 5661.5
  vertex 402500.0 5576500.0 5706.5
 endloop
endfacet
facet normal 0.4681102931499481 -0.22268162667751312 -0.8551523685455322
 outer loop
  vertex 402500.0 5577500.0 4853.7001953125
  vertex 403500.0 5577500.0 5401.10009765625
  vertex 403500.0 5576500.0 5661.5
 endloop
endfacet
facet normal -0.14296983182430267 -0.09330986440181732 -0.985318660736084
 outer loop
  vertex 392500.0 5578500.0 4747.0
  vertex 393500.0 5578500.0 4601.89990234375
  vertex 393500.0 5577500.0 4696.60009765625
 endloop
endfacet
facet normal -0.25283968448638916 -0.0912151113152504 -0.9631987810134888
 outer loop
  vertex 393500.0 5578500.0 4601.89990234375
  vertex 394500.0 5577500.0 4434.10009765625
  vertex 393500.0 5577500.0 4696.60009765625
 endloop
endfacet
facet normal -0.17742536962032318 -0.012300717644393444 -0.9840574264526367
 outer loop
  vertex 393500.0 5578500.0 4601.89990234375
  vertex 394500.0 5578500.0 4421.60009765625
  vertex 394500.0 5577500.0 4434.10009765625
 endloop
endfacet
facet normal -0.510286808013916 -0.0107492133975029 -0.8599370718002319
 outer loop
  vertex 394500.0 5578500.0 4421.60009765625
  vertex 395500.0 5577500.0 3840.699951171875
  vertex 394500.0 5577500.0 4434.10009765625
 endloop
endfacet
facet normal 0.028363635763525963 0.5231544971466064 -0.8517658114433289
 outer loop
  vertex 394500.0 5578500.0 4421.60009765625
  vertex 395500.0 5578500.0 4454.89990234375
  vertex 395500.0 5577500.0 3840.699951171875
 endloop
endfacet
facet normal -0.4221488833427429 0.47444427013397217 -0.7724589705467224
 outer loop
  vertex 395500.0 5578500.0 4454.89990234375
  vertex 396500.0 5577500.0 3294.199951171875
  vertex 395500.0 5577500.0 3840.699951171875
 endloop
endfacet
facet normal -0.3249489963054657 0.5597999095916748 -0.7622545957565308
 outer loop
  vertex 395500.0 5578500.0 4454.89990234375
  vertex 396500.0 5578500.0 4028.60009765625
  vertex 396500.0 5577500.0 3294.199951171875
 endloop
endfacet
facet normal 0.5948345065116882 0.47581592202186584 -0.6478974223136902
 outer loop
  vertex 396500.0 5578500.0 4028.60009765625
  vertex 397500.0 5577500.0 4212.2998046875
  vertex 396500.0 5577500.0 3294.199951171875
 endloop
endfacet
facet normal -0.4472027122974396 -0.5733172297477722 -0.6865254044532776
 outer loop
  vertex 396500.0 5578500.0 4028.60009765625
  vertex 397500.0 5578500.0 3377.199951171875
  vertex 397500.0 5577500.0 4212.2998046875
 endloop
endfacet
facet normal 0.06822973489761353 -0.63949054479599 -0.7657653093338013
 outer loop
  vertex 397500.0 5578500.0 3377.199951171875
  vertex 398500.0 5577500.0 4301.39990234375
  vertex 397500.0 5577500.0 4212.2998046875
 endloop
endfacet
facet normal -0.015619083307683468 -0.6870216727256775 -0.7264689803123474
 outer loop
  vertex 397500.0 5578500.0 3377.199951171875
  vertex 398500.0 5578500.0 3355.699951171875
  vertex 398500.0 5577500.0 4301.39990234375
 endloop
endfacet
facet normal -0.5820947289466858 -0.5586999654769897 -0.5907793045043945
 outer loop
  vertex 398500.0 5578500.0 3355.699951171875
  vertex 399500.0 5577500.0 3316.10009765625
  vertex 398500.0 5577500.0 4301.39990234375
 endloop
endfacet
facet normal -0.0016987291164696217 0.03787265345454216 -0.9992811679840088
 outer loop
  vertex 398500.0 5578500.0 3355.699951171875
  vertex 399500.0 5578500.0 3354.0
  vertex 399500.0 5577500.0 3316.10009765625
 endloop
endfacet
facet normal 0.3978818356990814 0.03474581241607666 -0.9167783856391907
 outer loop
  vertex 399500.0 5578500.0 3354.0
  vertex 400500.0 5577500.0 3750.10009765625
  vertex 399500.0 5577500.0 3316.10009765625
 endloop
endfacet
facet normal -0.10170062631368637 -0.45260313153266907 -0.8858935832977295
 outer loop
  vertex 399500.0 5578500.0 3354.0
  vertex 400500.0 5578500.0 3239.199951171875
  vertex 400500.0 5577500.0 3750.10009765625
 endloop
endfacet
facet normal 0.6052436828613281 -0.3621681332588196 -0.7088823914527893
 outer loop
  vertex 400500.0 5578500.0 3239.199951171875
  vertex 401500.0 5577500.0 4603.89990234375
  vertex 400500.0 5577500.0 3750.10009765625
 endloop
endfacet
facet normal 0.6363663077354431 -0.3209189176559448 -0.7014620304107666
 outer loop
  vertex 400500.0 5578500.0 3239.199951171875
  vertex 401500.0 5578500.0 4146.39990234375
  vertex 401500.0 5577500.0 4603.89990234375
 endloop
endfacet
facet normal 0.22151316702365875 -0.4056931436061859 -0.886760950088501
 outer loop
  vertex 401500.0 5578500.0 4146.39990234375
  vertex 402500.0 5577500.0 4853.7001953125
  vertex 401500.0 5577500.0 4603.89990234375
 endloop
endfacet
facet normal 0.1959475427865982 -0.42806729674339294 -0.8822488188743591
 outer loop
  vertex 401500.0 5578500.0 4146.39990234375
  vertex 402500.0 5578500.0 4368.5
  vertex 402500.0 5577500.0 4853.7001953125
 endloop
endfacet
facet normal 0.4418157935142517 -0.39161330461502075 -0.8071169853210449
 outer loop
  vertex 402500.0 5578500.0 4368.5
  vertex 403500.0 5577500.0 5401.10009765625
  vertex 402500.0 5577500.0 4853.7001953125
 endloop
endfacet
facet normal 0.3746538758277893 -0.45785629749298096 -0.8062270283699036
 outer loop
  vertex 402500.0 5578500.0 4368.5
  vertex 403500.0 5578500.0 4833.2001953125
  vertex 403500.0 5577500.0 5401.10009765625
 endloop
endfacet
facet normal 0.4061298668384552 -0.45126402378082275 -0.7946190237998962
 outer loop
  vertex 403500.0 5578500.0 4833.2001953125
  vertex 404500.0 5577500.0 5912.2001953125
  vertex 403500.0 5577500.0 5401.10009765625
 endloop
endfacet
facet normal 0.6598042845726013 -0.1373395174741745 -0.73878014087677
 outer loop
  vertex 403500.0 5578500.0 4833.2001953125
  vertex 404500.0 5578500.0 5726.2998046875
  vertex 404500.0 5577500.0 5912.2001953125
 endloop
endfacet
facet normal -0.1384766697883606 -0.26464179158210754 -0.954352617263794
 outer loop
  vertex 392500.0 5579500.0 4469.7001953125
  vertex 393500.0 5578500.0 4601.89990234375
  vertex 392500.0 5578500.0 4747.0
 endloop
endfacet
facet normal -0.008021276444196701 -0.13893455266952515 -0.9902690649032593
 outer loop
  vertex 392500.0 5579500.0 4469.7001953125
  vertex 393500.0 5579500.0 4461.60009765625
  vertex 393500.0 5578500.0 4601.89990234375
 endloop
endfacet
facet normal -0.17577122151851654 -0.1367758959531784 -0.9748830199241638
 outer loop
  vertex 393500.0 5579500.0 4461.60009765625
  vertex 394500.0 5578500.0 4421.60009765625
  vertex 393500.0 5578500.0 4601.89990234375
 endloop
endfacet
facet normal -0.25289005041122437 -0.2151593565940857 -0.943267285823822
 outer loop
  vertex 393500.0 5579500.0 4461.60009765625
  vertex 394500.0 5579500.0 4193.5
  vertex 394500.0 5578500.0 4421.60009765625
 endloop
endfacet
facet normal 0.03244882822036743 -0.22227095067501068 -0.9744448065757751
 outer loop
  vertex 394500.0 5579500.0 4193.5
  vertex 395500.0 5578500.0 4454.89990234375
  vertex 394500.0 5578500.0 4421.60009765625
 endloop
endfacet
facet normal 0.1310786008834839 -0.12596553564071655 -0.9833367466926575
 outer loop
  vertex 394500.0 5579500.0 4193.5
  vertex 395500.0 5579500.0 4326.7998046875
  vertex 395500.0 5578500.0 4454.89990234375
 endloop
endfacet
facet normal -0.38945844769477844 -0.11702952533960342 -0.9135787487030029
 outer loop
  vertex 395500.0 5579500.0 4326.7998046875
  vertex 396500.0 5578500.0 4028.60009765625
  vertex 395500.0 5578500.0 4454.89990234375
 endloop
endfacet
facet normal -0.5216493606567383 -0.281482994556427 -0.8053877353668213
 outer loop
  vertex 395500.0 5579500.0 4326.7998046875
  vertex 396500.0 5579500.0 3679.10009765625
  vertex 396500.0 5578500.0 4028.60009765625
 endloop
endfacet
facet normal -0.5238136053085327 -0.28104516863822937 -0.8041349649429321
 outer loop
  vertex 396500.0 5579500.0 3679.10009765625
  vertex 397500.0 5578500.0 3377.199951171875
  vertex 396500.0 5578500.0 4028.60009765625
 endloop
endfacet
facet normal -0.3535623848438263 -0.0719994381070137 -0.9326359629631042
 outer loop
  vertex 396500.0 5579500.0 3679.10009765625
  vertex 397500.0 5579500.0 3300.0
  vertex 397500.0 5578500.0 3377.199951171875
 endloop
endfacet
facet normal -0.021431293338537216 -0.07695324718952179 -0.9968043565750122
 outer loop
  vertex 397500.0 5579500.0 3300.0
  vertex 398500.0 5578500.0 3355.699951171875
  vertex 397500.0 5578500.0 3377.199951171875
 endloop
endfacet
facet normal 0.018883749842643738 -0.0367686003446579 -0.9991453289985657
 outer loop
  vertex 397500.0 5579500.0 3300.0
  vertex 398500.0 5579500.0 3318.89990234375
  vertex 398500.0 5578500.0 3355.699951171875
 endloop
endfacet
facet normal -0.001698796870186925 -0.036775100976228714 -0.9993221759796143
 outer loop
  vertex 398500.0 5579500.0 3318.89990234375
  vertex 399500.0 5578500.0 3354.0
  vertex 398500.0 5578500.0 3355.699951171875
 endloop
endfacet
facet normal -0.07785959541797638 -0.11262911558151245 -0.9905819296836853
 outer loop
  vertex 398500.0 5579500.0 3318.89990234375
  vertex 399500.0 5579500.0 3240.300048828125
  vertex 399500.0 5578500.0 3354.0
 endloop
endfacet
facet normal -0.11333023756742477 -0.11224422603845596 -0.9871968030929565
 outer loop
  vertex 399500.0 5579500.0 3240.300048828125
  vertex 400500.0 5578500.0 3239.199951171875
  vertex 399500.0 5578500.0 3354.0
 endloop
endfacet
facet normal -0.0009001460857689381 0.0001999510859604925 -0.9999995827674866
 outer loop
  vertex 399500.0 5579500.0 3240.300048828125
  vertex 400500.0 5579500.0 3239.39990234375
  vertex 400500.0 5578500.0 3239.199951171875
 endloop
endfacet
facet normal 0.6719056367874146 0.00014809118874836713 -0.7406367659568787
 outer loop
  vertex 400500.0 5579500.0 3239.39990234375
  vertex 401500.0 5578500.0 4146.39990234375
  vertex 400500.0 5578500.0 3239.199951171875
 endloop
endfacet
facet normal 0.6562430262565613 -0.027673106640577316 -0.7540420293807983
 outer loop
  vertex 400500.0 5579500.0 3239.39990234375
  vertex 401500.0 5579500.0 4109.7001953125
  vertex 401500.0 5578500.0 4146.39990234375
 endloop
endfacet
facet normal 0.21667784452438354 -0.03580373525619507 -0.9755863547325134
 outer loop
  vertex 401500.0 5579500.0 4109.7001953125
  vertex 402500.0 5578500.0 4368.5
  vertex 401500.0 5578500.0 4146.39990234375
 endloop
endfacet
facet normal 0.22489731013774872 -0.027174605056643486 -0.9740034937858582
 outer loop
  vertex 401500.0 5579500.0 4109.7001953125
  vertex 402500.0 5579500.0 4340.60009765625
  vertex 402500.0 5578500.0 4368.5
 endloop
endfacet
facet normal 0.4212856888771057 -0.025293361395597458 -0.9065752625465393
 outer loop
  vertex 402500.0 5579500.0 4340.60009765625
  vertex 403500.0 5578500.0 4833.2001953125
  vertex 402500.0 5578500.0 4368.5
 endloop
endfacet
facet normal 0.5335891842842102 0.12128160148859024 -0.8370026350021362
 outer loop
  vertex 402500.0 5579500.0 4340.60009765625
  vertex 403500.0 5579500.0 4978.10009765625
  vertex 403500.0 5578500.0 4833.2001953125
 endloop
endfacet
facet normal 0.662260115146637 0.10744761675596237 -0.7415299415588379
 outer loop
  vertex 403500.0 5579500.0 4978.10009765625
  vertex 404500.0 5578500.0 5726.2998046875
  vertex 403500.0 5578500.0 4833.2001953125
 endloop
endfacet
facet normal 0.6384254693984985 0.06457898765802383 -0.7669696807861328
 outer loop
  vertex 403500.0 5579500.0 4978.10009765625
  vertex 404500.0 5579500.0 5810.5
  vertex 404500.0 5578500.0 5726.2998046875
 endloop
endfacet
facet normal 0.0600786916911602 0.08375173807144165 -0.9946739077568054
 outer loop
  vertex 404500.0 5579500.0 5810.5
  vertex 405500.0 5578500.0 5786.7001953125
  vertex 404500.0 5578500.0 5726.2998046875
 endloop
endfacet
facet normal 0.09091285616159439 0.11445704102516174 -0.9892595410346985
 outer loop
  vertex 404500.0 5579500.0 5810.5
  vertex 405500.0 5579500.0 5902.39990234375
  vertex 405500.0 5578500.0 5786.7001953125
 endloop
endfacet
facet normal -0.2589406967163086 0.010527516715228558 -0.9658358693122864
 outer loop
  vertex 393500.0 5580500.0 4472.5
  vertex 394500.0 5579500.0 4193.5
  vertex 393500.0 5579500.0 4461.60009765625
 endloop
endfacet
facet normal -0.44005313515663147 -0.19553053379058838 -0.8764251470565796
 outer loop
  vertex 393500.0 5580500.0 4472.5
  vertex 394500.0 5580500.0 3970.39990234375
  vertex 394500.0 5579500.0 4193.5
 endloop
endfacet
facet normal 0.1290140300989151 -0.2159271091222763 -0.967848539352417
 outer loop
  vertex 394500.0 5580500.0 3970.39990234375
  vertex 395500.0 5579500.0 4326.7998046875
  vertex 394500.0 5579500.0 4193.5
 endloop
endfacet
facet normal -0.13702991604804993 -0.45129939913749695 -0.8817889094352722
 outer loop
  vertex 394500.0 5580500.0 3970.39990234375
  vertex 395500.0 5580500.0 3815.0
  vertex 395500.0 5579500.0 4326.7998046875
 endloop
endfacet
facet normal -0.49949511885643005 -0.3946913778781891 -0.7711831331253052
 outer loop
  vertex 395500.0 5580500.0 3815.0
  vertex 396500.0 5579500.0 3679.10009765625
  vertex 395500.0 5579500.0 4326.7998046875
 endloop
endfacet
facet normal -0.2652817964553833 -0.13555245101451874 -0.9545947313308716
 outer loop
  vertex 395500.0 5580500.0 3815.0
  vertex 396500.0 5580500.0 3537.10009765625
  vertex 396500.0 5579500.0 3679.10009765625
 endloop
endfacet
facet normal -0.3513982594013214 -0.13162370026111603 -0.926927387714386
 outer loop
  vertex 396500.0 5580500.0 3537.10009765625
  vertex 397500.0 5579500.0 3300.0
  vertex 396500.0 5579500.0 3679.10009765625
 endloop
endfacet
facet normal -0.04493888095021248 0.18770308792591095 -0.9811972379684448
 outer loop
  vertex 396500.0 5580500.0 3537.10009765625
  vertex 397500.0 5580500.0 3491.300048828125
  vertex 397500.0 5579500.0 3300.0
 endloop
endfacet
facet normal 0.01856009103357792 0.18786053359508514 -0.9820203185081482
 outer loop
  vertex 397500.0 5580500.0 3491.300048828125
  vertex 398500.0 5579500.0 3318.89990234375
  vertex 397500.0 5579500.0 3300.0
 endloop
endfacet
facet normal -0.00019705093291122466 0.1697024703025818 -0.9854952692985535
 outer loop
  vertex 397500.0 5580500.0 3491.300048828125
  vertex 398500.0 5580500.0 3491.10009765625
  vertex 398500.0 5579500.0 3318.89990234375
 endloop
endfacet
facet normal -0.07722845673561096 0.16919565200805664 -0.9825521111488342
 outer loop
  vertex 398500.0 5580500.0 3491.10009765625
  vertex 399500.0 5579500.0 3240.300048828125
  vertex 398500.0 5579500.0 3318.89990234375
 endloop
endfacet
facet normal -0.13104765117168427 0.11588498204946518 -0.9845796823501587
 outer loop
  vertex 398500.0 5580500.0 3491.10009765625
  vertex 399500.0 5580500.0 3358.0
  vertex 399500.0 5579500.0 3240.300048828125
 endloop
endfacet
facet normal -0.0008939693216234446 0.11689300835132599 -0.9931440949440002
 outer loop
  vertex 399500.0 5580500.0 3358.0
  vertex 400500.0 5579500.0 3239.39990234375
  vertex 399500.0 5579500.0 3240.300048828125
 endloop
endfacet
facet normal -0.0704435482621193 0.047726426273584366 -0.9963734149932861
 outer loop
  vertex 399500.0 5580500.0 3358.0
  vertex 400500.0 5580500.0 3287.300048828125
  vertex 400500.0 5579500.0 3239.39990234375
 endloop
endfacet
facet normal 0.6560662388801575 0.03610900044441223 -0.7538389563560486
 outer loop
  vertex 400500.0 5580500.0 3287.300048828125
  vertex 401500.0 5579500.0 4109.7001953125
  vertex 400500.0 5579500.0 3239.39990234375
 endloop
endfacet
facet normal 0.5305557250976562 0.1608726680278778 -0.832244336605072
 outer loop
  vertex 402500.0 5580500.0 4533.89990234375
  vertex 403500.0 5579500.0 4978.10009765625
  vertex 402500.0 5579500.0 4340.60009765625
 endloop
endfacet
facet normal 0.055920880287885666 -0.3580802083015442 -0.9320146441459656
 outer loop
  vertex 402500.0 5580500.0 4533.89990234375
  vertex 403500.0 5580500.0 4593.89990234375
  vertex 403500.0 5579500.0 4978.10009765625
 endloop
endfacet
facet normal 0.6135700941085815 -0.28319770097732544 -0.7371097207069397
 outer loop
  vertex 403500.0 5580500.0 4593.89990234375
  vertex 404500.0 5579500.0 5810.5
  vertex 403500.0 5579500.0 4978.10009765625
 endloop
endfacet
facet normal 0.3673878014087677 -0.5473971962928772 -0.7519192099571228
 outer loop
  vertex 403500.0 5580500.0 4593.89990234375
  vertex 404500.0 5580500.0 5082.5
  vertex 404500.0 5579500.0 5810.5
 endloop
endfacet
facet normal 0.0740928128361702 -0.5869384407997131 -0.8062341213226318
 outer loop
  vertex 404500.0 5580500.0 5082.5
  vertex 405500.0 5579500.0 5902.39990234375
  vertex 404500.0 5579500.0 5810.5
 endloop
endfacet
facet normal 0.5077701807022095 -0.1825309544801712 -0.8419334292411804
 outer loop
  vertex 404500.0 5580500.0 5082.5
  vertex 405500.0 5580500.0 5685.60009765625
  vertex 405500.0 5579500.0 5902.39990234375
 endloop
endfacet
facet normal -0.1420128345489502 -0.20973020792007446 -0.9673911333084106
 outer loop
  vertex 405500.0 5580500.0 5685.60009765625
  vertex 406500.0 5579500.0 5755.60009765625
  vertex 405500.0 5579500.0 5902.39990234375
 endloop
endfacet
facet normal -0.14023850858211517 0.40735962986946106 -0.9024362564086914
 outer loop
  vertex 394500.0 5581500.0 4421.7998046875
  vertex 395500.0 5580500.0 3815.0
  vertex 394500.0 5580500.0 3970.39990234375
 endloop
endfacet
facet normal -0.453237920999527 0.08518178761005402 -0.887310266494751
 outer loop
  vertex 394500.0 5581500.0 4421.7998046875
  vertex 395500.0 5581500.0 3911.0
  vertex 395500.0 5580500.0 3815.0
 endloop
endfacet
facet normal -0.26661503314971924 0.09210166335105896 -0.9593923687934875
 outer loop
  vertex 395500.0 5581500.0 3911.0
  vertex 396500.0 5580500.0 3537.10009765625
  vertex 395500.0 5580500.0 3815.0
 endloop
endfacet
facet normal -0.3593534529209137 -0.01045137643814087 -0.9331429600715637
 outer loop
  vertex 395500.0 5581500.0 3911.0
  vertex 396500.0 5581500.0 3525.89990234375
  vertex 396500.0 5580500.0 3537.10009765625
 endloop
endfacet
facet normal -0.04574922099709511 -0.011187766678631306 -0.9988902807235718
 outer loop
  vertex 396500.0 5581500.0 3525.89990234375
  vertex 397500.0 5580500.0 3491.300048828125
  vertex 396500.0 5580500.0 3537.10009765625
 endloop
endfacet
facet normal -0.12498146295547485 -0.09079695492982864 -0.9879957437515259
 outer loop
  vertex 396500.0 5581500.0 3525.89990234375
  vertex 397500.0 5581500.0 3399.39990234375
  vertex 397500.0 5580500.0 3491.300048828125
 endloop
endfacet
facet normal -0.00019911407434847206 -0.09151451289653778 -0.9958037734031677
 outer loop
  vertex 397500.0 5581500.0 3399.39990234375
  vertex 398500.0 5580500.0 3491.10009765625
  vertex 397500.0 5580500.0 3491.300048828125
 endloop
endfacet
facet normal -0.04915095120668411 -0.13983820378780365 -0.988953709602356
 outer loop
  vertex 397500.0 5581500.0 3399.39990234375
  vertex 398500.0 5581500.0 3349.699951171875
  vertex 398500.0 5580500.0 3491.10009765625
 endloop
endfacet
facet normal -0.1306593418121338 -0.13880717754364014 -0.9816622138023376
 outer loop
  vertex 398500.0 5581500.0 3349.699951171875
  vertex 399500.0 5580500.0 3358.0
  vertex 398500.0 5580500.0 3491.10009765625
 endloop
endfacet
facet normal 0.002900092164054513 -0.005399801302701235 -0.9999812245368958
 outer loop
  vertex 398500.0 5581500.0 3349.699951171875
  vertex 399500.0 5581500.0 3352.60009765625
  vertex 399500.0 5580500.0 3358.0
 endloop
endfacet
facet normal -0.07052288949489594 -0.005386378616094589 -0.9974955916404724
 outer loop
  vertex 399500.0 5581500.0 3352.60009765625
  vertex 400500.0 5580500.0 3287.300048828125
  vertex 399500.0 5580500.0 3358.0
 endloop
endfacet
facet normal -0.017976993694901466 0.04723959043622017 -0.9987218379974365
 outer loop
  vertex 399500.0 5581500.0 3352.60009765625
  vertex 400500.0 5581500.0 3334.60009765625
  vertex 400500.0 5580500.0 3287.300048828125
 endloop
endfacet
facet normal -0.12398400157690048 -0.15495535731315613 -0.9801105856895447
 outer loop
  vertex 396500.0 5582500.0 3367.800048828125
  vertex 397500.0 5581500.0 3399.39990234375
  vertex 396500.0 5581500.0 3525.89990234375
 endloop
endfacet
facet normal -0.05441664159297943 -0.08585283160209656 -0.9948206543922424
 outer loop
  vertex 396500.0 5582500.0 3367.800048828125
  vertex 397500.0 5582500.0 3313.10009765625
  vertex 397500.0 5581500.0 3399.39990234375
 endloop
endfacet
facet normal -0.04945531487464905 -0.0858750119805336 -0.9950777292251587
 outer loop
  vertex 397500.0 5582500.0 3313.10009765625
  vertex 398500.0 5581500.0 3349.699951171875
  vertex 397500.0 5581500.0 3399.39990234375
 endloop
endfacet
facet normal 0.02758823148906231 -0.00899620819836855 -0.9995789527893066
 outer loop
  vertex 397500.0 5582500.0 3313.10009765625
  vertex 398500.0 5582500.0 3340.699951171875
  vertex 398500.0 5581500.0 3349.699951171875
 endloop
endfacet
facet normal 0.0029000169597566128 -0.00899959821254015 -0.9999552965164185
 outer loop
  vertex 398500.0 5582500.0 3340.699951171875
  vertex 399500.0 5581500.0 3352.60009765625
  vertex 398500.0 5581500.0 3349.699951171875
 endloop
endfacet
facet normal -0.00419937027618289 -0.016097869724035263 -0.9998616576194763
 outer loop
  vertex 398500.0 5582500.0 3340.699951171875
  vertex 399500.0 5582500.0 3336.5
  vertex 399500.0 5581500.0 3352.60009765625
 endloop
endfacet
facet normal -0.017994754016399384 -0.01609540544450283 -0.9997085332870483
 outer loop
  vertex 399500.0 5582500.0 3336.5
  vertex 400500.0 5581500.0 3334.60009765625
  vertex 399500.0 5581500.0 3352.60009765625
 endloop
endfacet
facet normal 0.027580874040722847 0.024782750755548477 -0.9993123412132263
 outer loop
  vertex 397500.0 5583500.0 3337.89990234375
  vertex 398500.0 5582500.0 3340.699951171875
  vertex 397500.0 5582500.0 3313.10009765625
 endloop
endfacet
facet normal -0.019790874794125557 -0.022589659318327904 -0.9995489716529846
 outer loop
  vertex 397500.0 5583500.0 3337.89990234375
  vertex 398500.0 5583500.0 3318.10009765625
  vertex 398500.0 5582500.0 3340.699951171875
 endloop
endfacet
facet normal -0.004198841750621796 -0.02259388379752636 -0.9997358918190002
 outer loop
  vertex 398500.0 5583500.0 3318.10009765625
  vertex 399500.0 5582500.0 3336.5
  vertex 398500.0 5582500.0 3340.699951171875
 endloop
endfacet
endsolid
