solid
facet normal -0.017906812950968742 0.31938719749450684 -0.947455108165741
 outer loop
  vertex 452500.0 5539500.0 3845.800048828125
  vertex 453500.0 5538500.0 3489.800048828125
  vertex 452500.0 5538500.0 3508.699951171875
 endloop
endfacet
facet normal 0.08549429476261139 0.40893760323524475 -0.9085486531257629
 outer loop
  vertex 452500.0 5539500.0 3845.800048828125
  vertex 453500.0 5539500.0 3939.89990234375
  vertex 453500.0 5538500.0 3489.800048828125
 endloop
endfacet
facet normal -0.23527096211910248 -0.03234715387225151 -0.9713914394378662
 outer loop
  vertex 454500.0 5539500.0 3908.300048828125
  vertex 455500.0 5539500.0 3666.10009765625
  vertex 455500.0 5538500.0 3699.39990234375
 endloop
endfacet
facet normal -0.151061549782753 -0.03289943188428879 -0.9879767298698425
 outer loop
  vertex 455500.0 5539500.0 3666.10009765625
  vertex 456500.0 5538500.0 3546.5
  vertex 455500.0 5538500.0 3699.39990234375
 endloop
endfacet
facet normal -0.00914425402879715 0.1097286120057106 -0.9939194917678833
 outer loop
  vertex 455500.0 5539500.0 3666.10009765625
  vertex 456500.0 5539500.0 3656.89990234375
  vertex 456500.0 5538500.0 3546.5
 endloop
endfacet
facet normal 0.007752717472612858 0.10972990840673447 -0.9939311742782593
 outer loop
  vertex 456500.0 5539500.0 3656.89990234375
  vertex 457500.0 5538500.0 3554.300048828125
  vertex 456500.0 5538500.0 3546.5
 endloop
endfacet
facet normal -0.07476163655519485 0.027512134984135628 -0.9968218207359314
 outer loop
  vertex 456500.0 5539500.0 3656.89990234375
  vertex 457500.0 5539500.0 3581.89990234375
  vertex 457500.0 5538500.0 3554.300048828125
 endloop
endfacet
facet normal 0.09364934265613556 0.027965322136878967 -0.9952124357223511
 outer loop
  vertex 452500.0 5540500.0 3873.89990234375
  vertex 453500.0 5539500.0 3939.89990234375
  vertex 452500.0 5539500.0 3845.800048828125
 endloop
endfacet
facet normal 0.050728779286146164 -0.015178629197180271 -0.9985970854759216
 outer loop
  vertex 452500.0 5540500.0 3873.89990234375
  vertex 453500.0 5540500.0 3924.699951171875
  vertex 453500.0 5539500.0 3939.89990234375
 endloop
endfacet
facet normal -0.03158044442534447 -0.015190614387392998 -0.9993857741355896
 outer loop
  vertex 453500.0 5540500.0 3924.699951171875
  vertex 454500.0 5539500.0 3908.300048828125
  vertex 453500.0 5539500.0 3939.89990234375
 endloop
endfacet
facet normal 0.011794539168477058 0.02818678505718708 -0.9995331168174744
 outer loop
  vertex 453500.0 5540500.0 3924.699951171875
  vertex 454500.0 5540500.0 3936.5
  vertex 454500.0 5539500.0 3908.300048828125
 endloop
endfacet
facet normal -0.2353057712316513 0.027397245168685913 -0.9715351462364197
 outer loop
  vertex 454500.0 5540500.0 3936.5
  vertex 455500.0 5539500.0 3666.10009765625
  vertex 454500.0 5539500.0 3908.300048828125
 endloop
endfacet
facet normal -0.06117599457502365 0.20307251811027527 -0.9772507548332214
 outer loop
  vertex 454500.0 5540500.0 3936.5
  vertex 455500.0 5540500.0 3873.89990234375
  vertex 455500.0 5539500.0 3666.10009765625
 endloop
endfacet
facet normal -0.009007396176457405 0.20344534516334534 -0.9790449142456055
 outer loop
  vertex 455500.0 5540500.0 3873.89990234375
  vertex 456500.0 5539500.0 3656.89990234375
  vertex 455500.0 5539500.0 3666.10009765625
 endloop
endfacet
facet normal -0.15405090153217316 0.059963539242744446 -0.9862416982650757
 outer loop
  vertex 455500.0 5540500.0 3873.89990234375
  vertex 456500.0 5540500.0 3717.699951171875
  vertex 456500.0 5539500.0 3656.89990234375
 endloop
endfacet
facet normal -0.07465286552906036 0.06051863357424736 -0.9953715205192566
 outer loop
  vertex 456500.0 5540500.0 3717.699951171875
  vertex 457500.0 5539500.0 3581.89990234375
  vertex 456500.0 5539500.0 3656.89990234375
 endloop
endfacet
facet normal -0.13767565786838531 -0.00316946511156857 -0.9904723167419434
 outer loop
  vertex 456500.0 5540500.0 3717.699951171875
  vertex 457500.0 5540500.0 3578.699951171875
  vertex 457500.0 5539500.0 3581.89990234375
 endloop
endfacet
facet normal -0.03487848863005638 -0.0031979877967387438 -0.9993864297866821
 outer loop
  vertex 457500.0 5540500.0 3578.699951171875
  vertex 458500.0 5539500.0 3547.0
  vertex 457500.0 5539500.0 3581.89990234375
 endloop
endfacet
facet normal -0.0015991271939128637 0.03008643351495266 -0.9995459914207458
 outer loop
  vertex 457500.0 5540500.0 3578.699951171875
  vertex 458500.0 5540500.0 3577.10009765625
  vertex 458500.0 5539500.0 3547.0
 endloop
endfacet
facet normal 0.05070039629936218 0.03672785684466362 -0.9980383515357971
 outer loop
  vertex 452500.0 5541500.0 3910.699951171875
  vertex 453500.0 5540500.0 3924.699951171875
  vertex 452500.0 5540500.0 3873.89990234375
 endloop
endfacet
facet normal 0.038958217948675156 0.024973217397928238 -0.9989287257194519
 outer loop
  vertex 452500.0 5541500.0 3910.699951171875
  vertex 453500.0 5541500.0 3949.699951171875
  vertex 453500.0 5540500.0 3924.699951171875
 endloop
endfacet
facet normal 0.01179554220288992 0.024990452453494072 -0.9996181130409241
 outer loop
  vertex 453500.0 5541500.0 3949.699951171875
  vertex 454500.0 5540500.0 3936.5
  vertex 453500.0 5540500.0 3924.699951171875
 endloop
endfacet
facet normal 0.19718042016029358 0.20982135832309723 -0.9576507210731506
 outer loop
  vertex 453500.0 5541500.0 3949.699951171875
  vertex 454500.0 5541500.0 4155.60009765625
  vertex 454500.0 5540500.0 3936.5
 endloop
endfacet
facet normal -0.06103555113077164 0.21362419426441193 -0.9750073552131653
 outer loop
  vertex 454500.0 5541500.0 4155.60009765625
  vertex 455500.0 5540500.0 3873.89990234375
  vertex 454500.0 5540500.0 3936.5
 endloop
endfacet
facet normal -0.3083157539367676 -0.040582817047834396 -0.9504179954528809
 outer loop
  vertex 454500.0 5541500.0 4155.60009765625
  vertex 455500.0 5541500.0 3831.199951171875
  vertex 455500.0 5540500.0 3873.89990234375
 endloop
endfacet
facet normal -0.15419144928455353 -0.04215089604258537 -0.987141489982605
 outer loop
  vertex 455500.0 5541500.0 3831.199951171875
  vertex 456500.0 5540500.0 3717.699951171875
  vertex 455500.0 5540500.0 3873.89990234375
 endloop
endfacet
facet normal 0.08908789604902267 0.19983786344528198 -0.9757705926895142
 outer loop
  vertex 455500.0 5541500.0 3831.199951171875
  vertex 456500.0 5541500.0 3922.5
  vertex 456500.0 5540500.0 3717.699951171875
 endloop
endfacet
facet normal -0.13492833077907562 0.19880089163780212 -0.9707072973251343
 outer loop
  vertex 456500.0 5541500.0 3922.5
  vertex 457500.0 5540500.0 3578.699951171875
  vertex 456500.0 5540500.0 3717.699951171875
 endloop
endfacet
facet normal 0.06113705411553383 0.378643661737442 -0.9235211610794067
 outer loop
  vertex 456500.0 5541500.0 3922.5
  vertex 457500.0 5541500.0 3988.699951171875
  vertex 457500.0 5540500.0 3578.699951171875
 endloop
endfacet
facet normal -0.0014802569057792425 0.3793528974056244 -0.9252509474754333
 outer loop
  vertex 457500.0 5541500.0 3988.699951171875
  vertex 458500.0 5540500.0 3577.10009765625
  vertex 457500.0 5540500.0 3578.699951171875
 endloop
endfacet
facet normal -0.33133596181869507 0.05632124841213226 -0.9418303370475769
 outer loop
  vertex 457500.0 5541500.0 3988.699951171875
  vertex 458500.0 5541500.0 3636.89990234375
  vertex 458500.0 5540500.0 3577.10009765625
 endloop
endfacet
facet normal -0.04766058176755905 0.059625331312417984 -0.9970823526382446
 outer loop
  vertex 458500.0 5541500.0 3636.89990234375
  vertex 459500.0 5540500.0 3529.300048828125
  vertex 458500.0 5540500.0 3577.10009765625
 endloop
endfacet
facet normal -0.06530234962701797 0.0419728085398674 -0.9969823956489563
 outer loop
  vertex 458500.0 5541500.0 3636.89990234375
  vertex 459500.0 5541500.0 3571.39990234375
  vertex 459500.0 5540500.0 3529.300048828125
 endloop
endfacet
facet normal -0.30016010999679565 -0.23187460005283356 -0.9252773523330688
 outer loop
  vertex 454500.0 5542500.0 3905.0
  vertex 455500.0 5541500.0 3831.199951171875
  vertex 454500.0 5541500.0 4155.60009765625
 endloop
endfacet
facet normal 0.03051946312189102 0.10388563573360443 -0.9941208958625793
 outer loop
  vertex 454500.0 5542500.0 3905.0
  vertex 455500.0 5542500.0 3935.699951171875
  vertex 455500.0 5541500.0 3831.199951171875
 endloop
endfacet
facet normal 0.0904335081577301 0.10350818186998367 -0.9905088543891907
 outer loop
  vertex 455500.0 5542500.0 3935.699951171875
  vertex 456500.0 5541500.0 3922.5
  vertex 455500.0 5541500.0 3831.199951171875
 endloop
endfacet
facet normal 0.18591301143169403 0.19861510396003723 -0.9622828960418701
 outer loop
  vertex 455500.0 5542500.0 3935.699951171875
  vertex 456500.0 5542500.0 4128.89990234375
  vertex 456500.0 5541500.0 3922.5
 endloop
endfacet
facet normal 0.06469754129648209 0.2017156481742859 -0.9773049354553223
 outer loop
  vertex 456500.0 5542500.0 4128.89990234375
  vertex 457500.0 5541500.0 3988.699951171875
  vertex 456500.0 5541500.0 3922.5
 endloop
endfacet
facet normal -0.026619695127010345 0.11263804137706757 -0.9932794570922852
 outer loop
  vertex 456500.0 5542500.0 4128.89990234375
  vertex 457500.0 5542500.0 4102.10009765625
  vertex 457500.0 5541500.0 3988.699951171875
 endloop
endfacet
facet normal -0.3299800455570221 0.10636664181947708 -0.9379761815071106
 outer loop
  vertex 457500.0 5542500.0 4102.10009765625
  vertex 458500.0 5541500.0 3636.89990234375
  vertex 457500.0 5541500.0 3988.699951171875
 endloop
endfacet
facet normal -0.17123611271381378 0.26959946751594543 -0.9476255774497986
 outer loop
  vertex 457500.0 5542500.0 4102.10009765625
  vertex 458500.0 5542500.0 3921.39990234375
  vertex 458500.0 5541500.0 3636.89990234375
 endloop
endfacet
facet normal -0.06287533789873123 0.27309975028038025 -0.9599288105964661
 outer loop
  vertex 458500.0 5542500.0 3921.39990234375
  vertex 459500.0 5541500.0 3571.39990234375
  vertex 458500.0 5541500.0 3636.89990234375
 endloop
endfacet
facet normal -0.2503146529197693 0.08716676384210587 -0.9642326235771179
 outer loop
  vertex 458500.0 5542500.0 3921.39990234375
  vertex 459500.0 5542500.0 3661.800048828125
  vertex 459500.0 5541500.0 3571.39990234375
 endloop
endfacet
facet normal -0.010954669676721096 0.09002761542797089 -0.995879054069519
 outer loop
  vertex 459500.0 5542500.0 3661.800048828125
  vertex 460500.0 5541500.0 3560.39990234375
  vertex 459500.0 5541500.0 3571.39990234375
 endloop
endfacet
facet normal -0.1036384329199791 -0.00278471689671278 -0.9946111440658569
 outer loop
  vertex 459500.0 5542500.0 3661.800048828125
  vertex 460500.0 5542500.0 3557.60009765625
  vertex 460500.0 5541500.0 3560.39990234375
 endloop
endfacet
facet normal 0.18418572843074799 0.23919378221035004 -0.9533425569534302
 outer loop
  vertex 455500.0 5543500.0 4186.60009765625
  vertex 456500.0 5542500.0 4128.89990234375
  vertex 455500.0 5542500.0 3935.699951171875
 endloop
endfacet
facet normal -0.023180169984698296 0.034470222890377045 -0.9991368651390076
 outer loop
  vertex 455500.0 5543500.0 4186.60009765625
  vertex 456500.0 5543500.0 4163.39990234375
  vertex 456500.0 5542500.0 4128.89990234375
 endloop
endfacet
facet normal -0.026774268597364426 0.03446712717413902 -0.9990471601486206
 outer loop
  vertex 456500.0 5543500.0 4163.39990234375
  vertex 457500.0 5542500.0 4102.10009765625
  vertex 456500.0 5542500.0 4128.89990234375
 endloop
endfacet
facet normal -0.1311221569776535 -0.07050547748804092 -0.9888558983802795
 outer loop
  vertex 456500.0 5543500.0 4163.39990234375
  vertex 457500.0 5543500.0 4030.800048828125
  vertex 457500.0 5542500.0 4102.10009765625
 endloop
endfacet
facet normal -0.17738427221775055 -0.06999166309833527 -0.9816495776176453
 outer loop
  vertex 457500.0 5543500.0 4030.800048828125
  vertex 458500.0 5542500.0 3921.39990234375
  vertex 457500.0 5542500.0 4102.10009765625
 endloop
endfacet
facet normal -0.17013408243656158 -0.0625462532043457 -0.9834340214729309
 outer loop
  vertex 457500.0 5543500.0 4030.800048828125
  vertex 458500.0 5543500.0 3857.800048828125
  vertex 458500.0 5542500.0 3921.39990234375
 endloop
endfacet
facet normal -0.25079628825187683 -0.06144305318593979 -0.9660879969596863
 outer loop
  vertex 458500.0 5543500.0 3857.800048828125
  vertex 459500.0 5542500.0 3661.800048828125
  vertex 458500.0 5542500.0 3921.39990234375
 endloop
endfacet
facet normal -0.0777277871966362 0.1163441389799118 -0.9901628494262695
 outer loop
  vertex 458500.0 5543500.0 3857.800048828125
  vertex 459500.0 5543500.0 3779.300048828125
  vertex 459500.0 5542500.0 3661.800048828125
 endloop
endfacet
facet normal -0.10293825715780258 0.11607725918292999 -0.9878916144371033
 outer loop
  vertex 459500.0 5543500.0 3779.300048828125
  vertex 460500.0 5542500.0 3557.60009765625
  vertex 459500.0 5542500.0 3661.800048828125
 endloop
endfacet
facet normal -0.21774667501449585 -0.0013665433507412672 -0.9760043621063232
 outer loop
  vertex 459500.0 5543500.0 3779.300048828125
  vertex 460500.0 5543500.0 3556.199951171875
  vertex 460500.0 5542500.0 3557.60009765625
 endloop
endfacet
facet normal 0.014998299069702625 -0.0013999877264723182 -0.9998865723609924
 outer loop
  vertex 460500.0 5543500.0 3556.199951171875
  vertex 461500.0 5542500.0 3572.60009765625
  vertex 460500.0 5542500.0 3557.60009765625
 endloop
endfacet
facet normal 0.005999567452818155 -0.01039939746260643 -0.9999279379844666
 outer loop
  vertex 460500.0 5543500.0 3556.199951171875
  vertex 461500.0 5543500.0 3562.199951171875
  vertex 461500.0 5542500.0 3572.60009765625
 endloop
endfacet
facet normal 0.13092446327209473 -0.023984858766198158 -0.9911022186279297
 outer loop
  vertex 454500.0 5544500.0 4030.300048828125
  vertex 455500.0 5544500.0 4162.39990234375
  vertex 455500.0 5543500.0 4186.60009765625
 endloop
endfacet
facet normal -0.023187169805169106 -0.02418660931289196 -0.9994385838508606
 outer loop
  vertex 455500.0 5544500.0 4162.39990234375
  vertex 456500.0 5543500.0 4163.39990234375
  vertex 455500.0 5543500.0 4186.60009765625
 endloop
endfacet
facet normal -0.018992774188518524 -0.019992394372820854 -0.999619722366333
 outer loop
  vertex 455500.0 5544500.0 4162.39990234375
  vertex 456500.0 5544500.0 4143.39990234375
  vertex 456500.0 5543500.0 4163.39990234375
 endloop
endfacet
facet normal -0.13142342865467072 -0.019822562113404274 -0.9911280870437622
 outer loop
  vertex 456500.0 5544500.0 4143.39990234375
  vertex 457500.0 5543500.0 4030.800048828125
  vertex 456500.0 5543500.0 4163.39990234375
 endloop
endfacet
facet normal 0.12220381200313568 0.23089353740215302 -0.9652742743492126
 outer loop
  vertex 456500.0 5544500.0 4143.39990234375
  vertex 457500.0 5544500.0 4270.0
  vertex 457500.0 5543500.0 4030.800048828125
 endloop
endfacet
facet normal -0.16592133045196533 0.22941258549690247 -0.9590829014778137
 outer loop
  vertex 457500.0 5544500.0 4270.0
  vertex 458500.0 5543500.0 3857.800048828125
  vertex 457500.0 5543500.0 4030.800048828125
 endloop
endfacet
facet normal -0.19882644712924957 0.19690610468387604 -0.9600499868392944
 outer loop
  vertex 457500.0 5544500.0 4270.0
  vertex 458500.0 5544500.0 4062.89990234375
  vertex 458500.0 5543500.0 3857.800048828125
 endloop
endfacet
facet normal -0.07667285948991776 0.20032605528831482 -0.9767244458198547
 outer loop
  vertex 458500.0 5544500.0 4062.89990234375
  vertex 459500.0 5543500.0 3779.300048828125
  vertex 458500.0 5543500.0 3857.800048828125
 endloop
endfacet
facet normal -0.1580933928489685 0.11986887454986572 -0.980121374130249
 outer loop
  vertex 458500.0 5544500.0 4062.89990234375
  vertex 459500.0 5544500.0 3901.60009765625
  vertex 459500.0 5543500.0 3779.300048828125
 endloop
endfacet
facet normal -0.21621201932430267 0.11852410435676575 -0.9691255688667297
 outer loop
  vertex 459500.0 5544500.0 3901.60009765625
  vertex 460500.0 5543500.0 3556.199951171875
  vertex 459500.0 5543500.0 3779.300048828125
 endloop
endfacet
facet normal -0.09450843185186386 0.23926673829555511 -0.9663434028625488
 outer loop
  vertex 459500.0 5544500.0 3901.60009765625
  vertex 460500.0 5544500.0 3803.800048828125
  vertex 460500.0 5543500.0 3556.199951171875
 endloop
endfacet
facet normal 0.005824030376970768 0.24033840000629425 -0.9706717133522034
 outer loop
  vertex 460500.0 5544500.0 3803.800048828125
  vertex 461500.0 5543500.0 3562.199951171875
  vertex 460500.0 5543500.0 3556.199951171875
 endloop
endfacet
facet normal -0.12862460315227509 0.10950348526239395 -0.9856290817260742
 outer loop
  vertex 460500.0 5544500.0 3803.800048828125
  vertex 461500.0 5544500.0 3673.300048828125
  vertex 461500.0 5543500.0 3562.199951171875
 endloop
endfacet
facet normal -0.010435223579406738 0.11041469126939774 -0.9938308000564575
 outer loop
  vertex 461500.0 5544500.0 3673.300048828125
  vertex 462500.0 5543500.0 3551.699951171875
  vertex 461500.0 5543500.0 3562.199951171875
 endloop
endfacet
facet normal -0.10253909975290298 0.01839933730661869 -0.9945587515830994
 outer loop
  vertex 461500.0 5544500.0 3673.300048828125
  vertex 462500.0 5544500.0 3570.199951171875
  vertex 462500.0 5543500.0 3551.699951171875
 endloop
endfacet
facet normal -0.2457052320241928 0.05603113770484924 -0.9677238464355469
 outer loop
  vertex 453500.0 5545500.0 4342.10009765625
  vertex 454500.0 5545500.0 4088.199951171875
  vertex 454500.0 5544500.0 4030.300048828125
 endloop
endfacet
facet normal 0.13074691593647003 0.05730690062046051 -0.9897581934928894
 outer loop
  vertex 454500.0 5545500.0 4088.199951171875
  vertex 455500.0 5544500.0 4162.39990234375
  vertex 454500.0 5544500.0 4030.300048828125
 endloop
endfacet
facet normal 0.24158231914043427 0.1707029789686203 -0.9552478790283203
 outer loop
  vertex 454500.0 5545500.0 4088.199951171875
  vertex 455500.0 5545500.0 4341.10009765625
  vertex 455500.0 5544500.0 4162.39990234375
 endloop
endfacet
facet normal -0.018700435757637024 0.1758827120065689 -0.9842334985733032
 outer loop
  vertex 455500.0 5545500.0 4341.10009765625
  vertex 456500.0 5544500.0 4143.39990234375
  vertex 455500.0 5544500.0 4162.39990234375
 endloop
endfacet
facet normal 0.06037561222910881 0.251355916261673 -0.966009795665741
 outer loop
  vertex 455500.0 5545500.0 4341.10009765625
  vertex 456500.0 5545500.0 4403.60009765625
  vertex 456500.0 5544500.0 4143.39990234375
 endloop
endfacet
facet normal 0.12161107361316681 0.24994629621505737 -0.9605923295021057
 outer loop
  vertex 456500.0 5545500.0 4403.60009765625
  vertex 457500.0 5544500.0 4270.0
  vertex 456500.0 5544500.0 4143.39990234375
 endloop
endfacet
facet normal 0.29564139246940613 0.4108623266220093 -0.8624315857887268
 outer loop
  vertex 456500.0 5545500.0 4403.60009765625
  vertex 457500.0 5545500.0 4746.39990234375
  vertex 457500.0 5544500.0 4270.0
 endloop
endfacet
facet normal -0.1837826669216156 0.4227619767189026 -0.8874098658561707
 outer loop
  vertex 457500.0 5545500.0 4746.39990234375
  vertex 458500.0 5544500.0 4062.89990234375
  vertex 457500.0 5544500.0 4270.0
 endloop
endfacet
facet normal -0.24984808266162872 0.36355429887771606 -0.8974431157112122
 outer loop
  vertex 457500.0 5545500.0 4746.39990234375
  vertex 458500.0 5545500.0 4468.0
  vertex 458500.0 5544500.0 4062.89990234375
 endloop
endfacet
facet normal -0.14785557985305786 0.37133535742759705 -0.9166508913040161
 outer loop
  vertex 458500.0 5545500.0 4468.0
  vertex 459500.0 5544500.0 3901.60009765625
  vertex 458500.0 5544500.0 4062.89990234375
 endloop
endfacet
facet normal -0.4291343092918396 0.0804288312792778 -0.8996526598930359
 outer loop
  vertex 458500.0 5545500.0 4468.0
  vertex 459500.0 5545500.0 3991.0
  vertex 459500.0 5544500.0 3901.60009765625
 endloop
endfacet
facet normal -0.0969526469707489 0.08862528949975967 -0.9913353323936462
 outer loop
  vertex 459500.0 5545500.0 3991.0
  vertex 460500.0 5544500.0 3803.800048828125
  vertex 459500.0 5544500.0 3901.60009765625
 endloop
endfacet
facet normal -0.019128916785120964 0.165456160902977 -0.9860316514968872
 outer loop
  vertex 459500.0 5545500.0 3991.0
  vertex 460500.0 5545500.0 3971.60009765625
  vertex 460500.0 5544500.0 3803.800048828125
 endloop
endfacet
facet normal -0.12764786183834076 0.16413266956806183 -0.9781444072723389
 outer loop
  vertex 460500.0 5545500.0 3971.60009765625
  vertex 461500.0 5544500.0 3673.300048828125
  vertex 460500.0 5544500.0 3803.800048828125
 endloop
endfacet
facet normal -0.20027633011341095 0.09072428941726685 -0.9755298495292664
 outer loop
  vertex 460500.0 5545500.0 3971.60009765625
  vertex 461500.0 5545500.0 3766.300048828125
  vertex 461500.0 5544500.0 3673.300048828125
 endloop
endfacet
facet normal -0.10212042182683945 0.09211629629135132 -0.9904978275299072
 outer loop
  vertex 461500.0 5545500.0 3766.300048828125
  vertex 462500.0 5544500.0 3570.199951171875
  vertex 461500.0 5544500.0 3673.300048828125
 endloop
endfacet
facet normal -0.09816078096628189 0.09608059376478195 -0.9905215501785278
 outer loop
  vertex 461500.0 5545500.0 3766.300048828125
  vertex 462500.0 5545500.0 3667.199951171875
  vertex 462500.0 5544500.0 3570.199951171875
 endloop
endfacet
facet normal -0.011544892564415932 0.0965404286980629 -0.9952621459960938
 outer loop
  vertex 462500.0 5545500.0 3667.199951171875
  vertex 463500.0 5544500.0 3558.60009765625
  vertex 462500.0 5544500.0 3570.199951171875
 endloop
endfacet
facet normal -0.06410492211580276 0.04416537284851074 -0.9969654083251953
 outer loop
  vertex 462500.0 5545500.0 3667.199951171875
  vertex 463500.0 5545500.0 3602.89990234375
  vertex 463500.0 5544500.0 3558.60009765625
 endloop
endfacet
facet normal 0.06082470342516899 0.2217911183834076 -0.9731952548027039
 outer loop
  vertex 455500.0 5546500.0 4569.0
  vertex 456500.0 5545500.0 4403.60009765625
  vertex 455500.0 5545500.0 4341.10009765625
 endloop
endfacet
facet normal 0.20497500896453857 0.35578852891921997 -0.9118112921714783
 outer loop
  vertex 455500.0 5546500.0 4569.0
  vertex 456500.0 5546500.0 4793.7998046875
  vertex 456500.0 5545500.0 4403.60009765625
 endloop
endfacet
facet normal 0.3042134940624237 0.34627795219421387 -0.8874377012252808
 outer loop
  vertex 456500.0 5546500.0 4793.7998046875
  vertex 457500.0 5545500.0 4746.39990234375
  vertex 456500.0 5545500.0 4403.60009765625
 endloop
endfacet
facet normal 0.20162346959114075 0.24655495584011078 -0.9479233622550964
 outer loop
  vertex 456500.0 5546500.0 4793.7998046875
  vertex 457500.0 5546500.0 5006.5
  vertex 457500.0 5545500.0 4746.39990234375
 endloop
endfacet
facet normal -0.2601574659347534 0.2430567741394043 -0.934473991394043
 outer loop
  vertex 457500.0 5546500.0 5006.5
  vertex 458500.0 5545500.0 4468.0
  vertex 457500.0 5545500.0 4746.39990234375
 endloop
endfacet
facet normal -0.49898630380630493 -0.03264816105365753 -0.8659946918487549
 outer loop
  vertex 457500.0 5546500.0 5006.5
  vertex 458500.0 5546500.0 4430.2998046875
  vertex 458500.0 5545500.0 4468.0
 endloop
endfacet
facet normal -0.43028002977371216 -0.034007634967565536 -0.9020545482635498
 outer loop
  vertex 458500.0 5546500.0 4430.2998046875
  vertex 459500.0 5545500.0 3991.0
  vertex 458500.0 5545500.0 4468.0
 endloop
endfacet
facet normal -0.29530513286590576 0.12102235853672028 -0.947706937789917
 outer loop
  vertex 458500.0 5546500.0 4430.2998046875
  vertex 459500.0 5546500.0 4118.7001953125
  vertex 459500.0 5545500.0 3991.0
 endloop
endfacet
facet normal -0.019240064546465874 0.12664808332920074 -0.9917611479759216
 outer loop
  vertex 459500.0 5546500.0 4118.7001953125
  vertex 460500.0 5545500.0 3971.60009765625
  vertex 459500.0 5545500.0 3991.0
 endloop
endfacet
facet normal -0.06763328611850739 0.07867299765348434 -0.9946035742759705
 outer loop
  vertex 459500.0 5546500.0 4118.7001953125
  vertex 460500.0 5546500.0 4050.699951171875
  vertex 460500.0 5545500.0 3971.60009765625
 endloop
endfacet
facet normal -0.20050470530986786 0.07725225389003754 -0.9766421914100647
 outer loop
  vertex 460500.0 5546500.0 4050.699951171875
  vertex 461500.0 5545500.0 3766.300048828125
  vertex 460500.0 5545500.0 3971.60009765625
 endloop
endfacet
facet normal -0.2434125691652298 0.032280582934617996 -0.9693855047225952
 outer loop
  vertex 460500.0 5546500.0 4050.699951171875
  vertex 461500.0 5546500.0 3799.60009765625
  vertex 461500.0 5545500.0 3766.300048828125
 endloop
endfacet
facet normal -0.09856292605400085 0.03311954438686371 -0.994579553604126
 outer loop
  vertex 461500.0 5546500.0 3799.60009765625
  vertex 462500.0 5545500.0 3667.199951171875
  vertex 461500.0 5545500.0 3766.300048828125
 endloop
endfacet
facet normal -0.11815580725669861 0.013305079191923141 -0.9929059147834778
 outer loop
  vertex 461500.0 5546500.0 3799.60009765625
  vertex 462500.0 5546500.0 3680.60009765625
  vertex 462500.0 5545500.0 3667.199951171875
 endloop
endfacet
facet normal -0.06416179984807968 0.013371335342526436 -0.9978499412536621
 outer loop
  vertex 462500.0 5546500.0 3680.60009765625
  vertex 463500.0 5545500.0 3602.89990234375
  vertex 462500.0 5545500.0 3667.199951171875
 endloop
endfacet
facet normal -0.04612813889980316 0.031450871378183365 -0.9984403252601624
 outer loop
  vertex 462500.0 5546500.0 3680.60009765625
  vertex 463500.0 5546500.0 3634.39990234375
  vertex 463500.0 5545500.0 3602.89990234375
 endloop
endfacet
facet normal -0.033763788640499115 0.03146643191576004 -0.9989343881607056
 outer loop
  vertex 463500.0 5546500.0 3634.39990234375
  vertex 464500.0 5545500.0 3569.10009765625
  vertex 463500.0 5545500.0 3602.89990234375
 endloop
endfacet
facet normal 0.19188138842582703 0.38646915555000305 -0.9021214246749878
 outer loop
  vertex 456500.0 5547500.0 5222.2001953125
  vertex 457500.0 5546500.0 5006.5
  vertex 456500.0 5546500.0 4793.7998046875
 endloop
endfacet
facet normal -0.03768469765782356 0.17454858124256134 -0.9839271903038025
 outer loop
  vertex 456500.0 5547500.0 5222.2001953125
  vertex 457500.0 5547500.0 5183.89990234375
  vertex 457500.0 5546500.0 5006.5
 endloop
endfacet
facet normal -0.493457168340683 0.15192505717277527 -0.8563987612724304
 outer loop
  vertex 457500.0 5547500.0 5183.89990234375
  vertex 458500.0 5546500.0 4430.2998046875
  vertex 457500.0 5546500.0 5006.5
 endloop
endfacet
facet normal -0.3407183289527893 0.3243044912815094 -0.8824611306190491
 outer loop
  vertex 457500.0 5547500.0 5183.89990234375
  vertex 458500.0 5547500.0 4797.7998046875
  vertex 458500.0 5546500.0 4430.2998046875
 endloop
endfacet
facet normal -0.28071463108062744 0.3310742974281311 -0.9008824229240417
 outer loop
  vertex 458500.0 5547500.0 4797.7998046875
  vertex 459500.0 5546500.0 4118.7001953125
  vertex 458500.0 5546500.0 4430.2998046875
 endloop
endfacet
facet normal -0.5733782649040222 -0.017119744792580605 -0.8191118240356445
 outer loop
  vertex 458500.0 5547500.0 4797.7998046875
  vertex 459500.0 5547500.0 4097.7998046875
  vertex 459500.0 5546500.0 4118.7001953125
 endloop
endfacet
facet normal -0.06782881915569305 -0.020847702398896217 -0.9974791407585144
 outer loop
  vertex 459500.0 5547500.0 4097.7998046875
  vertex 460500.0 5546500.0 4050.699951171875
  vertex 459500.0 5546500.0 4118.7001953125
 endloop
endfacet
facet normal -0.24940048158168793 -0.20482084155082703 -0.9464923143386841
 outer loop
  vertex 459500.0 5547500.0 4097.7998046875
  vertex 460500.0 5547500.0 3834.300048828125
  vertex 460500.0 5546500.0 4050.699951171875
 endloop
endfacet
facet normal -0.23834630846977234 -0.20540879666805267 -0.9492092132568359
 outer loop
  vertex 460500.0 5547500.0 3834.300048828125
  vertex 461500.0 5546500.0 3799.60009765625
  vertex 460500.0 5546500.0 4050.699951171875
 endloop
endfacet
facet normal -0.0037982086651027203 0.030884940177202225 -0.9995157122612
 outer loop
  vertex 460500.0 5547500.0 3834.300048828125
  vertex 461500.0 5547500.0 3830.5
  vertex 461500.0 5546500.0 3799.60009765625
 endloop
endfacet
facet normal -0.11811067909002304 0.03066897764801979 -0.9925267100334167
 outer loop
  vertex 461500.0 5547500.0 3830.5
  vertex 462500.0 5546500.0 3680.60009765625
  vertex 461500.0 5546500.0 3799.60009765625
 endloop
endfacet
facet normal -0.07040444761514664 0.07865788787603378 -0.9944124817848206
 outer loop
  vertex 461500.0 5547500.0 3830.5
  vertex 462500.0 5547500.0 3759.699951171875
  vertex 462500.0 5546500.0 3680.60009765625
 endloop
endfacet
facet normal -0.04600756615400314 0.07877004891633987 -0.9958305954933167
 outer loop
  vertex 462500.0 5547500.0 3759.699951171875
  vertex 463500.0 5546500.0 3634.39990234375
  vertex 462500.0 5546500.0 3680.60009765625
 endloop
endfacet
facet normal -0.09838579595088959 0.026262905448675156 -0.9948017001152039
 outer loop
  vertex 462500.0 5547500.0 3759.699951171875
  vertex 463500.0 5547500.0 3660.800048828125
  vertex 463500.0 5546500.0 3634.39990234375
 endloop
endfacet
facet normal -0.19543543457984924 0.39946985244750977 -0.8956723213195801
 outer loop
  vertex 455500.0 5548500.0 5886.39990234375
  vertex 456500.0 5548500.0 5668.2001953125
  vertex 456500.0 5547500.0 5222.2001953125
 endloop
endfacet
facet normal -0.0349576361477375 0.4070754945278168 -0.9127253293991089
 outer loop
  vertex 456500.0 5548500.0 5668.2001953125
  vertex 457500.0 5547500.0 5183.89990234375
  vertex 456500.0 5547500.0 5222.2001953125
 endloop
endfacet
facet normal -0.2939818501472473 0.16220350563526154 -0.941947340965271
 outer loop
  vertex 456500.0 5548500.0 5668.2001953125
  vertex 457500.0 5548500.0 5356.10009765625
  vertex 457500.0 5547500.0 5183.89990234375
 endloop
endfacet
facet normal -0.3556259572505951 0.15860874950885773 -0.9210718274116516
 outer loop
  vertex 457500.0 5548500.0 5356.10009765625
  vertex 458500.0 5547500.0 4797.7998046875
  vertex 457500.0 5547500.0 5183.89990234375
 endloop
endfacet
facet normal -0.7026423215866089 -0.3599751591682434 -0.613768458366394
 outer loop
  vertex 457500.0 5548500.0 5356.10009765625
  vertex 458500.0 5548500.0 4211.2998046875
  vertex 458500.0 5547500.0 4797.7998046875
 endloop
endfacet
facet normal -0.5168927907943726 -0.43308231234550476 -0.7384182810783386
 outer loop
  vertex 458500.0 5548500.0 4211.2998046875
  vertex 459500.0 5547500.0 4097.7998046875
  vertex 458500.0 5547500.0 4797.7998046875
 endloop
endfacet
facet normal 0.08689951151609421 0.19772079586982727 -0.9763989448547363
 outer loop
  vertex 458500.0 5548500.0 4211.2998046875
  vertex 459500.0 5548500.0 4300.2998046875
  vertex 459500.0 5547500.0 4097.7998046875
 endloop
endfacet
facet normal -0.2500535249710083 0.1921665519475937 -0.9489706158638
 outer loop
  vertex 459500.0 5548500.0 4300.2998046875
  vertex 460500.0 5547500.0 3834.300048828125
  vertex 459500.0 5547500.0 4097.7998046875
 endloop
endfacet
facet normal -0.19926004111766815 0.24311809241771698 -0.9493098258972168
 outer loop
  vertex 459500.0 5548500.0 4300.2998046875
  vertex 460500.0 5548500.0 4090.39990234375
  vertex 460500.0 5547500.0 3834.300048828125
 endloop
endfacet
facet normal -0.003681217785924673 0.24809151887893677 -0.9687296152114868
 outer loop
  vertex 460500.0 5548500.0 4090.39990234375
  vertex 461500.0 5547500.0 3830.5
  vertex 460500.0 5547500.0 3834.300048828125
 endloop
endfacet
facet normal -0.0856124758720398 0.16955594718456268 -0.9817949533462524
 outer loop
  vertex 460500.0 5548500.0 4090.39990234375
  vertex 461500.0 5548500.0 4003.199951171875
  vertex 461500.0 5547500.0 3830.5
 endloop
endfacet
facet normal -0.06959809362888336 0.1697680801153183 -0.9830232858657837
 outer loop
  vertex 461500.0 5548500.0 4003.199951171875
  vertex 462500.0 5547500.0 3759.699951171875
  vertex 461500.0 5547500.0 3830.5
 endloop
endfacet
facet normal 0.5278229713439941 0.16360613703727722 -0.8334481716156006
 outer loop
  vertex 454500.0 5549500.0 5449.39990234375
  vertex 455500.0 5549500.0 6082.7001953125
  vertex 455500.0 5548500.0 5886.39990234375
 endloop
endfacet
facet normal -0.20936799049377441 0.1883549690246582 -0.9595246315002441
 outer loop
  vertex 455500.0 5549500.0 6082.7001953125
  vertex 456500.0 5548500.0 5668.2001953125
  vertex 455500.0 5548500.0 5886.39990234375
 endloop
endfacet
facet normal -0.11183267831802368 0.28300967812538147 -0.9525749683380127
 outer loop
  vertex 455500.0 5549500.0 6082.7001953125
  vertex 456500.0 5549500.0 5965.2998046875
  vertex 456500.0 5548500.0 5668.2001953125
 endloop
endfacet
facet normal -0.2866230309009552 0.27284708619117737 -0.9183690547943115
 outer loop
  vertex 456500.0 5549500.0 5965.2998046875
  vertex 457500.0 5548500.0 5356.10009765625
  vertex 456500.0 5548500.0 5668.2001953125
 endloop
endfacet
facet normal -0.3483786880970001 0.20836934447288513 -0.9139007329940796
 outer loop
  vertex 456500.0 5549500.0 5965.2998046875
  vertex 457500.0 5549500.0 5584.10009765625
  vertex 457500.0 5548500.0 5356.10009765625
 endloop
endfacet
facet normal -0.7447989583015442 0.14833518862724304 -0.6505929827690125
 outer loop
  vertex 457500.0 5549500.0 5584.10009765625
  vertex 458500.0 5548500.0 4211.2998046875
  vertex 457500.0 5548500.0 5356.10009765625
 endloop
endfacet
facet normal -0.8224883675575256 -0.04400496184825897 -0.5670769810676575
 outer loop
  vertex 457500.0 5549500.0 5584.10009765625
  vertex 458500.0 5549500.0 4133.7001953125
  vertex 458500.0 5548500.0 4211.2998046875
 endloop
endfacet
facet normal 0.08838596194982529 -0.07706422358751297 -0.9931007027626038
 outer loop
  vertex 458500.0 5549500.0 4133.7001953125
  vertex 459500.0 5548500.0 4300.2998046875
  vertex 458500.0 5548500.0 4211.2998046875
 endloop
endfacet
facet normal 0.5882839560508728 0.4798441231250763 -0.6509007215499878
 outer loop
  vertex 458500.0 5549500.0 4133.7001953125
  vertex 459500.0 5549500.0 5037.5
  vertex 459500.0 5548500.0 4300.2998046875
 endloop
endfacet
facet normal -0.1665913313627243 0.5850938558578491 -0.7936702370643616
 outer loop
  vertex 459500.0 5549500.0 5037.5
  vertex 460500.0 5548500.0 4090.39990234375
  vertex 459500.0 5548500.0 4300.2998046875
 endloop
endfacet
facet normal -0.6307837963104248 0.09821609407663345 -0.769717812538147
 outer loop
  vertex 459500.0 5549500.0 5037.5
  vertex 460500.0 5549500.0 4218.0
  vertex 460500.0 5548500.0 4090.39990234375
 endloop
endfacet
facet normal -0.08617683500051498 0.12610295414924622 -0.9882670044898987
 outer loop
  vertex 460500.0 5549500.0 4218.0
  vertex 461500.0 5548500.0 4003.199951171875
  vertex 460500.0 5548500.0 4090.39990234375
 endloop
endfacet
facet normal -0.23385101556777954 -0.025076329708099365 -0.9719489812850952
 outer loop
  vertex 460500.0 5549500.0 4218.0
  vertex 461500.0 5549500.0 3977.39990234375
  vertex 461500.0 5548500.0 4003.199951171875
 endloop
endfacet
facet normal 0.1340220421552658 -0.19004303216934204 -0.9725850820541382
 outer loop
  vertex 453500.0 5550500.0 5116.2001953125
  vertex 454500.0 5550500.0 5254.0
  vertex 454500.0 5549500.0 5449.39990234375
 endloop
endfacet
facet normal 0.5278876423835754 -0.16287565231323242 -0.8335503339767456
 outer loop
  vertex 454500.0 5550500.0 5254.0
  vertex 455500.0 5549500.0 6082.7001953125
  vertex 454500.0 5549500.0 5449.39990234375
 endloop
endfacet
facet normal 0.5806012749671936 -0.08998323231935501 -0.8092003464698792
 outer loop
  vertex 454500.0 5550500.0 5254.0
  vertex 455500.0 5550500.0 5971.5
  vertex 455500.0 5549500.0 6082.7001953125
 endloop
endfacet
facet normal -0.11589493602514267 -0.10977424681186676 -0.987176775932312
 outer loop
  vertex 455500.0 5550500.0 5971.5
  vertex 456500.0 5549500.0 5965.2998046875
  vertex 455500.0 5549500.0 6082.7001953125
 endloop
endfacet
facet normal 0.08805837482213974 0.094206802546978 -0.9916505217552185
 outer loop
  vertex 455500.0 5550500.0 5971.5
  vertex 456500.0 5550500.0 6060.2998046875
  vertex 456500.0 5549500.0 5965.2998046875
 endloop
endfacet
facet normal -0.3548019528388977 0.08842132985591888 -0.930750846862793
 outer loop
  vertex 456500.0 5550500.0 6060.2998046875
  vertex 457500.0 5549500.0 5584.10009765625
  vertex 456500.0 5549500.0 5965.2998046875
 endloop
endfacet
facet normal -0.5629820227622986 -0.17873090505599976 -0.8069117069244385
 outer loop
  vertex 456500.0 5550500.0 6060.2998046875
  vertex 457500.0 5550500.0 5362.60009765625
  vertex 457500.0 5549500.0 5584.10009765625
 endloop
endfacet
facet normal -0.8168548941612244 -0.12474722415208817 -0.5631929039955139
 outer loop
  vertex 457500.0 5550500.0 5362.60009765625
  vertex 458500.0 5549500.0 4133.7001953125
  vertex 457500.0 5549500.0 5584.10009765625
 endloop
endfacet
facet normal -0.6329944729804993 0.26215723156929016 -0.728417158126831
 outer loop
  vertex 457500.0 5550500.0 5362.60009765625
  vertex 458500.0 5550500.0 4493.60009765625
  vertex 458500.0 5549500.0 4133.7001953125
 endloop
endfacet
facet normal 0.6478256583213806 0.25796908140182495 -0.7167801260948181
 outer loop
  vertex 458500.0 5550500.0 4493.60009765625
  vertex 459500.0 5549500.0 5037.5
  vertex 458500.0 5549500.0 4133.7001953125
 endloop
endfacet
facet normal 0.4936516582965851 0.020778879523277283 -0.8694114685058594
 outer loop
  vertex 458500.0 5550500.0 4493.60009765625
  vertex 459500.0 5550500.0 5061.39990234375
  vertex 459500.0 5549500.0 5037.5
 endloop
endfacet
facet normal -0.6337400078773499 0.018482398241758347 -0.7733252048492432
 outer loop
  vertex 459500.0 5550500.0 5061.39990234375
  vertex 460500.0 5549500.0 4218.0
  vertex 459500.0 5549500.0 5037.5
 endloop
endfacet
facet normal -0.5369051694869995 0.16146904230117798 -0.8280463218688965
 outer loop
  vertex 459500.0 5550500.0 5061.39990234375
  vertex 460500.0 5550500.0 4413.0
  vertex 460500.0 5549500.0 4218.0
 endloop
endfacet
facet normal -0.22983050346374512 0.186271533370018 -0.9552386403083801
 outer loop
  vertex 460500.0 5550500.0 4413.0
  vertex 461500.0 5549500.0 3977.39990234375
  vertex 460500.0 5549500.0 4218.0
 endloop
endfacet
facet normal -0.2734586000442505 0.14101123809814453 -0.95149165391922
 outer loop
  vertex 460500.0 5550500.0 4413.0
  vertex 461500.0 5550500.0 4125.60009765625
  vertex 461500.0 5549500.0 3977.39990234375
 endloop
endfacet
facet normal 0.13376611471176147 0.19948457181453705 -0.970727801322937
 outer loop
  vertex 453500.0 5551500.0 5321.7001953125
  vertex 454500.0 5550500.0 5254.0
  vertex 453500.0 5550500.0 5116.2001953125
 endloop
endfacet
facet normal 0.23655915260314941 0.29914259910583496 -0.9244206547737122
 outer loop
  vertex 453500.0 5551500.0 5321.7001953125
  vertex 454500.0 5551500.0 5577.60009765625
  vertex 454500.0 5550500.0 5254.0
 endloop
endfacet
facet normal 0.5638042092323303 0.2542816698551178 -0.7857898473739624
 outer loop
  vertex 454500.0 5551500.0 5577.60009765625
  vertex 455500.0 5550500.0 5971.5
  vertex 454500.0 5550500.0 5254.0
 endloop
endfacet
facet normal 0.657463014125824 0.4079210162162781 -0.633516252040863
 outer loop
  vertex 454500.0 5551500.0 5577.60009765625
  vertex 455500.0 5551500.0 6615.39990234375
  vertex 455500.0 5550500.0 5971.5
 endloop
endfacet
facet normal 0.07445377856492996 0.5398751497268677 -0.8384458422660828
 outer loop
  vertex 455500.0 5551500.0 6615.39990234375
  vertex 456500.0 5550500.0 6060.2998046875
  vertex 455500.0 5550500.0 5971.5
 endloop
endfacet
facet normal -0.6784219741821289 -0.30823400616645813 -0.6668849587440491
 outer loop
  vertex 455500.0 5551500.0 6615.39990234375
  vertex 456500.0 5551500.0 5598.10009765625
  vertex 456500.0 5550500.0 6060.2998046875
 endloop
endfacet
facet normal -0.5350461602210999 -0.3544478714466095 -0.7668716907501221
 outer loop
  vertex 456500.0 5551500.0 5598.10009765625
  vertex 457500.0 5550500.0 5362.60009765625
  vertex 456500.0 5550500.0 6060.2998046875
 endloop
endfacet
facet normal -0.4158971905708313 -0.20737312734127045 -0.8854524493217468
 outer loop
  vertex 456500.0 5551500.0 5598.10009765625
  vertex 457500.0 5551500.0 5128.39990234375
  vertex 457500.0 5550500.0 5362.60009765625
 endloop
endfacet
facet normal -0.6459206938743591 -0.17407912015914917 -0.743291974067688
 outer loop
  vertex 457500.0 5551500.0 5128.39990234375
  vertex 458500.0 5550500.0 4493.60009765625
  vertex 457500.0 5550500.0 5362.60009765625
 endloop
endfacet
facet normal -0.07418878376483917 0.4805235266685486 -0.8738381862640381
 outer loop
  vertex 457500.0 5551500.0 5128.39990234375
  vertex 458500.0 5551500.0 5043.5
  vertex 458500.0 5550500.0 4493.60009765625
 endloop
endfacet
facet normal 0.44544804096221924 0.43140530586242676 -0.7845160961151123
 outer loop
  vertex 458500.0 5551500.0 5043.5
  vertex 459500.0 5550500.0 5061.39990234375
  vertex 458500.0 5550500.0 4493.60009765625
 endloop
endfacet
facet normal 0.1482190638780594 0.13067206740379333 -0.9802835583686829
 outer loop
  vertex 458500.0 5551500.0 5043.5
  vertex 459500.0 5551500.0 5194.7001953125
  vertex 459500.0 5550500.0 5061.39990234375
 endloop
endfacet
facet normal -0.5406728982925415 0.11115340888500214 -0.8338571786880493
 outer loop
  vertex 459500.0 5551500.0 5194.7001953125
  vertex 460500.0 5550500.0 4413.0
  vertex 459500.0 5550500.0 5061.39990234375
 endloop
endfacet
facet normal -0.5077368021011353 0.15475338697433472 -0.8474991321563721
 outer loop
  vertex 459500.0 5551500.0 5194.7001953125
  vertex 460500.0 5551500.0 4595.60009765625
  vertex 460500.0 5550500.0 4413.0
 endloop
endfacet
facet normal -0.272060751914978 0.17285433411598206 -0.9466277956962585
 outer loop
  vertex 460500.0 5551500.0 4595.60009765625
  vertex 461500.0 5550500.0 4125.60009765625
  vertex 460500.0 5550500.0 4413.0
 endloop
endfacet
facet normal -0.26874101161956787 0.176319420337677 -0.946937084197998
 outer loop
  vertex 460500.0 5551500.0 4595.60009765625
  vertex 461500.0 5551500.0 4311.7998046875
  vertex 461500.0 5550500.0 4125.60009765625
 endloop
endfacet
facet normal -0.1012284979224205 0.1821131706237793 -0.9780529737472534
 outer loop
  vertex 461500.0 5551500.0 4311.7998046875
  vertex 462500.0 5550500.0 4022.10009765625
  vertex 461500.0 5550500.0 4125.60009765625
 endloop
endfacet
facet normal -0.15319858491420746 0.13057132065296173 -0.9795311689376831
 outer loop
  vertex 461500.0 5551500.0 4311.7998046875
  vertex 462500.0 5551500.0 4155.39990234375
  vertex 462500.0 5550500.0 4022.10009765625
 endloop
endfacet
facet normal -0.09746750444173813 0.1315019577741623 -0.9865127205848694
 outer loop
  vertex 462500.0 5551500.0 4155.39990234375
  vertex 463500.0 5550500.0 3923.300048828125
  vertex 462500.0 5550500.0 4022.10009765625
 endloop
endfacet
facet normal -0.13012680411338806 0.0988529846072197 -0.9865571856498718
 outer loop
  vertex 462500.0 5551500.0 4155.39990234375
  vertex 463500.0 5551500.0 4023.5
  vertex 463500.0 5550500.0 3923.300048828125
 endloop
endfacet
facet normal 0.24086502194404602 0.2367236167192459 -0.9412469863891602
 outer loop
  vertex 453500.0 5552500.0 5573.2001953125
  vertex 454500.0 5551500.0 5577.60009765625
  vertex 453500.0 5551500.0 5321.7001953125
 endloop
endfacet
facet normal 0.4396666884422302 0.4362122714519501 -0.7851191163063049
 outer loop
  vertex 453500.0 5552500.0 5573.2001953125
  vertex 454500.0 5552500.0 6133.2001953125
  vertex 454500.0 5551500.0 5577.60009765625
 endloop
endfacet
facet normal 0.6718988418579102 0.35971006751060486 -0.647426187992096
 outer loop
  vertex 454500.0 5552500.0 6133.2001953125
  vertex 455500.0 5551500.0 6615.39990234375
  vertex 454500.0 5551500.0 5577.60009765625
 endloop
endfacet
facet normal 0.06769133359193802 -0.37761327624320984 -0.9234858751296997
 outer loop
  vertex 454500.0 5552500.0 6133.2001953125
  vertex 455500.0 5552500.0 6206.5
  vertex 455500.0 5551500.0 6615.39990234375
 endloop
endfacet
facet normal -0.6855365633964539 -0.27554890513420105 -0.6738786101341248
 outer loop
  vertex 455500.0 5552500.0 6206.5
  vertex 456500.0 5551500.0 5598.10009765625
  vertex 455500.0 5551500.0 6615.39990234375
 endloop
endfacet
facet normal -0.6770917177200317 -0.25772637128829956 -0.6892923712730408
 outer loop
  vertex 455500.0 5552500.0 6206.5
  vertex 456500.0 5552500.0 5224.2001953125
  vertex 456500.0 5551500.0 5598.10009765625
 endloop
endfacet
facet normal -0.4027025103569031 -0.3205671012401581 -0.8573607802391052
 outer loop
  vertex 456500.0 5552500.0 5224.2001953125
  vertex 457500.0 5551500.0 5128.39990234375
  vertex 456500.0 5551500.0 5598.10009765625
 endloop
endfacet
facet normal -0.5513670444488525 -0.4864363670349121 -0.6777714490890503
 outer loop
  vertex 456500.0 5552500.0 5224.2001953125
  vertex 457500.0 5552500.0 4410.7001953125
  vertex 457500.0 5551500.0 5128.39990234375
 endloop
endfacet
facet normal -0.0688108280301094 -0.5816912055015564 -0.8104938864707947
 outer loop
  vertex 457500.0 5552500.0 4410.7001953125
  vertex 458500.0 5551500.0 5043.5
  vertex 457500.0 5551500.0 5128.39990234375
 endloop
endfacet
facet normal 0.6743391156196594 0.23039217293262482 -0.701559841632843
 outer loop
  vertex 457500.0 5552500.0 4410.7001953125
  vertex 458500.0 5552500.0 5371.89990234375
  vertex 458500.0 5551500.0 5043.5
 endloop
endfacet
facet normal 0.14219264686107635 0.3088359236717224 -0.9404263496398926
 outer loop
  vertex 458500.0 5552500.0 5371.89990234375
  vertex 459500.0 5551500.0 5194.7001953125
  vertex 458500.0 5551500.0 5043.5
 endloop
endfacet
facet normal -0.17610374093055725 -0.0016736293910071254 -0.984370231628418
 outer loop
  vertex 458500.0 5552500.0 5371.89990234375
  vertex 459500.0 5552500.0 5193.0
  vertex 459500.0 5551500.0 5194.7001953125
 endloop
endfacet
facet normal -0.5139274597167969 -0.0014584825839847326 -0.8578323721885681
 outer loop
  vertex 459500.0 5552500.0 5193.0
  vertex 460500.0 5551500.0 4595.60009765625
  vertex 459500.0 5551500.0 5194.7001953125
 endloop
endfacet
facet normal -0.5453116297721863 -0.045282311737537384 -0.8370093703269958
 outer loop
  vertex 459500.0 5552500.0 5193.0
  vertex 460500.0 5552500.0 4541.5
  vertex 460500.0 5551500.0 4595.60009765625
 endloop
endfacet
facet normal -0.2726493775844574 -0.051974426954984665 -0.9607085585594177
 outer loop
  vertex 460500.0 5552500.0 4541.5
  vertex 461500.0 5551500.0 4311.7998046875
  vertex 460500.0 5551500.0 4595.60009765625
 endloop
endfacet
facet normal -0.22118164598941803 0.002828528406098485 -0.9752285480499268
 outer loop
  vertex 460500.0 5552500.0 4541.5
  vertex 461500.0 5552500.0 4314.7001953125
  vertex 461500.0 5551500.0 4311.7998046875
 endloop
endfacet
facet normal -0.15452082455158234 0.00286554335616529 -0.987985372543335
 outer loop
  vertex 461500.0 5552500.0 4314.7001953125
  vertex 462500.0 5551500.0 4155.39990234375
  vertex 461500.0 5551500.0 4311.7998046875
 endloop
endfacet
facet normal -0.05989919975399971 0.09834149479866028 -0.9933484196662903
 outer loop
  vertex 461500.0 5552500.0 4314.7001953125
  vertex 462500.0 5552500.0 4254.39990234375
  vertex 462500.0 5551500.0 4155.39990234375
 endloop
endfacet
facet normal -0.130141943693161 0.09768052399158478 -0.9866719841957092
 outer loop
  vertex 462500.0 5552500.0 4254.39990234375
  vertex 463500.0 5551500.0 4023.5
  vertex 462500.0 5551500.0 4155.39990234375
 endloop
endfacet
facet normal 0.03351858630776405 0.2565558850765228 -0.9659480452537537
 outer loop
  vertex 462500.0 5552500.0 4254.39990234375
  vertex 463500.0 5552500.0 4289.10009765625
  vertex 463500.0 5551500.0 4023.5
 endloop
endfacet
facet normal -0.09448480606079102 0.2555517256259918 -0.9621673226356506
 outer loop
  vertex 463500.0 5552500.0 4289.10009765625
  vertex 464500.0 5551500.0 3925.300048828125
  vertex 463500.0 5551500.0 4023.5
 endloop
endfacet
facet normal -0.134092316031456 0.21762165427207947 -0.9667781591415405
 outer loop
  vertex 463500.0 5552500.0 4289.10009765625
  vertex 464500.0 5552500.0 4150.39990234375
  vertex 464500.0 5551500.0 3925.300048828125
 endloop
endfacet
facet normal -0.05523140728473663 0.21926970779895782 -0.9740996956825256
 outer loop
  vertex 464500.0 5552500.0 4150.39990234375
  vertex 465500.0 5551500.0 3868.60009765625
  vertex 464500.0 5551500.0 3925.300048828125
 endloop
endfacet
facet normal -0.14729177951812744 0.1290518194437027 -0.9806379675865173
 outer loop
  vertex 464500.0 5552500.0 4150.39990234375
  vertex 465500.0 5552500.0 4000.199951171875
  vertex 465500.0 5551500.0 3868.60009765625
 endloop
endfacet
facet normal -0.016753319650888443 0.1304565817117691 -0.9913124442100525
 outer loop
  vertex 465500.0 5552500.0 4000.199951171875
  vertex 466500.0 5551500.0 3851.699951171875
  vertex 465500.0 5551500.0 3868.60009765625
 endloop
endfacet
facet normal -0.21305787563323975 -0.06832267343997955 -0.9746478199958801
 outer loop
  vertex 465500.0 5552500.0 4000.199951171875
  vertex 466500.0 5552500.0 3781.60009765625
  vertex 466500.0 5551500.0 3851.699951171875
 endloop
endfacet
facet normal -0.031110750511288643 0.13177524507045746 -0.9907913208007812
 outer loop
  vertex 452500.0 5553500.0 5737.60009765625
  vertex 453500.0 5553500.0 5706.2001953125
  vertex 453500.0 5552500.0 5573.2001953125
 endloop
endfacet
facet normal 0.4853464365005493 0.11526978015899658 -0.8666900396347046
 outer loop
  vertex 453500.0 5553500.0 5706.2001953125
  vertex 454500.0 5552500.0 6133.2001953125
  vertex 453500.0 5552500.0 5573.2001953125
 endloop
endfacet
facet normal -0.334336519241333 -0.6326267123222351 -0.6985718011856079
 outer loop
  vertex 453500.0 5553500.0 5706.2001953125
  vertex 454500.0 5553500.0 5227.60009765625
  vertex 454500.0 5552500.0 6133.2001953125
 endloop
endfacet
facet normal 0.05425171181559563 -0.670266330242157 -0.7401350140571594
 outer loop
  vertex 454500.0 5553500.0 5227.60009765625
  vertex 455500.0 5552500.0 6206.5
  vertex 454500.0 5552500.0 6133.2001953125
 endloop
endfacet
facet normal 0.26454514265060425 -0.526423990726471 -0.8080183863639832
 outer loop
  vertex 454500.0 5553500.0 5227.60009765625
  vertex 455500.0 5553500.0 5555.0
  vertex 455500.0 5552500.0 6206.5
 endloop
endfacet
facet normal -0.6354813575744629 -0.4214763045310974 -0.6469321846961975
 outer loop
  vertex 455500.0 5553500.0 5555.0
  vertex 456500.0 5552500.0 5224.2001953125
  vertex 455500.0 5552500.0 6206.5
 endloop
endfacet
facet normal -0.48552384972572327 -0.20434187352657318 -0.8500064611434937
 outer loop
  vertex 455500.0 5553500.0 5555.0
  vertex 456500.0 5553500.0 4983.7998046875
  vertex 456500.0 5552500.0 5224.2001953125
 endloop
endfacet
facet normal -0.6203646659851074 -0.18332625925540924 -0.7625871896743774
 outer loop
  vertex 456500.0 5553500.0 4983.7998046875
  vertex 457500.0 5552500.0 4410.7001953125
  vertex 456500.0 5552500.0 5224.2001953125
 endloop
endfacet
facet normal 0.5009176731109619 0.7492315769195557 -0.4332822859287262
 outer loop
  vertex 456500.0 5553500.0 4983.7998046875
  vertex 457500.0 5553500.0 6139.89990234375
  vertex 457500.0 5552500.0 4410.7001953125
 endloop
endfacet
facet normal 0.4336051642894745 0.7800562977790833 -0.45110827684402466
 outer loop
  vertex 457500.0 5553500.0 6139.89990234375
  vertex 458500.0 5552500.0 5371.89990234375
  vertex 457500.0 5552500.0 4410.7001953125
 endloop
endfacet
facet normal -0.5633916258811951 0.06891129165887833 -0.8233110904693604
 outer loop
  vertex 457500.0 5553500.0 6139.89990234375
  vertex 458500.0 5553500.0 5455.60009765625
  vertex 458500.0 5552500.0 5371.89990234375
 endloop
endfacet
facet normal -0.1755092740058899 0.0821138545870781 -0.9810473322868347
 outer loop
  vertex 458500.0 5553500.0 5455.60009765625
  vertex 459500.0 5552500.0 5193.0
  vertex 458500.0 5552500.0 5371.89990234375
 endloop
endfacet
facet normal -0.5117578506469727 -0.3003901541233063 -0.8049034476280212
 outer loop
  vertex 458500.0 5553500.0 5455.60009765625
  vertex 459500.0 5553500.0 4819.7998046875
  vertex 459500.0 5552500.0 5193.0
 endloop
endfacet
facet normal -0.5209949016571045 -0.29844266176223755 -0.7996851801872253
 outer loop
  vertex 459500.0 5553500.0 4819.7998046875
  vertex 460500.0 5552500.0 4541.5
  vertex 459500.0 5552500.0 5193.0
 endloop
endfacet
facet normal -0.235434427857399 0.034868307411670685 -0.9712645411491394
 outer loop
  vertex 459500.0 5553500.0 4819.7998046875
  vertex 460500.0 5553500.0 4577.39990234375
  vertex 460500.0 5552500.0 4541.5
 endloop
endfacet
facet normal -0.22104710340499878 0.034989312291145325 -0.9746353030204773
 outer loop
  vertex 460500.0 5553500.0 4577.39990234375
  vertex 461500.0 5552500.0 4314.7001953125
  vertex 460500.0 5552500.0 4541.5
 endloop
endfacet
facet normal 0.07234825193881989 0.3204662799835205 -0.9444929957389832
 outer loop
  vertex 460500.0 5553500.0 4577.39990234375
  vertex 461500.0 5553500.0 4654.0
  vertex 461500.0 5552500.0 4314.7001953125
 endloop
endfacet
facet normal -0.05700996518135071 0.3207857310771942 -0.9454345107078552
 outer loop
  vertex 461500.0 5553500.0 4654.0
  vertex 462500.0 5552500.0 4254.39990234375
  vertex 461500.0 5552500.0 4314.7001953125
 endloop
endfacet
facet normal -0.18649154901504517 0.1980394721031189 -0.9622896313667297
 outer loop
  vertex 461500.0 5553500.0 4654.0
  vertex 462500.0 5553500.0 4460.2001953125
  vertex 462500.0 5552500.0 4254.39990234375
 endloop
endfacet
facet normal 0.03396829590201378 0.20145948231220245 -0.9789076447486877
 outer loop
  vertex 462500.0 5553500.0 4460.2001953125
  vertex 463500.0 5552500.0 4289.10009765625
  vertex 462500.0 5552500.0 4254.39990234375
 endloop
endfacet
facet normal -0.1836969554424286 -0.015529482625424862 -0.9828602075576782
 outer loop
  vertex 462500.0 5553500.0 4460.2001953125
  vertex 463500.0 5553500.0 4273.2998046875
  vertex 463500.0 5552500.0 4289.10009765625
 endloop
endfacet
facet normal -0.13736818730831146 -0.015648553147912025 -0.9903964400291443
 outer loop
  vertex 463500.0 5553500.0 4273.2998046875
  vertex 464500.0 5552500.0 4150.39990234375
  vertex 463500.0 5552500.0 4289.10009765625
 endloop
endfacet
facet normal -0.25824761390686035 -0.1407840996980667 -0.9557656645774841
 outer loop
  vertex 463500.0 5553500.0 4273.2998046875
  vertex 464500.0 5553500.0 4003.10009765625
  vertex 464500.0 5552500.0 4150.39990234375
 endloop
endfacet
facet normal -0.14698264002799988 -0.14414462447166443 -0.9785798192024231
 outer loop
  vertex 464500.0 5553500.0 4003.10009765625
  vertex 465500.0 5552500.0 4000.199951171875
  vertex 464500.0 5552500.0 4150.39990234375
 endloop
endfacet
facet normal 0.030369047075510025 0.03326625004410744 -0.9989850521087646
 outer loop
  vertex 464500.0 5553500.0 4003.10009765625
  vertex 465500.0 5553500.0 4033.5
  vertex 465500.0 5552500.0 4000.199951171875
 endloop
endfacet
facet normal -0.21344397962093353 0.03251463547348976 -0.9764140844345093
 outer loop
  vertex 465500.0 5553500.0 4033.5
  vertex 466500.0 5552500.0 3781.60009765625
  vertex 465500.0 5552500.0 4000.199951171875
 endloop
endfacet
facet normal -0.11389551311731339 0.1340758055448532 -0.9844041466712952
 outer loop
  vertex 465500.0 5553500.0 4033.5
  vertex 466500.0 5553500.0 3917.800048828125
  vertex 466500.0 5552500.0 3781.60009765625
 endloop
endfacet
facet normal 0.10630699247121811 0.13418924808502197 -0.9852370619773865
 outer loop
  vertex 466500.0 5553500.0 3917.800048828125
  vertex 467500.0 5552500.0 3889.5
  vertex 466500.0 5552500.0 3781.60009765625
 endloop
endfacet
facet normal 0.12063130736351013 0.14840896427631378 -0.981541097164154
 outer loop
  vertex 466500.0 5553500.0 3917.800048828125
  vertex 467500.0 5553500.0 4040.699951171875
  vertex 467500.0 5552500.0 3889.5
 endloop
endfacet
facet normal 0.364499568939209 0.28926295042037964 -0.8851367831230164
 outer loop
  vertex 451500.0 5554500.0 5652.60009765625
  vertex 452500.0 5553500.0 5737.60009765625
  vertex 451500.0 5553500.0 5325.7998046875
 endloop
endfacet
facet normal -0.28406423330307007 -0.35961320996284485 -0.888811469078064
 outer loop
  vertex 451500.0 5554500.0 5652.60009765625
  vertex 452500.0 5554500.0 5333.0
  vertex 452500.0 5553500.0 5737.60009765625
 endloop
endfacet
facet normal -0.029095357283949852 -0.3749050796031952 -0.9266065359115601
 outer loop
  vertex 452500.0 5554500.0 5333.0
  vertex 453500.0 5553500.0 5706.2001953125
  vertex 452500.0 5553500.0 5737.60009765625
 endloop
endfacet
facet normal -0.27738890051841736 -0.5668786764144897 -0.77569580078125
 outer loop
  vertex 452500.0 5554500.0 5333.0
  vertex 453500.0 5554500.0 4975.39990234375
  vertex 453500.0 5553500.0 5706.2001953125
 endloop
endfacet
facet normal -0.36043834686279297 -0.5503727197647095 -0.7531095743179321
 outer loop
  vertex 453500.0 5554500.0 4975.39990234375
  vertex 454500.0 5553500.0 5227.60009765625
  vertex 453500.0 5553500.0 5706.2001953125
 endloop
endfacet
facet normal 0.19347889721393585 -0.05358649045228958 -0.9796399474143982
 outer loop
  vertex 453500.0 5554500.0 4975.39990234375
  vertex 454500.0 5554500.0 5172.89990234375
  vertex 454500.0 5553500.0 5227.60009765625
 endloop
endfacet
facet normal 0.31072863936424255 -0.05191485211253166 -0.9490798711776733
 outer loop
  vertex 454500.0 5554500.0 5172.89990234375
  vertex 455500.0 5553500.0 5555.0
  vertex 454500.0 5553500.0 5227.60009765625
 endloop
endfacet
facet normal -0.3870391547679901 -0.6404885649681091 -0.6633061766624451
 outer loop
  vertex 454500.0 5554500.0 5172.89990234375
  vertex 455500.0 5554500.0 4589.39990234375
  vertex 455500.0 5553500.0 5555.0
 endloop
endfacet
facet normal -0.3800700008869171 -0.6424990892410278 -0.6653883457183838
 outer loop
  vertex 455500.0 5554500.0 4589.39990234375
  vertex 456500.0 5553500.0 4983.7998046875
  vertex 455500.0 5553500.0 5555.0
 endloop
endfacet
facet normal 0.5896308422088623 0.29274553060531616 -0.7527519464492798
 outer loop
  vertex 455500.0 5554500.0 4589.39990234375
  vertex 456500.0 5554500.0 5372.7001953125
  vertex 456500.0 5553500.0 4983.7998046875
 endloop
endfacet
facet normal 0.7329708933830261 0.24656401574611664 -0.6340030431747437
 outer loop
  vertex 456500.0 5554500.0 5372.7001953125
  vertex 457500.0 5553500.0 6139.89990234375
  vertex 456500.0 5553500.0 4983.7998046875
 endloop
endfacet
facet normal 0.4954799711704254 -0.15958154201507568 -0.8538344502449036
 outer loop
  vertex 456500.0 5554500.0 5372.7001953125
  vertex 457500.0 5554500.0 5953.0
  vertex 457500.0 5553500.0 6139.89990234375
 endloop
endfacet
facet normal -0.5581338405609131 -0.15244074165821075 -0.8156276941299438
 outer loop
  vertex 457500.0 5554500.0 5953.0
  vertex 458500.0 5553500.0 5455.60009765625
  vertex 457500.0 5553500.0 6139.89990234375
 endloop
endfacet
facet normal -0.5970632433891296 -0.21227537095546722 -0.7735985517501831
 outer loop
  vertex 457500.0 5554500.0 5953.0
  vertex 458500.0 5554500.0 5181.2001953125
  vertex 458500.0 5553500.0 5455.60009765625
 endloop
endfacet
facet normal -0.5227062702178955 -0.22559058666229248 -0.8221234083175659
 outer loop
  vertex 458500.0 5554500.0 5181.2001953125
  vertex 459500.0 5553500.0 4819.7998046875
  vertex 458500.0 5553500.0 5455.60009765625
 endloop
endfacet
facet normal -0.20712149143218994 0.14266255497932434 -0.9678574800491333
 outer loop
  vertex 458500.0 5554500.0 5181.2001953125
  vertex 459500.0 5554500.0 4967.2001953125
  vertex 459500.0 5553500.0 4819.7998046875
 endloop
endfacet
facet normal -0.23319710791110992 0.1418042927980423 -0.9620347023010254
 outer loop
  vertex 459500.0 5554500.0 4967.2001953125
  vertex 460500.0 5553500.0 4577.39990234375
  vertex 459500.0 5553500.0 4819.7998046875
 endloop
endfacet
facet normal -0.10446561872959137 0.2687762975692749 -0.9575209021568298
 outer loop
  vertex 459500.0 5554500.0 4967.2001953125
  vertex 460500.0 5554500.0 4858.10009765625
  vertex 460500.0 5553500.0 4577.39990234375
 endloop
endfacet
facet normal 0.07354996353387833 0.269523024559021 -0.9601811170578003
 outer loop
  vertex 460500.0 5554500.0 4858.10009765625
  vertex 461500.0 5553500.0 4654.0
  vertex 460500.0 5553500.0 4577.39990234375
 endloop
endfacet
facet normal 0.1843707263469696 0.3701983094215393 -0.9104727506637573
 outer loop
  vertex 460500.0 5554500.0 4858.10009765625
  vertex 461500.0 5554500.0 5060.60009765625
  vertex 461500.0 5553500.0 4654.0
 endloop
endfacet
facet normal -0.1767021268606186 0.3707284927368164 -0.9117767214775085
 outer loop
  vertex 461500.0 5554500.0 5060.60009765625
  vertex 462500.0 5553500.0 4460.2001953125
  vertex 461500.0 5553500.0 4654.0
 endloop
endfacet
facet normal -0.509731650352478 0.006796313915401697 -0.8603065609931946
 outer loop
  vertex 461500.0 5554500.0 5060.60009765625
  vertex 462500.0 5554500.0 4468.10009765625
  vertex 462500.0 5553500.0 4460.2001953125
 endloop
endfacet
facet normal -0.18371358513832092 0.007765202317386866 -0.9829491376876831
 outer loop
  vertex 462500.0 5554500.0 4468.10009765625
  vertex 463500.0 5553500.0 4273.2998046875
  vertex 462500.0 5553500.0 4460.2001953125
 endloop
endfacet
facet normal 0.024215519428253174 0.21442629396915436 -0.976439893245697
 outer loop
  vertex 462500.0 5554500.0 4468.10009765625
  vertex 463500.0 5554500.0 4492.89990234375
  vertex 463500.0 5553500.0 4273.2998046875
 endloop
endfacet
facet normal -0.2551743984222412 0.20738853514194489 -0.9443918466567993
 outer loop
  vertex 463500.0 5554500.0 4492.89990234375
  vertex 464500.0 5553500.0 4003.10009765625
  vertex 463500.0 5553500.0 4273.2998046875
 endloop
endfacet
facet normal -0.23811203241348267 0.22469443082809448 -0.9448890089988708
 outer loop
  vertex 463500.0 5554500.0 4492.89990234375
  vertex 464500.0 5554500.0 4240.89990234375
  vertex 464500.0 5553500.0 4003.10009765625
 endloop
endfacet
facet normal 0.02956225909292698 0.2312474101781845 -0.9724457263946533
 outer loop
  vertex 464500.0 5554500.0 4240.89990234375
  vertex 465500.0 5553500.0 4033.5
  vertex 464500.0 5553500.0 4003.10009765625
 endloop
endfacet
facet normal -0.011481145396828651 0.19204433262348175 -0.9813190698623657
 outer loop
  vertex 464500.0 5554500.0 4240.89990234375
  vertex 465500.0 5554500.0 4229.2001953125
  vertex 465500.0 5553500.0 4033.5
 endloop
endfacet
facet normal -0.11282111704349518 0.1908307671546936 -0.9751179814338684
 outer loop
  vertex 465500.0 5554500.0 4229.2001953125
  vertex 466500.0 5553500.0 3917.800048828125
  vertex 465500.0 5553500.0 4033.5
 endloop
endfacet
facet normal -0.19361425936222076 0.10996823012828827 -0.9748951196670532
 outer loop
  vertex 465500.0 5554500.0 4229.2001953125
  vertex 466500.0 5554500.0 4030.60009765625
  vertex 466500.0 5553500.0 3917.800048828125
 endloop
endfacet
facet normal 0.12122473865747452 0.11126255244016647 -0.9863697290420532
 outer loop
  vertex 466500.0 5554500.0 4030.60009765625
  vertex 467500.0 5553500.0 4040.699951171875
  vertex 466500.0 5553500.0 3917.800048828125
 endloop
endfacet
facet normal 0.1455318182706833 0.13563382625579834 -0.9800122380256653
 outer loop
  vertex 466500.0 5554500.0 4030.60009765625
  vertex 467500.0 5554500.0 4179.10009765625
  vertex 467500.0 5553500.0 4040.699951171875
 endloop
endfacet
facet normal -0.07192590087652206 0.13673831522464752 -0.9879925847053528
 outer loop
  vertex 467500.0 5554500.0 4179.10009765625
  vertex 468500.0 5553500.0 3967.89990234375
  vertex 467500.0 5553500.0 4040.699951171875
 endloop
endfacet
facet normal -0.214016854763031 -0.007716624531894922 -0.976799488067627
 outer loop
  vertex 467500.0 5554500.0 4179.10009765625
  vertex 468500.0 5554500.0 3960.0
  vertex 468500.0 5553500.0 3967.89990234375
 endloop
endfacet
facet normal -0.11718335747718811 -0.007845229469239712 -0.9930793046951294
 outer loop
  vertex 468500.0 5554500.0 3960.0
  vertex 469500.0 5553500.0 3849.89990234375
  vertex 468500.0 5553500.0 3967.89990234375
 endloop
endfacet
facet normal 0.009333089925348759 0.11865061521530151 -0.9928922057151794
 outer loop
  vertex 468500.0 5554500.0 3960.0
  vertex 469500.0 5554500.0 3969.39990234375
  vertex 469500.0 5553500.0 3849.89990234375
 endloop
endfacet
facet normal -0.33344802260398865 -0.13902997970581055 -0.9324607253074646
 outer loop
  vertex 452500.0 5555500.0 5183.89990234375
  vertex 453500.0 5554500.0 4975.39990234375
  vertex 452500.0 5554500.0 5333.0
 endloop
endfacet
facet normal 0.26575788855552673 0.4441561698913574 -0.8556272387504578
 outer loop
  vertex 452500.0 5555500.0 5183.89990234375
  vertex 453500.0 5555500.0 5494.5
  vertex 453500.0 5554500.0 4975.39990234375
 endloop
endfacet
facet normal 0.1726573258638382 0.45380473136901855 -0.8742143511772156
 outer loop
  vertex 453500.0 5555500.0 5494.5
  vertex 454500.0 5554500.0 5172.89990234375
  vertex 453500.0 5554500.0 4975.39990234375
 endloop
endfacet
facet normal -0.3442993760108948 -0.042673978954553604 -0.9378896355628967
 outer loop
  vertex 453500.0 5555500.0 5494.5
  vertex 454500.0 5555500.0 5127.39990234375
  vertex 454500.0 5554500.0 5172.89990234375
 endloop
endfacet
facet normal -0.5035896897315979 -0.03926877677440643 -0.8630500435829163
 outer loop
  vertex 454500.0 5555500.0 5127.39990234375
  vertex 455500.0 5554500.0 4589.39990234375
  vertex 454500.0 5554500.0 5172.89990234375
 endloop
endfacet
facet normal 0.3359515368938446 0.6842018961906433 -0.6473054885864258
 outer loop
  vertex 454500.0 5555500.0 5127.39990234375
  vertex 455500.0 5555500.0 5646.39990234375
  vertex 455500.0 5554500.0 4589.39990234375
 endloop
endfacet
facet normal 0.47400471568107605 0.6396307945251465 -0.6051379442214966
 outer loop
  vertex 455500.0 5555500.0 5646.39990234375
  vertex 456500.0 5554500.0 5372.7001953125
  vertex 455500.0 5554500.0 4589.39990234375
 endloop
endfacet
facet normal 0.26523321866989136 0.49216124415397644 -0.8291131258010864
 outer loop
  vertex 455500.0 5555500.0 5646.39990234375
  vertex 456500.0 5555500.0 5966.2998046875
  vertex 456500.0 5554500.0 5372.7001953125
 endloop
endfacet
facet normal 0.4465022683143616 0.45673561096191406 -0.7694337964057922
 outer loop
  vertex 456500.0 5555500.0 5966.2998046875
  vertex 457500.0 5554500.0 5953.0
  vertex 456500.0 5554500.0 5372.7001953125
 endloop
endfacet
facet normal -0.3064211308956146 -0.294381707906723 -0.9052322506904602
 outer loop
  vertex 456500.0 5555500.0 5966.2998046875
  vertex 457500.0 5555500.0 5627.7998046875
  vertex 457500.0 5554500.0 5953.0
 endloop
endfacet
facet normal -0.5916946530342102 -0.24931232631206512 -0.7666426301002502
 outer loop
  vertex 457500.0 5555500.0 5627.7998046875
  vertex 458500.0 5554500.0 5181.2001953125
  vertex 457500.0 5554500.0 5953.0
 endloop
endfacet
facet normal -0.5199342370033264 -0.1438978910446167 -0.8419987559318542
 outer loop
  vertex 457500.0 5555500.0 5627.7998046875
  vertex 458500.0 5555500.0 5010.2998046875
  vertex 458500.0 5554500.0 5181.2001953125
 endloop
endfacet
facet normal -0.20639964938163757 -0.16483074426651 -0.9644843339920044
 outer loop
  vertex 458500.0 5555500.0 5010.2998046875
  vertex 459500.0 5554500.0 4967.2001953125
  vertex 458500.0 5554500.0 5181.2001953125
 endloop
endfacet
facet normal 0.3573703467845917 0.39386922121047974 -0.8468491435050964
 outer loop
  vertex 458500.0 5555500.0 5010.2998046875
  vertex 459500.0 5555500.0 5432.2998046875
  vertex 459500.0 5554500.0 4967.2001953125
 endloop
endfacet
facet normal -0.09844344854354858 0.41966989636421204 -0.9023225903511047
 outer loop
  vertex 459500.0 5555500.0 5432.2998046875
  vertex 460500.0 5554500.0 4858.10009765625
  vertex 459500.0 5554500.0 4967.2001953125
 endloop
endfacet
facet normal -0.41794997453689575 0.10049200803041458 -0.902894914150238
 outer loop
  vertex 459500.0 5555500.0 5432.2998046875
  vertex 460500.0 5555500.0 4969.39990234375
  vertex 460500.0 5554500.0 4858.10009765625
 endloop
endfacet
facet normal 0.19730114936828613 0.10844236612319946 -0.9743266701698303
 outer loop
  vertex 460500.0 5555500.0 4969.39990234375
  vertex 461500.0 5554500.0 5060.60009765625
  vertex 460500.0 5554500.0 4858.10009765625
 endloop
endfacet
facet normal 0.07378736138343811 -0.017150770872831345 -0.9971265196800232
 outer loop
  vertex 460500.0 5555500.0 4969.39990234375
  vertex 461500.0 5555500.0 5043.39990234375
  vertex 461500.0 5554500.0 5060.60009765625
 endloop
endfacet
facet normal -0.509687602519989 -0.014796162955462933 -0.8602322340011597
 outer loop
  vertex 461500.0 5555500.0 5043.39990234375
  vertex 462500.0 5554500.0 4468.10009765625
  vertex 461500.0 5554500.0 5060.60009765625
 endloop
endfacet
facet normal -0.025707770138978958 0.47906267642974854 -0.8774041533470154
 outer loop
  vertex 461500.0 5555500.0 5043.39990234375
  vertex 462500.0 5555500.0 5014.10009765625
  vertex 462500.0 5554500.0 4468.10009765625
 endloop
endfacet
facet normal 0.021761499345302582 0.4791075885295868 -0.8774864673614502
 outer loop
  vertex 462500.0 5555500.0 5014.10009765625
  vertex 463500.0 5554500.0 4492.89990234375
  vertex 462500.0 5554500.0 4468.10009765625
 endloop
endfacet
facet normal 0.07371970266103745 0.5179130434989929 -0.8522509336471558
 outer loop
  vertex 462500.0 5555500.0 5014.10009765625
  vertex 463500.0 5555500.0 5100.60009765625
  vertex 463500.0 5554500.0 4492.89990234375
 endloop
endfacet
facet normal -0.210526704788208 0.507686972618103 -0.835423469543457
 outer loop
  vertex 463500.0 5555500.0 5100.60009765625
  vertex 464500.0 5554500.0 4240.89990234375
  vertex 463500.0 5554500.0 4492.89990234375
 endloop
endfacet
facet normal -0.5705010294914246 0.12706652283668518 -0.8114079236984253
 outer loop
  vertex 463500.0 5555500.0 5100.60009765625
  vertex 464500.0 5555500.0 4397.5
  vertex 464500.0 5554500.0 4240.89990234375
 endloop
endfacet
facet normal -0.011558073572814465 0.15470416843891144 -0.9878932237625122
 outer loop
  vertex 464500.0 5555500.0 4397.5
  vertex 465500.0 5554500.0 4229.2001953125
  vertex 464500.0 5554500.0 4240.89990234375
 endloop
endfacet
facet normal -0.10214349627494812 0.06491915881633759 -0.9926490783691406
 outer loop
  vertex 464500.0 5555500.0 4397.5
  vertex 465500.0 5555500.0 4294.60009765625
  vertex 465500.0 5554500.0 4229.2001953125
 endloop
endfacet
facet normal -0.19439613819122314 0.06401551514863968 -0.9788320064544678
 outer loop
  vertex 465500.0 5555500.0 4294.60009765625
  vertex 466500.0 5554500.0 4030.60009765625
  vertex 465500.0 5554500.0 4229.2001953125
 endloop
endfacet
facet normal -0.13417941331863403 0.12533241510391235 -0.982999324798584
 outer loop
  vertex 465500.0 5555500.0 4294.60009765625
  vertex 466500.0 5555500.0 4158.10009765625
  vertex 466500.0 5554500.0 4030.60009765625
 endloop
endfacet
facet normal 0.1457347869873047 0.12512582540512085 -0.9813790917396545
 outer loop
  vertex 466500.0 5555500.0 4158.10009765625
  vertex 467500.0 5554500.0 4179.10009765625
  vertex 466500.0 5554500.0 4030.60009765625
 endloop
endfacet
facet normal -0.022273890674114227 -0.04324902594089508 -0.9988160133361816
 outer loop
  vertex 466500.0 5555500.0 4158.10009765625
  vertex 467500.0 5555500.0 4135.7998046875
  vertex 467500.0 5554500.0 4179.10009765625
 endloop
endfacet
facet normal -0.2138320505619049 -0.042259179055690765 -0.9759559035301208
 outer loop
  vertex 467500.0 5555500.0 4135.7998046875
  vertex 468500.0 5554500.0 3960.0
  vertex 467500.0 5554500.0 4179.10009765625
 endloop
endfacet
facet normal 0.09019748121500015 0.2592449486255646 -0.961590588092804
 outer loop
  vertex 467500.0 5555500.0 4135.7998046875
  vertex 468500.0 5555500.0 4229.60009765625
  vertex 468500.0 5554500.0 3960.0
 endloop
endfacet
facet normal 0.009075482375919819 0.26029524207115173 -0.965486466884613
 outer loop
  vertex 468500.0 5555500.0 4229.60009765625
  vertex 469500.0 5554500.0 3969.39990234375
  vertex 468500.0 5554500.0 3960.0
 endloop
endfacet
facet normal -0.014469373971223831 0.23821240663528442 -0.9711053371429443
 outer loop
  vertex 468500.0 5555500.0 4229.60009765625
  vertex 469500.0 5555500.0 4214.7001953125
  vertex 469500.0 5554500.0 3969.39990234375
 endloop
endfacet
facet normal -0.10680098086595535 0.23687472939491272 -0.9656520485877991
 outer loop
  vertex 469500.0 5555500.0 4214.7001953125
  vertex 470500.0 5554500.0 3858.800048828125
  vertex 469500.0 5554500.0 3969.39990234375
 endloop
endfacet
facet normal -0.1510196477174759 0.19395990669727325 -0.9693155288696289
 outer loop
  vertex 469500.0 5555500.0 4214.7001953125
  vertex 470500.0 5555500.0 4058.89990234375
  vertex 470500.0 5554500.0 3858.800048828125
 endloop
endfacet
facet normal 0.356838583946228 0.6324089169502258 -0.6875501871109009
 outer loop
  vertex 454500.0 5556500.0 6047.2001953125
  vertex 455500.0 5555500.0 5646.39990234375
  vertex 454500.0 5555500.0 5127.39990234375
 endloop
endfacet
facet normal 0.08914325386285782 0.44607412815093994 -0.8905454874038696
 outer loop
  vertex 454500.0 5556500.0 6047.2001953125
  vertex 455500.0 5556500.0 6147.2998046875
  vertex 455500.0 5555500.0 5646.39990234375
 endloop
endfacet
facet normal 0.2749965488910675 0.43059012293815613 -0.8596330881118774
 outer loop
  vertex 455500.0 5556500.0 6147.2998046875
  vertex 456500.0 5555500.0 5966.2998046875
  vertex 455500.0 5555500.0 5646.39990234375
 endloop
endfacet
facet normal 0.6104792952537537 0.6830503940582275 -0.4009452760219574
 outer loop
  vertex 455500.0 5556500.0 6147.2998046875
  vertex 456500.0 5556500.0 7669.89990234375
  vertex 456500.0 5555500.0 5966.2998046875
 endloop
endfacet
facet normal -0.1688949465751648 0.8500131368637085 -0.4989510774612427
 outer loop
  vertex 456500.0 5556500.0 7669.89990234375
  vertex 457500.0 5555500.0 5627.7998046875
  vertex 456500.0 5555500.0 5966.2998046875
 endloop
endfacet
facet normal -0.9092514514923096 -0.07207100838422775 -0.40996053814888
 outer loop
  vertex 456500.0 5556500.0 7669.89990234375
  vertex 457500.0 5556500.0 5452.0
  vertex 457500.0 5555500.0 5627.7998046875
 endloop
endfacet
facet normal -0.5196214318275452 -0.1479341685771942 -0.841492235660553
 outer loop
  vertex 457500.0 5556500.0 5452.0
  vertex 458500.0 5555500.0 5010.2998046875
  vertex 457500.0 5555500.0 5627.7998046875
 endloop
endfacet
facet normal -0.1951531171798706 0.22635871171951294 -0.954293966293335
 outer loop
  vertex 457500.0 5556500.0 5452.0
  vertex 458500.0 5556500.0 5247.5
  vertex 458500.0 5555500.0 5010.2998046875
 endloop
endfacet
facet normal 0.379833847284317 0.21349918842315674 -0.9000802040100098
 outer loop
  vertex 458500.0 5556500.0 5247.5
  vertex 459500.0 5555500.0 5432.2998046875
  vertex 458500.0 5555500.0 5010.2998046875
 endloop
endfacet
facet normal 0.3640468120574951 0.1957731395959854 -0.9105727672576904
 outer loop
  vertex 458500.0 5556500.0 5247.5
  vertex 459500.0 5556500.0 5647.2998046875
  vertex 459500.0 5555500.0 5432.2998046875
 endloop
endfacet
facet normal -0.4123019576072693 0.19149912893772125 -0.8906936049461365
 outer loop
  vertex 459500.0 5556500.0 5647.2998046875
  vertex 460500.0 5555500.0 4969.39990234375
  vertex 459500.0 5555500.0 5432.2998046875
 endloop
endfacet
facet normal -0.35450461506843567 0.25528696179389954 -0.8995304107666016
 outer loop
  vertex 459500.0 5556500.0 5647.2998046875
  vertex 460500.0 5556500.0 5253.2001953125
  vertex 460500.0 5555500.0 4969.39990234375
 endloop
endfacet
facet normal 0.07100893557071686 0.272329181432724 -0.9595803618431091
 outer loop
  vertex 460500.0 5556500.0 5253.2001953125
  vertex 461500.0 5555500.0 5043.39990234375
  vertex 460500.0 5555500.0 4969.39990234375
 endloop
endfacet
facet normal -0.004898271057754755 0.2006334662437439 -0.9796541929244995
 outer loop
  vertex 460500.0 5556500.0 5253.2001953125
  vertex 461500.0 5556500.0 5248.2001953125
  vertex 461500.0 5555500.0 5043.39990234375
 endloop
endfacet
facet normal -0.028692195191979408 0.2005532681941986 -0.9792625904083252
 outer loop
  vertex 461500.0 5556500.0 5248.2001953125
  vertex 462500.0 5555500.0 5014.10009765625
  vertex 461500.0 5555500.0 5043.39990234375
 endloop
endfacet
facet normal 0.4304152727127075 0.5902761220932007 -0.6828739047050476
 outer loop
  vertex 461500.0 5556500.0 5248.2001953125
  vertex 462500.0 5556500.0 5878.5
  vertex 462500.0 5555500.0 5014.10009765625
 endloop
endfacet
facet normal 0.06530079245567322 0.6525548696517944 -0.7549224495887756
 outer loop
  vertex 462500.0 5556500.0 5878.5
  vertex 463500.0 5555500.0 5100.60009765625
  vertex 462500.0 5555500.0 5014.10009765625
 endloop
endfacet
facet normal -0.10023234784603119 0.202802836894989 -0.9740761518478394
 outer loop
  vertex 464500.0 5556500.0 4605.7001953125
  vertex 465500.0 5555500.0 4294.60009765625
  vertex 464500.0 5555500.0 4397.5
 endloop
endfacet
facet normal -0.021648097783327103 0.23909664154052734 -0.9707544445991516
 outer loop
  vertex 466500.0 5556500.0 4404.39990234375
  vertex 467500.0 5555500.0 4135.7998046875
  vertex 466500.0 5555500.0 4158.10009765625
 endloop
endfacet
facet normal 0.00434098532423377 0.26344966888427734 -0.9646633863449097
 outer loop
  vertex 466500.0 5556500.0 4404.39990234375
  vertex 467500.0 5556500.0 4408.89990234375
  vertex 467500.0 5555500.0 4135.7998046875
 endloop
endfacet
facet normal 0.09011836349964142 0.2623801827430725 -0.9607473015785217
 outer loop
  vertex 467500.0 5556500.0 4408.89990234375
  vertex 468500.0 5555500.0 4229.60009765625
  vertex 467500.0 5555500.0 4135.7998046875
 endloop
endfacet
facet normal -0.5359246730804443 -0.6037343740463257 -0.5901606678962708
 outer loop
  vertex 453500.0 5557500.0 5932.2998046875
  vertex 454500.0 5557500.0 5024.2001953125
  vertex 454500.0 5556500.0 6047.2001953125
 endloop
endfacet
facet normal 0.0698012039065361 -0.7133556604385376 -0.697317361831665
 outer loop
  vertex 454500.0 5557500.0 5024.2001953125
  vertex 455500.0 5556500.0 6147.2998046875
  vertex 454500.0 5556500.0 6047.2001953125
 endloop
endfacet
facet normal 0.8299046158790588 0.30591896176338196 -0.4665531516075134
 outer loop
  vertex 454500.0 5557500.0 5024.2001953125
  vertex 455500.0 5557500.0 6803.0
  vertex 455500.0 5556500.0 6147.2998046875
 endloop
endfacet
facet normal 0.7864504456520081 0.33868101239204407 -0.5165181159973145
 outer loop
  vertex 455500.0 5557500.0 6803.0
  vertex 456500.0 5556500.0 7669.89990234375
  vertex 455500.0 5556500.0 6147.2998046875
 endloop
endfacet
facet normal -0.19028596580028534 -0.7447695732116699 -0.6396166682243347
 outer loop
  vertex 455500.0 5557500.0 6803.0
  vertex 456500.0 5557500.0 6505.5
  vertex 456500.0 5556500.0 7669.89990234375
 endloop
endfacet
facet normal -0.8222960829734802 -0.4317063093185425 -0.37075433135032654
 outer loop
  vertex 456500.0 5557500.0 6505.5
  vertex 457500.0 5556500.0 5452.0
  vertex 456500.0 5556500.0 7669.89990234375
 endloop
endfacet
facet normal -0.5420565009117126 0.28917571902275085 -0.7890197038650513
 outer loop
  vertex 456500.0 5557500.0 6505.5
  vertex 457500.0 5557500.0 5818.5
  vertex 457500.0 5556500.0 5452.0
 endloop
endfacet
facet normal -0.18856598436832428 0.337943434715271 -0.9220830798149109
 outer loop
  vertex 457500.0 5557500.0 5818.5
  vertex 458500.0 5556500.0 5247.5
  vertex 457500.0 5556500.0 5452.0
 endloop
endfacet
facet normal -0.03235258162021637 0.47100508213043213 -0.8815370798110962
 outer loop
  vertex 457500.0 5557500.0 5818.5
  vertex 458500.0 5557500.0 5781.7998046875
  vertex 458500.0 5556500.0 5247.5
 endloop
endfacet
facet normal 0.3325531780719757 0.4444302022457123 -0.8317992687225342
 outer loop
  vertex 458500.0 5557500.0 5781.7998046875
  vertex 459500.0 5556500.0 5647.2998046875
  vertex 458500.0 5556500.0 5247.5
 endloop
endfacet
facet normal -0.08399629592895508 0.04986050724983215 -0.9952178597450256
 outer loop
  vertex 458500.0 5557500.0 5781.7998046875
  vertex 459500.0 5557500.0 5697.39990234375
  vertex 459500.0 5556500.0 5647.2998046875
 endloop
endfacet
facet normal -0.3662559390068054 0.04656045511364937 -0.9293485879898071
 outer loop
  vertex 459500.0 5557500.0 5697.39990234375
  vertex 460500.0 5556500.0 5253.2001953125
  vertex 459500.0 5556500.0 5647.2998046875
 endloop
endfacet
facet normal -0.6507334113121033 -0.25109240412712097 -0.7165881395339966
 outer loop
  vertex 453500.0 5558500.0 5581.89990234375
  vertex 454500.0 5557500.0 5024.2001953125
  vertex 453500.0 5557500.0 5932.2998046875
 endloop
endfacet
facet normal 0.38414156436920166 0.7119696736335754 -0.5878218412399292
 outer loop
  vertex 453500.0 5558500.0 5581.89990234375
  vertex 454500.0 5558500.0 6235.39990234375
  vertex 454500.0 5557500.0 5024.2001953125
 endloop
endfacet
facet normal 0.749599277973175 0.5104084610939026 -0.4214073121547699
 outer loop
  vertex 454500.0 5558500.0 6235.39990234375
  vertex 455500.0 5557500.0 6803.0
  vertex 454500.0 5557500.0 5024.2001953125
 endloop
endfacet
facet normal -0.3705788552761078 -0.7102763056755066 -0.5984803438186646
 outer loop
  vertex 454500.0 5558500.0 6235.39990234375
  vertex 455500.0 5558500.0 5616.2001953125
  vertex 455500.0 5557500.0 6803.0
 endloop
endfacet
facet normal -0.18826846778392792 -0.7510488033294678 -0.632835328578949
 outer loop
  vertex 455500.0 5558500.0 5616.2001953125
  vertex 456500.0 5557500.0 6505.5
  vertex 455500.0 5557500.0 6803.0
 endloop
endfacet
facet normal 0.6671034693717957 0.00461883470416069 -0.7449508309364319
 outer loop
  vertex 455500.0 5558500.0 5616.2001953125
  vertex 456500.0 5558500.0 6511.7001953125
  vertex 456500.0 5557500.0 6505.5
 endloop
endfacet
facet normal -0.5662415623664856 0.005110346712172031 -0.824223518371582
 outer loop
  vertex 456500.0 5558500.0 6511.7001953125
  vertex 457500.0 5557500.0 5818.5
  vertex 456500.0 5557500.0 6505.5
 endloop
endfacet
facet normal 0.40843749046325684 0.7594529390335083 -0.5063695311546326
 outer loop
  vertex 456500.0 5558500.0 6511.7001953125
  vertex 457500.0 5558500.0 7318.2998046875
  vertex 457500.0 5557500.0 5818.5
 endloop
endfacet
facet normal -0.02035530097782612 0.8318437933921814 -0.554636538028717
 outer loop
  vertex 457500.0 5558500.0 7318.2998046875
  vertex 458500.0 5557500.0 5781.7998046875
  vertex 457500.0 5557500.0 5818.5
 endloop
endfacet
facet normal -0.4477362632751465 0.587704598903656 -0.6738957762718201
 outer loop
  vertex 457500.0 5558500.0 7318.2998046875
  vertex 458500.0 5558500.0 6653.89990234375
  vertex 458500.0 5557500.0 5781.7998046875
 endloop
endfacet
facet normal -0.06348041445016861 0.6559402346611023 -0.7521387338638306
 outer loop
  vertex 458500.0 5558500.0 6653.89990234375
  vertex 459500.0 5557500.0 5697.39990234375
  vertex 458500.0 5557500.0 5781.7998046875
 endloop
endfacet
facet normal -0.6436076760292053 0.08120265603065491 -0.7610357403755188
 outer loop
  vertex 452500.0 5559500.0 6534.2998046875
  vertex 453500.0 5559500.0 5688.60009765625
  vertex 453500.0 5558500.0 5581.89990234375
 endloop
endfacet
facet normal 0.5448771715164185 0.0889648050069809 -0.833782970905304
 outer loop
  vertex 453500.0 5559500.0 5688.60009765625
  vertex 454500.0 5558500.0 6235.39990234375
  vertex 453500.0 5558500.0 5581.89990234375
 endloop
endfacet
endsolid
