solid
facet normal 0.08580674231052399 -0.04170876741409302 -0.9954383969306946
 outer loop
  vertex 728500.0 5737500.0 3329.800048828125
  vertex 729500.0 5737500.0 3416.0
  vertex 729500.0 5736500.0 3457.89990234375
 endloop
endfacet
facet normal -0.019778577610850334 -0.04185498133301735 -0.998927891254425
 outer loop
  vertex 729500.0 5737500.0 3416.0
  vertex 730500.0 5736500.0 3438.10009765625
  vertex 729500.0 5736500.0 3457.89990234375
 endloop
endfacet
facet normal 0.08588072657585144 0.004184397403150797 -0.9962966442108154
 outer loop
  vertex 728500.0 5738500.0 3334.0
  vertex 729500.0 5737500.0 3416.0
  vertex 728500.0 5737500.0 3329.800048828125
 endloop
endfacet
facet normal 0.030046069994568825 -0.0518067441880703 -0.9982050657272339
 outer loop
  vertex 728500.0 5738500.0 3334.0
  vertex 729500.0 5738500.0 3364.10009765625
  vertex 729500.0 5737500.0 3416.0
 endloop
endfacet
facet normal -0.007696709129959345 -0.029086923226714134 -0.9995472431182861
 outer loop
  vertex 727500.0 5739500.0 3312.60009765625
  vertex 728500.0 5739500.0 3304.89990234375
  vertex 728500.0 5738500.0 3334.0
 endloop
endfacet
facet normal 0.030073752626776695 -0.02907462790608406 -0.9991247653961182
 outer loop
  vertex 728500.0 5739500.0 3304.89990234375
  vertex 729500.0 5738500.0 3364.10009765625
  vertex 728500.0 5738500.0 3334.0
 endloop
endfacet
facet normal 0.03836357966065407 -0.02078023925423622 -0.9990476965904236
 outer loop
  vertex 728500.0 5739500.0 3304.89990234375
  vertex 729500.0 5739500.0 3343.300048828125
  vertex 729500.0 5738500.0 3364.10009765625
 endloop
endfacet
facet normal 0.0014997248072177172 -0.01909634843468666 -0.9998165369033813
 outer loop
  vertex 719500.0 5740500.0 3418.60009765625
  vertex 720500.0 5740500.0 3420.10009765625
  vertex 720500.0 5739500.0 3439.199951171875
 endloop
endfacet
facet normal -0.01759392023086548 -0.019093414768576622 -0.9996628761291504
 outer loop
  vertex 720500.0 5740500.0 3420.10009765625
  vertex 721500.0 5739500.0 3421.60009765625
  vertex 720500.0 5739500.0 3439.199951171875
 endloop
endfacet
facet normal -0.011998042464256287 -0.013497797772288322 -0.9998369216918945
 outer loop
  vertex 720500.0 5740500.0 3420.10009765625
  vertex 721500.0 5740500.0 3408.10009765625
  vertex 721500.0 5739500.0 3421.60009765625
 endloop
endfacet
facet normal -0.00769842742010951 -0.01999540813267231 -0.9997704029083252
 outer loop
  vertex 727500.0 5740500.0 3292.60009765625
  vertex 728500.0 5739500.0 3304.89990234375
  vertex 727500.0 5739500.0 3312.60009765625
 endloop
endfacet
facet normal 0.03257584199309349 0.020285096019506454 -0.9992634057998657
 outer loop
  vertex 727500.0 5740500.0 3292.60009765625
  vertex 728500.0 5740500.0 3325.199951171875
  vertex 728500.0 5739500.0 3304.89990234375
 endloop
endfacet
facet normal 0.038363974541425705 0.020280925557017326 -0.9990580081939697
 outer loop
  vertex 728500.0 5740500.0 3325.199951171875
  vertex 729500.0 5739500.0 3343.300048828125
  vertex 728500.0 5739500.0 3304.89990234375
 endloop
endfacet
facet normal 0.009299286641180515 -0.008799327537417412 -0.9999180436134338
 outer loop
  vertex 728500.0 5740500.0 3325.199951171875
  vertex 729500.0 5740500.0 3334.5
  vertex 729500.0 5739500.0 3343.300048828125
 endloop
endfacet
facet normal 0.03836897015571594 0.012290063314139843 -0.9991880059242249
 outer loop
  vertex 716500.0 5741500.0 3364.199951171875
  vertex 717500.0 5741500.0 3402.60009765625
  vertex 717500.0 5740500.0 3390.300048828125
 endloop
endfacet
facet normal 0.011098329909145832 0.012298360466957092 -0.999862790107727
 outer loop
  vertex 717500.0 5741500.0 3402.60009765625
  vertex 718500.0 5740500.0 3401.39990234375
  vertex 717500.0 5740500.0 3390.300048828125
 endloop
endfacet
facet normal -0.024286402389407158 -0.023086881265044212 -0.999438464641571
 outer loop
  vertex 717500.0 5741500.0 3402.60009765625
  vertex 718500.0 5741500.0 3378.300048828125
  vertex 718500.0 5740500.0 3401.39990234375
 endloop
endfacet
facet normal 0.017193064093589783 -0.02309028059244156 -0.9995855689048767
 outer loop
  vertex 718500.0 5741500.0 3378.300048828125
  vertex 719500.0 5740500.0 3418.60009765625
  vertex 718500.0 5740500.0 3401.39990234375
 endloop
endfacet
facet normal 0.001299060182645917 -0.03897034004330635 -0.9992395043373108
 outer loop
  vertex 718500.0 5741500.0 3378.300048828125
  vertex 719500.0 5741500.0 3379.60009765625
  vertex 719500.0 5740500.0 3418.60009765625
 endloop
endfacet
facet normal 0.0014988589100539684 -0.038970332592725754 -0.9992392659187317
 outer loop
  vertex 719500.0 5741500.0 3379.60009765625
  vertex 720500.0 5740500.0 3420.10009765625
  vertex 719500.0 5740500.0 3418.60009765625
 endloop
endfacet
facet normal 0.023290039971470833 -0.017192987725138664 -0.9995809197425842
 outer loop
  vertex 719500.0 5741500.0 3379.60009765625
  vertex 720500.0 5741500.0 3402.89990234375
  vertex 720500.0 5740500.0 3420.10009765625
 endloop
endfacet
facet normal -0.011997361667454243 -0.0171964131295681 -0.9997801184654236
 outer loop
  vertex 720500.0 5741500.0 3402.89990234375
  vertex 721500.0 5740500.0 3408.10009765625
  vertex 720500.0 5740500.0 3420.10009765625
 endloop
endfacet
facet normal 0.0019001327455043793 -0.0033000248949974775 -0.9999927282333374
 outer loop
  vertex 720500.0 5741500.0 3402.89990234375
  vertex 721500.0 5741500.0 3404.800048828125
  vertex 721500.0 5740500.0 3408.10009765625
 endloop
endfacet
facet normal -0.006799854803830385 -0.003299954580143094 -0.9999714493751526
 outer loop
  vertex 721500.0 5741500.0 3404.800048828125
  vertex 722500.0 5740500.0 3401.300048828125
  vertex 721500.0 5740500.0 3408.10009765625
 endloop
endfacet
facet normal -0.020492734387516975 -0.016993975266814232 -0.9996455907821655
 outer loop
  vertex 721500.0 5741500.0 3404.800048828125
  vertex 722500.0 5741500.0 3384.300048828125
  vertex 722500.0 5740500.0 3401.300048828125
 endloop
endfacet
facet normal 0.03258104622364044 0.009594314731657505 -0.999423086643219
 outer loop
  vertex 727500.0 5741500.0 3302.199951171875
  vertex 728500.0 5740500.0 3325.199951171875
  vertex 727500.0 5740500.0 3292.60009765625
 endloop
endfacet
facet normal -0.0021992477122694254 -0.0251918938010931 -0.99968022108078
 outer loop
  vertex 727500.0 5741500.0 3302.199951171875
  vertex 728500.0 5741500.0 3300.0
  vertex 728500.0 5740500.0 3325.199951171875
 endloop
endfacet
facet normal 0.009296695701777935 -0.025190865620970726 -0.9996394515037537
 outer loop
  vertex 728500.0 5741500.0 3300.0
  vertex 729500.0 5740500.0 3334.5
  vertex 728500.0 5740500.0 3325.199951171875
 endloop
endfacet
facet normal 0.022592728957533836 -0.011896022595465183 -0.9996739625930786
 outer loop
  vertex 728500.0 5741500.0 3300.0
  vertex 729500.0 5741500.0 3322.60009765625
  vertex 729500.0 5740500.0 3334.5
 endloop
endfacet
facet normal -0.049565039575099945 -0.05445164069533348 -0.9972854852676392
 outer loop
  vertex 715500.0 5742500.0 3359.300048828125
  vertex 716500.0 5741500.0 3364.199951171875
  vertex 715500.0 5741500.0 3413.89990234375
 endloop
endfacet
facet normal -0.05372948572039604 -0.05861387401819229 -0.9968337416648865
 outer loop
  vertex 715500.0 5742500.0 3359.300048828125
  vertex 716500.0 5742500.0 3305.39990234375
  vertex 716500.0 5741500.0 3364.199951171875
 endloop
endfacet
facet normal 0.038305800408124924 -0.05865557864308357 -0.9975430369377136
 outer loop
  vertex 716500.0 5742500.0 3305.39990234375
  vertex 717500.0 5741500.0 3402.60009765625
  vertex 716500.0 5741500.0 3364.199951171875
 endloop
endfacet
facet normal 0.04050195962190628 -0.05646328255534172 -0.9975827932357788
 outer loop
  vertex 716500.0 5742500.0 3305.39990234375
  vertex 717500.0 5742500.0 3346.0
  vertex 717500.0 5741500.0 3402.60009765625
 endloop
endfacet
facet normal -0.024254081770777702 -0.05649302899837494 -0.9981083273887634
 outer loop
  vertex 717500.0 5742500.0 3346.0
  vertex 718500.0 5741500.0 3378.300048828125
  vertex 717500.0 5741500.0 3402.60009765625
 endloop
endfacet
facet normal -0.008892007172107697 -0.041163403540849686 -0.9991128444671631
 outer loop
  vertex 717500.0 5742500.0 3346.0
  vertex 718500.0 5742500.0 3337.10009765625
  vertex 718500.0 5741500.0 3378.300048828125
 endloop
endfacet
facet normal 0.0012989438837394118 -0.04116499796509743 -0.9991515278816223
 outer loop
  vertex 718500.0 5742500.0 3337.10009765625
  vertex 719500.0 5741500.0 3379.60009765625
  vertex 718500.0 5741500.0 3378.300048828125
 endloop
endfacet
facet normal 0.03138250112533569 -0.011093947105109692 -0.9994458556175232
 outer loop
  vertex 718500.0 5742500.0 3337.10009765625
  vertex 719500.0 5742500.0 3368.5
  vertex 719500.0 5741500.0 3379.60009765625
 endloop
endfacet
facet normal 0.023292047902941704 -0.011096403002738953 -0.9996671080589294
 outer loop
  vertex 719500.0 5742500.0 3368.5
  vertex 720500.0 5741500.0 3402.89990234375
  vertex 719500.0 5741500.0 3379.60009765625
 endloop
endfacet
facet normal -0.008991172537207603 -0.04335733503103256 -0.9990191459655762
 outer loop
  vertex 719500.0 5742500.0 3368.5
  vertex 720500.0 5742500.0 3359.5
  vertex 720500.0 5741500.0 3402.89990234375
 endloop
endfacet
facet normal 0.0018983541522175074 -0.04335900768637657 -0.9990577697753906
 outer loop
  vertex 720500.0 5742500.0 3359.5
  vertex 721500.0 5741500.0 3404.800048828125
  vertex 720500.0 5741500.0 3402.89990234375
 endloop
endfacet
facet normal -0.010383247397840023 -0.05561074614524841 -0.99839848279953
 outer loop
  vertex 720500.0 5742500.0 3359.5
  vertex 721500.0 5742500.0 3349.10009765625
  vertex 721500.0 5741500.0 3404.800048828125
 endloop
endfacet
facet normal -0.020463986322283745 -0.05560210347175598 -0.9982432723045349
 outer loop
  vertex 721500.0 5742500.0 3349.10009765625
  vertex 722500.0 5741500.0 3384.300048828125
  vertex 721500.0 5741500.0 3404.800048828125
 endloop
endfacet
facet normal -0.004196902271360159 -0.03936925530433655 -0.9992159008979797
 outer loop
  vertex 721500.0 5742500.0 3349.10009765625
  vertex 722500.0 5742500.0 3344.89990234375
  vertex 722500.0 5741500.0 3384.300048828125
 endloop
endfacet
facet normal 0.006699591875076294 -0.007899479009211063 -0.9999463558197021
 outer loop
  vertex 726500.0 5742500.0 3287.60009765625
  vertex 727500.0 5742500.0 3294.300048828125
  vertex 727500.0 5741500.0 3302.199951171875
 endloop
endfacet
facet normal -0.0021998772863298655 -0.007899636402726173 -0.9999663829803467
 outer loop
  vertex 727500.0 5742500.0 3294.300048828125
  vertex 728500.0 5741500.0 3300.0
  vertex 727500.0 5741500.0 3302.199951171875
 endloop
endfacet
facet normal 0.005399823188781738 -0.00030004442669451237 -0.99998539686203
 outer loop
  vertex 727500.0 5742500.0 3294.300048828125
  vertex 728500.0 5742500.0 3299.699951171875
  vertex 728500.0 5741500.0 3300.0
 endloop
endfacet
facet normal 0.022594327107071877 -0.0002999722200911492 -0.999744713306427
 outer loop
  vertex 728500.0 5742500.0 3299.699951171875
  vertex 729500.0 5741500.0 3322.60009765625
  vertex 728500.0 5741500.0 3300.0
 endloop
endfacet
facet normal 0.011898583732545376 -0.010998555459082127 -0.9998686909675598
 outer loop
  vertex 728500.0 5742500.0 3299.699951171875
  vertex 729500.0 5742500.0 3311.60009765625
  vertex 729500.0 5741500.0 3322.60009765625
 endloop
endfacet
facet normal -0.053821880370378494 -0.0022967089898884296 -0.9985479116439819
 outer loop
  vertex 715500.0 5743500.0 3357.0
  vertex 716500.0 5742500.0 3305.39990234375
  vertex 715500.0 5742500.0 3359.300048828125
 endloop
endfacet
facet normal -0.07358185946941376 -0.022134315222501755 -0.9970434904098511
 outer loop
  vertex 715500.0 5743500.0 3357.0
  vertex 716500.0 5743500.0 3283.199951171875
  vertex 716500.0 5742500.0 3305.39990234375
 endloop
endfacet
facet normal 0.04055669903755188 -0.022176222875714302 -0.9989311695098877
 outer loop
  vertex 716500.0 5743500.0 3283.199951171875
  vertex 717500.0 5742500.0 3346.0
  vertex 716500.0 5742500.0 3305.39990234375
 endloop
endfacet
facet normal -0.031444430351257324 -0.09393560141324997 -0.9950815439224243
 outer loop
  vertex 716500.0 5743500.0 3283.199951171875
  vertex 717500.0 5743500.0 3251.60009765625
  vertex 717500.0 5742500.0 3346.0
 endloop
endfacet
facet normal -0.008860167115926743 -0.0939783975481987 -0.9955348372459412
 outer loop
  vertex 717500.0 5743500.0 3251.60009765625
  vertex 718500.0 5742500.0 3337.10009765625
  vertex 717500.0 5742500.0 3346.0
 endloop
endfacet
facet normal 0.17115159332752228 0.08724409341812134 -0.9813743829727173
 outer loop
  vertex 717500.0 5743500.0 3251.60009765625
  vertex 718500.0 5743500.0 3426.0
  vertex 718500.0 5742500.0 3337.10009765625
 endloop
endfacet
facet normal 0.03126126900315285 0.08850739896297455 -0.9955848455429077
 outer loop
  vertex 718500.0 5743500.0 3426.0
  vertex 719500.0 5742500.0 3368.5
  vertex 718500.0 5742500.0 3337.10009765625
 endloop
endfacet
facet normal -0.1497173309326172 -0.0931181088089943 -0.9843341708183289
 outer loop
  vertex 718500.0 5743500.0 3426.0
  vertex 719500.0 5743500.0 3273.89990234375
  vertex 719500.0 5742500.0 3368.5
 endloop
endfacet
facet normal -0.008959637023508549 -0.09417583793401718 -0.9955152869224548
 outer loop
  vertex 719500.0 5743500.0 3273.89990234375
  vertex 720500.0 5742500.0 3359.5
  vertex 719500.0 5742500.0 3368.5
 endloop
endfacet
facet normal -0.024048421531915665 -0.10911253094673157 -0.9937384724617004
 outer loop
  vertex 719500.0 5743500.0 3273.89990234375
  vertex 720500.0 5743500.0 3249.699951171875
  vertex 720500.0 5742500.0 3359.5
 endloop
endfacet
facet normal -0.010337216779589653 -0.10913826525211334 -0.9939728379249573
 outer loop
  vertex 720500.0 5743500.0 3249.699951171875
  vertex 721500.0 5742500.0 3349.10009765625
  vertex 720500.0 5742500.0 3359.5
 endloop
endfacet
facet normal 0.00906284898519516 -0.08993043005466461 -0.9959068298339844
 outer loop
  vertex 720500.0 5743500.0 3249.699951171875
  vertex 721500.0 5743500.0 3258.800048828125
  vertex 721500.0 5742500.0 3349.10009765625
 endloop
endfacet
facet normal -0.004183138255029917 -0.08993333578109741 -0.9959390163421631
 outer loop
  vertex 721500.0 5743500.0 3258.800048828125
  vertex 722500.0 5742500.0 3344.89990234375
  vertex 721500.0 5742500.0 3349.10009765625
 endloop
endfacet
facet normal 0.021250668913125992 -0.06464958190917969 -0.9976816773414612
 outer loop
  vertex 721500.0 5743500.0 3258.800048828125
  vertex 722500.0 5743500.0 3280.10009765625
  vertex 722500.0 5742500.0 3344.89990234375
 endloop
endfacet
facet normal -0.06026364862918854 -0.06454665958881378 -0.9960933923721313
 outer loop
  vertex 722500.0 5743500.0 3280.10009765625
  vertex 723500.0 5742500.0 3284.39990234375
  vertex 722500.0 5742500.0 3344.89990234375
 endloop
endfacet
facet normal 0.006399757228791714 0.0021000499837100506 -0.9999772906303406
 outer loop
  vertex 722500.0 5743500.0 3280.10009765625
  vertex 723500.0 5743500.0 3286.5
  vertex 723500.0 5742500.0 3284.39990234375
 endloop
endfacet
facet normal -0.005599753465503454 0.0021000602282583714 -0.9999821186065674
 outer loop
  vertex 723500.0 5743500.0 3286.5
  vertex 724500.0 5742500.0 3278.800048828125
  vertex 723500.0 5742500.0 3284.39990234375
 endloop
endfacet
facet normal -0.02249184437096119 -0.014794684946537018 -0.9996375441551208
 outer loop
  vertex 723500.0 5743500.0 3286.5
  vertex 724500.0 5743500.0 3264.0
  vertex 724500.0 5742500.0 3278.800048828125
 endloop
endfacet
facet normal 0.011099401861429214 0.0014999059494584799 -0.9999372959136963
 outer loop
  vertex 725500.0 5743500.0 3278.0
  vertex 726500.0 5743500.0 3289.10009765625
  vertex 726500.0 5742500.0 3287.60009765625
 endloop
endfacet
facet normal 0.006699793506413698 0.0014999646227806807 -0.9999764561653137
 outer loop
  vertex 726500.0 5743500.0 3289.10009765625
  vertex 727500.0 5742500.0 3294.300048828125
  vertex 726500.0 5742500.0 3287.60009765625
 endloop
endfacet
facet normal 0.0008998936973512173 -0.004300007596611977 -0.9999904036521912
 outer loop
  vertex 726500.0 5743500.0 3289.10009765625
  vertex 727500.0 5743500.0 3290.0
  vertex 727500.0 5742500.0 3294.300048828125
 endloop
endfacet
facet normal 0.005399773828685284 -0.004299946594983339 -0.9999762177467346
 outer loop
  vertex 727500.0 5743500.0 3290.0
  vertex 728500.0 5742500.0 3299.699951171875
  vertex 727500.0 5742500.0 3294.300048828125
 endloop
endfacet
facet normal -0.03154674172401428 -0.048618096858263016 -0.998319149017334
 outer loop
  vertex 716500.0 5744500.0 3234.5
  vertex 717500.0 5743500.0 3251.60009765625
  vertex 716500.0 5743500.0 3283.199951171875
 endloop
endfacet
facet normal -0.005398457404226065 -0.022493978962302208 -0.9997323751449585
 outer loop
  vertex 716500.0 5744500.0 3234.5
  vertex 717500.0 5744500.0 3229.10009765625
  vertex 717500.0 5743500.0 3251.60009765625
 endloop
endfacet
facet normal 0.17176450788974762 -0.02215999737381935 -0.9848887920379639
 outer loop
  vertex 717500.0 5744500.0 3229.10009765625
  vertex 718500.0 5743500.0 3426.0
  vertex 717500.0 5743500.0 3251.60009765625
 endloop
endfacet
facet normal -0.010866859927773476 -0.20362944900989532 -0.9789877533912659
 outer loop
  vertex 717500.0 5744500.0 3229.10009765625
  vertex 718500.0 5744500.0 3218.0
  vertex 718500.0 5743500.0 3426.0
 endloop
endfacet
facet normal -0.14728879928588867 -0.20142045617103577 -0.9683675765991211
 outer loop
  vertex 718500.0 5744500.0 3218.0
  vertex 719500.0 5743500.0 3273.89990234375
  vertex 718500.0 5743500.0 3426.0
 endloop
endfacet
facet normal 0.011987592093646526 -0.04385450854897499 -0.9989659786224365
 outer loop
  vertex 718500.0 5744500.0 3218.0
  vertex 719500.0 5744500.0 3230.0
  vertex 719500.0 5743500.0 3273.89990234375
 endloop
endfacet
facet normal -0.02416960336267948 -0.04384484887123108 -0.9987459778785706
 outer loop
  vertex 719500.0 5744500.0 3230.0
  vertex 720500.0 5743500.0 3249.699951171875
  vertex 719500.0 5743500.0 3273.89990234375
 endloop
endfacet
facet normal 0.010798991657793522 -0.008899031206965446 -0.9999021291732788
 outer loop
  vertex 719500.0 5744500.0 3230.0
  vertex 720500.0 5744500.0 3240.800048828125
  vertex 720500.0 5743500.0 3249.699951171875
 endloop
endfacet
facet normal 0.009099360555410385 -0.00889918114989996 -0.9999189972877502
 outer loop
  vertex 720500.0 5744500.0 3240.800048828125
  vertex 721500.0 5743500.0 3258.800048828125
  vertex 720500.0 5743500.0 3249.699951171875
 endloop
endfacet
facet normal 0.007999343797564507 -0.00999918021261692 -0.9999179840087891
 outer loop
  vertex 720500.0 5744500.0 3240.800048828125
  vertex 721500.0 5744500.0 3248.800048828125
  vertex 721500.0 5743500.0 3258.800048828125
 endloop
endfacet
facet normal 0.021294154226779938 -0.0099972328171134 -0.9997232556343079
 outer loop
  vertex 721500.0 5744500.0 3248.800048828125
  vertex 722500.0 5743500.0 3280.10009765625
  vertex 721500.0 5743500.0 3258.800048828125
 endloop
endfacet
facet normal 0.023892425000667572 -0.007397831417620182 -0.999687135219574
 outer loop
  vertex 721500.0 5744500.0 3248.800048828125
  vertex 722500.0 5744500.0 3272.699951171875
  vertex 722500.0 5743500.0 3280.10009765625
 endloop
endfacet
facet normal 0.006399596109986305 -0.007399792317301035 -0.9999521374702454
 outer loop
  vertex 722500.0 5744500.0 3272.699951171875
  vertex 723500.0 5743500.0 3286.5
  vertex 722500.0 5743500.0 3280.10009765625
 endloop
endfacet
facet normal 0.0009000712307170033 -0.012898823246359825 -0.9999163746833801
 outer loop
  vertex 722500.0 5744500.0 3272.699951171875
  vertex 723500.0 5744500.0 3273.60009765625
  vertex 723500.0 5743500.0 3286.5
 endloop
endfacet
facet normal -0.022492436692118645 -0.012895566411316395 -0.9996638894081116
 outer loop
  vertex 723500.0 5744500.0 3273.60009765625
  vertex 724500.0 5743500.0 3264.0
  vertex 723500.0 5743500.0 3286.5
 endloop
endfacet
facet normal -0.009199805557727814 0.0003998854081146419 -0.9999576210975647
 outer loop
  vertex 723500.0 5744500.0 3273.60009765625
  vertex 724500.0 5744500.0 3264.39990234375
  vertex 724500.0 5743500.0 3264.0
 endloop
endfacet
facet normal 0.013998627662658691 0.0003998631436843425 -0.9999019503593445
 outer loop
  vertex 724500.0 5744500.0 3264.39990234375
  vertex 725500.0 5743500.0 3278.0
  vertex 724500.0 5743500.0 3264.0
 endloop
endfacet
facet normal 0.01909632608294487 0.005498914048075676 -0.9998025298118591
 outer loop
  vertex 724500.0 5744500.0 3264.39990234375
  vertex 725500.0 5744500.0 3283.5
  vertex 725500.0 5743500.0 3278.0
 endloop
endfacet
facet normal 0.011099245399236679 0.005499578081071377 -0.9999232292175293
 outer loop
  vertex 725500.0 5744500.0 3283.5
  vertex 726500.0 5743500.0 3289.10009765625
  vertex 725500.0 5743500.0 3278.0
 endloop
endfacet
facet normal 0.004499951843172312 -0.0011000859085470438 -0.9999893307685852
 outer loop
  vertex 725500.0 5744500.0 3283.5
  vertex 726500.0 5744500.0 3288.0
  vertex 726500.0 5743500.0 3289.10009765625
 endloop
endfacet
facet normal 0.0008999014389701188 -0.00110009650234133 -0.9999989867210388
 outer loop
  vertex 726500.0 5744500.0 3288.0
  vertex 727500.0 5743500.0 3290.0
  vertex 726500.0 5743500.0 3289.10009765625
 endloop
endfacet
facet normal -0.007999343797564507 -0.00999918021261692 -0.9999179840087891
 outer loop
  vertex 726500.0 5744500.0 3288.0
  vertex 727500.0 5744500.0 3280.0
  vertex 727500.0 5743500.0 3290.0
 endloop
endfacet
facet normal 0.0031983782537281513 -0.031184615567326546 -0.9995085000991821
 outer loop
  vertex 715500.0 5745500.0 3200.10009765625
  vertex 716500.0 5745500.0 3203.300048828125
  vertex 716500.0 5744500.0 3234.5
 endloop
endfacet
facet normal -0.00539719732478261 -0.031184321269392967 -0.9994990825653076
 outer loop
  vertex 716500.0 5745500.0 3203.300048828125
  vertex 717500.0 5744500.0 3229.10009765625
  vertex 716500.0 5744500.0 3234.5
 endloop
endfacet
facet normal 0.00519877765327692 -0.020595449954271317 -0.9997743368148804
 outer loop
  vertex 716500.0 5745500.0 3203.300048828125
  vertex 717500.0 5745500.0 3208.5
  vertex 717500.0 5744500.0 3229.10009765625
 endloop
endfacet
facet normal -0.011097059585154057 -0.020594459027051926 -0.9997262954711914
 outer loop
  vertex 717500.0 5745500.0 3208.5
  vertex 718500.0 5744500.0 3218.0
  vertex 717500.0 5744500.0 3229.10009765625
 endloop
endfacet
facet normal 0.016197463497519493 0.006698922254145145 -0.9998463988304138
 outer loop
  vertex 717500.0 5745500.0 3208.5
  vertex 718500.0 5745500.0 3224.699951171875
  vertex 718500.0 5744500.0 3218.0
 endloop
endfacet
facet normal 0.011998866684734821 0.006699318531900644 -0.9999055862426758
 outer loop
  vertex 718500.0 5745500.0 3224.699951171875
  vertex 719500.0 5744500.0 3230.0
  vertex 718500.0 5744500.0 3218.0
 endloop
endfacet
facet normal 0.0073999278247356415 0.002100035548210144 -0.9999704360961914
 outer loop
  vertex 718500.0 5745500.0 3224.699951171875
  vertex 719500.0 5745500.0 3232.10009765625
  vertex 719500.0 5744500.0 3230.0
 endloop
endfacet
facet normal 0.010799395851790905 0.0020999705884605646 -0.999939501285553
 outer loop
  vertex 719500.0 5745500.0 3232.10009765625
  vertex 720500.0 5744500.0 3240.800048828125
  vertex 719500.0 5744500.0 3230.0
 endloop
endfacet
facet normal 0.0064998469315469265 -0.0021998994052410126 -0.9999764561653137
 outer loop
  vertex 719500.0 5745500.0 3232.10009765625
  vertex 720500.0 5745500.0 3238.60009765625
  vertex 720500.0 5744500.0 3240.800048828125
 endloop
endfacet
facet normal 0.007999724708497524 -0.00219987565651536 -0.9999656081199646
 outer loop
  vertex 720500.0 5745500.0 3238.60009765625
  vertex 721500.0 5744500.0 3248.800048828125
  vertex 720500.0 5744500.0 3240.800048828125
 endloop
endfacet
facet normal 0.01319874171167612 0.002999725053086877 -0.9999083876609802
 outer loop
  vertex 720500.0 5745500.0 3238.60009765625
  vertex 721500.0 5745500.0 3251.800048828125
  vertex 721500.0 5744500.0 3248.800048828125
 endloop
endfacet
facet normal 0.023892972618341446 0.0029991301707923412 -0.9997100234031677
 outer loop
  vertex 721500.0 5745500.0 3251.800048828125
  vertex 722500.0 5744500.0 3272.699951171875
  vertex 721500.0 5744500.0 3248.800048828125
 endloop
endfacet
facet normal 0.028787214308977127 0.007896626368165016 -0.9995543956756592
 outer loop
  vertex 721500.0 5745500.0 3251.800048828125
  vertex 722500.0 5745500.0 3280.60009765625
  vertex 722500.0 5744500.0 3272.699951171875
 endloop
endfacet
facet normal 0.0009001180296763778 0.007899896241724491 -0.9999683499336243
 outer loop
  vertex 722500.0 5745500.0 3280.60009765625
  vertex 723500.0 5744500.0 3273.60009765625
  vertex 722500.0 5744500.0 3272.699951171875
 endloop
endfacet
facet normal 0.00019994599279016256 0.007199764251708984 -0.9999740719795227
 outer loop
  vertex 722500.0 5745500.0 3280.60009765625
  vertex 723500.0 5745500.0 3280.800048828125
  vertex 723500.0 5744500.0 3273.60009765625
 endloop
endfacet
facet normal -0.009199567139148712 0.007199459709227085 -0.9999317526817322
 outer loop
  vertex 723500.0 5745500.0 3280.800048828125
  vertex 724500.0 5744500.0 3264.39990234375
  vertex 723500.0 5744500.0 3273.60009765625
 endloop
endfacet
facet normal -0.022194109857082367 -0.005798278842121363 -0.9997369050979614
 outer loop
  vertex 723500.0 5745500.0 3280.800048828125
  vertex 724500.0 5745500.0 3258.60009765625
  vertex 724500.0 5744500.0 3264.39990234375
 endloop
endfacet
facet normal 0.019096294417977333 -0.00579864950850606 -0.9998008608818054
 outer loop
  vertex 724500.0 5745500.0 3258.60009765625
  vertex 725500.0 5744500.0 3283.5
  vertex 724500.0 5744500.0 3264.39990234375
 endloop
endfacet
facet normal 0.00579864950850606 -0.019096294417977333 -0.9998008608818054
 outer loop
  vertex 724500.0 5745500.0 3258.60009765625
  vertex 725500.0 5745500.0 3264.39990234375
  vertex 725500.0 5744500.0 3283.5
 endloop
endfacet
facet normal 0.004499134141951799 -0.01909642107784748 -0.9998075366020203
 outer loop
  vertex 725500.0 5745500.0 3264.39990234375
  vertex 726500.0 5744500.0 3288.0
  vertex 725500.0 5744500.0 3283.5
 endloop
endfacet
facet normal 0.007498817052692175 -0.01609755866229534 -0.9998422861099243
 outer loop
  vertex 725500.0 5745500.0 3264.39990234375
  vertex 726500.0 5745500.0 3271.89990234375
  vertex 726500.0 5744500.0 3288.0
 endloop
endfacet
facet normal -0.00799870677292347 -0.016097495332360268 -0.9998384118080139
 outer loop
  vertex 726500.0 5745500.0 3271.89990234375
  vertex 727500.0 5744500.0 3280.0
  vertex 726500.0 5744500.0 3288.0
 endloop
endfacet
facet normal -0.005799147300422192 -0.013898327015340328 -0.9998866319656372
 outer loop
  vertex 726500.0 5745500.0 3271.89990234375
  vertex 727500.0 5745500.0 3266.10009765625
  vertex 727500.0 5744500.0 3280.0
 endloop
endfacet
facet normal 0.0031997342593967915 0.011199192143976688 -0.9999321699142456
 outer loop
  vertex 715500.0 5746500.0 3211.300048828125
  vertex 716500.0 5745500.0 3203.300048828125
  vertex 715500.0 5745500.0 3200.10009765625
 endloop
endfacet
facet normal 0.0019998960196971893 0.009999480098485947 -0.9999480247497559
 outer loop
  vertex 715500.0 5746500.0 3211.300048828125
  vertex 716500.0 5746500.0 3213.300048828125
  vertex 716500.0 5745500.0 3203.300048828125
 endloop
endfacet
facet normal 0.005199620965868235 0.009999364614486694 -0.9999365210533142
 outer loop
  vertex 716500.0 5746500.0 3213.300048828125
  vertex 717500.0 5745500.0 3208.5
  vertex 716500.0 5745500.0 3203.300048828125
 endloop
endfacet
facet normal -0.0021999382879585028 0.002600082429125905 -0.999994158744812
 outer loop
  vertex 716500.0 5746500.0 3213.300048828125
  vertex 717500.0 5746500.0 3211.10009765625
  vertex 717500.0 5745500.0 3208.5
 endloop
endfacet
facet normal 0.016197770833969116 0.0025997476186603308 -0.9998654127120972
 outer loop
  vertex 717500.0 5746500.0 3211.10009765625
  vertex 718500.0 5745500.0 3224.699951171875
  vertex 717500.0 5745500.0 3208.5
 endloop
endfacet
facet normal 0.0026997809763997793 -0.010899215005338192 -0.9999369382858276
 outer loop
  vertex 717500.0 5746500.0 3211.10009765625
  vertex 718500.0 5746500.0 3213.800048828125
  vertex 718500.0 5745500.0 3224.699951171875
 endloop
endfacet
facet normal 0.007399504538625479 -0.010898957028985023 -0.9999132752418518
 outer loop
  vertex 718500.0 5746500.0 3213.800048828125
  vertex 719500.0 5745500.0 3232.10009765625
  vertex 718500.0 5745500.0 3224.699951171875
 endloop
endfacet
facet normal 0.006699350196868181 -0.011599057354032993 -0.999910295009613
 outer loop
  vertex 718500.0 5746500.0 3213.800048828125
  vertex 719500.0 5746500.0 3220.5
  vertex 719500.0 5745500.0 3232.10009765625
 endloop
endfacet
facet normal 0.006499425508081913 -0.011599072255194187 -0.9999116063117981
 outer loop
  vertex 719500.0 5746500.0 3220.5
  vertex 720500.0 5745500.0 3238.60009765625
  vertex 719500.0 5745500.0 3232.10009765625
 endloop
endfacet
facet normal 0.0030997339636087418 -0.014998240396380424 -0.999882698059082
 outer loop
  vertex 719500.0 5746500.0 3220.5
  vertex 720500.0 5746500.0 3223.60009765625
  vertex 720500.0 5745500.0 3238.60009765625
 endloop
endfacet
facet normal 0.013197316788136959 -0.014997006393969059 -0.999800443649292
 outer loop
  vertex 720500.0 5746500.0 3223.60009765625
  vertex 721500.0 5745500.0 3251.800048828125
  vertex 720500.0 5745500.0 3238.60009765625
 endloop
endfacet
facet normal 0.035676222294569016 0.0074950167909264565 -0.9993352890014648
 outer loop
  vertex 720500.0 5746500.0 3223.60009765625
  vertex 721500.0 5746500.0 3259.300048828125
  vertex 721500.0 5745500.0 3251.800048828125
 endloop
endfacet
facet normal 0.02878730371594429 0.007496681064367294 -0.9995574355125427
 outer loop
  vertex 721500.0 5746500.0 3259.300048828125
  vertex 722500.0 5745500.0 3280.60009765625
  vertex 721500.0 5745500.0 3251.800048828125
 endloop
endfacet
facet normal 0.011298762634396553 -0.009998861700296402 -0.9998862147331238
 outer loop
  vertex 721500.0 5746500.0 3259.300048828125
  vertex 722500.0 5746500.0 3270.60009765625
  vertex 722500.0 5745500.0 3280.60009765625
 endloop
endfacet
facet normal 0.00019994117610622197 -0.009999499656260014 -0.9999499917030334
 outer loop
  vertex 722500.0 5746500.0 3270.60009765625
  vertex 723500.0 5745500.0 3280.800048828125
  vertex 722500.0 5745500.0 3280.60009765625
 endloop
endfacet
facet normal -0.015293288044631481 -0.025488732382655144 -0.99955815076828
 outer loop
  vertex 722500.0 5746500.0 3270.60009765625
  vertex 723500.0 5746500.0 3255.300048828125
  vertex 723500.0 5745500.0 3280.800048828125
 endloop
endfacet
facet normal -0.02218727394938469 -0.025485437363386154 -0.999428927898407
 outer loop
  vertex 723500.0 5746500.0 3255.300048828125
  vertex 724500.0 5745500.0 3258.60009765625
  vertex 723500.0 5745500.0 3280.800048828125
 endloop
endfacet
facet normal 0.0026999409310519695 -0.000600095372647047 -0.9999961853027344
 outer loop
  vertex 723500.0 5746500.0 3255.300048828125
  vertex 724500.0 5746500.0 3258.0
  vertex 724500.0 5745500.0 3258.60009765625
 endloop
endfacet
facet normal 0.005799706093966961 -0.0006000874564051628 -0.999983012676239
 outer loop
  vertex 724500.0 5746500.0 3258.0
  vertex 725500.0 5745500.0 3264.39990234375
  vertex 724500.0 5745500.0 3258.60009765625
 endloop
endfacet
facet normal 0.008299748413264751 0.0019000775646418333 -0.9999637603759766
 outer loop
  vertex 724500.0 5746500.0 3258.0
  vertex 725500.0 5746500.0 3266.300048828125
  vertex 725500.0 5745500.0 3264.39990234375
 endloop
endfacet
facet normal 0.007499775383621454 0.0019000895554199815 -0.9999700784683228
 outer loop
  vertex 725500.0 5746500.0 3266.300048828125
  vertex 726500.0 5745500.0 3271.89990234375
  vertex 725500.0 5745500.0 3264.39990234375
 endloop
endfacet
facet normal -0.010198147967457771 -0.01579701155424118 -0.9998232126235962
 outer loop
  vertex 725500.0 5746500.0 3266.300048828125
  vertex 726500.0 5746500.0 3256.10009765625
  vertex 726500.0 5745500.0 3271.89990234375
 endloop
endfacet
facet normal -0.005798983387649059 -0.01579756662249565 -0.9998583793640137
 outer loop
  vertex 726500.0 5746500.0 3256.10009765625
  vertex 727500.0 5745500.0 3266.10009765625
  vertex 726500.0 5745500.0 3271.89990234375
 endloop
endfacet
facet normal -0.0008000019006431103 -0.010799415409564972 -0.999941349029541
 outer loop
  vertex 726500.0 5746500.0 3256.10009765625
  vertex 727500.0 5746500.0 3255.300048828125
  vertex 727500.0 5745500.0 3266.10009765625
 endloop
endfacet
facet normal -0.0021999331656843424 0.003399874549359083 -0.9999918341636658
 outer loop
  vertex 716500.0 5747500.0 3216.699951171875
  vertex 717500.0 5746500.0 3211.10009765625
  vertex 716500.0 5746500.0 3213.300048828125
 endloop
endfacet
facet normal 0.0030999653972685337 0.00869958009570837 -0.9999573230743408
 outer loop
  vertex 716500.0 5747500.0 3216.699951171875
  vertex 717500.0 5747500.0 3219.800048828125
  vertex 717500.0 5746500.0 3211.10009765625
 endloop
endfacet
facet normal 0.002699839184060693 0.008699590340256691 -0.9999585151672363
 outer loop
  vertex 717500.0 5747500.0 3219.800048828125
  vertex 718500.0 5746500.0 3213.800048828125
  vertex 717500.0 5746500.0 3211.10009765625
 endloop
endfacet
facet normal 9.985165524994954e-05 0.006099740043282509 -0.9999814033508301
 outer loop
  vertex 717500.0 5747500.0 3219.800048828125
  vertex 718500.0 5747500.0 3219.89990234375
  vertex 718500.0 5746500.0 3213.800048828125
 endloop
endfacet
facet normal 0.006699676159769297 0.00609960313886404 -0.9999589323997498
 outer loop
  vertex 718500.0 5747500.0 3219.89990234375
  vertex 719500.0 5746500.0 3220.5
  vertex 718500.0 5746500.0 3213.800048828125
 endloop
endfacet
facet normal 0.005799872800707817 0.005199793726205826 -0.9999696612358093
 outer loop
  vertex 718500.0 5747500.0 3219.89990234375
  vertex 719500.0 5747500.0 3225.699951171875
  vertex 719500.0 5746500.0 3220.5
 endloop
endfacet
facet normal 0.0031000408343970776 0.005199856124818325 -0.999981701374054
 outer loop
  vertex 719500.0 5747500.0 3225.699951171875
  vertex 720500.0 5746500.0 3223.60009765625
  vertex 719500.0 5746500.0 3220.5
 endloop
endfacet
facet normal 0.015495739877223969 0.017595015466213226 -0.9997251629829407
 outer loop
  vertex 719500.0 5747500.0 3225.699951171875
  vertex 720500.0 5747500.0 3241.199951171875
  vertex 720500.0 5746500.0 3223.60009765625
 endloop
endfacet
facet normal 0.03567170724272728 0.017585929483175278 -0.9992088079452515
 outer loop
  vertex 720500.0 5747500.0 3241.199951171875
  vertex 721500.0 5746500.0 3259.300048828125
  vertex 720500.0 5746500.0 3223.60009765625
 endloop
endfacet
facet normal 0.013498627580702305 -0.0045996299013495445 -0.9998983144760132
 outer loop
  vertex 720500.0 5747500.0 3241.199951171875
  vertex 721500.0 5747500.0 3254.699951171875
  vertex 721500.0 5746500.0 3259.300048828125
 endloop
endfacet
facet normal 0.01129920780658722 -0.00459975516423583 -0.9999255537986755
 outer loop
  vertex 721500.0 5747500.0 3254.699951171875
  vertex 722500.0 5746500.0 3270.60009765625
  vertex 721500.0 5746500.0 3259.300048828125
 endloop
endfacet
facet normal 0.01029934175312519 -0.0055997129529714584 -0.9999313354492188
 outer loop
  vertex 721500.0 5747500.0 3254.699951171875
  vertex 722500.0 5747500.0 3265.0
  vertex 722500.0 5746500.0 3270.60009765625
 endloop
endfacet
facet normal -0.015298019163310528 -0.005599354859441519 -0.99986732006073
 outer loop
  vertex 722500.0 5747500.0 3265.0
  vertex 723500.0 5746500.0 3255.300048828125
  vertex 722500.0 5746500.0 3270.60009765625
 endloop
endfacet
facet normal -0.002699875272810459 0.006999803241342306 -0.999971866607666
 outer loop
  vertex 722500.0 5747500.0 3265.0
  vertex 723500.0 5747500.0 3262.300048828125
  vertex 723500.0 5746500.0 3255.300048828125
 endloop
endfacet
facet normal 0.002699875272810459 0.006999803241342306 -0.999971866607666
 outer loop
  vertex 723500.0 5747500.0 3262.300048828125
  vertex 724500.0 5746500.0 3258.0
  vertex 723500.0 5746500.0 3255.300048828125
 endloop
endfacet
facet normal -0.0389469675719738 -0.034652769565582275 -0.998640239238739
 outer loop
  vertex 723500.0 5747500.0 3262.300048828125
  vertex 724500.0 5747500.0 3223.300048828125
  vertex 724500.0 5746500.0 3258.0
 endloop
endfacet
facet normal 0.008294769562780857 -0.034677889198064804 -0.9993641376495361
 outer loop
  vertex 724500.0 5747500.0 3223.300048828125
  vertex 725500.0 5746500.0 3266.300048828125
  vertex 724500.0 5746500.0 3258.0
 endloop
endfacet
facet normal 0.028685208410024643 -0.01429270301014185 -0.9994863271713257
 outer loop
  vertex 724500.0 5747500.0 3223.300048828125
  vertex 725500.0 5747500.0 3252.0
  vertex 725500.0 5746500.0 3266.300048828125
 endloop
endfacet
facet normal -0.010198378004133701 -0.014297842979431152 -0.9998458027839661
 outer loop
  vertex 725500.0 5747500.0 3252.0
  vertex 726500.0 5746500.0 3256.10009765625
  vertex 725500.0 5746500.0 3266.300048828125
 endloop
endfacet
facet normal -0.006399418693035841 -0.010499206371605396 -0.9999244213104248
 outer loop
  vertex 725500.0 5747500.0 3252.0
  vertex 726500.0 5747500.0 3245.60009765625
  vertex 726500.0 5746500.0 3256.10009765625
 endloop
endfacet
facet normal -0.0008000044617801905 -0.010499417781829834 -0.9999445676803589
 outer loop
  vertex 726500.0 5747500.0 3245.60009765625
  vertex 727500.0 5746500.0 3255.300048828125
  vertex 726500.0 5746500.0 3256.10009765625
 endloop
endfacet
facet normal -0.003799675265327096 -0.013498673215508461 -0.9999017119407654
 outer loop
  vertex 726500.0 5747500.0 3245.60009765625
  vertex 727500.0 5747500.0 3241.800048828125
  vertex 727500.0 5746500.0 3255.300048828125
 endloop
endfacet
facet normal 0.0031000394374132156 -0.005299949087202549 -0.999981164932251
 outer loop
  vertex 716500.0 5748500.0 3211.39990234375
  vertex 717500.0 5747500.0 3219.800048828125
  vertex 716500.0 5747500.0 3216.699951171875
 endloop
endfacet
facet normal 0.01939532347023487 0.010997265577316284 -0.9997514486312866
 outer loop
  vertex 716500.0 5748500.0 3211.39990234375
  vertex 717500.0 5748500.0 3230.800048828125
  vertex 717500.0 5747500.0 3219.800048828125
 endloop
endfacet
facet normal 9.984747157432139e-05 0.01099933497607708 -0.999939501285553
 outer loop
  vertex 717500.0 5748500.0 3230.800048828125
  vertex 718500.0 5747500.0 3219.89990234375
  vertex 717500.0 5747500.0 3219.800048828125
 endloop
endfacet
facet normal 0.0012999509926885366 0.012199277058243752 -0.9999247789382935
 outer loop
  vertex 717500.0 5748500.0 3230.800048828125
  vertex 718500.0 5748500.0 3232.10009765625
  vertex 718500.0 5747500.0 3219.89990234375
 endloop
endfacet
facet normal 0.005799519829452038 0.012199082411825657 -0.9999087452888489
 outer loop
  vertex 718500.0 5748500.0 3232.10009765625
  vertex 719500.0 5747500.0 3225.699951171875
  vertex 718500.0 5747500.0 3219.89990234375
 endloop
endfacet
facet normal 0.0010998218785971403 0.007499784231185913 -0.9999712705612183
 outer loop
  vertex 718500.0 5748500.0 3232.10009765625
  vertex 719500.0 5748500.0 3233.199951171875
  vertex 719500.0 5747500.0 3225.699951171875
 endloop
endfacet
facet normal 0.015497702173888683 0.007498888298869133 -0.9998517632484436
 outer loop
  vertex 719500.0 5748500.0 3233.199951171875
  vertex 720500.0 5747500.0 3241.199951171875
  vertex 719500.0 5747500.0 3225.699951171875
 endloop
endfacet
facet normal 0.024189695715904236 0.0161930862814188 -0.9995762705802917
 outer loop
  vertex 719500.0 5748500.0 3233.199951171875
  vertex 720500.0 5748500.0 3257.39990234375
  vertex 720500.0 5747500.0 3241.199951171875
 endloop
endfacet
facet normal 0.013496999628841877 0.016196349635720253 -0.9997777342796326
 outer loop
  vertex 720500.0 5748500.0 3257.39990234375
  vertex 721500.0 5747500.0 3254.699951171875
  vertex 720500.0 5747500.0 3241.199951171875
 endloop
endfacet
facet normal -0.010998955927789211 -0.008299261331558228 -0.9999050498008728
 outer loop
  vertex 720500.0 5748500.0 3257.39990234375
  vertex 721500.0 5748500.0 3246.39990234375
  vertex 721500.0 5747500.0 3254.699951171875
 endloop
endfacet
facet normal 0.01029914803802967 -0.008299322798848152 -0.9999125003814697
 outer loop
  vertex 721500.0 5748500.0 3246.39990234375
  vertex 722500.0 5747500.0 3265.0
  vertex 721500.0 5747500.0 3254.699951171875
 endloop
endfacet
facet normal 0.004799536895006895 -0.013798576779663563 -0.999893307685852
 outer loop
  vertex 721500.0 5748500.0 3246.39990234375
  vertex 722500.0 5748500.0 3251.199951171875
  vertex 722500.0 5747500.0 3265.0
 endloop
endfacet
facet normal -0.002699684351682663 -0.013798684813082218 -0.9999011158943176
 outer loop
  vertex 722500.0 5748500.0 3251.199951171875
  vertex 723500.0 5747500.0 3262.300048828125
  vertex 722500.0 5747500.0 3265.0
 endloop
endfacet
facet normal -0.0035994413774460554 -0.014698267914354801 -0.9998854994773865
 outer loop
  vertex 722500.0 5748500.0 3251.199951171875
  vertex 723500.0 5748500.0 3247.60009765625
  vertex 723500.0 5747500.0 3262.300048828125
 endloop
endfacet
facet normal -0.03896617144346237 -0.01468720007687807 -0.9991325736045837
 outer loop
  vertex 723500.0 5748500.0 3247.60009765625
  vertex 724500.0 5747500.0 3223.300048828125
  vertex 723500.0 5747500.0 3262.300048828125
 endloop
endfacet
facet normal -0.010598507709801197 0.013697896152734756 -0.9998500347137451
 outer loop
  vertex 723500.0 5748500.0 3247.60009765625
  vertex 724500.0 5748500.0 3237.0
  vertex 724500.0 5747500.0 3223.300048828125
 endloop
endfacet
facet normal 0.028685448691248894 0.013693028129637241 -0.9994946718215942
 outer loop
  vertex 724500.0 5748500.0 3237.0
  vertex 725500.0 5747500.0 3252.0
  vertex 724500.0 5747500.0 3223.300048828125
 endloop
endfacet
facet normal 0.011799166910350323 -0.0031997119076550007 -0.9999252557754517
 outer loop
  vertex 724500.0 5748500.0 3237.0
  vertex 725500.0 5748500.0 3248.800048828125
  vertex 725500.0 5747500.0 3252.0
 endloop
endfacet
facet normal -0.006399738602340221 -0.0031998693011701107 -0.9999744296073914
 outer loop
  vertex 725500.0 5748500.0 3248.800048828125
  vertex 726500.0 5747500.0 3245.60009765625
  vertex 725500.0 5747500.0 3252.0
 endloop
endfacet
facet normal -0.00769964512437582 -0.004499820992350578 -0.9999602437019348
 outer loop
  vertex 725500.0 5748500.0 3248.800048828125
  vertex 726500.0 5748500.0 3241.10009765625
  vertex 726500.0 5747500.0 3245.60009765625
 endloop
endfacet
facet normal -0.0037999830674380064 -0.004499922040849924 -0.9999827146530151
 outer loop
  vertex 726500.0 5748500.0 3241.10009765625
  vertex 727500.0 5747500.0 3241.800048828125
  vertex 726500.0 5747500.0 3245.60009765625
 endloop
endfacet
facet normal 0.019396493211388588 0.0004999058437533677 -0.9998117089271545
 outer loop
  vertex 716500.0 5749500.0 3211.89990234375
  vertex 717500.0 5748500.0 3230.800048828125
  vertex 716500.0 5748500.0 3211.39990234375
 endloop
endfacet
facet normal 0.003399718552827835 -0.015498049557209015 -0.9998741149902344
 outer loop
  vertex 716500.0 5749500.0 3211.89990234375
  vertex 717500.0 5749500.0 3215.300048828125
  vertex 717500.0 5748500.0 3230.800048828125
 endloop
endfacet
facet normal 0.001299891504459083 -0.015498124994337559 -0.999879002571106
 outer loop
  vertex 717500.0 5749500.0 3215.300048828125
  vertex 718500.0 5748500.0 3232.10009765625
  vertex 717500.0 5748500.0 3230.800048828125
 endloop
endfacet
facet normal -0.0025995997712016106 -0.019396431744098663 -0.9998084902763367
 outer loop
  vertex 717500.0 5749500.0 3215.300048828125
  vertex 718500.0 5749500.0 3212.699951171875
  vertex 718500.0 5748500.0 3232.10009765625
 endloop
endfacet
facet normal 0.0010996459750458598 -0.01939648576080799 -0.9998112916946411
 outer loop
  vertex 718500.0 5749500.0 3212.699951171875
  vertex 719500.0 5748500.0 3233.199951171875
  vertex 718500.0 5748500.0 3232.10009765625
 endloop
endfacet
facet normal -0.0006997937452979386 -0.0211951844394207 -0.9997751116752625
 outer loop
  vertex 718500.0 5749500.0 3212.699951171875
  vertex 719500.0 5749500.0 3212.0
  vertex 719500.0 5748500.0 3233.199951171875
 endloop
endfacet
facet normal 0.02418743632733822 -0.021188989281654358 -0.9994828701019287
 outer loop
  vertex 719500.0 5749500.0 3212.0
  vertex 720500.0 5748500.0 3257.39990234375
  vertex 719500.0 5748500.0 3233.199951171875
 endloop
endfacet
facet normal 0.03267985209822655 -0.012692145071923733 -0.9993852972984314
 outer loop
  vertex 719500.0 5749500.0 3212.0
  vertex 720500.0 5749500.0 3244.699951171875
  vertex 720500.0 5748500.0 3257.39990234375
 endloop
endfacet
facet normal -0.010998447425663471 -0.0126981595531106 -0.9998589158058167
 outer loop
  vertex 720500.0 5749500.0 3244.699951171875
  vertex 721500.0 5748500.0 3246.39990234375
  vertex 720500.0 5748500.0 3257.39990234375
 endloop
endfacet
facet normal 0.001999995904043317 0.0003000482392963022 -0.9999979734420776
 outer loop
  vertex 720500.0 5749500.0 3244.699951171875
  vertex 721500.0 5749500.0 3246.699951171875
  vertex 721500.0 5748500.0 3246.39990234375
 endloop
endfacet
facet normal 0.004799993243068457 0.000300045358017087 -0.9999884366989136
 outer loop
  vertex 721500.0 5749500.0 3246.699951171875
  vertex 722500.0 5748500.0 3251.199951171875
  vertex 721500.0 5748500.0 3246.39990234375
 endloop
endfacet
facet normal 0.011798913590610027 0.007299346383661032 -0.9999037384986877
 outer loop
  vertex 721500.0 5749500.0 3246.699951171875
  vertex 722500.0 5749500.0 3258.5
  vertex 722500.0 5748500.0 3251.199951171875
 endloop
endfacet
facet normal -0.003599734278395772 0.007299806922674179 -0.9999668598175049
 outer loop
  vertex 722500.0 5749500.0 3258.5
  vertex 723500.0 5748500.0 3247.60009765625
  vertex 722500.0 5748500.0 3251.199951171875
 endloop
endfacet
facet normal -0.015198055654764175 -0.0042995125986635685 -0.9998752474784851
 outer loop
  vertex 722500.0 5749500.0 3258.5
  vertex 723500.0 5749500.0 3243.300048828125
  vertex 723500.0 5748500.0 3247.60009765625
 endloop
endfacet
facet normal -0.010599403642117977 -0.004299767315387726 -0.9999345541000366
 outer loop
  vertex 723500.0 5749500.0 3243.300048828125
  vertex 724500.0 5748500.0 3237.0
  vertex 723500.0 5748500.0 3247.60009765625
 endloop
endfacet
facet normal -0.009899596683681011 -0.0035998979583382607 -0.9999445080757141
 outer loop
  vertex 723500.0 5749500.0 3243.300048828125
  vertex 724500.0 5749500.0 3233.39990234375
  vertex 724500.0 5748500.0 3237.0
 endloop
endfacet
facet normal 0.011799151077866554 -0.0035998239181935787 -0.9999239444732666
 outer loop
  vertex 724500.0 5749500.0 3233.39990234375
  vertex 725500.0 5748500.0 3248.800048828125
  vertex 724500.0 5748500.0 3237.0
 endloop
endfacet
facet normal 0.01969619281589985 0.00429917499423027 -0.9997968077659607
 outer loop
  vertex 724500.0 5749500.0 3233.39990234375
  vertex 725500.0 5749500.0 3253.10009765625
  vertex 725500.0 5748500.0 3248.800048828125
 endloop
endfacet
facet normal -0.0076996516436338425 0.0042998818680644035 -0.9999611377716064
 outer loop
  vertex 725500.0 5749500.0 3253.10009765625
  vertex 726500.0 5748500.0 3241.10009765625
  vertex 725500.0 5748500.0 3248.800048828125
 endloop
endfacet
facet normal 0.00340001517906785 0.008099785074591637 -0.9999613761901855
 outer loop
  vertex 716500.0 5750500.0 3220.0
  vertex 717500.0 5749500.0 3215.300048828125
  vertex 716500.0 5749500.0 3211.89990234375
 endloop
endfacet
facet normal -0.0036000721156597137 0.0010998457437381148 -0.9999929666519165
 outer loop
  vertex 716500.0 5750500.0 3220.0
  vertex 717500.0 5750500.0 3216.39990234375
  vertex 717500.0 5749500.0 3215.300048828125
 endloop
endfacet
facet normal -0.0026000873185694218 0.0010998491197824478 -0.9999960064888
 outer loop
  vertex 717500.0 5750500.0 3216.39990234375
  vertex 718500.0 5749500.0 3212.699951171875
  vertex 717500.0 5749500.0 3215.300048828125
 endloop
endfacet
facet normal 0.00010009693505708128 0.0038000214844942093 -0.9999927878379822
 outer loop
  vertex 717500.0 5750500.0 3216.39990234375
  vertex 718500.0 5750500.0 3216.5
  vertex 718500.0 5749500.0 3212.699951171875
 endloop
endfacet
facet normal -0.0006999459001235664 0.003800020320340991 -0.9999924898147583
 outer loop
  vertex 718500.0 5750500.0 3216.5
  vertex 719500.0 5749500.0 3212.0
  vertex 718500.0 5749500.0 3212.699951171875
 endloop
endfacet
facet normal 0.005599724128842354 0.010099424049258232 -0.9999333024024963
 outer loop
  vertex 718500.0 5750500.0 3216.5
  vertex 719500.0 5750500.0 3222.10009765625
  vertex 719500.0 5749500.0 3212.0
 endloop
endfacet
facet normal 0.03268081694841385 0.01009418722242117 -0.99941486120224
 outer loop
  vertex 719500.0 5750500.0 3222.10009765625
  vertex 720500.0 5749500.0 3244.699951171875
  vertex 719500.0 5749500.0 3212.0
 endloop
endfacet
facet normal 0.006198998540639877 -0.0163973830640316 -0.999846339225769
 outer loop
  vertex 719500.0 5750500.0 3222.10009765625
  vertex 720500.0 5750500.0 3228.300048828125
  vertex 720500.0 5749500.0 3244.699951171875
 endloop
endfacet
facet normal 0.0019997272174805403 -0.016397664323449135 -0.9998635649681091
 outer loop
  vertex 720500.0 5750500.0 3228.300048828125
  vertex 721500.0 5749500.0 3246.699951171875
  vertex 720500.0 5749500.0 3244.699951171875
 endloop
endfacet
facet normal 0.00209957011975348 -0.016297848895192146 -0.9998649954795837
 outer loop
  vertex 720500.0 5750500.0 3228.300048828125
  vertex 721500.0 5750500.0 3230.39990234375
  vertex 721500.0 5749500.0 3246.699951171875
 endloop
endfacet
facet normal 0.01179766096174717 -0.0162967499345541 -0.9997975826263428
 outer loop
  vertex 721500.0 5750500.0 3230.39990234375
  vertex 722500.0 5749500.0 3258.5
  vertex 721500.0 5749500.0 3246.699951171875
 endloop
endfacet
facet normal 0.00020011744345538318 -0.027889050543308258 -0.9996110200881958
 outer loop
  vertex 721500.0 5750500.0 3230.39990234375
  vertex 722500.0 5750500.0 3230.60009765625
  vertex 722500.0 5749500.0 3258.5
 endloop
endfacet
facet normal -0.015192285180091858 -0.027885830029845238 -0.9994956254959106
 outer loop
  vertex 722500.0 5750500.0 3230.60009765625
  vertex 723500.0 5749500.0 3243.300048828125
  vertex 722500.0 5749500.0 3258.5
 endloop
endfacet
facet normal 0.00979929231107235 -0.0028999950736761093 -0.999947726726532
 outer loop
  vertex 722500.0 5750500.0 3230.60009765625
  vertex 723500.0 5750500.0 3240.39990234375
  vertex 723500.0 5749500.0 3243.300048828125
 endloop
endfacet
facet normal -0.009899619966745377 -0.0028999922797083855 -0.9999468326568604
 outer loop
  vertex 723500.0 5750500.0 3240.39990234375
  vertex 724500.0 5749500.0 3233.39990234375
  vertex 723500.0 5749500.0 3243.300048828125
 endloop
endfacet
facet normal -9.985113865695894e-05 0.00689998222514987 -0.9999762177467346
 outer loop
  vertex 723500.0 5750500.0 3240.39990234375
  vertex 724500.0 5750500.0 3240.300048828125
  vertex 724500.0 5749500.0 3233.39990234375
 endloop
endfacet
facet normal 0.019695905968546867 0.0068986439146101475 -0.9997822642326355
 outer loop
  vertex 724500.0 5750500.0 3240.300048828125
  vertex 725500.0 5749500.0 3253.10009765625
  vertex 724500.0 5749500.0 3233.39990234375
 endloop
endfacet
facet normal -0.004599352832883596 -0.017397329211235046 -0.99983811378479
 outer loop
  vertex 724500.0 5750500.0 3240.300048828125
  vertex 725500.0 5750500.0 3235.699951171875
  vertex 725500.0 5749500.0 3253.10009765625
 endloop
endfacet
facet normal -0.012422739528119564 0.11031392216682434 -0.9938191175460815
 outer loop
  vertex 715500.0 5751500.0 3343.5
  vertex 716500.0 5751500.0 3331.0
  vertex 716500.0 5750500.0 3220.0
 endloop
endfacet
facet normal -0.0035780954640358686 0.11032173782587051 -0.9938895106315613
 outer loop
  vertex 716500.0 5751500.0 3331.0
  vertex 717500.0 5750500.0 3216.39990234375
  vertex 716500.0 5750500.0 3220.0
 endloop
endfacet
facet normal -0.12021926045417786 -0.006452721543610096 -0.9927264451980591
 outer loop
  vertex 716500.0 5751500.0 3331.0
  vertex 717500.0 5751500.0 3209.89990234375
  vertex 717500.0 5750500.0 3216.39990234375
 endloop
endfacet
facet normal 0.00010009554534917697 -0.006499862764030695 -0.9999788999557495
 outer loop
  vertex 717500.0 5751500.0 3209.89990234375
  vertex 718500.0 5750500.0 3216.5
  vertex 717500.0 5750500.0 3216.39990234375
 endloop
endfacet
facet normal -0.024480821564793587 -0.031075751408934593 -0.99921715259552
 outer loop
  vertex 717500.0 5751500.0 3209.89990234375
  vertex 718500.0 5751500.0 3185.39990234375
  vertex 718500.0 5750500.0 3216.5
 endloop
endfacet
facet normal 0.005597303621470928 -0.031084580346941948 -0.9995010495185852
 outer loop
  vertex 718500.0 5751500.0 3185.39990234375
  vertex 719500.0 5750500.0 3222.10009765625
  vertex 718500.0 5750500.0 3216.5
 endloop
endfacet
facet normal 0.03577711433172226 -0.0008995718089863658 -0.9993594288825989
 outer loop
  vertex 718500.0 5751500.0 3185.39990234375
  vertex 719500.0 5751500.0 3221.199951171875
  vertex 719500.0 5750500.0 3222.10009765625
 endloop
endfacet
facet normal 0.006199829280376434 -0.0009001287980936468 -0.9999803900718689
 outer loop
  vertex 719500.0 5751500.0 3221.199951171875
  vertex 720500.0 5750500.0 3228.300048828125
  vertex 719500.0 5750500.0 3222.10009765625
 endloop
endfacet
facet normal -0.01639317348599434 -0.023490356281399727 -0.9995896816253662
 outer loop
  vertex 719500.0 5751500.0 3221.199951171875
  vertex 720500.0 5751500.0 3204.800048828125
  vertex 720500.0 5750500.0 3228.300048828125
 endloop
endfacet
facet normal 0.002099269302561879 -0.023493461310863495 -0.9997217655181885
 outer loop
  vertex 720500.0 5751500.0 3204.800048828125
  vertex 721500.0 5750500.0 3230.39990234375
  vertex 720500.0 5750500.0 3228.300048828125
 endloop
endfacet
facet normal 0.024192845448851585 -0.0013994912151247263 -0.9997063279151917
 outer loop
  vertex 720500.0 5751500.0 3204.800048828125
  vertex 721500.0 5751500.0 3229.0
  vertex 721500.0 5750500.0 3230.39990234375
 endloop
endfacet
facet normal 0.00020019510702695698 -0.001399900997057557 -0.9999989867210388
 outer loop
  vertex 721500.0 5751500.0 3229.0
  vertex 722500.0 5750500.0 3230.60009765625
  vertex 721500.0 5750500.0 3230.39990234375
 endloop
endfacet
facet normal -0.02099001407623291 -0.02258935011923313 -0.9995244741439819
 outer loop
  vertex 721500.0 5751500.0 3229.0
  vertex 722500.0 5751500.0 3208.0
  vertex 722500.0 5750500.0 3230.60009765625
 endloop
endfacet
facet normal 0.00979683268815279 -0.022593243047595024 -0.9996967315673828
 outer loop
  vertex 722500.0 5751500.0 3208.0
  vertex 723500.0 5750500.0 3240.39990234375
  vertex 722500.0 5750500.0 3230.60009765625
 endloop
endfacet
facet normal 0.014796136878430843 -0.01759520173072815 -0.9997357130050659
 outer loop
  vertex 722500.0 5751500.0 3208.0
  vertex 723500.0 5751500.0 3222.800048828125
  vertex 723500.0 5750500.0 3240.39990234375
 endloop
endfacet
facet normal -9.983805648516864e-05 -0.017597127705812454 -0.9998451471328735
 outer loop
  vertex 723500.0 5751500.0 3222.800048828125
  vertex 724500.0 5750500.0 3240.300048828125
  vertex 723500.0 5750500.0 3240.39990234375
 endloop
endfacet
facet normal 0.01529822126030922 -0.002199688460677862 -0.9998805522918701
 outer loop
  vertex 723500.0 5751500.0 3222.800048828125
  vertex 724500.0 5751500.0 3238.10009765625
  vertex 724500.0 5750500.0 3240.300048828125
 endloop
endfacet
facet normal -0.004600037820637226 -0.002199922688305378 -0.999987006187439
 outer loop
  vertex 724500.0 5751500.0 3238.10009765625
  vertex 725500.0 5750500.0 3235.699951171875
  vertex 724500.0 5750500.0 3240.300048828125
 endloop
endfacet
facet normal 0.0017997858813032508 0.004199907183647156 -0.9999895691871643
 outer loop
  vertex 724500.0 5751500.0 3238.10009765625
  vertex 725500.0 5751500.0 3239.89990234375
  vertex 725500.0 5750500.0 3235.699951171875
 endloop
endfacet
facet normal -0.03218211233615875 0.008495290763676167 -0.999445915222168
 outer loop
  vertex 714500.0 5752500.0 3384.199951171875
  vertex 715500.0 5751500.0 3343.5
  vertex 714500.0 5751500.0 3375.699951171875
 endloop
endfacet
facet normal -0.034378886222839355 0.006296201609075069 -0.9993890523910522
 outer loop
  vertex 714500.0 5752500.0 3384.199951171875
  vertex 715500.0 5752500.0 3349.800048828125
  vertex 715500.0 5751500.0 3343.5
 endloop
endfacet
facet normal -0.012498775497078896 0.006299431435763836 -0.9999020099639893
 outer loop
  vertex 715500.0 5752500.0 3349.800048828125
  vertex 716500.0 5751500.0 3331.0
  vertex 715500.0 5751500.0 3343.5
 endloop
endfacet
facet normal 0.01978144235908985 0.03856382519006729 -0.999060332775116
 outer loop
  vertex 715500.0 5752500.0 3349.800048828125
  vertex 716500.0 5752500.0 3369.60009765625
  vertex 716500.0 5751500.0 3331.0
 endloop
endfacet
facet normal -0.12013358622789383 0.03829202800989151 -0.9920189380645752
 outer loop
  vertex 716500.0 5752500.0 3369.60009765625
  vertex 717500.0 5751500.0 3209.89990234375
  vertex 716500.0 5751500.0 3331.0
 endloop
endfacet
facet normal 0.007101539988070726 0.16461889445781708 -0.9863316416740417
 outer loop
  vertex 716500.0 5752500.0 3369.60009765625
  vertex 717500.0 5752500.0 3376.800048828125
  vertex 717500.0 5751500.0 3209.89990234375
 endloop
endfacet
facet normal -0.02415868081152439 0.16457499563694 -0.9860686659812927
 outer loop
  vertex 717500.0 5752500.0 3376.800048828125
  vertex 718500.0 5751500.0 3185.39990234375
  vertex 717500.0 5751500.0 3209.89990234375
 endloop
endfacet
facet normal -0.021587137132883072 0.16707740724086761 -0.9857074022293091
 outer loop
  vertex 717500.0 5752500.0 3376.800048828125
  vertex 718500.0 5752500.0 3354.89990234375
  vertex 718500.0 5751500.0 3185.39990234375
 endloop
endfacet
facet normal 0.03527463227510452 0.16701234877109528 -0.9853236079216003
 outer loop
  vertex 718500.0 5752500.0 3354.89990234375
  vertex 719500.0 5751500.0 3221.199951171875
  vertex 718500.0 5751500.0 3185.39990234375
 endloop
endfacet
facet normal -0.022754723206162453 0.11009760200977325 -0.9936602711677551
 outer loop
  vertex 718500.0 5752500.0 3354.89990234375
  vertex 719500.0 5752500.0 3332.0
  vertex 719500.0 5751500.0 3221.199951171875
 endloop
endfacet
facet normal -0.016297990456223488 0.11011148989200592 -0.9937856197357178
 outer loop
  vertex 719500.0 5752500.0 3332.0
  vertex 720500.0 5751500.0 3204.800048828125
  vertex 719500.0 5751500.0 3221.199951171875
 endloop
endfacet
facet normal 0.006244526244699955 0.1323234587907791 -0.9911869168281555
 outer loop
  vertex 719500.0 5752500.0 3332.0
  vertex 720500.0 5752500.0 3338.300048828125
  vertex 720500.0 5751500.0 3204.800048828125
 endloop
endfacet
facet normal 0.023980246856808662 0.13228797912597656 -0.9909212589263916
 outer loop
  vertex 720500.0 5752500.0 3338.300048828125
  vertex 721500.0 5751500.0 3229.0
  vertex 720500.0 5751500.0 3204.800048828125
 endloop
endfacet
facet normal -0.03238757699728012 0.07653438299894333 -0.9965408444404602
 outer loop
  vertex 720500.0 5752500.0 3338.300048828125
  vertex 721500.0 5752500.0 3305.800048828125
  vertex 721500.0 5751500.0 3229.0
 endloop
endfacet
facet normal -0.02093375287950039 0.07655777037143707 -0.9968453645706177
 outer loop
  vertex 721500.0 5752500.0 3305.800048828125
  vertex 722500.0 5751500.0 3208.0
  vertex 721500.0 5751500.0 3229.0
 endloop
endfacet
facet normal 0.02826407551765442 0.1252545267343521 -0.9917219877243042
 outer loop
  vertex 721500.0 5752500.0 3305.800048828125
  vertex 722500.0 5752500.0 3334.300048828125
  vertex 722500.0 5751500.0 3208.0
 endloop
endfacet
facet normal 0.014681815169751644 0.12529107928276062 -0.9920113682746887
 outer loop
  vertex 722500.0 5752500.0 3334.300048828125
  vertex 723500.0 5751500.0 3222.800048828125
  vertex 722500.0 5751500.0 3208.0
 endloop
endfacet
facet normal -0.10077907145023346 0.010147495195269585 -0.9948570728302002
 outer loop
  vertex 722500.0 5752500.0 3334.300048828125
  vertex 723500.0 5752500.0 3233.0
  vertex 723500.0 5751500.0 3222.800048828125
 endloop
endfacet
facet normal 0.015297462232410908 0.010198227129876614 -0.999830961227417
 outer loop
  vertex 723500.0 5752500.0 3233.0
  vertex 724500.0 5751500.0 3238.10009765625
  vertex 723500.0 5751500.0 3222.800048828125
 endloop
endfacet
facet normal 0.0031000764574855566 -0.001999986357986927 -0.9999932050704956
 outer loop
  vertex 723500.0 5752500.0 3233.0
  vertex 724500.0 5752500.0 3236.10009765625
  vertex 724500.0 5751500.0 3238.10009765625
 endloop
endfacet
facet normal 0.0017997982213273644 -0.0019999926444143057 -0.9999963641166687
 outer loop
  vertex 724500.0 5752500.0 3236.10009765625
  vertex 725500.0 5751500.0 3239.89990234375
  vertex 724500.0 5751500.0 3238.10009765625
 endloop
endfacet
facet normal -0.009798672050237656 -0.013597942888736725 -0.9998595118522644
 outer loop
  vertex 724500.0 5752500.0 3236.10009765625
  vertex 725500.0 5752500.0 3226.300048828125
  vertex 725500.0 5751500.0 3239.89990234375
 endloop
endfacet
facet normal -0.03437163308262825 0.021482331678271294 -0.9991782307624817
 outer loop
  vertex 714500.0 5753500.0 3405.699951171875
  vertex 715500.0 5752500.0 3349.800048828125
  vertex 714500.0 5752500.0 3384.199951171875
 endloop
endfacet
facet normal -0.026179427281022072 0.029676686972379684 -0.9992166757583618
 outer loop
  vertex 714500.0 5753500.0 3405.699951171875
  vertex 715500.0 5753500.0 3379.5
  vertex 715500.0 5752500.0 3349.800048828125
 endloop
endfacet
facet normal 0.019787447527050972 0.029681047424674034 -0.9993635416030884
 outer loop
  vertex 715500.0 5753500.0 3379.5
  vertex 716500.0 5752500.0 3369.60009765625
  vertex 715500.0 5752500.0 3349.800048828125
 endloop
endfacet
facet normal -0.019695185124874115 -0.009797677397727966 -0.9997580647468567
 outer loop
  vertex 715500.0 5753500.0 3379.5
  vertex 716500.0 5753500.0 3359.800048828125
  vertex 716500.0 5752500.0 3369.60009765625
 endloop
endfacet
facet normal 0.007199418731033802 -0.009799323976039886 -0.9999260902404785
 outer loop
  vertex 716500.0 5753500.0 3359.800048828125
  vertex 717500.0 5752500.0 3376.800048828125
  vertex 716500.0 5752500.0 3369.60009765625
 endloop
endfacet
facet normal 0.03567099571228027 0.018684785813093185 -0.9991888999938965
 outer loop
  vertex 716500.0 5753500.0 3359.800048828125
  vertex 717500.0 5753500.0 3395.5
  vertex 717500.0 5752500.0 3376.800048828125
 endloop
endfacet
facet normal -0.021891070529818535 0.018692202866077423 -0.9995856285095215
 outer loop
  vertex 717500.0 5753500.0 3395.5
  vertex 718500.0 5752500.0 3354.89990234375
  vertex 717500.0 5752500.0 3376.800048828125
 endloop
endfacet
facet normal 0.005693759303539991 0.04624975100159645 -0.9989137053489685
 outer loop
  vertex 717500.0 5753500.0 3395.5
  vertex 718500.0 5753500.0 3401.199951171875
  vertex 718500.0 5752500.0 3354.89990234375
 endloop
endfacet
facet normal -0.022869417443871498 0.046238403767347336 -0.9986686110496521
 outer loop
  vertex 718500.0 5753500.0 3401.199951171875
  vertex 719500.0 5752500.0 3332.0
  vertex 718500.0 5752500.0 3354.89990234375
 endloop
endfacet
facet normal -0.011979557573795319 0.0571025125682354 -0.9982964992523193
 outer loop
  vertex 718500.0 5753500.0 3401.199951171875
  vertex 719500.0 5753500.0 3389.199951171875
  vertex 719500.0 5752500.0 3332.0
 endloop
endfacet
facet normal 0.006289645563811064 0.05710547789931297 -0.9983483552932739
 outer loop
  vertex 719500.0 5753500.0 3389.199951171875
  vertex 720500.0 5752500.0 3338.300048828125
  vertex 719500.0 5752500.0 3332.0
 endloop
endfacet
facet normal -0.025883138179779053 0.02498381771147251 -0.999352753162384
 outer loop
  vertex 719500.0 5753500.0 3389.199951171875
  vertex 720500.0 5753500.0 3363.300048828125
  vertex 720500.0 5752500.0 3338.300048828125
 endloop
endfacet
facet normal -0.03247271478176117 0.024979012086987495 -0.9991604685783386
 outer loop
  vertex 720500.0 5753500.0 3363.300048828125
  vertex 721500.0 5752500.0 3305.800048828125
  vertex 720500.0 5752500.0 3338.300048828125
 endloop
endfacet
facet normal 0.03562261536717415 0.0928376317024231 -0.9950438141822815
 outer loop
  vertex 720500.0 5753500.0 3363.300048828125
  vertex 721500.0 5753500.0 3399.10009765625
  vertex 721500.0 5752500.0 3305.800048828125
 endloop
endfacet
facet normal 0.02836534008383751 0.09285921603441238 -0.9952751398086548
 outer loop
  vertex 721500.0 5753500.0 3399.10009765625
  vertex 722500.0 5752500.0 3334.300048828125
  vertex 721500.0 5752500.0 3305.800048828125
 endloop
endfacet
facet normal -0.015379570424556732 0.04933389648795128 -0.9986639022827148
 outer loop
  vertex 721500.0 5753500.0 3399.10009765625
  vertex 722500.0 5753500.0 3383.699951171875
  vertex 722500.0 5752500.0 3334.300048828125
 endloop
endfacet
facet normal -0.10066275298595428 0.04908911883831024 -0.9937088489532471
 outer loop
  vertex 722500.0 5753500.0 3383.699951171875
  vertex 723500.0 5752500.0 3233.0
  vertex 722500.0 5752500.0 3334.300048828125
 endloop
endfacet
facet normal -0.08381882309913635 0.06602086126804352 -0.9942915439605713
 outer loop
  vertex 722500.0 5753500.0 3383.699951171875
  vertex 723500.0 5753500.0 3299.39990234375
  vertex 723500.0 5752500.0 3233.0
 endloop
endfacet
facet normal 0.0030932750087231398 0.06625369191169739 -0.997797966003418
 outer loop
  vertex 723500.0 5753500.0 3299.39990234375
  vertex 724500.0 5752500.0 3236.10009765625
  vertex 723500.0 5752500.0 3233.0
 endloop
endfacet
facet normal 0.0752553939819336 0.13777035474777222 -0.987601101398468
 outer loop
  vertex 723500.0 5753500.0 3299.39990234375
  vertex 724500.0 5753500.0 3375.60009765625
  vertex 724500.0 5752500.0 3236.10009765625
 endloop
endfacet
facet normal -0.009705603122711182 0.13815563917160034 -0.9903629422187805
 outer loop
  vertex 724500.0 5753500.0 3375.60009765625
  vertex 725500.0 5752500.0 3226.300048828125
  vertex 724500.0 5752500.0 3236.10009765625
 endloop
endfacet
facet normal -0.07259637117385864 0.07587817311286926 -0.9944708943367004
 outer loop
  vertex 724500.0 5753500.0 3375.60009765625
  vertex 725500.0 5753500.0 3302.60009765625
  vertex 725500.0 5752500.0 3226.300048828125
 endloop
endfacet
facet normal -0.0066803861409425735 0.07607721537351608 -0.9970795512199402
 outer loop
  vertex 725500.0 5753500.0 3302.60009765625
  vertex 726500.0 5752500.0 3219.60009765625
  vertex 725500.0 5752500.0 3226.300048828125
 endloop
endfacet
facet normal 0.07996729016304016 0.16160692274570465 -0.9836098551750183
 outer loop
  vertex 725500.0 5753500.0 3302.60009765625
  vertex 726500.0 5753500.0 3383.89990234375
  vertex 726500.0 5752500.0 3219.60009765625
 endloop
endfacet
facet normal 0.005696603562682867 0.03378020599484444 -0.999413013458252
 outer loop
  vertex 717500.0 5754500.0 3429.300048828125
  vertex 718500.0 5753500.0 3401.199951171875
  vertex 717500.0 5753500.0 3395.5
 endloop
endfacet
facet normal -0.025878796353936195 0.03097473829984665 -0.9991850852966309
 outer loop
  vertex 719500.0 5754500.0 3420.199951171875
  vertex 720500.0 5753500.0 3363.300048828125
  vertex 719500.0 5753500.0 3389.199951171875
 endloop
endfacet
facet normal -0.01608438789844513 0.04076085612177849 -0.9990394115447998
 outer loop
  vertex 719500.0 5754500.0 3420.199951171875
  vertex 720500.0 5754500.0 3404.10009765625
  vertex 720500.0 5753500.0 3363.300048828125
 endloop
endfacet
facet normal 0.03574742376804352 0.04074007645249367 -0.9985300898551941
 outer loop
  vertex 720500.0 5754500.0 3404.10009765625
  vertex 721500.0 5753500.0 3399.10009765625
  vertex 720500.0 5753500.0 3363.300048828125
 endloop
endfacet
facet normal -0.009299560450017452 -0.004299823194742203 -0.9999474883079529
 outer loop
  vertex 720500.0 5754500.0 3404.10009765625
  vertex 721500.0 5754500.0 3394.800048828125
  vertex 721500.0 5753500.0 3399.10009765625
 endloop
endfacet
facet normal -0.01539817824959755 -0.004299499094486237 -0.9998722076416016
 outer loop
  vertex 721500.0 5754500.0 3394.800048828125
  vertex 722500.0 5753500.0 3383.699951171875
  vertex 721500.0 5753500.0 3399.10009765625
 endloop
endfacet
facet normal -0.055360347032547 -0.04428818076848984 -0.9974837303161621
 outer loop
  vertex 721500.0 5754500.0 3394.800048828125
  vertex 722500.0 5754500.0 3339.300048828125
  vertex 722500.0 5753500.0 3383.699951171875
 endloop
endfacet
facet normal -0.08392000198364258 -0.044199734926223755 -0.9954917430877686
 outer loop
  vertex 722500.0 5754500.0 3339.300048828125
  vertex 723500.0 5753500.0 3299.39990234375
  vertex 722500.0 5753500.0 3383.699951171875
 endloop
endfacet
facet normal -0.008995342999696732 0.030884157866239548 -0.9994825124740601
 outer loop
  vertex 722500.0 5754500.0 3339.300048828125
  vertex 723500.0 5754500.0 3330.300048828125
  vertex 723500.0 5753500.0 3299.39990234375
 endloop
endfacet
facet normal 0.07594388723373413 0.03079621121287346 -0.9966363906860352
 outer loop
  vertex 723500.0 5754500.0 3330.300048828125
  vertex 724500.0 5753500.0 3375.60009765625
  vertex 723500.0 5753500.0 3299.39990234375
 endloop
endfacet
facet normal 0.06891604512929916 0.02373649738729 -0.9973400235176086
 outer loop
  vertex 723500.0 5754500.0 3330.300048828125
  vertex 724500.0 5754500.0 3399.39990234375
  vertex 724500.0 5753500.0 3375.60009765625
 endloop
endfacet
facet normal -0.07278576493263245 0.02372995764017105 -0.9970652461051941
 outer loop
  vertex 724500.0 5754500.0 3399.39990234375
  vertex 725500.0 5753500.0 3302.60009765625
  vertex 724500.0 5753500.0 3375.60009765625
 endloop
endfacet
facet normal -0.019737523049116135 0.07675778865814209 -0.9968544244766235
 outer loop
  vertex 724500.0 5754500.0 3399.39990234375
  vertex 725500.0 5754500.0 3379.60009765625
  vertex 725500.0 5753500.0 3302.60009765625
 endloop
endfacet
facet normal 0.08079484850168228 0.07652175426483154 -0.99378901720047
 outer loop
  vertex 725500.0 5754500.0 3379.60009765625
  vertex 726500.0 5753500.0 3383.89990234375
  vertex 725500.0 5753500.0 3302.60009765625
 endloop
endfacet
facet normal 0.008899455890059471 0.004599866922944784 -0.9999498128890991
 outer loop
  vertex 725500.0 5754500.0 3379.60009765625
  vertex 726500.0 5754500.0 3388.5
  vertex 726500.0 5753500.0 3383.89990234375
 endloop
endfacet
facet normal 0.00449990713968873 0.004600002430379391 -0.9999793171882629
 outer loop
  vertex 726500.0 5754500.0 3388.5
  vertex 727500.0 5753500.0 3388.39990234375
  vertex 726500.0 5753500.0 3383.89990234375
 endloop
endfacet
facet normal 0.025283806025981903 0.02538383938372135 -0.9993579983711243
 outer loop
  vertex 726500.0 5754500.0 3388.5
  vertex 727500.0 5754500.0 3413.800048828125
  vertex 727500.0 5753500.0 3388.39990234375
 endloop
endfacet
facet normal 0.006894076708704233 0.041363731026649475 -0.9991203546524048
 outer loop
  vertex 718500.0 5755500.0 3454.699951171875
  vertex 719500.0 5755500.0 3461.60009765625
  vertex 719500.0 5754500.0 3420.199951171875
 endloop
endfacet
facet normal -0.016083991155028343 0.04135936498641968 -0.9990149140357971
 outer loop
  vertex 719500.0 5755500.0 3461.60009765625
  vertex 720500.0 5754500.0 3404.10009765625
  vertex 719500.0 5754500.0 3420.199951171875
 endloop
endfacet
facet normal -0.02897605672478676 0.028476469218730927 -0.9991743564605713
 outer loop
  vertex 719500.0 5755500.0 3461.60009765625
  vertex 720500.0 5755500.0 3432.60009765625
  vertex 720500.0 5754500.0 3404.10009765625
 endloop
endfacet
facet normal -0.009295870549976826 0.028487201780080795 -0.9995509386062622
 outer loop
  vertex 720500.0 5755500.0 3432.60009765625
  vertex 721500.0 5754500.0 3394.800048828125
  vertex 720500.0 5754500.0 3404.10009765625
 endloop
endfacet
facet normal -0.023891016840934753 0.013894590549170971 -0.9996179938316345
 outer loop
  vertex 720500.0 5755500.0 3432.60009765625
  vertex 721500.0 5755500.0 3408.699951171875
  vertex 721500.0 5754500.0 3394.800048828125
 endloop
endfacet
facet normal -0.05540939047932625 0.013877208344638348 -0.9983673095703125
 outer loop
  vertex 721500.0 5755500.0 3408.699951171875
  vertex 722500.0 5754500.0 3339.300048828125
  vertex 721500.0 5754500.0 3394.800048828125
 endloop
endfacet
facet normal -0.06933274865150452 -9.985287761082873e-05 -0.9975935816764832
 outer loop
  vertex 721500.0 5755500.0 3408.699951171875
  vertex 722500.0 5755500.0 3339.199951171875
  vertex 722500.0 5754500.0 3339.300048828125
 endloop
endfacet
facet normal -0.008999635465443134 -0.00010009360266849399 -0.9999595284461975
 outer loop
  vertex 722500.0 5755500.0 3339.199951171875
  vertex 723500.0 5754500.0 3330.300048828125
  vertex 722500.0 5754500.0 3339.300048828125
 endloop
endfacet
facet normal -0.025488203391432762 -0.016592418774962425 -0.9995374083518982
 outer loop
  vertex 722500.0 5755500.0 3339.199951171875
  vertex 723500.0 5755500.0 3313.699951171875
  vertex 723500.0 5754500.0 3330.300048828125
 endloop
endfacet
facet normal 0.06892602890729904 -0.016558337956666946 -0.9974843263626099
 outer loop
  vertex 723500.0 5755500.0 3313.699951171875
  vertex 724500.0 5754500.0 3399.39990234375
  vertex 723500.0 5754500.0 3330.300048828125
 endloop
endfacet
facet normal 0.07508343458175659 -0.010369989089667797 -0.9971233606338501
 outer loop
  vertex 723500.0 5755500.0 3313.699951171875
  vertex 724500.0 5755500.0 3389.0
  vertex 724500.0 5754500.0 3399.39990234375
 endloop
endfacet
facet normal -0.019794855266809464 -0.010397301986813545 -0.999750018119812
 outer loop
  vertex 724500.0 5755500.0 3389.0
  vertex 725500.0 5754500.0 3379.60009765625
  vertex 724500.0 5754500.0 3399.39990234375
 endloop
endfacet
facet normal 0.04131129011511803 0.05069107189774513 -0.9978595972061157
 outer loop
  vertex 724500.0 5755500.0 3389.0
  vertex 725500.0 5755500.0 3430.39990234375
  vertex 725500.0 5754500.0 3379.60009765625
 endloop
endfacet
facet normal 0.00888808909803629 0.05073237791657448 -0.9986727237701416
 outer loop
  vertex 725500.0 5755500.0 3430.39990234375
  vertex 726500.0 5754500.0 3388.5
  vertex 725500.0 5754500.0 3379.60009765625
 endloop
endfacet
facet normal -0.001698576845228672 0.04016745090484619 -0.9991915225982666
 outer loop
  vertex 725500.0 5755500.0 3430.39990234375
  vertex 726500.0 5755500.0 3428.699951171875
  vertex 726500.0 5754500.0 3388.5
 endloop
endfacet
facet normal 0.02527155913412571 0.040154680609703064 -0.9988738298416138
 outer loop
  vertex 726500.0 5755500.0 3428.699951171875
  vertex 727500.0 5754500.0 3413.800048828125
  vertex 726500.0 5754500.0 3388.5
 endloop
endfacet
facet normal -0.052490051835775375 -0.03762125223875046 -0.9979125261306763
 outer loop
  vertex 726500.0 5755500.0 3428.699951171875
  vertex 727500.0 5755500.0 3376.10009765625
  vertex 727500.0 5754500.0 3413.800048828125
 endloop
endfacet
facet normal 0.13487578928470612 0.17127865552902222 -0.9759467840194702
 outer loop
  vertex 717500.0 5756500.0 3492.0
  vertex 718500.0 5756500.0 3630.199951171875
  vertex 718500.0 5755500.0 3454.699951171875
 endloop
endfacet
facet normal 0.006796114146709442 0.17285417020320892 -0.9849240183830261
 outer loop
  vertex 718500.0 5756500.0 3630.199951171875
  vertex 719500.0 5755500.0 3461.60009765625
  vertex 718500.0 5755500.0 3454.699951171875
 endloop
endfacet
facet normal -0.06432028859853745 0.10303130745887756 -0.9925962686538696
 outer loop
  vertex 718500.0 5756500.0 3630.199951171875
  vertex 719500.0 5756500.0 3565.39990234375
  vertex 719500.0 5755500.0 3461.60009765625
 endloop
endfacet
facet normal -0.028833037242293358 0.10320216417312622 -0.9942424297332764
 outer loop
  vertex 719500.0 5756500.0 3565.39990234375
  vertex 720500.0 5755500.0 3432.60009765625
  vertex 719500.0 5755500.0 3461.60009765625
 endloop
endfacet
facet normal -0.12129093706607819 0.01052100956439972 -0.9925612211227417
 outer loop
  vertex 719500.0 5756500.0 3565.39990234375
  vertex 720500.0 5756500.0 3443.199951171875
  vertex 720500.0 5755500.0 3432.60009765625
 endloop
endfacet
facet normal -0.023891981691122055 0.010596232488751411 -0.9996583461761475
 outer loop
  vertex 720500.0 5756500.0 3443.199951171875
  vertex 721500.0 5755500.0 3408.699951171875
  vertex 720500.0 5755500.0 3432.60009765625
 endloop
endfacet
facet normal -0.04784075915813446 -0.013383356854319572 -0.9987652897834778
 outer loop
  vertex 720500.0 5756500.0 3443.199951171875
  vertex 721500.0 5756500.0 3395.300048828125
  vertex 721500.0 5755500.0 3408.699951171875
 endloop
endfacet
facet normal -0.06932655721902847 -0.013366461731493473 -0.9975044131278992
 outer loop
  vertex 721500.0 5756500.0 3395.300048828125
  vertex 722500.0 5755500.0 3339.199951171875
  vertex 721500.0 5755500.0 3408.699951171875
 endloop
endfacet
facet normal -0.02807801403105259 0.027977995574474335 -0.9992141127586365
 outer loop
  vertex 721500.0 5756500.0 3395.300048828125
  vertex 722500.0 5756500.0 3367.199951171875
  vertex 722500.0 5755500.0 3339.199951171875
 endloop
endfacet
facet normal -0.025481732562184334 0.02797994203865528 -0.9992836117744446
 outer loop
  vertex 722500.0 5756500.0 3367.199951171875
  vertex 723500.0 5755500.0 3313.699951171875
  vertex 722500.0 5755500.0 3339.199951171875
 endloop
endfacet
facet normal -0.029178904369473457 0.024282533675432205 -0.9992792010307312
 outer loop
  vertex 722500.0 5756500.0 3367.199951171875
  vertex 723500.0 5756500.0 3338.0
  vertex 723500.0 5755500.0 3313.699951171875
 endloop
endfacet
facet normal 0.07506543397903442 0.024224337190389633 -0.996884286403656
 outer loop
  vertex 723500.0 5756500.0 3338.0
  vertex 724500.0 5755500.0 3389.0
  vertex 723500.0 5755500.0 3313.699951171875
 endloop
endfacet
facet normal 0.046449340879917145 -0.004495097324252129 -0.9989105463027954
 outer loop
  vertex 723500.0 5756500.0 3338.0
  vertex 724500.0 5756500.0 3384.5
  vertex 724500.0 5755500.0 3389.0
 endloop
endfacet
facet normal 0.04136405140161514 -0.004496103152632713 -0.9991340041160583
 outer loop
  vertex 724500.0 5756500.0 3384.5
  vertex 725500.0 5755500.0 3430.39990234375
  vertex 724500.0 5755500.0 3389.0
 endloop
endfacet
facet normal 0.0628661960363388 0.017063777893781662 -0.9978761076927185
 outer loop
  vertex 724500.0 5756500.0 3384.5
  vertex 725500.0 5756500.0 3447.5
  vertex 725500.0 5755500.0 3430.39990234375
 endloop
endfacet
facet normal -0.001699700253084302 0.01709757372736931 -0.9998524188995361
 outer loop
  vertex 725500.0 5756500.0 3447.5
  vertex 726500.0 5755500.0 3428.699951171875
  vertex 725500.0 5755500.0 3430.39990234375
 endloop
endfacet
facet normal 0.025865409523248672 0.044640421867370605 -0.9986681938171387
 outer loop
  vertex 725500.0 5756500.0 3447.5
  vertex 726500.0 5756500.0 3473.39990234375
  vertex 726500.0 5755500.0 3428.699951171875
 endloop
endfacet
facet normal -0.0524749793112278 0.04459383711218834 -0.997626006603241
 outer loop
  vertex 726500.0 5756500.0 3473.39990234375
  vertex 727500.0 5755500.0 3376.10009765625
  vertex 726500.0 5755500.0 3428.699951171875
 endloop
endfacet
facet normal 0.13688863813877106 -0.012183340266346931 -0.9905115365982056
 outer loop
  vertex 717500.0 5757500.0 3479.699951171875
  vertex 718500.0 5756500.0 3630.199951171875
  vertex 717500.0 5756500.0 3492.0
 endloop
endfacet
facet normal -0.12085402011871338 -0.08544827997684479 -0.9889857769012451
 outer loop
  vertex 719500.0 5757500.0 3479.0
  vertex 720500.0 5756500.0 3443.199951171875
  vertex 719500.0 5756500.0 3565.39990234375
 endloop
endfacet
facet normal -0.04594902694225311 -0.010188650339841843 -0.9988918304443359
 outer loop
  vertex 719500.0 5757500.0 3479.0
  vertex 720500.0 5757500.0 3433.0
  vertex 720500.0 5756500.0 3443.199951171875
 endloop
endfacet
facet normal -0.047842565923929214 -0.010187741369009018 -0.9988029599189758
 outer loop
  vertex 720500.0 5757500.0 3433.0
  vertex 721500.0 5756500.0 3395.300048828125
  vertex 720500.0 5756500.0 3443.199951171875
 endloop
endfacet
facet normal -0.01679401285946369 0.020892394706606865 -0.999640703201294
 outer loop
  vertex 720500.0 5757500.0 3433.0
  vertex 721500.0 5757500.0 3416.199951171875
  vertex 721500.0 5756500.0 3395.300048828125
 endloop
endfacet
facet normal -0.02808288298547268 0.0208870992064476 -0.9993873834609985
 outer loop
  vertex 721500.0 5757500.0 3416.199951171875
  vertex 722500.0 5756500.0 3367.199951171875
  vertex 721500.0 5756500.0 3395.300048828125
 endloop
endfacet
facet normal 0.029694857075810432 0.07852188497781754 -0.9964700937271118
 outer loop
  vertex 721500.0 5757500.0 3416.199951171875
  vertex 722500.0 5757500.0 3446.0
  vertex 722500.0 5756500.0 3367.199951171875
 endloop
endfacet
facet normal -0.029097389429807663 0.07852327078580856 -0.996487557888031
 outer loop
  vertex 722500.0 5757500.0 3446.0
  vertex 723500.0 5756500.0 3338.0
  vertex 722500.0 5756500.0 3367.199951171875
 endloop
endfacet
facet normal -0.07474948465824127 0.032889772206544876 -0.9966598153114319
 outer loop
  vertex 722500.0 5757500.0 3446.0
  vertex 723500.0 5757500.0 3371.0
  vertex 723500.0 5756500.0 3338.0
 endloop
endfacet
facet normal 0.04642459377646446 0.03294648602604866 -0.998378336429596
 outer loop
  vertex 723500.0 5757500.0 3371.0
  vertex 724500.0 5756500.0 3384.5
  vertex 723500.0 5756500.0 3338.0
 endloop
endfacet
facet normal 0.04304130747914314 0.029559720307588577 -0.9986359477043152
 outer loop
  vertex 723500.0 5757500.0 3371.0
  vertex 724500.0 5757500.0 3414.10009765625
  vertex 724500.0 5756500.0 3384.5
 endloop
endfacet
facet normal 0.06284793466329575 0.029528649523854256 -0.997586190700531
 outer loop
  vertex 724500.0 5757500.0 3414.10009765625
  vertex 725500.0 5756500.0 3447.5
  vertex 724500.0 5756500.0 3384.5
 endloop
endfacet
facet normal 0.034679051488637924 0.0012992677511647344 -0.9993976950645447
 outer loop
  vertex 724500.0 5757500.0 3414.10009765625
  vertex 725500.0 5757500.0 3448.800048828125
  vertex 725500.0 5756500.0 3447.5
 endloop
endfacet
facet normal 0.025891197845339775 0.0012996118748560548 -0.9996639490127563
 outer loop
  vertex 725500.0 5757500.0 3448.800048828125
  vertex 726500.0 5756500.0 3473.39990234375
  vertex 725500.0 5756500.0 3447.5
 endloop
endfacet
facet normal 0.0326814129948616 0.008095505647361279 -0.9994331002235413
 outer loop
  vertex 725500.0 5757500.0 3448.800048828125
  vertex 726500.0 5757500.0 3481.5
  vertex 726500.0 5756500.0 3473.39990234375
 endloop
endfacet
facet normal -0.016780247911810875 0.04554634541273117 -0.9988212585449219
 outer loop
  vertex 720500.0 5758500.0 3478.60009765625
  vertex 721500.0 5757500.0 3416.199951171875
  vertex 720500.0 5757500.0 3433.0
 endloop
endfacet
facet normal -0.03576449304819107 0.026573684066534042 -0.9990068674087524
 outer loop
  vertex 720500.0 5758500.0 3478.60009765625
  vertex 721500.0 5758500.0 3442.800048828125
  vertex 721500.0 5757500.0 3416.199951171875
 endloop
endfacet
facet normal 0.029776303097605705 0.02657890133559704 -0.9992031455039978
 outer loop
  vertex 721500.0 5758500.0 3442.800048828125
  vertex 722500.0 5757500.0 3446.0
  vertex 721500.0 5757500.0 3416.199951171875
 endloop
endfacet
facet normal 0.014497551135718822 0.01129814051091671 -0.9998310804367065
 outer loop
  vertex 721500.0 5758500.0 3442.800048828125
  vertex 722500.0 5758500.0 3457.300048828125
  vertex 722500.0 5757500.0 3446.0
 endloop
endfacet
facet normal -0.07478520274162292 0.011267686262726784 -0.9971360564231873
 outer loop
  vertex 722500.0 5758500.0 3457.300048828125
  vertex 723500.0 5757500.0 3371.0
  vertex 722500.0 5757500.0 3446.0
 endloop
endfacet
facet normal 0.025136008858680725 0.11087650805711746 -0.9935162663459778
 outer loop
  vertex 722500.0 5758500.0 3457.300048828125
  vertex 723500.0 5758500.0 3482.60009765625
  vertex 723500.0 5757500.0 3371.0
 endloop
endfacet
facet normal 0.042794935405254364 0.11080994457006454 -0.9929198026657104
 outer loop
  vertex 723500.0 5758500.0 3482.60009765625
  vertex 724500.0 5757500.0 3414.10009765625
  vertex 723500.0 5757500.0 3371.0
 endloop
endfacet
facet normal -0.08744741231203079 -0.019222531467676163 -0.9959837198257446
 outer loop
  vertex 723500.0 5758500.0 3482.60009765625
  vertex 724500.0 5758500.0 3394.800048828125
  vertex 724500.0 5757500.0 3414.10009765625
 endloop
endfacet
facet normal 0.034672632813453674 -0.019284851849079132 -0.9992126226425171
 outer loop
  vertex 724500.0 5758500.0 3394.800048828125
  vertex 725500.0 5757500.0 3448.800048828125
  vertex 724500.0 5757500.0 3414.10009765625
 endloop
endfacet
facet normal 0.09144917130470276 0.037714019417762756 -0.9950953722000122
 outer loop
  vertex 724500.0 5758500.0 3394.800048828125
  vertex 725500.0 5758500.0 3486.699951171875
  vertex 725500.0 5757500.0 3448.800048828125
 endloop
endfacet
facet normal 0.03265906125307083 0.03785250708460808 -0.9987494945526123
 outer loop
  vertex 725500.0 5758500.0 3486.699951171875
  vertex 726500.0 5757500.0 3481.5
  vertex 725500.0 5757500.0 3448.800048828125
 endloop
endfacet
facet normal 0.011197743006050587 0.016396669670939445 -0.999802827835083
 outer loop
  vertex 725500.0 5758500.0 3486.699951171875
  vertex 726500.0 5758500.0 3497.89990234375
  vertex 726500.0 5757500.0 3481.5
 endloop
endfacet
facet normal -0.03572320565581322 0.054881948977708817 -0.9978536367416382
 outer loop
  vertex 720500.0 5759500.0 3533.60009765625
  vertex 721500.0 5758500.0 3442.800048828125
  vertex 720500.0 5758500.0 3478.60009765625
 endloop
endfacet
facet normal 0.08159811794757843 0.17075727880001068 -0.9819285273551941
 outer loop
  vertex 720500.0 5759500.0 3533.60009765625
  vertex 721500.0 5759500.0 3616.699951171875
  vertex 721500.0 5758500.0 3442.800048828125
 endloop
endfacet
facet normal 0.014284144155681133 0.1713111251592636 -0.9851133823394775
 outer loop
  vertex 721500.0 5759500.0 3616.699951171875
  vertex 722500.0 5758500.0 3457.300048828125
  vertex 721500.0 5758500.0 3442.800048828125
 endloop
endfacet
facet normal -0.10427343845367432 0.05402347818017006 -0.9930803179740906
 outer loop
  vertex 721500.0 5759500.0 3616.699951171875
  vertex 722500.0 5759500.0 3511.699951171875
  vertex 722500.0 5758500.0 3457.300048828125
 endloop
endfacet
facet normal 0.025254637002944946 0.05430226027965546 -0.9982051253318787
 outer loop
  vertex 722500.0 5759500.0 3511.699951171875
  vertex 723500.0 5758500.0 3482.60009765625
  vertex 722500.0 5758500.0 3457.300048828125
 endloop
endfacet
facet normal -0.0014994273660704494 0.02758931554853916 -0.9996182322502136
 outer loop
  vertex 722500.0 5759500.0 3511.699951171875
  vertex 723500.0 5759500.0 3510.199951171875
  vertex 723500.0 5758500.0 3482.60009765625
 endloop
endfacet
facet normal -0.08743053674697876 0.02748369798064232 -0.9957914352416992
 outer loop
  vertex 723500.0 5759500.0 3510.199951171875
  vertex 724500.0 5758500.0 3394.800048828125
  vertex 723500.0 5758500.0 3482.60009765625
 endloop
endfacet
facet normal -0.012632493861019611 0.1021544486284256 -0.9946883916854858
 outer loop
  vertex 723500.0 5759500.0 3510.199951171875
  vertex 724500.0 5759500.0 3497.5
  vertex 724500.0 5758500.0 3394.800048828125
 endloop
endfacet
facet normal 0.09103942662477493 0.1017383486032486 -0.9906367659568787
 outer loop
  vertex 724500.0 5759500.0 3497.5
  vertex 725500.0 5758500.0 3486.699951171875
  vertex 724500.0 5758500.0 3394.800048828125
 endloop
endfacet
facet normal 0.08257291465997696 -0.07631304860115051 -0.9936589002609253
 outer loop
  vertex 720500.0 5760500.0 3456.800048828125
  vertex 721500.0 5759500.0 3616.699951171875
  vertex 720500.0 5759500.0 3533.60009765625
 endloop
endfacet
facet normal 0.04525844380259514 -0.11344429105520248 -0.9925130009651184
 outer loop
  vertex 720500.0 5760500.0 3456.800048828125
  vertex 721500.0 5760500.0 3502.39990234375
  vertex 721500.0 5759500.0 3616.699951171875
 endloop
endfacet
facet normal -0.10375770181417465 -0.11294771730899811 -0.9881685972213745
 outer loop
  vertex 721500.0 5760500.0 3502.39990234375
  vertex 722500.0 5759500.0 3511.699951171875
  vertex 721500.0 5759500.0 3616.699951171875
 endloop
endfacet
facet normal 0.13976973295211792 0.13064147531986237 -0.9815279841423035
 outer loop
  vertex 721500.0 5760500.0 3502.39990234375
  vertex 722500.0 5760500.0 3644.800048828125
  vertex 722500.0 5759500.0 3511.699951171875
 endloop
endfacet
facet normal -0.00148688571061939 0.13193641602993011 -0.9912571310997009
 outer loop
  vertex 722500.0 5760500.0 3644.800048828125
  vertex 723500.0 5759500.0 3510.199951171875
  vertex 722500.0 5759500.0 3511.699951171875
 endloop
endfacet
facet normal -0.05853132903575897 0.07545363903045654 -0.9954299926757812
 outer loop
  vertex 722500.0 5760500.0 3644.800048828125
  vertex 723500.0 5760500.0 3586.0
  vertex 723500.0 5759500.0 3510.199951171875
 endloop
endfacet
facet normal -0.012662609107792377 0.07557716220617294 -0.9970595240592957
 outer loop
  vertex 723500.0 5760500.0 3586.0
  vertex 724500.0 5759500.0 3497.5
  vertex 723500.0 5759500.0 3510.199951171875
 endloop
endfacet
facet normal 0.14097477495670319 -0.006731740664690733 -0.9899903535842896
 outer loop
  vertex 721500.0 5761500.0 3495.60009765625
  vertex 722500.0 5760500.0 3644.800048828125
  vertex 721500.0 5760500.0 3502.39990234375
 endloop
endfacet
facet normal 0.045211032032966614 -0.10304135829210281 -0.9936490058898926
 outer loop
  vertex 721500.0 5761500.0 3495.60009765625
  vertex 722500.0 5761500.0 3541.10009765625
  vertex 722500.0 5760500.0 3644.800048828125
 endloop
endfacet
facet normal -0.05838664248585701 -0.10297086834907532 -0.992969274520874
 outer loop
  vertex 722500.0 5761500.0 3541.10009765625
  vertex 723500.0 5760500.0 3586.0
  vertex 722500.0 5760500.0 3644.800048828125
 endloop
endfacet
facet normal 0.09170887619256973 0.04704812169075012 -0.9946737885475159
 outer loop
  vertex 722500.0 5761500.0 3541.10009765625
  vertex 723500.0 5761500.0 3633.300048828125
  vertex 723500.0 5760500.0 3586.0
 endloop
endfacet
endsolid
