solid
facet normal -0.04970170557498932 -0.32876574993133545 -0.9431028366088867
 outer loop
  vertex 724500.0 5501500.0 6633.60009765625
  vertex 725500.0 5501500.0 6580.89990234375
  vertex 725500.0 5500500.0 6929.5
 endloop
endfacet
facet normal -0.052313633263111115 0.10899440944194794 -0.9926648736000061
 outer loop
  vertex 724500.0 5502500.0 6743.39990234375
  vertex 725500.0 5501500.0 6580.89990234375
  vertex 724500.0 5501500.0 6633.60009765625
 endloop
endfacet
facet normal -0.12237885594367981 0.038776565343141556 -0.9917256832122803
 outer loop
  vertex 724500.0 5502500.0 6743.39990234375
  vertex 725500.0 5502500.0 6620.0
  vertex 725500.0 5501500.0 6580.89990234375
 endloop
endfacet
facet normal -0.08037718385457993 0.038943834602832794 -0.9960034489631653
 outer loop
  vertex 725500.0 5502500.0 6620.0
  vertex 726500.0 5501500.0 6500.2001953125
  vertex 725500.0 5501500.0 6580.89990234375
 endloop
endfacet
facet normal -0.112184539437294 0.006856178864836693 -0.9936637282371521
 outer loop
  vertex 725500.0 5502500.0 6620.0
  vertex 726500.0 5502500.0 6507.10009765625
  vertex 726500.0 5501500.0 6500.2001953125
 endloop
endfacet
facet normal -0.411959171295166 0.12181772291660309 -0.903022825717926
 outer loop
  vertex 723500.0 5503500.0 7334.5
  vertex 724500.0 5503500.0 6878.2998046875
  vertex 724500.0 5502500.0 6743.39990234375
 endloop
endfacet
facet normal -0.12138785421848297 0.1327003538608551 -0.9836949110031128
 outer loop
  vertex 724500.0 5503500.0 6878.2998046875
  vertex 725500.0 5502500.0 6620.0
  vertex 724500.0 5502500.0 6743.39990234375
 endloop
endfacet
facet normal -0.16046133637428284 0.09334871172904968 -0.9826180338859558
 outer loop
  vertex 724500.0 5503500.0 6878.2998046875
  vertex 725500.0 5503500.0 6715.0
  vertex 725500.0 5502500.0 6620.0
 endloop
endfacet
facet normal -0.11169062554836273 0.09398244321346283 -0.9892889261245728
 outer loop
  vertex 725500.0 5503500.0 6715.0
  vertex 726500.0 5502500.0 6507.10009765625
  vertex 725500.0 5502500.0 6620.0
 endloop
endfacet
facet normal -0.13412493467330933 0.07136160135269165 -0.988391637802124
 outer loop
  vertex 725500.0 5503500.0 6715.0
  vertex 726500.0 5503500.0 6579.2998046875
  vertex 726500.0 5502500.0 6507.10009765625
 endloop
endfacet
facet normal 0.34809428453445435 0.05679943040013313 -0.9357373118400574
 outer loop
  vertex 722500.0 5504500.0 7023.2001953125
  vertex 723500.0 5504500.0 7395.2001953125
  vertex 723500.0 5503500.0 7334.5
 endloop
endfacet
facet normal -0.4144187867641449 0.05514092743396759 -0.908414363861084
 outer loop
  vertex 723500.0 5504500.0 7395.2001953125
  vertex 724500.0 5503500.0 6878.2998046875
  vertex 723500.0 5503500.0 7334.5
 endloop
endfacet
facet normal 0.11560528725385666 0.5448907613754272 -0.830499529838562
 outer loop
  vertex 723500.0 5504500.0 7395.2001953125
  vertex 724500.0 5504500.0 7534.39990234375
  vertex 724500.0 5503500.0 6878.2998046875
 endloop
endfacet
facet normal -0.13528066873550415 0.5435260534286499 -0.8284193277359009
 outer loop
  vertex 724500.0 5504500.0 7534.39990234375
  vertex 725500.0 5503500.0 6715.0
  vertex 724500.0 5503500.0 6878.2998046875
 endloop
endfacet
facet normal -0.2934795022010803 0.4129750728607178 -0.8621609210968018
 outer loop
  vertex 724500.0 5504500.0 7534.39990234375
  vertex 725500.0 5504500.0 7194.0
  vertex 725500.0 5503500.0 6715.0
 endloop
endfacet
facet normal -0.12147819250822067 0.4287986159324646 -0.8951954245567322
 outer loop
  vertex 725500.0 5504500.0 7194.0
  vertex 726500.0 5503500.0 6579.2998046875
  vertex 725500.0 5503500.0 6715.0
 endloop
endfacet
facet normal -0.4836445748806 0.05337916687130928 -0.8736352324485779
 outer loop
  vertex 725500.0 5504500.0 7194.0
  vertex 726500.0 5504500.0 6640.39990234375
  vertex 726500.0 5503500.0 6579.2998046875
 endloop
endfacet
facet normal -0.15996208786964417 0.4073224663734436 -0.8991665840148926
 outer loop
  vertex 732500.0 5504500.0 8500.900390625
  vertex 733500.0 5504500.0 8323.0
  vertex 733500.0 5503500.0 7870.0
 endloop
endfacet
facet normal 0.1060643345117569 0.4103083312511444 -0.9057579040527344
 outer loop
  vertex 733500.0 5504500.0 8323.0
  vertex 734500.0 5503500.0 7987.10009765625
  vertex 733500.0 5503500.0 7870.0
 endloop
endfacet
facet normal 0.10683441162109375 0.41095027327537537 -0.9053763747215271
 outer loop
  vertex 733500.0 5504500.0 8323.0
  vertex 734500.0 5504500.0 8441.0
  vertex 734500.0 5503500.0 7987.10009765625
 endloop
endfacet
facet normal 0.34863758087158203 0.010590151883661747 -0.9371978044509888
 outer loop
  vertex 722500.0 5505500.0 7034.5
  vertex 723500.0 5504500.0 7395.2001953125
  vertex 722500.0 5504500.0 7023.2001953125
 endloop
endfacet
facet normal 0.3459262251853943 0.0075058541260659695 -0.9382317662239075
 outer loop
  vertex 722500.0 5505500.0 7034.5
  vertex 723500.0 5505500.0 7403.2001953125
  vertex 723500.0 5504500.0 7395.2001953125
 endloop
endfacet
facet normal 0.1378660500049591 0.007923353463411331 -0.9904192090034485
 outer loop
  vertex 723500.0 5505500.0 7403.2001953125
  vertex 724500.0 5504500.0 7534.39990234375
  vertex 723500.0 5504500.0 7395.2001953125
 endloop
endfacet
facet normal -0.35251155495643616 -0.4594712555408478 -0.8152434229850769
 outer loop
  vertex 723500.0 5505500.0 7403.2001953125
  vertex 724500.0 5505500.0 6970.7998046875
  vertex 724500.0 5504500.0 7534.39990234375
 endloop
endfacet
facet normal -0.2843073010444641 -0.4707275629043579 -0.8352155089378357
 outer loop
  vertex 724500.0 5505500.0 6970.7998046875
  vertex 725500.0 5504500.0 7194.0
  vertex 724500.0 5504500.0 7534.39990234375
 endloop
endfacet
facet normal 0.027569612488150597 -0.1914169043302536 -0.9811215400695801
 outer loop
  vertex 724500.0 5505500.0 6970.7998046875
  vertex 725500.0 5505500.0 6998.89990234375
  vertex 725500.0 5504500.0 7194.0
 endloop
endfacet
facet normal -0.4774301052093506 -0.16825620830059052 -0.8624096512794495
 outer loop
  vertex 725500.0 5505500.0 6998.89990234375
  vertex 726500.0 5504500.0 6640.39990234375
  vertex 725500.0 5504500.0 7194.0
 endloop
endfacet
facet normal -0.32738161087036133 0.011337891221046448 -0.9448242783546448
 outer loop
  vertex 725500.0 5505500.0 6998.89990234375
  vertex 726500.0 5505500.0 6652.39990234375
  vertex 726500.0 5504500.0 6640.39990234375
 endloop
endfacet
facet normal -0.12187561392784119 0.011909686960279942 -0.9924739599227905
 outer loop
  vertex 726500.0 5505500.0 6652.39990234375
  vertex 727500.0 5504500.0 6517.60009765625
  vertex 726500.0 5504500.0 6640.39990234375
 endloop
endfacet
facet normal -0.05544086918234825 0.07873252779245377 -0.9953529238700867
 outer loop
  vertex 726500.0 5505500.0 6652.39990234375
  vertex 727500.0 5505500.0 6596.7001953125
  vertex 727500.0 5504500.0 6517.60009765625
 endloop
endfacet
facet normal 0.518159806728363 0.2545892596244812 -0.8165138363838196
 outer loop
  vertex 728500.0 5505500.0 6608.0
  vertex 729500.0 5505500.0 7242.60009765625
  vertex 729500.0 5504500.0 6930.7998046875
 endloop
endfacet
facet normal 0.5397441983222961 0.250584214925766 -0.8036689758300781
 outer loop
  vertex 729500.0 5505500.0 7242.60009765625
  vertex 730500.0 5504500.0 7602.39990234375
  vertex 729500.0 5504500.0 6930.7998046875
 endloop
endfacet
facet normal 0.006223202683031559 -0.33303043246269226 -0.9428955316543579
 outer loop
  vertex 729500.0 5505500.0 7242.60009765625
  vertex 730500.0 5505500.0 7249.2001953125
  vertex 730500.0 5504500.0 7602.39990234375
 endloop
endfacet
facet normal -0.030081912875175476 -0.21252869069576263 -0.9766916632652283
 outer loop
  vertex 731500.0 5505500.0 8314.099609375
  vertex 732500.0 5505500.0 8283.2998046875
  vertex 732500.0 5504500.0 8500.900390625
 endloop
endfacet
facet normal -0.1712641716003418 -0.20948341488838196 -0.9626968502998352
 outer loop
  vertex 732500.0 5505500.0 8283.2998046875
  vertex 733500.0 5504500.0 8323.0
  vertex 732500.0 5504500.0 8500.900390625
 endloop
endfacet
facet normal 0.41436922550201416 0.38156658411026 -0.8262596726417542
 outer loop
  vertex 732500.0 5505500.0 8283.2998046875
  vertex 733500.0 5505500.0 8784.7998046875
  vertex 733500.0 5504500.0 8323.0
 endloop
endfacet
facet normal 0.10651905834674835 0.4168684780597687 -0.9027038812637329
 outer loop
  vertex 733500.0 5505500.0 8784.7998046875
  vertex 734500.0 5504500.0 8441.0
  vertex 733500.0 5504500.0 8323.0
 endloop
endfacet
facet normal -0.4193309247493744 -0.10949651151895523 -0.9012058973312378
 outer loop
  vertex 733500.0 5505500.0 8784.7998046875
  vertex 734500.0 5505500.0 8319.5
  vertex 734500.0 5504500.0 8441.0
 endloop
endfacet
facet normal 0.2152942568063736 -0.034255873411893845 -0.9759481549263
 outer loop
  vertex 721500.0 5506500.0 6778.7998046875
  vertex 722500.0 5506500.0 6999.39990234375
  vertex 722500.0 5505500.0 7034.5
 endloop
endfacet
facet normal 0.3457484841346741 -0.032915107905864716 -0.9377496838569641
 outer loop
  vertex 722500.0 5506500.0 6999.39990234375
  vertex 723500.0 5505500.0 7403.2001953125
  vertex 722500.0 5505500.0 7034.5
 endloop
endfacet
facet normal 0.010611528530716896 -0.365263432264328 -0.9308437705039978
 outer loop
  vertex 722500.0 5506500.0 6999.39990234375
  vertex 723500.0 5506500.0 7010.7998046875
  vertex 723500.0 5505500.0 7403.2001953125
 endloop
endfacet
facet normal -0.37340494990348816 -0.33886244893074036 -0.8635630011558533
 outer loop
  vertex 723500.0 5506500.0 7010.7998046875
  vertex 724500.0 5505500.0 6970.7998046875
  vertex 723500.0 5505500.0 7403.2001953125
 endloop
endfacet
facet normal -0.1840270757675171 -0.14514122903347015 -0.9721461534500122
 outer loop
  vertex 723500.0 5506500.0 7010.7998046875
  vertex 724500.0 5506500.0 6821.5
  vertex 724500.0 5505500.0 6970.7998046875
 endloop
endfacet
facet normal 0.027781326323747635 -0.14760614931583405 -0.9886559844017029
 outer loop
  vertex 724500.0 5506500.0 6821.5
  vertex 725500.0 5505500.0 6998.89990234375
  vertex 724500.0 5505500.0 6970.7998046875
 endloop
endfacet
facet normal -0.10348166525363922 -0.27314528822898865 -0.9563907384872437
 outer loop
  vertex 724500.0 5506500.0 6821.5
  vertex 725500.0 5506500.0 6713.2998046875
  vertex 725500.0 5505500.0 6998.89990234375
 endloop
endfacet
facet normal -0.3160952031612396 -0.26053914427757263 -0.9122516512870789
 outer loop
  vertex 725500.0 5506500.0 6713.2998046875
  vertex 726500.0 5505500.0 6652.39990234375
  vertex 725500.0 5505500.0 6998.89990234375
 endloop
endfacet
facet normal -0.07696051895618439 -0.01624930091202259 -0.9969017505645752
 outer loop
  vertex 725500.0 5506500.0 6713.2998046875
  vertex 726500.0 5506500.0 6636.10009765625
  vertex 726500.0 5505500.0 6652.39990234375
 endloop
endfacet
facet normal -0.055606137961149216 -0.016272423788905144 -0.9983201622962952
 outer loop
  vertex 726500.0 5506500.0 6636.10009765625
  vertex 727500.0 5505500.0 6596.7001953125
  vertex 726500.0 5505500.0 6652.39990234375
 endloop
endfacet
facet normal -0.054114848375320435 -0.014776987954974174 -0.9984253644943237
 outer loop
  vertex 726500.0 5506500.0 6636.10009765625
  vertex 727500.0 5506500.0 6581.89990234375
  vertex 727500.0 5505500.0 6596.7001953125
 endloop
endfacet
facet normal 0.011297846212983131 -0.014797727577388287 -0.9998266696929932
 outer loop
  vertex 727500.0 5506500.0 6581.89990234375
  vertex 728500.0 5505500.0 6608.0
  vertex 727500.0 5505500.0 6596.7001953125
 endloop
endfacet
facet normal 0.005898596718907356 -0.020195724442601204 -0.999778687953949
 outer loop
  vertex 727500.0 5506500.0 6581.89990234375
  vertex 728500.0 5506500.0 6587.7998046875
  vertex 728500.0 5505500.0 6608.0
 endloop
endfacet
facet normal 0.5357373356819153 -0.017053257673978806 -0.844212532043457
 outer loop
  vertex 728500.0 5506500.0 6587.7998046875
  vertex 729500.0 5505500.0 7242.60009765625
  vertex 728500.0 5505500.0 6608.0
 endloop
endfacet
facet normal 0.15288183093070984 -0.42981258034706116 -0.8898811340332031
 outer loop
  vertex 728500.0 5506500.0 6587.7998046875
  vertex 729500.0 5506500.0 6759.60009765625
  vertex 729500.0 5505500.0 7242.60009765625
 endloop
endfacet
facet normal 0.005943058058619499 -0.4349176287651062 -0.900450587272644
 outer loop
  vertex 729500.0 5506500.0 6759.60009765625
  vertex 730500.0 5505500.0 7249.2001953125
  vertex 729500.0 5505500.0 7242.60009765625
 endloop
endfacet
facet normal 0.4370366334915161 -0.003328087739646435 -0.8994376063346863
 outer loop
  vertex 729500.0 5506500.0 6759.60009765625
  vertex 730500.0 5506500.0 7245.5
  vertex 730500.0 5505500.0 7249.2001953125
 endloop
endfacet
facet normal 0.7289687395095825 -0.0025329403579235077 -0.6845423579216003
 outer loop
  vertex 730500.0 5506500.0 7245.5
  vertex 731500.0 5505500.0 8314.099609375
  vertex 730500.0 5505500.0 7249.2001953125
 endloop
endfacet
facet normal 0.6655178666114807 -0.12143797427415848 -0.7364365458488464
 outer loop
  vertex 730500.0 5506500.0 7245.5
  vertex 731500.0 5506500.0 8149.2001953125
  vertex 731500.0 5505500.0 8314.099609375
 endloop
endfacet
facet normal -0.030375372618436813 -0.16262708604335785 -0.9862199425697327
 outer loop
  vertex 731500.0 5506500.0 8149.2001953125
  vertex 732500.0 5505500.0 8283.2998046875
  vertex 731500.0 5505500.0 8314.099609375
 endloop
endfacet
facet normal 0.16463220119476318 0.03243391588330269 -0.9858216047286987
 outer loop
  vertex 731500.0 5506500.0 8149.2001953125
  vertex 732500.0 5506500.0 8316.2001953125
  vertex 732500.0 5505500.0 8283.2998046875
 endloop
endfacet
facet normal 0.44809216260910034 0.029396625235676765 -0.8935038447380066
 outer loop
  vertex 732500.0 5506500.0 8316.2001953125
  vertex 733500.0 5505500.0 8784.7998046875
  vertex 732500.0 5505500.0 8283.2998046875
 endloop
endfacet
facet normal 0.21450158953666687 0.09227686375379562 -0.9723548889160156
 outer loop
  vertex 721500.0 5507500.0 6873.7001953125
  vertex 722500.0 5506500.0 6999.39990234375
  vertex 721500.0 5506500.0 6778.7998046875
 endloop
endfacet
facet normal -0.1265178918838501 -0.24727141857147217 -0.9606508612632751
 outer loop
  vertex 721500.0 5507500.0 6873.7001953125
  vertex 722500.0 5507500.0 6742.0
  vertex 722500.0 5506500.0 6999.39990234375
 endloop
endfacet
facet normal 0.01103937067091465 -0.2492593228816986 -0.9683738350868225
 outer loop
  vertex 722500.0 5507500.0 6742.0
  vertex 723500.0 5506500.0 7010.7998046875
  vertex 722500.0 5506500.0 6999.39990234375
 endloop
endfacet
facet normal -0.015099226497113705 -0.2736099660396576 -0.961722195148468
 outer loop
  vertex 722500.0 5507500.0 6742.0
  vertex 723500.0 5507500.0 6726.2998046875
  vertex 723500.0 5506500.0 7010.7998046875
 endloop
endfacet
facet normal -0.17912961542606354 -0.2692151367664337 -0.9462746381759644
 outer loop
  vertex 723500.0 5507500.0 6726.2998046875
  vertex 724500.0 5506500.0 6821.5
  vertex 723500.0 5506500.0 7010.7998046875
 endloop
endfacet
facet normal -0.05167088285088539 -0.1457262635231018 -0.9879747033119202
 outer loop
  vertex 723500.0 5507500.0 6726.2998046875
  vertex 724500.0 5507500.0 6674.0
  vertex 724500.0 5506500.0 6821.5
 endloop
endfacet
facet normal -0.10643402487039566 -0.14509232342243195 -0.9836767911911011
 outer loop
  vertex 724500.0 5507500.0 6674.0
  vertex 725500.0 5506500.0 6713.2998046875
  vertex 724500.0 5506500.0 6821.5
 endloop
endfacet
facet normal -0.030113857239484787 -0.0693013072013855 -0.9971411228179932
 outer loop
  vertex 724500.0 5507500.0 6674.0
  vertex 725500.0 5507500.0 6643.7998046875
  vertex 725500.0 5506500.0 6713.2998046875
 endloop
endfacet
facet normal -0.07678654789924622 -0.06912805140018463 -0.9946482181549072
 outer loop
  vertex 725500.0 5507500.0 6643.7998046875
  vertex 726500.0 5506500.0 6636.10009765625
  vertex 725500.0 5506500.0 6713.2998046875
 endloop
endfacet
facet normal 0.08335791528224945 0.09099876135587692 -0.9923561215400696
 outer loop
  vertex 725500.0 5507500.0 6643.7998046875
  vertex 726500.0 5507500.0 6727.7998046875
  vertex 726500.0 5506500.0 6636.10009765625
 endloop
endfacet
facet normal -0.05389530211687088 0.0911838561296463 -0.9943745732307434
 outer loop
  vertex 726500.0 5507500.0 6727.7998046875
  vertex 727500.0 5506500.0 6581.89990234375
  vertex 726500.0 5506500.0 6636.10009765625
 endloop
endfacet
facet normal -0.07420555502176285 0.07092367112636566 -0.9947177171707153
 outer loop
  vertex 726500.0 5507500.0 6727.7998046875
  vertex 727500.0 5507500.0 6653.2001953125
  vertex 727500.0 5506500.0 6581.89990234375
 endloop
endfacet
facet normal 0.005884864367544651 0.07111851871013641 -0.9974505305290222
 outer loop
  vertex 727500.0 5507500.0 6653.2001953125
  vertex 728500.0 5506500.0 6587.7998046875
  vertex 727500.0 5506500.0 6581.89990234375
 endloop
endfacet
facet normal -0.07587637007236481 -0.010668247938156128 -0.9970601797103882
 outer loop
  vertex 727500.0 5507500.0 6653.2001953125
  vertex 728500.0 5507500.0 6577.10009765625
  vertex 728500.0 5506500.0 6587.7998046875
 endloop
endfacet
facet normal 0.1693102866411209 -0.010544629767537117 -0.9855064153671265
 outer loop
  vertex 728500.0 5507500.0 6577.10009765625
  vertex 729500.0 5506500.0 6759.60009765625
  vertex 728500.0 5506500.0 6587.7998046875
 endloop
endfacet
facet normal 0.07754360139369965 -0.10342521220445633 -0.9916099309921265
 outer loop
  vertex 728500.0 5507500.0 6577.10009765625
  vertex 729500.0 5507500.0 6655.2998046875
  vertex 729500.0 5506500.0 6759.60009765625
 endloop
endfacet
facet normal 0.43512848019599915 -0.09340202063322067 -0.8955106139183044
 outer loop
  vertex 729500.0 5507500.0 6655.2998046875
  vertex 730500.0 5506500.0 7245.5
  vertex 729500.0 5506500.0 6759.60009765625
 endloop
endfacet
facet normal 0.39221376180648804 -0.14400245249271393 -0.9085327982902527
 outer loop
  vertex 729500.0 5507500.0 6655.2998046875
  vertex 730500.0 5507500.0 7087.0
  vertex 730500.0 5506500.0 7245.5
 endloop
endfacet
facet normal 0.665891706943512 -0.11679074913263321 -0.7368501424789429
 outer loop
  vertex 730500.0 5507500.0 7087.0
  vertex 731500.0 5506500.0 8149.2001953125
  vertex 730500.0 5506500.0 7245.5
 endloop
endfacet
facet normal 0.3104728162288666 -0.528672993183136 -0.7900071740150452
 outer loop
  vertex 730500.0 5507500.0 7087.0
  vertex 731500.0 5507500.0 7480.0
  vertex 731500.0 5506500.0 8149.2001953125
 endloop
endfacet
facet normal 0.13747218251228333 -0.5508766770362854 -0.8231866955757141
 outer loop
  vertex 731500.0 5507500.0 7480.0
  vertex 732500.0 5506500.0 8316.2001953125
  vertex 731500.0 5506500.0 8149.2001953125
 endloop
endfacet
facet normal -0.015080424956977367 0.2777840495109558 -0.9605251550674438
 outer loop
  vertex 722500.0 5508500.0 7031.2001953125
  vertex 723500.0 5507500.0 6726.2998046875
  vertex 722500.0 5507500.0 6742.0
 endloop
endfacet
facet normal -0.07437289506196976 0.22204963862895966 -0.9721947312355042
 outer loop
  vertex 722500.0 5508500.0 7031.2001953125
  vertex 723500.0 5508500.0 6954.7001953125
  vertex 723500.0 5507500.0 6726.2998046875
 endloop
endfacet
facet normal -0.050920650362968445 0.2223774641752243 -0.9736299514770508
 outer loop
  vertex 723500.0 5508500.0 6954.7001953125
  vertex 724500.0 5507500.0 6674.0
  vertex 723500.0 5507500.0 6726.2998046875
 endloop
endfacet
facet normal -0.10069674998521805 0.17425961792469025 -0.9795375466346741
 outer loop
  vertex 723500.0 5508500.0 6954.7001953125
  vertex 724500.0 5508500.0 6851.89990234375
  vertex 724500.0 5507500.0 6674.0
 endloop
endfacet
facet normal -0.029720211401581764 0.17507252097129822 -0.9841068387031555
 outer loop
  vertex 724500.0 5508500.0 6851.89990234375
  vertex 725500.0 5507500.0 6643.7998046875
  vertex 724500.0 5507500.0 6674.0
 endloop
endfacet
facet normal -0.1510162204504013 0.05438566952943802 -0.9870340824127197
 outer loop
  vertex 724500.0 5508500.0 6851.89990234375
  vertex 725500.0 5508500.0 6698.89990234375
  vertex 725500.0 5507500.0 6643.7998046875
 endloop
endfacet
facet normal 0.08357931673526764 0.05482415109872818 -0.9949918985366821
 outer loop
  vertex 725500.0 5508500.0 6698.89990234375
  vertex 726500.0 5507500.0 6727.7998046875
  vertex 725500.0 5507500.0 6643.7998046875
 endloop
endfacet
facet normal -0.047408055514097214 -0.07619136571884155 -0.9959655404090881
 outer loop
  vertex 725500.0 5508500.0 6698.89990234375
  vertex 726500.0 5508500.0 6651.2998046875
  vertex 726500.0 5507500.0 6727.7998046875
 endloop
endfacet
facet normal -0.07417735457420349 -0.0760669857263565 -0.9943397045135498
 outer loop
  vertex 726500.0 5508500.0 6651.2998046875
  vertex 727500.0 5507500.0 6653.2001953125
  vertex 726500.0 5507500.0 6727.7998046875
 endloop
endfacet
facet normal 0.01639646291732788 0.01449652761220932 -0.9997605085372925
 outer loop
  vertex 726500.0 5508500.0 6651.2998046875
  vertex 727500.0 5508500.0 6667.7001953125
  vertex 727500.0 5507500.0 6653.2001953125
 endloop
endfacet
facet normal -0.0758727565407753 0.01445668376982212 -0.9970126748085022
 outer loop
  vertex 727500.0 5508500.0 6667.7001953125
  vertex 728500.0 5507500.0 6577.10009765625
  vertex 727500.0 5507500.0 6653.2001953125
 endloop
endfacet
facet normal -0.06742841005325317 0.0229415874928236 -0.9974603652954102
 outer loop
  vertex 727500.0 5508500.0 6667.7001953125
  vertex 728500.0 5508500.0 6600.10009765625
  vertex 728500.0 5507500.0 6577.10009765625
 endloop
endfacet
facet normal 0.07794120907783508 0.022923970595002174 -0.9966943860054016
 outer loop
  vertex 728500.0 5508500.0 6600.10009765625
  vertex 729500.0 5507500.0 6655.2998046875
  vertex 728500.0 5507500.0 6577.10009765625
 endloop
endfacet
facet normal -0.003094827989116311 -0.05820070207118988 -0.9983001351356506
 outer loop
  vertex 728500.0 5508500.0 6600.10009765625
  vertex 729500.0 5508500.0 6597.0
  vertex 729500.0 5507500.0 6655.2998046875
 endloop
endfacet
facet normal 0.39577817916870117 -0.053448643535375595 -0.9167894124984741
 outer loop
  vertex 729500.0 5508500.0 6597.0
  vertex 730500.0 5507500.0 7087.0
  vertex 729500.0 5507500.0 6655.2998046875
 endloop
endfacet
facet normal -0.14887084066867828 -0.1763094961643219 -0.9730120301246643
 outer loop
  vertex 724500.0 5509500.0 6670.7001953125
  vertex 725500.0 5508500.0 6698.89990234375
  vertex 724500.0 5508500.0 6851.89990234375
 endloop
endfacet
facet normal 0.007097850553691387 -0.021094869822263718 -0.9997522234916687
 outer loop
  vertex 724500.0 5509500.0 6670.7001953125
  vertex 725500.0 5509500.0 6677.7998046875
  vertex 725500.0 5508500.0 6698.89990234375
 endloop
endfacet
facet normal -0.04753570631146431 -0.021071555092930794 -0.9986472725868225
 outer loop
  vertex 725500.0 5509500.0 6677.7998046875
  vertex 726500.0 5508500.0 6651.2998046875
  vertex 725500.0 5508500.0 6698.89990234375
 endloop
endfacet
facet normal -0.014997321180999279 0.011497946456074715 -0.9998214244842529
 outer loop
  vertex 725500.0 5509500.0 6677.7998046875
  vertex 726500.0 5509500.0 6662.7998046875
  vertex 726500.0 5508500.0 6651.2998046875
 endloop
endfacet
facet normal 0.016397101804614067 0.011497694067656994 -0.9997994899749756
 outer loop
  vertex 726500.0 5509500.0 6662.7998046875
  vertex 727500.0 5508500.0 6667.7001953125
  vertex 726500.0 5508500.0 6651.2998046875
 endloop
endfacet
facet normal 0.02289068140089512 0.017992369830608368 -0.9995760321617126
 outer loop
  vertex 726500.0 5509500.0 6662.7998046875
  vertex 727500.0 5509500.0 6685.7001953125
  vertex 727500.0 5508500.0 6667.7001953125
 endloop
endfacet
facet normal -0.06743528693914413 0.017956117168068886 -0.9975621104240417
 outer loop
  vertex 727500.0 5509500.0 6685.7001953125
  vertex 728500.0 5508500.0 6600.10009765625
  vertex 727500.0 5508500.0 6667.7001953125
 endloop
endfacet
facet normal -0.06276022642850876 0.022649118676781654 -0.9977716207504272
 outer loop
  vertex 727500.0 5509500.0 6685.7001953125
  vertex 728500.0 5509500.0 6622.7998046875
  vertex 728500.0 5508500.0 6600.10009765625
 endloop
endfacet
facet normal -0.003099284367635846 0.022693753242492676 -0.9997376799583435
 outer loop
  vertex 728500.0 5509500.0 6622.7998046875
  vertex 729500.0 5508500.0 6597.0
  vertex 728500.0 5508500.0 6600.10009765625
 endloop
endfacet
facet normal -0.01493039820343256 0.09505686908960342 -0.9953598976135254
 outer loop
  vertex 725500.0 5510500.0 6773.2998046875
  vertex 726500.0 5509500.0 6662.7998046875
  vertex 725500.0 5509500.0 6677.7998046875
 endloop
endfacet
endsolid
