solid
facet normal 0.0032995908986777067 -0.010899440385401249 -0.9999352097511292
 outer loop
  vertex 472500.0 5872500.0 2784.199951171875
  vertex 473500.0 5871500.0 2798.39990234375
  vertex 472500.0 5871500.0 2795.10009765625
 endloop
endfacet
facet normal -0.008897176012396812 -0.023092778399586678 -0.9996936917304993
 outer loop
  vertex 472500.0 5872500.0 2784.199951171875
  vertex 473500.0 5872500.0 2775.300048828125
  vertex 473500.0 5871500.0 2798.39990234375
 endloop
endfacet
facet normal -0.008898992091417313 -0.011198805645108223 -0.9998977184295654
 outer loop
  vertex 472500.0 5873500.0 2773.0
  vertex 473500.0 5872500.0 2775.300048828125
  vertex 472500.0 5872500.0 2784.199951171875
 endloop
endfacet
facet normal -0.0023998687975108624 -0.004699885845184326 -0.9999860525131226
 outer loop
  vertex 472500.0 5873500.0 2773.0
  vertex 473500.0 5873500.0 2770.60009765625
  vertex 473500.0 5872500.0 2775.300048828125
 endloop
endfacet
facet normal -0.016892582178115845 -0.024689141660928726 -0.9995524287223816
 outer loop
  vertex 474500.0 5874500.0 2745.300048828125
  vertex 475500.0 5874500.0 2728.39990234375
  vertex 475500.0 5873500.0 2753.10009765625
 endloop
endfacet
facet normal -0.005798182915896177 -0.024692248553037643 -0.9996783137321472
 outer loop
  vertex 475500.0 5874500.0 2728.39990234375
  vertex 476500.0 5873500.0 2747.300048828125
  vertex 475500.0 5873500.0 2753.10009765625
 endloop
endfacet
facet normal 0.020895540714263916 0.001999559346586466 -0.9997797012329102
 outer loop
  vertex 475500.0 5874500.0 2728.39990234375
  vertex 476500.0 5874500.0 2749.300048828125
  vertex 476500.0 5873500.0 2747.300048828125
 endloop
endfacet
facet normal -0.01259624119848013 -0.021293528378009796 -0.9996939301490784
 outer loop
  vertex 472500.0 5875500.0 2748.60009765625
  vertex 473500.0 5875500.0 2736.0
  vertex 473500.0 5874500.0 2757.300048828125
 endloop
endfacet
facet normal -0.011996415443718433 -0.02129368670284748 -0.9997012615203857
 outer loop
  vertex 473500.0 5875500.0 2736.0
  vertex 474500.0 5874500.0 2745.300048828125
  vertex 473500.0 5874500.0 2757.300048828125
 endloop
endfacet
facet normal 0.0006999251199886203 -0.008599777705967426 -0.9999627470970154
 outer loop
  vertex 473500.0 5875500.0 2736.0
  vertex 474500.0 5875500.0 2736.699951171875
  vertex 474500.0 5874500.0 2745.300048828125
 endloop
endfacet
facet normal -0.016897108405828476 -0.008598552085459232 -0.9998202919960022
 outer loop
  vertex 474500.0 5875500.0 2736.699951171875
  vertex 475500.0 5874500.0 2728.39990234375
  vertex 474500.0 5874500.0 2745.300048828125
 endloop
endfacet
facet normal -0.011399106122553349 -0.0030996371060609818 -0.999930202960968
 outer loop
  vertex 474500.0 5875500.0 2736.699951171875
  vertex 475500.0 5875500.0 2725.300048828125
  vertex 475500.0 5874500.0 2728.39990234375
 endloop
endfacet
facet normal 0.02089548297226429 -0.003099161898717284 -0.9997768402099609
 outer loop
  vertex 475500.0 5875500.0 2725.300048828125
  vertex 476500.0 5874500.0 2749.300048828125
  vertex 475500.0 5874500.0 2728.39990234375
 endloop
endfacet
facet normal -0.003898599650710821 -0.027889082208275795 -0.9996033906936646
 outer loop
  vertex 475500.0 5875500.0 2725.300048828125
  vertex 476500.0 5875500.0 2721.39990234375
  vertex 476500.0 5874500.0 2749.300048828125
 endloop
endfacet
facet normal -0.020587719976902008 -0.027883382514119148 -0.9993991851806641
 outer loop
  vertex 476500.0 5875500.0 2721.39990234375
  vertex 477500.0 5874500.0 2728.699951171875
  vertex 476500.0 5874500.0 2749.300048828125
 endloop
endfacet
facet normal -0.0005998347187414765 -0.007899654097855091 -0.9999686479568481
 outer loop
  vertex 476500.0 5875500.0 2721.39990234375
  vertex 477500.0 5875500.0 2720.800048828125
  vertex 477500.0 5874500.0 2728.699951171875
 endloop
endfacet
facet normal -0.012597966939210892 0.013397636823356152 -0.9998309016227722
 outer loop
  vertex 472500.0 5876500.0 2762.0
  vertex 473500.0 5875500.0 2736.0
  vertex 472500.0 5875500.0 2748.60009765625
 endloop
endfacet
facet normal -0.02888771891593933 -0.0028986798133701086 -0.9995784163475037
 outer loop
  vertex 472500.0 5876500.0 2762.0
  vertex 473500.0 5876500.0 2733.10009765625
  vertex 473500.0 5875500.0 2736.0
 endloop
endfacet
facet normal 0.0006999480538070202 -0.0028998893685638905 -0.9999955892562866
 outer loop
  vertex 473500.0 5876500.0 2733.10009765625
  vertex 474500.0 5875500.0 2736.699951171875
  vertex 473500.0 5875500.0 2736.0
 endloop
endfacet
facet normal -0.015395543538033962 -0.018994320183992386 -0.9997010827064514
 outer loop
  vertex 473500.0 5876500.0 2733.10009765625
  vertex 474500.0 5876500.0 2717.699951171875
  vertex 474500.0 5875500.0 2736.699951171875
 endloop
endfacet
facet normal -0.0113971047103405 -0.018995337188243866 -0.9997546076774597
 outer loop
  vertex 474500.0 5876500.0 2717.699951171875
  vertex 475500.0 5875500.0 2725.300048828125
  vertex 474500.0 5875500.0 2736.699951171875
 endloop
endfacet
facet normal 0.0026999088004231453 -0.0049000694416463375 -0.9999843239784241
 outer loop
  vertex 474500.0 5876500.0 2717.699951171875
  vertex 475500.0 5876500.0 2720.39990234375
  vertex 475500.0 5875500.0 2725.300048828125
 endloop
endfacet
facet normal -0.003900070209056139 -0.004900050815194845 -0.9999804496765137
 outer loop
  vertex 475500.0 5876500.0 2720.39990234375
  vertex 476500.0 5875500.0 2721.39990234375
  vertex 475500.0 5875500.0 2725.300048828125
 endloop
endfacet
facet normal 0.005400015506893396 0.004400039557367563 -0.9999757409095764
 outer loop
  vertex 475500.0 5876500.0 2720.39990234375
  vertex 476500.0 5876500.0 2725.800048828125
  vertex 476500.0 5875500.0 2721.39990234375
 endloop
endfacet
facet normal -0.0005998475826345384 0.004400102887302637 -0.9999901056289673
 outer loop
  vertex 476500.0 5876500.0 2725.800048828125
  vertex 477500.0 5875500.0 2720.800048828125
  vertex 476500.0 5875500.0 2721.39990234375
 endloop
endfacet
facet normal -0.00010009645484387875 0.004899843595921993 -0.9999880194664001
 outer loop
  vertex 476500.0 5876500.0 2725.800048828125
  vertex 477500.0 5876500.0 2725.699951171875
  vertex 477500.0 5875500.0 2720.800048828125
 endloop
endfacet
facet normal -0.02888583205640316 -0.01179430354386568 -0.9995130896568298
 outer loop
  vertex 472500.0 5877500.0 2750.199951171875
  vertex 473500.0 5876500.0 2733.10009765625
  vertex 472500.0 5876500.0 2762.0
 endloop
endfacet
facet normal -0.014098389074206352 0.002999688498675823 -0.9998961091041565
 outer loop
  vertex 472500.0 5877500.0 2750.199951171875
  vertex 473500.0 5877500.0 2736.10009765625
  vertex 473500.0 5876500.0 2733.10009765625
 endloop
endfacet
facet normal -0.015398251824080944 0.002999630756676197 -0.9998769760131836
 outer loop
  vertex 473500.0 5877500.0 2736.10009765625
  vertex 474500.0 5876500.0 2717.699951171875
  vertex 473500.0 5876500.0 2733.10009765625
 endloop
endfacet
facet normal -0.008399429731070995 0.009999146685004234 -0.9999147057533264
 outer loop
  vertex 473500.0 5877500.0 2736.10009765625
  vertex 474500.0 5877500.0 2727.699951171875
  vertex 474500.0 5876500.0 2717.699951171875
 endloop
endfacet
facet normal 0.0026998063549399376 0.009999463334679604 -0.9999463558197021
 outer loop
  vertex 474500.0 5877500.0 2727.699951171875
  vertex 475500.0 5876500.0 2720.39990234375
  vertex 474500.0 5876500.0 2717.699951171875
 endloop
endfacet
facet normal -0.006499860435724258 0.000800031702965498 -0.9999785423278809
 outer loop
  vertex 474500.0 5877500.0 2727.699951171875
  vertex 475500.0 5877500.0 2721.199951171875
  vertex 475500.0 5876500.0 2720.39990234375
 endloop
endfacet
facet normal 0.005400065798312426 0.0008000368834473193 -0.9999850392341614
 outer loop
  vertex 475500.0 5877500.0 2721.199951171875
  vertex 476500.0 5876500.0 2725.800048828125
  vertex 475500.0 5876500.0 2720.39990234375
 endloop
endfacet
facet normal -0.0013000251492485404 -0.005900038871914148 -0.9999817609786987
 outer loop
  vertex 475500.0 5877500.0 2721.199951171875
  vertex 476500.0 5877500.0 2719.89990234375
  vertex 476500.0 5876500.0 2725.800048828125
 endloop
endfacet
facet normal -0.0001000959164230153 -0.005900043994188309 -0.9999826550483704
 outer loop
  vertex 476500.0 5877500.0 2719.89990234375
  vertex 477500.0 5876500.0 2725.699951171875
  vertex 476500.0 5876500.0 2725.800048828125
 endloop
endfacet
facet normal -0.004099618177860975 -0.00989933405071497 -0.9999426007270813
 outer loop
  vertex 476500.0 5877500.0 2719.89990234375
  vertex 477500.0 5877500.0 2715.800048828125
  vertex 477500.0 5876500.0 2725.699951171875
 endloop
endfacet
facet normal -0.023092562332749367 -0.00989677757024765 -0.9996843338012695
 outer loop
  vertex 477500.0 5877500.0 2715.800048828125
  vertex 478500.0 5876500.0 2702.60009765625
  vertex 477500.0 5876500.0 2725.699951171875
 endloop
endfacet
facet normal -0.023592254146933556 -0.010396689176559448 -0.9996675848960876
 outer loop
  vertex 477500.0 5877500.0 2715.800048828125
  vertex 478500.0 5877500.0 2692.199951171875
  vertex 478500.0 5876500.0 2702.60009765625
 endloop
endfacet
facet normal -0.01709667406976223 -0.01039806380867958 -0.9997997879981995
 outer loop
  vertex 478500.0 5877500.0 2692.199951171875
  vertex 479500.0 5876500.0 2685.5
  vertex 478500.0 5876500.0 2702.60009765625
 endloop
endfacet
facet normal -0.005199875216931105 0.0014999780105426908 -0.99998539686203
 outer loop
  vertex 478500.0 5877500.0 2692.199951171875
  vertex 479500.0 5877500.0 2687.0
  vertex 479500.0 5876500.0 2685.5
 endloop
endfacet
facet normal -0.013994378037750721 0.12128577381372452 -0.9925190210342407
 outer loop
  vertex 472500.0 5878500.0 2872.39990234375
  vertex 473500.0 5877500.0 2736.10009765625
  vertex 472500.0 5877500.0 2750.199951171875
 endloop
endfacet
facet normal -0.13767585158348083 -0.0026744648348540068 -0.990473747253418
 outer loop
  vertex 472500.0 5878500.0 2872.39990234375
  vertex 473500.0 5878500.0 2733.39990234375
  vertex 473500.0 5877500.0 2736.10009765625
 endloop
endfacet
facet normal -0.008399819023907185 -0.0027000901754945517 -0.9999610781669617
 outer loop
  vertex 473500.0 5878500.0 2733.39990234375
  vertex 474500.0 5877500.0 2727.699951171875
  vertex 473500.0 5877500.0 2736.10009765625
 endloop
endfacet
facet normal -0.012098720297217369 -0.006399302743375301 -0.9999063014984131
 outer loop
  vertex 473500.0 5878500.0 2733.39990234375
  vertex 474500.0 5878500.0 2721.300048828125
  vertex 474500.0 5877500.0 2727.699951171875
 endloop
endfacet
facet normal -0.006499729584902525 -0.006399636156857014 -0.9999583959579468
 outer loop
  vertex 474500.0 5878500.0 2721.300048828125
  vertex 475500.0 5877500.0 2721.199951171875
  vertex 474500.0 5877500.0 2727.699951171875
 endloop
endfacet
facet normal -0.003999937325716019 -0.0038998413365334272 -0.9999843835830688
 outer loop
  vertex 474500.0 5878500.0 2721.300048828125
  vertex 475500.0 5878500.0 2717.300048828125
  vertex 475500.0 5877500.0 2721.199951171875
 endloop
endfacet
facet normal -0.0013000378385186195 -0.0038998695090413094 -0.9999915361404419
 outer loop
  vertex 475500.0 5878500.0 2717.300048828125
  vertex 476500.0 5877500.0 2719.89990234375
  vertex 475500.0 5877500.0 2721.199951171875
 endloop
endfacet
facet normal -0.011997858062386513 -0.01459724735468626 -0.9998214840888977
 outer loop
  vertex 475500.0 5878500.0 2717.300048828125
  vertex 476500.0 5878500.0 2705.300048828125
  vertex 476500.0 5877500.0 2719.89990234375
 endloop
endfacet
facet normal -0.00409938208758831 -0.014598174951970577 -0.9998850226402283
 outer loop
  vertex 476500.0 5878500.0 2705.300048828125
  vertex 477500.0 5877500.0 2715.800048828125
  vertex 476500.0 5877500.0 2719.89990234375
 endloop
endfacet
facet normal -0.0004001226625405252 -0.010899498127400875 -0.9999405145645142
 outer loop
  vertex 476500.0 5878500.0 2705.300048828125
  vertex 477500.0 5878500.0 2704.89990234375
  vertex 477500.0 5877500.0 2715.800048828125
 endloop
endfacet
facet normal -0.02359212562441826 -0.010896464809775352 -0.9996622204780579
 outer loop
  vertex 477500.0 5878500.0 2704.89990234375
  vertex 478500.0 5877500.0 2692.199951171875
  vertex 477500.0 5877500.0 2715.800048828125
 endloop
endfacet
facet normal -0.024790367111563683 -0.012095249257981777 -0.9996194839477539
 outer loop
  vertex 477500.0 5878500.0 2704.89990234375
  vertex 478500.0 5878500.0 2680.10009765625
  vertex 478500.0 5877500.0 2692.199951171875
 endloop
endfacet
facet normal -0.005199499893933535 -0.012098804116249084 -0.9999132752418518
 outer loop
  vertex 478500.0 5878500.0 2680.10009765625
  vertex 479500.0 5877500.0 2687.0
  vertex 478500.0 5877500.0 2692.199951171875
 endloop
endfacet
facet normal 0.0006999375764280558 -0.006199830677360296 -0.9999805688858032
 outer loop
  vertex 478500.0 5878500.0 2680.10009765625
  vertex 479500.0 5878500.0 2680.800048828125
  vertex 479500.0 5877500.0 2687.0
 endloop
endfacet
facet normal -0.012097137048840523 -0.017395995557308197 -0.9997754693031311
 outer loop
  vertex 473500.0 5879500.0 2716.0
  vertex 474500.0 5878500.0 2721.300048828125
  vertex 473500.0 5878500.0 2733.39990234375
 endloop
endfacet
facet normal -0.0016999071231111884 -0.006999818608164787 -0.9999740719795227
 outer loop
  vertex 473500.0 5879500.0 2716.0
  vertex 474500.0 5879500.0 2714.300048828125
  vertex 474500.0 5878500.0 2721.300048828125
 endloop
endfacet
facet normal -0.003999869804829359 -0.006999772507697344 -0.9999675154685974
 outer loop
  vertex 474500.0 5879500.0 2714.300048828125
  vertex 475500.0 5878500.0 2717.300048828125
  vertex 474500.0 5878500.0 2721.300048828125
 endloop
endfacet
facet normal -0.00959889404475689 -0.01259851735085249 -0.9998745918273926
 outer loop
  vertex 474500.0 5879500.0 2714.300048828125
  vertex 475500.0 5879500.0 2704.699951171875
  vertex 475500.0 5878500.0 2717.300048828125
 endloop
endfacet
facet normal -0.011998184025287628 -0.0125981904566288 -0.9998486638069153
 outer loop
  vertex 475500.0 5879500.0 2704.699951171875
  vertex 476500.0 5878500.0 2705.300048828125
  vertex 475500.0 5878500.0 2717.300048828125
 endloop
endfacet
facet normal -0.0097990483045578 -0.01039908453822136 -0.9998978972434998
 outer loop
  vertex 475500.0 5879500.0 2704.699951171875
  vertex 476500.0 5879500.0 2694.89990234375
  vertex 476500.0 5878500.0 2705.300048828125
 endloop
endfacet
facet normal -0.000400124816223979 -0.010399582795798779 -0.9999458193778992
 outer loop
  vertex 476500.0 5879500.0 2694.89990234375
  vertex 477500.0 5878500.0 2704.89990234375
  vertex 476500.0 5878500.0 2705.300048828125
 endloop
endfacet
facet normal -0.010896875523030758 -0.02089409902691841 -0.9997223019599915
 outer loop
  vertex 476500.0 5879500.0 2694.89990234375
  vertex 477500.0 5879500.0 2684.0
  vertex 477500.0 5878500.0 2704.89990234375
 endloop
endfacet
facet normal -0.024786772206425667 -0.0208889190107584 -0.9994744658470154
 outer loop
  vertex 477500.0 5879500.0 2684.0
  vertex 478500.0 5878500.0 2680.10009765625
  vertex 477500.0 5878500.0 2704.89990234375
 endloop
endfacet
facet normal 0.007599375676363707 0.011498907580971718 -0.999904990196228
 outer loop
  vertex 477500.0 5879500.0 2684.0
  vertex 478500.0 5879500.0 2691.60009765625
  vertex 478500.0 5878500.0 2680.10009765625
 endloop
endfacet
facet normal 0.0006999046890996397 0.011499236337840557 -0.9999336004257202
 outer loop
  vertex 478500.0 5879500.0 2691.60009765625
  vertex 479500.0 5878500.0 2680.800048828125
  vertex 478500.0 5878500.0 2680.10009765625
 endloop
endfacet
facet normal -0.021294044330716133 -0.01049704011529684 -0.9997181296348572
 outer loop
  vertex 478500.0 5879500.0 2691.60009765625
  vertex 479500.0 5879500.0 2670.300048828125
  vertex 479500.0 5878500.0 2680.800048828125
 endloop
endfacet
facet normal -0.009798712097108364 -0.013298234902322292 -0.9998635649681091
 outer loop
  vertex 475500.0 5880500.0 2691.39990234375
  vertex 476500.0 5879500.0 2694.89990234375
  vertex 475500.0 5879500.0 2704.699951171875
 endloop
endfacet
facet normal -0.0061995405703783035 -0.009699308313429356 -0.9999337792396545
 outer loop
  vertex 475500.0 5880500.0 2691.39990234375
  vertex 476500.0 5880500.0 2685.199951171875
  vertex 476500.0 5879500.0 2694.89990234375
 endloop
endfacet
facet normal -0.010898741893470287 -0.009698919020593166 -0.9998935461044312
 outer loop
  vertex 476500.0 5880500.0 2685.199951171875
  vertex 477500.0 5879500.0 2684.0
  vertex 476500.0 5879500.0 2694.89990234375
 endloop
endfacet
facet normal 0.009499027393758297 0.010698855854570866 -0.9998976588249207
 outer loop
  vertex 476500.0 5880500.0 2685.199951171875
  vertex 477500.0 5880500.0 2694.699951171875
  vertex 477500.0 5879500.0 2684.0
 endloop
endfacet
facet normal 0.007599443197250366 0.010699030011892319 -0.9999138712882996
 outer loop
  vertex 477500.0 5880500.0 2694.699951171875
  vertex 478500.0 5879500.0 2691.60009765625
  vertex 477500.0 5879500.0 2684.0
 endloop
endfacet
facet normal -0.029077721759676933 -0.025980226695537567 -0.999239444732666
 outer loop
  vertex 477500.0 5880500.0 2694.699951171875
  vertex 478500.0 5880500.0 2665.60009765625
  vertex 478500.0 5879500.0 2691.60009765625
 endloop
endfacet
facet normal -0.021288027986884117 -0.02598532661795616 -0.9994356036186218
 outer loop
  vertex 478500.0 5880500.0 2665.60009765625
  vertex 479500.0 5879500.0 2670.300048828125
  vertex 478500.0 5879500.0 2691.60009765625
 endloop
endfacet
facet normal 0.004299764521420002 -0.00040014274418354034 -0.999990701675415
 outer loop
  vertex 478500.0 5880500.0 2665.60009765625
  vertex 479500.0 5880500.0 2669.89990234375
  vertex 479500.0 5879500.0 2670.300048828125
 endloop
endfacet
facet normal 0.013297783210873604 -0.012797623872756958 -0.9998296499252319
 outer loop
  vertex 474500.0 5881500.0 2665.300048828125
  vertex 475500.0 5881500.0 2678.60009765625
  vertex 475500.0 5880500.0 2691.39990234375
 endloop
endfacet
facet normal -0.006199324037879705 -0.012798510491847992 -0.9998989105224609
 outer loop
  vertex 475500.0 5881500.0 2678.60009765625
  vertex 476500.0 5880500.0 2685.199951171875
  vertex 475500.0 5880500.0 2691.39990234375
 endloop
endfacet
facet normal -0.013795864768326283 -0.020393718034029007 -0.9996968507766724
 outer loop
  vertex 475500.0 5881500.0 2678.60009765625
  vertex 476500.0 5881500.0 2664.800048828125
  vertex 476500.0 5880500.0 2685.199951171875
 endloop
endfacet
facet normal 0.009497595019638538 -0.020394738763570786 -0.9997468590736389
 outer loop
  vertex 476500.0 5881500.0 2664.800048828125
  vertex 477500.0 5880500.0 2694.699951171875
  vertex 476500.0 5880500.0 2685.199951171875
 endloop
endfacet
facet normal 0.002898833714425564 -0.026990050449967384 -0.9996315240859985
 outer loop
  vertex 476500.0 5881500.0 2664.800048828125
  vertex 477500.0 5881500.0 2667.699951171875
  vertex 477500.0 5880500.0 2694.699951171875
 endloop
endfacet
facet normal -0.0290769524872303 -0.02697875164449215 -0.9992129802703857
 outer loop
  vertex 477500.0 5881500.0 2667.699951171875
  vertex 478500.0 5880500.0 2665.60009765625
  vertex 477500.0 5880500.0 2694.699951171875
 endloop
endfacet
facet normal -0.013797163031995296 -0.015096939168870449 -0.9997908473014832
 outer loop
  vertex 475500.0 5882500.0 2663.5
  vertex 476500.0 5881500.0 2664.800048828125
  vertex 475500.0 5881500.0 2678.60009765625
 endloop
endfacet
facet normal 0.0016999485669657588 0.0003999017062596977 -0.9999984502792358
 outer loop
  vertex 475500.0 5882500.0 2663.5
  vertex 476500.0 5882500.0 2665.199951171875
  vertex 476500.0 5881500.0 2664.800048828125
 endloop
endfacet
facet normal 0.0028998898342251778 0.0003999006294179708 -0.9999957084655762
 outer loop
  vertex 476500.0 5882500.0 2665.199951171875
  vertex 477500.0 5881500.0 2667.699951171875
  vertex 476500.0 5881500.0 2664.800048828125
 endloop
endfacet
facet normal 0.001699932268820703 -0.00439985329285264 -0.999988853931427
 outer loop
  vertex 475500.0 5883500.0 2659.10009765625
  vertex 476500.0 5882500.0 2665.199951171875
  vertex 475500.0 5882500.0 2663.5
 endloop
endfacet
facet normal 0.007799556013196707 0.0016998969949781895 -0.9999681115150452
 outer loop
  vertex 475500.0 5883500.0 2659.10009765625
  vertex 476500.0 5883500.0 2666.89990234375
  vertex 476500.0 5882500.0 2665.199951171875
 endloop
endfacet
endsolid
