solid
facet normal 0.03286654129624367 -0.030768821015954018 -0.998986005783081
 outer loop
  vertex 472500.0 5517500.0 3753.0
  vertex 473500.0 5517500.0 3785.89990234375
  vertex 473500.0 5516500.0 3816.699951171875
 endloop
endfacet
facet normal 0.21374012529850006 -0.030074015259742737 -0.9764274954795837
 outer loop
  vertex 473500.0 5517500.0 3785.89990234375
  vertex 474500.0 5516500.0 4035.60009765625
  vertex 473500.0 5516500.0 3816.699951171875
 endloop
endfacet
facet normal 0.08832702040672302 -0.15727722644805908 -0.9835965633392334
 outer loop
  vertex 473500.0 5517500.0 3785.89990234375
  vertex 474500.0 5517500.0 3875.699951171875
  vertex 474500.0 5516500.0 4035.60009765625
 endloop
endfacet
facet normal 0.03268834948539734 0.10839857161045074 -0.9935699105262756
 outer loop
  vertex 472500.0 5518500.0 3862.10009765625
  vertex 473500.0 5517500.0 3785.89990234375
  vertex 472500.0 5517500.0 3753.0
 endloop
endfacet
facet normal 0.01990414969623089 0.09573914855718613 -0.9952074289321899
 outer loop
  vertex 472500.0 5518500.0 3862.10009765625
  vertex 473500.0 5518500.0 3882.10009765625
  vertex 473500.0 5517500.0 3785.89990234375
 endloop
endfacet
facet normal 0.08903239667415619 0.0953778326511383 -0.9914515614509583
 outer loop
  vertex 473500.0 5518500.0 3882.10009765625
  vertex 474500.0 5517500.0 3875.699951171875
  vertex 473500.0 5517500.0 3785.89990234375
 endloop
endfacet
facet normal 0.09904750436544418 0.10538036376237869 -0.9894869923591614
 outer loop
  vertex 473500.0 5518500.0 3882.10009765625
  vertex 474500.0 5518500.0 3982.199951171875
  vertex 474500.0 5517500.0 3875.699951171875
 endloop
endfacet
facet normal 0.41939398646354675 0.09613748639822006 -0.9026994109153748
 outer loop
  vertex 474500.0 5518500.0 3982.199951171875
  vertex 475500.0 5517500.0 4340.2998046875
  vertex 474500.0 5517500.0 3875.699951171875
 endloop
endfacet
facet normal 0.191203773021698 -0.15583132207393646 -0.9691014885902405
 outer loop
  vertex 474500.0 5518500.0 3982.199951171875
  vertex 475500.0 5518500.0 4179.5
  vertex 475500.0 5517500.0 4340.2998046875
 endloop
endfacet
facet normal 0.019993213936686516 -0.016694528982043266 -0.9996607303619385
 outer loop
  vertex 472500.0 5519500.0 3845.39990234375
  vertex 473500.0 5518500.0 3882.10009765625
  vertex 472500.0 5518500.0 3862.10009765625
 endloop
endfacet
facet normal 0.10662034153938293 0.0702204629778862 -0.9918171167373657
 outer loop
  vertex 472500.0 5519500.0 3845.39990234375
  vertex 473500.0 5519500.0 3952.89990234375
  vertex 473500.0 5518500.0 3882.10009765625
 endloop
endfacet
facet normal 0.09935584664344788 0.07027357816696167 -0.9925674200057983
 outer loop
  vertex 473500.0 5519500.0 3952.89990234375
  vertex 474500.0 5518500.0 3982.199951171875
  vertex 473500.0 5518500.0 3882.10009765625
 endloop
endfacet
facet normal 0.25232985615730286 0.22475330531597137 -0.9411777853965759
 outer loop
  vertex 473500.0 5519500.0 3952.89990234375
  vertex 474500.0 5519500.0 4221.0
  vertex 474500.0 5518500.0 3982.199951171875
 endloop
endfacet
facet normal 0.18846523761749268 0.22810693085193634 -0.9552214741706848
 outer loop
  vertex 474500.0 5519500.0 4221.0
  vertex 475500.0 5518500.0 4179.5
  vertex 474500.0 5518500.0 3982.199951171875
 endloop
endfacet
facet normal 0.4035552144050598 0.43691685795783997 -0.8038948774337769
 outer loop
  vertex 474500.0 5519500.0 4221.0
  vertex 475500.0 5519500.0 4723.0
  vertex 475500.0 5518500.0 4179.5
 endloop
endfacet
facet normal 0.08961974084377289 0.0200151689350605 -0.9957749247550964
 outer loop
  vertex 471500.0 5520500.0 3775.5
  vertex 472500.0 5520500.0 3865.5
  vertex 472500.0 5519500.0 3845.39990234375
 endloop
endfacet
facet normal 0.10686284303665161 0.019980963319540024 -0.9940729737281799
 outer loop
  vertex 472500.0 5520500.0 3865.5
  vertex 473500.0 5519500.0 3952.89990234375
  vertex 472500.0 5519500.0 3845.39990234375
 endloop
endfacet
facet normal 0.10823514312505722 0.021368755027651787 -0.9938955903053284
 outer loop
  vertex 472500.0 5520500.0 3865.5
  vertex 473500.0 5520500.0 3974.39990234375
  vertex 473500.0 5519500.0 3952.89990234375
 endloop
endfacet
facet normal 0.2588992118835449 0.020762145519256592 -0.9656811952590942
 outer loop
  vertex 473500.0 5520500.0 3974.39990234375
  vertex 474500.0 5519500.0 4221.0
  vertex 473500.0 5519500.0 3952.89990234375
 endloop
endfacet
facet normal 0.3784578740596771 0.15335482358932495 -0.9128263592720032
 outer loop
  vertex 473500.0 5520500.0 3974.39990234375
  vertex 474500.0 5520500.0 4389.0
  vertex 474500.0 5519500.0 4221.0
 endloop
endfacet
facet normal 0.44366997480392456 0.14847919344902039 -0.8838047385215759
 outer loop
  vertex 474500.0 5520500.0 4389.0
  vertex 475500.0 5519500.0 4723.0
  vertex 474500.0 5519500.0 4221.0
 endloop
endfacet
facet normal 0.4265771508216858 0.12750746309757233 -0.8954181671142578
 outer loop
  vertex 474500.0 5520500.0 4389.0
  vertex 475500.0 5520500.0 4865.39990234375
  vertex 475500.0 5519500.0 4723.0
 endloop
endfacet
facet normal 0.08320457488298416 0.011858043260872364 -0.9964619278907776
 outer loop
  vertex 469500.0 5521500.0 3661.800048828125
  vertex 470500.0 5520500.0 3733.39990234375
  vertex 469500.0 5520500.0 3649.89990234375
 endloop
endfacet
facet normal 0.062176816165447235 -0.009281409904360771 -0.9980219602584839
 outer loop
  vertex 469500.0 5521500.0 3661.800048828125
  vertex 470500.0 5521500.0 3724.10009765625
  vertex 470500.0 5520500.0 3733.39990234375
 endloop
endfacet
facet normal 0.04206102341413498 -0.009291172958910465 -0.9990718364715576
 outer loop
  vertex 470500.0 5521500.0 3724.10009765625
  vertex 471500.0 5520500.0 3775.5
  vertex 470500.0 5520500.0 3733.39990234375
 endloop
endfacet
facet normal 0.07368038594722748 0.022433169186115265 -0.9970295429229736
 outer loop
  vertex 470500.0 5521500.0 3724.10009765625
  vertex 471500.0 5521500.0 3798.0
  vertex 471500.0 5520500.0 3775.5
 endloop
endfacet
facet normal 0.08961520344018936 0.02240380086004734 -0.9957244992256165
 outer loop
  vertex 471500.0 5521500.0 3798.0
  vertex 472500.0 5520500.0 3865.5
  vertex 471500.0 5520500.0 3775.5
 endloop
endfacet
facet normal 0.09689826518297195 0.029745912179350853 -0.994849681854248
 outer loop
  vertex 471500.0 5521500.0 3798.0
  vertex 472500.0 5521500.0 3895.39990234375
  vertex 472500.0 5520500.0 3865.5
 endloop
endfacet
facet normal 0.10821206867694855 0.029711047187447548 -0.9936837553977966
 outer loop
  vertex 472500.0 5521500.0 3895.39990234375
  vertex 473500.0 5520500.0 3974.39990234375
  vertex 472500.0 5520500.0 3865.5
 endloop
endfacet
facet normal 0.1450134664773941 0.06702808290719986 -0.9871567487716675
 outer loop
  vertex 472500.0 5521500.0 3895.39990234375
  vertex 473500.0 5521500.0 4042.300048828125
  vertex 473500.0 5520500.0 3974.39990234375
 endloop
endfacet
facet normal 0.382237046957016 0.06259996443986893 -0.9219415187835693
 outer loop
  vertex 473500.0 5521500.0 4042.300048828125
  vertex 474500.0 5520500.0 4389.0
  vertex 473500.0 5520500.0 3974.39990234375
 endloop
endfacet
facet normal 0.23043693602085114 -0.10496393591165543 -0.9674096703529358
 outer loop
  vertex 473500.0 5521500.0 4042.300048828125
  vertex 474500.0 5521500.0 4280.5
  vertex 474500.0 5520500.0 4389.0
 endloop
endfacet
facet normal 0.4280391037464142 -0.09748584032058716 -0.8984870314598083
 outer loop
  vertex 474500.0 5521500.0 4280.5
  vertex 475500.0 5520500.0 4865.39990234375
  vertex 474500.0 5520500.0 4389.0
 endloop
endfacet
facet normal 0.25265955924987793 -0.2876715064048767 -0.9238009452819824
 outer loop
  vertex 474500.0 5521500.0 4280.5
  vertex 475500.0 5521500.0 4554.0
  vertex 475500.0 5520500.0 4865.39990234375
 endloop
endfacet
facet normal 0.09513989090919495 -0.29596927762031555 -0.9504475593566895
 outer loop
  vertex 475500.0 5521500.0 4554.0
  vertex 476500.0 5520500.0 4965.5
  vertex 475500.0 5520500.0 4865.39990234375
 endloop
endfacet
facet normal 0.3588535487651825 -0.025099128484725952 -0.9330563545227051
 outer loop
  vertex 475500.0 5521500.0 4554.0
  vertex 476500.0 5521500.0 4938.60009765625
  vertex 476500.0 5520500.0 4965.5
 endloop
endfacet
facet normal 0.07328519970178604 0.10581241548061371 -0.9916818737983704
 outer loop
  vertex 470500.0 5522500.0 3830.800048828125
  vertex 471500.0 5521500.0 3798.0
  vertex 470500.0 5521500.0 3724.10009765625
 endloop
endfacet
facet normal 0.003897249000146985 0.03667498007416725 -0.9993196725845337
 outer loop
  vertex 470500.0 5522500.0 3830.800048828125
  vertex 471500.0 5522500.0 3834.699951171875
  vertex 471500.0 5521500.0 3798.0
 endloop
endfacet
facet normal 0.09687656164169312 0.03650275990366936 -0.9946268200874329
 outer loop
  vertex 471500.0 5522500.0 3834.699951171875
  vertex 472500.0 5521500.0 3895.39990234375
  vertex 471500.0 5521500.0 3798.0
 endloop
endfacet
facet normal 0.05601143464446068 -0.00459258584305644 -0.9984195828437805
 outer loop
  vertex 471500.0 5522500.0 3834.699951171875
  vertex 472500.0 5522500.0 3890.800048828125
  vertex 472500.0 5521500.0 3895.39990234375
 endloop
endfacet
facet normal 0.14533881843090057 -0.0045509641058743 -0.9893714785575867
 outer loop
  vertex 472500.0 5522500.0 3890.800048828125
  vertex 473500.0 5521500.0 4042.300048828125
  vertex 472500.0 5521500.0 3895.39990234375
 endloop
endfacet
facet normal 0.0871887058019638 -0.0634281262755394 -0.9941704869270325
 outer loop
  vertex 472500.0 5522500.0 3890.800048828125
  vertex 473500.0 5522500.0 3978.5
  vertex 473500.0 5521500.0 4042.300048828125
 endloop
endfacet
facet normal 0.23127193748950958 -0.06194443255662918 -0.9709151387214661
 outer loop
  vertex 473500.0 5522500.0 3978.5
  vertex 474500.0 5521500.0 4280.5
  vertex 473500.0 5521500.0 4042.300048828125
 endloop
endfacet
facet normal 0.18621483445167542 -0.10868199169635773 -0.9764795303344727
 outer loop
  vertex 473500.0 5522500.0 3978.5
  vertex 474500.0 5522500.0 4169.2001953125
  vertex 474500.0 5521500.0 4280.5
 endloop
endfacet
facet normal 0.26230382919311523 -0.10674355924129486 -0.9590633511543274
 outer loop
  vertex 474500.0 5522500.0 4169.2001953125
  vertex 475500.0 5521500.0 4554.0
  vertex 474500.0 5521500.0 4280.5
 endloop
endfacet
facet normal 0.29142236709594727 -0.07552596181631088 -0.9536083936691284
 outer loop
  vertex 474500.0 5522500.0 4169.2001953125
  vertex 475500.0 5522500.0 4474.7998046875
  vertex 475500.0 5521500.0 4554.0
 endloop
endfacet
facet normal 0.3579899072647095 -0.07372039556503296 -0.9308107495307922
 outer loop
  vertex 475500.0 5522500.0 4474.7998046875
  vertex 476500.0 5521500.0 4938.60009765625
  vertex 475500.0 5521500.0 4554.0
 endloop
endfacet
facet normal -0.02777407318353653 -0.44331029057502747 -0.8959378004074097
 outer loop
  vertex 475500.0 5522500.0 4474.7998046875
  vertex 476500.0 5522500.0 4443.7998046875
  vertex 476500.0 5521500.0 4938.60009765625
 endloop
endfacet
facet normal -0.3008732497692108 -0.42293229699134827 -0.8547535538673401
 outer loop
  vertex 476500.0 5522500.0 4443.7998046875
  vertex 477500.0 5521500.0 4586.60009765625
  vertex 476500.0 5521500.0 4938.60009765625
 endloop
endfacet
facet normal -0.02396061271429062 -0.16476760804653168 -0.9860413670539856
 outer loop
  vertex 476500.0 5522500.0 4443.7998046875
  vertex 477500.0 5522500.0 4419.5
  vertex 477500.0 5521500.0 4586.60009765625
 endloop
endfacet
facet normal 0.003887695027515292 -0.0789521187543869 -0.9968708157539368
 outer loop
  vertex 470500.0 5523500.0 3751.60009765625
  vertex 471500.0 5522500.0 3834.699951171875
  vertex 470500.0 5522500.0 3830.800048828125
 endloop
endfacet
facet normal 0.07300106436014175 -0.009872999973595142 -0.9972829818725586
 outer loop
  vertex 470500.0 5523500.0 3751.60009765625
  vertex 471500.0 5523500.0 3824.800048828125
  vertex 471500.0 5522500.0 3834.699951171875
 endloop
endfacet
facet normal 0.056009288877248764 -0.009883877821266651 -0.9983813166618347
 outer loop
  vertex 471500.0 5523500.0 3824.800048828125
  vertex 472500.0 5522500.0 3890.800048828125
  vertex 471500.0 5522500.0 3834.699951171875
 endloop
endfacet
facet normal 0.0881333127617836 0.022406775504350662 -0.9958567023277283
 outer loop
  vertex 471500.0 5523500.0 3824.800048828125
  vertex 472500.0 5523500.0 3913.300048828125
  vertex 472500.0 5522500.0 3890.800048828125
 endloop
endfacet
facet normal 0.08734268695116043 0.022408341988921165 -0.9959262609481812
 outer loop
  vertex 472500.0 5523500.0 3913.300048828125
  vertex 473500.0 5522500.0 3978.5
  vertex 472500.0 5522500.0 3890.800048828125
 endloop
endfacet
facet normal 0.07220903784036636 0.007180971559137106 -0.9973636269569397
 outer loop
  vertex 472500.0 5523500.0 3913.300048828125
  vertex 473500.0 5523500.0 3985.699951171875
  vertex 473500.0 5522500.0 3978.5
 endloop
endfacet
facet normal 0.18731975555419922 0.007072321604937315 -0.982273519039154
 outer loop
  vertex 473500.0 5523500.0 3985.699951171875
  vertex 474500.0 5522500.0 4169.2001953125
  vertex 473500.0 5522500.0 3978.5
 endloop
endfacet
facet normal 0.20059196650981903 0.020862143486738205 -0.9794527292251587
 outer loop
  vertex 473500.0 5523500.0 3985.699951171875
  vertex 474500.0 5523500.0 4190.5
  vertex 474500.0 5522500.0 4169.2001953125
 endloop
endfacet
facet normal 0.29219645261764526 0.020365625619888306 -0.9561414122581482
 outer loop
  vertex 474500.0 5523500.0 4190.5
  vertex 475500.0 5522500.0 4474.7998046875
  vertex 474500.0 5522500.0 4169.2001953125
 endloop
endfacet
facet normal 0.08553857356309891 -0.19238829612731934 -0.9775837063789368
 outer loop
  vertex 474500.0 5523500.0 4190.5
  vertex 475500.0 5523500.0 4278.0
  vertex 475500.0 5522500.0 4474.7998046875
 endloop
endfacet
facet normal -0.030402516946196556 -0.1930067539215088 -0.9807263612747192
 outer loop
  vertex 475500.0 5523500.0 4278.0
  vertex 476500.0 5522500.0 4443.7998046875
  vertex 475500.0 5522500.0 4474.7998046875
 endloop
endfacet
facet normal 0.023458022624254227 -0.14064761996269226 -0.9897817969322205
 outer loop
  vertex 475500.0 5523500.0 4278.0
  vertex 476500.0 5523500.0 4301.7001953125
  vertex 476500.0 5522500.0 4443.7998046875
 endloop
endfacet
facet normal -0.024051165208220482 -0.14064562320709229 -0.989767849445343
 outer loop
  vertex 476500.0 5523500.0 4301.7001953125
  vertex 477500.0 5522500.0 4419.5
  vertex 476500.0 5522500.0 4443.7998046875
 endloop
endfacet
facet normal 0.1800168752670288 0.06439002603292465 -0.9815537929534912
 outer loop
  vertex 476500.0 5523500.0 4301.7001953125
  vertex 477500.0 5523500.0 4485.10009765625
  vertex 477500.0 5522500.0 4419.5
 endloop
endfacet
facet normal 0.3065090775489807 0.06230868399143219 -0.9498261213302612
 outer loop
  vertex 477500.0 5523500.0 4485.10009765625
  vertex 478500.0 5522500.0 4742.2001953125
  vertex 477500.0 5522500.0 4419.5
 endloop
endfacet
facet normal 0.0863443911075592 -0.16620594263076782 -0.9823035597801208
 outer loop
  vertex 477500.0 5523500.0 4485.10009765625
  vertex 478500.0 5523500.0 4573.0
  vertex 478500.0 5522500.0 4742.2001953125
 endloop
endfacet
facet normal 0.08814794570207596 -0.013047984801232815 -0.9960219264030457
 outer loop
  vertex 471500.0 5524500.0 3811.699951171875
  vertex 472500.0 5523500.0 3913.300048828125
  vertex 471500.0 5523500.0 3824.800048828125
 endloop
endfacet
facet normal 0.07923072576522827 -0.02202523872256279 -0.9966129660606384
 outer loop
  vertex 471500.0 5524500.0 3811.699951171875
  vertex 472500.0 5524500.0 3891.199951171875
  vertex 472500.0 5523500.0 3913.300048828125
 endloop
endfacet
facet normal 0.07219336181879044 -0.022037049755454063 -0.9971471428871155
 outer loop
  vertex 472500.0 5524500.0 3891.199951171875
  vertex 473500.0 5523500.0 3985.699951171875
  vertex 472500.0 5523500.0 3913.300048828125
 endloop
endfacet
facet normal 0.06592969596385956 -0.028326693922281265 -0.9974220991134644
 outer loop
  vertex 472500.0 5524500.0 3891.199951171875
  vertex 473500.0 5524500.0 3957.300048828125
  vertex 473500.0 5523500.0 3985.699951171875
 endloop
endfacet
facet normal 0.20055802166461945 -0.027811653912067413 -0.9792869687080383
 outer loop
  vertex 473500.0 5524500.0 3957.300048828125
  vertex 474500.0 5523500.0 4190.5
  vertex 473500.0 5523500.0 3985.699951171875
 endloop
endfacet
facet normal 0.07328163087368011 -0.15641318261623383 -0.9849693775177002
 outer loop
  vertex 473500.0 5524500.0 3957.300048828125
  vertex 474500.0 5524500.0 4031.699951171875
  vertex 474500.0 5523500.0 4190.5
 endloop
endfacet
facet normal 0.08609629422426224 -0.15625251829624176 -0.9839575886726379
 outer loop
  vertex 474500.0 5524500.0 4031.699951171875
  vertex 475500.0 5523500.0 4278.0
  vertex 474500.0 5523500.0 4190.5
 endloop
endfacet
facet normal 0.34312692284584045 0.11347442865371704 -0.9324095249176025
 outer loop
  vertex 474500.0 5524500.0 4031.699951171875
  vertex 475500.0 5524500.0 4399.7001953125
  vertex 475500.0 5523500.0 4278.0
 endloop
endfacet
facet normal 0.023520102724432945 0.12077541649341583 -0.9924011826515198
 outer loop
  vertex 475500.0 5524500.0 4399.7001953125
  vertex 476500.0 5523500.0 4301.7001953125
  vertex 475500.0 5523500.0 4278.0
 endloop
endfacet
facet normal 0.05614063888788223 0.15283294022083282 -0.986656129360199
 outer loop
  vertex 475500.0 5524500.0 4399.7001953125
  vertex 476500.0 5524500.0 4456.60009765625
  vertex 476500.0 5523500.0 4301.7001953125
 endloop
endfacet
facet normal 0.17833325266838074 0.15062059462070465 -0.9723737239837646
 outer loop
  vertex 476500.0 5524500.0 4456.60009765625
  vertex 477500.0 5523500.0 4485.10009765625
  vertex 476500.0 5523500.0 4301.7001953125
 endloop
endfacet
facet normal 0.04255727306008339 0.01408592239022255 -0.9989947080612183
 outer loop
  vertex 476500.0 5524500.0 4456.60009765625
  vertex 477500.0 5524500.0 4499.2001953125
  vertex 477500.0 5523500.0 4485.10009765625
 endloop
endfacet
facet normal 0.08755365014076233 0.014044554904103279 -0.996060848236084
 outer loop
  vertex 477500.0 5524500.0 4499.2001953125
  vertex 478500.0 5523500.0 4573.0
  vertex 477500.0 5523500.0 4485.10009765625
 endloop
endfacet
facet normal -0.12421460449695587 -0.19600002467632294 -0.9727048873901367
 outer loop
  vertex 477500.0 5524500.0 4499.2001953125
  vertex 478500.0 5524500.0 4371.5
  vertex 478500.0 5523500.0 4573.0
 endloop
endfacet
facet normal -0.01715267077088356 -0.19750075042247772 -0.9801526665687561
 outer loop
  vertex 478500.0 5524500.0 4371.5
  vertex 479500.0 5523500.0 4555.5
  vertex 478500.0 5523500.0 4573.0
 endloop
endfacet
facet normal 0.020523900166153908 -0.16103537380695343 -0.9867352247238159
 outer loop
  vertex 478500.0 5524500.0 4371.5
  vertex 479500.0 5524500.0 4392.2998046875
  vertex 479500.0 5523500.0 4555.5
 endloop
endfacet
facet normal 0.07923588901758194 -0.018837114796042442 -0.9966778755187988
 outer loop
  vertex 471500.0 5525500.0 3792.800048828125
  vertex 472500.0 5524500.0 3891.199951171875
  vertex 471500.0 5524500.0 3811.699951171875
 endloop
endfacet
facet normal 0.05765639618039131 -0.04049895703792572 -0.9975146651268005
 outer loop
  vertex 471500.0 5525500.0 3792.800048828125
  vertex 472500.0 5525500.0 3850.60009765625
  vertex 472500.0 5524500.0 3891.199951171875
 endloop
endfacet
facet normal 0.06590211391448975 -0.04047824442386627 -0.9970047473907471
 outer loop
  vertex 472500.0 5525500.0 3850.60009765625
  vertex 473500.0 5524500.0 3957.300048828125
  vertex 472500.0 5524500.0 3891.199951171875
 endloop
endfacet
facet normal 0.06470738351345062 -0.041676055639982224 -0.9970336556434631
 outer loop
  vertex 472500.0 5525500.0 3850.60009765625
  vertex 473500.0 5525500.0 3915.5
  vertex 473500.0 5524500.0 3957.300048828125
 endloop
endfacet
facet normal 0.07413046807050705 -0.04164866730570793 -0.996378481388092
 outer loop
  vertex 473500.0 5525500.0 3915.5
  vertex 474500.0 5524500.0 4031.699951171875
  vertex 473500.0 5524500.0 3957.300048828125
 endloop
endfacet
facet normal 0.07234115153551102 -0.043444354087114334 -0.9964333176612854
 outer loop
  vertex 473500.0 5525500.0 3915.5
  vertex 474500.0 5525500.0 3988.10009765625
  vertex 474500.0 5524500.0 4031.699951171875
 endloop
endfacet
facet normal 0.34506887197494507 -0.04088299348950386 -0.9376865029335022
 outer loop
  vertex 474500.0 5525500.0 3988.10009765625
  vertex 475500.0 5524500.0 4399.7001953125
  vertex 474500.0 5524500.0 4031.699951171875
 endloop
endfacet
facet normal 0.07494531571865082 -0.3145435154438019 -0.9462798237800598
 outer loop
  vertex 474500.0 5525500.0 3988.10009765625
  vertex 475500.0 5525500.0 4067.300048828125
  vertex 475500.0 5524500.0 4399.7001953125
 endloop
endfacet
facet normal 0.05391654744744301 -0.3149718642234802 -0.9475682973861694
 outer loop
  vertex 475500.0 5525500.0 4067.300048828125
  vertex 476500.0 5524500.0 4456.60009765625
  vertex 475500.0 5524500.0 4399.7001953125
 endloop
endfacet
facet normal 0.2142709195613861 -0.16079935431480408 -0.9634477496147156
 outer loop
  vertex 475500.0 5525500.0 4067.300048828125
  vertex 476500.0 5525500.0 4289.7001953125
  vertex 476500.0 5524500.0 4456.60009765625
 endloop
endfacet
facet normal 0.04198183864355087 -0.16447769105434418 -0.9854869842529297
 outer loop
  vertex 476500.0 5525500.0 4289.7001953125
  vertex 477500.0 5524500.0 4499.2001953125
  vertex 476500.0 5524500.0 4456.60009765625
 endloop
endfacet
facet normal 0.08097442239522934 -0.12615817785263062 -0.9886997938156128
 outer loop
  vertex 476500.0 5525500.0 4289.7001953125
  vertex 477500.0 5525500.0 4371.60009765625
  vertex 477500.0 5524500.0 4499.2001953125
 endloop
endfacet
facet normal -0.12566888332366943 -0.1255703866481781 -0.984093189239502
 outer loop
  vertex 477500.0 5525500.0 4371.60009765625
  vertex 478500.0 5524500.0 4371.5
  vertex 477500.0 5524500.0 4499.2001953125
 endloop
endfacet
facet normal -0.11206676065921783 -0.11196793615818024 -0.9873723983764648
 outer loop
  vertex 477500.0 5525500.0 4371.60009765625
  vertex 478500.0 5525500.0 4258.10009765625
  vertex 478500.0 5524500.0 4371.5
 endloop
endfacet
facet normal 0.02066292241215706 -0.11265367269515991 -0.9934194684028625
 outer loop
  vertex 478500.0 5525500.0 4258.10009765625
  vertex 479500.0 5524500.0 4392.2998046875
  vertex 478500.0 5524500.0 4371.5
 endloop
endfacet
facet normal 0.11736775189638138 -0.015887383371591568 -0.9929614663124084
 outer loop
  vertex 478500.0 5525500.0 4258.10009765625
  vertex 479500.0 5525500.0 4376.2998046875
  vertex 479500.0 5524500.0 4392.2998046875
 endloop
endfacet
facet normal 0.06469989567995071 -0.044362861663103104 -0.9969182014465332
 outer loop
  vertex 472500.0 5526500.0 3806.10009765625
  vertex 473500.0 5525500.0 3915.5
  vertex 472500.0 5525500.0 3850.60009765625
 endloop
endfacet
facet normal 0.09604588150978088 -0.012839200906455517 -0.9952941536903381
 outer loop
  vertex 472500.0 5526500.0 3806.10009765625
  vertex 473500.0 5526500.0 3902.60009765625
  vertex 473500.0 5525500.0 3915.5
 endloop
endfacet
facet normal 0.07240352034568787 -0.012864974327385426 -0.9972923994064331
 outer loop
  vertex 473500.0 5526500.0 3902.60009765625
  vertex 474500.0 5525500.0 3988.10009765625
  vertex 473500.0 5525500.0 3915.5
 endloop
endfacet
facet normal 0.05519035831093788 -0.030140424147248268 -0.9980208873748779
 outer loop
  vertex 473500.0 5526500.0 3902.60009765625
  vertex 474500.0 5526500.0 3957.89990234375
  vertex 474500.0 5525500.0 3988.10009765625
 endloop
endfacet
facet normal 0.07891695946455002 -0.030092285946011543 -0.9964268803596497
 outer loop
  vertex 474500.0 5526500.0 3957.89990234375
  vertex 475500.0 5525500.0 4067.300048828125
  vertex 474500.0 5525500.0 3988.10009765625
 endloop
endfacet
facet normal 0.06539696455001831 -0.04366442933678627 -0.9969035387039185
 outer loop
  vertex 474500.0 5526500.0 3957.89990234375
  vertex 475500.0 5526500.0 4023.5
  vertex 475500.0 5525500.0 4067.300048828125
 endloop
endfacet
facet normal 0.21689780056476593 -0.04271640256047249 -0.9752592444419861
 outer loop
  vertex 475500.0 5526500.0 4023.5
  vertex 476500.0 5525500.0 4289.7001953125
  vertex 475500.0 5525500.0 4067.300048828125
 endloop
endfacet
facet normal 0.09342768043279648 -0.1678161770105362 -0.9813811779022217
 outer loop
  vertex 475500.0 5526500.0 4023.5
  vertex 476500.0 5526500.0 4118.7001953125
  vertex 476500.0 5525500.0 4289.7001953125
 endloop
endfacet
facet normal 0.08046634495258331 -0.16800685226917267 -0.9824962019920349
 outer loop
  vertex 476500.0 5526500.0 4118.7001953125
  vertex 477500.0 5525500.0 4371.60009765625
  vertex 476500.0 5525500.0 4289.7001953125
 endloop
endfacet
facet normal 0.016543589532375336 -0.2295665591955185 -0.9731523394584656
 outer loop
  vertex 476500.0 5526500.0 4118.7001953125
  vertex 477500.0 5526500.0 4135.7001953125
  vertex 477500.0 5525500.0 4371.60009765625
 endloop
endfacet
facet normal -0.10979998856782913 -0.2282097488641739 -0.9674007892608643
 outer loop
  vertex 477500.0 5526500.0 4135.7001953125
  vertex 478500.0 5525500.0 4258.10009765625
  vertex 477500.0 5525500.0 4371.60009765625
 endloop
endfacet
facet normal 0.17997336387634277 0.05979472026228905 -0.9818524122238159
 outer loop
  vertex 477500.0 5526500.0 4135.7001953125
  vertex 478500.0 5526500.0 4319.0
  vertex 478500.0 5525500.0 4258.10009765625
 endloop
endfacet
facet normal 0.11716847121715546 0.06036858260631561 -0.9912755489349365
 outer loop
  vertex 478500.0 5526500.0 4319.0
  vertex 479500.0 5525500.0 4376.2998046875
  vertex 478500.0 5525500.0 4258.10009765625
 endloop
endfacet
facet normal 0.21760372817516327 0.16245712339878082 -0.9624221324920654
 outer loop
  vertex 478500.0 5526500.0 4319.0
  vertex 479500.0 5526500.0 4545.10009765625
  vertex 479500.0 5525500.0 4376.2998046875
 endloop
endfacet
facet normal 0.05520965903997421 -0.014476362615823746 -0.9983698725700378
 outer loop
  vertex 473500.0 5527500.0 3888.10009765625
  vertex 474500.0 5526500.0 3957.89990234375
  vertex 473500.0 5526500.0 3902.60009765625
 endloop
endfacet
facet normal 0.04753433167934418 -0.02216939628124237 -0.9986235499382019
 outer loop
  vertex 473500.0 5527500.0 3888.10009765625
  vertex 474500.0 5527500.0 3935.699951171875
  vertex 474500.0 5526500.0 3957.89990234375
 endloop
endfacet
facet normal 0.06544333696365356 -0.022146902978420258 -0.9976104497909546
 outer loop
  vertex 474500.0 5527500.0 3935.699951171875
  vertex 475500.0 5526500.0 4023.5
  vertex 474500.0 5526500.0 3957.89990234375
 endloop
endfacet
facet normal 0.06733293831348419 -0.020249804481863976 -0.9975250363349915
 outer loop
  vertex 474500.0 5527500.0 3935.699951171875
  vertex 475500.0 5527500.0 4003.199951171875
  vertex 475500.0 5526500.0 4023.5
 endloop
endfacet
facet normal 0.09475235641002655 -0.02020455338060856 -0.9952958226203918
 outer loop
  vertex 475500.0 5527500.0 4003.199951171875
  vertex 476500.0 5526500.0 4118.7001953125
  vertex 475500.0 5526500.0 4023.5
 endloop
endfacet
facet normal 0.06268975883722305 -0.05242415890097618 -0.9966552257537842
 outer loop
  vertex 475500.0 5527500.0 4003.199951171875
  vertex 476500.0 5527500.0 4066.10009765625
  vertex 476500.0 5526500.0 4118.7001953125
 endloop
endfacet
facet normal 0.016974082216620445 -0.052519917488098145 -0.9984756112098694
 outer loop
  vertex 476500.0 5527500.0 4066.10009765625
  vertex 477500.0 5526500.0 4135.7001953125
  vertex 476500.0 5526500.0 4118.7001953125
 endloop
endfacet
facet normal 0.2227812111377716 0.1558023989200592 -0.962337851524353
 outer loop
  vertex 476500.0 5527500.0 4066.10009765625
  vertex 477500.0 5527500.0 4297.60009765625
  vertex 477500.0 5526500.0 4135.7001953125
 endloop
endfacet
facet normal 0.17805244028568268 0.15726515650749207 -0.9713727235794067
 outer loop
  vertex 477500.0 5527500.0 4297.60009765625
  vertex 478500.0 5526500.0 4319.0
  vertex 477500.0 5526500.0 4135.7001953125
 endloop
endfacet
facet normal -0.004398396238684654 -0.025790972635149956 -0.9996576905250549
 outer loop
  vertex 477500.0 5527500.0 4297.60009765625
  vertex 478500.0 5527500.0 4293.2001953125
  vertex 478500.0 5526500.0 4319.0
 endloop
endfacet
facet normal 0.2204635888338089 -0.02515663392841816 -0.9750707149505615
 outer loop
  vertex 478500.0 5527500.0 4293.2001953125
  vertex 479500.0 5526500.0 4545.10009765625
  vertex 478500.0 5526500.0 4319.0
 endloop
endfacet
facet normal 0.07652174681425095 -0.1709216982126236 -0.9823086261749268
 outer loop
  vertex 478500.0 5527500.0 4293.2001953125
  vertex 479500.0 5527500.0 4371.10009765625
  vertex 479500.0 5526500.0 4545.10009765625
 endloop
endfacet
facet normal -0.1092895120382309 -0.17039749026298523 -0.9792959094047546
 outer loop
  vertex 479500.0 5527500.0 4371.10009765625
  vertex 480500.0 5526500.0 4433.5
  vertex 479500.0 5526500.0 4545.10009765625
 endloop
endfacet
facet normal -0.056605804711580276 -0.11846553534269333 -0.9913433790206909
 outer loop
  vertex 479500.0 5527500.0 4371.10009765625
  vertex 480500.0 5527500.0 4314.0
  vertex 480500.0 5526500.0 4433.5
 endloop
endfacet
facet normal 0.047530483454465866 -0.025562789291143417 -0.9985426068305969
 outer loop
  vertex 473500.0 5528500.0 3862.5
  vertex 474500.0 5527500.0 3935.699951171875
  vertex 473500.0 5527500.0 3888.10009765625
 endloop
endfacet
facet normal 0.054808203130960464 -0.018269484862685204 -0.998329758644104
 outer loop
  vertex 473500.0 5528500.0 3862.5
  vertex 474500.0 5528500.0 3917.39990234375
  vertex 474500.0 5527500.0 3935.699951171875
 endloop
endfacet
facet normal 0.06733553111553192 -0.018255459144711494 -0.997563362121582
 outer loop
  vertex 474500.0 5528500.0 3917.39990234375
  vertex 475500.0 5527500.0 4003.199951171875
  vertex 474500.0 5527500.0 3935.699951171875
 endloop
endfacet
facet normal 0.04342014715075493 -0.04222239553928375 -0.9981642961502075
 outer loop
  vertex 474500.0 5528500.0 3917.39990234375
  vertex 475500.0 5528500.0 3960.89990234375
  vertex 475500.0 5527500.0 4003.199951171875
 endloop
endfacet
facet normal 0.06272021681070328 -0.04217904433608055 -0.9971394538879395
 outer loop
  vertex 475500.0 5528500.0 3960.89990234375
  vertex 476500.0 5527500.0 4066.10009765625
  vertex 475500.0 5527500.0 4003.199951171875
 endloop
endfacet
facet normal 0.05863579362630844 -0.04627053439617157 -0.9972065687179565
 outer loop
  vertex 475500.0 5528500.0 3960.89990234375
  vertex 476500.0 5528500.0 4019.699951171875
  vertex 476500.0 5527500.0 4066.10009765625
 endloop
endfacet
facet normal 0.22530531883239746 -0.04515853151679039 -0.9732410907745361
 outer loop
  vertex 476500.0 5528500.0 4019.699951171875
  vertex 477500.0 5527500.0 4297.60009765625
  vertex 476500.0 5527500.0 4066.10009765625
 endloop
endfacet
facet normal 0.14149023592472076 -0.1311877816915512 -0.9812085628509521
 outer loop
  vertex 476500.0 5528500.0 4019.699951171875
  vertex 477500.0 5528500.0 4163.89990234375
  vertex 477500.0 5527500.0 4297.60009765625
 endloop
endfacet
facet normal -0.004361043218523264 -0.13251972198486328 -0.9911707639694214
 outer loop
  vertex 477500.0 5528500.0 4163.89990234375
  vertex 478500.0 5527500.0 4293.2001953125
  vertex 477500.0 5527500.0 4297.60009765625
 endloop
endfacet
facet normal 0.09164908528327942 -0.03701803460717201 -0.9951030611991882
 outer loop
  vertex 477500.0 5528500.0 4163.89990234375
  vertex 478500.0 5528500.0 4256.0
  vertex 478500.0 5527500.0 4293.2001953125
 endloop
endfacet
facet normal 0.07761124521493912 -0.037062354385852814 -0.9962946176528931
 outer loop
  vertex 478500.0 5528500.0 4256.0
  vertex 479500.0 5527500.0 4371.10009765625
  vertex 478500.0 5527500.0 4293.2001953125
 endloop
endfacet
facet normal -0.020309899002313614 -0.13434264063835144 -0.9907267689704895
 outer loop
  vertex 478500.0 5528500.0 4256.0
  vertex 479500.0 5528500.0 4235.5
  vertex 479500.0 5527500.0 4371.10009765625
 endloop
endfacet
facet normal -0.0564919039607048 -0.1341557800769806 -0.9893487095832825
 outer loop
  vertex 479500.0 5528500.0 4235.5
  vertex 480500.0 5527500.0 4314.0
  vertex 479500.0 5527500.0 4371.10009765625
 endloop
endfacet
facet normal -0.0057792095467448235 -0.08400045335292816 -0.9964489936828613
 outer loop
  vertex 479500.0 5528500.0 4235.5
  vertex 480500.0 5528500.0 4229.7001953125
  vertex 480500.0 5527500.0 4314.0
 endloop
endfacet
facet normal -0.04876871407032013 -0.08390189707279205 -0.9952799081802368
 outer loop
  vertex 480500.0 5528500.0 4229.7001953125
  vertex 481500.0 5527500.0 4265.0
  vertex 480500.0 5527500.0 4314.0
 endloop
endfacet
facet normal 0.054809365421533585 -0.01707189716398716 -0.9983508586883545
 outer loop
  vertex 473500.0 5529500.0 3845.39990234375
  vertex 474500.0 5528500.0 3917.39990234375
  vertex 473500.0 5528500.0 3862.5
 endloop
endfacet
facet normal 0.03415584936738014 -0.037750791758298874 -0.9987033009529114
 outer loop
  vertex 473500.0 5529500.0 3845.39990234375
  vertex 474500.0 5529500.0 3879.60009765625
  vertex 474500.0 5528500.0 3917.39990234375
 endloop
endfacet
facet normal 0.04342794418334961 -0.03773719072341919 -0.9983435869216919
 outer loop
  vertex 474500.0 5529500.0 3879.60009765625
  vertex 475500.0 5528500.0 3960.89990234375
  vertex 474500.0 5528500.0 3917.39990234375
 endloop
endfacet
facet normal 0.036439210176467896 -0.044725190848112106 -0.998334527015686
 outer loop
  vertex 474500.0 5529500.0 3879.60009765625
  vertex 475500.0 5529500.0 3916.10009765625
  vertex 475500.0 5528500.0 3960.89990234375
 endloop
endfacet
facet normal 0.058640047907829285 -0.04467790201306343 -0.9972789287567139
 outer loop
  vertex 475500.0 5529500.0 3916.10009765625
  vertex 476500.0 5528500.0 4019.699951171875
  vertex 475500.0 5528500.0 3960.89990234375
 endloop
endfacet
facet normal 0.05255907028913498 -0.05076383054256439 -0.9973267316818237
 outer loop
  vertex 475500.0 5529500.0 3916.10009765625
  vertex 476500.0 5529500.0 3968.800048828125
  vertex 476500.0 5528500.0 4019.699951171875
 endloop
endfacet
facet normal 0.14254294335842133 -0.0503150075674057 -0.988508939743042
 outer loop
  vertex 476500.0 5529500.0 3968.800048828125
  vertex 477500.0 5528500.0 4163.89990234375
  vertex 476500.0 5528500.0 4019.699951171875
 endloop
endfacet
facet normal 0.07833155244588852 -0.11487329751253128 -0.9902869462966919
 outer loop
  vertex 476500.0 5529500.0 3968.800048828125
  vertex 477500.0 5529500.0 4047.89990234375
  vertex 477500.0 5528500.0 4163.89990234375
 endloop
endfacet
facet normal 0.09110615402460098 -0.11474813520908356 -0.9892080426216125
 outer loop
  vertex 477500.0 5529500.0 4047.89990234375
  vertex 478500.0 5528500.0 4256.0
  vertex 477500.0 5528500.0 4163.89990234375
 endloop
endfacet
facet normal 0.05666780099272728 -0.14877809584140778 -0.9872455596923828
 outer loop
  vertex 477500.0 5529500.0 4047.89990234375
  vertex 478500.0 5529500.0 4105.2998046875
  vertex 478500.0 5528500.0 4256.0
 endloop
endfacet
facet normal -0.020266937091946602 -0.14898693561553955 -0.9886314272880554
 outer loop
  vertex 478500.0 5529500.0 4105.2998046875
  vertex 479500.0 5528500.0 4235.5
  vertex 478500.0 5528500.0 4256.0
 endloop
endfacet
facet normal 0.04818323999643326 -0.08143280446529388 -0.9955134987831116
 outer loop
  vertex 478500.0 5529500.0 4105.2998046875
  vertex 479500.0 5529500.0 4153.7001953125
  vertex 479500.0 5528500.0 4235.5
 endloop
endfacet
facet normal -0.005780401173979044 -0.08152613788843155 -0.9966543912887573
 outer loop
  vertex 479500.0 5529500.0 4153.7001953125
  vertex 480500.0 5528500.0 4229.7001953125
  vertex 479500.0 5528500.0 4235.5
 endloop
endfacet
facet normal 0.07677270472049713 0.0009970481041818857 -0.9970481395721436
 outer loop
  vertex 479500.0 5529500.0 4153.7001953125
  vertex 480500.0 5529500.0 4230.7001953125
  vertex 480500.0 5528500.0 4229.7001953125
 endloop
endfacet
facet normal 0.03416174650192261 -0.03286292031407356 -0.9988759160041809
 outer loop
  vertex 473500.0 5530500.0 3812.5
  vertex 474500.0 5529500.0 3879.60009765625
  vertex 473500.0 5529500.0 3845.39990234375
 endloop
endfacet
facet normal 0.05770125240087509 -0.009284150786697865 -0.9982907176017761
 outer loop
  vertex 473500.0 5530500.0 3812.5
  vertex 474500.0 5530500.0 3870.300048828125
  vertex 474500.0 5529500.0 3879.60009765625
 endloop
endfacet
facet normal 0.036474134773015976 -0.009293458424508572 -0.9992913603782654
 outer loop
  vertex 474500.0 5530500.0 3870.300048828125
  vertex 475500.0 5529500.0 3916.10009765625
  vertex 474500.0 5529500.0 3879.60009765625
 endloop
endfacet
facet normal 0.05043517053127289 0.004693919792771339 -0.9987162947654724
 outer loop
  vertex 474500.0 5530500.0 3870.300048828125
  vertex 475500.0 5530500.0 3920.800048828125
  vertex 475500.0 5529500.0 3916.10009765625
 endloop
endfacet
facet normal 0.0526263453066349 0.004693386610597372 -0.9986032843589783
 outer loop
  vertex 475500.0 5530500.0 3920.800048828125
  vertex 476500.0 5529500.0 3968.800048828125
  vertex 475500.0 5529500.0 3916.10009765625
 endloop
endfacet
facet normal 0.06743302941322327 0.019551483914256096 -0.9975322484970093
 outer loop
  vertex 475500.0 5530500.0 3920.800048828125
  vertex 476500.0 5530500.0 3988.39990234375
  vertex 476500.0 5529500.0 3968.800048828125
 endloop
endfacet
facet normal 0.07883850485086441 0.019535094499588013 -0.9966959357261658
 outer loop
  vertex 476500.0 5530500.0 3988.39990234375
  vertex 477500.0 5529500.0 4047.89990234375
  vertex 476500.0 5529500.0 3968.800048828125
 endloop
endfacet
facet normal 0.11543506383895874 0.05642826110124588 -0.9917109608650208
 outer loop
  vertex 476500.0 5530500.0 3988.39990234375
  vertex 477500.0 5530500.0 4104.7998046875
  vertex 477500.0 5529500.0 4047.89990234375
 endloop
endfacet
facet normal 0.05721333622932434 0.05671496316790581 -0.9967496991157532
 outer loop
  vertex 477500.0 5530500.0 4104.7998046875
  vertex 478500.0 5529500.0 4105.2998046875
  vertex 477500.0 5529500.0 4047.89990234375
 endloop
endfacet
facet normal 0.16134247183799744 0.16085562109947205 -0.9737012386322021
 outer loop
  vertex 477500.0 5530500.0 4104.7998046875
  vertex 478500.0 5530500.0 4270.5
  vertex 478500.0 5529500.0 4105.2998046875
 endloop
endfacet
facet normal 0.047698795795440674 0.16280552744865417 -0.9855045080184937
 outer loop
  vertex 478500.0 5530500.0 4270.5
  vertex 479500.0 5529500.0 4153.7001953125
  vertex 478500.0 5529500.0 4105.2998046875
 endloop
endfacet
facet normal 0.12733185291290283 0.23974575102329254 -0.9624492526054382
 outer loop
  vertex 478500.0 5530500.0 4270.5
  vertex 479500.0 5530500.0 4402.7998046875
  vertex 479500.0 5529500.0 4153.7001953125
 endloop
endfacet
facet normal 0.07450908422470093 0.241041362285614 -0.9676504731178284
 outer loop
  vertex 479500.0 5530500.0 4402.7998046875
  vertex 480500.0 5529500.0 4230.7001953125
  vertex 479500.0 5529500.0 4153.7001953125
 endloop
endfacet
facet normal 0.05769979953765869 0.011679659597575665 -0.9982656240463257
 outer loop
  vertex 473500.0 5531500.0 3824.199951171875
  vertex 474500.0 5530500.0 3870.300048828125
  vertex 473500.0 5530500.0 3812.5
 endloop
endfacet
facet normal 0.04485492408275604 -0.001198740559630096 -0.9989927411079407
 outer loop
  vertex 473500.0 5531500.0 3824.199951171875
  vertex 474500.0 5531500.0 3869.10009765625
  vertex 474500.0 5530500.0 3870.300048828125
 endloop
endfacet
facet normal 0.05043569207191467 -0.001198423095047474 -0.9987265467643738
 outer loop
  vertex 474500.0 5531500.0 3869.10009765625
  vertex 475500.0 5530500.0 3920.800048828125
  vertex 474500.0 5530500.0 3870.300048828125
 endloop
endfacet
facet normal 0.05272632837295532 0.0010983209358528256 -0.9986083507537842
 outer loop
  vertex 474500.0 5531500.0 3869.10009765625
  vertex 475500.0 5531500.0 3921.89990234375
  vertex 475500.0 5530500.0 3920.800048828125
 endloop
endfacet
facet normal 0.06744588166475296 0.0010973484022542834 -0.997722327709198
 outer loop
  vertex 475500.0 5531500.0 3921.89990234375
  vertex 476500.0 5530500.0 3988.39990234375
  vertex 475500.0 5530500.0 3920.800048828125
 endloop
endfacet
facet normal 0.06893548369407654 0.0025938996113836765 -0.9976177215576172
 outer loop
  vertex 475500.0 5531500.0 3921.89990234375
  vertex 476500.0 5531500.0 3991.0
  vertex 476500.0 5530500.0 3988.39990234375
 endloop
endfacet
facet normal 0.11561889201402664 0.0025826517958194017 -0.9932902455329895
 outer loop
  vertex 476500.0 5531500.0 3991.0
  vertex 477500.0 5530500.0 4104.7998046875
  vertex 476500.0 5530500.0 3988.39990234375
 endloop
endfacet
facet normal 0.09208608418703079 -0.021204493939876556 -0.9955252408981323
 outer loop
  vertex 476500.0 5531500.0 3991.0
  vertex 477500.0 5531500.0 4083.5
  vertex 477500.0 5530500.0 4104.7998046875
 endloop
endfacet
facet normal 0.16343513131141663 -0.021008644253015518 -0.9863303899765015
 outer loop
  vertex 477500.0 5531500.0 4083.5
  vertex 478500.0 5530500.0 4270.5
  vertex 477500.0 5530500.0 4104.7998046875
 endloop
endfacet
facet normal 0.10665074735879898 -0.07869936525821686 -0.9911770820617676
 outer loop
  vertex 477500.0 5531500.0 4083.5
  vertex 478500.0 5531500.0 4191.10009765625
  vertex 478500.0 5530500.0 4270.5
 endloop
endfacet
facet normal 0.13075250387191772 -0.07847129553556442 -0.9883046746253967
 outer loop
  vertex 478500.0 5531500.0 4191.10009765625
  vertex 479500.0 5530500.0 4402.7998046875
  vertex 478500.0 5530500.0 4270.5
 endloop
endfacet
facet normal 0.018653519451618195 -0.18918566405773163 -0.9817641377449036
 outer loop
  vertex 478500.0 5531500.0 4191.10009765625
  vertex 479500.0 5531500.0 4210.10009765625
  vertex 479500.0 5530500.0 4402.7998046875
 endloop
endfacet
facet normal 0.09209167957305908 -0.018119610846042633 -0.9955856800079346
 outer loop
  vertex 476500.0 5532500.0 3972.800048828125
  vertex 477500.0 5531500.0 4083.5
  vertex 476500.0 5531500.0 3991.0
 endloop
endfacet
facet normal 0.01896718144416809 -0.055603984743356705 -0.998272716999054
 outer loop
  vertex 478500.0 5532500.0 4135.39990234375
  vertex 479500.0 5531500.0 4210.10009765625
  vertex 478500.0 5531500.0 4191.10009765625
 endloop
endfacet
facet normal 0.061478301882743835 -0.013074195943772793 -0.9980227947235107
 outer loop
  vertex 478500.0 5532500.0 4135.39990234375
  vertex 479500.0 5532500.0 4197.0
  vertex 479500.0 5531500.0 4210.10009765625
 endloop
endfacet
endsolid
