solid
facet normal -0.0037997758481651545 0.0008000427624210715 -0.9999924302101135
 outer loop
  vertex 574500.0 6022500.0 2652.39990234375
  vertex 575500.0 6022500.0 2648.60009765625
  vertex 575500.0 6021500.0 2647.800048828125
 endloop
endfacet
facet normal -0.0037997388280928135 -0.004499922040849924 -0.9999827146530151
 outer loop
  vertex 574500.0 6023500.0 2647.89990234375
  vertex 575500.0 6022500.0 2648.60009765625
  vertex 574500.0 6022500.0 2652.39990234375
 endloop
endfacet
endsolid
