solid
facet normal -0.4413171112537384 -0.10946081578731537 -0.8906500935554504
 outer loop
  vertex 444500.0 5528500.0 4939.7001953125
  vertex 445500.0 5527500.0 4567.10009765625
  vertex 444500.0 5527500.0 5062.60009765625
 endloop
endfacet
facet normal -0.16279453039169312 0.19740211963653564 -0.9667111039161682
 outer loop
  vertex 444500.0 5528500.0 4939.7001953125
  vertex 445500.0 5528500.0 4771.2998046875
  vertex 445500.0 5527500.0 4567.10009765625
 endloop
endfacet
facet normal -0.16605491936206818 0.009367684833705425 -0.9860720634460449
 outer loop
  vertex 444500.0 5529500.0 4949.2001953125
  vertex 445500.0 5528500.0 4771.2998046875
  vertex 444500.0 5528500.0 4939.7001953125
 endloop
endfacet
facet normal -0.2821093201637268 -0.11261474341154099 -0.9527497887611389
 outer loop
  vertex 444500.0 5529500.0 4949.2001953125
  vertex 445500.0 5529500.0 4653.10009765625
  vertex 445500.0 5528500.0 4771.2998046875
 endloop
endfacet
facet normal -0.12741656601428986 0.023599136620759964 -0.9915685057640076
 outer loop
  vertex 445500.0 5530500.0 4676.89990234375
  vertex 446500.0 5529500.0 4524.60009765625
  vertex 445500.0 5529500.0 4653.10009765625
 endloop
endfacet
facet normal -0.1353268325328827 0.01555338129401207 -0.9906789660453796
 outer loop
  vertex 445500.0 5530500.0 4676.89990234375
  vertex 446500.0 5530500.0 4540.2998046875
  vertex 446500.0 5529500.0 4524.60009765625
 endloop
endfacet
facet normal -0.13346539437770844 -0.16600103676319122 -0.9770519733428955
 outer loop
  vertex 445500.0 5531500.0 4507.0
  vertex 446500.0 5530500.0 4540.2998046875
  vertex 445500.0 5530500.0 4676.89990234375
 endloop
endfacet
facet normal -0.13963882625102997 -0.17211048305034637 -0.9751302003860474
 outer loop
  vertex 445500.0 5531500.0 4507.0
  vertex 446500.0 5531500.0 4363.7998046875
  vertex 446500.0 5530500.0 4540.2998046875
 endloop
endfacet
facet normal -0.14775100350379944 -0.1719057559967041 -0.9739702939987183
 outer loop
  vertex 446500.0 5531500.0 4363.7998046875
  vertex 447500.0 5530500.0 4388.60009765625
  vertex 446500.0 5530500.0 4540.2998046875
 endloop
endfacet
facet normal -0.07236423343420029 -0.09698230028152466 -0.9926519393920898
 outer loop
  vertex 446500.0 5531500.0 4363.7998046875
  vertex 447500.0 5531500.0 4290.89990234375
  vertex 447500.0 5530500.0 4388.60009765625
 endloop
endfacet
facet normal -0.13938365876674652 -0.18211355805397034 -0.9733482599258423
 outer loop
  vertex 445500.0 5532500.0 4319.89990234375
  vertex 446500.0 5531500.0 4363.7998046875
  vertex 445500.0 5531500.0 4507.0
 endloop
endfacet
facet normal 0.017890991643071175 -0.025987057015299797 -0.9995021820068359
 outer loop
  vertex 445500.0 5532500.0 4319.89990234375
  vertex 446500.0 5532500.0 4337.7998046875
  vertex 446500.0 5531500.0 4363.7998046875
 endloop
endfacet
facet normal -0.07268253713846207 -0.025922473520040512 -0.9970182180404663
 outer loop
  vertex 446500.0 5532500.0 4337.7998046875
  vertex 447500.0 5531500.0 4290.89990234375
  vertex 446500.0 5531500.0 4363.7998046875
 endloop
endfacet
facet normal -0.15635597705841064 -0.11032277345657349 -0.9815201163291931
 outer loop
  vertex 446500.0 5532500.0 4337.7998046875
  vertex 447500.0 5532500.0 4178.5
  vertex 447500.0 5531500.0 4290.89990234375
 endloop
endfacet
facet normal -0.03256518766283989 -0.03286467120051384 -0.9989291429519653
 outer loop
  vertex 444500.0 5533500.0 4319.60009765625
  vertex 445500.0 5533500.0 4287.0
  vertex 445500.0 5532500.0 4319.89990234375
 endloop
endfacet
facet normal 0.017887361347675323 -0.03287685289978981 -0.9992993474006653
 outer loop
  vertex 445500.0 5533500.0 4287.0
  vertex 446500.0 5532500.0 4337.7998046875
  vertex 445500.0 5532500.0 4319.89990234375
 endloop
endfacet
facet normal -0.1412491649389267 -0.19059880077838898 -0.9714529514312744
 outer loop
  vertex 445500.0 5533500.0 4287.0
  vertex 446500.0 5533500.0 4141.60009765625
  vertex 446500.0 5532500.0 4337.7998046875
 endloop
endfacet
facet normal -0.1544439196586609 -0.19021901488304138 -0.9695173501968384
 outer loop
  vertex 446500.0 5533500.0 4141.60009765625
  vertex 447500.0 5532500.0 4178.5
  vertex 446500.0 5532500.0 4337.7998046875
 endloop
endfacet
facet normal -0.018767889589071274 -0.05560419335961342 -0.9982764720916748
 outer loop
  vertex 446500.0 5533500.0 4141.60009765625
  vertex 447500.0 5533500.0 4122.7998046875
  vertex 447500.0 5532500.0 4178.5
 endloop
endfacet
facet normal 0.31984400749206543 -0.05269259959459305 -0.9460038542747498
 outer loop
  vertex 447500.0 5533500.0 4122.7998046875
  vertex 448500.0 5532500.0 4516.60009765625
  vertex 447500.0 5532500.0 4178.5
 endloop
endfacet
facet normal 0.3150706887245178 -0.0579746849834919 -0.9472959041595459
 outer loop
  vertex 447500.0 5533500.0 4122.7998046875
  vertex 448500.0 5533500.0 4455.39990234375
  vertex 448500.0 5532500.0 4516.60009765625
 endloop
endfacet
facet normal -0.6180948615074158 0.00605276832357049 -0.7860801815986633
 outer loop
  vertex 449500.0 5533500.0 4278.10009765625
  vertex 450500.0 5533500.0 3491.800048828125
  vertex 450500.0 5532500.0 3484.10009765625
 endloop
endfacet
facet normal -0.005599843803793192 0.007699602283537388 -0.9999547004699707
 outer loop
  vertex 450500.0 5533500.0 3491.800048828125
  vertex 451500.0 5532500.0 3478.5
  vertex 450500.0 5532500.0 3484.10009765625
 endloop
endfacet
facet normal -0.002399996854364872 0.010899223387241364 -0.9999377131462097
 outer loop
  vertex 450500.0 5533500.0 3491.800048828125
  vertex 451500.0 5533500.0 3489.39990234375
  vertex 451500.0 5532500.0 3478.5
 endloop
endfacet
facet normal -0.3957018256187439 -0.30716201663017273 -0.8654892444610596
 outer loop
  vertex 442500.0 5534500.0 4751.2001953125
  vertex 443500.0 5534500.0 4294.0
  vertex 443500.0 5533500.0 4648.89990234375
 endloop
endfacet
facet normal -0.2963908910751343 -0.3194326162338257 -0.9000639915466309
 outer loop
  vertex 443500.0 5534500.0 4294.0
  vertex 444500.0 5533500.0 4319.60009765625
  vertex 443500.0 5533500.0 4648.89990234375
 endloop
endfacet
facet normal -0.14000235497951508 -0.16499590873718262 -0.9763071537017822
 outer loop
  vertex 443500.0 5534500.0 4294.0
  vertex 444500.0 5534500.0 4150.60009765625
  vertex 444500.0 5533500.0 4319.60009765625
 endloop
endfacet
facet normal -0.03212769329547882 -0.16655106842517853 -0.9855092763900757
 outer loop
  vertex 444500.0 5534500.0 4150.60009765625
  vertex 445500.0 5533500.0 4287.0
  vertex 444500.0 5533500.0 4319.60009765625
 endloop
endfacet
facet normal 0.033504560589790344 -0.10210549086332321 -0.9942092299461365
 outer loop
  vertex 444500.0 5534500.0 4150.60009765625
  vertex 445500.0 5534500.0 4184.2998046875
  vertex 445500.0 5533500.0 4287.0
 endloop
endfacet
facet normal -0.1431494951248169 -0.10111066699028015 -0.9845226407051086
 outer loop
  vertex 445500.0 5534500.0 4184.2998046875
  vertex 446500.0 5533500.0 4141.60009765625
  vertex 445500.0 5533500.0 4287.0
 endloop
endfacet
facet normal -0.10227388888597488 -0.05987509712576866 -0.9929527044296265
 outer loop
  vertex 445500.0 5534500.0 4184.2998046875
  vertex 446500.0 5534500.0 4081.300048828125
  vertex 446500.0 5533500.0 4141.60009765625
 endloop
endfacet
facet normal -0.018762897700071335 -0.060180120170116425 -0.9980111718177795
 outer loop
  vertex 446500.0 5534500.0 4081.300048828125
  vertex 447500.0 5533500.0 4122.7998046875
  vertex 446500.0 5533500.0 4141.60009765625
 endloop
endfacet
facet normal 0.03208191320300102 -0.009394650347530842 -0.9994410872459412
 outer loop
  vertex 446500.0 5534500.0 4081.300048828125
  vertex 447500.0 5534500.0 4113.39990234375
  vertex 447500.0 5533500.0 4122.7998046875
 endloop
endfacet
facet normal 0.31558895111083984 -0.00891913566738367 -0.9488540291786194
 outer loop
  vertex 447500.0 5534500.0 4113.39990234375
  vertex 448500.0 5533500.0 4455.39990234375
  vertex 447500.0 5533500.0 4122.7998046875
 endloop
endfacet
facet normal 0.32621949911117554 0.0029304861091077328 -0.9452894926071167
 outer loop
  vertex 447500.0 5534500.0 4113.39990234375
  vertex 448500.0 5534500.0 4458.5
  vertex 448500.0 5533500.0 4455.39990234375
 endloop
endfacet
facet normal -0.1745762974023819 0.003052476793527603 -0.9846388697624207
 outer loop
  vertex 448500.0 5534500.0 4458.5
  vertex 449500.0 5533500.0 4278.10009765625
  vertex 448500.0 5533500.0 4455.39990234375
 endloop
endfacet
facet normal -0.12443716078996658 0.05429241806268692 -0.990740954875946
 outer loop
  vertex 448500.0 5534500.0 4458.5
  vertex 449500.0 5534500.0 4332.89990234375
  vertex 449500.0 5533500.0 4278.10009765625
 endloop
endfacet
facet normal -0.6175335645675659 0.04303791746497154 -0.7853662967681885
 outer loop
  vertex 449500.0 5534500.0 4332.89990234375
  vertex 450500.0 5533500.0 3491.800048828125
  vertex 449500.0 5533500.0 4278.10009765625
 endloop
endfacet
facet normal -0.6453367471694946 -0.0028263565618544817 -0.7638930678367615
 outer loop
  vertex 449500.0 5534500.0 4332.89990234375
  vertex 450500.0 5534500.0 3488.10009765625
  vertex 450500.0 5533500.0 3491.800048828125
 endloop
endfacet
facet normal -0.0024001230485737324 -0.0036999150179326534 -0.9999902248382568
 outer loop
  vertex 450500.0 5534500.0 3488.10009765625
  vertex 451500.0 5533500.0 3489.39990234375
  vertex 450500.0 5533500.0 3491.800048828125
 endloop
endfacet
facet normal -0.2813030779361725 -0.08867146819829941 -0.9555134177207947
 outer loop
  vertex 440500.0 5535500.0 4909.39990234375
  vertex 441500.0 5535500.0 4615.0
  vertex 441500.0 5534500.0 4707.7998046875
 endloop
endfacet
facet normal 0.04317440837621689 -0.09231662005186081 -0.9947932362556458
 outer loop
  vertex 441500.0 5535500.0 4615.0
  vertex 442500.0 5534500.0 4751.2001953125
  vertex 441500.0 5534500.0 4707.7998046875
 endloop
endfacet
facet normal -0.19681310653686523 -0.3228994905948639 -0.9257432222366333
 outer loop
  vertex 441500.0 5535500.0 4615.0
  vertex 442500.0 5535500.0 4402.39990234375
  vertex 442500.0 5534500.0 4751.2001953125
 endloop
endfacet
facet normal -0.396339476108551 -0.3023693561553955 -0.8668839335441589
 outer loop
  vertex 442500.0 5535500.0 4402.39990234375
  vertex 443500.0 5534500.0 4294.0
  vertex 442500.0 5534500.0 4751.2001953125
 endloop
endfacet
facet normal -0.3029664158821106 -0.2020086795091629 -0.9313451647758484
 outer loop
  vertex 442500.0 5535500.0 4402.39990234375
  vertex 443500.0 5535500.0 4077.10009765625
  vertex 443500.0 5534500.0 4294.0
 endloop
endfacet
facet normal -0.13878506422042847 -0.20991972088813782 -0.9678183794021606
 outer loop
  vertex 443500.0 5535500.0 4077.10009765625
  vertex 444500.0 5534500.0 4150.60009765625
  vertex 443500.0 5534500.0 4294.0
 endloop
endfacet
facet normal -0.10253311693668365 -0.17451182007789612 -0.9793021082878113
 outer loop
  vertex 443500.0 5535500.0 4077.10009765625
  vertex 444500.0 5535500.0 3972.39990234375
  vertex 444500.0 5534500.0 4150.60009765625
 endloop
endfacet
facet normal 0.033158816397190094 -0.1753399670124054 -0.9839493632316589
 outer loop
  vertex 444500.0 5535500.0 3972.39990234375
  vertex 445500.0 5534500.0 4184.2998046875
  vertex 444500.0 5534500.0 4150.60009765625
 endloop
endfacet
facet normal 0.02013043500483036 -0.18794941902160645 -0.9819723963737488
 outer loop
  vertex 444500.0 5535500.0 3972.39990234375
  vertex 445500.0 5535500.0 3992.89990234375
  vertex 445500.0 5534500.0 4184.2998046875
 endloop
endfacet
facet normal -0.10064969956874847 -0.18703289330005646 -0.9771838784217834
 outer loop
  vertex 445500.0 5535500.0 3992.89990234375
  vertex 446500.0 5534500.0 4081.300048828125
  vertex 445500.0 5534500.0 4184.2998046875
 endloop
endfacet
facet normal 0.027838431298732758 -0.060366176068782806 -0.9977880120277405
 outer loop
  vertex 445500.0 5535500.0 3992.89990234375
  vertex 446500.0 5535500.0 4020.800048828125
  vertex 446500.0 5534500.0 4081.300048828125
 endloop
endfacet
facet normal 0.03202483057975769 -0.06035860627889633 -0.9976629018783569
 outer loop
  vertex 446500.0 5535500.0 4020.800048828125
  vertex 447500.0 5534500.0 4113.39990234375
  vertex 446500.0 5534500.0 4081.300048828125
 endloop
endfacet
facet normal -0.05257056653499603 -0.1440749168395996 -0.9881693720817566
 outer loop
  vertex 446500.0 5535500.0 4020.800048828125
  vertex 447500.0 5535500.0 3967.60009765625
  vertex 447500.0 5534500.0 4113.39990234375
 endloop
endfacet
facet normal 0.32316601276397705 -0.1365329772233963 -0.9364413619041443
 outer loop
  vertex 447500.0 5535500.0 3967.60009765625
  vertex 448500.0 5534500.0 4458.5
  vertex 447500.0 5534500.0 4113.39990234375
 endloop
endfacet
facet normal 0.06861366331577301 -0.3834996223449707 -0.9209887385368347
 outer loop
  vertex 447500.0 5535500.0 3967.60009765625
  vertex 448500.0 5535500.0 4042.10009765625
  vertex 448500.0 5534500.0 4458.5
 endloop
endfacet
facet normal -0.11517786234617233 -0.3818472623825073 -0.9170205593109131
 outer loop
  vertex 448500.0 5535500.0 4042.10009765625
  vertex 449500.0 5534500.0 4332.89990234375
  vertex 448500.0 5534500.0 4458.5
 endloop
endfacet
facet normal -0.2682090997695923 -0.5065077543258667 -0.8194593787193298
 outer loop
  vertex 448500.0 5535500.0 4042.10009765625
  vertex 449500.0 5535500.0 3714.800048828125
  vertex 449500.0 5534500.0 4332.89990234375
 endloop
endfacet
facet normal -0.5835602879524231 -0.42696332931518555 -0.6907675266265869
 outer loop
  vertex 449500.0 5535500.0 3714.800048828125
  vertex 450500.0 5534500.0 3488.10009765625
  vertex 449500.0 5534500.0 4332.89990234375
 endloop
endfacet
facet normal -0.19073191285133362 0.0316903330385685 -0.9811305403709412
 outer loop
  vertex 449500.0 5535500.0 3714.800048828125
  vertex 450500.0 5535500.0 3520.39990234375
  vertex 450500.0 5534500.0 3488.10009765625
 endloop
endfacet
facet normal 0.02600965090095997 -0.11753886193037033 -0.9927276372909546
 outer loop
  vertex 438500.0 5536500.0 4750.39990234375
  vertex 439500.0 5535500.0 4895.0
  vertex 438500.0 5535500.0 4868.7998046875
 endloop
endfacet
facet normal -0.03472113609313965 -0.1769508272409439 -0.9836070537567139
 outer loop
  vertex 438500.0 5536500.0 4750.39990234375
  vertex 439500.0 5536500.0 4715.10009765625
  vertex 439500.0 5535500.0 4895.0
 endloop
endfacet
facet normal 0.01417097169905901 -0.17703980207443237 -0.9841016530990601
 outer loop
  vertex 439500.0 5536500.0 4715.10009765625
  vertex 440500.0 5535500.0 4909.39990234375
  vertex 439500.0 5535500.0 4895.0
 endloop
endfacet
facet normal -0.19845303893089294 -0.3744428753852844 -0.9057642817497253
 outer loop
  vertex 439500.0 5536500.0 4715.10009765625
  vertex 440500.0 5536500.0 4496.0
  vertex 440500.0 5535500.0 4909.39990234375
 endloop
endfacet
facet normal -0.2625254690647125 -0.3686414361000061 -0.8917308449745178
 outer loop
  vertex 440500.0 5536500.0 4496.0
  vertex 441500.0 5535500.0 4615.0
  vertex 440500.0 5535500.0 4909.39990234375
 endloop
endfacet
facet normal 0.13036756217479706 0.01239235419780016 -0.9913883209228516
 outer loop
  vertex 440500.0 5536500.0 4496.0
  vertex 441500.0 5536500.0 4627.5
  vertex 441500.0 5535500.0 4615.0
 endloop
endfacet
facet normal -0.20793688297271729 0.012225822545588017 -0.9780658483505249
 outer loop
  vertex 441500.0 5536500.0 4627.5
  vertex 442500.0 5535500.0 4402.39990234375
  vertex 441500.0 5535500.0 4615.0
 endloop
endfacet
facet normal -0.4280077815055847 -0.231345996260643 -0.8736637234687805
 outer loop
  vertex 441500.0 5536500.0 4627.5
  vertex 442500.0 5536500.0 4137.60009765625
  vertex 442500.0 5535500.0 4402.39990234375
 endloop
endfacet
facet normal -0.29997941851615906 -0.2441885620355606 -0.9221628904342651
 outer loop
  vertex 442500.0 5536500.0 4137.60009765625
  vertex 443500.0 5535500.0 4077.10009765625
  vertex 442500.0 5535500.0 4402.39990234375
 endloop
endfacet
facet normal -0.17705245316028595 -0.11793731153011322 -0.9771096110343933
 outer loop
  vertex 442500.0 5536500.0 4137.60009765625
  vertex 443500.0 5536500.0 3956.39990234375
  vertex 443500.0 5535500.0 4077.10009765625
 endloop
endfacet
facet normal -0.1033887192606926 -0.11918830871582031 -0.9874740242958069
 outer loop
  vertex 443500.0 5536500.0 3956.39990234375
  vertex 444500.0 5535500.0 3972.39990234375
  vertex 443500.0 5535500.0 4077.10009765625
 endloop
endfacet
facet normal -0.06790132820606232 -0.08380798250436783 -0.9941657781600952
 outer loop
  vertex 443500.0 5536500.0 3956.39990234375
  vertex 444500.0 5536500.0 3888.10009765625
  vertex 444500.0 5535500.0 3972.39990234375
 endloop
endfacet
facet normal 0.02042328380048275 -0.08398433029651642 -0.9962577223777771
 outer loop
  vertex 444500.0 5536500.0 3888.10009765625
  vertex 445500.0 5535500.0 3992.89990234375
  vertex 444500.0 5535500.0 3972.39990234375
 endloop
endfacet
facet normal -0.09702637791633606 -0.19922082126140594 -0.9751394987106323
 outer loop
  vertex 444500.0 5536500.0 3888.10009765625
  vertex 445500.0 5536500.0 3788.60009765625
  vertex 445500.0 5535500.0 3992.89990234375
 endloop
endfacet
facet normal 0.02732529491186142 -0.20009048283100128 -0.9793963432312012
 outer loop
  vertex 445500.0 5536500.0 3788.60009765625
  vertex 446500.0 5535500.0 4020.800048828125
  vertex 445500.0 5535500.0 3992.89990234375
 endloop
endfacet
facet normal -0.06974413245916367 -0.2912839949131012 -0.9540908932685852
 outer loop
  vertex 445500.0 5536500.0 3788.60009765625
  vertex 446500.0 5536500.0 3715.5
  vertex 446500.0 5535500.0 4020.800048828125
 endloop
endfacet
facet normal -0.05081576853990555 -0.2916177809238434 -0.9551841616630554
 outer loop
  vertex 446500.0 5536500.0 3715.5
  vertex 447500.0 5535500.0 3967.60009765625
  vertex 446500.0 5535500.0 4020.800048828125
 endloop
endfacet
facet normal 0.1747809201478958 -0.07276001572608948 -0.981915295124054
 outer loop
  vertex 446500.0 5536500.0 3715.5
  vertex 447500.0 5536500.0 3893.5
  vertex 447500.0 5535500.0 3967.60009765625
 endloop
endfacet
facet normal 0.07409209758043289 -0.0736943781375885 -0.9945247769355774
 outer loop
  vertex 447500.0 5536500.0 3893.5
  vertex 448500.0 5535500.0 4042.10009765625
  vertex 447500.0 5535500.0 3967.60009765625
 endloop
endfacet
facet normal -0.05371958762407303 -0.19912487268447876 -0.9785006046295166
 outer loop
  vertex 447500.0 5536500.0 3893.5
  vertex 448500.0 5536500.0 3838.60009765625
  vertex 448500.0 5535500.0 4042.10009765625
 endloop
endfacet
facet normal -0.3054031431674957 -0.18988551199436188 -0.9330983757972717
 outer loop
  vertex 448500.0 5536500.0 3838.60009765625
  vertex 449500.0 5535500.0 3714.800048828125
  vertex 448500.0 5535500.0 4042.10009765625
 endloop
endfacet
facet normal -0.26688459515571594 -0.14900976419448853 -0.9521389603614807
 outer loop
  vertex 448500.0 5536500.0 3838.60009765625
  vertex 449500.0 5536500.0 3558.300048828125
  vertex 449500.0 5535500.0 3714.800048828125
 endloop
endfacet
facet normal -0.18861505389213562 -0.15184275805950165 -0.9702413082122803
 outer loop
  vertex 449500.0 5536500.0 3558.300048828125
  vertex 450500.0 5535500.0 3520.39990234375
  vertex 449500.0 5535500.0 3714.800048828125
 endloop
endfacet
facet normal -0.2125917375087738 -0.11546511203050613 -0.9702950716018677
 outer loop
  vertex 439500.0 5537500.0 4596.10009765625
  vertex 440500.0 5536500.0 4496.0
  vertex 439500.0 5536500.0 4715.10009765625
 endloop
endfacet
facet normal -0.24288173019886017 -0.14689888060092926 -0.9588687419891357
 outer loop
  vertex 439500.0 5537500.0 4596.10009765625
  vertex 440500.0 5537500.0 4342.7998046875
  vertex 440500.0 5536500.0 4496.0
 endloop
endfacet
facet normal 0.12889911234378815 -0.15017010271549225 -0.9802213907241821
 outer loop
  vertex 440500.0 5537500.0 4342.7998046875
  vertex 441500.0 5536500.0 4627.5
  vertex 440500.0 5536500.0 4496.0
 endloop
endfacet
facet normal -0.11351356655359268 -0.3754046559333801 -0.9198837876319885
 outer loop
  vertex 440500.0 5537500.0 4342.7998046875
  vertex 441500.0 5537500.0 4219.39990234375
  vertex 441500.0 5536500.0 4627.5
 endloop
endfacet
facet normal -0.41307616233825684 -0.3441038131713867 -0.8431848287582397
 outer loop
  vertex 441500.0 5537500.0 4219.39990234375
  vertex 442500.0 5536500.0 4137.60009765625
  vertex 441500.0 5536500.0 4627.5
 endloop
endfacet
facet normal -0.2444586157798767 -0.16631607711315155 -0.9552899599075317
 outer loop
  vertex 441500.0 5537500.0 4219.39990234375
  vertex 442500.0 5537500.0 3963.5
  vertex 442500.0 5536500.0 4137.60009765625
 endloop
endfacet
facet normal -0.17573672533035278 -0.16885071992874146 -0.9698485136032104
 outer loop
  vertex 442500.0 5537500.0 3963.5
  vertex 443500.0 5536500.0 3956.39990234375
  vertex 442500.0 5536500.0 4137.60009765625
 endloop
endfacet
facet normal -0.0013000258477404714 0.005799946375191212 -0.9999822974205017
 outer loop
  vertex 442500.0 5537500.0 3963.5
  vertex 443500.0 5537500.0 3962.199951171875
  vertex 443500.0 5536500.0 3956.39990234375
 endloop
endfacet
facet normal -0.06813991069793701 0.0057864710688591 -0.9976589679718018
 outer loop
  vertex 443500.0 5537500.0 3962.199951171875
  vertex 444500.0 5536500.0 3888.10009765625
  vertex 443500.0 5536500.0 3956.39990234375
 endloop
endfacet
facet normal -0.026560522615909576 0.04742976650595665 -0.9985213875770569
 outer loop
  vertex 443500.0 5537500.0 3962.199951171875
  vertex 444500.0 5537500.0 3935.60009765625
  vertex 444500.0 5536500.0 3888.10009765625
 endloop
endfacet
facet normal -0.0989006757736206 0.04721388965845108 -0.9939766526222229
 outer loop
  vertex 444500.0 5537500.0 3935.60009765625
  vertex 445500.0 5536500.0 3788.60009765625
  vertex 444500.0 5536500.0 3888.10009765625
 endloop
endfacet
facet normal -0.07837559282779694 0.0678325966000557 -0.9946134686470032
 outer loop
  vertex 444500.0 5537500.0 3935.60009765625
  vertex 445500.0 5537500.0 3856.800048828125
  vertex 445500.0 5536500.0 3788.60009765625
 endloop
endfacet
facet normal -0.07273750007152557 0.0678616613149643 -0.995039701461792
 outer loop
  vertex 445500.0 5537500.0 3856.800048828125
  vertex 446500.0 5536500.0 3715.5
  vertex 445500.0 5536500.0 3788.60009765625
 endloop
endfacet
facet normal 0.03610845282673836 0.17513112723827362 -0.9838827848434448
 outer loop
  vertex 445500.0 5537500.0 3856.800048828125
  vertex 446500.0 5537500.0 3893.5
  vertex 446500.0 5536500.0 3715.5
 endloop
endfacet
facet normal 0.17261487245559692 0.17261487245559692 -0.969746470451355
 outer loop
  vertex 446500.0 5537500.0 3893.5
  vertex 447500.0 5536500.0 3893.5
  vertex 446500.0 5536500.0 3715.5
 endloop
endfacet
facet normal -0.03555506467819214 -0.03555506467819214 -0.9987350106239319
 outer loop
  vertex 446500.0 5537500.0 3893.5
  vertex 447500.0 5537500.0 3857.89990234375
  vertex 447500.0 5536500.0 3893.5
 endloop
endfacet
facet normal -0.05478275567293167 -0.03552413359284401 -0.9978662133216858
 outer loop
  vertex 447500.0 5537500.0 3857.89990234375
  vertex 448500.0 5536500.0 3838.60009765625
  vertex 447500.0 5536500.0 3893.5
 endloop
endfacet
facet normal -0.30934539437294006 -0.2918781042098999 -0.9050484299659729
 outer loop
  vertex 447500.0 5537500.0 3857.89990234375
  vertex 448500.0 5537500.0 3516.10009765625
  vertex 448500.0 5536500.0 3838.60009765625
 endloop
endfacet
facet normal -0.2577561140060425 -0.29656198620796204 -0.9195720553398132
 outer loop
  vertex 448500.0 5537500.0 3516.10009765625
  vertex 449500.0 5536500.0 3558.300048828125
  vertex 448500.0 5536500.0 3838.60009765625
 endloop
endfacet
facet normal -0.24546454846858978 -0.025680232793092728 -0.9690653681755066
 outer loop
  vertex 439500.0 5538500.0 4569.60009765625
  vertex 440500.0 5537500.0 4342.7998046875
  vertex 439500.0 5537500.0 4596.10009765625
 endloop
endfacet
facet normal -0.08604244887828827 0.1377466470003128 -0.9867231249809265
 outer loop
  vertex 439500.0 5538500.0 4569.60009765625
  vertex 440500.0 5538500.0 4482.39990234375
  vertex 440500.0 5537500.0 4342.7998046875
 endloop
endfacet
facet normal -0.12131215631961823 0.1372382640838623 -0.9830814003944397
 outer loop
  vertex 440500.0 5538500.0 4482.39990234375
  vertex 441500.0 5537500.0 4219.39990234375
  vertex 440500.0 5537500.0 4342.7998046875
 endloop
endfacet
facet normal -0.41170811653137207 -0.17657405138015747 -0.8940458297729492
 outer loop
  vertex 440500.0 5538500.0 4482.39990234375
  vertex 441500.0 5538500.0 4021.89990234375
  vertex 441500.0 5537500.0 4219.39990234375
 endloop
endfacet
facet normal -0.2434944063425064 -0.18792560696601868 -0.9515221118927002
 outer loop
  vertex 441500.0 5538500.0 4021.89990234375
  vertex 442500.0 5537500.0 3963.5
  vertex 441500.0 5537500.0 4219.39990234375
 endloop
endfacet
facet normal -0.08841122686862946 -0.03026687540113926 -0.9956241250038147
 outer loop
  vertex 441500.0 5538500.0 4021.89990234375
  vertex 442500.0 5538500.0 3933.10009765625
  vertex 442500.0 5537500.0 3963.5
 endloop
endfacet
facet normal -0.0012994473800063133 -0.030385838821530342 -0.9995374083518982
 outer loop
  vertex 442500.0 5538500.0 3933.10009765625
  vertex 443500.0 5537500.0 3962.199951171875
  vertex 442500.0 5537500.0 3963.5
 endloop
endfacet
facet normal -0.18132144212722778 -0.20928339660167694 -0.9608969688415527
 outer loop
  vertex 442500.0 5538500.0 3933.10009765625
  vertex 443500.0 5538500.0 3744.39990234375
  vertex 443500.0 5537500.0 3962.199951171875
 endloop
endfacet
facet normal -0.02598177269101143 -0.21273913979530334 -0.9767635464668274
 outer loop
  vertex 443500.0 5538500.0 3744.39990234375
  vertex 444500.0 5537500.0 3935.60009765625
  vertex 443500.0 5537500.0 3962.199951171875
 endloop
endfacet
facet normal 0.0434897281229496 -0.14549310505390167 -0.9884029626846313
 outer loop
  vertex 443500.0 5538500.0 3744.39990234375
  vertex 444500.0 5538500.0 3788.39990234375
  vertex 444500.0 5537500.0 3935.60009765625
 endloop
endfacet
facet normal -0.07772412151098251 -0.14519034326076508 -0.9863461852073669
 outer loop
  vertex 444500.0 5538500.0 3788.39990234375
  vertex 445500.0 5537500.0 3856.800048828125
  vertex 444500.0 5537500.0 3935.60009765625
 endloop
endfacet
facet normal 0.04863313212990761 -0.019672825932502747 -0.9986229538917542
 outer loop
  vertex 444500.0 5538500.0 3788.39990234375
  vertex 445500.0 5538500.0 3837.10009765625
  vertex 445500.0 5537500.0 3856.800048828125
 endloop
endfacet
facet normal 0.03666815906763077 -0.019682884216308594 -0.9991336464881897
 outer loop
  vertex 445500.0 5538500.0 3837.10009765625
  vertex 446500.0 5537500.0 3893.5
  vertex 445500.0 5537500.0 3856.800048828125
 endloop
endfacet
facet normal -0.2456647753715515 -0.2976943254470825 -0.9225111603736877
 outer loop
  vertex 445500.0 5538500.0 3837.10009765625
  vertex 446500.0 5538500.0 3570.800048828125
  vertex 446500.0 5537500.0 3893.5
 endloop
endfacet
facet normal -0.033860307186841965 -0.3069295287132263 -0.9511297345161438
 outer loop
  vertex 446500.0 5538500.0 3570.800048828125
  vertex 447500.0 5537500.0 3857.89990234375
  vertex 446500.0 5537500.0 3893.5
 endloop
endfacet
facet normal -0.06797365844249725 -0.33752045035362244 -0.9388607740402222
 outer loop
  vertex 446500.0 5538500.0 3570.800048828125
  vertex 447500.0 5538500.0 3498.39990234375
  vertex 447500.0 5537500.0 3857.89990234375
 endloop
endfacet
facet normal -0.30619707703590393 -0.32205358147621155 -0.8958374857902527
 outer loop
  vertex 447500.0 5538500.0 3498.39990234375
  vertex 448500.0 5537500.0 3516.10009765625
  vertex 447500.0 5537500.0 3857.89990234375
 endloop
endfacet
facet normal -0.0884004756808281 -0.03404615446925163 -0.9955030083656311
 outer loop
  vertex 441500.0 5539500.0 3987.699951171875
  vertex 442500.0 5538500.0 3933.10009765625
  vertex 441500.0 5538500.0 4021.89990234375
 endloop
endfacet
facet normal -0.05232798308134079 0.002196929883211851 -0.9986274838447571
 outer loop
  vertex 441500.0 5539500.0 3987.699951171875
  vertex 442500.0 5539500.0 3935.300048828125
  vertex 442500.0 5538500.0 3933.10009765625
 endloop
endfacet
facet normal -0.18542730808258057 0.0021617943421006203 -0.9826556444168091
 outer loop
  vertex 442500.0 5539500.0 3935.300048828125
  vertex 443500.0 5538500.0 3744.39990234375
  vertex 442500.0 5538500.0 3933.10009765625
 endloop
endfacet
facet normal -0.06853161752223969 0.1205248013138771 -0.9903419613838196
 outer loop
  vertex 442500.0 5539500.0 3935.300048828125
  vertex 443500.0 5539500.0 3866.10009765625
  vertex 443500.0 5538500.0 3744.39990234375
 endloop
endfacet
facet normal 0.04363613203167915 0.12069376558065414 -0.991730272769928
 outer loop
  vertex 443500.0 5539500.0 3866.10009765625
  vertex 444500.0 5538500.0 3788.39990234375
  vertex 443500.0 5538500.0 3744.39990234375
 endloop
endfacet
facet normal -0.1953607201576233 -0.11972767859697342 -0.973395824432373
 outer loop
  vertex 443500.0 5539500.0 3866.10009765625
  vertex 444500.0 5539500.0 3665.39990234375
  vertex 444500.0 5538500.0 3788.39990234375
 endloop
endfacet
facet normal 0.04827955365180969 -0.12193762511014938 -0.9913628101348877
 outer loop
  vertex 444500.0 5539500.0 3665.39990234375
  vertex 445500.0 5538500.0 3837.10009765625
  vertex 444500.0 5538500.0 3788.39990234375
 endloop
endfacet
facet normal -0.11197949945926666 -0.2758919894695282 -0.9546434879302979
 outer loop
  vertex 444500.0 5539500.0 3665.39990234375
  vertex 445500.0 5539500.0 3548.10009765625
  vertex 445500.0 5538500.0 3837.10009765625
 endloop
endfacet
facet normal -0.24784845113754272 -0.26897555589675903 -0.9307112097740173
 outer loop
  vertex 445500.0 5539500.0 3548.10009765625
  vertex 446500.0 5538500.0 3570.800048828125
  vertex 445500.0 5538500.0 3837.10009765625
 endloop
endfacet
facet normal -0.018481161445379257 -0.041158001869916916 -0.9989817142486572
 outer loop
  vertex 445500.0 5539500.0 3548.10009765625
  vertex 446500.0 5539500.0 3529.60009765625
  vertex 446500.0 5538500.0 3570.800048828125
 endloop
endfacet
facet normal -0.07215024530887604 -0.04105774313211441 -0.9965483546257019
 outer loop
  vertex 446500.0 5539500.0 3529.60009765625
  vertex 447500.0 5538500.0 3498.39990234375
  vertex 446500.0 5538500.0 3570.800048828125
 endloop
endfacet
facet normal -0.0686221569776535 -0.10918080806732178 -0.991650402545929
 outer loop
  vertex 442500.0 5540500.0 3825.199951171875
  vertex 443500.0 5539500.0 3866.10009765625
  vertex 442500.0 5539500.0 3935.300048828125
 endloop
endfacet
facet normal -0.09343065321445465 -0.13378259539604187 -0.9865966439247131
 outer loop
  vertex 442500.0 5540500.0 3825.199951171875
  vertex 443500.0 5540500.0 3730.5
  vertex 443500.0 5539500.0 3866.10009765625
 endloop
endfacet
facet normal -0.1950598508119583 -0.13178928196430206 -0.9718967080116272
 outer loop
  vertex 443500.0 5540500.0 3730.5
  vertex 444500.0 5539500.0 3665.39990234375
  vertex 443500.0 5539500.0 3866.10009765625
 endloop
endfacet
facet normal -0.19751302897930145 -0.13429708778858185 -0.971057653427124
 outer loop
  vertex 443500.0 5540500.0 3730.5
  vertex 444500.0 5540500.0 3527.10009765625
  vertex 444500.0 5539500.0 3665.39990234375
 endloop
endfacet
facet normal -0.11541734635829926 -0.13608033955097198 -0.9839516878128052
 outer loop
  vertex 444500.0 5540500.0 3527.10009765625
  vertex 445500.0 5539500.0 3548.10009765625
  vertex 444500.0 5539500.0 3665.39990234375
 endloop
endfacet
facet normal -0.00899558886885643 -0.029985295608639717 -0.999509871006012
 outer loop
  vertex 444500.0 5540500.0 3527.10009765625
  vertex 445500.0 5540500.0 3518.10009765625
  vertex 445500.0 5539500.0 3548.10009765625
 endloop
endfacet
facet normal -0.01848851889371872 -0.029981384053826332 -0.9993794560432434
 outer loop
  vertex 445500.0 5540500.0 3518.10009765625
  vertex 446500.0 5539500.0 3529.60009765625
  vertex 445500.0 5539500.0 3548.10009765625
 endloop
endfacet
facet normal -0.19310279190540314 -0.24778689444065094 -0.9493750333786011
 outer loop
  vertex 443500.0 5541500.0 3469.5
  vertex 444500.0 5540500.0 3527.10009765625
  vertex 443500.0 5540500.0 3730.5
 endloop
endfacet
facet normal -0.003992400597780943 -0.06148306280374527 -0.9981001019477844
 outer loop
  vertex 443500.0 5541500.0 3469.5
  vertex 444500.0 5541500.0 3465.5
  vertex 444500.0 5540500.0 3527.10009765625
 endloop
endfacet
facet normal -0.008982609957456589 -0.06148107349872589 -0.9980677962303162
 outer loop
  vertex 444500.0 5541500.0 3465.5
  vertex 445500.0 5540500.0 3518.10009765625
  vertex 444500.0 5540500.0 3527.10009765625
 endloop
endfacet
endsolid
