solid
facet normal 0.19357255101203918 0.24571742117404938 -0.9498171210289001
 outer loop
  vertex 367500.0 5462500.0 5544.10009765625
  vertex 368500.0 5462500.0 5747.89990234375
  vertex 368500.0 5461500.0 5489.2001953125
 endloop
endfacet
facet normal -0.20704708993434906 0.24502742290496826 -0.9471499919891357
 outer loop
  vertex 368500.0 5462500.0 5747.89990234375
  vertex 369500.0 5461500.0 5270.60009765625
  vertex 368500.0 5461500.0 5489.2001953125
 endloop
endfacet
facet normal -0.14758452773094177 0.30195093154907227 -0.9418303370475769
 outer loop
  vertex 368500.0 5462500.0 5747.89990234375
  vertex 369500.0 5462500.0 5591.2001953125
  vertex 369500.0 5461500.0 5270.60009765625
 endloop
endfacet
facet normal -0.44786426424980164 0.04687577858567238 -0.8928719758987427
 outer loop
  vertex 363500.0 5463500.0 6075.2998046875
  vertex 364500.0 5463500.0 5573.7001953125
  vertex 364500.0 5462500.0 5521.2001953125
 endloop
endfacet
facet normal -0.3989716172218323 0.04807436466217041 -0.9157021641731262
 outer loop
  vertex 364500.0 5463500.0 5573.7001953125
  vertex 365500.0 5462500.0 5085.5
  vertex 364500.0 5462500.0 5521.2001953125
 endloop
endfacet
facet normal -0.053857557475566864 0.3940671980381012 -0.917502224445343
 outer loop
  vertex 364500.0 5463500.0 5573.7001953125
  vertex 365500.0 5463500.0 5515.0
  vertex 365500.0 5462500.0 5085.5
 endloop
endfacet
facet normal 0.6161109209060669 0.3108418881893158 -0.72372967004776
 outer loop
  vertex 365500.0 5463500.0 5515.0
  vertex 366500.0 5462500.0 5936.7998046875
  vertex 365500.0 5462500.0 5085.5
 endloop
endfacet
facet normal 0.29818540811538696 -0.10211526602506638 -0.9490299820899963
 outer loop
  vertex 365500.0 5463500.0 5515.0
  vertex 366500.0 5463500.0 5829.2001953125
  vertex 366500.0 5462500.0 5936.7998046875
 endloop
endfacet
facet normal -0.3637058436870575 -0.09965530037879944 -0.9261678457260132
 outer loop
  vertex 366500.0 5463500.0 5829.2001953125
  vertex 367500.0 5462500.0 5544.10009765625
  vertex 366500.0 5462500.0 5936.7998046875
 endloop
endfacet
facet normal 0.15142855048179626 0.4081014096736908 -0.9002902507781982
 outer loop
  vertex 366500.0 5463500.0 5829.2001953125
  vertex 367500.0 5463500.0 5997.39990234375
  vertex 367500.0 5462500.0 5544.10009765625
 endloop
endfacet
facet normal 0.1825021356344223 0.4059286415576935 -0.8954970836639404
 outer loop
  vertex 367500.0 5463500.0 5997.39990234375
  vertex 368500.0 5462500.0 5747.89990234375
  vertex 367500.0 5462500.0 5544.10009765625
 endloop
endfacet
facet normal -0.4112739861011505 -0.18878282606601715 -0.8917481303215027
 outer loop
  vertex 367500.0 5463500.0 5997.39990234375
  vertex 368500.0 5463500.0 5536.2001953125
  vertex 368500.0 5462500.0 5747.89990234375
 endloop
endfacet
facet normal -0.15153183043003082 -0.2047179490327835 -0.9670205116271973
 outer loop
  vertex 368500.0 5463500.0 5536.2001953125
  vertex 369500.0 5462500.0 5591.2001953125
  vertex 368500.0 5462500.0 5747.89990234375
 endloop
endfacet
facet normal -0.04729852452874184 -0.10195006430149078 -0.9936644434928894
 outer loop
  vertex 368500.0 5463500.0 5536.2001953125
  vertex 369500.0 5463500.0 5488.60009765625
  vertex 369500.0 5462500.0 5591.2001953125
 endloop
endfacet
facet normal 0.03380311653017998 -0.1020059660077095 -0.9942092895507812
 outer loop
  vertex 369500.0 5463500.0 5488.60009765625
  vertex 370500.0 5462500.0 5625.2001953125
  vertex 369500.0 5462500.0 5591.2001953125
 endloop
endfacet
facet normal 0.1869667023420334 0.05297060310840607 -0.9809370636940002
 outer loop
  vertex 369500.0 5463500.0 5488.60009765625
  vertex 370500.0 5463500.0 5679.2001953125
  vertex 370500.0 5462500.0 5625.2001953125
 endloop
endfacet
facet normal -0.38855260610580444 0.04968464747071266 -0.9200860261917114
 outer loop
  vertex 370500.0 5463500.0 5679.2001953125
  vertex 371500.0 5462500.0 5202.89990234375
  vertex 370500.0 5462500.0 5625.2001953125
 endloop
endfacet
facet normal -0.40755435824394226 0.027200972661376 -0.9127756953239441
 outer loop
  vertex 370500.0 5463500.0 5679.2001953125
  vertex 371500.0 5463500.0 5232.7001953125
  vertex 371500.0 5462500.0 5202.89990234375
 endloop
endfacet
facet normal 0.28651145100593567 0.3424358069896698 -0.8947898149490356
 outer loop
  vertex 362500.0 5464500.0 6137.7998046875
  vertex 363500.0 5463500.0 6075.2998046875
  vertex 362500.0 5463500.0 5755.10009765625
 endloop
endfacet
facet normal -0.1836496889591217 -0.12269314378499985 -0.9753046631813049
 outer loop
  vertex 362500.0 5464500.0 6137.7998046875
  vertex 363500.0 5464500.0 5949.5
  vertex 363500.0 5463500.0 6075.2998046875
 endloop
endfacet
facet normal -0.4455491602420807 -0.11174250394105911 -0.8882565498352051
 outer loop
  vertex 363500.0 5464500.0 5949.5
  vertex 364500.0 5463500.0 5573.7001953125
  vertex 363500.0 5463500.0 6075.2998046875
 endloop
endfacet
facet normal -0.13833461701869965 0.2241908758878708 -0.9646771550178528
 outer loop
  vertex 363500.0 5464500.0 5949.5
  vertex 364500.0 5464500.0 5806.10009765625
  vertex 364500.0 5463500.0 5573.7001953125
 endloop
endfacet
facet normal -0.05708321928977966 0.2259981632232666 -0.972453773021698
 outer loop
  vertex 364500.0 5464500.0 5806.10009765625
  vertex 365500.0 5463500.0 5515.0
  vertex 364500.0 5463500.0 5573.7001953125
 endloop
endfacet
facet normal 0.11100532114505768 0.3785029351711273 -0.9189196825027466
 outer loop
  vertex 364500.0 5464500.0 5806.10009765625
  vertex 365500.0 5464500.0 5926.89990234375
  vertex 365500.0 5463500.0 5515.0
 endloop
endfacet
facet normal 0.2789852023124695 0.36573493480682373 -0.8879218697547913
 outer loop
  vertex 365500.0 5464500.0 5926.89990234375
  vertex 366500.0 5463500.0 5829.2001953125
  vertex 365500.0 5463500.0 5515.0
 endloop
endfacet
facet normal 0.015003250911831856 0.11207633465528488 -0.9935863614082336
 outer loop
  vertex 365500.0 5464500.0 5926.89990234375
  vertex 366500.0 5464500.0 5942.0
  vertex 366500.0 5463500.0 5829.2001953125
 endloop
endfacet
facet normal 0.16485296189785004 0.11055538058280945 -0.9801025986671448
 outer loop
  vertex 366500.0 5464500.0 5942.0
  vertex 367500.0 5463500.0 5997.39990234375
  vertex 366500.0 5463500.0 5829.2001953125
 endloop
endfacet
facet normal -0.3009718060493469 -0.3501136302947998 -0.8870379328727722
 outer loop
  vertex 366500.0 5464500.0 5942.0
  vertex 367500.0 5464500.0 5602.7001953125
  vertex 367500.0 5463500.0 5997.39990234375
 endloop
endfacet
facet normal -0.394246369600296 -0.33740031719207764 -0.854827880859375
 outer loop
  vertex 367500.0 5464500.0 5602.7001953125
  vertex 368500.0 5463500.0 5536.2001953125
  vertex 367500.0 5463500.0 5997.39990234375
 endloop
endfacet
facet normal -0.012680836021900177 0.05371779575943947 -0.9984756112098694
 outer loop
  vertex 367500.0 5464500.0 5602.7001953125
  vertex 368500.0 5464500.0 5590.0
  vertex 368500.0 5463500.0 5536.2001953125
 endloop
endfacet
facet normal -0.04747776314616203 0.0536615327000618 -0.9974298477172852
 outer loop
  vertex 368500.0 5464500.0 5590.0
  vertex 369500.0 5463500.0 5488.60009765625
  vertex 368500.0 5463500.0 5536.2001953125
 endloop
endfacet
facet normal -0.18223446607589722 -0.08288738131523132 -0.9797552227973938
 outer loop
  vertex 368500.0 5464500.0 5590.0
  vertex 369500.0 5464500.0 5404.0
  vertex 369500.0 5463500.0 5488.60009765625
 endloop
endfacet
facet normal 0.18658635020256042 -0.08281854540109634 -0.9789415597915649
 outer loop
  vertex 369500.0 5464500.0 5404.0
  vertex 370500.0 5463500.0 5679.2001953125
  vertex 369500.0 5463500.0 5488.60009765625
 endloop
endfacet
facet normal -0.042911116033792496 -0.3047541677951813 -0.9514639377593994
 outer loop
  vertex 369500.0 5464500.0 5404.0
  vertex 370500.0 5464500.0 5358.89990234375
  vertex 370500.0 5463500.0 5679.2001953125
 endloop
endfacet
facet normal -0.3913123905658722 -0.28071102499961853 -0.8763995170593262
 outer loop
  vertex 370500.0 5464500.0 5358.89990234375
  vertex 371500.0 5463500.0 5232.7001953125
  vertex 370500.0 5463500.0 5679.2001953125
 endloop
endfacet
facet normal -0.15089821815490723 -0.026187364012002945 -0.9882023930549622
 outer loop
  vertex 370500.0 5464500.0 5358.89990234375
  vertex 371500.0 5464500.0 5206.2001953125
  vertex 371500.0 5463500.0 5232.7001953125
 endloop
endfacet
facet normal -0.1691206991672516 -0.40587204694747925 -0.898145854473114
 outer loop
  vertex 362500.0 5465500.0 5685.89990234375
  vertex 363500.0 5464500.0 5949.5
  vertex 362500.0 5464500.0 6137.7998046875
 endloop
endfacet
facet normal 0.15219877660274506 -0.10680468380451202 -0.9825621247291565
 outer loop
  vertex 362500.0 5465500.0 5685.89990234375
  vertex 363500.0 5465500.0 5840.7998046875
  vertex 363500.0 5464500.0 5949.5
 endloop
endfacet
facet normal -0.14113321900367737 -0.10698200017213821 -0.9841932654380798
 outer loop
  vertex 363500.0 5465500.0 5840.7998046875
  vertex 364500.0 5464500.0 5806.10009765625
  vertex 363500.0 5464500.0 5949.5
 endloop
endfacet
facet normal -0.432837575674057 -0.40488940477371216 -0.805429220199585
 outer loop
  vertex 363500.0 5465500.0 5840.7998046875
  vertex 364500.0 5465500.0 5303.39990234375
  vertex 364500.0 5464500.0 5806.10009765625
 endloop
endfacet
facet normal 0.10730662196874619 -0.4465492069721222 -0.8883012533187866
 outer loop
  vertex 364500.0 5465500.0 5303.39990234375
  vertex 365500.0 5464500.0 5926.89990234375
  vertex 364500.0 5464500.0 5806.10009765625
 endloop
endfacet
facet normal 0.24743986129760742 -0.3222742974758148 -0.913735568523407
 outer loop
  vertex 364500.0 5465500.0 5303.39990234375
  vertex 365500.0 5465500.0 5574.2001953125
  vertex 365500.0 5464500.0 5926.89990234375
 endloop
endfacet
facet normal 0.014238876290619373 -0.33258387446403503 -0.942966103553772
 outer loop
  vertex 365500.0 5465500.0 5574.2001953125
  vertex 366500.0 5464500.0 5942.0
  vertex 365500.0 5464500.0 5926.89990234375
 endloop
endfacet
facet normal 0.2551797330379486 -0.09859004616737366 -0.961854100227356
 outer loop
  vertex 365500.0 5465500.0 5574.2001953125
  vertex 366500.0 5465500.0 5839.5
  vertex 366500.0 5464500.0 5942.0
 endloop
endfacet
facet normal -0.3198053240776062 -0.09661085903644562 -0.9425449371337891
 outer loop
  vertex 366500.0 5465500.0 5839.5
  vertex 367500.0 5464500.0 5602.7001953125
  vertex 366500.0 5464500.0 5942.0
 endloop
endfacet
facet normal -0.042769309133291245 0.18951834738254547 -0.9809452891349792
 outer loop
  vertex 366500.0 5465500.0 5839.5
  vertex 367500.0 5465500.0 5795.89990234375
  vertex 367500.0 5464500.0 5602.7001953125
 endloop
endfacet
facet normal -0.012468644417822361 0.1896771639585495 -0.9817673563957214
 outer loop
  vertex 367500.0 5465500.0 5795.89990234375
  vertex 368500.0 5464500.0 5590.0
  vertex 367500.0 5464500.0 5602.7001953125
 endloop
endfacet
facet normal -0.42753517627716064 -0.24857711791992188 -0.8691507577896118
 outer loop
  vertex 367500.0 5465500.0 5795.89990234375
  vertex 368500.0 5465500.0 5304.0
  vertex 368500.0 5464500.0 5590.0
 endloop
endfacet
facet normal -0.1760372519493103 -0.2706809341907501 -0.946436882019043
 outer loop
  vertex 368500.0 5465500.0 5304.0
  vertex 369500.0 5464500.0 5404.0
  vertex 368500.0 5464500.0 5590.0
 endloop
endfacet
facet normal 0.12642909586429596 0.027269020676612854 -0.991600751876831
 outer loop
  vertex 368500.0 5465500.0 5304.0
  vertex 369500.0 5465500.0 5431.5
  vertex 369500.0 5464500.0 5404.0
 endloop
endfacet
facet normal -0.04503730311989784 0.027461713179945946 -0.9986077547073364
 outer loop
  vertex 369500.0 5465500.0 5431.5
  vertex 370500.0 5464500.0 5358.89990234375
  vertex 369500.0 5464500.0 5404.0
 endloop
endfacet
facet normal -0.21409811079502106 -0.143955796957016 -0.9661462903022766
 outer loop
  vertex 369500.0 5465500.0 5431.5
  vertex 370500.0 5465500.0 5209.89990234375
  vertex 370500.0 5464500.0 5358.89990234375
 endloop
endfacet
facet normal -0.1493387073278427 -0.145720437169075 -0.9779894948005676
 outer loop
  vertex 370500.0 5465500.0 5209.89990234375
  vertex 371500.0 5464500.0 5206.2001953125
  vertex 370500.0 5464500.0 5358.89990234375
 endloop
endfacet
facet normal -0.22155240178108215 -0.2180359810590744 -0.9504603147506714
 outer loop
  vertex 370500.0 5465500.0 5209.89990234375
  vertex 371500.0 5465500.0 4976.7998046875
  vertex 371500.0 5464500.0 5206.2001953125
 endloop
endfacet
facet normal 0.1525818556547165 -0.22097450494766235 -0.9632699489593506
 outer loop
  vertex 371500.0 5465500.0 4976.7998046875
  vertex 372500.0 5464500.0 5364.60009765625
  vertex 371500.0 5464500.0 5206.2001953125
 endloop
endfacet
facet normal 0.1459796130657196 0.3009125888347626 -0.9424125552177429
 outer loop
  vertex 362500.0 5466500.0 6005.2001953125
  vertex 363500.0 5465500.0 5840.7998046875
  vertex 362500.0 5465500.0 5685.89990234375
 endloop
endfacet
facet normal -0.4342133402824402 -0.29424306750297546 -0.8513987064361572
 outer loop
  vertex 362500.0 5466500.0 6005.2001953125
  vertex 363500.0 5466500.0 5495.2001953125
  vertex 363500.0 5465500.0 5840.7998046875
 endloop
endfacet
facet normal -0.4528554379940033 -0.2912294268608093 -0.8426786661148071
 outer loop
  vertex 363500.0 5466500.0 5495.2001953125
  vertex 364500.0 5465500.0 5303.39990234375
  vertex 363500.0 5465500.0 5840.7998046875
 endloop
endfacet
facet normal -0.023266879841685295 0.16582532227039337 -0.9858806729316711
 outer loop
  vertex 363500.0 5466500.0 5495.2001953125
  vertex 364500.0 5466500.0 5471.60009765625
  vertex 364500.0 5465500.0 5303.39990234375
 endloop
endfacet
facet normal 0.2580075263977051 0.1602543145418167 -0.9527594447135925
 outer loop
  vertex 364500.0 5466500.0 5471.60009765625
  vertex 365500.0 5465500.0 5574.2001953125
  vertex 364500.0 5465500.0 5303.39990234375
 endloop
endfacet
facet normal 0.026514282450079918 -0.075754813849926 -0.996773898601532
 outer loop
  vertex 364500.0 5466500.0 5471.60009765625
  vertex 365500.0 5466500.0 5498.2001953125
  vertex 365500.0 5465500.0 5574.2001953125
 endloop
endfacet
facet normal 0.2557399272918701 -0.07326139509677887 -0.9639657139778137
 outer loop
  vertex 365500.0 5466500.0 5498.2001953125
  vertex 366500.0 5465500.0 5839.5
  vertex 365500.0 5465500.0 5574.2001953125
 endloop
endfacet
facet normal -0.06728830188512802 -0.38188397884368896 -0.9217575192451477
 outer loop
  vertex 365500.0 5466500.0 5498.2001953125
  vertex 366500.0 5466500.0 5425.2001953125
  vertex 366500.0 5465500.0 5839.5
 endloop
endfacet
facet normal -0.040247365832328796 -0.38244131207466125 -0.9231027960777283
 outer loop
  vertex 366500.0 5466500.0 5425.2001953125
  vertex 367500.0 5465500.0 5795.89990234375
  vertex 366500.0 5465500.0 5839.5
 endloop
endfacet
facet normal 0.07824709266424179 -0.2767869234085083 -0.9577402472496033
 outer loop
  vertex 366500.0 5466500.0 5425.2001953125
  vertex 367500.0 5466500.0 5506.89990234375
  vertex 367500.0 5465500.0 5795.89990234375
 endloop
endfacet
facet normal -0.42725691199302673 -0.2510210871696472 -0.8685850501060486
 outer loop
  vertex 367500.0 5466500.0 5506.89990234375
  vertex 368500.0 5465500.0 5304.0
  vertex 367500.0 5465500.0 5795.89990234375
 endloop
endfacet
facet normal 0.2986244559288025 0.467448353767395 -0.8320549726486206
 outer loop
  vertex 367500.0 5466500.0 5506.89990234375
  vertex 368500.0 5466500.0 5865.7998046875
  vertex 368500.0 5465500.0 5304.0
 endloop
endfacet
facet normal 0.11047866195440292 0.4867991507053375 -0.8664993047714233
 outer loop
  vertex 368500.0 5466500.0 5865.7998046875
  vertex 369500.0 5465500.0 5431.5
  vertex 368500.0 5465500.0 5304.0
 endloop
endfacet
facet normal -0.18805745244026184 0.22694963216781616 -0.9555774331092834
 outer loop
  vertex 368500.0 5466500.0 5865.7998046875
  vertex 369500.0 5466500.0 5669.0
  vertex 369500.0 5465500.0 5431.5
 endloop
endfacet
facet normal -0.21075992286205292 0.22588203847408295 -0.9510822892189026
 outer loop
  vertex 369500.0 5466500.0 5669.0
  vertex 370500.0 5465500.0 5209.89990234375
  vertex 369500.0 5465500.0 5431.5
 endloop
endfacet
facet normal -0.418504536151886 -0.001543707214295864 -0.9082133769989014
 outer loop
  vertex 369500.0 5466500.0 5669.0
  vertex 370500.0 5466500.0 5208.2001953125
  vertex 370500.0 5465500.0 5209.89990234375
 endloop
endfacet
facet normal -0.22701388597488403 -0.0016553278546780348 -0.9738901257514954
 outer loop
  vertex 370500.0 5466500.0 5208.2001953125
  vertex 371500.0 5465500.0 4976.7998046875
  vertex 370500.0 5465500.0 5209.89990234375
 endloop
endfacet
facet normal -0.028971977531909943 -0.5603179335594177 -0.8277708292007446
 outer loop
  vertex 358500.0 5467500.0 5945.10009765625
  vertex 359500.0 5467500.0 5910.10009765625
  vertex 359500.0 5466500.0 6587.0
 endloop
endfacet
facet normal -0.05387118086218834 -0.39352473616600037 -0.9177343249320984
 outer loop
  vertex 361500.0 5467500.0 5635.10009765625
  vertex 362500.0 5467500.0 5576.39990234375
  vertex 362500.0 5466500.0 6005.2001953125
 endloop
endfacet
facet normal -0.4244154095649719 -0.356842041015625 -0.8321870565414429
 outer loop
  vertex 362500.0 5467500.0 5576.39990234375
  vertex 363500.0 5466500.0 5495.2001953125
  vertex 362500.0 5466500.0 6005.2001953125
 endloop
endfacet
facet normal 0.0367194302380085 0.11730340123176575 -0.99241703748703
 outer loop
  vertex 362500.0 5467500.0 5576.39990234375
  vertex 363500.0 5467500.0 5613.39990234375
  vertex 363500.0 5466500.0 5495.2001953125
 endloop
endfacet
facet normal -0.02343052253127098 0.11735033243894577 -0.9928141236305237
 outer loop
  vertex 363500.0 5467500.0 5613.39990234375
  vertex 364500.0 5466500.0 5471.60009765625
  vertex 363500.0 5466500.0 5495.2001953125
 endloop
endfacet
facet normal -0.1974709928035736 -0.05871293693780899 -0.9785489439964294
 outer loop
  vertex 363500.0 5467500.0 5613.39990234375
  vertex 364500.0 5467500.0 5411.60009765625
  vertex 364500.0 5466500.0 5471.60009765625
 endloop
endfacet
facet normal 0.026542987674474716 -0.059871189296245575 -0.99785315990448
 outer loop
  vertex 364500.0 5467500.0 5411.60009765625
  vertex 365500.0 5466500.0 5498.2001953125
  vertex 364500.0 5466500.0 5471.60009765625
 endloop
endfacet
facet normal -0.16140595078468323 -0.24421250820159912 -0.9561947584152222
 outer loop
  vertex 364500.0 5467500.0 5411.60009765625
  vertex 365500.0 5467500.0 5242.7998046875
  vertex 365500.0 5466500.0 5498.2001953125
 endloop
endfacet
facet normal -0.07055336236953735 -0.2468404918909073 -0.9664843678474426
 outer loop
  vertex 365500.0 5467500.0 5242.7998046875
  vertex 366500.0 5466500.0 5425.2001953125
  vertex 365500.0 5466500.0 5498.2001953125
 endloop
endfacet
facet normal -0.012268219143152237 -0.19128645956516266 -0.9814575910568237
 outer loop
  vertex 365500.0 5467500.0 5242.7998046875
  vertex 366500.0 5467500.0 5230.2998046875
  vertex 366500.0 5466500.0 5425.2001953125
 endloop
endfacet
facet normal 0.07993422448635101 -0.19068871438503265 -0.978390634059906
 outer loop
  vertex 366500.0 5467500.0 5230.2998046875
  vertex 367500.0 5466500.0 5506.89990234375
  vertex 366500.0 5466500.0 5425.2001953125
 endloop
endfacet
facet normal -0.13616761565208435 -0.3882693350315094 -0.9114303588867188
 outer loop
  vertex 366500.0 5467500.0 5230.2998046875
  vertex 367500.0 5467500.0 5080.89990234375
  vertex 367500.0 5466500.0 5506.89990234375
 endloop
endfacet
facet normal 0.31353816390037537 -0.37215742468833923 -0.8736090064048767
 outer loop
  vertex 367500.0 5467500.0 5080.89990234375
  vertex 368500.0 5466500.0 5865.7998046875
  vertex 367500.0 5466500.0 5506.89990234375
 endloop
endfacet
facet normal 0.00173258560243994 -0.6163517236709595 -0.7874690294265747
 outer loop
  vertex 367500.0 5467500.0 5080.89990234375
  vertex 368500.0 5467500.0 5083.10009765625
  vertex 368500.0 5466500.0 5865.7998046875
 endloop
endfacet
facet normal -0.15314584970474243 -0.6090819239616394 -0.7781808972358704
 outer loop
  vertex 368500.0 5467500.0 5083.10009765625
  vertex 369500.0 5466500.0 5669.0
  vertex 368500.0 5466500.0 5865.7998046875
 endloop
endfacet
facet normal -0.029888641089200974 -0.5273787975311279 -0.8491044044494629
 outer loop
  vertex 368500.0 5467500.0 5083.10009765625
  vertex 369500.0 5467500.0 5047.89990234375
  vertex 369500.0 5466500.0 5669.0
 endloop
endfacet
facet normal -0.36451053619384766 -0.4913142919540405 -0.7910388112068176
 outer loop
  vertex 369500.0 5467500.0 5047.89990234375
  vertex 370500.0 5466500.0 5208.2001953125
  vertex 369500.0 5466500.0 5669.0
 endloop
endfacet
facet normal 0.012166853062808514 -0.14639441668987274 -0.9891514778137207
 outer loop
  vertex 369500.0 5467500.0 5047.89990234375
  vertex 370500.0 5467500.0 5060.2001953125
  vertex 370500.0 5466500.0 5208.2001953125
 endloop
endfacet
facet normal 0.4842589795589447 0.12258075922727585 -0.8662951588630676
 outer loop
  vertex 357500.0 5468500.0 5527.60009765625
  vertex 358500.0 5468500.0 6086.60009765625
  vertex 358500.0 5467500.0 5945.10009765625
 endloop
endfacet
facet normal -0.034633997827768326 0.14002029597759247 -0.9895427823066711
 outer loop
  vertex 358500.0 5468500.0 6086.60009765625
  vertex 359500.0 5467500.0 5910.10009765625
  vertex 358500.0 5467500.0 5945.10009765625
 endloop
endfacet
facet normal 0.22364412248134613 0.3819167912006378 -0.8967289924621582
 outer loop
  vertex 358500.0 5468500.0 6086.60009765625
  vertex 359500.0 5468500.0 6336.0
  vertex 359500.0 5467500.0 5910.10009765625
 endloop
endfacet
facet normal 0.06618896871805191 0.3909825384616852 -0.9180150628089905
 outer loop
  vertex 359500.0 5468500.0 6336.0
  vertex 360500.0 5467500.0 5982.2001953125
  vertex 359500.0 5467500.0 5910.10009765625
 endloop
endfacet
facet normal -0.2542056739330292 0.08659747242927551 -0.9632654786109924
 outer loop
  vertex 359500.0 5468500.0 6336.0
  vertex 360500.0 5468500.0 6072.10009765625
  vertex 360500.0 5467500.0 5982.2001953125
 endloop
endfacet
facet normal -0.32673248648643494 0.08462464064359665 -0.9413206577301025
 outer loop
  vertex 360500.0 5468500.0 6072.10009765625
  vertex 361500.0 5467500.0 5635.10009765625
  vertex 360500.0 5467500.0 5982.2001953125
 endloop
endfacet
facet normal -0.10823515802621841 0.3052159249782562 -0.9461122751235962
 outer loop
  vertex 360500.0 5468500.0 6072.10009765625
  vertex 361500.0 5468500.0 5957.7001953125
  vertex 361500.0 5467500.0 5635.10009765625
 endloop
endfacet
facet normal -0.05577818304300308 0.3065415620803833 -0.950221598148346
 outer loop
  vertex 361500.0 5468500.0 5957.7001953125
  vertex 362500.0 5467500.0 5576.39990234375
  vertex 361500.0 5467500.0 5635.10009765625
 endloop
endfacet
facet normal -0.10108379274606705 0.26460057497024536 -0.9590457081794739
 outer loop
  vertex 361500.0 5468500.0 5957.7001953125
  vertex 362500.0 5468500.0 5852.2998046875
  vertex 362500.0 5467500.0 5576.39990234375
 endloop
endfacet
facet normal 0.035644713789224625 0.26579388976097107 -0.963370680809021
 outer loop
  vertex 362500.0 5468500.0 5852.2998046875
  vertex 363500.0 5467500.0 5613.39990234375
  vertex 362500.0 5467500.0 5576.39990234375
 endloop
endfacet
facet normal -0.2380491942167282 -0.006021365523338318 -0.9712344408035278
 outer loop
  vertex 362500.0 5468500.0 5852.2998046875
  vertex 363500.0 5468500.0 5607.2001953125
  vertex 363500.0 5467500.0 5613.39990234375
 endloop
endfacet
facet normal -0.19780856370925903 -0.006077087949961424 -0.9802218079566956
 outer loop
  vertex 363500.0 5468500.0 5607.2001953125
  vertex 364500.0 5467500.0 5411.60009765625
  vertex 363500.0 5467500.0 5613.39990234375
 endloop
endfacet
facet normal 0.0892762616276741 0.27644112706184387 -0.9568751454353333
 outer loop
  vertex 363500.0 5468500.0 5607.2001953125
  vertex 364500.0 5468500.0 5700.5
  vertex 364500.0 5467500.0 5411.60009765625
 endloop
endfacet
facet normal -0.16007712483406067 0.2739703059196472 -0.948322594165802
 outer loop
  vertex 364500.0 5468500.0 5700.5
  vertex 365500.0 5467500.0 5242.7998046875
  vertex 364500.0 5467500.0 5411.60009765625
 endloop
endfacet
facet normal 0.0912914127111435 0.488477885723114 -0.8677874803543091
 outer loop
  vertex 364500.0 5468500.0 5700.5
  vertex 365500.0 5468500.0 5805.7001953125
  vertex 365500.0 5467500.0 5242.7998046875
 endloop
endfacet
facet normal -0.01089218445122242 0.4904971718788147 -0.8713747262954712
 outer loop
  vertex 365500.0 5468500.0 5805.7001953125
  vertex 366500.0 5467500.0 5230.2998046875
  vertex 365500.0 5467500.0 5242.7998046875
 endloop
endfacet
facet normal -0.4999668598175049 -0.0016454275464639068 -0.866042971611023
 outer loop
  vertex 365500.0 5468500.0 5805.7001953125
  vertex 366500.0 5468500.0 5228.39990234375
  vertex 366500.0 5467500.0 5230.2998046875
 endloop
endfacet
facet normal -0.14775972068309784 -0.0018790442263707519 -0.9890214800834656
 outer loop
  vertex 366500.0 5468500.0 5228.39990234375
  vertex 367500.0 5467500.0 5080.89990234375
  vertex 366500.0 5467500.0 5230.2998046875
 endloop
endfacet
facet normal 0.41463497281074524 0.5243366360664368 -0.7437398433685303
 outer loop
  vertex 366500.0 5468500.0 5228.39990234375
  vertex 367500.0 5468500.0 5785.89990234375
  vertex 367500.0 5467500.0 5080.89990234375
 endloop
endfacet
facet normal 0.0017982267308980227 0.5762008428573608 -0.8173061013221741
 outer loop
  vertex 367500.0 5468500.0 5785.89990234375
  vertex 368500.0 5467500.0 5083.10009765625
  vertex 367500.0 5467500.0 5080.89990234375
 endloop
endfacet
facet normal 0.18894964456558228 0.6840789914131165 -0.7045097351074219
 outer loop
  vertex 367500.0 5468500.0 5785.89990234375
  vertex 368500.0 5468500.0 6054.10009765625
  vertex 368500.0 5467500.0 5083.10009765625
 endloop
endfacet
facet normal -0.025245727971196175 0.6964054107666016 -0.7172043323516846
 outer loop
  vertex 368500.0 5468500.0 6054.10009765625
  vertex 369500.0 5467500.0 5047.89990234375
  vertex 368500.0 5467500.0 5083.10009765625
 endloop
endfacet
facet normal -0.46630117297172546 0.3508220911026001 -0.8120881915092468
 outer loop
  vertex 368500.0 5468500.0 6054.10009765625
  vertex 369500.0 5468500.0 5479.89990234375
  vertex 369500.0 5467500.0 5047.89990234375
 endloop
endfacet
facet normal 0.011290958151221275 0.3965514302253723 -0.9179431200027466
 outer loop
  vertex 369500.0 5468500.0 5479.89990234375
  vertex 370500.0 5467500.0 5060.2001953125
  vertex 369500.0 5467500.0 5047.89990234375
 endloop
endfacet
facet normal 0.21448561549186707 0.5525233745574951 -0.8054276704788208
 outer loop
  vertex 369500.0 5468500.0 5479.89990234375
  vertex 370500.0 5468500.0 5746.2001953125
  vertex 370500.0 5467500.0 5060.2001953125
 endloop
endfacet
facet normal 0.3011656701564789 0.5394247174263 -0.7863333821296692
 outer loop
  vertex 370500.0 5468500.0 5746.2001953125
  vertex 371500.0 5467500.0 5443.2001953125
  vertex 370500.0 5467500.0 5060.2001953125
 endloop
endfacet
facet normal -0.17722348868846893 0.11879967153072357 -0.9769741296768188
 outer loop
  vertex 370500.0 5468500.0 5746.2001953125
  vertex 371500.0 5468500.0 5564.7998046875
  vertex 371500.0 5467500.0 5443.2001953125
 endloop
endfacet
facet normal 0.13900220394134521 -0.16682219505310059 -0.9761397242546082
 outer loop
  vertex 355500.0 5469500.0 5749.2001953125
  vertex 356500.0 5469500.0 5891.60009765625
  vertex 356500.0 5468500.0 6062.5
 endloop
endfacet
facet normal -0.46639731526374817 -0.14901341497898102 -0.8719338178634644
 outer loop
  vertex 356500.0 5469500.0 5891.60009765625
  vertex 357500.0 5468500.0 5527.60009765625
  vertex 356500.0 5468500.0 6062.5
 endloop
endfacet
facet normal -0.09076932817697525 0.2592313885688782 -0.9615404009819031
 outer loop
  vertex 356500.0 5469500.0 5891.60009765625
  vertex 357500.0 5469500.0 5797.2001953125
  vertex 357500.0 5468500.0 5527.60009765625
 endloop
endfacet
facet normal 0.4749643802642822 0.22907055914402008 -0.8496679067611694
 outer loop
  vertex 357500.0 5469500.0 5797.2001953125
  vertex 358500.0 5468500.0 6086.60009765625
  vertex 357500.0 5468500.0 5527.60009765625
 endloop
endfacet
facet normal 0.21842163801193237 -0.06339403241872787 -0.9737932085990906
 outer loop
  vertex 357500.0 5469500.0 5797.2001953125
  vertex 358500.0 5469500.0 6021.5
  vertex 358500.0 5468500.0 6086.60009765625
 endloop
endfacet
facet normal 0.24150627851486206 -0.06303964555263519 -0.9683495163917542
 outer loop
  vertex 358500.0 5469500.0 6021.5
  vertex 359500.0 5468500.0 6336.0
  vertex 358500.0 5468500.0 6086.60009765625
 endloop
endfacet
facet normal -0.1971752643585205 -0.46808674931526184 -0.8614038825035095
 outer loop
  vertex 358500.0 5469500.0 6021.5
  vertex 359500.0 5469500.0 5792.60009765625
  vertex 359500.0 5468500.0 6336.0
 endloop
endfacet
facet normal -0.22588351368904114 -0.465119868516922 -0.8559439778327942
 outer loop
  vertex 359500.0 5469500.0 5792.60009765625
  vertex 360500.0 5468500.0 6072.10009765625
  vertex 359500.0 5468500.0 6336.0
 endloop
endfacet
facet normal 0.2695405185222626 0.00038510531885549426 -0.9629889726638794
 outer loop
  vertex 359500.0 5469500.0 5792.60009765625
  vertex 360500.0 5469500.0 6072.5
  vertex 360500.0 5468500.0 6072.10009765625
 endloop
endfacet
facet normal -0.11365857720375061 0.0003973109123762697 -0.9935198426246643
 outer loop
  vertex 360500.0 5469500.0 6072.5
  vertex 361500.0 5468500.0 5957.7001953125
  vertex 360500.0 5468500.0 6072.10009765625
 endloop
endfacet
facet normal -0.4556026756763458 -0.36225423216819763 -0.813140869140625
 outer loop
  vertex 360500.0 5469500.0 6072.5
  vertex 361500.0 5469500.0 5512.2001953125
  vertex 361500.0 5468500.0 5957.7001953125
 endloop
endfacet
facet normal -0.09583517163991928 -0.40507039427757263 -0.9092488884925842
 outer loop
  vertex 361500.0 5469500.0 5512.2001953125
  vertex 362500.0 5468500.0 5852.2998046875
  vertex 361500.0 5468500.0 5957.7001953125
 endloop
endfacet
facet normal -0.1382400393486023 -0.4400070607662201 -0.8872900009155273
 outer loop
  vertex 361500.0 5469500.0 5512.2001953125
  vertex 362500.0 5469500.0 5356.39990234375
  vertex 362500.0 5468500.0 5852.2998046875
 endloop
endfacet
facet normal -0.21447299420833588 -0.43393436074256897 -0.8750442266464233
 outer loop
  vertex 362500.0 5469500.0 5356.39990234375
  vertex 363500.0 5468500.0 5607.2001953125
  vertex 362500.0 5468500.0 5852.2998046875
 endloop
endfacet
facet normal 0.11272786557674408 -0.13419075310230255 -0.9845228791236877
 outer loop
  vertex 362500.0 5469500.0 5356.39990234375
  vertex 363500.0 5469500.0 5470.89990234375
  vertex 363500.0 5468500.0 5607.2001953125
 endloop
endfacet
facet normal 0.09205253422260284 -0.13447818160057068 -0.9866316318511963
 outer loop
  vertex 363500.0 5469500.0 5470.89990234375
  vertex 364500.0 5468500.0 5700.5
  vertex 363500.0 5468500.0 5607.2001953125
 endloop
endfacet
facet normal 0.31443363428115845 0.09763485938310623 -0.9442451596260071
 outer loop
  vertex 363500.0 5469500.0 5470.89990234375
  vertex 364500.0 5469500.0 5803.89990234375
  vertex 364500.0 5468500.0 5700.5
 endloop
endfacet
facet normal 0.10407404601573944 0.10229302197694778 -0.9892950654029846
 outer loop
  vertex 364500.0 5469500.0 5803.89990234375
  vertex 365500.0 5468500.0 5805.7001953125
  vertex 364500.0 5468500.0 5700.5
 endloop
endfacet
facet normal 0.05543443560600281 0.05363950505852699 -0.9970204830169678
 outer loop
  vertex 364500.0 5469500.0 5803.89990234375
  vertex 365500.0 5469500.0 5859.5
  vertex 365500.0 5468500.0 5805.7001953125
 endloop
endfacet
facet normal -0.4994257390499115 0.04654251039028168 -0.8651055693626404
 outer loop
  vertex 365500.0 5469500.0 5859.5
  vertex 366500.0 5468500.0 5228.39990234375
  vertex 365500.0 5468500.0 5805.7001953125
 endloop
endfacet
facet normal -0.38261595368385315 0.1882326900959015 -0.9045293927192688
 outer loop
  vertex 365500.0 5469500.0 5859.5
  vertex 366500.0 5469500.0 5436.5
  vertex 366500.0 5468500.0 5228.39990234375
 endloop
endfacet
facet normal 0.47909054160118103 0.17883190512657166 -0.8593552112579346
 outer loop
  vertex 366500.0 5469500.0 5436.5
  vertex 367500.0 5468500.0 5785.89990234375
  vertex 366500.0 5468500.0 5228.39990234375
 endloop
endfacet
facet normal -0.26795220375061035 -0.5454344749450684 -0.7941680550575256
 outer loop
  vertex 366500.0 5469500.0 5436.5
  vertex 367500.0 5469500.0 5099.10009765625
  vertex 367500.0 5468500.0 5785.89990234375
 endloop
endfacet
facet normal 0.21586793661117554 -0.5527887940406799 -0.8048762083053589
 outer loop
  vertex 367500.0 5469500.0 5099.10009765625
  vertex 368500.0 5468500.0 6054.10009765625
  vertex 367500.0 5468500.0 5785.89990234375
 endloop
endfacet
facet normal 0.29572975635528564 -0.4883405566215515 -0.8210160136222839
 outer loop
  vertex 367500.0 5469500.0 5099.10009765625
  vertex 368500.0 5469500.0 5459.2998046875
  vertex 368500.0 5468500.0 6054.10009765625
 endloop
endfacet
facet normal -0.44254520535469055 -0.4584220349788666 -0.7707158923149109
 outer loop
  vertex 368500.0 5469500.0 5459.2998046875
  vertex 369500.0 5468500.0 5479.89990234375
  vertex 368500.0 5468500.0 6054.10009765625
 endloop
endfacet
facet normal 0.1230868250131607 0.10275325179100037 -0.9870620369911194
 outer loop
  vertex 368500.0 5469500.0 5459.2998046875
  vertex 369500.0 5469500.0 5584.0
  vertex 369500.0 5468500.0 5479.89990234375
 endloop
endfacet
facet normal 0.25603988766670227 0.1000891849398613 -0.9614706039428711
 outer loop
  vertex 369500.0 5469500.0 5584.0
  vertex 370500.0 5468500.0 5746.2001953125
  vertex 369500.0 5468500.0 5479.89990234375
 endloop
endfacet
facet normal -0.15055681765079498 0.07217222452163696 -0.9859634041786194
 outer loop
  vertex 351500.0 5470500.0 5947.39990234375
  vertex 352500.0 5469500.0 5721.5
  vertex 351500.0 5469500.0 5874.2001953125
 endloop
endfacet
facet normal -0.4875515401363373 -0.3025391399860382 -0.8190016746520996
 outer loop
  vertex 351500.0 5470500.0 5947.39990234375
  vertex 352500.0 5470500.0 5352.10009765625
  vertex 352500.0 5469500.0 5721.5
 endloop
endfacet
facet normal -0.12407499551773071 -0.34383612871170044 -0.9307964444160461
 outer loop
  vertex 352500.0 5470500.0 5352.10009765625
  vertex 353500.0 5469500.0 5588.2001953125
  vertex 352500.0 5469500.0 5721.5
 endloop
endfacet
facet normal 0.37969475984573364 0.1647680103778839 -0.9103204607963562
 outer loop
  vertex 352500.0 5470500.0 5352.10009765625
  vertex 353500.0 5470500.0 5769.2001953125
  vertex 353500.0 5469500.0 5588.2001953125
 endloop
endfacet
facet normal 0.41325968503952026 0.16218571364879608 -0.8960536122322083
 outer loop
  vertex 353500.0 5470500.0 5769.2001953125
  vertex 354500.0 5469500.0 6049.39990234375
  vertex 353500.0 5469500.0 5588.2001953125
 endloop
endfacet
facet normal 0.18622010946273804 -0.08797260373830795 -0.9785616993904114
 outer loop
  vertex 353500.0 5470500.0 5769.2001953125
  vertex 354500.0 5470500.0 5959.5
  vertex 354500.0 5469500.0 6049.39990234375
 endloop
endfacet
facet normal -0.2864634394645691 -0.08578634262084961 -0.9542428851127625
 outer loop
  vertex 354500.0 5470500.0 5959.5
  vertex 355500.0 5469500.0 5749.2001953125
  vertex 354500.0 5469500.0 6049.39990234375
 endloop
endfacet
facet normal -0.2844144105911255 -0.0835670754313469 -0.9550523161888123
 outer loop
  vertex 354500.0 5470500.0 5959.5
  vertex 355500.0 5470500.0 5661.7001953125
  vertex 355500.0 5469500.0 5749.2001953125
 endloop
endfacet
facet normal 0.14045172929763794 -0.08630290627479553 -0.9863189458847046
 outer loop
  vertex 355500.0 5470500.0 5661.7001953125
  vertex 356500.0 5469500.0 5891.60009765625
  vertex 355500.0 5469500.0 5749.2001953125
 endloop
endfacet
facet normal -0.16503684222698212 -0.37477633357048035 -0.912307858467102
 outer loop
  vertex 355500.0 5470500.0 5661.7001953125
  vertex 356500.0 5470500.0 5480.7998046875
  vertex 356500.0 5469500.0 5891.60009765625
 endloop
endfacet
facet normal -0.08698814362287521 -0.37854650616645813 -0.9214855432510376
 outer loop
  vertex 356500.0 5470500.0 5480.7998046875
  vertex 357500.0 5469500.0 5797.2001953125
  vertex 356500.0 5469500.0 5891.60009765625
 endloop
endfacet
facet normal 0.32860425114631653 0.029924331232905388 -0.9439935684204102
 outer loop
  vertex 356500.0 5470500.0 5480.7998046875
  vertex 357500.0 5470500.0 5828.89990234375
  vertex 357500.0 5469500.0 5797.2001953125
 endloop
endfacet
facet normal 0.21875721216201782 0.03091638907790184 -0.9752894043922424
 outer loop
  vertex 357500.0 5470500.0 5828.89990234375
  vertex 358500.0 5469500.0 6021.5
  vertex 357500.0 5469500.0 5797.2001953125
 endloop
endfacet
facet normal -0.37356796860694885 -0.5213380455970764 -0.7672377228736877
 outer loop
  vertex 357500.0 5470500.0 5828.89990234375
  vertex 358500.0 5470500.0 5342.0
  vertex 358500.0 5469500.0 6021.5
 endloop
endfacet
facet normal -0.1860227733850479 -0.5522172451019287 -0.8126817345619202
 outer loop
  vertex 358500.0 5470500.0 5342.0
  vertex 359500.0 5469500.0 5792.60009765625
  vertex 358500.0 5469500.0 6021.5
 endloop
endfacet
facet normal 0.4678710401058197 0.07091625779867172 -0.880946934223175
 outer loop
  vertex 358500.0 5470500.0 5342.0
  vertex 359500.0 5470500.0 5873.10009765625
  vertex 359500.0 5469500.0 5792.60009765625
 endloop
endfacet
facet normal 0.26873427629470825 0.07728873193264008 -0.9601085186004639
 outer loop
  vertex 359500.0 5470500.0 5873.10009765625
  vertex 360500.0 5469500.0 6072.5
  vertex 359500.0 5469500.0 5792.60009765625
 endloop
endfacet
facet normal -0.294113427400589 -0.4610537588596344 -0.8372137546539307
 outer loop
  vertex 359500.0 5470500.0 5873.10009765625
  vertex 360500.0 5470500.0 5521.7998046875
  vertex 360500.0 5469500.0 6072.5
 endloop
endfacet
facet normal -0.4405931234359741 -0.43304443359375 -0.7863524556159973
 outer loop
  vertex 360500.0 5470500.0 5521.7998046875
  vertex 361500.0 5469500.0 5512.2001953125
  vertex 360500.0 5469500.0 6072.5
 endloop
endfacet
facet normal 0.40612196922302246 0.4139426648616791 -0.8146880269050598
 outer loop
  vertex 360500.0 5470500.0 5521.7998046875
  vertex 361500.0 5470500.0 6020.2998046875
  vertex 361500.0 5469500.0 5512.2001953125
 endloop
endfacet
facet normal -0.13757824897766113 0.4486736059188843 -0.883042573928833
 outer loop
  vertex 361500.0 5470500.0 6020.2998046875
  vertex 362500.0 5469500.0 5356.39990234375
  vertex 361500.0 5469500.0 5512.2001953125
 endloop
endfacet
facet normal -0.3900531530380249 0.2057969719171524 -0.8974999785423279
 outer loop
  vertex 361500.0 5470500.0 6020.2998046875
  vertex 362500.0 5470500.0 5585.7001953125
  vertex 362500.0 5469500.0 5356.39990234375
 endloop
endfacet
facet normal 0.11091499775648117 0.22212089598178864 -0.9686899185180664
 outer loop
  vertex 362500.0 5470500.0 5585.7001953125
  vertex 363500.0 5469500.0 5470.89990234375
  vertex 362500.0 5469500.0 5356.39990234375
 endloop
endfacet
facet normal 0.3549579083919525 0.44908881187438965 -0.8199537396430969
 outer loop
  vertex 362500.0 5470500.0 5585.7001953125
  vertex 363500.0 5470500.0 6018.60009765625
  vertex 363500.0 5469500.0 5470.89990234375
 endloop
endfacet
facet normal 0.2803506553173065 0.46110543608665466 -0.8418939113616943
 outer loop
  vertex 363500.0 5470500.0 6018.60009765625
  vertex 364500.0 5469500.0 5803.89990234375
  vertex 363500.0 5469500.0 5470.89990234375
 endloop
endfacet
facet normal -0.35679540038108826 -0.1591586023569107 -0.920524537563324
 outer loop
  vertex 363500.0 5470500.0 6018.60009765625
  vertex 364500.0 5470500.0 5631.0
  vertex 364500.0 5469500.0 5803.89990234375
 endloop
endfacet
facet normal 0.054705169051885605 -0.17011694610118866 -0.983904242515564
 outer loop
  vertex 364500.0 5470500.0 5631.0
  vertex 365500.0 5469500.0 5859.5
  vertex 364500.0 5469500.0 5803.89990234375
 endloop
endfacet
facet normal 0.16606120765209198 -0.05886436253786087 -0.9843569397926331
 outer loop
  vertex 364500.0 5470500.0 5631.0
  vertex 365500.0 5470500.0 5799.7001953125
  vertex 365500.0 5469500.0 5859.5
 endloop
endfacet
facet normal -0.3889903724193573 -0.054991841316223145 -0.9195989966392517
 outer loop
  vertex 365500.0 5470500.0 5799.7001953125
  vertex 366500.0 5469500.0 5436.5
  vertex 365500.0 5469500.0 5859.5
 endloop
endfacet
facet normal -0.08815202862024307 0.2609948217868805 -0.9613068699836731
 outer loop
  vertex 365500.0 5470500.0 5799.7001953125
  vertex 366500.0 5470500.0 5708.0
  vertex 366500.0 5469500.0 5436.5
 endloop
endfacet
facet normal -0.3096127212047577 0.24914014339447021 -0.9176432490348816
 outer loop
  vertex 366500.0 5470500.0 5708.0
  vertex 367500.0 5469500.0 5099.10009765625
  vertex 366500.0 5469500.0 5436.5
 endloop
endfacet
facet normal -0.3579119145870209 0.1977546215057373 -0.9125745296478271
 outer loop
  vertex 366500.0 5470500.0 5708.0
  vertex 367500.0 5470500.0 5315.7998046875
  vertex 367500.0 5469500.0 5099.10009765625
 endloop
endfacet
facet normal 0.3320549726486206 0.1997675597667694 -0.9218635559082031
 outer loop
  vertex 367500.0 5470500.0 5315.7998046875
  vertex 368500.0 5469500.0 5459.2998046875
  vertex 367500.0 5469500.0 5099.10009765625
 endloop
endfacet
facet normal 0.17068156599998474 0.02934998646378517 -0.984889030456543
 outer loop
  vertex 367500.0 5470500.0 5315.7998046875
  vertex 368500.0 5470500.0 5489.10009765625
  vertex 368500.0 5469500.0 5459.2998046875
 endloop
endfacet
facet normal 0.123687744140625 0.029558340087532997 -0.9918808341026306
 outer loop
  vertex 368500.0 5470500.0 5489.10009765625
  vertex 369500.0 5469500.0 5584.0
  vertex 368500.0 5469500.0 5459.2998046875
 endloop
endfacet
facet normal -0.16313521564006805 -0.25361743569374084 -0.9534490704536438
 outer loop
  vertex 368500.0 5470500.0 5489.10009765625
  vertex 369500.0 5470500.0 5318.0
  vertex 369500.0 5469500.0 5584.0
 endloop
endfacet
facet normal -0.2568082809448242 -0.43634945154190063 -0.8623507022857666
 outer loop
  vertex 350500.0 5471500.0 5739.2001953125
  vertex 351500.0 5471500.0 5441.39990234375
  vertex 351500.0 5470500.0 5947.39990234375
 endloop
endfacet
facet normal -0.4691011309623718 -0.39873212575912476 -0.7880081534385681
 outer loop
  vertex 351500.0 5471500.0 5441.39990234375
  vertex 352500.0 5470500.0 5352.10009765625
  vertex 351500.0 5470500.0 5947.39990234375
 endloop
endfacet
facet normal 0.2702852189540863 0.3503662645816803 -0.8967660665512085
 outer loop
  vertex 351500.0 5471500.0 5441.39990234375
  vertex 352500.0 5471500.0 5742.7998046875
  vertex 352500.0 5470500.0 5352.10009765625
 endloop
endfacet
facet normal 0.3621322810649872 0.3392110764980316 -0.8682143092155457
 outer loop
  vertex 352500.0 5471500.0 5742.7998046875
  vertex 353500.0 5470500.0 5769.2001953125
  vertex 352500.0 5470500.0 5352.10009765625
 endloop
endfacet
facet normal 0.443681001663208 0.42282021045684814 -0.7901709675788879
 outer loop
  vertex 352500.0 5471500.0 5742.7998046875
  vertex 353500.0 5471500.0 6304.2998046875
  vertex 353500.0 5470500.0 5769.2001953125
 endloop
endfacet
facet normal 0.16547523438930511 0.4652959704399109 -0.8695501685142517
 outer loop
  vertex 353500.0 5471500.0 6304.2998046875
  vertex 354500.0 5470500.0 5959.5
  vertex 353500.0 5470500.0 5769.2001953125
 endloop
endfacet
facet normal 0.04727675020694733 0.3675299882888794 -0.9288092255592346
 outer loop
  vertex 353500.0 5471500.0 6304.2998046875
  vertex 354500.0 5471500.0 6355.2001953125
  vertex 354500.0 5470500.0 5959.5
 endloop
endfacet
facet normal -0.2668663263320923 0.3545974791049957 -0.8961266279220581
 outer loop
  vertex 354500.0 5471500.0 6355.2001953125
  vertex 355500.0 5470500.0 5661.7001953125
  vertex 354500.0 5470500.0 5959.5
 endloop
endfacet
facet normal -0.3483279347419739 0.27346208691596985 -0.8965970277786255
 outer loop
  vertex 354500.0 5471500.0 6355.2001953125
  vertex 355500.0 5471500.0 5966.7001953125
  vertex 355500.0 5470500.0 5661.7001953125
 endloop
endfacet
facet normal -0.17049768567085266 0.28746095299720764 -0.9424949884414673
 outer loop
  vertex 355500.0 5471500.0 5966.7001953125
  vertex 356500.0 5470500.0 5480.7998046875
  vertex 355500.0 5470500.0 5661.7001953125
 endloop
endfacet
facet normal -0.12761226296424866 0.32731589674949646 -0.9362581372261047
 outer loop
  vertex 355500.0 5471500.0 5966.7001953125
  vertex 356500.0 5471500.0 5830.39990234375
  vertex 356500.0 5470500.0 5480.7998046875
 endloop
endfacet
facet normal 0.3121761977672577 0.3135213851928711 -0.8968000411987305
 outer loop
  vertex 356500.0 5471500.0 5830.39990234375
  vertex 357500.0 5470500.0 5828.89990234375
  vertex 356500.0 5470500.0 5480.7998046875
 endloop
endfacet
facet normal -0.4057149291038513 -0.4044854938983917 -0.8196260929107666
 outer loop
  vertex 356500.0 5471500.0 5830.39990234375
  vertex 357500.0 5471500.0 5335.39990234375
  vertex 357500.0 5470500.0 5828.89990234375
 endloop
endfacet
facet normal -0.4001462757587433 -0.4055704176425934 -0.8218245506286621
 outer loop
  vertex 357500.0 5471500.0 5335.39990234375
  vertex 358500.0 5470500.0 5342.0
  vertex 357500.0 5470500.0 5828.89990234375
 endloop
endfacet
facet normal 0.33994215726852417 0.3341401219367981 -0.8790845274925232
 outer loop
  vertex 357500.0 5471500.0 5335.39990234375
  vertex 358500.0 5471500.0 5722.10009765625
  vertex 358500.0 5470500.0 5342.0
 endloop
endfacet
facet normal 0.4446659982204437 0.31824052333831787 -0.8372545838356018
 outer loop
  vertex 358500.0 5471500.0 5722.10009765625
  vertex 359500.0 5470500.0 5873.10009765625
  vertex 358500.0 5470500.0 5342.0
 endloop
endfacet
facet normal -0.18753468990325928 -0.3273753523826599 -0.9260972142219543
 outer loop
  vertex 358500.0 5471500.0 5722.10009765625
  vertex 359500.0 5471500.0 5519.60009765625
  vertex 359500.0 5470500.0 5873.10009765625
 endloop
endfacet
facet normal -0.3144170641899109 -0.31638583540916443 -0.895009458065033
 outer loop
  vertex 359500.0 5471500.0 5519.60009765625
  vertex 360500.0 5470500.0 5521.7998046875
  vertex 359500.0 5470500.0 5873.10009765625
 endloop
endfacet
facet normal 0.4762527644634247 0.47462454438209534 -0.7402127385139465
 outer loop
  vertex 359500.0 5471500.0 5519.60009765625
  vertex 360500.0 5471500.0 6163.0
  vertex 360500.0 5470500.0 5521.7998046875
 endloop
endfacet
facet normal 0.3869529962539673 0.4977218508720398 -0.7762347459793091
 outer loop
  vertex 360500.0 5471500.0 6163.0
  vertex 361500.0 5470500.0 6020.2998046875
  vertex 360500.0 5470500.0 5521.7998046875
 endloop
endfacet
facet normal 0.3235859274864197 0.44290319085121155 -0.8361393809318542
 outer loop
  vertex 360500.0 5471500.0 6163.0
  vertex 361500.0 5471500.0 6550.0
  vertex 361500.0 5470500.0 6020.2998046875
 endloop
endfacet
facet normal -0.35851767659187317 0.4369697570800781 -0.8249378800392151
 outer loop
  vertex 361500.0 5471500.0 6550.0
  vertex 362500.0 5470500.0 5585.7001953125
  vertex 361500.0 5470500.0 6020.2998046875
 endloop
endfacet
facet normal -0.3896111845970154 0.40704259276390076 -0.8261473774909973
 outer loop
  vertex 361500.0 5471500.0 6550.0
  vertex 362500.0 5471500.0 6078.39990234375
  vertex 362500.0 5470500.0 5585.7001953125
 endloop
endfacet
facet normal 0.36198943853378296 0.4119938313961029 -0.8361966013908386
 outer loop
  vertex 362500.0 5471500.0 6078.39990234375
  vertex 363500.0 5470500.0 6018.60009765625
  vertex 362500.0 5470500.0 5585.7001953125
 endloop
endfacet
facet normal 0.29033297300338745 0.3437376320362091 -0.8930571675300598
 outer loop
  vertex 362500.0 5471500.0 6078.39990234375
  vertex 363500.0 5471500.0 6403.5
  vertex 363500.0 5470500.0 6018.60009765625
 endloop
endfacet
facet normal -0.34015953540802 0.3377898335456848 -0.8776043653488159
 outer loop
  vertex 363500.0 5471500.0 6403.5
  vertex 364500.0 5470500.0 5631.0
  vertex 363500.0 5470500.0 6018.60009765625
 endloop
endfacet
facet normal -0.1398143172264099 0.5139776468276978 -0.8463326692581177
 outer loop
  vertex 363500.0 5471500.0 6403.5
  vertex 364500.0 5471500.0 6238.2998046875
  vertex 364500.0 5470500.0 5631.0
 endloop
endfacet
facet normal 0.14271675050258636 0.5137626528739929 -0.8459786176681519
 outer loop
  vertex 364500.0 5471500.0 6238.2998046875
  vertex 365500.0 5470500.0 5799.7001953125
  vertex 364500.0 5470500.0 5631.0
 endloop
endfacet
facet normal -0.2862100303173065 0.13014689087867737 -0.949286937713623
 outer loop
  vertex 364500.0 5471500.0 6238.2998046875
  vertex 365500.0 5471500.0 5936.7998046875
  vertex 365500.0 5470500.0 5799.7001953125
 endloop
endfacet
facet normal -0.09047772735357285 0.13527190685272217 -0.9866688251495361
 outer loop
  vertex 365500.0 5471500.0 5936.7998046875
  vertex 366500.0 5470500.0 5708.0
  vertex 365500.0 5470500.0 5799.7001953125
 endloop
endfacet
facet normal -0.2927493155002594 -0.07464097440242767 -0.9532714486122131
 outer loop
  vertex 365500.0 5471500.0 5936.7998046875
  vertex 366500.0 5471500.0 5629.7001953125
  vertex 366500.0 5470500.0 5708.0
 endloop
endfacet
facet normal -0.3641562759876251 -0.07270105183124542 -0.9284959435462952
 outer loop
  vertex 366500.0 5471500.0 5629.7001953125
  vertex 367500.0 5470500.0 5315.7998046875
  vertex 366500.0 5470500.0 5708.0
 endloop
endfacet
facet normal -0.353745698928833 -0.060761772096157074 -0.9333659410476685
 outer loop
  vertex 366500.0 5471500.0 5629.7001953125
  vertex 367500.0 5471500.0 5250.7001953125
  vertex 367500.0 5470500.0 5315.7998046875
 endloop
endfacet
facet normal 0.17040492594242096 -0.06401197612285614 -0.9832927584648132
 outer loop
  vertex 367500.0 5471500.0 5250.7001953125
  vertex 368500.0 5470500.0 5489.10009765625
  vertex 367500.0 5470500.0 5315.7998046875
 endloop
endfacet
facet normal 0.6032377481460571 0.44553205370903015 -0.6615175008773804
 outer loop
  vertex 367500.0 5471500.0 5250.7001953125
  vertex 368500.0 5471500.0 6162.60009765625
  vertex 368500.0 5470500.0 5489.10009765625
 endloop
endfacet
facet normal -0.14050690829753876 0.5530761480331421 -0.821196973323822
 outer loop
  vertex 368500.0 5471500.0 6162.60009765625
  vertex 369500.0 5470500.0 5318.0
  vertex 368500.0 5470500.0 5489.10009765625
 endloop
endfacet
facet normal -0.3878936171531677 0.3367578387260437 -0.8579817414283752
 outer loop
  vertex 368500.0 5471500.0 6162.60009765625
  vertex 369500.0 5471500.0 5710.5
  vertex 369500.0 5470500.0 5318.0
 endloop
endfacet
facet normal 0.2735336124897003 0.3514302372932434 -0.8953636884689331
 outer loop
  vertex 369500.0 5471500.0 5710.5
  vertex 370500.0 5470500.0 5623.5
  vertex 369500.0 5470500.0 5318.0
 endloop
endfacet
facet normal 0.4923846423625946 0.5510019063949585 -0.6737613081932068
 outer loop
  vertex 369500.0 5471500.0 5710.5
  vertex 370500.0 5471500.0 6441.2998046875
  vertex 370500.0 5470500.0 5623.5
 endloop
endfacet
facet normal -0.28530749678611755 -0.02720898576080799 -0.9580497145652771
 outer loop
  vertex 350500.0 5472500.0 5710.7998046875
  vertex 351500.0 5471500.0 5441.39990234375
  vertex 350500.0 5471500.0 5739.2001953125
 endloop
endfacet
facet normal -0.31919771432876587 -0.06448228657245636 -0.9454919099807739
 outer loop
  vertex 350500.0 5472500.0 5710.7998046875
  vertex 351500.0 5472500.0 5373.2001953125
  vertex 351500.0 5471500.0 5441.39990234375
 endloop
endfacet
facet normal 0.2879641056060791 -0.06515948474407196 -0.9554218649864197
 outer loop
  vertex 351500.0 5472500.0 5373.2001953125
  vertex 352500.0 5471500.0 5742.7998046875
  vertex 351500.0 5471500.0 5441.39990234375
 endloop
endfacet
facet normal 0.5652227997779846 0.2781848907470703 -0.776618480682373
 outer loop
  vertex 351500.0 5472500.0 5373.2001953125
  vertex 352500.0 5472500.0 6101.0
  vertex 352500.0 5471500.0 5742.7998046875
 endloop
endfacet
facet normal 0.4673345386981964 0.29812881350517273 -0.83229660987854
 outer loop
  vertex 352500.0 5472500.0 6101.0
  vertex 353500.0 5471500.0 6304.2998046875
  vertex 352500.0 5471500.0 5742.7998046875
 endloop
endfacet
facet normal -0.13838015496730804 -0.3283372223377228 -0.9343690872192383
 outer loop
  vertex 352500.0 5472500.0 6101.0
  vertex 353500.0 5472500.0 5952.89990234375
  vertex 353500.0 5471500.0 6304.2998046875
 endloop
endfacet
facet normal 0.04796646907925606 -0.33114516735076904 -0.9423598647117615
 outer loop
  vertex 353500.0 5472500.0 5952.89990234375
  vertex 354500.0 5471500.0 6355.2001953125
  vertex 353500.0 5471500.0 6304.2998046875
 endloop
endfacet
facet normal 0.24049367010593414 -0.14558228850364685 -0.9596710801124573
 outer loop
  vertex 353500.0 5472500.0 5952.89990234375
  vertex 354500.0 5472500.0 6203.5
  vertex 354500.0 5471500.0 6355.2001953125
 endloop
endfacet
facet normal -0.3585643470287323 -0.1400110125541687 -0.9229455590248108
 outer loop
  vertex 354500.0 5472500.0 6203.5
  vertex 355500.0 5471500.0 5966.7001953125
  vertex 354500.0 5471500.0 6355.2001953125
 endloop
endfacet
facet normal 0.08971080929040909 0.3135624825954437 -0.9453203082084656
 outer loop
  vertex 354500.0 5472500.0 6203.5
  vertex 355500.0 5472500.0 6298.39990234375
  vertex 355500.0 5471500.0 5966.7001953125
 endloop
endfacet
facet normal -0.12829987704753876 0.3122299611568451 -0.9413030743598938
 outer loop
  vertex 355500.0 5472500.0 6298.39990234375
  vertex 356500.0 5471500.0 5830.39990234375
  vertex 355500.0 5471500.0 5966.7001953125
 endloop
endfacet
facet normal -0.4340148866176605 -0.012431146577000618 -0.9008199572563171
 outer loop
  vertex 355500.0 5472500.0 6298.39990234375
  vertex 356500.0 5472500.0 5816.60009765625
  vertex 356500.0 5471500.0 5830.39990234375
 endloop
endfacet
facet normal -0.4435912072658539 -0.012366610579192638 -0.8961438536643982
 outer loop
  vertex 356500.0 5472500.0 5816.60009765625
  vertex 357500.0 5471500.0 5335.39990234375
  vertex 356500.0 5471500.0 5830.39990234375
 endloop
endfacet
facet normal -0.08228785544633865 0.36412525177001953 -0.9277076721191406
 outer loop
  vertex 356500.0 5472500.0 5816.60009765625
  vertex 357500.0 5472500.0 5727.89990234375
  vertex 357500.0 5471500.0 5335.39990234375
 endloop
endfacet
facet normal 0.33869072794914246 0.34377050399780273 -0.8758483529090881
 outer loop
  vertex 357500.0 5472500.0 5727.89990234375
  vertex 358500.0 5471500.0 5722.10009765625
  vertex 357500.0 5471500.0 5335.39990234375
 endloop
endfacet
facet normal 0.2671317458152771 0.2724927067756653 -0.9243313670158386
 outer loop
  vertex 357500.0 5472500.0 5727.89990234375
  vertex 358500.0 5472500.0 6016.89990234375
  vertex 358500.0 5471500.0 5722.10009765625
 endloop
endfacet
facet normal -0.1906721144914627 0.27758073806762695 -0.9415906667709351
 outer loop
  vertex 358500.0 5472500.0 6016.89990234375
  vertex 359500.0 5471500.0 5519.60009765625
  vertex 358500.0 5471500.0 5722.10009765625
 endloop
endfacet
facet normal 0.04774855077266693 0.4826442301273346 -0.8745140433311462
 outer loop
  vertex 358500.0 5472500.0 6016.89990234375
  vertex 359500.0 5472500.0 6071.5
  vertex 359500.0 5471500.0 5519.60009765625
 endloop
endfacet
facet normal 0.49079376459121704 0.42099636793136597 -0.7628129720687866
 outer loop
  vertex 359500.0 5472500.0 6071.5
  vertex 360500.0 5471500.0 6163.0
  vertex 359500.0 5471500.0 5519.60009765625
 endloop
endfacet
facet normal -0.13348710536956787 -0.221866637468338 -0.9658966660499573
 outer loop
  vertex 359500.0 5472500.0 6071.5
  vertex 360500.0 5472500.0 5933.2998046875
  vertex 360500.0 5471500.0 6163.0
 endloop
endfacet
facet normal 0.35290902853012085 -0.20946581661701202 -0.9119096398353577
 outer loop
  vertex 360500.0 5472500.0 5933.2998046875
  vertex 361500.0 5471500.0 6550.0
  vertex 360500.0 5471500.0 6163.0
 endloop
endfacet
facet normal 0.1713014394044876 -0.3873531222343445 -0.9058771133422852
 outer loop
  vertex 360500.0 5472500.0 5933.2998046875
  vertex 361500.0 5472500.0 6122.39990234375
  vertex 361500.0 5471500.0 6550.0
 endloop
endfacet
facet normal -0.3978298008441925 -0.36071252822875977 -0.8435745239257812
 outer loop
  vertex 361500.0 5472500.0 6122.39990234375
  vertex 362500.0 5471500.0 6078.39990234375
  vertex 361500.0 5471500.0 6550.0
 endloop
endfacet
facet normal 0.13630838692188263 0.17917881906032562 -0.9743279814720154
 outer loop
  vertex 361500.0 5472500.0 6122.39990234375
  vertex 362500.0 5472500.0 6262.2998046875
  vertex 362500.0 5471500.0 6078.39990234375
 endloop
endfacet
facet normal 0.3045496940612793 0.1722751259803772 -0.9367874264717102
 outer loop
  vertex 362500.0 5472500.0 6262.2998046875
  vertex 363500.0 5471500.0 6403.5
  vertex 362500.0 5471500.0 6078.39990234375
 endloop
endfacet
facet normal 0.4466124475002289 0.32913532853126526 -0.8319899439811707
 outer loop
  vertex 362500.0 5472500.0 6262.2998046875
  vertex 363500.0 5472500.0 6799.10009765625
  vertex 363500.0 5471500.0 6403.5
 endloop
endfacet
facet normal -0.15183545649051666 0.3635958731174469 -0.9190995693206787
 outer loop
  vertex 363500.0 5472500.0 6799.10009765625
  vertex 364500.0 5471500.0 6238.2998046875
  vertex 363500.0 5471500.0 6403.5
 endloop
endfacet
facet normal -0.33441296219825745 0.1839362531900406 -0.9243026375770569
 outer loop
  vertex 363500.0 5472500.0 6799.10009765625
  vertex 364500.0 5472500.0 6437.2998046875
  vertex 364500.0 5471500.0 6238.2998046875
 endloop
endfacet
facet normal -0.2835642099380493 0.18716178834438324 -0.9405114650726318
 outer loop
  vertex 364500.0 5472500.0 6437.2998046875
  vertex 365500.0 5471500.0 5936.7998046875
  vertex 364500.0 5471500.0 6238.2998046875
 endloop
endfacet
facet normal -0.6707743406295776 -0.34118208289146423 -0.6585260033607483
 outer loop
  vertex 364500.0 5472500.0 6437.2998046875
  vertex 365500.0 5472500.0 5418.7001953125
  vertex 365500.0 5471500.0 5936.7998046875
 endloop
endfacet
facet normal -0.2630711495876312 -0.44382035732269287 -0.8566312789916992
 outer loop
  vertex 365500.0 5472500.0 5418.7001953125
  vertex 366500.0 5471500.0 5629.7001953125
  vertex 365500.0 5471500.0 5936.7998046875
 endloop
endfacet
facet normal -0.013365707360208035 -0.21921417117118835 -0.9755851626396179
 outer loop
  vertex 365500.0 5472500.0 5418.7001953125
  vertex 366500.0 5472500.0 5405.0
  vertex 366500.0 5471500.0 5629.7001953125
 endloop
endfacet
facet normal -0.3468272089958191 -0.20562569797039032 -0.9151114225387573
 outer loop
  vertex 366500.0 5472500.0 5405.0
  vertex 367500.0 5471500.0 5250.7001953125
  vertex 366500.0 5471500.0 5629.7001953125
 endloop
endfacet
facet normal 0.48143503069877625 0.5824897289276123 -0.6549243927001953
 outer loop
  vertex 366500.0 5472500.0 5405.0
  vertex 367500.0 5472500.0 6140.10009765625
  vertex 367500.0 5471500.0 5250.7001953125
 endloop
endfacet
facet normal 0.563094973564148 0.5492013096809387 -0.6174964904785156
 outer loop
  vertex 367500.0 5472500.0 6140.10009765625
  vertex 368500.0 5471500.0 6162.60009765625
  vertex 367500.0 5471500.0 5250.7001953125
 endloop
endfacet
facet normal 0.21796345710754395 0.19645389914512634 -0.9559800624847412
 outer loop
  vertex 367500.0 5472500.0 6140.10009765625
  vertex 368500.0 5472500.0 6368.10009765625
  vertex 368500.0 5471500.0 6162.60009765625
 endloop
endfacet
facet normal -0.4049176871776581 0.1840534508228302 -0.8956372141838074
 outer loop
  vertex 368500.0 5472500.0 6368.10009765625
  vertex 369500.0 5471500.0 5710.5
  vertex 368500.0 5471500.0 6162.60009765625
 endloop
endfacet
facet normal -0.26226767897605896 0.3332682251930237 -0.9056200981140137
 outer loop
  vertex 368500.0 5472500.0 6368.10009765625
  vertex 369500.0 5472500.0 6078.5
  vertex 369500.0 5471500.0 5710.5
 endloop
endfacet
facet normal 0.5655958652496338 0.28481024503707886 -0.7739408612251282
 outer loop
  vertex 369500.0 5472500.0 6078.5
  vertex 370500.0 5471500.0 6441.2998046875
  vertex 369500.0 5471500.0 5710.5
 endloop
endfacet
facet normal -0.4720298647880554 -0.6769262552261353 -0.5647642612457275
 outer loop
  vertex 369500.0 5472500.0 6078.5
  vertex 370500.0 5472500.0 5242.7001953125
  vertex 370500.0 5471500.0 6441.2998046875
 endloop
endfacet
facet normal -0.08812592923641205 -0.7648659944534302 -0.6381330490112305
 outer loop
  vertex 370500.0 5472500.0 5242.7001953125
  vertex 371500.0 5471500.0 6303.2001953125
  vertex 370500.0 5471500.0 6441.2998046875
 endloop
endfacet
facet normal 0.15553313493728638 -0.64129239320755 -0.7513678073883057
 outer loop
  vertex 370500.0 5472500.0 5242.7001953125
  vertex 371500.0 5472500.0 5449.7001953125
  vertex 371500.0 5471500.0 6303.2001953125
 endloop
endfacet
facet normal 0.32170799374580383 -0.614680826663971 -0.7201884388923645
 outer loop
  vertex 371500.0 5472500.0 5449.7001953125
  vertex 372500.0 5471500.0 6749.89990234375
  vertex 371500.0 5471500.0 6303.2001953125
 endloop
endfacet
facet normal 0.8237550258636475 0.0976220890879631 -0.5584779977798462
 outer loop
  vertex 371500.0 5472500.0 5449.7001953125
  vertex 372500.0 5472500.0 6924.7001953125
  vertex 372500.0 5471500.0 6749.89990234375
 endloop
endfacet
facet normal -0.13286207616329193 -0.2925231456756592 -0.9469835758209229
 outer loop
  vertex 349500.0 5473500.0 5542.2001953125
  vertex 350500.0 5473500.0 5401.89990234375
  vertex 350500.0 5472500.0 5710.7998046875
 endloop
endfacet
facet normal -0.3069858253002167 -0.2808886170387268 -0.9093191623687744
 outer loop
  vertex 350500.0 5473500.0 5401.89990234375
  vertex 351500.0 5472500.0 5373.2001953125
  vertex 350500.0 5472500.0 5710.7998046875
 endloop
endfacet
facet normal 0.2795965075492859 0.3057173788547516 -0.9101442694664001
 outer loop
  vertex 350500.0 5473500.0 5401.89990234375
  vertex 351500.0 5473500.0 5709.10009765625
  vertex 351500.0 5472500.0 5373.2001953125
 endloop
endfacet
facet normal 0.5678797960281372 0.26209238171577454 -0.7802692651748657
 outer loop
  vertex 351500.0 5473500.0 5709.10009765625
  vertex 352500.0 5472500.0 6101.0
  vertex 351500.0 5472500.0 5373.2001953125
 endloop
endfacet
facet normal -0.38705727458000183 -0.6452051401138306 -0.6587086319923401
 outer loop
  vertex 351500.0 5473500.0 5709.10009765625
  vertex 352500.0 5473500.0 5121.5
  vertex 352500.0 5472500.0 6101.0
 endloop
endfacet
facet normal -0.1052142083644867 -0.6958624720573425 -0.7104262113571167
 outer loop
  vertex 352500.0 5473500.0 5121.5
  vertex 353500.0 5472500.0 5952.89990234375
  vertex 352500.0 5472500.0 6101.0
 endloop
endfacet
facet normal 0.7102973461151123 0.1361202746629715 -0.6906148195266724
 outer loop
  vertex 352500.0 5473500.0 5121.5
  vertex 353500.0 5473500.0 6150.0
  vertex 353500.0 5472500.0 5952.89990234375
 endloop
endfacet
facet normal 0.23875893652439117 0.18778687715530396 -0.9527487754821777
 outer loop
  vertex 353500.0 5473500.0 6150.0
  vertex 354500.0 5472500.0 6203.5
  vertex 353500.0 5472500.0 5952.89990234375
 endloop
endfacet
facet normal 0.4182125926017761 0.37392446398735046 -0.827815592288971
 outer loop
  vertex 353500.0 5473500.0 6150.0
  vertex 354500.0 5473500.0 6655.2001953125
  vertex 354500.0 5472500.0 6203.5
 endloop
endfacet
facet normal 0.08616450428962708 0.4101218283176422 -0.9079514145851135
 outer loop
  vertex 354500.0 5473500.0 6655.2001953125
  vertex 355500.0 5472500.0 6298.39990234375
  vertex 354500.0 5472500.0 6203.5
 endloop
endfacet
facet normal -0.6712031364440918 -0.4653181731700897 -0.5770314931869507
 outer loop
  vertex 354500.0 5473500.0 6655.2001953125
  vertex 355500.0 5473500.0 5492.0
  vertex 355500.0 5472500.0 6298.39990234375
 endloop
endfacet
facet normal -0.35116341710090637 -0.5877506732940674 -0.7288575768470764
 outer loop
  vertex 355500.0 5473500.0 5492.0
  vertex 356500.0 5472500.0 5816.60009765625
  vertex 355500.0 5472500.0 6298.39990234375
 endloop
endfacet
facet normal -0.151609867811203 -0.43906617164611816 -0.8855706453323364
 outer loop
  vertex 355500.0 5473500.0 5492.0
  vertex 356500.0 5473500.0 5320.7998046875
  vertex 356500.0 5472500.0 5816.60009765625
 endloop
endfacet
facet normal -0.07921916246414185 -0.4428049325942993 -0.893111526966095
 outer loop
  vertex 356500.0 5473500.0 5320.7998046875
  vertex 357500.0 5472500.0 5727.89990234375
  vertex 356500.0 5472500.0 5816.60009765625
 endloop
endfacet
facet normal 0.5063122510910034 0.16145746409893036 -0.8471006751060486
 outer loop
  vertex 356500.0 5473500.0 5320.7998046875
  vertex 357500.0 5473500.0 5918.5
  vertex 357500.0 5472500.0 5727.89990234375
 endloop
endfacet
facet normal 0.2730976939201355 0.18011227250099182 -0.9449747204780579
 outer loop
  vertex 357500.0 5473500.0 5918.5
  vertex 358500.0 5472500.0 6016.89990234375
  vertex 357500.0 5472500.0 5727.89990234375
 endloop
endfacet
facet normal -0.02332097850739956 -0.12097127735614777 -0.9923820495605469
 outer loop
  vertex 357500.0 5473500.0 5918.5
  vertex 358500.0 5473500.0 5895.0
  vertex 358500.0 5472500.0 6016.89990234375
 endloop
endfacet
facet normal 0.05411946401000023 -0.1208268478512764 -0.9911972284317017
 outer loop
  vertex 358500.0 5473500.0 5895.0
  vertex 359500.0 5472500.0 6071.5
  vertex 358500.0 5472500.0 6016.89990234375
 endloop
endfacet
facet normal 0.03264797478914261 -0.1419692188501358 -0.9893324971199036
 outer loop
  vertex 358500.0 5473500.0 5895.0
  vertex 359500.0 5473500.0 5928.0
  vertex 359500.0 5472500.0 6071.5
 endloop
endfacet
facet normal -0.1355365365743637 -0.14073419570922852 -0.9807261228561401
 outer loop
  vertex 359500.0 5473500.0 5928.0
  vertex 360500.0 5472500.0 5933.2998046875
  vertex 359500.0 5472500.0 6071.5
 endloop
endfacet
facet normal -0.315856009721756 -0.32058876752853394 -0.8930049538612366
 outer loop
  vertex 359500.0 5473500.0 5928.0
  vertex 360500.0 5473500.0 5574.2998046875
  vertex 360500.0 5472500.0 5933.2998046875
 endloop
endfacet
facet normal 0.17522495985031128 -0.33265846967697144 -0.9266253113746643
 outer loop
  vertex 360500.0 5473500.0 5574.2998046875
  vertex 361500.0 5472500.0 6122.39990234375
  vertex 360500.0 5472500.0 5933.2998046875
 endloop
endfacet
facet normal 0.15428093075752258 -0.35177144408226013 -0.9232845306396484
 outer loop
  vertex 360500.0 5473500.0 5574.2998046875
  vertex 361500.0 5473500.0 5741.39990234375
  vertex 361500.0 5472500.0 6122.39990234375
 endloop
endfacet
facet normal 0.12962962687015533 -0.35303017497062683 -0.9265883564949036
 outer loop
  vertex 361500.0 5473500.0 5741.39990234375
  vertex 362500.0 5472500.0 6262.2998046875
  vertex 361500.0 5472500.0 6122.39990234375
 endloop
endfacet
facet normal 0.39694327116012573 -0.0793701782822609 -0.9144049286842346
 outer loop
  vertex 361500.0 5473500.0 5741.39990234375
  vertex 362500.0 5473500.0 6175.5
  vertex 362500.0 5472500.0 6262.2998046875
 endloop
endfacet
facet normal 0.4715876281261444 -0.07625501602888107 -0.8785159587860107
 outer loop
  vertex 362500.0 5473500.0 6175.5
  vertex 363500.0 5472500.0 6799.10009765625
  vertex 362500.0 5472500.0 6262.2998046875
 endloop
endfacet
facet normal -0.11896451562643051 -0.6083196997642517 -0.7847258448600769
 outer loop
  vertex 362500.0 5473500.0 6175.5
  vertex 363500.0 5473500.0 6023.89990234375
  vertex 363500.0 5472500.0 6799.10009765625
 endloop
endfacet
facet normal -0.27492591738700867 -0.5890615582466125 -0.7598831057548523
 outer loop
  vertex 363500.0 5473500.0 6023.89990234375
  vertex 364500.0 5472500.0 6437.2998046875
  vertex 363500.0 5472500.0 6799.10009765625
 endloop
endfacet
facet normal -0.2549102008342743 -0.5759947299957275 -0.7766923308372498
 outer loop
  vertex 363500.0 5473500.0 6023.89990234375
  vertex 364500.0 5473500.0 5695.7001953125
  vertex 364500.0 5472500.0 6437.2998046875
 endloop
endfacet
facet normal -0.6332308650016785 -0.4610287845134735 -0.6216680407524109
 outer loop
  vertex 364500.0 5473500.0 5695.7001953125
  vertex 365500.0 5472500.0 5418.7001953125
  vertex 364500.0 5472500.0 6437.2998046875
 endloop
endfacet
facet normal -0.3633476197719574 -0.10698677599430084 -0.9254903793334961
 outer loop
  vertex 364500.0 5473500.0 5695.7001953125
  vertex 365500.0 5473500.0 5303.10009765625
  vertex 365500.0 5472500.0 5418.7001953125
 endloop
endfacet
facet normal -0.013608294539153576 -0.11482471227645874 -0.9932925701141357
 outer loop
  vertex 365500.0 5473500.0 5303.10009765625
  vertex 366500.0 5472500.0 5405.0
  vertex 365500.0 5472500.0 5418.7001953125
 endloop
endfacet
facet normal -0.032883502542972565 -0.13381138443946838 -0.9904611110687256
 outer loop
  vertex 365500.0 5473500.0 5303.10009765625
  vertex 366500.0 5473500.0 5269.89990234375
  vertex 366500.0 5472500.0 5405.0
 endloop
endfacet
facet normal 0.5888108015060425 -0.108214370906353 -0.8009940385818481
 outer loop
  vertex 366500.0 5473500.0 5269.89990234375
  vertex 367500.0 5472500.0 6140.10009765625
  vertex 366500.0 5472500.0 5405.0
 endloop
endfacet
facet normal 0.7075344324111938 0.09859711676836014 -0.6997669339179993
 outer loop
  vertex 366500.0 5473500.0 5269.89990234375
  vertex 367500.0 5473500.0 6281.0
  vertex 367500.0 5472500.0 6140.10009765625
 endloop
endfacet
facet normal 0.2202269732952118 0.1360963135957718 -0.9659078121185303
 outer loop
  vertex 367500.0 5473500.0 6281.0
  vertex 368500.0 5472500.0 6368.10009765625
  vertex 367500.0 5472500.0 6140.10009765625
 endloop
endfacet
facet normal 0.1830267310142517 0.0978228971362114 -0.9782289862632751
 outer loop
  vertex 367500.0 5473500.0 6281.0
  vertex 368500.0 5473500.0 6468.10009765625
  vertex 368500.0 5472500.0 6368.10009765625
 endloop
endfacet
facet normal -0.276895672082901 0.09561312198638916 -0.9561312198638916
 outer loop
  vertex 368500.0 5473500.0 6468.10009765625
  vertex 369500.0 5472500.0 6078.5
  vertex 368500.0 5472500.0 6368.10009765625
 endloop
endfacet
facet normal -0.18346217274665833 0.19213828444480896 -0.9640666246414185
 outer loop
  vertex 368500.0 5473500.0 6468.10009765625
  vertex 369500.0 5473500.0 6277.7998046875
  vertex 369500.0 5472500.0 6078.5
 endloop
endfacet
facet normal -0.6339312791824341 0.15116345882415771 -0.7584726214408875
 outer loop
  vertex 369500.0 5473500.0 6277.7998046875
  vertex 370500.0 5472500.0 5242.7001953125
  vertex 369500.0 5472500.0 6078.5
 endloop
endfacet
facet normal -0.44501176476478577 0.389616996049881 -0.8063269853591919
 outer loop
  vertex 369500.0 5473500.0 6277.7998046875
  vertex 370500.0 5473500.0 5725.89990234375
  vertex 370500.0 5472500.0 5242.7001953125
 endloop
endfacet
facet normal 0.18322667479515076 0.42770570516586304 -0.88515305519104
 outer loop
  vertex 370500.0 5473500.0 5725.89990234375
  vertex 371500.0 5472500.0 5449.7001953125
  vertex 370500.0 5472500.0 5242.7001953125
 endloop
endfacet
facet normal 0.3559953570365906 0.5621724128723145 -0.7464781403541565
 outer loop
  vertex 370500.0 5473500.0 5725.89990234375
  vertex 371500.0 5473500.0 6202.7998046875
  vertex 371500.0 5472500.0 5449.7001953125
 endloop
endfacet
facet normal 0.762420654296875 0.3892737030982971 -0.5168953537940979
 outer loop
  vertex 371500.0 5473500.0 6202.7998046875
  vertex 372500.0 5472500.0 6924.7001953125
  vertex 371500.0 5472500.0 5449.7001953125
 endloop
endfacet
facet normal -0.22595515847206116 -0.7085501551628113 -0.668506383895874
 outer loop
  vertex 371500.0 5473500.0 6202.7998046875
  vertex 372500.0 5473500.0 5864.7998046875
  vertex 372500.0 5472500.0 6924.7001953125
 endloop
endfacet
facet normal -0.11662288755178452 -0.5435466766357422 -0.8312377333641052
 outer loop
  vertex 349500.0 5474500.0 4888.2998046875
  vertex 350500.0 5473500.0 5401.89990234375
  vertex 349500.0 5473500.0 5542.2001953125
 endloop
endfacet
facet normal 0.31095772981643677 -0.16936685144901276 -0.9352112412452698
 outer loop
  vertex 349500.0 5474500.0 4888.2998046875
  vertex 350500.0 5474500.0 5220.7998046875
  vertex 350500.0 5473500.0 5401.89990234375
 endloop
endfacet
facet normal 0.28935229778289795 -0.17057843506336212 -0.9419013857841492
 outer loop
  vertex 350500.0 5474500.0 5220.7998046875
  vertex 351500.0 5473500.0 5709.10009765625
  vertex 350500.0 5473500.0 5401.89990234375
 endloop
endfacet
facet normal -0.025924241170287132 -0.4594496190547943 -0.8878253698348999
 outer loop
  vertex 350500.0 5474500.0 5220.7998046875
  vertex 351500.0 5474500.0 5191.60009765625
  vertex 351500.0 5473500.0 5709.10009765625
 endloop
endfacet
facet normal -0.46265143156051636 -0.4074575901031494 -0.7873576283454895
 outer loop
  vertex 351500.0 5474500.0 5191.60009765625
  vertex 352500.0 5473500.0 5121.5
  vertex 351500.0 5473500.0 5709.10009765625
 endloop
endfacet
facet normal -0.1332218199968338 -0.06389109045267105 -0.9890247583389282
 outer loop
  vertex 351500.0 5474500.0 5191.60009765625
  vertex 352500.0 5474500.0 5056.89990234375
  vertex 352500.0 5473500.0 5121.5
 endloop
endfacet
facet normal 0.7162448167800903 -0.04498734697699547 -0.6963974833488464
 outer loop
  vertex 352500.0 5474500.0 5056.89990234375
  vertex 353500.0 5473500.0 6150.0
  vertex 352500.0 5473500.0 5121.5
 endloop
endfacet
facet normal 0.3966105878353119 -0.4671773910522461 -0.7902185320854187
 outer loop
  vertex 352500.0 5474500.0 5056.89990234375
  vertex 353500.0 5474500.0 5558.7998046875
  vertex 353500.0 5473500.0 6150.0
 endloop
endfacet
facet normal 0.3988049030303955 -0.46669331192970276 -0.7893998026847839
 outer loop
  vertex 353500.0 5474500.0 5558.7998046875
  vertex 354500.0 5473500.0 6655.2001953125
  vertex 353500.0 5473500.0 6150.0
 endloop
endfacet
facet normal 0.1738414615392685 -0.6434813737869263 -0.7454602122306824
 outer loop
  vertex 353500.0 5474500.0 5558.7998046875
  vertex 354500.0 5474500.0 5792.0
  vertex 354500.0 5473500.0 6655.2001953125
 endloop
endfacet
facet normal -0.6608505845069885 -0.4904111623764038 -0.5681314468383789
 outer loop
  vertex 354500.0 5474500.0 5792.0
  vertex 355500.0 5473500.0 5492.0
  vertex 354500.0 5473500.0 6655.2001953125
 endloop
endfacet
facet normal -0.552585244178772 -0.32195693254470825 -0.7687609195709229
 outer loop
  vertex 354500.0 5474500.0 5792.0
  vertex 355500.0 5474500.0 5073.2001953125
  vertex 355500.0 5473500.0 5492.0
 endloop
endfacet
facet normal -0.15597835183143616 -0.3815632462501526 -0.9110874533653259
 outer loop
  vertex 355500.0 5474500.0 5073.2001953125
  vertex 356500.0 5473500.0 5320.7998046875
  vertex 355500.0 5473500.0 5492.0
 endloop
endfacet
facet normal 0.6474951505661011 0.5065176486968994 -0.5693767666816711
 outer loop
  vertex 355500.0 5474500.0 5073.2001953125
  vertex 356500.0 5474500.0 6210.39990234375
  vertex 356500.0 5473500.0 5320.7998046875
 endloop
endfacet
facet normal 0.4077577590942383 0.6068950891494751 -0.68221116065979
 outer loop
  vertex 356500.0 5474500.0 6210.39990234375
  vertex 357500.0 5473500.0 5918.5
  vertex 356500.0 5473500.0 5320.7998046875
 endloop
endfacet
facet normal -0.3141016662120819 -0.03718767687678337 -0.9486607313156128
 outer loop
  vertex 356500.0 5474500.0 6210.39990234375
  vertex 357500.0 5474500.0 5879.2998046875
  vertex 357500.0 5473500.0 5918.5
 endloop
endfacet
facet normal -0.023475494235754013 -0.03915931656956673 -0.9989572167396545
 outer loop
  vertex 357500.0 5474500.0 5879.2998046875
  vertex 358500.0 5473500.0 5895.0
  vertex 357500.0 5473500.0 5918.5
 endloop
endfacet
facet normal 0.4103129804134369 0.39742645621299744 -0.8207895159721375
 outer loop
  vertex 357500.0 5474500.0 5879.2998046875
  vertex 358500.0 5474500.0 6379.2001953125
  vertex 358500.0 5473500.0 5895.0
 endloop
endfacet
facet normal 0.029688330367207527 0.4356089234352112 -0.8996463418006897
 outer loop
  vertex 358500.0 5474500.0 6379.2001953125
  vertex 359500.0 5473500.0 5928.0
  vertex 358500.0 5473500.0 5895.0
 endloop
endfacet
facet normal -0.16797587275505066 0.26094695925712585 -0.9506264925003052
 outer loop
  vertex 358500.0 5474500.0 6379.2001953125
  vertex 359500.0 5474500.0 6202.5
  vertex 359500.0 5473500.0 5928.0
 endloop
endfacet
facet normal -0.3228215277194977 0.25053566694259644 -0.9126982688903809
 outer loop
  vertex 359500.0 5474500.0 6202.5
  vertex 360500.0 5473500.0 5574.2998046875
  vertex 359500.0 5473500.0 5928.0
 endloop
endfacet
facet normal 0.3291422128677368 0.5628249645233154 -0.7582172751426697
 outer loop
  vertex 361500.0 5474500.0 6483.7001953125
  vertex 362500.0 5473500.0 6175.5
  vertex 361500.0 5473500.0 5741.39990234375
 endloop
endfacet
facet normal -0.3722752332687378 -0.08750186860561371 -0.9239883422851562
 outer loop
  vertex 361500.0 5474500.0 6483.7001953125
  vertex 362500.0 5474500.0 6080.7998046875
  vertex 362500.0 5473500.0 6175.5
 endloop
endfacet
facet normal -0.14923475682735443 -0.09322264045476913 -0.9843975305557251
 outer loop
  vertex 362500.0 5474500.0 6080.7998046875
  vertex 363500.0 5473500.0 6023.89990234375
  vertex 362500.0 5473500.0 6175.5
 endloop
endfacet
facet normal 0.15658073127269745 0.2114754468202591 -0.964759349822998
 outer loop
  vertex 362500.0 5474500.0 6080.7998046875
  vertex 363500.0 5474500.0 6243.10009765625
  vertex 363500.0 5473500.0 6023.89990234375
 endloop
endfacet
facet normal -0.30528372526168823 0.20389491319656372 -0.9301767349243164
 outer loop
  vertex 363500.0 5474500.0 6243.10009765625
  vertex 364500.0 5473500.0 5695.7001953125
  vertex 363500.0 5473500.0 6023.89990234375
 endloop
endfacet
facet normal -0.15793229639530182 0.34793177247047424 -0.924121618270874
 outer loop
  vertex 363500.0 5474500.0 6243.10009765625
  vertex 364500.0 5474500.0 6072.2001953125
  vertex 364500.0 5473500.0 5695.7001953125
 endloop
endfacet
facet normal -0.3448790907859802 0.3307359516620636 -0.8784487247467041
 outer loop
  vertex 364500.0 5474500.0 6072.2001953125
  vertex 365500.0 5473500.0 5303.10009765625
  vertex 364500.0 5473500.0 5695.7001953125
 endloop
endfacet
facet normal -0.32861649990081787 0.3469753861427307 -0.8784186244010925
 outer loop
  vertex 364500.0 5474500.0 6072.2001953125
  vertex 365500.0 5474500.0 5698.10009765625
  vertex 365500.0 5473500.0 5303.10009765625
 endloop
endfacet
facet normal -0.030863840132951736 0.3672032654285431 -0.9296284914016724
 outer loop
  vertex 365500.0 5474500.0 5698.10009765625
  vertex 366500.0 5473500.0 5269.89990234375
  vertex 365500.0 5473500.0 5303.10009765625
 endloop
endfacet
facet normal -0.29126080870628357 0.11538365483283997 -0.9496597051620483
 outer loop
  vertex 365500.0 5474500.0 5698.10009765625
  vertex 366500.0 5474500.0 5391.39990234375
  vertex 366500.0 5473500.0 5269.89990234375
 endloop
endfacet
facet normal 0.7084178924560547 0.08512784540653229 -0.7006406784057617
 outer loop
  vertex 366500.0 5474500.0 5391.39990234375
  vertex 367500.0 5473500.0 6281.0
  vertex 366500.0 5473500.0 5269.89990234375
 endloop
endfacet
facet normal 0.09674054384231567 -0.6057933568954468 -0.789718747138977
 outer loop
  vertex 366500.0 5474500.0 5391.39990234375
  vertex 367500.0 5474500.0 5513.89990234375
  vertex 367500.0 5473500.0 6281.0
 endloop
endfacet
facet normal 0.14684346318244934 -0.602050244808197 -0.7848391532897949
 outer loop
  vertex 367500.0 5474500.0 5513.89990234375
  vertex 368500.0 5473500.0 6468.10009765625
  vertex 367500.0 5473500.0 6281.0
 endloop
endfacet
facet normal 0.07352589070796967 -0.6490112543106079 -0.757217526435852
 outer loop
  vertex 367500.0 5474500.0 5513.89990234375
  vertex 368500.0 5474500.0 5611.0
  vertex 368500.0 5473500.0 6468.10009765625
 endloop
endfacet
facet normal -0.14300474524497986 -0.6440839767456055 -0.7514687776565552
 outer loop
  vertex 368500.0 5474500.0 5611.0
  vertex 369500.0 5473500.0 6277.7998046875
  vertex 368500.0 5473500.0 6468.10009765625
 endloop
endfacet
facet normal 0.4294028580188751 -0.16291365027427673 -0.8882973790168762
 outer loop
  vertex 368500.0 5474500.0 5611.0
  vertex 369500.0 5474500.0 6094.39990234375
  vertex 369500.0 5473500.0 6277.7998046875
 endloop
endfacet
facet normal -0.4770842492580414 -0.15853819251060486 -0.864439845085144
 outer loop
  vertex 369500.0 5474500.0 6094.39990234375
  vertex 370500.0 5473500.0 5725.89990234375
  vertex 369500.0 5473500.0 6277.7998046875
 endloop
endfacet
facet normal 0.06264501065015793 0.39964771270751953 -0.9145256876945496
 outer loop
  vertex 369500.0 5474500.0 6094.39990234375
  vertex 370500.0 5474500.0 6162.89990234375
  vertex 370500.0 5473500.0 5725.89990234375
 endloop
endfacet
facet normal 0.400430828332901 0.36692872643470764 -0.8396538496017456
 outer loop
  vertex 370500.0 5474500.0 6162.89990234375
  vertex 371500.0 5473500.0 6202.7998046875
  vertex 370500.0 5473500.0 5725.89990234375
 endloop
endfacet
facet normal -0.4785769283771515 -0.5071753263473511 -0.7167547345161438
 outer loop
  vertex 370500.0 5474500.0 6162.89990234375
  vertex 371500.0 5474500.0 5495.2001953125
  vertex 371500.0 5473500.0 6202.7998046875
 endloop
endfacet
facet normal -0.2659734785556793 -0.5568128228187561 -0.7869037985801697
 outer loop
  vertex 371500.0 5474500.0 5495.2001953125
  vertex 372500.0 5473500.0 5864.7998046875
  vertex 371500.0 5473500.0 6202.7998046875
 endloop
endfacet
facet normal 0.5899816751480103 0.3152467608451843 -0.7433311343193054
 outer loop
  vertex 371500.0 5474500.0 5495.2001953125
  vertex 372500.0 5474500.0 6288.89990234375
  vertex 372500.0 5473500.0 5864.7998046875
 endloop
endfacet
facet normal 0.7070046663284302 0.27612176537513733 -0.6510769128799438
 outer loop
  vertex 372500.0 5474500.0 6288.89990234375
  vertex 373500.0 5473500.0 6950.7001953125
  vertex 372500.0 5473500.0 5864.7998046875
 endloop
endfacet
facet normal -0.18104621767997742 -0.662236750125885 -0.7270932793617249
 outer loop
  vertex 372500.0 5474500.0 6288.89990234375
  vertex 373500.0 5474500.0 6039.89990234375
  vertex 373500.0 5473500.0 6950.7001953125
 endloop
endfacet
facet normal 0.04674706608057022 -0.6726282835006714 -0.7385024428367615
 outer loop
  vertex 373500.0 5474500.0 6039.89990234375
  vertex 374500.0 5473500.0 7014.0
  vertex 373500.0 5473500.0 6950.7001953125
 endloop
endfacet
facet normal 0.5901675224304199 -0.1770579218864441 -0.7876248359680176
 outer loop
  vertex 373500.0 5474500.0 6039.89990234375
  vertex 374500.0 5474500.0 6789.2001953125
  vertex 374500.0 5473500.0 7014.0
 endloop
endfacet
facet normal 0.28009313344955444 0.46036359667778015 -0.8423853516578674
 outer loop
  vertex 349500.0 5475500.0 5434.7998046875
  vertex 350500.0 5474500.0 5220.7998046875
  vertex 349500.0 5474500.0 4888.2998046875
 endloop
endfacet
facet normal -0.3118211328983307 -0.10985460132360458 -0.9437688589096069
 outer loop
  vertex 349500.0 5475500.0 5434.7998046875
  vertex 350500.0 5475500.0 5104.39990234375
  vertex 350500.0 5474500.0 5220.7998046875
 endloop
endfacet
facet normal -0.0289916954934597 -0.11557068675756454 -0.9928761124610901
 outer loop
  vertex 350500.0 5475500.0 5104.39990234375
  vertex 351500.0 5474500.0 5191.60009765625
  vertex 350500.0 5474500.0 5220.7998046875
 endloop
endfacet
facet normal 0.47922027111053467 0.41162386536598206 -0.7751862406730652
 outer loop
  vertex 350500.0 5475500.0 5104.39990234375
  vertex 351500.0 5475500.0 5722.60009765625
  vertex 351500.0 5474500.0 5191.60009765625
 endloop
endfacet
facet normal -0.11813510209321976 0.4656989872455597 -0.8770225644111633
 outer loop
  vertex 351500.0 5475500.0 5722.60009765625
  vertex 352500.0 5474500.0 5056.89990234375
  vertex 351500.0 5474500.0 5191.60009765625
 endloop
endfacet
facet normal 0.1314024180173874 0.6370360255241394 -0.7595515251159668
 outer loop
  vertex 351500.0 5475500.0 5722.60009765625
  vertex 352500.0 5475500.0 5895.60009765625
  vertex 352500.0 5474500.0 5056.89990234375
 endloop
endfacet
facet normal 0.3589285612106323 0.5997878313064575 -0.7151397466659546
 outer loop
  vertex 352500.0 5475500.0 5895.60009765625
  vertex 353500.0 5474500.0 5558.7998046875
  vertex 352500.0 5474500.0 5056.89990234375
 endloop
endfacet
facet normal 0.20521607995033264 0.49046948552131653 -0.8469510674476624
 outer loop
  vertex 352500.0 5475500.0 5895.60009765625
  vertex 353500.0 5475500.0 6137.89990234375
  vertex 353500.0 5474500.0 5558.7998046875
 endloop
endfacet
facet normal 0.197816401720047 0.49123239517211914 -0.8482685089111328
 outer loop
  vertex 353500.0 5475500.0 6137.89990234375
  vertex 354500.0 5474500.0 5792.0
  vertex 353500.0 5474500.0 5558.7998046875
 endloop
endfacet
facet normal -0.6295633912086487 -0.3989523649215698 -0.6666986346244812
 outer loop
  vertex 353500.0 5475500.0 6137.89990234375
  vertex 354500.0 5475500.0 5193.60009765625
  vertex 354500.0 5474500.0 5792.0
 endloop
endfacet
facet normal -0.5249713659286499 -0.43703797459602356 -0.7303443551063538
 outer loop
  vertex 354500.0 5475500.0 5193.60009765625
  vertex 355500.0 5474500.0 5073.2001953125
  vertex 354500.0 5474500.0 5792.0
 endloop
endfacet
facet normal 0.3569011092185974 0.4551202058792114 -0.8157739639282227
 outer loop
  vertex 354500.0 5475500.0 5193.60009765625
  vertex 355500.0 5475500.0 5631.10009765625
  vertex 355500.0 5474500.0 5073.2001953125
 endloop
endfacet
facet normal 0.704655110836029 0.34569740295410156 -0.619640588760376
 outer loop
  vertex 355500.0 5475500.0 5631.10009765625
  vertex 356500.0 5474500.0 6210.39990234375
  vertex 355500.0 5474500.0 5073.2001953125
 endloop
endfacet
facet normal -0.05512774735689163 -0.5412068963050842 -0.8390803933143616
 outer loop
  vertex 355500.0 5475500.0 5631.10009765625
  vertex 356500.0 5475500.0 5565.39990234375
  vertex 356500.0 5474500.0 6210.39990234375
 endloop
endfacet
facet normal -0.26805970072746277 -0.5221940279006958 -0.809603214263916
 outer loop
  vertex 356500.0 5475500.0 5565.39990234375
  vertex 357500.0 5474500.0 5879.2998046875
  vertex 356500.0 5474500.0 6210.39990234375
 endloop
endfacet
facet normal 0.4063880145549774 0.12215209752321243 -0.9054985642433167
 outer loop
  vertex 356500.0 5475500.0 5565.39990234375
  vertex 357500.0 5475500.0 6014.2001953125
  vertex 357500.0 5474500.0 5879.2998046875
 endloop
endfacet
facet normal 0.4439223110675812 0.11979445815086365 -0.8880215883255005
 outer loop
  vertex 357500.0 5475500.0 6014.2001953125
  vertex 358500.0 5474500.0 6379.2001953125
  vertex 357500.0 5474500.0 5879.2998046875
 endloop
endfacet
facet normal -0.3714112937450409 0.11071310192346573 -0.9218440055847168
 outer loop
  vertex 361500.0 5475500.0 6603.7998046875
  vertex 362500.0 5474500.0 6080.7998046875
  vertex 361500.0 5474500.0 6483.7001953125
 endloop
endfacet
facet normal -0.5827528834342957 -0.16678468883037567 -0.795350193977356
 outer loop
  vertex 361500.0 5475500.0 6603.7998046875
  vertex 362500.0 5475500.0 5871.10009765625
  vertex 362500.0 5474500.0 6080.7998046875
 endloop
endfacet
facet normal 0.1568785011768341 -0.20269449055194855 -0.9665940999984741
 outer loop
  vertex 362500.0 5475500.0 5871.10009765625
  vertex 363500.0 5474500.0 6243.10009765625
  vertex 362500.0 5474500.0 6080.7998046875
 endloop
endfacet
facet normal -0.22032617032527924 -0.5259237885475159 -0.8214989304542542
 outer loop
  vertex 362500.0 5475500.0 5871.10009765625
  vertex 363500.0 5475500.0 5602.89990234375
  vertex 363500.0 5474500.0 6243.10009765625
 endloop
endfacet
facet normal -0.14246295392513275 -0.5336738228797913 -0.8336045742034912
 outer loop
  vertex 363500.0 5475500.0 5602.89990234375
  vertex 364500.0 5474500.0 6072.2001953125
  vertex 363500.0 5474500.0 6243.10009765625
 endloop
endfacet
facet normal 0.09475859999656677 0.1966409832239151 -0.975885808467865
 outer loop
  vertex 367500.0 5475500.0 5715.39990234375
  vertex 368500.0 5474500.0 5611.0
  vertex 367500.0 5474500.0 5513.89990234375
 endloop
endfacet
facet normal 0.2924453914165497 0.3838838040828705 -0.8758475184440613
 outer loop
  vertex 367500.0 5475500.0 5715.39990234375
  vertex 368500.0 5475500.0 6049.2998046875
  vertex 368500.0 5474500.0 5611.0
 endloop
endfacet
facet normal 0.4048367738723755 0.3670664429664612 -0.83747798204422
 outer loop
  vertex 368500.0 5475500.0 6049.2998046875
  vertex 369500.0 5474500.0 6094.39990234375
  vertex 368500.0 5474500.0 5611.0
 endloop
endfacet
facet normal -0.11814406514167786 -0.1623258739709854 -0.9796388745307922
 outer loop
  vertex 368500.0 5475500.0 6049.2998046875
  vertex 369500.0 5475500.0 5928.7001953125
  vertex 369500.0 5474500.0 6094.39990234375
 endloop
endfacet
facet normal 0.06742476671934128 -0.1630987524986267 -0.9843031764030457
 outer loop
  vertex 369500.0 5475500.0 5928.7001953125
  vertex 370500.0 5474500.0 6162.89990234375
  vertex 369500.0 5474500.0 6094.39990234375
 endloop
endfacet
facet normal -0.23714493215084076 -0.4399908781051636 -0.8661237955093384
 outer loop
  vertex 369500.0 5475500.0 5928.7001953125
  vertex 370500.0 5475500.0 5654.89990234375
  vertex 370500.0 5474500.0 6162.89990234375
 endloop
endfacet
facet normal -0.5115178823471069 -0.38917356729507446 -0.7660897374153137
 outer loop
  vertex 370500.0 5475500.0 5654.89990234375
  vertex 371500.0 5474500.0 5495.2001953125
  vertex 370500.0 5474500.0 6162.89990234375
 endloop
endfacet
facet normal -0.2564135491847992 -0.10293079912662506 -0.9610708951950073
 outer loop
  vertex 370500.0 5475500.0 5654.89990234375
  vertex 371500.0 5475500.0 5388.10009765625
  vertex 371500.0 5474500.0 5495.2001953125
 endloop
endfacet
facet normal 0.6195053458213806 -0.08359468728303909 -0.7805286049842834
 outer loop
  vertex 371500.0 5475500.0 5388.10009765625
  vertex 372500.0 5474500.0 6288.89990234375
  vertex 371500.0 5474500.0 5495.2001953125
 endloop
endfacet
facet normal 0.5507696866989136 -0.1828298568725586 -0.8143869042396545
 outer loop
  vertex 371500.0 5475500.0 5388.10009765625
  vertex 372500.0 5475500.0 6064.39990234375
  vertex 372500.0 5474500.0 6288.89990234375
 endloop
endfacet
facet normal -0.23608511686325073 -0.21285586059093475 -0.9481329917907715
 outer loop
  vertex 372500.0 5475500.0 6064.39990234375
  vertex 373500.0 5474500.0 6039.89990234375
  vertex 372500.0 5474500.0 6288.89990234375
 endloop
endfacet
facet normal 0.12931756675243378 0.15331968665122986 -0.9796785116195679
 outer loop
  vertex 372500.0 5475500.0 6064.39990234375
  vertex 373500.0 5475500.0 6196.39990234375
  vertex 373500.0 5474500.0 6039.89990234375
 endloop
endfacet
facet normal 0.5949933528900146 0.1242712065577507 -0.7940652370452881
 outer loop
  vertex 373500.0 5475500.0 6196.39990234375
  vertex 374500.0 5474500.0 6789.2001953125
  vertex 373500.0 5474500.0 6039.89990234375
 endloop
endfacet
facet normal -0.3137073516845703 -0.0089249974116683 -0.9494776725769043
 outer loop
  vertex 349500.0 5476500.0 5425.39990234375
  vertex 350500.0 5475500.0 5104.39990234375
  vertex 349500.0 5475500.0 5434.7998046875
 endloop
endfacet
facet normal 0.23537200689315796 -0.0310850590467453 -0.9714081287384033
 outer loop
  vertex 352500.0 5476500.0 5863.60009765625
  vertex 353500.0 5475500.0 6137.89990234375
  vertex 352500.0 5475500.0 5895.60009765625
 endloop
endfacet
facet normal 0.052563853561878204 -0.21493671834468842 -0.9752123951911926
 outer loop
  vertex 352500.0 5476500.0 5863.60009765625
  vertex 353500.0 5476500.0 5917.5
  vertex 353500.0 5475500.0 6137.89990234375
 endloop
endfacet
facet normal -0.6779190897941589 -0.15822656452655792 -0.717906653881073
 outer loop
  vertex 353500.0 5476500.0 5917.5
  vertex 354500.0 5475500.0 5193.60009765625
  vertex 353500.0 5475500.0 6137.89990234375
 endloop
endfacet
facet normal 0.07978039234876633 0.6356328129768372 -0.7678581476211548
 outer loop
  vertex 353500.0 5476500.0 5917.5
  vertex 354500.0 5476500.0 6021.39990234375
  vertex 354500.0 5475500.0 5193.60009765625
 endloop
endfacet
facet normal 0.3193635940551758 0.6042722463607788 -0.7299739122390747
 outer loop
  vertex 354500.0 5476500.0 6021.39990234375
  vertex 355500.0 5475500.0 5631.10009765625
  vertex 354500.0 5475500.0 5193.60009765625
 endloop
endfacet
facet normal 0.21830806136131287 0.5364765524864197 -0.8151898384094238
 outer loop
  vertex 354500.0 5476500.0 6021.39990234375
  vertex 355500.0 5476500.0 6289.2001953125
  vertex 355500.0 5475500.0 5631.10009765625
 endloop
endfacet
facet normal -0.054799411445856094 0.5489101409912109 -0.834083080291748
 outer loop
  vertex 355500.0 5476500.0 6289.2001953125
  vertex 356500.0 5475500.0 5565.39990234375
  vertex 355500.0 5475500.0 5631.10009765625
 endloop
endfacet
facet normal -0.24822883307933807 0.34124621748924255 -0.9066054821014404
 outer loop
  vertex 369500.0 5476500.0 6305.10009765625
  vertex 370500.0 5475500.0 5654.89990234375
  vertex 369500.0 5475500.0 5928.7001953125
 endloop
endfacet
facet normal -0.23047266900539398 0.3578793704509735 -0.9048783183097839
 outer loop
  vertex 369500.0 5476500.0 6305.10009765625
  vertex 370500.0 5476500.0 6050.39990234375
  vertex 370500.0 5475500.0 5654.89990234375
 endloop
endfacet
facet normal -0.24080008268356323 0.35695838928222656 -0.902549684047699
 outer loop
  vertex 370500.0 5476500.0 6050.39990234375
  vertex 371500.0 5475500.0 5388.10009765625
  vertex 370500.0 5475500.0 5654.89990234375
 endloop
endfacet
endsolid
