solid
facet normal 0.40063777565956116 0.3644912838935852 -0.8406162261962891
 outer loop
  vertex 639500.0 5567500.0 5496.39990234375
  vertex 640500.0 5567500.0 5973.0
  vertex 640500.0 5566500.0 5539.39990234375
 endloop
endfacet
facet normal 0.464433878660202 0.3523067235946655 -0.8125153183937073
 outer loop
  vertex 640500.0 5567500.0 5973.0
  vertex 641500.0 5566500.0 6111.0
  vertex 640500.0 5566500.0 5539.39990234375
 endloop
endfacet
facet normal -0.23357093334197998 -0.35831087827682495 -0.9039126038551331
 outer loop
  vertex 640500.0 5567500.0 5973.0
  vertex 641500.0 5567500.0 5714.60009765625
  vertex 641500.0 5566500.0 6111.0
 endloop
endfacet
facet normal -0.020483067259192467 -0.21955907344818115 -0.9753841757774353
 outer loop
  vertex 636500.0 5568500.0 6138.5
  vertex 637500.0 5567500.0 6342.60009765625
  vertex 636500.0 5567500.0 6363.60009765625
 endloop
endfacet
facet normal 0.2716982364654541 0.07588750869035721 -0.9593858122825623
 outer loop
  vertex 636500.0 5568500.0 6138.5
  vertex 637500.0 5568500.0 6421.7001953125
  vertex 637500.0 5567500.0 6342.60009765625
 endloop
endfacet
facet normal -0.4001542627811432 0.0722653865814209 -0.9135941863059998
 outer loop
  vertex 637500.0 5568500.0 6421.7001953125
  vertex 638500.0 5567500.0 5904.60009765625
  vertex 637500.0 5567500.0 6342.60009765625
 endloop
endfacet
facet normal -0.3395138680934906 0.14134782552719116 -0.929919958114624
 outer loop
  vertex 637500.0 5568500.0 6421.7001953125
  vertex 638500.0 5568500.0 6056.60009765625
  vertex 638500.0 5567500.0 5904.60009765625
 endloop
endfacet
facet normal -0.3742387294769287 0.1393539011478424 -0.916801929473877
 outer loop
  vertex 638500.0 5568500.0 6056.60009765625
  vertex 639500.0 5567500.0 5496.39990234375
  vertex 638500.0 5567500.0 5904.60009765625
 endloop
endfacet
facet normal -0.43168044090270996 0.0720217376947403 -0.8991467356681824
 outer loop
  vertex 638500.0 5568500.0 6056.60009765625
  vertex 639500.0 5568500.0 5576.5
  vertex 639500.0 5567500.0 5496.39990234375
 endloop
endfacet
facet normal 0.4291146397590637 0.07211942225694656 -0.9003662467002869
 outer loop
  vertex 639500.0 5568500.0 5576.5
  vertex 640500.0 5567500.0 5973.0
  vertex 639500.0 5567500.0 5496.39990234375
 endloop
endfacet
facet normal 0.35220950841903687 -0.018808303400874138 -0.9357321858406067
 outer loop
  vertex 639500.0 5568500.0 5576.5
  vertex 640500.0 5568500.0 5952.89990234375
  vertex 640500.0 5567500.0 5973.0
 endloop
endfacet
facet normal -0.2501350939273834 -0.019457204267382622 -0.9680154323577881
 outer loop
  vertex 640500.0 5568500.0 5952.89990234375
  vertex 641500.0 5567500.0 5714.60009765625
  vertex 640500.0 5567500.0 5973.0
 endloop
endfacet
facet normal 0.4773619472980499 0.6246370673179626 -0.6180244088172913
 outer loop
  vertex 640500.0 5568500.0 5952.89990234375
  vertex 641500.0 5568500.0 6725.2998046875
  vertex 641500.0 5567500.0 5714.60009765625
 endloop
endfacet
facet normal 0.2846003472805023 0.6814627647399902 -0.6742485165596008
 outer loop
  vertex 641500.0 5568500.0 6725.2998046875
  vertex 642500.0 5567500.0 6136.7001953125
  vertex 641500.0 5567500.0 5714.60009765625
 endloop
endfacet
facet normal -0.527953565120697 -0.028350237756967545 -0.8487999439239502
 outer loop
  vertex 641500.0 5568500.0 6725.2998046875
  vertex 642500.0 5568500.0 6103.2998046875
  vertex 642500.0 5567500.0 6136.7001953125
 endloop
endfacet
facet normal 0.2532322108745575 0.3692072331905365 -0.894180953502655
 outer loop
  vertex 636500.0 5569500.0 6551.39990234375
  vertex 637500.0 5568500.0 6421.7001953125
  vertex 636500.0 5568500.0 6138.5
 endloop
endfacet
facet normal -0.37973278760910034 -0.26476722955703735 -0.8863978981971741
 outer loop
  vertex 636500.0 5569500.0 6551.39990234375
  vertex 637500.0 5569500.0 6123.0
  vertex 637500.0 5568500.0 6421.7001953125
 endloop
endfacet
facet normal -0.3302052915096283 -0.27015161514282227 -0.9044239521026611
 outer loop
  vertex 637500.0 5569500.0 6123.0
  vertex 638500.0 5568500.0 6056.60009765625
  vertex 637500.0 5568500.0 6421.7001953125
 endloop
endfacet
facet normal -0.15467211604118347 -0.08934003859758377 -0.9839181303977966
 outer loop
  vertex 637500.0 5569500.0 6123.0
  vertex 638500.0 5569500.0 5965.7998046875
  vertex 638500.0 5568500.0 6056.60009765625
 endloop
endfacet
facet normal -0.43136170506477356 -0.08158250153064728 -0.8984827995300293
 outer loop
  vertex 638500.0 5569500.0 5965.7998046875
  vertex 639500.0 5568500.0 5576.5
  vertex 638500.0 5568500.0 6056.60009765625
 endloop
endfacet
facet normal -0.36648935079574585 -0.004279984161257744 -0.9304123520851135
 outer loop
  vertex 638500.0 5569500.0 5965.7998046875
  vertex 639500.0 5569500.0 5571.89990234375
  vertex 639500.0 5568500.0 5576.5
 endloop
endfacet
facet normal 0.3522685468196869 -0.004305181093513966 -0.9358890056610107
 outer loop
  vertex 639500.0 5569500.0 5571.89990234375
  vertex 640500.0 5568500.0 5952.89990234375
  vertex 639500.0 5568500.0 5576.5
 endloop
endfacet
facet normal 0.6303643584251404 0.37044140696525574 -0.6822125315666199
 outer loop
  vertex 639500.0 5569500.0 5571.89990234375
  vertex 640500.0 5569500.0 6495.89990234375
  vertex 640500.0 5568500.0 5952.89990234375
 endloop
endfacet
facet normal 0.5616227984428406 0.3948229253292084 -0.7271140217781067
 outer loop
  vertex 640500.0 5569500.0 6495.89990234375
  vertex 641500.0 5568500.0 6725.2998046875
  vertex 640500.0 5568500.0 5952.89990234375
 endloop
endfacet
facet normal 0.5455770492553711 0.37347131967544556 -0.7502432465553284
 outer loop
  vertex 640500.0 5569500.0 6495.89990234375
  vertex 641500.0 5569500.0 7223.10009765625
  vertex 641500.0 5568500.0 6725.2998046875
 endloop
endfacet
facet normal -0.4864887297153473 0.389347642660141 -0.7821362614631653
 outer loop
  vertex 641500.0 5569500.0 7223.10009765625
  vertex 642500.0 5568500.0 6103.2998046875
  vertex 641500.0 5568500.0 6725.2998046875
 endloop
endfacet
facet normal -0.3444257378578186 0.5262018442153931 -0.7774847149848938
 outer loop
  vertex 641500.0 5569500.0 7223.10009765625
  vertex 642500.0 5569500.0 6780.10009765625
  vertex 642500.0 5568500.0 6103.2998046875
 endloop
endfacet
facet normal 0.2539963722229004 0.5421152710914612 -0.8009973764419556
 outer loop
  vertex 642500.0 5569500.0 6780.10009765625
  vertex 643500.0 5568500.0 6420.39990234375
  vertex 642500.0 5568500.0 6103.2998046875
 endloop
endfacet
facet normal -0.545991837978363 -0.2594534754753113 -0.7966033816337585
 outer loop
  vertex 642500.0 5569500.0 6780.10009765625
  vertex 643500.0 5569500.0 6094.7001953125
  vertex 643500.0 5568500.0 6420.39990234375
 endloop
endfacet
facet normal -0.20377135276794434 -0.30319005250930786 -0.930888295173645
 outer loop
  vertex 643500.0 5569500.0 6094.7001953125
  vertex 644500.0 5568500.0 6201.5
  vertex 643500.0 5568500.0 6420.39990234375
 endloop
endfacet
facet normal -0.12743687629699707 -0.23046660423278809 -0.9646994471549988
 outer loop
  vertex 643500.0 5569500.0 6094.7001953125
  vertex 644500.0 5569500.0 5962.60009765625
  vertex 644500.0 5568500.0 6201.5
 endloop
endfacet
facet normal 0.022084344178438187 -0.4246639907360077 -0.9050816297531128
 outer loop
  vertex 635500.0 5570500.0 6057.7998046875
  vertex 636500.0 5570500.0 6082.2001953125
  vertex 636500.0 5569500.0 6551.39990234375
 endloop
endfacet
facet normal -0.3615897297859192 -0.39602670073509216 -0.8440471887588501
 outer loop
  vertex 636500.0 5570500.0 6082.2001953125
  vertex 637500.0 5569500.0 6123.0
  vertex 636500.0 5569500.0 6551.39990234375
 endloop
endfacet
facet normal -0.24054718017578125 -0.278484046459198 -0.9298298954963684
 outer loop
  vertex 636500.0 5570500.0 6082.2001953125
  vertex 637500.0 5570500.0 5823.5
  vertex 637500.0 5569500.0 6123.0
 endloop
endfacet
facet normal -0.14891214668750763 -0.28370949625968933 -0.9472771286964417
 outer loop
  vertex 637500.0 5570500.0 5823.5
  vertex 638500.0 5569500.0 5965.7998046875
  vertex 637500.0 5569500.0 6123.0
 endloop
endfacet
facet normal -0.1982726901769638 -0.32962366938591003 -0.923058032989502
 outer loop
  vertex 637500.0 5570500.0 5823.5
  vertex 638500.0 5570500.0 5608.7001953125
  vertex 638500.0 5569500.0 5965.7998046875
 endloop
endfacet
facet normal -0.34779810905456543 -0.3153049051761627 -0.8829606175422668
 outer loop
  vertex 638500.0 5570500.0 5608.7001953125
  vertex 639500.0 5569500.0 5571.89990234375
  vertex 638500.0 5569500.0 5965.7998046875
 endloop
endfacet
facet normal 0.16820457577705383 0.2036975920200348 -0.9644762873649597
 outer loop
  vertex 638500.0 5570500.0 5608.7001953125
  vertex 639500.0 5570500.0 5783.10009765625
  vertex 639500.0 5569500.0 5571.89990234375
 endloop
endfacet
facet normal 0.6706257462501526 0.15328602492809296 -0.7257854342460632
 outer loop
  vertex 639500.0 5570500.0 5783.10009765625
  vertex 640500.0 5569500.0 6495.89990234375
  vertex 639500.0 5569500.0 5571.89990234375
 endloop
endfacet
facet normal -0.13670217990875244 -0.6619921326637268 -0.7369389533996582
 outer loop
  vertex 639500.0 5570500.0 5783.10009765625
  vertex 640500.0 5570500.0 5597.60009765625
  vertex 640500.0 5569500.0 6495.89990234375
 endloop
endfacet
facet normal 0.47581666707992554 -0.5877693891525269 -0.6543132066726685
 outer loop
  vertex 640500.0 5570500.0 5597.60009765625
  vertex 641500.0 5569500.0 7223.10009765625
  vertex 640500.0 5569500.0 6495.89990234375
 endloop
endfacet
facet normal 0.04589315503835678 -0.8379861116409302 -0.5437583923339844
 outer loop
  vertex 640500.0 5570500.0 5597.60009765625
  vertex 641500.0 5570500.0 5682.0
  vertex 641500.0 5569500.0 7223.10009765625
 endloop
endfacet
facet normal -0.2344198077917099 -0.8154952526092529 -0.5291643738746643
 outer loop
  vertex 641500.0 5570500.0 5682.0
  vertex 642500.0 5569500.0 6780.10009765625
  vertex 641500.0 5569500.0 7223.10009765625
 endloop
endfacet
facet normal -0.06449434906244278 -0.1317586898803711 -0.9891815781593323
 outer loop
  vertex 634500.0 5571500.0 5989.7998046875
  vertex 635500.0 5571500.0 5924.60009765625
  vertex 635500.0 5570500.0 6057.7998046875
 endloop
endfacet
facet normal 0.024179698899388313 -0.13199496269226074 -0.9909554123878479
 outer loop
  vertex 635500.0 5571500.0 5924.60009765625
  vertex 636500.0 5570500.0 6082.2001953125
  vertex 635500.0 5570500.0 6057.7998046875
 endloop
endfacet
facet normal -0.17136958241462708 -0.3183108866214752 -0.9323683381080627
 outer loop
  vertex 635500.0 5571500.0 5924.60009765625
  vertex 636500.0 5571500.0 5740.7998046875
  vertex 636500.0 5570500.0 6082.2001953125
 endloop
endfacet
facet normal -0.2378024309873581 -0.3138221204280853 -0.9192202091217041
 outer loop
  vertex 636500.0 5571500.0 5740.7998046875
  vertex 637500.0 5570500.0 5823.5
  vertex 636500.0 5570500.0 6082.2001953125
 endloop
endfacet
facet normal -0.12799738347530365 -0.20818985998630524 -0.9696770906448364
 outer loop
  vertex 636500.0 5571500.0 5740.7998046875
  vertex 637500.0 5571500.0 5608.7998046875
  vertex 637500.0 5570500.0 5823.5
 endloop
endfacet
facet normal -0.2055302858352661 -0.20543496310710907 -0.956845760345459
 outer loop
  vertex 637500.0 5571500.0 5608.7998046875
  vertex 638500.0 5570500.0 5608.7001953125
  vertex 637500.0 5570500.0 5823.5
 endloop
endfacet
facet normal 0.044610947370529175 0.04471036046743393 -0.9980034232139587
 outer loop
  vertex 637500.0 5571500.0 5608.7998046875
  vertex 638500.0 5571500.0 5653.5
  vertex 638500.0 5570500.0 5608.7001953125
 endloop
endfacet
facet normal 0.17163962125778198 0.044090744107961655 -0.9841726422309875
 outer loop
  vertex 638500.0 5571500.0 5653.5
  vertex 639500.0 5570500.0 5783.10009765625
  vertex 638500.0 5570500.0 5608.7001953125
 endloop
endfacet
facet normal 0.018483402207493782 -0.11030358821153641 -0.9937260746955872
 outer loop
  vertex 638500.0 5571500.0 5653.5
  vertex 639500.0 5571500.0 5672.10009765625
  vertex 639500.0 5570500.0 5783.10009765625
 endloop
endfacet
facet normal -0.18131190538406372 -0.10849391669034958 -0.9774227142333984
 outer loop
  vertex 639500.0 5571500.0 5672.10009765625
  vertex 640500.0 5570500.0 5597.60009765625
  vertex 639500.0 5570500.0 5783.10009765625
 endloop
endfacet
facet normal 0.1942964643239975 0.26466643810272217 -0.9445636868476868
 outer loop
  vertex 639500.0 5571500.0 5672.10009765625
  vertex 640500.0 5571500.0 5877.7998046875
  vertex 640500.0 5570500.0 5597.60009765625
 endloop
endfacet
facet normal 0.08100279420614243 0.2689216434955597 -0.9597498178482056
 outer loop
  vertex 640500.0 5571500.0 5877.7998046875
  vertex 641500.0 5570500.0 5682.0
  vertex 640500.0 5570500.0 5597.60009765625
 endloop
endfacet
facet normal -0.13062618672847748 -0.06036512926220894 -0.9895922541618347
 outer loop
  vertex 636500.0 5572500.0 5679.7998046875
  vertex 637500.0 5571500.0 5608.7998046875
  vertex 636500.0 5571500.0 5740.7998046875
 endloop
endfacet
facet normal 0.0008980719139799476 0.07171522825956345 -0.9974247813224792
 outer loop
  vertex 636500.0 5572500.0 5679.7998046875
  vertex 637500.0 5572500.0 5680.7001953125
  vertex 637500.0 5571500.0 5608.7998046875
 endloop
endfacet
facet normal 0.04454084858298302 0.07164408266544342 -0.9964352250099182
 outer loop
  vertex 637500.0 5572500.0 5680.7001953125
  vertex 638500.0 5571500.0 5653.5
  vertex 637500.0 5571500.0 5608.7998046875
 endloop
endfacet
facet normal 0.0035978800151497126 0.030785007402300835 -0.9995195269584656
 outer loop
  vertex 637500.0 5572500.0 5680.7001953125
  vertex 638500.0 5572500.0 5684.2998046875
  vertex 638500.0 5571500.0 5653.5
 endloop
endfacet
facet normal 0.018588069826364517 0.030779888853430748 -0.9993533492088318
 outer loop
  vertex 638500.0 5572500.0 5684.2998046875
  vertex 639500.0 5571500.0 5672.10009765625
  vertex 638500.0 5571500.0 5653.5
 endloop
endfacet
endsolid
