solid
facet normal -0.005285013001412153 -0.07508642971515656 -0.9971630573272705
 outer loop
  vertex 540500.0 5936500.0 2651.800048828125
  vertex 541500.0 5936500.0 2646.5
  vertex 541500.0 5935500.0 2721.800048828125
 endloop
endfacet
facet normal -0.07329422980546951 -0.07488550990819931 -0.9944949150085449
 outer loop
  vertex 541500.0 5936500.0 2646.5
  vertex 542500.0 5935500.0 2648.10009765625
  vertex 541500.0 5935500.0 2721.800048828125
 endloop
endfacet
facet normal -0.013998612761497498 0.001499851350672543 -0.9999008774757385
 outer loop
  vertex 533500.0 5943500.0 2668.39990234375
  vertex 534500.0 5943500.0 2654.39990234375
  vertex 534500.0 5942500.0 2652.89990234375
 endloop
endfacet
facet normal -0.013997781090438366 -0.010998256504535675 -0.9998415112495422
 outer loop
  vertex 533500.0 5944500.0 2657.39990234375
  vertex 534500.0 5943500.0 2654.39990234375
  vertex 533500.0 5943500.0 2668.39990234375
 endloop
endfacet
facet normal -0.0047997417859733105 -0.0017997811082750559 -0.9999868869781494
 outer loop
  vertex 533500.0 5944500.0 2657.39990234375
  vertex 534500.0 5944500.0 2652.60009765625
  vertex 534500.0 5943500.0 2654.39990234375
 endloop
endfacet
facet normal -0.004799721762537956 -0.003399843582883477 -0.9999827146530151
 outer loop
  vertex 533500.0 5945500.0 2654.0
  vertex 534500.0 5944500.0 2652.60009765625
  vertex 533500.0 5944500.0 2657.39990234375
 endloop
endfacet
facet normal -0.0059998612850904465 -0.003199877217411995 -0.9999768733978271
 outer loop
  vertex 532500.0 5946500.0 2656.800048828125
  vertex 533500.0 5946500.0 2650.800048828125
  vertex 533500.0 5945500.0 2654.0
 endloop
endfacet
facet normal -0.005999727640300989 -0.007399810943752527 -0.9999546408653259
 outer loop
  vertex 532500.0 5947500.0 2649.39990234375
  vertex 533500.0 5946500.0 2650.800048828125
  vertex 532500.0 5946500.0 2656.800048828125
 endloop
endfacet
facet normal -0.00149999198038131 -0.002900131046772003 -0.999994695186615
 outer loop
  vertex 532500.0 5947500.0 2649.39990234375
  vertex 533500.0 5947500.0 2647.89990234375
  vertex 533500.0 5946500.0 2650.800048828125
 endloop
endfacet
facet normal -0.010299439541995525 -0.0034997928887605667 -0.999940812587738
 outer loop
  vertex 531500.0 5948500.0 2656.199951171875
  vertex 532500.0 5948500.0 2645.89990234375
  vertex 532500.0 5947500.0 2649.39990234375
 endloop
endfacet
facet normal -0.0014999890699982643 -0.0034999747294932604 -0.9999927282333374
 outer loop
  vertex 532500.0 5948500.0 2645.89990234375
  vertex 533500.0 5947500.0 2647.89990234375
  vertex 532500.0 5947500.0 2649.39990234375
 endloop
endfacet
facet normal -0.008799458853900433 -0.0010998102370649576 -0.9999606609344482
 outer loop
  vertex 530500.0 5949500.0 2663.89990234375
  vertex 531500.0 5949500.0 2655.10009765625
  vertex 531500.0 5948500.0 2656.199951171875
 endloop
endfacet
facet normal -0.010299496352672577 -0.001099794520996511 -0.9999463558197021
 outer loop
  vertex 531500.0 5949500.0 2655.10009765625
  vertex 532500.0 5948500.0 2645.89990234375
  vertex 531500.0 5948500.0 2656.199951171875
 endloop
endfacet
facet normal -0.01219923235476017 -0.002999763237312436 -0.9999210834503174
 outer loop
  vertex 531500.0 5949500.0 2655.10009765625
  vertex 532500.0 5949500.0 2642.89990234375
  vertex 532500.0 5948500.0 2645.89990234375
 endloop
endfacet
facet normal -0.01219873782247305 -0.009498865343630314 -0.9998804926872253
 outer loop
  vertex 531500.0 5950500.0 2645.60009765625
  vertex 532500.0 5949500.0 2642.89990234375
  vertex 531500.0 5949500.0 2655.10009765625
 endloop
endfacet
facet normal -0.00999900046736002 -0.00999900046736002 -0.9998999834060669
 outer loop
  vertex 527500.0 5952500.0 2663.89990234375
  vertex 528500.0 5952500.0 2653.89990234375
  vertex 528500.0 5951500.0 2663.89990234375
 endloop
endfacet
facet normal -0.00010009765537688509 0.0 -1.0
 outer loop
  vertex 526500.0 5953500.0 2664.0
  vertex 527500.0 5953500.0 2663.89990234375
  vertex 527500.0 5952500.0 2663.89990234375
 endloop
endfacet
facet normal -0.009999499656260014 -0.0 -0.9999499917030334
 outer loop
  vertex 527500.0 5953500.0 2663.89990234375
  vertex 528500.0 5952500.0 2653.89990234375
  vertex 527500.0 5952500.0 2663.89990234375
 endloop
endfacet
facet normal -0.00010008983372244984 -0.012499023228883743 -0.9999218583106995
 outer loop
  vertex 526500.0 5954500.0 2651.5
  vertex 527500.0 5953500.0 2663.89990234375
  vertex 526500.0 5953500.0 2664.0
 endloop
endfacet
facet normal -0.015498063527047634 -0.0030997104477137327 -0.9998750686645508
 outer loop
  vertex 525500.0 5955500.0 2663.89990234375
  vertex 526500.0 5955500.0 2648.39990234375
  vertex 526500.0 5954500.0 2651.5
 endloop
endfacet
facet normal -0.015498138032853603 -0.0 -0.9998798966407776
 outer loop
  vertex 525500.0 5956500.0 2663.89990234375
  vertex 526500.0 5955500.0 2648.39990234375
  vertex 525500.0 5955500.0 2663.89990234375
 endloop
endfacet
facet normal 0.0 0.0 -1.0
 outer loop
  vertex 524500.0 5957500.0 2663.89990234375
  vertex 525500.0 5957500.0 2663.89990234375
  vertex 525500.0 5956500.0 2663.89990234375
 endloop
endfacet
facet normal 0.0 -0.013598596677184105 -0.9999075531959534
 outer loop
  vertex 524500.0 5958500.0 2650.300048828125
  vertex 525500.0 5957500.0 2663.89990234375
  vertex 524500.0 5957500.0 2663.89990234375
 endloop
endfacet
facet normal -0.016097716987133026 -0.0024996681604534388 -0.9998672604560852
 outer loop
  vertex 523500.0 5959500.0 2663.89990234375
  vertex 524500.0 5959500.0 2647.800048828125
  vertex 524500.0 5958500.0 2650.300048828125
 endloop
endfacet
facet normal -0.01609748788177967 -0.00589903537184 -0.9998530149459839
 outer loop
  vertex 523500.0 5960500.0 2658.0
  vertex 524500.0 5959500.0 2647.800048828125
  vertex 523500.0 5959500.0 2663.89990234375
 endloop
endfacet
facet normal -0.0001000959164230153 0.0058997999876737595 -0.9999826550483704
 outer loop
  vertex 522500.0 5961500.0 2664.0
  vertex 523500.0 5961500.0 2663.89990234375
  vertex 523500.0 5960500.0 2658.0
 endloop
endfacet
facet normal -0.006299798842519522 -0.006299798842519522 -0.9999603033065796
 outer loop
  vertex 521500.0 5962500.0 2664.0
  vertex 522500.0 5962500.0 2657.699951171875
  vertex 522500.0 5961500.0 2664.0
 endloop
endfacet
facet normal -0.00010009566904045641 -0.00629992363974452 -0.9999801516532898
 outer loop
  vertex 522500.0 5962500.0 2657.699951171875
  vertex 523500.0 5961500.0 2663.89990234375
  vertex 522500.0 5961500.0 2664.0
 endloop
endfacet
facet normal -0.00629992363974452 -0.0 -0.9999801516532898
 outer loop
  vertex 521500.0 5963500.0 2664.0
  vertex 522500.0 5962500.0 2657.699951171875
  vertex 521500.0 5962500.0 2664.0
 endloop
endfacet
facet normal -0.00779980281367898 -0.0014999526320025325 -0.999968409538269
 outer loop
  vertex 521500.0 5963500.0 2664.0
  vertex 522500.0 5963500.0 2656.199951171875
  vertex 522500.0 5962500.0 2657.699951171875
 endloop
endfacet
facet normal -0.022688264027237892 -0.022688264027237892 -0.9994851350784302
 outer loop
  vertex 520500.0 5964500.0 2664.0
  vertex 521500.0 5964500.0 2641.300048828125
  vertex 521500.0 5963500.0 2664.0
 endloop
endfacet
facet normal -0.0077978032641112804 -0.022693416103720665 -0.9997121095657349
 outer loop
  vertex 521500.0 5964500.0 2641.300048828125
  vertex 522500.0 5963500.0 2656.199951171875
  vertex 521500.0 5963500.0 2664.0
 endloop
endfacet
facet normal -0.022887904196977615 -0.022887904196977615 -0.9994760155677795
 outer loop
  vertex 519500.0 5965500.0 2664.0
  vertex 520500.0 5965500.0 2641.10009765625
  vertex 520500.0 5964500.0 2664.0
 endloop
endfacet
facet normal -0.022688159719109535 -0.022888008505105972 -0.9994806051254272
 outer loop
  vertex 520500.0 5965500.0 2641.10009765625
  vertex 521500.0 5964500.0 2641.300048828125
  vertex 520500.0 5964500.0 2664.0
 endloop
endfacet
facet normal -0.00010009765537688509 -0.00010009765537688509 -1.0
 outer loop
  vertex 518500.0 5966500.0 2664.0
  vertex 519500.0 5966500.0 2663.89990234375
  vertex 519500.0 5965500.0 2664.0
 endloop
endfacet
facet normal -0.02289390005171299 -0.00010007141827372834 -0.9997378587722778
 outer loop
  vertex 519500.0 5966500.0 2663.89990234375
  vertex 520500.0 5965500.0 2641.10009765625
  vertex 519500.0 5965500.0 2664.0
 endloop
endfacet
facet normal -0.00010007187665905803 -0.02269410528242588 -0.9997424483299255
 outer loop
  vertex 518500.0 5967500.0 2641.300048828125
  vertex 519500.0 5966500.0 2663.89990234375
  vertex 518500.0 5966500.0 2664.0
 endloop
endfacet
endsolid
