solid
facet normal -0.0976024866104126 -0.05108705163002014 -0.9939134120941162
 outer loop
  vertex 640500.0 5489500.0 5831.7001953125
  vertex 641500.0 5488500.0 5784.89990234375
  vertex 640500.0 5488500.0 5883.10009765625
 endloop
endfacet
facet normal -0.05610917881131172 -0.009384679608047009 -0.9983804821968079
 outer loop
  vertex 640500.0 5489500.0 5831.7001953125
  vertex 641500.0 5489500.0 5775.5
  vertex 641500.0 5488500.0 5784.89990234375
 endloop
endfacet
facet normal -0.0170034971088171 -0.1835024207830429 -0.9828721880912781
 outer loop
  vertex 639500.0 5490500.0 5662.2998046875
  vertex 640500.0 5490500.0 5645.0
  vertex 640500.0 5489500.0 5831.7001953125
 endloop
endfacet
facet normal -0.05516147240996361 -0.18324951827526093 -0.9815176129341125
 outer loop
  vertex 640500.0 5490500.0 5645.0
  vertex 641500.0 5489500.0 5775.5
  vertex 640500.0 5489500.0 5831.7001953125
 endloop
endfacet
facet normal -0.007429384160786867 -0.13670067489147186 -0.9905845522880554
 outer loop
  vertex 640500.0 5490500.0 5645.0
  vertex 641500.0 5490500.0 5637.5
  vertex 641500.0 5489500.0 5775.5
 endloop
endfacet
facet normal -0.32599449157714844 -0.12923650443553925 -0.9364964365959167
 outer loop
  vertex 641500.0 5490500.0 5637.5
  vertex 642500.0 5489500.0 5427.39990234375
  vertex 641500.0 5489500.0 5775.5
 endloop
endfacet
facet normal -0.2140149623155594 -0.008791117928922176 -0.9767908453941345
 outer loop
  vertex 641500.0 5490500.0 5637.5
  vertex 642500.0 5490500.0 5418.39990234375
  vertex 642500.0 5489500.0 5427.39990234375
 endloop
endfacet
facet normal 0.06803939491510391 -0.008978779427707195 -0.9976422190666199
 outer loop
  vertex 642500.0 5490500.0 5418.39990234375
  vertex 643500.0 5489500.0 5495.60009765625
  vertex 642500.0 5489500.0 5427.39990234375
 endloop
endfacet
facet normal 0.05779236927628517 -0.019264448434114456 -0.9981427788734436
 outer loop
  vertex 642500.0 5490500.0 5418.39990234375
  vertex 643500.0 5490500.0 5476.2998046875
  vertex 643500.0 5489500.0 5495.60009765625
 endloop
endfacet
facet normal 0.11922130733728409 -0.019159071147441864 -0.9926828742027283
 outer loop
  vertex 643500.0 5490500.0 5476.2998046875
  vertex 644500.0 5489500.0 5615.7001953125
  vertex 643500.0 5489500.0 5495.60009765625
 endloop
endfacet
facet normal 0.05741371959447861 -0.08129455894231796 -0.9950351119041443
 outer loop
  vertex 643500.0 5490500.0 5476.2998046875
  vertex 644500.0 5490500.0 5534.0
  vertex 644500.0 5489500.0 5615.7001953125
 endloop
endfacet
facet normal 0.058008357882499695 -0.08129176497459412 -0.9950008392333984
 outer loop
  vertex 644500.0 5490500.0 5534.0
  vertex 645500.0 5489500.0 5674.0
  vertex 644500.0 5489500.0 5615.7001953125
 endloop
endfacet
facet normal 0.10810951888561249 -0.031002243980765343 -0.9936554431915283
 outer loop
  vertex 644500.0 5490500.0 5534.0
  vertex 645500.0 5490500.0 5642.7998046875
  vertex 645500.0 5489500.0 5674.0
 endloop
endfacet
facet normal -0.00539719732478261 -0.031184565275907516 -0.9994990825653076
 outer loop
  vertex 645500.0 5490500.0 5642.7998046875
  vertex 646500.0 5489500.0 5668.60009765625
  vertex 645500.0 5489500.0 5674.0
 endloop
endfacet
facet normal 0.009698482230305672 -0.016097255051136017 -0.9998233914375305
 outer loop
  vertex 645500.0 5490500.0 5642.7998046875
  vertex 646500.0 5490500.0 5652.5
  vertex 646500.0 5489500.0 5668.60009765625
 endloop
endfacet
facet normal -0.11374892294406891 -0.10198822617530823 -0.9882608652114868
 outer loop
  vertex 638500.0 5491500.0 5674.2001953125
  vertex 639500.0 5491500.0 5559.10009765625
  vertex 639500.0 5490500.0 5662.2998046875
 endloop
endfacet
facet normal -0.0172058567404747 -0.10263931006193161 -0.9945698380470276
 outer loop
  vertex 639500.0 5491500.0 5559.10009765625
  vertex 640500.0 5490500.0 5645.0
  vertex 639500.0 5490500.0 5662.2998046875
 endloop
endfacet
facet normal -0.058584097772836685 -0.14344656467437744 -0.9879226088523865
 outer loop
  vertex 639500.0 5491500.0 5559.10009765625
  vertex 640500.0 5491500.0 5499.7998046875
  vertex 640500.0 5490500.0 5645.0
 endloop
endfacet
facet normal -0.007421962916851044 -0.1436893790960312 -0.9895950555801392
 outer loop
  vertex 640500.0 5491500.0 5499.7998046875
  vertex 641500.0 5490500.0 5637.5
  vertex 640500.0 5490500.0 5645.0
 endloop
endfacet
facet normal 0.07086467742919922 -0.06618662178516388 -0.9952876567840576
 outer loop
  vertex 640500.0 5491500.0 5499.7998046875
  vertex 641500.0 5491500.0 5571.0
  vertex 641500.0 5490500.0 5637.5
 endloop
endfacet
facet normal -0.21357309818267822 -0.0648224800825119 -0.9747741222381592
 outer loop
  vertex 641500.0 5491500.0 5571.0
  vertex 642500.0 5490500.0 5418.39990234375
  vertex 641500.0 5490500.0 5637.5
 endloop
endfacet
facet normal -0.14262184500694275 0.008412802591919899 -0.9897415041923523
 outer loop
  vertex 641500.0 5491500.0 5571.0
  vertex 642500.0 5491500.0 5426.89990234375
  vertex 642500.0 5490500.0 5418.39990234375
 endloop
endfacet
facet normal 0.0578010119497776 0.008485482074320316 -0.9982920289039612
 outer loop
  vertex 642500.0 5491500.0 5426.89990234375
  vertex 643500.0 5490500.0 5476.2998046875
  vertex 642500.0 5490500.0 5418.39990234375
 endloop
endfacet
facet normal 0.08030073344707489 0.03108430840075016 -0.9962858557701111
 outer loop
  vertex 642500.0 5491500.0 5426.89990234375
  vertex 643500.0 5491500.0 5507.5
  vertex 643500.0 5490500.0 5476.2998046875
 endloop
endfacet
facet normal 0.057576458901166916 0.031133288517594337 -0.997855544090271
 outer loop
  vertex 643500.0 5491500.0 5507.5
  vertex 644500.0 5490500.0 5534.0
  vertex 643500.0 5490500.0 5476.2998046875
 endloop
endfacet
facet normal 0.12431073188781738 0.09814523160457611 -0.9873774647712708
 outer loop
  vertex 643500.0 5491500.0 5507.5
  vertex 644500.0 5491500.0 5633.39990234375
  vertex 644500.0 5490500.0 5534.0
 endloop
endfacet
facet normal 0.10763727873563766 0.0983378067612648 -0.9893149137496948
 outer loop
  vertex 644500.0 5491500.0 5633.39990234375
  vertex 645500.0 5490500.0 5642.7998046875
  vertex 644500.0 5490500.0 5534.0
 endloop
endfacet
facet normal -0.022183172404766083 -0.03157607465982437 -0.9992551803588867
 outer loop
  vertex 644500.0 5491500.0 5633.39990234375
  vertex 645500.0 5491500.0 5611.2001953125
  vertex 645500.0 5490500.0 5642.7998046875
 endloop
endfacet
facet normal 0.0096949003636837 -0.03158235922455788 -0.9994540810585022
 outer loop
  vertex 645500.0 5491500.0 5611.2001953125
  vertex 646500.0 5490500.0 5652.5
  vertex 645500.0 5490500.0 5642.7998046875
 endloop
endfacet
facet normal 0.04126462712883949 0.0 -0.9991482496261597
 outer loop
  vertex 645500.0 5491500.0 5611.2001953125
  vertex 646500.0 5491500.0 5652.5
  vertex 646500.0 5490500.0 5652.5
 endloop
endfacet
facet normal -0.11352253705263138 0.11973600089550018 -0.9862940311431885
 outer loop
  vertex 638500.0 5492500.0 5795.60009765625
  vertex 639500.0 5491500.0 5559.10009765625
  vertex 638500.0 5491500.0 5674.2001953125
 endloop
endfacet
facet normal -0.03773990646004677 0.19409094750881195 -0.9802573323249817
 outer loop
  vertex 638500.0 5492500.0 5795.60009765625
  vertex 639500.0 5492500.0 5757.10009765625
  vertex 639500.0 5491500.0 5559.10009765625
 endloop
endfacet
facet normal -0.05807282030582428 0.19390152394771576 -0.9793006181716919
 outer loop
  vertex 639500.0 5492500.0 5757.10009765625
  vertex 640500.0 5491500.0 5499.7998046875
  vertex 639500.0 5491500.0 5559.10009765625
 endloop
endfacet
facet normal -0.04348423704504967 0.2079428881406784 -0.9771738648414612
 outer loop
  vertex 639500.0 5492500.0 5757.10009765625
  vertex 640500.0 5492500.0 5712.60009765625
  vertex 640500.0 5491500.0 5499.7998046875
 endloop
endfacet
facet normal 0.06947259604930878 0.20763689279556274 -0.9757359027862549
 outer loop
  vertex 640500.0 5492500.0 5712.60009765625
  vertex 641500.0 5491500.0 5571.0
  vertex 640500.0 5491500.0 5499.7998046875
 endloop
endfacet
facet normal -0.09110534191131592 0.04972993955016136 -0.9945987462997437
 outer loop
  vertex 640500.0 5492500.0 5712.60009765625
  vertex 641500.0 5492500.0 5621.0
  vertex 641500.0 5491500.0 5571.0
 endloop
endfacet
facet normal -0.14245255291461945 0.04942833632230759 -0.9885667562484741
 outer loop
  vertex 641500.0 5492500.0 5621.0
  vertex 642500.0 5491500.0 5426.89990234375
  vertex 641500.0 5491500.0 5571.0
 endloop
endfacet
facet normal -0.21876689791679382 -0.02945476770401001 -0.975332498550415
 outer loop
  vertex 641500.0 5492500.0 5621.0
  vertex 642500.0 5492500.0 5396.7001953125
  vertex 642500.0 5491500.0 5426.89990234375
 endloop
endfacet
facet normal 0.08030318468809128 -0.030088458210229874 -0.9963162541389465
 outer loop
  vertex 642500.0 5492500.0 5396.7001953125
  vertex 643500.0 5491500.0 5507.5
  vertex 642500.0 5491500.0 5426.89990234375
 endloop
endfacet
facet normal 0.09317860752344131 -0.01712283119559288 -0.9955021142959595
 outer loop
  vertex 642500.0 5492500.0 5396.7001953125
  vertex 643500.0 5492500.0 5490.2998046875
  vertex 643500.0 5491500.0 5507.5
 endloop
endfacet
facet normal 0.1248956099152565 -0.017062991857528687 -0.9920231699943542
 outer loop
  vertex 643500.0 5492500.0 5490.2998046875
  vertex 644500.0 5491500.0 5633.39990234375
  vertex 643500.0 5491500.0 5507.5
 endloop
endfacet
facet normal 0.05679826810956001 -0.08554540574550629 -0.9947140216827393
 outer loop
  vertex 643500.0 5492500.0 5490.2998046875
  vertex 644500.0 5492500.0 5547.39990234375
  vertex 644500.0 5491500.0 5633.39990234375
 endloop
endfacet
facet normal -0.022112656384706497 -0.08566277474164963 -0.9960787296295166
 outer loop
  vertex 644500.0 5492500.0 5547.39990234375
  vertex 645500.0 5491500.0 5611.2001953125
  vertex 644500.0 5491500.0 5633.39990234375
 endloop
endfacet
facet normal 0.01867794618010521 -0.04504643753170967 -0.9988102316856384
 outer loop
  vertex 644500.0 5492500.0 5547.39990234375
  vertex 645500.0 5492500.0 5566.10009765625
  vertex 645500.0 5491500.0 5611.2001953125
 endloop
endfacet
facet normal 0.04122280329465866 -0.045016005635261536 -0.9981354475021362
 outer loop
  vertex 645500.0 5492500.0 5566.10009765625
  vertex 646500.0 5491500.0 5652.5
  vertex 645500.0 5491500.0 5611.2001953125
 endloop
endfacet
facet normal 0.017356013879179955 -0.06882596015930176 -0.9974777102470398
 outer loop
  vertex 645500.0 5492500.0 5566.10009765625
  vertex 646500.0 5492500.0 5583.5
  vertex 646500.0 5491500.0 5652.5
 endloop
endfacet
facet normal -0.0444459430873394 -0.021274417638778687 -0.9987851977348328
 outer loop
  vertex 639500.0 5493500.0 5735.7998046875
  vertex 640500.0 5492500.0 5712.60009765625
  vertex 639500.0 5492500.0 5757.10009765625
 endloop
endfacet
facet normal 0.00020014052279293537 0.023393498733639717 -0.9997262954711914
 outer loop
  vertex 639500.0 5493500.0 5735.7998046875
  vertex 640500.0 5493500.0 5736.0
  vertex 640500.0 5492500.0 5712.60009765625
 endloop
endfacet
facet normal -0.09119345247745514 0.023296022787690163 -0.9955606460571289
 outer loop
  vertex 640500.0 5493500.0 5736.0
  vertex 641500.0 5492500.0 5621.0
  vertex 640500.0 5492500.0 5712.60009765625
 endloop
endfacet
facet normal -0.10432220250368118 0.010044470429420471 -0.9944928288459778
 outer loop
  vertex 640500.0 5493500.0 5736.0
  vertex 641500.0 5493500.0 5631.10009765625
  vertex 641500.0 5492500.0 5621.0
 endloop
endfacet
facet normal -0.218851238489151 0.009854751639068127 -0.975708544254303
 outer loop
  vertex 641500.0 5493500.0 5631.10009765625
  vertex 642500.0 5492500.0 5396.7001953125
  vertex 641500.0 5492500.0 5621.0
 endloop
endfacet
facet normal -0.24250786006450653 -0.015132580883800983 -0.9700314402580261
 outer loop
  vertex 641500.0 5493500.0 5631.10009765625
  vertex 642500.0 5493500.0 5381.10009765625
  vertex 642500.0 5492500.0 5396.7001953125
 endloop
endfacet
facet normal 0.09318103641271591 -0.015530334785580635 -0.9955280423164368
 outer loop
  vertex 642500.0 5493500.0 5381.10009765625
  vertex 643500.0 5492500.0 5490.2998046875
  vertex 642500.0 5492500.0 5396.7001953125
 endloop
endfacet
facet normal 0.09880903363227844 -0.009850969538092613 -0.9950577020645142
 outer loop
  vertex 642500.0 5493500.0 5381.10009765625
  vertex 643500.0 5493500.0 5480.39990234375
  vertex 643500.0 5492500.0 5490.2998046875
 endloop
endfacet
facet normal 0.05700445547699928 -0.009883319959044456 -0.998324990272522
 outer loop
  vertex 643500.0 5493500.0 5480.39990234375
  vertex 644500.0 5492500.0 5547.39990234375
  vertex 643500.0 5492500.0 5490.2998046875
 endloop
endfacet
facet normal 0.0016965796239674091 -0.06516093760728836 -0.9978733658790588
 outer loop
  vertex 643500.0 5493500.0 5480.39990234375
  vertex 644500.0 5493500.0 5482.10009765625
  vertex 644500.0 5492500.0 5547.39990234375
 endloop
endfacet
facet normal 0.018657205626368523 -0.065149687230587 -0.997701108455658
 outer loop
  vertex 644500.0 5493500.0 5482.10009765625
  vertex 645500.0 5492500.0 5566.10009765625
  vertex 644500.0 5492500.0 5547.39990234375
 endloop
endfacet
facet normal 0.021153291687369347 -0.06266279518604279 -0.9978105425834656
 outer loop
  vertex 644500.0 5493500.0 5482.10009765625
  vertex 645500.0 5493500.0 5503.2998046875
  vertex 645500.0 5492500.0 5566.10009765625
 endloop
endfacet
facet normal 0.01736307330429554 -0.0626673698425293 -0.9978834390640259
 outer loop
  vertex 645500.0 5493500.0 5503.2998046875
  vertex 646500.0 5492500.0 5583.5
  vertex 645500.0 5492500.0 5566.10009765625
 endloop
endfacet
facet normal 0.01836225762963295 -0.061671726405620575 -0.9979275465011597
 outer loop
  vertex 645500.0 5493500.0 5503.2998046875
  vertex 646500.0 5493500.0 5521.7001953125
  vertex 646500.0 5492500.0 5583.5
 endloop
endfacet
facet normal 0.00019975280156359076 -0.06645239889621735 -0.9977895617485046
 outer loop
  vertex 639500.0 5494500.0 5669.2001953125
  vertex 640500.0 5493500.0 5736.0
  vertex 639500.0 5493500.0 5735.7998046875
 endloop
endfacet
facet normal -0.04063164442777634 -0.10699252784252167 -0.9934292435646057
 outer loop
  vertex 639500.0 5494500.0 5669.2001953125
  vertex 640500.0 5494500.0 5628.2998046875
  vertex 640500.0 5493500.0 5736.0
 endloop
endfacet
facet normal -0.103734090924263 -0.10650325566530228 -0.9888864159584045
 outer loop
  vertex 640500.0 5494500.0 5628.2998046875
  vertex 641500.0 5493500.0 5631.10009765625
  vertex 640500.0 5493500.0 5736.0
 endloop
endfacet
facet normal -0.033857669681310654 -0.03665447607636452 -0.9987542629241943
 outer loop
  vertex 640500.0 5494500.0 5628.2998046875
  vertex 641500.0 5494500.0 5594.39990234375
  vertex 641500.0 5493500.0 5631.10009765625
 endloop
endfacet
facet normal -0.24238204956054688 -0.03558187559247017 -0.9695281982421875
 outer loop
  vertex 641500.0 5494500.0 5594.39990234375
  vertex 642500.0 5493500.0 5381.10009765625
  vertex 641500.0 5493500.0 5631.10009765625
 endloop
endfacet
facet normal -0.1660924255847931 0.04403487592935562 -0.9851264953613281
 outer loop
  vertex 641500.0 5494500.0 5594.39990234375
  vertex 642500.0 5494500.0 5425.7998046875
  vertex 642500.0 5493500.0 5381.10009765625
 endloop
endfacet
facet normal 0.09871621429920197 0.04443700239062309 -0.9941229224205017
 outer loop
  vertex 642500.0 5494500.0 5425.7998046875
  vertex 643500.0 5493500.0 5480.39990234375
  vertex 642500.0 5493500.0 5381.10009765625
 endloop
endfacet
facet normal -0.004292326048016548 -0.05879746004939079 -0.9982607364654541
 outer loop
  vertex 642500.0 5494500.0 5425.7998046875
  vertex 643500.0 5494500.0 5421.5
  vertex 643500.0 5493500.0 5480.39990234375
 endloop
endfacet
facet normal 0.0016972513403743505 -0.058797914534807205 -0.9982684254646301
 outer loop
  vertex 643500.0 5494500.0 5421.5
  vertex 644500.0 5493500.0 5482.10009765625
  vertex 643500.0 5493500.0 5480.39990234375
 endloop
endfacet
facet normal 0.027474572882056236 -0.033069491386413574 -0.9990753531455994
 outer loop
  vertex 643500.0 5494500.0 5421.5
  vertex 644500.0 5494500.0 5449.0
  vertex 644500.0 5493500.0 5482.10009765625
 endloop
endfacet
facet normal 0.021183347329497337 -0.033074554055929184 -0.9992283582687378
 outer loop
  vertex 644500.0 5494500.0 5449.0
  vertex 645500.0 5493500.0 5503.2998046875
  vertex 644500.0 5493500.0 5482.10009765625
 endloop
endfacet
facet normal 0.03117671236395836 -0.023082222789525986 -0.9992473125457764
 outer loop
  vertex 644500.0 5494500.0 5449.0
  vertex 645500.0 5494500.0 5480.2001953125
  vertex 645500.0 5493500.0 5503.2998046875
 endloop
endfacet
facet normal 0.018392371013760567 -0.023089542984962463 -0.9995641708374023
 outer loop
  vertex 645500.0 5494500.0 5480.2001953125
  vertex 646500.0 5493500.0 5521.7001953125
  vertex 645500.0 5493500.0 5503.2998046875
 endloop
endfacet
facet normal -0.0014986135065555573 -0.04296025261282921 -0.9990756511688232
 outer loop
  vertex 645500.0 5494500.0 5480.2001953125
  vertex 646500.0 5494500.0 5478.7001953125
  vertex 646500.0 5493500.0 5521.7001953125
 endloop
endfacet
facet normal -0.040844161063432693 -0.032855160534381866 -0.9986252188682556
 outer loop
  vertex 639500.0 5495500.0 5636.2998046875
  vertex 640500.0 5494500.0 5628.2998046875
  vertex 639500.0 5494500.0 5669.2001953125
 endloop
endfacet
facet normal -0.0051996163092553616 0.002800244139507413 -0.9999825358390808
 outer loop
  vertex 639500.0 5495500.0 5636.2998046875
  vertex 640500.0 5495500.0 5631.10009765625
  vertex 640500.0 5494500.0 5628.2998046875
 endloop
endfacet
facet normal -0.03388030827045441 0.0027986743953078985 -0.9994219541549683
 outer loop
  vertex 640500.0 5495500.0 5631.10009765625
  vertex 641500.0 5494500.0 5594.39990234375
  vertex 640500.0 5494500.0 5628.2998046875
 endloop
endfacet
facet normal -0.12346498668193817 -0.08718642592430115 -0.9885114431381226
 outer loop
  vertex 640500.0 5495500.0 5631.10009765625
  vertex 641500.0 5495500.0 5506.2001953125
  vertex 641500.0 5494500.0 5594.39990234375
 endloop
endfacet
facet normal -0.16562844812870026 -0.08664514869451523 -0.9823746085166931
 outer loop
  vertex 641500.0 5495500.0 5506.2001953125
  vertex 642500.0 5494500.0 5425.7998046875
  vertex 641500.0 5494500.0 5594.39990234375
 endloop
endfacet
facet normal -0.09298785030841827 -0.012942580506205559 -0.9955831170082092
 outer loop
  vertex 641500.0 5495500.0 5506.2001953125
  vertex 642500.0 5495500.0 5412.7998046875
  vertex 642500.0 5494500.0 5425.7998046875
 endloop
endfacet
facet normal -0.004299401771277189 -0.01299878116697073 -0.9999062418937683
 outer loop
  vertex 642500.0 5495500.0 5412.7998046875
  vertex 643500.0 5494500.0 5421.5
  vertex 642500.0 5494500.0 5425.7998046875
 endloop
endfacet
facet normal -0.05807122588157654 -0.06673730909824371 -0.9960792660713196
 outer loop
  vertex 642500.0 5495500.0 5412.7998046875
  vertex 643500.0 5495500.0 5354.5
  vertex 643500.0 5494500.0 5421.5
 endloop
endfacet
facet normal 0.02742816135287285 -0.06682497262954712 -0.9973876476287842
 outer loop
  vertex 643500.0 5495500.0 5354.5
  vertex 644500.0 5494500.0 5449.0
  vertex 643500.0 5494500.0 5421.5
 endloop
endfacet
facet normal 0.08528483659029007 -0.008867128752171993 -0.9963170886039734
 outer loop
  vertex 643500.0 5495500.0 5354.5
  vertex 644500.0 5495500.0 5440.10009765625
  vertex 644500.0 5494500.0 5449.0
 endloop
endfacet
facet normal 0.031183786690235138 -0.00889522209763527 -0.9994741082191467
 outer loop
  vertex 644500.0 5495500.0 5440.10009765625
  vertex 645500.0 5494500.0 5480.2001953125
  vertex 644500.0 5494500.0 5449.0
 endloop
endfacet
facet normal 0.029285529628396034 -0.010795030742883682 -0.999512791633606
 outer loop
  vertex 644500.0 5495500.0 5440.10009765625
  vertex 645500.0 5495500.0 5469.39990234375
  vertex 645500.0 5494500.0 5480.2001953125
 endloop
endfacet
facet normal -0.0014999108389019966 -0.01079965103417635 -0.9999405741691589
 outer loop
  vertex 645500.0 5495500.0 5469.39990234375
  vertex 646500.0 5494500.0 5478.7001953125
  vertex 645500.0 5494500.0 5480.2001953125
 endloop
endfacet
facet normal -0.044987913221120834 -0.05426507443189621 -0.9975125789642334
 outer loop
  vertex 645500.0 5495500.0 5469.39990234375
  vertex 646500.0 5495500.0 5424.2998046875
  vertex 646500.0 5494500.0 5478.7001953125
 endloop
endfacet
facet normal -0.005192321725189686 0.05302467942237854 -0.9985796809196472
 outer loop
  vertex 639500.0 5496500.0 5689.39990234375
  vertex 640500.0 5495500.0 5631.10009765625
  vertex 639500.0 5495500.0 5636.2998046875
 endloop
endfacet
facet normal -0.1603066325187683 -0.10307542234659195 -0.981670618057251
 outer loop
  vertex 639500.0 5496500.0 5689.39990234375
  vertex 640500.0 5496500.0 5526.10009765625
  vertex 640500.0 5495500.0 5631.10009765625
 endloop
endfacet
facet normal -0.12326965481042862 -0.10362949222326279 -0.9869475364685059
 outer loop
  vertex 640500.0 5496500.0 5526.10009765625
  vertex 641500.0 5495500.0 5506.2001953125
  vertex 640500.0 5495500.0 5631.10009765625
 endloop
endfacet
facet normal -0.004799690563231707 0.015097714960575104 -0.9998745322227478
 outer loop
  vertex 640500.0 5496500.0 5526.10009765625
  vertex 641500.0 5496500.0 5521.2998046875
  vertex 641500.0 5495500.0 5506.2001953125
 endloop
endfacet
facet normal -0.092985138297081 0.015032476745545864 -0.9955540299415588
 outer loop
  vertex 641500.0 5496500.0 5521.2998046875
  vertex 642500.0 5495500.0 5412.7998046875
  vertex 641500.0 5495500.0 5506.2001953125
 endloop
endfacet
facet normal -0.10531067848205566 0.002585626905784011 -0.9944360256195068
 outer loop
  vertex 641500.0 5496500.0 5521.2998046875
  vertex 642500.0 5496500.0 5415.39990234375
  vertex 642500.0 5495500.0 5412.7998046875
 endloop
endfacet
facet normal -0.05820078402757645 0.0025956814642995596 -0.9983015060424805
 outer loop
  vertex 642500.0 5496500.0 5415.39990234375
  vertex 643500.0 5495500.0 5354.5
  vertex 642500.0 5495500.0 5412.7998046875
 endloop
endfacet
facet normal -0.06575645506381989 -0.004989120177924633 -0.9978232383728027
 outer loop
  vertex 642500.0 5496500.0 5415.39990234375
  vertex 643500.0 5496500.0 5349.5
  vertex 643500.0 5495500.0 5354.5
 endloop
endfacet
facet normal 0.08528713881969452 -0.0049817198887467384 -0.9963439702987671
 outer loop
  vertex 643500.0 5496500.0 5349.5
  vertex 644500.0 5495500.0 5440.10009765625
  vertex 643500.0 5495500.0 5354.5
 endloop
endfacet
facet normal 0.4016388952732086 0.3240348696708679 -0.856555700302124
 outer loop
  vertex 643500.0 5496500.0 5349.5
  vertex 644500.0 5496500.0 5818.39990234375
  vertex 644500.0 5495500.0 5440.10009765625
 endloop
endfacet
facet normal 0.027394142001867294 0.3536950647830963 -0.9349596500396729
 outer loop
  vertex 644500.0 5496500.0 5818.39990234375
  vertex 645500.0 5495500.0 5469.39990234375
  vertex 644500.0 5495500.0 5440.10009765625
 endloop
endfacet
facet normal -0.13929222524166107 0.1992381066083908 -0.9700009822845459
 outer loop
  vertex 644500.0 5496500.0 5818.39990234375
  vertex 645500.0 5496500.0 5674.7998046875
  vertex 645500.0 5495500.0 5469.39990234375
 endloop
endfacet
facet normal -0.04413476213812828 0.20100347697734833 -0.9785957932472229
 outer loop
  vertex 645500.0 5496500.0 5674.7998046875
  vertex 646500.0 5495500.0 5424.2998046875
  vertex 645500.0 5495500.0 5469.39990234375
 endloop
endfacet
facet normal 0.01507377065718174 0.2571222186088562 -0.9662612676620483
 outer loop
  vertex 645500.0 5496500.0 5674.7998046875
  vertex 646500.0 5496500.0 5690.39990234375
  vertex 646500.0 5495500.0 5424.2998046875
 endloop
endfacet
facet normal -0.07157007604837418 -0.1905270367860794 -0.9790695905685425
 outer loop
  vertex 638500.0 5497500.0 5567.89990234375
  vertex 639500.0 5497500.0 5494.7998046875
  vertex 639500.0 5496500.0 5689.39990234375
 endloop
endfacet
facet normal -0.15827250480651855 -0.18860921263694763 -0.9692143797874451
 outer loop
  vertex 639500.0 5497500.0 5494.7998046875
  vertex 640500.0 5496500.0 5526.10009765625
  vertex 639500.0 5496500.0 5689.39990234375
 endloop
endfacet
facet normal -0.0490812212228775 -0.08024273067712784 -0.9955662488937378
 outer loop
  vertex 639500.0 5497500.0 5494.7998046875
  vertex 640500.0 5497500.0 5445.5
  vertex 640500.0 5496500.0 5526.10009765625
 endloop
endfacet
facet normal -0.004784717690199614 -0.08033864200115204 -0.9967561960220337
 outer loop
  vertex 640500.0 5497500.0 5445.5
  vertex 641500.0 5496500.0 5521.2998046875
  vertex 640500.0 5496500.0 5526.10009765625
 endloop
endfacet
facet normal -0.009664482437074184 -0.0851852148771286 -0.9963182806968689
 outer loop
  vertex 640500.0 5497500.0 5445.5
  vertex 641500.0 5497500.0 5435.7998046875
  vertex 641500.0 5496500.0 5521.2998046875
 endloop
endfacet
facet normal -0.10493242740631104 -0.08471889048814774 -0.9908642172813416
 outer loop
  vertex 641500.0 5497500.0 5435.7998046875
  vertex 642500.0 5496500.0 5415.39990234375
  vertex 641500.0 5496500.0 5521.2998046875
 endloop
endfacet
facet normal -0.04920133948326111 -0.03962041810154915 -0.9980027675628662
 outer loop
  vertex 639500.0 5498500.0 5455.10009765625
  vertex 640500.0 5497500.0 5445.5
  vertex 639500.0 5497500.0 5494.7998046875
 endloop
endfacet
facet normal 0.03564047813415527 0.04522464796900749 -0.998340904712677
 outer loop
  vertex 639500.0 5498500.0 5455.10009765625
  vertex 640500.0 5498500.0 5490.7998046875
  vertex 640500.0 5497500.0 5445.5
 endloop
endfacet
facet normal -0.00968980323523283 0.0452512726187706 -0.9989286661148071
 outer loop
  vertex 640500.0 5498500.0 5490.7998046875
  vertex 641500.0 5497500.0 5435.7998046875
  vertex 640500.0 5497500.0 5445.5
 endloop
endfacet
facet normal -0.010690114460885525 0.04096324369311333 -0.9991034865379333
 outer loop
  vertex 638500.0 5499500.0 5506.7998046875
  vertex 639500.0 5499500.0 5496.10009765625
  vertex 639500.0 5498500.0 5455.10009765625
 endloop
endfacet
facet normal 0.03564706817269325 0.04093954712152481 -0.9985255599021912
 outer loop
  vertex 639500.0 5499500.0 5496.10009765625
  vertex 640500.0 5498500.0 5490.7998046875
  vertex 639500.0 5498500.0 5455.10009765625
 endloop
endfacet
endsolid
