solid
facet normal -0.0009001430589705706 -0.002600087784230709 -0.9999961853027344
 outer loop
  vertex 379500.0 5904500.0 2662.60009765625
  vertex 380500.0 5904500.0 2661.699951171875
  vertex 380500.0 5903500.0 2664.300048828125
 endloop
endfacet
facet normal 0.0005998513661324978 -0.00260008848272264 -0.9999964237213135
 outer loop
  vertex 380500.0 5904500.0 2661.699951171875
  vertex 381500.0 5903500.0 2664.89990234375
  vertex 380500.0 5903500.0 2664.300048828125
 endloop
endfacet
facet normal 0.0016000935574993491 -0.001599849434569478 -0.9999974370002747
 outer loop
  vertex 380500.0 5904500.0 2661.699951171875
  vertex 381500.0 5904500.0 2663.300048828125
  vertex 381500.0 5903500.0 2664.89990234375
 endloop
endfacet
facet normal -0.0009001406142488122 -0.0034999772906303406 -0.9999935030937195
 outer loop
  vertex 379500.0 5905500.0 2659.10009765625
  vertex 380500.0 5904500.0 2661.699951171875
  vertex 379500.0 5904500.0 2662.60009765625
 endloop
endfacet
facet normal 0.0 -0.0025998447090387344 -0.9999966025352478
 outer loop
  vertex 379500.0 5905500.0 2659.10009765625
  vertex 380500.0 5905500.0 2659.10009765625
  vertex 380500.0 5904500.0 2661.699951171875
 endloop
endfacet
facet normal 0.001600090297870338 -0.0025998414494097233 -0.9999953508377075
 outer loop
  vertex 380500.0 5905500.0 2659.10009765625
  vertex 381500.0 5904500.0 2663.300048828125
  vertex 380500.0 5904500.0 2661.699951171875
 endloop
endfacet
facet normal 0.0006999467150308192 -0.003499977756291628 -0.999993622303009
 outer loop
  vertex 380500.0 5905500.0 2659.10009765625
  vertex 381500.0 5905500.0 2659.800048828125
  vertex 381500.0 5904500.0 2663.300048828125
 endloop
endfacet
facet normal 0.0 -0.0023000428918749094 -0.9999973773956299
 outer loop
  vertex 379500.0 5906500.0 2656.800048828125
  vertex 380500.0 5905500.0 2659.10009765625
  vertex 379500.0 5905500.0 2659.10009765625
 endloop
endfacet
facet normal 0.00019995072216261178 -0.002100092824548483 -0.9999977350234985
 outer loop
  vertex 379500.0 5906500.0 2656.800048828125
  vertex 380500.0 5906500.0 2657.0
  vertex 380500.0 5905500.0 2659.10009765625
 endloop
endfacet
facet normal 0.0006999494507908821 -0.0021000925917178392 -0.9999975562095642
 outer loop
  vertex 380500.0 5906500.0 2657.0
  vertex 381500.0 5905500.0 2659.800048828125
  vertex 380500.0 5905500.0 2659.10009765625
 endloop
endfacet
facet normal 0.0004999985685572028 -0.002300042426213622 -0.9999971985816956
 outer loop
  vertex 380500.0 5906500.0 2657.0
  vertex 381500.0 5906500.0 2657.5
  vertex 381500.0 5905500.0 2659.800048828125
 endloop
endfacet
facet normal 0.00019995117327198386 -0.00019995117327198386 -1.0
 outer loop
  vertex 379500.0 5907500.0 2656.60009765625
  vertex 380500.0 5906500.0 2657.0
  vertex 379500.0 5906500.0 2656.800048828125
 endloop
endfacet
facet normal 0.0002998046693392098 -0.00010009764810092747 -0.9999999403953552
 outer loop
  vertex 379500.0 5907500.0 2656.60009765625
  vertex 380500.0 5907500.0 2656.89990234375
  vertex 380500.0 5906500.0 2657.0
 endloop
endfacet
facet normal 0.0004999999655410647 -0.00010009764082496986 -0.9999998807907104
 outer loop
  vertex 380500.0 5907500.0 2656.89990234375
  vertex 381500.0 5906500.0 2657.5
  vertex 380500.0 5906500.0 2657.0
 endloop
endfacet
facet normal 0.0036000581458210945 0.0029999669641256332 -0.9999889731407166
 outer loop
  vertex 380500.0 5907500.0 2656.89990234375
  vertex 381500.0 5907500.0 2660.5
  vertex 381500.0 5906500.0 2657.5
 endloop
endfacet
facet normal 0.0002998012350872159 -0.004799993243068457 -0.9999884366989136
 outer loop
  vertex 379500.0 5908500.0 2651.800048828125
  vertex 380500.0 5907500.0 2656.89990234375
  vertex 379500.0 5907500.0 2656.60009765625
 endloop
endfacet
facet normal 0.005299974232912064 0.0002001925022341311 -0.999985933303833
 outer loop
  vertex 379500.0 5908500.0 2651.800048828125
  vertex 380500.0 5908500.0 2657.10009765625
  vertex 380500.0 5907500.0 2656.89990234375
 endloop
endfacet
facet normal 0.0036000742111355066 0.00020019401563331485 -0.9999935030937195
 outer loop
  vertex 380500.0 5908500.0 2657.10009765625
  vertex 381500.0 5907500.0 2660.5
  vertex 380500.0 5907500.0 2656.89990234375
 endloop
endfacet
facet normal 0.0013998980866745114 -0.0019999940413981676 -0.9999970197677612
 outer loop
  vertex 380500.0 5908500.0 2657.10009765625
  vertex 381500.0 5908500.0 2658.5
  vertex 381500.0 5907500.0 2660.5
 endloop
endfacet
endsolid
