solid
facet normal -0.21139691770076752 -0.060482680797576904 -0.9755271077156067
 outer loop
  vertex 719500.0 5633500.0 5908.5
  vertex 720500.0 5632500.0 5753.7998046875
  vertex 719500.0 5632500.0 5970.5
 endloop
endfacet
facet normal -0.02210148051381111 0.13122287392616272 -0.9911065101623535
 outer loop
  vertex 719500.0 5633500.0 5908.5
  vertex 720500.0 5633500.0 5886.2001953125
  vertex 720500.0 5632500.0 5753.7998046875
 endloop
endfacet
facet normal 0.28567585349082947 0.12578506767749786 -0.9500355124473572
 outer loop
  vertex 720500.0 5633500.0 5886.2001953125
  vertex 721500.0 5632500.0 6054.5
  vertex 720500.0 5632500.0 5753.7998046875
 endloop
endfacet
facet normal 0.5180435180664062 -0.14703744649887085 -0.8426215052604675
 outer loop
  vertex 718500.0 5634500.0 5119.2001953125
  vertex 719500.0 5634500.0 5734.0
  vertex 719500.0 5633500.0 5908.5
 endloop
endfacet
facet normal -0.02196255885064602 -0.17186091840267181 -0.9848763346672058
 outer loop
  vertex 719500.0 5634500.0 5734.0
  vertex 720500.0 5633500.0 5886.2001953125
  vertex 719500.0 5633500.0 5908.5
 endloop
endfacet
facet normal -0.3383600115776062 0.11533929407596588 -0.9339214563369751
 outer loop
  vertex 712500.0 5635500.0 5927.60009765625
  vertex 713500.0 5634500.0 5441.7998046875
  vertex 712500.0 5634500.0 5804.10009765625
 endloop
endfacet
facet normal -0.11696828901767731 0.33689066767692566 -0.9342500567436218
 outer loop
  vertex 712500.0 5635500.0 5927.60009765625
  vertex 713500.0 5635500.0 5802.39990234375
  vertex 713500.0 5634500.0 5441.7998046875
 endloop
endfacet
facet normal -0.2644536793231964 0.3271424174308777 -0.9072166681289673
 outer loop
  vertex 713500.0 5635500.0 5802.39990234375
  vertex 714500.0 5634500.0 5150.2998046875
  vertex 713500.0 5634500.0 5441.7998046875
 endloop
endfacet
facet normal -0.43145552277565 0.14877185225486755 -0.8897826075553894
 outer loop
  vertex 713500.0 5635500.0 5802.39990234375
  vertex 714500.0 5635500.0 5317.5
  vertex 714500.0 5634500.0 5150.2998046875
 endloop
endfacet
facet normal 0.07455439120531082 0.16445201635360718 -0.9835635423660278
 outer loop
  vertex 714500.0 5635500.0 5317.5
  vertex 715500.0 5634500.0 5226.10009765625
  vertex 714500.0 5634500.0 5150.2998046875
 endloop
endfacet
facet normal -0.20351019501686096 -0.11463858187198639 -0.9723381996154785
 outer loop
  vertex 714500.0 5635500.0 5317.5
  vertex 715500.0 5635500.0 5108.2001953125
  vertex 715500.0 5634500.0 5226.10009765625
 endloop
endfacet
facet normal -0.4706379175186157 -0.10331065952777863 -0.8762573599815369
 outer loop
  vertex 715500.0 5635500.0 5108.2001953125
  vertex 716500.0 5634500.0 4689.0
  vertex 715500.0 5634500.0 5226.10009765625
 endloop
endfacet
facet normal 0.2146003693342209 0.552290141582489 -0.8055571913719177
 outer loop
  vertex 715500.0 5635500.0 5108.2001953125
  vertex 716500.0 5635500.0 5374.60009765625
  vertex 716500.0 5634500.0 4689.0
 endloop
endfacet
facet normal 0.1251167505979538 0.5610208511352539 -0.8182916641235352
 outer loop
  vertex 716500.0 5635500.0 5374.60009765625
  vertex 717500.0 5634500.0 4841.89990234375
  vertex 716500.0 5634500.0 4689.0
 endloop
endfacet
facet normal -0.20406626164913177 0.2934446632862091 -0.9339417219161987
 outer loop
  vertex 716500.0 5635500.0 5374.60009765625
  vertex 717500.0 5635500.0 5156.10009765625
  vertex 717500.0 5634500.0 4841.89990234375
 endloop
endfacet
facet normal 0.25575098395347595 0.2897833585739136 -0.9222889542579651
 outer loop
  vertex 717500.0 5635500.0 5156.10009765625
  vertex 718500.0 5634500.0 5119.2001953125
  vertex 717500.0 5634500.0 4841.89990234375
 endloop
endfacet
facet normal 0.3885403275489807 0.4188257157802582 -0.8207443952560425
 outer loop
  vertex 717500.0 5635500.0 5156.10009765625
  vertex 718500.0 5635500.0 5629.5
  vertex 718500.0 5634500.0 5119.2001953125
 endloop
endfacet
facet normal 0.48031461238861084 0.3986735939979553 -0.7812536358833313
 outer loop
  vertex 718500.0 5635500.0 5629.5
  vertex 719500.0 5634500.0 5734.0
  vertex 718500.0 5634500.0 5119.2001953125
 endloop
endfacet
facet normal -0.18508808314800262 -0.2834189832210541 -0.940965473651886
 outer loop
  vertex 718500.0 5635500.0 5629.5
  vertex 719500.0 5635500.0 5432.7998046875
  vertex 719500.0 5634500.0 5734.0
 endloop
endfacet
facet normal 0.4207899868488312 -0.09464152902364731 -0.9022076725959778
 outer loop
  vertex 711500.0 5636500.0 5356.2998046875
  vertex 712500.0 5636500.0 5822.7001953125
  vertex 712500.0 5635500.0 5927.60009765625
 endloop
endfacet
facet normal -0.1235627830028534 -0.1035279780626297 -0.9869215488433838
 outer loop
  vertex 712500.0 5636500.0 5822.7001953125
  vertex 713500.0 5635500.0 5802.39990234375
  vertex 712500.0 5635500.0 5927.60009765625
 endloop
endfacet
facet normal -0.3350335657596588 -0.3170217275619507 -0.8872709274291992
 outer loop
  vertex 712500.0 5636500.0 5822.7001953125
  vertex 713500.0 5636500.0 5445.10009765625
  vertex 713500.0 5635500.0 5802.39990234375
 endloop
endfacet
facet normal -0.41537219285964966 -0.30606815218925476 -0.856614351272583
 outer loop
  vertex 713500.0 5636500.0 5445.10009765625
  vertex 714500.0 5635500.0 5317.5
  vertex 713500.0 5635500.0 5802.39990234375
 endloop
endfacet
facet normal -0.12784211337566376 -0.0012891459045931697 -0.991793692111969
 outer loop
  vertex 713500.0 5636500.0 5445.10009765625
  vertex 714500.0 5636500.0 5316.2001953125
  vertex 714500.0 5635500.0 5317.5
 endloop
endfacet
facet normal -0.2048606276512146 -0.001272236229851842 -0.978790283203125
 outer loop
  vertex 714500.0 5636500.0 5316.2001953125
  vertex 715500.0 5635500.0 5108.2001953125
  vertex 714500.0 5635500.0 5317.5
 endloop
endfacet
facet normal -0.411617636680603 -0.22808822989463806 -0.882352888584137
 outer loop
  vertex 714500.0 5636500.0 5316.2001953125
  vertex 715500.0 5636500.0 4849.7001953125
  vertex 715500.0 5635500.0 5108.2001953125
 endloop
endfacet
facet normal 0.24974839389324188 -0.24234230816364288 -0.9374944567680359
 outer loop
  vertex 715500.0 5636500.0 4849.7001953125
  vertex 716500.0 5635500.0 5374.60009765625
  vertex 715500.0 5635500.0 5108.2001953125
 endloop
endfacet
facet normal -0.17168749868869781 -0.5869812965393066 -0.7911866307258606
 outer loop
  vertex 715500.0 5636500.0 4849.7001953125
  vertex 716500.0 5636500.0 4632.7001953125
  vertex 716500.0 5635500.0 5374.60009765625
 endloop
endfacet
facet normal -0.17283892631530762 -0.5868613123893738 -0.791024923324585
 outer loop
  vertex 716500.0 5636500.0 4632.7001953125
  vertex 717500.0 5635500.0 5156.10009765625
  vertex 716500.0 5635500.0 5374.60009765625
 endloop
endfacet
facet normal 0.22441861033439636 -0.26622769236564636 -0.9374215006828308
 outer loop
  vertex 716500.0 5636500.0 4632.7001953125
  vertex 717500.0 5636500.0 4872.10009765625
  vertex 717500.0 5635500.0 5156.10009765625
 endloop
endfacet
facet normal 0.4144405722618103 -0.2486293911933899 -0.8754556179046631
 outer loop
  vertex 717500.0 5636500.0 4872.10009765625
  vertex 718500.0 5635500.0 5629.5
  vertex 717500.0 5635500.0 5156.10009765625
 endloop
endfacet
facet normal 0.12787434458732605 -0.5143811702728271 -0.8479741215705872
 outer loop
  vertex 717500.0 5636500.0 4872.10009765625
  vertex 718500.0 5636500.0 5022.89990234375
  vertex 718500.0 5635500.0 5629.5
 endloop
endfacet
facet normal -0.16584832966327667 -0.5114565491676331 -0.8431527018547058
 outer loop
  vertex 718500.0 5636500.0 5022.89990234375
  vertex 719500.0 5635500.0 5432.7998046875
  vertex 718500.0 5635500.0 5629.5
 endloop
endfacet
facet normal 0.4688880145549774 0.10964100062847137 -0.8764262199401855
 outer loop
  vertex 718500.0 5636500.0 5022.89990234375
  vertex 719500.0 5636500.0 5557.89990234375
  vertex 719500.0 5635500.0 5432.7998046875
 endloop
endfacet
facet normal 0.42259061336517334 0.02138330228626728 -0.9060683250427246
 outer loop
  vertex 711500.0 5637500.0 5379.89990234375
  vertex 712500.0 5636500.0 5822.7001953125
  vertex 711500.0 5636500.0 5356.2998046875
 endloop
endfacet
facet normal 0.47089630365371704 0.08195213973522186 -0.8783738017082214
 outer loop
  vertex 711500.0 5637500.0 5379.89990234375
  vertex 712500.0 5637500.0 5916.0
  vertex 712500.0 5636500.0 5822.7001953125
 endloop
endfacet
facet normal -0.3519170880317688 0.08695388585329056 -0.9319835901260376
 outer loop
  vertex 712500.0 5637500.0 5916.0
  vertex 713500.0 5636500.0 5445.10009765625
  vertex 712500.0 5636500.0 5822.7001953125
 endloop
endfacet
facet normal -0.12790103256702423 0.3149562180042267 -0.9404487609863281
 outer loop
  vertex 712500.0 5637500.0 5916.0
  vertex 713500.0 5637500.0 5780.0
  vertex 713500.0 5636500.0 5445.10009765625
 endloop
endfacet
facet normal -0.12132471054792404 0.3152184784412384 -0.9412319660186768
 outer loop
  vertex 713500.0 5637500.0 5780.0
  vertex 714500.0 5636500.0 5316.2001953125
  vertex 713500.0 5636500.0 5445.10009765625
 endloop
endfacet
facet normal -0.5432972311973572 -0.16116014122962952 -0.8239268064498901
 outer loop
  vertex 713500.0 5637500.0 5780.0
  vertex 714500.0 5637500.0 5120.60009765625
  vertex 714500.0 5636500.0 5316.2001953125
 endloop
endfacet
facet normal -0.4162721037864685 -0.17453989386558533 -0.8923302888870239
 outer loop
  vertex 714500.0 5637500.0 5120.60009765625
  vertex 715500.0 5636500.0 4849.7001953125
  vertex 714500.0 5636500.0 5316.2001953125
 endloop
endfacet
facet normal -0.30350762605667114 -0.04568319395184517 -0.9517332315444946
 outer loop
  vertex 714500.0 5637500.0 5120.60009765625
  vertex 715500.0 5637500.0 4801.7001953125
  vertex 715500.0 5636500.0 4849.7001953125
 endloop
endfacet
facet normal -0.21183155477046967 -0.046856749802827835 -0.9761822819709778
 outer loop
  vertex 715500.0 5637500.0 4801.7001953125
  vertex 716500.0 5636500.0 4632.7001953125
  vertex 715500.0 5636500.0 4849.7001953125
 endloop
endfacet
facet normal -0.15817725658416748 0.008688692934811115 -0.9873725175857544
 outer loop
  vertex 715500.0 5637500.0 4801.7001953125
  vertex 716500.0 5637500.0 4641.5
  vertex 716500.0 5636500.0 4632.7001953125
 endloop
endfacet
facet normal 0.23281258344650269 0.008557668887078762 -0.9724839925765991
 outer loop
  vertex 716500.0 5637500.0 4641.5
  vertex 717500.0 5636500.0 4872.10009765625
  vertex 716500.0 5636500.0 4632.7001953125
 endloop
endfacet
facet normal 0.5163059234619141 0.3345068395137787 -0.7883738279342651
 outer loop
  vertex 716500.0 5637500.0 4641.5
  vertex 717500.0 5637500.0 5296.39990234375
  vertex 717500.0 5636500.0 4872.10009765625
 endloop
endfacet
facet normal 0.13750210404396057 0.38688454031944275 -0.91181880235672
 outer loop
  vertex 717500.0 5637500.0 5296.39990234375
  vertex 718500.0 5636500.0 5022.89990234375
  vertex 717500.0 5636500.0 4872.10009765625
 endloop
endfacet
facet normal 0.14373567700386047 0.3922290802001953 -0.908568263053894
 outer loop
  vertex 717500.0 5637500.0 5296.39990234375
  vertex 718500.0 5637500.0 5454.60009765625
  vertex 718500.0 5636500.0 5022.89990234375
 endloop
endfacet
facet normal 0.44087231159210205 0.3557470440864563 -0.8240604400634766
 outer loop
  vertex 718500.0 5637500.0 5454.60009765625
  vertex 719500.0 5636500.0 5557.89990234375
  vertex 718500.0 5636500.0 5022.89990234375
 endloop
endfacet
facet normal 0.006569312419742346 -0.09624866396188736 -0.9953356981277466
 outer loop
  vertex 718500.0 5637500.0 5454.60009765625
  vertex 719500.0 5637500.0 5461.2001953125
  vertex 719500.0 5636500.0 5557.89990234375
 endloop
endfacet
facet normal -0.10483632981777191 -0.6283242702484131 -0.7708553671836853
 outer loop
  vertex 712500.0 5638500.0 5100.89990234375
  vertex 713500.0 5637500.0 5780.0
  vertex 712500.0 5637500.0 5916.0
 endloop
endfacet
facet normal 0.14702756702899933 -0.4508553147315979 -0.8804046511650085
 outer loop
  vertex 712500.0 5638500.0 5100.89990234375
  vertex 713500.0 5638500.0 5267.89990234375
  vertex 713500.0 5637500.0 5780.0
 endloop
endfacet
facet normal -0.5061752796173096 -0.39310353994369507 -0.7676302790641785
 outer loop
  vertex 713500.0 5638500.0 5267.89990234375
  vertex 714500.0 5637500.0 5120.60009765625
  vertex 713500.0 5637500.0 5780.0
 endloop
endfacet
facet normal -0.12302465736865997 0.023116543889045715 -0.9921343326568604
 outer loop
  vertex 713500.0 5638500.0 5267.89990234375
  vertex 714500.0 5638500.0 5143.89990234375
  vertex 714500.0 5637500.0 5120.60009765625
 endloop
endfacet
facet normal -0.30375000834465027 0.022192906588315964 -0.9524931907653809
 outer loop
  vertex 714500.0 5638500.0 5143.89990234375
  vertex 715500.0 5637500.0 4801.7001953125
  vertex 714500.0 5637500.0 5120.60009765625
 endloop
endfacet
facet normal -0.45697927474975586 -0.15740421414375305 -0.8754392266273499
 outer loop
  vertex 714500.0 5638500.0 5143.89990234375
  vertex 715500.0 5638500.0 4621.89990234375
  vertex 715500.0 5637500.0 4801.7001953125
 endloop
endfacet
facet normal -0.15574777126312256 -0.17480310797691345 -0.9722070097923279
 outer loop
  vertex 715500.0 5638500.0 4621.89990234375
  vertex 716500.0 5637500.0 4641.5
  vertex 715500.0 5637500.0 4801.7001953125
 endloop
endfacet
facet normal -0.004698268137872219 -0.024292364716529846 -0.9996938705444336
 outer loop
  vertex 715500.0 5638500.0 4621.89990234375
  vertex 716500.0 5638500.0 4617.2001953125
  vertex 716500.0 5637500.0 4641.5
 endloop
endfacet
facet normal 0.5477535128593445 -0.020324181765317917 -0.8363927602767944
 outer loop
  vertex 716500.0 5638500.0 4617.2001953125
  vertex 717500.0 5637500.0 5296.39990234375
  vertex 716500.0 5637500.0 4641.5
 endloop
endfacet
facet normal 0.46464672684669495 -0.13024094700813293 -0.875865638256073
 outer loop
  vertex 716500.0 5638500.0 4617.2001953125
  vertex 717500.0 5638500.0 5147.7001953125
  vertex 717500.0 5637500.0 5296.39990234375
 endloop
endfacet
facet normal 0.15459835529327393 -0.14531417191028595 -0.9772323966026306
 outer loop
  vertex 717500.0 5638500.0 5147.7001953125
  vertex 718500.0 5637500.0 5454.60009765625
  vertex 717500.0 5637500.0 5296.39990234375
 endloop
endfacet
facet normal 0.013530255295336246 -0.280976802110672 -0.9596191644668579
 outer loop
  vertex 717500.0 5638500.0 5147.7001953125
  vertex 718500.0 5638500.0 5161.7998046875
  vertex 718500.0 5637500.0 5454.60009765625
 endloop
endfacet
facet normal 0.006334029138088226 -0.2809968590736389 -0.9596877694129944
 outer loop
  vertex 718500.0 5638500.0 5161.7998046875
  vertex 719500.0 5637500.0 5461.2001953125
  vertex 718500.0 5637500.0 5454.60009765625
 endloop
endfacet
facet normal 0.055409058928489685 -0.23512446880340576 -0.9703846573829651
 outer loop
  vertex 718500.0 5638500.0 5161.7998046875
  vertex 719500.0 5638500.0 5218.89990234375
  vertex 719500.0 5637500.0 5461.2001953125
 endloop
endfacet
facet normal 0.0740642249584198 0.20570066571235657 -0.9758082628250122
 outer loop
  vertex 711500.0 5639500.0 5235.7998046875
  vertex 712500.0 5639500.0 5311.7001953125
  vertex 712500.0 5638500.0 5100.89990234375
 endloop
endfacet
facet normal 0.16126981377601624 0.20356722176074982 -0.9656875729560852
 outer loop
  vertex 712500.0 5639500.0 5311.7001953125
  vertex 713500.0 5638500.0 5267.89990234375
  vertex 712500.0 5638500.0 5100.89990234375
 endloop
endfacet
facet normal 0.34286484122276306 0.38048404455184937 -0.8588804602622986
 outer loop
  vertex 712500.0 5639500.0 5311.7001953125
  vertex 713500.0 5639500.0 5710.89990234375
  vertex 713500.0 5638500.0 5267.89990234375
 endloop
endfacet
facet normal -0.11265165358781815 0.4024571180343628 -0.9084810614585876
 outer loop
  vertex 713500.0 5639500.0 5710.89990234375
  vertex 714500.0 5638500.0 5143.89990234375
  vertex 713500.0 5638500.0 5267.89990234375
 endloop
endfacet
facet normal -0.27507269382476807 0.25112929940223694 -0.9280458092689514
 outer loop
  vertex 713500.0 5639500.0 5710.89990234375
  vertex 714500.0 5639500.0 5414.5
  vertex 714500.0 5638500.0 5143.89990234375
 endloop
endfacet
facet normal -0.4499818980693817 0.23326654732227325 -0.8620342016220093
 outer loop
  vertex 714500.0 5639500.0 5414.5
  vertex 715500.0 5638500.0 4621.89990234375
  vertex 714500.0 5638500.0 5143.89990234375
 endloop
endfacet
facet normal -0.6434145569801331 -0.03738905489444733 -0.7646043300628662
 outer loop
  vertex 714500.0 5639500.0 5414.5
  vertex 715500.0 5639500.0 4573.0
  vertex 715500.0 5638500.0 4621.89990234375
 endloop
endfacet
facet normal -0.004694046452641487 -0.04884100332856178 -0.9987955093383789
 outer loop
  vertex 715500.0 5639500.0 4573.0
  vertex 716500.0 5638500.0 4617.2001953125
  vertex 715500.0 5638500.0 4621.89990234375
 endloop
endfacet
facet normal 0.025287197902798653 -0.018890973180532455 -0.9995017051696777
 outer loop
  vertex 715500.0 5639500.0 4573.0
  vertex 716500.0 5639500.0 4598.2998046875
  vertex 716500.0 5638500.0 4617.2001953125
 endloop
endfacet
facet normal 0.4685731530189514 -0.016694091260433197 -0.8832669854164124
 outer loop
  vertex 716500.0 5639500.0 4598.2998046875
  vertex 717500.0 5638500.0 5147.7001953125
  vertex 716500.0 5638500.0 4617.2001953125
 endloop
endfacet
facet normal 0.6655156016349792 0.28697291016578674 -0.6890106201171875
 outer loop
  vertex 716500.0 5639500.0 4598.2998046875
  vertex 717500.0 5639500.0 5564.2001953125
  vertex 717500.0 5638500.0 5147.7001953125
 endloop
endfacet
facet normal 0.01301470585167408 0.3844517171382904 -0.9230533242225647
 outer loop
  vertex 717500.0 5639500.0 5564.2001953125
  vertex 718500.0 5638500.0 5161.7998046875
  vertex 717500.0 5638500.0 5147.7001953125
 endloop
endfacet
facet normal -0.09276177734136581 0.29047462344169617 -0.9523758292198181
 outer loop
  vertex 717500.0 5639500.0 5564.2001953125
  vertex 718500.0 5639500.0 5466.7998046875
  vertex 718500.0 5638500.0 5161.7998046875
 endloop
endfacet
facet normal 0.05453496053814888 0.29129835963249207 -0.9550765156745911
 outer loop
  vertex 718500.0 5639500.0 5466.7998046875
  vertex 719500.0 5638500.0 5218.89990234375
  vertex 718500.0 5638500.0 5161.7998046875
 endloop
endfacet
facet normal 0.26867836713790894 0.4762360453605652 -0.8372641205787659
 outer loop
  vertex 718500.0 5639500.0 5466.7998046875
  vertex 719500.0 5639500.0 5787.7001953125
  vertex 719500.0 5638500.0 5218.89990234375
 endloop
endfacet
facet normal 0.07562670856714249 0.03846091404557228 -0.996394157409668
 outer loop
  vertex 711500.0 5640500.0 5274.39990234375
  vertex 712500.0 5639500.0 5311.7001953125
  vertex 711500.0 5639500.0 5235.7998046875
 endloop
endfacet
facet normal 0.42152848839759827 0.39101001620292664 -0.8181838989257812
 outer loop
  vertex 711500.0 5640500.0 5274.39990234375
  vertex 712500.0 5640500.0 5789.60009765625
  vertex 712500.0 5639500.0 5311.7001953125
 endloop
endfacet
facet normal 0.3388713002204895 0.40567806363105774 -0.8488765954971313
 outer loop
  vertex 712500.0 5640500.0 5789.60009765625
  vertex 713500.0 5639500.0 5710.89990234375
  vertex 712500.0 5639500.0 5311.7001953125
 endloop
endfacet
facet normal -0.08923732489347458 -0.01085576694458723 -0.995951235294342
 outer loop
  vertex 712500.0 5640500.0 5789.60009765625
  vertex 713500.0 5640500.0 5700.0
  vertex 713500.0 5639500.0 5710.89990234375
 endloop
endfacet
facet normal -0.2841641306877136 -0.010449940338730812 -0.9587187170982361
 outer loop
  vertex 713500.0 5640500.0 5700.0
  vertex 714500.0 5639500.0 5414.5
  vertex 713500.0 5639500.0 5710.89990234375
 endloop
endfacet
facet normal -0.43996623158454895 -0.18934708833694458 -0.8778253793716431
 outer loop
  vertex 713500.0 5640500.0 5700.0
  vertex 714500.0 5640500.0 5198.7998046875
  vertex 714500.0 5639500.0 5414.5
 endloop
endfacet
facet normal -0.6352709531784058 -0.16283786296844482 -0.754926860332489
 outer loop
  vertex 714500.0 5640500.0 5198.7998046875
  vertex 715500.0 5639500.0 4573.0
  vertex 714500.0 5639500.0 5414.5
 endloop
endfacet
facet normal -0.5378285646438599 -0.01028465386480093 -0.8429914712905884
 outer loop
  vertex 714500.0 5640500.0 5198.7998046875
  vertex 715500.0 5640500.0 4560.7998046875
  vertex 715500.0 5639500.0 4573.0
 endloop
endfacet
facet normal 0.025289831683039665 -0.012195385992527008 -0.9996057748794556
 outer loop
  vertex 715500.0 5640500.0 4560.7998046875
  vertex 716500.0 5639500.0 4598.2998046875
  vertex 715500.0 5639500.0 4573.0
 endloop
endfacet
facet normal 0.17137573659420013 0.13477785885334015 -0.9759433269500732
 outer loop
  vertex 715500.0 5640500.0 4560.7998046875
  vertex 716500.0 5640500.0 4736.39990234375
  vertex 716500.0 5639500.0 4598.2998046875
 endloop
endfacet
facet normal 0.6913349628448486 0.09884396195411682 -0.7157414555549622
 outer loop
  vertex 716500.0 5640500.0 4736.39990234375
  vertex 717500.0 5639500.0 5564.2001953125
  vertex 716500.0 5639500.0 4598.2998046875
 endloop
endfacet
facet normal 0.28367340564727783 -0.4270560145378113 -0.8585759401321411
 outer loop
  vertex 716500.0 5640500.0 4736.39990234375
  vertex 717500.0 5640500.0 5066.7998046875
  vertex 717500.0 5639500.0 5564.2001953125
 endloop
endfacet
facet normal -0.08687829226255417 -0.44366663694381714 -0.8919708728790283
 outer loop
  vertex 717500.0 5640500.0 5066.7998046875
  vertex 718500.0 5639500.0 5466.7998046875
  vertex 717500.0 5639500.0 5564.2001953125
 endloop
endfacet
facet normal 0.2764374017715454 -0.10564558953046799 -0.9552075266838074
 outer loop
  vertex 717500.0 5640500.0 5066.7998046875
  vertex 718500.0 5640500.0 5356.2001953125
  vertex 718500.0 5639500.0 5466.7998046875
 endloop
endfacet
facet normal 0.3038729429244995 -0.10473103076219559 -0.9469385147094727
 outer loop
  vertex 718500.0 5640500.0 5356.2001953125
  vertex 719500.0 5639500.0 5787.7001953125
  vertex 718500.0 5639500.0 5466.7998046875
 endloop
endfacet
facet normal 0.34042447805404663 -0.06435149908065796 -0.9380671381950378
 outer loop
  vertex 718500.0 5640500.0 5356.2001953125
  vertex 719500.0 5640500.0 5719.10009765625
  vertex 719500.0 5639500.0 5787.7001953125
 endloop
endfacet
facet normal -0.24945151805877686 -0.0662757009267807 -0.966116726398468
 outer loop
  vertex 719500.0 5640500.0 5719.10009765625
  vertex 720500.0 5639500.0 5529.5
  vertex 719500.0 5639500.0 5787.7001953125
 endloop
endfacet
facet normal 0.00019620427337940782 0.18647080659866333 -0.9824604988098145
 outer loop
  vertex 719500.0 5640500.0 5719.10009765625
  vertex 720500.0 5640500.0 5719.2998046875
  vertex 720500.0 5639500.0 5529.5
 endloop
endfacet
facet normal 0.4312429130077362 -0.3367408215999603 -0.8370394706726074
 outer loop
  vertex 711500.0 5641500.0 4872.10009765625
  vertex 712500.0 5640500.0 5789.60009765625
  vertex 711500.0 5640500.0 5274.39990234375
 endloop
endfacet
facet normal 0.5367957353591919 -0.21238313615322113 -0.8165437579154968
 outer loop
  vertex 711500.0 5641500.0 4872.10009765625
  vertex 712500.0 5641500.0 5529.5
  vertex 712500.0 5640500.0 5789.60009765625
 endloop
endfacet
facet normal -0.0863906741142273 -0.2507834732532501 -0.9641806483268738
 outer loop
  vertex 712500.0 5641500.0 5529.5
  vertex 713500.0 5640500.0 5700.0
  vertex 712500.0 5640500.0 5789.60009765625
 endloop
endfacet
facet normal -0.0002955250383820385 -0.16836167871952057 -0.9857252240180969
 outer loop
  vertex 712500.0 5641500.0 5529.5
  vertex 713500.0 5641500.0 5529.2001953125
  vertex 713500.0 5640500.0 5700.0
 endloop
endfacet
facet normal -0.44293782114982605 -0.15094506740570068 -0.8837542533874512
 outer loop
  vertex 713500.0 5641500.0 5529.2001953125
  vertex 714500.0 5640500.0 5198.7998046875
  vertex 713500.0 5640500.0 5700.0
 endloop
endfacet
facet normal -0.32711321115493774 -0.01492872554808855 -0.9448672533035278
 outer loop
  vertex 713500.0 5641500.0 5529.2001953125
  vertex 714500.0 5641500.0 5183.0
  vertex 714500.0 5640500.0 5198.7998046875
 endloop
endfacet
facet normal -0.5378093719482422 -0.013318624347448349 -0.8429613709449768
 outer loop
  vertex 714500.0 5641500.0 5183.0
  vertex 715500.0 5640500.0 4560.7998046875
  vertex 714500.0 5640500.0 5198.7998046875
 endloop
endfacet
facet normal -0.5346490740776062 -0.008872789330780506 -0.8450275659561157
 outer loop
  vertex 714500.0 5641500.0 5183.0
  vertex 715500.0 5641500.0 4550.2998046875
  vertex 715500.0 5640500.0 4560.7998046875
 endloop
endfacet
facet normal 0.1729445457458496 -0.010341211222112179 -0.9848772883415222
 outer loop
  vertex 715500.0 5641500.0 4550.2998046875
  vertex 716500.0 5640500.0 4736.39990234375
  vertex 715500.0 5640500.0 4560.7998046875
 endloop
endfacet
facet normal 0.19685009121894836 0.01441101636737585 -0.9803277254104614
 outer loop
  vertex 715500.0 5641500.0 4550.2998046875
  vertex 716500.0 5641500.0 4751.10009765625
  vertex 716500.0 5640500.0 4736.39990234375
 endloop
endfacet
facet normal 0.31368932127952576 0.013956706039607525 -0.9494231343269348
 outer loop
  vertex 716500.0 5641500.0 4751.10009765625
  vertex 717500.0 5640500.0 5066.7998046875
  vertex 716500.0 5640500.0 4736.39990234375
 endloop
endfacet
facet normal 0.4206564128398895 0.13755880296230316 -0.8967306017875671
 outer loop
  vertex 716500.0 5641500.0 4751.10009765625
  vertex 717500.0 5641500.0 5220.2001953125
  vertex 717500.0 5640500.0 5066.7998046875
 endloop
endfacet
facet normal 0.27502331137657166 0.14577965438365936 -0.9503212571144104
 outer loop
  vertex 717500.0 5641500.0 5220.2001953125
  vertex 718500.0 5640500.0 5356.2001953125
  vertex 717500.0 5640500.0 5066.7998046875
 endloop
endfacet
facet normal 0.1869603842496872 0.053557105362415314 -0.9809064269065857
 outer loop
  vertex 717500.0 5641500.0 5220.2001953125
  vertex 718500.0 5641500.0 5410.7998046875
  vertex 718500.0 5640500.0 5356.2001953125
 endloop
endfacet
facet normal 0.34068313241004944 0.051257017999887466 -0.9387799501419067
 outer loop
  vertex 718500.0 5641500.0 5410.7998046875
  vertex 719500.0 5640500.0 5719.10009765625
  vertex 718500.0 5640500.0 5356.2001953125
 endloop
endfacet
facet normal 0.2560255229473114 -0.041721414774656296 -0.9657692909240723
 outer loop
  vertex 718500.0 5641500.0 5410.7998046875
  vertex 719500.0 5641500.0 5675.89990234375
  vertex 719500.0 5640500.0 5719.10009765625
 endloop
endfacet
facet normal 0.0001995209458982572 -0.04315993934869766 -0.9990682005882263
 outer loop
  vertex 719500.0 5641500.0 5675.89990234375
  vertex 720500.0 5640500.0 5719.2998046875
  vertex 719500.0 5640500.0 5719.10009765625
 endloop
endfacet
facet normal 0.04485465958714485 0.001498488592915237 -0.998992383480072
 outer loop
  vertex 719500.0 5641500.0 5675.89990234375
  vertex 720500.0 5641500.0 5720.7998046875
  vertex 720500.0 5640500.0 5719.2998046875
 endloop
endfacet
facet normal -0.00022507327958010137 -0.6606278419494629 -0.7507134675979614
 outer loop
  vertex 712500.0 5642500.0 4649.5
  vertex 713500.0 5641500.0 5529.2001953125
  vertex 712500.0 5641500.0 5529.5
 endloop
endfacet
facet normal 0.054161928594112396 -0.6284511089324951 -0.7759610414505005
 outer loop
  vertex 712500.0 5642500.0 4649.5
  vertex 713500.0 5642500.0 4719.2998046875
  vertex 713500.0 5641500.0 5529.2001953125
 endloop
endfacet
facet normal -0.2597951889038086 -0.6077646017074585 -0.750419020652771
 outer loop
  vertex 713500.0 5642500.0 4719.2998046875
  vertex 714500.0 5641500.0 5183.0
  vertex 713500.0 5641500.0 5529.2001953125
 endloop
endfacet
facet normal -0.16705025732517242 -0.5473219752311707 -0.8200809955596924
 outer loop
  vertex 713500.0 5642500.0 4719.2998046875
  vertex 714500.0 5642500.0 4515.60009765625
  vertex 714500.0 5641500.0 5183.0
 endloop
endfacet
facet normal -0.465707927942276 -0.49124911427497864 -0.7360641360282898
 outer loop
  vertex 714500.0 5642500.0 4515.60009765625
  vertex 715500.0 5641500.0 4550.2998046875
  vertex 714500.0 5641500.0 5183.0
 endloop
endfacet
facet normal 0.03108486719429493 -0.00359784672036767 -0.9995102882385254
 outer loop
  vertex 714500.0 5642500.0 4515.60009765625
  vertex 715500.0 5642500.0 4546.7001953125
  vertex 715500.0 5641500.0 4550.2998046875
 endloop
endfacet
facet normal 0.19686931371688843 -0.003529141191393137 -0.9804233908653259
 outer loop
  vertex 715500.0 5642500.0 4546.7001953125
  vertex 716500.0 5641500.0 4751.10009765625
  vertex 715500.0 5641500.0 4550.2998046875
 endloop
endfacet
facet normal 0.4315052628517151 0.254610538482666 -0.8654343485832214
 outer loop
  vertex 715500.0 5642500.0 4546.7001953125
  vertex 716500.0 5642500.0 5045.2998046875
  vertex 716500.0 5641500.0 4751.10009765625
 endloop
endfacet
facet normal 0.41038626432418823 0.25737687945365906 -0.8748372793197632
 outer loop
  vertex 716500.0 5642500.0 5045.2998046875
  vertex 717500.0 5641500.0 5220.2001953125
  vertex 716500.0 5641500.0 4751.10009765625
 endloop
endfacet
facet normal 0.16048049926757812 -0.01213995460420847 -0.9869643449783325
 outer loop
  vertex 716500.0 5642500.0 5045.2998046875
  vertex 717500.0 5642500.0 5207.89990234375
  vertex 717500.0 5641500.0 5220.2001953125
 endloop
endfacet
facet normal 0.1872154325246811 -0.01208189595490694 -0.9822445511817932
 outer loop
  vertex 717500.0 5642500.0 5207.89990234375
  vertex 718500.0 5641500.0 5410.7998046875
  vertex 717500.0 5641500.0 5220.2001953125
 endloop
endfacet
facet normal 0.32323306798934937 0.1331346333026886 -0.9369074702262878
 outer loop
  vertex 717500.0 5642500.0 5207.89990234375
  vertex 718500.0 5642500.0 5552.89990234375
  vertex 718500.0 5641500.0 5410.7998046875
 endloop
endfacet
facet normal 0.2538650631904602 0.13607783615589142 -0.9576196670532227
 outer loop
  vertex 718500.0 5642500.0 5552.89990234375
  vertex 719500.0 5641500.0 5675.89990234375
  vertex 718500.0 5641500.0 5410.7998046875
 endloop
endfacet
facet normal -0.008228895254433155 -0.1301780492067337 -0.9914565086364746
 outer loop
  vertex 718500.0 5642500.0 5552.89990234375
  vertex 719500.0 5642500.0 5544.60009765625
  vertex 719500.0 5641500.0 5675.89990234375
 endloop
endfacet
facet normal 0.04447374492883682 -0.13005363941192627 -0.990509033203125
 outer loop
  vertex 719500.0 5642500.0 5544.60009765625
  vertex 720500.0 5641500.0 5720.7998046875
  vertex 719500.0 5641500.0 5675.89990234375
 endloop
endfacet
facet normal 0.05540643259882927 0.6056622266769409 -0.7937905788421631
 outer loop
  vertex 712500.0 5643500.0 5412.5
  vertex 713500.0 5642500.0 4719.2998046875
  vertex 712500.0 5642500.0 4649.5
 endloop
endfacet
facet normal -0.660004734992981 -0.14966964721679688 -0.7362015843391418
 outer loop
  vertex 712500.0 5643500.0 5412.5
  vertex 713500.0 5643500.0 4516.0
  vertex 713500.0 5642500.0 4719.2998046875
 endloop
endfacet
facet normal -0.19575434923171997 -0.19537003338336945 -0.9609946608543396
 outer loop
  vertex 713500.0 5643500.0 4516.0
  vertex 714500.0 5642500.0 4515.60009765625
  vertex 713500.0 5642500.0 4719.2998046875
 endloop
endfacet
facet normal 0.00859943125396967 0.008999302983283997 -0.999922513961792
 outer loop
  vertex 713500.0 5643500.0 4516.0
  vertex 714500.0 5643500.0 4524.60009765625
  vertex 714500.0 5642500.0 4515.60009765625
 endloop
endfacet
facet normal 0.031083809211850166 0.00899528618901968 -0.9994762539863586
 outer loop
  vertex 714500.0 5643500.0 4524.60009765625
  vertex 715500.0 5642500.0 4546.7001953125
  vertex 714500.0 5642500.0 4515.60009765625
 endloop
endfacet
facet normal 0.13628754019737244 0.1145404800772667 -0.9840255379676819
 outer loop
  vertex 714500.0 5643500.0 4524.60009765625
  vertex 715500.0 5643500.0 4663.10009765625
  vertex 715500.0 5642500.0 4546.7001953125
 endloop
endfacet
facet normal 0.44380927085876465 0.10360889881849289 -0.89011150598526
 outer loop
  vertex 715500.0 5643500.0 4663.10009765625
  vertex 716500.0 5642500.0 5045.2998046875
  vertex 715500.0 5642500.0 4546.7001953125
 endloop
endfacet
facet normal 0.020504234358668327 -0.3389812111854553 -0.9405696392059326
 outer loop
  vertex 715500.0 5643500.0 4663.10009765625
  vertex 716500.0 5643500.0 4684.89990234375
  vertex 716500.0 5642500.0 5045.2998046875
 endloop
endfacet
facet normal 0.1512099951505661 -0.3351539671421051 -0.9299502372741699
 outer loop
  vertex 716500.0 5643500.0 4684.89990234375
  vertex 717500.0 5642500.0 5207.89990234375
  vertex 716500.0 5642500.0 5045.2998046875
 endloop
endfacet
facet normal 0.3444406986236572 -0.1409875899553299 -0.9281611442565918
 outer loop
  vertex 716500.0 5643500.0 4684.89990234375
  vertex 717500.0 5643500.0 5056.0
  vertex 717500.0 5642500.0 5207.89990234375
 endloop
endfacet
facet normal 0.3228251039981842 -0.14213652908802032 -0.9357249140739441
 outer loop
  vertex 717500.0 5643500.0 5056.0
  vertex 718500.0 5642500.0 5552.89990234375
  vertex 717500.0 5642500.0 5207.89990234375
 endloop
endfacet
facet normal 0.028913509100675583 -0.4214678108692169 -0.9063823819160461
 outer loop
  vertex 717500.0 5643500.0 5056.0
  vertex 718500.0 5643500.0 5087.89990234375
  vertex 718500.0 5642500.0 5552.89990234375
 endloop
endfacet
facet normal -0.007525736931711435 -0.42163214087486267 -0.9067357778549194
 outer loop
  vertex 718500.0 5643500.0 5087.89990234375
  vertex 719500.0 5642500.0 5544.60009765625
  vertex 718500.0 5642500.0 5552.89990234375
 endloop
endfacet
facet normal 0.1296863555908203 -0.30168768763542175 -0.9445453882217407
 outer loop
  vertex 718500.0 5643500.0 5087.89990234375
  vertex 719500.0 5643500.0 5225.2001953125
  vertex 719500.0 5642500.0 5544.60009765625
 endloop
endfacet
facet normal -0.6272401809692383 -0.34213098883628845 -0.6996544003486633
 outer loop
  vertex 712500.0 5644500.0 4923.5
  vertex 713500.0 5643500.0 4516.0
  vertex 712500.0 5643500.0 5412.5
 endloop
endfacet
facet normal -0.4020311236381531 -0.0291020255535841 -0.9151634573936462
 outer loop
  vertex 712500.0 5644500.0 4923.5
  vertex 713500.0 5644500.0 4484.2001953125
  vertex 713500.0 5643500.0 4516.0
 endloop
endfacet
facet normal 0.008595434948801994 -0.03178256377577782 -0.999457836151123
 outer loop
  vertex 713500.0 5644500.0 4484.2001953125
  vertex 714500.0 5643500.0 4524.60009765625
  vertex 713500.0 5643500.0 4516.0
 endloop
endfacet
facet normal 0.2790948450565338 0.24154768884181976 -0.9293873310089111
 outer loop
  vertex 713500.0 5644500.0 4484.2001953125
  vertex 714500.0 5644500.0 4784.5
  vertex 714500.0 5643500.0 4524.60009765625
 endloop
endfacet
facet normal 0.13285836577415466 0.24931319057941437 -0.959266185760498
 outer loop
  vertex 714500.0 5644500.0 4784.5
  vertex 715500.0 5643500.0 4663.10009765625
  vertex 714500.0 5643500.0 4524.60009765625
 endloop
endfacet
facet normal 0.3968393802642822 0.4909888207912445 -0.7755310535430908
 outer loop
  vertex 714500.0 5644500.0 4784.5
  vertex 715500.0 5644500.0 5296.2001953125
  vertex 715500.0 5643500.0 4663.10009765625
 endloop
endfacet
facet normal 0.01841571554541588 0.5348207354545593 -0.8447648286819458
 outer loop
  vertex 715500.0 5644500.0 5296.2001953125
  vertex 716500.0 5643500.0 4684.89990234375
  vertex 715500.0 5643500.0 4663.10009765625
 endloop
endfacet
facet normal -0.2821671664714813 0.27895405888557434 -0.9179141521453857
 outer loop
  vertex 715500.0 5644500.0 5296.2001953125
  vertex 716500.0 5644500.0 4988.7998046875
  vertex 716500.0 5643500.0 4684.89990234375
 endloop
endfacet
facet normal 0.3346001207828522 0.27400946617126465 -0.9016438722610474
 outer loop
  vertex 716500.0 5644500.0 4988.7998046875
  vertex 717500.0 5643500.0 5056.0
  vertex 716500.0 5643500.0 4684.89990234375
 endloop
endfacet
facet normal 0.08319944888353348 0.016241135075688362 -0.9964005947113037
 outer loop
  vertex 716500.0 5644500.0 4988.7998046875
  vertex 717500.0 5644500.0 5072.2998046875
  vertex 717500.0 5643500.0 5056.0
 endloop
endfacet
facet normal 0.03187945485115051 0.016289355233311653 -0.9993589520454407
 outer loop
  vertex 717500.0 5644500.0 5072.2998046875
  vertex 718500.0 5643500.0 5087.89990234375
  vertex 717500.0 5643500.0 5056.0
 endloop
endfacet
facet normal -0.2168782353401184 -0.23167195916175842 -0.9483100771903992
 outer loop
  vertex 717500.0 5644500.0 5072.2998046875
  vertex 718500.0 5644500.0 4843.60009765625
  vertex 718500.0 5643500.0 5087.89990234375
 endloop
endfacet
facet normal 0.13220703601837158 -0.23523734509944916 -0.9629042744636536
 outer loop
  vertex 718500.0 5644500.0 4843.60009765625
  vertex 719500.0 5643500.0 5225.2001953125
  vertex 718500.0 5643500.0 5087.89990234375
 endloop
endfacet
facet normal 0.11131727695465088 -0.2551945149898529 -0.9604604244232178
 outer loop
  vertex 718500.0 5644500.0 4843.60009765625
  vertex 719500.0 5644500.0 4959.5
  vertex 719500.0 5643500.0 5225.2001953125
 endloop
endfacet
facet normal 0.24585996568202972 0.5189014077186584 -0.8187150359153748
 outer loop
  vertex 713500.0 5645500.0 5118.0
  vertex 714500.0 5644500.0 4784.5
  vertex 713500.0 5644500.0 4484.2001953125
 endloop
endfacet
facet normal -0.1328389197587967 0.191478431224823 -0.9724658727645874
 outer loop
  vertex 713500.0 5645500.0 5118.0
  vertex 714500.0 5645500.0 4981.39990234375
  vertex 714500.0 5644500.0 4784.5
 endloop
endfacet
facet normal 0.4486860930919647 0.17265236377716064 -0.8768534660339355
 outer loop
  vertex 714500.0 5645500.0 4981.39990234375
  vertex 715500.0 5644500.0 5296.2001953125
  vertex 714500.0 5644500.0 4784.5
 endloop
endfacet
facet normal 0.24029669165611267 -0.06460229307413101 -0.9685474038124084
 outer loop
  vertex 714500.0 5645500.0 4981.39990234375
  vertex 715500.0 5645500.0 5229.5
  vertex 715500.0 5644500.0 5296.2001953125
 endloop
endfacet
facet normal -0.29323557019233704 -0.06362669169902802 -0.9539206027984619
 outer loop
  vertex 715500.0 5645500.0 5229.5
  vertex 716500.0 5644500.0 4988.7998046875
  vertex 715500.0 5644500.0 5296.2001953125
 endloop
endfacet
facet normal 0.4254128038883209 0.5904893279075623 -0.6858180165290833
 outer loop
  vertex 715500.0 5645500.0 5229.5
  vertex 716500.0 5645500.0 5849.7998046875
  vertex 716500.0 5644500.0 4988.7998046875
 endloop
endfacet
facet normal 0.06315086781978607 0.6511724591255188 -0.7562978863716125
 outer loop
  vertex 716500.0 5645500.0 5849.7998046875
  vertex 717500.0 5644500.0 5072.2998046875
  vertex 716500.0 5644500.0 4988.7998046875
 endloop
endfacet
facet normal -0.22908125817775726 0.44430506229400635 -0.8660917282104492
 outer loop
  vertex 716500.0 5645500.0 5849.7998046875
  vertex 717500.0 5645500.0 5585.2998046875
  vertex 717500.0 5644500.0 5072.2998046875
 endloop
endfacet
facet normal -0.19939978420734406 0.44727692008018494 -0.871884822845459
 outer loop
  vertex 717500.0 5645500.0 5585.2998046875
  vertex 718500.0 5644500.0 4843.60009765625
  vertex 717500.0 5644500.0 5072.2998046875
 endloop
endfacet
facet normal -0.2939404249191284 0.36214038729667664 -0.8845639824867249
 outer loop
  vertex 717500.0 5645500.0 5585.2998046875
  vertex 718500.0 5645500.0 5253.0
  vertex 718500.0 5644500.0 4843.60009765625
 endloop
endfacet
facet normal 0.10664747655391693 0.3767170310020447 -0.9201688170433044
 outer loop
  vertex 718500.0 5645500.0 5253.0
  vertex 719500.0 5644500.0 4959.5
  vertex 718500.0 5644500.0 4843.60009765625
 endloop
endfacet
facet normal 0.14145086705684662 0.4063888192176819 -0.90268474817276
 outer loop
  vertex 718500.0 5645500.0 5253.0
  vertex 719500.0 5645500.0 5409.7001953125
  vertex 719500.0 5644500.0 4959.5
 endloop
endfacet
facet normal -0.1331649124622345 0.17869022488594055 -0.9748522043228149
 outer loop
  vertex 713500.0 5646500.0 5301.2998046875
  vertex 714500.0 5645500.0 4981.39990234375
  vertex 713500.0 5645500.0 5118.0
 endloop
endfacet
facet normal 0.2872660458087921 0.5402845740318298 -0.7909303307533264
 outer loop
  vertex 713500.0 5646500.0 5301.2998046875
  vertex 714500.0 5646500.0 5664.5
  vertex 714500.0 5645500.0 4981.39990234375
 endloop
endfacet
facet normal 0.20069651305675507 0.5525826215744019 -0.8089335560798645
 outer loop
  vertex 714500.0 5646500.0 5664.5
  vertex 715500.0 5645500.0 5229.5
  vertex 714500.0 5645500.0 4981.39990234375
 endloop
endfacet
facet normal -9.179262997349724e-05 0.3988165855407715 -0.9170307517051697
 outer loop
  vertex 714500.0 5646500.0 5664.5
  vertex 715500.0 5646500.0 5664.39990234375
  vertex 715500.0 5645500.0 5229.5
 endloop
endfacet
facet normal 0.4944378733634949 0.34665653109550476 -0.797095000743866
 outer loop
  vertex 715500.0 5646500.0 5664.39990234375
  vertex 716500.0 5645500.0 5849.7998046875
  vertex 715500.0 5645500.0 5229.5
 endloop
endfacet
facet normal 0.16276581585407257 -0.02012368105351925 -0.986459493637085
 outer loop
  vertex 715500.0 5646500.0 5664.39990234375
  vertex 716500.0 5646500.0 5829.39990234375
  vertex 716500.0 5645500.0 5849.7998046875
 endloop
endfacet
facet normal -0.2556568384170532 -0.019717860966920853 -0.9665664434432983
 outer loop
  vertex 716500.0 5646500.0 5829.39990234375
  vertex 717500.0 5645500.0 5585.2998046875
  vertex 716500.0 5645500.0 5849.7998046875
 endloop
endfacet
facet normal -0.28060853481292725 -0.04659201204776764 -0.9586908221244812
 outer loop
  vertex 716500.0 5646500.0 5829.39990234375
  vertex 717500.0 5646500.0 5536.7001953125
  vertex 717500.0 5645500.0 5585.2998046875
 endloop
endfacet
facet normal -0.31501010060310364 -0.046070948243141174 -0.9479694962501526
 outer loop
  vertex 717500.0 5646500.0 5536.7001953125
  vertex 718500.0 5645500.0 5253.0
  vertex 717500.0 5645500.0 5585.2998046875
 endloop
endfacet
facet normal -0.0466688871383667 0.22916385531425476 -0.9722684621810913
 outer loop
  vertex 717500.0 5646500.0 5536.7001953125
  vertex 718500.0 5646500.0 5488.7001953125
  vertex 718500.0 5645500.0 5253.0
 endloop
endfacet
facet normal 0.1507771760225296 0.226791113615036 -0.9622016549110413
 outer loop
  vertex 718500.0 5646500.0 5488.7001953125
  vertex 719500.0 5645500.0 5409.7001953125
  vertex 718500.0 5645500.0 5253.0
 endloop
endfacet
facet normal -0.008279342204332352 0.07052125036716461 -0.9974758625030518
 outer loop
  vertex 718500.0 5646500.0 5488.7001953125
  vertex 719500.0 5646500.0 5480.39990234375
  vertex 719500.0 5645500.0 5409.7001953125
 endloop
endfacet
facet normal 0.32624462246894836 0.3980100154876709 -0.8574103116989136
 outer loop
  vertex 712500.0 5647500.0 5385.0
  vertex 713500.0 5647500.0 5765.5
  vertex 713500.0 5646500.0 5301.2998046875
 endloop
endfacet
facet normal 0.3128948211669922 0.3999057412147522 -0.8614941239356995
 outer loop
  vertex 713500.0 5647500.0 5765.5
  vertex 714500.0 5646500.0 5664.5
  vertex 713500.0 5646500.0 5301.2998046875
 endloop
endfacet
facet normal -0.04837659001350403 0.05236641317605972 -0.9974554777145386
 outer loop
  vertex 713500.0 5647500.0 5765.5
  vertex 714500.0 5647500.0 5717.0
  vertex 714500.0 5646500.0 5664.5
 endloop
endfacet
facet normal -9.995999425882474e-05 0.05242779850959778 -0.9986246824264526
 outer loop
  vertex 714500.0 5647500.0 5717.0
  vertex 715500.0 5646500.0 5664.39990234375
  vertex 714500.0 5646500.0 5664.5
 endloop
endfacet
facet normal -0.15106870234012604 -0.09933547675609589 -0.9835196137428284
 outer loop
  vertex 714500.0 5647500.0 5717.0
  vertex 715500.0 5647500.0 5563.39990234375
  vertex 715500.0 5646500.0 5664.39990234375
 endloop
endfacet
facet normal 0.16199640929698944 -0.09916143864393234 -0.981796383857727
 outer loop
  vertex 715500.0 5647500.0 5563.39990234375
  vertex 716500.0 5646500.0 5829.39990234375
  vertex 715500.0 5646500.0 5664.39990234375
 endloop
endfacet
facet normal -0.03292763605713844 -0.28754323720932007 -0.9572014808654785
 outer loop
  vertex 715500.0 5647500.0 5563.39990234375
  vertex 716500.0 5647500.0 5529.0
  vertex 716500.0 5646500.0 5829.39990234375
 endloop
endfacet
facet normal -0.269919753074646 -0.2770206332206726 -0.9221729040145874
 outer loop
  vertex 716500.0 5647500.0 5529.0
  vertex 717500.0 5646500.0 5536.7001953125
  vertex 716500.0 5646500.0 5829.39990234375
 endloop
endfacet
facet normal 0.2579827904701233 0.2507982850074768 -0.9330300092697144
 outer loop
  vertex 716500.0 5647500.0 5529.0
  vertex 717500.0 5647500.0 5805.5
  vertex 717500.0 5646500.0 5536.7001953125
 endloop
endfacet
facet normal -0.046304844319820404 0.25930696725845337 -0.9646843075752258
 outer loop
  vertex 717500.0 5647500.0 5805.5
  vertex 718500.0 5646500.0 5488.7001953125
  vertex 717500.0 5646500.0 5536.7001953125
 endloop
endfacet
facet normal -0.2286086082458496 0.0787900984287262 -0.9703248143196106
 outer loop
  vertex 717500.0 5647500.0 5805.5
  vertex 718500.0 5647500.0 5569.89990234375
  vertex 718500.0 5646500.0 5488.7001953125
 endloop
endfacet
facet normal -0.008272784762084484 0.08093056082725525 -0.9966853857040405
 outer loop
  vertex 718500.0 5647500.0 5569.89990234375
  vertex 719500.0 5646500.0 5480.39990234375
  vertex 718500.0 5646500.0 5488.7001953125
 endloop
endfacet
facet normal -0.1508474200963974 -0.06254884600639343 -0.9865762591362
 outer loop
  vertex 718500.0 5647500.0 5569.89990234375
  vertex 719500.0 5647500.0 5417.0
  vertex 719500.0 5646500.0 5480.39990234375
 endloop
endfacet
facet normal -0.2524278461933136 -0.061223819851875305 -0.9656769037246704
 outer loop
  vertex 719500.0 5647500.0 5417.0
  vertex 720500.0 5646500.0 5219.0
  vertex 719500.0 5646500.0 5480.39990234375
 endloop
endfacet
facet normal -0.07363756746053696 0.12233363091945648 -0.9897535443305969
 outer loop
  vertex 719500.0 5647500.0 5417.0
  vertex 720500.0 5647500.0 5342.60009765625
  vertex 720500.0 5646500.0 5219.0
 endloop
endfacet
facet normal 0.34252023696899414 0.26897498965263367 -0.9001846313476562
 outer loop
  vertex 712500.0 5648500.0 5683.7998046875
  vertex 713500.0 5647500.0 5765.5
  vertex 712500.0 5647500.0 5385.0
 endloop
endfacet
facet normal -0.021480323746800423 -0.10272932052612305 -0.994477391242981
 outer loop
  vertex 712500.0 5648500.0 5683.7998046875
  vertex 713500.0 5648500.0 5662.2001953125
  vertex 713500.0 5647500.0 5765.5
 endloop
endfacet
facet normal -0.048187240958213806 -0.10263366252183914 -0.9935513734817505
 outer loop
  vertex 713500.0 5648500.0 5662.2001953125
  vertex 714500.0 5647500.0 5717.0
  vertex 713500.0 5647500.0 5765.5
 endloop
endfacet
facet normal -0.0270992498844862 -0.08169568330049515 -0.9962888360023499
 outer loop
  vertex 713500.0 5648500.0 5662.2001953125
  vertex 714500.0 5648500.0 5635.0
  vertex 714500.0 5647500.0 5717.0
 endloop
endfacet
facet normal -0.15132339298725128 -0.08078457415103912 -0.9851776957511902
 outer loop
  vertex 714500.0 5648500.0 5635.0
  vertex 715500.0 5647500.0 5563.39990234375
  vertex 714500.0 5647500.0 5717.0
 endloop
endfacet
facet normal -0.2500169277191162 -0.18192549049854279 -0.9509966969490051
 outer loop
  vertex 714500.0 5648500.0 5635.0
  vertex 715500.0 5648500.0 5372.10009765625
  vertex 715500.0 5647500.0 5563.39990234375
 endloop
endfacet
facet normal -0.03376796096563339 -0.18778552114963531 -0.9816294312477112
 outer loop
  vertex 715500.0 5648500.0 5372.10009765625
  vertex 716500.0 5647500.0 5529.0
  vertex 715500.0 5647500.0 5563.39990234375
 endloop
endfacet
facet normal 0.018520472571253777 -0.13687556982040405 -0.990415096282959
 outer loop
  vertex 715500.0 5648500.0 5372.10009765625
  vertex 716500.0 5648500.0 5390.7998046875
  vertex 716500.0 5647500.0 5529.0
 endloop
endfacet
facet normal 0.26416710019111633 -0.13203595578670502 -0.9553963541984558
 outer loop
  vertex 716500.0 5648500.0 5390.7998046875
  vertex 717500.0 5647500.0 5805.5
  vertex 716500.0 5647500.0 5529.0
 endloop
endfacet
facet normal 0.23968565464019775 -0.1575869768857956 -0.9579755067825317
 outer loop
  vertex 716500.0 5648500.0 5390.7998046875
  vertex 717500.0 5648500.0 5641.0
  vertex 717500.0 5647500.0 5805.5
 endloop
endfacet
facet normal -0.2264372855424881 -0.1581023633480072 -0.9611086249351501
 outer loop
  vertex 717500.0 5648500.0 5641.0
  vertex 718500.0 5647500.0 5569.89990234375
  vertex 717500.0 5647500.0 5805.5
 endloop
endfacet
facet normal 0.12856918573379517 0.19766439497470856 -0.9718017578125
 outer loop
  vertex 717500.0 5648500.0 5641.0
  vertex 718500.0 5648500.0 5773.2998046875
  vertex 718500.0 5647500.0 5569.89990234375
 endloop
endfacet
facet normal -0.1481778919696808 0.19711829721927643 -0.9691169857978821
 outer loop
  vertex 718500.0 5648500.0 5773.2998046875
  vertex 719500.0 5647500.0 5417.0
  vertex 718500.0 5647500.0 5569.89990234375
 endloop
endfacet
facet normal -0.1999955177307129 0.1452486515045166 -0.9689709544181824
 outer loop
  vertex 718500.0 5648500.0 5773.2998046875
  vertex 719500.0 5648500.0 5566.89990234375
  vertex 719500.0 5647500.0 5417.0
 endloop
endfacet
facet normal -0.07337949424982071 0.14784400165081024 -0.9862847924232483
 outer loop
  vertex 719500.0 5648500.0 5566.89990234375
  vertex 720500.0 5647500.0 5342.60009765625
  vertex 719500.0 5647500.0 5417.0
 endloop
endfacet
facet normal 0.14531584084033966 0.35265856981277466 -0.9243999123573303
 outer loop
  vertex 719500.0 5648500.0 5566.89990234375
  vertex 720500.0 5648500.0 5724.10009765625
  vertex 720500.0 5647500.0 5342.60009765625
 endloop
endfacet
facet normal 0.1460394561290741 0.35262060165405273 -0.9243003726005554
 outer loop
  vertex 720500.0 5648500.0 5724.10009765625
  vertex 721500.0 5647500.0 5500.60009765625
  vertex 720500.0 5647500.0 5342.60009765625
 endloop
endfacet
facet normal -0.11566134542226791 0.10509262979030609 -0.9877135157585144
 outer loop
  vertex 720500.0 5648500.0 5724.10009765625
  vertex 721500.0 5648500.0 5607.0
  vertex 721500.0 5647500.0 5500.60009765625
 endloop
endfacet
facet normal 0.0776524618268013 -0.482404887676239 -0.8724995851516724
 outer loop
  vertex 711500.0 5649500.0 5041.89990234375
  vertex 712500.0 5649500.0 5130.89990234375
  vertex 712500.0 5648500.0 5683.7998046875
 endloop
endfacet
facet normal -0.018899310380220413 -0.48377951979637146 -0.8749857544898987
 outer loop
  vertex 712500.0 5649500.0 5130.89990234375
  vertex 713500.0 5648500.0 5662.2001953125
  vertex 712500.0 5648500.0 5683.7998046875
 endloop
endfacet
facet normal 0.4272162616252899 -0.05235271900892258 -0.9026325941085815
 outer loop
  vertex 712500.0 5649500.0 5130.89990234375
  vertex 713500.0 5649500.0 5604.2001953125
  vertex 713500.0 5648500.0 5662.2001953125
 endloop
endfacet
facet normal -0.027144553139805794 -0.05788135528564453 -0.9979543685913086
 outer loop
  vertex 713500.0 5649500.0 5604.2001953125
  vertex 714500.0 5648500.0 5635.0
  vertex 713500.0 5648500.0 5662.2001953125
 endloop
endfacet
facet normal -0.0027987025678157806 -0.03358101472258568 -0.9994320869445801
 outer loop
  vertex 713500.0 5649500.0 5604.2001953125
  vertex 714500.0 5649500.0 5601.39990234375
  vertex 714500.0 5648500.0 5635.0
 endloop
endfacet
facet normal -0.25412580370903015 -0.03247871622443199 -0.9666256904602051
 outer loop
  vertex 714500.0 5649500.0 5601.39990234375
  vertex 715500.0 5648500.0 5372.10009765625
  vertex 714500.0 5648500.0 5635.0
 endloop
endfacet
facet normal -0.18985888361930847 0.03512616455554962 -0.981182873249054
 outer loop
  vertex 714500.0 5649500.0 5601.39990234375
  vertex 715500.0 5649500.0 5407.89990234375
  vertex 715500.0 5648500.0 5372.10009765625
 endloop
endfacet
facet normal 0.018684472888708115 0.03577063977718353 -0.99918532371521
 outer loop
  vertex 715500.0 5649500.0 5407.89990234375
  vertex 716500.0 5648500.0 5390.7998046875
  vertex 715500.0 5648500.0 5372.10009765625
 endloop
endfacet
facet normal -0.13791637122631073 -0.12110678106546402 -0.9830118417739868
 outer loop
  vertex 715500.0 5649500.0 5407.89990234375
  vertex 716500.0 5649500.0 5267.60009765625
  vertex 716500.0 5648500.0 5390.7998046875
 endloop
endfacet
facet normal 0.24100327491760254 -0.11867109686136246 -0.9632417559623718
 outer loop
  vertex 716500.0 5649500.0 5267.60009765625
  vertex 717500.0 5648500.0 5641.0
  vertex 716500.0 5648500.0 5390.7998046875
 endloop
endfacet
facet normal 0.24901749193668365 -0.11026834696531296 -0.9622011780738831
 outer loop
  vertex 716500.0 5649500.0 5267.60009765625
  vertex 717500.0 5649500.0 5526.39990234375
  vertex 717500.0 5648500.0 5641.0
 endloop
endfacet
facet normal 0.13031861186027527 -0.11288395524024963 -0.9850249886512756
 outer loop
  vertex 717500.0 5649500.0 5526.39990234375
  vertex 718500.0 5648500.0 5773.2998046875
  vertex 717500.0 5648500.0 5641.0
 endloop
endfacet
facet normal 0.04623676836490631 -0.19562354683876038 -0.979588508605957
 outer loop
  vertex 717500.0 5649500.0 5526.39990234375
  vertex 718500.0 5649500.0 5573.60009765625
  vertex 718500.0 5648500.0 5773.2998046875
 endloop
endfacet
facet normal -0.19838067889213562 -0.1919407993555069 -0.961147129535675
 outer loop
  vertex 718500.0 5649500.0 5573.60009765625
  vertex 719500.0 5648500.0 5566.89990234375
  vertex 718500.0 5648500.0 5773.2998046875
 endloop
endfacet
facet normal 0.003649682505056262 0.010349473915994167 -0.9999397397041321
 outer loop
  vertex 718500.0 5649500.0 5573.60009765625
  vertex 719500.0 5649500.0 5577.25
  vertex 719500.0 5648500.0 5566.89990234375
 endloop
endfacet
facet normal 0.15528498589992523 0.010224000550806522 -0.9878168106079102
 outer loop
  vertex 719500.0 5649500.0 5577.25
  vertex 720500.0 5648500.0 5724.10009765625
  vertex 719500.0 5648500.0 5566.89990234375
 endloop
endfacet
facet normal 0.003613021457567811 -0.1417532116174698 -0.9898954033851624
 outer loop
  vertex 719500.0 5649500.0 5577.25
  vertex 720500.0 5649500.0 5580.89990234375
  vertex 720500.0 5648500.0 5724.10009765625
 endloop
endfacet
facet normal -0.11514658480882645 -0.1408112645149231 -0.9833176136016846
 outer loop
  vertex 720500.0 5649500.0 5580.89990234375
  vertex 721500.0 5648500.0 5607.0
  vertex 720500.0 5648500.0 5724.10009765625
 endloop
endfacet
facet normal 0.007898347452282906 -0.01819661445915699 -0.9998032450675964
 outer loop
  vertex 720500.0 5649500.0 5580.89990234375
  vertex 721500.0 5649500.0 5588.7998046875
  vertex 721500.0 5648500.0 5607.0
 endloop
endfacet
facet normal 0.4259288012981415 0.09350081533193588 -0.899912416934967
 outer loop
  vertex 712500.0 5650500.0 5234.7998046875
  vertex 713500.0 5649500.0 5604.2001953125
  vertex 712500.0 5649500.0 5130.89990234375
 endloop
endfacet
facet normal -0.18365608155727386 -0.25578972697257996 -0.9491270184516907
 outer loop
  vertex 714500.0 5650500.0 5331.89990234375
  vertex 715500.0 5649500.0 5407.89990234375
  vertex 714500.0 5649500.0 5601.39990234375
 endloop
endfacet
facet normal 0.006584118120372295 -0.06923188269138336 -0.9975788593292236
 outer loop
  vertex 714500.0 5650500.0 5331.89990234375
  vertex 715500.0 5650500.0 5338.5
  vertex 715500.0 5649500.0 5407.89990234375
 endloop
endfacet
facet normal -0.1386120617389679 -0.06856505572795868 -0.9879704117774963
 outer loop
  vertex 715500.0 5650500.0 5338.5
  vertex 716500.0 5649500.0 5267.60009765625
  vertex 715500.0 5649500.0 5407.89990234375
 endloop
endfacet
facet normal 0.056841183453798294 0.1270509660243988 -0.9902662038803101
 outer loop
  vertex 715500.0 5650500.0 5338.5
  vertex 716500.0 5650500.0 5395.89990234375
  vertex 716500.0 5649500.0 5267.60009765625
 endloop
endfacet
facet normal 0.24863478541374207 0.123260498046875 -0.9607224464416504
 outer loop
  vertex 716500.0 5650500.0 5395.89990234375
  vertex 717500.0 5649500.0 5526.39990234375
  vertex 716500.0 5649500.0 5267.60009765625
 endloop
endfacet
facet normal -0.05215604603290558 -0.18033592402935028 -0.9822213053703308
 outer loop
  vertex 716500.0 5650500.0 5395.89990234375
  vertex 717500.0 5650500.0 5342.7998046875
  vertex 717500.0 5649500.0 5526.39990234375
 endloop
endfacet
facet normal 0.04637428745627403 -0.18038742244243622 -0.9825018048286438
 outer loop
  vertex 717500.0 5650500.0 5342.7998046875
  vertex 718500.0 5649500.0 5573.60009765625
  vertex 717500.0 5649500.0 5526.39990234375
 endloop
endfacet
endsolid
