solid
facet normal -0.40697237849235535 0.4636380076408386 -0.7870281934738159
 outer loop
  vertex 680500.0 5638500.0 5996.2998046875
  vertex 681500.0 5637500.0 4890.10009765625
  vertex 680500.0 5637500.0 5407.2001953125
 endloop
endfacet
facet normal -0.5971564054489136 0.2470279484987259 -0.7631391286849976
 outer loop
  vertex 680500.0 5638500.0 5996.2998046875
  vertex 681500.0 5638500.0 5213.7998046875
  vertex 681500.0 5637500.0 4890.10009765625
 endloop
endfacet
facet normal -0.548948347568512 0.25741612911224365 -0.7952312231063843
 outer loop
  vertex 681500.0 5638500.0 5213.7998046875
  vertex 682500.0 5637500.0 4199.7998046875
  vertex 681500.0 5637500.0 4890.10009765625
 endloop
endfacet
facet normal -0.7259188890457153 -0.029135623946785927 -0.6871629357337952
 outer loop
  vertex 681500.0 5638500.0 5213.7998046875
  vertex 682500.0 5638500.0 4157.39990234375
  vertex 682500.0 5637500.0 4199.7998046875
 endloop
endfacet
facet normal -0.6155076026916504 0.04924068599939346 -0.7865912318229675
 outer loop
  vertex 680500.0 5639500.0 6058.89990234375
  vertex 681500.0 5638500.0 5213.7998046875
  vertex 680500.0 5638500.0 5996.2998046875
 endloop
endfacet
facet normal -0.7794181704521179 -0.3286643922328949 -0.533373236656189
 outer loop
  vertex 680500.0 5639500.0 6058.89990234375
  vertex 681500.0 5639500.0 4597.60009765625
  vertex 681500.0 5638500.0 5213.7998046875
 endloop
endfacet
facet normal -0.6687036156654358 -0.3900558352470398 -0.6330023407936096
 outer loop
  vertex 681500.0 5639500.0 4597.60009765625
  vertex 682500.0 5638500.0 4157.39990234375
  vertex 681500.0 5638500.0 5213.7998046875
 endloop
endfacet
facet normal -0.29031774401664734 0.12718595564365387 -0.9484404921531677
 outer loop
  vertex 681500.0 5639500.0 4597.60009765625
  vertex 682500.0 5639500.0 4291.5
  vertex 682500.0 5638500.0 4157.39990234375
 endloop
endfacet
facet normal -0.6242297887802124 -0.6135413646697998 -0.4836365282535553
 outer loop
  vertex 679500.0 5640500.0 6081.0
  vertex 680500.0 5640500.0 4790.2998046875
  vertex 680500.0 5639500.0 6058.89990234375
 endloop
endfacet
facet normal -0.6708616614341736 -0.5823959708213806 -0.4590855538845062
 outer loop
  vertex 680500.0 5640500.0 4790.2998046875
  vertex 681500.0 5639500.0 4597.60009765625
  vertex 680500.0 5639500.0 6058.89990234375
 endloop
endfacet
facet normal -0.37603726983070374 -0.2017652541399002 -0.904370903968811
 outer loop
  vertex 680500.0 5640500.0 4790.2998046875
  vertex 681500.0 5640500.0 4374.5
  vertex 681500.0 5639500.0 4597.60009765625
 endloop
endfacet
facet normal -0.28625357151031494 -0.20863501727581024 -0.9351632595062256
 outer loop
  vertex 681500.0 5640500.0 4374.5
  vertex 682500.0 5639500.0 4291.5
  vertex 681500.0 5639500.0 4597.60009765625
 endloop
endfacet
facet normal -0.23017378151416779 -0.1503724753856659 -0.9614614248275757
 outer loop
  vertex 681500.0 5640500.0 4374.5
  vertex 682500.0 5640500.0 4135.10009765625
  vertex 682500.0 5639500.0 4291.5
 endloop
endfacet
facet normal 0.17008696496486664 -0.15226992964744568 -0.9735934734344482
 outer loop
  vertex 682500.0 5640500.0 4135.10009765625
  vertex 683500.0 5639500.0 4466.2001953125
  vertex 682500.0 5639500.0 4291.5
 endloop
endfacet
facet normal 0.5615180730819702 0.3071136772632599 -0.76836097240448
 outer loop
  vertex 682500.0 5640500.0 4135.10009765625
  vertex 683500.0 5640500.0 4865.89990234375
  vertex 683500.0 5639500.0 4466.2001953125
 endloop
endfacet
facet normal 0.2722485363483429 0.35713082551956177 -0.8934978246688843
 outer loop
  vertex 683500.0 5640500.0 4865.89990234375
  vertex 684500.0 5639500.0 4770.89990234375
  vertex 683500.0 5639500.0 4466.2001953125
 endloop
endfacet
facet normal 0.2442055642604828 0.3308033049106598 -0.9115552306175232
 outer loop
  vertex 683500.0 5640500.0 4865.89990234375
  vertex 684500.0 5640500.0 5133.7998046875
  vertex 684500.0 5639500.0 4770.89990234375
 endloop
endfacet
facet normal 0.20295947790145874 0.3340316414833069 -0.9204511642456055
 outer loop
  vertex 684500.0 5640500.0 5133.7998046875
  vertex 685500.0 5639500.0 4991.39990234375
  vertex 684500.0 5639500.0 4770.89990234375
 endloop
endfacet
facet normal 0.600360095500946 0.6638609170913696 -0.4459332525730133
 outer loop
  vertex 684500.0 5640500.0 5133.7998046875
  vertex 685500.0 5640500.0 6480.10009765625
  vertex 685500.0 5639500.0 4991.39990234375
 endloop
endfacet
facet normal -0.1336740106344223 0.8226565718650818 -0.5526005625724792
 outer loop
  vertex 685500.0 5640500.0 6480.10009765625
  vertex 686500.0 5639500.0 4749.5
  vertex 685500.0 5639500.0 4991.39990234375
 endloop
endfacet
facet normal -0.39622870087623596 0.6770434379577637 -0.6201733946800232
 outer loop
  vertex 685500.0 5640500.0 6480.10009765625
  vertex 686500.0 5640500.0 5841.2001953125
  vertex 686500.0 5639500.0 4749.5
 endloop
endfacet
facet normal -0.4137445390224457 -0.6480782628059387 -0.639382541179657
 outer loop
  vertex 678500.0 5641500.0 5714.5
  vertex 679500.0 5641500.0 5067.39990234375
  vertex 679500.0 5640500.0 6081.0
 endloop
endfacet
facet normal -0.6716122031211853 -0.5274239182472229 -0.5203471183776855
 outer loop
  vertex 679500.0 5641500.0 5067.39990234375
  vertex 680500.0 5640500.0 4790.2998046875
  vertex 679500.0 5640500.0 6081.0
 endloop
endfacet
facet normal -0.5650639533996582 -0.35925519466400146 -0.7427235841751099
 outer loop
  vertex 679500.0 5641500.0 5067.39990234375
  vertex 680500.0 5641500.0 4306.60009765625
  vertex 680500.0 5640500.0 4790.2998046875
 endloop
endfacet
facet normal -0.350557804107666 -0.4078037142753601 -0.8430927395820618
 outer loop
  vertex 680500.0 5641500.0 4306.60009765625
  vertex 681500.0 5640500.0 4374.5
  vertex 680500.0 5640500.0 4790.2998046875
 endloop
endfacet
facet normal -0.1688096672296524 -0.23382464051246643 -0.9575120806694031
 outer loop
  vertex 680500.0 5641500.0 4306.60009765625
  vertex 681500.0 5641500.0 4130.2998046875
  vertex 681500.0 5640500.0 4374.5
 endloop
endfacet
facet normal -0.22652068734169006 -0.23106274008750916 -0.9462021589279175
 outer loop
  vertex 681500.0 5641500.0 4130.2998046875
  vertex 682500.0 5640500.0 4135.10009765625
  vertex 681500.0 5640500.0 4374.5
 endloop
endfacet
facet normal 0.342259019613266 0.3380506932735443 -0.876687228679657
 outer loop
  vertex 681500.0 5641500.0 4130.2998046875
  vertex 682500.0 5641500.0 4520.7001953125
  vertex 682500.0 5640500.0 4135.10009765625
 endloop
endfacet
facet normal 0.5633624196052551 0.29725325107574463 -0.7708847522735596
 outer loop
  vertex 682500.0 5641500.0 4520.7001953125
  vertex 683500.0 5640500.0 4865.89990234375
  vertex 682500.0 5640500.0 4135.10009765625
 endloop
endfacet
facet normal 0.7148938179016113 0.5801584720611572 -0.39031118154525757
 outer loop
  vertex 682500.0 5641500.0 4520.7001953125
  vertex 683500.0 5641500.0 6352.2998046875
  vertex 683500.0 5640500.0 4865.89990234375
 endloop
endfacet
facet normal 0.1478969305753708 0.8205826282501221 -0.5520604848861694
 outer loop
  vertex 683500.0 5641500.0 6352.2998046875
  vertex 684500.0 5640500.0 5133.7998046875
  vertex 683500.0 5640500.0 4865.89990234375
 endloop
endfacet
facet normal 0.10454675555229187 0.8091375231742859 -0.5782443881034851
 outer loop
  vertex 683500.0 5641500.0 6352.2998046875
  vertex 684500.0 5641500.0 6533.10009765625
  vertex 684500.0 5640500.0 5133.7998046875
 endloop
endfacet
facet normal 0.6163919568061829 0.6406576037406921 -0.4578413963317871
 outer loop
  vertex 684500.0 5641500.0 6533.10009765625
  vertex 685500.0 5640500.0 6480.10009765625
  vertex 684500.0 5640500.0 5133.7998046875
 endloop
endfacet
facet normal -0.0002998768468387425 0.052626676857471466 -0.9986142516136169
 outer loop
  vertex 684500.0 5641500.0 6533.10009765625
  vertex 685500.0 5641500.0 6532.7998046875
  vertex 685500.0 5640500.0 6480.10009765625
 endloop
endfacet
facet normal -0.5378657579421997 0.04436589404940605 -0.8418622612953186
 outer loop
  vertex 685500.0 5641500.0 6532.7998046875
  vertex 686500.0 5640500.0 5841.2001953125
  vertex 685500.0 5640500.0 6480.10009765625
 endloop
endfacet
facet normal 0.02976410649716854 0.2302335649728775 -0.9726800918579102
 outer loop
  vertex 676500.0 5642500.0 6291.10009765625
  vertex 677500.0 5642500.0 6321.7001953125
  vertex 677500.0 5641500.0 6085.0
 endloop
endfacet
facet normal -0.3391672670841217 0.21668273210525513 -0.9154312014579773
 outer loop
  vertex 677500.0 5642500.0 6321.7001953125
  vertex 678500.0 5641500.0 5714.5
  vertex 677500.0 5641500.0 6085.0
 endloop
endfacet
facet normal -0.4866875410079956 0.04310198873281479 -0.8725121021270752
 outer loop
  vertex 677500.0 5642500.0 6321.7001953125
  vertex 678500.0 5642500.0 5763.89990234375
  vertex 678500.0 5641500.0 5714.5
 endloop
endfacet
facet normal -0.5428090691566467 0.041438277810811996 -0.838833212852478
 outer loop
  vertex 678500.0 5642500.0 5763.89990234375
  vertex 679500.0 5641500.0 5067.39990234375
  vertex 678500.0 5641500.0 5714.5
 endloop
endfacet
facet normal -0.09919431805610657 0.5000160932540894 -0.8603164553642273
 outer loop
  vertex 678500.0 5642500.0 5763.89990234375
  vertex 679500.0 5642500.0 5648.60009765625
  vertex 679500.0 5641500.0 5067.39990234375
 endloop
endfacet
facet normal -0.5495453476905823 0.41981586813926697 -0.7223258018493652
 outer loop
  vertex 679500.0 5642500.0 5648.60009765625
  vertex 680500.0 5641500.0 4306.60009765625
  vertex 679500.0 5641500.0 5067.39990234375
 endloop
endfacet
facet normal -0.8097972869873047 -0.023040056228637695 -0.5862572193145752
 outer loop
  vertex 679500.0 5642500.0 5648.60009765625
  vertex 680500.0 5642500.0 4267.2998046875
  vertex 680500.0 5641500.0 4306.60009765625
 endloop
endfacet
facet normal -0.17349278926849365 -0.038674455136060715 -0.9840754270553589
 outer loop
  vertex 680500.0 5642500.0 4267.2998046875
  vertex 681500.0 5641500.0 4130.2998046875
  vertex 680500.0 5641500.0 4306.60009765625
 endloop
endfacet
facet normal -0.073056161403656 0.06330224126577377 -0.9953168630599976
 outer loop
  vertex 680500.0 5642500.0 4267.2998046875
  vertex 681500.0 5642500.0 4193.89990234375
  vertex 681500.0 5641500.0 4130.2998046875
 endloop
endfacet
facet normal 0.36303240060806274 0.05914158374071121 -0.929897665977478
 outer loop
  vertex 681500.0 5642500.0 4193.89990234375
  vertex 682500.0 5641500.0 4520.7001953125
  vertex 681500.0 5641500.0 4130.2998046875
 endloop
endfacet
facet normal 0.7053169012069702 0.5657058954238892 -0.427205890417099
 outer loop
  vertex 681500.0 5642500.0 4193.89990234375
  vertex 682500.0 5642500.0 5844.89990234375
  vertex 682500.0 5641500.0 4520.7001953125
 endloop
endfacet
facet normal 0.741091251373291 0.5357900261878967 -0.4046142101287842
 outer loop
  vertex 682500.0 5642500.0 5844.89990234375
  vertex 683500.0 5641500.0 6352.2998046875
  vertex 682500.0 5641500.0 4520.7001953125
 endloop
endfacet
facet normal -0.021450603380799294 -0.46935683488845825 -0.882748007774353
 outer loop
  vertex 682500.0 5642500.0 5844.89990234375
  vertex 683500.0 5642500.0 5820.60009765625
  vertex 683500.0 5641500.0 6352.2998046875
 endloop
endfacet
facet normal 0.15764178335666656 -0.46359482407569885 -0.8719110488891602
 outer loop
  vertex 683500.0 5642500.0 5820.60009765625
  vertex 684500.0 5641500.0 6533.10009765625
  vertex 683500.0 5641500.0 6352.2998046875
 endloop
endfacet
facet normal 0.47242289781570435 -0.1467846781015396 -0.8690632581710815
 outer loop
  vertex 683500.0 5642500.0 5820.60009765625
  vertex 684500.0 5642500.0 6364.2001953125
  vertex 684500.0 5641500.0 6533.10009765625
 endloop
endfacet
facet normal -0.00029610306955873966 -0.16654111444950104 -0.9860344529151917
 outer loop
  vertex 684500.0 5642500.0 6364.2001953125
  vertex 685500.0 5641500.0 6532.7998046875
  vertex 684500.0 5641500.0 6533.10009765625
 endloop
endfacet
facet normal 0.12480185925960541 -0.04232729598879814 -0.9912784099578857
 outer loop
  vertex 684500.0 5642500.0 6364.2001953125
  vertex 685500.0 5642500.0 6490.10009765625
  vertex 685500.0 5641500.0 6532.7998046875
 endloop
endfacet
facet normal 0.029360003769397736 -0.2802625298500061 -0.9594743251800537
 outer loop
  vertex 676500.0 5643500.0 5999.0
  vertex 677500.0 5642500.0 6321.7001953125
  vertex 676500.0 5642500.0 6291.10009765625
 endloop
endfacet
facet normal 0.24174892902374268 -0.0705508440732956 -0.9677706360816956
 outer loop
  vertex 676500.0 5643500.0 5999.0
  vertex 677500.0 5643500.0 6248.7998046875
  vertex 677500.0 5642500.0 6321.7001953125
 endloop
endfacet
facet normal -0.48615598678588867 -0.06353700906038284 -0.871559202671051
 outer loop
  vertex 677500.0 5643500.0 6248.7998046875
  vertex 678500.0 5642500.0 5763.89990234375
  vertex 677500.0 5642500.0 6321.7001953125
 endloop
endfacet
facet normal -0.017767323181033134 0.4218013286590576 -0.9065141677856445
 outer loop
  vertex 677500.0 5643500.0 6248.7998046875
  vertex 678500.0 5643500.0 6229.2001953125
  vertex 678500.0 5642500.0 5763.89990234375
 endloop
endfacet
facet normal -0.10397089272737503 0.4195815324783325 -0.9017435312271118
 outer loop
  vertex 678500.0 5643500.0 6229.2001953125
  vertex 679500.0 5642500.0 5648.60009765625
  vertex 678500.0 5642500.0 5763.89990234375
 endloop
endfacet
facet normal -0.6307602524757385 -0.1946290135383606 -0.7511731386184692
 outer loop
  vertex 678500.0 5643500.0 6229.2001953125
  vertex 679500.0 5643500.0 5389.5
  vertex 679500.0 5642500.0 5648.60009765625
 endloop
endfacet
facet normal -0.8008213043212891 -0.15021561086177826 -0.5797590017318726
 outer loop
  vertex 679500.0 5643500.0 5389.5
  vertex 680500.0 5642500.0 4267.2998046875
  vertex 679500.0 5642500.0 5648.60009765625
 endloop
endfacet
facet normal -0.6739488244056702 0.1400705873966217 -0.7253780364990234
 outer loop
  vertex 679500.0 5643500.0 5389.5
  vertex 680500.0 5643500.0 4460.39990234375
  vertex 680500.0 5642500.0 4267.2998046875
 endloop
endfacet
facet normal -0.07188213616609573 0.18910714983940125 -0.9793218970298767
 outer loop
  vertex 680500.0 5643500.0 4460.39990234375
  vertex 681500.0 5642500.0 4193.89990234375
  vertex 680500.0 5642500.0 4267.2998046875
 endloop
endfacet
facet normal -0.3311181664466858 -0.08057000488042831 -0.9401432275772095
 outer loop
  vertex 680500.0 5643500.0 4460.39990234375
  vertex 681500.0 5643500.0 4108.2001953125
  vertex 681500.0 5642500.0 4193.89990234375
 endloop
endfacet
facet normal 0.8544951677322388 -0.04435492679476738 -0.5175621509552002
 outer loop
  vertex 681500.0 5643500.0 4108.2001953125
  vertex 682500.0 5642500.0 5844.89990234375
  vertex 681500.0 5642500.0 4193.89990234375
 endloop
endfacet
facet normal 0.5275975465774536 -0.5685607194900513 -0.6311731934547424
 outer loop
  vertex 681500.0 5643500.0 4108.2001953125
  vertex 682500.0 5643500.0 4944.10009765625
  vertex 682500.0 5642500.0 5844.89990234375
 endloop
endfacet
facet normal -0.018051782622933388 -0.6691839098930359 -0.7428774833679199
 outer loop
  vertex 682500.0 5643500.0 4944.10009765625
  vertex 683500.0 5642500.0 5820.60009765625
  vertex 682500.0 5642500.0 5844.89990234375
 endloop
endfacet
facet normal 0.3559630811214447 -0.38884884119033813 -0.8497568964958191
 outer loop
  vertex 682500.0 5643500.0 4944.10009765625
  vertex 683500.0 5643500.0 5363.0
  vertex 683500.0 5642500.0 5820.60009765625
 endloop
endfacet
facet normal 0.4431246221065521 -0.3730202615261078 -0.8151664733886719
 outer loop
  vertex 683500.0 5643500.0 5363.0
  vertex 684500.0 5642500.0 6364.2001953125
  vertex 683500.0 5642500.0 5820.60009765625
 endloop
endfacet
facet normal 0.4621880054473877 -0.3524998724460602 -0.8137112855911255
 outer loop
  vertex 683500.0 5643500.0 5363.0
  vertex 684500.0 5643500.0 5931.0
  vertex 684500.0 5642500.0 6364.2001953125
 endloop
endfacet
facet normal 0.11476252228021622 -0.39487823843955994 -0.9115375876426697
 outer loop
  vertex 684500.0 5643500.0 5931.0
  vertex 685500.0 5642500.0 6490.10009765625
  vertex 684500.0 5642500.0 6364.2001953125
 endloop
endfacet
facet normal -0.2060638815164566 -0.6263860464096069 -0.7517833113670349
 outer loop
  vertex 684500.0 5643500.0 5931.0
  vertex 685500.0 5643500.0 5656.89990234375
  vertex 685500.0 5642500.0 6490.10009765625
 endloop
endfacet
facet normal 0.24232470989227295 -0.015230377204716206 -0.9700756669044495
 outer loop
  vertex 676500.0 5644500.0 5983.2998046875
  vertex 677500.0 5643500.0 6248.7998046875
  vertex 676500.0 5643500.0 5999.0
 endloop
endfacet
facet normal -0.38408035039901733 -0.5757236480712891 -0.7218203544616699
 outer loop
  vertex 676500.0 5644500.0 5983.2998046875
  vertex 677500.0 5644500.0 5451.2001953125
  vertex 677500.0 5643500.0 6248.7998046875
 endloop
endfacet
facet normal -0.015320862643420696 -0.6234769225120544 -0.7816916108131409
 outer loop
  vertex 677500.0 5644500.0 5451.2001953125
  vertex 678500.0 5643500.0 6229.2001953125
  vertex 677500.0 5643500.0 6248.7998046875
 endloop
endfacet
facet normal 0.5135006904602051 -0.14455199241638184 -0.8458260893821716
 outer loop
  vertex 677500.0 5644500.0 5451.2001953125
  vertex 678500.0 5644500.0 6058.2998046875
  vertex 678500.0 5643500.0 6229.2001953125
 endloop
endfacet
facet normal -0.63761967420578 -0.1297718584537506 -0.7593420743942261
 outer loop
  vertex 678500.0 5644500.0 6058.2998046875
  vertex 679500.0 5643500.0 5389.5
  vertex 678500.0 5643500.0 6229.2001953125
 endloop
endfacet
facet normal -0.5852891206741333 -0.04380160942673683 -0.809640645980835
 outer loop
  vertex 678500.0 5644500.0 6058.2998046875
  vertex 679500.0 5644500.0 5335.39990234375
  vertex 679500.0 5643500.0 5389.5
 endloop
endfacet
facet normal -0.6801251173019409 -0.03960265964269638 -0.7320256233215332
 outer loop
  vertex 679500.0 5644500.0 5335.39990234375
  vertex 680500.0 5643500.0 4460.39990234375
  vertex 679500.0 5643500.0 5389.5
 endloop
endfacet
facet normal -0.6869156956672668 -0.05269449204206467 -0.7248241901397705
 outer loop
  vertex 679500.0 5644500.0 5335.39990234375
  vertex 680500.0 5644500.0 4387.7001953125
  vertex 680500.0 5643500.0 4460.39990234375
 endloop
endfacet
facet normal -0.33141985535621643 -0.06841041147708893 -0.9409998655319214
 outer loop
  vertex 680500.0 5644500.0 4387.7001953125
  vertex 681500.0 5643500.0 4108.2001953125
  vertex 680500.0 5643500.0 4460.39990234375
 endloop
endfacet
facet normal -0.2851065695285797 -0.017250370234251022 -0.958340585231781
 outer loop
  vertex 680500.0 5644500.0 4387.7001953125
  vertex 681500.0 5644500.0 4090.199951171875
  vertex 681500.0 5643500.0 4108.2001953125
 endloop
endfacet
facet normal 0.6412846446037292 -0.013809405267238617 -0.7671787738800049
 outer loop
  vertex 681500.0 5644500.0 4090.199951171875
  vertex 682500.0 5643500.0 4944.10009765625
  vertex 681500.0 5643500.0 4108.2001953125
 endloop
endfacet
facet normal 0.5565847754478455 -0.14233821630477905 -0.81850665807724
 outer loop
  vertex 681500.0 5644500.0 4090.199951171875
  vertex 682500.0 5644500.0 4770.2001953125
  vertex 682500.0 5643500.0 4944.10009765625
 endloop
endfacet
facet normal 0.3814936578273773 -0.15837126970291138 -0.9107035994529724
 outer loop
  vertex 682500.0 5644500.0 4770.2001953125
  vertex 683500.0 5643500.0 5363.0
  vertex 682500.0 5643500.0 4944.10009765625
 endloop
endfacet
facet normal 0.33264070749282837 -0.21208125352859497 -0.9188969731330872
 outer loop
  vertex 682500.0 5644500.0 4770.2001953125
  vertex 683500.0 5644500.0 5132.2001953125
  vertex 683500.0 5643500.0 5363.0
 endloop
endfacet
facet normal 0.48423486948013306 -0.19676288962364197 -0.8525261878967285
 outer loop
  vertex 683500.0 5644500.0 5132.2001953125
  vertex 684500.0 5643500.0 5931.0
  vertex 683500.0 5643500.0 5363.0
 endloop
endfacet
facet normal 0.22899673879146576 -0.4573918282985687 -0.8592748641967773
 outer loop
  vertex 683500.0 5644500.0 5132.2001953125
  vertex 684500.0 5644500.0 5398.7001953125
  vertex 684500.0 5643500.0 5931.0
 endloop
endfacet
facet normal -0.2351709008216858 -0.4566996395587921 -0.8579744696617126
 outer loop
  vertex 684500.0 5644500.0 5398.7001953125
  vertex 685500.0 5643500.0 5656.89990234375
  vertex 684500.0 5643500.0 5931.0
 endloop
endfacet
facet normal -0.20668698847293854 -0.4332001507282257 -0.8772788643836975
 outer loop
  vertex 684500.0 5644500.0 5398.7001953125
  vertex 685500.0 5644500.0 5163.10009765625
  vertex 685500.0 5643500.0 5656.89990234375
 endloop
endfacet
facet normal 0.5795313715934753 -0.3608277142047882 -0.7307165861129761
 outer loop
  vertex 685500.0 5644500.0 5163.10009765625
  vertex 686500.0 5643500.0 6450.0
  vertex 685500.0 5643500.0 5656.89990234375
 endloop
endfacet
facet normal 0.07321688532829285 -0.7591421604156494 -0.6467939615249634
 outer loop
  vertex 685500.0 5644500.0 5163.10009765625
  vertex 686500.0 5644500.0 5276.2998046875
  vertex 686500.0 5643500.0 6450.0
 endloop
endfacet
facet normal -0.4678766131401062 0.08898559957742691 -0.8793026208877563
 outer loop
  vertex 676500.0 5645500.0 6084.5
  vertex 677500.0 5644500.0 5451.2001953125
  vertex 676500.0 5644500.0 5983.2998046875
 endloop
endfacet
facet normal -0.2704223096370697 0.30737271904945374 -0.9123561978340149
 outer loop
  vertex 676500.0 5645500.0 6084.5
  vertex 677500.0 5645500.0 5788.10009765625
  vertex 677500.0 5644500.0 5451.2001953125
 endloop
endfacet
facet normal 0.4986839294433594 0.27673640847206116 -0.8214202523231506
 outer loop
  vertex 677500.0 5645500.0 5788.10009765625
  vertex 678500.0 5644500.0 6058.2998046875
  vertex 677500.0 5644500.0 5451.2001953125
 endloop
endfacet
facet normal -0.5150947570800781 -0.6621556878089905 -0.5442675352096558
 outer loop
  vertex 677500.0 5645500.0 5788.10009765625
  vertex 678500.0 5645500.0 4841.7001953125
  vertex 678500.0 5644500.0 6058.2998046875
 endloop
endfacet
facet normal -0.41717880964279175 -0.7020883560180664 -0.5770907402038574
 outer loop
  vertex 678500.0 5645500.0 4841.7001953125
  vertex 679500.0 5644500.0 5335.39990234375
  vertex 678500.0 5644500.0 6058.2998046875
 endloop
endfacet
facet normal 0.4084135591983795 -0.041762154549360275 -0.9118411540985107
 outer loop
  vertex 678500.0 5645500.0 4841.7001953125
  vertex 679500.0 5645500.0 5289.60009765625
  vertex 679500.0 5644500.0 5335.39990234375
 endloop
endfacet
facet normal -0.6874915957450867 -0.03322463855147362 -0.7254319190979004
 outer loop
  vertex 679500.0 5645500.0 5289.60009765625
  vertex 680500.0 5644500.0 4387.7001953125
  vertex 679500.0 5644500.0 5335.39990234375
 endloop
endfacet
facet normal 0.06906729191541672 0.7053475379943848 -0.7054888606071472
 outer loop
  vertex 679500.0 5645500.0 5289.60009765625
  vertex 680500.0 5645500.0 5387.5
  vertex 680500.0 5644500.0 4387.7001953125
 endloop
endfacet
facet normal -0.20587849617004395 0.6918895840644836 -0.6920281052589417
 outer loop
  vertex 680500.0 5645500.0 5387.5
  vertex 681500.0 5644500.0 4090.199951171875
  vertex 680500.0 5644500.0 4387.7001953125
 endloop
endfacet
facet normal -0.7950262427330017 -0.008188018575310707 -0.606519877910614
 outer loop
  vertex 680500.0 5645500.0 5387.5
  vertex 681500.0 5645500.0 4076.699951171875
  vertex 681500.0 5644500.0 4090.199951171875
 endloop
endfacet
facet normal 0.5622751116752625 -0.011162810027599335 -0.826874852180481
 outer loop
  vertex 681500.0 5645500.0 4076.699951171875
  vertex 682500.0 5644500.0 4770.2001953125
  vertex 681500.0 5644500.0 4090.199951171875
 endloop
endfacet
facet normal -0.0023797035682946444 -0.5714764595031738 -0.8206150531768799
 outer loop
  vertex 681500.0 5645500.0 4076.699951171875
  vertex 682500.0 5645500.0 4073.800048828125
  vertex 682500.0 5644500.0 4770.2001953125
 endloop
endfacet
facet normal 0.2847643196582794 -0.5478174686431885 -0.7866417765617371
 outer loop
  vertex 682500.0 5645500.0 4073.800048828125
  vertex 683500.0 5644500.0 5132.2001953125
  vertex 682500.0 5644500.0 4770.2001953125
 endloop
endfacet
facet normal 0.5883917212486267 -0.23156097531318665 -0.7747095227241516
 outer loop
  vertex 682500.0 5645500.0 4073.800048828125
  vertex 683500.0 5645500.0 4833.2998046875
  vertex 683500.0 5644500.0 5132.2001953125
 endloop
endfacet
facet normal 0.24740026891231537 -0.27747854590415955 -0.928331196308136
 outer loop
  vertex 683500.0 5645500.0 4833.2998046875
  vertex 684500.0 5644500.0 5398.7001953125
  vertex 683500.0 5644500.0 5132.2001953125
 endloop
endfacet
facet normal 0.11873094737529755 -0.3960721492767334 -0.9105106592178345
 outer loop
  vertex 683500.0 5645500.0 4833.2998046875
  vertex 684500.0 5645500.0 4963.7001953125
  vertex 684500.0 5644500.0 5398.7001953125
 endloop
endfacet
facet normal -0.21117255091667175 -0.38989824056625366 -0.8963177800178528
 outer loop
  vertex 684500.0 5645500.0 4963.7001953125
  vertex 685500.0 5644500.0 5163.10009765625
  vertex 684500.0 5644500.0 5398.7001953125
 endloop
endfacet
facet normal 0.2612067759037018 0.06922504305839539 -0.9627974629402161
 outer loop
  vertex 684500.0 5645500.0 4963.7001953125
  vertex 685500.0 5645500.0 5235.0
  vertex 685500.0 5644500.0 5163.10009765625
 endloop
endfacet
facet normal 0.11219535768032074 0.07126197963953018 -0.991127610206604
 outer loop
  vertex 685500.0 5645500.0 5235.0
  vertex 686500.0 5644500.0 5276.2998046875
  vertex 685500.0 5644500.0 5163.10009765625
 endloop
endfacet
facet normal 0.15268436074256897 0.11213237047195435 -0.9818929433822632
 outer loop
  vertex 685500.0 5645500.0 5235.0
  vertex 686500.0 5645500.0 5390.5
  vertex 686500.0 5644500.0 5276.2998046875
 endloop
endfacet
facet normal -0.6433332562446594 -0.3521883487701416 -0.6797689199447632
 outer loop
  vertex 677500.0 5646500.0 5270.0
  vertex 678500.0 5645500.0 4841.7001953125
  vertex 677500.0 5645500.0 5788.10009765625
 endloop
endfacet
facet normal 0.1531333178281784 0.5144940614700317 -0.8437097072601318
 outer loop
  vertex 677500.0 5646500.0 5270.0
  vertex 678500.0 5646500.0 5451.5
  vertex 678500.0 5645500.0 4841.7001953125
 endloop
endfacet
facet normal 0.3571821451187134 0.4862908124923706 -0.7974597811698914
 outer loop
  vertex 678500.0 5646500.0 5451.5
  vertex 679500.0 5645500.0 5289.60009765625
  vertex 678500.0 5645500.0 4841.7001953125
 endloop
endfacet
facet normal 0.3809146583080292 0.5061839818954468 -0.7737452983856201
 outer loop
  vertex 678500.0 5646500.0 5451.5
  vertex 679500.0 5646500.0 5943.7998046875
  vertex 679500.0 5645500.0 5289.60009765625
 endloop
endfacet
facet normal 0.08165238797664642 0.545628547668457 -0.8340397477149963
 outer loop
  vertex 679500.0 5646500.0 5943.7998046875
  vertex 680500.0 5645500.0 5387.5
  vertex 679500.0 5645500.0 5289.60009765625
 endloop
endfacet
facet normal -0.09078849107027054 0.4132611155509949 -0.9060754179954529
 outer loop
  vertex 679500.0 5646500.0 5943.7998046875
  vertex 680500.0 5646500.0 5843.60009765625
  vertex 680500.0 5645500.0 5387.5
 endloop
endfacet
facet normal -0.7662714719772339 0.2666283845901489 -0.584583044052124
 outer loop
  vertex 680500.0 5646500.0 5843.60009765625
  vertex 681500.0 5645500.0 4076.699951171875
  vertex 680500.0 5645500.0 5387.5
 endloop
endfacet
facet normal -0.755298376083374 0.28633177280426025 -0.5895240306854248
 outer loop
  vertex 680500.0 5646500.0 5843.60009765625
  vertex 681500.0 5646500.0 4562.39990234375
  vertex 681500.0 5645500.0 4076.699951171875
 endloop
endfacet
facet normal -0.0026084950659424067 0.43689200282096863 -0.8995100855827332
 outer loop
  vertex 681500.0 5646500.0 4562.39990234375
  vertex 682500.0 5645500.0 4073.800048828125
  vertex 681500.0 5645500.0 4076.699951171875
 endloop
endfacet
facet normal -0.45016756653785706 -0.013928316533565521 -0.8928354382514954
 outer loop
  vertex 681500.0 5646500.0 4562.39990234375
  vertex 682500.0 5646500.0 4058.199951171875
  vertex 682500.0 5645500.0 4073.800048828125
 endloop
endfacet
facet normal 0.6047840714454651 -0.01242224220186472 -0.7962926030158997
 outer loop
  vertex 682500.0 5646500.0 4058.199951171875
  vertex 683500.0 5645500.0 4833.2998046875
  vertex 682500.0 5645500.0 4073.800048828125
 endloop
endfacet
facet normal 0.05158514901995659 -0.5790702104568481 -0.8136439919471741
 outer loop
  vertex 682500.0 5646500.0 4058.199951171875
  vertex 683500.0 5646500.0 4121.60009765625
  vertex 683500.0 5645500.0 4833.2998046875
 endloop
endfacet
facet normal 0.10564644634723663 -0.5765973329544067 -0.8101693987846375
 outer loop
  vertex 683500.0 5646500.0 4121.60009765625
  vertex 684500.0 5645500.0 4963.7001953125
  vertex 683500.0 5645500.0 4833.2998046875
 endloop
endfacet
facet normal 0.6840518712997437 0.07286866754293442 -0.7257844805717468
 outer loop
  vertex 683500.0 5646500.0 4121.60009765625
  vertex 684500.0 5646500.0 5064.10009765625
  vertex 684500.0 5645500.0 4963.7001953125
 endloop
endfacet
facet normal 0.260614275932312 0.09644551575183868 -0.9606136083602905
 outer loop
  vertex 684500.0 5646500.0 5064.10009765625
  vertex 685500.0 5645500.0 5235.0
  vertex 684500.0 5645500.0 4963.7001953125
 endloop
endfacet
facet normal 0.5320804715156555 0.40500882267951965 -0.7435443997383118
 outer loop
  vertex 684500.0 5646500.0 5064.10009765625
  vertex 685500.0 5646500.0 5779.7001953125
  vertex 685500.0 5645500.0 5235.0
 endloop
endfacet
facet normal 0.13530035316944122 0.47394293546676636 -0.8700987100601196
 outer loop
  vertex 685500.0 5646500.0 5779.7001953125
  vertex 686500.0 5645500.0 5390.5
  vertex 685500.0 5645500.0 5235.0
 endloop
endfacet
facet normal -0.060557771474123 0.3088621199131012 -0.9491770267486572
 outer loop
  vertex 685500.0 5646500.0 5779.7001953125
  vertex 686500.0 5646500.0 5715.89990234375
  vertex 686500.0 5645500.0 5390.5
 endloop
endfacet
facet normal 0.13783612847328186 0.46899187564849854 -0.8723805546760559
 outer loop
  vertex 676500.0 5647500.0 5649.60009765625
  vertex 677500.0 5647500.0 5807.60009765625
  vertex 677500.0 5646500.0 5270.0
 endloop
endfacet
facet normal 0.15785858035087585 0.4675745368003845 -0.869744062423706
 outer loop
  vertex 677500.0 5647500.0 5807.60009765625
  vertex 678500.0 5646500.0 5451.5
  vertex 677500.0 5646500.0 5270.0
 endloop
endfacet
facet normal -0.07211165875196457 0.2698182463645935 -0.9602072834968567
 outer loop
  vertex 677500.0 5647500.0 5807.60009765625
  vertex 678500.0 5647500.0 5732.5
  vertex 678500.0 5646500.0 5451.5
 endloop
endfacet
facet normal 0.4282778799533844 0.24445690214633942 -0.8699533939361572
 outer loop
  vertex 678500.0 5647500.0 5732.5
  vertex 679500.0 5646500.0 5943.7998046875
  vertex 678500.0 5646500.0 5451.5
 endloop
endfacet
facet normal 0.2320949286222458 0.02664215676486492 -0.9723281860351562
 outer loop
  vertex 678500.0 5647500.0 5732.5
  vertex 679500.0 5647500.0 5971.2001953125
  vertex 679500.0 5646500.0 5943.7998046875
 endloop
endfacet
facet normal -0.09966342896223068 0.027253741398453712 -0.9946479201316833
 outer loop
  vertex 679500.0 5647500.0 5971.2001953125
  vertex 680500.0 5646500.0 5843.60009765625
  vertex 679500.0 5646500.0 5943.7998046875
 endloop
endfacet
facet normal -0.3429468870162964 -0.2266256958246231 -0.9116074442863464
 outer loop
  vertex 679500.0 5647500.0 5971.2001953125
  vertex 680500.0 5647500.0 5595.0
  vertex 680500.0 5646500.0 5843.60009765625
 endloop
endfacet
facet normal -0.7792410254478455 -0.1512015014886856 -0.6082117557525635
 outer loop
  vertex 680500.0 5647500.0 5595.0
  vertex 681500.0 5646500.0 4562.39990234375
  vertex 680500.0 5646500.0 5843.60009765625
 endloop
endfacet
facet normal 0.09451238065958023 0.7593191266059875 -0.6438181400299072
 outer loop
  vertex 680500.0 5647500.0 5595.0
  vertex 681500.0 5647500.0 5741.7998046875
  vertex 681500.0 5646500.0 4562.39990234375
 endloop
endfacet
facet normal -0.31000837683677673 0.7251563668251038 -0.6148520112037659
 outer loop
  vertex 681500.0 5647500.0 5741.7998046875
  vertex 682500.0 5646500.0 4058.199951171875
  vertex 681500.0 5646500.0 4562.39990234375
 endloop
endfacet
facet normal -0.7289102673530579 0.30390700697898865 -0.6134576797485352
 outer loop
  vertex 681500.0 5647500.0 5741.7998046875
  vertex 682500.0 5647500.0 4553.60009765625
  vertex 682500.0 5646500.0 4058.199951171875
 endloop
endfacet
facet normal 0.05671950429677963 0.44319847226142883 -0.8946272134780884
 outer loop
  vertex 682500.0 5647500.0 4553.60009765625
  vertex 683500.0 5646500.0 4121.60009765625
  vertex 682500.0 5646500.0 4058.199951171875
 endloop
endfacet
facet normal -0.4376579821109772 -0.049825675785541534 -0.8977599740028381
 outer loop
  vertex 682500.0 5647500.0 4553.60009765625
  vertex 683500.0 5647500.0 4066.10009765625
  vertex 683500.0 5646500.0 4121.60009765625
 endloop
endfacet
facet normal 0.6853165626525879 -0.040355511009693146 -0.7271263003349304
 outer loop
  vertex 683500.0 5647500.0 4066.10009765625
  vertex 684500.0 5646500.0 5064.10009765625
  vertex 683500.0 5646500.0 4121.60009765625
 endloop
endfacet
facet normal -0.015538291074335575 -0.7140552997589111 -0.6999168395996094
 outer loop
  vertex 683500.0 5647500.0 4066.10009765625
  vertex 684500.0 5647500.0 4043.89990234375
  vertex 684500.0 5646500.0 5064.10009765625
 endloop
endfacet
facet normal 0.44787222146987915 -0.638512134552002 -0.6258694529533386
 outer loop
  vertex 684500.0 5647500.0 4043.89990234375
  vertex 685500.0 5646500.0 5779.7001953125
  vertex 684500.0 5646500.0 5064.10009765625
 endloop
endfacet
facet normal 0.43384233117103577 -0.6497024297714233 -0.6242335438728333
 outer loop
  vertex 684500.0 5647500.0 4043.89990234375
  vertex 685500.0 5647500.0 4738.89990234375
  vertex 685500.0 5646500.0 5779.7001953125
 endloop
endfacet
facet normal -0.04415975511074066 -0.7203959226608276 -0.6921557784080505
 outer loop
  vertex 685500.0 5647500.0 4738.89990234375
  vertex 686500.0 5646500.0 5715.89990234375
  vertex 685500.0 5646500.0 5779.7001953125
 endloop
endfacet
facet normal 0.7246993184089661 0.0535159669816494 -0.6869840025901794
 outer loop
  vertex 685500.0 5647500.0 4738.89990234375
  vertex 686500.0 5647500.0 5793.7998046875
  vertex 686500.0 5646500.0 5715.89990234375
 endloop
endfacet
facet normal -0.363433837890625 0.08120647072792053 -0.9280739426612854
 outer loop
  vertex 675500.0 5648500.0 6128.7001953125
  vertex 676500.0 5647500.0 5649.60009765625
  vertex 675500.0 5647500.0 6041.2001953125
 endloop
endfacet
facet normal -0.09758518636226654 0.3489571809768677 -0.9320439696311951
 outer loop
  vertex 675500.0 5648500.0 6128.7001953125
  vertex 676500.0 5648500.0 6024.0
  vertex 676500.0 5647500.0 5649.60009765625
 endloop
endfacet
facet normal 0.14637543261051178 0.3468540906906128 -0.9264267683029175
 outer loop
  vertex 676500.0 5648500.0 6024.0
  vertex 677500.0 5647500.0 5807.60009765625
  vertex 676500.0 5647500.0 5649.60009765625
 endloop
endfacet
facet normal -0.06800462305545807 0.1455833911895752 -0.9870060086250305
 outer loop
  vertex 676500.0 5648500.0 6024.0
  vertex 677500.0 5648500.0 5955.10009765625
  vertex 677500.0 5647500.0 5807.60009765625
 endloop
endfacet
facet normal -0.07409203052520752 0.14552012085914612 -0.9865770936012268
 outer loop
  vertex 677500.0 5648500.0 5955.10009765625
  vertex 678500.0 5647500.0 5732.5
  vertex 677500.0 5647500.0 5807.60009765625
 endloop
endfacet
facet normal 0.1896561086177826 0.39021414518356323 -0.9009791016578674
 outer loop
  vertex 677500.0 5648500.0 5955.10009765625
  vertex 678500.0 5648500.0 6165.60009765625
  vertex 678500.0 5647500.0 5732.5
 endloop
endfacet
facet normal 0.21396659314632416 0.38822320103645325 -0.8963821530342102
 outer loop
  vertex 678500.0 5648500.0 6165.60009765625
  vertex 679500.0 5647500.0 5971.2001953125
  vertex 678500.0 5647500.0 5732.5
 endloop
endfacet
facet normal 0.26605403423309326 0.43343549966812134 -0.8610162734985352
 outer loop
  vertex 678500.0 5648500.0 6165.60009765625
  vertex 679500.0 5648500.0 6474.60009765625
  vertex 679500.0 5647500.0 5971.2001953125
 endloop
endfacet
facet normal -0.3185235559940338 0.4262217879295349 -0.8466863036155701
 outer loop
  vertex 679500.0 5648500.0 6474.60009765625
  vertex 680500.0 5647500.0 5595.0
  vertex 679500.0 5647500.0 5971.2001953125
 endloop
endfacet
facet normal -0.2044234722852707 0.5232610106468201 -0.8272901773452759
 outer loop
  vertex 679500.0 5648500.0 6474.60009765625
  vertex 680500.0 5648500.0 6227.5
  vertex 680500.0 5647500.0 5595.0
 endloop
endfacet
facet normal 0.12312204390764236 0.5304822325706482 -0.8387070894241333
 outer loop
  vertex 680500.0 5648500.0 6227.5
  vertex 681500.0 5647500.0 5741.7998046875
  vertex 680500.0 5647500.0 5595.0
 endloop
endfacet
facet normal -0.5969221591949463 -0.22253520786762238 -0.7708190083503723
 outer loop
  vertex 680500.0 5648500.0 6227.5
  vertex 681500.0 5648500.0 5453.10009765625
  vertex 681500.0 5647500.0 5741.7998046875
 endloop
endfacet
facet normal -0.7522110939025879 -0.18276651203632355 -0.6330678462982178
 outer loop
  vertex 681500.0 5648500.0 5453.10009765625
  vertex 682500.0 5647500.0 4553.60009765625
  vertex 681500.0 5647500.0 5741.7998046875
 endloop
endfacet
facet normal -0.29088085889816284 0.4624941051006317 -0.837548553943634
 outer loop
  vertex 681500.0 5648500.0 5453.10009765625
  vertex 682500.0 5648500.0 5105.7998046875
  vertex 682500.0 5647500.0 4553.60009765625
 endloop
endfacet
facet normal -0.39250993728637695 0.4446028172969818 -0.8051486015319824
 outer loop
  vertex 682500.0 5648500.0 5105.7998046875
  vertex 683500.0 5647500.0 4066.10009765625
  vertex 682500.0 5647500.0 4553.60009765625
 endloop
endfacet
facet normal -0.4986634850502014 0.333269327878952 -0.8001664280891418
 outer loop
  vertex 682500.0 5648500.0 5105.7998046875
  vertex 683500.0 5648500.0 4482.60009765625
  vertex 683500.0 5647500.0 4066.10009765625
 endloop
endfacet
facet normal -0.020489390939474106 0.3844035565853119 -0.9229376912117004
 outer loop
  vertex 683500.0 5648500.0 4482.60009765625
  vertex 684500.0 5647500.0 4043.89990234375
  vertex 683500.0 5647500.0 4066.10009765625
 endloop
endfacet
facet normal -0.41864338517189026 -0.020337389782071114 -0.9079229831695557
 outer loop
  vertex 683500.0 5648500.0 4482.60009765625
  vertex 684500.0 5648500.0 4021.5
  vertex 684500.0 5647500.0 4043.89990234375
 endloop
endfacet
facet normal 0.5706070065498352 -0.018390707671642303 -0.821017324924469
 outer loop
  vertex 684500.0 5648500.0 4021.5
  vertex 685500.0 5647500.0 4738.89990234375
  vertex 684500.0 5647500.0 4043.89990234375
 endloop
endfacet
facet normal 0.7418515682220459 0.31852662563323975 -0.5900822281837463
 outer loop
  vertex 684500.0 5648500.0 4021.5
  vertex 685500.0 5648500.0 5278.7001953125
  vertex 685500.0 5647500.0 4738.89990234375
 endloop
endfacet
facet normal 0.6803402304649353 0.34813523292541504 -0.6449334025382996
 outer loop
  vertex 685500.0 5648500.0 5278.7001953125
  vertex 686500.0 5647500.0 5793.7998046875
  vertex 685500.0 5647500.0 4738.89990234375
 endloop
endfacet
facet normal 0.20413295924663544 0.13382588326931 -0.9697527289390564
 outer loop
  vertex 677500.0 5649500.0 6093.10009765625
  vertex 678500.0 5648500.0 6165.60009765625
  vertex 677500.0 5648500.0 5955.10009765625
 endloop
endfacet
facet normal -0.17714160680770874 -0.24622590839862823 -0.9528869986534119
 outer loop
  vertex 677500.0 5649500.0 6093.10009765625
  vertex 678500.0 5649500.0 5907.2001953125
  vertex 678500.0 5648500.0 6165.60009765625
 endloop
endfacet
facet normal 0.2866212725639343 -0.2396858036518097 -0.927577018737793
 outer loop
  vertex 678500.0 5649500.0 5907.2001953125
  vertex 679500.0 5648500.0 6474.60009765625
  vertex 678500.0 5648500.0 6165.60009765625
 endloop
endfacet
facet normal -0.267795205116272 0.5776904821395874 -0.7710767388343811
 outer loop
  vertex 681500.0 5649500.0 6202.2998046875
  vertex 682500.0 5648500.0 5105.7998046875
  vertex 681500.0 5648500.0 5453.10009765625
 endloop
endfacet
facet normal -0.37096744775772095 0.4638097584247589 -0.8045269250869751
 outer loop
  vertex 683500.0 5649500.0 5059.10009765625
  vertex 684500.0 5648500.0 4021.5
  vertex 683500.0 5648500.0 4482.60009765625
 endloop
endfacet
facet normal -0.18125095963478088 -0.12860137224197388 -0.9749921560287476
 outer loop
  vertex 677500.0 5650500.0 5961.2001953125
  vertex 678500.0 5649500.0 5907.2001953125
  vertex 677500.0 5649500.0 6093.10009765625
 endloop
endfacet
facet normal 0.038901787251234055 0.09262857586145401 -0.9949405193328857
 outer loop
  vertex 677500.0 5650500.0 5961.2001953125
  vertex 678500.0 5650500.0 6000.2998046875
  vertex 678500.0 5649500.0 5907.2001953125
 endloop
endfacet
endsolid
