solid
facet normal -0.025152213871479034 -0.1048845425248146 -0.9941663146018982
 outer loop
  vertex 365500.0 5706500.0 3080.89990234375
  vertex 366500.0 5706500.0 3055.60009765625
  vertex 366500.0 5705500.0 3161.10009765625
 endloop
endfacet
facet normal -0.12501245737075806 -0.10409466922283173 -0.9866793155670166
 outer loop
  vertex 366500.0 5706500.0 3055.60009765625
  vertex 367500.0 5705500.0 3034.39990234375
  vertex 366500.0 5705500.0 3161.10009765625
 endloop
endfacet
facet normal -0.0032995024230331182 0.01789718307554722 -0.999834418296814
 outer loop
  vertex 366500.0 5706500.0 3055.60009765625
  vertex 367500.0 5706500.0 3052.300048828125
  vertex 367500.0 5705500.0 3034.39990234375
 endloop
endfacet
facet normal 0.13230520486831665 0.01773994415998459 -0.9910502433776855
 outer loop
  vertex 367500.0 5706500.0 3052.300048828125
  vertex 368500.0 5705500.0 3167.89990234375
  vertex 367500.0 5705500.0 3034.39990234375
 endloop
endfacet
facet normal 0.08267195522785187 -0.032471004873514175 -0.9960476756095886
 outer loop
  vertex 367500.0 5706500.0 3052.300048828125
  vertex 368500.0 5706500.0 3135.300048828125
  vertex 368500.0 5705500.0 3167.89990234375
 endloop
endfacet
facet normal 0.036656059324741364 -0.03256065025925636 -0.9987973570823669
 outer loop
  vertex 368500.0 5706500.0 3135.300048828125
  vertex 369500.0 5705500.0 3204.60009765625
  vertex 368500.0 5705500.0 3167.89990234375
 endloop
endfacet
facet normal 0.09139272570610046 0.02240016683936119 -0.9955629706382751
 outer loop
  vertex 368500.0 5706500.0 3135.300048828125
  vertex 369500.0 5706500.0 3227.10009765625
  vertex 369500.0 5705500.0 3204.60009765625
 endloop
endfacet
facet normal -0.10157288610935211 -0.0876995176076889 -0.9909549951553345
 outer loop
  vertex 364500.0 5707500.0 3094.89990234375
  vertex 365500.0 5707500.0 2992.39990234375
  vertex 365500.0 5706500.0 3080.89990234375
 endloop
endfacet
facet normal -0.025193307548761368 -0.08812747150659561 -0.9957906007766724
 outer loop
  vertex 365500.0 5707500.0 2992.39990234375
  vertex 366500.0 5706500.0 3055.60009765625
  vertex 365500.0 5706500.0 3080.89990234375
 endloop
endfacet
facet normal 0.05899665877223015 -0.004092921502888203 -0.9982497692108154
 outer loop
  vertex 365500.0 5707500.0 2992.39990234375
  vertex 366500.0 5707500.0 3051.5
  vertex 366500.0 5706500.0 3055.60009765625
 endloop
endfacet
facet normal -0.003300003008916974 -0.004100040998309851 -0.9999861121177673
 outer loop
  vertex 366500.0 5707500.0 3051.5
  vertex 367500.0 5706500.0 3052.300048828125
  vertex 366500.0 5706500.0 3055.60009765625
 endloop
endfacet
facet normal 0.05543144419789314 0.054633818566799164 -0.9969666600227356
 outer loop
  vertex 366500.0 5707500.0 3051.5
  vertex 367500.0 5707500.0 3107.10009765625
  vertex 367500.0 5706500.0 3052.300048828125
 endloop
endfacet
facet normal 0.08259250223636627 0.054530996829271317 -0.9950903654098511
 outer loop
  vertex 367500.0 5707500.0 3107.10009765625
  vertex 368500.0 5706500.0 3135.300048828125
  vertex 367500.0 5706500.0 3052.300048828125
 endloop
endfacet
facet normal 0.05191517621278763 0.02376122586429119 -0.9983687996864319
 outer loop
  vertex 367500.0 5707500.0 3107.10009765625
  vertex 368500.0 5707500.0 3159.10009765625
  vertex 368500.0 5706500.0 3135.300048828125
 endloop
endfacet
facet normal 0.09138999879360199 0.023693740367889404 -0.9955332279205322
 outer loop
  vertex 368500.0 5707500.0 3159.10009765625
  vertex 369500.0 5706500.0 3227.10009765625
  vertex 368500.0 5706500.0 3135.300048828125
 endloop
endfacet
facet normal 0.014477775432169437 -0.05341799929738045 -0.9984672665596008
 outer loop
  vertex 368500.0 5707500.0 3159.10009765625
  vertex 369500.0 5707500.0 3173.60009765625
  vertex 369500.0 5706500.0 3227.10009765625
 endloop
endfacet
facet normal 0.08478657901287079 -0.012653201818466187 -0.9963188171386719
 outer loop
  vertex 363500.0 5708500.0 2997.10009765625
  vertex 364500.0 5708500.0 3082.199951171875
  vertex 364500.0 5707500.0 3094.89990234375
 endloop
endfacet
facet normal -0.10195762664079666 -0.01263274997472763 -0.9947085380554199
 outer loop
  vertex 364500.0 5708500.0 3082.199951171875
  vertex 365500.0 5707500.0 2992.39990234375
  vertex 364500.0 5707500.0 3094.89990234375
 endloop
endfacet
facet normal 0.016504675149917603 0.10578851401805878 -0.9942516684532166
 outer loop
  vertex 364500.0 5708500.0 3082.199951171875
  vertex 365500.0 5708500.0 3098.800048828125
  vertex 365500.0 5707500.0 2992.39990234375
 endloop
endfacet
facet normal 0.05866715684533119 0.10562069714069366 -0.9926743507385254
 outer loop
  vertex 365500.0 5708500.0 3098.800048828125
  vertex 366500.0 5707500.0 3051.5
  vertex 365500.0 5707500.0 2992.39990234375
 endloop
endfacet
facet normal 0.011180137284100056 0.05839650705456734 -0.9982308745384216
 outer loop
  vertex 365500.0 5708500.0 3098.800048828125
  vertex 366500.0 5708500.0 3110.0
  vertex 366500.0 5707500.0 3051.5
 endloop
endfacet
facet normal 0.05541989952325821 0.05831040441989899 -0.9967590570449829
 outer loop
  vertex 366500.0 5708500.0 3110.0
  vertex 367500.0 5707500.0 3107.10009765625
  vertex 366500.0 5707500.0 3051.5
 endloop
endfacet
facet normal 0.047088537365198135 0.04998159408569336 -0.9976394772529602
 outer loop
  vertex 366500.0 5708500.0 3110.0
  vertex 367500.0 5708500.0 3157.199951171875
  vertex 367500.0 5707500.0 3107.10009765625
 endloop
endfacet
facet normal 0.05186496302485466 0.04996974766254425 -0.9974031448364258
 outer loop
  vertex 367500.0 5708500.0 3157.199951171875
  vertex 368500.0 5707500.0 3159.10009765625
  vertex 367500.0 5707500.0 3107.10009765625
 endloop
endfacet
facet normal -0.0003000480937771499 -0.0022001899778842926 -0.9999975562095642
 outer loop
  vertex 367500.0 5708500.0 3157.199951171875
  vertex 368500.0 5708500.0 3156.89990234375
  vertex 368500.0 5707500.0 3159.10009765625
 endloop
endfacet
facet normal 0.01449844054877758 -0.0021999587770551443 -0.9998924732208252
 outer loop
  vertex 368500.0 5708500.0 3156.89990234375
  vertex 369500.0 5707500.0 3173.60009765625
  vertex 368500.0 5707500.0 3159.10009765625
 endloop
endfacet
facet normal 0.027288349345326424 0.010595310479402542 -0.9995714426040649
 outer loop
  vertex 368500.0 5708500.0 3156.89990234375
  vertex 369500.0 5708500.0 3184.199951171875
  vertex 369500.0 5707500.0 3173.60009765625
 endloop
endfacet
facet normal 0.08221658319234848 0.009965647011995316 -0.9965646266937256
 outer loop
  vertex 362500.0 5709500.0 2924.60009765625
  vertex 363500.0 5709500.0 3007.10009765625
  vertex 363500.0 5708500.0 2997.10009765625
 endloop
endfacet
facet normal 0.08478915691375732 0.00996349100023508 -0.996349036693573
 outer loop
  vertex 363500.0 5709500.0 3007.10009765625
  vertex 364500.0 5708500.0 3082.199951171875
  vertex 363500.0 5708500.0 2997.10009765625
 endloop
endfacet
facet normal 0.01357295736670494 -0.061378370970487595 -0.9980223178863525
 outer loop
  vertex 363500.0 5709500.0 3007.10009765625
  vertex 364500.0 5709500.0 3020.699951171875
  vertex 364500.0 5708500.0 3082.199951171875
 endloop
endfacet
facet normal 0.01656651683151722 -0.06137560307979584 -0.9979773163795471
 outer loop
  vertex 364500.0 5709500.0 3020.699951171875
  vertex 365500.0 5708500.0 3098.800048828125
  vertex 364500.0 5708500.0 3082.199951171875
 endloop
endfacet
facet normal 0.03614458814263344 -0.04183605685830116 -0.9984705448150635
 outer loop
  vertex 364500.0 5709500.0 3020.699951171875
  vertex 365500.0 5709500.0 3056.89990234375
  vertex 365500.0 5708500.0 3098.800048828125
 endloop
endfacet
facet normal 0.011189430020749569 -0.04186079278588295 -0.9990607500076294
 outer loop
  vertex 365500.0 5709500.0 3056.89990234375
  vertex 366500.0 5708500.0 3110.0
  vertex 365500.0 5708500.0 3098.800048828125
 endloop
endfacet
facet normal -0.038311343640089035 -0.09115124493837357 -0.9950999021530151
 outer loop
  vertex 365500.0 5709500.0 3056.89990234375
  vertex 366500.0 5709500.0 3018.39990234375
  vertex 366500.0 5708500.0 3110.0
 endloop
endfacet
facet normal 0.04695133864879608 -0.09111760556697845 -0.994732677936554
 outer loop
  vertex 366500.0 5709500.0 3018.39990234375
  vertex 367500.0 5708500.0 3157.199951171875
  vertex 366500.0 5708500.0 3110.0
 endloop
endfacet
facet normal 0.02961159311234951 -0.10831068456172943 -0.9936760067939758
 outer loop
  vertex 366500.0 5709500.0 3018.39990234375
  vertex 367500.0 5709500.0 3048.199951171875
  vertex 367500.0 5708500.0 3157.199951171875
 endloop
endfacet
facet normal -0.00029828015249222517 -0.10835819691419601 -0.9941118955612183
 outer loop
  vertex 367500.0 5709500.0 3048.199951171875
  vertex 368500.0 5708500.0 3156.89990234375
  vertex 367500.0 5708500.0 3157.199951171875
 endloop
endfacet
facet normal 0.011345832608640194 -0.09683623909950256 -0.9952356815338135
 outer loop
  vertex 367500.0 5709500.0 3048.199951171875
  vertex 368500.0 5709500.0 3059.60009765625
  vertex 368500.0 5708500.0 3156.89990234375
 endloop
endfacet
facet normal 0.027161704376339912 -0.09680673480033875 -0.9949324727058411
 outer loop
  vertex 368500.0 5709500.0 3059.60009765625
  vertex 369500.0 5708500.0 3184.199951171875
  vertex 368500.0 5708500.0 3156.89990234375
 endloop
endfacet
facet normal 0.01998700387775898 -0.10391328483819962 -0.9943855404853821
 outer loop
  vertex 368500.0 5709500.0 3059.60009765625
  vertex 369500.0 5709500.0 3079.699951171875
  vertex 369500.0 5708500.0 3184.199951171875
 endloop
endfacet
facet normal 0.08220577239990234 -0.019031979143619537 -0.9964336156845093
 outer loop
  vertex 362500.0 5710500.0 2905.5
  vertex 363500.0 5709500.0 3007.10009765625
  vertex 362500.0 5709500.0 2924.60009765625
 endloop
endfacet
facet normal 0.051068324595689774 -0.05027056857943535 -0.9974291324615479
 outer loop
  vertex 362500.0 5710500.0 2905.5
  vertex 363500.0 5710500.0 2956.699951171875
  vertex 363500.0 5709500.0 3007.10009765625
 endloop
endfacet
facet normal 0.013581358827650547 -0.050331614911556244 -0.998640239238739
 outer loop
  vertex 363500.0 5710500.0 2956.699951171875
  vertex 364500.0 5709500.0 3020.699951171875
  vertex 363500.0 5709500.0 3007.10009765625
 endloop
endfacet
facet normal -0.003591633401811123 -0.06744548678398132 -0.9977165460586548
 outer loop
  vertex 363500.0 5710500.0 2956.699951171875
  vertex 364500.0 5710500.0 2953.10009765625
  vertex 364500.0 5709500.0 3020.699951171875
 endloop
endfacet
facet normal 0.03609399124979973 -0.06740197539329529 -0.9970728158950806
 outer loop
  vertex 364500.0 5710500.0 2953.10009765625
  vertex 365500.0 5709500.0 3056.89990234375
  vertex 364500.0 5709500.0 3020.699951171875
 endloop
endfacet
facet normal 0.08428329974412918 -0.019128112122416496 -0.9962582588195801
 outer loop
  vertex 364500.0 5710500.0 2953.10009765625
  vertex 365500.0 5710500.0 3037.699951171875
  vertex 365500.0 5709500.0 3056.89990234375
 endloop
endfacet
facet normal -0.038464419543743134 -0.01918220706284046 -0.9990758299827576
 outer loop
  vertex 365500.0 5710500.0 3037.699951171875
  vertex 366500.0 5709500.0 3018.39990234375
  vertex 365500.0 5709500.0 3056.89990234375
 endloop
endfacet
facet normal -0.03287907689809799 -0.013591243885457516 -0.9993669390678406
 outer loop
  vertex 365500.0 5710500.0 3037.699951171875
  vertex 366500.0 5710500.0 3004.800048828125
  vertex 366500.0 5709500.0 3018.39990234375
 endloop
endfacet
facet normal 0.029784074053168297 -0.013592562638223171 -0.9994639158248901
 outer loop
  vertex 366500.0 5710500.0 3004.800048828125
  vertex 367500.0 5709500.0 3048.199951171875
  vertex 366500.0 5709500.0 3018.39990234375
 endloop
endfacet
facet normal -0.011581815779209137 -0.054913319647312164 -0.9984239935874939
 outer loop
  vertex 366500.0 5710500.0 3004.800048828125
  vertex 367500.0 5710500.0 2993.199951171875
  vertex 367500.0 5709500.0 3048.199951171875
 endloop
endfacet
facet normal 0.01138220727443695 -0.054913442581892014 -0.9984262585639954
 outer loop
  vertex 367500.0 5710500.0 2993.199951171875
  vertex 368500.0 5709500.0 3059.60009765625
  vertex 367500.0 5709500.0 3048.199951171875
 endloop
endfacet
facet normal -0.04043542221188545 -0.10640399903059006 -0.9935004711151123
 outer loop
  vertex 367500.0 5710500.0 2993.199951171875
  vertex 368500.0 5710500.0 2952.5
  vertex 368500.0 5709500.0 3059.60009765625
 endloop
endfacet
facet normal 0.01998157426714897 -0.10646982491016388 -0.9941151738166809
 outer loop
  vertex 368500.0 5710500.0 2952.5
  vertex 369500.0 5709500.0 3079.699951171875
  vertex 368500.0 5709500.0 3059.60009765625
 endloop
endfacet
facet normal 0.1226658746600151 -0.0035726502537727356 -0.9924416542053223
 outer loop
  vertex 368500.0 5710500.0 2952.5
  vertex 369500.0 5710500.0 3076.10009765625
  vertex 369500.0 5709500.0 3079.699951171875
 endloop
endfacet
facet normal 0.050826091319322586 0.10939527302980423 -0.9926980137825012
 outer loop
  vertex 362500.0 5711500.0 3015.699951171875
  vertex 363500.0 5710500.0 2956.699951171875
  vertex 362500.0 5710500.0 2905.5
 endloop
endfacet
facet normal -0.04135807603597641 0.01758231595158577 -0.9989897012710571
 outer loop
  vertex 362500.0 5711500.0 3015.699951171875
  vertex 363500.0 5711500.0 2974.300048828125
  vertex 363500.0 5710500.0 2956.699951171875
 endloop
endfacet
facet normal -0.00359927280806005 0.0175972580909729 -0.9998387098312378
 outer loop
  vertex 363500.0 5711500.0 2974.300048828125
  vertex 364500.0 5710500.0 2953.10009765625
  vertex 363500.0 5710500.0 2956.699951171875
 endloop
endfacet
facet normal -0.006799186579883099 0.014398076571524143 -0.9998732209205627
 outer loop
  vertex 363500.0 5711500.0 2974.300048828125
  vertex 364500.0 5711500.0 2967.5
  vertex 364500.0 5710500.0 2953.10009765625
 endloop
endfacet
facet normal 0.08429004997015 0.014347169548273087 -0.9963379502296448
 outer loop
  vertex 364500.0 5711500.0 2967.5
  vertex 365500.0 5710500.0 3037.699951171875
  vertex 364500.0 5710500.0 2953.10009765625
 endloop
endfacet
facet normal 0.04304434731602669 -0.02706480212509632 -0.9987064599990845
 outer loop
  vertex 364500.0 5711500.0 2967.5
  vertex 365500.0 5711500.0 3010.60009765625
  vertex 365500.0 5710500.0 3037.699951171875
 endloop
endfacet
facet normal -0.032870057970285416 -0.02707526832818985 -0.9990928173065186
 outer loop
  vertex 365500.0 5711500.0 3010.60009765625
  vertex 366500.0 5710500.0 3004.800048828125
  vertex 365500.0 5710500.0 3037.699951171875
 endloop
endfacet
facet normal 0.034949541091918945 0.04074122756719589 -0.9985583424568176
 outer loop
  vertex 365500.0 5711500.0 3010.60009765625
  vertex 366500.0 5711500.0 3045.60009765625
  vertex 366500.0 5710500.0 3004.800048828125
 endloop
endfacet
facet normal -0.01158967986702919 0.04076339304447174 -0.9991016387939453
 outer loop
  vertex 366500.0 5711500.0 3045.60009765625
  vertex 367500.0 5710500.0 2993.199951171875
  vertex 366500.0 5710500.0 3004.800048828125
 endloop
endfacet
facet normal -0.013088871724903584 0.039266373962163925 -0.9991430640220642
 outer loop
  vertex 366500.0 5711500.0 3045.60009765625
  vertex 367500.0 5711500.0 3032.5
  vertex 367500.0 5710500.0 2993.199951171875
 endloop
endfacet
facet normal -0.04063497111201286 0.03923729807138443 -0.9984033703804016
 outer loop
  vertex 367500.0 5711500.0 3032.5
  vertex 368500.0 5710500.0 2952.5
  vertex 367500.0 5710500.0 2993.199951171875
 endloop
endfacet
facet normal -0.02115865983068943 0.05868552252650261 -0.9980522990226746
 outer loop
  vertex 367500.0 5711500.0 3032.5
  vertex 368500.0 5711500.0 3011.300048828125
  vertex 368500.0 5710500.0 2952.5
 endloop
endfacet
facet normal 0.1224583238363266 0.05825687572360039 -0.9907623529434204
 outer loop
  vertex 368500.0 5711500.0 3011.300048828125
  vertex 369500.0 5710500.0 3076.10009765625
  vertex 368500.0 5710500.0 2952.5
 endloop
endfacet
facet normal 0.0063888863660395145 -0.05829961970448494 -0.9982787370681763
 outer loop
  vertex 368500.0 5711500.0 3011.300048828125
  vertex 369500.0 5711500.0 3017.699951171875
  vertex 369500.0 5710500.0 3076.10009765625
 endloop
endfacet
facet normal -0.04131558537483215 0.04860077053308487 -0.9979634284973145
 outer loop
  vertex 362500.0 5712500.0 3064.39990234375
  vertex 363500.0 5711500.0 2974.300048828125
  vertex 362500.0 5711500.0 3015.699951171875
 endloop
endfacet
facet normal -0.028733976185321808 0.06115993484854698 -0.9977142810821533
 outer loop
  vertex 362500.0 5712500.0 3064.39990234375
  vertex 363500.0 5712500.0 3035.60009765625
  vertex 363500.0 5711500.0 2974.300048828125
 endloop
endfacet
facet normal -0.0067871506325900555 0.06118379160761833 -0.9981034994125366
 outer loop
  vertex 363500.0 5712500.0 3035.60009765625
  vertex 364500.0 5711500.0 2967.5
  vertex 363500.0 5711500.0 2974.300048828125
 endloop
endfacet
facet normal 0.01036744937300682 0.07825503498315811 -0.9968794584274292
 outer loop
  vertex 363500.0 5712500.0 3035.60009765625
  vertex 364500.0 5712500.0 3046.0
  vertex 364500.0 5711500.0 2967.5
 endloop
endfacet
facet normal 0.0429283007979393 0.07818710058927536 -0.9960139989852905
 outer loop
  vertex 364500.0 5712500.0 3046.0
  vertex 365500.0 5711500.0 3010.60009765625
  vertex 364500.0 5711500.0 2967.5
 endloop
endfacet
facet normal 0.07824742048978806 0.11331009864807129 -0.9904736876487732
 outer loop
  vertex 364500.0 5712500.0 3046.0
  vertex 365500.0 5712500.0 3125.0
  vertex 365500.0 5711500.0 3010.60009765625
 endloop
endfacet
facet normal 0.03475219011306763 0.11358992755413055 -0.9929197430610657
 outer loop
  vertex 365500.0 5712500.0 3125.0
  vertex 366500.0 5711500.0 3045.60009765625
  vertex 365500.0 5711500.0 3010.60009765625
 endloop
endfacet
facet normal -0.13502992689609528 -0.0564851351082325 -0.989230215549469
 outer loop
  vertex 365500.0 5712500.0 3125.0
  vertex 366500.0 5712500.0 2988.5
  vertex 366500.0 5711500.0 3045.60009765625
 endloop
endfacet
facet normal -0.013077675364911556 -0.05700236186385155 -0.9982883930206299
 outer loop
  vertex 366500.0 5712500.0 2988.5
  vertex 367500.0 5711500.0 3032.5
  vertex 366500.0 5711500.0 3045.60009765625
 endloop
endfacet
facet normal 0.019690318033099174 -0.02428816817700863 -0.9995110630989075
 outer loop
  vertex 366500.0 5712500.0 2988.5
  vertex 367500.0 5712500.0 3008.199951171875
  vertex 367500.0 5711500.0 3032.5
 endloop
endfacet
facet normal -0.02118893712759018 -0.024287423118948936 -0.9994804859161377
 outer loop
  vertex 367500.0 5712500.0 3008.199951171875
  vertex 368500.0 5711500.0 3011.300048828125
  vertex 367500.0 5711500.0 3032.5
 endloop
endfacet
facet normal 0.08000268787145615 0.076921746134758 -0.9938222169876099
 outer loop
  vertex 367500.0 5712500.0 3008.199951171875
  vertex 368500.0 5712500.0 3088.699951171875
  vertex 368500.0 5711500.0 3011.300048828125
 endloop
endfacet
facet normal 0.00638069212436676 0.07716753333806992 -0.9969977140426636
 outer loop
  vertex 368500.0 5712500.0 3088.699951171875
  vertex 369500.0 5711500.0 3017.699951171875
  vertex 368500.0 5711500.0 3011.300048828125
 endloop
endfacet
facet normal 0.1745537370443344 0.24231374263763428 -0.9543663263320923
 outer loop
  vertex 368500.0 5712500.0 3088.699951171875
  vertex 369500.0 5712500.0 3271.60009765625
  vertex 369500.0 5711500.0 3017.699951171875
 endloop
endfacet
facet normal -0.028527775779366493 0.13412117958068848 -0.9905542135238647
 outer loop
  vertex 362500.0 5713500.0 3199.800048828125
  vertex 363500.0 5712500.0 3035.60009765625
  vertex 362500.0 5712500.0 3064.39990234375
 endloop
endfacet
facet normal 0.2084362953901291 0.3578914403915405 -0.9102022051811218
 outer loop
  vertex 362500.0 5713500.0 3199.800048828125
  vertex 363500.0 5713500.0 3428.800048828125
  vertex 363500.0 5712500.0 3035.60009765625
 endloop
endfacet
facet normal 0.00967811606824398 0.3659115731716156 -0.9305992722511292
 outer loop
  vertex 363500.0 5713500.0 3428.800048828125
  vertex 364500.0 5712500.0 3046.0
  vertex 363500.0 5712500.0 3035.60009765625
 endloop
endfacet
facet normal -0.2401730716228485 0.1281692087650299 -0.9622315168380737
 outer loop
  vertex 363500.0 5713500.0 3428.800048828125
  vertex 364500.0 5713500.0 3179.199951171875
  vertex 364500.0 5712500.0 3046.0
 endloop
endfacet
facet normal 0.07806936651468277 0.13163083791732788 -0.9882198572158813
 outer loop
  vertex 364500.0 5713500.0 3179.199951171875
  vertex 365500.0 5712500.0 3125.0
  vertex 364500.0 5712500.0 3046.0
 endloop
endfacet
facet normal 0.012870137579739094 0.06694401055574417 -0.997673749923706
 outer loop
  vertex 364500.0 5713500.0 3179.199951171875
  vertex 365500.0 5713500.0 3192.10009765625
  vertex 365500.0 5712500.0 3125.0
 endloop
endfacet
facet normal -0.13494794070720673 0.06633713841438293 -0.9886295795440674
 outer loop
  vertex 365500.0 5713500.0 3192.10009765625
  vertex 366500.0 5712500.0 2988.5
  vertex 365500.0 5712500.0 3125.0
 endloop
endfacet
facet normal -0.07765762507915497 0.12375765293836594 -0.9892690777778625
 outer loop
  vertex 365500.0 5713500.0 3192.10009765625
  vertex 366500.0 5713500.0 3113.60009765625
  vertex 366500.0 5712500.0 2988.5
 endloop
endfacet
facet normal 0.01954384706914425 0.12410882115364075 -0.9920761585235596
 outer loop
  vertex 366500.0 5713500.0 3113.60009765625
  vertex 367500.0 5712500.0 3008.199951171875
  vertex 366500.0 5712500.0 2988.5
 endloop
endfacet
facet normal -0.05803747847676277 0.04706799238920212 -0.9972041845321655
 outer loop
  vertex 366500.0 5713500.0 3113.60009765625
  vertex 367500.0 5713500.0 3055.39990234375
  vertex 367500.0 5712500.0 3008.199951171875
 endloop
endfacet
facet normal 0.08015177398920059 0.046995773911476135 -0.995674192905426
 outer loop
  vertex 367500.0 5713500.0 3055.39990234375
  vertex 368500.0 5712500.0 3088.699951171875
  vertex 367500.0 5712500.0 3008.199951171875
 endloop
endfacet
facet normal 0.04315783083438873 0.009890439920127392 -0.9990193247795105
 outer loop
  vertex 367500.0 5713500.0 3055.39990234375
  vertex 368500.0 5713500.0 3098.60009765625
  vertex 368500.0 5712500.0 3088.699951171875
 endloop
endfacet
facet normal 0.17990705370903015 0.0097381342202425 -0.9836353659629822
 outer loop
  vertex 368500.0 5713500.0 3098.60009765625
  vertex 369500.0 5712500.0 3271.60009765625
  vertex 368500.0 5712500.0 3088.699951171875
 endloop
endfacet
facet normal -0.07949000597000122 -0.24658311903476715 -0.96585613489151
 outer loop
  vertex 368500.0 5713500.0 3098.60009765625
  vertex 369500.0 5713500.0 3016.300048828125
  vertex 369500.0 5712500.0 3271.60009765625
 endloop
endfacet
facet normal -0.21499153971672058 -0.24158145487308502 -0.9462648034095764
 outer loop
  vertex 369500.0 5713500.0 3016.300048828125
  vertex 370500.0 5712500.0 3044.39990234375
  vertex 369500.0 5712500.0 3271.60009765625
 endloop
endfacet
facet normal 0.0791461244225502 0.051171354949474335 -0.9955487847328186
 outer loop
  vertex 369500.0 5713500.0 3016.300048828125
  vertex 370500.0 5713500.0 3095.800048828125
  vertex 370500.0 5712500.0 3044.39990234375
 endloop
endfacet
facet normal 0.2224719524383545 0.08189692348241806 -0.9714932441711426
 outer loop
  vertex 362500.0 5714500.0 3284.10009765625
  vertex 363500.0 5713500.0 3428.800048828125
  vertex 362500.0 5713500.0 3199.800048828125
 endloop
endfacet
facet normal -0.04552816227078438 -0.18750879168510437 -0.9812072515487671
 outer loop
  vertex 362500.0 5714500.0 3284.10009765625
  vertex 363500.0 5714500.0 3237.699951171875
  vertex 363500.0 5713500.0 3428.800048828125
 endloop
endfacet
facet normal -0.2381121665239334 -0.18230465054512024 -0.9539746642112732
 outer loop
  vertex 363500.0 5714500.0 3237.699951171875
  vertex 364500.0 5713500.0 3179.199951171875
  vertex 363500.0 5713500.0 3428.800048828125
 endloop
endfacet
facet normal 0.06701619923114777 0.12492536008358002 -0.9899002313613892
 outer loop
  vertex 363500.0 5714500.0 3237.699951171875
  vertex 364500.0 5714500.0 3305.39990234375
  vertex 364500.0 5713500.0 3179.199951171875
 endloop
endfacet
facet normal 0.012797584757208824 0.12519659101963043 -0.9920493960380554
 outer loop
  vertex 364500.0 5714500.0 3305.39990234375
  vertex 365500.0 5713500.0 3192.10009765625
  vertex 364500.0 5713500.0 3179.199951171875
 endloop
endfacet
facet normal -0.011539558880031109 0.1011713296175003 -0.9948021173477173
 outer loop
  vertex 364500.0 5714500.0 3305.39990234375
  vertex 365500.0 5714500.0 3293.800048828125
  vertex 365500.0 5713500.0 3192.10009765625
 endloop
endfacet
facet normal -0.07786008715629578 0.10087092220783234 -0.9918482303619385
 outer loop
  vertex 365500.0 5714500.0 3293.800048828125
  vertex 366500.0 5713500.0 3113.60009765625
  vertex 365500.0 5713500.0 3192.10009765625
 endloop
endfacet
facet normal -0.020536400377750397 0.15737946331501007 -0.9873246550559998
 outer loop
  vertex 365500.0 5714500.0 3293.800048828125
  vertex 366500.0 5714500.0 3273.0
  vertex 366500.0 5713500.0 3113.60009765625
 endloop
endfacet
facet normal -0.05737990513443947 0.15715330839157104 -0.9859058856964111
 outer loop
  vertex 366500.0 5714500.0 3273.0
  vertex 367500.0 5713500.0 3055.39990234375
  vertex 366500.0 5713500.0 3113.60009765625
 endloop
endfacet
facet normal -0.1107950359582901 0.1042717844247818 -0.9883581399917603
 outer loop
  vertex 366500.0 5714500.0 3273.0
  vertex 367500.0 5714500.0 3160.89990234375
  vertex 367500.0 5713500.0 3055.39990234375
 endloop
endfacet
facet normal 0.04292217642068863 0.10482104867696762 -0.9935644268989563
 outer loop
  vertex 367500.0 5714500.0 3160.89990234375
  vertex 368500.0 5713500.0 3098.60009765625
  vertex 367500.0 5713500.0 3055.39990234375
 endloop
endfacet
facet normal -0.10697179287672043 -0.045093197375535965 -0.9932389855384827
 outer loop
  vertex 367500.0 5714500.0 3160.89990234375
  vertex 368500.0 5714500.0 3053.199951171875
  vertex 368500.0 5713500.0 3098.60009765625
 endloop
endfacet
facet normal -0.08193890005350113 -0.04520092532038689 -0.995611846446991
 outer loop
  vertex 368500.0 5714500.0 3053.199951171875
  vertex 369500.0 5713500.0 3016.300048828125
  vertex 368500.0 5713500.0 3098.60009765625
 endloop
endfacet
facet normal 0.11525386571884155 0.15147916972637177 -0.9817181825637817
 outer loop
  vertex 368500.0 5714500.0 3053.199951171875
  vertex 369500.0 5714500.0 3170.60009765625
  vertex 369500.0 5713500.0 3016.300048828125
 endloop
endfacet
facet normal 0.07832878082990646 0.15202686190605164 -0.985267698764801
 outer loop
  vertex 369500.0 5714500.0 3170.60009765625
  vertex 370500.0 5713500.0 3095.800048828125
  vertex 369500.0 5713500.0 3016.300048828125
 endloop
endfacet
facet normal -0.04597828537225723 0.12643973529338837 -0.990908145904541
 outer loop
  vertex 362500.0 5715500.0 3411.699951171875
  vertex 363500.0 5714500.0 3237.699951171875
  vertex 362500.0 5714500.0 3284.10009765625
 endloop
endfacet
facet normal -0.042099881917238235 0.13026198744773865 -0.9905853867530823
 outer loop
  vertex 362500.0 5715500.0 3411.699951171875
  vertex 363500.0 5715500.0 3369.199951171875
  vertex 363500.0 5714500.0 3237.699951171875
 endloop
endfacet
facet normal 0.06697139889001846 0.13008485734462738 -0.9892385005950928
 outer loop
  vertex 363500.0 5715500.0 3369.199951171875
  vertex 364500.0 5714500.0 3305.39990234375
  vertex 363500.0 5714500.0 3237.699951171875
 endloop
endfacet
facet normal 0.08754406124353409 0.15037089586257935 -0.984745979309082
 outer loop
  vertex 363500.0 5715500.0 3369.199951171875
  vertex 364500.0 5715500.0 3458.10009765625
  vertex 364500.0 5714500.0 3305.39990234375
 endloop
endfacet
facet normal -0.011466186493635178 0.15094052255153656 -0.9884763360023499
 outer loop
  vertex 364500.0 5715500.0 3458.10009765625
  vertex 365500.0 5714500.0 3293.800048828125
  vertex 364500.0 5714500.0 3305.39990234375
 endloop
endfacet
facet normal 0.1121041551232338 0.2692605257034302 -0.9565204381942749
 outer loop
  vertex 364500.0 5715500.0 3458.10009765625
  vertex 365500.0 5715500.0 3575.300048828125
  vertex 365500.0 5714500.0 3293.800048828125
 endloop
endfacet
facet normal -0.02001788280904293 0.2709142863750458 -0.9623953104019165
 outer loop
  vertex 365500.0 5715500.0 3575.300048828125
  vertex 366500.0 5714500.0 3273.0
  vertex 365500.0 5714500.0 3293.800048828125
 endloop
endfacet
facet normal -0.17685070633888245 0.11851934343576431 -0.9770757555961609
 outer loop
  vertex 365500.0 5715500.0 3575.300048828125
  vertex 366500.0 5715500.0 3394.300048828125
  vertex 366500.0 5714500.0 3273.0
 endloop
endfacet
facet normal -0.11060162633657455 0.11967860162258148 -0.986632764339447
 outer loop
  vertex 366500.0 5715500.0 3394.300048828125
  vertex 367500.0 5714500.0 3160.89990234375
  vertex 366500.0 5714500.0 3273.0
 endloop
endfacet
facet normal -0.060004886239767075 0.16958771646022797 -0.9836866855621338
 outer loop
  vertex 366500.0 5715500.0 3394.300048828125
  vertex 367500.0 5715500.0 3333.300048828125
  vertex 367500.0 5714500.0 3160.89990234375
 endloop
endfacet
facet normal -0.10554147511720657 0.16894496977329254 -0.9799584150314331
 outer loop
  vertex 367500.0 5715500.0 3333.300048828125
  vertex 368500.0 5714500.0 3053.199951171875
  vertex 367500.0 5714500.0 3160.89990234375
 endloop
endfacet
facet normal -0.13036128878593445 0.14438793063163757 -0.980896532535553
 outer loop
  vertex 367500.0 5715500.0 3333.300048828125
  vertex 368500.0 5715500.0 3200.39990234375
  vertex 368500.0 5714500.0 3053.199951171875
 endloop
endfacet
facet normal 0.11537294089794159 0.1446581780910492 -0.9827324748039246
 outer loop
  vertex 368500.0 5715500.0 3200.39990234375
  vertex 369500.0 5714500.0 3170.60009765625
  vertex 368500.0 5714500.0 3053.199951171875
 endloop
endfacet
facet normal -0.05380620062351227 -0.024058200418949127 -0.9982615113258362
 outer loop
  vertex 368500.0 5715500.0 3200.39990234375
  vertex 369500.0 5715500.0 3146.5
  vertex 369500.0 5714500.0 3170.60009765625
 endloop
endfacet
facet normal -0.04241373389959335 -0.04750323295593262 -0.9979701638221741
 outer loop
  vertex 362500.0 5716500.0 3364.10009765625
  vertex 363500.0 5715500.0 3369.199951171875
  vertex 362500.0 5715500.0 3411.699951171875
 endloop
endfacet
facet normal -0.07975395768880844 -0.08481912314891815 -0.993199348449707
 outer loop
  vertex 362500.0 5716500.0 3364.10009765625
  vertex 363500.0 5716500.0 3283.800048828125
  vertex 363500.0 5715500.0 3369.199951171875
 endloop
endfacet
facet normal 0.08823226392269135 -0.08475832641124725 -0.992487370967865
 outer loop
  vertex 363500.0 5716500.0 3283.800048828125
  vertex 364500.0 5715500.0 3458.10009765625
  vertex 363500.0 5715500.0 3369.199951171875
 endloop
endfacet
facet normal 0.03643282502889633 -0.13612790405750275 -0.9900211691856384
 outer loop
  vertex 363500.0 5716500.0 3283.800048828125
  vertex 364500.0 5716500.0 3320.60009765625
  vertex 364500.0 5715500.0 3458.10009765625
 endloop
endfacet
facet normal 0.1153327152132988 -0.1353093385696411 -0.9840679168701172
 outer loop
  vertex 364500.0 5716500.0 3320.60009765625
  vertex 365500.0 5715500.0 3575.300048828125
  vertex 364500.0 5715500.0 3458.10009765625
 endloop
endfacet
facet normal 0.18733802437782288 -0.06234811618924141 -0.9803148508071899
 outer loop
  vertex 364500.0 5716500.0 3320.60009765625
  vertex 365500.0 5716500.0 3511.699951171875
  vertex 365500.0 5715500.0 3575.300048828125
 endloop
endfacet
facet normal -0.17775827646255493 -0.062461014837026596 -0.9820899367332458
 outer loop
  vertex 365500.0 5716500.0 3511.699951171875
  vertex 366500.0 5715500.0 3394.300048828125
  vertex 365500.0 5715500.0 3575.300048828125
 endloop
endfacet
facet normal -0.021895315498113632 0.09494595974683762 -0.995241641998291
 outer loop
  vertex 365500.0 5716500.0 3511.699951171875
  vertex 366500.0 5716500.0 3489.699951171875
  vertex 366500.0 5715500.0 3394.300048828125
 endloop
endfacet
facet normal -0.060612648725509644 0.09479410946369171 -0.993649959564209
 outer loop
  vertex 366500.0 5716500.0 3489.699951171875
  vertex 367500.0 5715500.0 3333.300048828125
  vertex 366500.0 5715500.0 3394.300048828125
 endloop
endfacet
facet normal -0.10537591576576233 0.04995684698224068 -0.9931768178939819
 outer loop
  vertex 366500.0 5716500.0 3489.699951171875
  vertex 367500.0 5716500.0 3383.60009765625
  vertex 367500.0 5715500.0 3333.300048828125
 endloop
endfacet
facet normal -0.13157832622528076 0.04979976639151573 -0.9900541305541992
 outer loop
  vertex 367500.0 5716500.0 3383.60009765625
  vertex 368500.0 5715500.0 3200.39990234375
  vertex 367500.0 5715500.0 3333.300048828125
 endloop
endfacet
facet normal -0.22391493618488312 -0.04556163772940636 -0.9735431671142578
 outer loop
  vertex 367500.0 5716500.0 3383.60009765625
  vertex 368500.0 5716500.0 3153.60009765625
  vertex 368500.0 5715500.0 3200.39990234375
 endloop
endfacet
facet normal -0.05376310274004936 -0.04668102413415909 -0.9974619746208191
 outer loop
  vertex 368500.0 5716500.0 3153.60009765625
  vertex 369500.0 5715500.0 3146.5
  vertex 368500.0 5715500.0 3200.39990234375
 endloop
endfacet
facet normal -0.053356070071458817 -0.05026455596089363 -0.997309684753418
 outer loop
  vertex 361500.0 5717500.0 3367.199951171875
  vertex 362500.0 5717500.0 3313.699951171875
  vertex 362500.0 5716500.0 3364.10009765625
 endloop
endfacet
facet normal -0.07994158565998077 -0.05017516016960144 -0.9955359697341919
 outer loop
  vertex 362500.0 5717500.0 3313.699951171875
  vertex 363500.0 5716500.0 3283.800048828125
  vertex 362500.0 5716500.0 3364.10009765625
 endloop
endfacet
facet normal -0.11587139964103699 -0.08628516644239426 -0.9895093441009521
 outer loop
  vertex 362500.0 5717500.0 3313.699951171875
  vertex 363500.0 5717500.0 3196.60009765625
  vertex 363500.0 5716500.0 3283.800048828125
 endloop
endfacet
facet normal 0.036636315286159515 -0.08681198209524155 -0.995550811290741
 outer loop
  vertex 363500.0 5717500.0 3196.60009765625
  vertex 364500.0 5716500.0 3320.60009765625
  vertex 363500.0 5716500.0 3283.800048828125
 endloop
endfacet
facet normal 0.09779630601406097 -0.025568557903170586 -0.9948779344558716
 outer loop
  vertex 363500.0 5717500.0 3196.60009765625
  vertex 364500.0 5717500.0 3294.89990234375
  vertex 364500.0 5716500.0 3320.60009765625
 endloop
endfacet
facet normal 0.18764342367649078 -0.025235354900360107 -0.9819129705429077
 outer loop
  vertex 364500.0 5717500.0 3294.89990234375
  vertex 365500.0 5716500.0 3511.699951171875
  vertex 364500.0 5716500.0 3320.60009765625
 endloop
endfacet
facet normal 0.04886256158351898 -0.1647137552499771 -0.9851303696632385
 outer loop
  vertex 364500.0 5717500.0 3294.89990234375
  vertex 365500.0 5717500.0 3344.5
  vertex 365500.0 5716500.0 3511.699951171875
 endloop
endfacet
facet normal -0.021693680435419083 -0.1648719310760498 -0.9860764145851135
 outer loop
  vertex 365500.0 5717500.0 3344.5
  vertex 366500.0 5716500.0 3489.699951171875
  vertex 365500.0 5716500.0 3511.699951171875
 endloop
endfacet
facet normal -0.05339600518345833 -0.03213736042380333 -0.998056173324585
 outer loop
  vertex 361500.0 5718500.0 3335.0
  vertex 362500.0 5717500.0 3313.699951171875
  vertex 361500.0 5717500.0 3367.199951171875
 endloop
endfacet
facet normal -0.06143387779593468 -0.040191300213336945 -0.9973016381263733
 outer loop
  vertex 361500.0 5718500.0 3335.0
  vertex 362500.0 5718500.0 3273.39990234375
  vertex 362500.0 5717500.0 3313.699951171875
 endloop
endfacet
facet normal -0.11621209979057312 -0.03999452665448189 -0.9924188256263733
 outer loop
  vertex 362500.0 5718500.0 3273.39990234375
  vertex 363500.0 5717500.0 3196.60009765625
  vertex 362500.0 5717500.0 3313.699951171875
 endloop
endfacet
facet normal -0.06764177978038788 0.008979023434221745 -0.9976692795753479
 outer loop
  vertex 362500.0 5718500.0 3273.39990234375
  vertex 363500.0 5718500.0 3205.60009765625
  vertex 363500.0 5717500.0 3196.60009765625
 endloop
endfacet
facet normal 0.09782436490058899 0.008956470526754856 -0.9951633810997009
 outer loop
  vertex 363500.0 5718500.0 3205.60009765625
  vertex 364500.0 5717500.0 3294.89990234375
  vertex 363500.0 5717500.0 3196.60009765625
 endloop
endfacet
facet normal 0.04700595140457153 -0.042115822434425354 -0.9980063438415527
 outer loop
  vertex 363500.0 5718500.0 3205.60009765625
  vertex 364500.0 5718500.0 3252.699951171875
  vertex 364500.0 5717500.0 3294.89990234375
 endloop
endfacet
facet normal 0.04949524998664856 -0.04211075231432915 -0.9978862404823303
 outer loop
  vertex 364500.0 5718500.0 3252.699951171875
  vertex 365500.0 5717500.0 3344.5
  vertex 364500.0 5717500.0 3294.89990234375
 endloop
endfacet
facet normal 0.01924595981836319 -0.07229681313037872 -0.9971974492073059
 outer loop
  vertex 364500.0 5718500.0 3252.699951171875
  vertex 365500.0 5718500.0 3272.0
  vertex 365500.0 5717500.0 3344.5
 endloop
endfacet
facet normal -0.06077532470226288 -0.15134599804878235 -0.9866107702255249
 outer loop
  vertex 361500.0 5719500.0 3181.60009765625
  vertex 362500.0 5718500.0 3273.39990234375
  vertex 361500.0 5718500.0 3335.0
 endloop
endfacet
facet normal 0.06185382232069969 -0.02972954697906971 -0.9976423382759094
 outer loop
  vertex 361500.0 5719500.0 3181.60009765625
  vertex 362500.0 5719500.0 3243.60009765625
  vertex 362500.0 5718500.0 3273.39990234375
 endloop
endfacet
facet normal -0.06761462986469269 -0.029718415811657906 -0.997268795967102
 outer loop
  vertex 362500.0 5719500.0 3243.60009765625
  vertex 363500.0 5718500.0 3205.60009765625
  vertex 362500.0 5718500.0 3273.39990234375
 endloop
endfacet
facet normal -0.048141803592443466 -0.010187838226556778 -0.9987885355949402
 outer loop
  vertex 362500.0 5719500.0 3243.60009765625
  vertex 363500.0 5719500.0 3195.39990234375
  vertex 363500.0 5718500.0 3205.60009765625
 endloop
endfacet
facet normal 0.047045253217220306 -0.010188370943069458 -0.9988408088684082
 outer loop
  vertex 363500.0 5719500.0 3195.39990234375
  vertex 364500.0 5718500.0 3252.699951171875
  vertex 363500.0 5718500.0 3205.60009765625
 endloop
endfacet
facet normal 0.023180486634373665 -0.03407088667154312 -0.9991505146026611
 outer loop
  vertex 363500.0 5719500.0 3195.39990234375
  vertex 364500.0 5719500.0 3218.60009765625
  vertex 364500.0 5718500.0 3252.699951171875
 endloop
endfacet
facet normal 0.019285252317786217 -0.03407370299100876 -0.9992331862449646
 outer loop
  vertex 364500.0 5719500.0 3218.60009765625
  vertex 365500.0 5718500.0 3272.0
  vertex 364500.0 5718500.0 3252.699951171875
 endloop
endfacet
facet normal -0.02379903383553028 -0.1269281804561615 -0.9916263818740845
 outer loop
  vertex 360500.0 5720500.0 3077.60009765625
  vertex 361500.0 5720500.0 3053.60009765625
  vertex 361500.0 5719500.0 3181.60009765625
 endloop
endfacet
facet normal 0.06138228625059128 -0.1267247200012207 -0.9900369048118591
 outer loop
  vertex 361500.0 5720500.0 3053.60009765625
  vertex 362500.0 5719500.0 3243.60009765625
  vertex 361500.0 5719500.0 3181.60009765625
 endloop
endfacet
facet normal 0.029213797301054 -0.15830811858177185 -0.9869574904441833
 outer loop
  vertex 361500.0 5720500.0 3053.60009765625
  vertex 362500.0 5720500.0 3083.199951171875
  vertex 362500.0 5719500.0 3243.60009765625
 endloop
endfacet
facet normal -0.047538045793771744 -0.15819667279720306 -0.9862626791000366
 outer loop
  vertex 362500.0 5720500.0 3083.199951171875
  vertex 363500.0 5719500.0 3195.39990234375
  vertex 362500.0 5719500.0 3243.60009765625
 endloop
endfacet
facet normal 0.10825951397418976 -0.003280392847955227 -0.994117259979248
 outer loop
  vertex 362500.0 5720500.0 3083.199951171875
  vertex 363500.0 5720500.0 3192.10009765625
  vertex 363500.0 5719500.0 3195.39990234375
 endloop
endfacet
facet normal 0.023193828761577606 -0.003298899158835411 -0.9997255802154541
 outer loop
  vertex 363500.0 5720500.0 3192.10009765625
  vertex 364500.0 5719500.0 3218.60009765625
  vertex 363500.0 5719500.0 3195.39990234375
 endloop
endfacet
endsolid
