solid
facet normal 0.07068140804767609 0.0629163607954979 -0.9955127835273743
 outer loop
  vertex 357500.0 5654500.0 3085.89990234375
  vertex 358500.0 5653500.0 3093.699951171875
  vertex 357500.0 5653500.0 3022.699951171875
 endloop
endfacet
facet normal 0.0363612100481987 0.028569504618644714 -0.9989302754402161
 outer loop
  vertex 357500.0 5654500.0 3085.89990234375
  vertex 358500.0 5654500.0 3122.300048828125
  vertex 358500.0 5653500.0 3093.699951171875
 endloop
endfacet
facet normal 0.05111213028430939 0.028551040217280388 -0.9982846975326538
 outer loop
  vertex 358500.0 5654500.0 3122.300048828125
  vertex 359500.0 5653500.0 3144.89990234375
  vertex 358500.0 5653500.0 3093.699951171875
 endloop
endfacet
facet normal -0.015087660402059555 -0.037668902426958084 -0.9991763830184937
 outer loop
  vertex 358500.0 5654500.0 3122.300048828125
  vertex 359500.0 5654500.0 3107.199951171875
  vertex 359500.0 5653500.0 3144.89990234375
 endloop
endfacet
facet normal -0.017085222527384758 -0.037667691707611084 -0.9991442561149597
 outer loop
  vertex 359500.0 5654500.0 3107.199951171875
  vertex 360500.0 5653500.0 3127.800048828125
  vertex 359500.0 5653500.0 3144.89990234375
 endloop
endfacet
facet normal 0.10085033625364304 0.08042233437299728 -0.9916458129882812
 outer loop
  vertex 359500.0 5654500.0 3107.199951171875
  vertex 360500.0 5654500.0 3208.89990234375
  vertex 360500.0 5653500.0 3127.800048828125
 endloop
endfacet
facet normal 0.09367722272872925 0.08047899603843689 -0.9923445582389832
 outer loop
  vertex 360500.0 5654500.0 3208.89990234375
  vertex 361500.0 5653500.0 3222.199951171875
  vertex 360500.0 5653500.0 3127.800048828125
 endloop
endfacet
facet normal 0.053777847439050674 0.040507979691028595 -0.9977309703826904
 outer loop
  vertex 360500.0 5654500.0 3208.89990234375
  vertex 361500.0 5654500.0 3262.800048828125
  vertex 361500.0 5653500.0 3222.199951171875
 endloop
endfacet
facet normal 0.05477261543273926 0.0405057817697525 -0.9976769685745239
 outer loop
  vertex 361500.0 5654500.0 3262.800048828125
  vertex 362500.0 5653500.0 3277.10009765625
  vertex 361500.0 5653500.0 3222.199951171875
 endloop
endfacet
facet normal 0.03855976089835167 0.024274565279483795 -0.9989613890647888
 outer loop
  vertex 361500.0 5654500.0 3262.800048828125
  vertex 362500.0 5654500.0 3301.39990234375
  vertex 362500.0 5653500.0 3277.10009765625
 endloop
endfacet
facet normal 0.18509002029895782 0.023872897028923035 -0.9824315905570984
 outer loop
  vertex 362500.0 5654500.0 3301.39990234375
  vertex 363500.0 5653500.0 3465.5
  vertex 362500.0 5653500.0 3277.10009765625
 endloop
endfacet
facet normal -0.04119740054011345 -0.20177984237670898 -0.9785640835762024
 outer loop
  vertex 362500.0 5654500.0 3301.39990234375
  vertex 363500.0 5654500.0 3259.300048828125
  vertex 363500.0 5653500.0 3465.5
 endloop
endfacet
facet normal 0.0834919810295105 0.05224474519491196 -0.9951379299163818
 outer loop
  vertex 356500.0 5655500.0 3054.5
  vertex 357500.0 5655500.0 3138.39990234375
  vertex 357500.0 5654500.0 3085.89990234375
 endloop
endfacet
facet normal 0.036326099187135696 0.052393198013305664 -0.9979656338691711
 outer loop
  vertex 357500.0 5655500.0 3138.39990234375
  vertex 358500.0 5654500.0 3122.300048828125
  vertex 357500.0 5654500.0 3085.89990234375
 endloop
endfacet
facet normal -0.01369862537831068 0.0023996701929718256 -0.9999032616615295
 outer loop
  vertex 357500.0 5655500.0 3138.39990234375
  vertex 358500.0 5655500.0 3124.699951171875
  vertex 358500.0 5654500.0 3122.300048828125
 endloop
endfacet
facet normal -0.015098333358764648 0.0023996219970285892 -0.9998831152915955
 outer loop
  vertex 358500.0 5655500.0 3124.699951171875
  vertex 359500.0 5654500.0 3107.199951171875
  vertex 358500.0 5654500.0 3122.300048828125
 endloop
endfacet
facet normal -0.0006998522439971566 0.01679767481982708 -0.9998586177825928
 outer loop
  vertex 358500.0 5655500.0 3124.699951171875
  vertex 359500.0 5655500.0 3124.0
  vertex 359500.0 5654500.0 3107.199951171875
 endloop
endfacet
facet normal 0.10116393119096756 0.01671150140464306 -0.9947293400764465
 outer loop
  vertex 359500.0 5655500.0 3124.0
  vertex 360500.0 5654500.0 3208.89990234375
  vertex 359500.0 5654500.0 3107.199951171875
 endloop
endfacet
facet normal 0.04821160063147545 -0.03653283789753914 -0.9981688261032104
 outer loop
  vertex 359500.0 5655500.0 3124.0
  vertex 360500.0 5655500.0 3172.300048828125
  vertex 360500.0 5654500.0 3208.89990234375
 endloop
endfacet
facet normal 0.05378611385822296 -0.03652241826057434 -0.9978843331336975
 outer loop
  vertex 360500.0 5655500.0 3172.300048828125
  vertex 361500.0 5654500.0 3262.800048828125
  vertex 360500.0 5654500.0 3208.89990234375
 endloop
endfacet
facet normal 0.0204456839710474 -0.0698145255446434 -0.9973503947257996
 outer loop
  vertex 360500.0 5655500.0 3172.300048828125
  vertex 361500.0 5655500.0 3192.800048828125
  vertex 361500.0 5654500.0 3262.800048828125
 endloop
endfacet
facet normal 0.03847711533308029 -0.06977742165327072 -0.9968202710151672
 outer loop
  vertex 361500.0 5655500.0 3192.800048828125
  vertex 362500.0 5654500.0 3301.39990234375
  vertex 361500.0 5654500.0 3262.800048828125
 endloop
endfacet
facet normal 0.13490353524684906 0.027337390929460526 -0.9904815554618835
 outer loop
  vertex 361500.0 5655500.0 3192.800048828125
  vertex 362500.0 5655500.0 3329.0
  vertex 362500.0 5654500.0 3301.39990234375
 endloop
endfacet
facet normal -0.04204661399126053 0.02756519243121147 -0.9987353682518005
 outer loop
  vertex 362500.0 5655500.0 3329.0
  vertex 363500.0 5654500.0 3259.300048828125
  vertex 362500.0 5654500.0 3301.39990234375
 endloop
endfacet
facet normal 0.20911240577697754 0.2745303809642792 -0.9385653734207153
 outer loop
  vertex 362500.0 5655500.0 3329.0
  vertex 363500.0 5655500.0 3551.800048828125
  vertex 363500.0 5654500.0 3259.300048828125
 endloop
endfacet
facet normal 0.09127681702375412 0.27956512570381165 -0.955778181552887
 outer loop
  vertex 363500.0 5655500.0 3551.800048828125
  vertex 364500.0 5654500.0 3354.800048828125
  vertex 363500.0 5654500.0 3259.300048828125
 endloop
endfacet
facet normal 0.06502287834882736 0.2550751566886902 -0.9647324681282043
 outer loop
  vertex 363500.0 5655500.0 3551.800048828125
  vertex 364500.0 5655500.0 3619.199951171875
  vertex 364500.0 5654500.0 3354.800048828125
 endloop
endfacet
facet normal 0.45417216420173645 0.22773195803165436 -0.8613163232803345
 outer loop
  vertex 364500.0 5655500.0 3619.199951171875
  vertex 365500.0 5654500.0 3882.10009765625
  vertex 364500.0 5654500.0 3354.800048828125
 endloop
endfacet
facet normal 0.1854163408279419 -0.07222635298967361 -0.9800021052360535
 outer loop
  vertex 364500.0 5655500.0 3619.199951171875
  vertex 365500.0 5655500.0 3808.39990234375
  vertex 365500.0 5654500.0 3882.10009765625
 endloop
endfacet
facet normal 0.2778320610523224 0.3128904104232788 -0.9082450270652771
 outer loop
  vertex 355500.0 5656500.0 3093.10009765625
  vertex 356500.0 5656500.0 3399.0
  vertex 356500.0 5655500.0 3054.5
 endloop
endfacet
facet normal 0.07907631248235703 0.3246939182281494 -0.9425077438354492
 outer loop
  vertex 356500.0 5656500.0 3399.0
  vertex 357500.0 5655500.0 3138.39990234375
  vertex 356500.0 5655500.0 3054.5
 endloop
endfacet
facet normal -0.31984221935272217 -0.07367893308401108 -0.9446017146110535
 outer loop
  vertex 356500.0 5656500.0 3399.0
  vertex 357500.0 5656500.0 3060.39990234375
  vertex 357500.0 5655500.0 3138.39990234375
 endloop
endfacet
facet normal -0.013657193630933762 -0.07775654643774033 -0.9968788623809814
 outer loop
  vertex 357500.0 5656500.0 3060.39990234375
  vertex 358500.0 5655500.0 3124.699951171875
  vertex 357500.0 5655500.0 3138.39990234375
 endloop
endfacet
facet normal 0.05630890652537346 -0.007887118496000767 -0.9983822703361511
 outer loop
  vertex 357500.0 5656500.0 3060.39990234375
  vertex 358500.0 5656500.0 3116.800048828125
  vertex 358500.0 5655500.0 3124.699951171875
 endloop
endfacet
facet normal -0.0006999291945248842 -0.007899654097855091 -0.9999685883522034
 outer loop
  vertex 358500.0 5656500.0 3116.800048828125
  vertex 359500.0 5655500.0 3124.0
  vertex 358500.0 5655500.0 3124.699951171875
 endloop
endfacet
facet normal 0.01949481852352619 0.012296780943870544 -0.9997343420982361
 outer loop
  vertex 358500.0 5656500.0 3116.800048828125
  vertex 359500.0 5656500.0 3136.300048828125
  vertex 359500.0 5655500.0 3124.0
 endloop
endfacet
facet normal 0.048240166157484055 0.012284799478948116 -0.9987602233886719
 outer loop
  vertex 359500.0 5656500.0 3136.300048828125
  vertex 360500.0 5655500.0 3172.300048828125
  vertex 359500.0 5655500.0 3124.0
 endloop
endfacet
facet normal 0.07690607011318207 0.04104311391711235 -0.9961932301521301
 outer loop
  vertex 359500.0 5656500.0 3136.300048828125
  vertex 360500.0 5656500.0 3213.5
  vertex 360500.0 5655500.0 3172.300048828125
 endloop
endfacet
facet normal 0.020478330552577972 0.04115639999508858 -0.9989428520202637
 outer loop
  vertex 360500.0 5656500.0 3213.5
  vertex 361500.0 5655500.0 3192.800048828125
  vertex 360500.0 5655500.0 3172.300048828125
 endloop
endfacet
facet normal 0.058415867388248444 0.07901563495397568 -0.9951603412628174
 outer loop
  vertex 360500.0 5656500.0 3213.5
  vertex 361500.0 5656500.0 3272.199951171875
  vertex 361500.0 5655500.0 3192.800048828125
 endloop
endfacet
facet normal 0.13453824818134308 0.07843118906021118 -0.9877995848655701
 outer loop
  vertex 361500.0 5656500.0 3272.199951171875
  vertex 362500.0 5655500.0 3329.0
  vertex 361500.0 5655500.0 3192.800048828125
 endloop
endfacet
facet normal 0.07586663961410522 0.019240841269493103 -0.996932327747345
 outer loop
  vertex 361500.0 5656500.0 3272.199951171875
  vertex 362500.0 5656500.0 3348.300048828125
  vertex 362500.0 5655500.0 3329.0
 endloop
endfacet
facet normal 0.2174292951822281 0.018834806978702545 -0.9758943319320679
 outer loop
  vertex 362500.0 5656500.0 3348.300048828125
  vertex 363500.0 5655500.0 3551.800048828125
  vertex 362500.0 5655500.0 3329.0
 endloop
endfacet
facet normal 0.24507977068424225 0.048028167337179184 -0.9683125615119934
 outer loop
  vertex 362500.0 5656500.0 3348.300048828125
  vertex 363500.0 5656500.0 3601.39990234375
  vertex 363500.0 5655500.0 3551.800048828125
 endloop
endfacet
facet normal 0.06716512888669968 0.0494270846247673 -0.9965168237686157
 outer loop
  vertex 363500.0 5656500.0 3601.39990234375
  vertex 364500.0 5655500.0 3619.199951171875
  vertex 363500.0 5655500.0 3551.800048828125
 endloop
endfacet
facet normal 0.12726452946662903 0.10971756279468536 -0.9857818484306335
 outer loop
  vertex 363500.0 5656500.0 3601.39990234375
  vertex 364500.0 5656500.0 3730.5
  vertex 364500.0 5655500.0 3619.199951171875
 endloop
endfacet
facet normal 0.18480010330677032 0.10871176421642303 -0.9767450094223022
 outer loop
  vertex 364500.0 5656500.0 3730.5
  vertex 365500.0 5655500.0 3808.39990234375
  vertex 364500.0 5655500.0 3619.199951171875
 endloop
endfacet
facet normal 0.21219518780708313 0.13681906461715698 -0.9676020741462708
 outer loop
  vertex 364500.0 5656500.0 3730.5
  vertex 365500.0 5656500.0 3949.800048828125
  vertex 365500.0 5655500.0 3808.39990234375
 endloop
endfacet
facet normal -0.02159288339316845 -0.014195453375577927 -0.9996660351753235
 outer loop
  vertex 354500.0 5657500.0 3100.5
  vertex 355500.0 5657500.0 3078.89990234375
  vertex 355500.0 5656500.0 3093.10009765625
 endloop
endfacet
facet normal 0.29249274730682373 -0.013577820733189583 -0.9561713933944702
 outer loop
  vertex 355500.0 5657500.0 3078.89990234375
  vertex 356500.0 5656500.0 3399.0
  vertex 355500.0 5656500.0 3093.10009765625
 endloop
endfacet
facet normal 0.02841351553797722 -0.27885469794273376 -0.959912896156311
 outer loop
  vertex 355500.0 5657500.0 3078.89990234375
  vertex 356500.0 5657500.0 3108.5
  vertex 356500.0 5656500.0 3399.0
 endloop
endfacet
facet normal -0.30922186374664307 -0.2652951180934906 -0.9132362008094788
 outer loop
  vertex 356500.0 5657500.0 3108.5
  vertex 357500.0 5656500.0 3060.39990234375
  vertex 356500.0 5656500.0 3399.0
 endloop
endfacet
facet normal -0.017389079555869102 0.030681097880005836 -0.999377965927124
 outer loop
  vertex 356500.0 5657500.0 3108.5
  vertex 357500.0 5657500.0 3091.10009765625
  vertex 357500.0 5656500.0 3060.39990234375
 endloop
endfacet
facet normal 0.05628422275185585 0.030637094751000404 -0.9979445934295654
 outer loop
  vertex 357500.0 5657500.0 3091.10009765625
  vertex 358500.0 5656500.0 3116.800048828125
  vertex 357500.0 5656500.0 3060.39990234375
 endloop
endfacet
facet normal 0.11370330303907394 0.08827099204063416 -0.9895856380462646
 outer loop
  vertex 357500.0 5657500.0 3091.10009765625
  vertex 358500.0 5657500.0 3206.0
  vertex 358500.0 5656500.0 3116.800048828125
 endloop
endfacet
facet normal 0.019419219344854355 0.08883043378591537 -0.9958574175834656
 outer loop
  vertex 358500.0 5657500.0 3206.0
  vertex 359500.0 5656500.0 3136.300048828125
  vertex 358500.0 5656500.0 3116.800048828125
 endloop
endfacet
facet normal 0.04751833900809288 0.11666307598352432 -0.9920341372489929
 outer loop
  vertex 358500.0 5657500.0 3206.0
  vertex 359500.0 5657500.0 3253.89990234375
  vertex 359500.0 5656500.0 3136.300048828125
 endloop
endfacet
facet normal 0.07644722610712051 0.11645321547985077 -0.9902496933937073
 outer loop
  vertex 359500.0 5657500.0 3253.89990234375
  vertex 360500.0 5656500.0 3213.5
  vertex 359500.0 5656500.0 3136.300048828125
 endloop
endfacet
facet normal -0.006496130954474211 0.03387972339987755 -0.999404788017273
 outer loop
  vertex 359500.0 5657500.0 3253.89990234375
  vertex 360500.0 5657500.0 3247.39990234375
  vertex 360500.0 5656500.0 3213.5
 endloop
endfacet
facet normal 0.05856555700302124 0.03382228687405586 -0.9977104663848877
 outer loop
  vertex 360500.0 5657500.0 3247.39990234375
  vertex 361500.0 5656500.0 3272.199951171875
  vertex 360500.0 5656500.0 3213.5
 endloop
endfacet
facet normal 0.059657011181116104 0.034916285425424576 -0.9976081252098083
 outer loop
  vertex 360500.0 5657500.0 3247.39990234375
  vertex 361500.0 5657500.0 3307.199951171875
  vertex 361500.0 5656500.0 3272.199951171875
 endloop
endfacet
facet normal 0.07583452016115189 0.03487785905599594 -0.9965102076530457
 outer loop
  vertex 361500.0 5657500.0 3307.199951171875
  vertex 362500.0 5656500.0 3348.300048828125
  vertex 361500.0 5656500.0 3272.199951171875
 endloop
endfacet
facet normal 0.167560413479805 0.12738104164600372 -0.9775978326797485
 outer loop
  vertex 361500.0 5657500.0 3307.199951171875
  vertex 362500.0 5657500.0 3478.60009765625
  vertex 362500.0 5656500.0 3348.300048828125
 endloop
endfacet
facet normal 0.2434285283088684 0.12532109022140503 -0.961788535118103
 outer loop
  vertex 362500.0 5657500.0 3478.60009765625
  vertex 363500.0 5656500.0 3601.39990234375
  vertex 362500.0 5656500.0 3348.300048828125
 endloop
endfacet
facet normal 0.20210908353328705 0.08226855844259262 -0.9759016036987305
 outer loop
  vertex 362500.0 5657500.0 3478.60009765625
  vertex 363500.0 5657500.0 3685.699951171875
  vertex 363500.0 5656500.0 3601.39990234375
 endloop
endfacet
facet normal 0.12759235501289368 0.08331552147865295 -0.9883211851119995
 outer loop
  vertex 363500.0 5657500.0 3685.699951171875
  vertex 364500.0 5656500.0 3730.5
  vertex 363500.0 5656500.0 3601.39990234375
 endloop
endfacet
facet normal 0.15019339323043823 0.10615760087966919 -0.9829407334327698
 outer loop
  vertex 363500.0 5657500.0 3685.699951171875
  vertex 364500.0 5657500.0 3838.5
  vertex 364500.0 5656500.0 3730.5
 endloop
endfacet
facet normal 0.21302750706672668 0.10491092503070831 -0.9713974595069885
 outer loop
  vertex 364500.0 5657500.0 3838.5
  vertex 365500.0 5656500.0 3949.800048828125
  vertex 364500.0 5656500.0 3730.5
 endloop
endfacet
facet normal 0.16788381338119507 0.05835587531328201 -0.984078049659729
 outer loop
  vertex 364500.0 5657500.0 3838.5
  vertex 365500.0 5657500.0 4009.10009765625
  vertex 365500.0 5656500.0 3949.800048828125
 endloop
endfacet
facet normal 0.013198450207710266 -0.007299218326807022 -0.9998862743377686
 outer loop
  vertex 353500.0 5658500.0 3080.0
  vertex 354500.0 5658500.0 3093.199951171875
  vertex 354500.0 5657500.0 3100.5
 endloop
endfacet
facet normal -0.021594485267996788 -0.007298152428120375 -0.9997401833534241
 outer loop
  vertex 354500.0 5658500.0 3093.199951171875
  vertex 355500.0 5657500.0 3078.89990234375
  vertex 354500.0 5657500.0 3100.5
 endloop
endfacet
facet normal -0.027986405417323112 -0.013693300075829029 -0.9995144605636597
 outer loop
  vertex 354500.0 5658500.0 3093.199951171875
  vertex 355500.0 5658500.0 3065.199951171875
  vertex 355500.0 5657500.0 3078.89990234375
 endloop
endfacet
facet normal 0.029584364965558052 -0.013692670501768589 -0.9994685053825378
 outer loop
  vertex 355500.0 5658500.0 3065.199951171875
  vertex 356500.0 5657500.0 3108.5
  vertex 355500.0 5657500.0 3078.89990234375
 endloop
endfacet
facet normal 0.04963767156004906 0.006391886621713638 -0.9987468719482422
 outer loop
  vertex 355500.0 5658500.0 3065.199951171875
  vertex 356500.0 5658500.0 3114.89990234375
  vertex 356500.0 5657500.0 3108.5
 endloop
endfacet
facet normal -0.01739691197872162 0.006398802623152733 -0.9998281598091125
 outer loop
  vertex 356500.0 5658500.0 3114.89990234375
  vertex 357500.0 5657500.0 3091.10009765625
  vertex 356500.0 5657500.0 3108.5
 endloop
endfacet
facet normal 0.07423368841409683 0.09785329550504684 -0.9924283623695374
 outer loop
  vertex 356500.0 5658500.0 3114.89990234375
  vertex 357500.0 5658500.0 3189.699951171875
  vertex 357500.0 5657500.0 3091.10009765625
 endloop
endfacet
facet normal 0.11360514163970947 0.09748876839876175 -0.9887314438819885
 outer loop
  vertex 357500.0 5658500.0 3189.699951171875
  vertex 358500.0 5657500.0 3206.0
  vertex 357500.0 5657500.0 3091.10009765625
 endloop
endfacet
facet normal 0.0062996088527143 -0.00999930128455162 -0.9999301433563232
 outer loop
  vertex 357500.0 5658500.0 3189.699951171875
  vertex 358500.0 5658500.0 3196.0
  vertex 358500.0 5657500.0 3206.0
 endloop
endfacet
facet normal 0.047842659056186676 -0.009988049045205116 -0.9988049268722534
 outer loop
  vertex 358500.0 5658500.0 3196.0
  vertex 359500.0 5657500.0 3253.89990234375
  vertex 358500.0 5657500.0 3206.0
 endloop
endfacet
facet normal -0.028680607676506042 -0.08634039014577866 -0.9958527684211731
 outer loop
  vertex 358500.0 5658500.0 3196.0
  vertex 359500.0 5658500.0 3167.199951171875
  vertex 359500.0 5657500.0 3253.89990234375
 endloop
endfacet
facet normal -0.006475571542978287 -0.08637411147356033 -0.9962417483329773
 outer loop
  vertex 359500.0 5658500.0 3167.199951171875
  vertex 360500.0 5657500.0 3247.39990234375
  vertex 359500.0 5657500.0 3253.89990234375
 endloop
endfacet
facet normal 0.15826033055782318 0.0793270692229271 -0.9842057228088379
 outer loop
  vertex 359500.0 5658500.0 3167.199951171875
  vertex 360500.0 5658500.0 3328.0
  vertex 360500.0 5657500.0 3247.39990234375
 endloop
endfacet
facet normal 0.05950113758444786 0.08019721508026123 -0.9950015544891357
 outer loop
  vertex 360500.0 5658500.0 3328.0
  vertex 361500.0 5657500.0 3307.199951171875
  vertex 360500.0 5657500.0 3247.39990234375
 endloop
endfacet
facet normal 0.17874838411808014 0.19879136979579926 -0.963603138923645
 outer loop
  vertex 360500.0 5658500.0 3328.0
  vertex 361500.0 5658500.0 3513.5
  vertex 361500.0 5657500.0 3307.199951171875
 endloop
endfacet
facet normal 0.16554893553256989 0.19925744831562042 -0.9658623337745667
 outer loop
  vertex 361500.0 5658500.0 3513.5
  vertex 362500.0 5657500.0 3478.60009765625
  vertex 361500.0 5657500.0 3307.199951171875
 endloop
endfacet
facet normal 0.0962081328034401 0.13064561784267426 -0.9867501258850098
 outer loop
  vertex 361500.0 5658500.0 3513.5
  vertex 362500.0 5658500.0 3611.0
  vertex 362500.0 5657500.0 3478.60009765625
 endloop
endfacet
facet normal 0.20111331343650818 0.12857268750667572 -0.971093475818634
 outer loop
  vertex 362500.0 5658500.0 3611.0
  vertex 363500.0 5657500.0 3685.699951171875
  vertex 362500.0 5657500.0 3478.60009765625
 endloop
endfacet
facet normal -0.11377967894077301 -0.18667273223400116 -0.975811243057251
 outer loop
  vertex 362500.0 5658500.0 3611.0
  vertex 363500.0 5658500.0 3494.39990234375
  vertex 363500.0 5657500.0 3685.699951171875
 endloop
endfacet
facet normal 0.14841647446155548 -0.18581196665763855 -0.9713116884231567
 outer loop
  vertex 363500.0 5658500.0 3494.39990234375
  vertex 364500.0 5657500.0 3838.5
  vertex 363500.0 5657500.0 3685.699951171875
 endloop
endfacet
facet normal 0.2566077411174774 -0.07496840506792068 -0.9636037945747375
 outer loop
  vertex 363500.0 5658500.0 3494.39990234375
  vertex 364500.0 5658500.0 3760.699951171875
  vertex 364500.0 5657500.0 3838.5
 endloop
endfacet
facet normal 0.16767801344394684 -0.07646746933460236 -0.9828717112541199
 outer loop
  vertex 364500.0 5658500.0 3760.699951171875
  vertex 365500.0 5657500.0 4009.10009765625
  vertex 364500.0 5657500.0 3838.5
 endloop
endfacet
facet normal 0.013159653171896935 -0.07696425914764404 -0.9969469904899597
 outer loop
  vertex 353500.0 5659500.0 3002.800048828125
  vertex 354500.0 5658500.0 3093.199951171875
  vertex 353500.0 5658500.0 3080.0
 endloop
endfacet
facet normal 0.0010954935569316149 -0.08894605189561844 -0.9960358142852783
 outer loop
  vertex 353500.0 5659500.0 3002.800048828125
  vertex 354500.0 5659500.0 3003.89990234375
  vertex 354500.0 5658500.0 3093.199951171875
 endloop
endfacet
facet normal -0.027878180146217346 -0.08891153335571289 -0.9956493377685547
 outer loop
  vertex 354500.0 5659500.0 3003.89990234375
  vertex 355500.0 5658500.0 3065.199951171875
  vertex 354500.0 5658500.0 3093.199951171875
 endloop
endfacet
facet normal -0.028735265135765076 0.06056341528892517 -0.9977506399154663
 outer loop
  vertex 358500.0 5659500.0 3256.699951171875
  vertex 359500.0 5658500.0 3167.199951171875
  vertex 358500.0 5658500.0 3196.0
 endloop
endfacet
facet normal -0.11362382024526596 -0.0247309859842062 -0.9932160377502441
 outer loop
  vertex 358500.0 5659500.0 3256.699951171875
  vertex 359500.0 5659500.0 3142.300048828125
  vertex 359500.0 5658500.0 3167.199951171875
 endloop
endfacet
facet normal 0.15871267020702362 -0.024576673284173012 -0.9870188236236572
 outer loop
  vertex 359500.0 5659500.0 3142.300048828125
  vertex 360500.0 5658500.0 3328.0
  vertex 359500.0 5658500.0 3167.199951171875
 endloop
endfacet
facet normal 0.21057453751564026 0.029118938371539116 -0.9771440625190735
 outer loop
  vertex 359500.0 5659500.0 3142.300048828125
  vertex 360500.0 5659500.0 3357.800048828125
  vertex 360500.0 5658500.0 3328.0
 endloop
endfacet
facet normal 0.1823102831840515 0.029287630692124367 -0.9828047752380371
 outer loop
  vertex 360500.0 5659500.0 3357.800048828125
  vertex 361500.0 5658500.0 3513.5
  vertex 360500.0 5658500.0 3328.0
 endloop
endfacet
facet normal 0.29826268553733826 0.15153445303440094 -0.9423781633377075
 outer loop
  vertex 360500.0 5659500.0 3357.800048828125
  vertex 361500.0 5659500.0 3674.300048828125
  vertex 361500.0 5658500.0 3513.5
 endloop
endfacet
facet normal 0.09582047909498215 0.15803012251853943 -0.9827741384506226
 outer loop
  vertex 361500.0 5659500.0 3674.300048828125
  vertex 362500.0 5658500.0 3611.0
  vertex 361500.0 5658500.0 3513.5
 endloop
endfacet
facet normal 0.0033923450391739607 0.06655169278383255 -0.9977772235870361
 outer loop
  vertex 361500.0 5659500.0 3674.300048828125
  vertex 362500.0 5659500.0 3677.699951171875
  vertex 362500.0 5658500.0 3611.0
 endloop
endfacet
facet normal -0.11556212604045868 0.06610619276762009 -0.9910981059074402
 outer loop
  vertex 362500.0 5659500.0 3677.699951171875
  vertex 363500.0 5658500.0 3494.39990234375
  vertex 362500.0 5658500.0 3611.0
 endloop
endfacet
facet normal 0.18481779098510742 0.35294240713119507 -0.9172098636627197
 outer loop
  vertex 362500.0 5659500.0 3677.699951171875
  vertex 363500.0 5659500.0 3879.199951171875
  vertex 363500.0 5658500.0 3494.39990234375
 endloop
endfacet
facet normal 0.2411969155073166 0.34852635860443115 -0.9057336449623108
 outer loop
  vertex 363500.0 5659500.0 3879.199951171875
  vertex 364500.0 5658500.0 3760.699951171875
  vertex 363500.0 5658500.0 3494.39990234375
 endloop
endfacet
facet normal 0.2104848474264145 0.0412178672850132 -0.9767277836799622
 outer loop
  vertex 359500.0 5660500.0 3184.5
  vertex 360500.0 5659500.0 3357.800048828125
  vertex 359500.0 5659500.0 3142.300048828125
 endloop
endfacet
facet normal 0.0033939166460186243 0.05919571593403816 -0.99824059009552
 outer loop
  vertex 361500.0 5660500.0 3733.60009765625
  vertex 362500.0 5659500.0 3677.699951171875
  vertex 361500.0 5659500.0 3674.300048828125
 endloop
endfacet
facet normal 0.0837751254439354 0.13893470168113708 -0.9867516756057739
 outer loop
  vertex 361500.0 5660500.0 3733.60009765625
  vertex 362500.0 5660500.0 3818.5
  vertex 362500.0 5659500.0 3677.699951171875
 endloop
endfacet
facet normal 0.19567470252513885 0.13672956824302673 -0.9710903167724609
 outer loop
  vertex 362500.0 5660500.0 3818.5
  vertex 363500.0 5659500.0 3879.199951171875
  vertex 362500.0 5659500.0 3677.699951171875
 endloop
endfacet
facet normal 0.13428977131843567 0.07430899143218994 -0.988152027130127
 outer loop
  vertex 362500.0 5660500.0 3818.5
  vertex 363500.0 5660500.0 3954.39990234375
  vertex 363500.0 5659500.0 3879.199951171875
 endloop
endfacet
facet normal 0.13252884149551392 0.1772903949022293 -0.9751944541931152
 outer loop
  vertex 362500.0 5661500.0 4000.300048828125
  vertex 363500.0 5660500.0 3954.39990234375
  vertex 362500.0 5660500.0 3818.5
 endloop
endfacet
facet normal 0.023437170311808586 0.0692146047949791 -0.9973264336585999
 outer loop
  vertex 362500.0 5661500.0 4000.300048828125
  vertex 363500.0 5661500.0 4023.800048828125
  vertex 363500.0 5660500.0 3954.39990234375
 endloop
endfacet
endsolid
