solid
facet normal -0.0025941599160432816 -0.06466396898031235 -0.9979037046432495
 outer loop
  vertex 583500.0 5309500.0 9039.0
  vertex 584500.0 5309500.0 9036.400390625
  vertex 584500.0 5308500.0 9101.2001953125
 endloop
endfacet
facet normal -0.02942551113665104 -0.06463618576526642 -0.9974749684333801
 outer loop
  vertex 584500.0 5309500.0 9036.400390625
  vertex 585500.0 5308500.0 9071.7001953125
  vertex 584500.0 5308500.0 9101.2001953125
 endloop
endfacet
facet normal -0.0046963877975940704 -0.039967600256204605 -0.9991899728775024
 outer loop
  vertex 584500.0 5309500.0 9036.400390625
  vertex 585500.0 5309500.0 9031.7001953125
  vertex 585500.0 5308500.0 9071.7001953125
 endloop
endfacet
facet normal 0.0014987997710704803 -0.039967991411685944 -0.9991998076438904
 outer loop
  vertex 585500.0 5309500.0 9031.7001953125
  vertex 586500.0 5308500.0 9073.2001953125
  vertex 585500.0 5308500.0 9071.7001953125
 endloop
endfacet
facet normal -0.07624243944883347 -0.11733414232730865 -0.9901614785194397
 outer loop
  vertex 585500.0 5309500.0 9031.7001953125
  vertex 586500.0 5309500.0 8954.7001953125
  vertex 586500.0 5308500.0 9073.2001953125
 endloop
endfacet
facet normal 0.24386045336723328 -0.05779498443007469 -0.9680866599082947
 outer loop
  vertex 582500.0 5310500.0 8727.400390625
  vertex 583500.0 5310500.0 8979.2998046875
  vertex 583500.0 5309500.0 9039.0
 endloop
endfacet
facet normal -0.002594980411231518 -0.059593889862298965 -0.99821937084198
 outer loop
  vertex 583500.0 5310500.0 8979.2998046875
  vertex 584500.0 5309500.0 9036.400390625
  vertex 583500.0 5309500.0 9039.0
 endloop
endfacet
facet normal 0.017384067177772522 -0.03966295346617699 -0.9990618824958801
 outer loop
  vertex 583500.0 5310500.0 8979.2998046875
  vertex 584500.0 5310500.0 8996.7001953125
  vertex 584500.0 5309500.0 9036.400390625
 endloop
endfacet
facet normal -0.004696443676948547 -0.03966850787401199 -0.9992018342018127
 outer loop
  vertex 584500.0 5310500.0 8996.7001953125
  vertex 585500.0 5309500.0 9031.7001953125
  vertex 584500.0 5309500.0 9036.400390625
 endloop
endfacet
facet normal -0.023254018276929855 -0.05818524211645126 -0.9980349540710449
 outer loop
  vertex 584500.0 5310500.0 8996.7001953125
  vertex 585500.0 5310500.0 8973.400390625
  vertex 585500.0 5309500.0 9031.7001953125
 endloop
endfacet
facet normal -0.07664337009191513 -0.05802978575229645 -0.9953684210777283
 outer loop
  vertex 585500.0 5310500.0 8973.400390625
  vertex 586500.0 5309500.0 8954.7001953125
  vertex 585500.0 5309500.0 9031.7001953125
 endloop
endfacet
facet normal -0.018197178840637207 0.0004999171360395849 -0.9998342990875244
 outer loop
  vertex 585500.0 5310500.0 8973.400390625
  vertex 586500.0 5310500.0 8955.2001953125
  vertex 586500.0 5309500.0 8954.7001953125
 endloop
endfacet
facet normal -0.0009003901504911482 0.0004999997327104211 -0.9999995231628418
 outer loop
  vertex 586500.0 5310500.0 8955.2001953125
  vertex 587500.0 5309500.0 8953.7998046875
  vertex 586500.0 5309500.0 8954.7001953125
 endloop
endfacet
facet normal -0.003100566565990448 -0.0017001846572384238 -0.9999937415122986
 outer loop
  vertex 586500.0 5310500.0 8955.2001953125
  vertex 587500.0 5310500.0 8952.099609375
  vertex 587500.0 5309500.0 8953.7998046875
 endloop
endfacet
facet normal 0.15673601627349854 0.0058263991959393024 -0.9876233339309692
 outer loop
  vertex 581500.0 5311500.0 8574.599609375
  vertex 582500.0 5310500.0 8727.400390625
  vertex 581500.0 5310500.0 8568.7001953125
 endloop
endfacet
facet normal 0.10084990411996841 -0.05097220465540886 -0.9935951232910156
 outer loop
  vertex 581500.0 5311500.0 8574.599609375
  vertex 582500.0 5311500.0 8676.099609375
  vertex 582500.0 5310500.0 8727.400390625
 endloop
endfacet
facet normal 0.24396707117557526 -0.049685314297676086 -0.9685099124908447
 outer loop
  vertex 582500.0 5311500.0 8676.099609375
  vertex 583500.0 5310500.0 8979.2998046875
  vertex 582500.0 5310500.0 8727.400390625
 endloop
endfacet
facet normal 0.2416590005159378 -0.052129849791526794 -0.9689599871635437
 outer loop
  vertex 582500.0 5311500.0 8676.099609375
  vertex 583500.0 5311500.0 8925.5
  vertex 583500.0 5310500.0 8979.2998046875
 endloop
endfacet
facet normal 0.01737264171242714 -0.05371400713920593 -0.9984052181243896
 outer loop
  vertex 583500.0 5311500.0 8925.5
  vertex 584500.0 5310500.0 8996.7001953125
  vertex 583500.0 5310500.0 8979.2998046875
 endloop
endfacet
facet normal 0.013575853779911995 -0.0574999675154686 -0.9982531666755676
 outer loop
  vertex 583500.0 5311500.0 8925.5
  vertex 584500.0 5311500.0 8939.099609375
  vertex 584500.0 5310500.0 8996.7001953125
 endloop
endfacet
facet normal -0.023254957050085068 -0.05748971551656723 -0.9980751872062683
 outer loop
  vertex 584500.0 5311500.0 8939.099609375
  vertex 585500.0 5310500.0 8973.400390625
  vertex 584500.0 5310500.0 8996.7001953125
 endloop
endfacet
facet normal -0.012185146100819111 -0.046446360647678375 -0.9988464713096619
 outer loop
  vertex 584500.0 5311500.0 8939.099609375
  vertex 585500.0 5311500.0 8926.900390625
  vertex 585500.0 5310500.0 8973.400390625
 endloop
endfacet
facet normal -0.018177546560764313 -0.04644213244318962 -0.9987555742263794
 outer loop
  vertex 585500.0 5311500.0 8926.900390625
  vertex 586500.0 5310500.0 8955.2001953125
  vertex 585500.0 5310500.0 8973.400390625
 endloop
endfacet
facet normal -0.00040022580651566386 -0.028688380494713783 -0.9995883703231812
 outer loop
  vertex 585500.0 5311500.0 8926.900390625
  vertex 586500.0 5311500.0 8926.5
  vertex 586500.0 5310500.0 8955.2001953125
 endloop
endfacet
facet normal -0.0030992948450148106 -0.02868824452161789 -0.9995836019515991
 outer loop
  vertex 586500.0 5311500.0 8926.5
  vertex 587500.0 5310500.0 8952.099609375
  vertex 586500.0 5310500.0 8955.2001953125
 endloop
endfacet
facet normal 0.011097759939730167 -0.014497583732008934 -0.999833345413208
 outer loop
  vertex 586500.0 5311500.0 8926.5
  vertex 587500.0 5311500.0 8937.599609375
  vertex 587500.0 5310500.0 8952.099609375
 endloop
endfacet
facet normal 0.10078214108943939 0.06275321543216705 -0.9929274916648865
 outer loop
  vertex 581500.0 5312500.0 8637.7998046875
  vertex 582500.0 5311500.0 8676.099609375
  vertex 581500.0 5311500.0 8574.599609375
 endloop
endfacet
facet normal -0.0050947475247085094 -0.04335803538560867 -0.9990466237068176
 outer loop
  vertex 581500.0 5312500.0 8637.7998046875
  vertex 582500.0 5312500.0 8632.7001953125
  vertex 582500.0 5311500.0 8676.099609375
 endloop
endfacet
facet normal 0.24177376925945282 -0.04207226634025574 -0.9694201350212097
 outer loop
  vertex 582500.0 5312500.0 8632.7001953125
  vertex 583500.0 5311500.0 8925.5
  vertex 582500.0 5311500.0 8676.099609375
 endloop
endfacet
facet normal -0.00040016876300796866 -0.0332823283970356 -0.9994458556175232
 outer loop
  vertex 585500.0 5312500.0 8893.599609375
  vertex 586500.0 5311500.0 8926.5
  vertex 585500.0 5311500.0 8926.900390625
 endloop
endfacet
facet normal -0.12253973633050919 -0.15479257702827454 -0.9803178906440735
 outer loop
  vertex 585500.0 5312500.0 8893.599609375
  vertex 586500.0 5312500.0 8768.599609375
  vertex 586500.0 5311500.0 8926.5
 endloop
endfacet
facet normal 0.01096311490982771 -0.1559586524963379 -0.9877027273178101
 outer loop
  vertex 586500.0 5312500.0 8768.599609375
  vertex 587500.0 5311500.0 8937.599609375
  vertex 586500.0 5311500.0 8926.5
 endloop
endfacet
facet normal 0.1329287737607956 -0.03447011858224869 -0.9905259609222412
 outer loop
  vertex 586500.0 5312500.0 8768.599609375
  vertex 587500.0 5312500.0 8902.7998046875
  vertex 587500.0 5311500.0 8937.599609375
 endloop
endfacet
facet normal -0.1771441102027893 -0.034228723496198654 -0.9835895299911499
 outer loop
  vertex 587500.0 5312500.0 8902.7998046875
  vertex 588500.0 5311500.0 8757.5
  vertex 587500.0 5311500.0 8937.599609375
 endloop
endfacet
facet normal -0.18807680904865265 -0.045523349195718765 -0.9810987114906311
 outer loop
  vertex 587500.0 5312500.0 8902.7998046875
  vertex 588500.0 5312500.0 8711.099609375
  vertex 588500.0 5311500.0 8757.5
 endloop
endfacet
facet normal -0.1758590042591095 -0.20875953137874603 -0.9620254635810852
 outer loop
  vertex 584500.0 5313500.0 8859.400390625
  vertex 585500.0 5313500.0 8676.599609375
  vertex 585500.0 5312500.0 8893.599609375
 endloop
endfacet
facet normal -0.12125560641288757 -0.21049973368644714 -0.9700448513031006
 outer loop
  vertex 585500.0 5313500.0 8676.599609375
  vertex 586500.0 5312500.0 8768.599609375
  vertex 585500.0 5312500.0 8893.599609375
 endloop
endfacet
facet normal 0.16209428012371063 0.0715499147772789 -0.9841778874397278
 outer loop
  vertex 585500.0 5313500.0 8676.599609375
  vertex 586500.0 5313500.0 8841.2998046875
  vertex 586500.0 5312500.0 8768.599609375
 endloop
endfacet
facet normal 0.13266387581825256 0.071867935359478 -0.9885521531105042
 outer loop
  vertex 586500.0 5313500.0 8841.2998046875
  vertex 587500.0 5312500.0 8902.7998046875
  vertex 586500.0 5312500.0 8768.599609375
 endloop
endfacet
facet normal -0.13010811805725098 -0.18995583057403564 -0.9731334447860718
 outer loop
  vertex 586500.0 5313500.0 8841.2998046875
  vertex 587500.0 5313500.0 8707.599609375
  vertex 587500.0 5312500.0 8902.7998046875
 endloop
endfacet
facet normal -0.1849047988653183 -0.18828073143959045 -0.9645519852638245
 outer loop
  vertex 587500.0 5313500.0 8707.599609375
  vertex 588500.0 5312500.0 8711.099609375
  vertex 587500.0 5312500.0 8902.7998046875
 endloop
endfacet
facet normal -0.038736045360565186 -0.04223029315471649 -0.9983566999435425
 outer loop
  vertex 587500.0 5313500.0 8707.599609375
  vertex 588500.0 5313500.0 8668.7998046875
  vertex 588500.0 5312500.0 8711.099609375
 endloop
endfacet
facet normal -0.17904579639434814 -0.09275492280721664 -0.9794586300849915
 outer loop
  vertex 584500.0 5314500.0 8764.7001953125
  vertex 585500.0 5313500.0 8676.599609375
  vertex 584500.0 5313500.0 8859.400390625
 endloop
endfacet
facet normal -0.025941276922822 0.06196032837033272 -0.9977414011955261
 outer loop
  vertex 584500.0 5314500.0 8764.7001953125
  vertex 585500.0 5314500.0 8738.7001953125
  vertex 585500.0 5313500.0 8676.599609375
 endloop
endfacet
facet normal 0.16220656037330627 0.061160359531641006 -0.9848596453666687
 outer loop
  vertex 585500.0 5314500.0 8738.7001953125
  vertex 586500.0 5313500.0 8841.2998046875
  vertex 585500.0 5313500.0 8676.599609375
 endloop
endfacet
facet normal -0.07739917933940887 -0.17804665863513947 -0.9809733629226685
 outer loop
  vertex 585500.0 5314500.0 8738.7001953125
  vertex 586500.0 5314500.0 8659.7998046875
  vertex 586500.0 5313500.0 8841.2998046875
 endloop
endfacet
facet normal -0.13042722642421722 -0.1770569086074829 -0.9755201935768127
 outer loop
  vertex 586500.0 5314500.0 8659.7998046875
  vertex 587500.0 5313500.0 8707.599609375
  vertex 586500.0 5313500.0 8841.2998046875
 endloop
endfacet
facet normal 0.029482239857316017 -0.018288787454366684 -0.9993979930877686
 outer loop
  vertex 586500.0 5314500.0 8659.7998046875
  vertex 587500.0 5314500.0 8689.2998046875
  vertex 587500.0 5313500.0 8707.599609375
 endloop
endfacet
facet normal -0.03876415267586708 -0.018282989040017128 -0.9990810751914978
 outer loop
  vertex 587500.0 5314500.0 8689.2998046875
  vertex 588500.0 5313500.0 8668.7998046875
  vertex 587500.0 5313500.0 8707.599609375
 endloop
endfacet
facet normal -0.06460109353065491 -0.04416395723819733 -0.9969334602355957
 outer loop
  vertex 587500.0 5314500.0 8689.2998046875
  vertex 588500.0 5314500.0 8624.5
  vertex 588500.0 5313500.0 8668.7998046875
 endloop
endfacet
facet normal 0.029470156878232956 -0.03396560624241829 -0.9989883899688721
 outer loop
  vertex 586500.0 5315500.0 8625.7998046875
  vertex 587500.0 5314500.0 8689.2998046875
  vertex 586500.0 5314500.0 8659.7998046875
 endloop
endfacet
facet normal 0.006889200769364834 -0.05650782585144043 -0.9983783960342407
 outer loop
  vertex 586500.0 5315500.0 8625.7998046875
  vertex 587500.0 5315500.0 8632.7001953125
  vertex 587500.0 5314500.0 8689.2998046875
 endloop
endfacet
facet normal -0.06456128507852554 -0.05639127641916275 -0.9963191747665405
 outer loop
  vertex 587500.0 5315500.0 8632.7001953125
  vertex 588500.0 5314500.0 8624.5
  vertex 587500.0 5314500.0 8689.2998046875
 endloop
endfacet
facet normal -0.021693112328648567 -0.013495593331754208 -0.99967360496521
 outer loop
  vertex 587500.0 5315500.0 8632.7001953125
  vertex 588500.0 5315500.0 8611.0
  vertex 588500.0 5314500.0 8624.5
 endloop
endfacet
facet normal 0.006894462741911411 -0.04086427763104439 -0.9991409182548523
 outer loop
  vertex 586500.0 5316500.0 8584.900390625
  vertex 587500.0 5315500.0 8632.7001953125
  vertex 586500.0 5315500.0 8625.7998046875
 endloop
endfacet
facet normal 0.008392606861889362 -0.03936845809221268 -0.999189555644989
 outer loop
  vertex 586500.0 5316500.0 8584.900390625
  vertex 587500.0 5316500.0 8593.2998046875
  vertex 587500.0 5315500.0 8632.7001953125
 endloop
endfacet
facet normal -0.021678276360034943 -0.039360594004392624 -0.9989898800849915
 outer loop
  vertex 587500.0 5316500.0 8593.2998046875
  vertex 588500.0 5315500.0 8611.0
  vertex 587500.0 5315500.0 8632.7001953125
 endloop
endfacet
facet normal -0.03453177958726883 -0.052197277545928955 -0.9980396032333374
 outer loop
  vertex 587500.0 5316500.0 8593.2998046875
  vertex 588500.0 5316500.0 8558.7001953125
  vertex 588500.0 5315500.0 8611.0
 endloop
endfacet
facet normal 0.002297305501997471 -0.04654994606971741 -0.9989132881164551
 outer loop
  vertex 585500.0 5317500.0 8536.0
  vertex 586500.0 5317500.0 8538.2998046875
  vertex 586500.0 5316500.0 8584.900390625
 endloop
endfacet
facet normal 0.008390013128519058 -0.04654842987656593 -0.9988808035850525
 outer loop
  vertex 586500.0 5317500.0 8538.2998046875
  vertex 587500.0 5316500.0 8593.2998046875
  vertex 586500.0 5316500.0 8584.900390625
 endloop
endfacet
facet normal -0.03216077387332916 -0.08692403882741928 -0.9956956505775452
 outer loop
  vertex 586500.0 5317500.0 8538.2998046875
  vertex 587500.0 5317500.0 8506.0
  vertex 587500.0 5316500.0 8593.2998046875
 endloop
endfacet
facet normal -0.0344480536878109 -0.08691740781068802 -0.9956197738647461
 outer loop
  vertex 587500.0 5317500.0 8506.0
  vertex 588500.0 5316500.0 8558.7001953125
  vertex 587500.0 5316500.0 8593.2998046875
 endloop
endfacet
facet normal 0.030977830290794373 -0.0216846764087677 -0.9992848038673401
 outer loop
  vertex 587500.0 5317500.0 8506.0
  vertex 588500.0 5317500.0 8537.0
  vertex 588500.0 5316500.0 8558.7001953125
 endloop
endfacet
facet normal 0.007694616913795471 -0.03727278113365173 -0.9992755055427551
 outer loop
  vertex 584500.0 5318500.0 8491.0
  vertex 585500.0 5318500.0 8498.7001953125
  vertex 585500.0 5317500.0 8536.0
 endloop
endfacet
facet normal 0.0022982005029916763 -0.03727378696203232 -0.9993024468421936
 outer loop
  vertex 585500.0 5318500.0 8498.7001953125
  vertex 586500.0 5317500.0 8538.2998046875
  vertex 585500.0 5317500.0 8536.0
 endloop
endfacet
facet normal -0.07059059292078018 -0.1098511591553688 -0.9914382100105286
 outer loop
  vertex 585500.0 5318500.0 8498.7001953125
  vertex 586500.0 5318500.0 8427.5
  vertex 586500.0 5317500.0 8538.2998046875
 endloop
endfacet
facet normal -0.0320868156850338 -0.11006917804479599 -0.9934058785438538
 outer loop
  vertex 586500.0 5318500.0 8427.5
  vertex 587500.0 5317500.0 8506.0
  vertex 586500.0 5317500.0 8538.2998046875
 endloop
endfacet
facet normal 0.04782320186495781 -0.03055029921233654 -0.9983885288238525
 outer loop
  vertex 586500.0 5318500.0 8427.5
  vertex 587500.0 5318500.0 8475.400390625
  vertex 587500.0 5317500.0 8506.0
 endloop
endfacet
facet normal 0.030970634892582893 -0.0305706225335598 -0.9990527033805847
 outer loop
  vertex 587500.0 5318500.0 8475.400390625
  vertex 588500.0 5317500.0 8537.0
  vertex 587500.0 5317500.0 8506.0
 endloop
endfacet
facet normal 0.3655731976032257 0.3115444481372833 -0.8770953416824341
 outer loop
  vertex 587500.0 5318500.0 8475.400390625
  vertex 588500.0 5318500.0 8892.2001953125
  vertex 588500.0 5317500.0 8537.0
 endloop
endfacet
facet normal 0.11615006625652313 0.3324469029903412 -0.9359423518180847
 outer loop
  vertex 588500.0 5318500.0 8892.2001953125
  vertex 589500.0 5317500.0 8661.099609375
  vertex 588500.0 5317500.0 8537.0
 endloop
endfacet
facet normal 0.01755979284644127 0.24176786839962006 -0.9701752662658691
 outer loop
  vertex 588500.0 5318500.0 8892.2001953125
  vertex 589500.0 5318500.0 8910.2998046875
  vertex 589500.0 5317500.0 8661.099609375
 endloop
endfacet
facet normal 0.017993394285440445 0.10667013376951218 -0.9941316246986389
 outer loop
  vertex 588500.0 5319500.0 8999.5
  vertex 589500.0 5318500.0 8910.2998046875
  vertex 588500.0 5318500.0 8892.2001953125
 endloop
endfacet
facet normal 0.22119925916194916 0.30385950207710266 -0.9266824126243591
 outer loop
  vertex 588500.0 5319500.0 8999.5
  vertex 589500.0 5319500.0 9238.2001953125
  vertex 589500.0 5318500.0 8910.2998046875
 endloop
endfacet
facet normal 0.037128545343875885 0.3113628923892975 -0.9495654702186584
 outer loop
  vertex 589500.0 5319500.0 9238.2001953125
  vertex 590500.0 5318500.0 8949.400390625
  vertex 589500.0 5318500.0 8910.2998046875
 endloop
endfacet
facet normal -0.0329294316470623 0.24677684903144836 -0.9685127139091492
 outer loop
  vertex 589500.0 5319500.0 9238.2001953125
  vertex 590500.0 5319500.0 9204.2001953125
  vertex 590500.0 5318500.0 8949.400390625
 endloop
endfacet
facet normal -0.03390668332576752 0.06581885367631912 -0.9972553849220276
 outer loop
  vertex 589500.0 5320500.0 9304.2001953125
  vertex 590500.0 5319500.0 9204.2001953125
  vertex 589500.0 5319500.0 9238.2001953125
 endloop
endfacet
facet normal 0.047037314623594284 0.14585600793361664 -0.9881869554519653
 outer loop
  vertex 589500.0 5320500.0 9304.2001953125
  vertex 590500.0 5320500.0 9351.7998046875
  vertex 590500.0 5319500.0 9204.2001953125
 endloop
endfacet
endsolid
