solid
facet normal 0.08749718964099884 0.06114860251545906 -0.9942862391471863
 outer loop
  vertex 729500.0 5301500.0 7306.39990234375
  vertex 730500.0 5300500.0 7332.89990234375
  vertex 729500.0 5300500.0 7244.89990234375
 endloop
endfacet
facet normal -0.08806870132684708 -0.11429140716791153 -0.9895359873771667
 outer loop
  vertex 729500.0 5301500.0 7306.39990234375
  vertex 730500.0 5301500.0 7217.39990234375
  vertex 730500.0 5300500.0 7332.89990234375
 endloop
endfacet
facet normal -0.017679488286376 -0.11471929401159286 -0.9932406544685364
 outer loop
  vertex 730500.0 5301500.0 7217.39990234375
  vertex 731500.0 5300500.0 7315.10009765625
  vertex 730500.0 5300500.0 7332.89990234375
 endloop
endfacet
facet normal 0.04469303414225578 -0.05277325212955475 -0.9976058602333069
 outer loop
  vertex 730500.0 5301500.0 7217.39990234375
  vertex 731500.0 5301500.0 7262.2001953125
  vertex 731500.0 5300500.0 7315.10009765625
 endloop
endfacet
facet normal -0.0955270454287529 -0.052584458142519 -0.9940369725227356
 outer loop
  vertex 731500.0 5301500.0 7262.2001953125
  vertex 732500.0 5300500.0 7219.0
  vertex 731500.0 5300500.0 7315.10009765625
 endloop
endfacet
facet normal -0.11521832644939423 -0.07242003083229065 -0.9906967282295227
 outer loop
  vertex 731500.0 5301500.0 7262.2001953125
  vertex 732500.0 5301500.0 7145.89990234375
  vertex 732500.0 5300500.0 7219.0
 endloop
endfacet
facet normal -0.07211878150701523 -0.07271572202444077 -0.9947418570518494
 outer loop
  vertex 732500.0 5301500.0 7145.89990234375
  vertex 733500.0 5300500.0 7146.5
  vertex 732500.0 5300500.0 7219.0
 endloop
endfacet
facet normal -0.007699213922023773 -0.008299273438751698 -0.9999359250068665
 outer loop
  vertex 732500.0 5301500.0 7145.89990234375
  vertex 733500.0 5301500.0 7138.2001953125
  vertex 733500.0 5300500.0 7146.5
 endloop
endfacet
facet normal 0.04475168511271477 -0.012885905802249908 -0.9989150166511536
 outer loop
  vertex 730500.0 5302500.0 7204.5
  vertex 731500.0 5301500.0 7262.2001953125
  vertex 730500.0 5301500.0 7217.39990234375
 endloop
endfacet
facet normal -0.03294659033417702 -0.09037919342517853 -0.9953622817993164
 outer loop
  vertex 730500.0 5302500.0 7204.5
  vertex 731500.0 5302500.0 7171.39990234375
  vertex 731500.0 5301500.0 7262.2001953125
 endloop
endfacet
facet normal -0.1150546446442604 -0.0898277685046196 -0.9892893433570862
 outer loop
  vertex 731500.0 5302500.0 7171.39990234375
  vertex 732500.0 5301500.0 7145.89990234375
  vertex 731500.0 5301500.0 7262.2001953125
 endloop
endfacet
facet normal -0.04753468185663223 -0.022069726139307022 -0.9986256957054138
 outer loop
  vertex 731500.0 5302500.0 7171.39990234375
  vertex 732500.0 5302500.0 7123.7998046875
  vertex 732500.0 5301500.0 7145.89990234375
 endloop
endfacet
facet normal -0.007697599474340677 -0.02209404855966568 -0.9997262358665466
 outer loop
  vertex 732500.0 5302500.0 7123.7998046875
  vertex 733500.0 5301500.0 7138.2001953125
  vertex 732500.0 5301500.0 7145.89990234375
 endloop
endfacet
facet normal -0.0016994844190776348 -0.016097988933324814 -0.9998689889907837
 outer loop
  vertex 732500.0 5302500.0 7123.7998046875
  vertex 733500.0 5302500.0 7122.10009765625
  vertex 733500.0 5301500.0 7138.2001953125
 endloop
endfacet
facet normal -0.03297777846455574 -0.01608925499022007 -0.9993265867233276
 outer loop
  vertex 733500.0 5302500.0 7122.10009765625
  vertex 734500.0 5301500.0 7105.2001953125
  vertex 733500.0 5301500.0 7138.2001953125
 endloop
endfacet
facet normal -0.01809712126851082 -0.0011999979615211487 -0.9998355507850647
 outer loop
  vertex 733500.0 5302500.0 7122.10009765625
  vertex 734500.0 5302500.0 7104.0
  vertex 734500.0 5301500.0 7105.2001953125
 endloop
endfacet
facet normal -0.03307780250906944 -0.01588919386267662 -0.9993264675140381
 outer loop
  vertex 730500.0 5303500.0 7188.60009765625
  vertex 731500.0 5302500.0 7171.39990234375
  vertex 730500.0 5302500.0 7204.5
 endloop
endfacet
facet normal -0.036369118839502335 -0.01918346993625164 -0.999154269695282
 outer loop
  vertex 730500.0 5303500.0 7188.60009765625
  vertex 731500.0 5303500.0 7152.2001953125
  vertex 731500.0 5302500.0 7171.39990234375
 endloop
endfacet
facet normal -0.04753752425312996 -0.019174467772245407 -0.9986854195594788
 outer loop
  vertex 731500.0 5303500.0 7152.2001953125
  vertex 732500.0 5302500.0 7123.7998046875
  vertex 731500.0 5302500.0 7171.39990234375
 endloop
endfacet
facet normal -0.0131975207477808 0.015197115950286388 -0.9997974038124084
 outer loop
  vertex 731500.0 5303500.0 7152.2001953125
  vertex 732500.0 5303500.0 7139.0
  vertex 732500.0 5302500.0 7123.7998046875
 endloop
endfacet
facet normal -0.0016995081678032875 0.015198417007923126 -0.9998829960823059
 outer loop
  vertex 732500.0 5303500.0 7139.0
  vertex 733500.0 5302500.0 7122.10009765625
  vertex 732500.0 5302500.0 7123.7998046875
 endloop
endfacet
facet normal -0.03267865255475044 -0.015789883211255074 -0.9993411898612976
 outer loop
  vertex 732500.0 5303500.0 7139.0
  vertex 733500.0 5303500.0 7106.2998046875
  vertex 733500.0 5302500.0 7122.10009765625
 endloop
endfacet
facet normal -0.018094876781105995 -0.015795735642313957 -0.9997115135192871
 outer loop
  vertex 733500.0 5303500.0 7106.2998046875
  vertex 734500.0 5302500.0 7104.0
  vertex 733500.0 5302500.0 7122.10009765625
 endloop
endfacet
facet normal -0.009399250149726868 -0.007099605165421963 -0.9999306201934814
 outer loop
  vertex 733500.0 5303500.0 7106.2998046875
  vertex 734500.0 5303500.0 7096.89990234375
  vertex 734500.0 5302500.0 7104.0
 endloop
endfacet
facet normal -0.036163851618766785 0.10779637843370438 -0.9935150146484375
 outer loop
  vertex 730500.0 5304500.0 7297.10009765625
  vertex 731500.0 5303500.0 7152.2001953125
  vertex 730500.0 5303500.0 7188.60009765625
 endloop
endfacet
facet normal -0.16592204570770264 -0.0230697188526392 -0.9858689904212952
 outer loop
  vertex 730500.0 5304500.0 7297.10009765625
  vertex 731500.0 5304500.0 7128.7998046875
  vertex 731500.0 5303500.0 7152.2001953125
 endloop
endfacet
facet normal -0.013195434585213661 -0.023391950875520706 -0.9996393322944641
 outer loop
  vertex 731500.0 5304500.0 7128.7998046875
  vertex 732500.0 5303500.0 7139.0
  vertex 731500.0 5303500.0 7152.2001953125
 endloop
endfacet
facet normal -0.004899284802377224 -0.015098195523023605 -0.9998739957809448
 outer loop
  vertex 731500.0 5304500.0 7128.7998046875
  vertex 732500.0 5304500.0 7123.89990234375
  vertex 732500.0 5303500.0 7139.0
 endloop
endfacet
facet normal -0.032679006457328796 -0.01509031280875206 -0.999351978302002
 outer loop
  vertex 732500.0 5304500.0 7123.89990234375
  vertex 733500.0 5303500.0 7106.2998046875
  vertex 732500.0 5303500.0 7139.0
 endloop
endfacet
facet normal -0.01869642734527588 -0.001099416520446539 -0.999824583530426
 outer loop
  vertex 732500.0 5304500.0 7123.89990234375
  vertex 733500.0 5304500.0 7105.2001953125
  vertex 733500.0 5303500.0 7106.2998046875
 endloop
endfacet
facet normal -0.009399481117725372 -0.0010995600605383515 -0.9999551773071289
 outer loop
  vertex 733500.0 5304500.0 7105.2001953125
  vertex 734500.0 5303500.0 7096.89990234375
  vertex 733500.0 5303500.0 7106.2998046875
 endloop
endfacet
facet normal -0.042436905205249786 -0.0341489352285862 -0.9985153675079346
 outer loop
  vertex 733500.0 5304500.0 7105.2001953125
  vertex 734500.0 5304500.0 7062.7001953125
  vertex 734500.0 5303500.0 7096.89990234375
 endloop
endfacet
facet normal -0.1659661829471588 -0.0004930656286887825 -0.9861313104629517
 outer loop
  vertex 730500.0 5305500.0 7296.60009765625
  vertex 731500.0 5304500.0 7128.7998046875
  vertex 730500.0 5304500.0 7297.10009765625
 endloop
endfacet
facet normal -0.15422199666500092 0.011559434235095978 -0.9879686236381531
 outer loop
  vertex 730500.0 5305500.0 7296.60009765625
  vertex 731500.0 5305500.0 7140.5
  vertex 731500.0 5304500.0 7128.7998046875
 endloop
endfacet
facet normal -0.004899508319795132 0.011699254624545574 -0.999919593334198
 outer loop
  vertex 731500.0 5305500.0 7140.5
  vertex 732500.0 5304500.0 7123.89990234375
  vertex 731500.0 5304500.0 7128.7998046875
 endloop
endfacet
facet normal 0.0047986507415771484 0.02139475755393505 -0.9997596144676208
 outer loop
  vertex 731500.0 5305500.0 7140.5
  vertex 732500.0 5305500.0 7145.2998046875
  vertex 732500.0 5304500.0 7123.89990234375
 endloop
endfacet
facet normal -0.01869216002523899 0.021391265094280243 -0.9995964169502258
 outer loop
  vertex 732500.0 5305500.0 7145.2998046875
  vertex 733500.0 5304500.0 7105.2001953125
  vertex 732500.0 5304500.0 7123.89990234375
 endloop
endfacet
facet normal -0.06613197177648544 -0.02613387256860733 -0.9974685907363892
 outer loop
  vertex 732500.0 5305500.0 7145.2998046875
  vertex 733500.0 5305500.0 7079.0
  vertex 733500.0 5304500.0 7105.2001953125
 endloop
endfacet
facet normal -0.042447131127119064 -0.026167601346969604 -0.9987559914588928
 outer loop
  vertex 733500.0 5305500.0 7079.0
  vertex 734500.0 5304500.0 7062.7001953125
  vertex 733500.0 5304500.0 7105.2001953125
 endloop
endfacet
facet normal 0.00479876110330224 0.020295390859246254 -0.9997825622558594
 outer loop
  vertex 731500.0 5306500.0 7160.7998046875
  vertex 732500.0 5305500.0 7145.2998046875
  vertex 731500.0 5305500.0 7140.5
 endloop
endfacet
facet normal -0.00909904669970274 0.006399994716048241 -0.9999381303787231
 outer loop
  vertex 731500.0 5306500.0 7160.7998046875
  vertex 732500.0 5306500.0 7151.7001953125
  vertex 732500.0 5305500.0 7145.2998046875
 endloop
endfacet
facet normal -0.06615322083234787 0.006386239547282457 -0.9977890253067017
 outer loop
  vertex 732500.0 5306500.0 7151.7001953125
  vertex 733500.0 5305500.0 7079.0
  vertex 732500.0 5305500.0 7145.2998046875
 endloop
endfacet
facet normal -0.0839967355132103 -0.011558329686522484 -0.9963989853858948
 outer loop
  vertex 732500.0 5306500.0 7151.7001953125
  vertex 733500.0 5306500.0 7067.39990234375
  vertex 733500.0 5305500.0 7079.0
 endloop
endfacet
facet normal -0.009098795242607594 0.009799416176974773 -0.9999105930328369
 outer loop
  vertex 731500.0 5307500.0 7170.60009765625
  vertex 732500.0 5306500.0 7151.7001953125
  vertex 731500.0 5306500.0 7160.7998046875
 endloop
endfacet
facet normal -0.08706224709749222 -0.06827838718891144 -0.9938602447509766
 outer loop
  vertex 731500.0 5307500.0 7170.60009765625
  vertex 732500.0 5307500.0 7083.0
  vertex 732500.0 5306500.0 7151.7001953125
 endloop
endfacet
facet normal -0.08380619436502457 -0.06829752773046494 -0.994138777256012
 outer loop
  vertex 732500.0 5307500.0 7083.0
  vertex 733500.0 5306500.0 7067.39990234375
  vertex 732500.0 5306500.0 7151.7001953125
 endloop
endfacet
endsolid
