solid
facet normal -0.2957059144973755 0.13735991716384888 -0.9453518986701965
 outer loop
  vertex 376500.0 5451500.0 5912.10009765625
  vertex 377500.0 5450500.0 5454.0
  vertex 376500.0 5450500.0 5766.7998046875
 endloop
endfacet
facet normal -0.19616863131523132 0.23943358659744263 -0.9508887529373169
 outer loop
  vertex 376500.0 5451500.0 5912.10009765625
  vertex 377500.0 5451500.0 5705.7998046875
  vertex 377500.0 5450500.0 5454.0
 endloop
endfacet
facet normal -0.2019452005624771 0.03151995688676834 -0.978889524936676
 outer loop
  vertex 376500.0 5452500.0 5944.2998046875
  vertex 377500.0 5451500.0 5705.7998046875
  vertex 376500.0 5451500.0 5912.10009765625
 endloop
endfacet
facet normal -0.1926492601633072 0.041176941245794296 -0.9804033041000366
 outer loop
  vertex 376500.0 5452500.0 5944.2998046875
  vertex 377500.0 5452500.0 5747.7998046875
  vertex 377500.0 5451500.0 5705.7998046875
 endloop
endfacet
facet normal -0.3395366668701172 0.03947009891271591 -0.9397642612457275
 outer loop
  vertex 377500.0 5452500.0 5747.7998046875
  vertex 378500.0 5451500.0 5344.5
  vertex 377500.0 5451500.0 5705.7998046875
 endloop
endfacet
facet normal -0.1788283735513687 0.20892134308815002 -0.9614428281784058
 outer loop
  vertex 377500.0 5452500.0 5747.7998046875
  vertex 378500.0 5452500.0 5561.7998046875
  vertex 378500.0 5451500.0 5344.5
 endloop
endfacet
facet normal 0.5131985545158386 0.18224869668483734 -0.8386969566345215
 outer loop
  vertex 378500.0 5452500.0 5561.7998046875
  vertex 379500.0 5451500.0 5956.39990234375
  vertex 378500.0 5451500.0 5344.5
 endloop
endfacet
facet normal -0.334994375705719 -0.6162471771240234 -0.7127540111541748
 outer loop
  vertex 378500.0 5452500.0 5561.7998046875
  vertex 379500.0 5452500.0 5091.7998046875
  vertex 379500.0 5451500.0 5956.39990234375
 endloop
endfacet
facet normal 0.05726322904229164 0.0915614515542984 -0.9941515922546387
 outer loop
  vertex 375500.0 5453500.0 5978.7998046875
  vertex 376500.0 5453500.0 6036.39990234375
  vertex 376500.0 5452500.0 5944.2998046875
 endloop
endfacet
facet normal -0.19203022122383118 0.09000509232282639 -0.9772530198097229
 outer loop
  vertex 376500.0 5453500.0 6036.39990234375
  vertex 377500.0 5452500.0 5747.7998046875
  vertex 376500.0 5452500.0 5944.2998046875
 endloop
endfacet
facet normal -0.3827956020832062 -0.11837507039308548 -0.9162177443504333
 outer loop
  vertex 376500.0 5453500.0 6036.39990234375
  vertex 377500.0 5453500.0 5618.60009765625
  vertex 377500.0 5452500.0 5747.7998046875
 endloop
endfacet
facet normal -0.1814061403274536 -0.12600870430469513 -0.9753018021583557
 outer loop
  vertex 377500.0 5453500.0 5618.60009765625
  vertex 378500.0 5452500.0 5561.7998046875
  vertex 377500.0 5452500.0 5747.7998046875
 endloop
endfacet
facet normal -0.12819157540798187 -0.07200859487056732 -0.9891318082809448
 outer loop
  vertex 377500.0 5453500.0 5618.60009765625
  vertex 378500.0 5453500.0 5489.0
  vertex 378500.0 5452500.0 5561.7998046875
 endloop
endfacet
facet normal -0.4244409203529358 -0.06574301421642303 -0.9030658006668091
 outer loop
  vertex 378500.0 5453500.0 5489.0
  vertex 379500.0 5452500.0 5091.7998046875
  vertex 378500.0 5452500.0 5561.7998046875
 endloop
endfacet
facet normal -0.09600172191858292 0.28304266929626465 -0.9542905688285828
 outer loop
  vertex 378500.0 5453500.0 5489.0
  vertex 379500.0 5453500.0 5388.39990234375
  vertex 379500.0 5452500.0 5091.7998046875
 endloop
endfacet
facet normal 0.3698365092277527 0.2641943395137787 -0.8907425999641418
 outer loop
  vertex 379500.0 5453500.0 5388.39990234375
  vertex 380500.0 5452500.0 5507.0
  vertex 379500.0 5452500.0 5091.7998046875
 endloop
endfacet
facet normal -0.20581835508346558 -0.3156748414039612 -0.9262765049934387
 outer loop
  vertex 379500.0 5453500.0 5388.39990234375
  vertex 380500.0 5453500.0 5166.2001953125
  vertex 380500.0 5452500.0 5507.0
 endloop
endfacet
facet normal -0.3898093104362488 -0.2970636785030365 -0.8716661930084229
 outer loop
  vertex 380500.0 5453500.0 5166.2001953125
  vertex 381500.0 5452500.0 5059.7998046875
  vertex 380500.0 5452500.0 5507.0
 endloop
endfacet
facet normal 0.4092576503753662 0.49107876420021057 -0.7689926624298096
 outer loop
  vertex 380500.0 5453500.0 5166.2001953125
  vertex 381500.0 5453500.0 5698.39990234375
  vertex 381500.0 5452500.0 5059.7998046875
 endloop
endfacet
facet normal 0.5525548458099365 0.44859078526496887 -0.7024596333503723
 outer loop
  vertex 381500.0 5453500.0 5698.39990234375
  vertex 382500.0 5452500.0 5846.39990234375
  vertex 381500.0 5452500.0 5059.7998046875
 endloop
endfacet
facet normal 0.3788142800331116 0.24680465459823608 -0.8919569253921509
 outer loop
  vertex 381500.0 5453500.0 5698.39990234375
  vertex 382500.0 5453500.0 6123.10009765625
  vertex 382500.0 5452500.0 5846.39990234375
 endloop
endfacet
facet normal 0.05741984397172928 -0.05432945489883423 -0.9968706965446472
 outer loop
  vertex 375500.0 5454500.0 5924.2998046875
  vertex 376500.0 5453500.0 6036.39990234375
  vertex 375500.0 5453500.0 5978.7998046875
 endloop
endfacet
facet normal -0.2944054901599884 -0.39210501313209534 -0.8715382814407349
 outer loop
  vertex 375500.0 5454500.0 5924.2998046875
  vertex 376500.0 5454500.0 5586.5
  vertex 376500.0 5453500.0 6036.39990234375
 endloop
endfacet
facet normal -0.3560463488101959 -0.3834018409252167 -0.8521935939788818
 outer loop
  vertex 376500.0 5454500.0 5586.5
  vertex 377500.0 5453500.0 5618.60009765625
  vertex 376500.0 5453500.0 6036.39990234375
 endloop
endfacet
facet normal 0.4135371446609497 0.3870832026004791 -0.8241077661514282
 outer loop
  vertex 376500.0 5454500.0 5586.5
  vertex 377500.0 5454500.0 6088.2998046875
  vertex 377500.0 5453500.0 5618.60009765625
 endloop
endfacet
facet normal -0.11650586873292923 0.4222433269023895 -0.8989644050598145
 outer loop
  vertex 377500.0 5454500.0 6088.2998046875
  vertex 378500.0 5453500.0 5489.0
  vertex 377500.0 5453500.0 5618.60009765625
 endloop
endfacet
facet normal -0.18742796778678894 0.36023539304733276 -0.9138387441635132
 outer loop
  vertex 377500.0 5454500.0 6088.2998046875
  vertex 378500.0 5454500.0 5883.2001953125
  vertex 378500.0 5453500.0 5489.0
 endloop
endfacet
facet normal -0.09318362921476364 0.3651388883590698 -0.926277756690979
 outer loop
  vertex 378500.0 5454500.0 5883.2001953125
  vertex 379500.0 5453500.0 5388.39990234375
  vertex 378500.0 5453500.0 5489.0
 endloop
endfacet
facet normal -0.27503839135169983 0.19117914140224457 -0.9422337412834167
 outer loop
  vertex 378500.0 5454500.0 5883.2001953125
  vertex 379500.0 5454500.0 5591.2998046875
  vertex 379500.0 5453500.0 5388.39990234375
 endloop
endfacet
facet normal -0.21277593076229095 0.19429464638233185 -0.9575886130332947
 outer loop
  vertex 379500.0 5454500.0 5591.2998046875
  vertex 380500.0 5453500.0 5166.2001953125
  vertex 379500.0 5453500.0 5388.39990234375
 endloop
endfacet
facet normal -0.5081270337104797 -0.14739777147769928 -0.84857577085495
 outer loop
  vertex 379500.0 5454500.0 5591.2998046875
  vertex 380500.0 5454500.0 4992.5
  vertex 380500.0 5453500.0 5166.2001953125
 endloop
endfacet
facet normal 0.4643813371658325 -0.1515655219554901 -0.8725696802139282
 outer loop
  vertex 380500.0 5454500.0 4992.5
  vertex 381500.0 5453500.0 5698.39990234375
  vertex 380500.0 5453500.0 5166.2001953125
 endloop
endfacet
facet normal 0.614814817905426 0.05968843400478363 -0.7864094972610474
 outer loop
  vertex 380500.0 5454500.0 4992.5
  vertex 381500.0 5454500.0 5774.2998046875
  vertex 381500.0 5453500.0 5698.39990234375
 endloop
endfacet
facet normal 0.38995644450187683 0.06969071179628372 -0.9181922674179077
 outer loop
  vertex 381500.0 5454500.0 5774.2998046875
  vertex 382500.0 5453500.0 6123.10009765625
  vertex 381500.0 5453500.0 5698.39990234375
 endloop
endfacet
facet normal 0.250894695520401 -0.08543150126934052 -0.9642371535301208
 outer loop
  vertex 381500.0 5454500.0 5774.2998046875
  vertex 382500.0 5454500.0 6034.5
  vertex 382500.0 5453500.0 6123.10009765625
 endloop
endfacet
facet normal -0.07370959967374802 -0.08801429718732834 -0.993388295173645
 outer loop
  vertex 382500.0 5454500.0 6034.5
  vertex 383500.0 5453500.0 6048.89990234375
  vertex 382500.0 5453500.0 6123.10009765625
 endloop
endfacet
facet normal 0.44163092970848083 -0.1743466854095459 -0.8800939321517944
 outer loop
  vertex 376500.0 5455500.0 5388.39990234375
  vertex 377500.0 5454500.0 6088.2998046875
  vertex 376500.0 5454500.0 5586.5
 endloop
endfacet
facet normal 0.44155362248420715 -0.17443843185901642 -0.8801145553588867
 outer loop
  vertex 376500.0 5455500.0 5388.39990234375
  vertex 377500.0 5455500.0 5890.10009765625
  vertex 377500.0 5454500.0 6088.2998046875
 endloop
endfacet
facet normal -0.19723404943943024 -0.1905987560749054 -0.9616500735282898
 outer loop
  vertex 377500.0 5455500.0 5890.10009765625
  vertex 378500.0 5454500.0 5883.2001953125
  vertex 377500.0 5454500.0 6088.2998046875
 endloop
endfacet
facet normal -0.3421345055103302 -0.3360798954963684 -0.8774932026863098
 outer loop
  vertex 377500.0 5455500.0 5890.10009765625
  vertex 378500.0 5455500.0 5500.2001953125
  vertex 378500.0 5454500.0 5883.2001953125
 endloop
endfacet
facet normal -0.262995183467865 -0.34507375955581665 -0.9009758830070496
 outer loop
  vertex 378500.0 5455500.0 5500.2001953125
  vertex 379500.0 5454500.0 5591.2998046875
  vertex 378500.0 5454500.0 5883.2001953125
 endloop
endfacet
facet normal -0.3969174325466156 -0.46880415081977844 -0.7891002297401428
 outer loop
  vertex 378500.0 5455500.0 5500.2001953125
  vertex 379500.0 5455500.0 4997.2001953125
  vertex 379500.0 5454500.0 5591.2998046875
 endloop
endfacet
facet normal -0.4577108323574066 -0.45411810278892517 -0.7643803954124451
 outer loop
  vertex 379500.0 5455500.0 4997.2001953125
  vertex 380500.0 5454500.0 4992.5
  vertex 379500.0 5454500.0 5591.2998046875
 endloop
endfacet
facet normal -0.04183477163314819 -0.037141937762498856 -0.9984339475631714
 outer loop
  vertex 379500.0 5455500.0 4997.2001953125
  vertex 380500.0 5455500.0 4955.2998046875
  vertex 380500.0 5454500.0 4992.5
 endloop
endfacet
facet normal 0.615648627281189 -0.029294263571500778 -0.7874760627746582
 outer loop
  vertex 380500.0 5455500.0 4955.2998046875
  vertex 381500.0 5454500.0 5774.2998046875
  vertex 380500.0 5454500.0 4992.5
 endloop
endfacet
facet normal 0.41367247700691223 -0.2924499809741974 -0.8621763586997986
 outer loop
  vertex 380500.0 5455500.0 4955.2998046875
  vertex 381500.0 5455500.0 5435.10009765625
  vertex 381500.0 5454500.0 5774.2998046875
 endloop
endfacet
facet normal 0.2392539530992508 -0.311894029378891 -0.9194996356964111
 outer loop
  vertex 381500.0 5455500.0 5435.10009765625
  vertex 382500.0 5454500.0 6034.5
  vertex 381500.0 5454500.0 5774.2998046875
 endloop
endfacet
facet normal 0.06156640499830246 -0.4671298563480377 -0.882042646408081
 outer loop
  vertex 381500.0 5455500.0 5435.10009765625
  vertex 382500.0 5455500.0 5504.89990234375
  vertex 382500.0 5454500.0 6034.5
 endloop
endfacet
facet normal 0.4280189871788025 -0.2982567548751831 -0.8531369566917419
 outer loop
  vertex 376500.0 5456500.0 5038.7998046875
  vertex 377500.0 5455500.0 5890.10009765625
  vertex 376500.0 5455500.0 5388.39990234375
 endloop
endfacet
facet normal -0.3955187201499939 -0.474622517824173 -0.7863194346427917
 outer loop
  vertex 378500.0 5456500.0 4896.60009765625
  vertex 379500.0 5455500.0 4997.2001953125
  vertex 378500.0 5455500.0 5500.2001953125
 endloop
endfacet
facet normal 0.2816745340824127 0.18699860572814941 -0.9411115646362305
 outer loop
  vertex 378500.0 5456500.0 4896.60009765625
  vertex 379500.0 5456500.0 5195.89990234375
  vertex 379500.0 5455500.0 4997.2001953125
 endloop
endfacet
facet normal -0.04106229543685913 0.19472530484199524 -0.9799979329109192
 outer loop
  vertex 379500.0 5456500.0 5195.89990234375
  vertex 380500.0 5455500.0 4955.2998046875
  vertex 379500.0 5455500.0 4997.2001953125
 endloop
endfacet
facet normal -0.24661552906036377 -0.013469284400343895 -0.9690197706222534
 outer loop
  vertex 379500.0 5456500.0 5195.89990234375
  vertex 380500.0 5456500.0 4941.39990234375
  vertex 380500.0 5455500.0 4955.2998046875
 endloop
endfacet
facet normal 0.4325507581233978 -0.012531074695289135 -0.9015225172042847
 outer loop
  vertex 380500.0 5456500.0 4941.39990234375
  vertex 381500.0 5455500.0 5435.10009765625
  vertex 380500.0 5455500.0 4955.2998046875
 endloop
endfacet
facet normal -0.0186686422675848 -0.4575596749782562 -0.8889829516410828
 outer loop
  vertex 380500.0 5456500.0 4941.39990234375
  vertex 381500.0 5456500.0 4920.39990234375
  vertex 381500.0 5455500.0 5435.10009765625
 endloop
endfacet
facet normal 0.06194248050451279 -0.45676061511039734 -0.8874304294586182
 outer loop
  vertex 381500.0 5456500.0 4920.39990234375
  vertex 382500.0 5455500.0 5504.89990234375
  vertex 381500.0 5455500.0 5435.10009765625
 endloop
endfacet
facet normal 0.03894723951816559 -0.4749242961406708 -0.8791643381118774
 outer loop
  vertex 381500.0 5456500.0 4920.39990234375
  vertex 382500.0 5456500.0 4964.7001953125
  vertex 382500.0 5455500.0 5504.89990234375
 endloop
endfacet
facet normal -0.24652668833732605 -0.03002879209816456 -0.9686707258224487
 outer loop
  vertex 379500.0 5457500.0 5164.89990234375
  vertex 380500.0 5456500.0 4941.39990234375
  vertex 379500.0 5456500.0 5195.89990234375
 endloop
endfacet
facet normal 0.4177776277065277 0.5749982595443726 -0.7034478783607483
 outer loop
  vertex 379500.0 5457500.0 5164.89990234375
  vertex 380500.0 5457500.0 5758.7998046875
  vertex 380500.0 5456500.0 4941.39990234375
 endloop
endfacet
facet normal -0.016257183626294136 0.6327914595603943 -0.774151623249054
 outer loop
  vertex 380500.0 5457500.0 5758.7998046875
  vertex 381500.0 5456500.0 4920.39990234375
  vertex 380500.0 5456500.0 4941.39990234375
 endloop
endfacet
facet normal -0.13178052008152008 0.556171178817749 -0.8205532431602478
 outer loop
  vertex 380500.0 5457500.0 5758.7998046875
  vertex 381500.0 5457500.0 5598.2001953125
  vertex 381500.0 5456500.0 4920.39990234375
 endloop
endfacet
facet normal 0.03664593771100044 0.5606874227523804 -0.8272162675857544
 outer loop
  vertex 381500.0 5457500.0 5598.2001953125
  vertex 382500.0 5456500.0 4964.7001953125
  vertex 381500.0 5456500.0 4920.39990234375
 endloop
endfacet
facet normal -0.46028321981430054 0.09863822162151337 -0.8822753429412842
 outer loop
  vertex 381500.0 5457500.0 5598.2001953125
  vertex 382500.0 5457500.0 5076.5
  vertex 382500.0 5456500.0 4964.7001953125
 endloop
endfacet
facet normal -0.015104358084499836 0.11109490692615509 -0.9936950206756592
 outer loop
  vertex 382500.0 5457500.0 5076.5
  vertex 383500.0 5456500.0 4949.5
  vertex 382500.0 5456500.0 4964.7001953125
 endloop
endfacet
facet normal 0.12106586247682571 0.24328677356243134 -0.9623692631721497
 outer loop
  vertex 382500.0 5457500.0 5076.5
  vertex 383500.0 5457500.0 5202.2998046875
  vertex 383500.0 5456500.0 4949.5
 endloop
endfacet
facet normal 0.4304887354373932 0.5378391742706299 -0.7248506546020508
 outer loop
  vertex 379500.0 5458500.0 5906.89990234375
  vertex 380500.0 5457500.0 5758.7998046875
  vertex 379500.0 5457500.0 5164.89990234375
 endloop
endfacet
facet normal -0.16974957287311554 -0.023841533809900284 -0.9851987957954407
 outer loop
  vertex 379500.0 5458500.0 5906.89990234375
  vertex 380500.0 5458500.0 5734.60009765625
  vertex 380500.0 5457500.0 5758.7998046875
 endloop
endfacet
facet normal -0.15852248668670654 -0.02388671785593033 -0.987066388130188
 outer loop
  vertex 380500.0 5458500.0 5734.60009765625
  vertex 381500.0 5457500.0 5598.2001953125
  vertex 380500.0 5457500.0 5758.7998046875
 endloop
endfacet
facet normal 0.16593243181705475 0.2943112850189209 -0.9411946535110474
 outer loop
  vertex 380500.0 5458500.0 5734.60009765625
  vertex 381500.0 5458500.0 5910.89990234375
  vertex 381500.0 5457500.0 5598.2001953125
 endloop
endfacet
facet normal -0.44572627544403076 0.2671620547771454 -0.854372501373291
 outer loop
  vertex 381500.0 5458500.0 5910.89990234375
  vertex 382500.0 5457500.0 5076.5
  vertex 381500.0 5457500.0 5598.2001953125
 endloop
endfacet
facet normal -0.32922807335853577 0.3887745141983032 -0.860501766204834
 outer loop
  vertex 381500.0 5458500.0 5910.89990234375
  vertex 382500.0 5458500.0 5528.2998046875
  vertex 382500.0 5457500.0 5076.5
 endloop
endfacet
facet normal 0.1138961911201477 0.4090489447116852 -0.9053764939308167
 outer loop
  vertex 382500.0 5458500.0 5528.2998046875
  vertex 383500.0 5457500.0 5202.2998046875
  vertex 382500.0 5457500.0 5076.5
 endloop
endfacet
facet normal 0.22698268294334412 0.499529093503952 -0.836031973361969
 outer loop
  vertex 382500.0 5458500.0 5528.2998046875
  vertex 383500.0 5458500.0 5799.7998046875
  vertex 383500.0 5457500.0 5202.2998046875
 endloop
endfacet
facet normal 0.37893736362457275 0.47466471791267395 -0.7944179177284241
 outer loop
  vertex 383500.0 5458500.0 5799.7998046875
  vertex 384500.0 5457500.0 5679.2998046875
  vertex 383500.0 5457500.0 5202.2998046875
 endloop
endfacet
facet normal -0.5290572643280029 -0.4417504668235779 -0.7245377898216248
 outer loop
  vertex 383500.0 5458500.0 5799.7998046875
  vertex 384500.0 5458500.0 5069.60009765625
  vertex 384500.0 5457500.0 5679.2998046875
 endloop
endfacet
facet normal -0.16964273154735565 0.04273062199354172 -0.9845787882804871
 outer loop
  vertex 379500.0 5459500.0 5950.2998046875
  vertex 380500.0 5458500.0 5734.60009765625
  vertex 379500.0 5458500.0 5906.89990234375
 endloop
endfacet
facet normal -0.3498512804508209 0.20363806188106537 -0.9144045114517212
 outer loop
  vertex 381500.0 5459500.0 6133.60009765625
  vertex 382500.0 5458500.0 5528.2998046875
  vertex 381500.0 5458500.0 5910.89990234375
 endloop
endfacet
facet normal 0.05887044966220856 0.559354305267334 -0.8268356323242188
 outer loop
  vertex 381500.0 5459500.0 6133.60009765625
  vertex 382500.0 5459500.0 6204.7998046875
  vertex 382500.0 5458500.0 5528.2998046875
 endloop
endfacet
facet normal 0.2193969339132309 0.5466741323471069 -0.8080918192863464
 outer loop
  vertex 382500.0 5459500.0 6204.7998046875
  vertex 383500.0 5458500.0 5799.7998046875
  vertex 382500.0 5458500.0 5528.2998046875
 endloop
endfacet
facet normal -0.3567674458026886 0.021480761468410492 -0.9339461922645569
 outer loop
  vertex 382500.0 5459500.0 6204.7998046875
  vertex 383500.0 5459500.0 5822.7998046875
  vertex 383500.0 5458500.0 5799.7998046875
 endloop
endfacet
facet normal -0.589614987373352 0.018571829423308372 -0.8074708580970764
 outer loop
  vertex 383500.0 5459500.0 5822.7998046875
  vertex 384500.0 5458500.0 5069.60009765625
  vertex 383500.0 5458500.0 5799.7998046875
 endloop
endfacet
facet normal -0.31838876008987427 0.34627431631088257 -0.882452666759491
 outer loop
  vertex 383500.0 5459500.0 5822.7998046875
  vertex 384500.0 5459500.0 5462.0
  vertex 384500.0 5458500.0 5069.60009765625
 endloop
endfacet
facet normal 0.1328606754541397 0.3620452582836151 -0.9226436018943787
 outer loop
  vertex 384500.0 5459500.0 5462.0
  vertex 385500.0 5458500.0 5213.60009765625
  vertex 384500.0 5458500.0 5069.60009765625
 endloop
endfacet
facet normal -0.356796532869339 -0.01727941259741783 -0.9340223073959351
 outer loop
  vertex 382500.0 5460500.0 6186.2998046875
  vertex 383500.0 5459500.0 5822.7998046875
  vertex 382500.0 5459500.0 6204.7998046875
 endloop
endfacet
facet normal -0.6056375503540039 -0.344982385635376 -0.7170705795288086
 outer loop
  vertex 382500.0 5460500.0 6186.2998046875
  vertex 383500.0 5460500.0 5341.7001953125
  vertex 383500.0 5459500.0 5822.7998046875
 endloop
endfacet
facet normal -0.30919766426086426 -0.4122920036315918 -0.8569784164428711
 outer loop
  vertex 383500.0 5460500.0 5341.7001953125
  vertex 384500.0 5459500.0 5462.0
  vertex 383500.0 5459500.0 5822.7998046875
 endloop
endfacet
facet normal -0.6452354192733765 -0.006722647696733475 -0.763954222202301
 outer loop
  vertex 382500.0 5461500.0 6177.5
  vertex 383500.0 5460500.0 5341.7001953125
  vertex 382500.0 5460500.0 6186.2998046875
 endloop
endfacet
facet normal -0.5367156863212585 0.15629681944847107 -0.8291608691215515
 outer loop
  vertex 382500.0 5461500.0 6177.5
  vertex 383500.0 5461500.0 5530.2001953125
  vertex 383500.0 5460500.0 5341.7001953125
 endloop
endfacet
facet normal -0.5431854724884033 -0.027692146599292755 -0.839155912399292
 outer loop
  vertex 382500.0 5462500.0 6144.5
  vertex 383500.0 5461500.0 5530.2001953125
  vertex 382500.0 5461500.0 6177.5
 endloop
endfacet
facet normal -0.3671506941318512 0.19194860756397247 -0.9101407527923584
 outer loop
  vertex 382500.0 5462500.0 6144.5
  vertex 383500.0 5462500.0 5741.10009765625
  vertex 383500.0 5461500.0 5530.2001953125
 endloop
endfacet
endsolid
