solid
facet normal -0.3146873712539673 -0.3575950860977173 -0.8792597055435181
 outer loop
  vertex 620500.0 5301500.0 9866.400390625
  vertex 621500.0 5301500.0 9508.5
  vertex 621500.0 5300500.0 9915.2001953125
 endloop
endfacet
facet normal -0.3533807694911957 -0.3524278700351715 -0.8665544986724854
 outer loop
  vertex 621500.0 5301500.0 9508.5
  vertex 622500.0 5300500.0 9507.400390625
  vertex 621500.0 5300500.0 9915.2001953125
 endloop
endfacet
facet normal -0.027579428628087044 -0.026480622589588165 -0.9992687702178955
 outer loop
  vertex 621500.0 5301500.0 9508.5
  vertex 622500.0 5301500.0 9480.900390625
  vertex 622500.0 5300500.0 9507.400390625
 endloop
endfacet
facet normal -0.5214825868606567 -0.1451268345117569 -0.8408294320106506
 outer loop
  vertex 617500.0 5302500.0 10778.2001953125
  vertex 618500.0 5301500.0 10330.599609375
  vertex 617500.0 5301500.0 10950.7998046875
 endloop
endfacet
facet normal -0.3225198984146118 0.09884568303823471 -0.9413874745368958
 outer loop
  vertex 617500.0 5302500.0 10778.2001953125
  vertex 618500.0 5302500.0 10435.599609375
  vertex 618500.0 5301500.0 10330.599609375
 endloop
endfacet
facet normal -0.41061049699783325 0.09521669894456863 -0.9068257212638855
 outer loop
  vertex 618500.0 5302500.0 10435.599609375
  vertex 619500.0 5301500.0 9877.7998046875
  vertex 618500.0 5301500.0 10330.599609375
 endloop
endfacet
facet normal -0.5849135518074036 -0.13919678330421448 -0.799062192440033
 outer loop
  vertex 618500.0 5302500.0 10435.599609375
  vertex 619500.0 5302500.0 9703.599609375
  vertex 619500.0 5301500.0 9877.7998046875
 endloop
endfacet
facet normal -0.011229575611650944 -0.1716049164533615 -0.9851018190383911
 outer loop
  vertex 619500.0 5302500.0 9703.599609375
  vertex 620500.0 5301500.0 9866.400390625
  vertex 619500.0 5301500.0 9877.7998046875
 endloop
endfacet
facet normal 0.06196891516447067 -0.09970615804195404 -0.9930853843688965
 outer loop
  vertex 619500.0 5302500.0 9703.599609375
  vertex 620500.0 5302500.0 9766.0
  vertex 620500.0 5301500.0 9866.400390625
 endloop
endfacet
facet normal -0.33547335863113403 -0.09410902857780457 -0.9373372197151184
 outer loop
  vertex 620500.0 5302500.0 9766.0
  vertex 621500.0 5301500.0 9508.5
  vertex 620500.0 5301500.0 9866.400390625
 endloop
endfacet
facet normal -0.34232857823371887 -0.10181122273206711 -0.9340479373931885
 outer loop
  vertex 620500.0 5302500.0 9766.0
  vertex 621500.0 5302500.0 9399.5
  vertex 621500.0 5301500.0 9508.5
 endloop
endfacet
facet normal -0.02742677927017212 -0.10831743478775024 -0.9937379360198975
 outer loop
  vertex 621500.0 5302500.0 9399.5
  vertex 622500.0 5301500.0 9480.900390625
  vertex 621500.0 5301500.0 9508.5
 endloop
endfacet
facet normal 0.10626060515642166 0.025347387418150902 -0.9940151572227478
 outer loop
  vertex 621500.0 5302500.0 9399.5
  vertex 622500.0 5302500.0 9506.400390625
  vertex 622500.0 5301500.0 9480.900390625
 endloop
endfacet
facet normal 0.4536425769329071 0.022717799991369247 -0.8908941149711609
 outer loop
  vertex 622500.0 5302500.0 9506.400390625
  vertex 623500.0 5301500.0 9990.099609375
  vertex 622500.0 5301500.0 9480.900390625
 endloop
endfacet
facet normal 0.05118529126048088 0.09779810905456543 -0.9938891530036926
 outer loop
  vertex 616500.0 5303500.0 10825.099609375
  vertex 617500.0 5303500.0 10876.599609375
  vertex 617500.0 5302500.0 10778.2001953125
 endloop
endfacet
facet normal -0.3227119743824005 0.09268713742494583 -0.9419481158256531
 outer loop
  vertex 617500.0 5303500.0 10876.599609375
  vertex 618500.0 5302500.0 10435.599609375
  vertex 617500.0 5302500.0 10778.2001953125
 endloop
endfacet
facet normal -0.1984446942806244 0.2224998027086258 -0.9545226693153381
 outer loop
  vertex 617500.0 5303500.0 10876.599609375
  vertex 618500.0 5303500.0 10668.7001953125
  vertex 618500.0 5302500.0 10435.599609375
 endloop
endfacet
facet normal -0.5804845690727234 0.1848515123128891 -0.7930117249488831
 outer loop
  vertex 618500.0 5303500.0 10668.7001953125
  vertex 619500.0 5302500.0 9703.599609375
  vertex 618500.0 5302500.0 10435.599609375
 endloop
endfacet
facet normal -0.7010332942008972 -0.012905245646834373 -0.7130118012428284
 outer loop
  vertex 618500.0 5303500.0 10668.7001953125
  vertex 619500.0 5303500.0 9685.5
  vertex 619500.0 5302500.0 9703.599609375
 endloop
endfacet
facet normal 0.062269095331430435 -0.018061526119709015 -0.9978959560394287
 outer loop
  vertex 619500.0 5303500.0 9685.5
  vertex 620500.0 5302500.0 9766.0
  vertex 619500.0 5302500.0 9703.599609375
 endloop
endfacet
facet normal 0.047820188105106354 -0.032545026391744614 -0.9983256459236145
 outer loop
  vertex 619500.0 5303500.0 9685.5
  vertex 620500.0 5303500.0 9733.400390625
  vertex 620500.0 5302500.0 9766.0
 endloop
endfacet
facet normal -0.3439556062221527 -0.030594319105148315 -0.9384872913360596
 outer loop
  vertex 620500.0 5303500.0 9733.400390625
  vertex 621500.0 5302500.0 9399.5
  vertex 620500.0 5302500.0 9766.0
 endloop
endfacet
facet normal -0.32628682255744934 -0.010680700652301311 -0.9452103972434998
 outer loop
  vertex 620500.0 5303500.0 9733.400390625
  vertex 621500.0 5303500.0 9388.2001953125
  vertex 621500.0 5302500.0 9399.5
 endloop
endfacet
facet normal 0.10628806054592133 -0.011235078796744347 -0.9942719340324402
 outer loop
  vertex 621500.0 5303500.0 9388.2001953125
  vertex 622500.0 5302500.0 9506.400390625
  vertex 621500.0 5302500.0 9399.5
 endloop
endfacet
facet normal 0.3717055320739746 0.2665962874889374 -0.8892476558685303
 outer loop
  vertex 621500.0 5303500.0 9388.2001953125
  vertex 622500.0 5303500.0 9806.2001953125
  vertex 622500.0 5302500.0 9506.400390625
 endloop
endfacet
facet normal 0.050945427268743515 -0.13720564544200897 -0.9892315864562988
 outer loop
  vertex 616500.0 5304500.0 10686.400390625
  vertex 617500.0 5303500.0 10876.599609375
  vertex 616500.0 5303500.0 10825.099609375
 endloop
endfacet
facet normal 0.0828428864479065 -0.10563469678163528 -0.9909482598304749
 outer loop
  vertex 616500.0 5304500.0 10686.400390625
  vertex 617500.0 5304500.0 10770.0
  vertex 617500.0 5303500.0 10876.599609375
 endloop
endfacet
facet normal -0.20244745910167694 -0.10380414128303528 -0.9737760424613953
 outer loop
  vertex 617500.0 5304500.0 10770.0
  vertex 618500.0 5303500.0 10668.7001953125
  vertex 617500.0 5303500.0 10876.599609375
 endloop
endfacet
facet normal -0.4654819667339325 -0.38474011421203613 -0.7970581650733948
 outer loop
  vertex 617500.0 5304500.0 10770.0
  vertex 618500.0 5304500.0 10186.0
  vertex 618500.0 5303500.0 10668.7001953125
 endloop
endfacet
facet normal -0.6629213690757751 -0.32545992732048035 -0.6742485761642456
 outer loop
  vertex 618500.0 5304500.0 10186.0
  vertex 619500.0 5303500.0 9685.5
  vertex 618500.0 5303500.0 10668.7001953125
 endloop
endfacet
facet normal -0.29856452345848083 0.17134599387645721 -0.9388821721076965
 outer loop
  vertex 618500.0 5304500.0 10186.0
  vertex 619500.0 5304500.0 9868.0
  vertex 619500.0 5303500.0 9685.5
 endloop
endfacet
facet normal 0.04706985875964165 0.17933568358421326 -0.982661247253418
 outer loop
  vertex 619500.0 5304500.0 9868.0
  vertex 620500.0 5303500.0 9733.400390625
  vertex 619500.0 5303500.0 9685.5
 endloop
endfacet
facet normal -0.44351494312286377 -0.33142897486686707 -0.8327361345291138
 outer loop
  vertex 619500.0 5304500.0 9868.0
  vertex 620500.0 5304500.0 9335.400390625
  vertex 620500.0 5303500.0 9733.400390625
 endloop
endfacet
facet normal -0.3054071366786957 -0.35212042927742004 -0.8847246766090393
 outer loop
  vertex 620500.0 5304500.0 9335.400390625
  vertex 621500.0 5303500.0 9388.2001953125
  vertex 620500.0 5303500.0 9733.400390625
 endloop
endfacet
facet normal 0.06306998431682587 0.010378148406744003 -0.9979551434516907
 outer loop
  vertex 620500.0 5304500.0 9335.400390625
  vertex 621500.0 5304500.0 9398.599609375
  vertex 621500.0 5303500.0 9388.2001953125
 endloop
endfacet
facet normal 0.3856455981731415 0.009594469331204891 -0.9225971102714539
 outer loop
  vertex 621500.0 5304500.0 9398.599609375
  vertex 622500.0 5303500.0 9806.2001953125
  vertex 621500.0 5303500.0 9388.2001953125
 endloop
endfacet
facet normal 0.3088419735431671 -0.07754191011190414 -0.9479472637176514
 outer loop
  vertex 621500.0 5304500.0 9398.599609375
  vertex 622500.0 5304500.0 9724.400390625
  vertex 622500.0 5303500.0 9806.2001953125
 endloop
endfacet
facet normal -0.28936290740966797 -0.29709744453430176 -0.9099462628364563
 outer loop
  vertex 618500.0 5305500.0 9859.5
  vertex 619500.0 5304500.0 9868.0
  vertex 618500.0 5304500.0 10186.0
 endloop
endfacet
facet normal -0.03245561197400093 -0.04094400256872177 -0.9986341595649719
 outer loop
  vertex 618500.0 5305500.0 9859.5
  vertex 619500.0 5305500.0 9827.0
  vertex 619500.0 5304500.0 9868.0
 endloop
endfacet
facet normal -0.4697764813899994 -0.0361638180911541 -0.8820443153381348
 outer loop
  vertex 619500.0 5305500.0 9827.0
  vertex 620500.0 5304500.0 9335.400390625
  vertex 619500.0 5304500.0 9868.0
 endloop
endfacet
facet normal -0.45913687348365784 -0.022557541728019714 -0.888079047203064
 outer loop
  vertex 619500.0 5305500.0 9827.0
  vertex 620500.0 5305500.0 9310.0
  vertex 620500.0 5304500.0 9335.400390625
 endloop
endfacet
facet normal 0.06305313110351562 -0.02534167468547821 -0.9976884126663208
 outer loop
  vertex 620500.0 5305500.0 9310.0
  vertex 621500.0 5304500.0 9398.599609375
  vertex 620500.0 5304500.0 9335.400390625
 endloop
endfacet
facet normal 0.07428676635026932 -0.01405925303697586 -0.9971377849578857
 outer loop
  vertex 620500.0 5305500.0 9310.0
  vertex 621500.0 5305500.0 9384.5
  vertex 621500.0 5304500.0 9398.599609375
 endloop
endfacet
facet normal 0.30974677205085754 -0.0134048443287611 -0.9507245421409607
 outer loop
  vertex 621500.0 5305500.0 9384.5
  vertex 622500.0 5304500.0 9724.400390625
  vertex 621500.0 5304500.0 9398.599609375
 endloop
endfacet
facet normal 0.24124585092067719 -0.08727852255105972 -0.9665313959121704
 outer loop
  vertex 621500.0 5305500.0 9384.5
  vertex 622500.0 5305500.0 9634.099609375
  vertex 622500.0 5304500.0 9724.400390625
 endloop
endfacet
facet normal 0.015036719851195812 -0.08992468565702438 -0.9958350658416748
 outer loop
  vertex 622500.0 5305500.0 9634.099609375
  vertex 623500.0 5304500.0 9739.5
  vertex 622500.0 5304500.0 9724.400390625
 endloop
endfacet
facet normal -0.44781193137168884 -0.22182680666446686 -0.8661739826202393
 outer loop
  vertex 619500.0 5306500.0 9570.900390625
  vertex 620500.0 5305500.0 9310.0
  vertex 619500.0 5305500.0 9827.0
 endloop
endfacet
facet normal -0.24890947341918945 0.0037776038516312838 -0.968519389629364
 outer loop
  vertex 619500.0 5306500.0 9570.900390625
  vertex 620500.0 5306500.0 9313.900390625
  vertex 620500.0 5305500.0 9310.0
 endloop
endfacet
facet normal 0.07429354637861252 0.003889581887051463 -0.9972288012504578
 outer loop
  vertex 620500.0 5306500.0 9313.900390625
  vertex 621500.0 5305500.0 9384.5
  vertex 620500.0 5305500.0 9310.0
 endloop
endfacet
facet normal 0.33516743779182434 0.27147242426872253 -0.9022003412246704
 outer loop
  vertex 620500.0 5306500.0 9313.900390625
  vertex 621500.0 5306500.0 9685.400390625
  vertex 621500.0 5305500.0 9384.5
 endloop
endfacet
facet normal 0.23246584832668304 0.2802450954914093 -0.9313550591468811
 outer loop
  vertex 621500.0 5306500.0 9685.400390625
  vertex 622500.0 5305500.0 9634.099609375
  vertex 621500.0 5305500.0 9384.5
 endloop
endfacet
endsolid
