solid
facet normal 0.30872172117233276 -0.28997036814689636 -0.9058741331100464
 outer loop
  vertex 589500.0 5644500.0 6005.0
  vertex 590500.0 5644500.0 6345.7998046875
  vertex 590500.0 5643500.0 6665.89990234375
 endloop
endfacet
facet normal -0.18675395846366882 -0.29949867725372314 -0.9356406927108765
 outer loop
  vertex 590500.0 5644500.0 6345.7998046875
  vertex 591500.0 5643500.0 6466.2998046875
  vertex 590500.0 5643500.0 6665.89990234375
 endloop
endfacet
facet normal -0.4389173686504364 -0.5266426205635071 -0.7280104160308838
 outer loop
  vertex 590500.0 5644500.0 6345.7998046875
  vertex 591500.0 5644500.0 5742.89990234375
  vertex 591500.0 5643500.0 6466.2998046875
 endloop
endfacet
facet normal 0.3848322629928589 -0.5409785509109497 -0.7478277683258057
 outer loop
  vertex 591500.0 5644500.0 5742.89990234375
  vertex 592500.0 5643500.0 6980.89990234375
  vertex 591500.0 5643500.0 6466.2998046875
 endloop
endfacet
facet normal 0.23591075837612152 -0.6539653539657593 -0.7188013792037964
 outer loop
  vertex 591500.0 5644500.0 5742.89990234375
  vertex 592500.0 5644500.0 6071.10009765625
  vertex 592500.0 5643500.0 6980.89990234375
 endloop
endfacet
facet normal 0.27412480115890503 0.148417130112648 -0.9501726031303406
 outer loop
  vertex 588500.0 5645500.0 5872.7001953125
  vertex 589500.0 5645500.0 6161.2001953125
  vertex 589500.0 5644500.0 6005.0
 endloop
endfacet
facet normal 0.31911227107048035 0.14626003801822662 -0.9363628029823303
 outer loop
  vertex 589500.0 5645500.0 6161.2001953125
  vertex 590500.0 5644500.0 6345.7998046875
  vertex 589500.0 5644500.0 6005.0
 endloop
endfacet
facet normal -0.18449239432811737 -0.35376274585723877 -0.9169593453407288
 outer loop
  vertex 589500.0 5645500.0 6161.2001953125
  vertex 590500.0 5645500.0 5960.0
  vertex 590500.0 5644500.0 6345.7998046875
 endloop
endfacet
facet normal -0.4902549088001251 -0.3137175142765045 -0.8131614327430725
 outer loop
  vertex 590500.0 5645500.0 5960.0
  vertex 591500.0 5644500.0 5742.89990234375
  vertex 590500.0 5644500.0 6345.7998046875
 endloop
endfacet
facet normal -0.5178831815719604 -0.34825053811073303 -0.781356930732727
 outer loop
  vertex 590500.0 5645500.0 5960.0
  vertex 591500.0 5645500.0 5297.2001953125
  vertex 591500.0 5644500.0 5742.89990234375
 endloop
endfacet
facet normal 0.2871486246585846 -0.38995125889778137 -0.8749192357063293
 outer loop
  vertex 591500.0 5645500.0 5297.2001953125
  vertex 592500.0 5644500.0 6071.10009765625
  vertex 591500.0 5644500.0 5742.89990234375
 endloop
endfacet
facet normal 0.47103625535964966 -0.19478091597557068 -0.8603402376174927
 outer loop
  vertex 591500.0 5645500.0 5297.2001953125
  vertex 592500.0 5645500.0 5844.7001953125
  vertex 592500.0 5644500.0 6071.10009765625
 endloop
endfacet
facet normal -0.35951703786849976 -0.04855075478553772 -0.9318746328353882
 outer loop
  vertex 586500.0 5646500.0 6471.2998046875
  vertex 587500.0 5646500.0 6085.5
  vertex 587500.0 5645500.0 6137.60009765625
 endloop
endfacet
facet normal -0.25574368238449097 -0.0502992682158947 -0.9654352068901062
 outer loop
  vertex 587500.0 5646500.0 6085.5
  vertex 588500.0 5645500.0 5872.7001953125
  vertex 587500.0 5645500.0 6137.60009765625
 endloop
endfacet
facet normal -0.4333336651325226 -0.24901755154132843 -0.8661479949951172
 outer loop
  vertex 587500.0 5646500.0 6085.5
  vertex 588500.0 5646500.0 5585.2001953125
  vertex 588500.0 5645500.0 5872.7001953125
 endloop
endfacet
facet normal 0.2671882212162018 -0.26626211404800415 -0.9261290431022644
 outer loop
  vertex 588500.0 5646500.0 5585.2001953125
  vertex 589500.0 5645500.0 6161.2001953125
  vertex 588500.0 5645500.0 5872.7001953125
 endloop
endfacet
facet normal 0.3592934012413025 -0.1693221777677536 -0.9177353382110596
 outer loop
  vertex 588500.0 5646500.0 5585.2001953125
  vertex 589500.0 5646500.0 5976.7001953125
  vertex 589500.0 5645500.0 6161.2001953125
 endloop
endfacet
facet normal -0.1940978616476059 -0.17798718810081482 -0.9647002220153809
 outer loop
  vertex 589500.0 5646500.0 5976.7001953125
  vertex 590500.0 5645500.0 5960.0
  vertex 589500.0 5645500.0 6161.2001953125
 endloop
endfacet
facet normal -0.5859493017196655 -0.5764378309249878 -0.5695462226867676
 outer loop
  vertex 589500.0 5646500.0 5976.7001953125
  vertex 590500.0 5646500.0 4947.89990234375
  vertex 590500.0 5645500.0 5960.0
 endloop
endfacet
facet normal -0.42227256298065186 -0.6448132395744324 -0.6371041536331177
 outer loop
  vertex 590500.0 5646500.0 4947.89990234375
  vertex 591500.0 5645500.0 5297.2001953125
  vertex 590500.0 5645500.0 5960.0
 endloop
endfacet
facet normal 0.6510356664657593 0.43335890769958496 -0.6231794357299805
 outer loop
  vertex 590500.0 5646500.0 4947.89990234375
  vertex 591500.0 5646500.0 5992.60009765625
  vertex 591500.0 5645500.0 5297.2001953125
 endloop
endfacet
facet normal 0.40998443961143494 0.5207363367080688 -0.7488300204277039
 outer loop
  vertex 591500.0 5646500.0 5992.60009765625
  vertex 592500.0 5645500.0 5844.7001953125
  vertex 591500.0 5645500.0 5297.2001953125
 endloop
endfacet
facet normal -0.5279507040977478 -0.4186660945415497 -0.7389092445373535
 outer loop
  vertex 591500.0 5646500.0 5992.60009765625
  vertex 592500.0 5646500.0 5278.10009765625
  vertex 592500.0 5645500.0 5844.7001953125
 endloop
endfacet
facet normal 0.08547233045101166 -0.49116477370262146 -0.8668631315231323
 outer loop
  vertex 592500.0 5646500.0 5278.10009765625
  vertex 593500.0 5645500.0 5943.2998046875
  vertex 592500.0 5645500.0 5844.7001953125
 endloop
endfacet
facet normal 0.49688565731048584 -0.07804608345031738 -0.864299476146698
 outer loop
  vertex 592500.0 5646500.0 5278.10009765625
  vertex 593500.0 5646500.0 5853.0
  vertex 593500.0 5645500.0 5943.2998046875
 endloop
endfacet
facet normal -0.44889700412750244 -0.0803634375333786 -0.8899624943733215
 outer loop
  vertex 593500.0 5646500.0 5853.0
  vertex 594500.0 5645500.0 5438.89990234375
  vertex 593500.0 5645500.0 5943.2998046875
 endloop
endfacet
facet normal -0.6448104381561279 -0.3672180771827698 -0.6703509092330933
 outer loop
  vertex 593500.0 5646500.0 5853.0
  vertex 594500.0 5646500.0 4891.10009765625
  vertex 594500.0 5645500.0 5438.89990234375
 endloop
endfacet
facet normal 0.03525127097964287 -0.6333617568016052 -0.7730525732040405
 outer loop
  vertex 585500.0 5647500.0 5606.39990234375
  vertex 586500.0 5647500.0 5652.0
  vertex 586500.0 5646500.0 6471.2998046875
 endloop
endfacet
facet normal -0.2859664857387543 -0.6072897911071777 -0.7412302494049072
 outer loop
  vertex 586500.0 5647500.0 5652.0
  vertex 587500.0 5646500.0 6085.5
  vertex 586500.0 5646500.0 6471.2998046875
 endloop
endfacet
facet normal -0.22484077513217926 -0.56803959608078 -0.791692852973938
 outer loop
  vertex 586500.0 5647500.0 5652.0
  vertex 587500.0 5647500.0 5368.0
  vertex 587500.0 5646500.0 6085.5
 endloop
endfacet
facet normal -0.37656930088996887 -0.540053129196167 -0.7526872754096985
 outer loop
  vertex 587500.0 5647500.0 5368.0
  vertex 588500.0 5646500.0 5585.2001953125
  vertex 587500.0 5646500.0 6085.5
 endloop
endfacet
facet normal 0.18545004725456238 -0.02789648436009884 -0.982257604598999
 outer loop
  vertex 587500.0 5647500.0 5368.0
  vertex 588500.0 5647500.0 5556.7998046875
  vertex 588500.0 5646500.0 5585.2001953125
 endloop
endfacet
facet normal 0.36442992091178894 -0.026436658576130867 -0.9308554530143738
 outer loop
  vertex 588500.0 5647500.0 5556.7998046875
  vertex 589500.0 5646500.0 5976.7001953125
  vertex 588500.0 5646500.0 5585.2001953125
 endloop
endfacet
facet normal -0.40764445066452026 -0.6687337756156921 -0.6217886805534363
 outer loop
  vertex 588500.0 5647500.0 5556.7998046875
  vertex 589500.0 5647500.0 4901.2001953125
  vertex 589500.0 5646500.0 5976.7001953125
 endloop
endfacet
facet normal -0.5737619996070862 -0.5998064279556274 -0.5577000379562378
 outer loop
  vertex 589500.0 5647500.0 4901.2001953125
  vertex 590500.0 5646500.0 4947.89990234375
  vertex 589500.0 5646500.0 5976.7001953125
 endloop
endfacet
facet normal -0.036152251064777374 -0.08266150951385498 -0.995921790599823
 outer loop
  vertex 589500.0 5647500.0 4901.2001953125
  vertex 590500.0 5647500.0 4864.89990234375
  vertex 590500.0 5646500.0 4947.89990234375
 endloop
endfacet
facet normal 0.7212057709693909 -0.05729880556464195 -0.6903470754623413
 outer loop
  vertex 590500.0 5647500.0 4864.89990234375
  vertex 591500.0 5646500.0 5992.60009765625
  vertex 590500.0 5646500.0 4947.89990234375
 endloop
endfacet
facet normal -0.018318161368370056 -0.75608229637146 -0.6542201042175293
 outer loop
  vertex 590500.0 5647500.0 4864.89990234375
  vertex 591500.0 5647500.0 4836.89990234375
  vertex 591500.0 5646500.0 5992.60009765625
 endloop
endfacet
facet normal -0.42351922392845154 -0.6850402355194092 -0.5927490592002869
 outer loop
  vertex 591500.0 5647500.0 4836.89990234375
  vertex 592500.0 5646500.0 5278.10009765625
  vertex 591500.0 5646500.0 5992.60009765625
 endloop
endfacet
facet normal 0.012873346917331219 -0.39282116293907166 -0.9195247888565063
 outer loop
  vertex 591500.0 5647500.0 4836.89990234375
  vertex 592500.0 5647500.0 4850.89990234375
  vertex 592500.0 5646500.0 5278.10009765625
 endloop
endfacet
facet normal 0.4673813283443451 -0.3473045825958252 -0.8129785656929016
 outer loop
  vertex 592500.0 5647500.0 4850.89990234375
  vertex 593500.0 5646500.0 5853.0
  vertex 592500.0 5646500.0 5278.10009765625
 endloop
endfacet
facet normal -0.00919264741241932 -0.7123900055885315 -0.7017236351966858
 outer loop
  vertex 592500.0 5647500.0 4850.89990234375
  vertex 593500.0 5647500.0 4837.7998046875
  vertex 593500.0 5646500.0 5853.0
 endloop
endfacet
facet normal -0.5594821572303772 -0.5904839038848877 -0.5816428661346436
 outer loop
  vertex 593500.0 5647500.0 4837.7998046875
  vertex 594500.0 5646500.0 4891.10009765625
  vertex 593500.0 5646500.0 5853.0
 endloop
endfacet
facet normal 0.5332647562026978 0.49676865339279175 -0.6847259402275085
 outer loop
  vertex 593500.0 5647500.0 4837.7998046875
  vertex 594500.0 5647500.0 5616.60009765625
  vertex 594500.0 5646500.0 4891.10009765625
 endloop
endfacet
facet normal 0.1661001592874527 0.5790754556655884 -0.7981743216514587
 outer loop
  vertex 594500.0 5647500.0 5616.60009765625
  vertex 595500.0 5646500.0 5099.2001953125
  vertex 594500.0 5646500.0 4891.10009765625
 endloop
endfacet
facet normal -0.46176981925964355 -0.002838551066815853 -0.886995255947113
 outer loop
  vertex 594500.0 5647500.0 5616.60009765625
  vertex 595500.0 5647500.0 5096.0
  vertex 595500.0 5646500.0 5099.2001953125
 endloop
endfacet
facet normal -0.33359962701797485 -0.4639212191104889 -0.820663332939148
 outer loop
  vertex 583500.0 5648500.0 5544.89990234375
  vertex 584500.0 5647500.0 5703.7001953125
  vertex 583500.0 5647500.0 6110.2001953125
 endloop
endfacet
facet normal 0.011475672945380211 -0.14562131464481354 -0.9892738461494446
 outer loop
  vertex 583500.0 5648500.0 5544.89990234375
  vertex 584500.0 5648500.0 5556.5
  vertex 584500.0 5647500.0 5703.7001953125
 endloop
endfacet
facet normal -0.09582002460956573 -0.14496079087257385 -0.9847866892814636
 outer loop
  vertex 584500.0 5648500.0 5556.5
  vertex 585500.0 5647500.0 5606.39990234375
  vertex 584500.0 5647500.0 5703.7001953125
 endloop
endfacet
facet normal 0.21106967329978943 0.1629767268896103 -0.9637884497642517
 outer loop
  vertex 584500.0 5648500.0 5556.5
  vertex 585500.0 5648500.0 5775.5
  vertex 585500.0 5647500.0 5606.39990234375
 endloop
endfacet
facet normal 0.044916409999132156 0.16656476259231567 -0.9850069880485535
 outer loop
  vertex 585500.0 5648500.0 5775.5
  vertex 586500.0 5647500.0 5652.0
  vertex 585500.0 5647500.0 5606.39990234375
 endloop
endfacet
facet normal -0.08244962990283966 0.0405280664563179 -0.9957708120346069
 outer loop
  vertex 585500.0 5648500.0 5775.5
  vertex 586500.0 5648500.0 5692.7001953125
  vertex 586500.0 5647500.0 5652.0
 endloop
endfacet
facet normal -0.2729870080947876 0.03912191838026047 -0.9612219333648682
 outer loop
  vertex 586500.0 5648500.0 5692.7001953125
  vertex 587500.0 5647500.0 5368.0
  vertex 586500.0 5647500.0 5652.0
 endloop
endfacet
facet normal -0.5715389251708984 -0.32719555497169495 -0.752519965171814
 outer loop
  vertex 586500.0 5648500.0 5692.7001953125
  vertex 587500.0 5648500.0 4933.2001953125
  vertex 587500.0 5647500.0 5368.0
 endloop
endfacet
facet normal 0.17060327529907227 -0.3928937613964081 -0.9036198854446411
 outer loop
  vertex 587500.0 5648500.0 4933.2001953125
  vertex 588500.0 5647500.0 5556.7998046875
  vertex 587500.0 5647500.0 5368.0
 endloop
endfacet
facet normal -0.15705491602420807 -0.6308783292770386 -0.7598198652267456
 outer loop
  vertex 587500.0 5648500.0 4933.2001953125
  vertex 588500.0 5648500.0 4726.5
  vertex 588500.0 5647500.0 5556.7998046875
 endloop
endfacet
facet normal -0.450351744890213 -0.5703587532043457 -0.6869310736656189
 outer loop
  vertex 588500.0 5648500.0 4726.5
  vertex 589500.0 5647500.0 4901.2001953125
  vertex 588500.0 5647500.0 5556.7998046875
 endloop
endfacet
facet normal 0.22937336564064026 0.05965055897831917 -0.9715089797973633
 outer loop
  vertex 588500.0 5648500.0 4726.5
  vertex 589500.0 5648500.0 4962.60009765625
  vertex 589500.0 5647500.0 4901.2001953125
 endloop
endfacet
facet normal -0.03620830178260803 0.06124430522322655 -0.9974657893180847
 outer loop
  vertex 589500.0 5648500.0 4962.60009765625
  vertex 590500.0 5647500.0 4864.89990234375
  vertex 589500.0 5647500.0 4901.2001953125
 endloop
endfacet
facet normal 0.14860749244689941 0.2422783374786377 -0.9587580561637878
 outer loop
  vertex 589500.0 5648500.0 4962.60009765625
  vertex 590500.0 5648500.0 5117.60009765625
  vertex 590500.0 5647500.0 4864.89990234375
 endloop
endfacet
facet normal -0.027136657387018204 0.24490851163864136 -0.9691663384437561
 outer loop
  vertex 590500.0 5648500.0 5117.60009765625
  vertex 591500.0 5647500.0 4836.89990234375
  vertex 590500.0 5647500.0 4864.89990234375
 endloop
endfacet
facet normal -0.3077099621295929 -0.0408758744597435 -0.9506017565727234
 outer loop
  vertex 590500.0 5648500.0 5117.60009765625
  vertex 591500.0 5648500.0 4793.89990234375
  vertex 591500.0 5647500.0 4836.89990234375
 endloop
endfacet
facet normal 0.013985707424581051 -0.04295610263943672 -0.9989790916442871
 outer loop
  vertex 591500.0 5648500.0 4793.89990234375
  vertex 592500.0 5647500.0 4850.89990234375
  vertex 591500.0 5647500.0 4836.89990234375
 endloop
endfacet
facet normal 0.29958778619766235 0.2470608800649643 -0.9215247631072998
 outer loop
  vertex 591500.0 5648500.0 4793.89990234375
  vertex 592500.0 5648500.0 5119.0
  vertex 592500.0 5647500.0 4850.89990234375
 endloop
endfacet
facet normal -0.012652228586375713 0.2589343190193176 -0.965812087059021
 outer loop
  vertex 592500.0 5648500.0 5119.0
  vertex 593500.0 5647500.0 4837.7998046875
  vertex 592500.0 5647500.0 4850.89990234375
 endloop
endfacet
facet normal 0.319359689950943 0.5386077165603638 -0.7796865701675415
 outer loop
  vertex 592500.0 5648500.0 5119.0
  vertex 593500.0 5648500.0 5528.60009765625
  vertex 593500.0 5647500.0 4837.7998046875
 endloop
endfacet
facet normal 0.5395166873931885 0.4785543978214264 -0.6927535533905029
 outer loop
  vertex 593500.0 5648500.0 5528.60009765625
  vertex 594500.0 5647500.0 5616.60009765625
  vertex 593500.0 5647500.0 4837.7998046875
 endloop
endfacet
facet normal 0.036626916378736496 -0.05119854584336281 -0.9980166554450989
 outer loop
  vertex 593500.0 5648500.0 5528.60009765625
  vertex 594500.0 5648500.0 5565.2998046875
  vertex 594500.0 5647500.0 5616.60009765625
 endloop
endfacet
facet normal -0.46129435300827026 -0.04545626416802406 -0.8860819935798645
 outer loop
  vertex 594500.0 5648500.0 5565.2998046875
  vertex 595500.0 5647500.0 5096.0
  vertex 594500.0 5647500.0 5616.60009765625
 endloop
endfacet
facet normal -0.44137024879455566 -0.020364202558994293 -0.8970940113067627
 outer loop
  vertex 594500.0 5648500.0 5565.2998046875
  vertex 595500.0 5648500.0 5073.2998046875
  vertex 595500.0 5647500.0 5096.0
 endloop
endfacet
facet normal 0.42749109864234924 -0.020516134798526764 -0.9037867188453674
 outer loop
  vertex 595500.0 5648500.0 5073.2998046875
  vertex 596500.0 5647500.0 5569.0
  vertex 595500.0 5647500.0 5096.0
 endloop
endfacet
facet normal 0.17819717526435852 -0.2881819009780884 -0.9408490657806396
 outer loop
  vertex 595500.0 5648500.0 5073.2998046875
  vertex 596500.0 5648500.0 5262.7001953125
  vertex 596500.0 5647500.0 5569.0
 endloop
endfacet
facet normal -0.4523508846759796 -0.6046422719955444 -0.655580997467041
 outer loop
  vertex 582500.0 5649500.0 5312.60009765625
  vertex 583500.0 5649500.0 4622.60009765625
  vertex 583500.0 5648500.0 5544.89990234375
 endloop
endfacet
facet normal 0.008526758290827274 -0.6779469847679138 -0.7350613474845886
 outer loop
  vertex 583500.0 5649500.0 4622.60009765625
  vertex 584500.0 5648500.0 5556.5
  vertex 583500.0 5648500.0 5544.89990234375
 endloop
endfacet
facet normal 0.11187321692705154 -0.6161991357803345 -0.7796043157577515
 outer loop
  vertex 583500.0 5649500.0 4622.60009765625
  vertex 584500.0 5649500.0 4766.10009765625
  vertex 584500.0 5648500.0 5556.5
 endloop
endfacet
facet normal 0.16933082044124603 -0.6111372709274292 -0.7732000946998596
 outer loop
  vertex 584500.0 5649500.0 4766.10009765625
  vertex 585500.0 5648500.0 5775.5
  vertex 584500.0 5648500.0 5556.5
 endloop
endfacet
facet normal 0.518416702747345 -0.29263415932655334 -0.8034980893135071
 outer loop
  vertex 584500.0 5649500.0 4766.10009765625
  vertex 585500.0 5649500.0 5411.2998046875
  vertex 585500.0 5648500.0 5775.5
 endloop
endfacet
facet normal -0.0775662288069725 -0.3411799371242523 -0.936792254447937
 outer loop
  vertex 585500.0 5649500.0 5411.2998046875
  vertex 586500.0 5648500.0 5692.7001953125
  vertex 585500.0 5648500.0 5775.5
 endloop
endfacet
facet normal -0.39812639355659485 -0.5946753621101379 -0.6984673738479614
 outer loop
  vertex 585500.0 5649500.0 5411.2998046875
  vertex 586500.0 5649500.0 4841.2998046875
  vertex 586500.0 5648500.0 5692.7001953125
 endloop
endfacet
facet normal -0.5006120204925537 -0.5611866116523743 -0.6591336727142334
 outer loop
  vertex 586500.0 5649500.0 4841.2998046875
  vertex 587500.0 5648500.0 4933.2001953125
  vertex 586500.0 5648500.0 5692.7001953125
 endloop
endfacet
facet normal -0.025812553241848946 -0.11705038696527481 -0.9927904605865479
 outer loop
  vertex 586500.0 5649500.0 4841.2998046875
  vertex 587500.0 5649500.0 4815.2998046875
  vertex 587500.0 5648500.0 4933.2001953125
 endloop
endfacet
facet normal -0.20108531415462494 -0.11469770222902298 -0.9728356599807739
 outer loop
  vertex 587500.0 5649500.0 4815.2998046875
  vertex 588500.0 5648500.0 4726.5
  vertex 587500.0 5648500.0 4933.2001953125
 endloop
endfacet
facet normal 0.4516122043132782 0.5162320137023926 -0.7277023792266846
 outer loop
  vertex 587500.0 5649500.0 4815.2998046875
  vertex 588500.0 5649500.0 5435.89990234375
  vertex 588500.0 5648500.0 4726.5
 endloop
endfacet
facet normal 0.1890924721956253 0.5681581497192383 -0.8008997440338135
 outer loop
  vertex 588500.0 5649500.0 5435.89990234375
  vertex 589500.0 5648500.0 4962.60009765625
  vertex 588500.0 5648500.0 4726.5
 endloop
endfacet
facet normal 0.3422815203666687 0.6591863036155701 -0.6695645451545715
 outer loop
  vertex 588500.0 5649500.0 5435.89990234375
  vertex 589500.0 5649500.0 5947.10009765625
  vertex 589500.0 5648500.0 4962.60009765625
 endloop
endfacet
facet normal 0.10978654772043228 0.6973216533660889 -0.7083003520965576
 outer loop
  vertex 589500.0 5649500.0 5947.10009765625
  vertex 590500.0 5648500.0 5117.60009765625
  vertex 589500.0 5648500.0 4962.60009765625
 endloop
endfacet
facet normal -0.6015422940254211 0.05926985293626785 -0.7966391444206238
 outer loop
  vertex 589500.0 5649500.0 5947.10009765625
  vertex 590500.0 5649500.0 5192.0
  vertex 590500.0 5648500.0 5117.60009765625
 endloop
endfacet
facet normal -0.30719873309135437 0.07060717791318893 -0.9490224123001099
 outer loop
  vertex 590500.0 5649500.0 5192.0
  vertex 591500.0 5648500.0 4793.89990234375
  vertex 590500.0 5648500.0 5117.60009765625
 endloop
endfacet
facet normal -0.2193950116634369 0.1635122150182724 -0.961836576461792
 outer loop
  vertex 590500.0 5649500.0 5192.0
  vertex 591500.0 5649500.0 4963.89990234375
  vertex 591500.0 5648500.0 4793.89990234375
 endloop
endfacet
facet normal 0.3052091896533966 0.15959873795509338 -0.9388160705566406
 outer loop
  vertex 591500.0 5649500.0 4963.89990234375
  vertex 592500.0 5648500.0 5119.0
  vertex 591500.0 5648500.0 4793.89990234375
 endloop
endfacet
facet normal 0.4111359715461731 0.27640706300735474 -0.8686577677726746
 outer loop
  vertex 591500.0 5649500.0 4963.89990234375
  vertex 592500.0 5649500.0 5437.2001953125
  vertex 592500.0 5648500.0 5119.0
 endloop
endfacet
facet normal 0.36360108852386475 0.2824656069278717 -0.8876978158950806
 outer loop
  vertex 592500.0 5649500.0 5437.2001953125
  vertex 593500.0 5648500.0 5528.60009765625
  vertex 592500.0 5648500.0 5119.0
 endloop
endfacet
facet normal 0.18393617868423462 0.094511978328228 -0.9783838987350464
 outer loop
  vertex 592500.0 5649500.0 5437.2001953125
  vertex 593500.0 5649500.0 5625.2001953125
  vertex 593500.0 5648500.0 5528.60009765625
 endloop
endfacet
facet normal 0.036505311727523804 0.09608841687440872 -0.9947031140327454
 outer loop
  vertex 593500.0 5649500.0 5625.2001953125
  vertex 594500.0 5648500.0 5565.2998046875
  vertex 593500.0 5648500.0 5528.60009765625
 endloop
endfacet
facet normal 0.1484563648700714 0.20638857781887054 -0.9671424031257629
 outer loop
  vertex 593500.0 5649500.0 5625.2001953125
  vertex 594500.0 5649500.0 5778.7001953125
  vertex 594500.0 5648500.0 5565.2998046875
 endloop
endfacet
facet normal -0.4335847496986389 0.18806332349777222 -0.8812698125839233
 outer loop
  vertex 594500.0 5649500.0 5778.7001953125
  vertex 595500.0 5648500.0 5073.2998046875
  vertex 594500.0 5648500.0 5565.2998046875
 endloop
endfacet
facet normal -0.4608956277370453 0.15543793141841888 -0.873735785484314
 outer loop
  vertex 594500.0 5649500.0 5778.7001953125
  vertex 595500.0 5649500.0 5251.2001953125
  vertex 595500.0 5648500.0 5073.2998046875
 endloop
endfacet
facet normal 0.18331272900104523 0.1721823662519455 -0.9678582549095154
 outer loop
  vertex 595500.0 5649500.0 5251.2001953125
  vertex 596500.0 5648500.0 5262.7001953125
  vertex 595500.0 5648500.0 5073.2998046875
 endloop
endfacet
facet normal -0.20635820925235748 -0.21732962131500244 -0.9540356993675232
 outer loop
  vertex 595500.0 5649500.0 5251.2001953125
  vertex 596500.0 5649500.0 5034.89990234375
  vertex 596500.0 5648500.0 5262.7001953125
 endloop
endfacet
facet normal 0.14204370975494385 0.004157086834311485 -0.9898516535758972
 outer loop
  vertex 583500.0 5650500.0 4626.7998046875
  vertex 584500.0 5649500.0 4766.10009765625
  vertex 583500.0 5649500.0 4622.60009765625
 endloop
endfacet
facet normal -0.008012771606445312 -0.14581958949565887 -0.9892787337303162
 outer loop
  vertex 583500.0 5650500.0 4626.7998046875
  vertex 584500.0 5650500.0 4618.7001953125
  vertex 584500.0 5649500.0 4766.10009765625
 endloop
endfacet
facet normal 0.5380384922027588 -0.12291824817657471 -0.8339099287986755
 outer loop
  vertex 584500.0 5650500.0 4618.7001953125
  vertex 585500.0 5649500.0 5411.2998046875
  vertex 584500.0 5649500.0 4766.10009765625
 endloop
endfacet
facet normal 0.13003216683864594 -0.5327552556991577 -0.8362196683883667
 outer loop
  vertex 584500.0 5650500.0 4618.7001953125
  vertex 585500.0 5650500.0 4774.2001953125
  vertex 585500.0 5649500.0 5411.2998046875
 endloop
endfacet
facet normal -0.4332633316516876 -0.4842665195465088 -0.7601110935211182
 outer loop
  vertex 585500.0 5650500.0 4774.2001953125
  vertex 586500.0 5649500.0 4841.2998046875
  vertex 585500.0 5649500.0 5411.2998046875
 endloop
endfacet
facet normal 0.01817498356103897 -0.04883347451686859 -0.9986415505409241
 outer loop
  vertex 585500.0 5650500.0 4774.2001953125
  vertex 586500.0 5650500.0 4792.39990234375
  vertex 586500.0 5649500.0 4841.2998046875
 endloop
endfacet
facet normal -0.025960218161344528 -0.04882508143782616 -0.998469889163971
 outer loop
  vertex 586500.0 5650500.0 4792.39990234375
  vertex 587500.0 5649500.0 4815.2998046875
  vertex 586500.0 5649500.0 4841.2998046875
 endloop
endfacet
facet normal 0.6100746393203735 0.598175585269928 -0.5196104049682617
 outer loop
  vertex 586500.0 5650500.0 4792.39990234375
  vertex 587500.0 5650500.0 5966.5
  vertex 587500.0 5649500.0 4815.2998046875
 endloop
endfacet
facet normal 0.3769594430923462 0.6992518901824951 -0.6074111461639404
 outer loop
  vertex 587500.0 5650500.0 5966.5
  vertex 588500.0 5649500.0 5435.89990234375
  vertex 587500.0 5649500.0 4815.2998046875
 endloop
endfacet
facet normal -0.5882578492164612 -0.21688637137413025 -0.7790461778640747
 outer loop
  vertex 589500.0 5650500.0 5668.7001953125
  vertex 590500.0 5649500.0 5192.0
  vertex 589500.0 5649500.0 5947.10009765625
 endloop
endfacet
facet normal 0.051851704716682434 0.4715080261230469 -0.8803360462188721
 outer loop
  vertex 589500.0 5650500.0 5668.7001953125
  vertex 590500.0 5650500.0 5727.60009765625
  vertex 590500.0 5649500.0 5192.0
 endloop
endfacet
facet normal -0.19712957739830017 0.462878555059433 -0.8642241358757019
 outer loop
  vertex 590500.0 5650500.0 5727.60009765625
  vertex 591500.0 5649500.0 4963.89990234375
  vertex 590500.0 5649500.0 5192.0
 endloop
endfacet
facet normal -0.41728830337524414 0.24997110664844513 -0.8737190961837769
 outer loop
  vertex 590500.0 5650500.0 5727.60009765625
  vertex 591500.0 5650500.0 5250.0
  vertex 591500.0 5649500.0 4963.89990234375
 endloop
endfacet
facet normal 0.41417834162712097 0.2503621280193329 -0.8750857710838318
 outer loop
  vertex 591500.0 5650500.0 5250.0
  vertex 592500.0 5649500.0 5437.2001953125
  vertex 591500.0 5649500.0 4963.89990234375
 endloop
endfacet
facet normal 0.02387816458940506 -0.16083097457885742 -0.9866930842399597
 outer loop
  vertex 591500.0 5650500.0 5250.0
  vertex 592500.0 5650500.0 5274.2001953125
  vertex 592500.0 5649500.0 5437.2001953125
 endloop
endfacet
facet normal 0.18243719637393951 -0.15817692875862122 -0.9704105854034424
 outer loop
  vertex 592500.0 5650500.0 5274.2001953125
  vertex 593500.0 5649500.0 5625.2001953125
  vertex 592500.0 5649500.0 5437.2001953125
 endloop
endfacet
facet normal 0.42763370275497437 0.11282772570848465 -0.8968831300735474
 outer loop
  vertex 592500.0 5650500.0 5274.2001953125
  vertex 593500.0 5650500.0 5751.0
  vertex 593500.0 5649500.0 5625.2001953125
 endloop
endfacet
facet normal 0.15056344866752625 0.12339317798614502 -0.9808693528175354
 outer loop
  vertex 593500.0 5650500.0 5751.0
  vertex 594500.0 5649500.0 5778.7001953125
  vertex 593500.0 5649500.0 5625.2001953125
 endloop
endfacet
facet normal 0.03447869047522545 0.0067956047132611275 -0.9993823170661926
 outer loop
  vertex 593500.0 5650500.0 5751.0
  vertex 594500.0 5650500.0 5785.5
  vertex 594500.0 5649500.0 5778.7001953125
 endloop
endfacet
facet normal -0.4665580093860626 0.006014224607497454 -0.8844701647758484
 outer loop
  vertex 594500.0 5650500.0 5785.5
  vertex 595500.0 5649500.0 5251.2001953125
  vertex 594500.0 5649500.0 5778.7001953125
 endloop
endfacet
facet normal -0.07478472590446472 0.41072630882263184 -0.9086865186691284
 outer loop
  vertex 594500.0 5650500.0 5785.5
  vertex 595500.0 5650500.0 5703.2001953125
  vertex 595500.0 5649500.0 5251.2001953125
 endloop
endfacet
facet normal -0.19338060915470123 0.40410497784614563 -0.8940375447273254
 outer loop
  vertex 595500.0 5650500.0 5703.2001953125
  vertex 596500.0 5649500.0 5034.89990234375
  vertex 595500.0 5649500.0 5251.2001953125
 endloop
endfacet
facet normal -0.12157002836465836 0.46461495757102966 -0.8771280646324158
 outer loop
  vertex 595500.0 5650500.0 5703.2001953125
  vertex 596500.0 5650500.0 5564.60009765625
  vertex 596500.0 5649500.0 5034.89990234375
 endloop
endfacet
facet normal 0.05053291842341423 -0.511249840259552 -0.8579452037811279
 outer loop
  vertex 589500.0 5651500.0 5072.7998046875
  vertex 590500.0 5650500.0 5727.60009765625
  vertex 589500.0 5650500.0 5668.7001953125
 endloop
endfacet
facet normal 0.2528766989707947 -0.3401878774166107 -0.9057182669639587
 outer loop
  vertex 589500.0 5651500.0 5072.7998046875
  vertex 590500.0 5651500.0 5352.0
  vertex 590500.0 5650500.0 5727.60009765625
 endloop
endfacet
facet normal -0.4081638753414154 -0.32099321484565735 -0.8546143174171448
 outer loop
  vertex 590500.0 5651500.0 5352.0
  vertex 591500.0 5650500.0 5250.0
  vertex 590500.0 5650500.0 5727.60009765625
 endloop
endfacet
facet normal 0.08096103370189667 0.1809370070695877 -0.980156660079956
 outer loop
  vertex 590500.0 5651500.0 5352.0
  vertex 591500.0 5651500.0 5434.60009765625
  vertex 591500.0 5650500.0 5250.0
 endloop
endfacet
facet normal 0.023791363462805748 0.18148155510425568 -0.9831065535545349
 outer loop
  vertex 591500.0 5651500.0 5434.60009765625
  vertex 592500.0 5650500.0 5274.2001953125
  vertex 591500.0 5650500.0 5250.0
 endloop
endfacet
facet normal 0.3759628236293793 0.5009979605674744 -0.7795209884643555
 outer loop
  vertex 591500.0 5651500.0 5434.60009765625
  vertex 592500.0 5651500.0 5916.89990234375
  vertex 592500.0 5650500.0 5274.2001953125
 endloop
endfacet
facet normal 0.3722725808620453 0.5018028020858765 -0.780773401260376
 outer loop
  vertex 592500.0 5651500.0 5916.89990234375
  vertex 593500.0 5650500.0 5751.0
  vertex 592500.0 5650500.0 5274.2001953125
 endloop
endfacet
facet normal -0.050302837044000626 0.11429843306541443 -0.992172122001648
 outer loop
  vertex 592500.0 5651500.0 5916.89990234375
  vertex 593500.0 5651500.0 5866.2001953125
  vertex 593500.0 5650500.0 5751.0
 endloop
endfacet
facet normal 0.03425321727991104 0.11437615007162094 -0.9928468465805054
 outer loop
  vertex 593500.0 5651500.0 5866.2001953125
  vertex 594500.0 5650500.0 5785.5
  vertex 593500.0 5650500.0 5751.0
 endloop
endfacet
facet normal -0.10811981558799744 -0.027924353256821632 -0.9937456250190735
 outer loop
  vertex 593500.0 5651500.0 5866.2001953125
  vertex 594500.0 5651500.0 5757.39990234375
  vertex 594500.0 5650500.0 5785.5
 endloop
endfacet
facet normal -0.08199034631252289 -0.027994437143206596 -0.9962399005889893
 outer loop
  vertex 594500.0 5651500.0 5757.39990234375
  vertex 595500.0 5650500.0 5703.2001953125
  vertex 594500.0 5650500.0 5785.5
 endloop
endfacet
facet normal -0.18419604003429413 -0.1314019411802292 -0.9740663766860962
 outer loop
  vertex 594500.0 5651500.0 5757.39990234375
  vertex 595500.0 5651500.0 5568.2998046875
  vertex 595500.0 5650500.0 5703.2001953125
 endloop
endfacet
facet normal -0.13607825338840485 -0.13244585692882538 -0.9818049073219299
 outer loop
  vertex 595500.0 5651500.0 5568.2998046875
  vertex 596500.0 5650500.0 5564.60009765625
  vertex 595500.0 5650500.0 5703.2001953125
 endloop
endfacet
facet normal 0.20378008484840393 0.652504563331604 -0.7298708558082581
 outer loop
  vertex 589500.0 5652500.0 5966.7998046875
  vertex 590500.0 5651500.0 5352.0
  vertex 589500.0 5651500.0 5072.7998046875
 endloop
endfacet
facet normal -0.6138706803321838 -0.13577638566493988 -0.7776422500610352
 outer loop
  vertex 589500.0 5652500.0 5966.7998046875
  vertex 590500.0 5652500.0 5177.39990234375
  vertex 590500.0 5651500.0 5352.0
 endloop
endfacet
facet normal 0.08110108971595764 -0.1714314967393875 -0.9818522930145264
 outer loop
  vertex 590500.0 5652500.0 5177.39990234375
  vertex 591500.0 5651500.0 5434.60009765625
  vertex 590500.0 5651500.0 5352.0
 endloop
endfacet
facet normal 0.24179784953594208 -0.0077623650431632996 -0.9702956080436707
 outer loop
  vertex 590500.0 5652500.0 5177.39990234375
  vertex 591500.0 5652500.0 5426.60009765625
  vertex 591500.0 5651500.0 5434.60009765625
 endloop
endfacet
facet normal 0.4344026446342468 -0.007205520290881395 -0.9006900191307068
 outer loop
  vertex 591500.0 5652500.0 5426.60009765625
  vertex 592500.0 5651500.0 5916.89990234375
  vertex 591500.0 5651500.0 5434.60009765625
 endloop
endfacet
facet normal 0.4293126165866852 -0.013455445878207684 -0.903055727481842
 outer loop
  vertex 591500.0 5652500.0 5426.60009765625
  vertex 592500.0 5652500.0 5902.0
  vertex 592500.0 5651500.0 5916.89990234375
 endloop
endfacet
facet normal -0.05062906816601753 -0.014879141934216022 -0.9986066818237305
 outer loop
  vertex 592500.0 5652500.0 5902.0
  vertex 593500.0 5651500.0 5866.2001953125
  vertex 592500.0 5651500.0 5916.89990234375
 endloop
endfacet
facet normal -0.007296647410839796 0.02848767302930355 -0.9995675086975098
 outer loop
  vertex 592500.0 5652500.0 5902.0
  vertex 593500.0 5652500.0 5894.7001953125
  vertex 593500.0 5651500.0 5866.2001953125
 endloop
endfacet
facet normal -0.10811860859394073 0.028321433812379837 -0.9937344789505005
 outer loop
  vertex 593500.0 5652500.0 5894.7001953125
  vertex 594500.0 5651500.0 5757.39990234375
  vertex 593500.0 5651500.0 5866.2001953125
 endloop
endfacet
facet normal -0.26881998777389526 -0.1379367858171463 -0.9532623887062073
 outer loop
  vertex 593500.0 5652500.0 5894.7001953125
  vertex 594500.0 5652500.0 5612.7001953125
  vertex 594500.0 5651500.0 5757.39990234375
 endloop
endfacet
facet normal -0.1839570850133896 -0.1407642662525177 -0.9728027582168579
 outer loop
  vertex 594500.0 5652500.0 5612.7001953125
  vertex 595500.0 5651500.0 5568.2998046875
  vertex 594500.0 5651500.0 5757.39990234375
 endloop
endfacet
facet normal -0.0771278515458107 -0.03288380056619644 -0.996478796005249
 outer loop
  vertex 594500.0 5652500.0 5612.7001953125
  vertex 595500.0 5652500.0 5535.2998046875
  vertex 595500.0 5651500.0 5568.2998046875
 endloop
endfacet
facet normal -0.007299608085304499 0.0007997831562533975 -0.9999730587005615
 outer loop
  vertex 592500.0 5653500.0 5902.7998046875
  vertex 593500.0 5652500.0 5894.7001953125
  vertex 592500.0 5652500.0 5902.0
 endloop
endfacet
facet normal 0.11953186988830566 0.1275068074464798 -0.9846085906028748
 outer loop
  vertex 592500.0 5653500.0 5902.7998046875
  vertex 593500.0 5653500.0 6024.2001953125
  vertex 593500.0 5652500.0 5894.7001953125
 endloop
endfacet
facet normal -0.2693305015563965 0.12368191033601761 -0.9550726413726807
 outer loop
  vertex 593500.0 5653500.0 6024.2001953125
  vertex 594500.0 5652500.0 5612.7001953125
  vertex 593500.0 5652500.0 5894.7001953125
 endloop
endfacet
facet normal -0.3285934627056122 0.059289999306201935 -0.942608654499054
 outer loop
  vertex 593500.0 5653500.0 6024.2001953125
  vertex 594500.0 5653500.0 5675.60009765625
  vertex 594500.0 5652500.0 5612.7001953125
 endloop
endfacet
facet normal -0.07701827585697174 0.0625893771648407 -0.9950631856918335
 outer loop
  vertex 594500.0 5653500.0 5675.60009765625
  vertex 595500.0 5652500.0 5535.2998046875
  vertex 594500.0 5652500.0 5612.7001953125
 endloop
endfacet
facet normal -0.18333834409713745 -0.04556438326835632 -0.9819933772087097
 outer loop
  vertex 594500.0 5653500.0 5675.60009765625
  vertex 595500.0 5653500.0 5488.89990234375
  vertex 595500.0 5652500.0 5535.2998046875
 endloop
endfacet
facet normal 0.11279256641864777 0.35222023725509644 -0.9290956258773804
 outer loop
  vertex 592500.0 5654500.0 6281.89990234375
  vertex 593500.0 5653500.0 6024.2001953125
  vertex 592500.0 5653500.0 5902.7998046875
 endloop
endfacet
facet normal -0.11143827438354492 0.14202740788459778 -0.9835699200630188
 outer loop
  vertex 592500.0 5654500.0 6281.89990234375
  vertex 593500.0 5654500.0 6168.60009765625
  vertex 593500.0 5653500.0 6024.2001953125
 endloop
endfacet
facet normal -0.32615458965301514 0.13510234653949738 -0.9356124401092529
 outer loop
  vertex 593500.0 5654500.0 6168.60009765625
  vertex 594500.0 5653500.0 5675.60009765625
  vertex 593500.0 5653500.0 6024.2001953125
 endloop
endfacet
facet normal -0.048361632972955704 0.4023440182209015 -0.9142102599143982
 outer loop
  vertex 593500.0 5654500.0 6168.60009765625
  vertex 594500.0 5654500.0 6115.7001953125
  vertex 594500.0 5653500.0 5675.60009765625
 endloop
endfacet
facet normal -0.16844157874584198 0.3970597982406616 -0.902203381061554
 outer loop
  vertex 594500.0 5654500.0 6115.7001953125
  vertex 595500.0 5653500.0 5488.89990234375
  vertex 594500.0 5653500.0 5675.60009765625
 endloop
endfacet
facet normal -0.19357968866825104 0.3747379183769226 -0.9066963791847229
 outer loop
  vertex 594500.0 5654500.0 6115.7001953125
  vertex 595500.0 5654500.0 5902.2001953125
  vertex 595500.0 5653500.0 5488.89990234375
 endloop
endfacet
facet normal -0.11175468564033508 -0.12082941085100174 -0.9863625764846802
 outer loop
  vertex 592500.0 5655500.0 6159.39990234375
  vertex 593500.0 5654500.0 6168.60009765625
  vertex 592500.0 5654500.0 6281.89990234375
 endloop
endfacet
endsolid
