solid
facet normal 0.01379318069666624 0.028985055163502693 -0.999484658241272
 outer loop
  vertex 584500.0 5541500.0 4698.2998046875
  vertex 585500.0 5541500.0 4712.10009765625
  vertex 585500.0 5540500.0 4683.10009765625
 endloop
endfacet
facet normal 0.03695918247103691 0.02896800823509693 -0.9988968372344971
 outer loop
  vertex 585500.0 5541500.0 4712.10009765625
  vertex 586500.0 5540500.0 4720.10009765625
  vertex 585500.0 5540500.0 4683.10009765625
 endloop
endfacet
facet normal -0.02108648046851158 -0.02908131666481495 -0.9993546009063721
 outer loop
  vertex 585500.0 5541500.0 4712.10009765625
  vertex 586500.0 5541500.0 4691.0
  vertex 586500.0 5540500.0 4720.10009765625
 endloop
endfacet
facet normal -0.02927534095942974 -0.029075317084789276 -0.999148428440094
 outer loop
  vertex 586500.0 5541500.0 4691.0
  vertex 587500.0 5540500.0 4690.7998046875
  vertex 586500.0 5540500.0 4720.10009765625
 endloop
endfacet
facet normal 0.03834310919046402 0.038543008267879486 -0.9985210299491882
 outer loop
  vertex 586500.0 5541500.0 4691.0
  vertex 587500.0 5541500.0 4729.39990234375
  vertex 587500.0 5540500.0 4690.7998046875
 endloop
endfacet
facet normal -0.06011996045708656 0.16796192526817322 -0.9839585423469543
 outer loop
  vertex 583500.0 5542500.0 4930.10009765625
  vertex 584500.0 5542500.0 4869.0
  vertex 584500.0 5541500.0 4698.2998046875
 endloop
endfacet
facet normal 0.013602253049612045 0.16825070977210999 -0.9856504201889038
 outer loop
  vertex 584500.0 5542500.0 4869.0
  vertex 585500.0 5541500.0 4712.10009765625
  vertex 584500.0 5541500.0 4698.2998046875
 endloop
endfacet
facet normal -0.06329813599586487 0.09261146187782288 -0.9936882853507996
 outer loop
  vertex 584500.0 5542500.0 4869.0
  vertex 585500.0 5542500.0 4805.2998046875
  vertex 585500.0 5541500.0 4712.10009765625
 endloop
endfacet
facet normal -0.021004419773817062 0.0927770733833313 -0.9954653382301331
 outer loop
  vertex 585500.0 5542500.0 4805.2998046875
  vertex 586500.0 5541500.0 4691.0
  vertex 585500.0 5541500.0 4712.10009765625
 endloop
endfacet
facet normal 0.0021854094229638577 0.1157170906662941 -0.993279755115509
 outer loop
  vertex 585500.0 5542500.0 4805.2998046875
  vertex 586500.0 5542500.0 4807.5
  vertex 586500.0 5541500.0 4691.0
 endloop
endfacet
facet normal 0.03811422735452652 0.1156332939863205 -0.9925604462623596
 outer loop
  vertex 586500.0 5542500.0 4807.5
  vertex 587500.0 5541500.0 4729.39990234375
  vertex 586500.0 5541500.0 4691.0
 endloop
endfacet
facet normal -0.05659635365009308 0.02136070653796196 -0.9981685876846313
 outer loop
  vertex 586500.0 5542500.0 4807.5
  vertex 587500.0 5542500.0 4750.7998046875
  vertex 587500.0 5541500.0 4729.39990234375
 endloop
endfacet
facet normal -0.06355312466621399 0.023944588378071785 -0.9976911544799805
 outer loop
  vertex 584500.0 5543500.0 4893.0
  vertex 585500.0 5542500.0 4805.2998046875
  vertex 584500.0 5542500.0 4869.0
 endloop
endfacet
facet normal 0.017897415906190872 0.10509779304265976 -0.9943008422851562
 outer loop
  vertex 584500.0 5543500.0 4893.0
  vertex 585500.0 5543500.0 4911.0
  vertex 585500.0 5542500.0 4805.2998046875
 endloop
endfacet
facet normal 0.0021880012936890125 0.10511437803506851 -0.9944577813148499
 outer loop
  vertex 585500.0 5543500.0 4911.0
  vertex 586500.0 5542500.0 4807.5
  vertex 585500.0 5542500.0 4805.2998046875
 endloop
endfacet
facet normal -0.040786031633615494 0.06242581084370613 -0.9972159266471863
 outer loop
  vertex 585500.0 5543500.0 4911.0
  vertex 586500.0 5543500.0 4870.10009765625
  vertex 586500.0 5542500.0 4807.5
 endloop
endfacet
facet normal -0.05649903416633606 0.06237800046801567 -0.9964521527290344
 outer loop
  vertex 586500.0 5543500.0 4870.10009765625
  vertex 587500.0 5542500.0 4750.7998046875
  vertex 586500.0 5542500.0 4807.5
 endloop
endfacet
facet normal -0.06197965145111084 0.056897640228271484 -0.9964542984962463
 outer loop
  vertex 586500.0 5543500.0 4870.10009765625
  vertex 587500.0 5543500.0 4807.89990234375
  vertex 587500.0 5542500.0 4750.7998046875
 endloop
endfacet
facet normal -0.012877856381237507 0.057002514600753784 -0.998291015625
 outer loop
  vertex 587500.0 5543500.0 4807.89990234375
  vertex 588500.0 5542500.0 4737.89990234375
  vertex 587500.0 5542500.0 4750.7998046875
 endloop
endfacet
facet normal -0.07409488409757614 -0.004287945572286844 -0.9972419142723083
 outer loop
  vertex 587500.0 5543500.0 4807.89990234375
  vertex 588500.0 5543500.0 4733.60009765625
  vertex 588500.0 5542500.0 4737.89990234375
 endloop
endfacet
facet normal 0.017984915524721146 0.03676896542310715 -0.999161958694458
 outer loop
  vertex 584500.0 5544500.0 4929.7998046875
  vertex 585500.0 5543500.0 4911.0
  vertex 584500.0 5543500.0 4893.0
 endloop
endfacet
facet normal 0.09746135026216507 0.11604402959346771 -0.9884508848190308
 outer loop
  vertex 584500.0 5544500.0 4929.7998046875
  vertex 585500.0 5544500.0 5028.39990234375
  vertex 585500.0 5543500.0 4911.0
 endloop
endfacet
facet normal -0.04058745875954628 0.11650305241346359 -0.9923607110977173
 outer loop
  vertex 585500.0 5544500.0 5028.39990234375
  vertex 586500.0 5543500.0 4870.10009765625
  vertex 585500.0 5543500.0 4911.0
 endloop
endfacet
facet normal -0.040885888040065765 0.11620815098285675 -0.9923829436302185
 outer loop
  vertex 585500.0 5544500.0 5028.39990234375
  vertex 586500.0 5544500.0 4987.2001953125
  vertex 586500.0 5543500.0 4870.10009765625
 endloop
endfacet
facet normal -0.0616605319082737 0.11608409136533737 -0.9913236498832703
 outer loop
  vertex 586500.0 5544500.0 4987.2001953125
  vertex 587500.0 5543500.0 4807.89990234375
  vertex 586500.0 5543500.0 4870.10009765625
 endloop
endfacet
facet normal -0.023907428607344627 0.15322373807430267 -0.9879022836685181
 outer loop
  vertex 586500.0 5544500.0 4987.2001953125
  vertex 587500.0 5544500.0 4963.0
  vertex 587500.0 5543500.0 4807.89990234375
 endloop
endfacet
facet normal -0.07322483509778976 0.15285609662532806 -0.9855319261550903
 outer loop
  vertex 587500.0 5544500.0 4963.0
  vertex 588500.0 5543500.0 4733.60009765625
  vertex 587500.0 5543500.0 4807.89990234375
 endloop
endfacet
facet normal 0.022487979382276535 0.24484558403491974 -0.9693012833595276
 outer loop
  vertex 587500.0 5544500.0 4963.0
  vertex 588500.0 5544500.0 4986.2001953125
  vertex 588500.0 5543500.0 4733.60009765625
 endloop
endfacet
facet normal -0.04055643826723099 0.1712832897901535 -0.984386682510376
 outer loop
  vertex 585500.0 5545500.0 5202.39990234375
  vertex 586500.0 5544500.0 4987.2001953125
  vertex 585500.0 5544500.0 5028.39990234375
 endloop
endfacet
facet normal -0.0327446348965168 0.17886729538440704 -0.9833281636238098
 outer loop
  vertex 585500.0 5545500.0 5202.39990234375
  vertex 586500.0 5545500.0 5169.10009765625
  vertex 586500.0 5544500.0 4987.2001953125
 endloop
endfacet
facet normal -0.023802747949957848 0.17891256511211395 -0.9835769534111023
 outer loop
  vertex 586500.0 5545500.0 5169.10009765625
  vertex 587500.0 5544500.0 4963.0
  vertex 586500.0 5544500.0 4987.2001953125
 endloop
endfacet
facet normal -0.20663921535015106 -0.0049899546429514885 -0.9784044623374939
 outer loop
  vertex 586500.0 5545500.0 5169.10009765625
  vertex 587500.0 5545500.0 4957.89990234375
  vertex 587500.0 5544500.0 4963.0
 endloop
endfacet
facet normal 0.02319365367293358 -0.005098659545183182 -0.9997180104255676
 outer loop
  vertex 587500.0 5545500.0 4957.89990234375
  vertex 588500.0 5544500.0 4986.2001953125
  vertex 587500.0 5544500.0 4963.0
 endloop
endfacet
facet normal 0.3040398359298706 0.27825498580932617 -0.9111167788505554
 outer loop
  vertex 587500.0 5545500.0 4957.89990234375
  vertex 588500.0 5545500.0 5291.60009765625
  vertex 588500.0 5544500.0 4986.2001953125
 endloop
endfacet
facet normal -0.03285817429423332 0.15896350145339966 -0.9867374897003174
 outer loop
  vertex 585500.0 5546500.0 5363.5
  vertex 586500.0 5545500.0 5169.10009765625
  vertex 585500.0 5545500.0 5202.39990234375
 endloop
endfacet
facet normal 0.295560747385025 0.3580031096935272 -0.885707437992096
 outer loop
  vertex 587500.0 5546500.0 5362.10009765625
  vertex 588500.0 5545500.0 5291.60009765625
  vertex 587500.0 5545500.0 4957.89990234375
 endloop
endfacet
facet normal 0.17421965301036835 0.2415209412574768 -0.9546282291412354
 outer loop
  vertex 587500.0 5546500.0 5362.10009765625
  vertex 588500.0 5546500.0 5544.60009765625
  vertex 588500.0 5545500.0 5291.60009765625
 endloop
endfacet
facet normal -0.16280004382133484 0.2419997900724411 -0.9565209150314331
 outer loop
  vertex 588500.0 5546500.0 5544.60009765625
  vertex 589500.0 5545500.0 5121.39990234375
  vertex 588500.0 5545500.0 5291.60009765625
 endloop
endfacet
facet normal -0.1911965012550354 0.21418604254722595 -0.9578978419303894
 outer loop
  vertex 588500.0 5546500.0 5544.60009765625
  vertex 589500.0 5546500.0 5345.0
  vertex 589500.0 5545500.0 5121.39990234375
 endloop
endfacet
facet normal 0.41470810770988464 0.19856268167495728 -0.8880259394645691
 outer loop
  vertex 589500.0 5546500.0 5345.0
  vertex 590500.0 5545500.0 5588.39990234375
  vertex 589500.0 5545500.0 5121.39990234375
 endloop
endfacet
facet normal 0.15907999873161316 0.46355462074279785 -0.8716712594032288
 outer loop
  vertex 587500.0 5547500.0 5893.89990234375
  vertex 588500.0 5546500.0 5544.60009765625
  vertex 587500.0 5546500.0 5362.10009765625
 endloop
endfacet
facet normal -0.48834288120269775 -0.19090944528579712 -0.8515133261680603
 outer loop
  vertex 587500.0 5547500.0 5893.89990234375
  vertex 588500.0 5547500.0 5320.39990234375
  vertex 588500.0 5546500.0 5544.60009765625
 endloop
endfacet
facet normal -0.19117292761802673 -0.21473440527915955 -0.9577797651290894
 outer loop
  vertex 588500.0 5547500.0 5320.39990234375
  vertex 589500.0 5546500.0 5345.0
  vertex 588500.0 5546500.0 5544.60009765625
 endloop
endfacet
facet normal 0.28815513849258423 0.26552221179008484 -0.9200350642204285
 outer loop
  vertex 588500.0 5547500.0 5320.39990234375
  vertex 589500.0 5547500.0 5633.60009765625
  vertex 589500.0 5546500.0 5345.0
 endloop
endfacet
facet normal -0.49641525745391846 0.0657847598195076 -0.8655889630317688
 outer loop
  vertex 587500.0 5548500.0 5969.89990234375
  vertex 588500.0 5547500.0 5320.39990234375
  vertex 587500.0 5547500.0 5893.89990234375
 endloop
endfacet
endsolid
