solid
facet normal -0.0071543981321156025 -0.1123807281255722 -0.9936394691467285
 outer loop
  vertex 361500.0 5611500.0 4450.60009765625
  vertex 362500.0 5611500.0 4443.39990234375
  vertex 362500.0 5610500.0 4556.5
 endloop
endfacet
facet normal -0.007191590499132872 0.048342060297727585 -0.9988049268722534
 outer loop
  vertex 361500.0 5612500.0 4499.0
  vertex 362500.0 5611500.0 4443.39990234375
  vertex 361500.0 5611500.0 4450.60009765625
 endloop
endfacet
facet normal -0.09253627061843872 -0.037213414907455444 -0.9950136542320251
 outer loop
  vertex 361500.0 5612500.0 4499.0
  vertex 362500.0 5612500.0 4406.0
  vertex 362500.0 5611500.0 4443.39990234375
 endloop
endfacet
facet normal -0.026971321552991867 -0.03736017644405365 -0.9989378452301025
 outer loop
  vertex 362500.0 5612500.0 4406.0
  vertex 363500.0 5611500.0 4416.39990234375
  vertex 362500.0 5611500.0 4443.39990234375
 endloop
endfacet
facet normal -0.022482149302959442 -0.03287380188703537 -0.9992066025733948
 outer loop
  vertex 362500.0 5612500.0 4406.0
  vertex 363500.0 5612500.0 4383.5
  vertex 363500.0 5611500.0 4416.39990234375
 endloop
endfacet
facet normal 0.018689529970288277 -0.10676714777946472 -0.9941084384918213
 outer loop
  vertex 360500.0 5613500.0 4372.7998046875
  vertex 361500.0 5613500.0 4391.60009765625
  vertex 361500.0 5612500.0 4499.0
 endloop
endfacet
facet normal -0.09207542985677719 -0.10633217543363571 -0.9900583624839783
 outer loop
  vertex 361500.0 5613500.0 4391.60009765625
  vertex 362500.0 5612500.0 4406.0
  vertex 361500.0 5612500.0 4499.0
 endloop
endfacet
facet normal -0.033044762909412384 -0.04742059484124184 -0.9983283281326294
 outer loop
  vertex 361500.0 5613500.0 4391.60009765625
  vertex 362500.0 5613500.0 4358.5
  vertex 362500.0 5612500.0 4406.0
 endloop
endfacet
facet normal -0.022468985989689827 -0.047434523701667786 -0.9986215829849243
 outer loop
  vertex 362500.0 5613500.0 4358.5
  vertex 363500.0 5612500.0 4383.5
  vertex 362500.0 5612500.0 4406.0
 endloop
endfacet
facet normal 0.009098570793867111 -0.01589723490178585 -0.9998322129249573
 outer loop
  vertex 362500.0 5613500.0 4358.5
  vertex 363500.0 5613500.0 4367.60009765625
  vertex 363500.0 5612500.0 4383.5
 endloop
endfacet
facet normal 0.05132566764950752 -0.01587693952023983 -0.9985557794570923
 outer loop
  vertex 363500.0 5613500.0 4367.60009765625
  vertex 364500.0 5612500.0 4434.89990234375
  vertex 363500.0 5612500.0 4383.5
 endloop
endfacet
facet normal 0.005289573688060045 -0.061880312860012054 -0.9980695247650146
 outer loop
  vertex 363500.0 5613500.0 4367.60009765625
  vertex 364500.0 5613500.0 4372.89990234375
  vertex 364500.0 5612500.0 4434.89990234375
 endloop
endfacet
facet normal -0.5523004531860352 -0.4842381775379181 -0.6785850524902344
 outer loop
  vertex 366500.0 5613500.0 4426.60009765625
  vertex 367500.0 5613500.0 3612.699951171875
  vertex 367500.0 5612500.0 4326.2998046875
 endloop
endfacet
facet normal 0.07540537416934967 -0.5792147517204285 -0.811680018901825
 outer loop
  vertex 367500.0 5613500.0 3612.699951171875
  vertex 368500.0 5612500.0 4419.2001953125
  vertex 367500.0 5612500.0 4326.2998046875
 endloop
endfacet
facet normal 0.6060757040977478 -0.034805700182914734 -0.7946450710296631
 outer loop
  vertex 367500.0 5613500.0 3612.699951171875
  vertex 368500.0 5613500.0 4375.39990234375
  vertex 368500.0 5612500.0 4419.2001953125
 endloop
endfacet
facet normal -0.6072150468826294 -0.45265257358551025 -0.6529896855354309
 outer loop
  vertex 369500.0 5613500.0 4306.2998046875
  vertex 370500.0 5613500.0 3376.39990234375
  vertex 370500.0 5612500.0 4069.60009765625
 endloop
endfacet
facet normal -0.4238477349281311 -0.5160015225410461 -0.7443758845329285
 outer loop
  vertex 370500.0 5613500.0 3376.39990234375
  vertex 371500.0 5612500.0 3500.199951171875
  vertex 370500.0 5612500.0 4069.60009765625
 endloop
endfacet
facet normal -0.12290439754724503 -0.24205534160137177 -0.9624466896057129
 outer loop
  vertex 370500.0 5613500.0 3376.39990234375
  vertex 371500.0 5613500.0 3248.699951171875
  vertex 371500.0 5612500.0 3500.199951171875
 endloop
endfacet
facet normal -0.3233107328414917 -0.23080509901046753 -0.9177140593528748
 outer loop
  vertex 371500.0 5613500.0 3248.699951171875
  vertex 372500.0 5612500.0 3147.89990234375
  vertex 371500.0 5612500.0 3500.199951171875
 endloop
endfacet
facet normal -0.03303704783320427 -0.052100762724876404 -0.9980952143669128
 outer loop
  vertex 361500.0 5614500.0 4339.39990234375
  vertex 362500.0 5613500.0 4358.5
  vertex 361500.0 5613500.0 4391.60009765625
 endloop
endfacet
facet normal -0.01788480207324028 -0.036968786269426346 -0.9991564154624939
 outer loop
  vertex 361500.0 5614500.0 4339.39990234375
  vertex 362500.0 5614500.0 4321.5
  vertex 362500.0 5613500.0 4358.5
 endloop
endfacet
facet normal 0.009093498811125755 -0.036973170936107635 -0.9992749094963074
 outer loop
  vertex 362500.0 5614500.0 4321.5
  vertex 363500.0 5613500.0 4367.60009765625
  vertex 362500.0 5613500.0 4358.5
 endloop
endfacet
facet normal -0.049610380083322525 -0.0954430028796196 -0.9941979050636292
 outer loop
  vertex 362500.0 5614500.0 4321.5
  vertex 363500.0 5614500.0 4271.60009765625
  vertex 363500.0 5613500.0 4367.60009765625
 endloop
endfacet
facet normal 0.005275477189570665 -0.09555933624505997 -0.9954097270965576
 outer loop
  vertex 363500.0 5614500.0 4271.60009765625
  vertex 364500.0 5613500.0 4372.89990234375
  vertex 363500.0 5613500.0 4367.60009765625
 endloop
endfacet
facet normal 0.0801239162683487 -0.02082815393805504 -0.9965672492980957
 outer loop
  vertex 363500.0 5614500.0 4271.60009765625
  vertex 364500.0 5614500.0 4352.0
  vertex 364500.0 5613500.0 4372.89990234375
 endloop
endfacet
facet normal 0.056099437177181244 -0.020862434059381485 -0.9982072114944458
 outer loop
  vertex 364500.0 5614500.0 4352.0
  vertex 365500.0 5613500.0 4429.10009765625
  vertex 364500.0 5613500.0 4372.89990234375
 endloop
endfacet
facet normal 0.0923914909362793 0.015630632638931274 -0.9956000447273254
 outer loop
  vertex 364500.0 5614500.0 4352.0
  vertex 365500.0 5614500.0 4444.7998046875
  vertex 365500.0 5613500.0 4429.10009765625
 endloop
endfacet
facet normal -0.002499684225767851 0.015697725117206573 -0.999873697757721
 outer loop
  vertex 365500.0 5614500.0 4444.7998046875
  vertex 366500.0 5613500.0 4426.60009765625
  vertex 365500.0 5613500.0 4429.10009765625
 endloop
endfacet
facet normal -0.01659730076789856 0.0015998751623556018 -0.999860942363739
 outer loop
  vertex 365500.0 5614500.0 4444.7998046875
  vertex 366500.0 5614500.0 4428.2001953125
  vertex 366500.0 5613500.0 4426.60009765625
 endloop
endfacet
facet normal -0.631246030330658 0.0012410064227879047 -0.7755816578865051
 outer loop
  vertex 366500.0 5614500.0 4428.2001953125
  vertex 367500.0 5613500.0 3612.699951171875
  vertex 366500.0 5613500.0 4426.60009765625
 endloop
endfacet
facet normal -0.5826720595359802 0.07710172981023788 -0.8090417981147766
 outer loop
  vertex 366500.0 5614500.0 4428.2001953125
  vertex 367500.0 5614500.0 3708.0
  vertex 367500.0 5613500.0 3612.699951171875
 endloop
endfacet
facet normal 0.6047095656394958 0.07555901259183884 -0.792853832244873
 outer loop
  vertex 367500.0 5614500.0 3708.0
  vertex 368500.0 5613500.0 4375.39990234375
  vertex 367500.0 5613500.0 3612.699951171875
 endloop
endfacet
facet normal 0.12609747052192688 -0.46036553382873535 -0.8787280321121216
 outer loop
  vertex 367500.0 5614500.0 3708.0
  vertex 368500.0 5614500.0 3851.5
  vertex 368500.0 5613500.0 4375.39990234375
 endloop
endfacet
facet normal -0.061094433069229126 -0.46320295333862305 -0.8841440081596375
 outer loop
  vertex 368500.0 5614500.0 3851.5
  vertex 369500.0 5613500.0 4306.2998046875
  vertex 368500.0 5613500.0 4375.39990234375
 endloop
endfacet
facet normal -0.2917049527168274 -0.622134268283844 -0.7265378832817078
 outer loop
  vertex 368500.0 5614500.0 3851.5
  vertex 369500.0 5614500.0 3450.0
  vertex 369500.0 5613500.0 4306.2998046875
 endloop
endfacet
facet normal -0.5769254565238953 -0.5312626957893372 -0.6204167008399963
 outer loop
  vertex 369500.0 5614500.0 3450.0
  vertex 370500.0 5613500.0 3376.39990234375
  vertex 369500.0 5613500.0 4306.2998046875
 endloop
endfacet
facet normal -0.16232925653457642 -0.09000812470912933 -0.9826229214668274
 outer loop
  vertex 369500.0 5614500.0 3450.0
  vertex 370500.0 5614500.0 3284.800048828125
  vertex 370500.0 5613500.0 3376.39990234375
 endloop
endfacet
facet normal -0.12615162134170532 -0.0904892235994339 -0.98787522315979
 outer loop
  vertex 370500.0 5614500.0 3284.800048828125
  vertex 371500.0 5613500.0 3248.699951171875
  vertex 370500.0 5613500.0 3376.39990234375
 endloop
endfacet
facet normal -0.15061751008033752 -0.11517225950956345 -0.981860339641571
 outer loop
  vertex 370500.0 5614500.0 3284.800048828125
  vertex 371500.0 5614500.0 3131.39990234375
  vertex 371500.0 5613500.0 3248.699951171875
 endloop
endfacet
facet normal -0.026674972847104073 -0.03376849368214607 -0.9990736246109009
 outer loop
  vertex 360500.0 5615500.0 4332.2998046875
  vertex 361500.0 5615500.0 4305.60009765625
  vertex 361500.0 5614500.0 4339.39990234375
 endloop
endfacet
facet normal -0.017886824905872345 -0.03377510979771614 -0.999269425868988
 outer loop
  vertex 361500.0 5615500.0 4305.60009765625
  vertex 362500.0 5614500.0 4321.5
  vertex 361500.0 5614500.0 4339.39990234375
 endloop
endfacet
facet normal -0.029954999685287476 -0.04583105444908142 -0.9984999895095825
 outer loop
  vertex 361500.0 5615500.0 4305.60009765625
  vertex 362500.0 5615500.0 4275.60009765625
  vertex 362500.0 5614500.0 4321.5
 endloop
endfacet
facet normal -0.04978560656309128 -0.0457947701215744 -0.9977095127105713
 outer loop
  vertex 362500.0 5615500.0 4275.60009765625
  vertex 363500.0 5614500.0 4271.60009765625
  vertex 362500.0 5614500.0 4321.5
 endloop
endfacet
facet normal -0.004800236318260431 -0.0008002835093066096 -0.9999881982803345
 outer loop
  vertex 362500.0 5615500.0 4275.60009765625
  vertex 363500.0 5615500.0 4270.7998046875
  vertex 363500.0 5614500.0 4271.60009765625
 endloop
endfacet
facet normal 0.08014127612113953 -0.0007977185887284577 -0.9967831969261169
 outer loop
  vertex 363500.0 5615500.0 4270.7998046875
  vertex 364500.0 5614500.0 4352.0
  vertex 363500.0 5614500.0 4271.60009765625
 endloop
endfacet
facet normal 0.15076562762260437 0.07069913297891617 -0.9860382080078125
 outer loop
  vertex 363500.0 5615500.0 4270.7998046875
  vertex 364500.0 5615500.0 4423.7001953125
  vertex 364500.0 5614500.0 4352.0
 endloop
endfacet
facet normal 0.09216818958520889 0.07121218740940094 -0.9931937456130981
 outer loop
  vertex 364500.0 5615500.0 4423.7001953125
  vertex 365500.0 5614500.0 4444.7998046875
  vertex 364500.0 5614500.0 4352.0
 endloop
endfacet
facet normal -0.0007000288460403681 -0.021794620901346207 -0.999762237071991
 outer loop
  vertex 364500.0 5615500.0 4423.7001953125
  vertex 365500.0 5615500.0 4423.0
  vertex 365500.0 5614500.0 4444.7998046875
 endloop
endfacet
facet normal -0.016593381762504578 -0.021791625767946243 -0.9996248483657837
 outer loop
  vertex 365500.0 5615500.0 4423.0
  vertex 366500.0 5614500.0 4428.2001953125
  vertex 365500.0 5614500.0 4444.7998046875
 endloop
endfacet
facet normal -0.015594827942550182 -0.020793266594409943 -0.9996621608734131
 outer loop
  vertex 365500.0 5615500.0 4423.0
  vertex 366500.0 5615500.0 4407.39990234375
  vertex 366500.0 5614500.0 4428.2001953125
 endloop
endfacet
facet normal -0.5843284726142883 -0.01687614619731903 -0.8113417625427246
 outer loop
  vertex 366500.0 5615500.0 4407.39990234375
  vertex 367500.0 5614500.0 3708.0
  vertex 366500.0 5614500.0 4428.2001953125
 endloop
endfacet
facet normal -0.1490345150232315 0.46231284737586975 -0.874102771282196
 outer loop
  vertex 366500.0 5615500.0 4407.39990234375
  vertex 367500.0 5615500.0 4236.89990234375
  vertex 367500.0 5614500.0 3708.0
 endloop
endfacet
facet normal 0.12584194540977478 0.4638174772262573 -0.8769475817680359
 outer loop
  vertex 367500.0 5615500.0 4236.89990234375
  vertex 368500.0 5614500.0 3851.5
  vertex 367500.0 5614500.0 3708.0
 endloop
endfacet
facet normal -0.5694443583488464 -0.2702435255050659 -0.7763385772705078
 outer loop
  vertex 367500.0 5615500.0 4236.89990234375
  vertex 368500.0 5615500.0 3503.39990234375
  vertex 368500.0 5614500.0 3851.5
 endloop
endfacet
facet normal -0.354550302028656 -0.30739477276802063 -0.8830642700195312
 outer loop
  vertex 368500.0 5615500.0 3503.39990234375
  vertex 369500.0 5614500.0 3450.0
  vertex 368500.0 5614500.0 3851.5
 endloop
endfacet
facet normal -0.2198459506034851 -0.16853579878807068 -0.9608659744262695
 outer loop
  vertex 368500.0 5615500.0 3503.39990234375
  vertex 369500.0 5615500.0 3274.60009765625
  vertex 369500.0 5614500.0 3450.0
 endloop
endfacet
facet normal -0.16060370206832886 -0.1705198734998703 -0.9721776843070984
 outer loop
  vertex 369500.0 5615500.0 3274.60009765625
  vertex 370500.0 5614500.0 3284.800048828125
  vertex 369500.0 5614500.0 3450.0
 endloop
endfacet
facet normal 0.011199243366718292 0.0009999368339776993 -0.9999368190765381
 outer loop
  vertex 369500.0 5615500.0 3274.60009765625
  vertex 370500.0 5615500.0 3285.800048828125
  vertex 370500.0 5614500.0 3284.800048828125
 endloop
endfacet
facet normal -0.15162643790245056 0.0009884373284876347 -0.9884373545646667
 outer loop
  vertex 370500.0 5615500.0 3285.800048828125
  vertex 371500.0 5614500.0 3131.39990234375
  vertex 370500.0 5614500.0 3284.800048828125
 endloop
endfacet
facet normal -0.02995118871331215 -0.048521023243665695 -0.9983729720115662
 outer loop
  vertex 361500.0 5616500.0 4257.0
  vertex 362500.0 5615500.0 4275.60009765625
  vertex 361500.0 5615500.0 4305.60009765625
 endloop
endfacet
facet normal -0.005498320329934359 -0.024092737585306168 -0.9996945858001709
 outer loop
  vertex 361500.0 5616500.0 4257.0
  vertex 362500.0 5616500.0 4251.5
  vertex 362500.0 5615500.0 4275.60009765625
 endloop
endfacet
facet normal -0.0047988444566726685 -0.02409282512962818 -0.9996982216835022
 outer loop
  vertex 362500.0 5616500.0 4251.5
  vertex 363500.0 5615500.0 4270.7998046875
  vertex 362500.0 5615500.0 4275.60009765625
 endloop
endfacet
facet normal -0.2416020631790161 -0.2596472501754761 -0.9349928498268127
 outer loop
  vertex 362500.0 5616500.0 4251.5
  vertex 363500.0 5616500.0 3993.10009765625
  vertex 363500.0 5615500.0 4270.7998046875
 endloop
endfacet
facet normal 0.145751953125 -0.26471665501594543 -0.9532478451728821
 outer loop
  vertex 363500.0 5616500.0 3993.10009765625
  vertex 364500.0 5615500.0 4423.7001953125
  vertex 363500.0 5615500.0 4270.7998046875
 endloop
endfacet
facet normal 0.35523685812950134 -0.04677371680736542 -0.9336053729057312
 outer loop
  vertex 363500.0 5616500.0 3993.10009765625
  vertex 364500.0 5616500.0 4373.60009765625
  vertex 364500.0 5615500.0 4423.7001953125
 endloop
endfacet
facet normal -0.0006993180722929537 -0.05003732815384865 -0.9987471103668213
 outer loop
  vertex 364500.0 5616500.0 4373.60009765625
  vertex 365500.0 5615500.0 4423.0
  vertex 364500.0 5615500.0 4423.7001953125
 endloop
endfacet
facet normal -0.00629041763022542 -0.05561288818717003 -0.9984325766563416
 outer loop
  vertex 364500.0 5616500.0 4373.60009765625
  vertex 365500.0 5616500.0 4367.2998046875
  vertex 365500.0 5615500.0 4423.0
 endloop
endfacet
facet normal -0.015574065037071705 -0.05560724437236786 -0.9983312487602234
 outer loop
  vertex 365500.0 5616500.0 4367.2998046875
  vertex 366500.0 5615500.0 4407.39990234375
  vertex 365500.0 5615500.0 4423.0
 endloop
endfacet
facet normal -0.4182294011116028 -0.4498729109764099 -0.7891124486923218
 outer loop
  vertex 365500.0 5616500.0 4367.2998046875
  vertex 366500.0 5616500.0 3837.300048828125
  vertex 366500.0 5615500.0 4407.39990234375
 endloop
endfacet
facet normal -0.14652158319950104 -0.48992329835891724 -0.8593640327453613
 outer loop
  vertex 366500.0 5616500.0 3837.300048828125
  vertex 367500.0 5615500.0 4236.89990234375
  vertex 366500.0 5615500.0 4407.39990234375
 endloop
endfacet
facet normal -0.08638101071119308 -0.44297003746032715 -0.8923653364181519
 outer loop
  vertex 366500.0 5616500.0 3837.300048828125
  vertex 367500.0 5616500.0 3740.5
  vertex 367500.0 5615500.0 4236.89990234375
 endloop
endfacet
facet normal -0.5490978360176086 -0.3716048002243042 -0.748599648475647
 outer loop
  vertex 367500.0 5616500.0 3740.5
  vertex 368500.0 5615500.0 3503.39990234375
  vertex 367500.0 5615500.0 4236.89990234375
 endloop
endfacet
facet normal -0.4230363667011261 -0.21429139375686646 -0.8804087042808533
 outer loop
  vertex 367500.0 5616500.0 3740.5
  vertex 368500.0 5616500.0 3260.0
  vertex 368500.0 5615500.0 3503.39990234375
 endloop
endfacet
facet normal -0.21701152622699738 -0.2308593988418579 -0.9484777450561523
 outer loop
  vertex 368500.0 5616500.0 3260.0
  vertex 369500.0 5615500.0 3274.60009765625
  vertex 368500.0 5615500.0 3503.39990234375
 endloop
endfacet
facet normal -0.009496813639998436 -0.024092014878988266 -0.9996646046638489
 outer loop
  vertex 368500.0 5616500.0 3260.0
  vertex 369500.0 5616500.0 3250.5
  vertex 369500.0 5615500.0 3274.60009765625
 endloop
endfacet
facet normal 0.011195996776223183 -0.02409159205853939 -0.9996470808982849
 outer loop
  vertex 369500.0 5616500.0 3250.5
  vertex 370500.0 5615500.0 3285.800048828125
  vertex 369500.0 5615500.0 3274.60009765625
 endloop
endfacet
facet normal -0.13417141139507294 -0.16864199936389923 -0.9765028953552246
 outer loop
  vertex 369500.0 5616500.0 3250.5
  vertex 370500.0 5616500.0 3113.10009765625
  vertex 370500.0 5615500.0 3285.800048828125
 endloop
endfacet
facet normal -0.005497668869793415 -0.028587976470589638 -0.9995761513710022
 outer loop
  vertex 361500.0 5617500.0 4228.39990234375
  vertex 362500.0 5616500.0 4251.5
  vertex 361500.0 5616500.0 4257.0
 endloop
endfacet
facet normal -0.015186820179224014 -0.038267333060503006 -0.9991521835327148
 outer loop
  vertex 361500.0 5617500.0 4228.39990234375
  vertex 362500.0 5617500.0 4213.2001953125
  vertex 362500.0 5616500.0 4251.5
 endloop
endfacet
facet normal -0.2500106394290924 -0.03705635294318199 -0.9675337672233582
 outer loop
  vertex 362500.0 5617500.0 4213.2001953125
  vertex 363500.0 5616500.0 3993.10009765625
  vertex 362500.0 5616500.0 4251.5
 endloop
endfacet
facet normal -0.457318514585495 -0.27088430523872375 -0.8470427989959717
 outer loop
  vertex 362500.0 5617500.0 4213.2001953125
  vertex 363500.0 5617500.0 3673.300048828125
  vertex 363500.0 5616500.0 3993.10009765625
 endloop
endfacet
facet normal 0.34073153138160706 -0.2863757312297821 -0.8954836130142212
 outer loop
  vertex 363500.0 5617500.0 3673.300048828125
  vertex 364500.0 5616500.0 4373.60009765625
  vertex 363500.0 5616500.0 3993.10009765625
 endloop
endfacet
facet normal 0.502667248249054 -0.09876426309347153 -0.8588197231292725
 outer loop
  vertex 363500.0 5617500.0 3673.300048828125
  vertex 364500.0 5617500.0 4258.60009765625
  vertex 364500.0 5616500.0 4373.60009765625
 endloop
endfacet
facet normal -0.006258922163397074 -0.11424478143453598 -0.9934329390525818
 outer loop
  vertex 364500.0 5617500.0 4258.60009765625
  vertex 365500.0 5616500.0 4367.2998046875
  vertex 364500.0 5616500.0 4373.60009765625
 endloop
endfacet
facet normal 0.09673742949962616 -0.011445307172834873 -0.9952440857887268
 outer loop
  vertex 364500.0 5617500.0 4258.60009765625
  vertex 365500.0 5617500.0 4355.7998046875
  vertex 365500.0 5616500.0 4367.2998046875
 endloop
endfacet
facet normal -0.46826931834220886 -0.010160565376281738 -0.8835274577140808
 outer loop
  vertex 365500.0 5617500.0 4355.7998046875
  vertex 366500.0 5616500.0 3837.300048828125
  vertex 365500.0 5616500.0 4367.2998046875
 endloop
endfacet
facet normal -0.686611533164978 -0.3587353229522705 -0.6323555707931519
 outer loop
  vertex 365500.0 5617500.0 4355.7998046875
  vertex 366500.0 5617500.0 3270.0
  vertex 366500.0 5616500.0 3837.300048828125
 endloop
endfacet
facet normal -0.08389846980571747 -0.4916898310184479 -0.8667191863059998
 outer loop
  vertex 366500.0 5617500.0 3270.0
  vertex 367500.0 5616500.0 3740.5
  vertex 366500.0 5616500.0 3837.300048828125
 endloop
endfacet
facet normal -0.0066764941439032555 -0.43118080496788025 -0.9022408723831177
 outer loop
  vertex 366500.0 5617500.0 3270.0
  vertex 367500.0 5617500.0 3262.60009765625
  vertex 367500.0 5616500.0 3740.5
 endloop
endfacet
facet normal -0.39776429533958435 -0.39561188220977783 -0.8278132677078247
 outer loop
  vertex 367500.0 5617500.0 3262.60009765625
  vertex 368500.0 5616500.0 3260.0
  vertex 367500.0 5616500.0 3740.5
 endloop
endfacet
facet normal 0.0022997709456831217 0.004899830557405949 -0.99998539686203
 outer loop
  vertex 367500.0 5617500.0 3262.60009765625
  vertex 368500.0 5617500.0 3264.89990234375
  vertex 368500.0 5616500.0 3260.0
 endloop
endfacet
facet normal -0.00949945766478777 0.004899622406810522 -0.9999428987503052
 outer loop
  vertex 368500.0 5617500.0 3264.89990234375
  vertex 369500.0 5616500.0 3250.5
  vertex 368500.0 5616500.0 3260.0
 endloop
endfacet
facet normal -0.038958605378866196 -0.02457398734986782 -0.9989386200904846
 outer loop
  vertex 368500.0 5617500.0 3264.89990234375
  vertex 369500.0 5617500.0 3225.89990234375
  vertex 369500.0 5616500.0 3250.5
 endloop
endfacet
facet normal -0.13608060777187347 -0.024363892152905464 -0.9903981685638428
 outer loop
  vertex 369500.0 5617500.0 3225.89990234375
  vertex 370500.0 5616500.0 3113.10009765625
  vertex 369500.0 5616500.0 3250.5
 endloop
endfacet
facet normal -0.1762775033712387 -0.20008285343647003 -0.9637909531593323
 outer loop
  vertex 360500.0 5618500.0 4203.7001953125
  vertex 361500.0 5618500.0 4020.800048828125
  vertex 361500.0 5617500.0 4228.39990234375
 endloop
endfacet
facet normal -0.014880754984915257 -0.2032434195280075 -0.9790151715278625
 outer loop
  vertex 361500.0 5618500.0 4020.800048828125
  vertex 362500.0 5617500.0 4213.2001953125
  vertex 361500.0 5617500.0 4228.39990234375
 endloop
endfacet
facet normal -0.1465250849723816 -0.32620272040367126 -0.933874785900116
 outer loop
  vertex 361500.0 5618500.0 4020.800048828125
  vertex 362500.0 5618500.0 3863.89990234375
  vertex 362500.0 5617500.0 4213.2001953125
 endloop
endfacet
facet normal -0.4541141986846924 -0.29379919171333313 -0.8411077857017517
 outer loop
  vertex 362500.0 5618500.0 3863.89990234375
  vertex 363500.0 5617500.0 3673.300048828125
  vertex 362500.0 5617500.0 4213.2001953125
 endloop
endfacet
facet normal -0.12269121408462524 0.06604927033185959 -0.9902446269989014
 outer loop
  vertex 362500.0 5618500.0 3863.89990234375
  vertex 363500.0 5618500.0 3740.0
  vertex 363500.0 5617500.0 3673.300048828125
 endloop
endfacet
facet normal 0.5043020248413086 0.05746953561902046 -0.8616127967834473
 outer loop
  vertex 363500.0 5618500.0 3740.0
  vertex 364500.0 5617500.0 4258.60009765625
  vertex 363500.0 5617500.0 3673.300048828125
 endloop
endfacet
facet normal 0.214921236038208 -0.27158302068710327 -0.9381105899810791
 outer loop
  vertex 363500.0 5618500.0 3740.0
  vertex 364500.0 5618500.0 3969.10009765625
  vertex 364500.0 5617500.0 4258.60009765625
 endloop
endfacet
facet normal 0.0929616168141365 -0.276877224445343 -0.9563980102539062
 outer loop
  vertex 364500.0 5618500.0 3969.10009765625
  vertex 365500.0 5617500.0 4355.7998046875
  vertex 364500.0 5617500.0 4258.60009765625
 endloop
endfacet
facet normal -0.06600644439458847 -0.41661983728408813 -0.9066812992095947
 outer loop
  vertex 364500.0 5618500.0 3969.10009765625
  vertex 365500.0 5618500.0 3896.300048828125
  vertex 365500.0 5617500.0 4355.7998046875
 endloop
endfacet
facet normal -0.7023306488990784 -0.2972193956375122 -0.6468325853347778
 outer loop
  vertex 365500.0 5618500.0 3896.300048828125
  vertex 366500.0 5617500.0 3270.0
  vertex 365500.0 5617500.0 4355.7998046875
 endloop
endfacet
facet normal -0.5448228120803833 -0.01978435181081295 -0.8383177518844604
 outer loop
  vertex 365500.0 5618500.0 3896.300048828125
  vertex 366500.0 5618500.0 3246.39990234375
  vertex 366500.0 5617500.0 3270.0
 endloop
endfacet
facet normal -0.0073976400308310986 -0.023592881858348846 -0.999694287776947
 outer loop
  vertex 366500.0 5618500.0 3246.39990234375
  vertex 367500.0 5617500.0 3262.60009765625
  vertex 366500.0 5617500.0 3270.0
 endloop
endfacet
facet normal 0.008999401703476906 -0.007199716754257679 -0.9999335408210754
 outer loop
  vertex 366500.0 5618500.0 3246.39990234375
  vertex 367500.0 5618500.0 3255.39990234375
  vertex 367500.0 5617500.0 3262.60009765625
 endloop
endfacet
facet normal 0.002299739047884941 -0.007199989631772041 -0.9999714493751526
 outer loop
  vertex 367500.0 5618500.0 3255.39990234375
  vertex 368500.0 5617500.0 3264.89990234375
  vertex 367500.0 5617500.0 3262.60009765625
 endloop
endfacet
facet normal 0.02129373699426651 0.011796552687883377 -0.9997037053108215
 outer loop
  vertex 367500.0 5618500.0 3255.39990234375
  vertex 368500.0 5618500.0 3276.699951171875
  vertex 368500.0 5617500.0 3264.89990234375
 endloop
endfacet
facet normal -0.038967665284872055 0.011790266260504723 -0.9991709589958191
 outer loop
  vertex 368500.0 5618500.0 3276.699951171875
  vertex 369500.0 5617500.0 3225.89990234375
  vertex 368500.0 5617500.0 3264.89990234375
 endloop
endfacet
facet normal -0.09595457464456558 -0.045441653579473495 -0.9943479299545288
 outer loop
  vertex 368500.0 5618500.0 3276.699951171875
  vertex 369500.0 5618500.0 3180.199951171875
  vertex 369500.0 5617500.0 3225.89990234375
 endloop
endfacet
facet normal -0.13723020255565643 -0.4649554491043091 -0.8746337890625
 outer loop
  vertex 361500.0 5619500.0 3489.199951171875
  vertex 362500.0 5618500.0 3863.89990234375
  vertex 361500.0 5618500.0 4020.800048828125
 endloop
endfacet
facet normal 0.0033751651644706726 -0.3479137122631073 -0.937520444393158
 outer loop
  vertex 361500.0 5619500.0 3489.199951171875
  vertex 362500.0 5619500.0 3492.800048828125
  vertex 362500.0 5618500.0 3863.89990234375
 endloop
endfacet
facet normal -0.11538352072238922 -0.3455919623374939 -0.9312641024589539
 outer loop
  vertex 362500.0 5619500.0 3492.800048828125
  vertex 363500.0 5618500.0 3740.0
  vertex 362500.0 5618500.0 3863.89990234375
 endloop
endfacet
facet normal 0.16856367886066437 -0.07440385967493057 -0.982878565788269
 outer loop
  vertex 362500.0 5619500.0 3492.800048828125
  vertex 363500.0 5619500.0 3664.300048828125
  vertex 363500.0 5618500.0 3740.0
 endloop
endfacet
facet normal 0.2227090448141098 -0.07358819991350174 -0.9721035957336426
 outer loop
  vertex 363500.0 5619500.0 3664.300048828125
  vertex 364500.0 5618500.0 3969.10009765625
  vertex 363500.0 5618500.0 3740.0
 endloop
endfacet
facet normal -0.10291898995637894 -0.3827556371688843 -0.918099045753479
 outer loop
  vertex 363500.0 5619500.0 3664.300048828125
  vertex 364500.0 5619500.0 3552.199951171875
  vertex 364500.0 5618500.0 3969.10009765625
 endloop
endfacet
facet normal -0.06704330444335938 -0.38393324613571167 -0.9209237098693848
 outer loop
  vertex 364500.0 5619500.0 3552.199951171875
  vertex 365500.0 5618500.0 3896.300048828125
  vertex 364500.0 5618500.0 3969.10009765625
 endloop
endfacet
facet normal -0.14297519624233246 -0.4468529224395752 -0.8831085562705994
 outer loop
  vertex 364500.0 5619500.0 3552.199951171875
  vertex 365500.0 5619500.0 3390.300048828125
  vertex 365500.0 5618500.0 3896.300048828125
 endloop
endfacet
facet normal -0.501646876335144 -0.39057278633117676 -0.7718830108642578
 outer loop
  vertex 365500.0 5619500.0 3390.300048828125
  vertex 366500.0 5618500.0 3246.39990234375
  vertex 365500.0 5618500.0 3896.300048828125
 endloop
endfacet
facet normal -0.1412687450647354 0.0011881502578034997 -0.9899705648422241
 outer loop
  vertex 365500.0 5619500.0 3390.300048828125
  vertex 366500.0 5619500.0 3247.60009765625
  vertex 366500.0 5618500.0 3246.39990234375
 endloop
endfacet
facet normal 0.008999628946185112 0.0012001458089798689 -0.9999587535858154
 outer loop
  vertex 366500.0 5619500.0 3247.60009765625
  vertex 367500.0 5618500.0 3255.39990234375
  vertex 366500.0 5618500.0 3246.39990234375
 endloop
endfacet
facet normal -0.061929263174533844 -0.06969509273767471 -0.9956441521644592
 outer loop
  vertex 366500.0 5619500.0 3247.60009765625
  vertex 367500.0 5619500.0 3185.39990234375
  vertex 367500.0 5618500.0 3255.39990234375
 endloop
endfacet
facet normal 0.021243257448077202 -0.06981337070465088 -0.9973338842391968
 outer loop
  vertex 367500.0 5619500.0 3185.39990234375
  vertex 368500.0 5618500.0 3276.699951171875
  vertex 367500.0 5618500.0 3255.39990234375
 endloop
endfacet
facet normal -0.07851102948188782 -0.1682240217924118 -0.9826172590255737
 outer loop
  vertex 367500.0 5619500.0 3185.39990234375
  vertex 368500.0 5619500.0 3105.5
  vertex 368500.0 5618500.0 3276.699951171875
 endloop
endfacet
facet normal -0.09468880295753479 -0.16798672080039978 -0.981231153011322
 outer loop
  vertex 368500.0 5619500.0 3105.5
  vertex 369500.0 5618500.0 3180.199951171875
  vertex 368500.0 5618500.0 3276.699951171875
 endloop
endfacet
facet normal 0.09258504211902618 0.018218394368886948 -0.9955381155014038
 outer loop
  vertex 368500.0 5619500.0 3105.5
  vertex 369500.0 5619500.0 3198.5
  vertex 369500.0 5618500.0 3180.199951171875
 endloop
endfacet
facet normal 0.05182173475623131 0.01827239990234375 -0.9984891414642334
 outer loop
  vertex 369500.0 5619500.0 3198.5
  vertex 370500.0 5618500.0 3232.10009765625
  vertex 369500.0 5618500.0 3180.199951171875
 endloop
endfacet
facet normal 0.44904884696006775 0.42259708046913147 -0.7872527241706848
 outer loop
  vertex 369500.0 5619500.0 3198.5
  vertex 370500.0 5619500.0 3768.89990234375
  vertex 370500.0 5618500.0 3232.10009765625
 endloop
endfacet
facet normal 0.0035752321127802134 -0.11728401482105255 -0.9930920004844666
 outer loop
  vertex 361500.0 5620500.0 3371.10009765625
  vertex 362500.0 5619500.0 3492.800048828125
  vertex 361500.0 5619500.0 3489.199951171875
 endloop
endfacet
facet normal 0.037142012268304825 -0.08404310792684555 -0.9957696795463562
 outer loop
  vertex 361500.0 5620500.0 3371.10009765625
  vertex 362500.0 5620500.0 3408.39990234375
  vertex 362500.0 5619500.0 3492.800048828125
 endloop
endfacet
facet normal 0.16845038533210754 -0.08289934694766998 -0.9822179675102234
 outer loop
  vertex 362500.0 5620500.0 3408.39990234375
  vertex 363500.0 5619500.0 3664.300048828125
  vertex 362500.0 5619500.0 3492.800048828125
 endloop
endfacet
facet normal -0.08502186089754105 -0.32596486806869507 -0.9415508508682251
 outer loop
  vertex 362500.0 5620500.0 3408.39990234375
  vertex 363500.0 5620500.0 3318.10009765625
  vertex 363500.0 5619500.0 3664.300048828125
 endloop
endfacet
facet normal -0.10534210503101349 -0.3253292143344879 -0.9397148489952087
 outer loop
  vertex 363500.0 5620500.0 3318.10009765625
  vertex 364500.0 5619500.0 3552.199951171875
  vertex 363500.0 5619500.0 3664.300048828125
 endloop
endfacet
facet normal -0.06383650749921799 -0.2875506579875946 -0.9556356072425842
 outer loop
  vertex 363500.0 5620500.0 3318.10009765625
  vertex 364500.0 5620500.0 3251.300048828125
  vertex 364500.0 5619500.0 3552.199951171875
 endloop
endfacet
facet normal -0.1532033234834671 -0.2847368121147156 -0.9462841749191284
 outer loop
  vertex 364500.0 5620500.0 3251.300048828125
  vertex 365500.0 5619500.0 3390.300048828125
  vertex 364500.0 5619500.0 3552.199951171875
 endloop
endfacet
facet normal -0.01206196565181017 -0.14948983490467072 -0.9886897206306458
 outer loop
  vertex 364500.0 5620500.0 3251.300048828125
  vertex 365500.0 5620500.0 3239.10009765625
  vertex 365500.0 5619500.0 3390.300048828125
 endloop
endfacet
facet normal -0.1397123783826828 -0.14803442358970642 -0.9790639281272888
 outer loop
  vertex 365500.0 5620500.0 3239.10009765625
  vertex 366500.0 5619500.0 3247.60009765625
  vertex 365500.0 5619500.0 3390.300048828125
 endloop
endfacet
facet normal -0.13575878739356995 -0.14409056305885315 -0.9802078604698181
 outer loop
  vertex 365500.0 5620500.0 3239.10009765625
  vertex 366500.0 5620500.0 3100.60009765625
  vertex 366500.0 5619500.0 3247.60009765625
 endloop
endfacet
facet normal -0.06142265722155571 -0.1451624184846878 -0.9874994158744812
 outer loop
  vertex 366500.0 5620500.0 3100.60009765625
  vertex 367500.0 5619500.0 3185.39990234375
  vertex 366500.0 5619500.0 3247.60009765625
 endloop
endfacet
facet normal 0.1330416053533554 0.049098819494247437 -0.9898935556411743
 outer loop
  vertex 366500.0 5620500.0 3100.60009765625
  vertex 367500.0 5620500.0 3235.0
  vertex 367500.0 5619500.0 3185.39990234375
 endloop
endfacet
facet normal -0.0795489102602005 0.04938220977783203 -0.9956070780754089
 outer loop
  vertex 367500.0 5620500.0 3235.0
  vertex 368500.0 5619500.0 3105.5
  vertex 367500.0 5619500.0 3185.39990234375
 endloop
endfacet
facet normal -0.0381140410900116 0.09075703471899033 -0.995143473148346
 outer loop
  vertex 367500.0 5620500.0 3235.0
  vertex 368500.0 5620500.0 3196.699951171875
  vertex 368500.0 5619500.0 3105.5
 endloop
endfacet
facet normal 0.0922209620475769 0.09043599665164948 -0.9916232824325562
 outer loop
  vertex 368500.0 5620500.0 3196.699951171875
  vertex 369500.0 5619500.0 3198.5
  vertex 368500.0 5619500.0 3105.5
 endloop
endfacet
facet normal 0.16026628017425537 0.15851256251335144 -0.974263072013855
 outer loop
  vertex 368500.0 5620500.0 3196.699951171875
  vertex 369500.0 5620500.0 3361.199951171875
  vertex 369500.0 5619500.0 3198.5
 endloop
endfacet
facet normal 0.4905901253223419 0.13993515074253082 -0.8600810766220093
 outer loop
  vertex 369500.0 5620500.0 3361.199951171875
  vertex 370500.0 5619500.0 3768.89990234375
  vertex 369500.0 5619500.0 3198.5
 endloop
endfacet
facet normal 0.5955742001533508 0.2901841700077057 -0.749055802822113
 outer loop
  vertex 369500.0 5620500.0 3361.199951171875
  vertex 370500.0 5620500.0 4156.2998046875
  vertex 370500.0 5619500.0 3768.89990234375
 endloop
endfacet
facet normal 0.5609666705131531 0.2990482747554779 -0.77193683385849
 outer loop
  vertex 370500.0 5620500.0 4156.2998046875
  vertex 371500.0 5619500.0 4495.60009765625
  vertex 370500.0 5619500.0 3768.89990234375
 endloop
endfacet
facet normal 0.0753500759601593 -0.2520029544830322 -0.964788556098938
 outer loop
  vertex 370500.0 5620500.0 4156.2998046875
  vertex 371500.0 5620500.0 4234.39990234375
  vertex 371500.0 5619500.0 4495.60009765625
 endloop
endfacet
facet normal 0.03727368265390396 0.0032974937930703163 -0.9992997050285339
 outer loop
  vertex 361500.0 5621500.0 3374.39990234375
  vertex 362500.0 5620500.0 3408.39990234375
  vertex 361500.0 5620500.0 3371.10009765625
 endloop
endfacet
facet normal -0.0005994946695864201 -0.03457915410399437 -0.9994018077850342
 outer loop
  vertex 361500.0 5621500.0 3374.39990234375
  vertex 362500.0 5621500.0 3373.800048828125
  vertex 362500.0 5620500.0 3408.39990234375
 endloop
endfacet
facet normal -0.08988054096698761 -0.03443920239806175 -0.9953569769859314
 outer loop
  vertex 362500.0 5621500.0 3373.800048828125
  vertex 363500.0 5620500.0 3318.10009765625
  vertex 362500.0 5620500.0 3408.39990234375
 endloop
endfacet
facet normal -0.13759315013885498 -0.08261521905660629 -0.9870374202728271
 outer loop
  vertex 362500.0 5621500.0 3373.800048828125
  vertex 363500.0 5621500.0 3234.39990234375
  vertex 363500.0 5620500.0 3318.10009765625
 endloop
endfacet
facet normal -0.06642027944326401 -0.0832243487238884 -0.9943149089813232
 outer loop
  vertex 363500.0 5621500.0 3234.39990234375
  vertex 364500.0 5620500.0 3251.300048828125
  vertex 363500.0 5620500.0 3318.10009765625
 endloop
endfacet
facet normal -0.005398481618613005 -0.0222941804677248 -0.9997369050979614
 outer loop
  vertex 363500.0 5621500.0 3234.39990234375
  vertex 364500.0 5621500.0 3229.0
  vertex 364500.0 5620500.0 3251.300048828125
 endloop
endfacet
facet normal -0.01219601184129715 -0.0222928486764431 -0.9996771216392517
 outer loop
  vertex 364500.0 5621500.0 3229.0
  vertex 365500.0 5620500.0 3239.10009765625
  vertex 364500.0 5620500.0 3251.300048828125
 endloop
endfacet
facet normal 0.019595449790358543 0.0094977468252182 -0.9997628927230835
 outer loop
  vertex 364500.0 5621500.0 3229.0
  vertex 365500.0 5621500.0 3248.60009765625
  vertex 365500.0 5620500.0 3239.10009765625
 endloop
endfacet
facet normal -0.13718436658382416 0.009409758262336254 -0.9905008673667908
 outer loop
  vertex 365500.0 5621500.0 3248.60009765625
  vertex 366500.0 5620500.0 3100.60009765625
  vertex 365500.0 5620500.0 3239.10009765625
 endloop
endfacet
facet normal -0.08829860389232635 0.058865658938884735 -0.9943531155586243
 outer loop
  vertex 365500.0 5621500.0 3248.60009765625
  vertex 366500.0 5621500.0 3159.800048828125
  vertex 366500.0 5620500.0 3100.60009765625
 endloop
endfacet
facet normal 0.1329735666513443 0.05857168883085251 -0.9893873929977417
 outer loop
  vertex 366500.0 5621500.0 3159.800048828125
  vertex 367500.0 5620500.0 3235.0
  vertex 366500.0 5620500.0 3100.60009765625
 endloop
endfacet
facet normal 0.04233911260962486 -0.032753024250268936 -0.9985663294792175
 outer loop
  vertex 366500.0 5621500.0 3159.800048828125
  vertex 367500.0 5621500.0 3202.199951171875
  vertex 367500.0 5620500.0 3235.0
 endloop
endfacet
facet normal -0.038251444697380066 -0.032758425921201706 -0.9987310767173767
 outer loop
  vertex 367500.0 5621500.0 3202.199951171875
  vertex 368500.0 5620500.0 3196.699951171875
  vertex 367500.0 5620500.0 3235.0
 endloop
endfacet
facet normal 0.1343049556016922 0.13970069587230682 -0.9810432195663452
 outer loop
  vertex 367500.0 5621500.0 3202.199951171875
  vertex 368500.0 5621500.0 3339.10009765625
  vertex 368500.0 5620500.0 3196.699951171875
 endloop
endfacet
facet normal 0.1607394516468048 0.13914480805397034 -0.9771395325660706
 outer loop
  vertex 368500.0 5621500.0 3339.10009765625
  vertex 369500.0 5620500.0 3361.199951171875
  vertex 368500.0 5620500.0 3196.699951171875
 endloop
endfacet
facet normal 0.4949231445789337 0.4788995087146759 -0.7250560522079468
 outer loop
  vertex 368500.0 5621500.0 3339.10009765625
  vertex 369500.0 5621500.0 4021.699951171875
  vertex 369500.0 5620500.0 3361.199951171875
 endloop
endfacet
facet normal 0.5528404116630554 0.45925188064575195 -0.6953094005584717
 outer loop
  vertex 369500.0 5621500.0 4021.699951171875
  vertex 370500.0 5620500.0 4156.2998046875
  vertex 369500.0 5620500.0 3361.199951171875
 endloop
endfacet
facet normal 0.12099481374025345 -0.012605391442775726 -0.9925731420516968
 outer loop
  vertex 369500.0 5621500.0 4021.699951171875
  vertex 370500.0 5621500.0 4143.60009765625
  vertex 370500.0 5620500.0 4156.2998046875
 endloop
endfacet
facet normal 0.07785674929618835 -0.012660137377679348 -0.9968841671943665
 outer loop
  vertex 370500.0 5621500.0 4143.60009765625
  vertex 371500.0 5620500.0 4234.39990234375
  vertex 370500.0 5620500.0 4156.2998046875
 endloop
endfacet
facet normal -0.07745721191167831 -0.16670967638492584 -0.9829589128494263
 outer loop
  vertex 370500.0 5621500.0 4143.60009765625
  vertex 371500.0 5621500.0 4064.800048828125
  vertex 371500.0 5620500.0 4234.39990234375
 endloop
endfacet
facet normal -0.000593117787502706 -0.14950068295001984 -0.9887614250183105
 outer loop
  vertex 361500.0 5622500.0 3223.199951171875
  vertex 362500.0 5621500.0 3373.800048828125
  vertex 361500.0 5621500.0 3374.39990234375
 endloop
endfacet
facet normal 0.0538715161383152 -0.0958159789443016 -0.9939402341842651
 outer loop
  vertex 361500.0 5622500.0 3223.199951171875
  vertex 362500.0 5622500.0 3277.39990234375
  vertex 362500.0 5621500.0 3373.800048828125
 endloop
endfacet
facet normal -0.13744011521339417 -0.09504471719264984 -0.9859395027160645
 outer loop
  vertex 362500.0 5622500.0 3277.39990234375
  vertex 363500.0 5621500.0 3234.39990234375
  vertex 362500.0 5621500.0 3373.800048828125
 endloop
endfacet
facet normal -0.03787222132086754 0.0050963726826012135 -0.9992696046829224
 outer loop
  vertex 362500.0 5622500.0 3277.39990234375
  vertex 363500.0 5622500.0 3239.5
  vertex 363500.0 5621500.0 3234.39990234375
 endloop
endfacet
facet normal -0.005399753339588642 0.005099956877529621 -0.9999724626541138
 outer loop
  vertex 363500.0 5622500.0 3239.5
  vertex 364500.0 5621500.0 3229.0
  vertex 363500.0 5621500.0 3234.39990234375
 endloop
endfacet
facet normal -0.02848382294178009 -0.017989782616496086 -0.999432384967804
 outer loop
  vertex 363500.0 5622500.0 3239.5
  vertex 364500.0 5622500.0 3211.0
  vertex 364500.0 5621500.0 3229.0
 endloop
endfacet
facet normal 0.019593162462115288 -0.017993630841374397 -0.9996461272239685
 outer loop
  vertex 364500.0 5622500.0 3211.0
  vertex 365500.0 5621500.0 3248.60009765625
  vertex 364500.0 5621500.0 3229.0
 endloop
endfacet
facet normal 0.03837161138653755 0.0007992153987288475 -0.9992632269859314
 outer loop
  vertex 364500.0 5622500.0 3211.0
  vertex 365500.0 5622500.0 3249.39990234375
  vertex 365500.0 5621500.0 3248.60009765625
 endloop
endfacet
facet normal -0.08845195919275284 0.0007966695702634752 -0.9960801005363464
 outer loop
  vertex 365500.0 5622500.0 3249.39990234375
  vertex 366500.0 5621500.0 3159.800048828125
  vertex 365500.0 5621500.0 3248.60009765625
 endloop
endfacet
facet normal -0.08172335475683212 0.007574211806058884 -0.9966263175010681
 outer loop
  vertex 365500.0 5622500.0 3249.39990234375
  vertex 366500.0 5622500.0 3167.39990234375
  vertex 366500.0 5621500.0 3159.800048828125
 endloop
endfacet
facet normal 0.04236061871051788 0.007592812646180391 -0.9990735650062561
 outer loop
  vertex 366500.0 5622500.0 3167.39990234375
  vertex 367500.0 5621500.0 3202.199951171875
  vertex 366500.0 5621500.0 3159.800048828125
 endloop
endfacet
facet normal 0.06314806640148163 0.028431573882699013 -0.9975990653038025
 outer loop
  vertex 366500.0 5622500.0 3167.39990234375
  vertex 367500.0 5622500.0 3230.699951171875
  vertex 367500.0 5621500.0 3202.199951171875
 endloop
endfacet
facet normal 0.13558100163936615 0.028225377202033997 -0.990364134311676
 outer loop
  vertex 367500.0 5622500.0 3230.699951171875
  vertex 368500.0 5621500.0 3339.10009765625
  vertex 367500.0 5621500.0 3202.199951171875
 endloop
endfacet
facet normal 0.10157005488872528 -0.006267348770052195 -0.9948086738586426
 outer loop
  vertex 367500.0 5622500.0 3230.699951171875
  vertex 368500.0 5622500.0 3332.800048828125
  vertex 368500.0 5621500.0 3339.10009765625
 endloop
endfacet
facet normal 0.5637698173522949 -0.005203308537602425 -0.8259155750274658
 outer loop
  vertex 368500.0 5622500.0 3332.800048828125
  vertex 369500.0 5621500.0 4021.699951171875
  vertex 368500.0 5621500.0 3339.10009765625
 endloop
endfacet
facet normal 0.027668176218867302 -0.5481834411621094 -0.8359003067016602
 outer loop
  vertex 368500.0 5622500.0 3332.800048828125
  vertex 369500.0 5622500.0 3365.89990234375
  vertex 369500.0 5621500.0 4021.699951171875
 endloop
endfacet
facet normal 0.10140988230705261 -0.5455663204193115 -0.8319095373153687
 outer loop
  vertex 369500.0 5622500.0 3365.89990234375
  vertex 370500.0 5621500.0 4143.60009765625
  vertex 369500.0 5621500.0 4021.699951171875
 endloop
endfacet
facet normal 0.07873188704252243 -0.5617465972900391 -0.8235544562339783
 outer loop
  vertex 369500.0 5622500.0 3365.89990234375
  vertex 370500.0 5622500.0 3461.5
  vertex 370500.0 5621500.0 4143.60009765625
 endloop
endfacet
facet normal -0.06496072560548782 -0.5623056292533875 -0.8243740200996399
 outer loop
  vertex 370500.0 5622500.0 3461.5
  vertex 371500.0 5621500.0 4064.800048828125
  vertex 370500.0 5621500.0 4143.60009765625
 endloop
endfacet
facet normal 0.5006308555603027 -0.021461844444274902 -0.8653947710990906
 outer loop
  vertex 370500.0 5622500.0 3461.5
  vertex 371500.0 5622500.0 4040.0
  vertex 371500.0 5621500.0 4064.800048828125
 endloop
endfacet
facet normal 0.06116645783185959 -0.0247460026293993 -0.9978207349777222
 outer loop
  vertex 371500.0 5622500.0 4040.0
  vertex 372500.0 5621500.0 4126.10009765625
  vertex 371500.0 5621500.0 4064.800048828125
 endloop
endfacet
facet normal 0.14479053020477295 0.05975321680307388 -0.9876564741134644
 outer loop
  vertex 371500.0 5622500.0 4040.0
  vertex 372500.0 5622500.0 4186.60009765625
  vertex 372500.0 5621500.0 4126.10009765625
 endloop
endfacet
facet normal 0.05411960929632187 0.005791450850665569 -0.998517632484436
 outer loop
  vertex 361500.0 5623500.0 3229.0
  vertex 362500.0 5622500.0 3277.39990234375
  vertex 361500.0 5622500.0 3223.199951171875
 endloop
endfacet
facet normal 0.01159147173166275 -0.03677244111895561 -0.999256432056427
 outer loop
  vertex 361500.0 5623500.0 3229.0
  vertex 362500.0 5623500.0 3240.60009765625
  vertex 362500.0 5622500.0 3277.39990234375
 endloop
endfacet
facet normal -0.0378471277654171 -0.03674856200814247 -0.9986075758934021
 outer loop
  vertex 362500.0 5623500.0 3240.60009765625
  vertex 363500.0 5622500.0 3239.5
  vertex 362500.0 5622500.0 3277.39990234375
 endloop
endfacet
facet normal 0.007499511819332838 0.008599537424743176 -0.9999348521232605
 outer loop
  vertex 362500.0 5623500.0 3240.60009765625
  vertex 363500.0 5623500.0 3248.10009765625
  vertex 363500.0 5622500.0 3239.5
 endloop
endfacet
facet normal -0.02848738059401512 0.008596289902925491 -0.9995571970939636
 outer loop
  vertex 363500.0 5623500.0 3248.10009765625
  vertex 364500.0 5622500.0 3211.0
  vertex 363500.0 5622500.0 3239.5
 endloop
endfacet
facet normal -0.002198851201683283 0.03487858176231384 -0.999389111995697
 outer loop
  vertex 363500.0 5623500.0 3248.10009765625
  vertex 364500.0 5623500.0 3245.89990234375
  vertex 364500.0 5622500.0 3211.0
 endloop
endfacet
facet normal 0.03834830969572067 0.0348530113697052 -0.9986564517021179
 outer loop
  vertex 364500.0 5623500.0 3245.89990234375
  vertex 365500.0 5622500.0 3249.39990234375
  vertex 364500.0 5622500.0 3211.0
 endloop
endfacet
facet normal -0.09198088943958282 -0.0954500064253807 -0.9911755323410034
 outer loop
  vertex 364500.0 5623500.0 3245.89990234375
  vertex 365500.0 5623500.0 3153.10009765625
  vertex 365500.0 5622500.0 3249.39990234375
 endloop
endfacet
facet normal -0.0813518613576889 -0.09553864598274231 -0.9920958876609802
 outer loop
  vertex 365500.0 5623500.0 3153.10009765625
  vertex 366500.0 5622500.0 3167.39990234375
  vertex 365500.0 5622500.0 3249.39990234375
 endloop
endfacet
facet normal 0.054871708154678345 0.04060526192188263 -0.9976674318313599
 outer loop
  vertex 365500.0 5623500.0 3153.10009765625
  vertex 366500.0 5623500.0 3208.10009765625
  vertex 366500.0 5622500.0 3167.39990234375
 endloop
endfacet
facet normal 0.06312155723571777 0.04058543220162392 -0.9971802830696106
 outer loop
  vertex 366500.0 5623500.0 3208.10009765625
  vertex 367500.0 5622500.0 3230.699951171875
  vertex 366500.0 5622500.0 3167.39990234375
 endloop
endfacet
facet normal 0.040061526000499725 0.017483271658420563 -0.9990442395210266
 outer loop
  vertex 366500.0 5623500.0 3208.10009765625
  vertex 367500.0 5623500.0 3248.199951171875
  vertex 367500.0 5622500.0 3230.699951171875
 endloop
endfacet
facet normal 0.10155666619539261 0.017406856641173363 -0.9946774840354919
 outer loop
  vertex 367500.0 5623500.0 3248.199951171875
  vertex 368500.0 5622500.0 3332.800048828125
  vertex 367500.0 5622500.0 3230.699951171875
 endloop
endfacet
facet normal 0.013065624982118607 -0.0713118463754654 -0.9973685145378113
 outer loop
  vertex 367500.0 5623500.0 3248.199951171875
  vertex 368500.0 5623500.0 3261.300048828125
  vertex 368500.0 5622500.0 3332.800048828125
 endloop
endfacet
facet normal 0.03299758955836296 -0.07127909362316132 -0.9969104528427124
 outer loop
  vertex 368500.0 5623500.0 3261.300048828125
  vertex 369500.0 5622500.0 3365.89990234375
  vertex 368500.0 5622500.0 3332.800048828125
 endloop
endfacet
facet normal 0.020722946152091026 -0.08348917216062546 -0.9962931871414185
 outer loop
  vertex 368500.0 5623500.0 3261.300048828125
  vertex 369500.0 5623500.0 3282.10009765625
  vertex 369500.0 5622500.0 3365.89990234375
 endloop
endfacet
facet normal 0.09483680874109268 -0.08313072472810745 -0.9920157790184021
 outer loop
  vertex 369500.0 5623500.0 3282.10009765625
  vertex 370500.0 5622500.0 3461.5
  vertex 369500.0 5622500.0 3365.89990234375
 endloop
endfacet
facet normal 0.011599154211580753 -0.005299618002027273 -0.9999186992645264
 outer loop
  vertex 361500.0 5624500.0 3223.699951171875
  vertex 362500.0 5623500.0 3240.60009765625
  vertex 361500.0 5623500.0 3229.0
 endloop
endfacet
facet normal 0.0009000308928079903 -0.01599794439971447 -0.999871551990509
 outer loop
  vertex 361500.0 5624500.0 3223.699951171875
  vertex 362500.0 5624500.0 3224.60009765625
  vertex 362500.0 5623500.0 3240.60009765625
 endloop
endfacet
facet normal 0.007498829159885645 -0.015997502952814102 -0.9998438954353333
 outer loop
  vertex 362500.0 5624500.0 3224.60009765625
  vertex 363500.0 5623500.0 3248.10009765625
  vertex 362500.0 5623500.0 3240.60009765625
 endloop
endfacet
facet normal 0.015997502952814102 -0.007498829159885645 -0.9998438954353333
 outer loop
  vertex 362500.0 5624500.0 3224.60009765625
  vertex 363500.0 5624500.0 3240.60009765625
  vertex 363500.0 5623500.0 3248.10009765625
 endloop
endfacet
facet normal -0.0022001280449330807 -0.007499770727008581 -0.9999694228172302
 outer loop
  vertex 363500.0 5624500.0 3240.60009765625
  vertex 364500.0 5623500.0 3245.89990234375
  vertex 363500.0 5623500.0 3248.10009765625
 endloop
endfacet
facet normal -0.14577986299991608 -0.15096165239810944 -0.977731466293335
 outer loop
  vertex 363500.0 5624500.0 3240.60009765625
  vertex 364500.0 5624500.0 3091.5
  vertex 364500.0 5623500.0 3245.89990234375
 endloop
endfacet
facet normal -0.09132976830005646 -0.1519540548324585 -0.984158992767334
 outer loop
  vertex 364500.0 5624500.0 3091.5
  vertex 365500.0 5623500.0 3153.10009765625
  vertex 364500.0 5623500.0 3245.89990234375
 endloop
endfacet
facet normal 0.017380304634571075 -0.04415041208267212 -0.9988737106323242
 outer loop
  vertex 364500.0 5624500.0 3091.5
  vertex 365500.0 5624500.0 3108.89990234375
  vertex 365500.0 5623500.0 3153.10009765625
 endloop
endfacet
facet normal 0.054863594472408295 -0.044090576469898224 -0.9975199103355408
 outer loop
  vertex 365500.0 5624500.0 3108.89990234375
  vertex 366500.0 5623500.0 3208.10009765625
  vertex 365500.0 5623500.0 3153.10009765625
 endloop
endfacet
facet normal 0.04099640995264053 -0.057953521609306335 -0.9974771738052368
 outer loop
  vertex 365500.0 5624500.0 3108.89990234375
  vertex 366500.0 5624500.0 3150.0
  vertex 366500.0 5623500.0 3208.10009765625
 endloop
endfacet
facet normal 0.0400003083050251 -0.05795586481690407 -0.997517466545105
 outer loop
  vertex 366500.0 5624500.0 3150.0
  vertex 367500.0 5623500.0 3248.199951171875
  vertex 366500.0 5623500.0 3208.10009765625
 endloop
endfacet
facet normal 0.08983238786458969 -0.007967399433255196 -0.9959250092506409
 outer loop
  vertex 366500.0 5624500.0 3150.0
  vertex 367500.0 5624500.0 3240.199951171875
  vertex 367500.0 5623500.0 3248.199951171875
 endloop
endfacet
facet normal 0.01309855468571186 -0.0079990578815341 -0.9998822212219238
 outer loop
  vertex 367500.0 5624500.0 3240.199951171875
  vertex 368500.0 5623500.0 3261.300048828125
  vertex 367500.0 5623500.0 3248.199951171875
 endloop
endfacet
facet normal -0.006197522860020399 -0.027289357036352158 -0.9996083378791809
 outer loop
  vertex 367500.0 5624500.0 3240.199951171875
  vertex 368500.0 5624500.0 3234.0
  vertex 368500.0 5623500.0 3261.300048828125
 endloop
endfacet
facet normal 0.020787809044122696 -0.027283983305096626 -0.9994115233421326
 outer loop
  vertex 368500.0 5624500.0 3234.0
  vertex 369500.0 5623500.0 3282.10009765625
  vertex 368500.0 5623500.0 3261.300048828125
 endloop
endfacet
facet normal 0.08981882035732269 -0.01911882311105728 -0.9957746267318726
 outer loop
  vertex 366500.0 5625500.0 3130.800048828125
  vertex 367500.0 5624500.0 3240.199951171875
  vertex 366500.0 5624500.0 3150.0
 endloop
endfacet
facet normal 0.030092045664787292 -0.07891696691513062 -0.9964269399642944
 outer loop
  vertex 366500.0 5625500.0 3130.800048828125
  vertex 367500.0 5625500.0 3161.0
  vertex 367500.0 5624500.0 3240.199951171875
 endloop
endfacet
facet normal -0.006180481053888798 -0.07895120978355408 -0.9968593120574951
 outer loop
  vertex 367500.0 5625500.0 3161.0
  vertex 368500.0 5624500.0 3234.0
  vertex 367500.0 5624500.0 3240.199951171875
 endloop
endfacet
endsolid
