solid
facet normal -0.02089500054717064 0.005698858294636011 -0.9997654557228088
 outer loop
  vertex 723500.0 5378500.0 6662.60009765625
  vertex 724500.0 5377500.0 6636.0
  vertex 723500.0 5377500.0 6656.89990234375
 endloop
endfacet
facet normal -0.031683869659900665 -0.005097470711916685 -0.9994849562644958
 outer loop
  vertex 723500.0 5378500.0 6662.60009765625
  vertex 724500.0 5378500.0 6630.89990234375
  vertex 724500.0 5377500.0 6636.0
 endloop
endfacet
facet normal -0.007999639958143234 -0.005099867936223745 -0.9999549984931946
 outer loop
  vertex 724500.0 5378500.0 6630.89990234375
  vertex 725500.0 5377500.0 6628.0
  vertex 724500.0 5377500.0 6636.0
 endloop
endfacet
facet normal -0.007599794305860996 -0.0047000073827803135 -0.9999600648880005
 outer loop
  vertex 724500.0 5378500.0 6630.89990234375
  vertex 725500.0 5378500.0 6623.2998046875
  vertex 725500.0 5377500.0 6628.0
 endloop
endfacet
facet normal -0.013698563911020756 0.0070992521941661835 -0.9998809695243835
 outer loop
  vertex 726500.0 5379500.0 6614.10009765625
  vertex 727500.0 5378500.0 6593.2998046875
  vertex 726500.0 5378500.0 6607.0
 endloop
endfacet
facet normal -0.011798993684351444 0.008999008685350418 -0.9998899102210999
 outer loop
  vertex 726500.0 5379500.0 6614.10009765625
  vertex 727500.0 5379500.0 6602.2998046875
  vertex 727500.0 5378500.0 6593.2998046875
 endloop
endfacet
facet normal -0.011698432266712189 0.008999019861221313 -0.9998911023139954
 outer loop
  vertex 727500.0 5379500.0 6602.2998046875
  vertex 728500.0 5378500.0 6581.60009765625
  vertex 727500.0 5378500.0 6593.2998046875
 endloop
endfacet
facet normal -0.01969587616622448 0.0009998055174946785 -0.9998055100440979
 outer loop
  vertex 727500.0 5379500.0 6602.2998046875
  vertex 728500.0 5379500.0 6582.60009765625
  vertex 728500.0 5378500.0 6581.60009765625
 endloop
endfacet
facet normal -0.031185004860162735 0.0009995130822062492 -0.9995130896568298
 outer loop
  vertex 728500.0 5379500.0 6582.60009765625
  vertex 729500.0 5378500.0 6550.39990234375
  vertex 728500.0 5378500.0 6581.60009765625
 endloop
endfacet
facet normal -0.017495431005954742 0.014696357771754265 -0.9997389316558838
 outer loop
  vertex 728500.0 5379500.0 6582.60009765625
  vertex 729500.0 5379500.0 6565.10009765625
  vertex 729500.0 5378500.0 6550.39990234375
 endloop
endfacet
facet normal -0.013007418252527714 -0.36959633231163025 -0.9291013479232788
 outer loop
  vertex 730500.0 5379500.0 6567.5
  vertex 731500.0 5379500.0 6553.5
  vertex 731500.0 5378500.0 6951.2998046875
 endloop
endfacet
facet normal 0.347851425409317 -0.3465442657470703 -0.871152400970459
 outer loop
  vertex 731500.0 5379500.0 6553.5
  vertex 732500.0 5378500.0 7350.60009765625
  vertex 731500.0 5378500.0 6951.2998046875
 endloop
endfacet
facet normal 0.659273624420166 0.06197059899568558 -0.7493450045585632
 outer loop
  vertex 731500.0 5379500.0 6553.5
  vertex 732500.0 5379500.0 7433.2998046875
  vertex 732500.0 5378500.0 7350.60009765625
 endloop
endfacet
facet normal -0.26431751251220703 0.07948719710111618 -0.961154580116272
 outer loop
  vertex 732500.0 5379500.0 7433.2998046875
  vertex 733500.0 5378500.0 7075.60009765625
  vertex 732500.0 5378500.0 7350.60009765625
 endloop
endfacet
facet normal -0.14100800454616547 0.20541135966777802 -0.968464195728302
 outer loop
  vertex 732500.0 5379500.0 7433.2998046875
  vertex 733500.0 5379500.0 7287.7001953125
  vertex 733500.0 5378500.0 7075.60009765625
 endloop
endfacet
facet normal 0.3118338882923126 0.19713857769966125 -0.9294601082801819
 outer loop
  vertex 733500.0 5379500.0 7287.7001953125
  vertex 734500.0 5378500.0 7411.10009765625
  vertex 733500.0 5378500.0 7075.60009765625
 endloop
endfacet
facet normal -0.05056788772344589 -0.17196916043758392 -0.9838035702705383
 outer loop
  vertex 733500.0 5379500.0 7287.7001953125
  vertex 734500.0 5379500.0 7236.2998046875
  vertex 734500.0 5378500.0 7411.10009765625
 endloop
endfacet
facet normal -0.019695332273840904 -0.007498334627598524 -0.9997779130935669
 outer loop
  vertex 727500.0 5380500.0 6594.7998046875
  vertex 728500.0 5379500.0 6582.60009765625
  vertex 727500.0 5379500.0 6602.2998046875
 endloop
endfacet
facet normal -0.012098724022507668 0.0001000903284875676 -0.9999268054962158
 outer loop
  vertex 727500.0 5380500.0 6594.7998046875
  vertex 728500.0 5380500.0 6582.7001953125
  vertex 728500.0 5379500.0 6582.60009765625
 endloop
endfacet
facet normal -0.017497321590781212 0.00010008233221014962 -0.999846875667572
 outer loop
  vertex 728500.0 5380500.0 6582.7001953125
  vertex 729500.0 5379500.0 6565.10009765625
  vertex 728500.0 5379500.0 6582.60009765625
 endloop
endfacet
facet normal -0.01739775575697422 0.000199676796910353 -0.9998486042022705
 outer loop
  vertex 728500.0 5380500.0 6582.7001953125
  vertex 729500.0 5380500.0 6565.2998046875
  vertex 729500.0 5379500.0 6565.10009765625
 endloop
endfacet
facet normal 0.002399895340204239 0.00019970645371358842 -0.9999971389770508
 outer loop
  vertex 729500.0 5380500.0 6565.2998046875
  vertex 730500.0 5379500.0 6567.5
  vertex 729500.0 5379500.0 6565.10009765625
 endloop
endfacet
facet normal -0.00369961722753942 -0.005899759475141764 -0.9999757409095764
 outer loop
  vertex 729500.0 5380500.0 6565.2998046875
  vertex 730500.0 5380500.0 6561.60009765625
  vertex 730500.0 5379500.0 6567.5
 endloop
endfacet
facet normal -0.013998384587466717 -0.005899221636354923 -0.9998846650123596
 outer loop
  vertex 730500.0 5380500.0 6561.60009765625
  vertex 731500.0 5379500.0 6553.5
  vertex 730500.0 5379500.0 6567.5
 endloop
endfacet
facet normal -0.004499925300478935 0.0036000378895550966 -0.9999833703041077
 outer loop
  vertex 730500.0 5380500.0 6561.60009765625
  vertex 731500.0 5380500.0 6557.10009765625
  vertex 731500.0 5379500.0 6553.5
 endloop
endfacet
facet normal 0.660540759563446 0.00270290020853281 -0.7507852911949158
 outer loop
  vertex 731500.0 5380500.0 6557.10009765625
  vertex 732500.0 5379500.0 7433.2998046875
  vertex 731500.0 5379500.0 6553.5
 endloop
endfacet
facet normal -0.005545211024582386 -0.6621365547180176 -0.7493627071380615
 outer loop
  vertex 731500.0 5380500.0 6557.10009765625
  vertex 732500.0 5380500.0 6549.7001953125
  vertex 732500.0 5379500.0 7433.2998046875
 endloop
endfacet
facet normal -0.10846488922834396 -0.6582402586936951 -0.7449530959129333
 outer loop
  vertex 732500.0 5380500.0 6549.7001953125
  vertex 733500.0 5379500.0 7287.7001953125
  vertex 732500.0 5379500.0 7433.2998046875
 endloop
endfacet
facet normal 0.3642970323562622 -0.28904733061790466 -0.8852905035018921
 outer loop
  vertex 732500.0 5380500.0 6549.7001953125
  vertex 733500.0 5380500.0 6961.2001953125
  vertex 733500.0 5379500.0 7287.7001953125
 endloop
endfacet
facet normal -0.04880369454622269 -0.31000563502311707 -0.9494813084602356
 outer loop
  vertex 733500.0 5380500.0 6961.2001953125
  vertex 734500.0 5379500.0 7236.2998046875
  vertex 733500.0 5379500.0 7287.7001953125
 endloop
endfacet
facet normal 0.34786075353622437 0.09116437286138535 -0.9331033825874329
 outer loop
  vertex 733500.0 5380500.0 6961.2001953125
  vertex 734500.0 5380500.0 7334.0
  vertex 734500.0 5379500.0 7236.2998046875
 endloop
endfacet
facet normal -0.00449994346126914 -0.002200167626142502 -0.9999874234199524
 outer loop
  vertex 730500.0 5381500.0 6559.39990234375
  vertex 731500.0 5380500.0 6557.10009765625
  vertex 730500.0 5380500.0 6561.60009765625
 endloop
endfacet
facet normal -0.0018998987507075071 0.00039990158984437585 -0.999998152256012
 outer loop
  vertex 730500.0 5381500.0 6559.39990234375
  vertex 731500.0 5381500.0 6557.5
  vertex 731500.0 5380500.0 6557.10009765625
 endloop
endfacet
facet normal -0.007399699185043573 0.00039989137439988554 -0.9999725818634033
 outer loop
  vertex 731500.0 5381500.0 6557.5
  vertex 732500.0 5380500.0 6549.7001953125
  vertex 731500.0 5380500.0 6557.10009765625
 endloop
endfacet
facet normal -0.04760822653770447 -0.03982345759868622 -0.9980719089508057
 outer loop
  vertex 731500.0 5381500.0 6557.5
  vertex 732500.0 5381500.0 6509.7998046875
  vertex 732500.0 5380500.0 6549.7001953125
 endloop
endfacet
facet normal 0.3802817165851593 -0.036873362958431244 -0.9241353869438171
 outer loop
  vertex 732500.0 5381500.0 6509.7998046875
  vertex 733500.0 5380500.0 6961.2001953125
  vertex 732500.0 5380500.0 6549.7001953125
 endloop
endfacet
facet normal 0.008964698761701584 -0.4039483368396759 -0.91473788022995
 outer loop
  vertex 732500.0 5381500.0 6509.7998046875
  vertex 733500.0 5381500.0 6519.60009765625
  vertex 733500.0 5380500.0 6961.2001953125
 endloop
endfacet
facet normal 0.3227745592594147 -0.38234269618988037 -0.8658121228218079
 outer loop
  vertex 733500.0 5381500.0 6519.60009765625
  vertex 734500.0 5380500.0 7334.0
  vertex 733500.0 5380500.0 6961.2001953125
 endloop
endfacet
facet normal -0.005023959558457136 -0.6344873309135437 -0.772916853427887
 outer loop
  vertex 733500.0 5381500.0 6519.60009765625
  vertex 734500.0 5381500.0 6513.10009765625
  vertex 734500.0 5380500.0 7334.0
 endloop
endfacet
facet normal -0.09288903325796127 -0.6317521333694458 -0.7695848345756531
 outer loop
  vertex 734500.0 5381500.0 6513.10009765625
  vertex 735500.0 5380500.0 7213.2998046875
  vertex 734500.0 5380500.0 7334.0
 endloop
endfacet
facet normal 0.1922217309474945 -0.4265994131565094 -0.8837780952453613
 outer loop
  vertex 734500.0 5381500.0 6513.10009765625
  vertex 735500.0 5381500.0 6730.60009765625
  vertex 735500.0 5380500.0 7213.2998046875
 endloop
endfacet
facet normal 0.022148730233311653 -0.4345993995666504 -0.9003514647483826
 outer loop
  vertex 735500.0 5381500.0 6730.60009765625
  vertex 736500.0 5380500.0 7237.89990234375
  vertex 735500.0 5380500.0 7213.2998046875
 endloop
endfacet
facet normal 0.38970139622688293 -0.07590246945619583 -0.9178081154823303
 outer loop
  vertex 735500.0 5381500.0 6730.60009765625
  vertex 736500.0 5381500.0 7155.2001953125
  vertex 736500.0 5380500.0 7237.89990234375
 endloop
endfacet
facet normal -0.0018997797742486 -0.01119898445904255 -0.999935507774353
 outer loop
  vertex 730500.0 5382500.0 6548.2001953125
  vertex 731500.0 5381500.0 6557.5
  vertex 730500.0 5381500.0 6559.39990234375
 endloop
endfacet
facet normal -0.0028000769671052694 -0.01209916453808546 -0.9999228715896606
 outer loop
  vertex 730500.0 5382500.0 6548.2001953125
  vertex 731500.0 5382500.0 6545.39990234375
  vertex 731500.0 5381500.0 6557.5
 endloop
endfacet
facet normal -0.0476425401866436 -0.012085473164916039 -0.9987913370132446
 outer loop
  vertex 731500.0 5382500.0 6545.39990234375
  vertex 732500.0 5381500.0 6509.7998046875
  vertex 731500.0 5381500.0 6557.5
 endloop
endfacet
facet normal -0.015394936315715313 0.020193681120872498 -0.9996775388717651
 outer loop
  vertex 731500.0 5382500.0 6545.39990234375
  vertex 732500.0 5382500.0 6530.0
  vertex 732500.0 5381500.0 6509.7998046875
 endloop
endfacet
facet normal 0.009797823615372181 0.02019510604441166 -0.9997480511665344
 outer loop
  vertex 732500.0 5382500.0 6530.0
  vertex 733500.0 5381500.0 6519.60009765625
  vertex 732500.0 5381500.0 6509.7998046875
 endloop
endfacet
facet normal 0.212518110871315 -0.011041456833481789 -0.9770947694778442
 outer loop
  vertex 734500.0 5382500.0 6501.7998046875
  vertex 735500.0 5381500.0 6730.60009765625
  vertex 734500.0 5381500.0 6513.10009765625
 endloop
endfacet
facet normal 0.0064428262412548065 -0.21690547466278076 -0.9761713743209839
 outer loop
  vertex 734500.0 5382500.0 6501.7998046875
  vertex 735500.0 5382500.0 6508.39990234375
  vertex 735500.0 5381500.0 6730.60009765625
 endloop
endfacet
facet normal 0.38290226459503174 -0.20037901401519775 -0.901794970035553
 outer loop
  vertex 735500.0 5382500.0 6508.39990234375
  vertex 736500.0 5381500.0 7155.2001953125
  vertex 735500.0 5381500.0 6730.60009765625
 endloop
endfacet
facet normal 0.6158497333526611 0.11137691885232925 -0.7799514532089233
 outer loop
  vertex 735500.0 5382500.0 6508.39990234375
  vertex 736500.0 5382500.0 7298.0
  vertex 736500.0 5381500.0 7155.2001953125
 endloop
endfacet
facet normal -0.0027691673021763563 0.148629829287529 -0.9888890385627747
 outer loop
  vertex 730500.0 5383500.0 6698.5
  vertex 731500.0 5382500.0 6545.39990234375
  vertex 730500.0 5382500.0 6548.2001953125
 endloop
endfacet
facet normal 0.619493842124939 -0.026125915348529816 -0.7845666408538818
 outer loop
  vertex 735500.0 5383500.0 6475.10009765625
  vertex 736500.0 5382500.0 7298.0
  vertex 735500.0 5382500.0 6508.39990234375
 endloop
endfacet
facet normal -0.0037744343280792236 -0.6376608610153198 -0.7703080773353577
 outer loop
  vertex 735500.0 5383500.0 6475.10009765625
  vertex 736500.0 5383500.0 6470.2001953125
  vertex 736500.0 5382500.0 7298.0
 endloop
endfacet
facet normal -0.0617380291223526 -0.6364489197731018 -0.7688440084457397
 outer loop
  vertex 736500.0 5383500.0 6470.2001953125
  vertex 737500.0 5382500.0 7217.7001953125
  vertex 736500.0 5382500.0 7298.0
 endloop
endfacet
facet normal 0.48848479986190796 -0.15358059108257294 -0.8589503765106201
 outer loop
  vertex 736500.0 5383500.0 6470.2001953125
  vertex 737500.0 5383500.0 7038.89990234375
  vertex 737500.0 5382500.0 7217.7001953125
 endloop
endfacet
facet normal 0.49434587359428406 0.003911653999239206 -0.8692564368247986
 outer loop
  vertex 736500.0 5384500.0 6474.7001953125
  vertex 737500.0 5383500.0 7038.89990234375
  vertex 736500.0 5383500.0 6470.2001953125
 endloop
endfacet
facet normal -0.034132473170757294 -0.5167726278305054 -0.8554420471191406
 outer loop
  vertex 736500.0 5384500.0 6474.7001953125
  vertex 737500.0 5384500.0 6434.7998046875
  vertex 737500.0 5383500.0 7038.89990234375
 endloop
endfacet
facet normal 0.23989439010620117 -0.5019748210906982 -0.8309464454650879
 outer loop
  vertex 737500.0 5384500.0 6434.7998046875
  vertex 738500.0 5383500.0 7327.60009765625
  vertex 737500.0 5383500.0 7038.89990234375
 endloop
endfacet
facet normal 0.6698910593986511 0.007053045555949211 -0.7424258589744568
 outer loop
  vertex 737500.0 5384500.0 6434.7998046875
  vertex 738500.0 5384500.0 7337.10009765625
  vertex 738500.0 5383500.0 7327.60009765625
 endloop
endfacet
facet normal 0.6699073314666748 0.0011136658722534776 -0.7424439191818237
 outer loop
  vertex 737500.0 5385500.0 6436.2998046875
  vertex 738500.0 5384500.0 7337.10009765625
  vertex 737500.0 5384500.0 6434.7998046875
 endloop
endfacet
facet normal -0.0032619561534374952 -0.6710883975028992 -0.7413701415061951
 outer loop
  vertex 737500.0 5385500.0 6436.2998046875
  vertex 738500.0 5385500.0 6431.89990234375
  vertex 738500.0 5384500.0 7337.10009765625
 endloop
endfacet
facet normal 0.05507447198033333 -0.6700734496116638 -0.7402488589286804
 outer loop
  vertex 738500.0 5385500.0 6431.89990234375
  vertex 739500.0 5384500.0 7411.5
  vertex 738500.0 5384500.0 7337.10009765625
 endloop
endfacet
facet normal 0.2999569773674011 -0.497432142496109 -0.8139945268630981
 outer loop
  vertex 738500.0 5385500.0 6431.89990234375
  vertex 739500.0 5385500.0 6800.39990234375
  vertex 739500.0 5384500.0 7411.5
 endloop
endfacet
facet normal 0.34574076533317566 -0.013135333545506 -0.9382381439208984
 outer loop
  vertex 738500.0 5386500.0 6417.89990234375
  vertex 739500.0 5385500.0 6800.39990234375
  vertex 738500.0 5385500.0 6431.89990234375
 endloop
endfacet
facet normal -0.006987238768488169 -0.3633364140987396 -0.931631863117218
 outer loop
  vertex 738500.0 5386500.0 6417.89990234375
  vertex 739500.0 5386500.0 6410.39990234375
  vertex 739500.0 5385500.0 6800.39990234375
 endloop
endfacet
endsolid
