solid
facet normal -0.03496158868074417 -0.031165711581707 -0.9989025592803955
 outer loop
  vertex 481500.0 5545500.0 3950.0
  vertex 482500.0 5545500.0 3915.0
  vertex 482500.0 5544500.0 3946.199951171875
 endloop
endfacet
facet normal -0.03166864067316055 -0.031169135123491287 -0.999012291431427
 outer loop
  vertex 482500.0 5545500.0 3915.0
  vertex 483500.0 5544500.0 3914.5
  vertex 482500.0 5544500.0 3946.199951171875
 endloop
endfacet
facet normal 0.03256497159600258 0.03306443244218826 -0.9989225268363953
 outer loop
  vertex 482500.0 5545500.0 3915.0
  vertex 483500.0 5545500.0 3947.60009765625
  vertex 483500.0 5544500.0 3914.5
 endloop
endfacet
facet normal 0.01329859159886837 0.006499288138002157 -0.9998904466629028
 outer loop
  vertex 480500.0 5546500.0 3943.199951171875
  vertex 481500.0 5545500.0 3950.0
  vertex 480500.0 5545500.0 3936.699951171875
 endloop
endfacet
facet normal -0.04002372547984123 -0.04681086540222168 -0.9981015920639038
 outer loop
  vertex 480500.0 5546500.0 3943.199951171875
  vertex 481500.0 5546500.0 3903.10009765625
  vertex 481500.0 5545500.0 3950.0
 endloop
endfacet
facet normal -0.03494022414088249 -0.04681980237364769 -0.998292088508606
 outer loop
  vertex 481500.0 5546500.0 3903.10009765625
  vertex 482500.0 5545500.0 3915.0
  vertex 481500.0 5545500.0 3950.0
 endloop
endfacet
facet normal -0.0036997199058532715 -0.015598093159496784 -0.9998714923858643
 outer loop
  vertex 481500.0 5546500.0 3903.10009765625
  vertex 482500.0 5546500.0 3899.39990234375
  vertex 482500.0 5545500.0 3915.0
 endloop
endfacet
facet normal 0.03257882595062256 -0.015589918941259384 -0.9993475675582886
 outer loop
  vertex 482500.0 5546500.0 3899.39990234375
  vertex 483500.0 5545500.0 3947.60009765625
  vertex 482500.0 5545500.0 3915.0
 endloop
endfacet
facet normal -0.07929641753435135 -0.126953586935997 -0.9887339472770691
 outer loop
  vertex 482500.0 5546500.0 3899.39990234375
  vertex 483500.0 5546500.0 3819.199951171875
  vertex 483500.0 5545500.0 3947.60009765625
 endloop
endfacet
facet normal -0.06650543212890625 -0.12707266211509705 -0.9896613359451294
 outer loop
  vertex 483500.0 5546500.0 3819.199951171875
  vertex 484500.0 5545500.0 3880.39990234375
  vertex 483500.0 5545500.0 3947.60009765625
 endloop
endfacet
facet normal 0.003294513328000903 -0.05780278146266937 -0.9983225464820862
 outer loop
  vertex 483500.0 5546500.0 3819.199951171875
  vertex 484500.0 5546500.0 3822.5
  vertex 484500.0 5545500.0 3880.39990234375
 endloop
endfacet
facet normal -0.04002145305275917 -0.04800581559538841 -0.9980449676513672
 outer loop
  vertex 480500.0 5547500.0 3895.10009765625
  vertex 481500.0 5546500.0 3903.10009765625
  vertex 480500.0 5546500.0 3943.199951171875
 endloop
endfacet
facet normal -0.13435286283493042 -0.14219827950000763 -0.9806778430938721
 outer loop
  vertex 480500.0 5547500.0 3895.10009765625
  vertex 481500.0 5547500.0 3758.10009765625
  vertex 481500.0 5546500.0 3903.10009765625
 endloop
endfacet
facet normal -0.0036618676967918873 -0.14349834620952606 -0.9896438121795654
 outer loop
  vertex 481500.0 5547500.0 3758.10009765625
  vertex 482500.0 5546500.0 3899.39990234375
  vertex 481500.0 5546500.0 3903.10009765625
 endloop
endfacet
facet normal 0.0011883445549756289 -0.13874474167823792 -0.9903274774551392
 outer loop
  vertex 481500.0 5547500.0 3758.10009765625
  vertex 482500.0 5547500.0 3759.300048828125
  vertex 482500.0 5546500.0 3899.39990234375
 endloop
endfacet
facet normal -0.0791749358177185 -0.1383092850446701 -0.9872192740440369
 outer loop
  vertex 482500.0 5547500.0 3759.300048828125
  vertex 483500.0 5546500.0 3819.199951171875
  vertex 482500.0 5546500.0 3899.39990234375
 endloop
endfacet
facet normal 0.0010979564394801855 -0.0586986280977726 -0.9982751607894897
 outer loop
  vertex 482500.0 5547500.0 3759.300048828125
  vertex 483500.0 5547500.0 3760.39990234375
  vertex 483500.0 5546500.0 3819.199951171875
 endloop
endfacet
facet normal 0.003294342663139105 -0.05869834125041962 -0.9982703328132629
 outer loop
  vertex 483500.0 5547500.0 3760.39990234375
  vertex 484500.0 5546500.0 3822.5
  vertex 483500.0 5546500.0 3819.199951171875
 endloop
endfacet
facet normal 0.04484833776950836 -0.017180101945996284 -0.9988460540771484
 outer loop
  vertex 483500.0 5547500.0 3760.39990234375
  vertex 484500.0 5547500.0 3805.300048828125
  vertex 484500.0 5546500.0 3822.5
 endloop
endfacet
facet normal -0.005898927338421345 -0.017197107896208763 -0.9998347163200378
 outer loop
  vertex 484500.0 5547500.0 3805.300048828125
  vertex 485500.0 5546500.0 3816.60009765625
  vertex 484500.0 5546500.0 3822.5
 endloop
endfacet
facet normal -0.022182045504450798 -0.03347298130393028 -0.9991934895515442
 outer loop
  vertex 484500.0 5547500.0 3805.300048828125
  vertex 485500.0 5547500.0 3783.10009765625
  vertex 485500.0 5546500.0 3816.60009765625
 endloop
endfacet
facet normal 0.009194406680762768 -0.033479802310466766 -0.9993970990180969
 outer loop
  vertex 485500.0 5547500.0 3783.10009765625
  vertex 486500.0 5546500.0 3825.800048828125
  vertex 485500.0 5546500.0 3816.60009765625
 endloop
endfacet
facet normal 0.017291640862822533 -0.025388162583112717 -0.9995281100273132
 outer loop
  vertex 485500.0 5547500.0 3783.10009765625
  vertex 486500.0 5547500.0 3800.39990234375
  vertex 486500.0 5546500.0 3825.800048828125
 endloop
endfacet
facet normal 0.045239076018333435 -0.025365959852933884 -0.9986540675163269
 outer loop
  vertex 486500.0 5547500.0 3800.39990234375
  vertex 487500.0 5546500.0 3871.10009765625
  vertex 486500.0 5546500.0 3825.800048828125
 endloop
endfacet
facet normal 0.0037915462162345648 -0.06675045937299728 -0.9977625012397766
 outer loop
  vertex 486500.0 5547500.0 3800.39990234375
  vertex 487500.0 5547500.0 3804.199951171875
  vertex 487500.0 5546500.0 3871.10009765625
 endloop
endfacet
facet normal 0.0011991969076916575 -0.03547762706875801 -0.9993698000907898
 outer loop
  vertex 481500.0 5548500.0 3722.60009765625
  vertex 482500.0 5547500.0 3759.300048828125
  vertex 481500.0 5547500.0 3758.10009765625
 endloop
endfacet
facet normal -0.003197634592652321 -0.03986822068691254 -0.9991998076438904
 outer loop
  vertex 481500.0 5548500.0 3722.60009765625
  vertex 482500.0 5548500.0 3719.39990234375
  vertex 482500.0 5547500.0 3759.300048828125
 endloop
endfacet
facet normal 0.0010989764705300331 -0.03986839950084686 -0.9992043375968933
 outer loop
  vertex 482500.0 5548500.0 3719.39990234375
  vertex 483500.0 5547500.0 3760.39990234375
  vertex 482500.0 5547500.0 3759.300048828125
 endloop
endfacet
facet normal -0.009687053970992565 -0.050632543861866 -0.9986703991889954
 outer loop
  vertex 482500.0 5548500.0 3719.39990234375
  vertex 483500.0 5548500.0 3709.699951171875
  vertex 483500.0 5547500.0 3760.39990234375
 endloop
endfacet
facet normal 0.04479752480983734 -0.050584085285663605 -0.997714638710022
 outer loop
  vertex 483500.0 5548500.0 3709.699951171875
  vertex 484500.0 5547500.0 3805.300048828125
  vertex 483500.0 5547500.0 3760.39990234375
 endloop
endfacet
facet normal 0.1933489292860031 0.10004167258739471 -0.9760163426399231
 outer loop
  vertex 483500.0 5548500.0 3709.699951171875
  vertex 484500.0 5548500.0 3907.800048828125
  vertex 484500.0 5547500.0 3805.300048828125
 endloop
endfacet
facet normal -0.022078862413764 0.10194090753793716 -0.9945454001426697
 outer loop
  vertex 484500.0 5548500.0 3907.800048828125
  vertex 485500.0 5547500.0 3783.10009765625
  vertex 484500.0 5547500.0 3805.300048828125
 endloop
endfacet
facet normal 0.006246555130928755 0.1298876851797104 -0.9915090203285217
 outer loop
  vertex 484500.0 5548500.0 3907.800048828125
  vertex 485500.0 5548500.0 3914.10009765625
  vertex 485500.0 5547500.0 3783.10009765625
 endloop
endfacet
facet normal 0.017150724306702614 0.12987111508846283 -0.9913825392723083
 outer loop
  vertex 485500.0 5548500.0 3914.10009765625
  vertex 486500.0 5547500.0 3800.39990234375
  vertex 485500.0 5547500.0 3783.10009765625
 endloop
endfacet
facet normal -0.1569662094116211 -0.04479098320007324 -0.9865877628326416
 outer loop
  vertex 485500.0 5548500.0 3914.10009765625
  vertex 486500.0 5548500.0 3755.0
  vertex 486500.0 5547500.0 3800.39990234375
 endloop
endfacet
facet normal 0.0037961131893098354 -0.045352861285209656 -0.9989638328552246
 outer loop
  vertex 486500.0 5548500.0 3755.0
  vertex 487500.0 5547500.0 3804.199951171875
  vertex 486500.0 5547500.0 3800.39990234375
 endloop
endfacet
facet normal -0.003198642283678055 -0.03098495677113533 -0.9995147585868835
 outer loop
  vertex 481500.0 5549500.0 3691.60009765625
  vertex 482500.0 5548500.0 3719.39990234375
  vertex 481500.0 5548500.0 3722.60009765625
 endloop
endfacet
facet normal -0.014785021543502808 -0.04255659878253937 -0.9989846348762512
 outer loop
  vertex 481500.0 5549500.0 3691.60009765625
  vertex 482500.0 5549500.0 3676.800048828125
  vertex 482500.0 5548500.0 3719.39990234375
 endloop
endfacet
facet normal -0.009690703824162483 -0.04255925118923187 -0.9990469217300415
 outer loop
  vertex 482500.0 5549500.0 3676.800048828125
  vertex 483500.0 5548500.0 3709.699951171875
  vertex 482500.0 5548500.0 3719.39990234375
 endloop
endfacet
facet normal 0.021493636071681976 -0.011396528221666813 -0.9997040033340454
 outer loop
  vertex 482500.0 5549500.0 3676.800048828125
  vertex 483500.0 5549500.0 3698.300048828125
  vertex 483500.0 5548500.0 3709.699951171875
 endloop
endfacet
facet normal 0.19431164860725403 -0.011181891895830631 -0.980876088142395
 outer loop
  vertex 483500.0 5549500.0 3698.300048828125
  vertex 484500.0 5548500.0 3907.800048828125
  vertex 483500.0 5548500.0 3709.699951171875
 endloop
endfacet
facet normal 0.031491879373788834 -0.17468152940273285 -0.9841212630271912
 outer loop
  vertex 483500.0 5549500.0 3698.300048828125
  vertex 484500.0 5549500.0 3730.300048828125
  vertex 484500.0 5548500.0 3907.800048828125
 endloop
endfacet
facet normal 0.006202967371791601 -0.17476484179496765 -0.9845906496047974
 outer loop
  vertex 484500.0 5549500.0 3730.300048828125
  vertex 485500.0 5548500.0 3914.10009765625
  vertex 484500.0 5548500.0 3907.800048828125
 endloop
endfacet
facet normal 0.19618523120880127 0.015980932861566544 -0.9804366230964661
 outer loop
  vertex 484500.0 5549500.0 3730.300048828125
  vertex 485500.0 5549500.0 3930.39990234375
  vertex 485500.0 5548500.0 3914.10009765625
 endloop
endfacet
facet normal -0.1571035385131836 0.01609525829553604 -0.9874509572982788
 outer loop
  vertex 485500.0 5549500.0 3930.39990234375
  vertex 486500.0 5548500.0 3755.0
  vertex 485500.0 5548500.0 3914.10009765625
 endloop
endfacet
facet normal -0.16931816935539246 0.0035480905789881945 -0.9855550527572632
 outer loop
  vertex 485500.0 5549500.0 3930.39990234375
  vertex 486500.0 5549500.0 3758.60009765625
  vertex 486500.0 5548500.0 3755.0
 endloop
endfacet
facet normal 0.0353265255689621 -0.05378842353820801 -0.9979272484779358
 outer loop
  vertex 480500.0 5550500.0 3602.300048828125
  vertex 481500.0 5550500.0 3637.699951171875
  vertex 481500.0 5549500.0 3691.60009765625
 endloop
endfacet
facet normal -0.01477698516100645 -0.05381614342331886 -0.9984415173530579
 outer loop
  vertex 481500.0 5550500.0 3637.699951171875
  vertex 482500.0 5549500.0 3676.800048828125
  vertex 481500.0 5549500.0 3691.60009765625
 endloop
endfacet
facet normal 0.19532510638237 -0.0948805883526802 -0.976138174533844
 outer loop
  vertex 484500.0 5550500.0 3633.10009765625
  vertex 485500.0 5549500.0 3930.39990234375
  vertex 484500.0 5549500.0 3730.300048828125
 endloop
endfacet
facet normal 0.04769788682460785 -0.24052540957927704 -0.9694701433181763
 outer loop
  vertex 484500.0 5550500.0 3633.10009765625
  vertex 485500.0 5550500.0 3682.300048828125
  vertex 485500.0 5549500.0 3930.39990234375
 endloop
endfacet
facet normal -0.1644737720489502 -0.23752015829086304 -0.9573571085929871
 outer loop
  vertex 485500.0 5550500.0 3682.300048828125
  vertex 486500.0 5549500.0 3758.60009765625
  vertex 485500.0 5549500.0 3930.39990234375
 endloop
endfacet
facet normal 0.04913968965411186 0.005792700685560703 -0.9987751245498657
 outer loop
  vertex 484500.0 5551500.0 3638.89990234375
  vertex 485500.0 5550500.0 3682.300048828125
  vertex 484500.0 5550500.0 3633.10009765625
 endloop
endfacet
facet normal -0.0006992713315412402 -0.044057268649339676 -0.999028742313385
 outer loop
  vertex 484500.0 5551500.0 3638.89990234375
  vertex 485500.0 5551500.0 3638.199951171875
  vertex 485500.0 5550500.0 3682.300048828125
 endloop
endfacet
facet normal 0.011298839002847672 0.009299052879214287 -0.9998929500579834
 outer loop
  vertex 483500.0 5552500.0 3636.89990234375
  vertex 484500.0 5552500.0 3648.199951171875
  vertex 484500.0 5551500.0 3638.89990234375
 endloop
endfacet
facet normal -0.0006999207544140518 0.009299644269049168 -0.999956488609314
 outer loop
  vertex 484500.0 5552500.0 3648.199951171875
  vertex 485500.0 5551500.0 3638.199951171875
  vertex 484500.0 5551500.0 3638.89990234375
 endloop
endfacet
facet normal 0.01479388028383255 0.024789713323116302 -0.9995832443237305
 outer loop
  vertex 484500.0 5552500.0 3648.199951171875
  vertex 485500.0 5552500.0 3663.0
  vertex 485500.0 5551500.0 3638.199951171875
 endloop
endfacet
endsolid
