solid
facet normal -0.0011965915327891707 -0.07478988915681839 -0.9971985816955566
 outer loop
  vertex 348500.0 5692500.0 3101.199951171875
  vertex 349500.0 5691500.0 3175.0
  vertex 348500.0 5691500.0 3176.199951171875
 endloop
endfacet
facet normal 0.06496013700962067 -0.008681245148181915 -0.9978500604629517
 outer loop
  vertex 348500.0 5692500.0 3101.199951171875
  vertex 349500.0 5692500.0 3166.300048828125
  vertex 349500.0 5691500.0 3175.0
 endloop
endfacet
facet normal 0.08558472245931625 0.0023913350887596607 -0.9963280558586121
 outer loop
  vertex 347500.0 5693500.0 3017.699951171875
  vertex 348500.0 5693500.0 3103.60009765625
  vertex 348500.0 5692500.0 3101.199951171875
 endloop
endfacet
facet normal 0.06496240198612213 0.0023950699251145124 -0.9978848695755005
 outer loop
  vertex 348500.0 5693500.0 3103.60009765625
  vertex 349500.0 5692500.0 3166.300048828125
  vertex 348500.0 5692500.0 3101.199951171875
 endloop
endfacet
facet normal 0.11963207274675369 0.05748685076832771 -0.9911525845527649
 outer loop
  vertex 348500.0 5693500.0 3103.60009765625
  vertex 349500.0 5693500.0 3224.300048828125
  vertex 349500.0 5692500.0 3166.300048828125
 endloop
endfacet
facet normal 0.16894783079624176 0.05707033723592758 -0.983971357345581
 outer loop
  vertex 349500.0 5693500.0 3224.300048828125
  vertex 350500.0 5692500.0 3338.0
  vertex 349500.0 5692500.0 3166.300048828125
 endloop
endfacet
facet normal 0.10678370296955109 -0.006263900548219681 -0.9942625164985657
 outer loop
  vertex 349500.0 5693500.0 3224.300048828125
  vertex 350500.0 5693500.0 3331.699951171875
  vertex 350500.0 5692500.0 3338.0
 endloop
endfacet
facet normal 0.12910769879817963 -0.006247197277843952 -0.9916108846664429
 outer loop
  vertex 350500.0 5693500.0 3331.699951171875
  vertex 351500.0 5692500.0 3468.199951171875
  vertex 350500.0 5692500.0 3338.0
 endloop
endfacet
facet normal 0.14291344583034515 0.007818803191184998 -0.9897043704986572
 outer loop
  vertex 350500.0 5693500.0 3331.699951171875
  vertex 351500.0 5693500.0 3476.10009765625
  vertex 351500.0 5692500.0 3468.199951171875
 endloop
endfacet
facet normal 0.20326004922389984 0.007734987419098616 -0.9790942072868347
 outer loop
  vertex 351500.0 5693500.0 3476.10009765625
  vertex 352500.0 5692500.0 3675.800048828125
  vertex 351500.0 5692500.0 3468.199951171875
 endloop
endfacet
facet normal 0.1786491721868515 -0.017805999144911766 -0.9837517142295837
 outer loop
  vertex 351500.0 5693500.0 3476.10009765625
  vertex 352500.0 5693500.0 3657.699951171875
  vertex 352500.0 5692500.0 3675.800048828125
 endloop
endfacet
facet normal -0.3950507342815399 -0.01662510074675083 -0.9185088872909546
 outer loop
  vertex 352500.0 5693500.0 3657.699951171875
  vertex 353500.0 5692500.0 3245.699951171875
  vertex 352500.0 5692500.0 3675.800048828125
 endloop
endfacet
facet normal -0.502566397190094 -0.15191888809204102 -0.8510861992835999
 outer loop
  vertex 352500.0 5693500.0 3657.699951171875
  vertex 353500.0 5693500.0 3067.199951171875
  vertex 353500.0 5692500.0 3245.699951171875
 endloop
endfacet
facet normal 0.11924285441637039 0.09889144450426102 -0.9879279732704163
 outer loop
  vertex 348500.0 5694500.0 3203.699951171875
  vertex 349500.0 5693500.0 3224.300048828125
  vertex 348500.0 5693500.0 3103.60009765625
 endloop
endfacet
facet normal -0.07042963057756424 -0.09089308232069016 -0.9933670163154602
 outer loop
  vertex 348500.0 5694500.0 3203.699951171875
  vertex 349500.0 5694500.0 3132.800048828125
  vertex 349500.0 5693500.0 3224.300048828125
 endloop
endfacet
facet normal 0.10634659975767136 -0.09060262888669968 -0.990192711353302
 outer loop
  vertex 349500.0 5694500.0 3132.800048828125
  vertex 350500.0 5693500.0 3331.699951171875
  vertex 349500.0 5693500.0 3224.300048828125
 endloop
endfacet
facet normal 0.15690571069717407 -0.03937435895204544 -0.9868283867835999
 outer loop
  vertex 349500.0 5694500.0 3132.800048828125
  vertex 350500.0 5694500.0 3291.800048828125
  vertex 350500.0 5693500.0 3331.699951171875
 endloop
endfacet
facet normal 0.1428065001964569 -0.039459556341171265 -0.9889637231826782
 outer loop
  vertex 350500.0 5694500.0 3291.800048828125
  vertex 351500.0 5693500.0 3476.10009765625
  vertex 350500.0 5693500.0 3331.699951171875
 endloop
endfacet
facet normal 0.07782752066850662 -0.10489369928836823 -0.9914333820343018
 outer loop
  vertex 350500.0 5694500.0 3291.800048828125
  vertex 351500.0 5694500.0 3370.300048828125
  vertex 351500.0 5693500.0 3476.10009765625
 endloop
endfacet
facet normal 0.1777171939611435 -0.10353800654411316 -0.9786196947097778
 outer loop
  vertex 351500.0 5694500.0 3370.300048828125
  vertex 352500.0 5693500.0 3657.699951171875
  vertex 351500.0 5693500.0 3476.10009765625
 endloop
endfacet
facet normal -0.2666972279548645 -0.5029756426811218 -0.822124183177948
 outer loop
  vertex 351500.0 5694500.0 3370.300048828125
  vertex 352500.0 5694500.0 3045.89990234375
  vertex 352500.0 5693500.0 3657.699951171875
 endloop
endfacet
facet normal -0.44986122846603394 -0.46608829498291016 -0.7618310451507568
 outer loop
  vertex 352500.0 5694500.0 3045.89990234375
  vertex 353500.0 5693500.0 3067.199951171875
  vertex 352500.0 5693500.0 3657.699951171875
 endloop
endfacet
facet normal 0.0033995823469012976 -0.01789693348109722 -0.9998340606689453
 outer loop
  vertex 352500.0 5694500.0 3045.89990234375
  vertex 353500.0 5694500.0 3049.300048828125
  vertex 353500.0 5693500.0 3067.199951171875
 endloop
endfacet
facet normal -0.06834182143211365 0.25727033615112305 -0.9639198184013367
 outer loop
  vertex 348500.0 5695500.0 3470.60009765625
  vertex 349500.0 5694500.0 3132.800048828125
  vertex 348500.0 5694500.0 3203.699951171875
 endloop
endfacet
facet normal -0.06736581027507782 0.25818678736686707 -0.9637434482574463
 outer loop
  vertex 348500.0 5695500.0 3470.60009765625
  vertex 349500.0 5695500.0 3400.699951171875
  vertex 349500.0 5694500.0 3132.800048828125
 endloop
endfacet
facet normal 0.1518041491508484 0.2557755708694458 -0.9547430872917175
 outer loop
  vertex 349500.0 5695500.0 3400.699951171875
  vertex 350500.0 5694500.0 3291.800048828125
  vertex 349500.0 5694500.0 3132.800048828125
 endloop
endfacet
facet normal -0.09209451079368591 0.01632801443338394 -0.9956163763999939
 outer loop
  vertex 349500.0 5695500.0 3400.699951171875
  vertex 350500.0 5695500.0 3308.199951171875
  vertex 350500.0 5694500.0 3291.800048828125
 endloop
endfacet
facet normal 0.07824878394603729 0.01634741947054863 -0.9967998266220093
 outer loop
  vertex 350500.0 5695500.0 3308.199951171875
  vertex 351500.0 5694500.0 3370.300048828125
  vertex 350500.0 5694500.0 3291.800048828125
 endloop
endfacet
facet normal 0.07636836916208267 0.014456131495535374 -0.9969748854637146
 outer loop
  vertex 350500.0 5695500.0 3308.199951171875
  vertex 351500.0 5695500.0 3384.800048828125
  vertex 351500.0 5694500.0 3370.300048828125
 endloop
endfacet
facet normal -0.3085406422615051 0.01379111222922802 -0.9511111974716187
 outer loop
  vertex 351500.0 5695500.0 3384.800048828125
  vertex 352500.0 5694500.0 3045.89990234375
  vertex 351500.0 5694500.0 3370.300048828125
 endloop
endfacet
facet normal -0.33732905983924866 -0.018353553488850594 -0.9412079453468323
 outer loop
  vertex 351500.0 5695500.0 3384.800048828125
  vertex 352500.0 5695500.0 3026.39990234375
  vertex 352500.0 5694500.0 3045.89990234375
 endloop
endfacet
facet normal 0.003399480599910021 -0.01949618197977543 -0.9998041391372681
 outer loop
  vertex 352500.0 5695500.0 3026.39990234375
  vertex 353500.0 5694500.0 3049.300048828125
  vertex 352500.0 5694500.0 3045.89990234375
 endloop
endfacet
facet normal 0.11917322129011154 0.09654401242733002 -0.9881685376167297
 outer loop
  vertex 352500.0 5695500.0 3026.39990234375
  vertex 353500.0 5695500.0 3147.0
  vertex 353500.0 5694500.0 3049.300048828125
 endloop
endfacet
facet normal 0.46303507685661316 0.086185023188591 -0.8821398615837097
 outer loop
  vertex 353500.0 5695500.0 3147.0
  vertex 354500.0 5694500.0 3574.199951171875
  vertex 353500.0 5694500.0 3049.300048828125
 endloop
endfacet
facet normal 0.2959655523300171 -0.10940958559513092 -0.9489120244979858
 outer loop
  vertex 353500.0 5695500.0 3147.0
  vertex 354500.0 5695500.0 3458.89990234375
  vertex 354500.0 5694500.0 3574.199951171875
 endloop
endfacet
facet normal 0.2505324184894562 -0.1108882799744606 -0.9617366194725037
 outer loop
  vertex 354500.0 5695500.0 3458.89990234375
  vertex 355500.0 5694500.0 3834.699951171875
  vertex 354500.0 5694500.0 3574.199951171875
 endloop
endfacet
facet normal 0.3099481165409088 -0.04690992832183838 -0.9495954513549805
 outer loop
  vertex 354500.0 5695500.0 3458.89990234375
  vertex 355500.0 5695500.0 3785.300048828125
  vertex 355500.0 5694500.0 3834.699951171875
 endloop
endfacet
facet normal 0.09792686253786087 -0.0013934096787124872 -0.9951926469802856
 outer loop
  vertex 347500.0 5696500.0 3370.800048828125
  vertex 348500.0 5696500.0 3469.199951171875
  vertex 348500.0 5695500.0 3470.60009765625
 endloop
endfacet
facet normal -0.06972993910312653 -0.0013967370614409447 -0.997564971446991
 outer loop
  vertex 348500.0 5696500.0 3469.199951171875
  vertex 349500.0 5695500.0 3400.699951171875
  vertex 348500.0 5695500.0 3470.60009765625
 endloop
endfacet
facet normal -0.12684012949466705 -0.05901375412940979 -0.9901661276817322
 outer loop
  vertex 348500.0 5696500.0 3469.199951171875
  vertex 349500.0 5696500.0 3341.10009765625
  vertex 349500.0 5695500.0 3400.699951171875
 endloop
endfacet
facet normal -0.09194502234458923 -0.05924226716160774 -0.994000256061554
 outer loop
  vertex 349500.0 5696500.0 3341.10009765625
  vertex 350500.0 5695500.0 3308.199951171875
  vertex 349500.0 5695500.0 3400.699951171875
 endloop
endfacet
facet normal -0.10843820124864578 -0.07582733780145645 -0.9912070631980896
 outer loop
  vertex 349500.0 5696500.0 3341.10009765625
  vertex 350500.0 5696500.0 3231.699951171875
  vertex 350500.0 5695500.0 3308.199951171875
 endloop
endfacet
facet normal 0.07615513354539871 -0.0760556235909462 -0.9941911101341248
 outer loop
  vertex 350500.0 5696500.0 3231.699951171875
  vertex 351500.0 5695500.0 3384.800048828125
  vertex 350500.0 5695500.0 3308.199951171875
 endloop
endfacet
facet normal -0.07777057588100433 -0.22641856968402863 -0.9709203839302063
 outer loop
  vertex 350500.0 5696500.0 3231.699951171875
  vertex 351500.0 5696500.0 3151.60009765625
  vertex 351500.0 5695500.0 3384.800048828125
 endloop
endfacet
facet normal -0.3295387327671051 -0.21442072093486786 -0.9194715619087219
 outer loop
  vertex 351500.0 5696500.0 3151.60009765625
  vertex 352500.0 5695500.0 3026.39990234375
  vertex 351500.0 5695500.0 3384.800048828125
 endloop
endfacet
facet normal -0.12657347321510315 -0.002380589721724391 -0.9919543862342834
 outer loop
  vertex 351500.0 5696500.0 3151.60009765625
  vertex 352500.0 5696500.0 3024.0
  vertex 352500.0 5695500.0 3026.39990234375
 endloop
endfacet
facet normal 0.11973217874765396 -0.002382631180807948 -0.9928033351898193
 outer loop
  vertex 352500.0 5696500.0 3024.0
  vertex 353500.0 5695500.0 3147.0
  vertex 352500.0 5695500.0 3026.39990234375
 endloop
endfacet
facet normal 0.19528160989284515 0.07500297576189041 -0.9778751134872437
 outer loop
  vertex 352500.0 5696500.0 3024.0
  vertex 353500.0 5696500.0 3223.699951171875
  vertex 353500.0 5695500.0 3147.0
 endloop
endfacet
facet normal 0.2969580590724945 0.07302556931972504 -0.9520940780639648
 outer loop
  vertex 353500.0 5696500.0 3223.699951171875
  vertex 354500.0 5695500.0 3458.89990234375
  vertex 353500.0 5695500.0 3147.0
 endloop
endfacet
facet normal 0.3496987819671631 0.13153131306171417 -0.9275830388069153
 outer loop
  vertex 353500.0 5696500.0 3223.699951171875
  vertex 354500.0 5696500.0 3600.699951171875
  vertex 354500.0 5695500.0 3458.89990234375
 endloop
endfacet
facet normal 0.30750834941864014 0.13359276950359344 -0.9421207904815674
 outer loop
  vertex 354500.0 5696500.0 3600.699951171875
  vertex 355500.0 5695500.0 3785.300048828125
  vertex 354500.0 5695500.0 3458.89990234375
 endloop
endfacet
facet normal 0.10617630928754807 -0.07683152705430984 -0.9913745522499084
 outer loop
  vertex 354500.0 5696500.0 3600.699951171875
  vertex 355500.0 5696500.0 3707.800048828125
  vertex 355500.0 5695500.0 3785.300048828125
 endloop
endfacet
facet normal -0.12702438235282898 0.024195294827222824 -0.9916044473648071
 outer loop
  vertex 348500.0 5697500.0 3493.60009765625
  vertex 349500.0 5696500.0 3341.10009765625
  vertex 348500.0 5696500.0 3469.199951171875
 endloop
endfacet
facet normal -0.007818588055670261 0.14310705661773682 -0.989676296710968
 outer loop
  vertex 348500.0 5697500.0 3493.60009765625
  vertex 349500.0 5697500.0 3485.699951171875
  vertex 349500.0 5696500.0 3341.10009765625
 endloop
endfacet
facet normal -0.10764490067958832 0.14227986335754395 -0.9839558005332947
 outer loop
  vertex 349500.0 5697500.0 3485.699951171875
  vertex 350500.0 5696500.0 3231.699951171875
  vertex 349500.0 5696500.0 3341.10009765625
 endloop
endfacet
facet normal -0.07590124756097794 0.17350243031978607 -0.9819042682647705
 outer loop
  vertex 349500.0 5697500.0 3485.699951171875
  vertex 350500.0 5697500.0 3408.39990234375
  vertex 350500.0 5696500.0 3231.699951171875
 endloop
endfacet
facet normal -0.07863368839025497 0.17346559464931488 -0.9816957116127014
 outer loop
  vertex 350500.0 5697500.0 3408.39990234375
  vertex 351500.0 5696500.0 3151.60009765625
  vertex 350500.0 5696500.0 3231.699951171875
 endloop
endfacet
facet normal -0.3380924165248871 -0.09772119671106339 -0.9360256791114807
 outer loop
  vertex 350500.0 5697500.0 3408.39990234375
  vertex 351500.0 5697500.0 3047.199951171875
  vertex 351500.0 5696500.0 3151.60009765625
 endloop
endfacet
facet normal -0.1259005069732666 -0.10300957411527634 -0.9866803288459778
 outer loop
  vertex 351500.0 5697500.0 3047.199951171875
  vertex 352500.0 5696500.0 3024.0
  vertex 351500.0 5696500.0 3151.60009765625
 endloop
endfacet
facet normal 0.4031658172607422 0.4220045208930969 -0.8120157122612
 outer loop
  vertex 351500.0 5697500.0 3047.199951171875
  vertex 352500.0 5697500.0 3543.699951171875
  vertex 352500.0 5696500.0 3024.0
 endloop
endfacet
facet normal 0.17448076605796814 0.45406946539878845 -0.8737146854400635
 outer loop
  vertex 352500.0 5697500.0 3543.699951171875
  vertex 353500.0 5696500.0 3223.699951171875
  vertex 352500.0 5696500.0 3024.0
 endloop
endfacet
facet normal -0.01626739837229252 0.2899424731731415 -0.9569057822227478
 outer loop
  vertex 352500.0 5697500.0 3543.699951171875
  vertex 353500.0 5697500.0 3526.699951171875
  vertex 353500.0 5696500.0 3223.699951171875
 endloop
endfacet
facet normal 0.33938658237457275 0.27276960015296936 -0.9002296924591064
 outer loop
  vertex 353500.0 5697500.0 3526.699951171875
  vertex 354500.0 5696500.0 3600.699951171875
  vertex 353500.0 5696500.0 3223.699951171875
 endloop
endfacet
facet normal 0.1565719097852707 0.08374781161546707 -0.9841095209121704
 outer loop
  vertex 353500.0 5697500.0 3526.699951171875
  vertex 354500.0 5697500.0 3685.800048828125
  vertex 354500.0 5696500.0 3600.699951171875
 endloop
endfacet
facet normal 0.10611188411712646 0.08431488275527954 -0.99077308177948
 outer loop
  vertex 354500.0 5697500.0 3685.800048828125
  vertex 355500.0 5696500.0 3707.800048828125
  vertex 354500.0 5696500.0 3600.699951171875
 endloop
endfacet
facet normal 0.008898786269128323 -0.013098455034196377 -0.9998746514320374
 outer loop
  vertex 354500.0 5697500.0 3685.800048828125
  vertex 355500.0 5697500.0 3694.699951171875
  vertex 355500.0 5696500.0 3707.800048828125
 endloop
endfacet
facet normal 0.1963828057050705 -0.012843901291489601 -0.9804431796073914
 outer loop
  vertex 355500.0 5697500.0 3694.699951171875
  vertex 356500.0 5696500.0 3908.10009765625
  vertex 355500.0 5696500.0 3707.800048828125
 endloop
endfacet
facet normal -0.10816197842359543 -0.309749573469162 -0.9446461200714111
 outer loop
  vertex 355500.0 5697500.0 3694.699951171875
  vertex 356500.0 5697500.0 3580.199951171875
  vertex 356500.0 5696500.0 3908.10009765625
 endloop
endfacet
facet normal -0.007639910560101271 -0.25443360209465027 -0.9670600891113281
 outer loop
  vertex 348500.0 5698500.0 3230.5
  vertex 349500.0 5697500.0 3485.699951171875
  vertex 348500.0 5697500.0 3493.60009765625
 endloop
endfacet
facet normal -0.018320569768548012 -0.26439470052719116 -0.964240550994873
 outer loop
  vertex 348500.0 5698500.0 3230.5
  vertex 349500.0 5698500.0 3211.5
  vertex 349500.0 5697500.0 3485.699951171875
 endloop
endfacet
facet normal -0.0743420422077179 -0.26370730996131897 -0.9617336988449097
 outer loop
  vertex 349500.0 5698500.0 3211.5
  vertex 350500.0 5697500.0 3408.39990234375
  vertex 349500.0 5697500.0 3485.699951171875
 endloop
endfacet
facet normal -0.02682305872440338 -0.21887606382369995 -0.9753839373588562
 outer loop
  vertex 349500.0 5698500.0 3211.5
  vertex 350500.0 5698500.0 3184.0
  vertex 350500.0 5697500.0 3408.39990234375
 endloop
endfacet
facet normal -0.33239591121673584 -0.20650506019592285 -0.920254647731781
 outer loop
  vertex 350500.0 5698500.0 3184.0
  vertex 351500.0 5697500.0 3047.199951171875
  vertex 350500.0 5697500.0 3408.39990234375
 endloop
endfacet
facet normal 0.017391357570886612 0.15256892144680023 -0.988139808177948
 outer loop
  vertex 350500.0 5698500.0 3184.0
  vertex 351500.0 5698500.0 3201.60009765625
  vertex 351500.0 5697500.0 3047.199951171875
 endloop
endfacet
facet normal 0.4405115246772766 0.13698901236057281 -0.8872337341308594
 outer loop
  vertex 351500.0 5698500.0 3201.60009765625
  vertex 352500.0 5697500.0 3543.699951171875
  vertex 351500.0 5697500.0 3047.199951171875
 endloop
endfacet
facet normal 0.021331211552023888 -0.3044471740722656 -0.9522903561592102
 outer loop
  vertex 351500.0 5698500.0 3201.60009765625
  vertex 352500.0 5698500.0 3224.0
  vertex 352500.0 5697500.0 3543.699951171875
 endloop
endfacet
facet normal -0.01619049720466137 -0.3044765293598175 -0.9523822069168091
 outer loop
  vertex 352500.0 5698500.0 3224.0
  vertex 353500.0 5697500.0 3526.699951171875
  vertex 352500.0 5697500.0 3543.699951171875
 endloop
endfacet
facet normal 0.21982616186141968 -0.07460466027259827 -0.9726821780204773
 outer loop
  vertex 352500.0 5698500.0 3224.0
  vertex 353500.0 5698500.0 3450.0
  vertex 353500.0 5697500.0 3526.699951171875
 endloop
endfacet
facet normal 0.1566750705242157 -0.07553087919950485 -0.9847578406333923
 outer loop
  vertex 353500.0 5698500.0 3450.0
  vertex 354500.0 5697500.0 3685.800048828125
  vertex 353500.0 5697500.0 3526.699951171875
 endloop
endfacet
facet normal -0.17863941192626953 -0.3914903402328491 -0.9026755690574646
 outer loop
  vertex 353500.0 5698500.0 3450.0
  vertex 354500.0 5698500.0 3252.10009765625
  vertex 354500.0 5697500.0 3685.800048828125
 endloop
endfacet
facet normal 0.008164794184267521 -0.3978773057460785 -0.9174022674560547
 outer loop
  vertex 354500.0 5698500.0 3252.10009765625
  vertex 355500.0 5697500.0 3694.699951171875
  vertex 354500.0 5697500.0 3685.800048828125
 endloop
endfacet
facet normal 0.44460564851760864 0.048744749277830124 -0.894399106502533
 outer loop
  vertex 354500.0 5698500.0 3252.10009765625
  vertex 355500.0 5698500.0 3749.199951171875
  vertex 355500.0 5697500.0 3694.699951171875
 endloop
endfacet
facet normal -0.11359034478664398 0.05406701937317848 -0.9920554161071777
 outer loop
  vertex 355500.0 5698500.0 3749.199951171875
  vertex 356500.0 5697500.0 3580.199951171875
  vertex 355500.0 5697500.0 3694.699951171875
 endloop
endfacet
facet normal 0.16334809362888336 0.32100552320480347 -0.9328840970993042
 outer loop
  vertex 355500.0 5698500.0 3749.199951171875
  vertex 356500.0 5698500.0 3924.300048828125
  vertex 356500.0 5697500.0 3580.199951171875
 endloop
endfacet
facet normal -0.018942533060908318 -0.07537145167589188 -0.9969756007194519
 outer loop
  vertex 348500.0 5699500.0 3154.89990234375
  vertex 349500.0 5698500.0 3211.5
  vertex 348500.0 5698500.0 3230.5
 endloop
endfacet
facet normal -0.1025293841958046 -0.15811538696289062 -0.9820831418037415
 outer loop
  vertex 348500.0 5699500.0 3154.89990234375
  vertex 349500.0 5699500.0 3050.5
  vertex 349500.0 5698500.0 3211.5
 endloop
endfacet
facet normal -0.027140365913510323 -0.15889450907707214 -0.9869224429130554
 outer loop
  vertex 349500.0 5699500.0 3050.5
  vertex 350500.0 5698500.0 3184.0
  vertex 349500.0 5698500.0 3211.5
 endloop
endfacet
facet normal -0.017202572897076607 -0.1491885781288147 -0.988659143447876
 outer loop
  vertex 349500.0 5699500.0 3050.5
  vertex 350500.0 5699500.0 3033.10009765625
  vertex 350500.0 5698500.0 3184.0
 endloop
endfacet
facet normal 0.017400434240698814 -0.1491880565881729 -0.9886557459831238
 outer loop
  vertex 350500.0 5699500.0 3033.10009765625
  vertex 351500.0 5698500.0 3201.60009765625
  vertex 350500.0 5698500.0 3184.0
 endloop
endfacet
facet normal -0.0322357714176178 -0.19733314216136932 -0.9798063039779663
 outer loop
  vertex 350500.0 5699500.0 3033.10009765625
  vertex 351500.0 5699500.0 3000.199951171875
  vertex 351500.0 5698500.0 3201.60009765625
 endloop
endfacet
facet normal 0.02195369079709053 -0.197388157248497 -0.9800795912742615
 outer loop
  vertex 351500.0 5699500.0 3000.199951171875
  vertex 352500.0 5698500.0 3224.0
  vertex 351500.0 5698500.0 3201.60009765625
 endloop
endfacet
facet normal 0.10983311384916306 -0.11121604591608047 -0.9877082705497742
 outer loop
  vertex 351500.0 5699500.0 3000.199951171875
  vertex 352500.0 5699500.0 3111.39990234375
  vertex 352500.0 5698500.0 3224.0
 endloop
endfacet
facet normal 0.21912285685539246 -0.10917369276285172 -0.9695701599121094
 outer loop
  vertex 352500.0 5699500.0 3111.39990234375
  vertex 353500.0 5698500.0 3450.0
  vertex 352500.0 5698500.0 3224.0
 endloop
endfacet
facet normal 0.2052457630634308 -0.12349685281515121 -0.9708876013755798
 outer loop
  vertex 352500.0 5699500.0 3111.39990234375
  vertex 353500.0 5699500.0 3322.800048828125
  vertex 353500.0 5698500.0 3450.0
 endloop
endfacet
facet normal -0.19264091551303864 -0.1238197460770607 -0.9734260439872742
 outer loop
  vertex 353500.0 5699500.0 3322.800048828125
  vertex 354500.0 5698500.0 3252.10009765625
  vertex 353500.0 5698500.0 3450.0
 endloop
endfacet
facet normal 0.30065563321113586 0.3630092740058899 -0.8819469809532166
 outer loop
  vertex 353500.0 5699500.0 3322.800048828125
  vertex 354500.0 5699500.0 3663.699951171875
  vertex 354500.0 5698500.0 3252.10009765625
 endloop
endfacet
facet normal 0.4176686704158783 0.34583064913749695 -0.8402107954025269
 outer loop
  vertex 354500.0 5699500.0 3663.699951171875
  vertex 355500.0 5698500.0 3749.199951171875
  vertex 354500.0 5698500.0 3252.10009765625
 endloop
endfacet
facet normal 0.010968940332531929 -0.07428964227437973 -0.9971763491630554
 outer loop
  vertex 354500.0 5699500.0 3663.699951171875
  vertex 355500.0 5699500.0 3674.699951171875
  vertex 355500.0 5698500.0 3749.199951171875
 endloop
endfacet
facet normal 0.17201346158981323 -0.0731867253780365 -0.9823721647262573
 outer loop
  vertex 355500.0 5699500.0 3674.699951171875
  vertex 356500.0 5698500.0 3924.300048828125
  vertex 355500.0 5698500.0 3749.199951171875
 endloop
endfacet
facet normal -0.07741422951221466 -0.31363168358802795 -0.9463837146759033
 outer loop
  vertex 355500.0 5699500.0 3674.699951171875
  vertex 356500.0 5699500.0 3592.89990234375
  vertex 356500.0 5698500.0 3924.300048828125
 endloop
endfacet
facet normal -0.1019757091999054 -0.18842071294784546 -0.9767796993255615
 outer loop
  vertex 348500.0 5700500.0 2962.0
  vertex 349500.0 5699500.0 3050.5
  vertex 348500.0 5699500.0 3154.89990234375
 endloop
endfacet
facet normal 0.007176089100539684 -0.08103059977293015 -0.9966857433319092
 outer loop
  vertex 348500.0 5700500.0 2962.0
  vertex 349500.0 5700500.0 2969.199951171875
  vertex 349500.0 5699500.0 3050.5
 endloop
endfacet
facet normal -0.017340069636702538 -0.08102050423622131 -0.9965615272521973
 outer loop
  vertex 349500.0 5700500.0 2969.199951171875
  vertex 350500.0 5699500.0 3033.10009765625
  vertex 349500.0 5699500.0 3050.5
 endloop
endfacet
facet normal 0.006389461923390627 -0.057404011487960815 -0.9983305931091309
 outer loop
  vertex 349500.0 5700500.0 2969.199951171875
  vertex 350500.0 5700500.0 2975.60009765625
  vertex 350500.0 5699500.0 3033.10009765625
 endloop
endfacet
facet normal -0.032828189432621 -0.05737423896789551 -0.9978128671646118
 outer loop
  vertex 350500.0 5700500.0 2975.60009765625
  vertex 351500.0 5699500.0 3000.199951171875
  vertex 350500.0 5699500.0 3033.10009765625
 endloop
endfacet
facet normal 0.044347528368234634 0.019776692613959312 -0.9988203644752502
 outer loop
  vertex 350500.0 5700500.0 2975.60009765625
  vertex 351500.0 5700500.0 3020.0
  vertex 351500.0 5699500.0 3000.199951171875
 endloop
endfacet
facet normal 0.11049734801054001 0.019674943760037422 -0.9936816096305847
 outer loop
  vertex 351500.0 5700500.0 3020.0
  vertex 352500.0 5699500.0 3111.39990234375
  vertex 351500.0 5699500.0 3000.199951171875
 endloop
endfacet
facet normal 0.015154273249208927 -0.07597096264362335 -0.9969948530197144
 outer loop
  vertex 351500.0 5700500.0 3020.0
  vertex 352500.0 5700500.0 3035.199951171875
  vertex 352500.0 5699500.0 3111.39990234375
 endloop
endfacet
facet normal 0.2062566578388214 -0.07434596121311188 -0.9756694436073303
 outer loop
  vertex 352500.0 5700500.0 3035.199951171875
  vertex 353500.0 5699500.0 3322.800048828125
  vertex 352500.0 5699500.0 3111.39990234375
 endloop
endfacet
facet normal 0.47058436274528503 0.2252252697944641 -0.8531259298324585
 outer loop
  vertex 352500.0 5700500.0 3035.199951171875
  vertex 353500.0 5700500.0 3586.800048828125
  vertex 353500.0 5699500.0 3322.800048828125
 endloop
endfacet
facet normal 0.3130410313606262 0.24242550134658813 -0.9182783961296082
 outer loop
  vertex 353500.0 5700500.0 3586.800048828125
  vertex 354500.0 5699500.0 3663.699951171875
  vertex 353500.0 5699500.0 3322.800048828125
 endloop
endfacet
facet normal -0.17378327250480652 -0.24709053337574005 -0.953281581401825
 outer loop
  vertex 353500.0 5700500.0 3586.800048828125
  vertex 354500.0 5700500.0 3404.5
  vertex 354500.0 5699500.0 3663.699951171875
 endloop
endfacet
facet normal 0.010647500865161419 -0.250894159078598 -0.967956006526947
 outer loop
  vertex 354500.0 5700500.0 3404.5
  vertex 355500.0 5699500.0 3674.699951171875
  vertex 354500.0 5699500.0 3663.699951171875
 endloop
endfacet
facet normal 0.008222798816859722 -0.2531653940677643 -0.9673880934715271
 outer loop
  vertex 354500.0 5700500.0 3404.5
  vertex 355500.0 5700500.0 3413.0
  vertex 355500.0 5699500.0 3674.699951171875
 endloop
endfacet
facet normal -0.078888438642025 -0.2523849308490753 -0.9644057750701904
 outer loop
  vertex 355500.0 5700500.0 3413.0
  vertex 356500.0 5699500.0 3592.89990234375
  vertex 355500.0 5699500.0 3674.699951171875
 endloop
endfacet
facet normal 0.013414643704891205 -0.16403211653232574 -0.9863637685775757
 outer loop
  vertex 355500.0 5700500.0 3413.0
  vertex 356500.0 5700500.0 3426.60009765625
  vertex 356500.0 5699500.0 3592.89990234375
 endloop
endfacet
facet normal 0.0017756579909473658 -0.16404661536216736 -0.9864509701728821
 outer loop
  vertex 356500.0 5700500.0 3426.60009765625
  vertex 357500.0 5699500.0 3594.699951171875
  vertex 356500.0 5699500.0 3592.89990234375
 endloop
endfacet
facet normal -0.04174553602933884 -0.2060871571302414 -0.9776427745819092
 outer loop
  vertex 356500.0 5700500.0 3426.60009765625
  vertex 357500.0 5700500.0 3383.89990234375
  vertex 357500.0 5699500.0 3594.699951171875
 endloop
endfacet
facet normal -0.0036964784376323223 -0.04315940663218498 -0.9990614056587219
 outer loop
  vertex 347500.0 5701500.0 2922.5
  vertex 348500.0 5701500.0 2918.800048828125
  vertex 348500.0 5700500.0 2962.0
 endloop
endfacet
facet normal 0.00719305407255888 -0.04315858334302902 -0.9990423321723938
 outer loop
  vertex 348500.0 5701500.0 2918.800048828125
  vertex 349500.0 5700500.0 2969.199951171875
  vertex 348500.0 5700500.0 2962.0
 endloop
endfacet
facet normal 0.03607266768813133 -0.014289283193647861 -0.9992470145225525
 outer loop
  vertex 348500.0 5701500.0 2918.800048828125
  vertex 349500.0 5701500.0 2954.89990234375
  vertex 349500.0 5700500.0 2969.199951171875
 endloop
endfacet
facet normal 0.006399361416697502 -0.01429829467087984 -0.9998773336410522
 outer loop
  vertex 349500.0 5701500.0 2954.89990234375
  vertex 350500.0 5700500.0 2975.60009765625
  vertex 349500.0 5700500.0 2969.199951171875
 endloop
endfacet
facet normal 0.06905312836170197 0.048426687717437744 -0.9964369535446167
 outer loop
  vertex 349500.0 5701500.0 2954.89990234375
  vertex 350500.0 5701500.0 3024.199951171875
  vertex 350500.0 5700500.0 2975.60009765625
 endloop
endfacet
facet normal 0.044304009526968 0.04849489405751228 -0.9978403449058533
 outer loop
  vertex 350500.0 5701500.0 3024.199951171875
  vertex 351500.0 5700500.0 3020.0
  vertex 350500.0 5700500.0 2975.60009765625
 endloop
endfacet
facet normal 0.015994690358638763 0.020193248987197876 -0.9996681809425354
 outer loop
  vertex 350500.0 5701500.0 3024.199951171875
  vertex 351500.0 5701500.0 3040.199951171875
  vertex 351500.0 5700500.0 3020.0
 endloop
endfacet
facet normal 0.015195095911622047 0.020193498581647873 -0.9996805787086487
 outer loop
  vertex 351500.0 5701500.0 3040.199951171875
  vertex 352500.0 5700500.0 3035.199951171875
  vertex 351500.0 5700500.0 3020.0
 endloop
endfacet
facet normal 0.10216217488050461 0.10710710287094116 -0.9889848232269287
 outer loop
  vertex 351500.0 5701500.0 3040.199951171875
  vertex 352500.0 5701500.0 3143.5
  vertex 352500.0 5700500.0 3035.199951171875
 endloop
endfacet
facet normal 0.4808369278907776 0.09440654516220093 -0.871712863445282
 outer loop
  vertex 352500.0 5701500.0 3143.5
  vertex 353500.0 5700500.0 3586.800048828125
  vertex 352500.0 5700500.0 3035.199951171875
 endloop
endfacet
facet normal 0.24523687362670898 -0.17727965116500854 -0.9531162977218628
 outer loop
  vertex 352500.0 5701500.0 3143.5
  vertex 353500.0 5701500.0 3400.800048828125
  vertex 353500.0 5700500.0 3586.800048828125
 endloop
endfacet
facet normal -0.17641514539718628 -0.17999565601348877 -0.9677186012268066
 outer loop
  vertex 353500.0 5701500.0 3400.800048828125
  vertex 354500.0 5700500.0 3404.5
  vertex 353500.0 5700500.0 3586.800048828125
 endloop
endfacet
facet normal 0.2301616072654724 0.22666002810001373 -0.9463884234428406
 outer loop
  vertex 353500.0 5701500.0 3400.800048828125
  vertex 354500.0 5701500.0 3644.0
  vertex 354500.0 5700500.0 3404.5
 endloop
endfacet
facet normal 0.008265946991741657 0.23290520906448364 -0.9724643230438232
 outer loop
  vertex 354500.0 5701500.0 3644.0
  vertex 355500.0 5700500.0 3413.0
  vertex 354500.0 5700500.0 3404.5
 endloop
endfacet
facet normal -0.2045322209596634 0.021529708057641983 -0.97862309217453
 outer loop
  vertex 354500.0 5701500.0 3644.0
  vertex 355500.0 5701500.0 3435.0
  vertex 355500.0 5700500.0 3413.0
 endloop
endfacet
facet normal 0.013595551252365112 0.021992644295096397 -0.9996656775474548
 outer loop
  vertex 355500.0 5701500.0 3435.0
  vertex 356500.0 5700500.0 3426.60009765625
  vertex 355500.0 5700500.0 3413.0
 endloop
endfacet
facet normal 0.24914680421352386 -0.017236007377505302 -0.9683123230934143
 outer loop
  vertex 352500.0 5702500.0 3125.699951171875
  vertex 353500.0 5701500.0 3400.800048828125
  vertex 352500.0 5701500.0 3143.5
 endloop
endfacet
facet normal 0.33197498321533203 0.0732601135969162 -0.9404390454292297
 outer loop
  vertex 352500.0 5702500.0 3125.699951171875
  vertex 353500.0 5702500.0 3478.699951171875
  vertex 353500.0 5701500.0 3400.800048828125
 endloop
endfacet
facet normal 0.23563778400421143 0.07547765225172043 -0.968905508518219
 outer loop
  vertex 353500.0 5702500.0 3478.699951171875
  vertex 354500.0 5701500.0 3644.0
  vertex 353500.0 5701500.0 3400.800048828125
 endloop
endfacet
facet normal -0.0025639566592872143 -0.16558167338371277 -0.9861927628517151
 outer loop
  vertex 353500.0 5702500.0 3478.699951171875
  vertex 354500.0 5702500.0 3476.10009765625
  vertex 354500.0 5701500.0 3644.0
 endloop
endfacet
facet normal -0.20187146961688995 -0.16217321157455444 -0.9658922553062439
 outer loop
  vertex 354500.0 5702500.0 3476.10009765625
  vertex 355500.0 5701500.0 3435.0
  vertex 354500.0 5701500.0 3644.0
 endloop
endfacet
facet normal -0.0025126556865870953 -0.2567894458770752 -0.966464102268219
 outer loop
  vertex 353500.0 5703500.0 3213.0
  vertex 354500.0 5702500.0 3476.10009765625
  vertex 353500.0 5702500.0 3478.699951171875
 endloop
endfacet
endsolid
