solid
facet normal -0.02243250422179699 0.07407740503549576 -0.9970001578330994
 outer loop
  vertex 617500.0 5455500.0 7312.10009765625
  vertex 618500.0 5455500.0 7289.60009765625
  vertex 618500.0 5454500.0 7215.2998046875
 endloop
endfacet
facet normal -0.1272161900997162 0.025383777916431427 -0.9915502071380615
 outer loop
  vertex 614500.0 5456500.0 7487.2001953125
  vertex 615500.0 5456500.0 7358.89990234375
  vertex 615500.0 5455500.0 7333.2998046875
 endloop
endfacet
facet normal 0.04474077373743057 0.025566086173057556 -0.9986714720726013
 outer loop
  vertex 615500.0 5456500.0 7358.89990234375
  vertex 616500.0 5455500.0 7378.10009765625
  vertex 615500.0 5455500.0 7333.2998046875
 endloop
endfacet
facet normal 0.030982961878180504 0.011793319135904312 -0.9994503855705261
 outer loop
  vertex 615500.0 5456500.0 7358.89990234375
  vertex 616500.0 5456500.0 7389.89990234375
  vertex 616500.0 5455500.0 7378.10009765625
 endloop
endfacet
facet normal -0.06585215032100677 0.011773372069001198 -0.9977598786354065
 outer loop
  vertex 616500.0 5456500.0 7389.89990234375
  vertex 617500.0 5455500.0 7312.10009765625
  vertex 616500.0 5455500.0 7378.10009765625
 endloop
endfacet
facet normal -0.03294903412461281 0.04473061487078667 -0.9984555840492249
 outer loop
  vertex 616500.0 5456500.0 7389.89990234375
  vertex 617500.0 5456500.0 7356.89990234375
  vertex 617500.0 5455500.0 7312.10009765625
 endloop
endfacet
facet normal -0.022471779957413673 0.0447436161339283 -0.9987457394599915
 outer loop
  vertex 617500.0 5456500.0 7356.89990234375
  vertex 618500.0 5455500.0 7289.60009765625
  vertex 617500.0 5455500.0 7312.10009765625
 endloop
endfacet
facet normal -0.01577693037688732 0.05142543837428093 -0.9985522031784058
 outer loop
  vertex 617500.0 5456500.0 7356.89990234375
  vertex 618500.0 5456500.0 7341.10009765625
  vertex 618500.0 5455500.0 7289.60009765625
 endloop
endfacet
facet normal -0.23479214310646057 -0.21536041796207428 -0.9478884339332581
 outer loop
  vertex 612500.0 5457500.0 7508.2001953125
  vertex 613500.0 5457500.0 7260.5
  vertex 613500.0 5456500.0 7487.7001953125
 endloop
endfacet
facet normal -0.00048757402691990137 -0.22155381739139557 -0.9751480221748352
 outer loop
  vertex 613500.0 5457500.0 7260.5
  vertex 614500.0 5456500.0 7487.2001953125
  vertex 613500.0 5456500.0 7487.7001953125
 endloop
endfacet
facet normal 0.06453043222427368 -0.15881401300430298 -0.9851974248886108
 outer loop
  vertex 613500.0 5457500.0 7260.5
  vertex 614500.0 5457500.0 7326.0
  vertex 614500.0 5456500.0 7487.2001953125
 endloop
endfacet
facet normal -0.12566106021404266 -0.15788419544696808 -0.9794293642044067
 outer loop
  vertex 614500.0 5457500.0 7326.0
  vertex 615500.0 5456500.0 7358.89990234375
  vertex 614500.0 5456500.0 7487.2001953125
 endloop
endfacet
facet normal -0.06396593898534775 -0.09664414823055267 -0.993261456489563
 outer loop
  vertex 614500.0 5457500.0 7326.0
  vertex 615500.0 5457500.0 7261.60009765625
  vertex 615500.0 5456500.0 7358.89990234375
 endloop
endfacet
facet normal 0.03083961457014084 -0.09679640084505081 -0.9948262572288513
 outer loop
  vertex 615500.0 5457500.0 7261.60009765625
  vertex 616500.0 5456500.0 7389.89990234375
  vertex 615500.0 5456500.0 7358.89990234375
 endloop
endfacet
facet normal -0.17333202064037323 -0.29393115639686584 -0.9399789571762085
 outer loop
  vertex 615500.0 5457500.0 7261.60009765625
  vertex 616500.0 5457500.0 7077.2001953125
  vertex 616500.0 5456500.0 7389.89990234375
 endloop
endfacet
facet normal -0.03148043900728226 -0.29830071330070496 -0.9539526700973511
 outer loop
  vertex 616500.0 5457500.0 7077.2001953125
  vertex 617500.0 5456500.0 7356.89990234375
  vertex 616500.0 5456500.0 7389.89990234375
 endloop
endfacet
facet normal 0.2295754849910736 -0.04239531233906746 -0.9723671078681946
 outer loop
  vertex 616500.0 5457500.0 7077.2001953125
  vertex 617500.0 5457500.0 7313.2998046875
  vertex 617500.0 5456500.0 7356.89990234375
 endloop
endfacet
facet normal -0.01578284241259098 -0.04355328902602196 -0.9989264011383057
 outer loop
  vertex 617500.0 5457500.0 7313.2998046875
  vertex 618500.0 5456500.0 7341.10009765625
  vertex 617500.0 5456500.0 7356.89990234375
 endloop
endfacet
facet normal 0.18997840583324432 0.08315214514732361 -0.9782606363296509
 outer loop
  vertex 608500.0 5458500.0 7387.0
  vertex 609500.0 5458500.0 7581.2001953125
  vertex 609500.0 5457500.0 7496.2001953125
 endloop
endfacet
facet normal -0.09522043168544769 0.08430975675582886 -0.9918794631958008
 outer loop
  vertex 609500.0 5458500.0 7581.2001953125
  vertex 610500.0 5457500.0 7400.2001953125
  vertex 609500.0 5457500.0 7496.2001953125
 endloop
endfacet
facet normal 0.05765838548541069 0.23335173726081848 -0.9706814885139465
 outer loop
  vertex 609500.0 5458500.0 7581.2001953125
  vertex 610500.0 5458500.0 7640.60009765625
  vertex 610500.0 5457500.0 7400.2001953125
 endloop
endfacet
facet normal 0.16671638190746307 0.23046937584877014 -0.9586915969848633
 outer loop
  vertex 610500.0 5458500.0 7640.60009765625
  vertex 611500.0 5457500.0 7574.10009765625
  vertex 610500.0 5457500.0 7400.2001953125
 endloop
endfacet
facet normal -0.07052353769540787 -0.004189700353890657 -0.9975013136863708
 outer loop
  vertex 610500.0 5458500.0 7640.60009765625
  vertex 611500.0 5458500.0 7569.89990234375
  vertex 611500.0 5457500.0 7574.10009765625
 endloop
endfacet
facet normal -0.06575669348239899 -0.004191067535430193 -0.997826874256134
 outer loop
  vertex 611500.0 5458500.0 7569.89990234375
  vertex 612500.0 5457500.0 7508.2001953125
  vertex 611500.0 5457500.0 7574.10009765625
 endloop
endfacet
facet normal -0.17679858207702637 -0.11649772524833679 -0.9773282408714294
 outer loop
  vertex 611500.0 5458500.0 7569.89990234375
  vertex 612500.0 5458500.0 7389.0
  vertex 612500.0 5457500.0 7508.2001953125
 endloop
endfacet
facet normal -0.23884062469005585 -0.1149367243051529 -0.9642326831817627
 outer loop
  vertex 612500.0 5458500.0 7389.0
  vertex 613500.0 5457500.0 7260.5
  vertex 612500.0 5457500.0 7508.2001953125
 endloop
endfacet
facet normal -0.12501119077205658 0.002480380702763796 -0.9921522736549377
 outer loop
  vertex 612500.0 5458500.0 7389.0
  vertex 613500.0 5458500.0 7263.0
  vertex 613500.0 5457500.0 7260.5
 endloop
endfacet
facet normal 0.06535974144935608 0.0024946467019617558 -0.9978586435317993
 outer loop
  vertex 613500.0 5458500.0 7263.0
  vertex 614500.0 5457500.0 7326.0
  vertex 613500.0 5457500.0 7260.5
 endloop
endfacet
facet normal -0.05866187438368797 -0.12108899652957916 -0.9909067749977112
 outer loop
  vertex 613500.0 5458500.0 7263.0
  vertex 614500.0 5458500.0 7203.7998046875
  vertex 614500.0 5457500.0 7326.0
 endloop
endfacet
facet normal -0.06379417330026627 -0.12105081975460052 -0.9905943274497986
 outer loop
  vertex 614500.0 5458500.0 7203.7998046875
  vertex 615500.0 5457500.0 7261.60009765625
  vertex 614500.0 5457500.0 7326.0
 endloop
endfacet
facet normal -0.23116809129714966 -0.2849370241165161 -0.9302538633346558
 outer loop
  vertex 614500.0 5458500.0 7203.7998046875
  vertex 615500.0 5458500.0 6955.2998046875
  vertex 615500.0 5457500.0 7261.60009765625
 endloop
endfacet
facet normal -0.17363613843917847 -0.28842100501060486 -0.9416282176971436
 outer loop
  vertex 615500.0 5458500.0 6955.2998046875
  vertex 616500.0 5457500.0 7077.2001953125
  vertex 615500.0 5457500.0 7261.60009765625
 endloop
endfacet
facet normal 0.014515239745378494 -0.10667665302753448 -0.9941878318786621
 outer loop
  vertex 615500.0 5458500.0 6955.2998046875
  vertex 616500.0 5458500.0 6969.89990234375
  vertex 616500.0 5457500.0 7077.2001953125
 endloop
endfacet
facet normal 0.22853930294513702 -0.10386435687541962 -0.967978298664093
 outer loop
  vertex 616500.0 5458500.0 6969.89990234375
  vertex 617500.0 5457500.0 7313.2998046875
  vertex 616500.0 5457500.0 7077.2001953125
 endloop
endfacet
facet normal 0.22458422183990479 -0.10798253864049911 -0.9684532284736633
 outer loop
  vertex 616500.0 5458500.0 6969.89990234375
  vertex 617500.0 5458500.0 7201.7998046875
  vertex 617500.0 5457500.0 7313.2998046875
 endloop
endfacet
facet normal -0.060087885707616806 -0.1149212121963501 -0.9915556907653809
 outer loop
  vertex 606500.0 5459500.0 7269.2998046875
  vertex 607500.0 5459500.0 7208.7001953125
  vertex 607500.0 5458500.0 7324.60009765625
 endloop
endfacet
facet normal 0.061866242438554764 -0.11490869522094727 -0.9914476871490479
 outer loop
  vertex 607500.0 5459500.0 7208.7001953125
  vertex 608500.0 5458500.0 7387.0
  vertex 607500.0 5458500.0 7324.60009765625
 endloop
endfacet
facet normal 0.11244416981935501 -0.06435292959213257 -0.9915720224380493
 outer loop
  vertex 607500.0 5459500.0 7208.7001953125
  vertex 608500.0 5459500.0 7322.10009765625
  vertex 608500.0 5458500.0 7387.0
 endloop
endfacet
facet normal 0.190252885222435 -0.06358075141906738 -0.9796741008758545
 outer loop
  vertex 608500.0 5459500.0 7322.10009765625
  vertex 609500.0 5458500.0 7581.2001953125
  vertex 608500.0 5458500.0 7387.0
 endloop
endfacet
facet normal 0.23922611773014069 -0.012330428697168827 -0.9708855748176575
 outer loop
  vertex 608500.0 5459500.0 7322.10009765625
  vertex 609500.0 5459500.0 7568.5
  vertex 609500.0 5458500.0 7581.2001953125
 endloop
endfacet
facet normal 0.05929061770439148 -0.012676830403506756 -0.9981602430343628
 outer loop
  vertex 609500.0 5459500.0 7568.5
  vertex 610500.0 5458500.0 7640.60009765625
  vertex 609500.0 5458500.0 7581.2001953125
 endloop
endfacet
facet normal -0.06348371505737305 -0.134779155254364 -0.988839864730835
 outer loop
  vertex 609500.0 5459500.0 7568.5
  vertex 610500.0 5459500.0 7504.2998046875
  vertex 610500.0 5458500.0 7640.60009765625
 endloop
endfacet
facet normal -0.06988123059272766 -0.13472142815589905 -0.9884162545204163
 outer loop
  vertex 610500.0 5459500.0 7504.2998046875
  vertex 611500.0 5458500.0 7569.89990234375
  vertex 610500.0 5458500.0 7640.60009765625
 endloop
endfacet
facet normal -0.3383391499519348 -0.3943873345851898 -0.8543917536735535
 outer loop
  vertex 610500.0 5459500.0 7504.2998046875
  vertex 611500.0 5459500.0 7108.2998046875
  vertex 611500.0 5458500.0 7569.89990234375
 endloop
endfacet
facet normal -0.16207434237003326 -0.4135631322860718 -0.8959338068962097
 outer loop
  vertex 611500.0 5459500.0 7108.2998046875
  vertex 612500.0 5458500.0 7389.0
  vertex 611500.0 5458500.0 7569.89990234375
 endloop
endfacet
facet normal 0.3080492615699768 0.0412505567073822 -0.9504756927490234
 outer loop
  vertex 611500.0 5459500.0 7108.2998046875
  vertex 612500.0 5459500.0 7432.39990234375
  vertex 612500.0 5458500.0 7389.0
 endloop
endfacet
facet normal -0.12489583343267441 0.043019577860832214 -0.9912368059158325
 outer loop
  vertex 612500.0 5459500.0 7432.39990234375
  vertex 613500.0 5458500.0 7263.0
  vertex 612500.0 5458500.0 7389.0
 endloop
endfacet
facet normal -0.028110621497035027 0.13956376910209656 -0.9898139834403992
 outer loop
  vertex 612500.0 5459500.0 7432.39990234375
  vertex 613500.0 5459500.0 7404.0
  vertex 613500.0 5458500.0 7263.0
 endloop
endfacet
facet normal -0.0585198774933815 0.13937968015670776 -0.9885083436965942
 outer loop
  vertex 613500.0 5459500.0 7404.0
  vertex 614500.0 5458500.0 7203.7998046875
  vertex 613500.0 5458500.0 7263.0
 endloop
endfacet
facet normal -0.22487980127334595 -0.02989930473268032 -0.9739276766777039
 outer loop
  vertex 613500.0 5459500.0 7404.0
  vertex 614500.0 5459500.0 7173.10009765625
  vertex 614500.0 5458500.0 7203.7998046875
 endloop
endfacet
facet normal -0.2410583198070526 -0.02978036180138588 -0.9700536131858826
 outer loop
  vertex 614500.0 5459500.0 7173.10009765625
  vertex 615500.0 5458500.0 6955.2998046875
  vertex 614500.0 5458500.0 7203.7998046875
 endloop
endfacet
facet normal -0.12164173275232315 0.0935782939195633 -0.9881530404090881
 outer loop
  vertex 614500.0 5459500.0 7173.10009765625
  vertex 615500.0 5459500.0 7050.0
  vertex 615500.0 5458500.0 6955.2998046875
 endloop
endfacet
facet normal 0.01453353650867939 0.09426843374967575 -0.9954407811164856
 outer loop
  vertex 615500.0 5459500.0 7050.0
  vertex 616500.0 5458500.0 6969.89990234375
  vertex 615500.0 5458500.0 6955.2998046875
 endloop
endfacet
facet normal -0.07181175798177719 0.008078915998339653 -0.9973855018615723
 outer loop
  vertex 615500.0 5459500.0 7050.0
  vertex 616500.0 5459500.0 6978.0
  vertex 616500.0 5458500.0 6969.89990234375
 endloop
endfacet
facet normal 0.22589810192584991 0.007890459150075912 -0.9741190075874329
 outer loop
  vertex 616500.0 5459500.0 6978.0
  vertex 617500.0 5458500.0 7201.7998046875
  vertex 616500.0 5458500.0 6969.89990234375
 endloop
endfacet
facet normal -0.06047718971967697 -0.019460607320070267 -0.9979798197746277
 outer loop
  vertex 606500.0 5460500.0 7249.7998046875
  vertex 607500.0 5459500.0 7208.7001953125
  vertex 606500.0 5459500.0 7269.2998046875
 endloop
endfacet
facet normal 0.2310396432876587 0.25963830947875977 -0.9376612305641174
 outer loop
  vertex 608500.0 5460500.0 7599.0
  vertex 609500.0 5459500.0 7568.5
  vertex 608500.0 5459500.0 7322.10009765625
 endloop
endfacet
facet normal -0.2318490743637085 -0.20283228158950806 -0.951370120048523
 outer loop
  vertex 608500.0 5460500.0 7599.0
  vertex 609500.0 5460500.0 7355.2998046875
  vertex 609500.0 5459500.0 7568.5
 endloop
endfacet
facet normal -0.06266562640666962 -0.20810410380363464 -0.9760972261428833
 outer loop
  vertex 609500.0 5460500.0 7355.2998046875
  vertex 610500.0 5459500.0 7504.2998046875
  vertex 609500.0 5459500.0 7568.5
 endloop
endfacet
facet normal -0.21452569961547852 -0.3503708243370056 -0.9117121696472168
 outer loop
  vertex 609500.0 5460500.0 7355.2998046875
  vertex 610500.0 5460500.0 7120.0
  vertex 610500.0 5459500.0 7504.2998046875
 endloop
endfacet
facet normal -0.3467150926589966 -0.3364710807800293 -0.8755431771278381
 outer loop
  vertex 610500.0 5460500.0 7120.0
  vertex 611500.0 5459500.0 7108.2998046875
  vertex 610500.0 5459500.0 7504.2998046875
 endloop
endfacet
facet normal -0.06921777874231339 -0.05756509676575661 -0.995939314365387
 outer loop
  vertex 610500.0 5460500.0 7120.0
  vertex 611500.0 5460500.0 7050.5
  vertex 611500.0 5459500.0 7108.2998046875
 endloop
endfacet
facet normal 0.30784666538238525 -0.05490117892622948 -0.9498506188392639
 outer loop
  vertex 611500.0 5460500.0 7050.5
  vertex 612500.0 5459500.0 7432.39990234375
  vertex 611500.0 5459500.0 7108.2998046875
 endloop
endfacet
facet normal -0.13690726459026337 -0.4699319005012512 -0.8720207810401917
 outer loop
  vertex 611500.0 5460500.0 7050.5
  vertex 612500.0 5460500.0 6893.5
  vertex 612500.0 5459500.0 7432.39990234375
 endloop
endfacet
facet normal -0.02499288320541382 -0.4742507338523865 -0.8800349831581116
 outer loop
  vertex 612500.0 5460500.0 6893.5
  vertex 613500.0 5459500.0 7404.0
  vertex 612500.0 5459500.0 7432.39990234375
 endloop
endfacet
facet normal 0.23646211624145508 -0.24370478093624115 -0.9405815601348877
 outer loop
  vertex 612500.0 5460500.0 6893.5
  vertex 613500.0 5460500.0 7144.89990234375
  vertex 613500.0 5459500.0 7404.0
 endloop
endfacet
facet normal -0.21813631057739258 -0.24477766454219818 -0.9447224140167236
 outer loop
  vertex 613500.0 5460500.0 7144.89990234375
  vertex 614500.0 5459500.0 7173.10009765625
  vertex 613500.0 5459500.0 7404.0
 endloop
endfacet
facet normal -0.0015993856359273195 -0.029787031933665276 -0.9995549917221069
 outer loop
  vertex 613500.0 5460500.0 7144.89990234375
  vertex 614500.0 5460500.0 7143.2998046875
  vertex 614500.0 5459500.0 7173.10009765625
 endloop
endfacet
facet normal -0.12212444841861725 -0.029564106836915016 -0.9920743703842163
 outer loop
  vertex 614500.0 5460500.0 7143.2998046875
  vertex 615500.0 5459500.0 7050.0
  vertex 614500.0 5459500.0 7173.10009765625
 endloop
endfacet
facet normal -0.23864932358264923 -0.14911992847919464 -0.9595882892608643
 outer loop
  vertex 614500.0 5460500.0 7143.2998046875
  vertex 615500.0 5460500.0 6894.60009765625
  vertex 615500.0 5459500.0 7050.0
 endloop
endfacet
facet normal -0.0709666833281517 -0.1531696766614914 -0.9856483936309814
 outer loop
  vertex 615500.0 5460500.0 6894.60009765625
  vertex 616500.0 5459500.0 6978.0
  vertex 615500.0 5459500.0 7050.0
 endloop
endfacet
facet normal -0.23903042078018188 -0.3156154751777649 -0.9182871580123901
 outer loop
  vertex 615500.0 5460500.0 6894.60009765625
  vertex 616500.0 5460500.0 6634.2998046875
  vertex 616500.0 5459500.0 6978.0
 endloop
endfacet
facet normal -0.2021278589963913 -0.52078777551651 -0.8294121026992798
 outer loop
  vertex 608500.0 5461500.0 6971.10009765625
  vertex 609500.0 5460500.0 7355.2998046875
  vertex 608500.0 5460500.0 7599.0
 endloop
endfacet
facet normal 0.38956162333488464 0.03598370775580406 -0.9202972054481506
 outer loop
  vertex 608500.0 5461500.0 6971.10009765625
  vertex 609500.0 5461500.0 7394.39990234375
  vertex 609500.0 5460500.0 7355.2998046875
 endloop
endfacet
facet normal -0.22887887060642242 0.03803312033414841 -0.9727116823196411
 outer loop
  vertex 609500.0 5461500.0 7394.39990234375
  vertex 610500.0 5460500.0 7120.0
  vertex 609500.0 5460500.0 7355.2998046875
 endloop
endfacet
facet normal -0.46742314100265503 -0.23345571756362915 -0.8526512384414673
 outer loop
  vertex 609500.0 5461500.0 7394.39990234375
  vertex 610500.0 5461500.0 6846.2001953125
  vertex 610500.0 5460500.0 7120.0
 endloop
endfacet
facet normal -0.06688270717859268 -0.2634887993335724 -0.9623410701751709
 outer loop
  vertex 610500.0 5461500.0 6846.2001953125
  vertex 611500.0 5460500.0 7050.5
  vertex 610500.0 5460500.0 7120.0
 endloop
endfacet
facet normal -0.10681689530611038 -0.3004516065120697 -0.9477968811988831
 outer loop
  vertex 610500.0 5461500.0 6846.2001953125
  vertex 611500.0 5461500.0 6733.5
  vertex 611500.0 5460500.0 7050.5
 endloop
endfacet
facet normal -0.1480119377374649 -0.2988521158695221 -0.9427511692047119
 outer loop
  vertex 611500.0 5461500.0 6733.5
  vertex 612500.0 5460500.0 6893.5
  vertex 611500.0 5460500.0 7050.5
 endloop
endfacet
facet normal -0.022814463824033737 -0.18015426397323608 -0.9833738207817078
 outer loop
  vertex 611500.0 5461500.0 6733.5
  vertex 612500.0 5461500.0 6710.2998046875
  vertex 612500.0 5460500.0 6893.5
 endloop
endfacet
facet normal 0.24005374312400818 -0.17493200302124023 -0.9548680186271667
 outer loop
  vertex 612500.0 5461500.0 6710.2998046875
  vertex 613500.0 5460500.0 7144.89990234375
  vertex 612500.0 5460500.0 6893.5
 endloop
endfacet
facet normal -0.03371331840753555 -0.426525354385376 -0.9038470387458801
 outer loop
  vertex 612500.0 5461500.0 6710.2998046875
  vertex 613500.0 5461500.0 6673.0
  vertex 613500.0 5460500.0 7144.89990234375
 endloop
endfacet
facet normal -0.0014470611931756139 -0.4267675280570984 -0.904360294342041
 outer loop
  vertex 613500.0 5461500.0 6673.0
  vertex 614500.0 5460500.0 7143.2998046875
  vertex 613500.0 5460500.0 7144.89990234375
 endloop
endfacet
facet normal -0.005056613124907017 -0.42971423268318176 -0.9029508233070374
 outer loop
  vertex 613500.0 5461500.0 6673.0
  vertex 614500.0 5461500.0 6667.39990234375
  vertex 614500.0 5460500.0 7143.2998046875
 endloop
endfacet
facet normal -0.21910957992076874 -0.4192776083946228 -0.8810206055641174
 outer loop
  vertex 614500.0 5461500.0 6667.39990234375
  vertex 615500.0 5460500.0 6894.60009765625
  vertex 614500.0 5460500.0 7143.2998046875
 endloop
endfacet
facet normal 0.28981900215148926 0.07300342619419098 -0.9542931914329529
 outer loop
  vertex 614500.0 5461500.0 6667.39990234375
  vertex 615500.0 5461500.0 6971.10009765625
  vertex 615500.0 5460500.0 6894.60009765625
 endloop
endfacet
facet normal -0.2512185275554657 0.07383095473051071 -0.9651104807853699
 outer loop
  vertex 615500.0 5461500.0 6971.10009765625
  vertex 616500.0 5460500.0 6634.2998046875
  vertex 615500.0 5460500.0 6894.60009765625
 endloop
endfacet
facet normal -0.11549599468708038 0.21138706803321838 -0.9705545902252197
 outer loop
  vertex 615500.0 5461500.0 6971.10009765625
  vertex 616500.0 5461500.0 6852.10009765625
  vertex 616500.0 5460500.0 6634.2998046875
 endloop
endfacet
facet normal 0.351290762424469 0.19924798607826233 -0.9148196578025818
 outer loop
  vertex 616500.0 5461500.0 6852.10009765625
  vertex 617500.0 5460500.0 7018.2998046875
  vertex 616500.0 5460500.0 6634.2998046875
 endloop
endfacet
facet normal 0.30172044038772583 0.14511241018772125 -0.9422882795333862
 outer loop
  vertex 616500.0 5461500.0 6852.10009765625
  vertex 617500.0 5461500.0 7172.2998046875
  vertex 617500.0 5460500.0 7018.2998046875
 endloop
endfacet
facet normal -0.312858909368515 0.3131273686885834 -0.896699845790863
 outer loop
  vertex 607500.0 5462500.0 7669.2001953125
  vertex 608500.0 5462500.0 7320.2998046875
  vertex 608500.0 5461500.0 6971.10009765625
 endloop
endfacet
facet normal 0.37109822034835815 0.30613619089126587 -0.8766793608665466
 outer loop
  vertex 608500.0 5462500.0 7320.2998046875
  vertex 609500.0 5461500.0 7394.39990234375
  vertex 608500.0 5461500.0 6971.10009765625
 endloop
endfacet
facet normal -0.3766053318977356 -0.4371269643306732 -0.8167548179626465
 outer loop
  vertex 608500.0 5462500.0 7320.2998046875
  vertex 609500.0 5462500.0 6859.2001953125
  vertex 609500.0 5461500.0 7394.39990234375
 endloop
endfacet
facet normal -0.4351666271686554 -0.4248470962047577 -0.7938104271888733
 outer loop
  vertex 609500.0 5462500.0 6859.2001953125
  vertex 610500.0 5461500.0 6846.2001953125
  vertex 609500.0 5461500.0 7394.39990234375
 endloop
endfacet
facet normal 0.4475115239620209 0.4575006067752838 -0.7683922052383423
 outer loop
  vertex 609500.0 5462500.0 6859.2001953125
  vertex 610500.0 5462500.0 7441.60009765625
  vertex 610500.0 5461500.0 6846.2001953125
 endloop
endfacet
facet normal -0.09638478606939316 0.509204626083374 -0.8552313446998596
 outer loop
  vertex 610500.0 5462500.0 7441.60009765625
  vertex 611500.0 5461500.0 6733.5
  vertex 610500.0 5461500.0 6846.2001953125
 endloop
endfacet
facet normal -0.4772149622440338 0.13740086555480957 -0.8679786920547485
 outer loop
  vertex 610500.0 5462500.0 7441.60009765625
  vertex 611500.0 5462500.0 6891.7998046875
  vertex 611500.0 5461500.0 6733.5
 endloop
endfacet
facet normal -0.02290884219110012 0.15631189942359924 -0.9874420762062073
 outer loop
  vertex 611500.0 5462500.0 6891.7998046875
  vertex 612500.0 5461500.0 6710.2998046875
  vertex 611500.0 5461500.0 6733.5
 endloop
endfacet
facet normal -0.16017478704452515 0.018948795273900032 -0.9869067668914795
 outer loop
  vertex 611500.0 5462500.0 6891.7998046875
  vertex 612500.0 5462500.0 6729.5
  vertex 612500.0 5461500.0 6710.2998046875
 endloop
endfacet
facet normal -0.03726702556014061 0.01918332278728485 -0.9991211891174316
 outer loop
  vertex 612500.0 5462500.0 6729.5
  vertex 613500.0 5461500.0 6673.0
  vertex 612500.0 5461500.0 6710.2998046875
 endloop
endfacet
facet normal -0.03836534544825554 0.018083808943629265 -0.9991001486778259
 outer loop
  vertex 612500.0 5462500.0 6729.5
  vertex 613500.0 5462500.0 6691.10009765625
  vertex 613500.0 5461500.0 6673.0
 endloop
endfacet
facet normal -0.0055990926921367645 0.01809684932231903 -0.9998205304145813
 outer loop
  vertex 613500.0 5462500.0 6691.10009765625
  vertex 614500.0 5461500.0 6667.39990234375
  vertex 613500.0 5461500.0 6673.0
 endloop
endfacet
facet normal 0.4227685332298279 0.4415249824523926 -0.791405439376831
 outer loop
  vertex 613500.0 5462500.0 6691.10009765625
  vertex 614500.0 5462500.0 7225.2998046875
  vertex 614500.0 5461500.0 6667.39990234375
 endloop
endfacet
facet normal 0.25635454058647156 0.470925509929657 -0.844103991985321
 outer loop
  vertex 614500.0 5462500.0 7225.2998046875
  vertex 615500.0 5461500.0 6971.10009765625
  vertex 614500.0 5461500.0 6667.39990234375
 endloop
endfacet
facet normal -0.031124673783779144 0.21689748764038086 -0.9756981134414673
 outer loop
  vertex 614500.0 5462500.0 7225.2998046875
  vertex 615500.0 5462500.0 7193.39990234375
  vertex 615500.0 5461500.0 6971.10009765625
 endloop
endfacet
facet normal -0.115388423204422 0.2155531495809555 -0.9696506261825562
 outer loop
  vertex 615500.0 5462500.0 7193.39990234375
  vertex 616500.0 5461500.0 6852.10009765625
  vertex 615500.0 5461500.0 6971.10009765625
 endloop
endfacet
facet normal -0.23131106793880463 0.0990087017416954 -0.9678287506103516
 outer loop
  vertex 615500.0 5462500.0 7193.39990234375
  vertex 616500.0 5462500.0 6954.39990234375
  vertex 616500.0 5461500.0 6852.10009765625
 endloop
endfacet
facet normal 0.30351120233535767 0.09696803241968155 -0.9478808641433716
 outer loop
  vertex 616500.0 5462500.0 6954.39990234375
  vertex 617500.0 5461500.0 7172.2998046875
  vertex 616500.0 5461500.0 6852.10009765625
 endloop
endfacet
facet normal 0.2852654457092285 0.07709634304046631 -0.9553427696228027
 outer loop
  vertex 616500.0 5462500.0 6954.39990234375
  vertex 617500.0 5462500.0 7253.0
  vertex 617500.0 5461500.0 7172.2998046875
 endloop
endfacet
facet normal -0.2975277006626129 -0.4292788803577423 -0.8527583479881287
 outer loop
  vertex 607500.0 5463500.0 7165.7998046875
  vertex 608500.0 5462500.0 7320.2998046875
  vertex 607500.0 5462500.0 7669.2001953125
 endloop
endfacet
facet normal -0.19513992965221405 -0.33741992712020874 -0.920906126499176
 outer loop
  vertex 607500.0 5463500.0 7165.7998046875
  vertex 608500.0 5463500.0 6953.89990234375
  vertex 608500.0 5462500.0 7320.2998046875
 endloop
endfacet
facet normal -0.3973134458065033 -0.3157140016555786 -0.8616650700569153
 outer loop
  vertex 608500.0 5463500.0 6953.89990234375
  vertex 609500.0 5462500.0 6859.2001953125
  vertex 608500.0 5462500.0 7320.2998046875
 endloop
endfacet
facet normal 0.35105013847351074 0.4298281967639923 -0.8318723440170288
 outer loop
  vertex 608500.0 5463500.0 6953.89990234375
  vertex 609500.0 5463500.0 7375.89990234375
  vertex 609500.0 5462500.0 6859.2001953125
 endloop
endfacet
facet normal 0.4595426023006439 0.40770184993743896 -0.7890498638153076
 outer loop
  vertex 609500.0 5463500.0 7375.89990234375
  vertex 610500.0 5462500.0 7441.60009765625
  vertex 609500.0 5462500.0 6859.2001953125
 endloop
endfacet
facet normal -0.420043408870697 -0.47100725769996643 -0.7757034301757812
 outer loop
  vertex 609500.0 5463500.0 7375.89990234375
  vertex 610500.0 5463500.0 6834.39990234375
  vertex 610500.0 5462500.0 7441.60009765625
 endloop
endfacet
facet normal -0.4253244400024414 -0.46972885727882385 -0.7735980153083801
 outer loop
  vertex 610500.0 5463500.0 6834.39990234375
  vertex 611500.0 5462500.0 6891.7998046875
  vertex 610500.0 5462500.0 7441.60009765625
 endloop
endfacet
facet normal -0.14797966182231903 -0.20353247225284576 -0.9678205251693726
 outer loop
  vertex 610500.0 5463500.0 6834.39990234375
  vertex 611500.0 5463500.0 6681.5
  vertex 611500.0 5462500.0 6891.7998046875
 endloop
endfacet
facet normal -0.15685957670211792 -0.20325063169002533 -0.9664803743362427
 outer loop
  vertex 611500.0 5463500.0 6681.5
  vertex 612500.0 5462500.0 6729.5
  vertex 611500.0 5462500.0 6891.7998046875
 endloop
endfacet
facet normal 0.27363473176956177 0.22879187762737274 -0.9342260360717773
 outer loop
  vertex 611500.0 5463500.0 6681.5
  vertex 612500.0 5463500.0 6974.39990234375
  vertex 612500.0 5462500.0 6729.5
 endloop
endfacet
facet normal -0.03727179393172264 0.23770523071289062 -0.9706220030784607
 outer loop
  vertex 612500.0 5463500.0 6974.39990234375
  vertex 613500.0 5462500.0 6691.10009765625
  vertex 612500.0 5462500.0 6729.5
 endloop
endfacet
facet normal 0.2709926664829254 0.5034241080284119 -0.820443332195282
 outer loop
  vertex 612500.0 5463500.0 6974.39990234375
  vertex 613500.0 5463500.0 7304.7001953125
  vertex 613500.0 5462500.0 6691.10009765625
 endloop
endfacet
facet normal 0.41438552737236023 0.4759773910045624 -0.7757126688957214
 outer loop
  vertex 613500.0 5463500.0 7304.7001953125
  vertex 614500.0 5462500.0 7225.2998046875
  vertex 613500.0 5462500.0 6691.10009765625
 endloop
endfacet
facet normal -0.390511155128479 -0.3220334053039551 -0.8624357581138611
 outer loop
  vertex 613500.0 5463500.0 7304.7001953125
  vertex 614500.0 5463500.0 6851.89990234375
  vertex 614500.0 5462500.0 7225.2998046875
 endloop
endfacet
facet normal -0.029871167615056038 -0.34965279698371887 -0.9364030361175537
 outer loop
  vertex 614500.0 5463500.0 6851.89990234375
  vertex 615500.0 5462500.0 7193.39990234375
  vertex 614500.0 5462500.0 7225.2998046875
 endloop
endfacet
facet normal 0.45662030577659607 0.15760624408721924 -0.8755902051925659
 outer loop
  vertex 614500.0 5463500.0 6851.89990234375
  vertex 615500.0 5463500.0 7373.39990234375
  vertex 615500.0 5462500.0 7193.39990234375
 endloop
endfacet
facet normal -0.22897079586982727 0.1724466234445572 -0.9580367803573608
 outer loop
  vertex 615500.0 5463500.0 7373.39990234375
  vertex 616500.0 5462500.0 6954.39990234375
  vertex 615500.0 5462500.0 7193.39990234375
 endloop
endfacet
facet normal -0.2614353895187378 0.13878946006298065 -0.9551905989646912
 outer loop
  vertex 615500.0 5463500.0 7373.39990234375
  vertex 616500.0 5463500.0 7099.7001953125
  vertex 616500.0 5462500.0 6954.39990234375
 endloop
endfacet
facet normal 0.28338369727134705 0.13789591193199158 -0.9490407705307007
 outer loop
  vertex 616500.0 5463500.0 7099.7001953125
  vertex 617500.0 5462500.0 7253.0
  vertex 616500.0 5462500.0 6954.39990234375
 endloop
endfacet
facet normal 0.1178027018904686 -0.03433863818645477 -0.9924430847167969
 outer loop
  vertex 616500.0 5463500.0 7099.7001953125
  vertex 617500.0 5463500.0 7218.39990234375
  vertex 617500.0 5462500.0 7253.0
 endloop
endfacet
facet normal 0.06134744733572006 -0.03451427444815636 -0.9975195527076721
 outer loop
  vertex 617500.0 5463500.0 7218.39990234375
  vertex 618500.0 5462500.0 7314.5
  vertex 617500.0 5462500.0 7253.0
 endloop
endfacet
facet normal 0.10982024669647217 0.014311323873698711 -0.9938483834266663
 outer loop
  vertex 617500.0 5463500.0 7218.39990234375
  vertex 618500.0 5463500.0 7328.89990234375
  vertex 618500.0 5462500.0 7314.5
 endloop
endfacet
facet normal 0.2581631541252136 0.3955739438533783 -0.8814039826393127
 outer loop
  vertex 611500.0 5464500.0 7130.2998046875
  vertex 612500.0 5463500.0 6974.39990234375
  vertex 611500.0 5463500.0 6681.5
 endloop
endfacet
facet normal 0.2778025269508362 0.41301748156547546 -0.8673190474510193
 outer loop
  vertex 611500.0 5464500.0 7130.2998046875
  vertex 612500.0 5464500.0 7450.60009765625
  vertex 612500.0 5463500.0 6974.39990234375
 endloop
endfacet
facet normal 0.2857772707939148 0.4120104908943176 -0.865204393863678
 outer loop
  vertex 612500.0 5464500.0 7450.60009765625
  vertex 613500.0 5463500.0 7304.7001953125
  vertex 612500.0 5463500.0 6974.39990234375
 endloop
endfacet
facet normal -0.10493194311857224 0.04004482924938202 -0.9936728477478027
 outer loop
  vertex 612500.0 5464500.0 7450.60009765625
  vertex 613500.0 5464500.0 7345.0
  vertex 613500.0 5463500.0 7304.7001953125
 endloop
endfacet
facet normal -0.4122072458267212 0.036686971783638 -0.9103510975837708
 outer loop
  vertex 613500.0 5464500.0 7345.0
  vertex 614500.0 5463500.0 6851.89990234375
  vertex 613500.0 5463500.0 7304.7001953125
 endloop
endfacet
facet normal -0.40881022810935974 0.0407535620033741 -0.9117089509963989
 outer loop
  vertex 613500.0 5464500.0 7345.0
  vertex 614500.0 5464500.0 6896.60009765625
  vertex 614500.0 5463500.0 6851.89990234375
 endloop
endfacet
facet normal 0.4620365798473358 0.03960330784320831 -0.8859761953353882
 outer loop
  vertex 614500.0 5464500.0 6896.60009765625
  vertex 615500.0 5463500.0 7373.39990234375
  vertex 614500.0 5463500.0 6851.89990234375
 endloop
endfacet
facet normal 0.4114685356616974 -0.02296033874154091 -0.9111347794532776
 outer loop
  vertex 614500.0 5464500.0 6896.60009765625
  vertex 615500.0 5464500.0 7348.2001953125
  vertex 615500.0 5463500.0 7373.39990234375
 endloop
endfacet
facet normal -0.2639123499393463 -0.02429857850074768 -0.964240550994873
 outer loop
  vertex 615500.0 5464500.0 7348.2001953125
  vertex 616500.0 5463500.0 7099.7001953125
  vertex 615500.0 5463500.0 7373.39990234375
 endloop
endfacet
facet normal 0.06673598289489746 0.30297473073005676 -0.9506590366363525
 outer loop
  vertex 615500.0 5464500.0 7348.2001953125
  vertex 616500.0 5464500.0 7418.39990234375
  vertex 616500.0 5463500.0 7099.7001953125
 endloop
endfacet
facet normal 0.11237868666648865 0.301728218793869 -0.9467477202415466
 outer loop
  vertex 616500.0 5464500.0 7418.39990234375
  vertex 617500.0 5463500.0 7218.39990234375
  vertex 616500.0 5463500.0 7099.7001953125
 endloop
endfacet
facet normal -0.07838615030050278 0.11955941468477249 -0.989727795124054
 outer loop
  vertex 616500.0 5464500.0 7418.39990234375
  vertex 617500.0 5464500.0 7339.2001953125
  vertex 617500.0 5463500.0 7218.39990234375
 endloop
endfacet
facet normal 0.1090482547879219 0.11921322345733643 -0.9868620038032532
 outer loop
  vertex 617500.0 5464500.0 7339.2001953125
  vertex 618500.0 5463500.0 7328.89990234375
  vertex 617500.0 5463500.0 7218.39990234375
 endloop
endfacet
facet normal 0.2985527813434601 0.205062597990036 -0.9321027398109436
 outer loop
  vertex 611500.0 5465500.0 7350.2998046875
  vertex 612500.0 5464500.0 7450.60009765625
  vertex 611500.0 5464500.0 7130.2998046875
 endloop
endfacet
facet normal 0.09358560293912888 -0.006272522266954184 -0.9955915212631226
 outer loop
  vertex 611500.0 5465500.0 7350.2998046875
  vertex 612500.0 5465500.0 7444.2998046875
  vertex 612500.0 5464500.0 7450.60009765625
 endloop
endfacet
facet normal -0.1050141230225563 -0.006265332922339439 -0.9944510459899902
 outer loop
  vertex 612500.0 5465500.0 7444.2998046875
  vertex 613500.0 5464500.0 7345.0
  vertex 612500.0 5464500.0 7450.60009765625
 endloop
endfacet
facet normal -0.16416330635547638 -0.06643307954072952 -0.9841936230659485
 outer loop
  vertex 612500.0 5465500.0 7444.2998046875
  vertex 613500.0 5465500.0 7277.5
  vertex 613500.0 5464500.0 7345.0
 endloop
endfacet
facet normal -0.4083762764930725 -0.061475031077861786 -0.9107412099838257
 outer loop
  vertex 613500.0 5465500.0 7277.5
  vertex 614500.0 5464500.0 6896.60009765625
  vertex 613500.0 5464500.0 7345.0
 endloop
endfacet
facet normal 0.08443451672792435 0.42730411887168884 -0.9001566767692566
 outer loop
  vertex 613500.0 5465500.0 7277.5
  vertex 614500.0 5465500.0 7371.2998046875
  vertex 614500.0 5464500.0 6896.60009765625
 endloop
endfacet
facet normal 0.3777417838573456 0.3970634937286377 -0.8364518880844116
 outer loop
  vertex 614500.0 5465500.0 7371.2998046875
  vertex 615500.0 5464500.0 7348.2001953125
  vertex 614500.0 5464500.0 6896.60009765625
 endloop
endfacet
endsolid
