solid
facet normal 0.30574360489845276 0.06620191782712936 -0.9498095512390137
 outer loop
  vertex 823500.0 5386500.0 6505.10009765625
  vertex 824500.0 5386500.0 6827.0
  vertex 824500.0 5385500.0 6757.2998046875
 endloop
endfacet
facet normal -0.037257879972457886 -0.24919229745864868 -0.967737078666687
 outer loop
  vertex 822500.0 5387500.0 6286.10009765625
  vertex 823500.0 5387500.0 6247.60009765625
  vertex 823500.0 5386500.0 6505.10009765625
 endloop
endfacet
facet normal 0.2976059913635254 -0.2380664050579071 -0.9245297312736511
 outer loop
  vertex 823500.0 5387500.0 6247.60009765625
  vertex 824500.0 5386500.0 6827.0
  vertex 823500.0 5386500.0 6505.10009765625
 endloop
endfacet
facet normal 0.10765425860881805 -0.4156261086463928 -0.903141975402832
 outer loop
  vertex 823500.0 5387500.0 6247.60009765625
  vertex 824500.0 5387500.0 6366.7998046875
  vertex 824500.0 5386500.0 6827.0
 endloop
endfacet
facet normal -0.162594735622406 -0.41249263286590576 -0.8963330388069153
 outer loop
  vertex 824500.0 5387500.0 6366.7998046875
  vertex 825500.0 5386500.0 6645.60009765625
  vertex 824500.0 5386500.0 6827.0
 endloop
endfacet
facet normal 0.15037745237350464 -0.1231071874499321 -0.9809339046478271
 outer loop
  vertex 824500.0 5387500.0 6366.7998046875
  vertex 825500.0 5387500.0 6520.10009765625
  vertex 825500.0 5386500.0 6645.60009765625
 endloop
endfacet
facet normal -0.5060347318649292 -0.10740289092063904 -0.8557999730110168
 outer loop
  vertex 825500.0 5387500.0 6520.10009765625
  vertex 826500.0 5386500.0 6054.2998046875
  vertex 825500.0 5386500.0 6645.60009765625
 endloop
endfacet
facet normal -0.44847849011421204 -0.03242318704724312 -0.8932053446769714
 outer loop
  vertex 825500.0 5387500.0 6520.10009765625
  vertex 826500.0 5387500.0 6018.0
  vertex 826500.0 5386500.0 6054.2998046875
 endloop
endfacet
facet normal -0.1860056221485138 -0.3974412679672241 -0.8985779285430908
 outer loop
  vertex 821500.0 5388500.0 6050.7998046875
  vertex 822500.0 5387500.0 6286.10009765625
  vertex 821500.0 5387500.0 6493.10009765625
 endloop
endfacet
facet normal -0.07246724516153336 -0.29653623700141907 -0.9522682428359985
 outer loop
  vertex 821500.0 5388500.0 6050.7998046875
  vertex 822500.0 5388500.0 5974.7001953125
  vertex 822500.0 5387500.0 6286.10009765625
 endloop
endfacet
facet normal -0.036734163761138916 -0.2971172630786896 -0.9541341066360474
 outer loop
  vertex 822500.0 5388500.0 5974.7001953125
  vertex 823500.0 5387500.0 6247.60009765625
  vertex 822500.0 5387500.0 6286.10009765625
 endloop
endfacet
facet normal 0.2076859176158905 -0.058781154453754425 -0.9764278531074524
 outer loop
  vertex 822500.0 5388500.0 5974.7001953125
  vertex 823500.0 5388500.0 6187.39990234375
  vertex 823500.0 5387500.0 6247.60009765625
 endloop
endfacet
facet normal 0.11815089732408524 -0.05967050790786743 -0.9912012219429016
 outer loop
  vertex 823500.0 5388500.0 6187.39990234375
  vertex 824500.0 5387500.0 6366.7998046875
  vertex 823500.0 5387500.0 6247.60009765625
 endloop
endfacet
facet normal -0.16026337444782257 -0.3273245096206665 -0.9312219023704529
 outer loop
  vertex 823500.0 5388500.0 6187.39990234375
  vertex 824500.0 5388500.0 6015.2998046875
  vertex 824500.0 5387500.0 6366.7998046875
 endloop
endfacet
facet normal 0.14313675463199615 -0.3281961977481842 -0.9337018132209778
 outer loop
  vertex 824500.0 5388500.0 6015.2998046875
  vertex 825500.0 5387500.0 6520.10009765625
  vertex 824500.0 5387500.0 6366.7998046875
 endloop
endfacet
facet normal -0.13109777867794037 -0.548100471496582 -0.8260745406150818
 outer loop
  vertex 824500.0 5388500.0 6015.2998046875
  vertex 825500.0 5388500.0 5856.60009765625
  vertex 825500.0 5387500.0 6520.10009765625
 endloop
endfacet
facet normal -0.38596412539482117 -0.5100321769714355 -0.7686995267868042
 outer loop
  vertex 825500.0 5388500.0 5856.60009765625
  vertex 826500.0 5387500.0 6018.0
  vertex 825500.0 5387500.0 6520.10009765625
 endloop
endfacet
facet normal 0.0426628552377224 -0.1174715906381607 -0.9921594858169556
 outer loop
  vertex 825500.0 5388500.0 5856.60009765625
  vertex 826500.0 5388500.0 5899.60009765625
  vertex 826500.0 5387500.0 6018.0
 endloop
endfacet
facet normal 0.10063304007053375 -0.25701257586479187 -0.9611542820930481
 outer loop
  vertex 827500.0 5388500.0 5929.89990234375
  vertex 828500.0 5388500.0 6034.60009765625
  vertex 828500.0 5387500.0 6302.0
 endloop
endfacet
facet normal 0.30724090337753296 -0.2458292543888092 -0.9193318486213684
 outer loop
  vertex 828500.0 5388500.0 6034.60009765625
  vertex 829500.0 5387500.0 6636.2001953125
  vertex 828500.0 5387500.0 6302.0
 endloop
endfacet
facet normal 0.1089724451303482 -0.43015408515930176 -0.8961542844772339
 outer loop
  vertex 828500.0 5388500.0 6034.60009765625
  vertex 829500.0 5388500.0 6156.2001953125
  vertex 829500.0 5387500.0 6636.2001953125
 endloop
endfacet
facet normal 0.01649337448179722 0.4796289801597595 -0.8773162961006165
 outer loop
  vertex 820500.0 5389500.0 6578.7001953125
  vertex 821500.0 5389500.0 6597.5
  vertex 821500.0 5388500.0 6050.7998046875
 endloop
endfacet
facet normal -0.06662417203187943 0.4786284565925598 -0.8754861950874329
 outer loop
  vertex 821500.0 5389500.0 6597.5
  vertex 822500.0 5388500.0 5974.7001953125
  vertex 821500.0 5388500.0 6050.7998046875
 endloop
endfacet
facet normal -0.1960020363330841 0.36966124176979065 -0.9082586169242859
 outer loop
  vertex 821500.0 5389500.0 6597.5
  vertex 822500.0 5389500.0 6381.7001953125
  vertex 822500.0 5388500.0 5974.7001953125
 endloop
endfacet
facet normal 0.1932922899723053 0.36986398696899414 -0.9087567329406738
 outer loop
  vertex 822500.0 5389500.0 6381.7001953125
  vertex 823500.0 5388500.0 6187.39990234375
  vertex 822500.0 5388500.0 5974.7001953125
 endloop
endfacet
facet normal -0.4508853554725647 -0.28664258122444153 -0.8453038334846497
 outer loop
  vertex 822500.0 5389500.0 6381.7001953125
  vertex 823500.0 5389500.0 5848.2998046875
  vertex 823500.0 5388500.0 6187.39990234375
 endloop
endfacet
facet normal -0.1608617752790451 -0.316956490278244 -0.9346988797187805
 outer loop
  vertex 823500.0 5389500.0 5848.2998046875
  vertex 824500.0 5388500.0 6015.2998046875
  vertex 823500.0 5388500.0 6187.39990234375
 endloop
endfacet
facet normal -0.23102213442325592 -0.3805597126483917 -0.8954346179962158
 outer loop
  vertex 823500.0 5389500.0 5848.2998046875
  vertex 824500.0 5389500.0 5590.2998046875
  vertex 824500.0 5388500.0 6015.2998046875
 endloop
endfacet
facet normal -0.14452287554740906 -0.38703420758247375 -0.9106687307357788
 outer loop
  vertex 824500.0 5389500.0 5590.2998046875
  vertex 825500.0 5388500.0 5856.60009765625
  vertex 824500.0 5388500.0 6015.2998046875
 endloop
endfacet
facet normal 0.45417553186416626 0.22458745539188385 -0.8621398210525513
 outer loop
  vertex 824500.0 5389500.0 5590.2998046875
  vertex 825500.0 5389500.0 6117.10009765625
  vertex 825500.0 5388500.0 5856.60009765625
 endloop
endfacet
facet normal 0.041575316339731216 0.2518690824508667 -0.9668678641319275
 outer loop
  vertex 825500.0 5389500.0 6117.10009765625
  vertex 826500.0 5388500.0 5899.60009765625
  vertex 825500.0 5388500.0 5856.60009765625
 endloop
endfacet
facet normal -0.28892964124679565 -0.0814611166715622 -0.9538782835006714
 outer loop
  vertex 825500.0 5389500.0 6117.10009765625
  vertex 826500.0 5389500.0 5814.2001953125
  vertex 826500.0 5388500.0 5899.60009765625
 endloop
endfacet
facet normal 0.030176158994436264 -0.08505143225193024 -0.9959195256233215
 outer loop
  vertex 826500.0 5389500.0 5814.2001953125
  vertex 827500.0 5388500.0 5929.89990234375
  vertex 826500.0 5388500.0 5899.60009765625
 endloop
endfacet
facet normal -0.18307162821292877 -0.2916938364505768 -0.9388288259506226
 outer loop
  vertex 826500.0 5389500.0 5814.2001953125
  vertex 827500.0 5389500.0 5619.2001953125
  vertex 827500.0 5388500.0 5929.89990234375
 endloop
endfacet
facet normal 0.09948928654193878 -0.2952362895011902 -0.9502302408218384
 outer loop
  vertex 827500.0 5389500.0 5619.2001953125
  vertex 828500.0 5388500.0 6034.60009765625
  vertex 827500.0 5388500.0 5929.89990234375
 endloop
endfacet
facet normal -0.05542529746890068 -0.4297938048839569 -0.9012243747711182
 outer loop
  vertex 827500.0 5389500.0 5619.2001953125
  vertex 828500.0 5389500.0 5557.7001953125
  vertex 828500.0 5388500.0 6034.60009765625
 endloop
endfacet
facet normal 0.10910248756408691 -0.42788589000701904 -0.897223711013794
 outer loop
  vertex 828500.0 5389500.0 5557.7001953125
  vertex 829500.0 5388500.0 6156.2001953125
  vertex 828500.0 5388500.0 6034.60009765625
 endloop
endfacet
facet normal -0.000514783663675189 -0.5139279365539551 -0.8578331470489502
 outer loop
  vertex 828500.0 5389500.0 5557.7001953125
  vertex 829500.0 5389500.0 5557.10009765625
  vertex 829500.0 5388500.0 6156.2001953125
 endloop
endfacet
facet normal 0.36450013518333435 -0.4785715341567993 -0.7988172769546509
 outer loop
  vertex 829500.0 5389500.0 5557.10009765625
  vertex 830500.0 5388500.0 6612.5
  vertex 829500.0 5388500.0 6156.2001953125
 endloop
endfacet
facet normal 0.14237096905708313 -0.6476318836212158 -0.7485341429710388
 outer loop
  vertex 829500.0 5389500.0 5557.10009765625
  vertex 830500.0 5389500.0 5747.2998046875
  vertex 830500.0 5388500.0 6612.5
 endloop
endfacet
facet normal -0.24930329620838165 -0.17616938054561615 -0.9522669315338135
 outer loop
  vertex 819500.0 5390500.0 6655.5
  vertex 820500.0 5389500.0 6578.7001953125
  vertex 819500.0 5389500.0 6840.5
 endloop
endfacet
facet normal -0.20025809109210968 -0.12563520669937134 -0.9716545343399048
 outer loop
  vertex 819500.0 5390500.0 6655.5
  vertex 820500.0 5390500.0 6449.39990234375
  vertex 820500.0 5389500.0 6578.7001953125
 endloop
endfacet
facet normal 0.01864134706556797 -0.12821052968502045 -0.9915717840194702
 outer loop
  vertex 820500.0 5390500.0 6449.39990234375
  vertex 821500.0 5389500.0 6597.5
  vertex 820500.0 5389500.0 6578.7001953125
 endloop
endfacet
facet normal -0.21778452396392822 -0.352569043636322 -0.9100906848907471
 outer loop
  vertex 820500.0 5390500.0 6449.39990234375
  vertex 821500.0 5390500.0 6210.10009765625
  vertex 821500.0 5389500.0 6597.5
 endloop
endfacet
facet normal -0.19727306067943573 -0.3541410267353058 -0.9141484498977661
 outer loop
  vertex 821500.0 5390500.0 6210.10009765625
  vertex 822500.0 5389500.0 6381.7001953125
  vertex 821500.0 5389500.0 6597.5
 endloop
endfacet
facet normal -0.26430845260620117 -0.41379880905151367 -0.8711553812026978
 outer loop
  vertex 821500.0 5390500.0 6210.10009765625
  vertex 822500.0 5390500.0 5906.7001953125
  vertex 822500.0 5389500.0 6381.7001953125
 endloop
endfacet
facet normal -0.43405482172966003 -0.3865315020084381 -0.8137505054473877
 outer loop
  vertex 822500.0 5390500.0 5906.7001953125
  vertex 823500.0 5389500.0 5848.2998046875
  vertex 822500.0 5389500.0 6381.7001953125
 endloop
endfacet
facet normal -0.24562034010887146 -0.19010832905769348 -0.9505416750907898
 outer loop
  vertex 822500.0 5390500.0 5906.7001953125
  vertex 823500.0 5390500.0 5648.2998046875
  vertex 823500.0 5389500.0 5848.2998046875
 endloop
endfacet
facet normal -0.24526268243789673 -0.19012610614299774 -0.9506305456161499
 outer loop
  vertex 823500.0 5390500.0 5648.2998046875
  vertex 824500.0 5389500.0 5590.2998046875
  vertex 823500.0 5389500.0 5848.2998046875
 endloop
endfacet
facet normal 0.4312836229801178 0.4757458567619324 -0.7665899991989136
 outer loop
  vertex 823500.0 5390500.0 5648.2998046875
  vertex 824500.0 5390500.0 6210.89990234375
  vertex 824500.0 5389500.0 5590.2998046875
 endloop
endfacet
facet normal 0.4085487723350525 0.4812932312488556 -0.7755287289619446
 outer loop
  vertex 824500.0 5390500.0 6210.89990234375
  vertex 825500.0 5389500.0 6117.10009765625
  vertex 824500.0 5389500.0 5590.2998046875
 endloop
endfacet
facet normal 0.33985647559165955 0.41884177923202515 -0.8420624732971191
 outer loop
  vertex 824500.0 5390500.0 6210.89990234375
  vertex 825500.0 5390500.0 6614.5
  vertex 825500.0 5389500.0 6117.10009765625
 endloop
endfacet
facet normal -0.26174822449684143 0.429823637008667 -0.8641409277915955
 outer loop
  vertex 825500.0 5390500.0 6614.5
  vertex 826500.0 5389500.0 5814.2001953125
  vertex 825500.0 5389500.0 6117.10009765625
 endloop
endfacet
facet normal 0.09744817763566971 0.6794463396072388 -0.7272251844406128
 outer loop
  vertex 825500.0 5390500.0 6614.5
  vertex 826500.0 5390500.0 6748.5
  vertex 826500.0 5389500.0 5814.2001953125
 endloop
endfacet
facet normal -0.14106224477291107 0.6758691072463989 -0.723396360874176
 outer loop
  vertex 826500.0 5390500.0 6748.5
  vertex 827500.0 5389500.0 5619.2001953125
  vertex 826500.0 5389500.0 5814.2001953125
 endloop
endfacet
facet normal -0.01170207280665636 0.7434492707252502 -0.6686899065971375
 outer loop
  vertex 826500.0 5390500.0 6748.5
  vertex 827500.0 5390500.0 6731.0
  vertex 827500.0 5389500.0 5619.2001953125
 endloop
endfacet
facet normal -0.04109250754117966 0.7428721785545349 -0.6681708097457886
 outer loop
  vertex 827500.0 5390500.0 6731.0
  vertex 828500.0 5389500.0 5557.7001953125
  vertex 827500.0 5389500.0 5619.2001953125
 endloop
endfacet
facet normal -0.534399151802063 0.36184197664260864 -0.763863742351532
 outer loop
  vertex 827500.0 5390500.0 6731.0
  vertex 828500.0 5390500.0 6031.39990234375
  vertex 828500.0 5389500.0 5557.7001953125
 endloop
endfacet
facet normal -0.0005423240945674479 0.4280977249145508 -0.9037322998046875
 outer loop
  vertex 828500.0 5390500.0 6031.39990234375
  vertex 829500.0 5389500.0 5557.10009765625
  vertex 828500.0 5389500.0 5557.7001953125
 endloop
endfacet
facet normal -0.07991195470094681 0.36081159114837646 -0.9292088150978088
 outer loop
  vertex 828500.0 5390500.0 6031.39990234375
  vertex 829500.0 5390500.0 5945.39990234375
  vertex 829500.0 5389500.0 5557.10009765625
 endloop
endfacet
facet normal 0.17457948625087738 0.35641050338745117 -0.9178745746612549
 outer loop
  vertex 829500.0 5390500.0 5945.39990234375
  vertex 830500.0 5389500.0 5747.2998046875
  vertex 829500.0 5389500.0 5557.10009765625
 endloop
endfacet
facet normal 0.2606905996799469 0.43175002932548523 -0.8635000586509705
 outer loop
  vertex 829500.0 5390500.0 5945.39990234375
  vertex 830500.0 5390500.0 6247.2998046875
  vertex 830500.0 5389500.0 5747.2998046875
 endloop
endfacet
facet normal -0.0636432096362114 0.446306973695755 -0.89261394739151
 outer loop
  vertex 830500.0 5390500.0 6247.2998046875
  vertex 831500.0 5389500.0 5676.0
  vertex 830500.0 5389500.0 5747.2998046875
 endloop
endfacet
facet normal -0.5667662024497986 -0.09953182190656662 -0.8178444504737854
 outer loop
  vertex 830500.0 5390500.0 6247.2998046875
  vertex 831500.0 5390500.0 5554.2998046875
  vertex 831500.0 5389500.0 5676.0
 endloop
endfacet
facet normal -0.42905572056770325 -0.6150727272033691 -0.6615108847618103
 outer loop
  vertex 818500.0 5391500.0 6374.2998046875
  vertex 819500.0 5391500.0 5725.7001953125
  vertex 819500.0 5390500.0 6655.5
 endloop
endfacet
facet normal -0.14924587309360504 -0.6733076572418213 -0.7241426110267639
 outer loop
  vertex 819500.0 5391500.0 5725.7001953125
  vertex 820500.0 5390500.0 6449.39990234375
  vertex 819500.0 5390500.0 6655.5
 endloop
endfacet
facet normal -0.05059144273400307 -0.6182350516319275 -0.7843635082244873
 outer loop
  vertex 819500.0 5391500.0 5725.7001953125
  vertex 820500.0 5391500.0 5661.2001953125
  vertex 820500.0 5390500.0 6449.39990234375
 endloop
endfacet
facet normal -0.18470501899719238 -0.6083767414093018 -0.7718561291694641
 outer loop
  vertex 820500.0 5391500.0 5661.2001953125
  vertex 821500.0 5390500.0 6210.10009765625
  vertex 820500.0 5390500.0 6449.39990234375
 endloop
endfacet
facet normal -0.011246315203607082 -0.48976677656173706 -0.8717809915542603
 outer loop
  vertex 820500.0 5391500.0 5661.2001953125
  vertex 821500.0 5391500.0 5648.2998046875
  vertex 821500.0 5390500.0 6210.10009765625
 endloop
endfacet
facet normal -0.2557201087474823 -0.4735124409198761 -0.8428483009338379
 outer loop
  vertex 821500.0 5391500.0 5648.2998046875
  vertex 822500.0 5390500.0 5906.7001953125
  vertex 821500.0 5390500.0 6210.10009765625
 endloop
endfacet
facet normal 0.2762874960899353 0.02805114910006523 -0.9606655240058899
 outer loop
  vertex 821500.0 5391500.0 5648.2998046875
  vertex 822500.0 5391500.0 5935.89990234375
  vertex 822500.0 5390500.0 5906.7001953125
 endloop
endfacet
facet normal -0.25008296966552734 0.028259824961423874 -0.9678118824958801
 outer loop
  vertex 822500.0 5391500.0 5935.89990234375
  vertex 823500.0 5390500.0 5648.2998046875
  vertex 822500.0 5390500.0 5906.7001953125
 endloop
endfacet
facet normal 0.31867003440856934 0.5422601103782654 -0.7774338126182556
 outer loop
  vertex 822500.0 5391500.0 5935.89990234375
  vertex 823500.0 5391500.0 6345.7998046875
  vertex 823500.0 5390500.0 5648.2998046875
 endloop
endfacet
facet normal 0.41898542642593384 0.5194494724273682 -0.7447304129600525
 outer loop
  vertex 823500.0 5391500.0 6345.7998046875
  vertex 824500.0 5390500.0 6210.89990234375
  vertex 823500.0 5390500.0 5648.2998046875
 endloop
endfacet
facet normal 0.26656991243362427 0.38572239875793457 -0.8832659125328064
 outer loop
  vertex 823500.0 5391500.0 6345.7998046875
  vertex 824500.0 5391500.0 6647.60009765625
  vertex 824500.0 5390500.0 6210.89990234375
 endloop
endfacet
facet normal 0.34690138697624207 0.37535151839256287 -0.8595176339149475
 outer loop
  vertex 824500.0 5391500.0 6647.60009765625
  vertex 825500.0 5390500.0 6614.5
  vertex 824500.0 5390500.0 6210.89990234375
 endloop
endfacet
facet normal 0.19364596903324127 0.22525201737880707 -0.9548627138137817
 outer loop
  vertex 824500.0 5391500.0 6647.60009765625
  vertex 825500.0 5391500.0 6850.39990234375
  vertex 825500.0 5390500.0 6614.5
 endloop
endfacet
facet normal 0.1293250322341919 0.2276698648929596 -0.9651121497154236
 outer loop
  vertex 825500.0 5391500.0 6850.39990234375
  vertex 826500.0 5390500.0 6748.5
  vertex 825500.0 5390500.0 6614.5
 endloop
endfacet
facet normal -0.02062741108238697 0.08091660588979721 -0.9965074062347412
 outer loop
  vertex 825500.0 5391500.0 6850.39990234375
  vertex 826500.0 5391500.0 6829.7001953125
  vertex 826500.0 5390500.0 6748.5
 endloop
endfacet
facet normal -0.017439937219023705 0.08092150837182999 -0.9965679049491882
 outer loop
  vertex 826500.0 5391500.0 6829.7001953125
  vertex 827500.0 5390500.0 6731.0
  vertex 826500.0 5390500.0 6748.5
 endloop
endfacet
facet normal -0.5934966802597046 -0.5340686440467834 -0.6021066904067993
 outer loop
  vertex 826500.0 5391500.0 6829.7001953125
  vertex 827500.0 5391500.0 5844.0
  vertex 827500.0 5390500.0 6731.0
 endloop
endfacet
facet normal -0.4637071490287781 -0.5879190564155579 -0.6628174185752869
 outer loop
  vertex 827500.0 5391500.0 5844.0
  vertex 828500.0 5390500.0 6031.39990234375
  vertex 827500.0 5390500.0 6731.0
 endloop
endfacet
facet normal -0.16642683744430542 -0.33988848328590393 -0.9256229400634766
 outer loop
  vertex 827500.0 5391500.0 5844.0
  vertex 828500.0 5391500.0 5664.2001953125
  vertex 828500.0 5390500.0 6031.39990234375
 endloop
endfacet
facet normal -0.08046765625476837 -0.34357792139053345 -0.9356704354286194
 outer loop
  vertex 828500.0 5391500.0 5664.2001953125
  vertex 829500.0 5390500.0 5945.39990234375
  vertex 828500.0 5390500.0 6031.39990234375
 endloop
endfacet
facet normal 0.635806143283844 0.46192115545272827 -0.6183683276176453
 outer loop
  vertex 828500.0 5391500.0 5664.2001953125
  vertex 829500.0 5391500.0 6692.39990234375
  vertex 829500.0 5390500.0 5945.39990234375
 endloop
endfacet
facet normal 0.23508913815021515 0.5816881060600281 -0.7786989212036133
 outer loop
  vertex 829500.0 5391500.0 6692.39990234375
  vertex 830500.0 5390500.0 6247.2998046875
  vertex 829500.0 5390500.0 5945.39990234375
 endloop
endfacet
facet normal -0.45912808179855347 -0.06476670503616333 -0.8860059976577759
 outer loop
  vertex 829500.0 5391500.0 6692.39990234375
  vertex 830500.0 5391500.0 6174.2001953125
  vertex 830500.0 5390500.0 6247.2998046875
 endloop
endfacet
facet normal -0.5685692429542542 -0.0599743016064167 -0.820446252822876
 outer loop
  vertex 830500.0 5391500.0 6174.2001953125
  vertex 831500.0 5390500.0 5554.2998046875
  vertex 830500.0 5390500.0 6247.2998046875
 endloop
endfacet
facet normal -0.12049369513988495 0.43320441246032715 -0.893204927444458
 outer loop
  vertex 830500.0 5391500.0 6174.2001953125
  vertex 831500.0 5391500.0 6039.2998046875
  vertex 831500.0 5390500.0 5554.2998046875
 endloop
endfacet
facet normal -0.011616936884820461 0.4346767067909241 -0.9005115628242493
 outer loop
  vertex 820500.0 5392500.0 6143.89990234375
  vertex 821500.0 5391500.0 5648.2998046875
  vertex 820500.0 5391500.0 5661.2001953125
 endloop
endfacet
facet normal 0.09688162058591843 0.5180618166923523 -0.8498387932777405
 outer loop
  vertex 820500.0 5392500.0 6143.89990234375
  vertex 821500.0 5392500.0 6257.89990234375
  vertex 821500.0 5391500.0 5648.2998046875
 endloop
endfacet
facet normal 0.23848339915275574 0.5054917931556702 -0.8292186856269836
 outer loop
  vertex 821500.0 5392500.0 6257.89990234375
  vertex 822500.0 5391500.0 5935.89990234375
  vertex 821500.0 5391500.0 5648.2998046875
 endloop
endfacet
facet normal 0.10669419169425964 0.399829626083374 -0.9103584885597229
 outer loop
  vertex 821500.0 5392500.0 6257.89990234375
  vertex 822500.0 5392500.0 6375.10009765625
  vertex 822500.0 5391500.0 5935.89990234375
 endloop
endfacet
facet normal 0.35136812925338745 0.3764844536781311 -0.8572046756744385
 outer loop
  vertex 822500.0 5392500.0 6375.10009765625
  vertex 823500.0 5391500.0 6345.7998046875
  vertex 822500.0 5391500.0 5935.89990234375
 endloop
endfacet
facet normal 0.4404875338077545 0.4630236327648163 -0.7691422700881958
 outer loop
  vertex 822500.0 5392500.0 6375.10009765625
  vertex 823500.0 5392500.0 6947.7998046875
  vertex 823500.0 5391500.0 6345.7998046875
 endloop
endfacet
facet normal 0.2503306567668915 0.4993336796760559 -0.8294579386711121
 outer loop
  vertex 823500.0 5392500.0 6947.7998046875
  vertex 824500.0 5391500.0 6647.60009765625
  vertex 823500.0 5391500.0 6345.7998046875
 endloop
endfacet
facet normal -0.020679960027337074 -0.03846327215433121 -0.9990460276603699
 outer loop
  vertex 825500.0 5392500.0 6811.89990234375
  vertex 826500.0 5391500.0 6829.7001953125
  vertex 825500.0 5391500.0 6850.39990234375
 endloop
endfacet
facet normal -0.19514745473861694 -0.21219202876091003 -0.9575448036193848
 outer loop
  vertex 825500.0 5392500.0 6811.89990234375
  vertex 826500.0 5392500.0 6608.10009765625
  vertex 826500.0 5391500.0 6829.7001953125
 endloop
endfacet
facet normal -0.6934141516685486 -0.1558898240327835 -0.7034736275672913
 outer loop
  vertex 826500.0 5392500.0 6608.10009765625
  vertex 827500.0 5391500.0 5844.0
  vertex 826500.0 5391500.0 6829.7001953125
 endloop
endfacet
facet normal -0.12686856091022491 0.3153364658355713 -0.9404611587524414
 outer loop
  vertex 830500.0 5392500.0 6509.5
  vertex 831500.0 5391500.0 6039.2998046875
  vertex 830500.0 5391500.0 6174.2001953125
 endloop
endfacet
facet normal -0.3418121635913849 0.0976739227771759 -0.9346786737442017
 outer loop
  vertex 830500.0 5392500.0 6509.5
  vertex 831500.0 5392500.0 6143.7998046875
  vertex 831500.0 5391500.0 6039.2998046875
 endloop
endfacet
endsolid
