solid
facet normal 0.1139126569032669 0.08689425140619278 -0.9896833896636963
 outer loop
  vertex 432500.0 5787500.0 3422.199951171875
  vertex 433500.0 5787500.0 3537.300048828125
  vertex 433500.0 5786500.0 3449.5
 endloop
endfacet
facet normal -0.23531994223594666 -0.34880706667900085 -0.9071704745292664
 outer loop
  vertex 437500.0 5787500.0 3778.0
  vertex 438500.0 5787500.0 3518.60009765625
  vertex 438500.0 5786500.0 3903.10009765625
 endloop
endfacet
facet normal -0.005591250024735928 -0.05591152235865593 -0.9984200596809387
 outer loop
  vertex 429500.0 5788500.0 3328.0
  vertex 430500.0 5788500.0 3322.39990234375
  vertex 430500.0 5787500.0 3378.39990234375
 endloop
endfacet
facet normal 0.029939644038677216 -0.055887334048748016 -0.9979881048202515
 outer loop
  vertex 430500.0 5788500.0 3322.39990234375
  vertex 431500.0 5787500.0 3408.39990234375
  vertex 430500.0 5787500.0 3378.39990234375
 endloop
endfacet
facet normal 0.054591886699199677 -0.031237831339240074 -0.9980199933052063
 outer loop
  vertex 430500.0 5788500.0 3322.39990234375
  vertex 431500.0 5788500.0 3377.10009765625
  vertex 431500.0 5787500.0 3408.39990234375
 endloop
endfacet
facet normal 0.013791980221867561 -0.03128150850534439 -0.9994154572486877
 outer loop
  vertex 431500.0 5788500.0 3377.10009765625
  vertex 432500.0 5787500.0 3422.199951171875
  vertex 431500.0 5787500.0 3408.39990234375
 endloop
endfacet
facet normal 0.14745379984378815 0.10308990627527237 -0.9836817383766174
 outer loop
  vertex 431500.0 5788500.0 3377.10009765625
  vertex 432500.0 5788500.0 3527.0
  vertex 432500.0 5787500.0 3422.199951171875
 endloop
endfacet
facet normal 0.11373043805360794 0.10355295985937119 -0.9881002902984619
 outer loop
  vertex 432500.0 5788500.0 3527.0
  vertex 433500.0 5787500.0 3537.300048828125
  vertex 432500.0 5787500.0 3422.199951171875
 endloop
endfacet
facet normal 0.028683288022875786 0.018389219418168068 -0.9994193911552429
 outer loop
  vertex 432500.0 5788500.0 3527.0
  vertex 433500.0 5788500.0 3555.699951171875
  vertex 433500.0 5787500.0 3537.300048828125
 endloop
endfacet
facet normal 0.25032418966293335 0.01781107299029827 -0.967998206615448
 outer loop
  vertex 433500.0 5788500.0 3555.699951171875
  vertex 434500.0 5787500.0 3795.89990234375
  vertex 433500.0 5787500.0 3537.300048828125
 endloop
endfacet
facet normal 0.2663373649120331 0.03496585413813591 -0.9632454514503479
 outer loop
  vertex 433500.0 5788500.0 3555.699951171875
  vertex 434500.0 5788500.0 3832.199951171875
  vertex 434500.0 5787500.0 3795.89990234375
 endloop
endfacet
facet normal 0.2229897379875183 0.03536274656653404 -0.9741791486740112
 outer loop
  vertex 434500.0 5788500.0 3832.199951171875
  vertex 435500.0 5787500.0 4024.800048828125
  vertex 434500.0 5787500.0 3795.89990234375
 endloop
endfacet
facet normal -0.2880937159061432 -0.45081186294555664 -0.8448495864868164
 outer loop
  vertex 434500.0 5788500.0 3832.199951171875
  vertex 435500.0 5788500.0 3491.199951171875
  vertex 435500.0 5787500.0 4024.800048828125
 endloop
endfacet
facet normal 0.129474475979805 -0.46680888533592224 -0.8748290538787842
 outer loop
  vertex 435500.0 5788500.0 3491.199951171875
  vertex 436500.0 5787500.0 4172.7998046875
  vertex 435500.0 5787500.0 4024.800048828125
 endloop
endfacet
facet normal 0.10595596581697464 -0.48552244901657104 -0.867779552936554
 outer loop
  vertex 435500.0 5788500.0 3491.199951171875
  vertex 436500.0 5788500.0 3613.300048828125
  vertex 436500.0 5787500.0 4172.7998046875
 endloop
endfacet
facet normal -0.3257465660572052 -0.46163931488990784 -0.8250929713249207
 outer loop
  vertex 436500.0 5788500.0 3613.300048828125
  vertex 437500.0 5787500.0 3778.0
  vertex 436500.0 5787500.0 4172.7998046875
 endloop
endfacet
facet normal -0.151497021317482 -0.3062833845615387 -0.9398081302642822
 outer loop
  vertex 436500.0 5788500.0 3613.300048828125
  vertex 437500.0 5788500.0 3452.10009765625
  vertex 437500.0 5787500.0 3778.0
 endloop
endfacet
facet normal -0.23945750296115875 -0.30084505677223206 -0.9231209754943848
 outer loop
  vertex 437500.0 5788500.0 3452.10009765625
  vertex 438500.0 5787500.0 3518.60009765625
  vertex 437500.0 5787500.0 3778.0
 endloop
endfacet
facet normal 0.09315861016511917 0.026972100138664246 -0.9952858686447144
 outer loop
  vertex 437500.0 5788500.0 3452.10009765625
  vertex 438500.0 5788500.0 3545.699951171875
  vertex 438500.0 5787500.0 3518.60009765625
 endloop
endfacet
facet normal -0.0417482852935791 0.027066290378570557 -0.9987614750862122
 outer loop
  vertex 438500.0 5788500.0 3545.699951171875
  vertex 439500.0 5787500.0 3476.800048828125
  vertex 438500.0 5787500.0 3518.60009765625
 endloop
endfacet
facet normal 0.12020587921142578 0.18737676739692688 -0.9749053716659546
 outer loop
  vertex 438500.0 5788500.0 3545.699951171875
  vertex 439500.0 5788500.0 3669.0
  vertex 439500.0 5787500.0 3476.800048828125
 endloop
endfacet
facet normal 0.0085971150547266 -0.024891266599297523 -0.999653160572052
 outer loop
  vertex 428500.0 5789500.0 3294.5
  vertex 429500.0 5789500.0 3303.10009765625
  vertex 429500.0 5788500.0 3328.0
 endloop
endfacet
facet normal -0.005598274525254965 -0.024891797453165054 -0.9996744990348816
 outer loop
  vertex 429500.0 5789500.0 3303.10009765625
  vertex 430500.0 5788500.0 3322.39990234375
  vertex 429500.0 5788500.0 3328.0
 endloop
endfacet
facet normal 0.021294932812452316 0.0019995425827801228 -0.999771237373352
 outer loop
  vertex 429500.0 5789500.0 3303.10009765625
  vertex 430500.0 5789500.0 3324.39990234375
  vertex 430500.0 5788500.0 3322.39990234375
 endloop
endfacet
facet normal 0.054618433117866516 0.001997010549530387 -0.9985052943229675
 outer loop
  vertex 430500.0 5789500.0 3324.39990234375
  vertex 431500.0 5788500.0 3377.10009765625
  vertex 430500.0 5788500.0 3322.39990234375
 endloop
endfacet
facet normal 0.21142837405204773 0.1606198102235794 -0.9641054272651672
 outer loop
  vertex 430500.0 5789500.0 3324.39990234375
  vertex 431500.0 5789500.0 3543.699951171875
  vertex 431500.0 5788500.0 3377.10009765625
 endloop
endfacet
facet normal 0.14627163112163544 0.1625673621892929 -0.975795328617096
 outer loop
  vertex 431500.0 5789500.0 3543.699951171875
  vertex 432500.0 5788500.0 3527.0
  vertex 431500.0 5788500.0 3377.10009765625
 endloop
endfacet
facet normal -0.194902703166008 -0.17879746854305267 -0.9643880724906921
 outer loop
  vertex 431500.0 5789500.0 3543.699951171875
  vertex 432500.0 5789500.0 3341.60009765625
  vertex 432500.0 5788500.0 3527.0
 endloop
endfacet
facet normal 0.02820783294737339 -0.18222083151340485 -0.9828528761863708
 outer loop
  vertex 432500.0 5789500.0 3341.60009765625
  vertex 433500.0 5788500.0 3555.699951171875
  vertex 432500.0 5788500.0 3527.0
 endloop
endfacet
facet normal 0.04977567866444588 -0.16125334799289703 -0.9856570363044739
 outer loop
  vertex 432500.0 5789500.0 3341.60009765625
  vertex 433500.0 5789500.0 3392.10009765625
  vertex 433500.0 5788500.0 3555.699951171875
 endloop
endfacet
facet normal 0.2632477283477783 -0.15575873851776123 -0.9520713090896606
 outer loop
  vertex 433500.0 5789500.0 3392.10009765625
  vertex 434500.0 5788500.0 3832.199951171875
  vertex 433500.0 5788500.0 3555.699951171875
 endloop
endfacet
facet normal 0.1587592363357544 -0.260376513004303 -0.9523652195930481
 outer loop
  vertex 433500.0 5789500.0 3392.10009765625
  vertex 434500.0 5789500.0 3558.800048828125
  vertex 434500.0 5788500.0 3832.199951171875
 endloop
endfacet
facet normal -0.31245920062065125 -0.2505170404911041 -0.9163026213645935
 outer loop
  vertex 434500.0 5789500.0 3558.800048828125
  vertex 435500.0 5788500.0 3491.199951171875
  vertex 434500.0 5788500.0 3832.199951171875
 endloop
endfacet
facet normal -0.16308705508708954 -0.09671321511268616 -0.9818601012229919
 outer loop
  vertex 434500.0 5789500.0 3558.800048828125
  vertex 435500.0 5789500.0 3392.699951171875
  vertex 435500.0 5788500.0 3491.199951171875
 endloop
endfacet
facet normal 0.12062478810548782 -0.09730984270572662 -0.9879172444343567
 outer loop
  vertex 435500.0 5789500.0 3392.699951171875
  vertex 436500.0 5788500.0 3613.300048828125
  vertex 435500.0 5788500.0 3491.199951171875
 endloop
endfacet
facet normal -0.027644338086247444 -0.24162131547927856 -0.9699767827987671
 outer loop
  vertex 435500.0 5789500.0 3392.699951171875
  vertex 436500.0 5789500.0 3364.199951171875
  vertex 436500.0 5788500.0 3613.300048828125
 endloop
endfacet
facet normal -0.1545408070087433 -0.23880983889102936 -0.9586902856826782
 outer loop
  vertex 436500.0 5789500.0 3364.199951171875
  vertex 437500.0 5788500.0 3452.10009765625
  vertex 436500.0 5788500.0 3613.300048828125
 endloop
endfacet
facet normal -0.01819470338523388 -0.10558884590864182 -0.9942433834075928
 outer loop
  vertex 436500.0 5789500.0 3364.199951171875
  vertex 437500.0 5789500.0 3345.89990234375
  vertex 437500.0 5788500.0 3452.10009765625
 endloop
endfacet
facet normal 0.09267587214708328 -0.10515183210372925 -0.9901283979415894
 outer loop
  vertex 437500.0 5789500.0 3345.89990234375
  vertex 438500.0 5788500.0 3545.699951171875
  vertex 437500.0 5788500.0 3452.10009765625
 endloop
endfacet
facet normal 0.011399224400520325 -0.18494099378585815 -0.982683539390564
 outer loop
  vertex 437500.0 5789500.0 3345.89990234375
  vertex 438500.0 5789500.0 3357.5
  vertex 438500.0 5788500.0 3545.699951171875
 endloop
endfacet
facet normal 0.12029289454221725 -0.1836099624633789 -0.97561115026474
 outer loop
  vertex 438500.0 5789500.0 3357.5
  vertex 439500.0 5788500.0 3669.0
  vertex 438500.0 5788500.0 3545.699951171875
 endloop
endfacet
facet normal 0.004971884191036224 -0.29286593198776245 -0.9561405777931213
 outer loop
  vertex 438500.0 5789500.0 3357.5
  vertex 439500.0 5789500.0 3362.699951171875
  vertex 439500.0 5788500.0 3669.0
 endloop
endfacet
facet normal 0.02129490301012993 -0.002599499188363552 -0.9997698664665222
 outer loop
  vertex 429500.0 5790500.0 3300.5
  vertex 430500.0 5789500.0 3324.39990234375
  vertex 429500.0 5789500.0 3303.10009765625
 endloop
endfacet
facet normal 0.0847344845533371 0.0609651543200016 -0.9945367574691772
 outer loop
  vertex 429500.0 5790500.0 3300.5
  vertex 430500.0 5790500.0 3385.699951171875
  vertex 430500.0 5789500.0 3324.39990234375
 endloop
endfacet
facet normal 0.21382662653923035 0.05977008119225502 -0.975041389465332
 outer loop
  vertex 430500.0 5790500.0 3385.699951171875
  vertex 431500.0 5789500.0 3543.699951171875
  vertex 430500.0 5789500.0 3324.39990234375
 endloop
endfacet
facet normal 0.037603121250867844 -0.11915861815214157 -0.9921628832817078
 outer loop
  vertex 430500.0 5790500.0 3385.699951171875
  vertex 431500.0 5790500.0 3423.60009765625
  vertex 431500.0 5789500.0 3543.699951171875
 endloop
endfacet
facet normal -0.19673630595207214 -0.11691251397132874 -0.9734609723091125
 outer loop
  vertex 431500.0 5790500.0 3423.60009765625
  vertex 432500.0 5789500.0 3341.60009765625
  vertex 431500.0 5789500.0 3543.699951171875
 endloop
endfacet
facet normal -0.11613716930150986 -0.03474188596010208 -0.99262535572052
 outer loop
  vertex 431500.0 5790500.0 3423.60009765625
  vertex 432500.0 5790500.0 3306.60009765625
  vertex 432500.0 5789500.0 3341.60009765625
 endloop
endfacet
facet normal 0.05040494352579117 -0.03493411839008331 -0.9981176853179932
 outer loop
  vertex 432500.0 5790500.0 3306.60009765625
  vertex 433500.0 5789500.0 3392.10009765625
  vertex 432500.0 5789500.0 3341.60009765625
 endloop
endfacet
facet normal -0.02365252748131752 -0.10862256586551666 -0.9938016533851624
 outer loop
  vertex 432500.0 5790500.0 3306.60009765625
  vertex 433500.0 5790500.0 3282.800048828125
  vertex 433500.0 5789500.0 3392.10009765625
 endloop
endfacet
facet normal 0.16348354518413544 -0.10719114542007446 -0.9807054400444031
 outer loop
  vertex 433500.0 5790500.0 3282.800048828125
  vertex 434500.0 5789500.0 3558.800048828125
  vertex 433500.0 5789500.0 3392.10009765625
 endloop
endfacet
facet normal 0.013250503689050674 -0.25369492173194885 -0.9671935439109802
 outer loop
  vertex 433500.0 5790500.0 3282.800048828125
  vertex 434500.0 5790500.0 3296.5
  vertex 434500.0 5789500.0 3558.800048828125
 endloop
endfacet
facet normal -0.15863071382045746 -0.25050464272499084 -0.9550307393074036
 outer loop
  vertex 434500.0 5790500.0 3296.5
  vertex 435500.0 5789500.0 3392.699951171875
  vertex 434500.0 5789500.0 3558.800048828125
 endloop
endfacet
facet normal 0.01834138110280037 -0.07755260914564133 -0.9968194961547852
 outer loop
  vertex 434500.0 5790500.0 3296.5
  vertex 435500.0 5790500.0 3314.89990234375
  vertex 435500.0 5789500.0 3392.699951171875
 endloop
endfacet
facet normal -0.028402673080563545 -0.07753436267375946 -0.9965850114822388
 outer loop
  vertex 435500.0 5790500.0 3314.89990234375
  vertex 436500.0 5789500.0 3364.199951171875
  vertex 435500.0 5789500.0 3392.699951171875
 endloop
endfacet
facet normal 0.007992930710315704 -0.04126355051994324 -0.9991163611412048
 outer loop
  vertex 435500.0 5790500.0 3314.89990234375
  vertex 436500.0 5790500.0 3322.89990234375
  vertex 436500.0 5789500.0 3364.199951171875
 endloop
endfacet
facet normal -0.018281403928995132 -0.04125797376036644 -0.9989812970161438
 outer loop
  vertex 436500.0 5790500.0 3322.89990234375
  vertex 437500.0 5789500.0 3345.89990234375
  vertex 436500.0 5789500.0 3364.199951171875
 endloop
endfacet
facet normal -0.009794067591428757 -0.03278060257434845 -0.9994145631790161
 outer loop
  vertex 436500.0 5790500.0 3322.89990234375
  vertex 437500.0 5790500.0 3313.10009765625
  vertex 437500.0 5789500.0 3345.89990234375
 endloop
endfacet
facet normal 0.01159308385103941 -0.03277997300028801 -0.9993953704833984
 outer loop
  vertex 437500.0 5790500.0 3313.10009765625
  vertex 438500.0 5789500.0 3357.5
  vertex 437500.0 5789500.0 3345.89990234375
 endloop
endfacet
facet normal 0.01349233090877533 -0.030882349237799644 -0.9994319677352905
 outer loop
  vertex 437500.0 5790500.0 3313.10009765625
  vertex 438500.0 5790500.0 3326.60009765625
  vertex 438500.0 5789500.0 3357.5
 endloop
endfacet
facet normal 0.005197398364543915 -0.030884744599461555 -0.9995094537734985
 outer loop
  vertex 438500.0 5790500.0 3326.60009765625
  vertex 439500.0 5789500.0 3362.699951171875
  vertex 438500.0 5789500.0 3357.5
 endloop
endfacet
facet normal 0.007396654225885868 -0.028687352314591408 -0.999561071395874
 outer loop
  vertex 438500.0 5790500.0 3326.60009765625
  vertex 439500.0 5790500.0 3334.0
  vertex 439500.0 5789500.0 3362.699951171875
 endloop
endfacet
facet normal 0.014294853433966637 -0.022092444822192192 -0.9996537566184998
 outer loop
  vertex 428500.0 5791500.0 3264.10009765625
  vertex 429500.0 5791500.0 3278.39990234375
  vertex 429500.0 5790500.0 3300.5
 endloop
endfacet
facet normal 0.0848718211054802 -0.022014982998371124 -0.9961486458778381
 outer loop
  vertex 429500.0 5791500.0 3278.39990234375
  vertex 430500.0 5790500.0 3385.699951171875
  vertex 429500.0 5790500.0 3300.5
 endloop
endfacet
facet normal 0.09002026170492172 -0.016828879714012146 -0.9957977533340454
 outer loop
  vertex 429500.0 5791500.0 3278.39990234375
  vertex 430500.0 5791500.0 3368.800048828125
  vertex 430500.0 5790500.0 3385.699951171875
 endloop
endfacet
facet normal 0.037867553532123566 -0.016885370016098022 -0.9991401433944702
 outer loop
  vertex 430500.0 5791500.0 3368.800048828125
  vertex 431500.0 5790500.0 3423.60009765625
  vertex 430500.0 5790500.0 3385.699951171875
 endloop
endfacet
facet normal 0.16015513241291046 0.1063774898648262 -0.9813430309295654
 outer loop
  vertex 430500.0 5791500.0 3368.800048828125
  vertex 431500.0 5791500.0 3532.0
  vertex 431500.0 5790500.0 3423.60009765625
 endloop
endfacet
facet normal -0.11553959548473358 0.10704685002565384 -0.9875178933143616
 outer loop
  vertex 431500.0 5791500.0 3532.0
  vertex 432500.0 5790500.0 3306.60009765625
  vertex 431500.0 5790500.0 3423.60009765625
 endloop
endfacet
facet normal -0.19387449324131012 0.02716396376490593 -0.9806501865386963
 outer loop
  vertex 431500.0 5791500.0 3532.0
  vertex 432500.0 5791500.0 3334.300048828125
  vertex 432500.0 5790500.0 3306.60009765625
 endloop
endfacet
facet normal -0.023784194141626358 0.027681497856974602 -0.9993337988853455
 outer loop
  vertex 432500.0 5791500.0 3334.300048828125
  vertex 433500.0 5790500.0 3282.800048828125
  vertex 432500.0 5790500.0 3306.60009765625
 endloop
endfacet
facet normal -0.012289680540561676 0.03916691243648529 -0.9991570711135864
 outer loop
  vertex 432500.0 5791500.0 3334.300048828125
  vertex 433500.0 5791500.0 3322.0
  vertex 433500.0 5790500.0 3282.800048828125
 endloop
endfacet
facet normal 0.013688156381249428 0.039166200906038284 -0.9991389513015747
 outer loop
  vertex 433500.0 5791500.0 3322.0
  vertex 434500.0 5790500.0 3296.5
  vertex 433500.0 5790500.0 3282.800048828125
 endloop
endfacet
facet normal -0.028987634927034378 -0.0034985076636075974 -0.9995736479759216
 outer loop
  vertex 433500.0 5791500.0 3322.0
  vertex 434500.0 5791500.0 3293.0
  vertex 434500.0 5790500.0 3296.5
 endloop
endfacet
facet normal 0.01839667558670044 -0.003499386366456747 -0.9998246431350708
 outer loop
  vertex 434500.0 5791500.0 3293.0
  vertex 435500.0 5790500.0 3314.89990234375
  vertex 434500.0 5790500.0 3296.5
 endloop
endfacet
facet normal 0.08707959949970245 0.06530981510877609 -0.9940582513809204
 outer loop
  vertex 434500.0 5791500.0 3293.0
  vertex 435500.0 5791500.0 3380.60009765625
  vertex 435500.0 5790500.0 3314.89990234375
 endloop
endfacet
facet normal 0.007982535287737846 0.06555676460266113 -0.9978169202804565
 outer loop
  vertex 435500.0 5791500.0 3380.60009765625
  vertex 436500.0 5790500.0 3322.89990234375
  vertex 435500.0 5790500.0 3314.89990234375
 endloop
endfacet
facet normal -0.057703740894794464 -9.968518861569464e-05 -0.998333752155304
 outer loop
  vertex 435500.0 5791500.0 3380.60009765625
  vertex 436500.0 5791500.0 3322.800048828125
  vertex 436500.0 5790500.0 3322.89990234375
 endloop
endfacet
facet normal -0.009799333289265633 -9.984871576307341e-05 -0.999951958656311
 outer loop
  vertex 436500.0 5791500.0 3322.800048828125
  vertex 437500.0 5790500.0 3313.10009765625
  vertex 436500.0 5790500.0 3322.89990234375
 endloop
endfacet
facet normal 0.0478653684258461 0.057538118213415146 -0.9971951842308044
 outer loop
  vertex 436500.0 5791500.0 3322.800048828125
  vertex 437500.0 5791500.0 3370.800048828125
  vertex 437500.0 5790500.0 3313.10009765625
 endloop
endfacet
facet normal 0.013476358726620674 0.057598911225795746 -0.998248815536499
 outer loop
  vertex 437500.0 5791500.0 3370.800048828125
  vertex 438500.0 5790500.0 3326.60009765625
  vertex 437500.0 5790500.0 3313.10009765625
 endloop
endfacet
facet normal 0.09087847173213959 0.13449227809906006 -0.9867385625839233
 outer loop
  vertex 437500.0 5791500.0 3370.800048828125
  vertex 438500.0 5791500.0 3462.89990234375
  vertex 438500.0 5790500.0 3326.60009765625
 endloop
endfacet
facet normal 0.007331916131079197 0.13504749536514282 -0.9908120036125183
 outer loop
  vertex 438500.0 5791500.0 3462.89990234375
  vertex 439500.0 5790500.0 3334.0
  vertex 438500.0 5790500.0 3326.60009765625
 endloop
endfacet
facet normal -0.0889759436249733 0.03931267932057381 -0.9952576756477356
 outer loop
  vertex 438500.0 5791500.0 3462.89990234375
  vertex 439500.0 5791500.0 3373.5
  vertex 439500.0 5790500.0 3334.0
 endloop
endfacet
facet normal 0.03714531287550926 0.03944198414683342 -0.9985312223434448
 outer loop
  vertex 439500.0 5791500.0 3373.5
  vertex 440500.0 5790500.0 3371.199951171875
  vertex 439500.0 5790500.0 3334.0
 endloop
endfacet
facet normal 0.38037988543510437 0.38231679797172546 -0.8421074748039246
 outer loop
  vertex 439500.0 5791500.0 3373.5
  vertex 440500.0 5791500.0 3825.199951171875
  vertex 440500.0 5790500.0 3371.199951171875
 endloop
endfacet
facet normal -0.0036421900149434805 0.41338855028152466 -0.9105474948883057
 outer loop
  vertex 440500.0 5791500.0 3825.199951171875
  vertex 441500.0 5790500.0 3367.199951171875
  vertex 440500.0 5790500.0 3371.199951171875
 endloop
endfacet
facet normal -0.05858856812119484 0.3666670322418213 -0.9285056591033936
 outer loop
  vertex 440500.0 5791500.0 3825.199951171875
  vertex 441500.0 5791500.0 3762.10009765625
  vertex 441500.0 5790500.0 3367.199951171875
 endloop
endfacet
facet normal 0.007399437483400106 0.01169882994145155 -0.999904215335846
 outer loop
  vertex 427500.0 5792500.0 3268.39990234375
  vertex 428500.0 5792500.0 3275.800048828125
  vertex 428500.0 5791500.0 3264.10009765625
 endloop
endfacet
facet normal 0.0142973642796278 0.011697954498231411 -0.9998293519020081
 outer loop
  vertex 428500.0 5792500.0 3275.800048828125
  vertex 429500.0 5791500.0 3278.39990234375
  vertex 428500.0 5791500.0 3264.10009765625
 endloop
endfacet
facet normal 0.03306637331843376 0.030469149351119995 -0.9989885687828064
 outer loop
  vertex 428500.0 5792500.0 3275.800048828125
  vertex 429500.0 5792500.0 3308.89990234375
  vertex 429500.0 5791500.0 3278.39990234375
 endloop
endfacet
facet normal 0.0899915099143982 0.03036212921142578 -0.9954796433448792
 outer loop
  vertex 429500.0 5792500.0 3308.89990234375
  vertex 430500.0 5791500.0 3368.800048828125
  vertex 429500.0 5791500.0 3278.39990234375
 endloop
endfacet
facet normal -0.03561437875032425 -0.09520427137613297 -0.9948204755783081
 outer loop
  vertex 429500.0 5792500.0 3308.89990234375
  vertex 430500.0 5792500.0 3273.10009765625
  vertex 430500.0 5791500.0 3368.800048828125
 endloop
endfacet
facet normal 0.16035540401935577 -0.094031922519207 -0.9825701713562012
 outer loop
  vertex 430500.0 5792500.0 3273.10009765625
  vertex 431500.0 5791500.0 3532.0
  vertex 430500.0 5791500.0 3368.800048828125
 endloop
endfacet
facet normal 0.16220155358314514 -0.092153400182724 -0.9824451208114624
 outer loop
  vertex 430500.0 5792500.0 3273.10009765625
  vertex 431500.0 5792500.0 3438.199951171875
  vertex 431500.0 5791500.0 3532.0
 endloop
endfacet
facet normal -0.19313012063503265 -0.09163185954093933 -0.9768850207328796
 outer loop
  vertex 431500.0 5792500.0 3438.199951171875
  vertex 432500.0 5791500.0 3334.300048828125
  vertex 431500.0 5791500.0 3532.0
 endloop
endfacet
facet normal 0.14450809359550476 0.24413903057575226 -0.9589126706123352
 outer loop
  vertex 431500.0 5792500.0 3438.199951171875
  vertex 432500.0 5792500.0 3588.89990234375
  vertex 432500.0 5791500.0 3334.300048828125
 endloop
endfacet
facet normal -0.011918938718736172 0.24671126902103424 -0.9690157175064087
 outer loop
  vertex 432500.0 5792500.0 3588.89990234375
  vertex 433500.0 5791500.0 3322.0
  vertex 432500.0 5791500.0 3334.300048828125
 endloop
endfacet
facet normal -0.13805614411830902 0.12420130521059036 -0.9826059937477112
 outer loop
  vertex 432500.0 5792500.0 3588.89990234375
  vertex 433500.0 5792500.0 3448.39990234375
  vertex 433500.0 5791500.0 3322.0
 endloop
endfacet
facet normal -0.028759174048900604 0.1253502368927002 -0.9916956424713135
 outer loop
  vertex 433500.0 5792500.0 3448.39990234375
  vertex 434500.0 5791500.0 3293.0
  vertex 433500.0 5791500.0 3322.0
 endloop
endfacet
facet normal 0.1202247142791748 0.26873743534088135 -0.9556810259819031
 outer loop
  vertex 433500.0 5792500.0 3448.39990234375
  vertex 434500.0 5792500.0 3574.199951171875
  vertex 434500.0 5791500.0 3293.0
 endloop
endfacet
facet normal 0.0840311348438263 0.2697434723377228 -0.9592586755752563
 outer loop
  vertex 434500.0 5792500.0 3574.199951171875
  vertex 435500.0 5791500.0 3380.60009765625
  vertex 434500.0 5791500.0 3293.0
 endloop
endfacet
facet normal -0.26004746556282043 -0.07365286350250244 -0.9627827405929565
 outer loop
  vertex 434500.0 5792500.0 3574.199951171875
  vertex 435500.0 5792500.0 3304.10009765625
  vertex 435500.0 5791500.0 3380.60009765625
 endloop
endfacet
facet normal -0.057536184787750244 -0.07615077495574951 -0.9954349398612976
 outer loop
  vertex 435500.0 5792500.0 3304.10009765625
  vertex 436500.0 5791500.0 3322.800048828125
  vertex 435500.0 5791500.0 3380.60009765625
 endloop
endfacet
facet normal 0.10511141270399094 0.08658567070960999 -0.9906838536262512
 outer loop
  vertex 435500.0 5792500.0 3304.10009765625
  vertex 436500.0 5792500.0 3410.199951171875
  vertex 436500.0 5791500.0 3322.800048828125
 endloop
endfacet
facet normal 0.047763142734766006 0.08696862310171127 -0.9950653910636902
 outer loop
  vertex 436500.0 5792500.0 3410.199951171875
  vertex 437500.0 5791500.0 3370.800048828125
  vertex 436500.0 5791500.0 3322.800048828125
 endloop
endfacet
facet normal 0.2273775339126587 0.2643052041530609 -0.9372524619102478
 outer loop
  vertex 436500.0 5792500.0 3410.199951171875
  vertex 437500.0 5792500.0 3652.800048828125
  vertex 437500.0 5791500.0 3370.800048828125
 endloop
endfacet
facet normal 0.08829645067453384 0.27035436034202576 -0.9587034583091736
 outer loop
  vertex 437500.0 5792500.0 3652.800048828125
  vertex 438500.0 5791500.0 3462.89990234375
  vertex 437500.0 5791500.0 3370.800048828125
 endloop
endfacet
facet normal -0.254071444272995 -0.07089690119028091 -0.9645835161209106
 outer loop
  vertex 437500.0 5792500.0 3652.800048828125
  vertex 438500.0 5792500.0 3389.39990234375
  vertex 438500.0 5791500.0 3462.89990234375
 endloop
endfacet
facet normal -0.0888071209192276 -0.07301264256238937 -0.9933692812919617
 outer loop
  vertex 438500.0 5792500.0 3389.39990234375
  vertex 439500.0 5791500.0 3373.5
  vertex 438500.0 5791500.0 3462.89990234375
 endloop
endfacet
facet normal 0.08992177248001099 0.10566788911819458 -0.9903274178504944
 outer loop
  vertex 438500.0 5792500.0 3389.39990234375
  vertex 439500.0 5792500.0 3480.199951171875
  vertex 439500.0 5791500.0 3373.5
 endloop
endfacet
facet normal 0.4097200632095337 0.09678352624177933 -0.9070624709129333
 outer loop
  vertex 439500.0 5792500.0 3480.199951171875
  vertex 440500.0 5791500.0 3825.199951171875
  vertex 439500.0 5791500.0 3373.5
 endloop
endfacet
facet normal -0.09167814999818802 -0.40545740723609924 -0.9095050692558289
 outer loop
  vertex 439500.0 5792500.0 3480.199951171875
  vertex 440500.0 5792500.0 3379.39990234375
  vertex 440500.0 5791500.0 3825.199951171875
 endloop
endfacet
facet normal -0.057536885142326355 -0.406497597694397 -0.9118383526802063
 outer loop
  vertex 440500.0 5792500.0 3379.39990234375
  vertex 441500.0 5791500.0 3762.10009765625
  vertex 440500.0 5791500.0 3825.199951171875
 endloop
endfacet
facet normal 0.37459173798561096 0.019837232306599617 -0.9269775748252869
 outer loop
  vertex 440500.0 5792500.0 3379.39990234375
  vertex 441500.0 5792500.0 3783.5
  vertex 441500.0 5791500.0 3762.10009765625
 endloop
endfacet
facet normal 0.015194717794656754 0.02139253355562687 -0.9996556639671326
 outer loop
  vertex 441500.0 5792500.0 3783.5
  vertex 442500.0 5791500.0 3777.300048828125
  vertex 441500.0 5791500.0 3762.10009765625
 endloop
endfacet
facet normal 0.12642475962638855 0.13251984119415283 -0.9830845594406128
 outer loop
  vertex 441500.0 5792500.0 3783.5
  vertex 442500.0 5792500.0 3912.10009765625
  vertex 442500.0 5791500.0 3777.300048828125
 endloop
endfacet
facet normal 0.0073974053375422955 -0.026190245524048805 -0.999629557132721
 outer loop
  vertex 427500.0 5793500.0 3242.199951171875
  vertex 428500.0 5792500.0 3275.800048828125
  vertex 427500.0 5792500.0 3268.39990234375
 endloop
endfacet
facet normal 0.1410219818353653 0.10795602947473526 -0.9841027855873108
 outer loop
  vertex 427500.0 5793500.0 3242.199951171875
  vertex 428500.0 5793500.0 3385.5
  vertex 428500.0 5792500.0 3275.800048828125
 endloop
endfacet
facet normal 0.03288467973470688 0.10898680239915848 -0.9934991002082825
 outer loop
  vertex 428500.0 5793500.0 3385.5
  vertex 429500.0 5792500.0 3308.89990234375
  vertex 428500.0 5792500.0 3275.800048828125
 endloop
endfacet
facet normal 0.1264781802892685 0.20088866353034973 -0.9714149832725525
 outer loop
  vertex 428500.0 5793500.0 3385.5
  vertex 429500.0 5793500.0 3515.699951171875
  vertex 429500.0 5792500.0 3308.89990234375
 endloop
endfacet
facet normal -0.03503648564219475 0.2023906409740448 -0.9786779284477234
 outer loop
  vertex 429500.0 5793500.0 3515.699951171875
  vertex 430500.0 5792500.0 3273.10009765625
  vertex 429500.0 5792500.0 3308.89990234375
 endloop
endfacet
facet normal -0.23612840473651886 -0.00038882537046447396 -0.9717218279838562
 outer loop
  vertex 429500.0 5793500.0 3515.699951171875
  vertex 430500.0 5793500.0 3272.699951171875
  vertex 430500.0 5792500.0 3273.10009765625
 endloop
endfacet
facet normal 0.16289468109607697 -0.0003948018711525947 -0.986643373966217
 outer loop
  vertex 430500.0 5793500.0 3272.699951171875
  vertex 431500.0 5792500.0 3438.199951171875
  vertex 430500.0 5792500.0 3273.10009765625
 endloop
endfacet
facet normal 0.05159943178296089 -0.11262568831443787 -0.9922968149185181
 outer loop
  vertex 430500.0 5793500.0 3272.699951171875
  vertex 431500.0 5793500.0 3324.699951171875
  vertex 431500.0 5792500.0 3438.199951171875
 endloop
endfacet
facet normal 0.14808756113052368 -0.11153248697519302 -0.9826650619506836
 outer loop
  vertex 431500.0 5793500.0 3324.699951171875
  vertex 432500.0 5792500.0 3588.89990234375
  vertex 431500.0 5792500.0 3438.199951171875
 endloop
endfacet
facet normal -0.054003097116947174 -0.30519330501556396 -0.9507579803466797
 outer loop
  vertex 431500.0 5793500.0 3324.699951171875
  vertex 432500.0 5793500.0 3267.89990234375
  vertex 432500.0 5792500.0 3588.89990234375
 endloop
endfacet
facet normal -0.1325954794883728 -0.30294057726860046 -0.9437401294708252
 outer loop
  vertex 432500.0 5793500.0 3267.89990234375
  vertex 433500.0 5792500.0 3448.39990234375
  vertex 432500.0 5792500.0 3588.89990234375
 endloop
endfacet
facet normal -0.007959278300404549 -0.18532665073871613 -0.9826447367668152
 outer loop
  vertex 432500.0 5793500.0 3267.89990234375
  vertex 433500.0 5793500.0 3259.800048828125
  vertex 433500.0 5792500.0 3448.39990234375
 endloop
endfacet
facet normal 0.12268677353858948 -0.18393242359161377 -0.9752522110939026
 outer loop
  vertex 433500.0 5793500.0 3259.800048828125
  vertex 434500.0 5792500.0 3574.199951171875
  vertex 433500.0 5792500.0 3448.39990234375
 endloop
endfacet
facet normal 0.03679634630680084 -0.26605135202407837 -0.9632563591003418
 outer loop
  vertex 433500.0 5793500.0 3259.800048828125
  vertex 434500.0 5793500.0 3298.0
  vertex 434500.0 5792500.0 3574.199951171875
 endloop
endfacet
facet normal -0.2519526481628418 -0.2576428949832916 -0.9328129887580872
 outer loop
  vertex 434500.0 5793500.0 3298.0
  vertex 435500.0 5792500.0 3304.10009765625
  vertex 434500.0 5792500.0 3574.199951171875
 endloop
endfacet
facet normal 0.03386737033724785 0.02777312695980072 -0.9990403652191162
 outer loop
  vertex 434500.0 5793500.0 3298.0
  vertex 435500.0 5793500.0 3331.89990234375
  vertex 435500.0 5792500.0 3304.10009765625
 endloop
endfacet
facet normal 0.10546736419200897 0.02763408236205578 -0.9940387606620789
 outer loop
  vertex 435500.0 5793500.0 3331.89990234375
  vertex 436500.0 5792500.0 3410.199951171875
  vertex 435500.0 5792500.0 3304.10009765625
 endloop
endfacet
facet normal 0.02295885980129242 -0.055201128125190735 -0.9982112646102905
 outer loop
  vertex 435500.0 5793500.0 3331.89990234375
  vertex 436500.0 5793500.0 3354.89990234375
  vertex 436500.0 5792500.0 3410.199951171875
 endloop
endfacet
facet normal 0.23542173206806183 -0.05366375669836998 -0.9704106450080872
 outer loop
  vertex 436500.0 5793500.0 3354.89990234375
  vertex 437500.0 5792500.0 3652.800048828125
  vertex 436500.0 5792500.0 3410.199951171875
 endloop
endfacet
facet normal 0.26887190341949463 -0.018008211627602577 -0.9630075693130493
 outer loop
  vertex 436500.0 5793500.0 3354.89990234375
  vertex 437500.0 5793500.0 3634.10009765625
  vertex 437500.0 5792500.0 3652.800048828125
 endloop
endfacet
facet normal -0.25467073917388916 -0.0180802121758461 -0.9668588042259216
 outer loop
  vertex 437500.0 5793500.0 3634.10009765625
  vertex 438500.0 5792500.0 3389.39990234375
  vertex 437500.0 5792500.0 3652.800048828125
 endloop
endfacet
facet normal 0.042803745716810226 0.277649462223053 -0.9597284197807312
 outer loop
  vertex 437500.0 5793500.0 3634.10009765625
  vertex 438500.0 5793500.0 3678.699951171875
  vertex 438500.0 5792500.0 3389.39990234375
 endloop
endfacet
facet normal 0.08689342439174652 0.2768530547618866 -0.9569754004478455
 outer loop
  vertex 438500.0 5793500.0 3678.699951171875
  vertex 439500.0 5792500.0 3480.199951171875
  vertex 438500.0 5792500.0 3389.39990234375
 endloop
endfacet
facet normal 0.12246628105640411 -0.2795009911060333 -0.9523031711578369
 outer loop
  vertex 441500.0 5793500.0 3490.0
  vertex 442500.0 5792500.0 3912.10009765625
  vertex 441500.0 5792500.0 3783.5
 endloop
endfacet
facet normal 0.3137674629688263 -0.08539242297410965 -0.945652186870575
 outer loop
  vertex 441500.0 5793500.0 3490.0
  vertex 442500.0 5793500.0 3821.800048828125
  vertex 442500.0 5792500.0 3912.10009765625
 endloop
endfacet
facet normal 0.14165471494197845 0.05258912220597267 -0.988518238067627
 outer loop
  vertex 427500.0 5794500.0 3295.39990234375
  vertex 428500.0 5793500.0 3385.5
  vertex 427500.0 5793500.0 3242.199951171875
 endloop
endfacet
facet normal 0.04770297184586525 -0.04221414029598236 -0.9979691505432129
 outer loop
  vertex 427500.0 5794500.0 3295.39990234375
  vertex 428500.0 5794500.0 3343.199951171875
  vertex 428500.0 5793500.0 3385.5
 endloop
endfacet
facet normal 0.12899677455425262 -0.041909150779247284 -0.990759015083313
 outer loop
  vertex 428500.0 5794500.0 3343.199951171875
  vertex 429500.0 5793500.0 3515.699951171875
  vertex 428500.0 5793500.0 3385.5
 endloop
endfacet
facet normal -0.07138044387102127 -0.23845145106315613 -0.968527615070343
 outer loop
  vertex 428500.0 5794500.0 3343.199951171875
  vertex 429500.0 5794500.0 3269.5
  vertex 429500.0 5793500.0 3515.699951171875
 endloop
endfacet
facet normal -0.2296479195356369 -0.2326720505952835 -0.9450531601905823
 outer loop
  vertex 429500.0 5794500.0 3269.5
  vertex 430500.0 5793500.0 3272.699951171875
  vertex 429500.0 5793500.0 3515.699951171875
 endloop
endfacet
facet normal -0.019191600382328033 -0.022390160709619522 -0.999565064907074
 outer loop
  vertex 429500.0 5794500.0 3269.5
  vertex 430500.0 5794500.0 3250.300048828125
  vertex 430500.0 5793500.0 3272.699951171875
 endloop
endfacet
facet normal 0.051916852593421936 -0.02236408367753029 -0.9984009265899658
 outer loop
  vertex 430500.0 5794500.0 3250.300048828125
  vertex 431500.0 5793500.0 3324.699951171875
  vertex 430500.0 5793500.0 3272.699951171875
 endloop
endfacet
facet normal 0.011476562358438969 -0.06277170777320862 -0.9979619383811951
 outer loop
  vertex 430500.0 5794500.0 3250.300048828125
  vertex 431500.0 5794500.0 3261.800048828125
  vertex 431500.0 5793500.0 3324.699951171875
 endloop
endfacet
facet normal -0.05659715458750725 -0.06267522275447845 -0.9964279532432556
 outer loop
  vertex 431500.0 5794500.0 3261.800048828125
  vertex 432500.0 5793500.0 3267.89990234375
  vertex 431500.0 5793500.0 3324.699951171875
 endloop
endfacet
facet normal -0.013096559792757034 -0.019194766879081726 -0.9997299313545227
 outer loop
  vertex 431500.0 5794500.0 3261.800048828125
  vertex 432500.0 5794500.0 3248.699951171875
  vertex 432500.0 5793500.0 3267.89990234375
 endloop
endfacet
facet normal -0.008098095655441284 -0.019195783883333206 -0.999782919883728
 outer loop
  vertex 432500.0 5794500.0 3248.699951171875
  vertex 433500.0 5793500.0 3259.800048828125
  vertex 432500.0 5793500.0 3267.89990234375
 endloop
endfacet
facet normal 0.04403335228562355 0.03295005485415459 -0.9984865188598633
 outer loop
  vertex 432500.0 5794500.0 3248.699951171875
  vertex 433500.0 5794500.0 3292.800048828125
  vertex 433500.0 5793500.0 3259.800048828125
 endloop
endfacet
facet normal 0.03815137594938278 0.03295803442597389 -0.998728334903717
 outer loop
  vertex 433500.0 5794500.0 3292.800048828125
  vertex 434500.0 5793500.0 3298.0
  vertex 433500.0 5793500.0 3259.800048828125
 endloop
endfacet
facet normal 0.03994389995932579 0.03475124016404152 -0.9985974431037903
 outer loop
  vertex 433500.0 5794500.0 3292.800048828125
  vertex 434500.0 5794500.0 3332.800048828125
  vertex 434500.0 5793500.0 3298.0
 endloop
endfacet
facet normal 0.033859964460134506 0.034759052097797394 -0.9988219738006592
 outer loop
  vertex 434500.0 5794500.0 3332.800048828125
  vertex 435500.0 5793500.0 3331.89990234375
  vertex 434500.0 5793500.0 3298.0
 endloop
endfacet
facet normal -0.003600061172619462 -0.002699923934414983 -0.9999898672103882
 outer loop
  vertex 434500.0 5794500.0 3332.800048828125
  vertex 435500.0 5794500.0 3329.199951171875
  vertex 435500.0 5793500.0 3331.89990234375
 endloop
endfacet
facet normal 0.02299383468925953 -0.002699227537959814 -0.9997319579124451
 outer loop
  vertex 435500.0 5794500.0 3329.199951171875
  vertex 436500.0 5793500.0 3354.89990234375
  vertex 435500.0 5793500.0 3331.89990234375
 endloop
endfacet
facet normal 0.10798857361078262 0.08252709358930588 -0.9907208681106567
 outer loop
  vertex 435500.0 5794500.0 3329.199951171875
  vertex 436500.0 5794500.0 3438.199951171875
  vertex 436500.0 5793500.0 3354.89990234375
 endloop
endfacet
facet normal 0.26805415749549866 0.07997459918260574 -0.9600786566734314
 outer loop
  vertex 436500.0 5794500.0 3438.199951171875
  vertex 437500.0 5793500.0 3634.10009765625
  vertex 436500.0 5793500.0 3354.89990234375
 endloop
endfacet
facet normal 0.11959622800350189 -0.07435169070959091 -0.9900346398353577
 outer loop
  vertex 436500.0 5794500.0 3438.199951171875
  vertex 437500.0 5794500.0 3559.0
  vertex 437500.0 5793500.0 3634.10009765625
 endloop
endfacet
facet normal 0.044430699199438095 -0.07481525093317032 -0.9962071180343628
 outer loop
  vertex 437500.0 5794500.0 3559.0
  vertex 438500.0 5793500.0 3678.699951171875
  vertex 437500.0 5793500.0 3634.10009765625
 endloop
endfacet
facet normal -0.013281591236591339 -0.13192468881607056 -0.9911707639694214
 outer loop
  vertex 437500.0 5794500.0 3559.0
  vertex 438500.0 5794500.0 3545.60009765625
  vertex 438500.0 5793500.0 3678.699951171875
 endloop
endfacet
facet normal 0.011492599733173847 -0.03397811949253082 -0.9993564486503601
 outer loop
  vertex 430500.0 5795500.0 3216.300048828125
  vertex 431500.0 5794500.0 3261.800048828125
  vertex 430500.0 5794500.0 3250.300048828125
 endloop
endfacet
facet normal -0.015868261456489563 -0.06127702072262764 -0.9979946613311768
 outer loop
  vertex 430500.0 5795500.0 3216.300048828125
  vertex 431500.0 5795500.0 3200.39990234375
  vertex 431500.0 5794500.0 3261.800048828125
 endloop
endfacet
facet normal -0.013074359856545925 -0.06127949804067612 -0.9980350136756897
 outer loop
  vertex 431500.0 5795500.0 3200.39990234375
  vertex 432500.0 5794500.0 3248.699951171875
  vertex 431500.0 5794500.0 3261.800048828125
 endloop
endfacet
facet normal 0.08197568356990814 0.033865999430418015 -0.9960587620735168
 outer loop
  vertex 431500.0 5795500.0 3200.39990234375
  vertex 432500.0 5795500.0 3282.699951171875
  vertex 432500.0 5794500.0 3248.699951171875
 endloop
endfacet
facet normal 0.044031884521245956 0.0339474081993103 -0.9984531998634338
 outer loop
  vertex 432500.0 5795500.0 3282.699951171875
  vertex 433500.0 5794500.0 3292.800048828125
  vertex 432500.0 5794500.0 3248.699951171875
 endloop
endfacet
facet normal 0.1009550467133522 0.09094861894845963 -0.9907252192497253
 outer loop
  vertex 432500.0 5795500.0 3282.699951171875
  vertex 433500.0 5795500.0 3384.60009765625
  vertex 433500.0 5794500.0 3292.800048828125
 endloop
endfacet
facet normal 0.03980094939470291 0.0913432314991951 -0.995023787021637
 outer loop
  vertex 433500.0 5795500.0 3384.60009765625
  vertex 434500.0 5794500.0 3332.800048828125
  vertex 433500.0 5794500.0 3292.800048828125
 endloop
endfacet
facet normal -0.03487394005060196 0.016887206584215164 -0.9992489814758301
 outer loop
  vertex 433500.0 5795500.0 3384.60009765625
  vertex 434500.0 5795500.0 3349.699951171875
  vertex 434500.0 5794500.0 3332.800048828125
 endloop
endfacet
facet normal -0.0035995603539049625 0.016897380352020264 -0.9998507499694824
 outer loop
  vertex 434500.0 5795500.0 3349.699951171875
  vertex 435500.0 5794500.0 3329.199951171875
  vertex 434500.0 5794500.0 3332.800048828125
 endloop
endfacet
facet normal -0.009598840959370136 0.010898997075855732 -0.9998944997787476
 outer loop
  vertex 434500.0 5795500.0 3349.699951171875
  vertex 435500.0 5795500.0 3340.10009765625
  vertex 435500.0 5794500.0 3329.199951171875
 endloop
endfacet
facet normal 0.10835184156894684 0.010835330002009869 -0.9940535426139832
 outer loop
  vertex 435500.0 5795500.0 3340.10009765625
  vertex 436500.0 5794500.0 3438.199951171875
  vertex 435500.0 5794500.0 3329.199951171875
 endloop
endfacet
facet normal 0.14488276839256287 0.047931935638189316 -0.9882872104644775
 outer loop
  vertex 435500.0 5795500.0 3340.10009765625
  vertex 436500.0 5795500.0 3486.699951171875
  vertex 436500.0 5794500.0 3438.199951171875
 endloop
endfacet
facet normal 0.11978939920663834 0.048094235360622406 -0.9916337132453918
 outer loop
  vertex 436500.0 5795500.0 3486.699951171875
  vertex 437500.0 5794500.0 3559.0
  vertex 436500.0 5794500.0 3438.199951171875
 endloop
endfacet
facet normal 0.1790456473827362 0.10834656655788422 -0.9778566956520081
 outer loop
  vertex 436500.0 5795500.0 3486.699951171875
  vertex 437500.0 5795500.0 3669.800048828125
  vertex 437500.0 5794500.0 3559.0
 endloop
endfacet
facet normal -0.013317221775650978 0.11011635512113571 -0.9938294887542725
 outer loop
  vertex 437500.0 5795500.0 3669.800048828125
  vertex 438500.0 5794500.0 3545.60009765625
  vertex 437500.0 5794500.0 3559.0
 endloop
endfacet
facet normal 0.13289675116539001 0.15697067975997925 -0.9786208271980286
 outer loop
  vertex 429500.0 5796500.0 3240.89990234375
  vertex 430500.0 5796500.0 3376.699951171875
  vertex 430500.0 5795500.0 3216.300048828125
 endloop
endfacet
facet normal -0.015697529539465904 0.1583559811115265 -0.9872573018074036
 outer loop
  vertex 430500.0 5796500.0 3376.699951171875
  vertex 431500.0 5795500.0 3200.39990234375
  vertex 430500.0 5795500.0 3216.300048828125
 endloop
endfacet
facet normal 0.24759061634540558 0.40292954444885254 -0.8811054229736328
 outer loop
  vertex 430500.0 5796500.0 3376.699951171875
  vertex 431500.0 5796500.0 3657.699951171875
  vertex 431500.0 5795500.0 3200.39990234375
 endloop
endfacet
facet normal 0.07463660091161728 0.41471806168556213 -0.9068838953971863
 outer loop
  vertex 431500.0 5796500.0 3657.699951171875
  vertex 432500.0 5795500.0 3282.699951171875
  vertex 431500.0 5795500.0 3200.39990234375
 endloop
endfacet
facet normal 0.3642845153808594 0.623647928237915 -0.6916357278823853
 outer loop
  vertex 431500.0 5796500.0 3657.699951171875
  vertex 432500.0 5796500.0 4184.39990234375
  vertex 432500.0 5795500.0 3282.699951171875
 endloop
endfacet
facet normal 0.0754619836807251 0.6677525043487549 -0.7405484914779663
 outer loop
  vertex 432500.0 5796500.0 4184.39990234375
  vertex 433500.0 5795500.0 3384.60009765625
  vertex 432500.0 5795500.0 3282.699951171875
 endloop
endfacet
facet normal 0.1339651644229889 0.09430838376283646 -0.986488401889801
 outer loop
  vertex 429500.0 5797500.0 3336.5
  vertex 430500.0 5796500.0 3376.699951171875
  vertex 429500.0 5796500.0 3240.89990234375
 endloop
endfacet
facet normal 0.2550587058067322 0.21718154847621918 -0.9422193169593811
 outer loop
  vertex 429500.0 5797500.0 3336.5
  vertex 430500.0 5797500.0 3607.199951171875
  vertex 430500.0 5796500.0 3376.699951171875
 endloop
endfacet
facet normal 0.26409831643104553 0.2166357934474945 -0.9398515820503235
 outer loop
  vertex 430500.0 5797500.0 3607.199951171875
  vertex 431500.0 5796500.0 3657.699951171875
  vertex 430500.0 5796500.0 3376.699951171875
 endloop
endfacet
facet normal -0.03861743584275246 -0.08887975662946701 -0.9952934980392456
 outer loop
  vertex 430500.0 5797500.0 3607.199951171875
  vertex 431500.0 5797500.0 3568.39990234375
  vertex 431500.0 5796500.0 3657.699951171875
 endloop
endfacet
facet normal 0.4645647406578064 -0.07876525074243546 -0.8820292353630066
 outer loop
  vertex 431500.0 5797500.0 3568.39990234375
  vertex 432500.0 5796500.0 4184.39990234375
  vertex 431500.0 5796500.0 3657.699951171875
 endloop
endfacet
facet normal 0.1303430050611496 -0.4222465753555298 -0.8970609903335571
 outer loop
  vertex 431500.0 5797500.0 3568.39990234375
  vertex 432500.0 5797500.0 3713.699951171875
  vertex 432500.0 5796500.0 4184.39990234375
 endloop
endfacet
endsolid
