solid
facet normal 0.6590766310691833 0.16159234941005707 -0.7345106601715088
 outer loop
  vertex 368500.0 5671500.0 4088.39990234375
  vertex 369500.0 5670500.0 4765.7001953125
  vertex 368500.0 5670500.0 3868.39990234375
 endloop
endfacet
facet normal 0.6273164749145508 0.10464245080947876 -0.771701991558075
 outer loop
  vertex 368500.0 5671500.0 4088.39990234375
  vertex 369500.0 5671500.0 4901.2998046875
  vertex 369500.0 5670500.0 4765.7001953125
 endloop
endfacet
facet normal 0.6735074520111084 0.5184474587440491 -0.5268775224685669
 outer loop
  vertex 367500.0 5672500.0 3794.10009765625
  vertex 368500.0 5672500.0 5072.39990234375
  vertex 368500.0 5671500.0 4088.39990234375
 endloop
endfacet
facet normal 0.5013449192047119 0.6068686246871948 -0.6167364120483398
 outer loop
  vertex 368500.0 5672500.0 5072.39990234375
  vertex 369500.0 5671500.0 4901.2998046875
  vertex 368500.0 5671500.0 4088.39990234375
 endloop
endfacet
facet normal -0.168553426861763 9.866166510619223e-05 -0.98569256067276
 outer loop
  vertex 368500.0 5672500.0 5072.39990234375
  vertex 369500.0 5672500.0 4901.39990234375
  vertex 369500.0 5671500.0 4901.2998046875
 endloop
endfacet
facet normal 0.77996826171875 0.13911664485931396 -0.6101607084274292
 outer loop
  vertex 367500.0 5673500.0 4022.10009765625
  vertex 368500.0 5672500.0 5072.39990234375
  vertex 367500.0 5672500.0 3794.10009765625
 endloop
endfacet
facet normal 0.7713019847869873 0.11354118585586548 -0.6262600421905518
 outer loop
  vertex 367500.0 5673500.0 4022.10009765625
  vertex 368500.0 5673500.0 5253.7001953125
  vertex 368500.0 5672500.0 5072.39990234375
 endloop
endfacet
facet normal -0.16592475771903992 0.17591935396194458 -0.9703202843666077
 outer loop
  vertex 368500.0 5673500.0 5253.7001953125
  vertex 369500.0 5672500.0 4901.39990234375
  vertex 368500.0 5672500.0 5072.39990234375
 endloop
endfacet
facet normal 0.1519450694322586 0.460122287273407 -0.8747571706771851
 outer loop
  vertex 368500.0 5673500.0 5253.7001953125
  vertex 369500.0 5673500.0 5427.39990234375
  vertex 369500.0 5672500.0 4901.39990234375
 endloop
endfacet
facet normal 0.7737407088279724 -0.08148287981748581 -0.6282402276992798
 outer loop
  vertex 367500.0 5674500.0 3892.39990234375
  vertex 368500.0 5673500.0 5253.7001953125
  vertex 367500.0 5673500.0 4022.10009765625
 endloop
endfacet
facet normal 0.7995430827140808 -0.017710255458950996 -0.600347638130188
 outer loop
  vertex 367500.0 5674500.0 3892.39990234375
  vertex 368500.0 5674500.0 5224.2001953125
  vertex 368500.0 5673500.0 5253.7001953125
 endloop
endfacet
facet normal 0.17106491327285767 -0.029052523896098137 -0.9848313331604004
 outer loop
  vertex 368500.0 5674500.0 5224.2001953125
  vertex 369500.0 5673500.0 5427.39990234375
  vertex 368500.0 5673500.0 5253.7001953125
 endloop
endfacet
facet normal 0.263118714094162 0.06756032258272171 -0.9623950123786926
 outer loop
  vertex 368500.0 5674500.0 5224.2001953125
  vertex 369500.0 5674500.0 5497.60009765625
  vertex 369500.0 5673500.0 5427.39990234375
 endloop
endfacet
facet normal -0.7149915099143982 0.04895879700779915 -0.6974168419837952
 outer loop
  vertex 369500.0 5674500.0 5497.60009765625
  vertex 370500.0 5673500.0 4402.2001953125
  vertex 369500.0 5673500.0 5427.39990234375
 endloop
endfacet
facet normal -0.11590440571308136 0.6785976886749268 -0.725307822227478
 outer loop
  vertex 369500.0 5674500.0 5497.60009765625
  vertex 370500.0 5674500.0 5337.7998046875
  vertex 370500.0 5673500.0 4402.2001953125
 endloop
endfacet
facet normal -0.3667009174823761 0.5480970740318298 -0.7517446875572205
 outer loop
  vertex 366500.0 5675500.0 5109.2998046875
  vertex 367500.0 5675500.0 4621.5
  vertex 367500.0 5674500.0 3892.39990234375
 endloop
endfacet
facet normal 0.7325462102890015 0.40103575587272644 -0.5500420928001404
 outer loop
  vertex 367500.0 5675500.0 4621.5
  vertex 368500.0 5674500.0 5224.2001953125
  vertex 367500.0 5674500.0 3892.39990234375
 endloop
endfacet
facet normal 0.5142417550086975 -0.0026587413158267736 -0.8576412200927734
 outer loop
  vertex 367500.0 5675500.0 4621.5
  vertex 368500.0 5675500.0 5221.10009765625
  vertex 368500.0 5674500.0 5224.2001953125
 endloop
endfacet
facet normal 0.2637200653553009 -0.0029903375543653965 -0.9645946025848389
 outer loop
  vertex 368500.0 5675500.0 5221.10009765625
  vertex 369500.0 5674500.0 5497.60009765625
  vertex 368500.0 5674500.0 5224.2001953125
 endloop
endfacet
facet normal 0.16454342007637024 -0.10659071058034897 -0.9805936217308044
 outer loop
  vertex 368500.0 5675500.0 5221.10009765625
  vertex 369500.0 5675500.0 5388.89990234375
  vertex 369500.0 5674500.0 5497.60009765625
 endloop
endfacet
facet normal -0.15689696371555328 -0.10672527551651001 -0.9818314909934998
 outer loop
  vertex 369500.0 5675500.0 5388.89990234375
  vertex 370500.0 5674500.0 5337.7998046875
  vertex 369500.0 5674500.0 5497.60009765625
 endloop
endfacet
facet normal 0.402717649936676 0.44363003969192505 -0.8006315231323242
 outer loop
  vertex 369500.0 5675500.0 5388.89990234375
  vertex 370500.0 5675500.0 5891.89990234375
  vertex 370500.0 5674500.0 5337.7998046875
 endloop
endfacet
facet normal -0.5346508622169495 0.40958139300346375 -0.7391830086708069
 outer loop
  vertex 370500.0 5675500.0 5891.89990234375
  vertex 371500.0 5674500.0 4614.5
  vertex 370500.0 5674500.0 5337.7998046875
 endloop
endfacet
facet normal -0.34629446268081665 0.587735116481781 -0.7311959266662598
 outer loop
  vertex 370500.0 5675500.0 5891.89990234375
  vertex 371500.0 5675500.0 5418.2998046875
  vertex 371500.0 5674500.0 4614.5
 endloop
endfacet
facet normal -0.08859212696552277 -0.18970037996768951 -0.9778370261192322
 outer loop
  vertex 377500.0 5675500.0 5490.39990234375
  vertex 378500.0 5675500.0 5399.7998046875
  vertex 378500.0 5674500.0 5593.7998046875
 endloop
endfacet
facet normal 0.30869820713996887 -0.1811477094888687 -0.9337510466575623
 outer loop
  vertex 378500.0 5675500.0 5399.7998046875
  vertex 379500.0 5674500.0 5924.39990234375
  vertex 378500.0 5674500.0 5593.7998046875
 endloop
endfacet
facet normal 0.29125240445137024 -0.19956323504447937 -0.9355995059013367
 outer loop
  vertex 378500.0 5675500.0 5399.7998046875
  vertex 379500.0 5675500.0 5711.10009765625
  vertex 379500.0 5674500.0 5924.39990234375
 endloop
endfacet
facet normal -0.2821367681026459 -0.20013228058815002 -0.9382675290107727
 outer loop
  vertex 379500.0 5675500.0 5711.10009765625
  vertex 380500.0 5674500.0 5623.7001953125
  vertex 379500.0 5674500.0 5924.39990234375
 endloop
endfacet
facet normal 0.09677072614431381 0.1822890341281891 -0.9784713387489319
 outer loop
  vertex 379500.0 5675500.0 5711.10009765625
  vertex 380500.0 5675500.0 5810.0
  vertex 380500.0 5674500.0 5623.7001953125
 endloop
endfacet
facet normal 0.5305494070053101 -0.16295789182186127 -0.8318426012992859
 outer loop
  vertex 363500.0 5676500.0 4344.39990234375
  vertex 364500.0 5675500.0 5178.10009765625
  vertex 363500.0 5675500.0 4540.2998046875
 endloop
endfacet
facet normal 0.09789124876260757 -0.5777027010917664 -0.8103560209274292
 outer loop
  vertex 363500.0 5676500.0 4344.39990234375
  vertex 364500.0 5676500.0 4465.2001953125
  vertex 364500.0 5675500.0 5178.10009765625
 endloop
endfacet
facet normal 0.14028142392635345 -0.5747506618499756 -0.8062151074409485
 outer loop
  vertex 364500.0 5676500.0 4465.2001953125
  vertex 365500.0 5675500.0 5352.10009765625
  vertex 364500.0 5675500.0 5178.10009765625
 endloop
endfacet
facet normal 0.18073821067810059 -0.5452438592910767 -0.8185614347457886
 outer loop
  vertex 364500.0 5676500.0 4465.2001953125
  vertex 365500.0 5676500.0 4686.0
  vertex 365500.0 5675500.0 5352.10009765625
 endloop
endfacet
facet normal -0.19807130098342896 -0.5433902740478516 -0.8157786130905151
 outer loop
  vertex 365500.0 5676500.0 4686.0
  vertex 366500.0 5675500.0 5109.2998046875
  vertex 365500.0 5675500.0 5352.10009765625
 endloop
endfacet
facet normal -0.23357893526554108 -0.5677254796028137 -0.7893849611282349
 outer loop
  vertex 365500.0 5676500.0 4686.0
  vertex 366500.0 5676500.0 4390.10009765625
  vertex 366500.0 5675500.0 5109.2998046875
 endloop
endfacet
facet normal -0.36819568276405334 -0.5428584218025208 -0.7548090815544128
 outer loop
  vertex 366500.0 5676500.0 4390.10009765625
  vertex 367500.0 5675500.0 4621.5
  vertex 366500.0 5675500.0 5109.2998046875
 endloop
endfacet
facet normal -0.19010375440120697 -0.3977993428707123 -0.8975613117218018
 outer loop
  vertex 366500.0 5676500.0 4390.10009765625
  vertex 367500.0 5676500.0 4178.2998046875
  vertex 367500.0 5675500.0 4621.5
 endloop
endfacet
facet normal 0.4806891679763794 -0.3553059995174408 -0.8016828894615173
 outer loop
  vertex 367500.0 5676500.0 4178.2998046875
  vertex 368500.0 5675500.0 5221.10009765625
  vertex 367500.0 5675500.0 4621.5
 endloop
endfacet
facet normal 0.7666158676147461 0.10625969618558884 -0.633252739906311
 outer loop
  vertex 367500.0 5676500.0 4178.2998046875
  vertex 368500.0 5676500.0 5388.89990234375
  vertex 368500.0 5675500.0 5221.10009765625
 endloop
endfacet
facet normal 0.16326573491096497 0.16326573491096497 -0.9729791879653931
 outer loop
  vertex 368500.0 5676500.0 5388.89990234375
  vertex 369500.0 5675500.0 5388.89990234375
  vertex 368500.0 5675500.0 5221.10009765625
 endloop
endfacet
facet normal 0.41844817996025085 0.41844817996025085 -0.8061031103134155
 outer loop
  vertex 368500.0 5676500.0 5388.89990234375
  vertex 369500.0 5676500.0 5908.0
  vertex 369500.0 5675500.0 5388.89990234375
 endloop
endfacet
facet normal 0.4076552391052246 0.4207035303115845 -0.8104478120803833
 outer loop
  vertex 369500.0 5676500.0 5908.0
  vertex 370500.0 5675500.0 5891.89990234375
  vertex 369500.0 5675500.0 5388.89990234375
 endloop
endfacet
facet normal -0.0555705688893795 -0.03950794041156769 -0.9976727962493896
 outer loop
  vertex 369500.0 5676500.0 5908.0
  vertex 370500.0 5676500.0 5852.2998046875
  vertex 370500.0 5675500.0 5891.89990234375
 endloop
endfacet
facet normal -0.4277503788471222 -0.035766370594501495 -0.9031890034675598
 outer loop
  vertex 370500.0 5676500.0 5852.2998046875
  vertex 371500.0 5675500.0 5418.2998046875
  vertex 370500.0 5675500.0 5891.89990234375
 endloop
endfacet
facet normal -0.5832628607749939 -0.24749401211738586 -0.7736608982086182
 outer loop
  vertex 370500.0 5676500.0 5852.2998046875
  vertex 371500.0 5676500.0 5098.39990234375
  vertex 371500.0 5675500.0 5418.2998046875
 endloop
endfacet
facet normal 0.21141278743743896 -0.29780229926109314 -0.9309234023094177
 outer loop
  vertex 371500.0 5676500.0 5098.39990234375
  vertex 372500.0 5675500.0 5645.39990234375
  vertex 371500.0 5675500.0 5418.2998046875
 endloop
endfacet
facet normal 0.6322726011276245 0.22710266709327698 -0.7407128810882568
 outer loop
  vertex 371500.0 5676500.0 5098.39990234375
  vertex 372500.0 5676500.0 5952.0
  vertex 372500.0 5675500.0 5645.39990234375
 endloop
endfacet
facet normal -0.1637342870235443 0.289175808429718 -0.943169355392456
 outer loop
  vertex 372500.0 5676500.0 5952.0
  vertex 373500.0 5675500.0 5471.7998046875
  vertex 372500.0 5675500.0 5645.39990234375
 endloop
endfacet
facet normal -0.2792261242866516 0.17422112822532654 -0.9442879557609558
 outer loop
  vertex 372500.0 5676500.0 5952.0
  vertex 373500.0 5676500.0 5656.2998046875
  vertex 373500.0 5675500.0 5471.7998046875
 endloop
endfacet
facet normal -0.18366789817810059 0.17835119366645813 -0.9666731357574463
 outer loop
  vertex 373500.0 5676500.0 5656.2998046875
  vertex 374500.0 5675500.0 5281.7998046875
  vertex 373500.0 5675500.0 5471.7998046875
 endloop
endfacet
facet normal 0.09126465022563934 0.42799973487854004 -0.8991590738296509
 outer loop
  vertex 373500.0 5676500.0 5656.2998046875
  vertex 374500.0 5676500.0 5757.7998046875
  vertex 374500.0 5675500.0 5281.7998046875
 endloop
endfacet
facet normal 0.23328830301761627 0.4179343581199646 -0.8780133128166199
 outer loop
  vertex 374500.0 5676500.0 5757.7998046875
  vertex 375500.0 5675500.0 5547.5
  vertex 374500.0 5675500.0 5281.7998046875
 endloop
endfacet
facet normal -0.14768728613853455 0.059924278408288956 -0.9872170686721802
 outer loop
  vertex 374500.0 5676500.0 5757.7998046875
  vertex 375500.0 5676500.0 5608.2001953125
  vertex 375500.0 5675500.0 5547.5
 endloop
endfacet
facet normal 0.05499405041337013 0.028345495462417603 -0.9980842471122742
 outer loop
  vertex 376500.0 5676500.0 5463.7001953125
  vertex 377500.0 5676500.0 5518.7998046875
  vertex 377500.0 5675500.0 5490.39990234375
 endloop
endfacet
facet normal -0.0901944562792778 0.028272749856114388 -0.9955227375030518
 outer loop
  vertex 377500.0 5676500.0 5518.7998046875
  vertex 378500.0 5675500.0 5399.7998046875
  vertex 377500.0 5675500.0 5490.39990234375
 endloop
endfacet
facet normal -0.11493237316608429 0.0032784088980406523 -0.9933679103851318
 outer loop
  vertex 377500.0 5676500.0 5518.7998046875
  vertex 378500.0 5676500.0 5403.10009765625
  vertex 378500.0 5675500.0 5399.7998046875
 endloop
endfacet
facet normal 0.2972297668457031 0.0031511224806308746 -0.9548007845878601
 outer loop
  vertex 378500.0 5676500.0 5403.10009765625
  vertex 379500.0 5675500.0 5711.10009765625
  vertex 378500.0 5675500.0 5399.7998046875
 endloop
endfacet
facet normal 0.24122720956802368 -0.05715825408697128 -0.968783974647522
 outer loop
  vertex 378500.0 5676500.0 5403.10009765625
  vertex 379500.0 5676500.0 5652.10009765625
  vertex 379500.0 5675500.0 5711.10009765625
 endloop
endfacet
facet normal 0.09825054556131363 -0.05861261487007141 -0.9934341311454773
 outer loop
  vertex 379500.0 5676500.0 5652.10009765625
  vertex 380500.0 5675500.0 5810.0
  vertex 379500.0 5675500.0 5711.10009765625
 endloop
endfacet
facet normal -0.055064134299755096 -0.20922435820102692 -0.9763160943984985
 outer loop
  vertex 379500.0 5676500.0 5652.10009765625
  vertex 380500.0 5676500.0 5595.7001953125
  vertex 380500.0 5675500.0 5810.0
 endloop
endfacet
facet normal 0.026023516431450844 0.07198835164308548 -0.9970659017562866
 outer loop
  vertex 362500.0 5677500.0 4390.5
  vertex 363500.0 5677500.0 4416.60009765625
  vertex 363500.0 5676500.0 4344.39990234375
 endloop
endfacet
facet normal 0.11962151527404785 0.0714956596493721 -0.9902418851852417
 outer loop
  vertex 363500.0 5677500.0 4416.60009765625
  vertex 364500.0 5676500.0 4465.2001953125
  vertex 363500.0 5676500.0 4344.39990234375
 endloop
endfacet
facet normal 0.20362728834152222 0.15665851533412933 -0.9664336442947388
 outer loop
  vertex 363500.0 5677500.0 4416.60009765625
  vertex 364500.0 5677500.0 4627.2998046875
  vertex 364500.0 5676500.0 4465.2001953125
 endloop
endfacet
facet normal 0.21295540034770966 0.15634065866470337 -0.964472770690918
 outer loop
  vertex 364500.0 5677500.0 4627.2998046875
  vertex 365500.0 5676500.0 4686.0
  vertex 364500.0 5676500.0 4465.2001953125
 endloop
endfacet
facet normal -0.27943527698516846 -0.33231380581855774 -0.9008238315582275
 outer loop
  vertex 364500.0 5677500.0 4627.2998046875
  vertex 365500.0 5677500.0 4317.10009765625
  vertex 365500.0 5676500.0 4686.0
 endloop
endfacet
facet normal -0.2674960196018219 -0.3334886133670807 -0.9040084481239319
 outer loop
  vertex 365500.0 5677500.0 4317.10009765625
  vertex 366500.0 5676500.0 4390.10009765625
  vertex 365500.0 5676500.0 4686.0
 endloop
endfacet
facet normal -0.2854357957839966 -0.3505508303642273 -0.8919868469238281
 outer loop
  vertex 365500.0 5677500.0 4317.10009765625
  vertex 366500.0 5677500.0 3997.10009765625
  vertex 366500.0 5676500.0 4390.10009765625
 endloop
endfacet
facet normal -0.19340208172798157 -0.3588617146015167 -0.9131340980529785
 outer loop
  vertex 366500.0 5677500.0 3997.10009765625
  vertex 367500.0 5676500.0 4178.2998046875
  vertex 366500.0 5676500.0 4390.10009765625
 endloop
endfacet
facet normal 0.4707626700401306 0.3219195008277893 -0.8214318156242371
 outer loop
  vertex 366500.0 5677500.0 3997.10009765625
  vertex 367500.0 5677500.0 4570.2001953125
  vertex 367500.0 5676500.0 4178.2998046875
 endloop
endfacet
facet normal 0.7480342388153076 0.24215669929981232 -0.6179037094116211
 outer loop
  vertex 367500.0 5677500.0 4570.2001953125
  vertex 368500.0 5676500.0 5388.89990234375
  vertex 367500.0 5676500.0 4178.2998046875
 endloop
endfacet
facet normal 0.6676321029663086 0.06010694429278374 -0.7420610785484314
 outer loop
  vertex 367500.0 5677500.0 4570.2001953125
  vertex 368500.0 5677500.0 5469.89990234375
  vertex 368500.0 5676500.0 5388.89990234375
 endloop
endfacet
facet normal 0.45953795313835144 0.07170596718788147 -0.8852588534355164
 outer loop
  vertex 368500.0 5677500.0 5469.89990234375
  vertex 369500.0 5676500.0 5908.0
  vertex 368500.0 5676500.0 5388.89990234375
 endloop
endfacet
facet normal -0.29105353355407715 -0.6128876209259033 -0.7346131801605225
 outer loop
  vertex 368500.0 5677500.0 5469.89990234375
  vertex 369500.0 5677500.0 5073.7001953125
  vertex 369500.0 5676500.0 5908.0
 endloop
endfacet
facet normal -0.0427306666970253 -0.6400371193885803 -0.7671548128128052
 outer loop
  vertex 369500.0 5677500.0 5073.7001953125
  vertex 370500.0 5676500.0 5852.2998046875
  vertex 369500.0 5676500.0 5908.0
 endloop
endfacet
facet normal 0.43616753816604614 -0.23925013840198517 -0.867477536201477
 outer loop
  vertex 369500.0 5677500.0 5073.7001953125
  vertex 370500.0 5677500.0 5576.5
  vertex 370500.0 5676500.0 5852.2998046875
 endloop
endfacet
facet normal -0.5879033207893372 -0.21507315337657928 -0.7798161506652832
 outer loop
  vertex 370500.0 5677500.0 5576.5
  vertex 371500.0 5676500.0 5098.39990234375
  vertex 370500.0 5676500.0 5852.2998046875
 endloop
endfacet
facet normal 0.2316397726535797 0.5983517169952393 -0.7670190930366516
 outer loop
  vertex 370500.0 5677500.0 5576.5
  vertex 371500.0 5677500.0 5878.5
  vertex 371500.0 5676500.0 5098.39990234375
 endloop
endfacet
facet normal 0.5583512783050537 0.5102739334106445 -0.6541134119033813
 outer loop
  vertex 371500.0 5677500.0 5878.5
  vertex 372500.0 5676500.0 5952.0
  vertex 371500.0 5676500.0 5098.39990234375
 endloop
endfacet
facet normal -0.20213323831558228 -0.27129900455474854 -0.9410308003425598
 outer loop
  vertex 371500.0 5677500.0 5878.5
  vertex 372500.0 5677500.0 5663.7001953125
  vertex 372500.0 5676500.0 5952.0
 endloop
endfacet
facet normal -0.2733100354671478 -0.2664700150489807 -0.9242809414863586
 outer loop
  vertex 372500.0 5677500.0 5663.7001953125
  vertex 373500.0 5676500.0 5656.2998046875
  vertex 372500.0 5676500.0 5952.0
 endloop
endfacet
facet normal 0.30585983395576477 0.31251516938209534 -0.8993242383003235
 outer loop
  vertex 372500.0 5677500.0 5663.7001953125
  vertex 373500.0 5677500.0 6003.7998046875
  vertex 373500.0 5676500.0 5656.2998046875
 endloop
endfacet
facet normal 0.09543847292661667 0.32674747705459595 -0.940280556678772
 outer loop
  vertex 373500.0 5677500.0 6003.7998046875
  vertex 374500.0 5676500.0 5757.7998046875
  vertex 373500.0 5676500.0 5656.2998046875
 endloop
endfacet
facet normal -0.21526075899600983 0.024894101545214653 -0.9762392640113831
 outer loop
  vertex 373500.0 5677500.0 6003.7998046875
  vertex 374500.0 5677500.0 5783.2998046875
  vertex 374500.0 5676500.0 5757.7998046875
 endloop
endfacet
facet normal -0.14790615439414978 0.025211341679096222 -0.9886800646781921
 outer loop
  vertex 374500.0 5677500.0 5783.2998046875
  vertex 375500.0 5676500.0 5608.2001953125
  vertex 374500.0 5676500.0 5757.7998046875
 endloop
endfacet
facet normal -0.4369986355304718 -0.2877819240093231 -0.8521817326545715
 outer loop
  vertex 374500.0 5677500.0 5783.2998046875
  vertex 375500.0 5677500.0 5270.5
  vertex 375500.0 5676500.0 5608.2001953125
 endloop
endfacet
facet normal -0.13563910126686096 -0.31699204444885254 -0.9386789202690125
 outer loop
  vertex 375500.0 5677500.0 5270.5
  vertex 376500.0 5676500.0 5463.7001953125
  vertex 375500.0 5676500.0 5608.2001953125
 endloop
endfacet
facet normal 0.2081010788679123 0.0191668551415205 -0.9779195189476013
 outer loop
  vertex 375500.0 5677500.0 5270.5
  vertex 376500.0 5677500.0 5483.2998046875
  vertex 376500.0 5676500.0 5463.7001953125
 endloop
endfacet
facet normal 0.055005624890327454 0.01956617832183838 -0.9982942938804626
 outer loop
  vertex 376500.0 5677500.0 5483.2998046875
  vertex 377500.0 5676500.0 5518.7998046875
  vertex 376500.0 5676500.0 5463.7001953125
 endloop
endfacet
facet normal -0.0038968492299318314 -0.03936905786395073 -0.9992170929908752
 outer loop
  vertex 376500.0 5677500.0 5483.2998046875
  vertex 377500.0 5677500.0 5479.39990234375
  vertex 377500.0 5676500.0 5518.7998046875
 endloop
endfacet
facet normal -0.11484505981206894 -0.03910886496305466 -0.9926132559776306
 outer loop
  vertex 377500.0 5677500.0 5479.39990234375
  vertex 378500.0 5676500.0 5403.10009765625
  vertex 377500.0 5676500.0 5518.7998046875
 endloop
endfacet
facet normal -0.28491315245628357 -0.21361492574214935 -0.9344481229782104
 outer loop
  vertex 377500.0 5677500.0 5479.39990234375
  vertex 378500.0 5677500.0 5174.5
  vertex 378500.0 5676500.0 5403.10009765625
 endloop
endfacet
facet normal 0.23588821291923523 -0.21656252443790436 -0.9473422169685364
 outer loop
  vertex 378500.0 5677500.0 5174.5
  vertex 379500.0 5676500.0 5652.10009765625
  vertex 378500.0 5676500.0 5403.10009765625
 endloop
endfacet
facet normal 0.3058815896511078 -0.1436232626438141 -0.9411741495132446
 outer loop
  vertex 378500.0 5677500.0 5174.5
  vertex 379500.0 5677500.0 5499.5
  vertex 379500.0 5676500.0 5652.10009765625
 endloop
endfacet
facet normal -0.05566800758242607 -0.15061983466148376 -0.9870231747627258
 outer loop
  vertex 379500.0 5677500.0 5499.5
  vertex 380500.0 5676500.0 5595.7001953125
  vertex 379500.0 5676500.0 5652.10009765625
 endloop
endfacet
facet normal -0.4222632348537445 -0.49529775977134705 -0.759192943572998
 outer loop
  vertex 379500.0 5677500.0 5499.5
  vertex 380500.0 5677500.0 4943.2998046875
  vertex 380500.0 5676500.0 5595.7001953125
 endloop
endfacet
facet normal -0.07640939205884933 -0.5448034405708313 -0.835075318813324
 outer loop
  vertex 380500.0 5677500.0 4943.2998046875
  vertex 381500.0 5676500.0 5504.2001953125
  vertex 380500.0 5676500.0 5595.7001953125
 endloop
endfacet
facet normal 0.17906779050827026 -0.11654509603977203 -0.9769093990325928
 outer loop
  vertex 361500.0 5678500.0 4087.89990234375
  vertex 362500.0 5678500.0 4271.2001953125
  vertex 362500.0 5677500.0 4390.5
 endloop
endfacet
facet normal 0.02590762823820114 -0.11842004209756851 -0.9926255941390991
 outer loop
  vertex 362500.0 5678500.0 4271.2001953125
  vertex 363500.0 5677500.0 4416.60009765625
  vertex 362500.0 5677500.0 4390.5
 endloop
endfacet
facet normal 0.0045546358451247215 -0.13942360877990723 -0.9902223348617554
 outer loop
  vertex 362500.0 5678500.0 4271.2001953125
  vertex 363500.0 5678500.0 4275.7998046875
  vertex 363500.0 5677500.0 4416.60009765625
 endloop
endfacet
facet normal 0.20424357056617737 -0.1364859789609909 -0.9693586230278015
 outer loop
  vertex 363500.0 5678500.0 4275.7998046875
  vertex 364500.0 5677500.0 4627.2998046875
  vertex 363500.0 5677500.0 4416.60009765625
 endloop
endfacet
facet normal 0.24704065918922424 -0.09202517569065094 -0.9646254181861877
 outer loop
  vertex 363500.0 5678500.0 4275.7998046875
  vertex 364500.0 5678500.0 4531.89990234375
  vertex 364500.0 5677500.0 4627.2998046875
 endloop
endfacet
facet normal -0.2950505316257477 -0.0907408744096756 -0.951163113117218
 outer loop
  vertex 364500.0 5678500.0 4531.89990234375
  vertex 365500.0 5677500.0 4317.10009765625
  vertex 364500.0 5677500.0 4627.2998046875
 endloop
endfacet
facet normal -0.16269943118095398 0.04897705465555191 -0.9854593873023987
 outer loop
  vertex 364500.0 5678500.0 4531.89990234375
  vertex 365500.0 5678500.0 4366.7998046875
  vertex 365500.0 5677500.0 4317.10009765625
 endloop
endfacet
facet normal -0.3044348657131195 0.04728225991129875 -0.9513589143753052
 outer loop
  vertex 365500.0 5678500.0 4366.7998046875
  vertex 366500.0 5677500.0 3997.10009765625
  vertex 365500.0 5677500.0 4317.10009765625
 endloop
endfacet
facet normal 0.12917150557041168 0.45491936802864075 -0.8811147212982178
 outer loop
  vertex 365500.0 5678500.0 4366.7998046875
  vertex 366500.0 5678500.0 4513.39990234375
  vertex 366500.0 5677500.0 3997.10009765625
 endloop
endfacet
facet normal 0.45378372073173523 0.4088089168071747 -0.7918052673339844
 outer loop
  vertex 366500.0 5678500.0 4513.39990234375
  vertex 367500.0 5677500.0 4570.2001953125
  vertex 366500.0 5677500.0 3997.10009765625
 endloop
endfacet
facet normal -0.3916560709476471 -0.43762877583503723 -0.8093741536140442
 outer loop
  vertex 366500.0 5678500.0 4513.39990234375
  vertex 367500.0 5678500.0 4029.5
  vertex 367500.0 5677500.0 4570.2001953125
 endloop
endfacet
facet normal 0.6205834746360779 -0.37295734882354736 -0.6897673606872559
 outer loop
  vertex 367500.0 5678500.0 4029.5
  vertex 368500.0 5677500.0 5469.89990234375
  vertex 367500.0 5677500.0 4570.2001953125
 endloop
endfacet
facet normal 0.08593563735485077 -0.7894658446311951 -0.6077489256858826
 outer loop
  vertex 367500.0 5678500.0 4029.5
  vertex 368500.0 5678500.0 4170.89990234375
  vertex 368500.0 5677500.0 5469.89990234375
 endloop
endfacet
facet normal -0.23492038249969482 -0.7702216506004333 -0.5929343104362488
 outer loop
  vertex 368500.0 5678500.0 4170.89990234375
  vertex 369500.0 5677500.0 5073.7001953125
  vertex 368500.0 5677500.0 5469.89990234375
 endloop
endfacet
facet normal 0.05585136637091637 -0.6377180218696594 -0.7682422995567322
 outer loop
  vertex 368500.0 5678500.0 4170.89990234375
  vertex 369500.0 5678500.0 4243.60009765625
  vertex 369500.0 5677500.0 5073.7001953125
 endloop
endfacet
facet normal 0.3608149588108063 -0.5956895351409912 -0.7176116704940796
 outer loop
  vertex 369500.0 5678500.0 4243.60009765625
  vertex 370500.0 5677500.0 5576.5
  vertex 369500.0 5677500.0 5073.7001953125
 endloop
endfacet
facet normal 0.3319670557975769 -0.6179664134979248 -0.712681770324707
 outer loop
  vertex 369500.0 5678500.0 4243.60009765625
  vertex 370500.0 5678500.0 4709.39990234375
  vertex 370500.0 5677500.0 5576.5
 endloop
endfacet
facet normal 0.2224520593881607 -0.6387026906013489 -0.7365962266921997
 outer loop
  vertex 370500.0 5678500.0 4709.39990234375
  vertex 371500.0 5677500.0 5878.5
  vertex 370500.0 5677500.0 5576.5
 endloop
endfacet
facet normal 0.06879344582557678 -0.728297770023346 -0.6817989349365234
 outer loop
  vertex 370500.0 5678500.0 4709.39990234375
  vertex 371500.0 5678500.0 4810.2998046875
  vertex 371500.0 5677500.0 5878.5
 endloop
endfacet
facet normal -0.14524149894714355 -0.7222862839698792 -0.6761711835861206
 outer loop
  vertex 371500.0 5678500.0 4810.2998046875
  vertex 372500.0 5677500.0 5663.7001953125
  vertex 371500.0 5677500.0 5878.5
 endloop
endfacet
facet normal 0.6488845348358154 -0.00045657966984435916 -0.7608868479728699
 outer loop
  vertex 371500.0 5678500.0 4810.2998046875
  vertex 372500.0 5678500.0 5663.10009765625
  vertex 372500.0 5677500.0 5663.7001953125
 endloop
endfacet
facet normal 0.32198724150657654 -0.0005681387847289443 -0.946743905544281
 outer loop
  vertex 372500.0 5678500.0 5663.10009765625
  vertex 373500.0 5677500.0 6003.7998046875
  vertex 372500.0 5677500.0 5663.7001953125
 endloop
endfacet
facet normal 0.2764870524406433 -0.050479382276535034 -0.9596909284591675
 outer loop
  vertex 372500.0 5678500.0 5663.10009765625
  vertex 373500.0 5678500.0 5951.2001953125
  vertex 373500.0 5677500.0 6003.7998046875
 endloop
endfacet
facet normal -0.21504399180412292 -0.05129809305071831 -0.9752561450004578
 outer loop
  vertex 373500.0 5678500.0 5951.2001953125
  vertex 374500.0 5677500.0 5783.2998046875
  vertex 373500.0 5677500.0 6003.7998046875
 endloop
endfacet
facet normal -0.2249220460653305 -0.06165161356329918 -0.972424328327179
 outer loop
  vertex 373500.0 5678500.0 5951.2001953125
  vertex 374500.0 5678500.0 5719.89990234375
  vertex 374500.0 5677500.0 5783.2998046875
 endloop
endfacet
facet normal -0.45557767152786255 -0.05632525309920311 -0.8884122967720032
 outer loop
  vertex 374500.0 5678500.0 5719.89990234375
  vertex 375500.0 5677500.0 5270.5
  vertex 374500.0 5677500.0 5783.2998046875
 endloop
endfacet
facet normal -0.5884982943534851 -0.24178731441497803 -0.7714977264404297
 outer loop
  vertex 374500.0 5678500.0 5719.89990234375
  vertex 375500.0 5678500.0 4957.10009765625
  vertex 375500.0 5677500.0 5270.5
 endloop
endfacet
facet normal 0.19899971783161163 -0.29307591915130615 -0.9351500272750854
 outer loop
  vertex 375500.0 5678500.0 4957.10009765625
  vertex 376500.0 5677500.0 5483.2998046875
  vertex 375500.0 5677500.0 5270.5
 endloop
endfacet
facet normal 0.38913092017173767 -0.09311241656541824 -0.9164645075798035
 outer loop
  vertex 375500.0 5678500.0 4957.10009765625
  vertex 376500.0 5678500.0 5381.7001953125
  vertex 376500.0 5677500.0 5483.2998046875
 endloop
endfacet
facet normal -0.0038799031171947718 -0.10107849538326263 -0.9948709011077881
 outer loop
  vertex 376500.0 5678500.0 5381.7001953125
  vertex 377500.0 5677500.0 5479.39990234375
  vertex 376500.0 5677500.0 5483.2998046875
 endloop
endfacet
facet normal -0.031521279364824295 -0.12836377322673798 -0.991226077079773
 outer loop
  vertex 376500.0 5678500.0 5381.7001953125
  vertex 377500.0 5678500.0 5349.89990234375
  vertex 377500.0 5677500.0 5479.39990234375
 endloop
endfacet
facet normal -0.2894328236579895 -0.12293067574501038 -0.9492716193199158
 outer loop
  vertex 377500.0 5678500.0 5349.89990234375
  vertex 378500.0 5677500.0 5174.5
  vertex 377500.0 5677500.0 5479.39990234375
 endloop
endfacet
facet normal -0.23498964309692383 -0.06488154083490372 -0.9698300361633301
 outer loop
  vertex 377500.0 5678500.0 5349.89990234375
  vertex 378500.0 5678500.0 5107.60009765625
  vertex 378500.0 5677500.0 5174.5
 endloop
endfacet
facet normal 0.30846238136291504 -0.0634957030415535 -0.949114978313446
 outer loop
  vertex 378500.0 5678500.0 5107.60009765625
  vertex 379500.0 5677500.0 5499.5
  vertex 378500.0 5677500.0 5174.5
 endloop
endfacet
facet normal 0.26431551575660706 -0.11112942546606064 -0.9580122828483582
 outer loop
  vertex 378500.0 5678500.0 5107.60009765625
  vertex 379500.0 5678500.0 5383.5
  vertex 379500.0 5677500.0 5499.5
 endloop
endfacet
facet normal -0.4835948348045349 -0.10085757076740265 -0.8694618344306946
 outer loop
  vertex 379500.0 5678500.0 5383.5
  vertex 380500.0 5677500.0 4943.2998046875
  vertex 379500.0 5677500.0 5499.5
 endloop
endfacet
facet normal -0.6169450283050537 -0.29592928290367126 -0.7292494773864746
 outer loop
  vertex 379500.0 5678500.0 5383.5
  vertex 380500.0 5678500.0 4537.5
  vertex 380500.0 5677500.0 4943.2998046875
 endloop
endfacet
facet normal 0.2467392086982727 -0.10434126853942871 -0.9634483456611633
 outer loop
  vertex 363500.0 5679500.0 4167.5
  vertex 364500.0 5678500.0 4531.89990234375
  vertex 363500.0 5678500.0 4275.7998046875
 endloop
endfacet
facet normal 0.036100853234529495 -0.3100872337818146 -0.9500223994255066
 outer loop
  vertex 363500.0 5679500.0 4167.5
  vertex 364500.0 5679500.0 4205.5
  vertex 364500.0 5678500.0 4531.89990234375
 endloop
endfacet
facet normal -0.15505295991897583 -0.30653688311576843 -0.9391451478004456
 outer loop
  vertex 364500.0 5679500.0 4205.5
  vertex 365500.0 5678500.0 4366.7998046875
  vertex 364500.0 5678500.0 4531.89990234375
 endloop
endfacet
facet normal -0.2131962776184082 -0.3597174882888794 -0.9083780646324158
 outer loop
  vertex 364500.0 5679500.0 4205.5
  vertex 365500.0 5679500.0 3970.800048828125
  vertex 365500.0 5678500.0 4366.7998046875
 endloop
endfacet
facet normal 0.13505326211452484 -0.3648090660572052 -0.9212356209754944
 outer loop
  vertex 365500.0 5679500.0 3970.800048828125
  vertex 366500.0 5678500.0 4513.39990234375
  vertex 365500.0 5678500.0 4366.7998046875
 endloop
endfacet
facet normal 0.47725653648376465 0.00043938192538917065 -0.8787638545036316
 outer loop
  vertex 365500.0 5679500.0 3970.800048828125
  vertex 366500.0 5679500.0 4513.89990234375
  vertex 366500.0 5678500.0 4513.39990234375
 endloop
endfacet
facet normal -0.4355819821357727 0.0004500744689721614 -0.9001489281654358
 outer loop
  vertex 366500.0 5679500.0 4513.89990234375
  vertex 367500.0 5678500.0 4029.5
  vertex 366500.0 5678500.0 4513.39990234375
 endloop
endfacet
facet normal -0.2540418803691864 0.20393352210521698 -0.9454489946365356
 outer loop
  vertex 366500.0 5679500.0 4513.89990234375
  vertex 367500.0 5679500.0 4245.2001953125
  vertex 367500.0 5678500.0 4029.5
 endloop
endfacet
facet normal 0.13691923022270203 0.20886512100696564 -0.96831214427948
 outer loop
  vertex 367500.0 5679500.0 4245.2001953125
  vertex 368500.0 5678500.0 4170.89990234375
  vertex 367500.0 5678500.0 4029.5
 endloop
endfacet
facet normal 0.4957529902458191 0.5459364056587219 -0.6754128336906433
 outer loop
  vertex 367500.0 5679500.0 4245.2001953125
  vertex 368500.0 5679500.0 4979.2001953125
  vertex 368500.0 5678500.0 4170.89990234375
 endloop
endfacet
facet normal 0.05644950270652771 0.6276208162307739 -0.776469886302948
 outer loop
  vertex 368500.0 5679500.0 4979.2001953125
  vertex 369500.0 5678500.0 4243.60009765625
  vertex 368500.0 5678500.0 4170.89990234375
 endloop
endfacet
facet normal -0.6590293645858765 -0.11193308234214783 -0.7437413930892944
 outer loop
  vertex 368500.0 5679500.0 4979.2001953125
  vertex 369500.0 5679500.0 4093.10009765625
  vertex 369500.0 5678500.0 4243.60009765625
 endloop
endfacet
facet normal 0.4183647334575653 -0.1351737231016159 -0.8981642127037048
 outer loop
  vertex 369500.0 5679500.0 4093.10009765625
  vertex 370500.0 5678500.0 4709.39990234375
  vertex 369500.0 5678500.0 4243.60009765625
 endloop
endfacet
facet normal -0.026511000469326973 -0.5435576438903809 -0.8389530777931213
 outer loop
  vertex 369500.0 5679500.0 4093.10009765625
  vertex 370500.0 5679500.0 4061.5
  vertex 370500.0 5678500.0 4709.39990234375
 endloop
endfacet
facet normal 0.08437809348106384 -0.541809618473053 -0.8362551927566528
 outer loop
  vertex 370500.0 5679500.0 4061.5
  vertex 371500.0 5678500.0 4810.2998046875
  vertex 370500.0 5678500.0 4709.39990234375
 endloop
endfacet
facet normal 0.07692955434322357 -0.54717618227005 -0.8334747552871704
 outer loop
  vertex 370500.0 5679500.0 4061.5
  vertex 371500.0 5679500.0 4153.7998046875
  vertex 371500.0 5678500.0 4810.2998046875
 endloop
endfacet
facet normal 0.5804908871650696 -0.44687166810035706 -0.6806879639625549
 outer loop
  vertex 371500.0 5679500.0 4153.7998046875
  vertex 372500.0 5678500.0 5663.10009765625
  vertex 371500.0 5678500.0 4810.2998046875
 endloop
endfacet
facet normal 0.42832040786743164 -0.5963486433029175 -0.6789034008979797
 outer loop
  vertex 371500.0 5679500.0 4153.7998046875
  vertex 372500.0 5679500.0 4784.7001953125
  vertex 372500.0 5678500.0 5663.10009765625
 endloop
endfacet
facet normal 0.21155326068401337 -0.6450130939483643 -0.7343046069145203
 outer loop
  vertex 372500.0 5679500.0 4784.7001953125
  vertex 373500.0 5678500.0 5951.2001953125
  vertex 372500.0 5678500.0 5663.10009765625
 endloop
endfacet
facet normal 0.6464377641677856 -0.20939014852046967 -0.7336716055870056
 outer loop
  vertex 372500.0 5679500.0 4784.7001953125
  vertex 373500.0 5679500.0 5665.7998046875
  vertex 373500.0 5678500.0 5951.2001953125
 endloop
endfacet
facet normal -0.2171136736869812 -0.26789557933807373 -0.9386658072471619
 outer loop
  vertex 373500.0 5679500.0 5665.7998046875
  vertex 374500.0 5678500.0 5719.89990234375
  vertex 373500.0 5678500.0 5951.2001953125
 endloop
endfacet
facet normal -0.04710526019334793 -0.1008690670132637 -0.9937839508056641
 outer loop
  vertex 373500.0 5679500.0 5665.7998046875
  vertex 374500.0 5679500.0 5618.39990234375
  vertex 374500.0 5678500.0 5719.89990234375
 endloop
endfacet
facet normal -0.60452800989151 -0.0804399698972702 -0.7925119996070862
 outer loop
  vertex 374500.0 5679500.0 5618.39990234375
  vertex 375500.0 5678500.0 4957.10009765625
  vertex 374500.0 5678500.0 5719.89990234375
 endloop
endfacet
facet normal -0.3909054696559906 0.2028147280216217 -0.8978078961372375
 outer loop
  vertex 374500.0 5679500.0 5618.39990234375
  vertex 375500.0 5679500.0 5183.0
  vertex 375500.0 5678500.0 4957.10009765625
 endloop
endfacet
facet normal 0.38264432549476624 0.2035781890153885 -0.9011875987052917
 outer loop
  vertex 375500.0 5679500.0 5183.0
  vertex 376500.0 5678500.0 5381.7001953125
  vertex 375500.0 5678500.0 4957.10009765625
 endloop
endfacet
facet normal -0.13162685930728912 -0.31817638874053955 -0.9388493299484253
 outer loop
  vertex 375500.0 5679500.0 5183.0
  vertex 376500.0 5679500.0 5042.7998046875
  vertex 376500.0 5678500.0 5381.7001953125
 endloop
endfacet
facet normal -0.03010406717658043 -0.3208235800266266 -0.9466603994369507
 outer loop
  vertex 376500.0 5679500.0 5042.7998046875
  vertex 377500.0 5678500.0 5349.89990234375
  vertex 376500.0 5678500.0 5381.7001953125
 endloop
endfacet
facet normal 0.35065582394599915 0.06372176110744476 -0.9343340396881104
 outer loop
  vertex 376500.0 5679500.0 5042.7998046875
  vertex 377500.0 5679500.0 5418.10009765625
  vertex 377500.0 5678500.0 5349.89990234375
 endloop
endfacet
facet normal -0.23497022688388824 0.06613713502883911 -0.969749927520752
 outer loop
  vertex 377500.0 5679500.0 5418.10009765625
  vertex 378500.0 5678500.0 5107.60009765625
  vertex 377500.0 5678500.0 5349.89990234375
 endloop
endfacet
facet normal -0.17629043757915497 0.12680010497570038 -0.9761369824409485
 outer loop
  vertex 377500.0 5679500.0 5418.10009765625
  vertex 378500.0 5679500.0 5237.5
  vertex 378500.0 5678500.0 5107.60009765625
 endloop
endfacet
facet normal 0.26390188932418823 0.12425097823143005 -0.9565132260322571
 outer loop
  vertex 378500.0 5679500.0 5237.5
  vertex 379500.0 5678500.0 5383.5
  vertex 378500.0 5678500.0 5107.60009765625
 endloop
endfacet
facet normal 0.4129234254360199 0.5014232397079468 -0.7603085041046143
 outer loop
  vertex 365500.0 5680500.0 4630.2998046875
  vertex 366500.0 5679500.0 4513.89990234375
  vertex 365500.0 5679500.0 3970.800048828125
 endloop
endfacet
facet normal 0.10038436204195023 0.2134985625743866 -0.9717722535133362
 outer loop
  vertex 365500.0 5680500.0 4630.2998046875
  vertex 366500.0 5680500.0 4733.60009765625
  vertex 366500.0 5679500.0 4513.89990234375
 endloop
endfacet
facet normal -0.25384438037872314 0.20755381882190704 -0.9447139501571655
 outer loop
  vertex 366500.0 5680500.0 4733.60009765625
  vertex 367500.0 5679500.0 4245.2001953125
  vertex 366500.0 5679500.0 4513.89990234375
 endloop
endfacet
facet normal 0.05031997710466385 0.4784787595272064 -0.8766561150550842
 outer loop
  vertex 366500.0 5680500.0 4733.60009765625
  vertex 367500.0 5680500.0 4791.0
  vertex 367500.0 5679500.0 4245.2001953125
 endloop
endfacet
facet normal 0.54160475730896 0.4027353823184967 -0.7378811240196228
 outer loop
  vertex 367500.0 5680500.0 4791.0
  vertex 368500.0 5679500.0 4979.2001953125
  vertex 367500.0 5679500.0 4245.2001953125
 endloop
endfacet
facet normal -0.08218790590763092 -0.2630976140499115 -0.9612621068954468
 outer loop
  vertex 367500.0 5680500.0 4791.0
  vertex 368500.0 5680500.0 4705.5
  vertex 368500.0 5679500.0 4979.2001953125
 endloop
endfacet
facet normal -0.6497052311897278 -0.2006821185350418 -0.733218789100647
 outer loop
  vertex 368500.0 5680500.0 4705.5
  vertex 369500.0 5679500.0 4093.10009765625
  vertex 368500.0 5679500.0 4979.2001953125
 endloop
endfacet
facet normal -0.20909655094146729 0.3500767946243286 -0.9130853414535522
 outer loop
  vertex 368500.0 5680500.0 4705.5
  vertex 369500.0 5680500.0 4476.5
  vertex 369500.0 5679500.0 4093.10009765625
 endloop
endfacet
facet normal -0.029492972418665886 0.35783445835113525 -0.9333191514015198
 outer loop
  vertex 369500.0 5680500.0 4476.5
  vertex 370500.0 5679500.0 4061.5
  vertex 369500.0 5679500.0 4093.10009765625
 endloop
endfacet
facet normal 0.10662098973989487 0.4702005982398987 -0.8760954737663269
 outer loop
  vertex 369500.0 5680500.0 4476.5
  vertex 370500.0 5680500.0 4598.2001953125
  vertex 370500.0 5679500.0 4061.5
 endloop
endfacet
facet normal 0.08105941861867905 0.4713400900363922 -0.8782186508178711
 outer loop
  vertex 370500.0 5680500.0 4598.2001953125
  vertex 371500.0 5679500.0 4153.7998046875
  vertex 370500.0 5679500.0 4061.5
 endloop
endfacet
facet normal -0.035744450986385345 0.37577906250953674 -0.9260197281837463
 outer loop
  vertex 370500.0 5680500.0 4598.2001953125
  vertex 371500.0 5680500.0 4559.60009765625
  vertex 371500.0 5679500.0 4153.7998046875
 endloop
endfacet
facet normal 0.5046865344047546 0.32461851835250854 -0.7999464869499207
 outer loop
  vertex 371500.0 5680500.0 4559.60009765625
  vertex 372500.0 5679500.0 4784.7001953125
  vertex 371500.0 5679500.0 4153.7998046875
 endloop
endfacet
facet normal -0.32126912474632263 -0.50201815366745 -0.8029718995094299
 outer loop
  vertex 371500.0 5680500.0 4559.60009765625
  vertex 372500.0 5680500.0 4159.5
  vertex 372500.0 5679500.0 4784.7001953125
 endloop
endfacet
facet normal 0.5985140204429626 -0.4246864914894104 -0.6792808175086975
 outer loop
  vertex 372500.0 5680500.0 4159.5
  vertex 373500.0 5679500.0 5665.7998046875
  vertex 372500.0 5679500.0 4784.7001953125
 endloop
endfacet
facet normal 0.02985605224967003 -0.8235025405883789 -0.5665264129638672
 outer loop
  vertex 372500.0 5680500.0 4159.5
  vertex 373500.0 5680500.0 4212.2001953125
  vertex 373500.0 5679500.0 5665.7998046875
 endloop
endfacet
facet normal -0.02685556747019291 -0.8235726952552795 -0.5665746331214905
 outer loop
  vertex 373500.0 5680500.0 4212.2001953125
  vertex 374500.0 5679500.0 5618.39990234375
  vertex 373500.0 5679500.0 5665.7998046875
 endloop
endfacet
facet normal 0.41488468647003174 -0.5757943391799927 -0.7045080065727234
 outer loop
  vertex 373500.0 5680500.0 4212.2001953125
  vertex 374500.0 5680500.0 4801.10009765625
  vertex 374500.0 5679500.0 5618.39990234375
 endloop
endfacet
facet normal -0.3194609582424164 -0.599668025970459 -0.7337185144424438
 outer loop
  vertex 374500.0 5680500.0 4801.10009765625
  vertex 375500.0 5679500.0 5183.0
  vertex 374500.0 5679500.0 5618.39990234375
 endloop
endfacet
facet normal -0.22609467804431915 -0.536578357219696 -0.8129974603652954
 outer loop
  vertex 374500.0 5680500.0 4801.10009765625
  vertex 375500.0 5680500.0 4523.0
  vertex 375500.0 5679500.0 5183.0
 endloop
endfacet
facet normal -0.11621946096420288 -0.5471094250679016 -0.8289536833763123
 outer loop
  vertex 375500.0 5680500.0 4523.0
  vertex 376500.0 5679500.0 5042.7998046875
  vertex 375500.0 5679500.0 5183.0
 endloop
endfacet
facet normal -0.16395586729049683 -0.5790767073631287 -0.7986167073249817
 outer loop
  vertex 375500.0 5680500.0 4523.0
  vertex 376500.0 5680500.0 4317.7001953125
  vertex 376500.0 5679500.0 5042.7998046875
 endloop
endfacet
facet normal 0.2907104194164276 -0.5616676807403564 -0.7746075987815857
 outer loop
  vertex 376500.0 5680500.0 4317.7001953125
  vertex 377500.0 5679500.0 5418.10009765625
  vertex 376500.0 5679500.0 5042.7998046875
 endloop
endfacet
facet normal 0.6233301758766174 -0.20656995475292206 -0.7541804909706116
 outer loop
  vertex 376500.0 5680500.0 4317.7001953125
  vertex 377500.0 5680500.0 5144.2001953125
  vertex 377500.0 5679500.0 5418.10009765625
 endloop
endfacet
facet normal -0.17160072922706604 -0.26025137305259705 -0.9501696825027466
 outer loop
  vertex 377500.0 5680500.0 5144.2001953125
  vertex 378500.0 5679500.0 5237.5
  vertex 377500.0 5679500.0 5418.10009765625
 endloop
endfacet
facet normal 0.5570783019065857 0.49485474824905396 -0.6669201254844666
 outer loop
  vertex 377500.0 5680500.0 5144.2001953125
  vertex 378500.0 5680500.0 5979.5
  vertex 378500.0 5679500.0 5237.5
 endloop
endfacet
facet normal 0.10256855934858322 0.05997253954410553 -0.9929164052009583
 outer loop
  vertex 365500.0 5681500.0 4690.7001953125
  vertex 366500.0 5680500.0 4733.60009765625
  vertex 365500.0 5680500.0 4630.2998046875
 endloop
endfacet
facet normal 0.022189486771821976 -0.020690666511654854 -0.9995396733283997
 outer loop
  vertex 365500.0 5681500.0 4690.7001953125
  vertex 366500.0 5681500.0 4712.89990234375
  vertex 366500.0 5680500.0 4733.60009765625
 endloop
endfacet
facet normal 0.05729334056377411 -0.020661767572164536 -0.9981435537338257
 outer loop
  vertex 366500.0 5681500.0 4712.89990234375
  vertex 367500.0 5680500.0 4791.0
  vertex 366500.0 5680500.0 4733.60009765625
 endloop
endfacet
facet normal 0.3080885708332062 0.23611211776733398 -0.9215922951698303
 outer loop
  vertex 366500.0 5681500.0 4712.89990234375
  vertex 367500.0 5681500.0 5047.2001953125
  vertex 367500.0 5680500.0 4791.0
 endloop
endfacet
facet normal -0.0825423151254654 0.2473374903202057 -0.9654071927070618
 outer loop
  vertex 367500.0 5681500.0 5047.2001953125
  vertex 368500.0 5680500.0 4705.5
  vertex 367500.0 5680500.0 4791.0
 endloop
endfacet
facet normal -0.10233408957719803 0.2284843921661377 -0.9681541919708252
 outer loop
  vertex 367500.0 5681500.0 5047.2001953125
  vertex 368500.0 5681500.0 4941.5
  vertex 368500.0 5680500.0 4705.5
 endloop
endfacet
facet normal -0.21753981709480286 0.22418950498104095 -0.9499555230140686
 outer loop
  vertex 368500.0 5681500.0 4941.5
  vertex 369500.0 5680500.0 4476.5
  vertex 368500.0 5680500.0 4705.5
 endloop
endfacet
facet normal -0.041827235370874405 0.38658037781715393 -0.9213067293167114
 outer loop
  vertex 368500.0 5681500.0 4941.5
  vertex 369500.0 5681500.0 4896.10009765625
  vertex 369500.0 5680500.0 4476.5
 endloop
endfacet
facet normal 0.11152137815952301 0.38450542092323303 -0.9163616299629211
 outer loop
  vertex 369500.0 5681500.0 4896.10009765625
  vertex 370500.0 5680500.0 4598.2001953125
  vertex 369500.0 5680500.0 4476.5
 endloop
endfacet
facet normal -0.35850244760513306 -0.0814652293920517 -0.9299674034118652
 outer loop
  vertex 369500.0 5681500.0 4896.10009765625
  vertex 370500.0 5681500.0 4510.60009765625
  vertex 370500.0 5680500.0 4598.2001953125
 endloop
endfacet
facet normal -0.03842443972826004 -0.08720146119594574 -0.9954493641853333
 outer loop
  vertex 370500.0 5681500.0 4510.60009765625
  vertex 371500.0 5680500.0 4559.60009765625
  vertex 370500.0 5680500.0 4598.2001953125
 endloop
endfacet
facet normal 0.4534001648426056 0.4147424101829529 -0.7889341115951538
 outer loop
  vertex 370500.0 5681500.0 4510.60009765625
  vertex 371500.0 5681500.0 5085.2998046875
  vertex 371500.0 5680500.0 4559.60009765625
 endloop
endfacet
facet normal -0.3338296413421631 0.4386255443096161 -0.8343652486801147
 outer loop
  vertex 371500.0 5681500.0 5085.2998046875
  vertex 372500.0 5680500.0 4159.5
  vertex 371500.0 5680500.0 4559.60009765625
 endloop
endfacet
facet normal -0.4643933176994324 0.3052728772163391 -0.831352710723877
 outer loop
  vertex 371500.0 5681500.0 5085.2998046875
  vertex 372500.0 5681500.0 4526.7001953125
  vertex 372500.0 5680500.0 4159.5
 endloop
endfacet
facet normal 0.04940999299287796 0.34427502751350403 -0.9375677108764648
 outer loop
  vertex 372500.0 5681500.0 4526.7001953125
  vertex 373500.0 5680500.0 4212.2001953125
  vertex 372500.0 5680500.0 4159.5
 endloop
endfacet
facet normal 0.05032850801944733 0.34508460760116577 -0.9372212886810303
 outer loop
  vertex 372500.0 5681500.0 4526.7001953125
  vertex 373500.0 5681500.0 4580.39990234375
  vertex 373500.0 5680500.0 4212.2001953125
 endloop
endfacet
facet normal 0.4836849272251129 0.3024158477783203 -0.8213364481925964
 outer loop
  vertex 373500.0 5681500.0 4580.39990234375
  vertex 374500.0 5680500.0 4801.10009765625
  vertex 373500.0 5680500.0 4212.2001953125
 endloop
endfacet
facet normal -0.29680049419403076 -0.4791104197502136 -0.8260524272918701
 outer loop
  vertex 373500.0 5681500.0 4580.39990234375
  vertex 374500.0 5681500.0 4221.10009765625
  vertex 374500.0 5680500.0 4801.10009765625
 endloop
endfacet
facet normal -0.233892560005188 -0.4878016412258148 -0.8410373330116272
 outer loop
  vertex 374500.0 5681500.0 4221.10009765625
  vertex 375500.0 5680500.0 4523.0
  vertex 374500.0 5680500.0 4801.10009765625
 endloop
endfacet
facet normal 0.09814564138650894 -0.19638848304748535 -0.9756019115447998
 outer loop
  vertex 374500.0 5681500.0 4221.10009765625
  vertex 375500.0 5681500.0 4321.7001953125
  vertex 375500.0 5680500.0 4523.0
 endloop
endfacet
facet normal -0.19730612635612488 -0.19346188008785248 -0.9610633850097656
 outer loop
  vertex 375500.0 5681500.0 4321.7001953125
  vertex 376500.0 5680500.0 4317.7001953125
  vertex 375500.0 5680500.0 4523.0
 endloop
endfacet
facet normal 0.14730355143547058 0.1512134075164795 -0.9774641394615173
 outer loop
  vertex 375500.0 5681500.0 4321.7001953125
  vertex 376500.0 5681500.0 4472.39990234375
  vertex 376500.0 5680500.0 4317.7001953125
 endloop
endfacet
facet normal 0.6325891613960266 0.11840453743934631 -0.7653831243515015
 outer loop
  vertex 376500.0 5681500.0 4472.39990234375
  vertex 377500.0 5680500.0 5144.2001953125
  vertex 376500.0 5680500.0 4317.7001953125
 endloop
endfacet
facet normal 0.17975476384162903 -0.4183599650859833 -0.8903162479400635
 outer loop
  vertex 376500.0 5681500.0 4472.39990234375
  vertex 377500.0 5681500.0 4674.2998046875
  vertex 377500.0 5680500.0 5144.2001953125
 endloop
endfacet
facet normal 0.6030562520027161 -0.3392510712146759 -0.7219638228416443
 outer loop
  vertex 377500.0 5681500.0 4674.2998046875
  vertex 378500.0 5680500.0 5979.5
  vertex 377500.0 5680500.0 5144.2001953125
 endloop
endfacet
facet normal 0.14049015939235687 -0.7310281991958618 -0.6677277088165283
 outer loop
  vertex 377500.0 5681500.0 4674.2998046875
  vertex 378500.0 5681500.0 4884.7001953125
  vertex 378500.0 5680500.0 5979.5
 endloop
endfacet
facet normal -0.104645736515522 -0.09434957802295685 -0.9900239706039429
 outer loop
  vertex 367500.0 5682500.0 4951.89990234375
  vertex 368500.0 5681500.0 4941.5
  vertex 367500.0 5681500.0 5047.2001953125
 endloop
endfacet
facet normal 0.481448769569397 0.4890133738517761 -0.7273740172386169
 outer loop
  vertex 367500.0 5682500.0 4951.89990234375
  vertex 368500.0 5682500.0 5613.7998046875
  vertex 368500.0 5681500.0 4941.5
 endloop
endfacet
facet normal -0.03765002265572548 0.5575368404388428 -0.8292979598045349
 outer loop
  vertex 368500.0 5682500.0 5613.7998046875
  vertex 369500.0 5681500.0 4896.10009765625
  vertex 368500.0 5681500.0 4941.5
 endloop
endfacet
facet normal -0.3562164604663849 0.2829246520996094 -0.890541136264801
 outer loop
  vertex 368500.0 5682500.0 5613.7998046875
  vertex 369500.0 5682500.0 5213.7998046875
  vertex 369500.0 5681500.0 4896.10009765625
 endloop
endfacet
facet normal -0.3448646664619446 0.2842111885547638 -0.8945906162261963
 outer loop
  vertex 369500.0 5682500.0 5213.7998046875
  vertex 370500.0 5681500.0 4510.60009765625
  vertex 369500.0 5681500.0 4896.10009765625
 endloop
endfacet
facet normal 0.21038630604743958 0.6943362355232239 -0.6882112622261047
 outer loop
  vertex 369500.0 5682500.0 5213.7998046875
  vertex 370500.0 5682500.0 5519.5
  vertex 370500.0 5681500.0 4510.60009765625
 endloop
endfacet
facet normal 0.3750396966934204 0.6583917140960693 -0.6525837779045105
 outer loop
  vertex 370500.0 5682500.0 5519.5
  vertex 371500.0 5681500.0 5085.2998046875
  vertex 370500.0 5681500.0 4510.60009765625
 endloop
endfacet
facet normal -0.4499516189098358 -0.06315882503986359 -0.8908166885375977
 outer loop
  vertex 370500.0 5682500.0 5519.5
  vertex 371500.0 5682500.0 5014.39990234375
  vertex 371500.0 5681500.0 5085.2998046875
 endloop
endfacet
facet normal -0.4867408573627472 -0.06177927553653717 -0.87135910987854
 outer loop
  vertex 371500.0 5682500.0 5014.39990234375
  vertex 372500.0 5681500.0 4526.7001953125
  vertex 371500.0 5681500.0 5085.2998046875
 endloop
endfacet
facet normal 0.0522959902882576 0.4795096814632416 -0.8759769201278687
 outer loop
  vertex 371500.0 5682500.0 5014.39990234375
  vertex 372500.0 5682500.0 5074.10009765625
  vertex 372500.0 5681500.0 4526.7001953125
 endloop
endfacet
facet normal 0.04705197364091873 0.4796349108219147 -0.8762057423591614
 outer loop
  vertex 372500.0 5682500.0 5074.10009765625
  vertex 373500.0 5681500.0 4580.39990234375
  vertex 372500.0 5681500.0 4526.7001953125
 endloop
endfacet
facet normal 0.03621891140937805 0.4712856113910675 -0.8812366127967834
 outer loop
  vertex 372500.0 5682500.0 5074.10009765625
  vertex 373500.0 5682500.0 5115.2001953125
  vertex 373500.0 5681500.0 4580.39990234375
 endloop
endfacet
facet normal -0.3020384609699249 0.44956955313682556 -0.8406307101249695
 outer loop
  vertex 373500.0 5682500.0 5115.2001953125
  vertex 374500.0 5681500.0 4221.10009765625
  vertex 373500.0 5681500.0 4580.39990234375
 endloop
endfacet
facet normal -0.278974324464798 0.4698425531387329 -0.837509036064148
 outer loop
  vertex 373500.0 5682500.0 5115.2001953125
  vertex 374500.0 5682500.0 4782.10009765625
  vertex 374500.0 5681500.0 4221.10009765625
 endloop
endfacet
facet normal 0.08740100264549255 0.4873948097229004 -0.8687964081764221
 outer loop
  vertex 374500.0 5682500.0 4782.10009765625
  vertex 375500.0 5681500.0 4321.7001953125
  vertex 374500.0 5681500.0 4221.10009765625
 endloop
endfacet
facet normal -0.056086353957653046 0.370726078748703 -0.9270471930503845
 outer loop
  vertex 374500.0 5682500.0 4782.10009765625
  vertex 375500.0 5682500.0 4721.60009765625
  vertex 375500.0 5681500.0 4321.7001953125
 endloop
endfacet
facet normal 0.1385759860277176 0.3677281141281128 -0.919550359249115
 outer loop
  vertex 375500.0 5682500.0 4721.60009765625
  vertex 376500.0 5681500.0 4472.39990234375
  vertex 375500.0 5681500.0 4321.7001953125
 endloop
endfacet
facet normal 0.048317719250917435 0.28674909472465515 -0.9567865133285522
 outer loop
  vertex 375500.0 5682500.0 4721.60009765625
  vertex 376500.0 5682500.0 4772.10009765625
  vertex 376500.0 5681500.0 4472.39990234375
 endloop
endfacet
facet normal 0.18988239765167236 0.28186142444610596 -0.9404779672622681
 outer loop
  vertex 376500.0 5682500.0 4772.10009765625
  vertex 377500.0 5681500.0 4674.2998046875
  vertex 376500.0 5681500.0 4472.39990234375
 endloop
endfacet
facet normal -0.034909892827272415 0.06263861805200577 -0.9974254965782166
 outer loop
  vertex 376500.0 5682500.0 4772.10009765625
  vertex 377500.0 5682500.0 4737.10009765625
  vertex 377500.0 5681500.0 4674.2998046875
 endloop
endfacet
facet normal 0.20550477504730225 0.06133905053138733 -0.9767318964004517
 outer loop
  vertex 377500.0 5682500.0 4737.10009765625
  vertex 378500.0 5681500.0 4884.7001953125
  vertex 377500.0 5681500.0 4674.2998046875
 endloop
endfacet
facet normal 0.5515201091766357 0.03924558311700821 -0.833237886428833
 outer loop
  vertex 367500.0 5683500.0 4999.0
  vertex 368500.0 5682500.0 5613.7998046875
  vertex 367500.0 5682500.0 4951.89990234375
 endloop
endfacet
facet normal -0.07274507731199265 -0.5741302967071533 -0.815526008605957
 outer loop
  vertex 367500.0 5683500.0 4999.0
  vertex 368500.0 5683500.0 4909.7998046875
  vertex 368500.0 5682500.0 5613.7998046875
 endloop
endfacet
facet normal -0.3108709752559662 -0.5471329092979431 -0.7771773934364319
 outer loop
  vertex 368500.0 5683500.0 4909.7998046875
  vertex 369500.0 5682500.0 5213.7998046875
  vertex 368500.0 5682500.0 5613.7998046875
 endloop
endfacet
facet normal -0.13465751707553864 -0.40902724862098694 -0.9025320410728455
 outer loop
  vertex 368500.0 5683500.0 4909.7998046875
  vertex 369500.0 5683500.0 4760.60009765625
  vertex 369500.0 5682500.0 5213.7998046875
 endloop
endfacet
facet normal 0.2682362198829651 -0.3976595103740692 -0.8774487376213074
 outer loop
  vertex 369500.0 5683500.0 4760.60009765625
  vertex 370500.0 5682500.0 5519.5
  vertex 369500.0 5682500.0 5213.7998046875
 endloop
endfacet
facet normal 0.58329838514328 -0.032626569271087646 -0.8116024136543274
 outer loop
  vertex 369500.0 5683500.0 4760.60009765625
  vertex 370500.0 5683500.0 5479.2998046875
  vertex 370500.0 5682500.0 5519.5
 endloop
endfacet
facet normal -0.4505617916584015 -0.035859569907188416 -0.8920247554779053
 outer loop
  vertex 370500.0 5683500.0 5479.2998046875
  vertex 371500.0 5682500.0 5014.39990234375
  vertex 370500.0 5682500.0 5519.5
 endloop
endfacet
facet normal -0.10061831772327423 0.3349262773990631 -0.9368566870689392
 outer loop
  vertex 370500.0 5683500.0 5479.2998046875
  vertex 371500.0 5683500.0 5371.89990234375
  vertex 371500.0 5682500.0 5014.39990234375
 endloop
endfacet
facet normal 0.05612718686461449 0.3361039459705353 -0.9401509165763855
 outer loop
  vertex 371500.0 5683500.0 5371.89990234375
  vertex 372500.0 5682500.0 5074.10009765625
  vertex 371500.0 5682500.0 5014.39990234375
 endloop
endfacet
facet normal 0.043645914644002914 0.3249812126159668 -0.9447128176689148
 outer loop
  vertex 371500.0 5683500.0 5371.89990234375
  vertex 372500.0 5683500.0 5418.10009765625
  vertex 372500.0 5682500.0 5074.10009765625
 endloop
endfacet
facet normal 0.03883550316095352 0.32504579424858093 -0.9449005722999573
 outer loop
  vertex 372500.0 5683500.0 5418.10009765625
  vertex 373500.0 5682500.0 5115.2001953125
  vertex 372500.0 5682500.0 5074.10009765625
 endloop
endfacet
facet normal 0.1363007128238678 0.4095333218574524 -0.9020557999610901
 outer loop
  vertex 372500.0 5683500.0 5418.10009765625
  vertex 373500.0 5683500.0 5569.2001953125
  vertex 373500.0 5682500.0 5115.2001953125
 endloop
endfacet
facet normal -0.2902485430240631 0.3955953121185303 -0.8713552951812744
 outer loop
  vertex 373500.0 5683500.0 5569.2001953125
  vertex 374500.0 5682500.0 4782.10009765625
  vertex 373500.0 5682500.0 5115.2001953125
 endloop
endfacet
facet normal -0.27720099687576294 0.4076228439807892 -0.8700593709945679
 outer loop
  vertex 373500.0 5683500.0 5569.2001953125
  vertex 374500.0 5683500.0 5250.60009765625
  vertex 374500.0 5682500.0 4782.10009765625
 endloop
endfacet
facet normal -0.054703496396541595 0.4236130118370056 -0.9041900038719177
 outer loop
  vertex 374500.0 5683500.0 5250.60009765625
  vertex 375500.0 5682500.0 4721.60009765625
  vertex 374500.0 5682500.0 4782.10009765625
 endloop
endfacet
facet normal -0.28745269775390625 0.20722045004367828 -0.9351099133491516
 outer loop
  vertex 374500.0 5683500.0 5250.60009765625
  vertex 375500.0 5683500.0 4943.2001953125
  vertex 375500.0 5682500.0 4721.60009765625
 endloop
endfacet
facet normal 0.04924411699175835 0.216089129447937 -0.9751310348510742
 outer loop
  vertex 375500.0 5683500.0 4943.2001953125
  vertex 376500.0 5682500.0 4772.10009765625
  vertex 375500.0 5682500.0 4721.60009765625
 endloop
endfacet
facet normal -0.21572145819664001 -0.04885920509696007 -0.9752317667007446
 outer loop
  vertex 375500.0 5683500.0 4943.2001953125
  vertex 376500.0 5683500.0 4722.0
  vertex 376500.0 5682500.0 4772.10009765625
 endloop
endfacet
facet normal -0.034934818744659424 -0.050006795674562454 -0.9981377124786377
 outer loop
  vertex 376500.0 5683500.0 4722.0
  vertex 377500.0 5682500.0 4737.10009765625
  vertex 376500.0 5682500.0 4772.10009765625
 endloop
endfacet
facet normal 0.14034412801265717 0.12551410496234894 -0.9821149706840515
 outer loop
  vertex 376500.0 5683500.0 4722.0
  vertex 377500.0 5683500.0 4864.89990234375
  vertex 377500.0 5682500.0 4737.10009765625
 endloop
endfacet
facet normal -0.08307258039712906 -0.35464075207710266 -0.9313049912452698
 outer loop
  vertex 367500.0 5684500.0 4618.2001953125
  vertex 368500.0 5683500.0 4909.7998046875
  vertex 367500.0 5683500.0 4999.0
 endloop
endfacet
facet normal -0.07830429822206497 -0.3504544198513031 -0.9333007335662842
 outer loop
  vertex 367500.0 5684500.0 4618.2001953125
  vertex 368500.0 5684500.0 4534.2998046875
  vertex 368500.0 5683500.0 4909.7998046875
 endloop
endfacet
facet normal -0.13833414018154144 -0.3481539785861969 -0.9271743893623352
 outer loop
  vertex 368500.0 5684500.0 4534.2998046875
  vertex 369500.0 5683500.0 4760.60009765625
  vertex 368500.0 5683500.0 4909.7998046875
 endloop
endfacet
facet normal 0.555364727973938 0.3890343904495239 -0.7349981665611267
 outer loop
  vertex 368500.0 5684500.0 4534.2998046875
  vertex 369500.0 5684500.0 5289.89990234375
  vertex 369500.0 5683500.0 4760.60009765625
 endloop
endfacet
facet normal 0.5361807346343994 0.3948802947998047 -0.7460427284240723
 outer loop
  vertex 369500.0 5684500.0 5289.89990234375
  vertex 370500.0 5683500.0 5479.2998046875
  vertex 369500.0 5683500.0 4760.60009765625
 endloop
endfacet
facet normal 0.23172897100448608 0.04770613834261894 -0.9716099500656128
 outer loop
  vertex 369500.0 5684500.0 5289.89990234375
  vertex 370500.0 5684500.0 5528.39990234375
  vertex 370500.0 5683500.0 5479.2998046875
 endloop
endfacet
facet normal -0.10665877163410187 0.0487612746655941 -0.9930993318557739
 outer loop
  vertex 370500.0 5684500.0 5528.39990234375
  vertex 371500.0 5683500.0 5371.89990234375
  vertex 370500.0 5683500.0 5479.2998046875
 endloop
endfacet
facet normal -0.1558709591627121 -0.0012839243281632662 -0.9877765774726868
 outer loop
  vertex 370500.0 5684500.0 5528.39990234375
  vertex 371500.0 5684500.0 5370.60009765625
  vertex 371500.0 5683500.0 5371.89990234375
 endloop
endfacet
facet normal 0.04615093022584915 -0.0012984186178073287 -0.9989336133003235
 outer loop
  vertex 371500.0 5684500.0 5370.60009765625
  vertex 372500.0 5683500.0 5418.10009765625
  vertex 371500.0 5683500.0 5371.89990234375
 endloop
endfacet
facet normal -0.19313912093639374 0.44757214188575745 -0.8731417655944824
 outer loop
  vertex 375500.0 5684500.0 5455.7998046875
  vertex 376500.0 5683500.0 4722.0
  vertex 375500.0 5683500.0 4943.2001953125
 endloop
endfacet
facet normal -0.0045265620574355125 0.5886558890342712 -0.8083710074424744
 outer loop
  vertex 375500.0 5684500.0 5455.7998046875
  vertex 376500.0 5684500.0 5450.2001953125
  vertex 376500.0 5683500.0 4722.0
 endloop
endfacet
facet normal 0.11475418508052826 0.5847732424736023 -0.8030390739440918
 outer loop
  vertex 376500.0 5684500.0 5450.2001953125
  vertex 377500.0 5683500.0 4864.89990234375
  vertex 376500.0 5683500.0 4722.0
 endloop
endfacet
facet normal -0.06383272260427475 0.4557932913303375 -0.8877938389778137
 outer loop
  vertex 376500.0 5684500.0 5450.2001953125
  vertex 377500.0 5684500.0 5378.2998046875
  vertex 377500.0 5683500.0 4864.89990234375
 endloop
endfacet
endsolid
