solid
facet normal 0.15066377818584442 0.03517144173383713 -0.9879592061042786
 outer loop
  vertex 648500.0 5468500.0 5772.0
  vertex 649500.0 5467500.0 5888.89990234375
  vertex 648500.0 5467500.0 5736.39990234375
 endloop
endfacet
facet normal 0.2619580626487732 0.15052103996276855 -0.9532687664031982
 outer loop
  vertex 648500.0 5468500.0 5772.0
  vertex 649500.0 5468500.0 6046.7998046875
  vertex 649500.0 5467500.0 5888.89990234375
 endloop
endfacet
facet normal 0.16910351812839508 0.15372136235237122 -0.9735367298126221
 outer loop
  vertex 649500.0 5468500.0 6046.7998046875
  vertex 650500.0 5467500.0 6062.60009765625
  vertex 649500.0 5467500.0 5888.89990234375
 endloop
endfacet
facet normal 0.021395156159996986 0.005598728079348803 -0.9997554421424866
 outer loop
  vertex 649500.0 5468500.0 6046.7998046875
  vertex 650500.0 5468500.0 6068.2001953125
  vertex 650500.0 5467500.0 6062.60009765625
 endloop
endfacet
facet normal 0.2636113464832306 0.10139661282300949 -0.9592850208282471
 outer loop
  vertex 648500.0 5469500.0 5877.7001953125
  vertex 649500.0 5468500.0 6046.7998046875
  vertex 648500.0 5468500.0 5772.0
 endloop
endfacet
facet normal 0.1261722892522812 -0.04142957553267479 -0.9911428093910217
 outer loop
  vertex 648500.0 5469500.0 5877.7001953125
  vertex 649500.0 5469500.0 6005.0
  vertex 649500.0 5468500.0 6046.7998046875
 endloop
endfacet
facet normal 0.021376833319664 -0.04175379127264023 -0.9988992214202881
 outer loop
  vertex 649500.0 5469500.0 6005.0
  vertex 650500.0 5468500.0 6068.2001953125
  vertex 649500.0 5468500.0 6046.7998046875
 endloop
endfacet
facet normal -0.01594802364706993 -0.0789429172873497 -0.9967515468597412
 outer loop
  vertex 649500.0 5469500.0 6005.0
  vertex 650500.0 5469500.0 5989.0
  vertex 650500.0 5468500.0 6068.2001953125
 endloop
endfacet
facet normal 0.023320507258176804 -0.07893148809671402 -0.99660724401474
 outer loop
  vertex 650500.0 5469500.0 5989.0
  vertex 651500.0 5468500.0 6091.60009765625
  vertex 650500.0 5468500.0 6068.2001953125
 endloop
endfacet
facet normal 0.08101419359445572 -0.0212254598736763 -0.9964869618415833
 outer loop
  vertex 650500.0 5469500.0 5989.0
  vertex 651500.0 5469500.0 6070.2998046875
  vertex 651500.0 5468500.0 6091.60009765625
 endloop
endfacet
facet normal 0.0416540689766407 -0.02127698063850403 -0.9989055395126343
 outer loop
  vertex 651500.0 5469500.0 6070.2998046875
  vertex 652500.0 5468500.0 6133.2998046875
  vertex 651500.0 5468500.0 6091.60009765625
 endloop
endfacet
facet normal 0.07597334682941437 0.013160898350179195 -0.9970229864120483
 outer loop
  vertex 651500.0 5469500.0 6070.2998046875
  vertex 652500.0 5469500.0 6146.5
  vertex 652500.0 5468500.0 6133.2998046875
 endloop
endfacet
facet normal 0.07756491750478745 0.003588741645216942 -0.9969808459281921
 outer loop
  vertex 647500.0 5470500.0 5803.5
  vertex 648500.0 5470500.0 5881.2998046875
  vertex 648500.0 5469500.0 5877.7001953125
 endloop
endfacet
facet normal 0.12627990543842316 0.0035707701463252306 -0.9919881820678711
 outer loop
  vertex 648500.0 5470500.0 5881.2998046875
  vertex 649500.0 5469500.0 6005.0
  vertex 648500.0 5469500.0 5877.7001953125
 endloop
endfacet
facet normal 0.050202153623104095 -0.07301150262355804 -0.9960668087005615
 outer loop
  vertex 648500.0 5470500.0 5881.2998046875
  vertex 649500.0 5470500.0 5931.7001953125
  vertex 649500.0 5469500.0 6005.0
 endloop
endfacet
facet normal -0.015955157577991486 -0.07309437543153763 -0.9971973896026611
 outer loop
  vertex 649500.0 5470500.0 5931.7001953125
  vertex 650500.0 5469500.0 5989.0
  vertex 649500.0 5469500.0 6005.0
 endloop
endfacet
facet normal 0.030274882912635803 -0.026977792382240295 -0.9991775155067444
 outer loop
  vertex 649500.0 5470500.0 5931.7001953125
  vertex 650500.0 5470500.0 5962.0
  vertex 650500.0 5469500.0 5989.0
 endloop
endfacet
facet normal 0.08100312203168869 -0.026901470497250557 -0.9963507652282715
 outer loop
  vertex 650500.0 5470500.0 5962.0
  vertex 651500.0 5469500.0 6070.2998046875
  vertex 650500.0 5469500.0 5989.0
 endloop
endfacet
facet normal 0.009851841256022453 -0.09792220592498779 -0.995145320892334
 outer loop
  vertex 650500.0 5470500.0 5962.0
  vertex 651500.0 5470500.0 5971.89990234375
  vertex 651500.0 5469500.0 6070.2998046875
 endloop
endfacet
facet normal 0.07561682164669037 -0.09764658659696579 -0.992344319820404
 outer loop
  vertex 651500.0 5470500.0 5971.89990234375
  vertex 652500.0 5469500.0 6146.5
  vertex 651500.0 5469500.0 6070.2998046875
 endloop
endfacet
facet normal 0.19088579714298248 0.019530124962329865 -0.9814179539680481
 outer loop
  vertex 651500.0 5470500.0 5971.89990234375
  vertex 652500.0 5470500.0 6166.39990234375
  vertex 652500.0 5469500.0 6146.5
 endloop
endfacet
facet normal -0.2025827169418335 -0.1904795616865158 -0.9605611562728882
 outer loop
  vertex 644500.0 5471500.0 6171.7001953125
  vertex 645500.0 5471500.0 5960.7998046875
  vertex 645500.0 5470500.0 6159.10009765625
 endloop
endfacet
facet normal -0.3174634277820587 -0.18445071578025818 -0.9301585555076599
 outer loop
  vertex 645500.0 5471500.0 5960.7998046875
  vertex 646500.0 5470500.0 5817.7998046875
  vertex 645500.0 5470500.0 6159.10009765625
 endloop
endfacet
facet normal -0.27570512890815735 -0.1397070437669754 -0.9510355591773987
 outer loop
  vertex 645500.0 5471500.0 5960.7998046875
  vertex 646500.0 5471500.0 5670.89990234375
  vertex 646500.0 5470500.0 5817.7998046875
 endloop
endfacet
facet normal -0.01414655800908804 -0.14532555639743805 -0.9892827868461609
 outer loop
  vertex 646500.0 5471500.0 5670.89990234375
  vertex 647500.0 5470500.0 5803.5
  vertex 646500.0 5470500.0 5817.7998046875
 endloop
endfacet
facet normal 0.09945141524076462 -0.03242125362157822 -0.9945141077041626
 outer loop
  vertex 646500.0 5471500.0 5670.89990234375
  vertex 647500.0 5471500.0 5770.89990234375
  vertex 647500.0 5470500.0 5803.5
 endloop
endfacet
facet normal 0.07752448320388794 -0.03248472884297371 -0.9964610934257507
 outer loop
  vertex 647500.0 5471500.0 5770.89990234375
  vertex 648500.0 5470500.0 5881.2998046875
  vertex 647500.0 5470500.0 5803.5
 endloop
endfacet
facet normal 0.04346204176545143 -0.06658829748630524 -0.9968335628509521
 outer loop
  vertex 647500.0 5471500.0 5770.89990234375
  vertex 648500.0 5471500.0 5814.5
  vertex 648500.0 5470500.0 5881.2998046875
 endloop
endfacet
facet normal 0.050224851816892624 -0.06656714528799057 -0.9965171217918396
 outer loop
  vertex 648500.0 5471500.0 5814.5
  vertex 649500.0 5470500.0 5931.7001953125
  vertex 648500.0 5470500.0 5881.2998046875
 endloop
endfacet
facet normal 0.10717416554689407 -0.009345834143459797 -0.9941962957382202
 outer loop
  vertex 648500.0 5471500.0 5814.5
  vertex 649500.0 5471500.0 5922.2998046875
  vertex 649500.0 5470500.0 5931.7001953125
 endloop
endfacet
facet normal 0.030284570530056953 -0.009395663626492023 -0.9994971752166748
 outer loop
  vertex 649500.0 5471500.0 5922.2998046875
  vertex 650500.0 5470500.0 5962.0
  vertex 649500.0 5470500.0 5931.7001953125
 endloop
endfacet
facet normal -0.03676724433898926 -0.0763247087597847 -0.9964048862457275
 outer loop
  vertex 649500.0 5471500.0 5922.2998046875
  vertex 650500.0 5471500.0 5885.39990234375
  vertex 650500.0 5470500.0 5962.0
 endloop
endfacet
facet normal 0.009870507754385471 -0.07637263089418411 -0.99703049659729
 outer loop
  vertex 650500.0 5471500.0 5885.39990234375
  vertex 651500.0 5470500.0 5971.89990234375
  vertex 650500.0 5470500.0 5962.0
 endloop
endfacet
facet normal 0.04311961308121681 -0.04321903735399246 -0.9981346726417542
 outer loop
  vertex 650500.0 5471500.0 5885.39990234375
  vertex 651500.0 5471500.0 5928.60009765625
  vertex 651500.0 5470500.0 5971.89990234375
 endloop
endfacet
facet normal 0.19074998795986176 -0.0424649715423584 -0.9807197451591492
 outer loop
  vertex 651500.0 5471500.0 5928.60009765625
  vertex 652500.0 5470500.0 6166.39990234375
  vertex 651500.0 5470500.0 5971.89990234375
 endloop
endfacet
facet normal 0.0994957759976387 -0.0126356715336442 -0.9949577450752258
 outer loop
  vertex 646500.0 5472500.0 5658.2001953125
  vertex 647500.0 5471500.0 5770.89990234375
  vertex 646500.0 5471500.0 5670.89990234375
 endloop
endfacet
facet normal 0.09357123076915741 -0.018614405766129494 -0.9954385757446289
 outer loop
  vertex 646500.0 5472500.0 5658.2001953125
  vertex 647500.0 5472500.0 5752.2001953125
  vertex 647500.0 5471500.0 5770.89990234375
 endloop
endfacet
facet normal 0.043551117181777954 -0.0186786986887455 -0.9988765716552734
 outer loop
  vertex 647500.0 5472500.0 5752.2001953125
  vertex 648500.0 5471500.0 5814.5
  vertex 647500.0 5471500.0 5770.89990234375
 endloop
endfacet
facet normal 0.040257394313812256 -0.02197684720158577 -0.9989476203918457
 outer loop
  vertex 647500.0 5472500.0 5752.2001953125
  vertex 648500.0 5472500.0 5792.5
  vertex 648500.0 5471500.0 5814.5
 endloop
endfacet
facet normal 0.10715322196483612 -0.021868044510483742 -0.9940019845962524
 outer loop
  vertex 648500.0 5472500.0 5792.5
  vertex 649500.0 5471500.0 5922.2998046875
  vertex 648500.0 5471500.0 5814.5
 endloop
endfacet
facet normal 0.07308744639158249 -0.05615980923175812 -0.9957430958747864
 outer loop
  vertex 648500.0 5472500.0 5792.5
  vertex 649500.0 5472500.0 5865.89990234375
  vertex 649500.0 5471500.0 5922.2998046875
 endloop
endfacet
facet normal -0.03681637719273567 -0.0562722384929657 -0.9977364540100098
 outer loop
  vertex 649500.0 5472500.0 5865.89990234375
  vertex 650500.0 5471500.0 5885.39990234375
  vertex 649500.0 5471500.0 5922.2998046875
 endloop
endfacet
facet normal 0.08215745538473129 0.06276195496320724 -0.9946411848068237
 outer loop
  vertex 649500.0 5472500.0 5865.89990234375
  vertex 650500.0 5472500.0 5948.5
  vertex 650500.0 5471500.0 5885.39990234375
 endloop
endfacet
facet normal 0.043074432760477066 0.06291639804840088 -0.9970887899398804
 outer loop
  vertex 650500.0 5472500.0 5948.5
  vertex 651500.0 5471500.0 5928.60009765625
  vertex 650500.0 5471500.0 5885.39990234375
 endloop
endfacet
facet normal -0.01619795896112919 0.003699196269735694 -0.9998619556427002
 outer loop
  vertex 650500.0 5472500.0 5948.5
  vertex 651500.0 5472500.0 5932.2998046875
  vertex 651500.0 5471500.0 5928.60009765625
 endloop
endfacet
facet normal 0.09357782453298569 -0.01433571521192789 -0.9955087900161743
 outer loop
  vertex 646500.0 5473500.0 5643.7998046875
  vertex 647500.0 5472500.0 5752.2001953125
  vertex 646500.0 5472500.0 5658.2001953125
 endloop
endfacet
facet normal 0.09179884195327759 -0.01612967438995838 -0.9956468939781189
 outer loop
  vertex 646500.0 5473500.0 5643.7998046875
  vertex 647500.0 5473500.0 5736.0
  vertex 647500.0 5472500.0 5752.2001953125
 endloop
endfacet
facet normal 0.04026184603571892 -0.016184935346245766 -0.9990580677986145
 outer loop
  vertex 647500.0 5473500.0 5736.0
  vertex 648500.0 5472500.0 5792.5
  vertex 647500.0 5472500.0 5752.2001953125
 endloop
endfacet
facet normal 0.06376810371875763 0.007384639699012041 -0.9979374408721924
 outer loop
  vertex 647500.0 5473500.0 5736.0
  vertex 648500.0 5473500.0 5799.89990234375
  vertex 648500.0 5472500.0 5792.5
 endloop
endfacet
facet normal 0.07320098578929901 0.0073798480443656445 -0.9972899556159973
 outer loop
  vertex 648500.0 5473500.0 5799.89990234375
  vertex 649500.0 5472500.0 5865.89990234375
  vertex 648500.0 5472500.0 5792.5
 endloop
endfacet
facet normal 0.0077868797816336155 -0.05809962749481201 -0.99828040599823
 outer loop
  vertex 648500.0 5473500.0 5799.89990234375
  vertex 649500.0 5473500.0 5807.7001953125
  vertex 649500.0 5472500.0 5865.89990234375
 endloop
endfacet
facet normal 0.08218163996934891 -0.05790485441684723 -0.9949337840080261
 outer loop
  vertex 649500.0 5473500.0 5807.7001953125
  vertex 650500.0 5472500.0 5948.5
  vertex 649500.0 5472500.0 5865.89990234375
 endloop
endfacet
facet normal 0.06826190650463104 -0.07184477150440216 -0.9950771927833557
 outer loop
  vertex 649500.0 5473500.0 5807.7001953125
  vertex 650500.0 5473500.0 5876.2998046875
  vertex 650500.0 5472500.0 5948.5
 endloop
endfacet
facet normal -0.016156025230884552 -0.07200334221124649 -0.9972735047340393
 outer loop
  vertex 650500.0 5473500.0 5876.2998046875
  vertex 651500.0 5472500.0 5932.2998046875
  vertex 650500.0 5472500.0 5948.5
 endloop
endfacet
facet normal 0.05272657796740532 -0.003195239929482341 -0.998603880405426
 outer loop
  vertex 650500.0 5473500.0 5876.2998046875
  vertex 651500.0 5473500.0 5929.10009765625
  vertex 651500.0 5472500.0 5932.2998046875
 endloop
endfacet
facet normal 0.177247554063797 -0.0031490277033299208 -0.9841612577438354
 outer loop
  vertex 651500.0 5473500.0 5929.10009765625
  vertex 652500.0 5472500.0 6112.39990234375
  vertex 651500.0 5472500.0 5932.2998046875
 endloop
endfacet
facet normal 0.05914513021707535 -0.12245193123817444 -0.9907105565071106
 outer loop
  vertex 651500.0 5473500.0 5929.10009765625
  vertex 652500.0 5473500.0 5988.7998046875
  vertex 652500.0 5472500.0 6112.39990234375
 endloop
endfacet
facet normal 0.21673375368118286 -0.1197509616613388 -0.9688581824302673
 outer loop
  vertex 652500.0 5473500.0 5988.7998046875
  vertex 653500.0 5472500.0 6336.10009765625
  vertex 652500.0 5472500.0 6112.39990234375
 endloop
endfacet
facet normal 0.08213786780834198 -0.2526794970035553 -0.9640572667121887
 outer loop
  vertex 652500.0 5473500.0 5988.7998046875
  vertex 653500.0 5473500.0 6074.0
  vertex 653500.0 5472500.0 6336.10009765625
 endloop
endfacet
facet normal 0.013050638139247894 -0.14929470419883728 -0.988706648349762
 outer loop
  vertex 654500.0 5473500.0 6059.60009765625
  vertex 655500.0 5473500.0 6072.7998046875
  vertex 655500.0 5472500.0 6223.7998046875
 endloop
endfacet
facet normal 0.2722986340522766 -0.14366549253463745 -0.951427161693573
 outer loop
  vertex 655500.0 5473500.0 6072.7998046875
  vertex 656500.0 5472500.0 6510.0
  vertex 655500.0 5472500.0 6223.7998046875
 endloop
endfacet
facet normal 0.02450578287243843 -0.37979358434677124 -0.924746572971344
 outer loop
  vertex 655500.0 5473500.0 6072.7998046875
  vertex 656500.0 5473500.0 6099.2998046875
  vertex 656500.0 5472500.0 6510.0
 endloop
endfacet
facet normal -0.07067974656820297 -0.3789575695991516 -0.9227109551429749
 outer loop
  vertex 656500.0 5473500.0 6099.2998046875
  vertex 657500.0 5472500.0 6433.39990234375
  vertex 656500.0 5472500.0 6510.0
 endloop
endfacet
facet normal 0.10446702688932419 -0.21960335969924927 -0.9699798822402954
 outer loop
  vertex 656500.0 5473500.0 6099.2998046875
  vertex 657500.0 5473500.0 6207.0
  vertex 657500.0 5472500.0 6433.39990234375
 endloop
endfacet
facet normal 0.09067563712596893 0.1567646563053131 -0.9834647178649902
 outer loop
  vertex 646500.0 5474500.0 5803.2001953125
  vertex 647500.0 5473500.0 5736.0
  vertex 646500.0 5473500.0 5643.7998046875
 endloop
endfacet
facet normal -0.0534185990691185 0.013679350726306438 -0.9984785318374634
 outer loop
  vertex 646500.0 5474500.0 5803.2001953125
  vertex 647500.0 5474500.0 5749.7001953125
  vertex 647500.0 5473500.0 5736.0
 endloop
endfacet
facet normal 0.06376387923955917 0.013671032153069973 -0.9978713393211365
 outer loop
  vertex 647500.0 5474500.0 5749.7001953125
  vertex 648500.0 5473500.0 5799.89990234375
  vertex 647500.0 5473500.0 5736.0
 endloop
endfacet
facet normal 0.00859186053276062 -0.04156261309981346 -0.9990989565849304
 outer loop
  vertex 647500.0 5474500.0 5749.7001953125
  vertex 648500.0 5474500.0 5758.2998046875
  vertex 648500.0 5473500.0 5799.89990234375
 endloop
endfacet
facet normal 0.007793315686285496 -0.04156288504600525 -0.9991055130958557
 outer loop
  vertex 648500.0 5474500.0 5758.2998046875
  vertex 649500.0 5473500.0 5807.7001953125
  vertex 648500.0 5473500.0 5799.89990234375
 endloop
endfacet
facet normal 0.02908179722726345 -0.0202875267714262 -0.9993711709976196
 outer loop
  vertex 648500.0 5474500.0 5758.2998046875
  vertex 649500.0 5474500.0 5787.39990234375
  vertex 649500.0 5473500.0 5807.7001953125
 endloop
endfacet
facet normal 0.06842473149299622 -0.020248543471097946 -0.9974507689476013
 outer loop
  vertex 649500.0 5474500.0 5787.39990234375
  vertex 650500.0 5473500.0 5876.2998046875
  vertex 649500.0 5473500.0 5807.7001953125
 endloop
endfacet
facet normal 0.07130719721317291 -0.017352987080812454 -0.9973034858703613
 outer loop
  vertex 649500.0 5474500.0 5787.39990234375
  vertex 650500.0 5474500.0 5858.89990234375
  vertex 650500.0 5473500.0 5876.2998046875
 endloop
endfacet
facet normal 0.052718888968229294 -0.01737307570874691 -0.9984582662582397
 outer loop
  vertex 650500.0 5474500.0 5858.89990234375
  vertex 651500.0 5473500.0 5929.10009765625
  vertex 650500.0 5473500.0 5876.2998046875
 endloop
endfacet
facet normal 0.05530904233455658 -0.014776019379496574 -0.9983599185943604
 outer loop
  vertex 650500.0 5474500.0 5858.89990234375
  vertex 651500.0 5474500.0 5914.2998046875
  vertex 651500.0 5473500.0 5929.10009765625
 endloop
endfacet
facet normal 0.05958710238337517 -0.014772376976907253 -0.9981138110160828
 outer loop
  vertex 651500.0 5474500.0 5914.2998046875
  vertex 652500.0 5473500.0 5988.7998046875
  vertex 651500.0 5473500.0 5929.10009765625
 endloop
endfacet
facet normal 0.12009332329034805 0.046212680637836456 -0.9916864633560181
 outer loop
  vertex 651500.0 5474500.0 5914.2998046875
  vertex 652500.0 5474500.0 6035.39990234375
  vertex 652500.0 5473500.0 5988.7998046875
 endloop
endfacet
facet normal 0.08480127155780792 0.04638190567493439 -0.9953177571296692
 outer loop
  vertex 652500.0 5474500.0 6035.39990234375
  vertex 653500.0 5473500.0 6074.0
  vertex 652500.0 5473500.0 5988.7998046875
 endloop
endfacet
facet normal -0.08765096962451935 -0.1257946789264679 -0.9881765842437744
 outer loop
  vertex 652500.0 5474500.0 6035.39990234375
  vertex 653500.0 5474500.0 5946.7001953125
  vertex 653500.0 5473500.0 6074.0
 endloop
endfacet
facet normal -0.014283163473010063 -0.12626783549785614 -0.9918933510780334
 outer loop
  vertex 653500.0 5474500.0 5946.7001953125
  vertex 654500.0 5473500.0 6059.60009765625
  vertex 653500.0 5473500.0 6074.0
 endloop
endfacet
facet normal 0.0409596748650074 -0.07155583798885345 -0.9965952634811401
 outer loop
  vertex 653500.0 5474500.0 5946.7001953125
  vertex 654500.0 5474500.0 5987.7998046875
  vertex 654500.0 5473500.0 6059.60009765625
 endloop
endfacet
facet normal 0.013164669275283813 -0.071609728038311 -0.9973458647727966
 outer loop
  vertex 654500.0 5474500.0 5987.7998046875
  vertex 655500.0 5473500.0 6072.7998046875
  vertex 654500.0 5473500.0 6059.60009765625
 endloop
endfacet
facet normal -0.02345520816743374 -0.1079351082444191 -0.9938811659812927
 outer loop
  vertex 654500.0 5474500.0 5987.7998046875
  vertex 655500.0 5474500.0 5964.2001953125
  vertex 655500.0 5473500.0 6072.7998046875
 endloop
endfacet
facet normal 0.026335962116718292 -0.1079273670911789 -0.9938098788261414
 outer loop
  vertex 655500.0 5474500.0 5964.2001953125
  vertex 656500.0 5473500.0 6099.2998046875
  vertex 655500.0 5473500.0 6072.7998046875
 endloop
endfacet
facet normal 0.04068591818213463 -0.09370686113834381 -0.9947681427001953
 outer loop
  vertex 655500.0 5474500.0 5964.2001953125
  vertex 656500.0 5474500.0 6005.10009765625
  vertex 656500.0 5473500.0 6099.2998046875
 endloop
endfacet
facet normal 0.1066143736243248 -0.09324998408555984 -0.989918053150177
 outer loop
  vertex 656500.0 5474500.0 6005.10009765625
  vertex 657500.0 5473500.0 6207.0
  vertex 656500.0 5473500.0 6099.2998046875
 endloop
endfacet
facet normal 0.08164465427398682 -0.11816199123859406 -0.9896321892738342
 outer loop
  vertex 656500.0 5474500.0 6005.10009765625
  vertex 657500.0 5474500.0 6087.60009765625
  vertex 657500.0 5473500.0 6207.0
 endloop
endfacet
facet normal 0.058255065232515335 -0.03950188681483269 -0.9975199103355408
 outer loop
  vertex 645500.0 5475500.0 5705.2001953125
  vertex 646500.0 5475500.0 5763.60009765625
  vertex 646500.0 5474500.0 5803.2001953125
 endloop
endfacet
facet normal -0.05338187888264656 -0.039512667804956436 -0.99779212474823
 outer loop
  vertex 646500.0 5475500.0 5763.60009765625
  vertex 647500.0 5474500.0 5749.7001953125
  vertex 646500.0 5474500.0 5803.2001953125
 endloop
endfacet
facet normal -0.02219396084547043 -0.008297962136566639 -0.9997192025184631
 outer loop
  vertex 646500.0 5475500.0 5763.60009765625
  vertex 647500.0 5475500.0 5741.39990234375
  vertex 647500.0 5474500.0 5749.7001953125
 endloop
endfacet
facet normal 0.00859899539500475 -0.008299699984490871 -0.9999285936355591
 outer loop
  vertex 647500.0 5475500.0 5741.39990234375
  vertex 648500.0 5474500.0 5758.2998046875
  vertex 647500.0 5474500.0 5749.7001953125
 endloop
endfacet
facet normal 0.016298124566674232 -0.000599529652390629 -0.9998670220375061
 outer loop
  vertex 647500.0 5475500.0 5741.39990234375
  vertex 648500.0 5475500.0 5757.7001953125
  vertex 648500.0 5474500.0 5758.2998046875
 endloop
endfacet
facet normal 0.02908777818083763 -0.0005993555532768369 -0.9995766878128052
 outer loop
  vertex 648500.0 5475500.0 5757.7001953125
  vertex 649500.0 5474500.0 5787.39990234375
  vertex 648500.0 5474500.0 5758.2998046875
 endloop
endfacet
facet normal 0.021394267678260803 -0.00829761940985918 -0.9997366666793823
 outer loop
  vertex 648500.0 5475500.0 5757.7001953125
  vertex 649500.0 5475500.0 5779.10009765625
  vertex 649500.0 5474500.0 5787.39990234375
 endloop
endfacet
facet normal 0.07131548970937729 -0.008278386667370796 -0.9974194169044495
 outer loop
  vertex 649500.0 5475500.0 5779.10009765625
  vertex 650500.0 5474500.0 5858.89990234375
  vertex 649500.0 5474500.0 5787.39990234375
 endloop
endfacet
facet normal 0.07617747038602829 -0.0033899997361004353 -0.9970884919166565
 outer loop
  vertex 649500.0 5475500.0 5779.10009765625
  vertex 650500.0 5475500.0 5855.5
  vertex 650500.0 5474500.0 5858.89990234375
 endloop
endfacet
facet normal 0.05531476438045502 -0.0033946773037314415 -0.9984631538391113
 outer loop
  vertex 650500.0 5475500.0 5855.5
  vertex 651500.0 5474500.0 5914.2998046875
  vertex 650500.0 5474500.0 5858.89990234375
 endloop
endfacet
facet normal 0.06784047186374664 0.00917861144989729 -0.9976539611816406
 outer loop
  vertex 650500.0 5475500.0 5855.5
  vertex 651500.0 5475500.0 5923.5
  vertex 651500.0 5474500.0 5914.2998046875
 endloop
endfacet
facet normal 0.12021675705909729 0.00913308560848236 -0.9927056431770325
 outer loop
  vertex 651500.0 5475500.0 5923.5
  vertex 652500.0 5474500.0 6035.39990234375
  vertex 651500.0 5474500.0 5914.2998046875
 endloop
endfacet
facet normal -0.03441089019179344 -0.1450602412223816 -0.9888242483139038
 outer loop
  vertex 651500.0 5475500.0 5923.5
  vertex 652500.0 5475500.0 5888.7001953125
  vertex 652500.0 5474500.0 6035.39990234375
 endloop
endfacet
facet normal -0.0874243751168251 -0.14459043741226196 -0.9856219291687012
 outer loop
  vertex 652500.0 5475500.0 5888.7001953125
  vertex 653500.0 5474500.0 5946.7001953125
  vertex 652500.0 5474500.0 6035.39990234375
 endloop
endfacet
facet normal -0.008480962365865707 -0.06635105609893799 -0.9977602958679199
 outer loop
  vertex 652500.0 5475500.0 5888.7001953125
  vertex 653500.0 5475500.0 5880.2001953125
  vertex 653500.0 5474500.0 5946.7001953125
 endloop
endfacet
facet normal 0.04097459465265274 -0.06629772484302521 -0.9969581961631775
 outer loop
  vertex 653500.0 5475500.0 5880.2001953125
  vertex 654500.0 5474500.0 5987.7998046875
  vertex 653500.0 5474500.0 5946.7001953125
 endloop
endfacet
facet normal 0.027800962328910828 -0.07941706478595734 -0.9964537620544434
 outer loop
  vertex 653500.0 5475500.0 5880.2001953125
  vertex 654500.0 5475500.0 5908.10009765625
  vertex 654500.0 5474500.0 5987.7998046875
 endloop
endfacet
facet normal -0.023518500849604607 -0.07942579686641693 -0.9965633153915405
 outer loop
  vertex 654500.0 5475500.0 5908.10009765625
  vertex 655500.0 5474500.0 5964.2001953125
  vertex 654500.0 5474500.0 5987.7998046875
 endloop
endfacet
facet normal 0.17936259508132935 0.1246168464422226 -0.9758584499359131
 outer loop
  vertex 654500.0 5475500.0 5908.10009765625
  vertex 655500.0 5475500.0 6091.89990234375
  vertex 655500.0 5474500.0 5964.2001953125
 endloop
endfacet
facet normal 0.040537092834711075 0.12656693160533905 -0.991129457950592
 outer loop
  vertex 655500.0 5475500.0 6091.89990234375
  vertex 656500.0 5474500.0 6005.10009765625
  vertex 655500.0 5474500.0 5964.2001953125
 endloop
endfacet
facet normal 0.01789909228682518 0.10421229153871536 -0.9943940043449402
 outer loop
  vertex 655500.0 5475500.0 6091.89990234375
  vertex 656500.0 5475500.0 6109.89990234375
  vertex 656500.0 5474500.0 6005.10009765625
 endloop
endfacet
facet normal 0.08177584409713745 0.1038799062371254 -0.9912223815917969
 outer loop
  vertex 656500.0 5475500.0 6109.89990234375
  vertex 657500.0 5474500.0 6087.60009765625
  vertex 656500.0 5474500.0 6005.10009765625
 endloop
endfacet
facet normal -0.047033511102199554 -0.02476523071527481 -0.9985862374305725
 outer loop
  vertex 656500.0 5475500.0 6109.89990234375
  vertex 657500.0 5475500.0 6062.7998046875
  vertex 657500.0 5474500.0 6087.60009765625
 endloop
endfacet
facet normal 0.12975341081619263 -0.024583080783486366 -0.9912415146827698
 outer loop
  vertex 657500.0 5475500.0 6062.7998046875
  vertex 658500.0 5474500.0 6218.5
  vertex 657500.0 5474500.0 6087.60009765625
 endloop
endfacet
facet normal 0.04428388178348541 -0.11031238734722137 -0.9929099678993225
 outer loop
  vertex 657500.0 5475500.0 6062.7998046875
  vertex 658500.0 5475500.0 6107.39990234375
  vertex 658500.0 5474500.0 6218.5
 endloop
endfacet
facet normal 0.1747870147228241 0.05524741858243942 -0.983055055141449
 outer loop
  vertex 644500.0 5476500.0 5583.60009765625
  vertex 645500.0 5476500.0 5761.39990234375
  vertex 645500.0 5475500.0 5705.2001953125
 endloop
endfacet
facet normal 0.05820903182029724 0.05601602792739868 -0.9967316389083862
 outer loop
  vertex 645500.0 5476500.0 5761.39990234375
  vertex 646500.0 5475500.0 5763.60009765625
  vertex 645500.0 5475500.0 5705.2001953125
 endloop
endfacet
facet normal 0.0004999992088414729 -0.0017001926898956299 -0.9999984502792358
 outer loop
  vertex 645500.0 5476500.0 5761.39990234375
  vertex 646500.0 5476500.0 5761.89990234375
  vertex 646500.0 5475500.0 5763.60009765625
 endloop
endfacet
facet normal -0.022194694727659225 -0.0016997740603983402 -0.9997522234916687
 outer loop
  vertex 646500.0 5476500.0 5761.89990234375
  vertex 647500.0 5475500.0 5741.39990234375
  vertex 646500.0 5475500.0 5763.60009765625
 endloop
endfacet
facet normal 0.06226402148604393 0.0826539620757103 -0.9946313500404358
 outer loop
  vertex 646500.0 5476500.0 5761.89990234375
  vertex 647500.0 5476500.0 5824.5
  vertex 647500.0 5475500.0 5741.39990234375
 endloop
endfacet
facet normal 0.01624215394258499 0.08280371874570847 -0.9964334964752197
 outer loop
  vertex 647500.0 5476500.0 5824.5
  vertex 648500.0 5475500.0 5757.7001953125
  vertex 647500.0 5475500.0 5741.39990234375
 endloop
endfacet
facet normal -0.057800814509391785 0.00888467114418745 -0.998288631439209
 outer loop
  vertex 647500.0 5476500.0 5824.5
  vertex 648500.0 5476500.0 5766.60009765625
  vertex 648500.0 5475500.0 5757.7001953125
 endloop
endfacet
facet normal 0.021394157782197 0.008897513151168823 -0.9997316002845764
 outer loop
  vertex 648500.0 5476500.0 5766.60009765625
  vertex 649500.0 5475500.0 5779.10009765625
  vertex 648500.0 5475500.0 5757.7001953125
 endloop
endfacet
facet normal 0.020894603803753853 0.008397772908210754 -0.9997464418411255
 outer loop
  vertex 648500.0 5476500.0 5766.60009765625
  vertex 649500.0 5476500.0 5787.5
  vertex 649500.0 5475500.0 5779.10009765625
 endloop
endfacet
facet normal 0.07617523521184921 0.008375200442969799 -0.9970592856407166
 outer loop
  vertex 649500.0 5476500.0 5787.5
  vertex 650500.0 5475500.0 5855.5
  vertex 649500.0 5475500.0 5779.10009765625
 endloop
endfacet
facet normal 0.046838004142045975 -0.021072249859571457 -0.9986801743507385
 outer loop
  vertex 649500.0 5476500.0 5787.5
  vertex 650500.0 5476500.0 5834.39990234375
  vertex 650500.0 5475500.0 5855.5
 endloop
endfacet
facet normal 0.06782829761505127 -0.021046821027994156 -0.9974750280380249
 outer loop
  vertex 650500.0 5476500.0 5834.39990234375
  vertex 651500.0 5475500.0 5923.5
  vertex 650500.0 5475500.0 5855.5
 endloop
endfacet
facet normal 0.07051227986812592 -0.0183509923517704 -0.9973421096801758
 outer loop
  vertex 650500.0 5476500.0 5834.39990234375
  vertex 651500.0 5476500.0 5905.10009765625
  vertex 651500.0 5475500.0 5923.5
 endloop
endfacet
facet normal -0.03477287292480469 -0.018385661765933037 -0.9992260932922363
 outer loop
  vertex 651500.0 5476500.0 5905.10009765625
  vertex 652500.0 5475500.0 5888.7001953125
  vertex 651500.0 5475500.0 5923.5
 endloop
endfacet
facet normal -0.07830671221017838 -0.06198880821466446 -0.9950002431869507
 outer loop
  vertex 651500.0 5476500.0 5905.10009765625
  vertex 652500.0 5476500.0 5826.39990234375
  vertex 652500.0 5475500.0 5888.7001953125
 endloop
endfacet
facet normal -0.00848324690014124 -0.06217750534415245 -0.9980290532112122
 outer loop
  vertex 652500.0 5476500.0 5826.39990234375
  vertex 653500.0 5475500.0 5880.2001953125
  vertex 652500.0 5475500.0 5888.7001953125
 endloop
endfacet
facet normal 0.01768590696156025 -0.03607095405459404 -0.9991927146911621
 outer loop
  vertex 652500.0 5476500.0 5826.39990234375
  vertex 653500.0 5476500.0 5844.10009765625
  vertex 653500.0 5475500.0 5880.2001953125
 endloop
endfacet
facet normal 0.027870910242199898 -0.036062583327293396 -0.9989608526229858
 outer loop
  vertex 653500.0 5476500.0 5844.10009765625
  vertex 654500.0 5475500.0 5908.10009765625
  vertex 653500.0 5475500.0 5880.2001953125
 endloop
endfacet
facet normal 0.06277580559253693 -0.001097927219234407 -0.9980270862579346
 outer loop
  vertex 653500.0 5476500.0 5844.10009765625
  vertex 654500.0 5476500.0 5907.0
  vertex 654500.0 5475500.0 5908.10009765625
 endloop
endfacet
facet normal 0.1807716190814972 -0.0010819729650393128 -0.9835245013237
 outer loop
  vertex 654500.0 5476500.0 5907.0
  vertex 655500.0 5475500.0 6091.89990234375
  vertex 654500.0 5475500.0 5908.10009765625
 endloop
endfacet
facet normal 0.013205933384597301 -0.1690174788236618 -0.985524594783783
 outer loop
  vertex 654500.0 5476500.0 5907.0
  vertex 655500.0 5476500.0 5920.39990234375
  vertex 655500.0 5475500.0 6091.89990234375
 endloop
endfacet
facet normal 0.01773819886147976 -0.1690056174993515 -0.9854554533958435
 outer loop
  vertex 655500.0 5476500.0 5920.39990234375
  vertex 656500.0 5475500.0 6109.89990234375
  vertex 655500.0 5475500.0 6091.89990234375
 endloop
endfacet
facet normal 0.17448802292346954 0.08037439733743668 -0.9813734889030457
 outer loop
  vertex 644500.0 5477500.0 5665.5
  vertex 645500.0 5476500.0 5761.39990234375
  vertex 644500.0 5476500.0 5583.60009765625
 endloop
endfacet
facet normal 0.051979828625917435 -0.04369870200753212 -0.9976915717124939
 outer loop
  vertex 644500.0 5477500.0 5665.5
  vertex 645500.0 5477500.0 5717.60009765625
  vertex 645500.0 5476500.0 5761.39990234375
 endloop
endfacet
facet normal 0.0004995210329070687 -0.0437578447163105 -0.9990420341491699
 outer loop
  vertex 645500.0 5477500.0 5717.60009765625
  vertex 646500.0 5476500.0 5761.89990234375
  vertex 645500.0 5476500.0 5761.39990234375
 endloop
endfacet
facet normal 0.07010315358638763 0.02592727169394493 -0.9972026944160461
 outer loop
  vertex 645500.0 5477500.0 5717.60009765625
  vertex 646500.0 5477500.0 5787.89990234375
  vertex 646500.0 5476500.0 5761.89990234375
 endloop
endfacet
facet normal 0.062456775456666946 0.02594047226011753 -0.9977105259895325
 outer loop
  vertex 646500.0 5477500.0 5787.89990234375
  vertex 647500.0 5476500.0 5824.5
  vertex 646500.0 5476500.0 5761.89990234375
 endloop
endfacet
facet normal -0.01846883073449135 -0.05500726401805878 -0.998315155506134
 outer loop
  vertex 646500.0 5477500.0 5787.89990234375
  vertex 647500.0 5477500.0 5769.39990234375
  vertex 647500.0 5476500.0 5824.5
 endloop
endfacet
facet normal -0.05771584063768387 -0.05492493510246277 -0.9968209862709045
 outer loop
  vertex 647500.0 5477500.0 5769.39990234375
  vertex 648500.0 5476500.0 5766.60009765625
  vertex 647500.0 5476500.0 5824.5
 endloop
endfacet
facet normal -0.03605663776397705 -0.03326020389795303 -0.9987961649894714
 outer loop
  vertex 647500.0 5477500.0 5769.39990234375
  vertex 648500.0 5477500.0 5733.2998046875
  vertex 648500.0 5476500.0 5766.60009765625
 endloop
endfacet
facet normal 0.020883768796920776 -0.033274587243795395 -0.9992280602455139
 outer loop
  vertex 648500.0 5477500.0 5733.2998046875
  vertex 649500.0 5476500.0 5787.5
  vertex 648500.0 5476500.0 5766.60009765625
 endloop
endfacet
facet normal 0.004694395698606968 -0.04943891987204552 -0.9987660646438599
 outer loop
  vertex 648500.0 5477500.0 5733.2998046875
  vertex 649500.0 5477500.0 5738.0
  vertex 649500.0 5476500.0 5787.5
 endloop
endfacet
facet normal 0.04679124429821968 -0.04938531666994095 -0.9976831078529358
 outer loop
  vertex 649500.0 5477500.0 5738.0
  vertex 650500.0 5476500.0 5834.39990234375
  vertex 649500.0 5476500.0 5787.5
 endloop
endfacet
facet normal 0.033215370029211044 -0.06294010579586029 -0.9974644184112549
 outer loop
  vertex 649500.0 5477500.0 5738.0
  vertex 650500.0 5477500.0 5771.2998046875
  vertex 650500.0 5476500.0 5834.39990234375
 endloop
endfacet
facet normal 0.07038488239049911 -0.06281866878271103 -0.9955399632453918
 outer loop
  vertex 650500.0 5477500.0 5771.2998046875
  vertex 651500.0 5476500.0 5905.10009765625
  vertex 650500.0 5476500.0 5834.39990234375
 endloop
endfacet
facet normal 0.07982964813709259 -0.05335245281457901 -0.9953796863555908
 outer loop
  vertex 650500.0 5477500.0 5771.2998046875
  vertex 651500.0 5477500.0 5851.5
  vertex 651500.0 5476500.0 5905.10009765625
 endloop
endfacet
facet normal -0.07834582775831223 -0.05335874855518341 -0.9954972267150879
 outer loop
  vertex 651500.0 5477500.0 5851.5
  vertex 652500.0 5476500.0 5826.39990234375
  vertex 651500.0 5476500.0 5905.10009765625
 endloop
endfacet
facet normal -0.046837303787469864 -0.02177070826292038 -0.9986652731895447
 outer loop
  vertex 651500.0 5477500.0 5851.5
  vertex 652500.0 5477500.0 5804.60009765625
  vertex 652500.0 5476500.0 5826.39990234375
 endloop
endfacet
facet normal 0.01769322156906128 -0.021791214123368263 -0.9996059536933899
 outer loop
  vertex 652500.0 5477500.0 5804.60009765625
  vertex 653500.0 5476500.0 5844.10009765625
  vertex 652500.0 5476500.0 5826.39990234375
 endloop
endfacet
facet normal 0.04854080080986023 0.00908899400383234 -0.9987798929214478
 outer loop
  vertex 652500.0 5477500.0 5804.60009765625
  vertex 653500.0 5477500.0 5853.2001953125
  vertex 653500.0 5476500.0 5844.10009765625
 endloop
endfacet
facet normal 0.06277325004339218 0.009081774391233921 -0.9979864954948425
 outer loop
  vertex 653500.0 5477500.0 5853.2001953125
  vertex 654500.0 5476500.0 5907.0
  vertex 653500.0 5476500.0 5844.10009765625
 endloop
endfacet
facet normal 0.05202466621994972 -0.013680358417332172 -0.9985520839691162
 outer loop
  vertex 644500.0 5478500.0 5651.7998046875
  vertex 645500.0 5477500.0 5717.60009765625
  vertex 644500.0 5477500.0 5665.5
 endloop
endfacet
facet normal 0.05162611976265907 -0.014079899527132511 -0.9985672235488892
 outer loop
  vertex 644500.0 5478500.0 5651.7998046875
  vertex 645500.0 5478500.0 5703.5
  vertex 645500.0 5477500.0 5717.60009765625
 endloop
endfacet
facet normal 0.07011980563402176 -0.014063993468880653 -0.997439444065094
 outer loop
  vertex 645500.0 5478500.0 5703.5
  vertex 646500.0 5477500.0 5787.89990234375
  vertex 645500.0 5477500.0 5717.60009765625
 endloop
endfacet
facet normal -0.02167280949652195 -0.10558104515075684 -0.9941744804382324
 outer loop
  vertex 645500.0 5478500.0 5703.5
  vertex 646500.0 5478500.0 5681.7001953125
  vertex 646500.0 5477500.0 5787.89990234375
 endloop
endfacet
facet normal -0.018393436446785927 -0.10558797419071198 -0.9942398071289062
 outer loop
  vertex 646500.0 5478500.0 5681.7001953125
  vertex 647500.0 5477500.0 5769.39990234375
  vertex 646500.0 5477500.0 5787.89990234375
 endloop
endfacet
facet normal 0.004683550447225571 -0.08271466195583344 -0.9965622425079346
 outer loop
  vertex 646500.0 5478500.0 5681.7001953125
  vertex 647500.0 5478500.0 5686.39990234375
  vertex 647500.0 5477500.0 5769.39990234375
 endloop
endfacet
facet normal -0.035953130573034286 -0.08266209810972214 -0.9959288835525513
 outer loop
  vertex 647500.0 5478500.0 5686.39990234375
  vertex 648500.0 5477500.0 5733.2998046875
  vertex 647500.0 5477500.0 5769.39990234375
 endloop
endfacet
facet normal 0.010192804038524628 -0.03667311370372772 -0.9992753267288208
 outer loop
  vertex 647500.0 5478500.0 5686.39990234375
  vertex 648500.0 5478500.0 5696.60009765625
  vertex 648500.0 5477500.0 5733.2998046875
 endloop
endfacet
facet normal 0.004696981515735388 -0.036674611270427704 -0.9993162155151367
 outer loop
  vertex 648500.0 5478500.0 5696.60009765625
  vertex 649500.0 5477500.0 5738.0
  vertex 648500.0 5477500.0 5733.2998046875
 endloop
endfacet
facet normal 0.028586069121956825 -0.01279352605342865 -0.9995095133781433
 outer loop
  vertex 648500.0 5478500.0 5696.60009765625
  vertex 649500.0 5478500.0 5725.2001953125
  vertex 649500.0 5477500.0 5738.0
 endloop
endfacet
facet normal 0.03327863663434982 -0.012791667133569717 -0.9993642568588257
 outer loop
  vertex 649500.0 5478500.0 5725.2001953125
  vertex 650500.0 5477500.0 5771.2998046875
  vertex 649500.0 5477500.0 5738.0
 endloop
endfacet
facet normal 0.049040310084819794 0.0029963767156004906 -0.998792290687561
 outer loop
  vertex 649500.0 5478500.0 5725.2001953125
  vertex 650500.0 5478500.0 5774.2998046875
  vertex 650500.0 5477500.0 5771.2998046875
 endloop
endfacet
facet normal 0.07994315028190613 0.0029903848189860582 -0.9967949390411377
 outer loop
  vertex 650500.0 5478500.0 5774.2998046875
  vertex 651500.0 5477500.0 5851.5
  vertex 650500.0 5477500.0 5771.2998046875
 endloop
endfacet
facet normal -0.03436507284641266 -0.11104195564985275 -0.9932214021682739
 outer loop
  vertex 650500.0 5478500.0 5774.2998046875
  vertex 651500.0 5478500.0 5739.7001953125
  vertex 651500.0 5477500.0 5851.5
 endloop
endfacet
facet normal -0.04655897244811058 -0.1109870970249176 -0.9927306771278381
 outer loop
  vertex 651500.0 5478500.0 5739.7001953125
  vertex 652500.0 5477500.0 5804.60009765625
  vertex 651500.0 5477500.0 5851.5
 endloop
endfacet
facet normal 0.01418006606400013 -0.05063006654381752 -0.9986168146133423
 outer loop
  vertex 651500.0 5478500.0 5739.7001953125
  vertex 652500.0 5478500.0 5753.89990234375
  vertex 652500.0 5477500.0 5804.60009765625
 endloop
endfacet
facet normal 0.04848068580031395 -0.0505756177008152 -0.9975428581237793
 outer loop
  vertex 652500.0 5478500.0 5753.89990234375
  vertex 653500.0 5477500.0 5853.2001953125
  vertex 652500.0 5477500.0 5804.60009765625
 endloop
endfacet
facet normal 0.046884238719940186 -0.052171479910612106 -0.9975369572639465
 outer loop
  vertex 652500.0 5478500.0 5753.89990234375
  vertex 653500.0 5478500.0 5800.89990234375
  vertex 653500.0 5477500.0 5853.2001953125
 endloop
endfacet
facet normal -0.021763864904642105 -0.053112488240003586 -0.9983513355255127
 outer loop
  vertex 645500.0 5479500.0 5650.2998046875
  vertex 646500.0 5478500.0 5681.7001953125
  vertex 645500.0 5478500.0 5703.5
 endloop
endfacet
facet normal 0.013496608473360538 -0.0178958922624588 -0.9997487664222717
 outer loop
  vertex 645500.0 5479500.0 5650.2998046875
  vertex 646500.0 5479500.0 5663.7998046875
  vertex 646500.0 5478500.0 5681.7001953125
 endloop
endfacet
facet normal 0.004698902368545532 -0.01789732649922371 -0.9998287558555603
 outer loop
  vertex 646500.0 5479500.0 5663.7998046875
  vertex 647500.0 5478500.0 5686.39990234375
  vertex 646500.0 5478500.0 5681.7001953125
 endloop
endfacet
facet normal 0.021395476534962654 -0.0011994314845651388 -0.9997703433036804
 outer loop
  vertex 646500.0 5479500.0 5663.7998046875
  vertex 647500.0 5479500.0 5685.2001953125
  vertex 647500.0 5478500.0 5686.39990234375
 endloop
endfacet
facet normal 0.010199657641351223 -0.0011996437096968293 -0.9999472498893738
 outer loop
  vertex 647500.0 5479500.0 5685.2001953125
  vertex 648500.0 5478500.0 5696.60009765625
  vertex 647500.0 5478500.0 5686.39990234375
 endloop
endfacet
facet normal -0.024377522990107536 -0.03576674312353134 -0.9990628361701965
 outer loop
  vertex 647500.0 5479500.0 5685.2001953125
  vertex 648500.0 5479500.0 5660.7998046875
  vertex 648500.0 5478500.0 5696.60009765625
 endloop
endfacet
facet normal 0.02857012115418911 -0.03576276823878288 -0.9989518523216248
 outer loop
  vertex 648500.0 5479500.0 5660.7998046875
  vertex 649500.0 5478500.0 5725.2001953125
  vertex 648500.0 5478500.0 5696.60009765625
 endloop
endfacet
facet normal -0.004189822822809219 -0.06843864172697067 -0.9976465106010437
 outer loop
  vertex 648500.0 5479500.0 5660.7998046875
  vertex 649500.0 5479500.0 5656.60009765625
  vertex 649500.0 5478500.0 5725.2001953125
 endloop
endfacet
facet normal 0.048925820738077164 -0.06835728138685226 -0.996460497379303
 outer loop
  vertex 649500.0 5479500.0 5656.60009765625
  vertex 650500.0 5478500.0 5774.2998046875
  vertex 649500.0 5478500.0 5725.2001953125
 endloop
endfacet
facet normal -0.03487301245331764 -0.15114805102348328 -0.9878957867622375
 outer loop
  vertex 649500.0 5479500.0 5656.60009765625
  vertex 650500.0 5479500.0 5621.2998046875
  vertex 650500.0 5478500.0 5774.2998046875
 endloop
endfacet
facet normal -0.0341816246509552 -0.15115167200565338 -0.9879193902015686
 outer loop
  vertex 650500.0 5479500.0 5621.2998046875
  vertex 651500.0 5478500.0 5739.7001953125
  vertex 650500.0 5478500.0 5774.2998046875
 endloop
endfacet
facet normal 0.025681909173727036 -0.0921752005815506 -0.9954115152359009
 outer loop
  vertex 650500.0 5479500.0 5621.2998046875
  vertex 651500.0 5479500.0 5647.10009765625
  vertex 651500.0 5478500.0 5739.7001953125
 endloop
endfacet
facet normal 0.014137806370854378 -0.09219639748334885 -0.9956404566764832
 outer loop
  vertex 651500.0 5479500.0 5647.10009765625
  vertex 652500.0 5478500.0 5753.89990234375
  vertex 651500.0 5478500.0 5739.7001953125
 endloop
endfacet
facet normal 0.11757083237171173 0.011518874205648899 -0.9929977059364319
 outer loop
  vertex 651500.0 5479500.0 5647.10009765625
  vertex 652500.0 5479500.0 5765.5
  vertex 652500.0 5478500.0 5753.89990234375
 endloop
endfacet
facet normal 0.04694502055644989 0.011586528271436691 -0.998830258846283
 outer loop
  vertex 652500.0 5479500.0 5765.5
  vertex 653500.0 5478500.0 5800.89990234375
  vertex 652500.0 5478500.0 5753.89990234375
 endloop
endfacet
facet normal 0.022492436692118645 -0.012895566411316395 -0.9996638894081116
 outer loop
  vertex 652500.0 5479500.0 5765.5
  vertex 653500.0 5479500.0 5788.0
  vertex 653500.0 5478500.0 5800.89990234375
 endloop
endfacet
facet normal 0.013470171019434929 -0.06505566090345383 -0.9977906942367554
 outer loop
  vertex 645500.0 5480500.0 5585.10009765625
  vertex 646500.0 5479500.0 5663.7998046875
  vertex 645500.0 5479500.0 5650.2998046875
 endloop
endfacet
facet normal 0.07032309472560883 -0.008179128170013428 -0.9974907636642456
 outer loop
  vertex 645500.0 5480500.0 5585.10009765625
  vertex 646500.0 5480500.0 5655.60009765625
  vertex 646500.0 5479500.0 5663.7998046875
 endloop
endfacet
facet normal 0.021394772455096245 -0.008197554387152195 -0.9997375011444092
 outer loop
  vertex 646500.0 5480500.0 5655.60009765625
  vertex 647500.0 5479500.0 5685.2001953125
  vertex 646500.0 5479500.0 5663.7998046875
 endloop
endfacet
facet normal -0.045028556138277054 -0.07451625168323517 -0.9962026476860046
 outer loop
  vertex 646500.0 5480500.0 5655.60009765625
  vertex 647500.0 5480500.0 5610.39990234375
  vertex 647500.0 5479500.0 5685.2001953125
 endloop
endfacet
facet normal -0.024325218051671982 -0.07456984370946884 -0.9969190955162048
 outer loop
  vertex 647500.0 5480500.0 5610.39990234375
  vertex 648500.0 5479500.0 5660.7998046875
  vertex 647500.0 5479500.0 5685.2001953125
 endloop
endfacet
facet normal 0.09379424899816513 0.04366480931639671 -0.9946336150169373
 outer loop
  vertex 647500.0 5480500.0 5610.39990234375
  vertex 648500.0 5480500.0 5704.7001953125
  vertex 648500.0 5479500.0 5660.7998046875
 endloop
endfacet
facet normal -0.004195628687739372 0.04385776072740555 -0.9990289211273193
 outer loop
  vertex 648500.0 5480500.0 5704.7001953125
  vertex 649500.0 5479500.0 5656.60009765625
  vertex 648500.0 5479500.0 5660.7998046875
 endloop
endfacet
facet normal 0.09968879073858261 0.14702393114566803 -0.9840965867042542
 outer loop
  vertex 648500.0 5480500.0 5704.7001953125
  vertex 649500.0 5480500.0 5806.0
  vertex 649500.0 5479500.0 5656.60009765625
 endloop
endfacet
facet normal -0.03489154204726219 0.14767001569271088 -0.9884210824966431
 outer loop
  vertex 649500.0 5480500.0 5806.0
  vertex 650500.0 5479500.0 5621.2998046875
  vertex 649500.0 5479500.0 5656.60009765625
 endloop
endfacet
facet normal 0.03793514892458916 0.21805459260940552 -0.9751990437507629
 outer loop
  vertex 649500.0 5480500.0 5806.0
  vertex 650500.0 5480500.0 5844.89990234375
  vertex 650500.0 5479500.0 5621.2998046875
 endloop
endfacet
facet normal 0.02517055533826351 0.2181425243616104 -0.9755922555923462
 outer loop
  vertex 650500.0 5480500.0 5844.89990234375
  vertex 651500.0 5479500.0 5647.10009765625
  vertex 650500.0 5479500.0 5621.2998046875
 endloop
endfacet
facet normal -0.004712780937552452 0.18950077891349792 -0.9818692803382874
 outer loop
  vertex 650500.0 5480500.0 5844.89990234375
  vertex 651500.0 5480500.0 5840.10009765625
  vertex 651500.0 5479500.0 5647.10009765625
 endloop
endfacet
facet normal 0.11547680199146271 0.18823513388633728 -0.9753115773200989
 outer loop
  vertex 651500.0 5480500.0 5840.10009765625
  vertex 652500.0 5479500.0 5765.5
  vertex 651500.0 5479500.0 5647.10009765625
 endloop
endfacet
facet normal 0.055638719350099564 0.12949414551258087 -0.9900179505348206
 outer loop
  vertex 651500.0 5480500.0 5840.10009765625
  vertex 652500.0 5480500.0 5896.2998046875
  vertex 652500.0 5479500.0 5765.5
 endloop
endfacet
facet normal 0.022304413840174675 0.12966279685497284 -0.991307258605957
 outer loop
  vertex 652500.0 5480500.0 5896.2998046875
  vertex 653500.0 5479500.0 5788.0
  vertex 652500.0 5479500.0 5765.5
 endloop
endfacet
facet normal -0.24489407241344452 -0.14100845158100128 -0.9592411518096924
 outer loop
  vertex 652500.0 5480500.0 5896.2998046875
  vertex 653500.0 5480500.0 5641.0
  vertex 653500.0 5479500.0 5788.0
 endloop
endfacet
facet normal 0.04280341789126396 -0.22763636708259583 -0.9728049635887146
 outer loop
  vertex 654500.0 5480500.0 5807.5
  vertex 655500.0 5480500.0 5851.5
  vertex 655500.0 5479500.0 6085.5
 endloop
endfacet
facet normal -0.04512361064553261 0.03673745319247246 -0.9983056783676147
 outer loop
  vertex 646500.0 5481500.0 5692.39990234375
  vertex 647500.0 5480500.0 5610.39990234375
  vertex 646500.0 5480500.0 5655.60009765625
 endloop
endfacet
facet normal -0.020257117226719856 0.06157044693827629 -0.9978971481323242
 outer loop
  vertex 646500.0 5481500.0 5692.39990234375
  vertex 647500.0 5481500.0 5672.10009765625
  vertex 647500.0 5480500.0 5610.39990234375
 endloop
endfacet
facet normal 0.09370715916156769 0.06131210923194885 -0.9937101006507874
 outer loop
  vertex 647500.0 5481500.0 5672.10009765625
  vertex 648500.0 5480500.0 5704.7001953125
  vertex 647500.0 5480500.0 5610.39990234375
 endloop
endfacet
facet normal 0.03258278965950012 0.0 -0.9994690418243408
 outer loop
  vertex 647500.0 5481500.0 5672.10009765625
  vertex 648500.0 5481500.0 5704.7001953125
  vertex 648500.0 5480500.0 5704.7001953125
 endloop
endfacet
facet normal 0.10078402608633041 0.0 -0.9949083924293518
 outer loop
  vertex 648500.0 5481500.0 5704.7001953125
  vertex 649500.0 5480500.0 5806.0
  vertex 648500.0 5480500.0 5704.7001953125
 endloop
endfacet
facet normal 0.08923604339361191 -0.011652720160782337 -0.9959423542022705
 outer loop
  vertex 648500.0 5481500.0 5704.7001953125
  vertex 649500.0 5481500.0 5794.2998046875
  vertex 649500.0 5480500.0 5806.0
 endloop
endfacet
facet normal 0.038867849856615067 -0.011690554209053516 -0.9991759657859802
 outer loop
  vertex 649500.0 5481500.0 5794.2998046875
  vertex 650500.0 5480500.0 5844.89990234375
  vertex 649500.0 5480500.0 5806.0
 endloop
endfacet
facet normal 0.028881534934043884 -0.02168554998934269 -0.9993475675582886
 outer loop
  vertex 649500.0 5481500.0 5794.2998046875
  vertex 650500.0 5481500.0 5823.2001953125
  vertex 650500.0 5480500.0 5844.89990234375
 endloop
endfacet
facet normal -0.004798619542270899 -0.021694349125027657 -0.9997531175613403
 outer loop
  vertex 650500.0 5481500.0 5823.2001953125
  vertex 651500.0 5480500.0 5840.10009765625
  vertex 650500.0 5480500.0 5844.89990234375
 endloop
endfacet
facet normal -0.004799108020961285 -0.021694837138056755 -0.9997531175613403
 outer loop
  vertex 650500.0 5481500.0 5823.2001953125
  vertex 651500.0 5481500.0 5818.39990234375
  vertex 651500.0 5480500.0 5840.10009765625
 endloop
endfacet
facet normal 0.056098006665706635 -0.021660923957824707 -0.9981902837753296
 outer loop
  vertex 651500.0 5481500.0 5818.39990234375
  vertex 652500.0 5480500.0 5896.2998046875
  vertex 651500.0 5480500.0 5840.10009765625
 endloop
endfacet
facet normal 0.10134606063365936 0.023869555443525314 -0.9945648312568665
 outer loop
  vertex 651500.0 5481500.0 5818.39990234375
  vertex 652500.0 5481500.0 5920.2998046875
  vertex 652500.0 5480500.0 5896.2998046875
 endloop
endfacet
facet normal -0.24729880690574646 0.023247847333550453 -0.9686603546142578
 outer loop
  vertex 652500.0 5481500.0 5920.2998046875
  vertex 653500.0 5480500.0 5641.0
  vertex 652500.0 5480500.0 5896.2998046875
 endloop
endfacet
facet normal 0.09041325002908707 0.350747287273407 -0.9320953488349915
 outer loop
  vertex 652500.0 5481500.0 5920.2998046875
  vertex 653500.0 5481500.0 6017.2998046875
  vertex 653500.0 5480500.0 5641.0
 endloop
endfacet
facet normal 0.1539738029241562 0.34798988699913025 -0.9247676134109497
 outer loop
  vertex 653500.0 5481500.0 6017.2998046875
  vertex 654500.0 5480500.0 5807.5
  vertex 653500.0 5480500.0 5641.0
 endloop
endfacet
facet normal -0.32302388548851013 -0.12624581158161163 -0.937932550907135
 outer loop
  vertex 653500.0 5481500.0 6017.2998046875
  vertex 654500.0 5481500.0 5672.89990234375
  vertex 654500.0 5480500.0 5807.5
 endloop
endfacet
facet normal 0.043565355241298676 -0.1332704722881317 -0.9901217222213745
 outer loop
  vertex 654500.0 5481500.0 5672.89990234375
  vertex 655500.0 5480500.0 5851.5
  vertex 654500.0 5480500.0 5807.5
 endloop
endfacet
facet normal 0.0205417238175869 -0.15583817660808563 -0.9875689744949341
 outer loop
  vertex 654500.0 5481500.0 5672.89990234375
  vertex 655500.0 5481500.0 5693.7001953125
  vertex 655500.0 5480500.0 5851.5
 endloop
endfacet
facet normal 0.03346678987145424 -0.1557837724685669 -0.9872241020202637
 outer loop
  vertex 655500.0 5481500.0 5693.7001953125
  vertex 656500.0 5480500.0 5885.39990234375
  vertex 655500.0 5480500.0 5851.5
 endloop
endfacet
facet normal 0.017830055207014084 -0.1710146963596344 -0.9851071238517761
 outer loop
  vertex 655500.0 5481500.0 5693.7001953125
  vertex 656500.0 5481500.0 5711.7998046875
  vertex 656500.0 5480500.0 5885.39990234375
 endloop
endfacet
facet normal -0.020294440910220146 -0.01079695113003254 -0.9997357726097107
 outer loop
  vertex 646500.0 5482500.0 5681.60009765625
  vertex 647500.0 5481500.0 5672.10009765625
  vertex 646500.0 5481500.0 5692.39990234375
 endloop
endfacet
facet normal 0.029963163658976555 0.03945149853825569 -0.998772144317627
 outer loop
  vertex 646500.0 5482500.0 5681.60009765625
  vertex 647500.0 5482500.0 5711.60009765625
  vertex 647500.0 5481500.0 5672.10009765625
 endloop
endfacet
facet normal 0.03255742788314819 0.03944829851388931 -0.9986910820007324
 outer loop
  vertex 647500.0 5482500.0 5711.60009765625
  vertex 648500.0 5481500.0 5704.7001953125
  vertex 647500.0 5481500.0 5672.10009765625
 endloop
endfacet
facet normal 0.07188763469457626 0.0787482038140297 -0.9942991733551025
 outer loop
  vertex 647500.0 5482500.0 5711.60009765625
  vertex 648500.0 5482500.0 5783.89990234375
  vertex 648500.0 5481500.0 5704.7001953125
 endloop
endfacet
facet normal 0.08896573632955551 0.07863940298557281 -0.9929254651069641
 outer loop
  vertex 648500.0 5482500.0 5783.89990234375
  vertex 649500.0 5481500.0 5794.2998046875
  vertex 648500.0 5481500.0 5704.7001953125
 endloop
endfacet
facet normal 0.009099713526666164 -0.0012997498270124197 -0.9999577403068542
 outer loop
  vertex 648500.0 5482500.0 5783.89990234375
  vertex 649500.0 5482500.0 5793.0
  vertex 649500.0 5481500.0 5794.2998046875
 endloop
endfacet
facet normal 0.02888830378651619 -0.0012992611154913902 -0.9995818138122559
 outer loop
  vertex 649500.0 5482500.0 5793.0
  vertex 650500.0 5481500.0 5823.2001953125
  vertex 649500.0 5481500.0 5794.2998046875
 endloop
endfacet
facet normal 0.009297371841967106 -0.02089492417871952 -0.9997384548187256
 outer loop
  vertex 649500.0 5482500.0 5793.0
  vertex 650500.0 5482500.0 5802.2998046875
  vertex 650500.0 5481500.0 5823.2001953125
 endloop
endfacet
facet normal -0.004799189977347851 -0.020895587280392647 -0.9997701644897461
 outer loop
  vertex 650500.0 5482500.0 5802.2998046875
  vertex 651500.0 5481500.0 5818.39990234375
  vertex 650500.0 5481500.0 5823.2001953125
 endloop
endfacet
facet normal 0.018596824258565903 0.0024995598942041397 -0.9998239874839783
 outer loop
  vertex 650500.0 5482500.0 5802.2998046875
  vertex 651500.0 5482500.0 5820.89990234375
  vertex 651500.0 5481500.0 5818.39990234375
 endloop
endfacet
facet normal 0.10137463361024857 0.0024871130008250475 -0.9948452115058899
 outer loop
  vertex 651500.0 5482500.0 5820.89990234375
  vertex 652500.0 5481500.0 5920.2998046875
  vertex 651500.0 5481500.0 5818.39990234375
 endloop
endfacet
facet normal 0.08359619230031967 -0.015443890355527401 -0.9963800311088562
 outer loop
  vertex 651500.0 5482500.0 5820.89990234375
  vertex 652500.0 5482500.0 5904.7998046875
  vertex 652500.0 5481500.0 5920.2998046875
 endloop
endfacet
facet normal 0.09653536975383759 -0.015425754711031914 -0.9952099919319153
 outer loop
  vertex 652500.0 5482500.0 5904.7998046875
  vertex 653500.0 5481500.0 6017.2998046875
  vertex 652500.0 5481500.0 5920.2998046875
 endloop
endfacet
facet normal 0.0484442338347435 -0.06369496881961823 -0.9967929720878601
 outer loop
  vertex 652500.0 5482500.0 5904.7998046875
  vertex 653500.0 5482500.0 5953.39990234375
  vertex 653500.0 5481500.0 6017.2998046875
 endloop
endfacet
facet normal -0.32503658533096313 -0.06030723452568054 -0.9437766075134277
 outer loop
  vertex 653500.0 5482500.0 5953.39990234375
  vertex 654500.0 5481500.0 5672.89990234375
  vertex 653500.0 5481500.0 6017.2998046875
 endloop
endfacet
facet normal -0.09655500948429108 0.17812708020210266 -0.9792588353157043
 outer loop
  vertex 653500.0 5482500.0 5953.39990234375
  vertex 654500.0 5482500.0 5854.7998046875
  vertex 654500.0 5481500.0 5672.89990234375
 endloop
endfacet
facet normal 0.020460208877921104 0.17892581224441528 -0.9836498498916626
 outer loop
  vertex 654500.0 5482500.0 5854.7998046875
  vertex 655500.0 5481500.0 5693.7001953125
  vertex 654500.0 5481500.0 5672.89990234375
 endloop
endfacet
facet normal 0.02998187020421028 0.01758946105837822 -0.9993956685066223
 outer loop
  vertex 646500.0 5483500.0 5699.2001953125
  vertex 647500.0 5482500.0 5711.60009765625
  vertex 646500.0 5482500.0 5681.60009765625
 endloop
endfacet
facet normal 0.012499023228883743 0.00010008983372244984 -0.9999218583106995
 outer loop
  vertex 646500.0 5483500.0 5699.2001953125
  vertex 647500.0 5483500.0 5711.7001953125
  vertex 647500.0 5482500.0 5711.60009765625
 endloop
endfacet
facet normal 0.0721115693449974 9.983705967897549e-05 -0.9973965287208557
 outer loop
  vertex 647500.0 5483500.0 5711.7001953125
  vertex 648500.0 5482500.0 5783.89990234375
  vertex 647500.0 5482500.0 5711.60009765625
 endloop
endfacet
facet normal 0.03924828767776489 -0.0328567735850811 -0.9986891746520996
 outer loop
  vertex 647500.0 5483500.0 5711.7001953125
  vertex 648500.0 5483500.0 5751.0
  vertex 648500.0 5482500.0 5783.89990234375
 endloop
endfacet
facet normal 0.009094800800085068 -0.032880749553442 -0.9994179010391235
 outer loop
  vertex 648500.0 5483500.0 5751.0
  vertex 649500.0 5482500.0 5793.0
  vertex 648500.0 5482500.0 5783.89990234375
 endloop
endfacet
facet normal -0.009187771938741207 -0.05113105848431587 -0.9986497163772583
 outer loop
  vertex 648500.0 5483500.0 5751.0
  vertex 649500.0 5483500.0 5741.7998046875
  vertex 649500.0 5482500.0 5793.0
 endloop
endfacet
facet normal 0.009287238121032715 -0.05113101005554199 -0.9986487627029419
 outer loop
  vertex 649500.0 5483500.0 5741.7998046875
  vertex 650500.0 5482500.0 5802.2998046875
  vertex 649500.0 5482500.0 5793.0
 endloop
endfacet
facet normal 0.027175087481737137 -0.033269066363573074 -0.9990769028663635
 outer loop
  vertex 649500.0 5483500.0 5741.7998046875
  vertex 650500.0 5483500.0 5769.0
  vertex 650500.0 5482500.0 5802.2998046875
 endloop
endfacet
facet normal 0.01858658343553543 -0.03327560797333717 -0.999273419380188
 outer loop
  vertex 650500.0 5483500.0 5769.0
  vertex 651500.0 5482500.0 5820.89990234375
  vertex 650500.0 5482500.0 5802.2998046875
 endloop
endfacet
facet normal 0.038767311722040176 -0.013089126907289028 -0.999162495136261
 outer loop
  vertex 650500.0 5483500.0 5769.0
  vertex 651500.0 5483500.0 5807.7998046875
  vertex 651500.0 5482500.0 5820.89990234375
 endloop
endfacet
facet normal 0.0835990384221077 -0.013053120113909245 -0.9964139461517334
 outer loop
  vertex 651500.0 5483500.0 5807.7998046875
  vertex 652500.0 5482500.0 5904.7998046875
  vertex 651500.0 5482500.0 5820.89990234375
 endloop
endfacet
facet normal 0.03900501877069473 -0.057759106159210205 -0.9975683093070984
 outer loop
  vertex 651500.0 5483500.0 5807.7998046875
  vertex 652500.0 5483500.0 5846.89990234375
  vertex 652500.0 5482500.0 5904.7998046875
 endloop
endfacet
facet normal 0.048461828380823135 -0.057735174894332886 -0.9971550107002258
 outer loop
  vertex 652500.0 5483500.0 5846.89990234375
  vertex 653500.0 5482500.0 5953.39990234375
  vertex 652500.0 5482500.0 5904.7998046875
 endloop
endfacet
facet normal 0.0754486471414566 -0.03069745935499668 -0.9966771006584167
 outer loop
  vertex 652500.0 5483500.0 5846.89990234375
  vertex 653500.0 5483500.0 5922.60009765625
  vertex 653500.0 5482500.0 5953.39990234375
 endloop
endfacet
facet normal -0.09807820618152618 -0.030636779963970184 -0.9947069883346558
 outer loop
  vertex 653500.0 5483500.0 5922.60009765625
  vertex 654500.0 5482500.0 5854.7998046875
  vertex 653500.0 5482500.0 5953.39990234375
 endloop
endfacet
facet normal 0.012498932890594006 0.0037994803860783577 -0.9999146461486816
 outer loop
  vertex 646500.0 5484500.0 5703.0
  vertex 647500.0 5483500.0 5711.7001953125
  vertex 646500.0 5483500.0 5699.2001953125
 endloop
endfacet
facet normal 0.04134241119027138 0.0326542966067791 -0.998611330986023
 outer loop
  vertex 646500.0 5484500.0 5703.0
  vertex 647500.0 5484500.0 5744.39990234375
  vertex 647500.0 5483500.0 5711.7001953125
 endloop
endfacet
facet normal 0.039248544722795486 0.03265705704689026 -0.9986957311630249
 outer loop
  vertex 647500.0 5484500.0 5744.39990234375
  vertex 648500.0 5483500.0 5751.0
  vertex 647500.0 5483500.0 5711.7001953125
 endloop
endfacet
facet normal -0.013795620761811733 -0.020393718034029007 -0.9996968507766724
 outer loop
  vertex 647500.0 5484500.0 5744.39990234375
  vertex 648500.0 5484500.0 5730.60009765625
  vertex 648500.0 5483500.0 5751.0
 endloop
endfacet
facet normal -0.009197892621159554 -0.02039479650557041 -0.9997496604919434
 outer loop
  vertex 648500.0 5484500.0 5730.60009765625
  vertex 649500.0 5483500.0 5741.7998046875
  vertex 648500.0 5483500.0 5751.0
 endloop
endfacet
facet normal 0.011099413968622684 -9.96032395050861e-05 -0.9999383687973022
 outer loop
  vertex 648500.0 5484500.0 5730.60009765625
  vertex 649500.0 5484500.0 5741.7001953125
  vertex 649500.0 5483500.0 5741.7998046875
 endloop
endfacet
facet normal 0.027190137654542923 -9.957254223991185e-05 -0.9996302723884583
 outer loop
  vertex 649500.0 5484500.0 5741.7001953125
  vertex 650500.0 5483500.0 5769.0
  vertex 649500.0 5483500.0 5741.7998046875
 endloop
endfacet
facet normal 0.04155942052602768 0.014285989105701447 -0.9990338683128357
 outer loop
  vertex 649500.0 5484500.0 5741.7001953125
  vertex 650500.0 5484500.0 5783.2998046875
  vertex 650500.0 5483500.0 5769.0
 endloop
endfacet
facet normal 0.03876667469739914 0.014287594705820084 -0.9991461634635925
 outer loop
  vertex 650500.0 5484500.0 5783.2998046875
  vertex 651500.0 5483500.0 5807.7998046875
  vertex 650500.0 5483500.0 5769.0
 endloop
endfacet
facet normal 0.06738388538360596 0.042962245643138885 -0.9968016743659973
 outer loop
  vertex 650500.0 5484500.0 5783.2998046875
  vertex 651500.0 5484500.0 5850.89990234375
  vertex 651500.0 5483500.0 5807.7998046875
 endloop
endfacet
facet normal 0.03903406113386154 0.043027304112911224 -0.9983110427856445
 outer loop
  vertex 651500.0 5484500.0 5850.89990234375
  vertex 652500.0 5483500.0 5846.89990234375
  vertex 651500.0 5483500.0 5807.7998046875
 endloop
endfacet
facet normal 0.08054546266794205 0.08451810479164124 -0.993161141872406
 outer loop
  vertex 651500.0 5484500.0 5850.89990234375
  vertex 652500.0 5484500.0 5932.0
  vertex 652500.0 5483500.0 5846.89990234375
 endloop
endfacet
facet normal 0.07521390169858932 0.08455342054367065 -0.993576169013977
 outer loop
  vertex 652500.0 5484500.0 5932.0
  vertex 653500.0 5483500.0 5922.60009765625
  vertex 652500.0 5483500.0 5846.89990234375
 endloop
endfacet
facet normal 0.06625519692897797 0.054399099200963974 -0.9963186979293823
 outer loop
  vertex 645500.0 5485500.0 5691.10009765625
  vertex 646500.0 5485500.0 5757.60009765625
  vertex 646500.0 5484500.0 5703.0
 endloop
endfacet
facet normal 0.04130305349826813 0.05447237193584442 -0.9976606965065002
 outer loop
  vertex 646500.0 5485500.0 5757.60009765625
  vertex 647500.0 5484500.0 5744.39990234375
  vertex 646500.0 5484500.0 5703.0
 endloop
endfacet
facet normal -0.04851248860359192 -0.03533608838915825 -0.9981973171234131
 outer loop
  vertex 646500.0 5485500.0 5757.60009765625
  vertex 647500.0 5485500.0 5709.0
  vertex 647500.0 5484500.0 5744.39990234375
 endloop
endfacet
facet normal -0.013789854943752289 -0.03537438064813614 -0.9992790222167969
 outer loop
  vertex 647500.0 5485500.0 5709.0
  vertex 648500.0 5484500.0 5730.60009765625
  vertex 647500.0 5484500.0 5744.39990234375
 endloop
endfacet
facet normal 0.08077462017536163 0.03854488208889961 -0.995986819267273
 outer loop
  vertex 651500.0 5485500.0 5889.60009765625
  vertex 652500.0 5484500.0 5932.0
  vertex 651500.0 5484500.0 5850.89990234375
 endloop
endfacet
facet normal 0.196973517537117 0.1559334248304367 -0.9679288268089294
 outer loop
  vertex 651500.0 5485500.0 5889.60009765625
  vertex 652500.0 5485500.0 6093.10009765625
  vertex 652500.0 5484500.0 5932.0
 endloop
endfacet
facet normal 0.03129732236266136 -0.07445614784955978 -0.9967330694198608
 outer loop
  vertex 644500.0 5486500.0 5585.0
  vertex 645500.0 5486500.0 5616.39990234375
  vertex 645500.0 5485500.0 5691.10009765625
 endloop
endfacet
facet normal 0.06616988778114319 -0.07432938367128372 -0.9950360059738159
 outer loop
  vertex 645500.0 5486500.0 5616.39990234375
  vertex 646500.0 5485500.0 5757.60009765625
  vertex 645500.0 5485500.0 5691.10009765625
 endloop
endfacet
facet normal 0.020547188818454742 -0.1196093037724495 -0.9926084280014038
 outer loop
  vertex 645500.0 5486500.0 5616.39990234375
  vertex 646500.0 5486500.0 5637.10009765625
  vertex 646500.0 5485500.0 5757.60009765625
 endloop
endfacet
facet normal -0.04819497838616371 -0.11949554830789566 -0.9916642904281616
 outer loop
  vertex 646500.0 5486500.0 5637.10009765625
  vertex 647500.0 5485500.0 5709.0
  vertex 646500.0 5485500.0 5757.60009765625
 endloop
endfacet
facet normal 0.06376781314611435 -0.007983466610312462 -0.9979328513145447
 outer loop
  vertex 646500.0 5486500.0 5637.10009765625
  vertex 647500.0 5486500.0 5701.0
  vertex 647500.0 5485500.0 5709.0
 endloop
endfacet
facet normal 0.03136727213859558 -0.03306570276618004 -0.9989608526229858
 outer loop
  vertex 644500.0 5487500.0 5551.89990234375
  vertex 645500.0 5486500.0 5616.39990234375
  vertex 644500.0 5486500.0 5585.0
 endloop
endfacet
facet normal 0.054814837872982025 -0.009585222229361534 -0.998450517654419
 outer loop
  vertex 644500.0 5487500.0 5551.89990234375
  vertex 645500.0 5487500.0 5606.7998046875
  vertex 645500.0 5486500.0 5616.39990234375
 endloop
endfacet
facet normal 0.020694809034466743 -0.009597599506378174 -0.9997397661209106
 outer loop
  vertex 645500.0 5487500.0 5606.7998046875
  vertex 646500.0 5486500.0 5637.10009765625
  vertex 645500.0 5486500.0 5616.39990234375
 endloop
endfacet
facet normal 0.022793728858232498 -0.007497840560972691 -0.9997121095657349
 outer loop
  vertex 645500.0 5487500.0 5606.7998046875
  vertex 646500.0 5487500.0 5629.60009765625
  vertex 646500.0 5486500.0 5637.10009765625
 endloop
endfacet
facet normal 0.06376805901527405 -0.007484525442123413 -0.9979367256164551
 outer loop
  vertex 646500.0 5487500.0 5629.60009765625
  vertex 647500.0 5486500.0 5701.0
  vertex 646500.0 5486500.0 5637.10009765625
 endloop
endfacet
facet normal 0.03445606306195259 -0.036852914839982986 -0.998726487159729
 outer loop
  vertex 646500.0 5487500.0 5629.60009765625
  vertex 647500.0 5487500.0 5664.10009765625
  vertex 647500.0 5486500.0 5701.0
 endloop
endfacet
facet normal 0.014089110307395458 -0.03687114641070366 -0.9992207288742065
 outer loop
  vertex 647500.0 5487500.0 5664.10009765625
  vertex 648500.0 5486500.0 5715.10009765625
  vertex 647500.0 5486500.0 5701.0
 endloop
endfacet
facet normal 0.041562315076589584 -0.009391364641487598 -0.9990917444229126
 outer loop
  vertex 647500.0 5487500.0 5664.10009765625
  vertex 648500.0 5487500.0 5705.7001953125
  vertex 648500.0 5486500.0 5715.10009765625
 endloop
endfacet
facet normal 0.08251091837882996 0.012556140311062336 -0.9965110421180725
 outer loop
  vertex 643500.0 5488500.0 5481.7001953125
  vertex 644500.0 5488500.0 5564.5
  vertex 644500.0 5487500.0 5551.89990234375
 endloop
endfacet
facet normal 0.05481301620602608 0.012580156326293945 -0.9984173774719238
 outer loop
  vertex 644500.0 5488500.0 5564.5
  vertex 645500.0 5487500.0 5606.7998046875
  vertex 644500.0 5487500.0 5551.89990234375
 endloop
endfacet
facet normal 0.07820833474397659 0.03606569394469261 -0.9962844848632812
 outer loop
  vertex 644500.0 5488500.0 5564.5
  vertex 645500.0 5488500.0 5643.0
  vertex 645500.0 5487500.0 5606.7998046875
 endloop
endfacet
facet normal 0.02277945540845394 0.03616711124777794 -0.9990860819816589
 outer loop
  vertex 645500.0 5488500.0 5643.0
  vertex 646500.0 5487500.0 5629.60009765625
  vertex 645500.0 5487500.0 5606.7998046875
 endloop
endfacet
endsolid
