solid
facet normal 0.00609957380220294 -0.011599101126194 -0.9999141097068787
 outer loop
  vertex 507500.0 5970500.0 2640.39990234375
  vertex 508500.0 5970500.0 2646.5
  vertex 508500.0 5969500.0 2658.10009765625
 endloop
endfacet
facet normal 0.0012997161829844117 -0.011599307879805565 -0.9999318718910217
 outer loop
  vertex 508500.0 5970500.0 2646.5
  vertex 509500.0 5969500.0 2659.39990234375
  vertex 508500.0 5969500.0 2658.10009765625
 endloop
endfacet
facet normal 0.0034998238552361727 -0.009399429894983768 -0.9999496936798096
 outer loop
  vertex 508500.0 5970500.0 2646.5
  vertex 509500.0 5970500.0 2650.0
  vertex 509500.0 5969500.0 2659.39990234375
 endloop
endfacet
facet normal -0.010198920965194702 0.009898902848362923 -0.9998990297317505
 outer loop
  vertex 501500.0 5971500.0 2661.89990234375
  vertex 502500.0 5970500.0 2641.800048828125
  vertex 501500.0 5970500.0 2652.0
 endloop
endfacet
facet normal -0.0013996562920510769 0.01869666390120983 -0.9998242259025574
 outer loop
  vertex 501500.0 5971500.0 2661.89990234375
  vertex 502500.0 5971500.0 2660.5
  vertex 502500.0 5970500.0 2641.800048828125
 endloop
endfacet
facet normal -0.0005999926361255348 0.018696678802371025 -0.9998250603675842
 outer loop
  vertex 502500.0 5971500.0 2660.5
  vertex 503500.0 5970500.0 2641.199951171875
  vertex 502500.0 5970500.0 2641.800048828125
 endloop
endfacet
facet normal -0.000999832060188055 0.018296975642442703 -0.9998320937156677
 outer loop
  vertex 502500.0 5971500.0 2660.5
  vertex 503500.0 5971500.0 2659.5
  vertex 503500.0 5970500.0 2641.199951171875
 endloop
endfacet
facet normal -0.006698679178953171 0.01829657517373562 -0.9998101592063904
 outer loop
  vertex 503500.0 5971500.0 2659.5
  vertex 504500.0 5970500.0 2634.5
  vertex 503500.0 5970500.0 2641.199951171875
 endloop
endfacet
endsolid
