solid
facet normal 0.10407083481550217 0.2462039738893509 -0.9636145234107971
 outer loop
  vertex 704500.0 5573500.0 8123.39990234375
  vertex 705500.0 5573500.0 8231.400390625
  vertex 705500.0 5572500.0 7975.89990234375
 endloop
endfacet
facet normal -0.13007117807865143 0.24544517695903778 -0.9606446623802185
 outer loop
  vertex 705500.0 5573500.0 8231.400390625
  vertex 706500.0 5572500.0 7840.5
  vertex 705500.0 5572500.0 7975.89990234375
 endloop
endfacet
facet normal -0.46434974670410156 -0.1214168444275856 -0.8772897720336914
 outer loop
  vertex 705500.0 5573500.0 8231.400390625
  vertex 706500.0 5573500.0 7702.10009765625
  vertex 706500.0 5572500.0 7840.5
 endloop
endfacet
facet normal -0.15175355970859528 0.21779561042785645 -0.9641244411468506
 outer loop
  vertex 703500.0 5574500.0 8506.7001953125
  vertex 704500.0 5574500.0 8349.2998046875
  vertex 704500.0 5573500.0 8123.39990234375
 endloop
endfacet
facet normal 0.10476625710725784 0.21913500130176544 -0.9700535535812378
 outer loop
  vertex 704500.0 5574500.0 8349.2998046875
  vertex 705500.0 5573500.0 8231.400390625
  vertex 704500.0 5573500.0 8123.39990234375
 endloop
endfacet
facet normal -0.4407918453216553 -0.3429952561855316 -0.8294918537139893
 outer loop
  vertex 704500.0 5574500.0 8349.2998046875
  vertex 705500.0 5574500.0 7817.89990234375
  vertex 705500.0 5573500.0 8231.400390625
 endloop
endfacet
facet normal -0.4393870532512665 -0.3432583808898926 -0.8301280736923218
 outer loop
  vertex 705500.0 5574500.0 7817.89990234375
  vertex 706500.0 5573500.0 7702.10009765625
  vertex 705500.0 5573500.0 8231.400390625
 endloop
endfacet
facet normal -0.0773114487528801 0.03805762156844139 -0.9962803721427917
 outer loop
  vertex 705500.0 5574500.0 7817.89990234375
  vertex 706500.0 5574500.0 7740.2998046875
  vertex 706500.0 5573500.0 7702.10009765625
 endloop
endfacet
facet normal -0.2175026834011078 0.03725802153348923 -0.9753483533859253
 outer loop
  vertex 706500.0 5574500.0 7740.2998046875
  vertex 707500.0 5573500.0 7479.10009765625
  vertex 706500.0 5573500.0 7702.10009765625
 endloop
endfacet
facet normal -0.05132497474551201 0.20402871072292328 -0.9776185750961304
 outer loop
  vertex 706500.0 5574500.0 7740.2998046875
  vertex 707500.0 5574500.0 7687.7998046875
  vertex 707500.0 5573500.0 7479.10009765625
 endloop
endfacet
facet normal 0.10973700881004333 -0.32441842555999756 -0.9395267963409424
 outer loop
  vertex 701500.0 5575500.0 8120.10009765625
  vertex 702500.0 5575500.0 8236.900390625
  vertex 702500.0 5574500.0 8582.2001953125
 endloop
endfacet
facet normal -0.07118422538042068 -0.3255615830421448 -0.9428374171257019
 outer loop
  vertex 702500.0 5575500.0 8236.900390625
  vertex 703500.0 5574500.0 8506.7001953125
  vertex 702500.0 5574500.0 8582.2001953125
 endloop
endfacet
facet normal 0.25859320163726807 -0.0020291402470320463 -0.9659841656684875
 outer loop
  vertex 702500.0 5575500.0 8236.900390625
  vertex 703500.0 5575500.0 8504.599609375
  vertex 703500.0 5574500.0 8506.7001953125
 endloop
endfacet
facet normal -0.15548577904701233 -0.002075034426525235 -0.9878359436988831
 outer loop
  vertex 703500.0 5575500.0 8504.599609375
  vertex 704500.0 5574500.0 8349.2998046875
  vertex 703500.0 5574500.0 8506.7001953125
 endloop
endfacet
facet normal -0.06589524447917938 0.08845692873001099 -0.9938979744911194
 outer loop
  vertex 703500.0 5575500.0 8504.599609375
  vertex 704500.0 5575500.0 8438.2998046875
  vertex 704500.0 5574500.0 8349.2998046875
 endloop
endfacet
facet normal -0.4678158760070801 0.07835081219673157 -0.8803461790084839
 outer loop
  vertex 704500.0 5575500.0 8438.2998046875
  vertex 705500.0 5574500.0 7817.89990234375
  vertex 704500.0 5574500.0 8349.2998046875
 endloop
endfacet
facet normal -0.0918312668800354 0.4570339620113373 -0.8846959471702576
 outer loop
  vertex 704500.0 5575500.0 8438.2998046875
  vertex 705500.0 5575500.0 8334.5
  vertex 705500.0 5574500.0 7817.89990234375
 endloop
endfacet
facet normal -0.06878052651882172 0.45788639783859253 -0.8863459825515747
 outer loop
  vertex 705500.0 5575500.0 8334.5
  vertex 706500.0 5574500.0 7740.2998046875
  vertex 705500.0 5574500.0 7817.89990234375
 endloop
endfacet
facet normal -0.21858207881450653 0.327597975730896 -0.919185221195221
 outer loop
  vertex 705500.0 5575500.0 8334.5
  vertex 706500.0 5575500.0 8096.7001953125
  vertex 706500.0 5574500.0 7740.2998046875
 endloop
endfacet
facet normal -0.049392711371183395 0.3353062868118286 -0.9408135414123535
 outer loop
  vertex 706500.0 5575500.0 8096.7001953125
  vertex 707500.0 5574500.0 7687.7998046875
  vertex 706500.0 5574500.0 7740.2998046875
 endloop
endfacet
facet normal -0.4069412648677826 -0.03368345648050308 -0.9128330945968628
 outer loop
  vertex 706500.0 5575500.0 8096.7001953125
  vertex 707500.0 5575500.0 7650.89990234375
  vertex 707500.0 5574500.0 7687.7998046875
 endloop
endfacet
facet normal -0.2459343671798706 -0.035742249339818954 -0.9686272740364075
 outer loop
  vertex 707500.0 5575500.0 7650.89990234375
  vertex 708500.0 5574500.0 7433.89990234375
  vertex 707500.0 5574500.0 7687.7998046875
 endloop
endfacet
facet normal -0.2175571322441101 -0.005758489482104778 -0.9760306477546692
 outer loop
  vertex 707500.0 5575500.0 7650.89990234375
  vertex 708500.0 5575500.0 7428.0
  vertex 708500.0 5574500.0 7433.89990234375
 endloop
endfacet
facet normal -0.049040354788303375 0.3803198039531708 -0.923554003238678
 outer loop
  vertex 700500.0 5576500.0 8585.0
  vertex 701500.0 5576500.0 8531.900390625
  vertex 701500.0 5575500.0 8120.10009765625
 endloop
endfacet
facet normal 0.10737688839435577 0.3785764276981354 -0.9193204641342163
 outer loop
  vertex 701500.0 5576500.0 8531.900390625
  vertex 702500.0 5575500.0 8236.900390625
  vertex 701500.0 5575500.0 8120.10009765625
 endloop
endfacet
facet normal -0.43898385763168335 -0.17925645411014557 -0.8804318308830261
 outer loop
  vertex 701500.0 5576500.0 8531.900390625
  vertex 702500.0 5576500.0 8033.2998046875
  vertex 702500.0 5575500.0 8236.900390625
 endloop
endfacet
facet normal 0.25373294949531555 -0.19297845661640167 -0.9478285312652588
 outer loop
  vertex 702500.0 5576500.0 8033.2998046875
  vertex 703500.0 5575500.0 8504.599609375
  vertex 702500.0 5575500.0 8236.900390625
 endloop
endfacet
facet normal 0.3361872732639313 -0.1049177274107933 -0.9359329342842102
 outer loop
  vertex 702500.0 5576500.0 8033.2998046875
  vertex 703500.0 5576500.0 8392.5
  vertex 703500.0 5575500.0 8504.599609375
 endloop
endfacet
facet normal -0.06574457138776779 -0.11116082221269608 -0.9916254281997681
 outer loop
  vertex 703500.0 5576500.0 8392.5
  vertex 704500.0 5575500.0 8438.2998046875
  vertex 703500.0 5575500.0 8504.599609375
 endloop
endfacet
facet normal -0.1931050717830658 -0.23671545088291168 -0.9521955251693726
 outer loop
  vertex 703500.0 5576500.0 8392.5
  vertex 704500.0 5576500.0 8189.7001953125
  vertex 704500.0 5575500.0 8438.2998046875
 endloop
endfacet
facet normal -0.10022646933794022 -0.24004152417182922 -0.9655748605728149
 outer loop
  vertex 704500.0 5576500.0 8189.7001953125
  vertex 705500.0 5575500.0 8334.5
  vertex 704500.0 5575500.0 8438.2998046875
 endloop
endfacet
facet normal -0.023855043575167656 -0.1665896624326706 -0.985737681388855
 outer loop
  vertex 704500.0 5576500.0 8189.7001953125
  vertex 705500.0 5576500.0 8165.5
  vertex 705500.0 5575500.0 8334.5
 endloop
endfacet
facet normal -0.2282835841178894 -0.1622369885444641 -0.95998215675354
 outer loop
  vertex 705500.0 5576500.0 8165.5
  vertex 706500.0 5575500.0 8096.7001953125
  vertex 705500.0 5575500.0 8334.5
 endloop
endfacet
facet normal -0.31787875294685364 -0.25505200028419495 -0.9131820797920227
 outer loop
  vertex 705500.0 5576500.0 8165.5
  vertex 706500.0 5576500.0 7817.39990234375
  vertex 706500.0 5575500.0 8096.7001953125
 endloop
endfacet
facet normal -0.39453721046447754 -0.24718323349952698 -0.8850089311599731
 outer loop
  vertex 706500.0 5576500.0 7817.39990234375
  vertex 707500.0 5575500.0 7650.89990234375
  vertex 706500.0 5575500.0 8096.7001953125
 endloop
endfacet
facet normal -0.20894402265548706 -0.046301692724227905 -0.9768308401107788
 outer loop
  vertex 706500.0 5576500.0 7817.39990234375
  vertex 707500.0 5576500.0 7603.5
  vertex 707500.0 5575500.0 7650.89990234375
 endloop
endfacet
facet normal -0.217328280210495 -0.04621508717536926 -0.9750038981437683
 outer loop
  vertex 707500.0 5576500.0 7603.5
  vertex 708500.0 5575500.0 7428.0
  vertex 707500.0 5575500.0 7650.89990234375
 endloop
endfacet
facet normal -0.18975768983364105 -0.01747363992035389 -0.9816755056381226
 outer loop
  vertex 707500.0 5576500.0 7603.5
  vertex 708500.0 5576500.0 7410.2001953125
  vertex 708500.0 5575500.0 7428.0
 endloop
endfacet
facet normal -0.19756092131137848 -0.10939878225326538 -0.9741671681404114
 outer loop
  vertex 703500.0 5577500.0 8280.2001953125
  vertex 704500.0 5576500.0 8189.7001953125
  vertex 703500.0 5576500.0 8392.5
 endloop
endfacet
facet normal -0.014557168819010258 0.07567371428012848 -0.9970263838768005
 outer loop
  vertex 703500.0 5577500.0 8280.2001953125
  vertex 704500.0 5577500.0 8265.599609375
  vertex 704500.0 5576500.0 8189.7001953125
 endloop
endfacet
facet normal -0.024123767390847206 0.07565970718860626 -0.9968418478965759
 outer loop
  vertex 704500.0 5577500.0 8265.599609375
  vertex 705500.0 5576500.0 8165.5
  vertex 704500.0 5576500.0 8189.7001953125
 endloop
endfacet
facet normal -0.1952735036611557 -0.09758815169334412 -0.9758815169334412
 outer loop
  vertex 704500.0 5577500.0 8265.599609375
  vertex 705500.0 5577500.0 8065.5
  vertex 705500.0 5576500.0 8165.5
 endloop
endfacet
facet normal -0.32729509472846985 -0.09402327239513397 -0.9402326941490173
 outer loop
  vertex 705500.0 5577500.0 8065.5
  vertex 706500.0 5576500.0 7817.39990234375
  vertex 705500.0 5576500.0 8165.5
 endloop
endfacet
facet normal -0.25450441241264343 -0.014601207338273525 -0.9669613242149353
 outer loop
  vertex 705500.0 5577500.0 8065.5
  vertex 706500.0 5577500.0 7802.2998046875
  vertex 706500.0 5576500.0 7817.39990234375
 endloop
endfacet
facet normal -0.20914557576179504 -0.014764469116926193 -0.9777730703353882
 outer loop
  vertex 706500.0 5577500.0 7802.2998046875
  vertex 707500.0 5576500.0 7603.5
  vertex 706500.0 5576500.0 7817.39990234375
 endloop
endfacet
facet normal -0.3696483373641968 -0.18878185749053955 -0.9097920656204224
 outer loop
  vertex 706500.0 5577500.0 7802.2998046875
  vertex 707500.0 5577500.0 7396.0
  vertex 707500.0 5576500.0 7603.5
 endloop
endfacet
facet normal -0.1859665811061859 -0.1996280550956726 -0.9620628952980042
 outer loop
  vertex 707500.0 5577500.0 7396.0
  vertex 708500.0 5576500.0 7410.2001953125
  vertex 707500.0 5576500.0 7603.5
 endloop
endfacet
facet normal 0.19508618116378784 0.1813991218805313 -0.9638649821281433
 outer loop
  vertex 707500.0 5577500.0 7396.0
  vertex 708500.0 5577500.0 7598.39990234375
  vertex 708500.0 5576500.0 7410.2001953125
 endloop
endfacet
facet normal 0.49079757928848267 0.16114448010921478 -0.8562418818473816
 outer loop
  vertex 708500.0 5577500.0 7598.39990234375
  vertex 709500.0 5576500.0 7983.39990234375
  vertex 708500.0 5576500.0 7410.2001953125
 endloop
endfacet
facet normal 0.4259517788887024 0.07895346730947495 -0.9012942910194397
 outer loop
  vertex 708500.0 5577500.0 7598.39990234375
  vertex 709500.0 5577500.0 8071.0
  vertex 709500.0 5576500.0 7983.39990234375
 endloop
endfacet
facet normal -0.19526979327201843 -0.09778117388486862 -0.9758629202842712
 outer loop
  vertex 704500.0 5578500.0 8165.39990234375
  vertex 705500.0 5577500.0 8065.5
  vertex 704500.0 5577500.0 8265.599609375
 endloop
endfacet
facet normal -0.35671982169151306 -0.267293781042099 -0.8951563835144043
 outer loop
  vertex 704500.0 5578500.0 8165.39990234375
  vertex 705500.0 5578500.0 7766.89990234375
  vertex 705500.0 5577500.0 8065.5
 endloop
endfacet
facet normal -0.24454009532928467 -0.2774302661418915 -0.9291030764579773
 outer loop
  vertex 705500.0 5578500.0 7766.89990234375
  vertex 706500.0 5577500.0 7802.2998046875
  vertex 705500.0 5577500.0 8065.5
 endloop
endfacet
facet normal -0.34451377391815186 -0.3749803304672241 -0.8606393337249756
 outer loop
  vertex 705500.0 5578500.0 7766.89990234375
  vertex 706500.0 5578500.0 7366.60009765625
  vertex 706500.0 5577500.0 7802.2998046875
 endloop
endfacet
facet normal -0.3490525484085083 -0.3743100166320801 -0.859100878238678
 outer loop
  vertex 706500.0 5578500.0 7366.60009765625
  vertex 707500.0 5577500.0 7396.0
  vertex 706500.0 5577500.0 7802.2998046875
 endloop
endfacet
facet normal 0.15097041428089142 0.1221301332116127 -0.9809648990631104
 outer loop
  vertex 706500.0 5578500.0 7366.60009765625
  vertex 707500.0 5578500.0 7520.5
  vertex 707500.0 5577500.0 7396.0
 endloop
endfacet
facet normal 0.19691669940948486 0.1211271733045578 -0.9729090332984924
 outer loop
  vertex 707500.0 5578500.0 7520.5
  vertex 708500.0 5577500.0 7598.39990234375
  vertex 707500.0 5577500.0 7396.0
 endloop
endfacet
facet normal 0.3653731942176819 0.29663971066474915 -0.882330596446991
 outer loop
  vertex 707500.0 5578500.0 7520.5
  vertex 708500.0 5578500.0 7934.60009765625
  vertex 708500.0 5577500.0 7598.39990234375
 endloop
endfacet
facet normal 0.4088166654109955 0.29082566499710083 -0.865037202835083
 outer loop
  vertex 708500.0 5578500.0 7934.60009765625
  vertex 709500.0 5577500.0 8071.0
  vertex 708500.0 5577500.0 7598.39990234375
 endloop
endfacet
facet normal 0.13183832168579102 -0.0033702098298817873 -0.9912655353546143
 outer loop
  vertex 708500.0 5578500.0 7934.60009765625
  vertex 709500.0 5578500.0 8067.60009765625
  vertex 709500.0 5577500.0 8071.0
 endloop
endfacet
facet normal -0.171805739402771 -0.0033493293449282646 -0.9851251840591431
 outer loop
  vertex 709500.0 5578500.0 8067.60009765625
  vertex 710500.0 5577500.0 7896.60009765625
  vertex 709500.0 5577500.0 8071.0
 endloop
endfacet
facet normal 0.0685591995716095 0.2343820035457611 -0.9697239995002747
 outer loop
  vertex 709500.0 5578500.0 8067.60009765625
  vertex 710500.0 5578500.0 8138.2998046875
  vertex 710500.0 5577500.0 7896.60009765625
 endloop
endfacet
facet normal -0.3700435161590576 -0.028043176978826523 -0.9285910129547119
 outer loop
  vertex 704500.0 5579500.0 8135.2001953125
  vertex 705500.0 5578500.0 7766.89990234375
  vertex 704500.0 5578500.0 8165.39990234375
 endloop
endfacet
facet normal -0.5736497640609741 -0.2917613387107849 -0.7653765678405762
 outer loop
  vertex 704500.0 5579500.0 8135.2001953125
  vertex 705500.0 5579500.0 7385.7001953125
  vertex 705500.0 5578500.0 7766.89990234375
 endloop
endfacet
facet normal -0.3503386974334717 -0.3336224853992462 -0.875190794467926
 outer loop
  vertex 705500.0 5579500.0 7385.7001953125
  vertex 706500.0 5578500.0 7366.60009765625
  vertex 705500.0 5578500.0 7766.89990234375
 endloop
endfacet
facet normal 0.07583487033843994 0.09479370713233948 -0.9926042556762695
 outer loop
  vertex 705500.0 5579500.0 7385.7001953125
  vertex 706500.0 5579500.0 7462.10009765625
  vertex 706500.0 5578500.0 7366.60009765625
 endloop
endfacet
facet normal 0.151435986161232 0.09397105872631073 -0.9839901328086853
 outer loop
  vertex 706500.0 5579500.0 7462.10009765625
  vertex 707500.0 5578500.0 7520.5
  vertex 706500.0 5578500.0 7366.60009765625
 endloop
endfacet
facet normal 0.22336001694202423 0.16728004813194275 -0.9602748155593872
 outer loop
  vertex 706500.0 5579500.0 7462.10009765625
  vertex 707500.0 5579500.0 7694.7001953125
  vertex 707500.0 5578500.0 7520.5
 endloop
endfacet
facet normal 0.37773287296295166 0.15890152752399445 -0.9121776819229126
 outer loop
  vertex 707500.0 5579500.0 7694.7001953125
  vertex 708500.0 5578500.0 7934.60009765625
  vertex 707500.0 5578500.0 7520.5
 endloop
endfacet
facet normal 0.3162012994289398 0.08962810784578323 -0.9444488286972046
 outer loop
  vertex 707500.0 5579500.0 7694.7001953125
  vertex 708500.0 5579500.0 8029.5
  vertex 708500.0 5578500.0 7934.60009765625
 endloop
endfacet
facet normal 0.13125956058502197 0.09365804493427277 -0.9869139790534973
 outer loop
  vertex 708500.0 5579500.0 8029.5
  vertex 709500.0 5578500.0 8067.60009765625
  vertex 708500.0 5578500.0 7934.60009765625
 endloop
endfacet
facet normal -0.05181971937417984 -0.08971478044986725 -0.9946184754371643
 outer loop
  vertex 708500.0 5579500.0 8029.5
  vertex 709500.0 5579500.0 7977.39990234375
  vertex 709500.0 5578500.0 8067.60009765625
 endloop
endfacet
facet normal 0.07023993134498596 -0.08961360156536102 -0.9934967756271362
 outer loop
  vertex 709500.0 5579500.0 7977.39990234375
  vertex 710500.0 5578500.0 8138.2998046875
  vertex 709500.0 5578500.0 8067.60009765625
 endloop
endfacet
facet normal -0.5094889998435974 -0.5275710225105286 -0.679771900177002
 outer loop
  vertex 704500.0 5580500.0 7359.10009765625
  vertex 705500.0 5579500.0 7385.7001953125
  vertex 704500.0 5579500.0 8135.2001953125
 endloop
endfacet
facet normal 0.1504492163658142 0.12436078488826752 -0.9807647466659546
 outer loop
  vertex 704500.0 5580500.0 7359.10009765625
  vertex 705500.0 5580500.0 7512.5
  vertex 705500.0 5579500.0 7385.7001953125
 endloop
endfacet
facet normal 0.07557626068592072 0.1254328191280365 -0.9892193078994751
 outer loop
  vertex 705500.0 5580500.0 7512.5
  vertex 706500.0 5579500.0 7462.10009765625
  vertex 705500.0 5579500.0 7385.7001953125
 endloop
endfacet
facet normal -0.1356182098388672 -0.0858718529343605 -0.9870327711105347
 outer loop
  vertex 705500.0 5580500.0 7512.5
  vertex 706500.0 5580500.0 7375.10009765625
  vertex 706500.0 5579500.0 7462.10009765625
 endloop
endfacet
facet normal 0.22574323415756226 -0.08443531394004822 -0.9705208539962769
 outer loop
  vertex 706500.0 5580500.0 7375.10009765625
  vertex 707500.0 5579500.0 7694.7001953125
  vertex 706500.0 5579500.0 7462.10009765625
 endloop
endfacet
facet normal 0.4400074779987335 0.157454714179039 -0.8840822577476501
 outer loop
  vertex 706500.0 5580500.0 7375.10009765625
  vertex 707500.0 5580500.0 7872.7998046875
  vertex 707500.0 5579500.0 7694.7001953125
 endloop
endfacet
facet normal 0.31304600834846497 0.16652749478816986 -0.9350244402885437
 outer loop
  vertex 707500.0 5580500.0 7872.7998046875
  vertex 708500.0 5579500.0 8029.5
  vertex 707500.0 5579500.0 7694.7001953125
 endloop
endfacet
endsolid
