solid
facet normal 0.3912110924720764 0.36681827902793884 -0.844036877155304
 outer loop
  vertex 509500.0 5530500.0 3861.39990234375
  vertex 510500.0 5530500.0 4324.89990234375
  vertex 510500.0 5529500.0 3890.300048828125
 endloop
endfacet
facet normal 0.3169712424278259 0.2688571810722351 -0.9095300436019897
 outer loop
  vertex 508500.0 5531500.0 3808.5
  vertex 509500.0 5531500.0 4157.0
  vertex 509500.0 5530500.0 3861.39990234375
 endloop
endfacet
facet normal 0.406171053647995 0.25903818011283875 -0.8763129115104675
 outer loop
  vertex 509500.0 5531500.0 4157.0
  vertex 510500.0 5530500.0 4324.89990234375
  vertex 509500.0 5530500.0 3861.39990234375
 endloop
endfacet
facet normal 0.4177926480770111 0.2722587287425995 -0.866789698600769
 outer loop
  vertex 509500.0 5531500.0 4157.0
  vertex 510500.0 5531500.0 4639.0
  vertex 510500.0 5530500.0 4324.89990234375
 endloop
endfacet
facet normal -0.12354891002178192 0.2973695397377014 -0.9467349052429199
 outer loop
  vertex 510500.0 5531500.0 4639.0
  vertex 511500.0 5530500.0 4194.39990234375
  vertex 510500.0 5530500.0 4324.89990234375
 endloop
endfacet
facet normal -0.07810389995574951 0.3387638330459595 -0.9376240968704224
 outer loop
  vertex 510500.0 5531500.0 4639.0
  vertex 511500.0 5531500.0 4555.7001953125
  vertex 511500.0 5530500.0 4194.39990234375
 endloop
endfacet
facet normal 0.46619316935539246 0.30061689019203186 -0.8320416808128357
 outer loop
  vertex 511500.0 5531500.0 4555.7001953125
  vertex 512500.0 5530500.0 4754.7001953125
  vertex 511500.0 5530500.0 4194.39990234375
 endloop
endfacet
facet normal -0.06517975777387619 -0.25705480575561523 -0.9641962647438049
 outer loop
  vertex 511500.0 5531500.0 4555.7001953125
  vertex 512500.0 5531500.0 4488.10009765625
  vertex 512500.0 5530500.0 4754.7001953125
 endloop
endfacet
facet normal 0.11186172813177109 -0.255985826253891 -0.9601865410804749
 outer loop
  vertex 512500.0 5531500.0 4488.10009765625
  vertex 513500.0 5530500.0 4871.2001953125
  vertex 512500.0 5530500.0 4754.7001953125
 endloop
endfacet
facet normal 0.5221339464187622 0.20497894287109375 -0.8278645873069763
 outer loop
  vertex 512500.0 5531500.0 4488.10009765625
  vertex 513500.0 5531500.0 5118.7998046875
  vertex 513500.0 5530500.0 4871.2001953125
 endloop
endfacet
facet normal -0.10422743111848831 -0.005469961557537317 -0.994538426399231
 outer loop
  vertex 506500.0 5532500.0 3848.39990234375
  vertex 507500.0 5532500.0 3743.60009765625
  vertex 507500.0 5531500.0 3749.10009765625
 endloop
endfacet
facet normal 0.05929449200630188 -0.005490239709615707 -0.9982253909111023
 outer loop
  vertex 507500.0 5532500.0 3743.60009765625
  vertex 508500.0 5531500.0 3808.5
  vertex 507500.0 5531500.0 3749.10009765625
 endloop
endfacet
facet normal 0.057801682502031326 -0.006988125387579203 -0.9983036518096924
 outer loop
  vertex 507500.0 5532500.0 3743.60009765625
  vertex 508500.0 5532500.0 3801.5
  vertex 508500.0 5531500.0 3808.5
 endloop
endfacet
facet normal 0.32908108830451965 -0.006609950214624405 -0.9442785978317261
 outer loop
  vertex 508500.0 5532500.0 3801.5
  vertex 509500.0 5531500.0 4157.0
  vertex 508500.0 5531500.0 3808.5
 endloop
endfacet
facet normal 0.3118162751197815 -0.025834498926997185 -0.9497911930084229
 outer loop
  vertex 508500.0 5532500.0 3801.5
  vertex 509500.0 5532500.0 4129.7998046875
  vertex 509500.0 5531500.0 4157.0
 endloop
endfacet
facet normal 0.43406447768211365 -0.02449510060250759 -0.9005486965179443
 outer loop
  vertex 509500.0 5532500.0 4129.7998046875
  vertex 510500.0 5531500.0 4639.0
  vertex 509500.0 5531500.0 4157.0
 endloop
endfacet
facet normal 0.6744668483734131 0.3410312831401825 -0.6548221707344055
 outer loop
  vertex 509500.0 5532500.0 4129.7998046875
  vertex 510500.0 5532500.0 5159.7998046875
  vertex 510500.0 5531500.0 4639.0
 endloop
endfacet
facet normal -0.07367997616529465 0.46065554022789 -0.8845155239105225
 outer loop
  vertex 510500.0 5532500.0 5159.7998046875
  vertex 511500.0 5531500.0 4555.7001953125
  vertex 510500.0 5531500.0 4639.0
 endloop
endfacet
facet normal -0.6061074137687683 -0.13231167197227478 -0.7843006253242493
 outer loop
  vertex 510500.0 5532500.0 5159.7998046875
  vertex 511500.0 5532500.0 4387.0
  vertex 511500.0 5531500.0 4555.7001953125
 endloop
endfacet
facet normal -0.06651061028242111 -0.16598130762577057 -0.9838833808898926
 outer loop
  vertex 511500.0 5532500.0 4387.0
  vertex 512500.0 5531500.0 4488.10009765625
  vertex 511500.0 5531500.0 4555.7001953125
 endloop
endfacet
facet normal 0.23619765043258667 0.13896803557872772 -0.9617164731025696
 outer loop
  vertex 511500.0 5532500.0 4387.0
  vertex 512500.0 5532500.0 4632.60009765625
  vertex 512500.0 5531500.0 4488.10009765625
 endloop
endfacet
facet normal 0.5295208692550659 0.12131884694099426 -0.8395768404006958
 outer loop
  vertex 512500.0 5532500.0 4632.60009765625
  vertex 513500.0 5531500.0 5118.7998046875
  vertex 512500.0 5531500.0 4488.10009765625
 endloop
endfacet
facet normal 0.17163702845573425 -0.28662675619125366 -0.9425422549247742
 outer loop
  vertex 512500.0 5532500.0 4632.60009765625
  vertex 513500.0 5532500.0 4814.7001953125
  vertex 513500.0 5531500.0 5118.7998046875
 endloop
endfacet
facet normal 0.32208672165870667 -0.27543991804122925 -0.9057555794715881
 outer loop
  vertex 513500.0 5532500.0 4814.7001953125
  vertex 514500.0 5531500.0 5474.39990234375
  vertex 513500.0 5531500.0 5118.7998046875
 endloop
endfacet
facet normal 0.3736184239387512 -0.22072958946228027 -0.9009371995925903
 outer loop
  vertex 513500.0 5532500.0 4814.7001953125
  vertex 514500.0 5532500.0 5229.39990234375
  vertex 514500.0 5531500.0 5474.39990234375
 endloop
endfacet
facet normal 0.052376825362443924 -0.23763559758663177 -0.9699411988258362
 outer loop
  vertex 514500.0 5532500.0 5229.39990234375
  vertex 515500.0 5531500.0 5528.39990234375
  vertex 514500.0 5531500.0 5474.39990234375
 endloop
endfacet
facet normal -0.1042194664478302 -0.013524542562663555 -0.9944623708724976
 outer loop
  vertex 506500.0 5533500.0 3834.800048828125
  vertex 507500.0 5532500.0 3743.60009765625
  vertex 506500.0 5532500.0 3848.39990234375
 endloop
endfacet
facet normal -0.018548080697655678 0.07239682972431183 -0.9972034096717834
 outer loop
  vertex 506500.0 5533500.0 3834.800048828125
  vertex 507500.0 5533500.0 3816.199951171875
  vertex 507500.0 5532500.0 3743.60009765625
 endloop
endfacet
facet normal 0.057651862502098083 0.07228884100914001 -0.9957160949707031
 outer loop
  vertex 507500.0 5533500.0 3816.199951171875
  vertex 508500.0 5532500.0 3801.5
  vertex 507500.0 5532500.0 3743.60009765625
 endloop
endfacet
facet normal -0.05229106545448303 -0.037621647119522095 -0.997922956943512
 outer loop
  vertex 507500.0 5533500.0 3816.199951171875
  vertex 508500.0 5533500.0 3763.800048828125
  vertex 508500.0 5532500.0 3801.5
 endloop
endfacet
facet normal 0.31172046065330505 -0.03579607978463173 -0.9494993090629578
 outer loop
  vertex 508500.0 5533500.0 3763.800048828125
  vertex 509500.0 5532500.0 4129.7998046875
  vertex 508500.0 5532500.0 3801.5
 endloop
endfacet
facet normal 0.201247900724411 -0.1528707593679428 -0.9675379991531372
 outer loop
  vertex 508500.0 5533500.0 3763.800048828125
  vertex 509500.0 5533500.0 3971.800048828125
  vertex 509500.0 5532500.0 4129.7998046875
 endloop
endfacet
facet normal 0.7131719589233398 -0.10939902067184448 -0.6923999190330505
 outer loop
  vertex 509500.0 5533500.0 3971.800048828125
  vertex 510500.0 5532500.0 5159.7998046875
  vertex 509500.0 5532500.0 4129.7998046875
 endloop
endfacet
facet normal 0.199341282248497 -0.6605616807937622 -0.723824143409729
 outer loop
  vertex 509500.0 5533500.0 3971.800048828125
  vertex 510500.0 5533500.0 4247.2001953125
  vertex 510500.0 5532500.0 5159.7998046875
 endloop
endfacet
facet normal -0.4957454204559326 -0.5854259729385376 -0.6414926648139954
 outer loop
  vertex 510500.0 5533500.0 4247.2001953125
  vertex 511500.0 5532500.0 4387.0
  vertex 510500.0 5532500.0 5159.7998046875
 endloop
endfacet
facet normal -0.005640709772706032 -0.14398160576820374 -0.9895642995834351
 outer loop
  vertex 510500.0 5533500.0 4247.2001953125
  vertex 511500.0 5533500.0 4241.5
  vertex 511500.0 5532500.0 4387.0
 endloop
endfacet
facet normal 0.23616598546504974 -0.1399109810590744 -0.9615875482559204
 outer loop
  vertex 511500.0 5533500.0 4241.5
  vertex 512500.0 5532500.0 4632.60009765625
  vertex 511500.0 5532500.0 4387.0
 endloop
endfacet
facet normal 0.21497276425361633 -0.1617109179496765 -0.9631388187408447
 outer loop
  vertex 511500.0 5533500.0 4241.5
  vertex 512500.0 5533500.0 4464.7001953125
  vertex 512500.0 5532500.0 4632.60009765625
 endloop
endfacet
facet normal 0.17675866186618805 -0.1629749983549118 -0.9706676006317139
 outer loop
  vertex 512500.0 5533500.0 4464.7001953125
  vertex 513500.0 5532500.0 4814.7001953125
  vertex 512500.0 5532500.0 4632.60009765625
 endloop
endfacet
facet normal 0.5902405381202698 0.3328467011451721 -0.7354109287261963
 outer loop
  vertex 512500.0 5533500.0 4464.7001953125
  vertex 513500.0 5533500.0 5267.2998046875
  vertex 513500.0 5532500.0 4814.7001953125
 endloop
endfacet
facet normal 0.35342302918434143 0.3857227563858032 -0.8522383570671082
 outer loop
  vertex 513500.0 5533500.0 5267.2998046875
  vertex 514500.0 5532500.0 5229.39990234375
  vertex 513500.0 5532500.0 4814.7001953125
 endloop
endfacet
facet normal -0.01858706958591938 -0.0324772372841835 -0.9992996454238892
 outer loop
  vertex 506500.0 5534500.0 3802.300048828125
  vertex 507500.0 5533500.0 3816.199951171875
  vertex 506500.0 5533500.0 3834.800048828125
 endloop
endfacet
facet normal 0.01329887006431818 -0.0005998003762215376 -0.999911367893219
 outer loop
  vertex 506500.0 5534500.0 3802.300048828125
  vertex 507500.0 5534500.0 3815.60009765625
  vertex 507500.0 5533500.0 3816.199951171875
 endloop
endfacet
facet normal -0.05232809856534004 -0.0005990315694361925 -0.9986297488212585
 outer loop
  vertex 507500.0 5534500.0 3815.60009765625
  vertex 508500.0 5533500.0 3763.800048828125
  vertex 507500.0 5533500.0 3816.199951171875
 endloop
endfacet
facet normal -0.017087316140532494 0.034674014896154404 -0.9992525577545166
 outer loop
  vertex 507500.0 5534500.0 3815.60009765625
  vertex 508500.0 5534500.0 3798.5
  vertex 508500.0 5533500.0 3763.800048828125
 endloop
endfacet
facet normal 0.20352406799793243 0.03395324572920799 -0.9784810543060303
 outer loop
  vertex 508500.0 5534500.0 3798.5
  vertex 509500.0 5533500.0 3971.800048828125
  vertex 508500.0 5533500.0 3763.800048828125
 endloop
endfacet
facet normal -0.05641810595989227 -0.2249915599822998 -0.9727259874343872
 outer loop
  vertex 508500.0 5534500.0 3798.5
  vertex 509500.0 5534500.0 3740.5
  vertex 509500.0 5533500.0 3971.800048828125
 endloop
endfacet
facet normal 0.25914978981018066 -0.21765188872814178 -0.9409936666488647
 outer loop
  vertex 509500.0 5534500.0 3740.5
  vertex 510500.0 5533500.0 4247.2001953125
  vertex 509500.0 5533500.0 3971.800048828125
 endloop
endfacet
facet normal 0.3012414276599884 -0.17382566630840302 -0.937570333480835
 outer loop
  vertex 509500.0 5534500.0 3740.5
  vertex 510500.0 5534500.0 4061.800048828125
  vertex 510500.0 5533500.0 4247.2001953125
 endloop
endfacet
facet normal -0.005604587960988283 -0.18229073286056519 -0.9832286834716797
 outer loop
  vertex 510500.0 5534500.0 4061.800048828125
  vertex 511500.0 5533500.0 4241.5
  vertex 510500.0 5533500.0 4247.2001953125
 endloop
endfacet
facet normal 0.26967668533325195 0.09752418100833893 -0.9579997062683105
 outer loop
  vertex 510500.0 5534500.0 4061.800048828125
  vertex 511500.0 5534500.0 4343.2998046875
  vertex 511500.0 5533500.0 4241.5
 endloop
endfacet
facet normal 0.21677261590957642 0.0988682433962822 -0.9712026715278625
 outer loop
  vertex 511500.0 5534500.0 4343.2998046875
  vertex 512500.0 5533500.0 4464.7001953125
  vertex 511500.0 5533500.0 4241.5
 endloop
endfacet
facet normal 0.35688069462776184 0.24752825498580933 -0.9007585048675537
 outer loop
  vertex 511500.0 5534500.0 4343.2998046875
  vertex 512500.0 5534500.0 4739.5
  vertex 512500.0 5533500.0 4464.7001953125
 endloop
endfacet
facet normal 0.6120331883430481 0.2095523178577423 -0.7625635266304016
 outer loop
  vertex 512500.0 5534500.0 4739.5
  vertex 513500.0 5533500.0 5267.2998046875
  vertex 512500.0 5533500.0 4464.7001953125
 endloop
endfacet
facet normal -0.017052363604307175 -0.07269663363695145 -0.997208297252655
 outer loop
  vertex 507500.0 5535500.0 3742.699951171875
  vertex 508500.0 5534500.0 3798.5
  vertex 507500.0 5534500.0 3815.60009765625
 endloop
endfacet
facet normal 0.05143136531114578 -0.0042943162843585014 -0.998667299747467
 outer loop
  vertex 507500.0 5535500.0 3742.699951171875
  vertex 508500.0 5535500.0 3794.199951171875
  vertex 508500.0 5534500.0 3798.5
 endloop
endfacet
facet normal -0.05790215730667114 -0.004292794968932867 -0.9983130097389221
 outer loop
  vertex 508500.0 5535500.0 3794.199951171875
  vertex 509500.0 5534500.0 3740.5
  vertex 508500.0 5534500.0 3798.5
 endloop
endfacet
facet normal -0.05153118073940277 0.002097306540235877 -0.9986691474914551
 outer loop
  vertex 508500.0 5535500.0 3794.199951171875
  vertex 509500.0 5535500.0 3742.60009765625
  vertex 509500.0 5534500.0 3740.5
 endloop
endfacet
facet normal 0.30589765310287476 0.0019994238391518593 -0.9520623683929443
 outer loop
  vertex 509500.0 5535500.0 3742.60009765625
  vertex 510500.0 5534500.0 4061.800048828125
  vertex 509500.0 5534500.0 3740.5
 endloop
endfacet
facet normal 0.2506701350212097 -0.057787537574768066 -0.966346263885498
 outer loop
  vertex 509500.0 5535500.0 3742.60009765625
  vertex 510500.0 5535500.0 4002.0
  vertex 510500.0 5534500.0 4061.800048828125
 endloop
endfacet
facet normal 0.27052053809165955 -0.05746769160032272 -0.960997462272644
 outer loop
  vertex 510500.0 5535500.0 4002.0
  vertex 511500.0 5534500.0 4343.2998046875
  vertex 510500.0 5534500.0 4061.800048828125
 endloop
endfacet
facet normal 0.2046053558588028 -0.12666518986225128 -0.9706145524978638
 outer loop
  vertex 510500.0 5535500.0 4002.0
  vertex 511500.0 5535500.0 4212.7998046875
  vertex 511500.0 5534500.0 4343.2998046875
 endloop
endfacet
facet normal 0.3656619191169739 -0.12044133991003036 -0.9229221343994141
 outer loop
  vertex 511500.0 5535500.0 4212.7998046875
  vertex 512500.0 5534500.0 4739.5
  vertex 511500.0 5534500.0 4343.2998046875
 endloop
endfacet
facet normal 0.5263875722885132 0.08057913184165955 -0.8464177846908569
 outer loop
  vertex 511500.0 5535500.0 4212.7998046875
  vertex 512500.0 5535500.0 4834.7001953125
  vertex 512500.0 5534500.0 4739.5
 endloop
endfacet
facet normal 0.05130012333393097 0.07152138650417328 -0.99611896276474
 outer loop
  vertex 507500.0 5536500.0 3814.5
  vertex 508500.0 5535500.0 3794.199951171875
  vertex 507500.0 5535500.0 3742.699951171875
 endloop
endfacet
facet normal 0.19204799830913544 0.21150201559066772 -0.9583237767219543
 outer loop
  vertex 507500.0 5536500.0 3814.5
  vertex 508500.0 5536500.0 4014.89990234375
  vertex 508500.0 5535500.0 3794.199951171875
 endloop
endfacet
facet normal -0.05032346397638321 0.21524062752723694 -0.9752635955810547
 outer loop
  vertex 508500.0 5536500.0 4014.89990234375
  vertex 509500.0 5535500.0 3742.60009765625
  vertex 508500.0 5535500.0 3794.199951171875
 endloop
endfacet
facet normal -0.06835047155618668 0.19791342318058014 -0.9778335690498352
 outer loop
  vertex 508500.0 5536500.0 4014.89990234375
  vertex 509500.0 5536500.0 3945.0
  vertex 509500.0 5535500.0 3742.60009765625
 endloop
endfacet
facet normal 0.24640537798404694 0.1922607719898224 -0.9499054551124573
 outer loop
  vertex 509500.0 5536500.0 3945.0
  vertex 510500.0 5535500.0 4002.0
  vertex 509500.0 5535500.0 3742.60009765625
 endloop
endfacet
facet normal -0.01515874546021223 -0.07200422883033752 -0.9972891211509705
 outer loop
  vertex 509500.0 5536500.0 3945.0
  vertex 510500.0 5536500.0 3929.800048828125
  vertex 510500.0 5535500.0 4002.0
 endloop
endfacet
facet normal 0.20575390756130219 -0.07047171145677567 -0.976063072681427
 outer loop
  vertex 510500.0 5536500.0 3929.800048828125
  vertex 511500.0 5535500.0 4212.7998046875
  vertex 510500.0 5535500.0 4002.0
 endloop
endfacet
facet normal 0.09552563726902008 -0.18145973980426788 -0.9787477850914001
 outer loop
  vertex 510500.0 5536500.0 3929.800048828125
  vertex 511500.0 5536500.0 4027.39990234375
  vertex 511500.0 5535500.0 4212.7998046875
 endloop
endfacet
facet normal 0.5216791033744812 -0.15552210807800293 -0.838846743106842
 outer loop
  vertex 511500.0 5536500.0 4027.39990234375
  vertex 512500.0 5535500.0 4834.7001953125
  vertex 511500.0 5535500.0 4212.7998046875
 endloop
endfacet
facet normal 0.07561926543712616 0.35639703273773193 -0.9312695264816284
 outer loop
  vertex 506500.0 5537500.0 4116.0
  vertex 507500.0 5537500.0 4197.2001953125
  vertex 507500.0 5536500.0 3814.5
 endloop
endfacet
facet normal 0.18396775424480438 0.3513200283050537 -0.918003261089325
 outer loop
  vertex 507500.0 5537500.0 4197.2001953125
  vertex 508500.0 5536500.0 4014.89990234375
  vertex 507500.0 5536500.0 3814.5
 endloop
endfacet
facet normal -0.11753974854946136 0.0631306916475296 -0.9910594820976257
 outer loop
  vertex 507500.0 5537500.0 4197.2001953125
  vertex 508500.0 5537500.0 4078.60009765625
  vertex 508500.0 5536500.0 4014.89990234375
 endloop
endfacet
facet normal -0.06958939880132675 0.0634172335267067 -0.995557963848114
 outer loop
  vertex 508500.0 5537500.0 4078.60009765625
  vertex 509500.0 5536500.0 3945.0
  vertex 508500.0 5536500.0 4014.89990234375
 endloop
endfacet
facet normal 0.054258763790130615 0.18534380197525024 -0.981174647808075
 outer loop
  vertex 508500.0 5537500.0 4078.60009765625
  vertex 509500.0 5537500.0 4133.89990234375
  vertex 509500.0 5536500.0 3945.0
 endloop
endfacet
facet normal -0.014934144914150238 0.1855965256690979 -0.9825125932693481
 outer loop
  vertex 509500.0 5537500.0 4133.89990234375
  vertex 510500.0 5536500.0 3929.800048828125
  vertex 509500.0 5536500.0 3945.0
 endloop
endfacet
facet normal 0.34632325172424316 0.5073725581169128 -0.7890711426734924
 outer loop
  vertex 509500.0 5537500.0 4133.89990234375
  vertex 510500.0 5537500.0 4572.7998046875
  vertex 510500.0 5536500.0 3929.800048828125
 endloop
endfacet
facet normal 0.0818183496594429 0.5390291810035706 -0.8383038640022278
 outer loop
  vertex 510500.0 5537500.0 4572.7998046875
  vertex 511500.0 5536500.0 4027.39990234375
  vertex 510500.0 5536500.0 3929.800048828125
 endloop
endfacet
facet normal 0.0808892697095871 -0.03317253664135933 -0.9961708784103394
 outer loop
  vertex 506500.0 5538500.0 4082.699951171875
  vertex 507500.0 5537500.0 4197.2001953125
  vertex 506500.0 5537500.0 4116.0
 endloop
endfacet
facet normal 0.5596476793289185 0.48249882459640503 -0.6737872958183289
 outer loop
  vertex 506500.0 5538500.0 4082.699951171875
  vertex 507500.0 5538500.0 4913.2998046875
  vertex 507500.0 5537500.0 4197.2001953125
 endloop
endfacet
facet normal -0.09598086774349213 0.5795263648033142 -0.8092817068099976
 outer loop
  vertex 507500.0 5538500.0 4913.2998046875
  vertex 508500.0 5537500.0 4078.60009765625
  vertex 507500.0 5537500.0 4197.2001953125
 endloop
endfacet
facet normal -0.17888924479484558 0.5188621282577515 -0.8359310626983643
 outer loop
  vertex 507500.0 5538500.0 4913.2998046875
  vertex 508500.0 5538500.0 4699.2998046875
  vertex 508500.0 5537500.0 4078.60009765625
 endloop
endfacet
facet normal 0.04693295806646347 0.5267878770828247 -0.8487001061439514
 outer loop
  vertex 508500.0 5538500.0 4699.2998046875
  vertex 509500.0 5537500.0 4133.89990234375
  vertex 508500.0 5537500.0 4078.60009765625
 endloop
endfacet
facet normal 0.4882534444332123 0.6450284719467163 -0.5878323912620544
 outer loop
  vertex 506500.0 5539500.0 5180.0
  vertex 507500.0 5538500.0 4913.2998046875
  vertex 506500.0 5538500.0 4082.699951171875
 endloop
endfacet
endsolid
