solid
facet normal 0.0031000752933323383 -0.0021999352611601353 -0.9999927878379822
 outer loop
  vertex 449500.0 5482500.0 3593.800048828125
  vertex 450500.0 5481500.0 3599.10009765625
  vertex 449500.0 5481500.0 3596.0
 endloop
endfacet
facet normal 0.0013000372564420104 -0.0039999643340706825 -0.9999911189079285
 outer loop
  vertex 449500.0 5482500.0 3593.800048828125
  vertex 450500.0 5482500.0 3595.10009765625
  vertex 450500.0 5481500.0 3599.10009765625
 endloop
endfacet
facet normal 0.0019999851938337088 0.0032997801899909973 -0.9999925494194031
 outer loop
  vertex 450500.0 5483500.0 3598.39990234375
  vertex 451500.0 5482500.0 3597.10009765625
  vertex 450500.0 5482500.0 3595.10009765625
 endloop
endfacet
facet normal 0.0 0.001299803494475782 -0.9999991059303284
 outer loop
  vertex 450500.0 5483500.0 3598.39990234375
  vertex 451500.0 5483500.0 3598.39990234375
  vertex 451500.0 5482500.0 3597.10009765625
 endloop
endfacet
facet normal 0.0039999643340706825 0.0012997931335121393 -0.9999911189079285
 outer loop
  vertex 451500.0 5483500.0 3598.39990234375
  vertex 452500.0 5482500.0 3601.10009765625
  vertex 451500.0 5482500.0 3597.10009765625
 endloop
endfacet
facet normal 0.0031000825110822916 0.0003999003965873271 -0.9999951124191284
 outer loop
  vertex 451500.0 5483500.0 3598.39990234375
  vertex 452500.0 5483500.0 3601.5
  vertex 452500.0 5482500.0 3601.10009765625
 endloop
endfacet
facet normal 0.0 -0.010499421507120132 -0.9999448657035828
 outer loop
  vertex 450500.0 5484500.0 3587.89990234375
  vertex 451500.0 5483500.0 3598.39990234375
  vertex 450500.0 5483500.0 3598.39990234375
 endloop
endfacet
facet normal 0.005999831482768059 -0.004499873612076044 -0.999971866607666
 outer loop
  vertex 450500.0 5484500.0 3587.89990234375
  vertex 451500.0 5484500.0 3593.89990234375
  vertex 451500.0 5483500.0 3598.39990234375
 endloop
endfacet
facet normal 0.003100051311776042 -0.004499932751059532 -0.9999850392341614
 outer loop
  vertex 451500.0 5484500.0 3593.89990234375
  vertex 452500.0 5483500.0 3601.5
  vertex 451500.0 5483500.0 3598.39990234375
 endloop
endfacet
facet normal -0.0013998443027958274 -0.008999626152217388 -0.9999585151672363
 outer loop
  vertex 451500.0 5484500.0 3593.89990234375
  vertex 452500.0 5484500.0 3592.5
  vertex 452500.0 5483500.0 3601.5
 endloop
endfacet
facet normal -0.039268143475055695 -0.008992694318294525 -0.999188244342804
 outer loop
  vertex 452500.0 5484500.0 3592.5
  vertex 453500.0 5483500.0 3562.199951171875
  vertex 452500.0 5483500.0 3601.5
 endloop
endfacet
facet normal -0.037073735147714615 -0.0067952168174088 -0.9992894530296326
 outer loop
  vertex 452500.0 5484500.0 3592.5
  vertex 453500.0 5484500.0 3555.39990234375
  vertex 453500.0 5483500.0 3562.199951171875
 endloop
endfacet
facet normal 0.005999723449349403 0.007499653846025467 -0.9999538660049438
 outer loop
  vertex 450500.0 5485500.0 3595.39990234375
  vertex 451500.0 5484500.0 3593.89990234375
  vertex 450500.0 5484500.0 3587.89990234375
 endloop
endfacet
facet normal 0.0032999927643686533 0.004799967166036367 -0.999983012676239
 outer loop
  vertex 450500.0 5485500.0 3595.39990234375
  vertex 451500.0 5485500.0 3598.699951171875
  vertex 451500.0 5484500.0 3593.89990234375
 endloop
endfacet
facet normal -0.0013998848153278232 0.004799989052116871 -0.9999874830245972
 outer loop
  vertex 451500.0 5485500.0 3598.699951171875
  vertex 452500.0 5484500.0 3592.5
  vertex 451500.0 5484500.0 3593.89990234375
 endloop
endfacet
facet normal -0.0043998523615300655 0.0018000284908339381 -0.9999886751174927
 outer loop
  vertex 451500.0 5485500.0 3598.699951171875
  vertex 452500.0 5485500.0 3594.300048828125
  vertex 452500.0 5484500.0 3592.5
 endloop
endfacet
facet normal -0.037074536085128784 0.0017988084582611918 -0.9993109107017517
 outer loop
  vertex 452500.0 5485500.0 3594.300048828125
  vertex 453500.0 5484500.0 3555.39990234375
  vertex 452500.0 5484500.0 3592.5
 endloop
endfacet
facet normal -0.03318113461136818 0.005696963984519243 -0.999433159828186
 outer loop
  vertex 452500.0 5485500.0 3594.300048828125
  vertex 453500.0 5485500.0 3561.10009765625
  vertex 453500.0 5484500.0 3555.39990234375
 endloop
endfacet
facet normal 0.0032999860122799873 -0.005199852399528027 -0.9999809861183167
 outer loop
  vertex 450500.0 5486500.0 3590.199951171875
  vertex 451500.0 5485500.0 3598.699951171875
  vertex 450500.0 5485500.0 3595.39990234375
 endloop
endfacet
facet normal 0.0026998957619071007 -0.005799930077046156 -0.9999794960021973
 outer loop
  vertex 450500.0 5486500.0 3590.199951171875
  vertex 451500.0 5486500.0 3592.89990234375
  vertex 451500.0 5485500.0 3598.699951171875
 endloop
endfacet
facet normal -0.0043997857719659805 -0.005799895152449608 -0.999973475933075
 outer loop
  vertex 451500.0 5486500.0 3592.89990234375
  vertex 452500.0 5485500.0 3594.300048828125
  vertex 451500.0 5485500.0 3598.699951171875
 endloop
endfacet
facet normal 0.006299848202615976 0.004899746272712946 -0.9999681115150452
 outer loop
  vertex 451500.0 5486500.0 3592.89990234375
  vertex 452500.0 5486500.0 3599.199951171875
  vertex 452500.0 5485500.0 3594.300048828125
 endloop
endfacet
facet normal -0.033181268721818924 0.004897145554423332 -0.9994373917579651
 outer loop
  vertex 452500.0 5486500.0 3599.199951171875
  vertex 453500.0 5485500.0 3561.10009765625
  vertex 452500.0 5485500.0 3594.300048828125
 endloop
endfacet
facet normal -0.022591371089220047 0.015494180843234062 -0.9996247291564941
 outer loop
  vertex 452500.0 5486500.0 3599.199951171875
  vertex 453500.0 5486500.0 3576.60009765625
  vertex 453500.0 5485500.0 3561.10009765625
 endloop
endfacet
facet normal 0.0026999185793101788 0.00410004798322916 -0.9999879598617554
 outer loop
  vertex 450500.0 5487500.0 3594.300048828125
  vertex 451500.0 5486500.0 3592.89990234375
  vertex 450500.0 5486500.0 3590.199951171875
 endloop
endfacet
facet normal 0.004299939144402742 0.005700049921870232 -0.9999744892120361
 outer loop
  vertex 450500.0 5487500.0 3594.300048828125
  vertex 451500.0 5487500.0 3598.60009765625
  vertex 451500.0 5486500.0 3592.89990234375
 endloop
endfacet
facet normal 0.0062998216599226 0.005699989851564169 -0.9999639391899109
 outer loop
  vertex 451500.0 5487500.0 3598.60009765625
  vertex 452500.0 5486500.0 3599.199951171875
  vertex 451500.0 5486500.0 3592.89990234375
 endloop
endfacet
facet normal 0.0010998527286574244 0.0004999996162950993 -0.9999992251396179
 outer loop
  vertex 451500.0 5487500.0 3598.60009765625
  vertex 452500.0 5487500.0 3599.699951171875
  vertex 452500.0 5486500.0 3599.199951171875
 endloop
endfacet
facet normal -0.022594081237912178 0.0004998723161406815 -0.9997446537017822
 outer loop
  vertex 452500.0 5487500.0 3599.699951171875
  vertex 453500.0 5486500.0 3576.60009765625
  vertex 452500.0 5486500.0 3599.199951171875
 endloop
endfacet
facet normal -0.03856649994850159 -0.015486606396734715 -0.9991359710693359
 outer loop
  vertex 452500.0 5487500.0 3599.699951171875
  vertex 453500.0 5487500.0 3561.10009765625
  vertex 453500.0 5486500.0 3576.60009765625
 endloop
endfacet
facet normal -0.031680479645729065 -0.015490359626710415 -0.9993780255317688
 outer loop
  vertex 453500.0 5487500.0 3561.10009765625
  vertex 454500.0 5486500.0 3544.89990234375
  vertex 453500.0 5486500.0 3576.60009765625
 endloop
endfacet
facet normal -0.01929636299610138 -0.003099261550232768 -0.9998090267181396
 outer loop
  vertex 453500.0 5487500.0 3561.10009765625
  vertex 454500.0 5487500.0 3541.800048828125
  vertex 454500.0 5486500.0 3544.89990234375
 endloop
endfacet
facet normal -0.03856998682022095 -0.007693993393331766 -0.9992262721061707
 outer loop
  vertex 452500.0 5488500.0 3592.0
  vertex 453500.0 5487500.0 3561.10009765625
  vertex 452500.0 5487500.0 3599.699951171875
 endloop
endfacet
facet normal -0.04235904663801193 -0.011488919146358967 -0.999036431312561
 outer loop
  vertex 452500.0 5488500.0 3592.0
  vertex 453500.0 5488500.0 3549.60009765625
  vertex 453500.0 5487500.0 3561.10009765625
 endloop
endfacet
facet normal -0.01929517835378647 -0.01149709802120924 -0.9997476935386658
 outer loop
  vertex 453500.0 5488500.0 3549.60009765625
  vertex 454500.0 5487500.0 3541.800048828125
  vertex 453500.0 5487500.0 3561.10009765625
 endloop
endfacet
facet normal 0.016792356967926025 0.024588946253061295 -0.9995566606521606
 outer loop
  vertex 453500.0 5488500.0 3549.60009765625
  vertex 454500.0 5488500.0 3566.39990234375
  vertex 454500.0 5487500.0 3541.800048828125
 endloop
endfacet
facet normal 0.01679670810699463 0.009298090822994709 -0.9998157024383545
 outer loop
  vertex 453500.0 5489500.0 3558.89990234375
  vertex 454500.0 5488500.0 3566.39990234375
  vertex 453500.0 5488500.0 3549.60009765625
 endloop
endfacet
facet normal -0.0023997777607291937 -0.009899388998746872 -0.9999481439590454
 outer loop
  vertex 453500.0 5489500.0 3558.89990234375
  vertex 454500.0 5489500.0 3556.5
  vertex 454500.0 5488500.0 3566.39990234375
 endloop
endfacet
facet normal -0.01269830483943224 -0.009898618794977665 -0.9998704195022583
 outer loop
  vertex 454500.0 5489500.0 3556.5
  vertex 455500.0 5488500.0 3553.699951171875
  vertex 454500.0 5488500.0 3566.39990234375
 endloop
endfacet
facet normal -0.008999462239444256 -0.006199580617249012 -0.9999402761459351
 outer loop
  vertex 454500.0 5489500.0 3556.5
  vertex 455500.0 5489500.0 3547.5
  vertex 455500.0 5488500.0 3553.699951171875
 endloop
endfacet
facet normal 0.013498511165380478 -0.006199267227202654 -0.9998896718025208
 outer loop
  vertex 455500.0 5489500.0 3547.5
  vertex 456500.0 5488500.0 3567.199951171875
  vertex 455500.0 5488500.0 3553.699951171875
 endloop
endfacet
facet normal -0.0007998804794624448 -0.020495686680078506 -0.9997895956039429
 outer loop
  vertex 455500.0 5489500.0 3547.5
  vertex 456500.0 5489500.0 3546.699951171875
  vertex 456500.0 5488500.0 3567.199951171875
 endloop
endfacet
facet normal -0.0008000381640158594 0.0051000299863517284 -0.9999867081642151
 outer loop
  vertex 455500.0 5490500.0 3552.60009765625
  vertex 456500.0 5489500.0 3546.699951171875
  vertex 455500.0 5489500.0 3547.5
 endloop
endfacet
facet normal -0.002100077923387289 0.003800012869760394 -0.9999905824661255
 outer loop
  vertex 455500.0 5490500.0 3552.60009765625
  vertex 456500.0 5490500.0 3550.5
  vertex 456500.0 5489500.0 3546.699951171875
 endloop
endfacet
facet normal -0.024491846561431885 0.008097401820123196 -0.999667227268219
 outer loop
  vertex 456500.0 5491500.0 3558.60009765625
  vertex 457500.0 5490500.0 3526.0
  vertex 456500.0 5490500.0 3550.5
 endloop
endfacet
endsolid
