solid
facet normal 0.03813515603542328 -0.037586141377687454 -0.9985654354095459
 outer loop
  vertex 866500.0 5741500.0 3492.22998046875
  vertex 867500.0 5741500.0 3530.419921875
  vertex 867500.0 5740500.0 3568.06005859375
 endloop
endfacet
facet normal -0.07730317115783691 -0.03750094771385193 -0.9963021278381348
 outer loop
  vertex 867500.0 5741500.0 3530.419921875
  vertex 868500.0 5740500.0 3490.469970703125
  vertex 867500.0 5740500.0 3568.06005859375
 endloop
endfacet
facet normal -0.04277046397328377 -0.0028572308365255594 -0.9990808367729187
 outer loop
  vertex 867500.0 5741500.0 3530.419921875
  vertex 868500.0 5741500.0 3487.610107421875
  vertex 868500.0 5740500.0 3490.469970703125
 endloop
endfacet
facet normal -0.01862657442688942 -0.002859355416148901 -0.9998223781585693
 outer loop
  vertex 868500.0 5741500.0 3487.610107421875
  vertex 869500.0 5740500.0 3471.840087890625
  vertex 868500.0 5740500.0 3490.469970703125
 endloop
endfacet
facet normal -0.039268858730793 -0.0235153678804636 -0.9989519119262695
 outer loop
  vertex 868500.0 5741500.0 3487.610107421875
  vertex 869500.0 5741500.0 3448.300048828125
  vertex 869500.0 5740500.0 3471.840087890625
 endloop
endfacet
facet normal 0.03816020116209984 -0.010032220743596554 -0.9992212653160095
 outer loop
  vertex 866500.0 5742500.0 3482.18994140625
  vertex 867500.0 5741500.0 3530.419921875
  vertex 866500.0 5741500.0 3492.22998046875
 endloop
endfacet
facet normal 0.006044563837349415 -0.042141687124967575 -0.9990934133529663
 outer loop
  vertex 866500.0 5742500.0 3482.18994140625
  vertex 867500.0 5742500.0 3488.239990234375
  vertex 867500.0 5741500.0 3530.419921875
 endloop
endfacet
facet normal -0.042732711881399155 -0.04210396483540535 -0.9981989860534668
 outer loop
  vertex 867500.0 5742500.0 3488.239990234375
  vertex 868500.0 5741500.0 3487.610107421875
  vertex 867500.0 5741500.0 3530.419921875
 endloop
endfacet
facet normal -0.03987737372517586 -0.039248477667570114 -0.9984334707260132
 outer loop
  vertex 867500.0 5742500.0 3488.239990234375
  vertex 868500.0 5742500.0 3448.300048828125
  vertex 868500.0 5741500.0 3487.610107421875
 endloop
endfacet
facet normal -0.03924945369362831 -0.03924945369362831 -0.9984583258628845
 outer loop
  vertex 868500.0 5742500.0 3448.300048828125
  vertex 869500.0 5741500.0 3448.300048828125
  vertex 868500.0 5741500.0 3487.610107421875
 endloop
endfacet
facet normal -0.02978360280394554 -0.02978360280394554 -0.9991125464439392
 outer loop
  vertex 868500.0 5742500.0 3448.300048828125
  vertex 869500.0 5742500.0 3418.489990234375
  vertex 869500.0 5741500.0 3448.300048828125
 endloop
endfacet
facet normal -0.015101675875484943 -0.029793424531817436 -0.9994419813156128
 outer loop
  vertex 869500.0 5742500.0 3418.489990234375
  vertex 870500.0 5741500.0 3433.18994140625
  vertex 869500.0 5741500.0 3448.300048828125
 endloop
endfacet
facet normal 0.007479576393961906 -0.0072195809334516525 -0.9999459981918335
 outer loop
  vertex 869500.0 5742500.0 3418.489990234375
  vertex 870500.0 5742500.0 3425.969970703125
  vertex 870500.0 5741500.0 3433.18994140625
 endloop
endfacet
facet normal 0.0029792857822030783 -0.02138490602374077 -0.9997668862342834
 outer loop
  vertex 872500.0 5742500.0 3434.050048828125
  vertex 873500.0 5742500.0 3437.030029296875
  vertex 873500.0 5741500.0 3458.419921875
 endloop
endfacet
facet normal 0.047309987246990204 -0.044416192919015884 -0.9978922605514526
 outer loop
  vertex 865500.0 5743500.0 3390.27001953125
  vertex 866500.0 5743500.0 3437.679931640625
  vertex 866500.0 5742500.0 3482.18994140625
 endloop
endfacet
facet normal 0.006043956149369478 -0.04446516931056976 -0.9989926218986511
 outer loop
  vertex 866500.0 5743500.0 3437.679931640625
  vertex 867500.0 5742500.0 3488.239990234375
  vertex 866500.0 5742500.0 3482.18994140625
 endloop
endfacet
facet normal -0.021429505199193954 -0.07184725999832153 -0.997185468673706
 outer loop
  vertex 866500.0 5743500.0 3437.679931640625
  vertex 867500.0 5743500.0 3416.18994140625
  vertex 867500.0 5742500.0 3488.239990234375
 endloop
endfacet
facet normal -0.0398050993680954 -0.07180680334568024 -0.9966239929199219
 outer loop
  vertex 867500.0 5743500.0 3416.18994140625
  vertex 868500.0 5742500.0 3448.300048828125
  vertex 867500.0 5742500.0 3488.239990234375
 endloop
endfacet
facet normal -0.003287961706519127 -0.03537779673933983 -0.9993686079978943
 outer loop
  vertex 867500.0 5743500.0 3416.18994140625
  vertex 868500.0 5743500.0 3412.89990234375
  vertex 868500.0 5742500.0 3448.300048828125
 endloop
endfacet
facet normal -0.029778188094496727 -0.03536229953169823 -0.998930811882019
 outer loop
  vertex 868500.0 5743500.0 3412.89990234375
  vertex 869500.0 5742500.0 3418.489990234375
  vertex 868500.0 5742500.0 3448.300048828125
 endloop
endfacet
facet normal -0.0028397315181791782 -0.008429598063230515 -0.9999604225158691
 outer loop
  vertex 868500.0 5743500.0 3412.89990234375
  vertex 869500.0 5743500.0 3410.06005859375
  vertex 869500.0 5742500.0 3418.489990234375
 endloop
endfacet
facet normal 0.007479505613446236 -0.008429395966231823 -0.9999365210533142
 outer loop
  vertex 869500.0 5743500.0 3410.06005859375
  vertex 870500.0 5742500.0 3425.969970703125
  vertex 869500.0 5742500.0 3418.489990234375
 endloop
endfacet
facet normal 0.0019297394901514053 -0.01397858839482069 -0.9999004602432251
 outer loop
  vertex 869500.0 5743500.0 3410.06005859375
  vertex 870500.0 5743500.0 3411.989990234375
  vertex 870500.0 5742500.0 3425.969970703125
 endloop
endfacet
facet normal -0.006199226249009371 -0.01397834625095129 -0.9998830556869507
 outer loop
  vertex 870500.0 5743500.0 3411.989990234375
  vertex 871500.0 5742500.0 3419.77001953125
  vertex 870500.0 5742500.0 3425.969970703125
 endloop
endfacet
facet normal -0.0013998419744893909 -0.009179535321891308 -0.9999569058418274
 outer loop
  vertex 870500.0 5743500.0 3411.989990234375
  vertex 871500.0 5743500.0 3410.590087890625
  vertex 871500.0 5742500.0 3419.77001953125
 endloop
endfacet
facet normal 0.014277972280979156 -0.00917860958725214 -0.9998559355735779
 outer loop
  vertex 871500.0 5743500.0 3410.590087890625
  vertex 872500.0 5742500.0 3434.050048828125
  vertex 871500.0 5742500.0 3419.77001953125
 endloop
endfacet
facet normal 0.0010995779884979129 -0.022354505956172943 -0.999749481678009
 outer loop
  vertex 871500.0 5743500.0 3410.590087890625
  vertex 872500.0 5743500.0 3411.68994140625
  vertex 872500.0 5742500.0 3434.050048828125
 endloop
endfacet
facet normal 0.0029792224522680044 -0.02235442027449608 -0.9997456073760986
 outer loop
  vertex 872500.0 5743500.0 3411.68994140625
  vertex 873500.0 5742500.0 3437.030029296875
  vertex 872500.0 5742500.0 3434.050048828125
 endloop
endfacet
facet normal 0.004978886805474758 -0.02035563625395298 -0.9997804164886475
 outer loop
  vertex 872500.0 5743500.0 3411.68994140625
  vertex 873500.0 5743500.0 3416.669921875
  vertex 873500.0 5742500.0 3437.030029296875
 endloop
endfacet
facet normal 0.0007098136702552438 -0.020355883985757828 -0.9997925162315369
 outer loop
  vertex 873500.0 5743500.0 3416.669921875
  vertex 874500.0 5742500.0 3437.739990234375
  vertex 873500.0 5742500.0 3437.030029296875
 endloop
endfacet
facet normal 0.033359020948410034 0.012302272953093052 -0.9993677139282227
 outer loop
  vertex 873500.0 5743500.0 3416.669921875
  vertex 874500.0 5743500.0 3450.050048828125
  vertex 874500.0 5742500.0 3437.739990234375
 endloop
endfacet
facet normal 0.09998877346515656 0.012247439473867416 -0.9949132204055786
 outer loop
  vertex 874500.0 5743500.0 3450.050048828125
  vertex 875500.0 5742500.0 3538.239990234375
  vertex 874500.0 5742500.0 3437.739990234375
 endloop
endfacet
facet normal 0.02782854437828064 -0.06016740947961807 -0.997800350189209
 outer loop
  vertex 874500.0 5743500.0 3450.050048828125
  vertex 875500.0 5743500.0 3477.93994140625
  vertex 875500.0 5742500.0 3538.239990234375
 endloop
endfacet
facet normal 0.015434689819812775 -0.055030014365911484 -0.9983653426170349
 outer loop
  vertex 864500.0 5744500.0 3319.68994140625
  vertex 865500.0 5744500.0 3335.14990234375
  vertex 865500.0 5743500.0 3390.27001953125
 endloop
endfacet
facet normal 0.04728510603308678 -0.054975010454654694 -0.9973674416542053
 outer loop
  vertex 865500.0 5744500.0 3335.14990234375
  vertex 866500.0 5743500.0 3437.679931640625
  vertex 865500.0 5743500.0 3390.27001953125
 endloop
endfacet
facet normal 0.04866202175617218 -0.05359898507595062 -0.9973761439323425
 outer loop
  vertex 865500.0 5744500.0 3335.14990234375
  vertex 866500.0 5744500.0 3383.93994140625
  vertex 866500.0 5743500.0 3437.679931640625
 endloop
endfacet
facet normal -0.021454088389873505 -0.053650207817554474 -0.9983292818069458
 outer loop
  vertex 866500.0 5744500.0 3383.93994140625
  vertex 867500.0 5743500.0 3416.18994140625
  vertex 866500.0 5743500.0 3437.679931640625
 endloop
endfacet
facet normal 0.025201329961419106 -0.0070376284420490265 -0.9996576309204102
 outer loop
  vertex 866500.0 5744500.0 3383.93994140625
  vertex 867500.0 5744500.0 3409.14990234375
  vertex 867500.0 5743500.0 3416.18994140625
 endloop
endfacet
facet normal -0.00328993983566761 -0.007039826363325119 -0.9999698400497437
 outer loop
  vertex 867500.0 5744500.0 3409.14990234375
  vertex 868500.0 5743500.0 3412.89990234375
  vertex 867500.0 5743500.0 3416.18994140625
 endloop
endfacet
facet normal 0.019573874771595 0.0158250629901886 -0.999683141708374
 outer loop
  vertex 867500.0 5744500.0 3409.14990234375
  vertex 868500.0 5744500.0 3428.72998046875
  vertex 868500.0 5743500.0 3412.89990234375
 endloop
endfacet
facet normal -0.0028394765686243773 0.015828032046556473 -0.9998707175254822
 outer loop
  vertex 868500.0 5744500.0 3428.72998046875
  vertex 869500.0 5743500.0 3410.06005859375
  vertex 868500.0 5743500.0 3412.89990234375
 endloop
endfacet
facet normal -0.030513666570186615 -0.011853750795125961 -0.9994640350341797
 outer loop
  vertex 868500.0 5744500.0 3428.72998046875
  vertex 869500.0 5744500.0 3398.199951171875
  vertex 869500.0 5743500.0 3410.06005859375
 endloop
endfacet
facet normal 0.0019297923427075148 -0.01185925118625164 -0.999927818775177
 outer loop
  vertex 869500.0 5744500.0 3398.199951171875
  vertex 870500.0 5743500.0 3411.989990234375
  vertex 869500.0 5743500.0 3410.06005859375
 endloop
endfacet
facet normal 0.043569304049015045 0.029798487201333046 -0.9986059665679932
 outer loop
  vertex 869500.0 5744500.0 3398.199951171875
  vertex 870500.0 5744500.0 3441.830078125
  vertex 870500.0 5743500.0 3411.989990234375
 endloop
endfacet
facet normal -0.0013992780586704612 0.029826780781149864 -0.9995540976524353
 outer loop
  vertex 870500.0 5744500.0 3441.830078125
  vertex 871500.0 5743500.0 3410.590087890625
  vertex 870500.0 5743500.0 3411.989990234375
 endloop
endfacet
facet normal 0.012057643383741379 0.04326610639691353 -0.9989908337593079
 outer loop
  vertex 870500.0 5744500.0 3441.830078125
  vertex 871500.0 5744500.0 3453.89990234375
  vertex 871500.0 5743500.0 3410.590087890625
 endloop
endfacet
facet normal 0.0010988208232447505 0.04326922446489334 -0.9990628361701965
 outer loop
  vertex 871500.0 5744500.0 3453.89990234375
  vertex 872500.0 5743500.0 3411.68994140625
  vertex 871500.0 5743500.0 3410.590087890625
 endloop
endfacet
facet normal -0.05405688285827637 -0.011911639012396336 -0.9984667897224426
 outer loop
  vertex 871500.0 5744500.0 3453.89990234375
  vertex 872500.0 5744500.0 3399.760009765625
  vertex 872500.0 5743500.0 3411.68994140625
 endloop
endfacet
facet normal 0.004979564342647791 -0.01192893460392952 -0.9999164342880249
 outer loop
  vertex 872500.0 5744500.0 3399.760009765625
  vertex 873500.0 5743500.0 3416.669921875
  vertex 872500.0 5743500.0 3411.68994140625
 endloop
endfacet
facet normal -0.006868013646453619 -0.023772748187184334 -0.9996938109397888
 outer loop
  vertex 872500.0 5744500.0 3399.760009765625
  vertex 873500.0 5744500.0 3392.889892578125
  vertex 873500.0 5743500.0 3416.669921875
 endloop
endfacet
facet normal 0.03335212543606758 -0.023760082200169563 -0.9991611838340759
 outer loop
  vertex 873500.0 5744500.0 3392.889892578125
  vertex 874500.0 5743500.0 3450.050048828125
  vertex 873500.0 5743500.0 3416.669921875
 endloop
endfacet
facet normal 0.015457664616405964 0.007628993596881628 -0.9998514652252197
 outer loop
  vertex 864500.0 5745500.0 3327.320068359375
  vertex 865500.0 5744500.0 3335.14990234375
  vertex 864500.0 5744500.0 3319.68994140625
 endloop
endfacet
facet normal 0.016187254339456558 0.008358719758689404 -0.9998340010643005
 outer loop
  vertex 864500.0 5745500.0 3327.320068359375
  vertex 865500.0 5745500.0 3343.510009765625
  vertex 865500.0 5744500.0 3335.14990234375
 endloop
endfacet
facet normal 0.04873037338256836 0.008349883370101452 -0.9987770318984985
 outer loop
  vertex 865500.0 5745500.0 3343.510009765625
  vertex 866500.0 5744500.0 3383.93994140625
  vertex 865500.0 5744500.0 3335.14990234375
 endloop
endfacet
facet normal 0.07261959463357925 0.03231758624315262 -0.9968360066413879
 outer loop
  vertex 865500.0 5745500.0 3343.510009765625
  vertex 866500.0 5745500.0 3416.360107421875
  vertex 866500.0 5744500.0 3383.93994140625
 endloop
endfacet
facet normal 0.025188729166984558 0.03239285945892334 -0.9991577863693237
 outer loop
  vertex 866500.0 5745500.0 3416.360107421875
  vertex 867500.0 5744500.0 3409.14990234375
  vertex 866500.0 5744500.0 3383.93994140625
 endloop
endfacet
facet normal 0.00425969110801816 0.011469356715679169 -0.9999251961708069
 outer loop
  vertex 866500.0 5745500.0 3416.360107421875
  vertex 867500.0 5745500.0 3420.6201171875
  vertex 867500.0 5744500.0 3409.14990234375
 endloop
endfacet
facet normal 0.01957503892481327 0.011467263102531433 -0.9997426271438599
 outer loop
  vertex 867500.0 5745500.0 3420.6201171875
  vertex 868500.0 5744500.0 3428.72998046875
  vertex 867500.0 5744500.0 3409.14990234375
 endloop
endfacet
facet normal -0.032515961676836014 -0.040614839643239975 -0.9986456632614136
 outer loop
  vertex 867500.0 5745500.0 3420.6201171875
  vertex 868500.0 5745500.0 3388.06005859375
  vertex 868500.0 5744500.0 3428.72998046875
 endloop
endfacet
facet normal -0.030490627512335777 -0.040617432445287704 -0.9987094402313232
 outer loop
  vertex 868500.0 5745500.0 3388.06005859375
  vertex 869500.0 5744500.0 3398.199951171875
  vertex 868500.0 5744500.0 3428.72998046875
 endloop
endfacet
facet normal 0.006959757301956415 -0.0031798386480659246 -0.9999707341194153
 outer loop
  vertex 868500.0 5745500.0 3388.06005859375
  vertex 869500.0 5745500.0 3395.02001953125
  vertex 869500.0 5744500.0 3398.199951171875
 endloop
endfacet
facet normal 0.043588437139987946 -0.003176893340423703 -0.9990445375442505
 outer loop
  vertex 869500.0 5745500.0 3395.02001953125
  vertex 870500.0 5744500.0 3441.830078125
  vertex 869500.0 5744500.0 3398.199951171875
 endloop
endfacet
facet normal 0.0006492109387181699 -0.04611104726791382 -0.998936116695404
 outer loop
  vertex 869500.0 5745500.0 3395.02001953125
  vertex 870500.0 5745500.0 3395.669921875
  vertex 870500.0 5744500.0 3441.830078125
 endloop
endfacet
facet normal 0.012056109495460987 -0.0461077056825161 -0.9988637566566467
 outer loop
  vertex 870500.0 5745500.0 3395.669921875
  vertex 871500.0 5744500.0 3453.89990234375
  vertex 870500.0 5744500.0 3441.830078125
 endloop
endfacet
facet normal 0.025658132508397102 -0.03252186253666878 -0.9991416335105896
 outer loop
  vertex 870500.0 5745500.0 3395.669921875
  vertex 871500.0 5745500.0 3421.35009765625
  vertex 871500.0 5744500.0 3453.89990234375
 endloop
endfacet
facet normal -0.05403218790888786 -0.032485052943229675 -0.9980106353759766
 outer loop
  vertex 871500.0 5745500.0 3421.35009765625
  vertex 872500.0 5744500.0 3399.760009765625
  vertex 871500.0 5744500.0 3453.89990234375
 endloop
endfacet
facet normal 0.016186509281396866 0.012727281078696251 -0.9997879862785339
 outer loop
  vertex 864500.0 5746500.0 3340.050048828125
  vertex 865500.0 5745500.0 3343.510009765625
  vertex 864500.0 5745500.0 3327.320068359375
 endloop
endfacet
facet normal 0.020512716844677925 0.017053987830877304 -0.9996441006660461
 outer loop
  vertex 864500.0 5746500.0 3340.050048828125
  vertex 865500.0 5746500.0 3360.570068359375
  vertex 865500.0 5745500.0 3343.510009765625
 endloop
endfacet
facet normal 0.07264703512191772 0.01701250486075878 -0.9972125887870789
 outer loop
  vertex 865500.0 5746500.0 3360.570068359375
  vertex 866500.0 5745500.0 3416.360107421875
  vertex 865500.0 5745500.0 3343.510009765625
 endloop
endfacet
facet normal 0.039014849811792374 -0.016724904999136925 -0.9990986585617065
 outer loop
  vertex 865500.0 5746500.0 3360.570068359375
  vertex 866500.0 5746500.0 3399.6201171875
  vertex 866500.0 5745500.0 3416.360107421875
 endloop
endfacet
facet normal 0.004259374458342791 -0.016737492755055428 -0.9998508095741272
 outer loop
  vertex 866500.0 5746500.0 3399.6201171875
  vertex 867500.0 5745500.0 3420.6201171875
  vertex 866500.0 5745500.0 3416.360107421875
 endloop
endfacet
facet normal 0.012588400393724442 -0.00840919278562069 -0.9998853802680969
 outer loop
  vertex 866500.0 5746500.0 3399.6201171875
  vertex 867500.0 5746500.0 3412.2099609375
  vertex 867500.0 5745500.0 3420.6201171875
 endloop
endfacet
facet normal -0.0325416624546051 -0.008405404165387154 -0.9994350075721741
 outer loop
  vertex 867500.0 5746500.0 3412.2099609375
  vertex 868500.0 5745500.0 3388.06005859375
  vertex 867500.0 5745500.0 3420.6201171875
 endloop
endfacet
facet normal -0.02841818891465664 -0.0042782616801559925 -0.9995869994163513
 outer loop
  vertex 867500.0 5746500.0 3412.2099609375
  vertex 868500.0 5746500.0 3383.780029296875
  vertex 868500.0 5745500.0 3388.06005859375
 endloop
endfacet
facet normal 0.006959728430956602 -0.004279886372387409 -0.9999666213989258
 outer loop
  vertex 868500.0 5746500.0 3383.780029296875
  vertex 869500.0 5745500.0 3395.02001953125
  vertex 868500.0 5745500.0 3388.06005859375
 endloop
endfacet
facet normal -0.008867975324392319 -0.020105252042412758 -0.9997585415840149
 outer loop
  vertex 868500.0 5746500.0 3383.780029296875
  vertex 869500.0 5746500.0 3374.909912109375
  vertex 869500.0 5745500.0 3395.02001953125
 endloop
endfacet
facet normal 0.0006497708382084966 -0.020106038078665733 -0.9997976422309875
 outer loop
  vertex 869500.0 5746500.0 3374.909912109375
  vertex 870500.0 5745500.0 3395.669921875
  vertex 869500.0 5745500.0 3395.02001953125
 endloop
endfacet
facet normal -0.007156939711421728 -0.027908330783247948 -0.9995848536491394
 outer loop
  vertex 869500.0 5746500.0 3374.909912109375
  vertex 870500.0 5746500.0 3367.75
  vertex 870500.0 5745500.0 3395.669921875
 endloop
endfacet
facet normal 0.025661718100309372 -0.027899855747818947 -0.9992812871932983
 outer loop
  vertex 870500.0 5746500.0 3367.75
  vertex 871500.0 5745500.0 3421.35009765625
  vertex 870500.0 5745500.0 3395.669921875
 endloop
endfacet
facet normal -0.002386148553341627 -0.05590227618813515 -0.9984334111213684
 outer loop
  vertex 870500.0 5746500.0 3367.75
  vertex 871500.0 5746500.0 3365.360107421875
  vertex 871500.0 5745500.0 3421.35009765625
 endloop
endfacet
facet normal 0.020512426272034645 -0.017873508855700493 -0.9996297955513
 outer loop
  vertex 864500.0 5747500.0 3322.169921875
  vertex 865500.0 5746500.0 3360.570068359375
  vertex 864500.0 5746500.0 3340.050048828125
 endloop
endfacet
facet normal 0.011545117944478989 -0.02683863788843155 -0.9995731115341187
 outer loop
  vertex 864500.0 5747500.0 3322.169921875
  vertex 865500.0 5747500.0 3333.719970703125
  vertex 865500.0 5746500.0 3360.570068359375
 endloop
endfacet
facet normal 0.039006274193525314 -0.026819996535778046 -0.9988789558410645
 outer loop
  vertex 865500.0 5747500.0 3333.719970703125
  vertex 866500.0 5746500.0 3399.6201171875
  vertex 865500.0 5746500.0 3360.570068359375
 endloop
endfacet
facet normal 0.017886461690068245 -0.04792739823460579 -0.998690664768219
 outer loop
  vertex 865500.0 5747500.0 3333.719970703125
  vertex 866500.0 5747500.0 3351.6298828125
  vertex 866500.0 5746500.0 3399.6201171875
 endloop
endfacet
facet normal 0.012574376538395882 -0.04793127626180649 -0.9987714290618896
 outer loop
  vertex 866500.0 5747500.0 3351.6298828125
  vertex 867500.0 5746500.0 3412.2099609375
  vertex 866500.0 5746500.0 3399.6201171875
 endloop
endfacet
facet normal 0.05322309210896492 -0.007269520312547684 -0.9985561966896057
 outer loop
  vertex 866500.0 5747500.0 3351.6298828125
  vertex 867500.0 5747500.0 3404.929931640625
  vertex 867500.0 5746500.0 3412.2099609375
 endloop
endfacet
facet normal -0.028417695313692093 -0.007276895921677351 -0.9995695948600769
 outer loop
  vertex 867500.0 5747500.0 3404.929931640625
  vertex 868500.0 5746500.0 3383.780029296875
  vertex 867500.0 5746500.0 3412.2099609375
 endloop
endfacet
facet normal -0.0383160226047039 -0.017184777185320854 -0.999117910861969
 outer loop
  vertex 867500.0 5747500.0 3404.929931640625
  vertex 868500.0 5747500.0 3366.580078125
  vertex 868500.0 5746500.0 3383.780029296875
 endloop
endfacet
facet normal -0.008868456818163395 -0.01719673164188862 -0.9998127818107605
 outer loop
  vertex 868500.0 5747500.0 3366.580078125
  vertex 869500.0 5746500.0 3374.909912109375
  vertex 868500.0 5746500.0 3383.780029296875
 endloop
endfacet
facet normal 0.01223897933959961 0.003909833263605833 -0.9999174475669861
 outer loop
  vertex 868500.0 5747500.0 3366.580078125
  vertex 869500.0 5747500.0 3378.820068359375
  vertex 869500.0 5746500.0 3374.909912109375
 endloop
endfacet
facet normal -0.007159673608839512 0.0039100260473787785 -0.9999666810035706
 outer loop
  vertex 869500.0 5747500.0 3378.820068359375
  vertex 870500.0 5746500.0 3367.75
  vertex 869500.0 5746500.0 3374.909912109375
 endloop
endfacet
facet normal 0.01238553412258625 0.023451708257198334 -0.9996482729911804
 outer loop
  vertex 869500.0 5747500.0 3378.820068359375
  vertex 870500.0 5747500.0 3391.2099609375
  vertex 870500.0 5746500.0 3367.75
 endloop
endfacet
facet normal -0.0023892284370958805 0.02345344051718712 -0.9997220635414124
 outer loop
  vertex 870500.0 5747500.0 3391.2099609375
  vertex 871500.0 5746500.0 3365.360107421875
  vertex 870500.0 5746500.0 3367.75
 endloop
endfacet
facet normal -0.03076508454978466 -0.004927782341837883 -0.9995144605636597
 outer loop
  vertex 870500.0 5747500.0 3391.2099609375
  vertex 871500.0 5747500.0 3360.429931640625
  vertex 871500.0 5746500.0 3365.360107421875
 endloop
endfacet
facet normal 0.011549019254744053 -0.00669935392215848 -0.9999108910560608
 outer loop
  vertex 864500.0 5748500.0 3315.469970703125
  vertex 865500.0 5747500.0 3333.719970703125
  vertex 864500.0 5747500.0 3322.169921875
 endloop
endfacet
facet normal 0.025171350687742233 0.00692756986245513 -0.9996591806411743
 outer loop
  vertex 864500.0 5748500.0 3315.469970703125
  vertex 865500.0 5748500.0 3340.64990234375
  vertex 865500.0 5747500.0 3333.719970703125
 endloop
endfacet
facet normal 0.017906609922647476 0.006928654387593269 -0.9998156428337097
 outer loop
  vertex 865500.0 5748500.0 3340.64990234375
  vertex 866500.0 5747500.0 3351.6298828125
  vertex 865500.0 5747500.0 3333.719970703125
 endloop
endfacet
facet normal 0.0030699579510837793 -0.007909627631306648 -0.9999639987945557
 outer loop
  vertex 865500.0 5748500.0 3340.64990234375
  vertex 866500.0 5748500.0 3343.719970703125
  vertex 866500.0 5747500.0 3351.6298828125
 endloop
endfacet
facet normal 0.053222838789224625 -0.007898453623056412 -0.9985514283180237
 outer loop
  vertex 866500.0 5748500.0 3343.719970703125
  vertex 867500.0 5747500.0 3404.929931640625
  vertex 866500.0 5747500.0 3351.6298828125
 endloop
endfacet
facet normal 0.015841834247112274 -0.04529760405421257 -0.9988479018211365
 outer loop
  vertex 866500.0 5748500.0 3343.719970703125
  vertex 867500.0 5748500.0 3359.580078125
  vertex 867500.0 5747500.0 3404.929931640625
 endloop
endfacet
facet normal -0.03828239440917969 -0.045270081609487534 -0.9982409477233887
 outer loop
  vertex 867500.0 5748500.0 3359.580078125
  vertex 868500.0 5747500.0 3366.580078125
  vertex 867500.0 5747500.0 3404.929931640625
 endloop
endfacet
facet normal -0.012177033349871635 -0.019175227731466293 -0.9997420310974121
 outer loop
  vertex 867500.0 5748500.0 3359.580078125
  vertex 868500.0 5748500.0 3347.39990234375
  vertex 868500.0 5747500.0 3366.580078125
 endloop
endfacet
facet normal 0.012236823327839375 -0.0191752128303051 -0.99974125623703
 outer loop
  vertex 868500.0 5748500.0 3347.39990234375
  vertex 869500.0 5747500.0 3378.820068359375
  vertex 868500.0 5747500.0 3366.580078125
 endloop
endfacet
facet normal 0.0042684078216552734 -0.027139898389577866 -0.9996225237846375
 outer loop
  vertex 868500.0 5748500.0 3347.39990234375
  vertex 869500.0 5748500.0 3351.669921875
  vertex 869500.0 5747500.0 3378.820068359375
 endloop
endfacet
facet normal 0.012384379282593727 -0.027138065546751022 -0.9995549917221069
 outer loop
  vertex 869500.0 5748500.0 3351.669921875
  vertex 870500.0 5747500.0 3391.2099609375
  vertex 869500.0 5747500.0 3378.820068359375
 endloop
endfacet
facet normal -0.0006393765797838569 -0.04014752805233002 -0.9991936087608337
 outer loop
  vertex 869500.0 5748500.0 3351.669921875
  vertex 870500.0 5748500.0 3351.030029296875
  vertex 870500.0 5747500.0 3391.2099609375
 endloop
endfacet
facet normal -0.03074067458510399 -0.04012855887413025 -0.9987215399742126
 outer loop
  vertex 870500.0 5748500.0 3351.030029296875
  vertex 871500.0 5747500.0 3360.429931640625
  vertex 870500.0 5747500.0 3391.2099609375
 endloop
endfacet
facet normal 0.044070422649383545 0.03468531370162964 -0.9984261393547058
 outer loop
  vertex 870500.0 5748500.0 3351.030029296875
  vertex 871500.0 5748500.0 3395.169921875
  vertex 871500.0 5747500.0 3360.429931640625
 endloop
endfacet
facet normal -0.005016925744712353 0.03471861034631729 -0.9993845224380493
 outer loop
  vertex 871500.0 5748500.0 3395.169921875
  vertex 872500.0 5747500.0 3355.409912109375
  vertex 871500.0 5747500.0 3360.429931640625
 endloop
endfacet
facet normal -0.050074294209480286 -0.010366302914917469 -0.998691737651825
 outer loop
  vertex 871500.0 5748500.0 3395.169921875
  vertex 872500.0 5748500.0 3345.030029296875
  vertex 872500.0 5747500.0 3355.409912109375
 endloop
endfacet
facet normal -0.007899230346083641 -0.010378999635577202 -0.9999149441719055
 outer loop
  vertex 872500.0 5748500.0 3345.030029296875
  vertex 873500.0 5747500.0 3347.510009765625
  vertex 872500.0 5747500.0 3355.409912109375
 endloop
endfacet
facet normal -0.2669895887374878 -0.26928433775901794 -0.9253121614456177
 outer loop
  vertex 872500.0 5748500.0 3345.030029296875
  vertex 873500.0 5748500.0 3056.489990234375
  vertex 873500.0 5747500.0 3347.510009765625
 endloop
endfacet
facet normal -0.2691188156604767 -0.2691188156604767 -0.9247432351112366
 outer loop
  vertex 873500.0 5748500.0 3056.489990234375
  vertex 874500.0 5747500.0 3056.489990234375
  vertex 873500.0 5747500.0 3347.510009765625
 endloop
endfacet
facet normal 0.1790846884250641 0.1790846884250641 -0.9673972129821777
 outer loop
  vertex 873500.0 5748500.0 3056.489990234375
  vertex 874500.0 5748500.0 3241.610107421875
  vertex 874500.0 5747500.0 3056.489990234375
 endloop
endfacet
facet normal 0.1839284598827362 0.17892195284366608 -0.9665181040763855
 outer loop
  vertex 874500.0 5748500.0 3241.610107421875
  vertex 875500.0 5747500.0 3246.7900390625
  vertex 874500.0 5747500.0 3056.489990234375
 endloop
endfacet
facet normal 0.05969381704926491 0.05453084781765938 -0.9967261552810669
 outer loop
  vertex 874500.0 5748500.0 3241.610107421875
  vertex 875500.0 5748500.0 3301.5
  vertex 875500.0 5747500.0 3246.7900390625
 endloop
endfacet
facet normal 0.025171926245093346 -0.0014294771244749427 -0.9996821284294128
 outer loop
  vertex 864500.0 5749500.0 3314.0400390625
  vertex 865500.0 5748500.0 3340.64990234375
  vertex 864500.0 5748500.0 3315.469970703125
 endloop
endfacet
facet normal 0.0047788359224796295 -0.021824384108185768 -0.9997503757476807
 outer loop
  vertex 864500.0 5749500.0 3314.0400390625
  vertex 865500.0 5749500.0 3318.820068359375
  vertex 865500.0 5748500.0 3340.64990234375
 endloop
endfacet
facet normal 0.0030693227890878916 -0.021824531257152557 -0.9997571110725403
 outer loop
  vertex 865500.0 5749500.0 3318.820068359375
  vertex 866500.0 5748500.0 3343.719970703125
  vertex 865500.0 5748500.0 3340.64990234375
 endloop
endfacet
facet normal 0.016187205910682678 -0.008708490058779716 -0.9998310804367065
 outer loop
  vertex 865500.0 5749500.0 3318.820068359375
  vertex 866500.0 5749500.0 3335.010009765625
  vertex 866500.0 5748500.0 3343.719970703125
 endloop
endfacet
facet normal 0.01585751213133335 -0.008708535693585873 -0.9998363256454468
 outer loop
  vertex 866500.0 5749500.0 3335.010009765625
  vertex 867500.0 5748500.0 3359.580078125
  vertex 866500.0 5748500.0 3343.719970703125
 endloop
endfacet
facet normal 0.004449007101356983 -0.020115846768021584 -0.9997878074645996
 outer loop
  vertex 866500.0 5749500.0 3335.010009765625
  vertex 867500.0 5749500.0 3339.4599609375
  vertex 867500.0 5748500.0 3359.580078125
 endloop
endfacet
facet normal -0.012176807969808578 -0.020114554092288017 -0.999723494052887
 outer loop
  vertex 867500.0 5749500.0 3339.4599609375
  vertex 868500.0 5748500.0 3347.39990234375
  vertex 867500.0 5748500.0 3359.580078125
 endloop
endfacet
facet normal 0.000509995617903769 -0.007429725490510464 -0.9999722242355347
 outer loop
  vertex 867500.0 5749500.0 3339.4599609375
  vertex 868500.0 5749500.0 3339.969970703125
  vertex 868500.0 5748500.0 3347.39990234375
 endloop
endfacet
facet normal 0.004269862547516823 -0.007429658435285091 -0.9999632239341736
 outer loop
  vertex 868500.0 5749500.0 3339.969970703125
  vertex 869500.0 5748500.0 3351.669921875
  vertex 868500.0 5748500.0 3347.39990234375
 endloop
endfacet
facet normal -0.005948919337242842 -0.01764684170484543 -0.9998266100883484
 outer loop
  vertex 868500.0 5749500.0 3339.969970703125
  vertex 869500.0 5749500.0 3334.02001953125
  vertex 869500.0 5748500.0 3351.669921875
 endloop
endfacet
facet normal -0.0006397928227670491 -0.0176471509039402 -0.9998440742492676
 outer loop
  vertex 869500.0 5749500.0 3334.02001953125
  vertex 870500.0 5748500.0 3351.030029296875
  vertex 869500.0 5748500.0 3351.669921875
 endloop
endfacet
facet normal 0.005269583314657211 -0.011739018373191357 -0.999917209148407
 outer loop
  vertex 869500.0 5749500.0 3334.02001953125
  vertex 870500.0 5749500.0 3339.2900390625
  vertex 870500.0 5748500.0 3351.030029296875
 endloop
endfacet
facet normal 0.04409392178058624 -0.011727764271199703 -0.9989585876464844
 outer loop
  vertex 870500.0 5749500.0 3339.2900390625
  vertex 871500.0 5748500.0 3395.169921875
  vertex 870500.0 5748500.0 3351.030029296875
 endloop
endfacet
facet normal -0.004591659177094698 -0.06036903336644173 -0.9981655478477478
 outer loop
  vertex 870500.0 5749500.0 3339.2900390625
  vertex 871500.0 5749500.0 3334.68994140625
  vertex 871500.0 5748500.0 3395.169921875
 endloop
endfacet
facet normal -0.04998587444424629 -0.06029420346021652 -0.9969282746315002
 outer loop
  vertex 871500.0 5749500.0 3334.68994140625
  vertex 872500.0 5748500.0 3345.030029296875
  vertex 871500.0 5748500.0 3395.169921875
 endloop
endfacet
facet normal -0.04758577048778534 -0.057896777987480164 -0.9971877932548523
 outer loop
  vertex 871500.0 5749500.0 3334.68994140625
  vertex 872500.0 5749500.0 3286.969970703125
  vertex 872500.0 5748500.0 3345.030029296875
 endloop
endfacet
facet normal -0.27679991722106934 -0.055697713047266006 -0.9593120217323303
 outer loop
  vertex 872500.0 5749500.0 3286.969970703125
  vertex 873500.0 5748500.0 3056.489990234375
  vertex 872500.0 5748500.0 3345.030029296875
 endloop
endfacet
facet normal -0.017486335709691048 0.2079206258058548 -0.9779893755912781
 outer loop
  vertex 872500.0 5749500.0 3286.969970703125
  vertex 873500.0 5749500.0 3269.090087890625
  vertex 873500.0 5748500.0 3056.489990234375
 endloop
endfacet
facet normal 0.17817577719688416 0.20462492108345032 -0.9624873995780945
 outer loop
  vertex 873500.0 5749500.0 3269.090087890625
  vertex 874500.0 5748500.0 3241.610107421875
  vertex 873500.0 5748500.0 3056.489990234375
 endloop
endfacet
facet normal -0.01828620955348015 0.009188016876578331 -0.999790608882904
 outer loop
  vertex 873500.0 5749500.0 3269.090087890625
  vertex 874500.0 5749500.0 3250.800048828125
  vertex 874500.0 5748500.0 3241.610107421875
 endloop
endfacet
facet normal 0.05978026241064072 0.009173118509352207 -0.9981694221496582
 outer loop
  vertex 874500.0 5749500.0 3250.800048828125
  vertex 875500.0 5748500.0 3301.5
  vertex 874500.0 5748500.0 3241.610107421875
 endloop
endfacet
facet normal 0.13663622736930847 0.08660407364368439 -0.9868283867835999
 outer loop
  vertex 874500.0 5749500.0 3250.800048828125
  vertex 875500.0 5749500.0 3389.260009765625
  vertex 875500.0 5748500.0 3301.5
 endloop
endfacet
facet normal 0.012298495508730412 -0.010068796575069427 -0.999873697757721
 outer loop
  vertex 863500.0 5750500.0 3291.669921875
  vertex 864500.0 5750500.0 3303.969970703125
  vertex 864500.0 5749500.0 3314.0400390625
 endloop
endfacet
facet normal 0.004779732320457697 -0.01006944291293621 -0.999937891960144
 outer loop
  vertex 864500.0 5750500.0 3303.969970703125
  vertex 865500.0 5749500.0 3318.820068359375
  vertex 864500.0 5749500.0 3314.0400390625
 endloop
endfacet
facet normal 0.009059534408152103 -0.005789704155176878 -0.9999421834945679
 outer loop
  vertex 864500.0 5750500.0 3303.969970703125
  vertex 865500.0 5750500.0 3313.030029296875
  vertex 865500.0 5749500.0 3318.820068359375
 endloop
endfacet
facet normal 0.016187548637390137 -0.005789183545857668 -0.999852180480957
 outer loop
  vertex 865500.0 5750500.0 3313.030029296875
  vertex 866500.0 5749500.0 3335.010009765625
  vertex 865500.0 5749500.0 3318.820068359375
 endloop
endfacet
facet normal -0.00028996713808737695 -0.022264497354626656 -0.9997520446777344
 outer loop
  vertex 865500.0 5750500.0 3313.030029296875
  vertex 866500.0 5750500.0 3312.739990234375
  vertex 866500.0 5749500.0 3335.010009765625
 endloop
endfacet
facet normal 0.004448804073035717 -0.022264277562499046 -0.9997422099113464
 outer loop
  vertex 866500.0 5750500.0 3312.739990234375
  vertex 867500.0 5749500.0 3339.4599609375
  vertex 866500.0 5749500.0 3335.010009765625
 endloop
endfacet
facet normal 0.010508048348128796 -0.016206936910748482 -0.999813437461853
 outer loop
  vertex 866500.0 5750500.0 3312.739990234375
  vertex 867500.0 5750500.0 3323.25
  vertex 867500.0 5749500.0 3339.4599609375
 endloop
endfacet
facet normal 0.0005099427071399987 -0.016207829117774963 -0.9998685121536255
 outer loop
  vertex 867500.0 5750500.0 3323.25
  vertex 868500.0 5749500.0 3339.969970703125
  vertex 867500.0 5749500.0 3339.4599609375
 endloop
endfacet
facet normal -0.002559574553743005 -0.019276384264230728 -0.9998109340667725
 outer loop
  vertex 867500.0 5750500.0 3323.25
  vertex 868500.0 5750500.0 3320.68994140625
  vertex 868500.0 5749500.0 3339.969970703125
 endloop
endfacet
facet normal -0.005948740057647228 -0.019276104867458344 -0.999796450138092
 outer loop
  vertex 868500.0 5750500.0 3320.68994140625
  vertex 869500.0 5749500.0 3334.02001953125
  vertex 868500.0 5749500.0 3339.969970703125
 endloop
endfacet
facet normal -0.027167607098817825 -0.04048183560371399 -0.9988108277320862
 outer loop
  vertex 868500.0 5750500.0 3320.68994140625
  vertex 869500.0 5750500.0 3293.489990234375
  vertex 869500.0 5749500.0 3334.02001953125
 endloop
endfacet
facet normal 0.005265619605779648 -0.04049622267484665 -0.9991658329963684
 outer loop
  vertex 869500.0 5750500.0 3293.489990234375
  vertex 870500.0 5749500.0 3339.2900390625
  vertex 869500.0 5749500.0 3334.02001953125
 endloop
endfacet
facet normal 0.021198786795139313 -0.024577131494879723 -0.9994731545448303
 outer loop
  vertex 869500.0 5750500.0 3293.489990234375
  vertex 870500.0 5750500.0 3314.699951171875
  vertex 870500.0 5749500.0 3339.2900390625
 endloop
endfacet
facet normal -0.004598658997565508 -0.0245823971927166 -0.9996871948242188
 outer loop
  vertex 870500.0 5750500.0 3314.699951171875
  vertex 871500.0 5749500.0 3334.68994140625
  vertex 870500.0 5749500.0 3339.2900390625
 endloop
endfacet
facet normal -0.04217071086168289 -0.062104299664497375 -0.9971783757209778
 outer loop
  vertex 870500.0 5750500.0 3314.699951171875
  vertex 871500.0 5750500.0 3272.409912109375
  vertex 871500.0 5749500.0 3334.68994140625
 endloop
endfacet
facet normal -0.047573767602443695 -0.0620892159640789 -0.9969361424446106
 outer loop
  vertex 871500.0 5750500.0 3272.409912109375
  vertex 872500.0 5749500.0 3286.969970703125
  vertex 871500.0 5749500.0 3334.68994140625
 endloop
endfacet
facet normal -0.046591803431510925 -0.06110880896449089 -0.9970430731773376
 outer loop
  vertex 871500.0 5750500.0 3272.409912109375
  vertex 872500.0 5750500.0 3225.679931640625
  vertex 872500.0 5749500.0 3286.969970703125
 endloop
endfacet
facet normal -0.01784355379641056 -0.06116550788283348 -0.9979681372642517
 outer loop
  vertex 872500.0 5750500.0 3225.679931640625
  vertex 873500.0 5749500.0 3269.090087890625
  vertex 872500.0 5749500.0 3286.969970703125
 endloop
endfacet
facet normal 0.0603213794529438 0.016996555030345917 -0.9980342984199524
 outer loop
  vertex 872500.0 5750500.0 3225.679931640625
  vertex 873500.0 5750500.0 3286.1201171875
  vertex 873500.0 5749500.0 3269.090087890625
 endloop
endfacet
facet normal -0.018284332007169724 0.01702471263706684 -0.9996878504753113
 outer loop
  vertex 873500.0 5750500.0 3286.1201171875
  vertex 874500.0 5749500.0 3250.800048828125
  vertex 873500.0 5749500.0 3269.090087890625
 endloop
endfacet
facet normal 0.03612396493554115 0.0713309496641159 -0.9967983365058899
 outer loop
  vertex 873500.0 5750500.0 3286.1201171875
  vertex 874500.0 5750500.0 3322.360107421875
  vertex 874500.0 5749500.0 3250.800048828125
 endloop
endfacet
facet normal 0.13680826127529144 0.07070641219615936 -0.9880709052085876
 outer loop
  vertex 874500.0 5750500.0 3322.360107421875
  vertex 875500.0 5749500.0 3389.260009765625
  vertex 874500.0 5749500.0 3250.800048828125
 endloop
endfacet
facet normal 0.07328083366155624 0.006562244612723589 -0.9972897171974182
 outer loop
  vertex 874500.0 5750500.0 3322.360107421875
  vertex 875500.0 5750500.0 3395.840087890625
  vertex 875500.0 5749500.0 3389.260009765625
 endloop
endfacet
facet normal 0.038380783051252365 0.006575087551027536 -0.9992415904998779
 outer loop
  vertex 875500.0 5750500.0 3395.840087890625
  vertex 876500.0 5749500.0 3427.669921875
  vertex 875500.0 5749500.0 3389.260009765625
 endloop
endfacet
facet normal -0.057276953011751175 -0.0889282152056694 -0.9943898320198059
 outer loop
  vertex 875500.0 5750500.0 3395.840087890625
  vertex 876500.0 5750500.0 3338.239990234375
  vertex 876500.0 5749500.0 3427.669921875
 endloop
endfacet
facet normal 0.012298904359340668 -0.005899353418499231 -0.9999069571495056
 outer loop
  vertex 863500.0 5751500.0 3285.77001953125
  vertex 864500.0 5750500.0 3303.969970703125
  vertex 863500.0 5750500.0 3291.669921875
 endloop
endfacet
facet normal 0.0024196135345846415 -0.015778018161654472 -0.9998725652694702
 outer loop
  vertex 863500.0 5751500.0 3285.77001953125
  vertex 864500.0 5751500.0 3288.18994140625
  vertex 864500.0 5750500.0 3303.969970703125
 endloop
endfacet
facet normal 0.009058559313416481 -0.01577741838991642 -0.9998345375061035
 outer loop
  vertex 864500.0 5751500.0 3288.18994140625
  vertex 865500.0 5750500.0 3313.030029296875
  vertex 864500.0 5750500.0 3303.969970703125
 endloop
endfacet
facet normal 0.003989091608673334 -0.020845400169491768 -0.9997747540473938
 outer loop
  vertex 864500.0 5751500.0 3288.18994140625
  vertex 865500.0 5751500.0 3292.179931640625
  vertex 865500.0 5750500.0 3313.030029296875
 endloop
endfacet
facet normal -0.00028997601475566626 -0.02084556594491005 -0.9997826814651489
 outer loop
  vertex 865500.0 5751500.0 3292.179931640625
  vertex 866500.0 5750500.0 3312.739990234375
  vertex 865500.0 5750500.0 3313.030029296875
 endloop
endfacet
facet normal 0.01218885276466608 -0.008368957787752151 -0.9998906850814819
 outer loop
  vertex 865500.0 5751500.0 3292.179931640625
  vertex 866500.0 5751500.0 3304.3701171875
  vertex 866500.0 5750500.0 3312.739990234375
 endloop
endfacet
facet normal 0.010509061627089977 -0.008369117975234985 -0.9999097585678101
 outer loop
  vertex 866500.0 5751500.0 3304.3701171875
  vertex 867500.0 5750500.0 3323.25
  vertex 866500.0 5750500.0 3312.739990234375
 endloop
endfacet
facet normal -0.0014198720455169678 -0.020295847207307816 -0.9997929930686951
 outer loop
  vertex 866500.0 5751500.0 3304.3701171875
  vertex 867500.0 5751500.0 3302.949951171875
  vertex 867500.0 5750500.0 3323.25
 endloop
endfacet
facet normal -0.0025595228653401136 -0.020295800641179085 -0.9997907280921936
 outer loop
  vertex 867500.0 5751500.0 3302.949951171875
  vertex 868500.0 5750500.0 3320.68994140625
  vertex 867500.0 5750500.0 3323.25
 endloop
endfacet
facet normal -0.0030493757221847773 -0.02078545093536377 -0.9997792840003967
 outer loop
  vertex 867500.0 5751500.0 3302.949951171875
  vertex 868500.0 5751500.0 3299.89990234375
  vertex 868500.0 5750500.0 3320.68994140625
 endloop
endfacet
facet normal -0.027184024453163147 -0.0207778662443161 -0.9994144439697266
 outer loop
  vertex 868500.0 5751500.0 3299.89990234375
  vertex 869500.0 5750500.0 3293.489990234375
  vertex 868500.0 5750500.0 3320.68994140625
 endloop
endfacet
facet normal 0.017532315105199814 0.023939404636621475 -0.9995596408843994
 outer loop
  vertex 868500.0 5751500.0 3299.89990234375
  vertex 869500.0 5751500.0 3317.43994140625
  vertex 869500.0 5750500.0 3293.489990234375
 endloop
endfacet
facet normal 0.021199114620685577 0.023937704041600227 -0.9994886517524719
 outer loop
  vertex 869500.0 5751500.0 3317.43994140625
  vertex 870500.0 5750500.0 3314.699951171875
  vertex 869500.0 5750500.0 3293.489990234375
 endloop
endfacet
facet normal 0.0017299605533480644 0.0044699194841086864 -0.9999884963035583
 outer loop
  vertex 869500.0 5751500.0 3317.43994140625
  vertex 870500.0 5751500.0 3319.169921875
  vertex 870500.0 5750500.0 3314.699951171875
 endloop
endfacet
facet normal -0.04225185140967369 0.004465934354811907 -0.9990969896316528
 outer loop
  vertex 870500.0 5751500.0 3319.169921875
  vertex 871500.0 5750500.0 3272.409912109375
  vertex 870500.0 5750500.0 3314.699951171875
 endloop
endfacet
facet normal -0.09897276014089584 -0.05250715836882591 -0.9937039017677307
 outer loop
  vertex 870500.0 5751500.0 3319.169921875
  vertex 871500.0 5751500.0 3219.570068359375
  vertex 871500.0 5750500.0 3272.409912109375
 endloop
endfacet
facet normal -0.0466141514480114 -0.05270887166261673 -0.9975213408470154
 outer loop
  vertex 871500.0 5751500.0 3219.570068359375
  vertex 872500.0 5750500.0 3225.679931640625
  vertex 871500.0 5750500.0 3272.409912109375
 endloop
endfacet
facet normal 0.08772300183773041 0.08165717869997025 -0.9927924275398254
 outer loop
  vertex 871500.0 5751500.0 3219.570068359375
  vertex 872500.0 5751500.0 3307.929931640625
  vertex 872500.0 5750500.0 3225.679931640625
 endloop
endfacet
facet normal 0.06012779101729393 0.0818248763680458 -0.9948312640190125
 outer loop
  vertex 872500.0 5751500.0 3307.929931640625
  vertex 873500.0 5750500.0 3286.1201171875
  vertex 872500.0 5750500.0 3225.679931640625
 endloop
endfacet
facet normal -0.05671357363462448 -0.03495221212506294 -0.9977785348892212
 outer loop
  vertex 872500.0 5751500.0 3307.929931640625
  vertex 873500.0 5751500.0 3251.090087890625
  vertex 873500.0 5750500.0 3286.1201171875
 endloop
endfacet
facet normal 0.03619403764605522 -0.03498562052845955 -0.9987321496009827
 outer loop
  vertex 873500.0 5751500.0 3251.090087890625
  vertex 874500.0 5750500.0 3322.360107421875
  vertex 873500.0 5750500.0 3286.1201171875
 endloop
endfacet
facet normal 0.1094549372792244 0.0386667475104332 -0.9932394027709961
 outer loop
  vertex 873500.0 5751500.0 3251.090087890625
  vertex 874500.0 5751500.0 3361.2900390625
  vertex 874500.0 5750500.0 3322.360107421875
 endloop
endfacet
facet normal 0.07322723418474197 0.03879602625966072 -0.9965604543685913
 outer loop
  vertex 874500.0 5751500.0 3361.2900390625
  vertex 875500.0 5750500.0 3395.840087890625
  vertex 874500.0 5750500.0 3322.360107421875
 endloop
endfacet
facet normal 0.03667517751455307 0.0021484550088644028 -0.9993249773979187
 outer loop
  vertex 874500.0 5751500.0 3361.2900390625
  vertex 875500.0 5751500.0 3397.989990234375
  vertex 875500.0 5750500.0 3395.840087890625
 endloop
endfacet
facet normal -0.057504650205373764 0.0021463397424668074 -0.9983429312705994
 outer loop
  vertex 875500.0 5751500.0 3397.989990234375
  vertex 876500.0 5750500.0 3338.239990234375
  vertex 875500.0 5750500.0 3395.840087890625
 endloop
endfacet
facet normal -0.024587491527199745 0.03510759770870209 -0.999081015586853
 outer loop
  vertex 875500.0 5751500.0 3397.989990234375
  vertex 876500.0 5751500.0 3373.3798828125
  vertex 876500.0 5750500.0 3338.239990234375
 endloop
endfacet
facet normal -0.03019755892455578 0.035102199763059616 -0.9989274144172668
 outer loop
  vertex 876500.0 5751500.0 3373.3798828125
  vertex 877500.0 5750500.0 3308.010009765625
  vertex 876500.0 5750500.0 3338.239990234375
 endloop
endfacet
facet normal -0.06303415447473526 0.0022055606823414564 -0.9980089068412781
 outer loop
  vertex 876500.0 5751500.0 3373.3798828125
  vertex 877500.0 5751500.0 3310.219970703125
  vertex 877500.0 5750500.0 3308.010009765625
 endloop
endfacet
facet normal 0.07205206155776978 0.002204211661592126 -0.9973984956741333
 outer loop
  vertex 877500.0 5751500.0 3310.219970703125
  vertex 878500.0 5750500.0 3380.25
  vertex 877500.0 5750500.0 3308.010009765625
 endloop
endfacet
facet normal 0.012188496068120003 -0.011338272131979465 -0.9998614192008972
 outer loop
  vertex 865500.0 5752500.0 3280.840087890625
  vertex 866500.0 5751500.0 3304.3701171875
  vertex 865500.0 5751500.0 3292.179931640625
 endloop
endfacet
facet normal 0.005608874838799238 -0.017917009070515633 -0.999823808670044
 outer loop
  vertex 865500.0 5752500.0 3280.840087890625
  vertex 866500.0 5752500.0 3286.449951171875
  vertex 866500.0 5751500.0 3304.3701171875
 endloop
endfacet
facet normal -0.0014199366560205817 -0.017917271703481674 -0.9998384714126587
 outer loop
  vertex 866500.0 5752500.0 3286.449951171875
  vertex 867500.0 5751500.0 3302.949951171875
  vertex 866500.0 5751500.0 3304.3701171875
 endloop
endfacet
facet normal -0.0075676594860851765 -0.02406240813434124 -0.9996817708015442
 outer loop
  vertex 866500.0 5752500.0 3286.449951171875
  vertex 867500.0 5752500.0 3278.8798828125
  vertex 867500.0 5751500.0 3302.949951171875
 endloop
endfacet
facet normal -0.0030491515062749386 -0.02406298741698265 -0.9997058510780334
 outer loop
  vertex 867500.0 5752500.0 3278.8798828125
  vertex 868500.0 5751500.0 3299.89990234375
  vertex 867500.0 5751500.0 3302.949951171875
 endloop
endfacet
facet normal 0.013888443820178509 -0.007129014004021883 -0.9998781681060791
 outer loop
  vertex 867500.0 5752500.0 3278.8798828125
  vertex 868500.0 5752500.0 3292.77001953125
  vertex 868500.0 5751500.0 3299.89990234375
 endloop
endfacet
facet normal 0.017536895349621773 -0.007128605153411627 -0.9998207688331604
 outer loop
  vertex 868500.0 5752500.0 3292.77001953125
  vertex 869500.0 5751500.0 3317.43994140625
  vertex 868500.0 5751500.0 3299.89990234375
 endloop
endfacet
facet normal 0.0015396253438666463 -0.023123670369386673 -0.9997313618659973
 outer loop
  vertex 868500.0 5752500.0 3292.77001953125
  vertex 869500.0 5752500.0 3294.31005859375
  vertex 869500.0 5751500.0 3317.43994140625
 endloop
endfacet
facet normal 0.0017295153811573982 -0.023123664781451225 -0.9997311234474182
 outer loop
  vertex 869500.0 5752500.0 3294.31005859375
  vertex 870500.0 5751500.0 3319.169921875
  vertex 869500.0 5751500.0 3317.43994140625
 endloop
endfacet
facet normal 0.007578485179692507 -0.017276953905820847 -0.9998220205307007
 outer loop
  vertex 869500.0 5752500.0 3294.31005859375
  vertex 870500.0 5752500.0 3301.889892578125
  vertex 870500.0 5751500.0 3319.169921875
 endloop
endfacet
facet normal -0.09909483790397644 -0.017192410305142403 -0.9949294924736023
 outer loop
  vertex 870500.0 5752500.0 3301.889892578125
  vertex 871500.0 5751500.0 3219.570068359375
  vertex 870500.0 5751500.0 3319.169921875
 endloop
endfacet
facet normal -0.05852298066020012 0.023632727563381195 -0.998006284236908
 outer loop
  vertex 870500.0 5752500.0 3301.889892578125
  vertex 871500.0 5752500.0 3243.25
  vertex 871500.0 5751500.0 3219.570068359375
 endloop
endfacet
facet normal 0.08799245953559875 0.02358146943151951 -0.9958419799804688
 outer loop
  vertex 871500.0 5752500.0 3243.25
  vertex 872500.0 5751500.0 3307.929931640625
  vertex 871500.0 5751500.0 3219.570068359375
 endloop
endfacet
facet normal 0.0366341769695282 -0.04731520637869835 -0.9982079863548279
 outer loop
  vertex 874500.0 5752500.0 3313.889892578125
  vertex 875500.0 5751500.0 3397.989990234375
  vertex 874500.0 5751500.0 3361.2900390625
 endloop
endfacet
facet normal 0.16870932281017303 0.08613183349370956 -0.981895387172699
 outer loop
  vertex 874500.0 5752500.0 3313.889892578125
  vertex 875500.0 5752500.0 3485.7099609375
  vertex 875500.0 5751500.0 3397.989990234375
 endloop
endfacet
facet normal -0.024508604779839516 0.08735816180706024 -0.9958754777908325
 outer loop
  vertex 875500.0 5752500.0 3485.7099609375
  vertex 876500.0 5751500.0 3373.3798828125
  vertex 875500.0 5751500.0 3397.989990234375
 endloop
endfacet
facet normal 0.005609499756246805 -0.009909514337778091 -0.9999352097511292
 outer loop
  vertex 865500.0 5753500.0 3270.929931640625
  vertex 866500.0 5752500.0 3286.449951171875
  vertex 865500.0 5752500.0 3280.840087890625
 endloop
endfacet
facet normal -0.002719508484005928 -0.01823689043521881 -0.9998300075531006
 outer loop
  vertex 865500.0 5753500.0 3270.929931640625
  vertex 866500.0 5753500.0 3268.2099609375
  vertex 866500.0 5752500.0 3286.449951171875
 endloop
endfacet
facet normal -0.007568592671304941 -0.01823643408715725 -0.9998050332069397
 outer loop
  vertex 866500.0 5753500.0 3268.2099609375
  vertex 867500.0 5752500.0 3278.8798828125
  vertex 866500.0 5752500.0 3286.449951171875
 endloop
endfacet
facet normal 0.006309872958809137 -0.004359734710305929 -0.999970555305481
 outer loop
  vertex 866500.0 5753500.0 3268.2099609375
  vertex 867500.0 5753500.0 3274.52001953125
  vertex 867500.0 5752500.0 3278.8798828125
 endloop
endfacet
facet normal 0.013888665474951267 -0.004359401296824217 -0.9998940825462341
 outer loop
  vertex 867500.0 5753500.0 3274.52001953125
  vertex 868500.0 5752500.0 3292.77001953125
  vertex 867500.0 5752500.0 3278.8798828125
 endloop
endfacet
facet normal 0.014148367568850517 -0.004099652636796236 -0.9998915195465088
 outer loop
  vertex 867500.0 5753500.0 3274.52001953125
  vertex 868500.0 5753500.0 3288.669921875
  vertex 868500.0 5752500.0 3292.77001953125
 endloop
endfacet
facet normal 0.0015400241827592254 -0.004100058227777481 -0.9999904036521912
 outer loop
  vertex 868500.0 5753500.0 3288.669921875
  vertex 869500.0 5752500.0 3294.31005859375
  vertex 868500.0 5752500.0 3292.77001953125
 endloop
endfacet
facet normal -0.00421972805634141 -0.0098595404997468 -0.9999424815177917
 outer loop
  vertex 868500.0 5753500.0 3288.669921875
  vertex 869500.0 5753500.0 3284.449951171875
  vertex 869500.0 5752500.0 3294.31005859375
 endloop
endfacet
facet normal 0.007579247932881117 -0.00985934492200613 -0.9999226927757263
 outer loop
  vertex 869500.0 5753500.0 3284.449951171875
  vertex 870500.0 5752500.0 3301.889892578125
  vertex 869500.0 5752500.0 3294.31005859375
 endloop
endfacet
facet normal -0.007817335426807404 -0.025251183658838272 -0.9996505379676819
 outer loop
  vertex 869500.0 5753500.0 3284.449951171875
  vertex 870500.0 5753500.0 3276.6298828125
  vertex 870500.0 5752500.0 3301.889892578125
 endloop
endfacet
facet normal -0.05852072313427925 -0.025208676233887672 -0.9979678392410278
 outer loop
  vertex 870500.0 5753500.0 3276.6298828125
  vertex 871500.0 5752500.0 3243.25
  vertex 870500.0 5752500.0 3301.889892578125
 endloop
endfacet
facet normal 0.16921775043010712 0.03777912259101868 -0.9848543405532837
 outer loop
  vertex 874500.0 5753500.0 3352.25
  vertex 875500.0 5752500.0 3485.7099609375
  vertex 874500.0 5752500.0 3313.889892578125
 endloop
endfacet
facet normal -0.0027192016132175922 -0.02362320013344288 -0.9997171759605408
 outer loop
  vertex 865500.0 5754500.0 3247.300048828125
  vertex 866500.0 5753500.0 3268.2099609375
  vertex 865500.0 5753500.0 3270.929931640625
 endloop
endfacet
facet normal 0.004089231137186289 -0.016817549243569374 -0.9998502135276794
 outer loop
  vertex 865500.0 5754500.0 3247.300048828125
  vertex 866500.0 5754500.0 3251.389892578125
  vertex 866500.0 5753500.0 3268.2099609375
 endloop
endfacet
facet normal 0.006309040822088718 -0.016817355528473854 -0.9998387098312378
 outer loop
  vertex 866500.0 5754500.0 3251.389892578125
  vertex 867500.0 5753500.0 3274.52001953125
  vertex 866500.0 5753500.0 3268.2099609375
 endloop
endfacet
facet normal 0.012578383088111877 -0.010548627004027367 -0.9998652935028076
 outer loop
  vertex 866500.0 5754500.0 3251.389892578125
  vertex 867500.0 5754500.0 3263.969970703125
  vertex 867500.0 5753500.0 3274.52001953125
 endloop
endfacet
facet normal 0.014147698879241943 -0.010548406280577183 -0.9998442530632019
 outer loop
  vertex 867500.0 5754500.0 3263.969970703125
  vertex 868500.0 5753500.0 3288.669921875
  vertex 867500.0 5753500.0 3274.52001953125
 endloop
endfacet
facet normal 0.012688005343079567 -0.012008177116513252 -0.999847412109375
 outer loop
  vertex 867500.0 5754500.0 3263.969970703125
  vertex 868500.0 5754500.0 3276.659912109375
  vertex 868500.0 5753500.0 3288.669921875
 endloop
endfacet
facet normal -0.004219628870487213 -0.012009036727249622 -0.9999189972877502
 outer loop
  vertex 868500.0 5754500.0 3276.659912109375
  vertex 869500.0 5753500.0 3284.449951171875
  vertex 868500.0 5753500.0 3288.669921875
 endloop
endfacet
facet normal -0.005099363625049591 -0.012888654135167599 -0.9999039173126221
 outer loop
  vertex 868500.0 5754500.0 3276.659912109375
  vertex 869500.0 5754500.0 3271.56005859375
  vertex 869500.0 5753500.0 3284.449951171875
 endloop
endfacet
facet normal -0.007819179445505142 -0.012888427823781967 -0.9998863935470581
 outer loop
  vertex 869500.0 5754500.0 3271.56005859375
  vertex 870500.0 5753500.0 3276.6298828125
  vertex 869500.0 5753500.0 3284.449951171875
 endloop
endfacet
facet normal 0.00408941600471735 -0.013868667185306549 -0.999895453453064
 outer loop
  vertex 865500.0 5755500.0 3233.429931640625
  vertex 866500.0 5754500.0 3251.389892578125
  vertex 865500.0 5754500.0 3247.300048828125
 endloop
endfacet
facet normal 0.006329523399472237 -0.011628863401710987 -0.9999123811721802
 outer loop
  vertex 865500.0 5755500.0 3233.429931640625
  vertex 866500.0 5755500.0 3239.760009765625
  vertex 866500.0 5754500.0 3251.389892578125
 endloop
endfacet
facet normal 0.01257823221385479 -0.011628176085650921 -0.999853253364563
 outer loop
  vertex 866500.0 5755500.0 3239.760009765625
  vertex 867500.0 5754500.0 3263.969970703125
  vertex 866500.0 5754500.0 3251.389892578125
 endloop
endfacet
facet normal 0.01840648427605629 -0.005798968952149153 -0.9998137950897217
 outer loop
  vertex 866500.0 5755500.0 3239.760009765625
  vertex 867500.0 5755500.0 3258.169921875
  vertex 867500.0 5754500.0 3263.969970703125
 endloop
endfacet
facet normal 0.012688705697655678 -0.005799483973532915 -0.999902606010437
 outer loop
  vertex 867500.0 5755500.0 3258.169921875
  vertex 868500.0 5754500.0 3276.659912109375
  vertex 867500.0 5754500.0 3263.969970703125
 endloop
endfacet
facet normal 0.009309262968599796 -0.009179146960377693 -0.9999145865440369
 outer loop
  vertex 867500.0 5755500.0 3258.169921875
  vertex 868500.0 5755500.0 3267.47998046875
  vertex 868500.0 5754500.0 3276.659912109375
 endloop
endfacet
facet normal -0.005099572241306305 -0.009179425425827503 -0.9999448657035828
 outer loop
  vertex 868500.0 5755500.0 3267.47998046875
  vertex 869500.0 5754500.0 3271.56005859375
  vertex 868500.0 5754500.0 3276.659912109375
 endloop
endfacet
facet normal -0.007839290425181389 -0.011918953619897366 -0.9998982548713684
 outer loop
  vertex 868500.0 5755500.0 3267.47998046875
  vertex 869500.0 5755500.0 3259.639892578125
  vertex 869500.0 5754500.0 3271.56005859375
 endloop
endfacet
facet normal -0.0041701216250658035 0.0019999786745756865 -0.9999893307685852
 outer loop
  vertex 864500.0 5756500.0 3239.60009765625
  vertex 865500.0 5756500.0 3235.429931640625
  vertex 865500.0 5755500.0 3233.429931640625
 endloop
endfacet
facet normal 0.006329938769340515 0.001999956090003252 -0.9999780058860779
 outer loop
  vertex 865500.0 5756500.0 3235.429931640625
  vertex 866500.0 5755500.0 3239.760009765625
  vertex 865500.0 5755500.0 3233.429931640625
 endloop
endfacet
facet normal 0.005749899428337812 0.0014198970748111606 -0.999982476234436
 outer loop
  vertex 865500.0 5756500.0 3235.429931640625
  vertex 866500.0 5756500.0 3241.179931640625
  vertex 866500.0 5755500.0 3239.760009765625
 endloop
endfacet
facet normal 0.01840677484869957 0.0014196799602359533 -0.9998295903205872
 outer loop
  vertex 866500.0 5756500.0 3241.179931640625
  vertex 867500.0 5755500.0 3258.169921875
  vertex 866500.0 5755500.0 3239.760009765625
 endloop
endfacet
facet normal 0.009199283085763454 -0.00778947351500392 -0.9999274015426636
 outer loop
  vertex 866500.0 5756500.0 3241.179931640625
  vertex 867500.0 5756500.0 3250.3798828125
  vertex 867500.0 5755500.0 3258.169921875
 endloop
endfacet
facet normal 0.009309372864663601 -0.007789465133100748 -0.9999263286590576
 outer loop
  vertex 867500.0 5756500.0 3250.3798828125
  vertex 868500.0 5755500.0 3267.47998046875
  vertex 867500.0 5755500.0 3258.169921875
 endloop
endfacet
facet normal -0.004418855533003807 -0.021514827385544777 -0.9997587203979492
 outer loop
  vertex 867500.0 5756500.0 3250.3798828125
  vertex 868500.0 5756500.0 3245.9599609375
  vertex 868500.0 5755500.0 3267.47998046875
 endloop
endfacet
facet normal -0.007838032208383083 -0.021514376625418663 -0.9997377991676331
 outer loop
  vertex 868500.0 5756500.0 3245.9599609375
  vertex 869500.0 5755500.0 3259.639892578125
  vertex 868500.0 5755500.0 3267.47998046875
 endloop
endfacet
facet normal 0.006079790182411671 -0.0075994934886693954 -0.9999526143074036
 outer loop
  vertex 868500.0 5756500.0 3245.9599609375
  vertex 869500.0 5756500.0 3252.0400390625
  vertex 869500.0 5755500.0 3259.639892578125
 endloop
endfacet
facet normal -0.004170040600001812 -0.006549851503223181 -0.9999698996543884
 outer loop
  vertex 864500.0 5757500.0 3233.050048828125
  vertex 865500.0 5756500.0 3235.429931640625
  vertex 864500.0 5756500.0 3239.60009765625
 endloop
endfacet
facet normal 0.005669800098985434 0.003289968241006136 -0.9999784827232361
 outer loop
  vertex 864500.0 5757500.0 3233.050048828125
  vertex 865500.0 5757500.0 3238.719970703125
  vertex 865500.0 5756500.0 3235.429931640625
 endloop
endfacet
facet normal 0.0057498738169670105 0.003289966844022274 -0.9999780654907227
 outer loop
  vertex 865500.0 5757500.0 3238.719970703125
  vertex 866500.0 5756500.0 3241.179931640625
  vertex 865500.0 5756500.0 3235.429931640625
 endloop
endfacet
facet normal -0.002269988413900137 -0.004729915410280228 -0.9999862313270569
 outer loop
  vertex 865500.0 5757500.0 3238.719970703125
  vertex 866500.0 5757500.0 3236.449951171875
  vertex 866500.0 5756500.0 3241.179931640625
 endloop
endfacet
facet normal 0.009199459105730057 -0.004729727283120155 -0.9999464750289917
 outer loop
  vertex 866500.0 5757500.0 3236.449951171875
  vertex 867500.0 5756500.0 3250.3798828125
  vertex 866500.0 5756500.0 3241.179931640625
 endloop
endfacet
facet normal 0.00018992347759194672 -0.013738693669438362 -0.9999056458473206
 outer loop
  vertex 866500.0 5757500.0 3236.449951171875
  vertex 867500.0 5757500.0 3236.639892578125
  vertex 867500.0 5756500.0 3250.3798828125
 endloop
endfacet
facet normal -0.0044194613583385944 -0.013738558627665043 -0.9998958110809326
 outer loop
  vertex 867500.0 5757500.0 3236.639892578125
  vertex 868500.0 5756500.0 3245.9599609375
  vertex 867500.0 5756500.0 3250.3798828125
 endloop
endfacet
facet normal 0.0016200670506805182 -0.007699713110923767 -0.9999690651893616
 outer loop
  vertex 867500.0 5757500.0 3236.639892578125
  vertex 868500.0 5757500.0 3238.260009765625
  vertex 868500.0 5756500.0 3245.9599609375
 endloop
endfacet
facet normal 0.006079785525798798 -0.007699580397456884 -0.9999518990516663
 outer loop
  vertex 868500.0 5757500.0 3238.260009765625
  vertex 869500.0 5756500.0 3252.0400390625
  vertex 868500.0 5756500.0 3245.9599609375
 endloop
endfacet
facet normal 0.006759688723832369 -0.007019686046987772 -0.999952495098114
 outer loop
  vertex 868500.0 5757500.0 3238.260009765625
  vertex 869500.0 5757500.0 3245.02001953125
  vertex 869500.0 5756500.0 3252.0400390625
 endloop
endfacet
facet normal -0.0022699576802551746 -0.007019828073680401 -0.9999727606773376
 outer loop
  vertex 865500.0 5758500.0 3231.699951171875
  vertex 866500.0 5757500.0 3236.449951171875
  vertex 865500.0 5757500.0 3238.719970703125
 endloop
endfacet
endsolid
