solid
facet normal -0.5758644938468933 -0.591881275177002 -0.5639650225639343
 outer loop
  vertex 616500.0 5603500.0 8574.2998046875
  vertex 617500.0 5603500.0 7553.2001953125
  vertex 617500.0 5602500.0 8602.7001953125
 endloop
endfacet
facet normal -0.4138668179512024 -0.5679019093513489 -0.7114784717559814
 outer loop
  vertex 615500.0 5604500.0 8357.7998046875
  vertex 616500.0 5604500.0 7776.10009765625
  vertex 616500.0 5603500.0 8574.2998046875
 endloop
endfacet
facet normal -0.6237629652023315 -0.4875992238521576 -0.6108737587928772
 outer loop
  vertex 616500.0 5604500.0 7776.10009765625
  vertex 617500.0 5603500.0 7553.2001953125
  vertex 616500.0 5603500.0 8574.2998046875
 endloop
endfacet
facet normal -0.09114214777946472 0.12896089255809784 -0.9874523878097534
 outer loop
  vertex 616500.0 5604500.0 7776.10009765625
  vertex 617500.0 5604500.0 7683.7998046875
  vertex 617500.0 5603500.0 7553.2001953125
 endloop
endfacet
facet normal 0.8240603804588318 0.07336194068193436 -0.5617316961288452
 outer loop
  vertex 617500.0 5604500.0 7683.7998046875
  vertex 618500.0 5603500.0 9020.2001953125
  vertex 617500.0 5603500.0 7553.2001953125
 endloop
endfacet
facet normal 0.5277127623558044 -0.44181591272354126 -0.7254776954650879
 outer loop
  vertex 617500.0 5604500.0 7683.7998046875
  vertex 618500.0 5604500.0 8411.2001953125
  vertex 618500.0 5603500.0 9020.2001953125
 endloop
endfacet
facet normal 0.2143699824810028 -0.5523183941841125 -0.8055990934371948
 outer loop
  vertex 610500.0 5605500.0 6622.60009765625
  vertex 611500.0 5605500.0 6888.7001953125
  vertex 611500.0 5604500.0 7574.2998046875
 endloop
endfacet
facet normal 0.29684552550315857 -0.5399760603904724 -0.7875967621803284
 outer loop
  vertex 611500.0 5605500.0 6888.7001953125
  vertex 612500.0 5604500.0 7951.2001953125
  vertex 611500.0 5604500.0 7574.2998046875
 endloop
endfacet
facet normal 0.12859180569648743 -0.6588940024375916 -0.7411631345748901
 outer loop
  vertex 611500.0 5605500.0 6888.7001953125
  vertex 612500.0 5605500.0 7062.2001953125
  vertex 612500.0 5604500.0 7951.2001953125
 endloop
endfacet
facet normal 0.3989846408367157 -0.6092360019683838 -0.6853048205375671
 outer loop
  vertex 612500.0 5605500.0 7062.2001953125
  vertex 613500.0 5604500.0 8533.400390625
  vertex 612500.0 5604500.0 7951.2001953125
 endloop
endfacet
facet normal 0.07759839296340942 -0.7992298007011414 -0.5959951281547546
 outer loop
  vertex 612500.0 5605500.0 7062.2001953125
  vertex 613500.0 5605500.0 7192.39990234375
  vertex 613500.0 5604500.0 8533.400390625
 endloop
endfacet
facet normal -0.042226746678352356 -0.800931990146637 -0.5972644686698914
 outer loop
  vertex 613500.0 5605500.0 7192.39990234375
  vertex 614500.0 5604500.0 8462.7001953125
  vertex 613500.0 5604500.0 8533.400390625
 endloop
endfacet
facet normal 0.009910814464092255 -0.7818997502326965 -0.6233254671096802
 outer loop
  vertex 613500.0 5605500.0 7192.39990234375
  vertex 614500.0 5605500.0 7208.2998046875
  vertex 614500.0 5604500.0 8462.7001953125
 endloop
endfacet
facet normal -0.0652509331703186 -0.7802717089653015 -0.6220276355743408
 outer loop
  vertex 614500.0 5605500.0 7208.2998046875
  vertex 615500.0 5604500.0 8357.7998046875
  vertex 614500.0 5604500.0 8462.7001953125
 endloop
endfacet
facet normal -0.06888178735971451 -0.7815721035003662 -0.6200003027915955
 outer loop
  vertex 614500.0 5605500.0 7208.2998046875
  vertex 615500.0 5605500.0 7097.2001953125
  vertex 615500.0 5604500.0 8357.7998046875
 endloop
endfacet
facet normal -0.33997851610183716 -0.7367663383483887 -0.5844570398330688
 outer loop
  vertex 615500.0 5605500.0 7097.2001953125
  vertex 616500.0 5604500.0 7776.10009765625
  vertex 615500.0 5604500.0 8357.7998046875
 endloop
endfacet
facet normal 0.5224428772926331 -0.0552222765982151 -0.8508841395378113
 outer loop
  vertex 615500.0 5605500.0 7097.2001953125
  vertex 616500.0 5605500.0 7711.2001953125
  vertex 616500.0 5604500.0 7776.10009765625
 endloop
endfacet
facet normal -0.09171829372644424 -0.0644906759262085 -0.9936944246292114
 outer loop
  vertex 616500.0 5605500.0 7711.2001953125
  vertex 617500.0 5604500.0 7683.7998046875
  vertex 616500.0 5604500.0 7776.10009765625
 endloop
endfacet
facet normal -0.07618588209152222 -0.04889800399541855 -0.9958939552307129
 outer loop
  vertex 616500.0 5605500.0 7711.2001953125
  vertex 617500.0 5605500.0 7634.7001953125
  vertex 617500.0 5604500.0 7683.7998046875
 endloop
endfacet
facet normal 0.5877760648727417 -0.03967495262622833 -0.808050274848938
 outer loop
  vertex 617500.0 5605500.0 7634.7001953125
  vertex 618500.0 5604500.0 8411.2001953125
  vertex 617500.0 5604500.0 7683.7998046875
 endloop
endfacet
facet normal 0.02224821411073208 -0.599185585975647 -0.8003010749816895
 outer loop
  vertex 617500.0 5605500.0 7634.7001953125
  vertex 618500.0 5605500.0 7662.5
  vertex 618500.0 5604500.0 8411.2001953125
 endloop
endfacet
facet normal -0.5087417960166931 -0.5159780383110046 -0.6891651153564453
 outer loop
  vertex 618500.0 5605500.0 7662.5
  vertex 619500.0 5604500.0 7673.0
  vertex 618500.0 5604500.0 8411.2001953125
 endloop
endfacet
facet normal -0.22758817672729492 -0.23750384151935577 -0.9443492889404297
 outer loop
  vertex 618500.0 5605500.0 7662.5
  vertex 619500.0 5605500.0 7421.5
  vertex 619500.0 5604500.0 7673.0
 endloop
endfacet
facet normal 0.28329887986183167 -0.2339121401309967 -0.9300681948661804
 outer loop
  vertex 619500.0 5605500.0 7421.5
  vertex 620500.0 5604500.0 7977.60009765625
  vertex 619500.0 5604500.0 7673.0
 endloop
endfacet
facet normal 0.4660659432411194 -0.025735441595315933 -0.8843756318092346
 outer loop
  vertex 619500.0 5605500.0 7421.5
  vertex 620500.0 5605500.0 7948.5
  vertex 620500.0 5604500.0 7977.60009765625
 endloop
endfacet
facet normal -0.759728729724884 -0.13771088421344757 -0.635490357875824
 outer loop
  vertex 625500.0 5605500.0 10201.2001953125
  vertex 626500.0 5605500.0 9005.7001953125
  vertex 626500.0 5604500.0 9222.400390625
 endloop
endfacet
facet normal -0.26016750931739807 -0.2044915109872818 -0.9436609745025635
 outer loop
  vertex 626500.0 5605500.0 9005.7001953125
  vertex 627500.0 5604500.0 8946.7001953125
  vertex 626500.0 5604500.0 9222.400390625
 endloop
endfacet
facet normal 0.34535062313079834 0.3955618143081665 -0.8510369658470154
 outer loop
  vertex 626500.0 5605500.0 9005.7001953125
  vertex 627500.0 5605500.0 9411.5
  vertex 627500.0 5604500.0 8946.7001953125
 endloop
endfacet
facet normal 0.419901043176651 0.3825359642505646 -0.8230123519897461
 outer loop
  vertex 627500.0 5605500.0 9411.5
  vertex 628500.0 5604500.0 9456.900390625
  vertex 627500.0 5604500.0 8946.7001953125
 endloop
endfacet
facet normal 0.12855969369411469 0.08369668573141098 -0.9881635904312134
 outer loop
  vertex 627500.0 5605500.0 9411.5
  vertex 628500.0 5605500.0 9541.599609375
  vertex 628500.0 5604500.0 9456.900390625
 endloop
endfacet
facet normal -0.18192589282989502 0.27326634526252747 -0.9445784091949463
 outer loop
  vertex 609500.0 5606500.0 7104.5
  vertex 610500.0 5606500.0 6911.89990234375
  vertex 610500.0 5605500.0 6622.60009765625
 endloop
endfacet
facet normal 0.24765513837337494 0.26924675703048706 -0.9306841492652893
 outer loop
  vertex 610500.0 5606500.0 6911.89990234375
  vertex 611500.0 5605500.0 6888.7001953125
  vertex 610500.0 5605500.0 6622.60009765625
 endloop
endfacet
facet normal -0.3241812586784363 -0.30339375138282776 -0.8960238099098206
 outer loop
  vertex 610500.0 5606500.0 6911.89990234375
  vertex 611500.0 5606500.0 6550.10009765625
  vertex 611500.0 5605500.0 6888.7001953125
 endloop
endfacet
facet normal 0.1621599942445755 -0.31646910309791565 -0.9346396923065186
 outer loop
  vertex 611500.0 5606500.0 6550.10009765625
  vertex 612500.0 5605500.0 7062.2001953125
  vertex 611500.0 5605500.0 6888.7001953125
 endloop
endfacet
facet normal 0.18073874711990356 -0.29907655715942383 -0.9369561076164246
 outer loop
  vertex 611500.0 5606500.0 6550.10009765625
  vertex 612500.0 5606500.0 6743.0
  vertex 612500.0 5605500.0 7062.2001953125
 endloop
endfacet
facet normal 0.12309089303016663 -0.3017720580101013 -0.9454006552696228
 outer loop
  vertex 612500.0 5606500.0 6743.0
  vertex 613500.0 5605500.0 7192.39990234375
  vertex 612500.0 5605500.0 7062.2001953125
 endloop
endfacet
facet normal 0.08640584349632263 -0.33520910143852234 -0.938173234462738
 outer loop
  vertex 612500.0 5606500.0 6743.0
  vertex 613500.0 5606500.0 6835.10009765625
  vertex 613500.0 5605500.0 7192.39990234375
 endloop
endfacet
facet normal 0.014971185475587845 -0.33642977476119995 -0.9415895342826843
 outer loop
  vertex 613500.0 5606500.0 6835.10009765625
  vertex 614500.0 5605500.0 7208.2998046875
  vertex 613500.0 5605500.0 7192.39990234375
 endloop
endfacet
facet normal -0.22342447936534882 -0.5289649367332458 -0.8187048435211182
 outer loop
  vertex 613500.0 5606500.0 6835.10009765625
  vertex 614500.0 5606500.0 6562.2001953125
  vertex 614500.0 5605500.0 7208.2998046875
 endloop
endfacet
facet normal -0.09291306883096695 -0.5403357148170471 -0.8363040685653687
 outer loop
  vertex 614500.0 5606500.0 6562.2001953125
  vertex 615500.0 5605500.0 7097.2001953125
  vertex 614500.0 5605500.0 7208.2998046875
 endloop
endfacet
facet normal -0.03286811709403992 -0.49683278799057007 -0.8672237396240234
 outer loop
  vertex 614500.0 5606500.0 6562.2001953125
  vertex 615500.0 5606500.0 6524.2998046875
  vertex 615500.0 5605500.0 7097.2001953125
 endloop
endfacet
facet normal 0.4701964259147644 -0.4387226402759552 -0.765792191028595
 outer loop
  vertex 615500.0 5606500.0 6524.2998046875
  vertex 616500.0 5605500.0 7711.2001953125
  vertex 615500.0 5605500.0 7097.2001953125
 endloop
endfacet
facet normal 0.5579577684402466 -0.3403603732585907 -0.756860613822937
 outer loop
  vertex 615500.0 5606500.0 6524.2998046875
  vertex 616500.0 5606500.0 7261.5
  vertex 616500.0 5605500.0 7711.2001953125
 endloop
endfacet
facet normal -0.06960062682628632 -0.40914270281791687 -0.9098121523857117
 outer loop
  vertex 616500.0 5606500.0 7261.5
  vertex 617500.0 5605500.0 7634.7001953125
  vertex 616500.0 5605500.0 7711.2001953125
 endloop
endfacet
facet normal -0.027079284191131592 -0.3731726408004761 -0.9273665547370911
 outer loop
  vertex 616500.0 5606500.0 7261.5
  vertex 617500.0 5606500.0 7232.2998046875
  vertex 617500.0 5605500.0 7634.7001953125
 endloop
endfacet
facet normal 0.025781504809856415 -0.37318551540374756 -0.9273985028266907
 outer loop
  vertex 617500.0 5606500.0 7232.2998046875
  vertex 618500.0 5605500.0 7662.5
  vertex 617500.0 5605500.0 7634.7001953125
 endloop
endfacet
facet normal -0.2943626344203949 -0.6106336116790771 -0.7351716160774231
 outer loop
  vertex 617500.0 5606500.0 7232.2998046875
  vertex 618500.0 5606500.0 6831.89990234375
  vertex 618500.0 5605500.0 7662.5
 endloop
endfacet
facet normal -0.18228423595428467 -0.6282378435134888 -0.7563661336898804
 outer loop
  vertex 618500.0 5606500.0 6831.89990234375
  vertex 619500.0 5605500.0 7421.5
  vertex 618500.0 5605500.0 7662.5
 endloop
endfacet
facet normal 0.657799482345581 0.2360982894897461 -0.7152324914932251
 outer loop
  vertex 618500.0 5606500.0 6831.89990234375
  vertex 619500.0 5606500.0 7751.60009765625
  vertex 619500.0 5605500.0 7421.5
 endloop
endfacet
facet normal 0.4475278854370117 0.2803206741809845 -0.8491989970207214
 outer loop
  vertex 619500.0 5606500.0 7751.60009765625
  vertex 620500.0 5605500.0 7948.5
  vertex 619500.0 5605500.0 7421.5
 endloop
endfacet
facet normal 0.18209101259708405 -0.011503808200359344 -0.9832143783569336
 outer loop
  vertex 619500.0 5606500.0 7751.60009765625
  vertex 620500.0 5606500.0 7936.7998046875
  vertex 620500.0 5605500.0 7948.5
 endloop
endfacet
facet normal 0.7198750972747803 -0.008120591752231121 -0.6940560936927795
 outer loop
  vertex 620500.0 5606500.0 7936.7998046875
  vertex 621500.0 5605500.0 8985.7001953125
  vertex 620500.0 5605500.0 7948.5
 endloop
endfacet
facet normal 0.7734882831573486 0.12088855355978012 -0.6221751570701599
 outer loop
  vertex 620500.0 5606500.0 7936.7998046875
  vertex 621500.0 5606500.0 9180.0
  vertex 621500.0 5605500.0 8985.7001953125
 endloop
endfacet
facet normal -0.7090656161308289 -0.3813711404800415 -0.5931122303009033
 outer loop
  vertex 625500.0 5606500.0 9558.2001953125
  vertex 626500.0 5605500.0 9005.7001953125
  vertex 625500.0 5605500.0 10201.2001953125
 endloop
endfacet
facet normal 0.10193787515163422 0.5572376847267151 -0.8240720629692078
 outer loop
  vertex 625500.0 5606500.0 9558.2001953125
  vertex 626500.0 5606500.0 9681.900390625
  vertex 626500.0 5605500.0 9005.7001953125
 endloop
endfacet
facet normal 0.3186376690864563 0.5309584736824036 -0.7852090001106262
 outer loop
  vertex 626500.0 5606500.0 9681.900390625
  vertex 627500.0 5605500.0 9411.5
  vertex 626500.0 5605500.0 9005.7001953125
 endloop
endfacet
facet normal -0.22163799405097961 0.04179495945572853 -0.9742329120635986
 outer loop
  vertex 626500.0 5606500.0 9681.900390625
  vertex 627500.0 5606500.0 9454.400390625
  vertex 627500.0 5605500.0 9411.5
 endloop
endfacet
facet normal 0.12889577448368073 0.04250342771410942 -0.9907468557357788
 outer loop
  vertex 627500.0 5606500.0 9454.400390625
  vertex 628500.0 5605500.0 9541.599609375
  vertex 627500.0 5605500.0 9411.5
 endloop
endfacet
facet normal -0.08645244687795639 -0.17202039062976837 -0.9812925457954407
 outer loop
  vertex 627500.0 5606500.0 9454.400390625
  vertex 628500.0 5606500.0 9366.2998046875
  vertex 628500.0 5605500.0 9541.599609375
 endloop
endfacet
facet normal -0.263166218996048 0.6337670683860779 -0.7273807525634766
 outer loop
  vertex 610500.0 5607500.0 7783.2001953125
  vertex 611500.0 5606500.0 6550.10009765625
  vertex 610500.0 5606500.0 6911.89990234375
 endloop
endfacet
facet normal -0.365449458360672 0.5555305480957031 -0.7468817830085754
 outer loop
  vertex 610500.0 5607500.0 7783.2001953125
  vertex 611500.0 5607500.0 7293.89990234375
  vertex 611500.0 5606500.0 6550.10009765625
 endloop
endfacet
facet normal 0.15295802056789398 0.5897884368896484 -0.7929397225379944
 outer loop
  vertex 611500.0 5607500.0 7293.89990234375
  vertex 612500.0 5606500.0 6743.0
  vertex 611500.0 5606500.0 6550.10009765625
 endloop
endfacet
facet normal 0.2706083059310913 0.6578241586685181 -0.7028787732124329
 outer loop
  vertex 611500.0 5607500.0 7293.89990234375
  vertex 612500.0 5607500.0 7678.89990234375
  vertex 612500.0 5606500.0 6743.0
 endloop
endfacet
facet normal 0.06709256768226624 0.6817793846130371 -0.7284747362136841
 outer loop
  vertex 612500.0 5607500.0 7678.89990234375
  vertex 613500.0 5606500.0 6835.10009765625
  vertex 612500.0 5606500.0 6743.0
 endloop
endfacet
facet normal -0.5114583373069763 0.19475726783275604 -0.8369468450546265
 outer loop
  vertex 612500.0 5607500.0 7678.89990234375
  vertex 613500.0 5607500.0 7067.7998046875
  vertex 613500.0 5606500.0 6835.10009765625
 endloop
endfacet
facet normal -0.25687918066978455 0.2190389335155487 -0.9412944316864014
 outer loop
  vertex 613500.0 5607500.0 7067.7998046875
  vertex 614500.0 5606500.0 6562.2001953125
  vertex 613500.0 5606500.0 6835.10009765625
 endloop
endfacet
facet normal 0.2692163586616516 0.6352167725563049 -0.7238937616348267
 outer loop
  vertex 613500.0 5607500.0 7067.7998046875
  vertex 614500.0 5607500.0 7439.7001953125
  vertex 614500.0 5606500.0 6562.2001953125
 endloop
endfacet
facet normal -0.028476065024733543 0.6593008041381836 -0.7513399124145508
 outer loop
  vertex 614500.0 5607500.0 7439.7001953125
  vertex 615500.0 5606500.0 6524.2998046875
  vertex 614500.0 5606500.0 6562.2001953125
 endloop
endfacet
facet normal -0.3838958740234375 0.3845673203468323 -0.8394831418991089
 outer loop
  vertex 614500.0 5607500.0 7439.7001953125
  vertex 615500.0 5607500.0 6982.39990234375
  vertex 615500.0 5606500.0 6524.2998046875
 endloop
endfacet
facet normal 0.5567431449890137 0.34596315026283264 -0.7552130222320557
 outer loop
  vertex 615500.0 5607500.0 6982.39990234375
  vertex 616500.0 5606500.0 7261.5
  vertex 615500.0 5606500.0 6524.2998046875
 endloop
endfacet
facet normal 0.5616979598999023 0.3528384566307068 -0.7483317852020264
 outer loop
  vertex 615500.0 5607500.0 6982.39990234375
  vertex 616500.0 5607500.0 7733.0
  vertex 616500.0 5606500.0 7261.5
 endloop
endfacet
facet normal -0.02640238218009472 0.42632341384887695 -0.90418541431427
 outer loop
  vertex 616500.0 5607500.0 7733.0
  vertex 617500.0 5606500.0 7232.2998046875
  vertex 616500.0 5606500.0 7261.5
 endloop
endfacet
facet normal -0.31806302070617676 0.15060767531394958 -0.9360306262969971
 outer loop
  vertex 616500.0 5607500.0 7733.0
  vertex 617500.0 5607500.0 7393.2001953125
  vertex 617500.0 5606500.0 7232.2998046875
 endloop
endfacet
facet normal -0.36763206124305725 0.14773264527320862 -0.9181621670722961
 outer loop
  vertex 617500.0 5607500.0 7393.2001953125
  vertex 618500.0 5606500.0 6831.89990234375
  vertex 617500.0 5606500.0 7232.2998046875
 endloop
endfacet
facet normal -0.24391572177410126 0.2776460647583008 -0.9292027354240417
 outer loop
  vertex 617500.0 5607500.0 7393.2001953125
  vertex 618500.0 5607500.0 7130.7001953125
  vertex 618500.0 5606500.0 6831.89990234375
 endloop
endfacet
facet normal 0.6611365675926208 0.21479587256908417 -0.7188609838485718
 outer loop
  vertex 618500.0 5607500.0 7130.7001953125
  vertex 619500.0 5606500.0 7751.60009765625
  vertex 618500.0 5606500.0 6831.89990234375
 endloop
endfacet
facet normal -0.022405525669455528 -0.5434349775314331 -0.8391521573066711
 outer loop
  vertex 618500.0 5607500.0 7130.7001953125
  vertex 619500.0 5607500.0 7104.0
  vertex 619500.0 5606500.0 7751.60009765625
 endloop
endfacet
facet normal 0.1536049246788025 -0.5371205806732178 -0.8294016122817993
 outer loop
  vertex 619500.0 5607500.0 7104.0
  vertex 620500.0 5606500.0 7936.7998046875
  vertex 619500.0 5606500.0 7751.60009765625
 endloop
endfacet
facet normal 0.6692861318588257 0.0520310215651989 -0.7411806583404541
 outer loop
  vertex 619500.0 5607500.0 7104.0
  vertex 620500.0 5607500.0 8007.0
  vertex 620500.0 5606500.0 7936.7998046875
 endloop
endfacet
facet normal 0.7784497141838074 0.043956976383924484 -0.6261659860610962
 outer loop
  vertex 620500.0 5607500.0 8007.0
  vertex 621500.0 5606500.0 9180.0
  vertex 620500.0 5606500.0 7936.7998046875
 endloop
endfacet
facet normal 0.2994321286678314 -0.5848420858383179 -0.7538569569587708
 outer loop
  vertex 620500.0 5607500.0 8007.0
  vertex 621500.0 5607500.0 8404.2001953125
  vertex 621500.0 5606500.0 9180.0
 endloop
endfacet
facet normal -0.8416149020195007 0.05342017486691475 -0.537429690361023
 outer loop
  vertex 624500.0 5607500.0 11223.599609375
  vertex 625500.0 5607500.0 9657.599609375
  vertex 625500.0 5606500.0 9558.2001953125
 endloop
endfacet
facet normal 0.12217149138450623 0.09817102551460266 -0.9876418709754944
 outer loop
  vertex 625500.0 5607500.0 9657.599609375
  vertex 626500.0 5606500.0 9681.900390625
  vertex 625500.0 5606500.0 9558.2001953125
 endloop
endfacet
facet normal 0.546357274055481 0.5306095480918884 -0.6480333209037781
 outer loop
  vertex 625500.0 5607500.0 9657.599609375
  vertex 626500.0 5607500.0 10500.7001953125
  vertex 626500.0 5606500.0 9681.900390625
 endloop
endfacet
facet normal -0.173356831073761 0.6239320635795593 -0.762008011341095
 outer loop
  vertex 626500.0 5607500.0 10500.7001953125
  vertex 627500.0 5606500.0 9454.400390625
  vertex 626500.0 5606500.0 9681.900390625
 endloop
endfacet
facet normal -0.5323020219802856 0.2971060276031494 -0.7927058935165405
 outer loop
  vertex 626500.0 5607500.0 10500.7001953125
  vertex 627500.0 5607500.0 9829.2001953125
  vertex 627500.0 5606500.0 9454.400390625
 endloop
endfacet
facet normal -0.0822172611951828 0.3497709035873413 -0.933220624923706
 outer loop
  vertex 627500.0 5607500.0 9829.2001953125
  vertex 628500.0 5606500.0 9366.2998046875
  vertex 627500.0 5606500.0 9454.400390625
 endloop
endfacet
facet normal -0.06056801974773407 0.3687894344329834 -0.9275375008583069
 outer loop
  vertex 627500.0 5607500.0 9829.2001953125
  vertex 628500.0 5607500.0 9763.900390625
  vertex 628500.0 5606500.0 9366.2998046875
 endloop
endfacet
facet normal 0.4020949602127075 0.3382839560508728 -0.8508134484291077
 outer loop
  vertex 628500.0 5607500.0 9763.900390625
  vertex 629500.0 5606500.0 9838.900390625
  vertex 628500.0 5606500.0 9366.2998046875
 endloop
endfacet
facet normal 0.19630171358585358 0.12334510684013367 -0.9727546572685242
 outer loop
  vertex 628500.0 5607500.0 9763.900390625
  vertex 629500.0 5607500.0 9965.7001953125
  vertex 629500.0 5606500.0 9838.900390625
 endloop
endfacet
facet normal 0.32065701484680176 0.39213433861732483 -0.8622121214866638
 outer loop
  vertex 613500.0 5608500.0 7522.60009765625
  vertex 614500.0 5607500.0 7439.7001953125
  vertex 613500.0 5607500.0 7067.7998046875
 endloop
endfacet
facet normal -0.24139955639839172 -0.16208137571811676 -0.9567945599555969
 outer loop
  vertex 613500.0 5608500.0 7522.60009765625
  vertex 614500.0 5608500.0 7270.2998046875
  vertex 614500.0 5607500.0 7439.7001953125
 endloop
endfacet
facet normal -0.41102924942970276 -0.1522599309682846 -0.8988169431686401
 outer loop
  vertex 614500.0 5608500.0 7270.2998046875
  vertex 615500.0 5607500.0 6982.39990234375
  vertex 614500.0 5607500.0 7439.7001953125
 endloop
endfacet
facet normal -0.0005762966466136277 0.2761301100254059 -0.9611201286315918
 outer loop
  vertex 614500.0 5608500.0 7270.2998046875
  vertex 615500.0 5608500.0 7269.7001953125
  vertex 615500.0 5607500.0 6982.39990234375
 endloop
endfacet
facet normal 0.585061252117157 0.22393850982189178 -0.7794579863548279
 outer loop
  vertex 615500.0 5608500.0 7269.7001953125
  vertex 616500.0 5607500.0 7733.0
  vertex 615500.0 5607500.0 6982.39990234375
 endloop
endfacet
facet normal 0.41715216636657715 -0.003907791338860989 -0.9088282585144043
 outer loop
  vertex 615500.0 5608500.0 7269.7001953125
  vertex 616500.0 5608500.0 7728.7001953125
  vertex 616500.0 5607500.0 7733.0
 endloop
endfacet
facet normal -0.3217301666736603 -0.004071152303367853 -0.9468226432800293
 outer loop
  vertex 616500.0 5608500.0 7728.7001953125
  vertex 617500.0 5607500.0 7393.2001953125
  vertex 616500.0 5607500.0 7733.0
 endloop
endfacet
facet normal 0.07225077599287033 0.3814365565776825 -0.9215671420097351
 outer loop
  vertex 616500.0 5608500.0 7728.7001953125
  vertex 617500.0 5608500.0 7807.10009765625
  vertex 617500.0 5607500.0 7393.2001953125
 endloop
endfacet
facet normal -0.23571108281612396 0.3716602027416229 -0.8979470729827881
 outer loop
  vertex 617500.0 5608500.0 7807.10009765625
  vertex 618500.0 5607500.0 7130.7001953125
  vertex 617500.0 5607500.0 7393.2001953125
 endloop
endfacet
facet normal 0.46492999792099 0.7656362056732178 -0.4445686340332031
 outer loop
  vertex 617500.0 5608500.0 7807.10009765625
  vertex 618500.0 5608500.0 8852.900390625
  vertex 618500.0 5607500.0 7130.7001953125
 endloop
endfacet
facet normal -0.013406003825366497 0.864708423614502 -0.5020951628684998
 outer loop
  vertex 618500.0 5608500.0 8852.900390625
  vertex 619500.0 5607500.0 7104.0
  vertex 618500.0 5607500.0 7130.7001953125
 endloop
endfacet
facet normal -0.7712474465370178 0.2514491677284241 -0.5847654938697815
 outer loop
  vertex 618500.0 5608500.0 8852.900390625
  vertex 619500.0 5608500.0 7534.0
  vertex 619500.0 5607500.0 7104.0
 endloop
endfacet
facet normal 0.6384681463241577 0.30403244495391846 -0.7070521712303162
 outer loop
  vertex 619500.0 5608500.0 7534.0
  vertex 620500.0 5607500.0 8007.0
  vertex 619500.0 5607500.0 7104.0
 endloop
endfacet
facet normal 0.190021350979805 -0.25803476572036743 -0.9472644925117493
 outer loop
  vertex 619500.0 5608500.0 7534.0
  vertex 620500.0 5608500.0 7734.60009765625
  vertex 620500.0 5607500.0 8007.0
 endloop
endfacet
facet normal 0.35785698890686035 -0.24541831016540527 -0.9009485840797424
 outer loop
  vertex 620500.0 5608500.0 7734.60009765625
  vertex 621500.0 5607500.0 8404.2001953125
  vertex 620500.0 5607500.0 8007.0
 endloop
endfacet
facet normal 0.6917868256568909 0.23446565866470337 -0.682976484298706
 outer loop
  vertex 620500.0 5608500.0 7734.60009765625
  vertex 621500.0 5608500.0 8747.5
  vertex 621500.0 5607500.0 8404.2001953125
 endloop
endfacet
facet normal 0.8821642398834229 0.15291433036327362 -0.44542503356933594
 outer loop
  vertex 621500.0 5608500.0 8747.5
  vertex 622500.0 5607500.0 10384.7001953125
  vertex 621500.0 5607500.0 8404.2001953125
 endloop
endfacet
facet normal 0.09524793177843094 -0.8225836157798767 -0.5606104135513306
 outer loop
  vertex 621500.0 5608500.0 8747.5
  vertex 622500.0 5608500.0 8917.400390625
  vertex 622500.0 5607500.0 10384.7001953125
 endloop
endfacet
facet normal 0.8363007307052612 -0.0078939413651824 -0.5482141971588135
 outer loop
  vertex 623500.0 5608500.0 9683.7001953125
  vertex 624500.0 5608500.0 11209.2001953125
  vertex 624500.0 5607500.0 11223.599609375
 endloop
endfacet
facet normal -0.8427929878234863 -0.007749505341053009 -0.5381820201873779
 outer loop
  vertex 624500.0 5608500.0 11209.2001953125
  vertex 625500.0 5607500.0 9657.599609375
  vertex 624500.0 5607500.0 11223.599609375
 endloop
endfacet
facet normal 0.025643203407526016 0.8477194309234619 -0.5298246741294861
 outer loop
  vertex 624500.0 5608500.0 11209.2001953125
  vertex 625500.0 5608500.0 11257.599609375
  vertex 625500.0 5607500.0 9657.599609375
 endloop
endfacet
facet normal 0.40796586871147156 0.7742200493812561 -0.48388755321502686
 outer loop
  vertex 625500.0 5608500.0 11257.599609375
  vertex 626500.0 5607500.0 10500.7001953125
  vertex 625500.0 5607500.0 9657.599609375
 endloop
endfacet
facet normal -0.2993319630622864 0.36723050475120544 -0.880648672580719
 outer loop
  vertex 625500.0 5608500.0 11257.599609375
  vertex 626500.0 5608500.0 10917.7001953125
  vertex 626500.0 5607500.0 10500.7001953125
 endloop
endfacet
facet normal -0.5268001556396484 0.32714173197746277 -0.7845125198364258
 outer loop
  vertex 626500.0 5608500.0 10917.7001953125
  vertex 627500.0 5607500.0 9829.2001953125
  vertex 626500.0 5607500.0 10500.7001953125
 endloop
endfacet
facet normal -0.720600962638855 0.03324252367019653 -0.6925526261329651
 outer loop
  vertex 626500.0 5608500.0 10917.7001953125
  vertex 627500.0 5608500.0 9877.2001953125
  vertex 627500.0 5607500.0 9829.2001953125
 endloop
endfacet
facet normal -0.06508640944957733 0.04784313589334488 -0.9967320561408997
 outer loop
  vertex 627500.0 5608500.0 9877.2001953125
  vertex 628500.0 5607500.0 9763.900390625
  vertex 627500.0 5607500.0 9829.2001953125
 endloop
endfacet
facet normal 0.1394823044538498 0.24809616804122925 -0.9586412310600281
 outer loop
  vertex 627500.0 5608500.0 9877.2001953125
  vertex 628500.0 5608500.0 10022.7001953125
  vertex 628500.0 5607500.0 9763.900390625
 endloop
endfacet
facet normal 0.19173862040042877 0.24589675664901733 -0.9501426815986633
 outer loop
  vertex 628500.0 5608500.0 10022.7001953125
  vertex 629500.0 5607500.0 9965.7001953125
  vertex 628500.0 5607500.0 9763.900390625
 endloop
endfacet
facet normal 0.3773300349712372 0.4264073669910431 -0.8220697641372681
 outer loop
  vertex 615500.0 5609500.0 7788.39990234375
  vertex 616500.0 5608500.0 7728.7001953125
  vertex 615500.0 5608500.0 7269.7001953125
 endloop
endfacet
facet normal 0.4676414430141449 0.5107116103172302 -0.7214465737342834
 outer loop
  vertex 615500.0 5609500.0 7788.39990234375
  vertex 616500.0 5609500.0 8436.599609375
  vertex 616500.0 5608500.0 7728.7001953125
 endloop
endfacet
facet normal 0.0638587549328804 0.5766022205352783 -0.8145256042480469
 outer loop
  vertex 616500.0 5609500.0 8436.599609375
  vertex 617500.0 5608500.0 7807.10009765625
  vertex 616500.0 5608500.0 7728.7001953125
 endloop
endfacet
facet normal 0.37938934564590454 0.7339928150177002 -0.5633100867271423
 outer loop
  vertex 616500.0 5609500.0 8436.599609375
  vertex 617500.0 5609500.0 9110.099609375
  vertex 617500.0 5608500.0 7807.10009765625
 endloop
endfacet
facet normal 0.5370848178863525 0.6691729426383972 -0.5135634541511536
 outer loop
  vertex 617500.0 5609500.0 9110.099609375
  vertex 618500.0 5608500.0 8852.900390625
  vertex 617500.0 5608500.0 7807.10009765625
 endloop
endfacet
facet normal 0.19643256068229675 -0.050332050770521164 -0.9792246222496033
 outer loop
  vertex 619500.0 5609500.0 7482.60009765625
  vertex 620500.0 5608500.0 7734.60009765625
  vertex 619500.0 5608500.0 7534.0
 endloop
endfacet
facet normal 0.43314969539642334 0.21241416037082672 -0.8759347200393677
 outer loop
  vertex 619500.0 5609500.0 7482.60009765625
  vertex 620500.0 5609500.0 7977.10009765625
  vertex 620500.0 5608500.0 7734.60009765625
 endloop
endfacet
facet normal 0.7015153765678406 0.16795092821121216 -0.6925811767578125
 outer loop
  vertex 620500.0 5609500.0 7977.10009765625
  vertex 621500.0 5608500.0 8747.5
  vertex 620500.0 5608500.0 7734.60009765625
 endloop
endfacet
facet normal 0.4825517535209656 -0.17811648547649384 -0.8575653433799744
 outer loop
  vertex 620500.0 5609500.0 7977.10009765625
  vertex 621500.0 5609500.0 8539.7998046875
  vertex 621500.0 5608500.0 8747.5
 endloop
endfacet
facet normal 0.1640952080488205 -0.2006034404039383 -0.9658317565917969
 outer loop
  vertex 621500.0 5609500.0 8539.7998046875
  vertex 622500.0 5608500.0 8917.400390625
  vertex 621500.0 5608500.0 8747.5
 endloop
endfacet
facet normal -0.26270627975463867 -0.5595284700393677 -0.7860746383666992
 outer loop
  vertex 621500.0 5609500.0 8539.7998046875
  vertex 622500.0 5609500.0 8205.599609375
  vertex 622500.0 5608500.0 8917.400390625
 endloop
endfacet
facet normal 0.5295699238777161 -0.491907000541687 -0.691074013710022
 outer loop
  vertex 622500.0 5609500.0 8205.599609375
  vertex 623500.0 5608500.0 9683.7001953125
  vertex 622500.0 5608500.0 8917.400390625
 endloop
endfacet
facet normal 0.8034682869911194 -0.07034999877214432 -0.591176450252533
 outer loop
  vertex 622500.0 5609500.0 8205.599609375
  vertex 623500.0 5609500.0 9564.7001953125
  vertex 623500.0 5608500.0 9683.7001953125
 endloop
endfacet
facet normal 0.8345526456832886 -0.06510112434625626 -0.5470682978630066
 outer loop
  vertex 623500.0 5609500.0 9564.7001953125
  vertex 624500.0 5608500.0 11209.2001953125
  vertex 623500.0 5608500.0 9683.7001953125
 endloop
endfacet
facet normal -0.13361768424510956 -0.8807575106620789 -0.45432645082473755
 outer loop
  vertex 623500.0 5609500.0 9564.7001953125
  vertex 624500.0 5609500.0 9270.599609375
  vertex 624500.0 5608500.0 11209.2001953125
 endloop
endfacet
facet normal 0.022182617336511612 -0.8885080814361572 -0.4583244323730469
 outer loop
  vertex 624500.0 5609500.0 9270.599609375
  vertex 625500.0 5608500.0 11257.599609375
  vertex 624500.0 5608500.0 11209.2001953125
 endloop
endfacet
facet normal 0.2973472774028778 -0.7843605279922485 -0.544392466545105
 outer loop
  vertex 624500.0 5609500.0 9270.599609375
  vertex 625500.0 5609500.0 9816.7998046875
  vertex 625500.0 5608500.0 11257.599609375
 endloop
endfacet
facet normal -0.19026431441307068 -0.8065115809440613 -0.5597665905952454
 outer loop
  vertex 625500.0 5609500.0 9816.7998046875
  vertex 626500.0 5608500.0 10917.7001953125
  vertex 625500.0 5608500.0 11257.599609375
 endloop
endfacet
facet normal 0.6949915885925293 -0.09030723571777344 -0.7133241295814514
 outer loop
  vertex 625500.0 5609500.0 9816.7998046875
  vertex 626500.0 5609500.0 10791.099609375
  vertex 626500.0 5608500.0 10917.7001953125
 endloop
endfacet
facet normal -0.7182410359382629 -0.08739042282104492 -0.6902845501899719
 outer loop
  vertex 626500.0 5609500.0 10791.099609375
  vertex 627500.0 5608500.0 9877.2001953125
  vertex 626500.0 5608500.0 10917.7001953125
 endloop
endfacet
facet normal -0.2705509066581726 0.48790404200553894 -0.8299107551574707
 outer loop
  vertex 626500.0 5609500.0 10791.099609375
  vertex 627500.0 5609500.0 10465.099609375
  vertex 627500.0 5608500.0 9877.2001953125
 endloop
endfacet
facet normal 0.12445468455553055 0.5028647780418396 -0.8553584814071655
 outer loop
  vertex 627500.0 5609500.0 10465.099609375
  vertex 628500.0 5608500.0 10022.7001953125
  vertex 627500.0 5608500.0 9877.2001953125
 endloop
endfacet
facet normal 0.10662463307380676 0.4895029067993164 -0.8654583096504211
 outer loop
  vertex 627500.0 5609500.0 10465.099609375
  vertex 628500.0 5609500.0 10588.2998046875
  vertex 628500.0 5608500.0 10022.7001953125
 endloop
endfacet
facet normal 0.3481334447860718 0.7683430314064026 -0.5370774269104004
 outer loop
  vertex 615500.0 5610500.0 9219.0
  vertex 616500.0 5609500.0 8436.599609375
  vertex 615500.0 5609500.0 7788.39990234375
 endloop
endfacet
facet normal -0.5586690902709961 0.08669193834066391 -0.8248475193977356
 outer loop
  vertex 615500.0 5610500.0 9219.0
  vertex 616500.0 5610500.0 8541.7001953125
  vertex 616500.0 5609500.0 8436.599609375
 endloop
endfacet
facet normal 0.5565073490142822 0.08684372156858444 -0.8262915015220642
 outer loop
  vertex 616500.0 5610500.0 8541.7001953125
  vertex 617500.0 5609500.0 9110.099609375
  vertex 616500.0 5609500.0 8436.599609375
 endloop
endfacet
facet normal 0.43109896779060364 0.2326800376176834 -0.8717876076698303
 outer loop
  vertex 619500.0 5610500.0 7749.5
  vertex 620500.0 5609500.0 7977.10009765625
  vertex 619500.0 5609500.0 7482.60009765625
 endloop
endfacet
facet normal 0.3578996956348419 0.14806464314460754 -0.9219461679458618
 outer loop
  vertex 619500.0 5610500.0 7749.5
  vertex 620500.0 5610500.0 8137.7001953125
  vertex 620500.0 5609500.0 7977.10009765625
 endloop
endfacet
facet normal 0.48565956950187683 0.1386120617389679 -0.8630883097648621
 outer loop
  vertex 620500.0 5610500.0 8137.7001953125
  vertex 621500.0 5609500.0 8539.7998046875
  vertex 620500.0 5609500.0 7977.10009765625
 endloop
endfacet
facet normal 0.1837010681629181 -0.20303259789943695 -0.9617856740951538
 outer loop
  vertex 620500.0 5610500.0 8137.7001953125
  vertex 621500.0 5610500.0 8328.7001953125
  vertex 621500.0 5609500.0 8539.7998046875
 endloop
endfacet
facet normal -0.3107994794845581 -0.19631840288639069 -0.9299799203872681
 outer loop
  vertex 621500.0 5610500.0 8328.7001953125
  vertex 622500.0 5609500.0 8205.599609375
  vertex 621500.0 5609500.0 8539.7998046875
 endloop
endfacet
facet normal 0.5411421656608582 0.6121223568916321 -0.5766032338142395
 outer loop
  vertex 621500.0 5610500.0 8328.7001953125
  vertex 622500.0 5610500.0 9267.2001953125
  vertex 622500.0 5609500.0 8205.599609375
 endloop
endfacet
facet normal 0.6817567944526672 0.5325238108634949 -0.5016234517097473
 outer loop
  vertex 622500.0 5610500.0 9267.2001953125
  vertex 623500.0 5609500.0 9564.7001953125
  vertex 622500.0 5609500.0 8205.599609375
 endloop
endfacet
facet normal -0.43053001165390015 -0.6244182586669922 -0.651725172996521
 outer loop
  vertex 622500.0 5610500.0 9267.2001953125
  vertex 623500.0 5610500.0 8606.599609375
  vertex 623500.0 5609500.0 9564.7001953125
 endloop
endfacet
facet normal -0.20772944390773773 -0.6767266392707825 -0.706321120262146
 outer loop
  vertex 623500.0 5610500.0 8606.599609375
  vertex 624500.0 5609500.0 9270.599609375
  vertex 623500.0 5609500.0 9564.7001953125
 endloop
endfacet
facet normal 0.7678008079528809 0.5125464200973511 -0.3844192326068878
 outer loop
  vertex 623500.0 5610500.0 8606.599609375
  vertex 624500.0 5610500.0 10603.900390625
  vertex 624500.0 5609500.0 9270.599609375
 endloop
endfacet
facet normal 0.31142744421958923 0.7602092623710632 -0.5701708793640137
 outer loop
  vertex 624500.0 5610500.0 10603.900390625
  vertex 625500.0 5609500.0 9816.7998046875
  vertex 624500.0 5609500.0 9270.599609375
 endloop
endfacet
facet normal 0.10280060768127441 0.6766617298126221 -0.7290822863578796
 outer loop
  vertex 624500.0 5610500.0 10603.900390625
  vertex 625500.0 5610500.0 10744.900390625
  vertex 625500.0 5609500.0 9816.7998046875
 endloop
endfacet
facet normal 0.5811533331871033 0.5535962581634521 -0.596483051776886
 outer loop
  vertex 625500.0 5610500.0 10744.900390625
  vertex 626500.0 5609500.0 10791.099609375
  vertex 625500.0 5609500.0 9816.7998046875
 endloop
endfacet
facet normal 0.4717024266719818 0.4363023042678833 -0.7662487626075745
 outer loop
  vertex 625500.0 5610500.0 10744.900390625
  vertex 626500.0 5610500.0 11360.5
  vertex 626500.0 5609500.0 10791.099609375
 endloop
endfacet
facet normal -0.2725679278373718 0.4760744869709015 -0.8360979557037354
 outer loop
  vertex 626500.0 5610500.0 11360.5
  vertex 627500.0 5609500.0 10465.099609375
  vertex 626500.0 5609500.0 10791.099609375
 endloop
endfacet
facet normal -0.25658729672431946 0.4895903170108795 -0.8333452343940735
 outer loop
  vertex 626500.0 5610500.0 11360.5
  vertex 627500.0 5610500.0 11052.599609375
  vertex 627500.0 5609500.0 10465.099609375
 endloop
endfacet
facet normal 0.1056303009390831 0.5037151575088501 -0.8573875427246094
 outer loop
  vertex 627500.0 5610500.0 11052.599609375
  vertex 628500.0 5609500.0 10588.2998046875
  vertex 627500.0 5609500.0 10465.099609375
 endloop
endfacet
facet normal -0.6983753442764282 -0.4341943860054016 -0.5689878463745117
 outer loop
  vertex 627500.0 5610500.0 11052.599609375
  vertex 628500.0 5610500.0 9825.2001953125
  vertex 628500.0 5609500.0 10588.2998046875
 endloop
endfacet
facet normal 0.328893780708313 0.4171750247478485 -0.8472272157669067
 outer loop
  vertex 619500.0 5611500.0 8241.900390625
  vertex 620500.0 5610500.0 8137.7001953125
  vertex 619500.0 5610500.0 7749.5
 endloop
endfacet
facet normal 0.43769246339797974 0.5145248174667358 -0.7373530268669128
 outer loop
  vertex 619500.0 5611500.0 8241.900390625
  vertex 620500.0 5611500.0 8835.5
  vertex 620500.0 5610500.0 8137.7001953125
 endloop
endfacet
facet normal 0.15474820137023926 0.5653574466705322 -0.810200035572052
 outer loop
  vertex 620500.0 5611500.0 8835.5
  vertex 621500.0 5610500.0 8328.7001953125
  vertex 620500.0 5610500.0 8137.7001953125
 endloop
endfacet
facet normal 0.3010031580924988 0.6531460285186768 -0.6948361992835999
 outer loop
  vertex 620500.0 5611500.0 8835.5
  vertex 621500.0 5611500.0 9268.7001953125
  vertex 621500.0 5610500.0 8328.7001953125
 endloop
endfacet
facet normal 0.5644626617431641 0.5653648376464844 -0.6014519929885864
 outer loop
  vertex 621500.0 5611500.0 9268.7001953125
  vertex 622500.0 5610500.0 9267.2001953125
  vertex 621500.0 5610500.0 8328.7001953125
 endloop
endfacet
facet normal 0.574921190738678 0.5757931470870972 -0.5813156962394714
 outer loop
  vertex 621500.0 5611500.0 9268.7001953125
  vertex 622500.0 5611500.0 10257.7001953125
  vertex 622500.0 5610500.0 9267.2001953125
 endloop
endfacet
facet normal -0.4248711168766022 0.6370488405227661 -0.6431588530540466
 outer loop
  vertex 622500.0 5611500.0 10257.7001953125
  vertex 623500.0 5610500.0 8606.599609375
  vertex 622500.0 5610500.0 9267.2001953125
 endloop
endfacet
facet normal -0.07267829030752182 0.8329758048057556 -0.5485153794288635
 outer loop
  vertex 622500.0 5611500.0 10257.7001953125
  vertex 623500.0 5611500.0 10125.2001953125
  vertex 623500.0 5610500.0 8606.599609375
 endloop
endfacet
facet normal 0.7394692897796631 0.5622380375862122 -0.37023431062698364
 outer loop
  vertex 623500.0 5611500.0 10125.2001953125
  vertex 624500.0 5610500.0 10603.900390625
  vertex 623500.0 5610500.0 8606.599609375
 endloop
endfacet
facet normal 0.3896274268627167 -0.05057705566287041 -0.9195828437805176
 outer loop
  vertex 623500.0 5611500.0 10125.2001953125
  vertex 624500.0 5611500.0 10548.900390625
  vertex 624500.0 5610500.0 10603.900390625
 endloop
endfacet
facet normal 0.13941234350204468 -0.05438070371747017 -0.9887400269508362
 outer loop
  vertex 624500.0 5611500.0 10548.900390625
  vertex 625500.0 5610500.0 10744.900390625
  vertex 624500.0 5610500.0 10603.900390625
 endloop
endfacet
facet normal 0.23796430230140686 0.047825537621974945 -0.970095694065094
 outer loop
  vertex 624500.0 5611500.0 10548.900390625
  vertex 625500.0 5611500.0 10794.2001953125
  vertex 625500.0 5610500.0 10744.900390625
 endloop
endfacet
facet normal 0.5237688422203064 0.04194561019539833 -0.850827157497406
 outer loop
  vertex 625500.0 5611500.0 10794.2001953125
  vertex 626500.0 5610500.0 11360.5
  vertex 625500.0 5610500.0 10744.900390625
 endloop
endfacet
facet normal -0.3564170300960541 -0.7041751146316528 -0.614088237285614
 outer loop
  vertex 625500.0 5611500.0 10794.2001953125
  vertex 626500.0 5611500.0 10213.7998046875
  vertex 626500.0 5610500.0 11360.5
 endloop
endfacet
facet normal -0.19834746420383453 -0.738696813583374 -0.6441934704780579
 outer loop
  vertex 626500.0 5611500.0 10213.7998046875
  vertex 627500.0 5610500.0 11052.599609375
  vertex 626500.0 5610500.0 11360.5
 endloop
endfacet
facet normal 0.14803065359592438 -0.544485867023468 -0.8256040215492249
 outer loop
  vertex 626500.0 5611500.0 10213.7998046875
  vertex 627500.0 5611500.0 10393.099609375
  vertex 627500.0 5610500.0 11052.599609375
 endloop
endfacet
facet normal -0.7156574726104736 -0.3845334053039551 -0.5830680727958679
 outer loop
  vertex 627500.0 5611500.0 10393.099609375
  vertex 628500.0 5610500.0 9825.2001953125
  vertex 627500.0 5610500.0 11052.599609375
 endloop
endfacet
facet normal -0.5051431655883789 -0.015100809745490551 -0.8629034161567688
 outer loop
  vertex 627500.0 5611500.0 10393.099609375
  vertex 628500.0 5611500.0 9807.7001953125
  vertex 628500.0 5610500.0 9825.2001953125
 endloop
endfacet
facet normal 0.2936767339706421 0.6739237904548645 -0.6779237985610962
 outer loop
  vertex 620500.0 5612500.0 9829.599609375
  vertex 621500.0 5611500.0 9268.7001953125
  vertex 620500.0 5611500.0 8835.5
 endloop
endfacet
facet normal 0.32510456442832947 0.6886427402496338 -0.6481343507766724
 outer loop
  vertex 620500.0 5612500.0 9829.599609375
  vertex 621500.0 5612500.0 10331.2001953125
  vertex 621500.0 5611500.0 9268.7001953125
 endloop
endfacet
facet normal 0.561078667640686 0.6027766466140747 -0.5673192143440247
 outer loop
  vertex 621500.0 5612500.0 10331.2001953125
  vertex 622500.0 5611500.0 10257.7001953125
  vertex 621500.0 5611500.0 9268.7001953125
 endloop
endfacet
facet normal 0.6344602108001709 0.6635929346084595 -0.39636415243148804
 outer loop
  vertex 621500.0 5612500.0 10331.2001953125
  vertex 622500.0 5612500.0 11931.900390625
  vertex 622500.0 5611500.0 10257.7001953125
 endloop
endfacet
facet normal -0.06778843700885773 0.8565390110015869 -0.5116108655929565
 outer loop
  vertex 622500.0 5612500.0 11931.900390625
  vertex 623500.0 5611500.0 10125.2001953125
  vertex 622500.0 5611500.0 10257.7001953125
 endloop
endfacet
facet normal -0.18650639057159424 0.8121918439865112 -0.5527747273445129
 outer loop
  vertex 622500.0 5612500.0 11931.900390625
  vertex 623500.0 5612500.0 11594.5
  vertex 623500.0 5611500.0 10125.2001953125
 endloop
endfacet
facet normal 0.23189520835876465 0.8041620850563049 -0.5473097562789917
 outer loop
  vertex 623500.0 5612500.0 11594.5
  vertex 624500.0 5611500.0 10548.900390625
  vertex 623500.0 5611500.0 10125.2001953125
 endloop
endfacet
facet normal 0.26086533069610596 0.8100108504295349 -0.5251967906951904
 outer loop
  vertex 623500.0 5612500.0 11594.5
  vertex 624500.0 5612500.0 12091.2001953125
  vertex 624500.0 5611500.0 10548.900390625
 endloop
endfacet
facet normal 0.1322786659002304 0.8316900730133057 -0.5392531752586365
 outer loop
  vertex 624500.0 5612500.0 12091.2001953125
  vertex 625500.0 5611500.0 10794.2001953125
  vertex 624500.0 5611500.0 10548.900390625
 endloop
endfacet
facet normal -0.31616976857185364 0.617721438407898 -0.7200394868850708
 outer loop
  vertex 624500.0 5612500.0 12091.2001953125
  vertex 625500.0 5612500.0 11652.099609375
  vertex 625500.0 5611500.0 10794.2001953125
 endloop
endfacet
facet normal -0.40312811732292175 0.5958704352378845 -0.6945690512657166
 outer loop
  vertex 625500.0 5612500.0 11652.099609375
  vertex 626500.0 5611500.0 10213.7998046875
  vertex 625500.0 5611500.0 10794.2001953125
 endloop
endfacet
facet normal -0.5183660984039307 0.48983651399612427 -0.7009683847427368
 outer loop
  vertex 625500.0 5612500.0 11652.099609375
  vertex 626500.0 5612500.0 10912.599609375
  vertex 626500.0 5611500.0 10213.7998046875
 endloop
endfacet
facet normal 0.14540888369083405 0.5667139291763306 -0.810981810092926
 outer loop
  vertex 626500.0 5612500.0 10912.599609375
  vertex 627500.0 5611500.0 10393.099609375
  vertex 626500.0 5611500.0 10213.7998046875
 endloop
endfacet
facet normal -0.4804215729236603 -0.024985427036881447 -0.8766816854476929
 outer loop
  vertex 626500.0 5612500.0 10912.599609375
  vertex 627500.0 5612500.0 10364.599609375
  vertex 627500.0 5611500.0 10393.099609375
 endloop
endfacet
facet normal -0.5050480365753174 -0.024588117375969887 -0.8627409338951111
 outer loop
  vertex 627500.0 5612500.0 10364.599609375
  vertex 628500.0 5611500.0 9807.7001953125
  vertex 627500.0 5611500.0 10393.099609375
 endloop
endfacet
facet normal -0.5308048129081726 -0.06002098321914673 -0.8453660011291504
 outer loop
  vertex 627500.0 5612500.0 10364.599609375
  vertex 628500.0 5612500.0 9736.7001953125
  vertex 628500.0 5611500.0 9807.7001953125
 endloop
endfacet
facet normal 0.3337470591068268 0.667759895324707 -0.6653642058372498
 outer loop
  vertex 620500.0 5613500.0 10833.2001953125
  vertex 621500.0 5612500.0 10331.2001953125
  vertex 620500.0 5612500.0 9829.599609375
 endloop
endfacet
facet normal -0.31788021326065063 -0.10636858642101288 -0.9421454668045044
 outer loop
  vertex 622500.0 5613500.0 11819.0
  vertex 623500.0 5612500.0 11594.5
  vertex 622500.0 5612500.0 11931.900390625
 endloop
endfacet
facet normal -0.5669088959693909 -0.4059896767139435 -0.7167892456054688
 outer loop
  vertex 622500.0 5613500.0 11819.0
  vertex 623500.0 5613500.0 11028.099609375
  vertex 623500.0 5612500.0 11594.5
 endloop
endfacet
facet normal 0.39672333002090454 -0.4523940682411194 -0.7987177968025208
 outer loop
  vertex 623500.0 5613500.0 11028.099609375
  vertex 624500.0 5612500.0 12091.2001953125
  vertex 623500.0 5612500.0 11594.5
 endloop
endfacet
facet normal 0.7091261744499207 -0.039282359182834625 -0.7039865255355835
 outer loop
  vertex 623500.0 5613500.0 11028.099609375
  vertex 624500.0 5613500.0 12035.400390625
  vertex 624500.0 5612500.0 12091.2001953125
 endloop
endfacet
facet normal -0.4015248417854309 -0.051024772226810455 -0.9144256711006165
 outer loop
  vertex 624500.0 5613500.0 12035.400390625
  vertex 625500.0 5612500.0 11652.099609375
  vertex 624500.0 5612500.0 12091.2001953125
 endloop
endfacet
facet normal -0.6939160823822021 -0.49261555075645447 -0.5251765251159668
 outer loop
  vertex 624500.0 5613500.0 12035.400390625
  vertex 625500.0 5613500.0 10714.099609375
  vertex 625500.0 5612500.0 11652.099609375
 endloop
endfacet
facet normal -0.47471150755882263 -0.6021357774734497 -0.6419357657432556
 outer loop
  vertex 625500.0 5613500.0 10714.099609375
  vertex 626500.0 5612500.0 10912.599609375
  vertex 625500.0 5612500.0 11652.099609375
 endloop
endfacet
facet normal -0.5411429405212402 -0.6476227641105652 -0.5364224910736084
 outer loop
  vertex 625500.0 5613500.0 10714.099609375
  vertex 626500.0 5613500.0 9705.2998046875
  vertex 626500.0 5612500.0 10912.599609375
 endloop
endfacet
facet normal -0.329984188079834 -0.7269887924194336 -0.6021609902381897
 outer loop
  vertex 626500.0 5613500.0 9705.2998046875
  vertex 627500.0 5612500.0 10364.599609375
  vertex 626500.0 5612500.0 10912.599609375
 endloop
endfacet
facet normal -0.2656201422214508 -0.7015753984451294 -0.661239743232727
 outer loop
  vertex 626500.0 5613500.0 9705.2998046875
  vertex 627500.0 5613500.0 9303.599609375
  vertex 627500.0 5612500.0 10364.599609375
 endloop
endfacet
facet normal -0.39554110169410706 -0.6683700084686279 -0.6299434304237366
 outer loop
  vertex 627500.0 5613500.0 9303.599609375
  vertex 628500.0 5612500.0 9736.7001953125
  vertex 627500.0 5612500.0 10364.599609375
 endloop
endfacet
facet normal 0.7078090906143188 0.07244662195444107 -0.7026790380477905
 outer loop
  vertex 623500.0 5614500.0 11131.2001953125
  vertex 624500.0 5613500.0 12035.400390625
  vertex 623500.0 5613500.0 11028.099609375
 endloop
endfacet
facet normal -0.490109920501709 -0.8009885549545288 -0.3438161313533783
 outer loop
  vertex 623500.0 5614500.0 11131.2001953125
  vertex 624500.0 5614500.0 9705.7001953125
  vertex 624500.0 5613500.0 12035.400390625
 endloop
endfacet
facet normal -0.46217018365859985 -0.8148924112319946 -0.3497842252254486
 outer loop
  vertex 624500.0 5614500.0 9705.7001953125
  vertex 625500.0 5613500.0 10714.099609375
  vertex 624500.0 5613500.0 12035.400390625
 endloop
endfacet
facet normal 0.728577196598053 0.03897961229085922 -0.6838536262512207
 outer loop
  vertex 624500.0 5614500.0 9705.7001953125
  vertex 625500.0 5614500.0 10771.099609375
  vertex 625500.0 5613500.0 10714.099609375
 endloop
endfacet
facet normal -0.7096263766288757 0.040095873177051544 -0.7034363150596619
 outer loop
  vertex 625500.0 5614500.0 10771.099609375
  vertex 626500.0 5613500.0 9705.2998046875
  vertex 625500.0 5613500.0 10714.099609375
 endloop
endfacet
facet normal -0.8054084777832031 -0.2179429680109024 -0.5511968731880188
 outer loop
  vertex 625500.0 5614500.0 10771.099609375
  vertex 626500.0 5614500.0 9309.900390625
  vertex 626500.0 5613500.0 9705.2998046875
 endloop
endfacet
facet normal -0.34993964433670044 -0.3444507420063019 -0.8711463212966919
 outer loop
  vertex 626500.0 5614500.0 9309.900390625
  vertex 627500.0 5613500.0 9303.599609375
  vertex 626500.0 5613500.0 9705.2998046875
 endloop
endfacet
facet normal -0.19703546166419983 -0.19097653031349182 -0.9616158604621887
 outer loop
  vertex 626500.0 5614500.0 9309.900390625
  vertex 627500.0 5614500.0 9105.0
  vertex 627500.0 5613500.0 9303.599609375
 endloop
endfacet
facet normal -0.7913750410079956 -0.25598281621932983 -0.5551561117172241
 outer loop
  vertex 623500.0 5615500.0 10670.099609375
  vertex 624500.0 5614500.0 9705.7001953125
  vertex 623500.0 5614500.0 11131.2001953125
 endloop
endfacet
facet normal -0.8042274713516235 -0.3232671022415161 -0.4987148940563202
 outer loop
  vertex 623500.0 5615500.0 10670.099609375
  vertex 624500.0 5615500.0 9057.5
  vertex 624500.0 5614500.0 9705.7001953125
 endloop
endfacet
facet normal 0.6664946675300598 -0.4055023193359375 -0.6255819201469421
 outer loop
  vertex 624500.0 5615500.0 9057.5
  vertex 625500.0 5614500.0 10771.099609375
  vertex 624500.0 5614500.0 9705.7001953125
 endloop
endfacet
facet normal -0.05975300818681717 -0.8769348859786987 -0.4768803119659424
 outer loop
  vertex 624500.0 5615500.0 9057.5
  vertex 625500.0 5615500.0 8932.2001953125
  vertex 625500.0 5614500.0 10771.099609375
 endloop
endfacet
facet normal -0.5723966360092163 -0.720353364944458 -0.39173072576522827
 outer loop
  vertex 625500.0 5615500.0 8932.2001953125
  vertex 626500.0 5614500.0 9309.900390625
  vertex 625500.0 5614500.0 10771.099609375
 endloop
endfacet
facet normal -0.2509930431842804 -0.5514688491821289 -0.7955405116081238
 outer loop
  vertex 625500.0 5615500.0 8932.2001953125
  vertex 626500.0 5615500.0 8616.7001953125
  vertex 626500.0 5614500.0 9309.900390625
 endloop
endfacet
facet normal -0.16605907678604126 -0.5617958307266235 -0.8104380965232849
 outer loop
  vertex 626500.0 5615500.0 8616.7001953125
  vertex 627500.0 5614500.0 9105.0
  vertex 626500.0 5614500.0 9309.900390625
 endloop
endfacet
endsolid
