solid
facet normal -0.0011000910308212042 -0.0033000288531184196 -0.9999939203262329
 outer loop
  vertex 704500.0 5700500.0 3449.800048828125
  vertex 705500.0 5700500.0 3448.699951171875
  vertex 705500.0 5699500.0 3452.0
 endloop
endfacet
facet normal 0.0026000747457146645 -0.003300019772723317 -0.9999911785125732
 outer loop
  vertex 705500.0 5700500.0 3448.699951171875
  vertex 706500.0 5699500.0 3454.60009765625
  vertex 705500.0 5699500.0 3452.0
 endloop
endfacet
facet normal 0.0016999337822198868 -0.00420015212148428 -0.9999897480010986
 outer loop
  vertex 705500.0 5700500.0 3448.699951171875
  vertex 706500.0 5700500.0 3450.39990234375
  vertex 706500.0 5699500.0 3454.60009765625
 endloop
endfacet
facet normal -0.0012001838767901063 -0.004200155381113291 -0.9999904632568359
 outer loop
  vertex 706500.0 5700500.0 3450.39990234375
  vertex 707500.0 5699500.0 3453.39990234375
  vertex 706500.0 5699500.0 3454.60009765625
 endloop
endfacet
facet normal 0.09661345928907394 0.09364073723554611 -0.9909072518348694
 outer loop
  vertex 706500.0 5700500.0 3450.39990234375
  vertex 707500.0 5700500.0 3547.89990234375
  vertex 707500.0 5699500.0 3453.39990234375
 endloop
endfacet
facet normal 0.00736712571233511 0.09407830238342285 -0.9955375790596008
 outer loop
  vertex 707500.0 5700500.0 3547.89990234375
  vertex 708500.0 5699500.0 3460.800048828125
  vertex 707500.0 5699500.0 3453.39990234375
 endloop
endfacet
facet normal 0.04201190173625946 0.12831421196460724 -0.9908432960510254
 outer loop
  vertex 707500.0 5700500.0 3547.89990234375
  vertex 708500.0 5700500.0 3590.300048828125
  vertex 708500.0 5699500.0 3460.800048828125
 endloop
endfacet
facet normal 0.0016920664347708225 0.09615237265825272 -0.9953652024269104
 outer loop
  vertex 705500.0 5701500.0 3545.300048828125
  vertex 706500.0 5700500.0 3450.39990234375
  vertex 705500.0 5700500.0 3448.699951171875
 endloop
endfacet
facet normal 0.07354599237442017 0.1668550968170166 -0.9832346439361572
 outer loop
  vertex 705500.0 5701500.0 3545.300048828125
  vertex 706500.0 5701500.0 3620.10009765625
  vertex 706500.0 5700500.0 3450.39990234375
 endloop
endfacet
facet normal 0.09568464010953903 0.16654053330421448 -0.9813809990882874
 outer loop
  vertex 706500.0 5701500.0 3620.10009765625
  vertex 707500.0 5700500.0 3547.89990234375
  vertex 706500.0 5700500.0 3450.39990234375
 endloop
endfacet
facet normal -0.02336595207452774 0.048728734254837036 -0.9985386729240417
 outer loop
  vertex 706500.0 5701500.0 3620.10009765625
  vertex 707500.0 5701500.0 3596.699951171875
  vertex 707500.0 5700500.0 3547.89990234375
 endloop
endfacet
facet normal 0.04231182113289833 0.048698391765356064 -0.9979169368743896
 outer loop
  vertex 707500.0 5701500.0 3596.699951171875
  vertex 708500.0 5700500.0 3590.300048828125
  vertex 707500.0 5700500.0 3547.89990234375
 endloop
endfacet
facet normal 0.23536348342895508 0.2413886934518814 -0.9414539337158203
 outer loop
  vertex 707500.0 5701500.0 3596.699951171875
  vertex 708500.0 5701500.0 3846.699951171875
  vertex 708500.0 5700500.0 3590.300048828125
 endloop
endfacet
facet normal -0.10013868659734726 0.2471175193786621 -0.9637972712516785
 outer loop
  vertex 708500.0 5701500.0 3846.699951171875
  vertex 709500.0 5700500.0 3486.39990234375
  vertex 708500.0 5700500.0 3590.300048828125
 endloop
endfacet
facet normal -0.39331814646720886 -0.0628318339586258 -0.9172530174255371
 outer loop
  vertex 708500.0 5701500.0 3846.699951171875
  vertex 709500.0 5701500.0 3417.89990234375
  vertex 709500.0 5700500.0 3486.39990234375
 endloop
endfacet
facet normal -0.023169266059994698 0.13812504708766937 -0.9901437163352966
 outer loop
  vertex 704500.0 5702500.0 3708.199951171875
  vertex 705500.0 5702500.0 3684.800048828125
  vertex 705500.0 5701500.0 3545.300048828125
 endloop
endfacet
facet normal 0.07388022541999817 0.13778457045555115 -0.9877029657363892
 outer loop
  vertex 705500.0 5702500.0 3684.800048828125
  vertex 706500.0 5701500.0 3620.10009765625
  vertex 705500.0 5701500.0 3545.300048828125
 endloop
endfacet
facet normal -0.052623145282268524 0.011982510797679424 -0.9985425472259521
 outer loop
  vertex 705500.0 5702500.0 3684.800048828125
  vertex 706500.0 5702500.0 3632.10009765625
  vertex 706500.0 5701500.0 3620.10009765625
 endloop
endfacet
facet normal -0.02339206263422966 0.011995852924883366 -0.9996544122695923
 outer loop
  vertex 706500.0 5702500.0 3632.10009765625
  vertex 707500.0 5701500.0 3596.699951171875
  vertex 706500.0 5701500.0 3620.10009765625
 endloop
endfacet
facet normal 0.07414506375789642 0.10923535376787186 -0.9912468194961548
 outer loop
  vertex 706500.0 5702500.0 3632.10009765625
  vertex 707500.0 5702500.0 3706.89990234375
  vertex 707500.0 5701500.0 3596.699951171875
 endloop
endfacet
facet normal 0.24116134643554688 0.1063038781285286 -0.9646453857421875
 outer loop
  vertex 707500.0 5702500.0 3706.89990234375
  vertex 708500.0 5701500.0 3846.699951171875
  vertex 707500.0 5701500.0 3596.699951171875
 endloop
endfacet
facet normal 0.04943915456533432 -0.08962661772966385 -0.9947476983070374
 outer loop
  vertex 707500.0 5702500.0 3706.89990234375
  vertex 708500.0 5702500.0 3756.60009765625
  vertex 708500.0 5701500.0 3846.699951171875
 endloop
endfacet
facet normal -0.3927525281906128 -0.08252551406621933 -0.9159339666366577
 outer loop
  vertex 708500.0 5702500.0 3756.60009765625
  vertex 709500.0 5701500.0 3417.89990234375
  vertex 708500.0 5701500.0 3846.699951171875
 endloop
endfacet
facet normal -0.3015052378177643 0.021352367475628853 -0.9532253742218018
 outer loop
  vertex 708500.0 5702500.0 3756.60009765625
  vertex 709500.0 5702500.0 3440.300048828125
  vertex 709500.0 5701500.0 3417.89990234375
 endloop
endfacet
facet normal 0.06448337435722351 -0.17202158272266388 -0.9829804301261902
 outer loop
  vertex 703500.0 5703500.0 3467.60009765625
  vertex 704500.0 5702500.0 3708.199951171875
  vertex 703500.0 5702500.0 3642.60009765625
 endloop
endfacet
facet normal 0.1541842520236969 -0.08270427584648132 -0.9845746755599976
 outer loop
  vertex 703500.0 5703500.0 3467.60009765625
  vertex 704500.0 5703500.0 3624.199951171875
  vertex 704500.0 5702500.0 3708.199951171875
 endloop
endfacet
facet normal -0.023311445489525795 -0.08368246257305145 -0.9962197542190552
 outer loop
  vertex 704500.0 5703500.0 3624.199951171875
  vertex 705500.0 5702500.0 3684.800048828125
  vertex 704500.0 5702500.0 3708.199951171875
 endloop
endfacet
facet normal 0.0869385153055191 0.026589378714561462 -0.9958587884902954
 outer loop
  vertex 704500.0 5703500.0 3624.199951171875
  vertex 705500.0 5703500.0 3711.5
  vertex 705500.0 5702500.0 3684.800048828125
 endloop
endfacet
facet normal -0.05260822921991348 0.026653479784727097 -0.9982594847679138
 outer loop
  vertex 705500.0 5703500.0 3711.5
  vertex 706500.0 5702500.0 3632.10009765625
  vertex 705500.0 5702500.0 3684.800048828125
 endloop
endfacet
facet normal 0.023965157568454742 0.10292048752307892 -0.9944008588790894
 outer loop
  vertex 705500.0 5703500.0 3711.5
  vertex 706500.0 5703500.0 3735.60009765625
  vertex 706500.0 5702500.0 3632.10009765625
 endloop
endfacet
facet normal 0.07419727742671967 0.10266628861427307 -0.9919447898864746
 outer loop
  vertex 706500.0 5703500.0 3735.60009765625
  vertex 707500.0 5702500.0 3706.89990234375
  vertex 706500.0 5702500.0 3632.10009765625
 endloop
endfacet
facet normal -0.0005998607957735658 0.0280890055000782 -0.9996052980422974
 outer loop
  vertex 706500.0 5703500.0 3735.60009765625
  vertex 707500.0 5703500.0 3735.0
  vertex 707500.0 5702500.0 3706.89990234375
 endloop
endfacet
facet normal 0.049619391560554504 0.028054410591721535 -0.9983741641044617
 outer loop
  vertex 707500.0 5703500.0 3735.0
  vertex 708500.0 5702500.0 3756.60009765625
  vertex 707500.0 5702500.0 3706.89990234375
 endloop
endfacet
facet normal -0.08899173885583878 -0.11037363111972809 -0.9898980259895325
 outer loop
  vertex 707500.0 5703500.0 3735.0
  vertex 708500.0 5703500.0 3645.10009765625
  vertex 708500.0 5702500.0 3756.60009765625
 endloop
endfacet
facet normal -0.299884170293808 -0.10571318119764328 -0.9481002688407898
 outer loop
  vertex 708500.0 5703500.0 3645.10009765625
  vertex 709500.0 5702500.0 3440.300048828125
  vertex 708500.0 5702500.0 3756.60009765625
 endloop
endfacet
facet normal -0.012274173088371754 0.18882592022418976 -0.9819338321685791
 outer loop
  vertex 708500.0 5703500.0 3645.10009765625
  vertex 709500.0 5703500.0 3632.60009765625
  vertex 709500.0 5702500.0 3440.300048828125
 endloop
endfacet
facet normal 0.15457026660442352 -0.04313382878899574 -0.9870397448539734
 outer loop
  vertex 703500.0 5704500.0 3423.89990234375
  vertex 704500.0 5703500.0 3624.199951171875
  vertex 703500.0 5703500.0 3467.60009765625
 endloop
endfacet
facet normal 0.16723211109638214 -0.030154822394251823 -0.9854562878608704
 outer loop
  vertex 703500.0 5704500.0 3423.89990234375
  vertex 704500.0 5704500.0 3593.60009765625
  vertex 704500.0 5703500.0 3624.199951171875
 endloop
endfacet
facet normal 0.08692889660596848 -0.030469756573438644 -0.9957484602928162
 outer loop
  vertex 704500.0 5704500.0 3593.60009765625
  vertex 705500.0 5703500.0 3711.5
  vertex 704500.0 5703500.0 3624.199951171875
 endloop
endfacet
facet normal 0.16908083856105804 0.05304686725139618 -0.9841736555099487
 outer loop
  vertex 704500.0 5704500.0 3593.60009765625
  vertex 705500.0 5704500.0 3765.39990234375
  vertex 705500.0 5703500.0 3711.5
 endloop
endfacet
facet normal 0.024058200418949127 0.05380620062351227 -0.9982615113258362
 outer loop
  vertex 705500.0 5704500.0 3765.39990234375
  vertex 706500.0 5703500.0 3735.60009765625
  vertex 705500.0 5703500.0 3711.5
 endloop
endfacet
facet normal -0.0011994598899036646 0.02858814224600792 -0.9995905160903931
 outer loop
  vertex 705500.0 5704500.0 3765.39990234375
  vertex 706500.0 5704500.0 3764.199951171875
  vertex 706500.0 5703500.0 3735.60009765625
 endloop
endfacet
facet normal -0.0005998522974550724 0.028588159009814262 -0.9995911121368408
 outer loop
  vertex 706500.0 5704500.0 3764.199951171875
  vertex 707500.0 5703500.0 3735.0
  vertex 706500.0 5703500.0 3735.60009765625
 endloop
endfacet
facet normal -0.060558512806892395 -0.031426601111888885 -0.9976698160171509
 outer loop
  vertex 706500.0 5704500.0 3764.199951171875
  vertex 707500.0 5704500.0 3703.5
  vertex 707500.0 5703500.0 3735.0
 endloop
endfacet
facet normal -0.08949477225542068 -0.03135804459452629 -0.9954935312271118
 outer loop
  vertex 707500.0 5704500.0 3703.5
  vertex 708500.0 5703500.0 3645.10009765625
  vertex 707500.0 5703500.0 3735.0
 endloop
endfacet
facet normal -0.06307338923215866 -0.004790438339114189 -0.9979974031448364
 outer loop
  vertex 707500.0 5704500.0 3703.5
  vertex 708500.0 5704500.0 3640.300048828125
  vertex 708500.0 5703500.0 3645.10009765625
 endloop
endfacet
facet normal -0.012498879805207253 -0.004799618851393461 -0.9999103546142578
 outer loop
  vertex 708500.0 5704500.0 3640.300048828125
  vertex 709500.0 5703500.0 3632.60009765625
  vertex 708500.0 5703500.0 3645.10009765625
 endloop
endfacet
facet normal 0.004899454768747091 0.012598702684044838 -0.9999086260795593
 outer loop
  vertex 708500.0 5704500.0 3640.300048828125
  vertex 709500.0 5704500.0 3645.199951171875
  vertex 709500.0 5703500.0 3632.60009765625
 endloop
endfacet
facet normal -0.0696251392364502 0.012568279169499874 -0.9974940419197083
 outer loop
  vertex 709500.0 5704500.0 3645.199951171875
  vertex 710500.0 5703500.0 3562.800048828125
  vertex 709500.0 5703500.0 3632.60009765625
 endloop
endfacet
facet normal -0.06952568143606186 0.012668199837207794 -0.9974997043609619
 outer loop
  vertex 709500.0 5704500.0 3645.199951171875
  vertex 710500.0 5704500.0 3575.5
  vertex 710500.0 5703500.0 3562.800048828125
 endloop
endfacet
facet normal -0.009099083952605724 -0.009299017488956451 -0.999915361404419
 outer loop
  vertex 702500.0 5705500.0 3423.699951171875
  vertex 703500.0 5705500.0 3414.60009765625
  vertex 703500.0 5704500.0 3423.89990234375
 endloop
endfacet
facet normal 0.16730117797851562 -0.009168335236608982 -0.985863208770752
 outer loop
  vertex 703500.0 5705500.0 3414.60009765625
  vertex 704500.0 5704500.0 3593.60009765625
  vertex 703500.0 5704500.0 3423.89990234375
 endloop
endfacet
facet normal 0.003447293071076274 -0.1728571206331253 -0.9849408864974976
 outer loop
  vertex 703500.0 5705500.0 3414.60009765625
  vertex 704500.0 5705500.0 3418.10009765625
  vertex 704500.0 5704500.0 3593.60009765625
 endloop
endfacet
facet normal 0.16684190928936005 -0.17043530941009521 -0.9711413979530334
 outer loop
  vertex 704500.0 5705500.0 3418.10009765625
  vertex 705500.0 5704500.0 3765.39990234375
  vertex 704500.0 5704500.0 3593.60009765625
 endloop
endfacet
facet normal 0.29502952098846436 -0.036568205803632736 -0.954788088798523
 outer loop
  vertex 704500.0 5705500.0 3418.10009765625
  vertex 705500.0 5705500.0 3727.10009765625
  vertex 705500.0 5704500.0 3765.39990234375
 endloop
endfacet
facet normal -0.0011990731582045555 -0.038271717727184296 -0.9992666840553284
 outer loop
  vertex 705500.0 5705500.0 3727.10009765625
  vertex 706500.0 5704500.0 3764.199951171875
  vertex 705500.0 5704500.0 3765.39990234375
 endloop
endfacet
facet normal 0.05132690444588661 0.0142797427251935 -0.9985798597335815
 outer loop
  vertex 705500.0 5705500.0 3727.10009765625
  vertex 706500.0 5705500.0 3778.5
  vertex 706500.0 5704500.0 3764.199951171875
 endloop
endfacet
facet normal -0.06058226525783539 0.014272322878241539 -0.9980611205101013
 outer loop
  vertex 706500.0 5705500.0 3778.5
  vertex 707500.0 5704500.0 3703.5
  vertex 706500.0 5704500.0 3764.199951171875
 endloop
endfacet
facet normal -0.10349723696708679 -0.028931571170687675 -0.9942088723182678
 outer loop
  vertex 706500.0 5705500.0 3778.5
  vertex 707500.0 5705500.0 3674.39990234375
  vertex 707500.0 5704500.0 3703.5
 endloop
endfacet
facet normal -0.06304752081632614 -0.02902991510927677 -0.9975882172584534
 outer loop
  vertex 707500.0 5705500.0 3674.39990234375
  vertex 708500.0 5704500.0 3640.300048828125
  vertex 707500.0 5704500.0 3703.5
 endloop
endfacet
facet normal -0.048238713294267654 -0.014181992970407009 -0.9987351894378662
 outer loop
  vertex 707500.0 5705500.0 3674.39990234375
  vertex 708500.0 5705500.0 3626.10009765625
  vertex 708500.0 5704500.0 3640.300048828125
 endloop
endfacet
facet normal 0.00489934952929616 -0.01419834978878498 -0.999887228012085
 outer loop
  vertex 708500.0 5705500.0 3626.10009765625
  vertex 709500.0 5704500.0 3645.199951171875
  vertex 708500.0 5704500.0 3640.300048828125
 endloop
endfacet
facet normal 0.03607114776968956 0.016986481845378876 -0.9992048740386963
 outer loop
  vertex 708500.0 5705500.0 3626.10009765625
  vertex 709500.0 5705500.0 3662.199951171875
  vertex 709500.0 5704500.0 3645.199951171875
 endloop
endfacet
facet normal -0.06952126324176788 0.01695641689002514 -0.9974363446235657
 outer loop
  vertex 709500.0 5705500.0 3662.199951171875
  vertex 710500.0 5704500.0 3575.5
  vertex 709500.0 5704500.0 3645.199951171875
 endloop
endfacet
facet normal -0.08568370342254639 0.0006973787676542997 -0.9963221549987793
 outer loop
  vertex 709500.0 5705500.0 3662.199951171875
  vertex 710500.0 5705500.0 3576.199951171875
  vertex 710500.0 5704500.0 3575.5
 endloop
endfacet
facet normal -0.09860662370920181 0.014527158811688423 -0.9950205087661743
 outer loop
  vertex 699500.0 5706500.0 3677.300048828125
  vertex 700500.0 5706500.0 3578.199951171875
  vertex 700500.0 5705500.0 3563.60009765625
 endloop
endfacet
facet normal -0.04315534979104996 0.014584697782993317 -0.9989619255065918
 outer loop
  vertex 700500.0 5706500.0 3578.199951171875
  vertex 701500.0 5705500.0 3520.39990234375
  vertex 700500.0 5705500.0 3563.60009765625
 endloop
endfacet
facet normal -0.027776826173067093 0.029974937438964844 -0.9991646409034729
 outer loop
  vertex 700500.0 5706500.0 3578.199951171875
  vertex 701500.0 5706500.0 3550.39990234375
  vertex 701500.0 5705500.0 3520.39990234375
 endloop
endfacet
facet normal -0.0962081030011177 0.029847409576177597 -0.994913637638092
 outer loop
  vertex 701500.0 5706500.0 3550.39990234375
  vertex 702500.0 5705500.0 3423.699951171875
  vertex 701500.0 5705500.0 3520.39990234375
 endloop
endfacet
facet normal -0.11021057516336441 0.015701835975050926 -0.9937841892242432
 outer loop
  vertex 701500.0 5706500.0 3550.39990234375
  vertex 702500.0 5706500.0 3439.5
  vertex 702500.0 5705500.0 3423.699951171875
 endloop
endfacet
facet normal -0.009098341688513756 0.01579742319881916 -0.9998338222503662
 outer loop
  vertex 702500.0 5706500.0 3439.5
  vertex 703500.0 5705500.0 3414.60009765625
  vertex 702500.0 5705500.0 3423.699951171875
 endloop
endfacet
facet normal -0.023093899711966515 0.0017993218498304486 -0.999731719493866
 outer loop
  vertex 702500.0 5706500.0 3439.5
  vertex 703500.0 5706500.0 3416.39990234375
  vertex 703500.0 5705500.0 3414.60009765625
 endloop
endfacet
facet normal 0.003499972866848111 0.0017997907707467675 -0.9999922513961792
 outer loop
  vertex 703500.0 5706500.0 3416.39990234375
  vertex 704500.0 5705500.0 3418.10009765625
  vertex 703500.0 5705500.0 3414.60009765625
 endloop
endfacet
facet normal -0.007999368011951447 -0.009699429385364056 -0.9999210238456726
 outer loop
  vertex 703500.0 5706500.0 3416.39990234375
  vertex 704500.0 5706500.0 3408.39990234375
  vertex 704500.0 5705500.0 3418.10009765625
 endloop
endfacet
facet normal 0.29521429538726807 -0.009267431683838367 -0.9553861021995544
 outer loop
  vertex 704500.0 5706500.0 3408.39990234375
  vertex 705500.0 5705500.0 3727.10009765625
  vertex 704500.0 5705500.0 3418.10009765625
 endloop
endfacet
facet normal 0.07669632881879807 -0.23231889307498932 -0.9696110486984253
 outer loop
  vertex 704500.0 5706500.0 3408.39990234375
  vertex 705500.0 5706500.0 3487.5
  vertex 705500.0 5705500.0 3727.10009765625
 endloop
endfacet
facet normal 0.049922820180654526 -0.2327146828174591 -0.9712628722190857
 outer loop
  vertex 705500.0 5706500.0 3487.5
  vertex 706500.0 5705500.0 3778.5
  vertex 705500.0 5705500.0 3727.10009765625
 endloop
endfacet
facet normal 0.25525882840156555 -0.02599938027560711 -0.9665231108665466
 outer loop
  vertex 705500.0 5706500.0 3487.5
  vertex 706500.0 5706500.0 3751.60009765625
  vertex 706500.0 5705500.0 3778.5
 endloop
endfacet
facet normal -0.10350354015827179 -0.02674574963748455 -0.9942694306373596
 outer loop
  vertex 706500.0 5706500.0 3751.60009765625
  vertex 707500.0 5705500.0 3674.39990234375
  vertex 706500.0 5705500.0 3778.5
 endloop
endfacet
facet normal -0.04812411591410637 0.02895422652363777 -0.9984216094017029
 outer loop
  vertex 706500.0 5706500.0 3751.60009765625
  vertex 707500.0 5706500.0 3703.39990234375
  vertex 707500.0 5705500.0 3674.39990234375
 endloop
endfacet
facet normal -0.0482233390212059 0.02895408868789673 -0.9984168410301208
 outer loop
  vertex 707500.0 5706500.0 3703.39990234375
  vertex 708500.0 5705500.0 3626.10009765625
  vertex 707500.0 5705500.0 3674.39990234375
 endloop
endfacet
facet normal -0.05211261287331581 0.025057854130864143 -0.9983267784118652
 outer loop
  vertex 707500.0 5706500.0 3703.39990234375
  vertex 708500.0 5706500.0 3651.199951171875
  vertex 708500.0 5705500.0 3626.10009765625
 endloop
endfacet
facet normal 0.036065008491277695 0.025075627490878105 -0.9990348219871521
 outer loop
  vertex 708500.0 5706500.0 3651.199951171875
  vertex 709500.0 5705500.0 3662.199951171875
  vertex 708500.0 5705500.0 3626.10009765625
 endloop
endfacet
facet normal -0.043195996433496475 -0.054169561713933945 -0.9975969791412354
 outer loop
  vertex 708500.0 5706500.0 3651.199951171875
  vertex 709500.0 5706500.0 3607.89990234375
  vertex 709500.0 5705500.0 3662.199951171875
 endloop
endfacet
facet normal -0.08555860817432404 -0.054021354764699936 -0.9948675632476807
 outer loop
  vertex 709500.0 5706500.0 3607.89990234375
  vertex 710500.0 5705500.0 3576.199951171875
  vertex 709500.0 5705500.0 3662.199951171875
 endloop
endfacet
facet normal -0.0216937605291605 0.009997147135436535 -0.999714732170105
 outer loop
  vertex 709500.0 5706500.0 3607.89990234375
  vertex 710500.0 5706500.0 3586.199951171875
  vertex 710500.0 5705500.0 3576.199951171875
 endloop
endfacet
facet normal 0.006799551658332348 0.009999268688261509 -0.9999268651008606
 outer loop
  vertex 710500.0 5706500.0 3586.199951171875
  vertex 711500.0 5705500.0 3583.0
  vertex 710500.0 5705500.0 3576.199951171875
 endloop
endfacet
facet normal 0.022087637335062027 0.025285784155130386 -0.9994361996650696
 outer loop
  vertex 710500.0 5706500.0 3586.199951171875
  vertex 711500.0 5706500.0 3608.300048828125
  vertex 711500.0 5705500.0 3583.0
 endloop
endfacet
facet normal -0.09818293899297714 0.0937243402004242 -0.9907450675964355
 outer loop
  vertex 699500.0 5707500.0 3771.89990234375
  vertex 700500.0 5706500.0 3578.199951171875
  vertex 699500.0 5706500.0 3677.300048828125
 endloop
endfacet
facet normal -0.24154488742351532 -0.05387032404541969 -0.9688931703567505
 outer loop
  vertex 699500.0 5707500.0 3771.89990234375
  vertex 700500.0 5707500.0 3522.60009765625
  vertex 700500.0 5706500.0 3578.199951171875
 endloop
endfacet
facet normal -0.02774648927152157 -0.05549273639917374 -0.9980734586715698
 outer loop
  vertex 700500.0 5707500.0 3522.60009765625
  vertex 701500.0 5706500.0 3550.39990234375
  vertex 700500.0 5706500.0 3578.199951171875
 endloop
endfacet
facet normal 0.01939556933939457 -0.00839802622795105 -0.9997766017913818
 outer loop
  vertex 700500.0 5707500.0 3522.60009765625
  vertex 701500.0 5707500.0 3542.0
  vertex 701500.0 5706500.0 3550.39990234375
 endloop
endfacet
facet normal -0.11022032797336578 -0.008348428644239902 -0.9938721656799316
 outer loop
  vertex 701500.0 5707500.0 3542.0
  vertex 702500.0 5706500.0 3439.5
  vertex 701500.0 5706500.0 3550.39990234375
 endloop
endfacet
facet normal -0.09141047298908234 0.01065454538911581 -0.9957562685012817
 outer loop
  vertex 701500.0 5707500.0 3542.0
  vertex 702500.0 5707500.0 3450.199951171875
  vertex 702500.0 5706500.0 3439.5
 endloop
endfacet
facet normal -0.023092614486813545 0.01069648563861847 -0.9996761083602905
 outer loop
  vertex 702500.0 5707500.0 3450.199951171875
  vertex 703500.0 5706500.0 3416.39990234375
  vertex 702500.0 5706500.0 3439.5
 endloop
endfacet
facet normal -0.04026651382446289 -0.006494591012597084 -0.9991678595542908
 outer loop
  vertex 702500.0 5707500.0 3450.199951171875
  vertex 703500.0 5707500.0 3409.89990234375
  vertex 703500.0 5706500.0 3416.39990234375
 endloop
endfacet
facet normal -0.007999574765563011 -0.006499654613435268 -0.9999468922615051
 outer loop
  vertex 703500.0 5707500.0 3409.89990234375
  vertex 704500.0 5706500.0 3408.39990234375
  vertex 703500.0 5706500.0 3416.39990234375
 endloop
endfacet
facet normal -0.023687465116381645 -0.022188255563378334 -0.9994731545448303
 outer loop
  vertex 703500.0 5707500.0 3409.89990234375
  vertex 704500.0 5707500.0 3386.199951171875
  vertex 704500.0 5706500.0 3408.39990234375
 endloop
endfacet
facet normal 0.07883448898792267 -0.022125406190752983 -0.9966421127319336
 outer loop
  vertex 704500.0 5707500.0 3386.199951171875
  vertex 705500.0 5706500.0 3487.5
  vertex 704500.0 5706500.0 3408.39990234375
 endloop
endfacet
facet normal 0.10117805749177933 0.00039785404806025326 -0.994868278503418
 outer loop
  vertex 704500.0 5707500.0 3386.199951171875
  vertex 705500.0 5707500.0 3487.89990234375
  vertex 705500.0 5706500.0 3487.5
 endloop
endfacet
facet normal 0.2553451359272003 0.00038664552266709507 -0.9668498635292053
 outer loop
  vertex 705500.0 5707500.0 3487.89990234375
  vertex 706500.0 5706500.0 3751.60009765625
  vertex 705500.0 5706500.0 3487.5
 endloop
endfacet
facet normal 0.3026413917541504 0.051677267998456955 -0.9517025351524353
 outer loop
  vertex 705500.0 5707500.0 3487.89990234375
  vertex 706500.0 5707500.0 3805.89990234375
  vertex 706500.0 5706500.0 3751.60009765625
 endloop
endfacet
facet normal -0.04807364568114281 0.05415724217891693 -0.9973745346069336
 outer loop
  vertex 706500.0 5707500.0 3805.89990234375
  vertex 707500.0 5706500.0 3703.39990234375
  vertex 706500.0 5706500.0 3751.60009765625
 endloop
endfacet
facet normal -0.06660901755094528 0.035598233342170715 -0.9971439242362976
 outer loop
  vertex 706500.0 5707500.0 3805.89990234375
  vertex 707500.0 5707500.0 3739.10009765625
  vertex 707500.0 5706500.0 3703.39990234375
 endloop
endfacet
facet normal -0.05209588259458542 0.035629019141197205 -0.998006284236908
 outer loop
  vertex 707500.0 5707500.0 3739.10009765625
  vertex 708500.0 5706500.0 3651.199951171875
  vertex 707500.0 5706500.0 3703.39990234375
 endloop
endfacet
facet normal -0.08053556084632874 0.0070768604055047035 -0.9967266321182251
 outer loop
  vertex 707500.0 5707500.0 3739.10009765625
  vertex 708500.0 5707500.0 3658.300048828125
  vertex 708500.0 5706500.0 3651.199951171875
 endloop
endfacet
facet normal -0.0432584285736084 0.007093272637575865 -0.9990387558937073
 outer loop
  vertex 708500.0 5707500.0 3658.300048828125
  vertex 709500.0 5706500.0 3607.89990234375
  vertex 708500.0 5706500.0 3651.199951171875
 endloop
endfacet
facet normal -0.04196152836084366 0.00839245319366455 -0.999083936214447
 outer loop
  vertex 708500.0 5707500.0 3658.300048828125
  vertex 709500.0 5707500.0 3616.300048828125
  vertex 709500.0 5706500.0 3607.89990234375
 endloop
endfacet
facet normal -0.021694079041481018 0.008397873491048813 -0.9997293949127197
 outer loop
  vertex 709500.0 5707500.0 3616.300048828125
  vertex 710500.0 5706500.0 3586.199951171875
  vertex 709500.0 5706500.0 3607.89990234375
 endloop
endfacet
facet normal -0.027789238840341568 0.0022991544101387262 -0.9996111392974854
 outer loop
  vertex 709500.0 5707500.0 3616.300048828125
  vertex 710500.0 5707500.0 3588.5
  vertex 710500.0 5706500.0 3586.199951171875
 endloop
endfacet
facet normal 0.022094644606113434 0.0022994813043624163 -0.9997532367706299
 outer loop
  vertex 710500.0 5707500.0 3588.5
  vertex 711500.0 5706500.0 3608.300048828125
  vertex 710500.0 5706500.0 3586.199951171875
 endloop
endfacet
facet normal 0.04145456477999687 0.021676193922758102 -0.9989051818847656
 outer loop
  vertex 710500.0 5707500.0 3588.5
  vertex 711500.0 5707500.0 3630.0
  vertex 711500.0 5706500.0 3608.300048828125
 endloop
endfacet
facet normal -0.2407541573047638 -0.09705499559640884 -0.9657213687896729
 outer loop
  vertex 699500.0 5708500.0 3671.39990234375
  vertex 700500.0 5707500.0 3522.60009765625
  vertex 699500.0 5707500.0 3771.89990234375
 endloop
endfacet
facet normal 0.17540410161018372 0.3142344057559967 -0.9330005049705505
 outer loop
  vertex 699500.0 5708500.0 3671.39990234375
  vertex 700500.0 5708500.0 3859.39990234375
  vertex 700500.0 5707500.0 3522.60009765625
 endloop
endfacet
facet normal 0.018382050096988678 0.31912893056869507 -0.9475329518318176
 outer loop
  vertex 700500.0 5708500.0 3859.39990234375
  vertex 701500.0 5707500.0 3542.0
  vertex 700500.0 5707500.0 3522.60009765625
 endloop
endfacet
facet normal -0.2384919822216034 0.06897084414958954 -0.9686922430992126
 outer loop
  vertex 700500.0 5708500.0 3859.39990234375
  vertex 701500.0 5708500.0 3613.199951171875
  vertex 701500.0 5707500.0 3542.0
 endloop
endfacet
facet normal -0.09118674695491791 0.07072427868843079 -0.9933191537857056
 outer loop
  vertex 701500.0 5708500.0 3613.199951171875
  vertex 702500.0 5707500.0 3450.199951171875
  vertex 701500.0 5707500.0 3542.0
 endloop
endfacet
facet normal 0.037617627531290054 0.19729602336883545 -0.979621946811676
 outer loop
  vertex 701500.0 5708500.0 3613.199951171875
  vertex 702500.0 5708500.0 3651.60009765625
  vertex 702500.0 5707500.0 3450.199951171875
 endloop
endfacet
facet normal -0.039475977420806885 0.1972818523645401 -0.9795516729354858
 outer loop
  vertex 702500.0 5708500.0 3651.60009765625
  vertex 703500.0 5707500.0 3409.89990234375
  vertex 702500.0 5707500.0 3450.199951171875
 endloop
endfacet
facet normal -0.14010576903820038 0.09803450107574463 -0.9852713346481323
 outer loop
  vertex 702500.0 5708500.0 3651.60009765625
  vertex 703500.0 5708500.0 3509.39990234375
  vertex 703500.0 5707500.0 3409.89990234375
 endloop
endfacet
facet normal -0.023576943203806877 0.09898356348276138 -0.9948096871376038
 outer loop
  vertex 703500.0 5708500.0 3509.39990234375
  vertex 704500.0 5707500.0 3386.199951171875
  vertex 703500.0 5707500.0 3409.89990234375
 endloop
endfacet
facet normal -0.09572331607341766 0.02686622552573681 -0.9950453639030457
 outer loop
  vertex 703500.0 5708500.0 3509.39990234375
  vertex 704500.0 5708500.0 3413.199951171875
  vertex 704500.0 5707500.0 3386.199951171875
 endloop
endfacet
facet normal 0.10114157944917679 0.02685176022350788 -0.9945096373558044
 outer loop
  vertex 704500.0 5708500.0 3413.199951171875
  vertex 705500.0 5707500.0 3487.89990234375
  vertex 704500.0 5707500.0 3386.199951171875
 endloop
endfacet
facet normal 0.1669546514749527 0.09363602846860886 -0.9815082550048828
 outer loop
  vertex 704500.0 5708500.0 3413.199951171875
  vertex 705500.0 5708500.0 3583.300048828125
  vertex 705500.0 5707500.0 3487.89990234375
 endloop
endfacet
facet normal 0.3018016219139099 0.09054063260555267 -0.9490617513656616
 outer loop
  vertex 705500.0 5708500.0 3583.300048828125
  vertex 706500.0 5707500.0 3805.89990234375
  vertex 705500.0 5707500.0 3487.89990234375
 endloop
endfacet
facet normal 0.2398170530796051 0.023777907714247704 -0.9705268740653992
 outer loop
  vertex 705500.0 5708500.0 3583.300048828125
  vertex 706500.0 5708500.0 3830.39990234375
  vertex 706500.0 5707500.0 3805.89990234375
 endloop
endfacet
facet normal -0.06663135439157486 0.024438219144940376 -0.9974783062934875
 outer loop
  vertex 706500.0 5708500.0 3830.39990234375
  vertex 707500.0 5707500.0 3739.10009765625
  vertex 706500.0 5707500.0 3805.89990234375
 endloop
endfacet
facet normal -0.07468070089817047 0.01635190285742283 -0.9970734119415283
 outer loop
  vertex 706500.0 5708500.0 3830.39990234375
  vertex 707500.0 5708500.0 3755.5
  vertex 707500.0 5707500.0 3739.10009765625
 endloop
endfacet
facet normal -0.08052681386470795 0.016344444826245308 -0.996618390083313
 outer loop
  vertex 707500.0 5708500.0 3755.5
  vertex 708500.0 5707500.0 3658.300048828125
  vertex 707500.0 5707500.0 3739.10009765625
 endloop
endfacet
facet normal -0.04898452013731003 0.04798663407564163 -0.9976460933685303
 outer loop
  vertex 707500.0 5708500.0 3755.5
  vertex 708500.0 5708500.0 3706.39990234375
  vertex 708500.0 5707500.0 3658.300048828125
 endloop
endfacet
facet normal -0.04191463440656662 0.04800208657979965 -0.9979674816131592
 outer loop
  vertex 708500.0 5708500.0 3706.39990234375
  vertex 709500.0 5707500.0 3616.300048828125
  vertex 708500.0 5707500.0 3658.300048828125
 endloop
endfacet
facet normal -0.033927079290151596 0.05597953498363495 -0.9978553056716919
 outer loop
  vertex 708500.0 5708500.0 3706.39990234375
  vertex 709500.0 5708500.0 3672.39990234375
  vertex 709500.0 5707500.0 3616.300048828125
 endloop
endfacet
facet normal -0.027745725587010384 0.05599021539092064 -0.9980456829071045
 outer loop
  vertex 709500.0 5708500.0 3672.39990234375
  vertex 710500.0 5707500.0 3588.5
  vertex 709500.0 5707500.0 3616.300048828125
 endloop
endfacet
facet normal -0.056089963763952255 0.027645740658044815 -0.9980428814888
 outer loop
  vertex 709500.0 5708500.0 3672.39990234375
  vertex 710500.0 5708500.0 3616.199951171875
  vertex 710500.0 5707500.0 3588.5
 endloop
endfacet
facet normal 0.0414484366774559 0.027665534988045692 -0.998757541179657
 outer loop
  vertex 710500.0 5708500.0 3616.199951171875
  vertex 711500.0 5707500.0 3630.0
  vertex 710500.0 5707500.0 3588.5
 endloop
endfacet
facet normal 0.01909634657204151 0.0052990079857409 -0.9998036026954651
 outer loop
  vertex 710500.0 5708500.0 3616.199951171875
  vertex 711500.0 5708500.0 3635.300048828125
  vertex 711500.0 5707500.0 3630.0
 endloop
endfacet
facet normal -0.0004999929224140942 0.005299973767250776 -0.9999858736991882
 outer loop
  vertex 711500.0 5708500.0 3635.300048828125
  vertex 712500.0 5707500.0 3629.5
  vertex 711500.0 5707500.0 3630.0
 endloop
endfacet
facet normal -0.0056000095792114735 0.00019994803005829453 -0.9999843239784241
 outer loop
  vertex 711500.0 5708500.0 3635.300048828125
  vertex 712500.0 5708500.0 3629.699951171875
  vertex 712500.0 5707500.0 3629.5
 endloop
endfacet
facet normal -0.03835994005203247 0.024674490094184875 -0.9989593625068665
 outer loop
  vertex 698500.0 5709500.0 3734.5
  vertex 699500.0 5709500.0 3696.10009765625
  vertex 699500.0 5708500.0 3671.39990234375
 endloop
endfacet
facet normal 0.18470880389213562 0.024267785251140594 -0.9824936389923096
 outer loop
  vertex 699500.0 5709500.0 3696.10009765625
  vertex 700500.0 5708500.0 3859.39990234375
  vertex 699500.0 5708500.0 3671.39990234375
 endloop
endfacet
facet normal -0.06295622140169144 -0.2218543291091919 -0.973045289516449
 outer loop
  vertex 699500.0 5709500.0 3696.10009765625
  vertex 700500.0 5709500.0 3631.39990234375
  vertex 700500.0 5708500.0 3859.39990234375
 endloop
endfacet
facet normal -0.23340962827205658 -0.21615518629550934 -0.9480490684509277
 outer loop
  vertex 700500.0 5709500.0 3631.39990234375
  vertex 701500.0 5708500.0 3613.199951171875
  vertex 700500.0 5708500.0 3859.39990234375
 endloop
endfacet
facet normal 0.047741346061229706 0.06588096171617508 -0.996684730052948
 outer loop
  vertex 700500.0 5709500.0 3631.39990234375
  vertex 701500.0 5709500.0 3679.300048828125
  vertex 701500.0 5708500.0 3613.199951171875
 endloop
endfacet
facet normal 0.038288429379463196 0.0659077987074852 -0.9970908761024475
 outer loop
  vertex 701500.0 5709500.0 3679.300048828125
  vertex 702500.0 5708500.0 3651.60009765625
  vertex 701500.0 5708500.0 3613.199951171875
 endloop
endfacet
facet normal 0.02714904211461544 0.05479714646935463 -0.9981282949447632
 outer loop
  vertex 701500.0 5709500.0 3679.300048828125
  vertex 702500.0 5709500.0 3706.5
  vertex 702500.0 5708500.0 3651.60009765625
 endloop
endfacet
facet normal -0.14057642221450806 0.054273009300231934 -0.988581120967865
 outer loop
  vertex 702500.0 5709500.0 3706.5
  vertex 703500.0 5708500.0 3509.39990234375
  vertex 702500.0 5708500.0 3651.60009765625
 endloop
endfacet
facet normal -0.07046667486429214 0.1246035173535347 -0.9897011518478394
 outer loop
  vertex 702500.0 5709500.0 3706.5
  vertex 703500.0 5709500.0 3635.300048828125
  vertex 703500.0 5708500.0 3509.39990234375
 endloop
endfacet
facet normal -0.09501465409994125 0.12434891611337662 -0.9876788854598999
 outer loop
  vertex 703500.0 5709500.0 3635.300048828125
  vertex 704500.0 5708500.0 3413.199951171875
  vertex 703500.0 5708500.0 3509.39990234375
 endloop
endfacet
facet normal -0.2139289677143097 0.0030283096712082624 -0.9768445491790771
 outer loop
  vertex 703500.0 5709500.0 3635.300048828125
  vertex 704500.0 5709500.0 3416.300048828125
  vertex 704500.0 5708500.0 3413.199951171875
 endloop
endfacet
facet normal 0.16769061982631683 0.003056184621527791 -0.9858349561691284
 outer loop
  vertex 704500.0 5709500.0 3416.300048828125
  vertex 705500.0 5708500.0 3583.300048828125
  vertex 704500.0 5708500.0 3413.199951171875
 endloop
endfacet
facet normal 0.19648154079914093 0.03282858803868294 -0.9799578189849854
 outer loop
  vertex 704500.0 5709500.0 3416.300048828125
  vertex 705500.0 5709500.0 3616.800048828125
  vertex 705500.0 5708500.0 3583.300048828125
 endloop
endfacet
facet normal 0.23975810408592224 0.03250465914607048 -0.9702883362770081
 outer loop
  vertex 705500.0 5709500.0 3616.800048828125
  vertex 706500.0 5708500.0 3830.39990234375
  vertex 705500.0 5708500.0 3583.300048828125
 endloop
endfacet
facet normal 0.24536366760730743 0.038456302136182785 -0.9686680436134338
 outer loop
  vertex 705500.0 5709500.0 3616.800048828125
  vertex 706500.0 5709500.0 3870.10009765625
  vertex 706500.0 5708500.0 3830.39990234375
 endloop
endfacet
facet normal -0.07463221997022629 0.03955831378698349 -0.9964261651039124
 outer loop
  vertex 706500.0 5709500.0 3870.10009765625
  vertex 707500.0 5708500.0 3755.5
  vertex 706500.0 5708500.0 3830.39990234375
 endloop
endfacet
facet normal -0.07691770792007446 0.03726304695010185 -0.9963408708572388
 outer loop
  vertex 706500.0 5709500.0 3870.10009765625
  vertex 707500.0 5709500.0 3792.89990234375
  vertex 707500.0 5708500.0 3755.5
 endloop
endfacet
facet normal -0.04900684207677841 0.037328869104385376 -0.9981006979942322
 outer loop
  vertex 707500.0 5709500.0 3792.89990234375
  vertex 708500.0 5708500.0 3706.39990234375
  vertex 707500.0 5708500.0 3755.5
 endloop
endfacet
facet normal 0.016510317102074623 0.10254248976707458 -0.9945915937423706
 outer loop
  vertex 707500.0 5709500.0 3792.89990234375
  vertex 708500.0 5709500.0 3809.5
  vertex 708500.0 5708500.0 3706.39990234375
 endloop
endfacet
facet normal -0.033801399171352386 0.10249786078929901 -0.9941587448120117
 outer loop
  vertex 708500.0 5709500.0 3809.5
  vertex 709500.0 5708500.0 3672.39990234375
  vertex 708500.0 5708500.0 3706.39990234375
 endloop
endfacet
facet normal -0.11146619915962219 0.024737300351262093 -0.9934602975845337
 outer loop
  vertex 708500.0 5709500.0 3809.5
  vertex 709500.0 5709500.0 3697.300048828125
  vertex 709500.0 5708500.0 3672.39990234375
 endloop
endfacet
facet normal -0.05609407275915146 0.024853236973285675 -0.998116135597229
 outer loop
  vertex 709500.0 5709500.0 3697.300048828125
  vertex 710500.0 5708500.0 3616.199951171875
  vertex 709500.0 5708500.0 3672.39990234375
 endloop
endfacet
facet normal -0.03828668221831322 -0.06650327891111374 -0.9970514178276062
 outer loop
  vertex 698500.0 5710500.0 3667.800048828125
  vertex 699500.0 5709500.0 3696.10009765625
  vertex 698500.0 5709500.0 3734.5
 endloop
endfacet
facet normal 0.01069768238812685 -0.01759636588394642 -0.9997879266738892
 outer loop
  vertex 698500.0 5710500.0 3667.800048828125
  vertex 699500.0 5710500.0 3678.5
  vertex 699500.0 5709500.0 3696.10009765625
 endloop
endfacet
facet normal -0.06455524265766144 -0.017560666427016258 -0.9977595806121826
 outer loop
  vertex 699500.0 5710500.0 3678.5
  vertex 700500.0 5709500.0 3631.39990234375
  vertex 699500.0 5709500.0 3696.10009765625
 endloop
endfacet
facet normal -0.13126763701438904 -0.08474602550268173 -0.9877180457115173
 outer loop
  vertex 699500.0 5710500.0 3678.5
  vertex 700500.0 5710500.0 3545.60009765625
  vertex 700500.0 5709500.0 3631.39990234375
 endloop
endfacet
facet normal 0.047670550644397736 -0.08538854122161865 -0.9952067136764526
 outer loop
  vertex 700500.0 5710500.0 3545.60009765625
  vertex 701500.0 5709500.0 3679.300048828125
  vertex 700500.0 5709500.0 3631.39990234375
 endloop
endfacet
facet normal -0.07455965131521225 -0.20503874123096466 -0.9759097695350647
 outer loop
  vertex 700500.0 5710500.0 3545.60009765625
  vertex 701500.0 5710500.0 3469.199951171875
  vertex 701500.0 5709500.0 3679.300048828125
 endloop
endfacet
facet normal 0.02660936862230301 -0.20553824305534363 -0.9782872796058655
 outer loop
  vertex 701500.0 5710500.0 3469.199951171875
  vertex 702500.0 5709500.0 3706.5
  vertex 701500.0 5709500.0 3679.300048828125
 endloop
endfacet
facet normal 0.02248370461165905 -0.20948952436447144 -0.9775524139404297
 outer loop
  vertex 701500.0 5710500.0 3469.199951171875
  vertex 702500.0 5710500.0 3492.199951171875
  vertex 702500.0 5709500.0 3706.5
 endloop
endfacet
facet normal -0.06945117563009262 -0.20903651416301727 -0.9754385352134705
 outer loop
  vertex 702500.0 5710500.0 3492.199951171875
  vertex 703500.0 5709500.0 3635.300048828125
  vertex 702500.0 5709500.0 3706.5
 endloop
endfacet
facet normal 0.04165104776620865 -0.1005983054637909 -0.994054913520813
 outer loop
  vertex 702500.0 5710500.0 3492.199951171875
  vertex 703500.0 5710500.0 3534.10009765625
  vertex 703500.0 5709500.0 3635.300048828125
 endloop
endfacet
facet normal -0.21289218962192535 -0.0983775332570076 -0.9721104502677917
 outer loop
  vertex 703500.0 5710500.0 3534.10009765625
  vertex 704500.0 5709500.0 3416.300048828125
  vertex 703500.0 5709500.0 3635.300048828125
 endloop
endfacet
facet normal -0.1221761703491211 -0.005260267294943333 -0.992494523525238
 outer loop
  vertex 703500.0 5710500.0 3534.10009765625
  vertex 704500.0 5710500.0 3411.0
  vertex 704500.0 5709500.0 3416.300048828125
 endloop
endfacet
facet normal 0.19658483564853668 -0.0051965550519526005 -0.9804730415344238
 outer loop
  vertex 704500.0 5710500.0 3411.0
  vertex 705500.0 5709500.0 3616.800048828125
  vertex 704500.0 5709500.0 3416.300048828125
 endloop
endfacet
facet normal 0.1525897979736328 -0.050534188747406006 -0.9869968295097351
 outer loop
  vertex 704500.0 5710500.0 3411.0
  vertex 705500.0 5710500.0 3565.60009765625
  vertex 705500.0 5709500.0 3616.800048828125
 endloop
endfacet
facet normal 0.24524341523647308 -0.049571454524993896 -0.9681933522224426
 outer loop
  vertex 705500.0 5710500.0 3565.60009765625
  vertex 706500.0 5709500.0 3870.10009765625
  vertex 705500.0 5709500.0 3616.800048828125
 endloop
endfacet
facet normal 0.19978076219558716 -0.09711172431707382 -0.9750163555145264
 outer loop
  vertex 705500.0 5710500.0 3565.60009765625
  vertex 706500.0 5710500.0 3770.5
  vertex 706500.0 5709500.0 3870.10009765625
 endloop
endfacet
facet normal -0.07659441977739334 -0.09881856292486191 -0.9921532869338989
 outer loop
  vertex 706500.0 5710500.0 3770.5
  vertex 707500.0 5709500.0 3792.89990234375
  vertex 706500.0 5709500.0 3870.10009765625
 endloop
endfacet
facet normal -0.007896032184362411 -0.030284961685538292 -0.9995101094245911
 outer loop
  vertex 706500.0 5710500.0 3770.5
  vertex 707500.0 5710500.0 3762.60009765625
  vertex 707500.0 5709500.0 3792.89990234375
 endloop
endfacet
facet normal 0.016590198501944542 -0.030281735584139824 -0.9994036555290222
 outer loop
  vertex 707500.0 5710500.0 3762.60009765625
  vertex 708500.0 5709500.0 3809.5
  vertex 707500.0 5709500.0 3792.89990234375
 endloop
endfacet
facet normal -0.027712160721421242 -0.07446379214525223 -0.9968385696411133
 outer loop
  vertex 707500.0 5710500.0 3762.60009765625
  vertex 708500.0 5710500.0 3734.800048828125
  vertex 708500.0 5709500.0 3809.5
 endloop
endfacet
facet normal -0.11119435727596283 -0.07403045147657394 -0.9910374879837036
 outer loop
  vertex 708500.0 5710500.0 3734.800048828125
  vertex 709500.0 5709500.0 3697.300048828125
  vertex 708500.0 5709500.0 3809.5
 endloop
endfacet
facet normal -0.07849003374576569 -0.041137564927339554 -0.9960657954216003
 outer loop
  vertex 708500.0 5710500.0 3734.800048828125
  vertex 709500.0 5710500.0 3656.0
  vertex 709500.0 5709500.0 3697.300048828125
 endloop
endfacet
facet normal -0.13174155354499817 -0.0002974336384795606 -0.9912840723991394
 outer loop
  vertex 699500.0 5711500.0 3678.199951171875
  vertex 700500.0 5710500.0 3545.60009765625
  vertex 699500.0 5710500.0 3678.5
 endloop
endfacet
facet normal -0.05714475363492966 0.0748656839132309 -0.9955549240112305
 outer loop
  vertex 699500.0 5711500.0 3678.199951171875
  vertex 700500.0 5711500.0 3620.800048828125
  vertex 700500.0 5710500.0 3545.60009765625
 endloop
endfacet
facet normal -0.07596489787101746 0.07477154582738876 -0.9943031072616577
 outer loop
  vertex 700500.0 5711500.0 3620.800048828125
  vertex 701500.0 5710500.0 3469.199951171875
  vertex 700500.0 5710500.0 3545.60009765625
 endloop
endfacet
facet normal -0.06512004137039185 0.08560064435005188 -0.9941991567611694
 outer loop
  vertex 700500.0 5711500.0 3620.800048828125
  vertex 701500.0 5711500.0 3555.300048828125
  vertex 701500.0 5710500.0 3469.199951171875
 endloop
endfacet
facet normal 0.022909201681613922 0.0857602059841156 -0.9960523843765259
 outer loop
  vertex 701500.0 5711500.0 3555.300048828125
  vertex 702500.0 5710500.0 3492.199951171875
  vertex 701500.0 5710500.0 3469.199951171875
 endloop
endfacet
facet normal -0.1444617360830307 -0.0822395607829094 -0.986086905002594
 outer loop
  vertex 701500.0 5711500.0 3555.300048828125
  vertex 702500.0 5711500.0 3408.800048828125
  vertex 702500.0 5710500.0 3492.199951171875
 endloop
endfacet
facet normal 0.041718825697898865 -0.08303900808095932 -0.9956727027893066
 outer loop
  vertex 702500.0 5711500.0 3408.800048828125
  vertex 703500.0 5710500.0 3534.10009765625
  vertex 702500.0 5710500.0 3492.199951171875
 endloop
endfacet
facet normal 0.0006945800269022584 -0.12364396452903748 -0.9923263788223267
 outer loop
  vertex 702500.0 5711500.0 3408.800048828125
  vertex 703500.0 5711500.0 3409.5
  vertex 703500.0 5710500.0 3534.10009765625
 endloop
endfacet
facet normal -0.12125417590141296 -0.12273167818784714 -0.985004723072052
 outer loop
  vertex 703500.0 5711500.0 3409.5
  vertex 704500.0 5710500.0 3411.0
  vertex 703500.0 5710500.0 3534.10009765625
 endloop
endfacet
facet normal 0.03466000780463219 0.03316173329949379 -0.9988488554954529
 outer loop
  vertex 703500.0 5711500.0 3409.5
  vertex 704500.0 5711500.0 3444.199951171875
  vertex 704500.0 5710500.0 3411.0
 endloop
endfacet
facet normal 0.15270283818244934 0.03279252350330353 -0.9877279996871948
 outer loop
  vertex 704500.0 5711500.0 3444.199951171875
  vertex 705500.0 5710500.0 3565.60009765625
  vertex 704500.0 5710500.0 3411.0
 endloop
endfacet
facet normal 0.3312443494796753 0.21985068917274475 -0.917574405670166
 outer loop
  vertex 704500.0 5711500.0 3444.199951171875
  vertex 705500.0 5711500.0 3805.199951171875
  vertex 705500.0 5710500.0 3565.60009765625
 endloop
endfacet
facet normal 0.19541840255260468 0.22851265966892242 -0.9537261724472046
 outer loop
  vertex 705500.0 5711500.0 3805.199951171875
  vertex 706500.0 5710500.0 3770.5
  vertex 705500.0 5710500.0 3565.60009765625
 endloop
endfacet
facet normal -0.05391142889857292 -0.019268391653895378 -0.9983597993850708
 outer loop
  vertex 705500.0 5711500.0 3805.199951171875
  vertex 706500.0 5711500.0 3751.199951171875
  vertex 706500.0 5710500.0 3770.5
 endloop
endfacet
facet normal -0.007898185402154922 -0.01929585263133049 -0.9997826218605042
 outer loop
  vertex 706500.0 5711500.0 3751.199951171875
  vertex 707500.0 5710500.0 3762.60009765625
  vertex 706500.0 5710500.0 3770.5
 endloop
endfacet
facet normal -0.04349286109209061 -0.0548650361597538 -0.9975460767745972
 outer loop
  vertex 706500.0 5711500.0 3751.199951171875
  vertex 707500.0 5711500.0 3707.60009765625
  vertex 707500.0 5710500.0 3762.60009765625
 endloop
endfacet
facet normal -0.02774740941822529 -0.054895855486392975 -0.9981064796447754
 outer loop
  vertex 707500.0 5711500.0 3707.60009765625
  vertex 708500.0 5710500.0 3734.800048828125
  vertex 707500.0 5710500.0 3762.60009765625
 endloop
endfacet
facet normal -0.013587537221610546 -0.040762368589639664 -0.9990764856338501
 outer loop
  vertex 707500.0 5711500.0 3707.60009765625
  vertex 708500.0 5711500.0 3694.0
  vertex 708500.0 5710500.0 3734.800048828125
 endloop
endfacet
facet normal -0.07849162817001343 -0.04064035788178444 -0.996086061000824
 outer loop
  vertex 708500.0 5711500.0 3694.0
  vertex 709500.0 5710500.0 3656.0
  vertex 708500.0 5710500.0 3734.800048828125
 endloop
endfacet
facet normal -0.0551004484295845 -0.274734765291214 -0.9599399566650391
 outer loop
  vertex 699500.0 5712500.0 3392.0
  vertex 700500.0 5711500.0 3620.800048828125
  vertex 699500.0 5711500.0 3678.199951171875
 endloop
endfacet
facet normal 0.005074574612081051 -0.21820884943008423 -0.9758889079093933
 outer loop
  vertex 699500.0 5712500.0 3392.0
  vertex 700500.0 5712500.0 3397.199951171875
  vertex 700500.0 5711500.0 3620.800048828125
 endloop
endfacet
facet normal -0.06379134953022003 -0.21776720881462097 -0.9739137887954712
 outer loop
  vertex 700500.0 5712500.0 3397.199951171875
  vertex 701500.0 5711500.0 3555.300048828125
  vertex 700500.0 5711500.0 3620.800048828125
 endloop
endfacet
facet normal 0.3392961323261261 0.03881702199578285 -0.9398784637451172
 outer loop
  vertex 704500.0 5712500.0 3485.5
  vertex 705500.0 5711500.0 3805.199951171875
  vertex 704500.0 5711500.0 3444.199951171875
 endloop
endfacet
facet normal 0.0974046066403389 -0.21337644755840302 -0.9721022844314575
 outer loop
  vertex 704500.0 5712500.0 3485.5
  vertex 705500.0 5712500.0 3585.699951171875
  vertex 705500.0 5711500.0 3805.199951171875
 endloop
endfacet
facet normal -0.05267111584544182 -0.21409831941127777 -0.9753910303115845
 outer loop
  vertex 705500.0 5712500.0 3585.699951171875
  vertex 706500.0 5711500.0 3751.199951171875
  vertex 705500.0 5711500.0 3805.199951171875
 endloop
endfacet
facet normal 0.3193359375 0.16489377617835999 -0.9331852197647095
 outer loop
  vertex 705500.0 5712500.0 3585.699951171875
  vertex 706500.0 5712500.0 3927.89990234375
  vertex 706500.0 5711500.0 3751.199951171875
 endloop
endfacet
facet normal -0.04289522022008896 0.17384421825408936 -0.9838384985923767
 outer loop
  vertex 706500.0 5712500.0 3927.89990234375
  vertex 707500.0 5711500.0 3707.60009765625
  vertex 706500.0 5711500.0 3751.199951171875
 endloop
endfacet
facet normal -0.11865720897912979 0.0989963561296463 -0.9879879951477051
 outer loop
  vertex 706500.0 5712500.0 3927.89990234375
  vertex 707500.0 5712500.0 3807.800048828125
  vertex 707500.0 5711500.0 3707.60009765625
 endloop
endfacet
facet normal -0.013531091623008251 0.09969157725572586 -0.994926393032074
 outer loop
  vertex 707500.0 5712500.0 3807.800048828125
  vertex 708500.0 5711500.0 3694.0
  vertex 707500.0 5711500.0 3707.60009765625
 endloop
endfacet
facet normal -0.11911769956350327 0.0458223782479763 -0.9918221831321716
 outer loop
  vertex 706500.0 5713500.0 3974.10009765625
  vertex 707500.0 5712500.0 3807.800048828125
  vertex 706500.0 5712500.0 3927.89990234375
 endloop
endfacet
facet normal -0.054481592029333115 0.11055058985948563 -0.9923760890960693
 outer loop
  vertex 706500.0 5713500.0 3974.10009765625
  vertex 707500.0 5713500.0 3919.199951171875
  vertex 707500.0 5712500.0 3807.800048828125
 endloop
endfacet
endsolid
