solid
facet normal -0.022393567487597466 0.007997737266123295 -0.9997171759605408
 outer loop
  vertex 624500.0 5798500.0 3798.89990234375
  vertex 625500.0 5798500.0 3776.5
  vertex 625500.0 5797500.0 3768.5
 endloop
endfacet
facet normal 0.045402348041534424 -0.1906307488679886 -0.980611264705658
 outer loop
  vertex 623500.0 5799500.0 3558.199951171875
  vertex 624500.0 5799500.0 3604.5
  vertex 624500.0 5798500.0 3798.89990234375
 endloop
endfacet
facet normal -0.021982962265610695 -0.19078141450881958 -0.9813863635063171
 outer loop
  vertex 624500.0 5799500.0 3604.5
  vertex 625500.0 5798500.0 3776.5
  vertex 624500.0 5798500.0 3798.89990234375
 endloop
endfacet
facet normal 0.026413271203637123 -0.1437399536371231 -0.9892629384994507
 outer loop
  vertex 624500.0 5799500.0 3604.5
  vertex 625500.0 5799500.0 3631.199951171875
  vertex 625500.0 5798500.0 3776.5
 endloop
endfacet
facet normal 0.026207637041807175 0.18934306502342224 -0.9815611839294434
 outer loop
  vertex 624500.0 5800500.0 3797.39990234375
  vertex 625500.0 5799500.0 3631.199951171875
  vertex 624500.0 5799500.0 3604.5
 endloop
endfacet
facet normal 0.04804152250289917 0.21032744646072388 -0.9764498472213745
 outer loop
  vertex 624500.0 5800500.0 3797.39990234375
  vertex 625500.0 5800500.0 3846.60009765625
  vertex 625500.0 5799500.0 3631.199951171875
 endloop
endfacet
facet normal 0.07758081704378128 0.20993593335151672 -0.9746322631835938
 outer loop
  vertex 625500.0 5800500.0 3846.60009765625
  vertex 626500.0 5799500.0 3710.800048828125
  vertex 625500.0 5799500.0 3631.199951171875
 endloop
endfacet
facet normal -0.010020734742283821 0.1247122511267662 -0.992142379283905
 outer loop
  vertex 625500.0 5800500.0 3846.60009765625
  vertex 626500.0 5800500.0 3836.5
  vertex 626500.0 5799500.0 3710.800048828125
 endloop
endfacet
facet normal 0.06335169076919556 0.02554030530154705 -0.9976643919944763
 outer loop
  vertex 619500.0 5801500.0 3497.800048828125
  vertex 620500.0 5801500.0 3561.300048828125
  vertex 620500.0 5800500.0 3535.699951171875
 endloop
endfacet
facet normal 0.10301516950130463 0.02545555867254734 -0.9943540096282959
 outer loop
  vertex 620500.0 5801500.0 3561.300048828125
  vertex 621500.0 5800500.0 3639.300048828125
  vertex 620500.0 5800500.0 3535.699951171875
 endloop
endfacet
facet normal 0.08103225380182266 0.0032891768496483564 -0.9967060685157776
 outer loop
  vertex 620500.0 5801500.0 3561.300048828125
  vertex 621500.0 5801500.0 3642.60009765625
  vertex 621500.0 5800500.0 3639.300048828125
 endloop
endfacet
facet normal 0.010492396540939808 -0.03657335042953491 -0.9992759227752686
 outer loop
  vertex 623500.0 5801500.0 3750.300048828125
  vertex 624500.0 5801500.0 3760.800048828125
  vertex 624500.0 5800500.0 3797.39990234375
 endloop
endfacet
facet normal 0.049107953906059265 -0.0365312360227108 -0.9981251955032349
 outer loop
  vertex 624500.0 5801500.0 3760.800048828125
  vertex 625500.0 5800500.0 3846.60009765625
  vertex 624500.0 5800500.0 3797.39990234375
 endloop
endfacet
facet normal 0.1009688451886177 0.0156177943572402 -0.9947669506072998
 outer loop
  vertex 624500.0 5801500.0 3760.800048828125
  vertex 625500.0 5801500.0 3862.300048828125
  vertex 625500.0 5800500.0 3846.60009765625
 endloop
endfacet
facet normal -0.01009833812713623 0.015697216615080833 -0.9998257756233215
 outer loop
  vertex 625500.0 5801500.0 3862.300048828125
  vertex 626500.0 5800500.0 3836.5
  vertex 625500.0 5800500.0 3846.60009765625
 endloop
endfacet
facet normal 0.0892416462302208 0.11476758122444153 -0.9893757104873657
 outer loop
  vertex 625500.0 5801500.0 3862.300048828125
  vertex 626500.0 5801500.0 3952.5
  vertex 626500.0 5800500.0 3836.5
 endloop
endfacet
facet normal 0.12913644313812256 0.11426252126693726 -0.9850217700004578
 outer loop
  vertex 626500.0 5801500.0 3952.5
  vertex 627500.0 5800500.0 3967.60009765625
  vertex 626500.0 5800500.0 3836.5
 endloop
endfacet
facet normal 0.007362252566963434 0.19063322246074677 -0.981633722782135
 outer loop
  vertex 617500.0 5802500.0 3660.89990234375
  vertex 618500.0 5801500.0 3474.199951171875
  vertex 617500.0 5801500.0 3466.699951171875
 endloop
endfacet
facet normal 0.06300412118434906 0.2436930537223816 -0.9678038358688354
 outer loop
  vertex 617500.0 5802500.0 3660.89990234375
  vertex 618500.0 5802500.0 3726.0
  vertex 618500.0 5801500.0 3474.199951171875
 endloop
endfacet
facet normal 0.022879736497998238 0.2441142350435257 -0.9694765210151672
 outer loop
  vertex 618500.0 5802500.0 3726.0
  vertex 619500.0 5801500.0 3497.800048828125
  vertex 618500.0 5801500.0 3474.199951171875
 endloop
endfacet
facet normal -0.08998934924602509 0.13518144190311432 -0.9867258071899414
 outer loop
  vertex 618500.0 5802500.0 3726.0
  vertex 619500.0 5802500.0 3634.800048828125
  vertex 619500.0 5801500.0 3497.800048828125
 endloop
endfacet
facet normal 0.0627882108092308 0.13546432554721832 -0.9887906908988953
 outer loop
  vertex 619500.0 5802500.0 3634.800048828125
  vertex 620500.0 5801500.0 3561.300048828125
  vertex 619500.0 5801500.0 3497.800048828125
 endloop
endfacet
facet normal -0.028859419748187065 0.044537000358104706 -0.9985908269882202
 outer loop
  vertex 619500.0 5802500.0 3634.800048828125
  vertex 620500.0 5802500.0 3605.89990234375
  vertex 620500.0 5801500.0 3561.300048828125
 endloop
endfacet
facet normal 0.08095274120569229 0.04440932720899582 -0.9957281351089478
 outer loop
  vertex 620500.0 5802500.0 3605.89990234375
  vertex 621500.0 5801500.0 3642.60009765625
  vertex 620500.0 5801500.0 3561.300048828125
 endloop
endfacet
facet normal 0.16160328686237335 0.12568040192127228 -0.9788200855255127
 outer loop
  vertex 620500.0 5802500.0 3605.89990234375
  vertex 621500.0 5802500.0 3771.0
  vertex 621500.0 5801500.0 3642.60009765625
 endloop
endfacet
facet normal 0.015867719426751137 0.12733834981918335 -0.9917324185371399
 outer loop
  vertex 621500.0 5802500.0 3771.0
  vertex 622500.0 5801500.0 3658.60009765625
  vertex 621500.0 5801500.0 3642.60009765625
 endloop
endfacet
facet normal 0.0075457459315657616 0.1191418319940567 -0.9928485751152039
 outer loop
  vertex 621500.0 5802500.0 3771.0
  vertex 622500.0 5802500.0 3778.60009765625
  vertex 622500.0 5801500.0 3658.60009765625
 endloop
endfacet
facet normal 0.09067172557115555 0.11865444481372833 -0.988787055015564
 outer loop
  vertex 622500.0 5802500.0 3778.60009765625
  vertex 623500.0 5801500.0 3750.300048828125
  vertex 622500.0 5801500.0 3658.60009765625
 endloop
endfacet
facet normal 0.03560447692871094 0.06382883340120316 -0.9973255395889282
 outer loop
  vertex 622500.0 5802500.0 3778.60009765625
  vertex 623500.0 5802500.0 3814.300048828125
  vertex 623500.0 5801500.0 3750.300048828125
 endloop
endfacet
facet normal 0.010477986186742783 0.06386582553386688 -0.9979034662246704
 outer loop
  vertex 623500.0 5802500.0 3814.300048828125
  vertex 624500.0 5801500.0 3760.800048828125
  vertex 623500.0 5801500.0 3750.300048828125
 endloop
endfacet
facet normal 0.07389101386070251 0.1268116533756256 -0.9891707897186279
 outer loop
  vertex 623500.0 5802500.0 3814.300048828125
  vertex 624500.0 5802500.0 3889.0
  vertex 624500.0 5801500.0 3760.800048828125
 endloop
endfacet
facet normal 0.10016968846321106 0.12651969492435455 -0.9868934750556946
 outer loop
  vertex 624500.0 5802500.0 3889.0
  vertex 625500.0 5801500.0 3862.300048828125
  vertex 624500.0 5801500.0 3760.800048828125
 endloop
endfacet
facet normal 0.06911393254995346 0.09562738239765167 -0.993014931678772
 outer loop
  vertex 624500.0 5802500.0 3889.0
  vertex 625500.0 5802500.0 3958.60009765625
  vertex 625500.0 5801500.0 3862.300048828125
 endloop
endfacet
facet normal 0.08942487835884094 0.0954725593328476 -0.9914071559906006
 outer loop
  vertex 625500.0 5802500.0 3958.60009765625
  vertex 626500.0 5801500.0 3952.5
  vertex 625500.0 5801500.0 3862.300048828125
 endloop
endfacet
facet normal 0.03477098420262337 0.07860814034938812 -0.9962989687919617
 outer loop
  vertex 616500.0 5803500.0 3704.89990234375
  vertex 617500.0 5803500.0 3739.800048828125
  vertex 617500.0 5802500.0 3660.89990234375
 endloop
endfacet
facet normal 0.0647621750831604 0.07849058508872986 -0.994809091091156
 outer loop
  vertex 617500.0 5803500.0 3739.800048828125
  vertex 618500.0 5802500.0 3726.0
  vertex 617500.0 5802500.0 3660.89990234375
 endloop
endfacet
facet normal -0.07208811491727829 -0.05834754556417465 -0.9956901669502258
 outer loop
  vertex 617500.0 5803500.0 3739.800048828125
  vertex 618500.0 5803500.0 3667.39990234375
  vertex 618500.0 5802500.0 3726.0
 endloop
endfacet
facet normal -0.09066876769065857 -0.0582587830722332 -0.9941755533218384
 outer loop
  vertex 618500.0 5803500.0 3667.39990234375
  vertex 619500.0 5802500.0 3634.800048828125
  vertex 618500.0 5802500.0 3726.0
 endloop
endfacet
facet normal 0.09469066560268402 0.12687936425209045 -0.9873880743980408
 outer loop
  vertex 618500.0 5803500.0 3667.39990234375
  vertex 619500.0 5803500.0 3763.300048828125
  vertex 619500.0 5802500.0 3634.800048828125
 endloop
endfacet
facet normal -0.028652682900428772 0.1273997277021408 -0.9914374947547913
 outer loop
  vertex 619500.0 5803500.0 3763.300048828125
  vertex 620500.0 5802500.0 3605.89990234375
  vertex 619500.0 5802500.0 3634.800048828125
 endloop
endfacet
facet normal 0.00414612703025341 0.15952911972999573 -0.9871845841407776
 outer loop
  vertex 619500.0 5803500.0 3763.300048828125
  vertex 620500.0 5803500.0 3767.5
  vertex 620500.0 5802500.0 3605.89990234375
 endloop
endfacet
facet normal 0.16086305677890778 0.15745286643505096 -0.9743365049362183
 outer loop
  vertex 620500.0 5803500.0 3767.5
  vertex 621500.0 5802500.0 3771.0
  vertex 620500.0 5802500.0 3605.89990234375
 endloop
endfacet
facet normal -0.016794219613075256 -0.02029300481081009 -0.9996529817581177
 outer loop
  vertex 620500.0 5803500.0 3767.5
  vertex 621500.0 5803500.0 3750.699951171875
  vertex 621500.0 5802500.0 3771.0
 endloop
endfacet
facet normal 0.00759831303730607 -0.0202952828258276 -0.999765157699585
 outer loop
  vertex 621500.0 5803500.0 3750.699951171875
  vertex 622500.0 5802500.0 3778.60009765625
  vertex 621500.0 5802500.0 3771.0
 endloop
endfacet
facet normal 0.06759121268987656 0.0397770032286644 -0.9969198703765869
 outer loop
  vertex 621500.0 5803500.0 3750.699951171875
  vertex 622500.0 5803500.0 3818.5
  vertex 622500.0 5802500.0 3778.60009765625
 endloop
endfacet
facet normal 0.0356488972902298 0.039842840284109116 -0.9985698461532593
 outer loop
  vertex 622500.0 5803500.0 3818.5
  vertex 623500.0 5802500.0 3814.300048828125
  vertex 622500.0 5802500.0 3778.60009765625
 endloop
endfacet
facet normal 0.03315851464867592 0.03735322505235672 -0.9987518787384033
 outer loop
  vertex 622500.0 5803500.0 3818.5
  vertex 623500.0 5803500.0 3851.699951171875
  vertex 623500.0 5802500.0 3814.300048828125
 endloop
endfacet
facet normal 0.07444065064191818 0.03727007657289505 -0.9965287446975708
 outer loop
  vertex 623500.0 5803500.0 3851.699951171875
  vertex 624500.0 5802500.0 3889.0
  vertex 623500.0 5802500.0 3814.300048828125
 endloop
endfacet
facet normal 0.03417980670928955 -0.0030982675962150097 -0.9994109272956848
 outer loop
  vertex 623500.0 5803500.0 3851.699951171875
  vertex 624500.0 5803500.0 3885.89990234375
  vertex 624500.0 5802500.0 3889.0
 endloop
endfacet
facet normal 0.06943179666996002 -0.003092601429671049 -0.9975818991661072
 outer loop
  vertex 624500.0 5803500.0 3885.89990234375
  vertex 625500.0 5802500.0 3958.60009765625
  vertex 624500.0 5802500.0 3889.0
 endloop
endfacet
facet normal -0.021499481052160263 -0.09386184066534042 -0.9953530430793762
 outer loop
  vertex 624500.0 5803500.0 3885.89990234375
  vertex 625500.0 5803500.0 3864.300048828125
  vertex 625500.0 5802500.0 3958.60009765625
 endloop
endfacet
facet normal 0.06593384593725204 -0.12473953515291214 -0.9899963140487671
 outer loop
  vertex 614500.0 5804500.0 3378.699951171875
  vertex 615500.0 5804500.0 3445.300048828125
  vertex 615500.0 5803500.0 3571.300048828125
 endloop
endfacet
facet normal 0.13140246272087097 -0.12392760813236237 -0.9835523962974548
 outer loop
  vertex 615500.0 5804500.0 3445.300048828125
  vertex 616500.0 5803500.0 3704.89990234375
  vertex 615500.0 5803500.0 3571.300048828125
 endloop
endfacet
facet normal 0.18411555886268616 -0.07039115577936172 -0.9803807735443115
 outer loop
  vertex 615500.0 5804500.0 3445.300048828125
  vertex 616500.0 5804500.0 3633.10009765625
  vertex 616500.0 5803500.0 3704.89990234375
 endloop
endfacet
facet normal 0.03478946536779404 -0.07157209515571594 -0.996828556060791
 outer loop
  vertex 616500.0 5804500.0 3633.10009765625
  vertex 617500.0 5803500.0 3739.800048828125
  vertex 616500.0 5803500.0 3704.89990234375
 endloop
endfacet
facet normal -0.13047347962856293 -0.23329105973243713 -0.9636140465736389
 outer loop
  vertex 616500.0 5804500.0 3633.10009765625
  vertex 617500.0 5804500.0 3497.699951171875
  vertex 617500.0 5803500.0 3739.800048828125
 endloop
endfacet
facet normal -0.07019373774528503 -0.2347220629453659 -0.9695248603820801
 outer loop
  vertex 617500.0 5804500.0 3497.699951171875
  vertex 618500.0 5803500.0 3667.39990234375
  vertex 617500.0 5803500.0 3739.800048828125
 endloop
endfacet
facet normal 0.05067925527691841 -0.11762311309576035 -0.9917643070220947
 outer loop
  vertex 617500.0 5804500.0 3497.699951171875
  vertex 618500.0 5804500.0 3548.800048828125
  vertex 618500.0 5803500.0 3667.39990234375
 endloop
endfacet
facet normal 0.09480378776788712 -0.11724398285150528 -0.9885677099227905
 outer loop
  vertex 618500.0 5804500.0 3548.800048828125
  vertex 619500.0 5803500.0 3763.300048828125
  vertex 618500.0 5803500.0 3667.39990234375
 endloop
endfacet
facet normal 0.1231546625494957 -0.08885742723941803 -0.9884013533592224
 outer loop
  vertex 618500.0 5804500.0 3548.800048828125
  vertex 619500.0 5804500.0 3673.39990234375
  vertex 619500.0 5803500.0 3763.300048828125
 endloop
endfacet
facet normal 0.004183038603514433 -0.08953826129436493 -0.995974600315094
 outer loop
  vertex 619500.0 5804500.0 3673.39990234375
  vertex 620500.0 5803500.0 3767.5
  vertex 619500.0 5803500.0 3763.300048828125
 endloop
endfacet
facet normal -0.01113767921924591 -0.10471457242965698 -0.994439959526062
 outer loop
  vertex 619500.0 5804500.0 3673.39990234375
  vertex 620500.0 5804500.0 3662.199951171875
  vertex 620500.0 5803500.0 3767.5
 endloop
endfacet
facet normal -0.016705341637134552 -0.10470645129680634 -0.9943628311157227
 outer loop
  vertex 620500.0 5804500.0 3662.199951171875
  vertex 621500.0 5803500.0 3750.699951171875
  vertex 620500.0 5803500.0 3767.5
 endloop
endfacet
facet normal 0.0850900188088417 -0.003088594414293766 -0.9963684678077698
 outer loop
  vertex 620500.0 5804500.0 3662.199951171875
  vertex 621500.0 5804500.0 3747.60009765625
  vertex 621500.0 5803500.0 3750.699951171875
 endloop
endfacet
facet normal 0.06764443218708038 -0.0030927385669201612 -0.9977047443389893
 outer loop
  vertex 621500.0 5804500.0 3747.60009765625
  vertex 622500.0 5803500.0 3818.5
  vertex 621500.0 5803500.0 3750.699951171875
 endloop
endfacet
facet normal 0.03295840695500374 -0.03785213828086853 -0.9987396597862244
 outer loop
  vertex 621500.0 5804500.0 3747.60009765625
  vertex 622500.0 5804500.0 3780.60009765625
  vertex 622500.0 5803500.0 3818.5
 endloop
endfacet
facet normal 0.03315788879990578 -0.03785188868641853 -0.9987331032752991
 outer loop
  vertex 622500.0 5804500.0 3780.60009765625
  vertex 623500.0 5803500.0 3851.699951171875
  vertex 622500.0 5803500.0 3818.5
 endloop
endfacet
facet normal -0.14656396210193634 -0.21521134674549103 -0.9655066728591919
 outer loop
  vertex 622500.0 5804500.0 3780.60009765625
  vertex 623500.0 5804500.0 3628.800048828125
  vertex 623500.0 5803500.0 3851.699951171875
 endloop
endfacet
facet normal 0.03336217254400253 -0.21743963658809662 -0.9755034446716309
 outer loop
  vertex 623500.0 5804500.0 3628.800048828125
  vertex 624500.0 5803500.0 3885.89990234375
  vertex 623500.0 5803500.0 3851.699951171875
 endloop
endfacet
facet normal 0.1200275868177414 -0.132915660738945 -0.9838326573371887
 outer loop
  vertex 623500.0 5804500.0 3628.800048828125
  vertex 624500.0 5804500.0 3750.800048828125
  vertex 624500.0 5803500.0 3885.89990234375
 endloop
endfacet
facet normal -0.021400494500994682 -0.13385289907455444 -0.9907701015472412
 outer loop
  vertex 624500.0 5804500.0 3750.800048828125
  vertex 625500.0 5803500.0 3864.300048828125
  vertex 624500.0 5803500.0 3885.89990234375
 endloop
endfacet
facet normal 0.06239709258079529 -0.05073528364300728 -0.9967610239982605
 outer loop
  vertex 624500.0 5804500.0 3750.800048828125
  vertex 625500.0 5804500.0 3813.39990234375
  vertex 625500.0 5803500.0 3864.300048828125
 endloop
endfacet
facet normal -0.023463157936930656 -0.05082034319639206 -0.9984321594238281
 outer loop
  vertex 625500.0 5804500.0 3813.39990234375
  vertex 626500.0 5803500.0 3840.800048828125
  vertex 625500.0 5803500.0 3864.300048828125
 endloop
endfacet
facet normal -0.04909615218639374 -0.07638311386108398 -0.9958691000938416
 outer loop
  vertex 625500.0 5804500.0 3813.39990234375
  vertex 626500.0 5804500.0 3764.10009765625
  vertex 626500.0 5803500.0 3840.800048828125
 endloop
endfacet
facet normal -0.17171317338943481 -0.09394700825214386 -0.9806572198867798
 outer loop
  vertex 613500.0 5805500.0 3458.0
  vertex 614500.0 5804500.0 3378.699951171875
  vertex 613500.0 5804500.0 3553.800048828125
 endloop
endfacet
facet normal -0.08202236890792847 -0.0029898779466748238 -0.9966259598731995
 outer loop
  vertex 613500.0 5805500.0 3458.0
  vertex 614500.0 5805500.0 3375.699951171875
  vertex 614500.0 5804500.0 3378.699951171875
 endloop
endfacet
facet normal 0.06645258516073227 -0.0029933552723377943 -0.9977850914001465
 outer loop
  vertex 614500.0 5805500.0 3375.699951171875
  vertex 615500.0 5804500.0 3445.300048828125
  vertex 614500.0 5804500.0 3378.699951171875
 endloop
endfacet
facet normal 0.09267385303974152 0.023392409086227417 -0.9954217076301575
 outer loop
  vertex 614500.0 5805500.0 3375.699951171875
  vertex 615500.0 5805500.0 3468.800048828125
  vertex 615500.0 5804500.0 3445.300048828125
 endloop
endfacet
facet normal 0.18452419340610504 0.02309008128941059 -0.9825567007064819
 outer loop
  vertex 615500.0 5805500.0 3468.800048828125
  vertex 616500.0 5804500.0 3633.10009765625
  vertex 615500.0 5804500.0 3445.300048828125
 endloop
endfacet
facet normal 0.10868823528289795 -0.054393794387578964 -0.992586612701416
 outer loop
  vertex 615500.0 5805500.0 3468.800048828125
  vertex 616500.0 5805500.0 3578.300048828125
  vertex 616500.0 5804500.0 3633.10009765625
 endloop
endfacet
facet normal -0.13397838175296783 -0.05422462522983551 -0.9894996285438538
 outer loop
  vertex 616500.0 5805500.0 3578.300048828125
  vertex 617500.0 5804500.0 3497.699951171875
  vertex 616500.0 5804500.0 3633.10009765625
 endloop
endfacet
facet normal -0.0014953275676816702 0.07885370403528214 -0.9968850612640381
 outer loop
  vertex 616500.0 5805500.0 3578.300048828125
  vertex 617500.0 5805500.0 3576.800048828125
  vertex 617500.0 5804500.0 3497.699951171875
 endloop
endfacet
facet normal 0.05087501183152199 0.07875167578458786 -0.9955952167510986
 outer loop
  vertex 617500.0 5805500.0 3576.800048828125
  vertex 618500.0 5804500.0 3548.800048828125
  vertex 617500.0 5804500.0 3497.699951171875
 endloop
endfacet
facet normal 0.00239878729917109 0.030385779216885567 -0.9995353817939758
 outer loop
  vertex 617500.0 5805500.0 3576.800048828125
  vertex 618500.0 5805500.0 3579.199951171875
  vertex 618500.0 5804500.0 3548.800048828125
 endloop
endfacet
facet normal 0.12358754873275757 0.03015291877090931 -0.9918754696846008
 outer loop
  vertex 618500.0 5805500.0 3579.199951171875
  vertex 619500.0 5804500.0 3673.39990234375
  vertex 618500.0 5804500.0 3548.800048828125
 endloop
endfacet
facet normal 0.0985172688961029 0.004776641260832548 -0.9951238632202148
 outer loop
  vertex 618500.0 5805500.0 3579.199951171875
  vertex 619500.0 5805500.0 3678.199951171875
  vertex 619500.0 5804500.0 3673.39990234375
 endloop
endfacet
facet normal -0.011199119500815868 0.004799692425876856 -0.9999257326126099
 outer loop
  vertex 619500.0 5805500.0 3678.199951171875
  vertex 620500.0 5804500.0 3662.199951171875
  vertex 619500.0 5804500.0 3673.39990234375
 endloop
endfacet
facet normal -0.01969599537551403 -0.0036992081440985203 -0.9997991919517517
 outer loop
  vertex 619500.0 5805500.0 3678.199951171875
  vertex 620500.0 5805500.0 3658.5
  vertex 620500.0 5804500.0 3662.199951171875
 endloop
endfacet
facet normal 0.08508983254432678 -0.0036865072324872017 -0.9963664412498474
 outer loop
  vertex 620500.0 5805500.0 3658.5
  vertex 621500.0 5804500.0 3747.60009765625
  vertex 620500.0 5804500.0 3662.199951171875
 endloop
endfacet
facet normal -0.03865498676896095 -0.12696684896945953 -0.9911534786224365
 outer loop
  vertex 620500.0 5805500.0 3658.5
  vertex 621500.0 5805500.0 3619.5
  vertex 621500.0 5804500.0 3747.60009765625
 endloop
endfacet
facet normal 0.03271500766277313 -0.1269938051700592 -0.9913638830184937
 outer loop
  vertex 621500.0 5805500.0 3619.5
  vertex 622500.0 5804500.0 3780.60009765625
  vertex 621500.0 5804500.0 3747.60009765625
 endloop
endfacet
facet normal 0.008303364738821983 -0.150945246219635 -0.9885072708129883
 outer loop
  vertex 621500.0 5805500.0 3619.5
  vertex 622500.0 5805500.0 3627.89990234375
  vertex 622500.0 5804500.0 3780.60009765625
 endloop
endfacet
facet normal -0.14839908480644226 -0.14927905797958374 -0.9775957465171814
 outer loop
  vertex 622500.0 5805500.0 3627.89990234375
  vertex 623500.0 5804500.0 3628.800048828125
  vertex 622500.0 5804500.0 3780.60009765625
 endloop
endfacet
facet normal 0.07910604029893875 0.0782114788889885 -0.9937933087348938
 outer loop
  vertex 622500.0 5805500.0 3627.89990234375
  vertex 623500.0 5805500.0 3707.5
  vertex 623500.0 5804500.0 3628.800048828125
 endloop
endfacet
facet normal 0.12073423713445663 0.07788342982530594 -0.9896249175071716
 outer loop
  vertex 623500.0 5805500.0 3707.5
  vertex 624500.0 5804500.0 3750.800048828125
  vertex 623500.0 5804500.0 3628.800048828125
 endloop
endfacet
facet normal -0.015272065065801144 -0.05849291384220123 -0.9981709718704224
 outer loop
  vertex 623500.0 5805500.0 3707.5
  vertex 624500.0 5805500.0 3692.199951171875
  vertex 624500.0 5804500.0 3750.800048828125
 endloop
endfacet
facet normal 0.06237097829580307 -0.05838584527373314 -0.9963437914848328
 outer loop
  vertex 624500.0 5805500.0 3692.199951171875
  vertex 625500.0 5804500.0 3813.39990234375
  vertex 624500.0 5804500.0 3750.800048828125
 endloop
endfacet
facet normal -0.08553221821784973 -0.20373639464378357 -0.9752823710441589
 outer loop
  vertex 624500.0 5805500.0 3692.199951171875
  vertex 625500.0 5805500.0 3604.5
  vertex 625500.0 5804500.0 3813.39990234375
 endloop
endfacet
facet normal -0.04820198938250542 -0.2042480707168579 -0.9777317047119141
 outer loop
  vertex 625500.0 5805500.0 3604.5
  vertex 626500.0 5804500.0 3764.10009765625
  vertex 625500.0 5804500.0 3813.39990234375
 endloop
endfacet
facet normal -0.05051848664879799 -0.20647133886814117 -0.97714763879776
 outer loop
  vertex 625500.0 5805500.0 3604.5
  vertex 626500.0 5805500.0 3552.800048828125
  vertex 626500.0 5804500.0 3764.10009765625
 endloop
endfacet
facet normal -0.01239640824496746 0.02119356021285057 -0.9996985197067261
 outer loop
  vertex 612500.0 5806500.0 3491.60009765625
  vertex 613500.0 5806500.0 3479.199951171875
  vertex 613500.0 5805500.0 3458.0
 endloop
endfacet
facet normal -0.08200442790985107 0.021123802289366722 -0.9964080452919006
 outer loop
  vertex 613500.0 5806500.0 3479.199951171875
  vertex 614500.0 5805500.0 3375.699951171875
  vertex 613500.0 5805500.0 3458.0
 endloop
endfacet
facet normal -0.013543984852731228 0.0895308330655098 -0.9958919286727905
 outer loop
  vertex 613500.0 5806500.0 3479.199951171875
  vertex 614500.0 5806500.0 3465.60009765625
  vertex 614500.0 5805500.0 3375.699951171875
 endloop
endfacet
facet normal 0.09233006089925766 0.08915657550096512 -0.9917289018630981
 outer loop
  vertex 614500.0 5806500.0 3465.60009765625
  vertex 615500.0 5805500.0 3468.800048828125
  vertex 614500.0 5805500.0 3375.699951171875
 endloop
endfacet
facet normal 0.12428484857082367 0.12113345414400101 -0.9848248362541199
 outer loop
  vertex 614500.0 5806500.0 3465.60009765625
  vertex 615500.0 5806500.0 3591.800048828125
  vertex 615500.0 5805500.0 3468.800048828125
 endloop
endfacet
facet normal 0.10804475098848343 0.12136533856391907 -0.9867100715637207
 outer loop
  vertex 615500.0 5806500.0 3591.800048828125
  vertex 616500.0 5805500.0 3578.300048828125
  vertex 615500.0 5805500.0 3468.800048828125
 endloop
endfacet
facet normal 0.049936454743146896 0.06339242309331894 -0.9967385530471802
 outer loop
  vertex 615500.0 5806500.0 3591.800048828125
  vertex 616500.0 5806500.0 3641.89990234375
  vertex 616500.0 5805500.0 3578.300048828125
 endloop
endfacet
facet normal -0.0014969737967476249 0.06347154080867767 -0.9979825019836426
 outer loop
  vertex 616500.0 5806500.0 3641.89990234375
  vertex 617500.0 5805500.0 3576.800048828125
  vertex 616500.0 5805500.0 3578.300048828125
 endloop
endfacet
facet normal 0.10819586366415024 0.1719382405281067 -0.9791480898857117
 outer loop
  vertex 616500.0 5806500.0 3641.89990234375
  vertex 617500.0 5806500.0 3752.39990234375
  vertex 617500.0 5805500.0 3576.800048828125
 endloop
endfacet
facet normal 0.0023637330159544945 0.17295308411121368 -0.984927237033844
 outer loop
  vertex 617500.0 5806500.0 3752.39990234375
  vertex 618500.0 5805500.0 3579.199951171875
  vertex 617500.0 5805500.0 3576.800048828125
 endloop
endfacet
facet normal -0.1270327866077423 0.0445903055369854 -0.990895688533783
 outer loop
  vertex 617500.0 5806500.0 3752.39990234375
  vertex 618500.0 5806500.0 3624.199951171875
  vertex 618500.0 5805500.0 3579.199951171875
 endloop
endfacet
facet normal 0.09841975569725037 0.04473625123500824 -0.9941389560699463
 outer loop
  vertex 618500.0 5806500.0 3624.199951171875
  vertex 619500.0 5805500.0 3678.199951171875
  vertex 618500.0 5805500.0 3579.199951171875
 endloop
endfacet
facet normal 0.025281552225351334 -0.02867896854877472 -0.9992688894271851
 outer loop
  vertex 618500.0 5806500.0 3624.199951171875
  vertex 619500.0 5806500.0 3649.5
  vertex 619500.0 5805500.0 3678.199951171875
 endloop
endfacet
facet normal -0.01968802697956562 -0.02868257835507393 -0.9993946552276611
 outer loop
  vertex 619500.0 5806500.0 3649.5
  vertex 620500.0 5805500.0 3658.5
  vertex 619500.0 5805500.0 3678.199951171875
 endloop
endfacet
facet normal -0.008098647929728031 -0.01709703728556633 -0.9998210072517395
 outer loop
  vertex 619500.0 5806500.0 3649.5
  vertex 620500.0 5806500.0 3641.39990234375
  vertex 620500.0 5805500.0 3658.5
 endloop
endfacet
facet normal -0.038964688777923584 -0.01708461530506611 -0.999094545841217
 outer loop
  vertex 620500.0 5806500.0 3641.39990234375
  vertex 621500.0 5805500.0 3619.5
  vertex 620500.0 5805500.0 3658.5
 endloop
endfacet
facet normal -0.1434856355190277 -0.12197759002447128 -0.9821065664291382
 outer loop
  vertex 620500.0 5806500.0 3641.39990234375
  vertex 621500.0 5806500.0 3495.300048828125
  vertex 621500.0 5805500.0 3619.5
 endloop
endfacet
facet normal 0.008335569873452187 -0.12324868142604828 -0.9923408031463623
 outer loop
  vertex 621500.0 5806500.0 3495.300048828125
  vertex 622500.0 5805500.0 3627.89990234375
  vertex 621500.0 5805500.0 3619.5
 endloop
endfacet
facet normal -0.0864713191986084 -0.21544842422008514 -0.9726791381835938
 outer loop
  vertex 621500.0 5806500.0 3495.300048828125
  vertex 622500.0 5806500.0 3406.39990234375
  vertex 622500.0 5805500.0 3627.89990234375
 endloop
endfacet
facet normal 0.07748280465602875 -0.21560831367969513 -0.9734009504318237
 outer loop
  vertex 622500.0 5806500.0 3406.39990234375
  vertex 623500.0 5805500.0 3707.5
  vertex 622500.0 5805500.0 3627.89990234375
 endloop
endfacet
facet normal 0.16388027369976044 -0.1305370181798935 -0.9778054356575012
 outer loop
  vertex 622500.0 5806500.0 3406.39990234375
  vertex 623500.0 5806500.0 3574.0
  vertex 623500.0 5805500.0 3707.5
 endloop
endfacet
facet normal -0.015163757838308811 -0.13231082260608673 -0.9910922646522522
 outer loop
  vertex 623500.0 5806500.0 3574.0
  vertex 624500.0 5805500.0 3692.199951171875
  vertex 623500.0 5805500.0 3707.5
 endloop
endfacet
facet normal -0.006449909880757332 -0.12373899668455124 -0.9922938346862793
 outer loop
  vertex 623500.0 5806500.0 3574.0
  vertex 624500.0 5806500.0 3567.5
  vertex 624500.0 5805500.0 3692.199951171875
 endloop
endfacet
facet normal -0.0866982489824295 -0.12327563762664795 -0.9885780215263367
 outer loop
  vertex 624500.0 5806500.0 3567.5
  vertex 625500.0 5805500.0 3604.5
  vertex 624500.0 5805500.0 3692.199951171875
 endloop
endfacet
facet normal -0.003097593318670988 -0.040067702531814575 -0.9991921782493591
 outer loop
  vertex 624500.0 5806500.0 3567.5
  vertex 625500.0 5806500.0 3564.39990234375
  vertex 625500.0 5805500.0 3604.5
 endloop
endfacet
facet normal -0.05158964917063713 -0.040014542639255524 -0.9978664517402649
 outer loop
  vertex 625500.0 5806500.0 3564.39990234375
  vertex 626500.0 5805500.0 3552.800048828125
  vertex 625500.0 5805500.0 3604.5
 endloop
endfacet
facet normal -0.03437064588069916 -0.022780656814575195 -0.9991495013237
 outer loop
  vertex 625500.0 5806500.0 3564.39990234375
  vertex 626500.0 5806500.0 3530.0
  vertex 626500.0 5805500.0 3552.800048828125
 endloop
endfacet
facet normal -0.012310595251619816 -0.11933211237192154 -0.9927780628204346
 outer loop
  vertex 612500.0 5807500.0 3371.39990234375
  vertex 613500.0 5806500.0 3479.199951171875
  vertex 612500.0 5806500.0 3491.60009765625
 endloop
endfacet
facet normal 0.06261345744132996 -0.04486629739403725 -0.9970288276672363
 outer loop
  vertex 612500.0 5807500.0 3371.39990234375
  vertex 613500.0 5807500.0 3434.199951171875
  vertex 613500.0 5806500.0 3479.199951171875
 endloop
endfacet
facet normal -0.01358485035598278 -0.04495035856962204 -0.9988968372344971
 outer loop
  vertex 613500.0 5807500.0 3434.199951171875
  vertex 614500.0 5806500.0 3465.60009765625
  vertex 613500.0 5806500.0 3479.199951171875
 endloop
endfacet
facet normal 0.03148438408970833 9.980401227949187e-05 -0.9995042681694031
 outer loop
  vertex 613500.0 5807500.0 3434.199951171875
  vertex 614500.0 5807500.0 3465.699951171875
  vertex 614500.0 5806500.0 3465.60009765625
 endloop
endfacet
facet normal 0.1252068430185318 9.906773630063981e-05 -0.992130696773529
 outer loop
  vertex 614500.0 5807500.0 3465.699951171875
  vertex 615500.0 5806500.0 3591.800048828125
  vertex 614500.0 5806500.0 3465.60009765625
 endloop
endfacet
facet normal -0.049279846251010895 -0.17331600189208984 -0.9836326241493225
 outer loop
  vertex 614500.0 5807500.0 3465.699951171875
  vertex 615500.0 5807500.0 3415.60009765625
  vertex 615500.0 5806500.0 3591.800048828125
 endloop
endfacet
facet normal 0.04927985370159149 -0.17331601679325104 -0.9836326241493225
 outer loop
  vertex 615500.0 5807500.0 3415.60009765625
  vertex 616500.0 5806500.0 3641.89990234375
  vertex 615500.0 5806500.0 3591.800048828125
 endloop
endfacet
facet normal 0.15687602758407593 -0.06612037122249603 -0.9854024648666382
 outer loop
  vertex 615500.0 5807500.0 3415.60009765625
  vertex 616500.0 5807500.0 3574.800048828125
  vertex 616500.0 5806500.0 3641.89990234375
 endloop
endfacet
facet normal 0.10958804935216904 -0.06654607504606247 -0.9917469620704651
 outer loop
  vertex 616500.0 5807500.0 3574.800048828125
  vertex 617500.0 5806500.0 3752.39990234375
  vertex 616500.0 5806500.0 3641.89990234375
 endloop
endfacet
facet normal 0.015793118625879288 -0.15951035916805267 -0.9870699644088745
 outer loop
  vertex 616500.0 5807500.0 3574.800048828125
  vertex 617500.0 5807500.0 3590.800048828125
  vertex 617500.0 5806500.0 3752.39990234375
 endloop
endfacet
facet normal -0.1255565732717514 -0.1582678109407425 -0.9793808460235596
 outer loop
  vertex 617500.0 5807500.0 3590.800048828125
  vertex 618500.0 5806500.0 3624.199951171875
  vertex 617500.0 5806500.0 3752.39990234375
 endloop
endfacet
facet normal -0.056480079889297485 -0.08969184011220932 -0.9943667650222778
 outer loop
  vertex 617500.0 5807500.0 3590.800048828125
  vertex 618500.0 5807500.0 3534.0
  vertex 618500.0 5806500.0 3624.199951171875
 endloop
endfacet
facet normal 0.025189753621816635 -0.08980673551559448 -0.9956405758857727
 outer loop
  vertex 618500.0 5807500.0 3534.0
  vertex 619500.0 5806500.0 3649.5
  vertex 618500.0 5806500.0 3624.199951171875
 endloop
endfacet
facet normal 0.06488057971000671 -0.05022995546460152 -0.9966280460357666
 outer loop
  vertex 618500.0 5807500.0 3534.0
  vertex 619500.0 5807500.0 3599.10009765625
  vertex 619500.0 5806500.0 3649.5
 endloop
endfacet
facet normal -0.008089564740657806 -0.05033436417579651 -0.9986996054649353
 outer loop
  vertex 619500.0 5807500.0 3599.10009765625
  vertex 620500.0 5806500.0 3641.39990234375
  vertex 619500.0 5806500.0 3649.5
 endloop
endfacet
facet normal -0.20307037234306335 -0.24319104850292206 -0.9484833478927612
 outer loop
  vertex 619500.0 5807500.0 3599.10009765625
  vertex 620500.0 5807500.0 3385.0
  vertex 620500.0 5806500.0 3641.39990234375
 endloop
endfacet
facet normal -0.14012570679187775 -0.2459155023097992 -0.9591091871261597
 outer loop
  vertex 620500.0 5807500.0 3385.0
  vertex 621500.0 5806500.0 3495.300048828125
  vertex 620500.0 5806500.0 3641.39990234375
 endloop
endfacet
facet normal -0.0009938626317307353 -0.11061695218086243 -0.9938625693321228
 outer loop
  vertex 620500.0 5807500.0 3385.0
  vertex 621500.0 5807500.0 3384.0
  vertex 621500.0 5806500.0 3495.300048828125
 endloop
endfacet
facet normal -0.08801170438528061 -0.11018775403499603 -0.9900063872337341
 outer loop
  vertex 621500.0 5807500.0 3384.0
  vertex 622500.0 5806500.0 3406.39990234375
  vertex 621500.0 5806500.0 3495.300048828125
 endloop
endfacet
facet normal 0.013498235493898392 -0.008898738771677017 -0.9998692870140076
 outer loop
  vertex 621500.0 5807500.0 3384.0
  vertex 622500.0 5807500.0 3397.5
  vertex 622500.0 5806500.0 3406.39990234375
 endloop
endfacet
facet normal 0.16528825461864471 -0.008777138777077198 -0.9862062335014343
 outer loop
  vertex 622500.0 5807500.0 3397.5
  vertex 623500.0 5806500.0 3574.0
  vertex 622500.0 5806500.0 3406.39990234375
 endloop
endfacet
facet normal 0.005026730243116617 -0.16893422603607178 -0.9856144785881042
 outer loop
  vertex 622500.0 5807500.0 3397.5
  vertex 623500.0 5807500.0 3402.60009765625
  vertex 623500.0 5806500.0 3574.0
 endloop
endfacet
facet normal -0.006406444124877453 -0.16893289983272552 -0.9856067299842834
 outer loop
  vertex 623500.0 5807500.0 3402.60009765625
  vertex 624500.0 5806500.0 3567.5
  vertex 623500.0 5806500.0 3574.0
 endloop
endfacet
facet normal 0.1466756910085678 -0.016418296843767166 -0.9890483617782593
 outer loop
  vertex 623500.0 5807500.0 3402.60009765625
  vertex 624500.0 5807500.0 3550.89990234375
  vertex 624500.0 5806500.0 3567.5
 endloop
endfacet
facet normal -0.003099655732512474 -0.016597731038928032 -0.999857485294342
 outer loop
  vertex 624500.0 5807500.0 3550.89990234375
  vertex 625500.0 5806500.0 3564.39990234375
  vertex 624500.0 5806500.0 3567.5
 endloop
endfacet
facet normal -0.03274713456630707 -0.04622545465826988 -0.9983941316604614
 outer loop
  vertex 624500.0 5807500.0 3550.89990234375
  vertex 625500.0 5807500.0 3518.10009765625
  vertex 625500.0 5806500.0 3564.39990234375
 endloop
endfacet
facet normal -0.034342821687459946 -0.046222977340221405 -0.9983406066894531
 outer loop
  vertex 625500.0 5807500.0 3518.10009765625
  vertex 626500.0 5806500.0 3530.0
  vertex 625500.0 5806500.0 3564.39990234375
 endloop
endfacet
facet normal 0.07936534285545349 0.06753022968769073 -0.9945555925369263
 outer loop
  vertex 625500.0 5807500.0 3518.10009765625
  vertex 626500.0 5807500.0 3597.89990234375
  vertex 626500.0 5806500.0 3530.0
 endloop
endfacet
facet normal 0.10320699214935303 0.06738216429948807 -0.9923748970031738
 outer loop
  vertex 626500.0 5807500.0 3597.89990234375
  vertex 627500.0 5806500.0 3634.0
  vertex 626500.0 5806500.0 3530.0
 endloop
endfacet
facet normal -0.0603075809776783 -0.09617432206869125 -0.9935358762741089
 outer loop
  vertex 626500.0 5807500.0 3597.89990234375
  vertex 627500.0 5807500.0 3537.199951171875
  vertex 627500.0 5806500.0 3634.0
 endloop
endfacet
facet normal 0.046234164386987686 -0.09624665230512619 -0.994283139705658
 outer loop
  vertex 627500.0 5807500.0 3537.199951171875
  vertex 628500.0 5806500.0 3680.5
  vertex 627500.0 5806500.0 3634.0
 endloop
endfacet
facet normal 0.039258621633052826 -0.10316573828458786 -0.9938891530036926
 outer loop
  vertex 627500.0 5807500.0 3537.199951171875
  vertex 628500.0 5807500.0 3576.699951171875
  vertex 628500.0 5806500.0 3680.5
 endloop
endfacet
facet normal 0.06265123933553696 -0.028432467952370644 -0.9976304173469543
 outer loop
  vertex 612500.0 5808500.0 3342.89990234375
  vertex 613500.0 5807500.0 3434.199951171875
  vertex 612500.0 5807500.0 3371.39990234375
 endloop
endfacet
facet normal -0.0060710120014846325 -0.09693937003612518 -0.9952718019485474
 outer loop
  vertex 612500.0 5808500.0 3342.89990234375
  vertex 613500.0 5808500.0 3336.800048828125
  vertex 613500.0 5807500.0 3434.199951171875
 endloop
endfacet
facet normal 0.03133624047040939 -0.0968935489654541 -0.9948012828826904
 outer loop
  vertex 613500.0 5808500.0 3336.800048828125
  vertex 614500.0 5807500.0 3465.699951171875
  vertex 613500.0 5807500.0 3434.199951171875
 endloop
endfacet
facet normal -0.07386486977338791 -0.19980618357658386 -0.977047324180603
 outer loop
  vertex 613500.0 5808500.0 3336.800048828125
  vertex 614500.0 5808500.0 3261.199951171875
  vertex 614500.0 5807500.0 3465.699951171875
 endloop
endfacet
facet normal -0.049024999141693115 -0.20011258125305176 -0.978545606136322
 outer loop
  vertex 614500.0 5808500.0 3261.199951171875
  vertex 615500.0 5807500.0 3415.60009765625
  vertex 614500.0 5807500.0 3465.699951171875
 endloop
endfacet
facet normal 0.02011587657034397 -0.1328834742307663 -0.990927517414093
 outer loop
  vertex 614500.0 5808500.0 3261.199951171875
  vertex 615500.0 5808500.0 3281.5
  vertex 615500.0 5807500.0 3415.60009765625
 endloop
endfacet
facet normal 0.15585927665233612 -0.13128609955310822 -0.9790157079696655
 outer loop
  vertex 615500.0 5808500.0 3281.5
  vertex 616500.0 5807500.0 3574.800048828125
  vertex 615500.0 5807500.0 3415.60009765625
 endloop
endfacet
facet normal 0.06697843223810196 -0.21855594217777252 -0.9735230803489685
 outer loop
  vertex 615500.0 5808500.0 3281.5
  vertex 616500.0 5808500.0 3350.300048828125
  vertex 616500.0 5807500.0 3574.800048828125
 endloop
endfacet
facet normal 0.015609524212777615 -0.21902112662792206 -0.975595235824585
 outer loop
  vertex 616500.0 5808500.0 3350.300048828125
  vertex 617500.0 5807500.0 3590.800048828125
  vertex 616500.0 5807500.0 3574.800048828125
 endloop
endfacet
facet normal 0.023744594305753708 -0.21125802397727966 -0.9771418571472168
 outer loop
  vertex 616500.0 5808500.0 3350.300048828125
  vertex 617500.0 5808500.0 3374.60009765625
  vertex 617500.0 5807500.0 3590.800048828125
 endloop
endfacet
facet normal -0.055431999266147614 -0.2109927088022232 -0.9759146571159363
 outer loop
  vertex 617500.0 5808500.0 3374.60009765625
  vertex 618500.0 5807500.0 3534.0
  vertex 617500.0 5807500.0 3590.800048828125
 endloop
endfacet
facet normal -0.03676866739988327 -0.19305993616580963 -0.9804978370666504
 outer loop
  vertex 617500.0 5808500.0 3374.60009765625
  vertex 618500.0 5808500.0 3337.10009765625
  vertex 618500.0 5807500.0 3534.0
 endloop
endfacet
facet normal 0.06374379247426987 -0.19279766082763672 -0.9791658520698547
 outer loop
  vertex 618500.0 5808500.0 3337.10009765625
  vertex 619500.0 5807500.0 3599.10009765625
  vertex 618500.0 5807500.0 3534.0
 endloop
endfacet
facet normal 0.1801433116197586 -0.07678406685590744 -0.980638861656189
 outer loop
  vertex 618500.0 5808500.0 3337.10009765625
  vertex 619500.0 5808500.0 3520.800048828125
  vertex 619500.0 5807500.0 3599.10009765625
 endloop
endfacet
facet normal -0.2087446004152298 -0.07634145021438599 -0.9749860167503357
 outer loop
  vertex 619500.0 5808500.0 3520.800048828125
  vertex 620500.0 5807500.0 3385.0
  vertex 619500.0 5807500.0 3599.10009765625
 endloop
endfacet
facet normal -0.17528358101844788 -0.04170599952340126 -0.9836342334747314
 outer loop
  vertex 619500.0 5808500.0 3520.800048828125
  vertex 620500.0 5808500.0 3342.60009765625
  vertex 620500.0 5807500.0 3385.0
 endloop
endfacet
facet normal -0.0009991017868742347 -0.04236181825399399 -0.9991018176078796
 outer loop
  vertex 620500.0 5808500.0 3342.60009765625
  vertex 621500.0 5807500.0 3384.0
  vertex 620500.0 5807500.0 3385.0
 endloop
endfacet
facet normal -0.08441933989524841 -0.12534376978874207 -0.9885151982307434
 outer loop
  vertex 620500.0 5808500.0 3342.60009765625
  vertex 621500.0 5808500.0 3257.199951171875
  vertex 621500.0 5807500.0 3384.0
 endloop
endfacet
facet normal 0.013391561806201935 -0.12578153610229492 -0.9919675588607788
 outer loop
  vertex 621500.0 5808500.0 3257.199951171875
  vertex 622500.0 5807500.0 3397.5
  vertex 621500.0 5807500.0 3384.0
 endloop
endfacet
facet normal 0.13222569227218628 -0.006839159410446882 -0.9911960363388062
 outer loop
  vertex 621500.0 5808500.0 3257.199951171875
  vertex 622500.0 5808500.0 3390.60009765625
  vertex 622500.0 5807500.0 3397.5
 endloop
endfacet
facet normal 0.005099909845739603 -0.00689964834600687 -0.9999631643295288
 outer loop
  vertex 622500.0 5808500.0 3390.60009765625
  vertex 623500.0 5807500.0 3402.60009765625
  vertex 622500.0 5807500.0 3397.5
 endloop
endfacet
facet normal 0.011599072255194187 -0.00040011951932683587 -0.9999326467514038
 outer loop
  vertex 622500.0 5808500.0 3390.60009765625
  vertex 623500.0 5808500.0 3402.199951171875
  vertex 623500.0 5807500.0 3402.60009765625
 endloop
endfacet
facet normal 0.14669544994831085 -0.00039581756573170424 -0.989181637763977
 outer loop
  vertex 623500.0 5808500.0 3402.199951171875
  vertex 624500.0 5807500.0 3550.89990234375
  vertex 623500.0 5807500.0 3402.60009765625
 endloop
endfacet
facet normal -0.019029872491955757 -0.1656482219696045 -0.9860013127326965
 outer loop
  vertex 623500.0 5808500.0 3402.199951171875
  vertex 624500.0 5808500.0 3382.89990234375
  vertex 624500.0 5807500.0 3550.89990234375
 endloop
endfacet
facet normal -0.032329607754945755 -0.16559161245822906 -0.9856643676757812
 outer loop
  vertex 624500.0 5808500.0 3382.89990234375
  vertex 625500.0 5807500.0 3518.10009765625
  vertex 624500.0 5807500.0 3550.89990234375
 endloop
endfacet
facet normal 0.04238050803542137 -0.09212277084589005 -0.9948453307151794
 outer loop
  vertex 624500.0 5808500.0 3382.89990234375
  vertex 625500.0 5808500.0 3425.5
  vertex 625500.0 5807500.0 3518.10009765625
 endloop
endfacet
facet normal 0.07921019941568375 -0.09191589802503586 -0.992611289024353
 outer loop
  vertex 625500.0 5808500.0 3425.5
  vertex 626500.0 5807500.0 3597.89990234375
  vertex 625500.0 5807500.0 3518.10009765625
 endloop
endfacet
facet normal 0.07264994084835052 -0.09845457971096039 -0.9924861192703247
 outer loop
  vertex 625500.0 5808500.0 3425.5
  vertex 626500.0 5808500.0 3498.699951171875
  vertex 626500.0 5807500.0 3597.89990234375
 endloop
endfacet
facet normal -0.06029358133673668 -0.09853583574295044 -0.9933052659034729
 outer loop
  vertex 626500.0 5808500.0 3498.699951171875
  vertex 627500.0 5807500.0 3537.199951171875
  vertex 626500.0 5807500.0 3597.89990234375
 endloop
endfacet
facet normal -0.006034109275788069 -0.14630569517612457 -0.9892210364341736
 outer loop
  vertex 612500.0 5809500.0 3195.0
  vertex 613500.0 5808500.0 3336.800048828125
  vertex 612500.0 5808500.0 3342.89990234375
 endloop
endfacet
facet normal 0.01378627773374319 -0.12685461342334747 -0.991825520992279
 outer loop
  vertex 612500.0 5809500.0 3195.0
  vertex 613500.0 5809500.0 3208.89990234375
  vertex 613500.0 5808500.0 3336.800048828125
 endloop
endfacet
facet normal -0.07477927207946777 -0.12651146948337555 -0.9891424775123596
 outer loop
  vertex 613500.0 5809500.0 3208.89990234375
  vertex 614500.0 5808500.0 3261.199951171875
  vertex 613500.0 5808500.0 3336.800048828125
 endloop
endfacet
facet normal 0.009690949693322182 -0.04255925118923187 -0.9990469217300415
 outer loop
  vertex 613500.0 5809500.0 3208.89990234375
  vertex 614500.0 5809500.0 3218.60009765625
  vertex 614500.0 5808500.0 3261.199951171875
 endloop
endfacet
facet normal 0.020277485251426697 -0.04255249723792076 -0.9988884329795837
 outer loop
  vertex 614500.0 5809500.0 3218.60009765625
  vertex 615500.0 5808500.0 3281.5
  vertex 614500.0 5808500.0 3261.199951171875
 endloop
endfacet
facet normal -0.0038914442993700504 -0.06665100157260895 -0.997768759727478
 outer loop
  vertex 614500.0 5809500.0 3218.60009765625
  vertex 615500.0 5809500.0 3214.699951171875
  vertex 615500.0 5808500.0 3281.5
 endloop
endfacet
facet normal 0.06848587840795517 -0.06649501621723175 -0.9954336285591125
 outer loop
  vertex 615500.0 5809500.0 3214.699951171875
  vertex 616500.0 5808500.0 3350.300048828125
  vertex 615500.0 5808500.0 3281.5
 endloop
endfacet
facet normal 0.03071765787899494 -0.10408161580562592 -0.9940942525863647
 outer loop
  vertex 615500.0 5809500.0 3214.699951171875
  vertex 616500.0 5809500.0 3245.60009765625
  vertex 616500.0 5808500.0 3350.300048828125
 endloop
endfacet
facet normal 0.02416088804602623 -0.10410036891698837 -0.99427330493927
 outer loop
  vertex 616500.0 5809500.0 3245.60009765625
  vertex 617500.0 5808500.0 3374.60009765625
  vertex 616500.0 5808500.0 3350.300048828125
 endloop
endfacet
facet normal -0.033440399914979935 -0.16069093346595764 -0.9864381551742554
 outer loop
  vertex 616500.0 5809500.0 3245.60009765625
  vertex 617500.0 5809500.0 3211.699951171875
  vertex 617500.0 5808500.0 3374.60009765625
 endloop
endfacet
facet normal -0.03698679432272911 -0.16067081689834595 -0.9863147735595703
 outer loop
  vertex 617500.0 5809500.0 3211.699951171875
  vertex 618500.0 5808500.0 3337.10009765625
  vertex 617500.0 5808500.0 3374.60009765625
 endloop
endfacet
facet normal 0.01470876019448042 -0.10991790145635605 -0.9938318729400635
 outer loop
  vertex 617500.0 5809500.0 3211.699951171875
  vertex 618500.0 5809500.0 3226.5
  vertex 618500.0 5808500.0 3337.10009765625
 endloop
endfacet
facet normal 0.17961715161800385 -0.1081419512629509 -0.9777745008468628
 outer loop
  vertex 618500.0 5809500.0 3226.5
  vertex 619500.0 5808500.0 3520.800048828125
  vertex 618500.0 5808500.0 3337.10009765625
 endloop
endfacet
facet normal -0.0012467195047065616 -0.283474326133728 -0.9589790105819702
 outer loop
  vertex 618500.0 5809500.0 3226.5
  vertex 619500.0 5809500.0 3225.199951171875
  vertex 619500.0 5808500.0 3520.800048828125
 endloop
endfacet
facet normal -0.16844819486141205 -0.2794238030910492 -0.9452764391899109
 outer loop
  vertex 619500.0 5809500.0 3225.199951171875
  vertex 620500.0 5808500.0 3342.60009765625
  vertex 619500.0 5808500.0 3520.800048828125
 endloop
endfacet
facet normal 0.013327077031135559 -0.10343290120363235 -0.9945471286773682
 outer loop
  vertex 619500.0 5809500.0 3225.199951171875
  vertex 620500.0 5809500.0 3238.60009765625
  vertex 620500.0 5808500.0 3342.60009765625
 endloop
endfacet
facet normal -0.08463723212480545 -0.10307092219591141 -0.991066575050354
 outer loop
  vertex 620500.0 5809500.0 3238.60009765625
  vertex 621500.0 5808500.0 3257.199951171875
  vertex 620500.0 5808500.0 3342.60009765625
 endloop
endfacet
facet normal 0.016497718170285225 -0.0020995631348341703 -0.9998617172241211
 outer loop
  vertex 620500.0 5809500.0 3238.60009765625
  vertex 621500.0 5809500.0 3255.10009765625
  vertex 621500.0 5808500.0 3257.199951171875
 endloop
endfacet
facet normal 0.13222849369049072 -0.00208141072653234 -0.9912170767784119
 outer loop
  vertex 621500.0 5809500.0 3255.10009765625
  vertex 622500.0 5808500.0 3390.60009765625
  vertex 621500.0 5808500.0 3257.199951171875
 endloop
endfacet
facet normal -0.022218819707632065 -0.1560254842042923 -0.9875031113624573
 outer loop
  vertex 621500.0 5809500.0 3255.10009765625
  vertex 622500.0 5809500.0 3232.60009765625
  vertex 622500.0 5808500.0 3390.60009765625
 endloop
endfacet
facet normal 0.011456973850727081 -0.15605378150939941 -0.9876821041107178
 outer loop
  vertex 622500.0 5809500.0 3232.60009765625
  vertex 623500.0 5808500.0 3402.199951171875
  vertex 622500.0 5808500.0 3390.60009765625
 endloop
endfacet
facet normal -0.011118883267045021 -0.17799967527389526 -0.9839677214622498
 outer loop
  vertex 622500.0 5809500.0 3232.60009765625
  vertex 623500.0 5809500.0 3221.300048828125
  vertex 623500.0 5808500.0 3402.199951171875
 endloop
endfacet
facet normal -0.01898837275803089 -0.17797857522964478 -0.9838511347770691
 outer loop
  vertex 623500.0 5809500.0 3221.300048828125
  vertex 624500.0 5808500.0 3382.89990234375
  vertex 623500.0 5808500.0 3402.199951171875
 endloop
endfacet
facet normal 0.003654647385701537 -0.15596652030944824 -0.9877555966377258
 outer loop
  vertex 623500.0 5809500.0 3221.300048828125
  vertex 624500.0 5809500.0 3225.0
  vertex 624500.0 5808500.0 3382.89990234375
 endloop
endfacet
facet normal 0.042041558772325516 -0.15582965314388275 -0.9868888854980469
 outer loop
  vertex 624500.0 5809500.0 3225.0
  vertex 625500.0 5808500.0 3425.5
  vertex 624500.0 5808500.0 3382.89990234375
 endloop
endfacet
facet normal 0.04045507684350014 -0.1573801040649414 -0.9867091774940491
 outer loop
  vertex 624500.0 5809500.0 3225.0
  vertex 625500.0 5809500.0 3266.0
  vertex 625500.0 5808500.0 3425.5
 endloop
endfacet
facet normal 0.07209811359643936 -0.15709912776947021 -0.9849475622177124
 outer loop
  vertex 625500.0 5809500.0 3266.0
  vertex 626500.0 5808500.0 3498.699951171875
  vertex 625500.0 5808500.0 3425.5
 endloop
endfacet
facet normal 0.006730304565280676 -0.2202499359846115 -0.9754202365875244
 outer loop
  vertex 625500.0 5809500.0 3266.0
  vertex 626500.0 5809500.0 3272.89990234375
  vertex 626500.0 5808500.0 3498.699951171875
 endloop
endfacet
facet normal 0.01389218494296074 0.03028322570025921 -0.9994447827339172
 outer loop
  vertex 612500.0 5810500.0 3225.300048828125
  vertex 613500.0 5809500.0 3208.89990234375
  vertex 612500.0 5809500.0 3195.0
 endloop
endfacet
facet normal -0.030183319002389908 -0.013792204670608044 -0.9994492530822754
 outer loop
  vertex 612500.0 5810500.0 3225.300048828125
  vertex 613500.0 5810500.0 3195.10009765625
  vertex 613500.0 5809500.0 3208.89990234375
 endloop
endfacet
facet normal 0.009698815643787384 -0.013797841966152191 -0.9998577833175659
 outer loop
  vertex 613500.0 5810500.0 3195.10009765625
  vertex 614500.0 5809500.0 3218.60009765625
  vertex 613500.0 5809500.0 3208.89990234375
 endloop
endfacet
facet normal 0.013797841966152191 -0.009698815643787384 -0.9998577833175659
 outer loop
  vertex 613500.0 5810500.0 3195.10009765625
  vertex 614500.0 5810500.0 3208.89990234375
  vertex 614500.0 5809500.0 3218.60009765625
 endloop
endfacet
facet normal -0.003899933537468314 -0.009699665009975433 -0.9999454021453857
 outer loop
  vertex 614500.0 5810500.0 3208.89990234375
  vertex 615500.0 5809500.0 3214.699951171875
  vertex 614500.0 5809500.0 3218.60009765625
 endloop
endfacet
facet normal -0.007298984099179506 -0.013098380528390408 -0.9998875856399536
 outer loop
  vertex 614500.0 5810500.0 3208.89990234375
  vertex 615500.0 5810500.0 3201.60009765625
  vertex 615500.0 5809500.0 3214.699951171875
 endloop
endfacet
facet normal 0.030882757157087326 -0.013092481531202793 -0.9994372725486755
 outer loop
  vertex 615500.0 5810500.0 3201.60009765625
  vertex 616500.0 5809500.0 3245.60009765625
  vertex 615500.0 5809500.0 3214.699951171875
 endloop
endfacet
facet normal 0.002098008058965206 -0.041863325983285904 -0.9991211295127869
 outer loop
  vertex 615500.0 5810500.0 3201.60009765625
  vertex 616500.0 5810500.0 3203.699951171875
  vertex 616500.0 5809500.0 3245.60009765625
 endloop
endfacet
facet normal -0.0338510163128376 -0.04183942452073097 -0.9985507130622864
 outer loop
  vertex 616500.0 5810500.0 3203.699951171875
  vertex 617500.0 5809500.0 3211.699951171875
  vertex 616500.0 5809500.0 3245.60009765625
 endloop
endfacet
facet normal 0.04164014756679535 0.03365162014961243 -0.9985657930374146
 outer loop
  vertex 616500.0 5810500.0 3203.699951171875
  vertex 617500.0 5810500.0 3245.39990234375
  vertex 617500.0 5809500.0 3211.699951171875
 endloop
endfacet
facet normal 0.014790035784244537 0.033677149564027786 -0.999323308467865
 outer loop
  vertex 617500.0 5810500.0 3245.39990234375
  vertex 618500.0 5809500.0 3226.5
  vertex 617500.0 5809500.0 3211.699951171875
 endloop
endfacet
facet normal -0.016197767108678818 0.0026995870284736156 -0.9998651146888733
 outer loop
  vertex 617500.0 5810500.0 3245.39990234375
  vertex 618500.0 5810500.0 3229.199951171875
  vertex 618500.0 5809500.0 3226.5
 endloop
endfacet
facet normal -0.00130004296079278 0.0026999390684068203 -0.9999955296516418
 outer loop
  vertex 618500.0 5810500.0 3229.199951171875
  vertex 619500.0 5809500.0 3225.199951171875
  vertex 618500.0 5809500.0 3226.5
 endloop
endfacet
facet normal -0.003899872535839677 0.0001000968914013356 -0.9999923706054688
 outer loop
  vertex 618500.0 5810500.0 3229.199951171875
  vertex 619500.0 5810500.0 3225.300048828125
  vertex 619500.0 5809500.0 3225.199951171875
 endloop
endfacet
facet normal 0.013398943468928337 0.00010008867684518918 -0.9999102354049683
 outer loop
  vertex 619500.0 5810500.0 3225.300048828125
  vertex 620500.0 5809500.0 3238.60009765625
  vertex 619500.0 5809500.0 3225.199951171875
 endloop
endfacet
facet normal 0.0015997419832274318 -0.011699379421770573 -0.9999302625656128
 outer loop
  vertex 619500.0 5810500.0 3225.300048828125
  vertex 620500.0 5810500.0 3226.89990234375
  vertex 620500.0 5809500.0 3238.60009765625
 endloop
endfacet
facet normal 0.016496624797582626 -0.011697802692651749 -0.9997954964637756
 outer loop
  vertex 620500.0 5810500.0 3226.89990234375
  vertex 621500.0 5809500.0 3255.10009765625
  vertex 620500.0 5809500.0 3238.60009765625
 endloop
endfacet
facet normal 0.0010996932396665215 -0.02709013596177101 -0.9996323585510254
 outer loop
  vertex 620500.0 5810500.0 3226.89990234375
  vertex 621500.0 5810500.0 3228.0
  vertex 621500.0 5809500.0 3255.10009765625
 endloop
endfacet
facet normal -0.02248605526983738 -0.027083301916718483 -0.9993802309036255
 outer loop
  vertex 621500.0 5810500.0 3228.0
  vertex 622500.0 5809500.0 3232.60009765625
  vertex 621500.0 5809500.0 3255.10009765625
 endloop
endfacet
facet normal -0.015394998714327812 -0.019993631169199944 -0.9996815919876099
 outer loop
  vertex 621500.0 5810500.0 3228.0
  vertex 622500.0 5810500.0 3212.60009765625
  vertex 622500.0 5809500.0 3232.60009765625
 endloop
endfacet
facet normal -0.011297068558633327 -0.019994724541902542 -0.9997362494468689
 outer loop
  vertex 622500.0 5810500.0 3212.60009765625
  vertex 623500.0 5809500.0 3221.300048828125
  vertex 622500.0 5809500.0 3232.60009765625
 endloop
endfacet
facet normal 0.006699787452816963 -0.0019999512005597353 -0.9999755620956421
 outer loop
  vertex 622500.0 5810500.0 3212.60009765625
  vertex 623500.0 5810500.0 3219.300048828125
  vertex 623500.0 5809500.0 3221.300048828125
 endloop
endfacet
facet normal 0.0036999182775616646 -0.0019999821670353413 -0.9999911189079285
 outer loop
  vertex 623500.0 5810500.0 3219.300048828125
  vertex 624500.0 5809500.0 3225.0
  vertex 623500.0 5809500.0 3221.300048828125
 endloop
endfacet
facet normal -0.003499830374494195 -0.009199505671858788 -0.9999515414237976
 outer loop
  vertex 623500.0 5810500.0 3219.300048828125
  vertex 624500.0 5810500.0 3215.800048828125
  vertex 624500.0 5809500.0 3225.0
 endloop
endfacet
facet normal 0.040963850915431976 -0.009191839955747128 -0.9991183280944824
 outer loop
  vertex 624500.0 5810500.0 3215.800048828125
  vertex 625500.0 5809500.0 3266.0
  vertex 624500.0 5809500.0 3225.0
 endloop
endfacet
facet normal 0.024284739047288895 -0.025883587077260017 -0.9993699789047241
 outer loop
  vertex 624500.0 5810500.0 3215.800048828125
  vertex 625500.0 5810500.0 3240.10009765625
  vertex 625500.0 5809500.0 3266.0
 endloop
endfacet
facet normal 0.006897425279021263 -0.02589060366153717 -0.9996410012245178
 outer loop
  vertex 625500.0 5810500.0 3240.10009765625
  vertex 626500.0 5809500.0 3272.89990234375
  vertex 625500.0 5809500.0 3266.0
 endloop
endfacet
facet normal -0.009591039270162582 -0.04235989227890968 -0.9990563988685608
 outer loop
  vertex 625500.0 5810500.0 3240.10009765625
  vertex 626500.0 5810500.0 3230.5
  vertex 626500.0 5809500.0 3272.89990234375
 endloop
endfacet
facet normal -0.030170468613505363 -0.03226851671934128 -0.9990237951278687
 outer loop
  vertex 612500.0 5811500.0 3193.0
  vertex 613500.0 5810500.0 3195.10009765625
  vertex 612500.0 5810500.0 3225.300048828125
 endloop
endfacet
facet normal 0.004199904855340719 0.002099830424413085 -0.9999889731407166
 outer loop
  vertex 612500.0 5811500.0 3193.0
  vertex 613500.0 5811500.0 3197.199951171875
  vertex 613500.0 5810500.0 3195.10009765625
 endloop
endfacet
facet normal 0.013798460364341736 0.002099648816511035 -0.9999025464057922
 outer loop
  vertex 613500.0 5811500.0 3197.199951171875
  vertex 614500.0 5810500.0 3208.89990234375
  vertex 613500.0 5810500.0 3195.10009765625
 endloop
endfacet
facet normal 0.0029000218492001295 -0.008799427188932896 -0.9999570846557617
 outer loop
  vertex 613500.0 5811500.0 3197.199951171875
  vertex 614500.0 5811500.0 3200.10009765625
  vertex 614500.0 5810500.0 3208.89990234375
 endloop
endfacet
facet normal -0.007299327291548252 -0.008799229748547077 -0.9999346137046814
 outer loop
  vertex 614500.0 5811500.0 3200.10009765625
  vertex 615500.0 5810500.0 3201.60009765625
  vertex 614500.0 5810500.0 3208.89990234375
 endloop
endfacet
facet normal 0.003999955486506224 0.0024999722372740507 -0.999988853931427
 outer loop
  vertex 614500.0 5811500.0 3200.10009765625
  vertex 615500.0 5811500.0 3204.10009765625
  vertex 615500.0 5810500.0 3201.60009765625
 endloop
endfacet
facet normal 0.0020998422987759113 0.0024999866727739573 -0.999994695186615
 outer loop
  vertex 615500.0 5811500.0 3204.10009765625
  vertex 616500.0 5810500.0 3203.699951171875
  vertex 615500.0 5810500.0 3201.60009765625
 endloop
endfacet
facet normal -0.0023000387009233236 -0.0018998938612639904 -0.9999955892562866
 outer loop
  vertex 615500.0 5811500.0 3204.10009765625
  vertex 616500.0 5811500.0 3201.800048828125
  vertex 616500.0 5810500.0 3203.699951171875
 endloop
endfacet
facet normal 0.04166366532444954 -0.0018982492620125413 -0.9991298913955688
 outer loop
  vertex 616500.0 5811500.0 3201.800048828125
  vertex 617500.0 5810500.0 3245.39990234375
  vertex 616500.0 5810500.0 3203.699951171875
 endloop
endfacet
facet normal -0.003899248084053397 -0.017896898090839386 -0.9998322129249573
 outer loop
  vertex 618500.0 5811500.0 3211.300048828125
  vertex 619500.0 5810500.0 3225.300048828125
  vertex 618500.0 5810500.0 3229.199951171875
 endloop
endfacet
facet normal -0.0052989874966442585 -0.019296184182167053 -0.9997997879981995
 outer loop
  vertex 618500.0 5811500.0 3211.300048828125
  vertex 619500.0 5811500.0 3206.0
  vertex 619500.0 5810500.0 3225.300048828125
 endloop
endfacet
facet normal 0.0015995536232367158 -0.01929643005132675 -0.9998125433921814
 outer loop
  vertex 619500.0 5811500.0 3206.0
  vertex 620500.0 5810500.0 3226.89990234375
  vertex 619500.0 5810500.0 3225.300048828125
 endloop
endfacet
facet normal 0.011898578144609928 -0.008998998440802097 -0.9998887181282043
 outer loop
  vertex 619500.0 5811500.0 3206.0
  vertex 620500.0 5811500.0 3217.89990234375
  vertex 620500.0 5810500.0 3226.89990234375
 endloop
endfacet
facet normal 0.0011000524973496795 -0.008999630808830261 -0.9999589323997498
 outer loop
  vertex 620500.0 5811500.0 3217.89990234375
  vertex 621500.0 5810500.0 3228.0
  vertex 620500.0 5810500.0 3226.89990234375
 endloop
endfacet
facet normal 0.012998847290873528 0.0028996451292186975 -0.9999113082885742
 outer loop
  vertex 620500.0 5811500.0 3217.89990234375
  vertex 621500.0 5811500.0 3230.89990234375
  vertex 621500.0 5810500.0 3228.0
 endloop
endfacet
facet normal -0.015398012474179268 0.0028995464090257883 -0.9998772740364075
 outer loop
  vertex 621500.0 5811500.0 3230.89990234375
  vertex 622500.0 5810500.0 3212.60009765625
  vertex 621500.0 5810500.0 3228.0
 endloop
endfacet
facet normal 0.10634654015302658 0.12439960241317749 -0.9865166544914246
 outer loop
  vertex 621500.0 5811500.0 3230.89990234375
  vertex 622500.0 5811500.0 3338.699951171875
  vertex 622500.0 5810500.0 3212.60009765625
 endloop
endfacet
facet normal 0.006647157017141581 0.1251063197851181 -0.9921210408210754
 outer loop
  vertex 622500.0 5811500.0 3338.699951171875
  vertex 623500.0 5810500.0 3219.300048828125
  vertex 622500.0 5810500.0 3212.60009765625
 endloop
endfacet
facet normal 0.02995269186794758 0.14798380434513092 -0.9885360598564148
 outer loop
  vertex 622500.0 5811500.0 3338.699951171875
  vertex 623500.0 5811500.0 3369.0
  vertex 623500.0 5810500.0 3219.300048828125
 endloop
endfacet
facet normal -0.0034614086616784334 0.14804935455322266 -0.9889739155769348
 outer loop
  vertex 623500.0 5811500.0 3369.0
  vertex 624500.0 5810500.0 3215.800048828125
  vertex 623500.0 5810500.0 3219.300048828125
 endloop
endfacet
facet normal -0.09768284112215042 0.054555200040340424 -0.9937211871147156
 outer loop
  vertex 623500.0 5811500.0 3369.0
  vertex 624500.0 5811500.0 3270.699951171875
  vertex 624500.0 5810500.0 3215.800048828125
 endloop
endfacet
facet normal 0.024256372824311256 0.054801225662231445 -0.9982026219367981
 outer loop
  vertex 624500.0 5811500.0 3270.699951171875
  vertex 625500.0 5810500.0 3240.10009765625
  vertex 624500.0 5810500.0 3215.800048828125
 endloop
endfacet
facet normal -0.05857603996992111 -0.028040781617164612 -0.9978890419006348
 outer loop
  vertex 624500.0 5811500.0 3270.699951171875
  vertex 625500.0 5811500.0 3212.0
  vertex 625500.0 5810500.0 3240.10009765625
 endloop
endfacet
facet normal -0.009595867246389389 -0.028087716549634933 -0.9995594024658203
 outer loop
  vertex 625500.0 5811500.0 3212.0
  vertex 626500.0 5810500.0 3230.5
  vertex 625500.0 5810500.0 3240.10009765625
 endloop
endfacet
facet normal 0.002399584511294961 -0.016097964718937874 -0.9998674988746643
 outer loop
  vertex 625500.0 5811500.0 3212.0
  vertex 626500.0 5811500.0 3214.39990234375
  vertex 626500.0 5810500.0 3230.5
 endloop
endfacet
facet normal -0.0037995290476828814 -0.016097895801067352 -0.9998632073402405
 outer loop
  vertex 626500.0 5811500.0 3214.39990234375
  vertex 627500.0 5810500.0 3226.699951171875
  vertex 626500.0 5810500.0 3230.5
 endloop
endfacet
facet normal 0.0032000464852899313 -0.009099430404603481 -0.9999535083770752
 outer loop
  vertex 626500.0 5811500.0 3214.39990234375
  vertex 627500.0 5811500.0 3217.60009765625
  vertex 627500.0 5810500.0 3226.699951171875
 endloop
endfacet
facet normal 0.002900124527513981 0.0026000780053436756 -0.9999924302101135
 outer loop
  vertex 613500.0 5812500.0 3199.800048828125
  vertex 614500.0 5811500.0 3200.10009765625
  vertex 613500.0 5811500.0 3197.199951171875
 endloop
endfacet
facet normal -0.0021999389864504337 -0.00249998620711267 -0.9999944567680359
 outer loop
  vertex 613500.0 5812500.0 3199.800048828125
  vertex 614500.0 5812500.0 3197.60009765625
  vertex 614500.0 5811500.0 3200.10009765625
 endloop
endfacet
facet normal 0.003999955486506224 -0.0024999722372740507 -0.999988853931427
 outer loop
  vertex 614500.0 5812500.0 3197.60009765625
  vertex 615500.0 5811500.0 3204.10009765625
  vertex 614500.0 5811500.0 3200.10009765625
 endloop
endfacet
facet normal -0.005299918353557587 0.0045997402630746365 -0.9999753832817078
 outer loop
  vertex 618500.0 5812500.0 3215.89990234375
  vertex 619500.0 5811500.0 3206.0
  vertex 618500.0 5811500.0 3211.300048828125
 endloop
endfacet
facet normal 0.1182621493935585 0.128010556101799 -0.9846965670585632
 outer loop
  vertex 618500.0 5812500.0 3215.89990234375
  vertex 619500.0 5812500.0 3336.0
  vertex 619500.0 5811500.0 3206.0
 endloop
endfacet
facet normal 0.011799787171185017 0.12890625 -0.9915865659713745
 outer loop
  vertex 619500.0 5812500.0 3336.0
  vertex 620500.0 5811500.0 3217.89990234375
  vertex 619500.0 5811500.0 3206.0
 endloop
endfacet
facet normal -0.02528338134288788 0.09227492660284042 -0.9954125285148621
 outer loop
  vertex 619500.0 5812500.0 3336.0
  vertex 620500.0 5812500.0 3310.60009765625
  vertex 620500.0 5811500.0 3217.89990234375
 endloop
endfacet
facet normal 0.012943416833877563 0.09229671210050583 -0.9956474900245667
 outer loop
  vertex 620500.0 5812500.0 3310.60009765625
  vertex 621500.0 5811500.0 3230.89990234375
  vertex 620500.0 5811500.0 3217.89990234375
 endloop
endfacet
facet normal 0.09346231073141098 0.1716257929801941 -0.9807188510894775
 outer loop
  vertex 620500.0 5812500.0 3310.60009765625
  vertex 621500.0 5812500.0 3405.89990234375
  vertex 621500.0 5811500.0 3230.89990234375
 endloop
endfacet
facet normal 0.10559269040822983 0.17141662538051605 -0.9795235991477966
 outer loop
  vertex 621500.0 5812500.0 3405.89990234375
  vertex 622500.0 5811500.0 3338.699951171875
  vertex 621500.0 5811500.0 3230.89990234375
 endloop
endfacet
facet normal -0.08724764734506607 -0.02031787857413292 -0.9959794282913208
 outer loop
  vertex 621500.0 5812500.0 3405.89990234375
  vertex 622500.0 5812500.0 3318.300048828125
  vertex 622500.0 5811500.0 3338.699951171875
 endloop
endfacet
facet normal 0.0302798580378294 -0.020386306568980217 -0.9993335604667664
 outer loop
  vertex 622500.0 5812500.0 3318.300048828125
  vertex 623500.0 5811500.0 3369.0
  vertex 622500.0 5811500.0 3338.699951171875
 endloop
endfacet
facet normal 0.04315848648548126 -0.007492800708860159 -0.9990401268005371
 outer loop
  vertex 622500.0 5812500.0 3318.300048828125
  vertex 623500.0 5812500.0 3361.5
  vertex 623500.0 5811500.0 3369.0
 endloop
endfacet
facet normal -0.0978258028626442 -0.007463817019015551 -0.9951756000518799
 outer loop
  vertex 623500.0 5812500.0 3361.5
  vertex 624500.0 5811500.0 3270.699951171875
  vertex 623500.0 5811500.0 3369.0
 endloop
endfacet
facet normal -0.0030882293358445168 0.08736420422792435 -0.9961716532707214
 outer loop
  vertex 623500.0 5812500.0 3361.5
  vertex 624500.0 5812500.0 3358.39990234375
  vertex 624500.0 5811500.0 3270.699951171875
 endloop
endfacet
facet normal -0.05837578698992729 0.08721563965082169 -0.9944776296615601
 outer loop
  vertex 624500.0 5812500.0 3358.39990234375
  vertex 625500.0 5811500.0 3212.0
  vertex 624500.0 5811500.0 3270.699951171875
 endloop
endfacet
facet normal -0.1286049783229828 0.016558965668082237 -0.9915576577186584
 outer loop
  vertex 624500.0 5812500.0 3358.39990234375
  vertex 625500.0 5812500.0 3228.699951171875
  vertex 625500.0 5811500.0 3212.0
 endloop
endfacet
facet normal 0.0023995607625693083 0.01669757440686226 -0.9998577237129211
 outer loop
  vertex 625500.0 5812500.0 3228.699951171875
  vertex 626500.0 5811500.0 3214.39990234375
  vertex 625500.0 5811500.0 3212.0
 endloop
endfacet
facet normal -0.015597943216562271 -0.0012996455188840628 -0.9998775124549866
 outer loop
  vertex 625500.0 5812500.0 3228.699951171875
  vertex 626500.0 5812500.0 3213.10009765625
  vertex 626500.0 5811500.0 3214.39990234375
 endloop
endfacet
facet normal 0.00320017640478909 -0.0012997969752177596 -0.9999940395355225
 outer loop
  vertex 626500.0 5812500.0 3213.10009765625
  vertex 627500.0 5811500.0 3217.60009765625
  vertex 626500.0 5811500.0 3214.39990234375
 endloop
endfacet
facet normal 0.006999806500971317 0.002499931026250124 -0.999972403049469
 outer loop
  vertex 626500.0 5812500.0 3213.10009765625
  vertex 627500.0 5812500.0 3220.10009765625
  vertex 627500.0 5811500.0 3217.60009765625
 endloop
endfacet
facet normal 0.11907906085252762 0.05245041102170944 -0.9914984107017517
 outer loop
  vertex 618500.0 5813500.0 3268.800048828125
  vertex 619500.0 5812500.0 3336.0
  vertex 618500.0 5812500.0 3215.89990234375
 endloop
endfacet
facet normal 0.08428605645895004 0.017335359007120132 -0.9962908029556274
 outer loop
  vertex 618500.0 5813500.0 3268.800048828125
  vertex 619500.0 5813500.0 3353.39990234375
  vertex 619500.0 5812500.0 3336.0
 endloop
endfacet
facet normal -0.025387873873114586 0.017391661182045937 -0.9995264410972595
 outer loop
  vertex 619500.0 5813500.0 3353.39990234375
  vertex 620500.0 5812500.0 3310.60009765625
  vertex 619500.0 5812500.0 3336.0
 endloop
endfacet
facet normal 0.02354171685874462 0.06623564660549164 -0.9975262880325317
 outer loop
  vertex 619500.0 5813500.0 3353.39990234375
  vertex 620500.0 5813500.0 3377.0
  vertex 620500.0 5812500.0 3310.60009765625
 endloop
endfacet
facet normal 0.09466340392827988 0.0659564882516861 -0.9933220148086548
 outer loop
  vertex 620500.0 5813500.0 3377.0
  vertex 621500.0 5812500.0 3405.89990234375
  vertex 620500.0 5812500.0 3310.60009765625
 endloop
endfacet
facet normal 0.03507782146334648 0.006196260452270508 -0.9993653297424316
 outer loop
  vertex 620500.0 5813500.0 3377.0
  vertex 621500.0 5813500.0 3412.10009765625
  vertex 621500.0 5812500.0 3405.89990234375
 endloop
endfacet
facet normal -0.08726400136947632 0.006176424212753773 -0.9961660504341125
 outer loop
  vertex 621500.0 5813500.0 3412.10009765625
  vertex 622500.0 5812500.0 3318.300048828125
  vertex 621500.0 5812500.0 3405.89990234375
 endloop
endfacet
facet normal -0.041407812386751175 0.05218387022614479 -0.9977786540985107
 outer loop
  vertex 621500.0 5813500.0 3412.10009765625
  vertex 622500.0 5813500.0 3370.60009765625
  vertex 622500.0 5812500.0 3318.300048828125
 endloop
endfacet
facet normal 0.04310089722275734 0.052180130034685135 -0.9977071285247803
 outer loop
  vertex 622500.0 5813500.0 3370.60009765625
  vertex 623500.0 5812500.0 3361.5
  vertex 622500.0 5812500.0 3318.300048828125
 endloop
endfacet
facet normal -0.03895299509167671 -0.029863864183425903 -0.998794674873352
 outer loop
  vertex 622500.0 5813500.0 3370.60009765625
  vertex 623500.0 5813500.0 3331.60009765625
  vertex 623500.0 5812500.0 3361.5
 endloop
endfacet
facet normal -0.0030986981000751257 -0.029886402189731598 -0.9995484948158264
 outer loop
  vertex 623500.0 5813500.0 3331.60009765625
  vertex 624500.0 5812500.0 3358.39990234375
  vertex 623500.0 5812500.0 3361.5
 endloop
endfacet
facet normal 0.03816963732242584 0.011391101405024529 -0.9992063641548157
 outer loop
  vertex 623500.0 5813500.0 3331.60009765625
  vertex 624500.0 5813500.0 3369.800048828125
  vertex 624500.0 5812500.0 3358.39990234375
 endloop
endfacet
facet normal -0.1286143809556961 0.011304729618132114 -0.9916301965713501
 outer loop
  vertex 624500.0 5813500.0 3369.800048828125
  vertex 625500.0 5812500.0 3228.699951171875
  vertex 624500.0 5812500.0 3358.39990234375
 endloop
endfacet
facet normal -0.007929815910756588 0.13193240761756897 -0.9912269711494446
 outer loop
  vertex 624500.0 5813500.0 3369.800048828125
  vertex 625500.0 5813500.0 3361.800048828125
  vertex 625500.0 5812500.0 3228.699951171875
 endloop
endfacet
facet normal -0.015461640432476997 0.13192078471183777 -0.9911397099494934
 outer loop
  vertex 625500.0 5813500.0 3361.800048828125
  vertex 626500.0 5812500.0 3213.10009765625
  vertex 625500.0 5812500.0 3228.699951171875
 endloop
endfacet
facet normal -0.14437107741832733 0.002770469756796956 -0.9895197749137878
 outer loop
  vertex 625500.0 5813500.0 3361.800048828125
  vertex 626500.0 5813500.0 3215.89990234375
  vertex 626500.0 5812500.0 3213.10009765625
 endloop
endfacet
facet normal 0.00699980091303587 0.0027997251600027084 -0.9999715685844421
 outer loop
  vertex 626500.0 5813500.0 3215.89990234375
  vertex 627500.0 5812500.0 3220.10009765625
  vertex 626500.0 5812500.0 3213.10009765625
 endloop
endfacet
facet normal 0.019194498658180237 0.01499554980546236 -0.9997033476829529
 outer loop
  vertex 626500.0 5813500.0 3215.89990234375
  vertex 627500.0 5813500.0 3235.10009765625
  vertex 627500.0 5812500.0 3220.10009765625
 endloop
endfacet
facet normal 0.0841597393155098 -0.057399775832891464 -0.9947976469993591
 outer loop
  vertex 618500.0 5814500.0 3211.10009765625
  vertex 619500.0 5813500.0 3353.39990234375
  vertex 618500.0 5813500.0 3268.800048828125
 endloop
endfacet
facet normal 0.14804627001285553 0.007318394258618355 -0.9889534115791321
 outer loop
  vertex 618500.0 5814500.0 3211.10009765625
  vertex 619500.0 5814500.0 3360.800048828125
  vertex 619500.0 5813500.0 3353.39990234375
 endloop
endfacet
facet normal 0.023592881858348846 0.007397884037345648 -0.999694287776947
 outer loop
  vertex 619500.0 5814500.0 3360.800048828125
  vertex 620500.0 5813500.0 3377.0
  vertex 619500.0 5813500.0 3353.39990234375
 endloop
endfacet
facet normal -0.008097441866993904 -0.024292081594467163 -0.9996721148490906
 outer loop
  vertex 619500.0 5814500.0 3360.800048828125
  vertex 620500.0 5814500.0 3352.699951171875
  vertex 620500.0 5813500.0 3377.0
 endloop
endfacet
facet normal 0.03506816178560257 -0.024277936667203903 -0.9990900158882141
 outer loop
  vertex 620500.0 5814500.0 3352.699951171875
  vertex 621500.0 5813500.0 3412.10009765625
  vertex 620500.0 5813500.0 3377.0
 endloop
endfacet
facet normal 0.08377887308597565 0.024605603888630867 -0.996180534362793
 outer loop
  vertex 620500.0 5814500.0 3352.699951171875
  vertex 621500.0 5814500.0 3436.800048828125
  vertex 621500.0 5813500.0 3412.10009765625
 endloop
endfacet
facet normal -0.04145168885588646 0.024671196937561035 -0.9988358616828918
 outer loop
  vertex 621500.0 5814500.0 3436.800048828125
  vertex 622500.0 5813500.0 3370.60009765625
  vertex 621500.0 5813500.0 3412.10009765625
 endloop
endfacet
facet normal -0.11674046516418457 -0.05108017101883888 -0.9918479919433594
 outer loop
  vertex 621500.0 5814500.0 3436.800048828125
  vertex 622500.0 5814500.0 3319.10009765625
  vertex 622500.0 5813500.0 3370.60009765625
 endloop
endfacet
facet normal -0.0389188751578331 -0.051392875611782074 -0.9979199171066284
 outer loop
  vertex 622500.0 5814500.0 3319.10009765625
  vertex 623500.0 5813500.0 3331.60009765625
  vertex 622500.0 5813500.0 3370.60009765625
 endloop
endfacet
facet normal -0.015292351134121418 -0.02778606116771698 -0.9994968771934509
 outer loop
  vertex 622500.0 5814500.0 3319.10009765625
  vertex 623500.0 5814500.0 3303.800048828125
  vertex 623500.0 5813500.0 3331.60009765625
 endloop
endfacet
facet normal 0.0381573922932148 -0.027769073843955994 -0.9988858103752136
 outer loop
  vertex 623500.0 5814500.0 3303.800048828125
  vertex 624500.0 5813500.0 3369.800048828125
  vertex 623500.0 5813500.0 3331.60009765625
 endloop
endfacet
facet normal 0.007786635775119066 -0.05809987336397171 -0.99828040599823
 outer loop
  vertex 623500.0 5814500.0 3303.800048828125
  vertex 624500.0 5814500.0 3311.60009765625
  vertex 624500.0 5813500.0 3369.800048828125
 endloop
endfacet
facet normal -0.00798623077571392 -0.05809978023171425 -0.9982788562774658
 outer loop
  vertex 624500.0 5814500.0 3311.60009765625
  vertex 625500.0 5813500.0 3361.800048828125
  vertex 624500.0 5813500.0 3369.800048828125
 endloop
endfacet
facet normal -0.04751840978860855 -0.09742258489131927 -0.9941080212593079
 outer loop
  vertex 624500.0 5814500.0 3311.60009765625
  vertex 625500.0 5814500.0 3263.800048828125
  vertex 625500.0 5813500.0 3361.800048828125
 endloop
endfacet
facet normal -0.1436975747346878 -0.09652053564786911 -0.9849034547805786
 outer loop
  vertex 625500.0 5814500.0 3263.800048828125
  vertex 626500.0 5813500.0 3215.89990234375
  vertex 625500.0 5813500.0 3361.800048828125
 endloop
endfacet
facet normal -0.002697187475860119 0.04515393078327179 -0.9989764094352722
 outer loop
  vertex 625500.0 5814500.0 3263.800048828125
  vertex 626500.0 5814500.0 3261.10009765625
  vertex 626500.0 5813500.0 3215.89990234375
 endloop
endfacet
facet normal 0.019177084788680077 0.04514578729867935 -0.9987963438034058
 outer loop
  vertex 626500.0 5814500.0 3261.10009765625
  vertex 627500.0 5813500.0 3235.10009765625
  vertex 626500.0 5813500.0 3215.89990234375
 endloop
endfacet
facet normal -0.008052571676671505 -0.10786344110965729 -0.9941331148147583
 outer loop
  vertex 619500.0 5815500.0 3252.300048828125
  vertex 620500.0 5814500.0 3352.699951171875
  vertex 619500.0 5814500.0 3360.800048828125
 endloop
endfacet
facet normal 0.03041168674826622 -0.06969750672578812 -0.9971044659614563
 outer loop
  vertex 619500.0 5815500.0 3252.300048828125
  vertex 620500.0 5815500.0 3282.800048828125
  vertex 620500.0 5814500.0 3352.699951171875
 endloop
endfacet
facet normal 0.0836016908288002 -0.06948565691709518 -0.9940736889839172
 outer loop
  vertex 620500.0 5815500.0 3282.800048828125
  vertex 621500.0 5814500.0 3436.800048828125
  vertex 620500.0 5814500.0 3352.699951171875
 endloop
endfacet
facet normal -0.004049763083457947 -0.1561591923236847 -0.9877235889434814
 outer loop
  vertex 620500.0 5815500.0 3282.800048828125
  vertex 621500.0 5815500.0 3278.699951171875
  vertex 621500.0 5814500.0 3436.800048828125
 endloop
endfacet
facet normal -0.11547821760177612 -0.1551157683134079 -0.9811238050460815
 outer loop
  vertex 621500.0 5815500.0 3278.699951171875
  vertex 622500.0 5814500.0 3319.10009765625
  vertex 621500.0 5814500.0 3436.800048828125
 endloop
endfacet
facet normal 0.03527761623263359 -0.005096860695630312 -0.9993645548820496
 outer loop
  vertex 621500.0 5815500.0 3278.699951171875
  vertex 622500.0 5815500.0 3314.0
  vertex 622500.0 5814500.0 3319.10009765625
 endloop
endfacet
facet normal -0.015298059210181236 -0.005099434405565262 -0.9998699426651001
 outer loop
  vertex 622500.0 5815500.0 3314.0
  vertex 623500.0 5814500.0 3303.800048828125
  vertex 622500.0 5814500.0 3319.10009765625
 endloop
endfacet
facet normal -0.05347307398915291 -0.04329729825258255 -0.9976301789283752
 outer loop
  vertex 622500.0 5815500.0 3314.0
  vertex 623500.0 5815500.0 3260.39990234375
  vertex 623500.0 5814500.0 3303.800048828125
 endloop
endfacet
facet normal 0.007792474702000618 -0.04335801675915718 -0.9990292191505432
 outer loop
  vertex 623500.0 5815500.0 3260.39990234375
  vertex 624500.0 5814500.0 3311.60009765625
  vertex 623500.0 5814500.0 3303.800048828125
 endloop
endfacet
facet normal -0.004097047261893749 -0.03837154433131218 -0.9992551207542419
 outer loop
  vertex 620500.0 5816500.0 3244.39990234375
  vertex 621500.0 5815500.0 3278.699951171875
  vertex 620500.0 5815500.0 3282.800048828125
 endloop
endfacet
endsolid
