solid
facet normal -0.008299757726490498 -0.0011000591330230236 -0.9999649524688721
 outer loop
  vertex 537500.0 5939500.0 2659.5
  vertex 538500.0 5939500.0 2651.199951171875
  vertex 538500.0 5938500.0 2652.300048828125
 endloop
endfacet
facet normal -0.019596323370933533 -0.0010998857906088233 -0.9998074173927307
 outer loop
  vertex 538500.0 5939500.0 2651.199951171875
  vertex 539500.0 5938500.0 2632.699951171875
  vertex 538500.0 5938500.0 2652.300048828125
 endloop
endfacet
facet normal -0.0025999811477959156 0.009099690243601799 -0.9999551773071289
 outer loop
  vertex 534500.0 5946500.0 2663.10009765625
  vertex 535500.0 5945500.0 2651.39990234375
  vertex 534500.0 5945500.0 2654.0
 endloop
endfacet
facet normal -0.010399575345218182 0.0012999774189665914 -0.9999450445175171
 outer loop
  vertex 534500.0 5946500.0 2663.10009765625
  vertex 535500.0 5946500.0 2652.699951171875
  vertex 535500.0 5945500.0 2651.39990234375
 endloop
endfacet
facet normal -0.010399021208286285 -0.010399021208286285 -0.9998918175697327
 outer loop
  vertex 534500.0 5947500.0 2652.699951171875
  vertex 535500.0 5946500.0 2652.699951171875
  vertex 534500.0 5946500.0 2663.10009765625
 endloop
endfacet
facet normal 0.004199877381324768 0.004199877381324768 -0.9999823570251465
 outer loop
  vertex 534500.0 5947500.0 2652.699951171875
  vertex 535500.0 5947500.0 2656.89990234375
  vertex 535500.0 5946500.0 2652.699951171875
 endloop
endfacet
facet normal 0.004199163988232613 -0.01889635995030403 -0.9998126029968262
 outer loop
  vertex 534500.0 5948500.0 2633.800048828125
  vertex 535500.0 5947500.0 2656.89990234375
  vertex 534500.0 5947500.0 2652.699951171875
 endloop
endfacet
endsolid
