solid
facet normal -0.0020998488180339336 0.00030004815198481083 -0.9999977350234985
 outer loop
  vertex 563500.0 6058500.0 2652.39990234375
  vertex 564500.0 6058500.0 2650.300048828125
  vertex 564500.0 6057500.0 2650.0
 endloop
endfacet
facet normal 0.0006999509641900659 0.00030004873406141996 -0.9999997019767761
 outer loop
  vertex 564500.0 6058500.0 2650.300048828125
  vertex 565500.0 6057500.0 2650.699951171875
  vertex 564500.0 6057500.0 2650.0
 endloop
endfacet
facet normal 0.00030004882137291133 -9.985351061914116e-05 -0.9999999403953552
 outer loop
  vertex 564500.0 6058500.0 2650.300048828125
  vertex 565500.0 6058500.0 2650.60009765625
  vertex 565500.0 6057500.0 2650.699951171875
 endloop
endfacet
facet normal 0.00030004882137291133 0.00019995115872006863 -0.9999999403953552
 outer loop
  vertex 564500.0 6059500.0 2650.5
  vertex 565500.0 6058500.0 2650.60009765625
  vertex 564500.0 6058500.0 2650.300048828125
 endloop
endfacet
facet normal -0.001999991713091731 -0.0021000888664275408 -0.9999958276748657
 outer loop
  vertex 564500.0 6059500.0 2650.5
  vertex 565500.0 6059500.0 2648.5
  vertex 565500.0 6058500.0 2650.60009765625
 endloop
endfacet
facet normal 0.00010009762627305463 0.0008000485831871629 -0.9999997019767761
 outer loop
  vertex 547500.0 6073500.0 2651.699951171875
  vertex 548500.0 6073500.0 2651.800048828125
  vertex 548500.0 6072500.0 2651.0
 endloop
endfacet
facet normal 0.0021000923588871956 0.0008000468369573355 -0.9999974966049194
 outer loop
  vertex 548500.0 6073500.0 2651.800048828125
  vertex 549500.0 6072500.0 2653.10009765625
  vertex 548500.0 6072500.0 2651.0
 endloop
endfacet
facet normal -0.0008999016135931015 -0.0008999016135931015 -0.9999991655349731
 outer loop
  vertex 544500.0 6074500.0 2651.5
  vertex 545500.0 6074500.0 2650.60009765625
  vertex 545500.0 6073500.0 2651.5
 endloop
endfacet
facet normal -0.0004999997327104211 -0.0008999019046314061 -0.9999995231628418
 outer loop
  vertex 545500.0 6074500.0 2650.60009765625
  vertex 546500.0 6073500.0 2651.0
  vertex 545500.0 6073500.0 2651.5
 endloop
endfacet
facet normal 0.003199928905814886 0.0019001333275809884 -0.999993085861206
 outer loop
  vertex 542500.0 6075500.0 2650.60009765625
  vertex 543500.0 6075500.0 2653.800048828125
  vertex 543500.0 6074500.0 2651.89990234375
 endloop
endfacet
facet normal -0.00039990158984437585 0.0019001428736373782 -0.999998152256012
 outer loop
  vertex 543500.0 6075500.0 2653.800048828125
  vertex 544500.0 6074500.0 2651.5
  vertex 543500.0 6074500.0 2651.89990234375
 endloop
endfacet
facet normal -0.0016000951873138547 0.0006999500910751522 -0.9999984502792358
 outer loop
  vertex 543500.0 6075500.0 2653.800048828125
  vertex 544500.0 6075500.0 2652.199951171875
  vertex 544500.0 6074500.0 2651.5
 endloop
endfacet
facet normal -0.0008999017882160842 0.0006999507313594222 -0.9999994039535522
 outer loop
  vertex 544500.0 6075500.0 2652.199951171875
  vertex 545500.0 6074500.0 2650.60009765625
  vertex 544500.0 6074500.0 2651.5
 endloop
endfacet
facet normal -0.001600095652975142 0.0 -0.9999987483024597
 outer loop
  vertex 539500.0 6076500.0 2652.800048828125
  vertex 540500.0 6076500.0 2651.199951171875
  vertex 540500.0 6075500.0 2651.199951171875
 endloop
endfacet
facet normal 0.0 0.0 -1.0
 outer loop
  vertex 540500.0 6076500.0 2651.199951171875
  vertex 541500.0 6075500.0 2651.199951171875
  vertex 540500.0 6075500.0 2651.199951171875
 endloop
endfacet
facet normal 0.002400132594630122 0.002400132594630122 -0.9999942779541016
 outer loop
  vertex 540500.0 6076500.0 2651.199951171875
  vertex 541500.0 6076500.0 2653.60009765625
  vertex 541500.0 6075500.0 2651.199951171875
 endloop
endfacet
facet normal -0.0005998516571708024 0.0024001391138881445 -0.9999969601631165
 outer loop
  vertex 541500.0 6076500.0 2653.60009765625
  vertex 542500.0 6075500.0 2650.60009765625
  vertex 541500.0 6075500.0 2651.199951171875
 endloop
endfacet
facet normal -0.00019995107140857726 0.0009999994654208422 -0.9999995231628418
 outer loop
  vertex 537500.0 6077500.0 2653.300048828125
  vertex 538500.0 6077500.0 2653.10009765625
  vertex 538500.0 6076500.0 2652.10009765625
 endloop
endfacet
facet normal 0.0006999506731517613 0.0009999992325901985 -0.9999992251396179
 outer loop
  vertex 538500.0 6077500.0 2653.10009765625
  vertex 539500.0 6076500.0 2652.800048828125
  vertex 538500.0 6076500.0 2652.10009765625
 endloop
endfacet
facet normal 0.0003999022301286459 0.0006999509641900659 -0.9999997019767761
 outer loop
  vertex 538500.0 6077500.0 2653.10009765625
  vertex 539500.0 6077500.0 2653.5
  vertex 539500.0 6076500.0 2652.800048828125
 endloop
endfacet
facet normal -0.0016000951873138547 0.0006999500910751522 -0.9999984502792358
 outer loop
  vertex 539500.0 6077500.0 2653.5
  vertex 540500.0 6076500.0 2651.199951171875
  vertex 539500.0 6076500.0 2652.800048828125
 endloop
endfacet
facet normal -0.00030004882137291133 -0.00019995115872006863 -0.9999999403953552
 outer loop
  vertex 534500.0 6079500.0 2653.60009765625
  vertex 535500.0 6078500.0 2653.5
  vertex 534500.0 6078500.0 2653.800048828125
 endloop
endfacet
facet normal -0.00040014644037000835 -0.0003000487922690809 -0.9999998807907104
 outer loop
  vertex 534500.0 6079500.0 2653.60009765625
  vertex 535500.0 6079500.0 2653.199951171875
  vertex 535500.0 6078500.0 2653.5
 endloop
endfacet
endsolid
