solid
facet normal 0.22643083333969116 -0.09144490212202072 -0.9697251915931702
 outer loop
  vertex 377500.0 5668500.0 5614.60009765625
  vertex 378500.0 5668500.0 5848.10009765625
  vertex 378500.0 5667500.0 5942.39990234375
 endloop
endfacet
facet normal -0.03174300119280815 -0.0938359946012497 -0.9950814843177795
 outer loop
  vertex 378500.0 5668500.0 5848.10009765625
  vertex 379500.0 5667500.0 5910.5
  vertex 378500.0 5667500.0 5942.39990234375
 endloop
endfacet
facet normal -0.2700173556804657 -0.3265388309955597 -0.9057942032814026
 outer loop
  vertex 378500.0 5668500.0 5848.10009765625
  vertex 379500.0 5668500.0 5550.0
  vertex 379500.0 5667500.0 5910.5
 endloop
endfacet
facet normal 0.2790220379829407 -0.3598621189594269 -0.8903066515922546
 outer loop
  vertex 369500.0 5669500.0 4299.89990234375
  vertex 370500.0 5668500.0 5017.5
  vertex 369500.0 5668500.0 4704.10009765625
 endloop
endfacet
facet normal 0.48755741119384766 -0.13179351389408112 -0.863086462020874
 outer loop
  vertex 369500.0 5669500.0 4299.89990234375
  vertex 370500.0 5669500.0 4864.7998046875
  vertex 370500.0 5668500.0 5017.5
 endloop
endfacet
facet normal -0.11770211160182953 -0.14990118145942688 -0.9816699028015137
 outer loop
  vertex 370500.0 5669500.0 4864.7998046875
  vertex 371500.0 5668500.0 4897.60009765625
  vertex 370500.0 5668500.0 5017.5
 endloop
endfacet
facet normal 0.003698604414239526 -0.02908758632838726 -0.9995700716972351
 outer loop
  vertex 370500.0 5669500.0 4864.7998046875
  vertex 371500.0 5669500.0 4868.5
  vertex 371500.0 5668500.0 4897.60009765625
 endloop
endfacet
facet normal 0.08446104824542999 -0.028983846306800842 -0.9960051774978638
 outer loop
  vertex 371500.0 5669500.0 4868.5
  vertex 372500.0 5668500.0 4982.39990234375
  vertex 371500.0 5668500.0 4897.60009765625
 endloop
endfacet
facet normal 0.260058730840683 0.15143883228302002 -0.9536433815956116
 outer loop
  vertex 371500.0 5669500.0 4868.5
  vertex 372500.0 5669500.0 5141.2001953125
  vertex 372500.0 5668500.0 4982.39990234375
 endloop
endfacet
facet normal 0.27481380105018616 0.1507965624332428 -0.9495987296104431
 outer loop
  vertex 372500.0 5669500.0 5141.2001953125
  vertex 373500.0 5668500.0 5271.7998046875
  vertex 372500.0 5668500.0 4982.39990234375
 endloop
endfacet
facet normal 0.39954131841659546 0.28578513860702515 -0.8710302710533142
 outer loop
  vertex 372500.0 5669500.0 5141.2001953125
  vertex 373500.0 5669500.0 5599.89990234375
  vertex 373500.0 5668500.0 5271.7998046875
 endloop
endfacet
facet normal -0.27429866790771484 0.2997918128967285 -0.9137205481529236
 outer loop
  vertex 373500.0 5669500.0 5599.89990234375
  vertex 374500.0 5668500.0 4971.60009765625
  vertex 373500.0 5668500.0 5271.7998046875
 endloop
endfacet
facet normal 0.01052398607134819 0.5395014882087708 -0.8419188857078552
 outer loop
  vertex 373500.0 5669500.0 5599.89990234375
  vertex 374500.0 5669500.0 5612.39990234375
  vertex 374500.0 5668500.0 4971.60009765625
 endloop
endfacet
facet normal -0.07789723575115204 0.5378918647766113 -0.8394070267677307
 outer loop
  vertex 374500.0 5669500.0 5612.39990234375
  vertex 375500.0 5668500.0 4878.7998046875
  vertex 374500.0 5668500.0 4971.60009765625
 endloop
endfacet
facet normal -0.16902391612529755 0.4675062894821167 -0.8676800727844238
 outer loop
  vertex 374500.0 5669500.0 5612.39990234375
  vertex 375500.0 5669500.0 5417.60009765625
  vertex 375500.0 5668500.0 4878.7998046875
 endloop
endfacet
facet normal 0.16632503271102905 0.4677240252494812 -0.868084192276001
 outer loop
  vertex 375500.0 5669500.0 5417.60009765625
  vertex 376500.0 5668500.0 5070.39990234375
  vertex 375500.0 5668500.0 4878.7998046875
 endloop
endfacet
facet normal 0.13311877846717834 0.44124454259872437 -0.8874585032463074
 outer loop
  vertex 375500.0 5669500.0 5417.60009765625
  vertex 376500.0 5669500.0 5567.60009765625
  vertex 376500.0 5668500.0 5070.39990234375
 endloop
endfacet
facet normal 0.43805113434791565 0.4002187252044678 -0.8049448728561401
 outer loop
  vertex 376500.0 5669500.0 5567.60009765625
  vertex 377500.0 5668500.0 5614.60009765625
  vertex 376500.0 5668500.0 5070.39990234375
 endloop
endfacet
facet normal 0.08561911433935165 0.03882727026939392 -0.9955710768699646
 outer loop
  vertex 376500.0 5669500.0 5567.60009765625
  vertex 377500.0 5669500.0 5653.60009765625
  vertex 377500.0 5668500.0 5614.60009765625
 endloop
endfacet
facet normal 0.22721973061561584 0.03795104846358299 -0.9731037616729736
 outer loop
  vertex 377500.0 5669500.0 5653.60009765625
  vertex 378500.0 5668500.0 5848.10009765625
  vertex 377500.0 5668500.0 5614.60009765625
 endloop
endfacet
facet normal 0.39584478735923767 0.22255682945251465 -0.8909407258033752
 outer loop
  vertex 377500.0 5669500.0 5653.60009765625
  vertex 378500.0 5669500.0 6097.89990234375
  vertex 378500.0 5668500.0 5848.10009765625
 endloop
endfacet
facet normal -0.2778271436691284 0.23281165957450867 -0.9319929480552673
 outer loop
  vertex 378500.0 5669500.0 6097.89990234375
  vertex 379500.0 5668500.0 5550.0
  vertex 378500.0 5668500.0 5848.10009765625
 endloop
endfacet
facet normal -0.2906549572944641 0.21959741413593292 -0.9312876462936401
 outer loop
  vertex 378500.0 5669500.0 6097.89990234375
  vertex 379500.0 5669500.0 5785.7998046875
  vertex 379500.0 5668500.0 5550.0
 endloop
endfacet
facet normal 0.003365134820342064 -0.41580021381378174 -0.9094498157501221
 outer loop
  vertex 370500.0 5670500.0 4407.60009765625
  vertex 371500.0 5669500.0 4868.5
  vertex 370500.0 5669500.0 4864.7998046875
 endloop
endfacet
facet normal 0.6546857357025146 0.3445998430252075 -0.6727834939956665
 outer loop
  vertex 370500.0 5670500.0 4407.60009765625
  vertex 371500.0 5670500.0 5380.7001953125
  vertex 371500.0 5669500.0 4868.5
 endloop
endfacet
facet normal 0.23586642742156982 0.44301703572273254 -0.8649294972419739
 outer loop
  vertex 371500.0 5670500.0 5380.7001953125
  vertex 372500.0 5669500.0 5141.2001953125
  vertex 371500.0 5669500.0 4868.5
 endloop
endfacet
facet normal 0.25895053148269653 0.46209070086479187 -0.8481844067573547
 outer loop
  vertex 371500.0 5670500.0 5380.7001953125
  vertex 372500.0 5670500.0 5686.0
  vertex 372500.0 5669500.0 5141.2001953125
 endloop
endfacet
facet normal 0.3736295998096466 0.4437616169452667 -0.814540684223175
 outer loop
  vertex 372500.0 5670500.0 5686.0
  vertex 373500.0 5669500.0 5599.89990234375
  vertex 372500.0 5669500.0 5141.2001953125
 endloop
endfacet
facet normal 0.0004981355159543455 0.08627717196941376 -0.9962710738182068
 outer loop
  vertex 372500.0 5670500.0 5686.0
  vertex 373500.0 5670500.0 5686.5
  vertex 373500.0 5669500.0 5599.89990234375
 endloop
endfacet
facet normal 0.012452423572540283 0.08627048879861832 -0.9961939454078674
 outer loop
  vertex 373500.0 5670500.0 5686.5
  vertex 374500.0 5669500.0 5612.39990234375
  vertex 373500.0 5669500.0 5599.89990234375
 endloop
endfacet
facet normal 0.07765929400920868 0.15068690478801727 -0.9855265021324158
 outer loop
  vertex 373500.0 5670500.0 5686.5
  vertex 374500.0 5670500.0 5765.2998046875
  vertex 374500.0 5669500.0 5612.39990234375
 endloop
endfacet
facet normal -0.1890881210565567 0.14841675758361816 -0.9706791639328003
 outer loop
  vertex 374500.0 5670500.0 5765.2998046875
  vertex 375500.0 5669500.0 5417.60009765625
  vertex 374500.0 5669500.0 5612.39990234375
 endloop
endfacet
facet normal 0.006973589304834604 0.33462050557136536 -0.9423272013664246
 outer loop
  vertex 374500.0 5670500.0 5765.2998046875
  vertex 375500.0 5670500.0 5772.7001953125
  vertex 375500.0 5669500.0 5417.60009765625
 endloop
endfacet
facet normal 0.13996118307113647 0.3313348591327667 -0.9330745339393616
 outer loop
  vertex 375500.0 5670500.0 5772.7001953125
  vertex 376500.0 5669500.0 5567.60009765625
  vertex 375500.0 5669500.0 5417.60009765625
 endloop
endfacet
facet normal -0.2074795812368393 -0.006847507786005735 -0.9782153964042664
 outer loop
  vertex 375500.0 5670500.0 5772.7001953125
  vertex 376500.0 5670500.0 5560.60009765625
  vertex 376500.0 5669500.0 5567.60009765625
 endloop
endfacet
facet normal 0.08568163961172104 -0.006974087096750736 -0.9962981343269348
 outer loop
  vertex 376500.0 5670500.0 5560.60009765625
  vertex 377500.0 5669500.0 5653.60009765625
  vertex 376500.0 5669500.0 5567.60009765625
 endloop
endfacet
facet normal 0.433887243270874 0.3569539487361908 -0.8272397518157959
 outer loop
  vertex 376500.0 5670500.0 5560.60009765625
  vertex 377500.0 5670500.0 6085.10009765625
  vertex 377500.0 5669500.0 5653.60009765625
 endloop
endfacet
facet normal 0.37772148847579956 0.366839736700058 -0.8501499891281128
 outer loop
  vertex 377500.0 5670500.0 6085.10009765625
  vertex 378500.0 5669500.0 6097.89990234375
  vertex 377500.0 5669500.0 5653.60009765625
 endloop
endfacet
facet normal -0.3710758090019226 -0.3819099962711334 -0.8464322090148926
 outer loop
  vertex 377500.0 5670500.0 6085.10009765625
  vertex 378500.0 5670500.0 5646.7001953125
  vertex 378500.0 5669500.0 6097.89990234375
 endloop
endfacet
facet normal -0.2736259996891022 -0.3955780863761902 -0.8767250180244446
 outer loop
  vertex 378500.0 5670500.0 5646.7001953125
  vertex 379500.0 5669500.0 5785.7998046875
  vertex 378500.0 5669500.0 6097.89990234375
 endloop
endfacet
facet normal -0.05188152194023132 -0.18830205500125885 -0.9807398915290833
 outer loop
  vertex 378500.0 5670500.0 5646.7001953125
  vertex 379500.0 5670500.0 5593.7998046875
  vertex 379500.0 5669500.0 5785.7998046875
 endloop
endfacet
facet normal -0.2679497301578522 -0.18166103959083557 -0.9461511969566345
 outer loop
  vertex 379500.0 5670500.0 5593.7998046875
  vertex 380500.0 5669500.0 5502.60009765625
  vertex 379500.0 5669500.0 5785.7998046875
 endloop
endfacet
facet normal -0.0006968589732423425 0.09013163298368454 -0.9959296584129333
 outer loop
  vertex 379500.0 5670500.0 5593.7998046875
  vertex 380500.0 5670500.0 5593.10009765625
  vertex 380500.0 5669500.0 5502.60009765625
 endloop
endfacet
facet normal 0.6925065517425537 0.11827600002288818 -0.7116498947143555
 outer loop
  vertex 370500.0 5671500.0 4573.7998046875
  vertex 371500.0 5670500.0 5380.7001953125
  vertex 370500.0 5670500.0 4407.60009765625
 endloop
endfacet
facet normal 0.77597576379776 0.3556097745895386 -0.5209639072418213
 outer loop
  vertex 370500.0 5671500.0 4573.7998046875
  vertex 371500.0 5671500.0 6063.2998046875
  vertex 371500.0 5670500.0 5380.7001953125
 endloop
endfacet
facet normal 0.24450208246707916 0.5466660261154175 -0.8008589148521423
 outer loop
  vertex 371500.0 5671500.0 6063.2998046875
  vertex 372500.0 5670500.0 5686.0
  vertex 371500.0 5670500.0 5380.7001953125
 endloop
endfacet
facet normal 0.09227780997753143 0.4309577941894531 -0.8976414799690247
 outer loop
  vertex 371500.0 5671500.0 6063.2998046875
  vertex 372500.0 5671500.0 6166.10009765625
  vertex 372500.0 5670500.0 5686.0
 endloop
endfacet
facet normal 0.00045074388617649674 0.4328043758869171 -0.9014877676963806
 outer loop
  vertex 372500.0 5671500.0 6166.10009765625
  vertex 373500.0 5670500.0 5686.5
  vertex 372500.0 5670500.0 5686.0
 endloop
endfacet
facet normal -0.6358625888824463 -0.2935190200805664 -0.7138104438781738
 outer loop
  vertex 372500.0 5671500.0 6166.10009765625
  vertex 373500.0 5671500.0 5275.2998046875
  vertex 373500.0 5670500.0 5686.5
 endloop
endfacet
facet normal 0.07268615812063217 -0.3792973756790161 -0.9224154353141785
 outer loop
  vertex 373500.0 5671500.0 5275.2998046875
  vertex 374500.0 5670500.0 5765.2998046875
  vertex 373500.0 5670500.0 5686.5
 endloop
endfacet
facet normal 0.5189688205718994 0.10318289697170258 -0.8485426902770996
 outer loop
  vertex 373500.0 5671500.0 5275.2998046875
  vertex 374500.0 5671500.0 5886.89990234375
  vertex 374500.0 5670500.0 5765.2998046875
 endloop
endfacet
facet normal 0.0073460787534713745 0.12070766091346741 -0.9926609396934509
 outer loop
  vertex 374500.0 5671500.0 5886.89990234375
  vertex 375500.0 5670500.0 5772.7001953125
  vertex 374500.0 5670500.0 5765.2998046875
 endloop
endfacet
facet normal 0.240821972489357 0.34444597363471985 -0.9073928594589233
 outer loop
  vertex 374500.0 5671500.0 5886.89990234375
  vertex 375500.0 5671500.0 6152.2998046875
  vertex 375500.0 5670500.0 5772.7001953125
 endloop
endfacet
facet normal -0.19450682401657104 0.34811267256736755 -0.917052149772644
 outer loop
  vertex 375500.0 5671500.0 6152.2998046875
  vertex 376500.0 5670500.0 5560.60009765625
  vertex 375500.0 5670500.0 5772.7001953125
 endloop
endfacet
facet normal -0.17599062621593475 0.3649631440639496 -0.9142370223999023
 outer loop
  vertex 375500.0 5671500.0 6152.2998046875
  vertex 376500.0 5671500.0 5959.7998046875
  vertex 376500.0 5670500.0 5560.60009765625
 endloop
endfacet
facet normal 0.43792644143104553 0.3333081305027008 -0.8349407911300659
 outer loop
  vertex 376500.0 5671500.0 5959.7998046875
  vertex 377500.0 5670500.0 6085.10009765625
  vertex 376500.0 5670500.0 5560.60009765625
 endloop
endfacet
facet normal 0.011922864243388176 -0.11257200688123703 -0.9935719966888428
 outer loop
  vertex 376500.0 5671500.0 5959.7998046875
  vertex 377500.0 5671500.0 5971.7998046875
  vertex 377500.0 5670500.0 6085.10009765625
 endloop
endfacet
facet normal -0.39936619997024536 -0.1032123938202858 -0.9109631180763245
 outer loop
  vertex 377500.0 5671500.0 5971.7998046875
  vertex 378500.0 5670500.0 5646.7001953125
  vertex 377500.0 5670500.0 6085.10009765625
 endloop
endfacet
facet normal -0.12902133166790009 0.1875430941581726 -0.9737459421157837
 outer loop
  vertex 377500.0 5671500.0 5971.7998046875
  vertex 378500.0 5671500.0 5839.2998046875
  vertex 378500.0 5670500.0 5646.7001953125
 endloop
endfacet
facet normal -0.0518757663667202 0.1888691633939743 -0.9806310534477234
 outer loop
  vertex 378500.0 5671500.0 5839.2998046875
  vertex 379500.0 5670500.0 5593.7998046875
  vertex 378500.0 5670500.0 5646.7001953125
 endloop
endfacet
facet normal -0.4522258937358856 -0.2414388656616211 -0.8586029410362244
 outer loop
  vertex 378500.0 5671500.0 5839.2998046875
  vertex 379500.0 5671500.0 5312.60009765625
  vertex 379500.0 5670500.0 5593.7998046875
 endloop
endfacet
facet normal -0.0006735936040058732 -0.2707006633281708 -0.9626633524894714
 outer loop
  vertex 379500.0 5671500.0 5312.60009765625
  vertex 380500.0 5670500.0 5593.10009765625
  vertex 379500.0 5670500.0 5593.7998046875
 endloop
endfacet
facet normal -0.05513329803943634 -0.32039594650268555 -0.9456778764724731
 outer loop
  vertex 379500.0 5671500.0 5312.60009765625
  vertex 380500.0 5671500.0 5254.2998046875
  vertex 380500.0 5670500.0 5593.10009765625
 endloop
endfacet
facet normal 0.8066179156303406 -0.23686780035495758 -0.5415360331535339
 outer loop
  vertex 370500.0 5672500.0 4136.39990234375
  vertex 371500.0 5671500.0 6063.2998046875
  vertex 370500.0 5671500.0 4573.7998046875
 endloop
endfacet
facet normal 0.6256340742111206 -0.5106976628303528 -0.5897201895713806
 outer loop
  vertex 370500.0 5672500.0 4136.39990234375
  vertex 371500.0 5672500.0 5197.2998046875
  vertex 371500.0 5671500.0 6063.2998046875
 endloop
endfacet
facet normal 0.0774771198630333 -0.6526749134063721 -0.7536661624908447
 outer loop
  vertex 371500.0 5672500.0 5197.2998046875
  vertex 372500.0 5671500.0 6166.10009765625
  vertex 371500.0 5671500.0 6063.2998046875
 endloop
endfacet
facet normal -0.04225504770874977 -0.7166685461997986 -0.6961326003074646
 outer loop
  vertex 371500.0 5672500.0 5197.2998046875
  vertex 372500.0 5672500.0 5136.60009765625
  vertex 372500.0 5671500.0 6166.10009765625
 endloop
endfacet
facet normal -0.5273505449295044 -0.6094602346420288 -0.5919963717460632
 outer loop
  vertex 372500.0 5672500.0 5136.60009765625
  vertex 373500.0 5671500.0 5275.2998046875
  vertex 372500.0 5671500.0 6166.10009765625
 endloop
endfacet
facet normal -0.278507798910141 -0.39963972568511963 -0.8733392953872681
 outer loop
  vertex 372500.0 5672500.0 5136.60009765625
  vertex 373500.0 5672500.0 4817.7001953125
  vertex 373500.0 5671500.0 5275.2998046875
 endloop
endfacet
facet normal 0.48603224754333496 -0.3636496365070343 -0.7946895956993103
 outer loop
  vertex 373500.0 5672500.0 4817.7001953125
  vertex 374500.0 5671500.0 5886.89990234375
  vertex 373500.0 5671500.0 5275.2998046875
 endloop
endfacet
facet normal 0.2707979381084442 -0.563602864742279 -0.7803975343704224
 outer loop
  vertex 373500.0 5672500.0 4817.7001953125
  vertex 374500.0 5672500.0 5164.7001953125
  vertex 374500.0 5671500.0 5886.89990234375
 endloop
endfacet
facet normal 0.21034297347068787 -0.5723800659179688 -0.7925509810447693
 outer loop
  vertex 374500.0 5672500.0 5164.7001953125
  vertex 375500.0 5671500.0 6152.2998046875
  vertex 374500.0 5671500.0 5886.89990234375
 endloop
endfacet
facet normal -0.0523168183863163 -0.7277164459228516 -0.6838799715042114
 outer loop
  vertex 374500.0 5672500.0 5164.7001953125
  vertex 375500.0 5672500.0 5088.2001953125
  vertex 375500.0 5671500.0 6152.2998046875
 endloop
endfacet
facet normal -0.13069665431976318 -0.7224637269973755 -0.6789436936378479
 outer loop
  vertex 375500.0 5672500.0 5088.2001953125
  vertex 376500.0 5671500.0 5959.7998046875
  vertex 375500.0 5671500.0 6152.2998046875
 endloop
endfacet
facet normal 0.4979062080383301 -0.23072901368141174 -0.8359746932983398
 outer loop
  vertex 375500.0 5672500.0 5088.2001953125
  vertex 376500.0 5672500.0 5683.7998046875
  vertex 376500.0 5671500.0 5959.7998046875
 endloop
endfacet
facet normal 0.011566728353500366 -0.2660347521305084 -0.9638940095901489
 outer loop
  vertex 376500.0 5672500.0 5683.7998046875
  vertex 377500.0 5671500.0 5971.7998046875
  vertex 376500.0 5671500.0 5959.7998046875
 endloop
endfacet
facet normal 0.357125848531723 0.08935125917196274 -0.9297728538513184
 outer loop
  vertex 376500.0 5672500.0 5683.7998046875
  vertex 377500.0 5672500.0 6067.89990234375
  vertex 377500.0 5671500.0 5971.7998046875
 endloop
endfacet
facet normal -0.13075995445251465 0.09483806788921356 -0.9868675470352173
 outer loop
  vertex 377500.0 5672500.0 6067.89990234375
  vertex 378500.0 5671500.0 5839.2998046875
  vertex 377500.0 5671500.0 5971.7998046875
 endloop
endfacet
facet normal -0.19442644715309143 0.02970843017101288 -0.9804671406745911
 outer loop
  vertex 377500.0 5672500.0 6067.89990234375
  vertex 378500.0 5672500.0 5869.60009765625
  vertex 378500.0 5671500.0 5839.2998046875
 endloop
endfacet
facet normal -0.4658450186252594 0.026799408718943596 -0.8844603896141052
 outer loop
  vertex 378500.0 5672500.0 5869.60009765625
  vertex 379500.0 5671500.0 5312.60009765625
  vertex 378500.0 5671500.0 5839.2998046875
 endloop
endfacet
facet normal -0.1706523299217224 0.3437047600746155 -0.9234418272972107
 outer loop
  vertex 378500.0 5672500.0 5869.60009765625
  vertex 379500.0 5672500.0 5684.7998046875
  vertex 379500.0 5671500.0 5312.60009765625
 endloop
endfacet
facet normal -0.054557014256715775 0.3483020067214966 -0.9357933402061462
 outer loop
  vertex 379500.0 5672500.0 5684.7998046875
  vertex 380500.0 5671500.0 5254.2998046875
  vertex 379500.0 5671500.0 5312.60009765625
 endloop
endfacet
facet normal -0.0888356938958168 0.3175821900367737 -0.944060206413269
 outer loop
  vertex 379500.0 5672500.0 5684.7998046875
  vertex 380500.0 5672500.0 5590.7001953125
  vertex 380500.0 5671500.0 5254.2998046875
 endloop
endfacet
facet normal -0.04482191428542137 -0.6728488802909851 -0.738420844078064
 outer loop
  vertex 371500.0 5673500.0 4286.10009765625
  vertex 372500.0 5672500.0 5136.60009765625
  vertex 371500.0 5672500.0 5197.2998046875
 endloop
endfacet
facet normal 0.23872746527194977 -0.4794822931289673 -0.8444559574127197
 outer loop
  vertex 371500.0 5673500.0 4286.10009765625
  vertex 372500.0 5673500.0 4568.7998046875
  vertex 372500.0 5672500.0 5136.60009765625
 endloop
endfacet
facet normal -0.26722991466522217 -0.4758019745349884 -0.8379741311073303
 outer loop
  vertex 372500.0 5673500.0 4568.7998046875
  vertex 373500.0 5672500.0 4817.7001953125
  vertex 372500.0 5672500.0 5136.60009765625
 endloop
endfacet
facet normal 0.41933128237724304 0.19885887205600739 -0.885785698890686
 outer loop
  vertex 372500.0 5673500.0 4568.7998046875
  vertex 373500.0 5673500.0 5042.2001953125
  vertex 373500.0 5672500.0 4817.7001953125
 endloop
endfacet
facet normal 0.32069072127342224 0.2074785828590393 -0.924180805683136
 outer loop
  vertex 373500.0 5673500.0 5042.2001953125
  vertex 374500.0 5672500.0 5164.7001953125
  vertex 373500.0 5672500.0 4817.7001953125
 endloop
endfacet
facet normal 0.167506605386734 0.04687400162220001 -0.9847559928894043
 outer loop
  vertex 373500.0 5673500.0 5042.2001953125
  vertex 374500.0 5673500.0 5212.2998046875
  vertex 374500.0 5672500.0 5164.7001953125
 endloop
endfacet
facet normal -0.07619136571884155 0.04740757495164871 -0.9959656000137329
 outer loop
  vertex 374500.0 5673500.0 5212.2998046875
  vertex 375500.0 5672500.0 5088.2001953125
  vertex 374500.0 5672500.0 5164.7001953125
 endloop
endfacet
facet normal 0.2666627764701843 0.37675172090530396 -0.8871014714241028
 outer loop
  vertex 374500.0 5673500.0 5212.2998046875
  vertex 375500.0 5673500.0 5512.89990234375
  vertex 375500.0 5672500.0 5088.2001953125
 endloop
endfacet
facet normal 0.4807118773460388 0.3427775800228119 -0.8071057796478271
 outer loop
  vertex 375500.0 5673500.0 5512.89990234375
  vertex 376500.0 5672500.0 5683.7998046875
  vertex 375500.0 5672500.0 5088.2001953125
 endloop
endfacet
facet normal 0.284503698348999 0.12199826538562775 -0.9508807063102722
 outer loop
  vertex 375500.0 5673500.0 5512.89990234375
  vertex 376500.0 5673500.0 5812.10009765625
  vertex 376500.0 5672500.0 5683.7998046875
 endloop
endfacet
facet normal 0.3560156524181366 0.11891929060220718 -0.9268824458122253
 outer loop
  vertex 376500.0 5673500.0 5812.10009765625
  vertex 377500.0 5672500.0 6067.89990234375
  vertex 376500.0 5672500.0 5683.7998046875
 endloop
endfacet
facet normal -0.03851837292313576 -0.2836165130138397 -0.958163857460022
 outer loop
  vertex 376500.0 5673500.0 5812.10009765625
  vertex 377500.0 5673500.0 5771.89990234375
  vertex 377500.0 5672500.0 6067.89990234375
 endloop
endfacet
facet normal -0.18679796159267426 -0.2788313031196594 -0.9419976472854614
 outer loop
  vertex 377500.0 5673500.0 5771.89990234375
  vertex 378500.0 5672500.0 5869.60009765625
  vertex 377500.0 5672500.0 6067.89990234375
 endloop
endfacet
facet normal 0.13185539841651917 0.035068854689598083 -0.9906483888626099
 outer loop
  vertex 377500.0 5673500.0 5771.89990234375
  vertex 378500.0 5673500.0 5905.0
  vertex 378500.0 5672500.0 5869.60009765625
 endloop
endfacet
facet normal -0.18161329627037048 0.03478940948843956 -0.9827544689178467
 outer loop
  vertex 378500.0 5673500.0 5905.0
  vertex 379500.0 5672500.0 5684.7998046875
  vertex 378500.0 5672500.0 5869.60009765625
 endloop
endfacet
facet normal 0.04574085772037506 0.25823381543159485 -0.9649990200996399
 outer loop
  vertex 378500.0 5673500.0 5905.0
  vertex 379500.0 5673500.0 5952.39990234375
  vertex 379500.0 5672500.0 5684.7998046875
 endloop
endfacet
facet normal -0.09052793681621552 0.2574429512023926 -0.9620435237884521
 outer loop
  vertex 379500.0 5673500.0 5952.39990234375
  vertex 380500.0 5672500.0 5590.7001953125
  vertex 379500.0 5672500.0 5684.7998046875
 endloop
endfacet
facet normal 0.3926185369491577 0.39751166105270386 -0.8293582797050476
 outer loop
  vertex 372500.0 5674500.0 5048.10009765625
  vertex 373500.0 5673500.0 5042.2001953125
  vertex 372500.0 5673500.0 4568.7998046875
 endloop
endfacet
facet normal 0.3914143741130829 0.39631426334381104 -0.8304997682571411
 outer loop
  vertex 372500.0 5674500.0 5048.10009765625
  vertex 373500.0 5674500.0 5519.39990234375
  vertex 373500.0 5673500.0 5042.2001953125
 endloop
endfacet
facet normal 0.15173843502998352 0.4256890118122101 -0.8920562863349915
 outer loop
  vertex 373500.0 5674500.0 5519.39990234375
  vertex 374500.0 5673500.0 5212.2998046875
  vertex 373500.0 5673500.0 5042.2001953125
 endloop
endfacet
facet normal -0.44346052408218384 -0.1734093278646469 -0.8793588876724243
 outer loop
  vertex 373500.0 5674500.0 5519.39990234375
  vertex 374500.0 5674500.0 5015.10009765625
  vertex 374500.0 5673500.0 5212.2998046875
 endloop
endfacet
facet normal 0.2828749418258667 -0.18557162582874298 -0.9410339593887329
 outer loop
  vertex 374500.0 5674500.0 5015.10009765625
  vertex 375500.0 5673500.0 5512.89990234375
  vertex 374500.0 5673500.0 5212.2998046875
 endloop
endfacet
facet normal 0.4053877294063568 -0.04901869595050812 -0.9128296971321106
 outer loop
  vertex 374500.0 5674500.0 5015.10009765625
  vertex 375500.0 5674500.0 5459.2001953125
  vertex 375500.0 5673500.0 5512.89990234375
 endloop
endfacet
facet normal 0.2862662374973297 -0.05137835443019867 -0.9567716121673584
 outer loop
  vertex 375500.0 5674500.0 5459.2001953125
  vertex 376500.0 5673500.0 5812.10009765625
  vertex 375500.0 5673500.0 5512.89990234375
 endloop
endfacet
facet normal 0.376966267824173 0.050588734447956085 -0.92484450340271
 outer loop
  vertex 375500.0 5674500.0 5459.2001953125
  vertex 376500.0 5674500.0 5866.7998046875
  vertex 376500.0 5673500.0 5812.10009765625
 endloop
endfacet
facet normal -0.04010789468884468 0.054574113339185715 -0.9977039098739624
 outer loop
  vertex 376500.0 5674500.0 5866.7998046875
  vertex 377500.0 5673500.0 5771.89990234375
  vertex 376500.0 5673500.0 5812.10009765625
 endloop
endfacet
facet normal 0.06686808168888092 0.16032519936561584 -0.9847967028617859
 outer loop
  vertex 376500.0 5674500.0 5866.7998046875
  vertex 377500.0 5674500.0 5934.7001953125
  vertex 377500.0 5673500.0 5771.89990234375
 endloop
endfacet
facet normal 0.13025140762329102 0.15931595861911774 -0.9785974621772766
 outer loop
  vertex 377500.0 5674500.0 5934.7001953125
  vertex 378500.0 5673500.0 5905.0
  vertex 377500.0 5673500.0 5771.89990234375
 endloop
endfacet
facet normal 0.06661554425954819 -0.18179351091384888 -0.9810777306556702
 outer loop
  vertex 376500.0 5675500.0 5681.5
  vertex 377500.0 5674500.0 5934.7001953125
  vertex 376500.0 5674500.0 5866.7998046875
 endloop
endfacet
endsolid
