solid
facet normal -0.010957667604088783 0.01727641373872757 -0.9997907280921936
 outer loop
  vertex 732500.0 5802500.0 3031.489990234375
  vertex 733500.0 5801500.0 3003.25
  vertex 732500.0 5801500.0 3014.2099609375
 endloop
endfacet
facet normal 0.0017392061417922378 0.02996647171676159 -0.999549388885498
 outer loop
  vertex 732500.0 5802500.0 3031.489990234375
  vertex 733500.0 5802500.0 3033.22998046875
  vertex 733500.0 5801500.0 3003.25
 endloop
endfacet
facet normal -0.003348574275150895 0.02996634691953659 -0.9995452761650085
 outer loop
  vertex 733500.0 5802500.0 3033.22998046875
  vertex 734500.0 5801500.0 2999.89990234375
  vertex 733500.0 5801500.0 3003.25
 endloop
endfacet
facet normal -0.027818886563181877 0.005497788079082966 -0.9995978474617004
 outer loop
  vertex 733500.0 5802500.0 3033.22998046875
  vertex 734500.0 5802500.0 3005.39990234375
  vertex 734500.0 5801500.0 2999.89990234375
 endloop
endfacet
facet normal -0.027527546510100365 0.14445239305496216 -0.9891287684440613
 outer loop
  vertex 733500.0 5803500.0 3179.27001953125
  vertex 734500.0 5802500.0 3005.39990234375
  vertex 733500.0 5802500.0 3033.22998046875
 endloop
endfacet
facet normal -0.09544321894645691 0.0771130621433258 -0.9924435615539551
 outer loop
  vertex 733500.0 5803500.0 3179.27001953125
  vertex 734500.0 5803500.0 3083.10009765625
  vertex 734500.0 5802500.0 3005.39990234375
 endloop
endfacet
facet normal -0.01863054558634758 0.07745325565338135 -0.9968218803405762
 outer loop
  vertex 734500.0 5803500.0 3083.10009765625
  vertex 735500.0 5802500.0 2986.7099609375
  vertex 734500.0 5802500.0 3005.39990234375
 endloop
endfacet
facet normal -0.061297234147787094 0.034852974116802216 -0.9975108504295349
 outer loop
  vertex 734500.0 5803500.0 3083.10009765625
  vertex 735500.0 5803500.0 3021.64990234375
  vertex 735500.0 5802500.0 2986.7099609375
 endloop
endfacet
facet normal 0.013820324093103409 0.03491529822349548 -0.9992947578430176
 outer loop
  vertex 735500.0 5803500.0 3021.64990234375
  vertex 736500.0 5802500.0 3000.5400390625
  vertex 735500.0 5802500.0 2986.7099609375
 endloop
endfacet
facet normal -0.04107694700360298 -0.019989121705293655 -0.998956024646759
 outer loop
  vertex 735500.0 5803500.0 3021.64990234375
  vertex 736500.0 5803500.0 2980.530029296875
  vertex 736500.0 5802500.0 3000.5400390625
 endloop
endfacet
facet normal 0.011126966215670109 -0.020004766061902046 -0.9997379183769226
 outer loop
  vertex 736500.0 5803500.0 2980.530029296875
  vertex 737500.0 5802500.0 3011.669921875
  vertex 736500.0 5802500.0 3000.5400390625
 endloop
endfacet
facet normal 0.01712569035589695 -0.014006581157445908 -0.9997552633285522
 outer loop
  vertex 736500.0 5803500.0 2980.530029296875
  vertex 737500.0 5803500.0 2997.659912109375
  vertex 737500.0 5802500.0 3011.669921875
 endloop
endfacet
facet normal 0.04885922372341156 0.05788327008485794 -0.9971270561218262
 outer loop
  vertex 732500.0 5804500.0 3188.320068359375
  vertex 733500.0 5804500.0 3237.320068359375
  vertex 733500.0 5803500.0 3179.27001953125
 endloop
endfacet
facet normal -0.09556885063648224 0.05768722668290138 -0.9937498569488525
 outer loop
  vertex 733500.0 5804500.0 3237.320068359375
  vertex 734500.0 5803500.0 3083.10009765625
  vertex 733500.0 5803500.0 3179.27001953125
 endloop
endfacet
facet normal -0.1643420308828354 -0.012230616062879562 -0.986327588558197
 outer loop
  vertex 733500.0 5804500.0 3237.320068359375
  vertex 734500.0 5804500.0 3070.699951171875
  vertex 734500.0 5803500.0 3083.10009765625
 endloop
endfacet
facet normal -0.06132980436086655 -0.012375853024423122 -0.9980408549308777
 outer loop
  vertex 734500.0 5804500.0 3070.699951171875
  vertex 735500.0 5803500.0 3021.64990234375
  vertex 734500.0 5803500.0 3083.10009765625
 endloop
endfacet
facet normal -0.06781135499477386 -0.018882980570197105 -0.9975194931030273
 outer loop
  vertex 734500.0 5804500.0 3070.699951171875
  vertex 735500.0 5804500.0 3002.719970703125
  vertex 735500.0 5803500.0 3021.64990234375
 endloop
endfacet
facet normal -0.041077807545661926 -0.018910566344857216 -0.99897700548172
 outer loop
  vertex 735500.0 5804500.0 3002.719970703125
  vertex 736500.0 5803500.0 2980.530029296875
  vertex 735500.0 5803500.0 3021.64990234375
 endloop
endfacet
facet normal -0.020045975223183632 0.0021394577343016863 -0.9997968077659607
 outer loop
  vertex 735500.0 5804500.0 3002.719970703125
  vertex 736500.0 5804500.0 2982.669921875
  vertex 736500.0 5803500.0 2980.530029296875
 endloop
endfacet
facet normal 0.017127331346273422 0.002139573683962226 -0.9998510479927063
 outer loop
  vertex 736500.0 5804500.0 2982.669921875
  vertex 737500.0 5803500.0 2997.659912109375
  vertex 736500.0 5803500.0 2980.530029296875
 endloop
endfacet
facet normal 0.002019845647737384 -0.012968854047358036 -0.9999138712882996
 outer loop
  vertex 736500.0 5804500.0 2982.669921875
  vertex 737500.0 5804500.0 2984.68994140625
  vertex 737500.0 5803500.0 2997.659912109375
 endloop
endfacet
facet normal -0.026947902515530586 -0.012964170426130295 -0.9995527863502502
 outer loop
  vertex 737500.0 5804500.0 2984.68994140625
  vertex 738500.0 5803500.0 2970.699951171875
  vertex 737500.0 5803500.0 2997.659912109375
 endloop
endfacet
facet normal -0.015388055704534054 -0.0013997352216392756 -0.9998806118965149
 outer loop
  vertex 737500.0 5804500.0 2984.68994140625
  vertex 738500.0 5804500.0 2969.300048828125
  vertex 738500.0 5803500.0 2970.699951171875
 endloop
endfacet
facet normal -0.03011324629187584 -0.014042291790246964 -0.9994478821754456
 outer loop
  vertex 731500.0 5805500.0 3204.39990234375
  vertex 732500.0 5805500.0 3174.27001953125
  vertex 732500.0 5804500.0 3188.320068359375
 endloop
endfacet
facet normal 0.04893646389245987 -0.014031831175088882 -0.9987033605575562
 outer loop
  vertex 732500.0 5805500.0 3174.27001953125
  vertex 733500.0 5804500.0 3237.320068359375
  vertex 732500.0 5804500.0 3188.320068359375
 endloop
endfacet
facet normal -0.20548801124095917 -0.26488932967185974 -0.9421296715736389
 outer loop
  vertex 732500.0 5805500.0 3174.27001953125
  vertex 733500.0 5805500.0 2956.159912109375
  vertex 733500.0 5804500.0 3237.320068359375
 endloop
endfacet
facet normal -0.15837633609771729 -0.26724931597709656 -0.9505234956741333
 outer loop
  vertex 733500.0 5805500.0 2956.159912109375
  vertex 734500.0 5804500.0 3070.699951171875
  vertex 733500.0 5804500.0 3237.320068359375
 endloop
endfacet
facet normal -0.010874013416469097 -0.1245158314704895 -0.992158055305481
 outer loop
  vertex 733500.0 5805500.0 2956.159912109375
  vertex 734500.0 5805500.0 2945.199951171875
  vertex 734500.0 5804500.0 3070.699951171875
 endloop
endfacet
facet normal -0.06729795783758163 -0.12424089014530182 -0.9899672269821167
 outer loop
  vertex 734500.0 5805500.0 2945.199951171875
  vertex 735500.0 5804500.0 3002.719970703125
  vertex 734500.0 5804500.0 3070.699951171875
 endloop
endfacet
facet normal 0.03954276069998741 -0.017923027276992798 -0.9990571141242981
 outer loop
  vertex 734500.0 5805500.0 2945.199951171875
  vertex 735500.0 5805500.0 2984.780029296875
  vertex 735500.0 5804500.0 3002.719970703125
 endloop
endfacet
facet normal -0.020042795687913895 -0.017933452501893044 -0.9996382594108582
 outer loop
  vertex 735500.0 5805500.0 2984.780029296875
  vertex 736500.0 5804500.0 2982.669921875
  vertex 735500.0 5804500.0 3002.719970703125
 endloop
endfacet
facet normal -0.024736089631915092 -0.022627167403697968 -0.9994379281997681
 outer loop
  vertex 735500.0 5805500.0 2984.780029296875
  vertex 736500.0 5805500.0 2960.030029296875
  vertex 736500.0 5804500.0 2982.669921875
 endloop
endfacet
facet normal 0.0020194980315864086 -0.022634048014879227 -0.999741792678833
 outer loop
  vertex 736500.0 5805500.0 2960.030029296875
  vertex 737500.0 5804500.0 2984.68994140625
  vertex 736500.0 5804500.0 2982.669921875
 endloop
endfacet
facet normal 0.01309785433113575 -0.011558294296264648 -0.999847412109375
 outer loop
  vertex 736500.0 5805500.0 2960.030029296875
  vertex 737500.0 5805500.0 2973.1298828125
  vertex 737500.0 5804500.0 2984.68994140625
 endloop
endfacet
facet normal -0.015387043356895447 -0.011557918041944504 -0.9998148679733276
 outer loop
  vertex 737500.0 5805500.0 2973.1298828125
  vertex 738500.0 5804500.0 2969.300048828125
  vertex 737500.0 5804500.0 2984.68994140625
 endloop
endfacet
facet normal -0.008829379454255104 -0.00499974237754941 -0.9999485015869141
 outer loop
  vertex 737500.0 5805500.0 2973.1298828125
  vertex 738500.0 5805500.0 2964.300048828125
  vertex 738500.0 5804500.0 2969.300048828125
 endloop
endfacet
facet normal -0.0039000678807497025 -0.004999899305403233 -0.9999798536300659
 outer loop
  vertex 738500.0 5805500.0 2964.300048828125
  vertex 739500.0 5804500.0 2965.39990234375
  vertex 738500.0 5804500.0 2969.300048828125
 endloop
endfacet
facet normal 0.0003000487049575895 -0.0007998044020496309 -0.9999996423721313
 outer loop
  vertex 738500.0 5805500.0 2964.300048828125
  vertex 739500.0 5805500.0 2964.60009765625
  vertex 739500.0 5804500.0 2965.39990234375
 endloop
endfacet
facet normal -0.030099647119641304 0.033166877925395966 -0.9989964962005615
 outer loop
  vertex 731500.0 5806500.0 3237.60009765625
  vertex 732500.0 5805500.0 3174.27001953125
  vertex 731500.0 5805500.0 3204.39990234375
 endloop
endfacet
facet normal -0.03015989437699318 0.033106639981269836 -0.9989966154098511
 outer loop
  vertex 731500.0 5806500.0 3237.60009765625
  vertex 732500.0 5806500.0 3207.409912109375
  vertex 732500.0 5805500.0 3174.27001953125
 endloop
endfacet
facet normal -0.21298858523368835 0.0323617197573185 -0.9765186309814453
 outer loop
  vertex 732500.0 5806500.0 3207.409912109375
  vertex 733500.0 5805500.0 2956.159912109375
  vertex 732500.0 5805500.0 3174.27001953125
 endloop
endfacet
facet normal -0.25800514221191406 -0.015291985124349594 -0.9660224914550781
 outer loop
  vertex 732500.0 5806500.0 3207.409912109375
  vertex 733500.0 5806500.0 2940.330078125
  vertex 733500.0 5805500.0 2956.159912109375
 endloop
endfacet
facet normal -0.01095792930573225 -0.01582689955830574 -0.9998146891593933
 outer loop
  vertex 733500.0 5806500.0 2940.330078125
  vertex 734500.0 5805500.0 2945.199951171875
  vertex 733500.0 5805500.0 2956.159912109375
 endloop
endfacet
facet normal -0.005229642149060965 -0.010099200531840324 -0.9999353289604187
 outer loop
  vertex 733500.0 5806500.0 2940.330078125
  vertex 734500.0 5806500.0 2935.10009765625
  vertex 734500.0 5805500.0 2945.199951171875
 endloop
endfacet
facet normal 0.03954709693789482 -0.010091437958180904 -0.9991667866706848
 outer loop
  vertex 734500.0 5806500.0 2935.10009765625
  vertex 735500.0 5805500.0 2984.780029296875
  vertex 734500.0 5805500.0 2945.199951171875
 endloop
endfacet
facet normal 0.04630986973643303 -0.003316486021503806 -0.9989215731620789
 outer loop
  vertex 734500.0 5806500.0 2935.10009765625
  vertex 735500.0 5806500.0 2981.4599609375
  vertex 735500.0 5805500.0 2984.780029296875
 endloop
endfacet
facet normal -0.024742286652326584 -0.0033190336544066668 -0.9996883273124695
 outer loop
  vertex 735500.0 5806500.0 2981.4599609375
  vertex 736500.0 5805500.0 2960.030029296875
  vertex 735500.0 5805500.0 2984.780029296875
 endloop
endfacet
facet normal 0.011173294857144356 0.03259050473570824 -0.9994063377380371
 outer loop
  vertex 735500.0 5806500.0 2981.4599609375
  vertex 736500.0 5806500.0 2992.639892578125
  vertex 736500.0 5805500.0 2960.030029296875
 endloop
endfacet
facet normal 0.013091771863400936 0.03258974477648735 -0.9993830919265747
 outer loop
  vertex 736500.0 5806500.0 2992.639892578125
  vertex 737500.0 5805500.0 2973.1298828125
  vertex 736500.0 5805500.0 2960.030029296875
 endloop
endfacet
facet normal -0.023323317989706993 -0.003818757366389036 -0.9997206926345825
 outer loop
  vertex 736500.0 5806500.0 2992.639892578125
  vertex 737500.0 5806500.0 2969.31005859375
  vertex 737500.0 5805500.0 2973.1298828125
 endloop
endfacet
facet normal -0.008829426020383835 -0.003819647477939725 -0.9999537467956543
 outer loop
  vertex 737500.0 5806500.0 2969.31005859375
  vertex 738500.0 5805500.0 2964.300048828125
  vertex 737500.0 5805500.0 2973.1298828125
 endloop
endfacet
facet normal 0.025968749076128006 0.03097466379404068 -0.9991827607154846
 outer loop
  vertex 737500.0 5806500.0 2969.31005859375
  vertex 738500.0 5806500.0 2995.300048828125
  vertex 738500.0 5805500.0 2964.300048828125
 endloop
endfacet
facet normal 0.00029990472830832005 0.030985113233327866 -0.9995197653770447
 outer loop
  vertex 738500.0 5806500.0 2995.300048828125
  vertex 739500.0 5805500.0 2964.60009765625
  vertex 738500.0 5805500.0 2964.300048828125
 endloop
endfacet
facet normal -0.03477870300412178 -0.004097580909729004 -0.9993866086006165
 outer loop
  vertex 738500.0 5806500.0 2995.300048828125
  vertex 739500.0 5806500.0 2960.5
  vertex 739500.0 5805500.0 2964.60009765625
 endloop
endfacet
facet normal 0.0446813590824604 -0.07718121260404587 -0.9960153698921204
 outer loop
  vertex 741500.0 5806500.0 3138.39990234375
  vertex 742500.0 5806500.0 3183.260009765625
  vertex 742500.0 5805500.0 3260.75
 endloop
endfacet
facet normal 0.05612277239561081 -0.07713661342859268 -0.9954397082328796
 outer loop
  vertex 742500.0 5806500.0 3183.260009765625
  vertex 743500.0 5805500.0 3317.1298828125
  vertex 742500.0 5805500.0 3260.75
 endloop
endfacet
facet normal -0.012999066151678562 -0.1454342007637024 -0.9892825484275818
 outer loop
  vertex 742500.0 5806500.0 3183.260009765625
  vertex 743500.0 5806500.0 3170.1201171875
  vertex 743500.0 5805500.0 3317.1298828125
 endloop
endfacet
facet normal -0.0288398377597332 -0.29431936144828796 -0.9552718997001648
 outer loop
  vertex 731500.0 5807500.0 2929.5
  vertex 732500.0 5806500.0 3207.409912109375
  vertex 731500.0 5806500.0 3237.60009765625
 endloop
endfacet
facet normal 0.2024439424276352 -0.06903444975614548 -0.9768575429916382
 outer loop
  vertex 731500.0 5807500.0 2929.5
  vertex 732500.0 5807500.0 3136.739990234375
  vertex 732500.0 5806500.0 3207.409912109375
 endloop
endfacet
facet normal -0.25743594765663147 -0.0681181326508522 -0.9638914465904236
 outer loop
  vertex 732500.0 5807500.0 3136.739990234375
  vertex 733500.0 5806500.0 2940.330078125
  vertex 732500.0 5806500.0 3207.409912109375
 endloop
endfacet
facet normal -0.20206402242183685 -0.009715063497424126 -0.9793241620063782
 outer loop
  vertex 732500.0 5807500.0 3136.739990234375
  vertex 733500.0 5807500.0 2930.409912109375
  vertex 733500.0 5806500.0 2940.330078125
 endloop
endfacet
facet normal -0.005229651462286711 -0.009919541887938976 -0.999937117099762
 outer loop
  vertex 733500.0 5807500.0 2930.409912109375
  vertex 734500.0 5806500.0 2935.10009765625
  vertex 733500.0 5806500.0 2940.330078125
 endloop
endfacet
facet normal -0.0011098439572378993 -0.005799947772175074 -0.9999825358390808
 outer loop
  vertex 733500.0 5807500.0 2930.409912109375
  vertex 734500.0 5807500.0 2929.300048828125
  vertex 734500.0 5806500.0 2935.10009765625
 endloop
endfacet
facet normal 0.04630935192108154 -0.005793728865683079 -0.9989103674888611
 outer loop
  vertex 734500.0 5807500.0 2929.300048828125
  vertex 735500.0 5806500.0 2981.4599609375
  vertex 734500.0 5806500.0 2935.10009765625
 endloop
endfacet
facet normal 3.998479223810136e-05 -0.05204922705888748 -0.9986445307731628
 outer loop
  vertex 734500.0 5807500.0 2929.300048828125
  vertex 735500.0 5807500.0 2929.340087890625
  vertex 735500.0 5806500.0 2981.4599609375
 endloop
endfacet
facet normal 0.01116408035159111 -0.05204598605632782 -0.9985823035240173
 outer loop
  vertex 735500.0 5807500.0 2929.340087890625
  vertex 736500.0 5806500.0 2992.639892578125
  vertex 735500.0 5806500.0 2981.4599609375
 endloop
endfacet
facet normal 0.06891445070505142 0.0057661933824419975 -0.9976059198379517
 outer loop
  vertex 735500.0 5807500.0 2929.340087890625
  vertex 736500.0 5807500.0 2998.419921875
  vertex 736500.0 5806500.0 2992.639892578125
 endloop
endfacet
facet normal -0.023323098197579384 0.0057783606462180614 -0.999711275100708
 outer loop
  vertex 736500.0 5807500.0 2998.419921875
  vertex 737500.0 5806500.0 2969.31005859375
  vertex 736500.0 5806500.0 2992.639892578125
 endloop
endfacet
facet normal -0.028288470581173897 0.0008097341633401811 -0.9995994567871094
 outer loop
  vertex 736500.0 5807500.0 2998.419921875
  vertex 737500.0 5807500.0 2970.1201171875
  vertex 737500.0 5806500.0 2969.31005859375
 endloop
endfacet
facet normal 0.025981208309531212 0.0008097848622128367 -0.9996621012687683
 outer loop
  vertex 737500.0 5807500.0 2970.1201171875
  vertex 738500.0 5806500.0 2995.300048828125
  vertex 737500.0 5806500.0 2969.31005859375
 endloop
endfacet
facet normal -0.00871487706899643 -0.03387939929962158 -0.9993879199028015
 outer loop
  vertex 737500.0 5807500.0 2970.1201171875
  vertex 738500.0 5807500.0 2961.39990234375
  vertex 738500.0 5806500.0 2995.300048828125
 endloop
endfacet
facet normal -0.03475905582308769 -0.0338602140545845 -0.9988219738006592
 outer loop
  vertex 738500.0 5807500.0 2961.39990234375
  vertex 739500.0 5806500.0 2960.5
  vertex 738500.0 5806500.0 2995.300048828125
 endloop
endfacet
facet normal 0.015096445567905903 0.01599613018333912 -0.9997581243515015
 outer loop
  vertex 738500.0 5807500.0 2961.39990234375
  vertex 739500.0 5807500.0 2976.5
  vertex 739500.0 5806500.0 2960.5
 endloop
endfacet
facet normal 0.0074487910605967045 0.01599750854074955 -0.9998442530632019
 outer loop
  vertex 739500.0 5807500.0 2976.5
  vertex 740500.0 5806500.0 2967.949951171875
  vertex 739500.0 5806500.0 2960.5
 endloop
endfacet
facet normal -0.02480914629995823 -0.016262859106063843 -0.9995599389076233
 outer loop
  vertex 739500.0 5807500.0 2976.5
  vertex 740500.0 5807500.0 2951.679931640625
  vertex 740500.0 5806500.0 2967.949951171875
 endloop
endfacet
facet normal 0.16800495982170105 -0.016036637127399445 -0.985655665397644
 outer loop
  vertex 740500.0 5807500.0 2951.679931640625
  vertex 741500.0 5806500.0 3138.39990234375
  vertex 740500.0 5806500.0 2967.949951171875
 endloop
endfacet
facet normal 0.015789631754159927 -0.16824506223201752 -0.9856187105178833
 outer loop
  vertex 740500.0 5807500.0 2951.679931640625
  vertex 741500.0 5807500.0 2967.699951171875
  vertex 741500.0 5806500.0 3138.39990234375
 endloop
endfacet
facet normal 0.044177304953336716 -0.16810177266597748 -0.9847792387008667
 outer loop
  vertex 741500.0 5807500.0 2967.699951171875
  vertex 742500.0 5806500.0 3183.260009765625
  vertex 741500.0 5806500.0 3138.39990234375
 endloop
endfacet
facet normal 0.01564931496977806 -0.195715069770813 -0.9805359244346619
 outer loop
  vertex 741500.0 5807500.0 2967.699951171875
  vertex 742500.0 5807500.0 2983.659912109375
  vertex 742500.0 5806500.0 3183.260009765625
 endloop
endfacet
facet normal -0.012884643860161304 -0.1957227885723114 -0.9805746078491211
 outer loop
  vertex 742500.0 5807500.0 2983.659912109375
  vertex 743500.0 5806500.0 3170.1201171875
  vertex 742500.0 5806500.0 3183.260009765625
 endloop
endfacet
facet normal -0.034945063292980194 -0.21685171127319336 -0.9755789041519165
 outer loop
  vertex 742500.0 5807500.0 2983.659912109375
  vertex 743500.0 5807500.0 2947.840087890625
  vertex 743500.0 5806500.0 3170.1201171875
 endloop
endfacet
facet normal 0.2027135193347931 0.04597344249486923 -0.9781583547592163
 outer loop
  vertex 731500.0 5808500.0 2976.5
  vertex 732500.0 5807500.0 3136.739990234375
  vertex 731500.0 5807500.0 2929.5
 endloop
endfacet
facet normal -0.03992890566587448 -0.1969015747308731 -0.9796098470687866
 outer loop
  vertex 731500.0 5808500.0 2976.5
  vertex 732500.0 5808500.0 2935.739990234375
  vertex 732500.0 5807500.0 3136.739990234375
 endloop
endfacet
facet normal -0.19826848804950714 -0.19314667582511902 -0.9609286785125732
 outer loop
  vertex 732500.0 5808500.0 2935.739990234375
  vertex 733500.0 5807500.0 2930.409912109375
  vertex 732500.0 5807500.0 3136.739990234375
 endloop
endfacet
facet normal 0.035826679319143295 0.04114881902933121 -0.998510479927063
 outer loop
  vertex 732500.0 5808500.0 2935.739990234375
  vertex 733500.0 5808500.0 2971.6201171875
  vertex 733500.0 5807500.0 2930.409912109375
 endloop
endfacet
facet normal -0.0011089252075180411 0.041175227612257004 -0.9991512894630432
 outer loop
  vertex 733500.0 5808500.0 2971.6201171875
  vertex 734500.0 5807500.0 2929.300048828125
  vertex 733500.0 5807500.0 2930.409912109375
 endloop
endfacet
facet normal -0.042581457644701004 -0.0002997747214976698 -0.9990929365158081
 outer loop
  vertex 733500.0 5808500.0 2971.6201171875
  vertex 734500.0 5808500.0 2929.0
  vertex 734500.0 5807500.0 2929.300048828125
 endloop
endfacet
facet normal 4.003906360594556e-05 -0.00030004882137291133 -1.0
 outer loop
  vertex 734500.0 5808500.0 2929.0
  vertex 735500.0 5807500.0 2929.340087890625
  vertex 734500.0 5807500.0 2929.300048828125
 endloop
endfacet
facet normal 5.004882768844254e-05 -0.00029003905365243554 -1.0
 outer loop
  vertex 734500.0 5808500.0 2929.0
  vertex 735500.0 5808500.0 2929.050048828125
  vertex 735500.0 5807500.0 2929.340087890625
 endloop
endfacet
facet normal 0.06891559064388275 -0.0002893494674935937 -0.9976224303245544
 outer loop
  vertex 735500.0 5808500.0 2929.050048828125
  vertex 736500.0 5807500.0 2998.419921875
  vertex 735500.0 5807500.0 2929.340087890625
 endloop
endfacet
facet normal 6.990071415202692e-05 -0.06913399696350098 -0.9976073503494263
 outer loop
  vertex 735500.0 5808500.0 2929.050048828125
  vertex 736500.0 5808500.0 2929.1201171875
  vertex 736500.0 5807500.0 2998.419921875
 endloop
endfacet
facet normal -0.028220849111676216 -0.06910645961761475 -0.9972100257873535
 outer loop
  vertex 736500.0 5808500.0 2929.1201171875
  vertex 737500.0 5807500.0 2970.1201171875
  vertex 736500.0 5807500.0 2998.419921875
 endloop
endfacet
facet normal 0.04339888319373131 0.002437635324895382 -0.9990548491477966
 outer loop
  vertex 736500.0 5808500.0 2929.1201171875
  vertex 737500.0 5808500.0 2972.56005859375
  vertex 737500.0 5807500.0 2970.1201171875
 endloop
endfacet
facet normal -0.008719857782125473 0.0024398413952440023 -0.9999589920043945
 outer loop
  vertex 737500.0 5808500.0 2972.56005859375
  vertex 738500.0 5807500.0 2961.39990234375
  vertex 737500.0 5807500.0 2970.1201171875
 endloop
endfacet
facet normal -0.018056685104966164 -0.006898613180965185 -0.9998131394386292
 outer loop
  vertex 737500.0 5808500.0 2972.56005859375
  vertex 738500.0 5808500.0 2954.5
  vertex 738500.0 5807500.0 2961.39990234375
 endloop
endfacet
facet normal 0.01509801670908928 -0.006898951716721058 -0.9998621940612793
 outer loop
  vertex 738500.0 5808500.0 2954.5
  vertex 739500.0 5807500.0 2976.5
  vertex 738500.0 5807500.0 2961.39990234375
 endloop
endfacet
facet normal 0.0074990009889006615 -0.014498068019747734 -0.999866783618927
 outer loop
  vertex 738500.0 5808500.0 2954.5
  vertex 739500.0 5808500.0 2962.0
  vertex 739500.0 5807500.0 2976.5
 endloop
endfacet
facet normal -0.02480982057750225 -0.014494013041257858 -0.9995871186256409
 outer loop
  vertex 739500.0 5808500.0 2962.0
  vertex 740500.0 5807500.0 2951.679931640625
  vertex 739500.0 5807500.0 2976.5
 endloop
endfacet
facet normal 0.0018099225126206875 0.012129214592278004 -0.9999248385429382
 outer loop
  vertex 739500.0 5808500.0 2962.0
  vertex 740500.0 5808500.0 2963.81005859375
  vertex 740500.0 5807500.0 2951.679931640625
 endloop
endfacet
facet normal 0.01601678691804409 0.012127678841352463 -0.9997981786727905
 outer loop
  vertex 740500.0 5808500.0 2963.81005859375
  vertex 741500.0 5807500.0 2967.699951171875
  vertex 740500.0 5807500.0 2951.679931640625
 endloop
endfacet
facet normal -0.026488471776247025 -0.030375203117728233 -0.9991875290870667
 outer loop
  vertex 740500.0 5808500.0 2963.81005859375
  vertex 741500.0 5808500.0 2937.300048828125
  vertex 741500.0 5807500.0 2967.699951171875
 endloop
endfacet
facet normal 0.015950562432408333 -0.030381999909877777 -0.9994111061096191
 outer loop
  vertex 741500.0 5808500.0 2937.300048828125
  vertex 742500.0 5807500.0 2983.659912109375
  vertex 741500.0 5807500.0 2967.699951171875
 endloop
endfacet
facet normal 0.03982739523053169 -0.006494705565273762 -0.9991855025291443
 outer loop
  vertex 741500.0 5808500.0 2937.300048828125
  vertex 742500.0 5808500.0 2977.159912109375
  vertex 742500.0 5807500.0 2983.659912109375
 endloop
endfacet
facet normal -0.035796113312244415 -0.00649569695815444 -0.9993380308151245
 outer loop
  vertex 742500.0 5808500.0 2977.159912109375
  vertex 743500.0 5807500.0 2947.840087890625
  vertex 742500.0 5807500.0 2983.659912109375
 endloop
endfacet
facet normal -0.017176130786538124 0.012137207202613354 -0.9997788071632385
 outer loop
  vertex 742500.0 5808500.0 2977.159912109375
  vertex 743500.0 5808500.0 2959.97998046875
  vertex 743500.0 5807500.0 2947.840087890625
 endloop
endfacet
facet normal 0.013357686810195446 0.012137915007770061 -0.9998371005058289
 outer loop
  vertex 743500.0 5808500.0 2959.97998046875
  vertex 744500.0 5807500.0 2961.199951171875
  vertex 743500.0 5807500.0 2947.840087890625
 endloop
endfacet
facet normal 0.04652171954512596 0.045304328203201294 -0.9978893995285034
 outer loop
  vertex 743500.0 5808500.0 2959.97998046875
  vertex 744500.0 5808500.0 3006.60009765625
  vertex 744500.0 5807500.0 2961.199951171875
 endloop
endfacet
facet normal 0.041323985904455185 -0.006194534245878458 -0.9991265535354614
 outer loop
  vertex 730500.0 5809500.0 2928.93994140625
  vertex 731500.0 5809500.0 2970.300048828125
  vertex 731500.0 5808500.0 2976.5
 endloop
endfacet
facet normal -0.04072540998458862 -0.006194688379764557 -0.9991511702537537
 outer loop
  vertex 731500.0 5809500.0 2970.300048828125
  vertex 732500.0 5808500.0 2935.739990234375
  vertex 731500.0 5808500.0 2976.5
 endloop
endfacet
facet normal -0.019673945382237434 0.01487560011446476 -0.9996957778930664
 outer loop
  vertex 731500.0 5809500.0 2970.300048828125
  vertex 732500.0 5809500.0 2950.6201171875
  vertex 732500.0 5808500.0 2935.739990234375
 endloop
endfacet
facet normal 0.03585308790206909 0.014868914149701595 -0.9992464184761047
 outer loop
  vertex 732500.0 5809500.0 2950.6201171875
  vertex 733500.0 5808500.0 2971.6201171875
  vertex 732500.0 5808500.0 2935.739990234375
 endloop
endfacet
facet normal -0.02090723067522049 -0.04188420623540878 -0.9989036917686462
 outer loop
  vertex 732500.0 5809500.0 2950.6201171875
  vertex 733500.0 5809500.0 2929.68994140625
  vertex 733500.0 5808500.0 2971.6201171875
 endloop
endfacet
facet normal -0.04254414513707161 -0.04185543581843376 -0.9982175230979919
 outer loop
  vertex 733500.0 5809500.0 2929.68994140625
  vertex 734500.0 5808500.0 2929.0
  vertex 733500.0 5808500.0 2971.6201171875
 endloop
endfacet
facet normal 0.005309888161718845 0.005999807268381119 -0.9999678730964661
 outer loop
  vertex 733500.0 5809500.0 2929.68994140625
  vertex 734500.0 5809500.0 2935.0
  vertex 734500.0 5808500.0 2929.0
 endloop
endfacet
facet normal 5.0047925469698384e-05 0.005999892018735409 -0.9999819993972778
 outer loop
  vertex 734500.0 5809500.0 2935.0
  vertex 735500.0 5808500.0 2929.050048828125
  vertex 734500.0 5808500.0 2929.0
 endloop
endfacet
facet normal -0.005569981411099434 0.00037987687392160296 -0.9999843835830688
 outer loop
  vertex 734500.0 5809500.0 2935.0
  vertex 735500.0 5809500.0 2929.429931640625
  vertex 735500.0 5808500.0 2929.050048828125
 endloop
endfacet
facet normal 7.006835221545771e-05 0.0003798827819991857 -0.9999999403953552
 outer loop
  vertex 735500.0 5809500.0 2929.429931640625
  vertex 736500.0 5808500.0 2929.1201171875
  vertex 735500.0 5808500.0 2929.050048828125
 endloop
endfacet
facet normal -0.0007800289313308895 -0.00047021463979035616 -0.9999995827674866
 outer loop
  vertex 735500.0 5809500.0 2929.429931640625
  vertex 736500.0 5809500.0 2928.64990234375
  vertex 736500.0 5808500.0 2929.1201171875
 endloop
endfacet
facet normal 0.043399009853601456 -0.00046977176680229604 -0.9990577101707458
 outer loop
  vertex 736500.0 5809500.0 2928.64990234375
  vertex 737500.0 5808500.0 2972.56005859375
  vertex 736500.0 5808500.0 2929.1201171875
 endloop
endfacet
facet normal 0.003157519968226552 -0.04071600362658501 -0.9991657733917236
 outer loop
  vertex 736500.0 5809500.0 2928.64990234375
  vertex 737500.0 5809500.0 2931.81005859375
  vertex 737500.0 5808500.0 2972.56005859375
 endloop
endfacet
facet normal -0.018042145296931267 -0.04070958122611046 -0.9990081191062927
 outer loop
  vertex 737500.0 5809500.0 2931.81005859375
  vertex 738500.0 5808500.0 2954.5
  vertex 737500.0 5808500.0 2972.56005859375
 endloop
endfacet
facet normal -0.0024093904066830873 -0.025092121213674545 -0.9996822476387024
 outer loop
  vertex 737500.0 5809500.0 2931.81005859375
  vertex 738500.0 5809500.0 2929.39990234375
  vertex 738500.0 5808500.0 2954.5
 endloop
endfacet
facet normal 0.007497427985072136 -0.025091489776968956 -0.9996570348739624
 outer loop
  vertex 738500.0 5809500.0 2929.39990234375
  vertex 739500.0 5808500.0 2962.0
  vertex 738500.0 5808500.0 2954.5
 endloop
endfacet
facet normal 0.009397203102707863 -0.023192686960101128 -0.9996868371963501
 outer loop
  vertex 738500.0 5809500.0 2929.39990234375
  vertex 739500.0 5809500.0 2938.800048828125
  vertex 739500.0 5808500.0 2962.0
 endloop
endfacet
facet normal 0.0018095686100423336 -0.02319367229938507 -0.999729335308075
 outer loop
  vertex 739500.0 5809500.0 2938.800048828125
  vertex 740500.0 5808500.0 2963.81005859375
  vertex 739500.0 5808500.0 2962.0
 endloop
endfacet
facet normal 0.005078759975731373 -0.019925961270928383 -0.9997885227203369
 outer loop
  vertex 739500.0 5809500.0 2938.800048828125
  vertex 740500.0 5809500.0 2943.8798828125
  vertex 740500.0 5808500.0 2963.81005859375
 endloop
endfacet
facet normal -0.026495439931750298 -0.019919222220778465 -0.9994504451751709
 outer loop
  vertex 740500.0 5809500.0 2943.8798828125
  vertex 741500.0 5808500.0 2937.300048828125
  vertex 740500.0 5808500.0 2963.81005859375
 endloop
endfacet
facet normal -0.013378376141190529 -0.006799282971769571 -0.9998874068260193
 outer loop
  vertex 740500.0 5809500.0 2943.8798828125
  vertex 741500.0 5809500.0 2930.5
  vertex 741500.0 5808500.0 2937.300048828125
 endloop
endfacet
facet normal 0.03982732072472572 -0.006794496439397335 -0.9991834759712219
 outer loop
  vertex 741500.0 5809500.0 2930.5
  vertex 742500.0 5808500.0 2977.159912109375
  vertex 741500.0 5808500.0 2937.300048828125
 endloop
endfacet
facet normal 0.0004994681221432984 -0.04611080884933472 -0.9989361763000488
 outer loop
  vertex 741500.0 5809500.0 2930.5
  vertex 742500.0 5809500.0 2931.0
  vertex 742500.0 5808500.0 2977.159912109375
 endloop
endfacet
facet normal -0.01715913414955139 -0.046104028820991516 -0.9987892508506775
 outer loop
  vertex 742500.0 5809500.0 2931.0
  vertex 743500.0 5808500.0 2959.97998046875
  vertex 742500.0 5808500.0 2977.159912109375
 endloop
endfacet
facet normal 0.024792209267616272 -0.004178610630333424 -0.9996839165687561
 outer loop
  vertex 742500.0 5809500.0 2931.0
  vertex 743500.0 5809500.0 2955.800048828125
  vertex 743500.0 5808500.0 2959.97998046875
 endloop
endfacet
facet normal 0.046569131314754486 -0.004175360314548016 -0.9989063143730164
 outer loop
  vertex 743500.0 5809500.0 2955.800048828125
  vertex 744500.0 5808500.0 3006.60009765625
  vertex 743500.0 5808500.0 2959.97998046875
 endloop
endfacet
facet normal -0.0018975099083036184 -0.0526270717382431 -0.9986124038696289
 outer loop
  vertex 743500.0 5809500.0 2955.800048828125
  vertex 744500.0 5809500.0 2953.89990234375
  vertex 744500.0 5808500.0 3006.60009765625
 endloop
endfacet
facet normal 0.04132477566599846 -0.00040956190787255764 -0.9991456866264343
 outer loop
  vertex 730500.0 5810500.0 2928.530029296875
  vertex 731500.0 5809500.0 2970.300048828125
  vertex 730500.0 5809500.0 2928.93994140625
 endloop
endfacet
facet normal 0.0015687992563471198 -0.04016745835542679 -0.9991917014122009
 outer loop
  vertex 730500.0 5810500.0 2928.530029296875
  vertex 731500.0 5810500.0 2930.10009765625
  vertex 731500.0 5809500.0 2970.300048828125
 endloop
endfacet
facet normal -0.01966025121510029 -0.04015974700450897 -0.9989998936653137
 outer loop
  vertex 731500.0 5810500.0 2930.10009765625
  vertex 732500.0 5809500.0 2950.6201171875
  vertex 731500.0 5809500.0 2970.300048828125
 endloop
endfacet
facet normal -0.0012099185260012746 -0.02172507904469967 -0.9997632503509521
 outer loop
  vertex 731500.0 5810500.0 2930.10009765625
  vertex 732500.0 5810500.0 2928.889892578125
  vertex 732500.0 5809500.0 2950.6201171875
 endloop
endfacet
facet normal -0.020920654758810997 -0.021720340475440025 -0.999545156955719
 outer loop
  vertex 732500.0 5810500.0 2928.889892578125
  vertex 733500.0 5809500.0 2929.68994140625
  vertex 732500.0 5809500.0 2950.6201171875
 endloop
endfacet
facet normal 0.0004899901687167585 -0.0003100585308857262 -0.9999998211860657
 outer loop
  vertex 732500.0 5810500.0 2928.889892578125
  vertex 733500.0 5810500.0 2929.3798828125
  vertex 733500.0 5809500.0 2929.68994140625
 endloop
endfacet
facet normal 0.0053099836222827435 -0.0003100542235188186 -0.9999858736991882
 outer loop
  vertex 733500.0 5810500.0 2929.3798828125
  vertex 734500.0 5809500.0 2935.0
  vertex 733500.0 5809500.0 2929.68994140625
 endloop
endfacet
facet normal -0.0030797026120126247 -0.00869958009570837 -0.9999573826789856
 outer loop
  vertex 733500.0 5810500.0 2929.3798828125
  vertex 734500.0 5810500.0 2926.300048828125
  vertex 734500.0 5809500.0 2935.0
 endloop
endfacet
facet normal -0.005569771397858858 -0.008699486963450909 -0.9999467134475708
 outer loop
  vertex 734500.0 5810500.0 2926.300048828125
  vertex 735500.0 5809500.0 2929.429931640625
  vertex 734500.0 5809500.0 2935.0
 endloop
endfacet
facet normal 0.0024599528405815363 -0.0006699197110719979 -0.9999967217445374
 outer loop
  vertex 734500.0 5810500.0 2926.300048828125
  vertex 735500.0 5810500.0 2928.760009765625
  vertex 735500.0 5809500.0 2929.429931640625
 endloop
endfacet
facet normal -0.0007800289313308895 -0.0006699215155094862 -0.9999995231628418
 outer loop
  vertex 735500.0 5810500.0 2928.760009765625
  vertex 736500.0 5809500.0 2928.64990234375
  vertex 735500.0 5809500.0 2929.429931640625
 endloop
endfacet
facet normal 0.008759329095482826 0.008869428187608719 -0.9999223351478577
 outer loop
  vertex 735500.0 5810500.0 2928.760009765625
  vertex 736500.0 5810500.0 2937.52001953125
  vertex 736500.0 5809500.0 2928.64990234375
 endloop
endfacet
facet normal 0.003160016145557165 0.008869724348187447 -0.9999557137489319
 outer loop
  vertex 736500.0 5810500.0 2937.52001953125
  vertex 737500.0 5809500.0 2931.81005859375
  vertex 736500.0 5809500.0 2928.64990234375
 endloop
endfacet
facet normal 0.032758161425590515 0.038460832089185715 -0.998723030090332
 outer loop
  vertex 736500.0 5810500.0 2937.52001953125
  vertex 737500.0 5810500.0 2970.320068359375
  vertex 737500.0 5809500.0 2931.81005859375
 endloop
endfacet
facet normal -0.002408364089205861 0.038481373339891434 -0.999256432056427
 outer loop
  vertex 737500.0 5810500.0 2970.320068359375
  vertex 738500.0 5809500.0 2929.39990234375
  vertex 737500.0 5809500.0 2931.81005859375
 endloop
endfacet
facet normal 0.01585233584046364 0.05670151859521866 -0.9982653260231018
 outer loop
  vertex 737500.0 5810500.0 2970.320068359375
  vertex 738500.0 5810500.0 2986.199951171875
  vertex 738500.0 5809500.0 2929.39990234375
 endloop
endfacet
facet normal 0.009384604170918465 0.05670614540576935 -0.9983468055725098
 outer loop
  vertex 738500.0 5810500.0 2986.199951171875
  vertex 739500.0 5809500.0 2938.800048828125
  vertex 738500.0 5809500.0 2929.39990234375
 endloop
endfacet
facet normal -0.039966944605112076 0.007393787149339914 -0.999173641204834
 outer loop
  vertex 738500.0 5810500.0 2986.199951171875
  vertex 739500.0 5810500.0 2946.199951171875
  vertex 739500.0 5809500.0 2938.800048828125
 endloop
endfacet
facet normal 0.005079629365354776 0.00739960465580225 -0.9999597668647766
 outer loop
  vertex 739500.0 5810500.0 2946.199951171875
  vertex 740500.0 5809500.0 2943.8798828125
  vertex 739500.0 5809500.0 2938.800048828125
 endloop
endfacet
facet normal 0.008609273470938206 0.010929117910563946 -0.9999032020568848
 outer loop
  vertex 739500.0 5810500.0 2946.199951171875
  vertex 740500.0 5810500.0 2954.81005859375
  vertex 740500.0 5809500.0 2943.8798828125
 endloop
endfacet
facet normal -0.013377886265516281 0.010928545147180557 -0.9998507499694824
 outer loop
  vertex 740500.0 5810500.0 2954.81005859375
  vertex 741500.0 5809500.0 2930.5
  vertex 740500.0 5809500.0 2943.8798828125
 endloop
endfacet
facet normal -0.023103922605514526 0.0011996300891041756 -0.9997323751449585
 outer loop
  vertex 740500.0 5810500.0 2954.81005859375
  vertex 741500.0 5810500.0 2931.699951171875
  vertex 741500.0 5809500.0 2930.5
 endloop
endfacet
facet normal 0.0004999995580874383 0.0011999501148238778 -0.9999991059303284
 outer loop
  vertex 741500.0 5810500.0 2931.699951171875
  vertex 742500.0 5809500.0 2931.0
  vertex 741500.0 5809500.0 2930.5
 endloop
endfacet
facet normal -0.0013898909091949463 -0.0006899405852891505 -0.9999988079071045
 outer loop
  vertex 741500.0 5810500.0 2931.699951171875
  vertex 742500.0 5810500.0 2930.31005859375
  vertex 742500.0 5809500.0 2931.0
 endloop
endfacet
facet normal 0.024792419746518135 -0.0006897291750647128 -0.9996923804283142
 outer loop
  vertex 742500.0 5810500.0 2930.31005859375
  vertex 743500.0 5809500.0 2955.800048828125
  vertex 742500.0 5809500.0 2931.0
 endloop
endfacet
facet normal 0.0032691950909793377 -0.022214367985725403 -0.9997478723526001
 outer loop
  vertex 742500.0 5810500.0 2930.31005859375
  vertex 743500.0 5810500.0 2933.580078125
  vertex 743500.0 5809500.0 2955.800048828125
 endloop
endfacet
facet normal -0.001899674185551703 -0.02221444807946682 -0.9997514486312866
 outer loop
  vertex 743500.0 5810500.0 2933.580078125
  vertex 744500.0 5809500.0 2953.89990234375
  vertex 743500.0 5809500.0 2955.800048828125
 endloop
endfacet
facet normal 0.02121518738567829 0.0008999435231089592 -0.9997745752334595
 outer loop
  vertex 743500.0 5810500.0 2933.580078125
  vertex 744500.0 5810500.0 2954.800048828125
  vertex 744500.0 5809500.0 2953.89990234375
 endloop
endfacet
facet normal 0.0015700367512181401 0.006149778608232737 -0.9999798536300659
 outer loop
  vertex 730500.0 5811500.0 2934.679931640625
  vertex 731500.0 5810500.0 2930.10009765625
  vertex 730500.0 5810500.0 2928.530029296875
 endloop
endfacet
facet normal 0.00901881791651249 0.013598042540252209 -0.9998668432235718
 outer loop
  vertex 730500.0 5811500.0 2934.679931640625
  vertex 731500.0 5811500.0 2943.699951171875
  vertex 731500.0 5810500.0 2930.10009765625
 endloop
endfacet
facet normal -0.0012100923340767622 0.013598586432635784 -0.9999068379402161
 outer loop
  vertex 731500.0 5811500.0 2943.699951171875
  vertex 732500.0 5810500.0 2928.889892578125
  vertex 731500.0 5810500.0 2930.10009765625
 endloop
endfacet
facet normal 0.011035679839551449 0.02583989128470421 -0.9996051788330078
 outer loop
  vertex 731500.0 5811500.0 2943.699951171875
  vertex 732500.0 5811500.0 2954.739990234375
  vertex 732500.0 5810500.0 2928.889892578125
 endloop
endfacet
facet normal 0.0004898265469819307 0.02584146149456501 -0.9996659159660339
 outer loop
  vertex 732500.0 5811500.0 2954.739990234375
  vertex 733500.0 5810500.0 2929.3798828125
  vertex 732500.0 5810500.0 2928.889892578125
 endloop
endfacet
facet normal 0.002589068142697215 0.027939191088080406 -0.9996062517166138
 outer loop
  vertex 732500.0 5811500.0 2954.739990234375
  vertex 733500.0 5811500.0 2957.330078125
  vertex 733500.0 5810500.0 2929.3798828125
 endloop
endfacet
facet normal -0.0030786171555519104 0.027939151972532272 -0.9996048808097839
 outer loop
  vertex 733500.0 5811500.0 2957.330078125
  vertex 734500.0 5810500.0 2926.300048828125
  vertex 733500.0 5810500.0 2929.3798828125
 endloop
endfacet
facet normal -0.011527071706950665 0.019494999200105667 -0.9997435212135315
 outer loop
  vertex 733500.0 5811500.0 2957.330078125
  vertex 734500.0 5811500.0 2945.800048828125
  vertex 734500.0 5810500.0 2926.300048828125
 endloop
endfacet
facet normal 0.0024594860151410103 0.019496234133839607 -0.9998069405555725
 outer loop
  vertex 734500.0 5811500.0 2945.800048828125
  vertex 735500.0 5810500.0 2928.760009765625
  vertex 734500.0 5810500.0 2926.300048828125
 endloop
endfacet
facet normal -0.013038826175034046 0.003999628126621246 -0.9999070167541504
 outer loop
  vertex 734500.0 5811500.0 2945.800048828125
  vertex 735500.0 5811500.0 2932.760009765625
  vertex 735500.0 5810500.0 2928.760009765625
 endloop
endfacet
facet normal 0.008759603835642338 0.003999814391136169 -0.9999536275863647
 outer loop
  vertex 735500.0 5811500.0 2932.760009765625
  vertex 736500.0 5810500.0 2937.52001953125
  vertex 735500.0 5810500.0 2928.760009765625
 endloop
endfacet
facet normal -0.0026100275572389364 -0.007369891740381718 -0.9999694228172302
 outer loop
  vertex 735500.0 5811500.0 2932.760009765625
  vertex 736500.0 5811500.0 2930.14990234375
  vertex 736500.0 5810500.0 2937.52001953125
 endloop
endfacet
facet normal 0.03278152644634247 -0.007365955971181393 -0.9994353652000427
 outer loop
  vertex 736500.0 5811500.0 2930.14990234375
  vertex 737500.0 5810500.0 2970.320068359375
  vertex 736500.0 5810500.0 2937.52001953125
 endloop
endfacet
facet normal 0.04009785130620003 -4.000686021754518e-05 -0.9991957545280457
 outer loop
  vertex 736500.0 5811500.0 2930.14990234375
  vertex 737500.0 5811500.0 2970.280029296875
  vertex 737500.0 5810500.0 2970.320068359375
 endloop
endfacet
facet normal 0.01587788201868534 -4.0034014091361314e-05 -0.9998739361763
 outer loop
  vertex 737500.0 5811500.0 2970.280029296875
  vertex 738500.0 5810500.0 2986.199951171875
  vertex 737500.0 5810500.0 2970.320068359375
 endloop
endfacet
facet normal -0.004678887780755758 -0.020595259964466095 -0.9997769594192505
 outer loop
  vertex 737500.0 5811500.0 2970.280029296875
  vertex 738500.0 5811500.0 2965.60009765625
  vertex 738500.0 5810500.0 2986.199951171875
 endloop
endfacet
facet normal -0.03995957225561142 -0.020579034462571144 -0.9989893436431885
 outer loop
  vertex 738500.0 5811500.0 2965.60009765625
  vertex 739500.0 5810500.0 2946.199951171875
  vertex 738500.0 5810500.0 2986.199951171875
 endloop
endfacet
facet normal 0.004898397717624903 0.024292586371302605 -0.9996929168701172
 outer loop
  vertex 738500.0 5811500.0 2965.60009765625
  vertex 739500.0 5811500.0 2970.5
  vertex 739500.0 5810500.0 2946.199951171875
 endloop
endfacet
facet normal 0.008607247844338417 0.024291977286338806 -0.9996678829193115
 outer loop
  vertex 739500.0 5811500.0 2970.5
  vertex 740500.0 5810500.0 2954.81005859375
  vertex 739500.0 5810500.0 2946.199951171875
 endloop
endfacet
facet normal -0.026039818301796913 -0.010356038808822632 -0.999607264995575
 outer loop
  vertex 739500.0 5811500.0 2970.5
  vertex 740500.0 5811500.0 2944.449951171875
  vertex 740500.0 5810500.0 2954.81005859375
 endloop
endfacet
facet normal -0.02310270071029663 -0.010356786660850048 -0.9996795058250427
 outer loop
  vertex 740500.0 5811500.0 2944.449951171875
  vertex 741500.0 5810500.0 2931.699951171875
  vertex 740500.0 5810500.0 2954.81005859375
 endloop
endfacet
facet normal 0.01783890649676323 0.0305809136480093 -0.9993730783462524
 outer loop
  vertex 740500.0 5811500.0 2944.449951171875
  vertex 741500.0 5811500.0 2962.300048828125
  vertex 741500.0 5810500.0 2931.699951171875
 endloop
endfacet
facet normal -0.0013892410788685083 0.030585752800107002 -0.9995312094688416
 outer loop
  vertex 741500.0 5811500.0 2962.300048828125
  vertex 742500.0 5810500.0 2930.31005859375
  vertex 741500.0 5810500.0 2931.699951171875
 endloop
endfacet
facet normal 0.003997379913926125 0.0359664186835289 -0.9993450045585632
 outer loop
  vertex 741500.0 5811500.0 2962.300048828125
  vertex 742500.0 5811500.0 2966.300048828125
  vertex 742500.0 5810500.0 2930.31005859375
 endloop
endfacet
facet normal 0.0032678882125765085 0.03596651181578636 -0.9993476271629333
 outer loop
  vertex 742500.0 5811500.0 2966.300048828125
  vertex 743500.0 5810500.0 2933.580078125
  vertex 742500.0 5810500.0 2930.31005859375
 endloop
endfacet
facet normal 0.015051184222102165 0.04773015156388283 -0.9987468719482422
 outer loop
  vertex 742500.0 5811500.0 2966.300048828125
  vertex 743500.0 5811500.0 2981.3701171875
  vertex 743500.0 5810500.0 2933.580078125
 endloop
endfacet
facet normal 0.02119102142751217 0.04772483929991722 -0.9986357092857361
 outer loop
  vertex 743500.0 5811500.0 2981.3701171875
  vertex 744500.0 5810500.0 2954.800048828125
  vertex 743500.0 5810500.0 2933.580078125
 endloop
endfacet
facet normal -0.028058985248208046 -0.0014994076918810606 -0.9996051788330078
 outer loop
  vertex 743500.0 5811500.0 2981.3701171875
  vertex 744500.0 5811500.0 2953.300048828125
  vertex 744500.0 5810500.0 2954.800048828125
 endloop
endfacet
facet normal -0.0018601020565256476 -0.0014999957056716084 -0.9999971389770508
 outer loop
  vertex 744500.0 5811500.0 2953.300048828125
  vertex 745500.0 5810500.0 2952.93994140625
  vertex 744500.0 5810500.0 2954.800048828125
 endloop
endfacet
facet normal -0.015156755223870277 -0.014796729199588299 -0.9997756481170654
 outer loop
  vertex 744500.0 5811500.0 2953.300048828125
  vertex 745500.0 5811500.0 2938.139892578125
  vertex 745500.0 5810500.0 2952.93994140625
 endloop
endfacet
facet normal 0.009015318937599659 0.030993850901722908 -0.9994788765907288
 outer loop
  vertex 730500.0 5812500.0 2965.68994140625
  vertex 731500.0 5811500.0 2943.699951171875
  vertex 730500.0 5811500.0 2934.679931640625
 endloop
endfacet
facet normal 0.0005098806577734649 0.022494303062558174 -0.9997467994689941
 outer loop
  vertex 730500.0 5812500.0 2965.68994140625
  vertex 731500.0 5812500.0 2966.199951171875
  vertex 731500.0 5811500.0 2943.699951171875
 endloop
endfacet
facet normal 0.01103657390922308 0.022492937743663788 -0.9996861219406128
 outer loop
  vertex 731500.0 5812500.0 2966.199951171875
  vertex 732500.0 5811500.0 2954.739990234375
  vertex 731500.0 5811500.0 2943.699951171875
 endloop
endfacet
facet normal -0.028244748711586 -0.016790976747870445 -0.999459981918335
 outer loop
  vertex 731500.0 5812500.0 2966.199951171875
  vertex 732500.0 5812500.0 2937.93994140625
  vertex 732500.0 5811500.0 2954.739990234375
 endloop
endfacet
facet normal 0.0025897137820720673 -0.0167976226657629 -0.9998555779457092
 outer loop
  vertex 732500.0 5812500.0 2937.93994140625
  vertex 733500.0 5811500.0 2957.330078125
  vertex 732500.0 5811500.0 2954.739990234375
 endloop
endfacet
facet normal 0.0048995730467140675 -0.01448829472064972 -0.9998829960823059
 outer loop
  vertex 732500.0 5812500.0 2937.93994140625
  vertex 733500.0 5812500.0 2942.840087890625
  vertex 733500.0 5811500.0 2957.330078125
 endloop
endfacet
facet normal -0.01152805332094431 -0.014487506821751595 -0.999828577041626
 outer loop
  vertex 733500.0 5812500.0 2942.840087890625
  vertex 734500.0 5811500.0 2945.800048828125
  vertex 733500.0 5811500.0 2957.330078125
 endloop
endfacet
facet normal 0.02015283703804016 0.01719391532242298 -0.9996490478515625
 outer loop
  vertex 733500.0 5812500.0 2942.840087890625
  vertex 734500.0 5812500.0 2963.0
  vertex 734500.0 5811500.0 2945.800048828125
 endloop
endfacet
facet normal -0.013037002645432949 0.017195945605635643 -0.9997671246528625
 outer loop
  vertex 734500.0 5812500.0 2963.0
  vertex 735500.0 5811500.0 2932.760009765625
  vertex 734500.0 5811500.0 2945.800048828125
 endloop
endfacet
facet normal -0.004628315567970276 0.02560143731534481 -0.9996615052223206
 outer loop
  vertex 734500.0 5812500.0 2963.0
  vertex 735500.0 5812500.0 2958.3701171875
  vertex 735500.0 5811500.0 2932.760009765625
 endloop
endfacet
facet normal -0.002609242917969823 0.025601625442504883 -0.9996687769889832
 outer loop
  vertex 735500.0 5812500.0 2958.3701171875
  vertex 736500.0 5811500.0 2930.14990234375
  vertex 735500.0 5811500.0 2932.760009765625
 endloop
endfacet
facet normal -0.0031791632063686848 0.02503206580877304 -0.9996815919876099
 outer loop
  vertex 735500.0 5812500.0 2958.3701171875
  vertex 736500.0 5812500.0 2955.18994140625
  vertex 736500.0 5811500.0 2930.14990234375
 endloop
endfacet
facet normal 0.040085308253765106 0.025012074038386345 -0.9988831877708435
 outer loop
  vertex 736500.0 5812500.0 2955.18994140625
  vertex 737500.0 5811500.0 2970.280029296875
  vertex 736500.0 5811500.0 2930.14990234375
 endloop
endfacet
facet normal 0.001979806460440159 -0.013108955696225166 -0.9999121427536011
 outer loop
  vertex 736500.0 5812500.0 2955.18994140625
  vertex 737500.0 5812500.0 2957.169921875
  vertex 737500.0 5811500.0 2970.280029296875
 endloop
endfacet
facet normal -0.0046794782392680645 -0.01310883741825819 -0.99990314245224
 outer loop
  vertex 737500.0 5812500.0 2957.169921875
  vertex 738500.0 5811500.0 2965.60009765625
  vertex 737500.0 5811500.0 2970.280029296875
 endloop
endfacet
facet normal 3.00282372336369e-05 -0.008399849757552147 -0.999964714050293
 outer loop
  vertex 737500.0 5812500.0 2957.169921875
  vertex 738500.0 5812500.0 2957.199951171875
  vertex 738500.0 5811500.0 2965.60009765625
 endloop
endfacet
facet normal 0.004899670835584402 -0.008399749174714088 -0.9999527335166931
 outer loop
  vertex 738500.0 5812500.0 2957.199951171875
  vertex 739500.0 5811500.0 2970.5
  vertex 738500.0 5811500.0 2965.60009765625
 endloop
endfacet
facet normal 0.004499780014157295 -0.008799619041383266 -0.9999511241912842
 outer loop
  vertex 738500.0 5812500.0 2957.199951171875
  vertex 739500.0 5812500.0 2961.699951171875
  vertex 739500.0 5811500.0 2970.5
 endloop
endfacet
facet normal -0.026040207594633102 -0.008796724490821362 -0.9996222257614136
 outer loop
  vertex 739500.0 5812500.0 2961.699951171875
  vertex 740500.0 5811500.0 2944.449951171875
  vertex 739500.0 5811500.0 2970.5
 endloop
endfacet
facet normal 0.10147199034690857 0.11851075291633606 -0.9877544045448303
 outer loop
  vertex 739500.0 5812500.0 2961.699951171875
  vertex 740500.0 5812500.0 3064.429931640625
  vertex 740500.0 5811500.0 2944.449951171875
 endloop
endfacet
facet normal 0.017720211297273636 0.11910692602396011 -0.992723286151886
 outer loop
  vertex 740500.0 5812500.0 3064.429931640625
  vertex 741500.0 5811500.0 2962.300048828125
  vertex 740500.0 5811500.0 2944.449951171875
 endloop
endfacet
facet normal -0.10543820261955261 -0.00387837877497077 -0.9944182634353638
 outer loop
  vertex 740500.0 5812500.0 3064.429931640625
  vertex 741500.0 5812500.0 2958.39990234375
  vertex 741500.0 5811500.0 2962.300048828125
 endloop
endfacet
facet normal 0.003999937325716019 -0.00390008557587862 -0.9999843835830688
 outer loop
  vertex 741500.0 5812500.0 2958.39990234375
  vertex 742500.0 5811500.0 2966.300048828125
  vertex 741500.0 5811500.0 2962.300048828125
 endloop
endfacet
facet normal -0.01564365066587925 -0.023540640249848366 -0.9996004700660706
 outer loop
  vertex 741500.0 5812500.0 2958.39990234375
  vertex 742500.0 5812500.0 2942.75
  vertex 742500.0 5811500.0 2966.300048828125
 endloop
endfacet
facet normal 0.015064181759953499 -0.02354085072875023 -0.9996094107627869
 outer loop
  vertex 742500.0 5812500.0 2942.75
  vertex 743500.0 5811500.0 2981.3701171875
  vertex 742500.0 5811500.0 2966.300048828125
 endloop
endfacet
facet normal -0.004705493804067373 -0.043288979679346085 -0.9990515112876892
 outer loop
  vertex 742500.0 5812500.0 2942.75
  vertex 743500.0 5812500.0 2938.0400390625
  vertex 743500.0 5811500.0 2981.3701171875
 endloop
endfacet
facet normal -0.028032733127474785 -0.04327244684100151 -0.9986699819564819
 outer loop
  vertex 743500.0 5812500.0 2938.0400390625
  vertex 744500.0 5811500.0 2953.300048828125
  vertex 743500.0 5811500.0 2981.3701171875
 endloop
endfacet
facet normal 0.01245894469320774 -0.002799820387735963 -0.9999184608459473
 outer loop
  vertex 743500.0 5812500.0 2938.0400390625
  vertex 744500.0 5812500.0 2950.5
  vertex 744500.0 5811500.0 2953.300048828125
 endloop
endfacet
facet normal -0.015158355236053467 -0.002799716079607606 -0.9998812079429626
 outer loop
  vertex 744500.0 5812500.0 2950.5
  vertex 745500.0 5811500.0 2938.139892578125
  vertex 744500.0 5811500.0 2953.300048828125
 endloop
endfacet
facet normal 0.020115196704864502 0.032466284930706024 -0.9992703795433044
 outer loop
  vertex 744500.0 5812500.0 2950.5
  vertex 745500.0 5812500.0 2970.6298828125
  vertex 745500.0 5811500.0 2938.139892578125
 endloop
endfacet
facet normal 0.02515893056988716 0.032462578266859055 -0.9991562962532043
 outer loop
  vertex 745500.0 5812500.0 2970.6298828125
  vertex 746500.0 5811500.0 2963.320068359375
  vertex 745500.0 5811500.0 2938.139892578125
 endloop
endfacet
facet normal 0.024400614202022552 0.031704578548669815 -0.999199390411377
 outer loop
  vertex 745500.0 5812500.0 2970.6298828125
  vertex 746500.0 5812500.0 2995.050048828125
  vertex 746500.0 5811500.0 2963.320068359375
 endloop
endfacet
facet normal -0.01270254235714674 0.031711459159851074 -0.9994163513183594
 outer loop
  vertex 746500.0 5812500.0 2995.050048828125
  vertex 747500.0 5811500.0 2950.610107421875
  vertex 746500.0 5811500.0 2963.320068359375
 endloop
endfacet
facet normal -0.04518377408385277 -0.0007892319699749351 -0.9989784359931946
 outer loop
  vertex 746500.0 5812500.0 2995.050048828125
  vertex 747500.0 5812500.0 2949.820068359375
  vertex 747500.0 5811500.0 2950.610107421875
 endloop
endfacet
facet normal 0.0035898194182664156 -0.0007900337222963572 -0.9999932646751404
 outer loop
  vertex 747500.0 5812500.0 2949.820068359375
  vertex 748500.0 5811500.0 2954.199951171875
  vertex 747500.0 5811500.0 2950.610107421875
 endloop
endfacet
facet normal -0.002120067598298192 -0.006499847862869501 -0.999976634979248
 outer loop
  vertex 747500.0 5812500.0 2949.820068359375
  vertex 748500.0 5812500.0 2947.699951171875
  vertex 748500.0 5811500.0 2954.199951171875
 endloop
endfacet
facet normal 0.0005100091802887619 0.0014499494573101401 -0.9999988079071045
 outer loop
  vertex 730500.0 5813500.0 2967.139892578125
  vertex 731500.0 5812500.0 2966.199951171875
  vertex 730500.0 5812500.0 2965.68994140625
 endloop
endfacet
facet normal -0.0008398434147238731 0.00010009761899709702 -0.9999996423721313
 outer loop
  vertex 730500.0 5813500.0 2967.139892578125
  vertex 731500.0 5813500.0 2966.300048828125
  vertex 731500.0 5812500.0 2966.199951171875
 endloop
endfacet
facet normal -0.028248731046915054 0.00010005771036958322 -0.999600887298584
 outer loop
  vertex 731500.0 5813500.0 2966.300048828125
  vertex 732500.0 5812500.0 2937.93994140625
  vertex 731500.0 5812500.0 2966.199951171875
 endloop
endfacet
facet normal -0.025461606681346893 0.002889187540858984 -0.9996715784072876
 outer loop
  vertex 731500.0 5813500.0 2966.300048828125
  vertex 732500.0 5813500.0 2940.830078125
  vertex 732500.0 5812500.0 2937.93994140625
 endloop
endfacet
facet normal 0.004900067113339901 0.0028900899924337864 -0.9999837875366211
 outer loop
  vertex 732500.0 5813500.0 2940.830078125
  vertex 733500.0 5812500.0 2942.840087890625
  vertex 732500.0 5812500.0 2937.93994140625
 endloop
endfacet
facet normal -0.004629821982234716 -0.0021999222226440907 -0.9999868869781494
 outer loop
  vertex 734500.0 5813500.0 2960.800048828125
  vertex 735500.0 5812500.0 2958.3701171875
  vertex 734500.0 5812500.0 2963.0
 endloop
endfacet
facet normal 0.0037499021273106337 0.006179769989103079 -0.9999738931655884
 outer loop
  vertex 734500.0 5813500.0 2960.800048828125
  vertex 735500.0 5813500.0 2964.550048828125
  vertex 735500.0 5812500.0 2958.3701171875
 endloop
endfacet
facet normal -0.0031800989527255297 0.006179782561957836 -0.999975860118866
 outer loop
  vertex 735500.0 5813500.0 2964.550048828125
  vertex 736500.0 5812500.0 2955.18994140625
  vertex 735500.0 5812500.0 2958.3701171875
 endloop
endfacet
facet normal -0.01239913608878851 -0.0030397912487387657 -0.999918520450592
 outer loop
  vertex 735500.0 5813500.0 2964.550048828125
  vertex 736500.0 5813500.0 2952.14990234375
  vertex 736500.0 5812500.0 2955.18994140625
 endloop
endfacet
facet normal 0.0019799675792455673 -0.003040019189938903 -0.9999934434890747
 outer loop
  vertex 736500.0 5813500.0 2952.14990234375
  vertex 737500.0 5812500.0 2957.169921875
  vertex 736500.0 5812500.0 2955.18994140625
 endloop
endfacet
facet normal 0.02585584856569767 0.020838597789406776 -0.9994484186172485
 outer loop
  vertex 736500.0 5813500.0 2952.14990234375
  vertex 737500.0 5813500.0 2978.02001953125
  vertex 737500.0 5812500.0 2957.169921875
 endloop
endfacet
facet normal 3.002277298946865e-05 0.0208455678075552 -0.9997827410697937
 outer loop
  vertex 737500.0 5813500.0 2978.02001953125
  vertex 738500.0 5812500.0 2957.199951171875
  vertex 737500.0 5812500.0 2957.169921875
 endloop
endfacet
facet normal -0.020016003400087357 0.0007998882792890072 -0.999799370765686
 outer loop
  vertex 737500.0 5813500.0 2978.02001953125
  vertex 738500.0 5813500.0 2958.0
  vertex 738500.0 5812500.0 2957.199951171875
 endloop
endfacet
facet normal 0.004499953240156174 0.0008000404923222959 -0.9999895691871643
 outer loop
  vertex 738500.0 5813500.0 2958.0
  vertex 739500.0 5812500.0 2961.699951171875
  vertex 738500.0 5812500.0 2957.199951171875
 endloop
endfacet
facet normal -0.013296951539814472 -0.01699604094028473 -0.9997671246528625
 outer loop
  vertex 738500.0 5813500.0 2958.0
  vertex 739500.0 5813500.0 2944.699951171875
  vertex 739500.0 5812500.0 2961.699951171875
 endloop
endfacet
facet normal 0.10217754542827606 -0.01690858229994774 -0.9946224689483643
 outer loop
  vertex 739500.0 5813500.0 2944.699951171875
  vertex 740500.0 5812500.0 3064.429931640625
  vertex 739500.0 5812500.0 2961.699951171875
 endloop
endfacet
facet normal 0.007890542969107628 -0.11109454929828644 -0.9937785267829895
 outer loop
  vertex 739500.0 5813500.0 2944.699951171875
  vertex 740500.0 5813500.0 2952.639892578125
  vertex 740500.0 5812500.0 3064.429931640625
 endloop
endfacet
facet normal -0.10479345917701721 -0.11048629134893417 -0.9883375763893127
 outer loop
  vertex 740500.0 5813500.0 2952.639892578125
  vertex 741500.0 5812500.0 2958.39990234375
  vertex 740500.0 5812500.0 3064.429931640625
 endloop
endfacet
facet normal 0.0002600058214738965 -0.0054999166168272495 -0.9999848008155823
 outer loop
  vertex 740500.0 5813500.0 2952.639892578125
  vertex 741500.0 5813500.0 2952.89990234375
  vertex 741500.0 5812500.0 2958.39990234375
 endloop
endfacet
facet normal -0.015647750347852707 -0.00549924373626709 -0.9998624324798584
 outer loop
  vertex 741500.0 5813500.0 2952.89990234375
  vertex 742500.0 5812500.0 2942.75
  vertex 741500.0 5812500.0 2958.39990234375
 endloop
endfacet
facet normal 0.0023098732344806194 0.012458961457014084 -0.9999197721481323
 outer loop
  vertex 741500.0 5813500.0 2952.89990234375
  vertex 742500.0 5813500.0 2955.2099609375
  vertex 742500.0 5812500.0 2942.75
 endloop
endfacet
facet normal -0.004709543194621801 0.012458856217563152 -0.9999113082885742
 outer loop
  vertex 742500.0 5813500.0 2955.2099609375
  vertex 743500.0 5812500.0 2938.0400390625
  vertex 742500.0 5812500.0 2942.75
 endloop
endfacet
facet normal -0.004399500787258148 0.012768854387104511 -0.9999087452888489
 outer loop
  vertex 742500.0 5813500.0 2955.2099609375
  vertex 743500.0 5813500.0 2950.81005859375
  vertex 743500.0 5812500.0 2938.0400390625
 endloop
endfacet
facet normal 0.012457978911697865 0.012767988257110119 -0.9998409152030945
 outer loop
  vertex 743500.0 5813500.0 2950.81005859375
  vertex 744500.0 5812500.0 2950.5
  vertex 743500.0 5812500.0 2938.0400390625
 endloop
endfacet
facet normal 0.0041898624040186405 0.0044999150559306145 -0.9999811053276062
 outer loop
  vertex 743500.0 5813500.0 2950.81005859375
  vertex 744500.0 5813500.0 2955.0
  vertex 744500.0 5812500.0 2950.5
 endloop
endfacet
facet normal 0.020125601440668106 0.004499043338000774 -0.9997873306274414
 outer loop
  vertex 744500.0 5813500.0 2955.0
  vertex 745500.0 5812500.0 2970.6298828125
  vertex 744500.0 5812500.0 2950.5
 endloop
endfacet
facet normal -0.010465833358466625 -0.026089539751410484 -0.9996048212051392
 outer loop
  vertex 744500.0 5813500.0 2955.0
  vertex 745500.0 5813500.0 2944.530029296875
  vertex 745500.0 5812500.0 2970.6298828125
 endloop
endfacet
facet normal 0.024404581636190414 -0.026083197444677353 -0.9993618726730347
 outer loop
  vertex 745500.0 5813500.0 2944.530029296875
  vertex 746500.0 5812500.0 2995.050048828125
  vertex 745500.0 5812500.0 2970.6298828125
 endloop
endfacet
facet normal -0.003754456527531147 -0.054199863225221634 -0.9985230565071106
 outer loop
  vertex 745500.0 5813500.0 2944.530029296875
  vertex 746500.0 5813500.0 2940.77001953125
  vertex 746500.0 5812500.0 2995.050048828125
 endloop
endfacet
facet normal -0.04511750862002373 -0.054145049303770065 -0.9975132346153259
 outer loop
  vertex 746500.0 5813500.0 2940.77001953125
  vertex 747500.0 5812500.0 2949.820068359375
  vertex 746500.0 5812500.0 2995.050048828125
 endloop
endfacet
facet normal 0.016557320952415466 0.007508768700063229 -0.9998347163200378
 outer loop
  vertex 746500.0 5813500.0 2940.77001953125
  vertex 747500.0 5813500.0 2957.330078125
  vertex 747500.0 5812500.0 2949.820068359375
 endloop
endfacet
facet normal -0.002120052697136998 0.007509781047701836 -0.9999695420265198
 outer loop
  vertex 747500.0 5813500.0 2957.330078125
  vertex 748500.0 5812500.0 2947.699951171875
  vertex 747500.0 5812500.0 2949.820068359375
 endloop
endfacet
facet normal -0.0025299573317170143 0.007099895738065243 -0.9999715685844421
 outer loop
  vertex 747500.0 5813500.0 2957.330078125
  vertex 748500.0 5813500.0 2954.800048828125
  vertex 748500.0 5812500.0 2947.699951171875
 endloop
endfacet
facet normal 0.006979634519666433 0.00709974579513073 -0.9999504685401917
 outer loop
  vertex 748500.0 5813500.0 2954.800048828125
  vertex 749500.0 5812500.0 2954.679931640625
  vertex 748500.0 5812500.0 2947.699951171875
 endloop
endfacet
facet normal -0.0028801041189581156 -0.0027599879540503025 -0.9999920725822449
 outer loop
  vertex 748500.0 5813500.0 2954.800048828125
  vertex 749500.0 5813500.0 2951.919921875
  vertex 749500.0 5812500.0 2954.679931640625
 endloop
endfacet
facet normal 0.012158965691924095 0.00280983978882432 -0.9999221563339233
 outer loop
  vertex 729500.0 5814500.0 2957.7900390625
  vertex 730500.0 5814500.0 2969.949951171875
  vertex 730500.0 5813500.0 2967.139892578125
 endloop
endfacet
facet normal -0.000839840155094862 0.0028100465424358845 -0.9999957084655762
 outer loop
  vertex 730500.0 5814500.0 2969.949951171875
  vertex 731500.0 5813500.0 2966.300048828125
  vertex 730500.0 5813500.0 2967.139892578125
 endloop
endfacet
facet normal -0.03800008445978165 -0.03435497730970383 -0.9986869692802429
 outer loop
  vertex 730500.0 5814500.0 2969.949951171875
  vertex 731500.0 5814500.0 2931.89990234375
  vertex 731500.0 5813500.0 2966.300048828125
 endloop
endfacet
facet normal -0.02544667385518551 -0.03436867892742157 -0.9990851879119873
 outer loop
  vertex 731500.0 5814500.0 2931.89990234375
  vertex 732500.0 5813500.0 2940.830078125
  vertex 731500.0 5813500.0 2966.300048828125
 endloop
endfacet
facet normal 0.0037499733734875917 0.00039989949436858296 -0.999992847442627
 outer loop
  vertex 734500.0 5814500.0 2961.199951171875
  vertex 735500.0 5813500.0 2964.550048828125
  vertex 734500.0 5813500.0 2960.800048828125
 endloop
endfacet
facet normal -0.0020400050561875105 -0.005390047095716 -0.9999833703041077
 outer loop
  vertex 734500.0 5814500.0 2961.199951171875
  vertex 735500.0 5814500.0 2959.159912109375
  vertex 735500.0 5813500.0 2964.550048828125
 endloop
endfacet
facet normal -0.01239901315420866 -0.005389643833041191 -0.9999085664749146
 outer loop
  vertex 735500.0 5814500.0 2959.159912109375
  vertex 736500.0 5813500.0 2952.14990234375
  vertex 735500.0 5813500.0 2964.550048828125
 endloop
endfacet
facet normal -0.023819703608751297 -0.016812672838568687 -0.9995748400688171
 outer loop
  vertex 735500.0 5814500.0 2959.159912109375
  vertex 736500.0 5814500.0 2935.330078125
  vertex 736500.0 5813500.0 2952.14990234375
 endloop
endfacet
facet normal 0.02585780806839466 -0.01681182160973549 -0.9995242357254028
 outer loop
  vertex 736500.0 5814500.0 2935.330078125
  vertex 737500.0 5813500.0 2978.02001953125
  vertex 736500.0 5813500.0 2952.14990234375
 endloop
endfacet
facet normal 0.0262971892952919 -0.01637226529419422 -0.9995201230049133
 outer loop
  vertex 736500.0 5814500.0 2935.330078125
  vertex 737500.0 5814500.0 2961.639892578125
  vertex 737500.0 5813500.0 2978.02001953125
 endloop
endfacet
facet normal -0.020013324916362762 -0.016374649479985237 -0.9996656179428101
 outer loop
  vertex 737500.0 5814500.0 2961.639892578125
  vertex 738500.0 5813500.0 2958.0
  vertex 737500.0 5813500.0 2978.02001953125
 endloop
endfacet
facet normal 0.002360058482736349 0.005999875720590353 -0.9999792575836182
 outer loop
  vertex 737500.0 5814500.0 2961.639892578125
  vertex 738500.0 5814500.0 2964.0
  vertex 738500.0 5813500.0 2958.0
 endloop
endfacet
facet normal -0.013298633508384228 0.005999361630529165 -0.9998935461044312
 outer loop
  vertex 738500.0 5814500.0 2964.0
  vertex 739500.0 5813500.0 2944.699951171875
  vertex 738500.0 5813500.0 2958.0
 endloop
endfacet
facet normal 0.013391542248427868 0.03267955034971237 -0.999376118183136
 outer loop
  vertex 738500.0 5814500.0 2964.0
  vertex 739500.0 5814500.0 2977.39990234375
  vertex 739500.0 5813500.0 2944.699951171875
 endloop
endfacet
facet normal 0.007935449481010437 0.032681453973054886 -0.9994342923164368
 outer loop
  vertex 739500.0 5814500.0 2977.39990234375
  vertex 740500.0 5813500.0 2952.639892578125
  vertex 739500.0 5813500.0 2944.699951171875
 endloop
endfacet
facet normal -0.015567280352115631 0.009188683703541756 -0.9998365640640259
 outer loop
  vertex 739500.0 5814500.0 2977.39990234375
  vertex 740500.0 5814500.0 2961.830078125
  vertex 740500.0 5813500.0 2952.639892578125
 endloop
endfacet
facet normal 0.000259998778346926 0.009189797565340996 -0.9999577403068542
 outer loop
  vertex 740500.0 5814500.0 2961.830078125
  vertex 741500.0 5813500.0 2952.89990234375
  vertex 740500.0 5813500.0 2952.639892578125
 endloop
endfacet
facet normal -0.013128879480063915 -0.004199552349746227 -0.999904990196228
 outer loop
  vertex 740500.0 5814500.0 2961.830078125
  vertex 741500.0 5814500.0 2948.699951171875
  vertex 741500.0 5813500.0 2952.89990234375
 endloop
endfacet
facet normal 0.0023100320249795914 -0.00419990299269557 -0.9999884963035583
 outer loop
  vertex 741500.0 5814500.0 2948.699951171875
  vertex 742500.0 5813500.0 2955.2099609375
  vertex 741500.0 5813500.0 2952.89990234375
 endloop
endfacet
facet normal 0.002959929406642914 -0.0035500109661370516 -0.9999893307685852
 outer loop
  vertex 741500.0 5814500.0 2948.699951171875
  vertex 742500.0 5814500.0 2951.659912109375
  vertex 742500.0 5813500.0 2955.2099609375
 endloop
endfacet
facet normal -0.004399831872433424 -0.0035499921068549156 -0.9999840259552002
 outer loop
  vertex 742500.0 5814500.0 2951.659912109375
  vertex 743500.0 5813500.0 2950.81005859375
  vertex 742500.0 5813500.0 2955.2099609375
 endloop
endfacet
facet normal -0.0019499462796375155 -0.0011000948725268245 -0.9999974966049194
 outer loop
  vertex 742500.0 5814500.0 2951.659912109375
  vertex 743500.0 5814500.0 2949.7099609375
  vertex 743500.0 5813500.0 2950.81005859375
 endloop
endfacet
facet normal 0.004189901985228062 -0.0011000873055309057 -0.9999906420707703
 outer loop
  vertex 743500.0 5814500.0 2949.7099609375
  vertex 744500.0 5813500.0 2955.0
  vertex 743500.0 5813500.0 2950.81005859375
 endloop
endfacet
facet normal 0.00518987188115716 -0.00010009630932472646 -0.9999865889549255
 outer loop
  vertex 743500.0 5814500.0 2949.7099609375
  vertex 744500.0 5814500.0 2954.89990234375
  vertex 744500.0 5813500.0 2955.0
 endloop
endfacet
facet normal -0.010469396598637104 -0.00010009216930484399 -0.9999451637268066
 outer loop
  vertex 744500.0 5814500.0 2954.89990234375
  vertex 745500.0 5813500.0 2944.530029296875
  vertex 744500.0 5813500.0 2955.0
 endloop
endfacet
facet normal -0.01001951564103365 0.0003498359292279929 -0.9999497532844543
 outer loop
  vertex 744500.0 5814500.0 2954.89990234375
  vertex 745500.0 5814500.0 2944.8798828125
  vertex 745500.0 5813500.0 2944.530029296875
 endloop
endfacet
facet normal -0.0037599829956889153 0.00034985103411599994 -0.999992847442627
 outer loop
  vertex 745500.0 5814500.0 2944.8798828125
  vertex 746500.0 5813500.0 2940.77001953125
  vertex 745500.0 5813500.0 2944.530029296875
 endloop
endfacet
facet normal -0.0021198641043156385 0.001989981858059764 -0.999995768070221
 outer loop
  vertex 745500.0 5814500.0 2944.8798828125
  vertex 746500.0 5814500.0 2942.760009765625
  vertex 746500.0 5813500.0 2940.77001953125
 endloop
endfacet
facet normal 0.016557756811380386 0.0019897136371582747 -0.999860942363739
 outer loop
  vertex 746500.0 5814500.0 2942.760009765625
  vertex 747500.0 5813500.0 2957.330078125
  vertex 746500.0 5813500.0 2940.77001953125
 endloop
endfacet
facet normal -0.0012398343533277512 -0.015808070078492165 -0.9998742938041687
 outer loop
  vertex 746500.0 5814500.0 2942.760009765625
  vertex 747500.0 5814500.0 2941.52001953125
  vertex 747500.0 5813500.0 2957.330078125
 endloop
endfacet
facet normal -0.0025297049432992935 -0.01580803282558918 -0.9998718500137329
 outer loop
  vertex 747500.0 5814500.0 2941.52001953125
  vertex 748500.0 5813500.0 2954.800048828125
  vertex 747500.0 5813500.0 2957.330078125
 endloop
endfacet
facet normal -0.00591872725635767 -0.019196076318621635 -0.9997982382774353
 outer loop
  vertex 747500.0 5814500.0 2941.52001953125
  vertex 748500.0 5814500.0 2935.60009765625
  vertex 748500.0 5813500.0 2954.800048828125
 endloop
endfacet
facet normal -0.00287958444096148 -0.01919633336365223 -0.999811589717865
 outer loop
  vertex 748500.0 5814500.0 2935.60009765625
  vertex 749500.0 5813500.0 2951.919921875
  vertex 748500.0 5813500.0 2954.800048828125
 endloop
endfacet
facet normal 0.012158641591668129 0.007819251157343388 -0.9998955130577087
 outer loop
  vertex 729500.0 5815500.0 2965.610107421875
  vertex 730500.0 5814500.0 2969.949951171875
  vertex 729500.0 5814500.0 2957.7900390625
 endloop
endfacet
facet normal 0.001249993103556335 -0.0030898265540599823 -0.9999944567680359
 outer loop
  vertex 729500.0 5815500.0 2965.610107421875
  vertex 730500.0 5815500.0 2966.860107421875
  vertex 730500.0 5814500.0 2969.949951171875
 endloop
endfacet
facet normal -0.038022350519895554 -0.00308759487234056 -0.9992721676826477
 outer loop
  vertex 730500.0 5815500.0 2966.860107421875
  vertex 731500.0 5814500.0 2931.89990234375
  vertex 730500.0 5814500.0 2969.949951171875
 endloop
endfacet
facet normal -0.003258355660364032 0.03168410807847977 -0.9994926452636719
 outer loop
  vertex 730500.0 5815500.0 2966.860107421875
  vertex 731500.0 5815500.0 2963.60009765625
  vertex 731500.0 5814500.0 2931.89990234375
 endloop
endfacet
facet normal -0.0020400346256792545 0.00019995075126644224 -0.9999978542327881
 outer loop
  vertex 734500.0 5815500.0 2961.39990234375
  vertex 735500.0 5814500.0 2959.159912109375
  vertex 734500.0 5814500.0 2961.199951171875
 endloop
endfacet
facet normal -0.00045996016706340015 0.0017800262430682778 -0.9999983310699463
 outer loop
  vertex 734500.0 5815500.0 2961.39990234375
  vertex 735500.0 5815500.0 2960.93994140625
  vertex 735500.0 5814500.0 2959.159912109375
 endloop
endfacet
facet normal -0.023823034018278122 0.0017795213498175144 -0.9997146725654602
 outer loop
  vertex 735500.0 5815500.0 2960.93994140625
  vertex 736500.0 5814500.0 2935.330078125
  vertex 735500.0 5814500.0 2959.159912109375
 endloop
endfacet
facet normal -0.0040788548067212105 0.021524861454963684 -0.9997599720954895
 outer loop
  vertex 735500.0 5815500.0 2960.93994140625
  vertex 736500.0 5815500.0 2956.860107421875
  vertex 736500.0 5814500.0 2935.330078125
 endloop
endfacet
facet normal 0.02629462443292141 0.021517599001526833 -0.9994226694107056
 outer loop
  vertex 736500.0 5815500.0 2956.860107421875
  vertex 737500.0 5814500.0 2961.639892578125
  vertex 736500.0 5814500.0 2935.330078125
 endloop
endfacet
facet normal 0.007799532264471054 0.0030199140310287476 -0.9999650716781616
 outer loop
  vertex 736500.0 5815500.0 2956.860107421875
  vertex 737500.0 5815500.0 2964.659912109375
  vertex 737500.0 5814500.0 2961.639892578125
 endloop
endfacet
facet normal 0.002360090147703886 0.0030199973843991756 -0.9999926686286926
 outer loop
  vertex 737500.0 5815500.0 2964.659912109375
  vertex 738500.0 5814500.0 2964.0
  vertex 737500.0 5814500.0 2961.639892578125
 endloop
endfacet
facet normal 0.024924270808696747 0.025583762675523758 -0.9993619322776794
 outer loop
  vertex 737500.0 5815500.0 2964.659912109375
  vertex 738500.0 5815500.0 2989.60009765625
  vertex 738500.0 5814500.0 2964.0
 endloop
endfacet
facet normal 0.013394312001764774 0.025589417666196823 -0.999582827091217
 outer loop
  vertex 738500.0 5815500.0 2989.60009765625
  vertex 739500.0 5814500.0 2977.39990234375
  vertex 738500.0 5814500.0 2964.0
 endloop
endfacet
facet normal -0.0027999139856547117 0.00939969439059496 -0.9999518990516663
 outer loop
  vertex 738500.0 5815500.0 2989.60009765625
  vertex 739500.0 5815500.0 2986.800048828125
  vertex 739500.0 5814500.0 2977.39990234375
 endloop
endfacet
facet normal -0.015567249618470669 0.00939859263598919 -0.9998346567153931
 outer loop
  vertex 739500.0 5815500.0 2986.800048828125
  vertex 740500.0 5814500.0 2961.830078125
  vertex 739500.0 5814500.0 2977.39990234375
 endloop
endfacet
facet normal -0.02859821543097496 -0.003638623747974634 -0.9995843768119812
 outer loop
  vertex 739500.0 5815500.0 2986.800048828125
  vertex 740500.0 5815500.0 2958.18994140625
  vertex 740500.0 5814500.0 2961.830078125
 endloop
endfacet
facet normal -0.013128908351063728 -0.0036397988442331553 -0.9999071955680847
 outer loop
  vertex 740500.0 5815500.0 2958.18994140625
  vertex 741500.0 5814500.0 2948.699951171875
  vertex 740500.0 5814500.0 2961.830078125
 endloop
endfacet
facet normal -0.004789931233972311 0.00469984533265233 -0.9999775290489197
 outer loop
  vertex 740500.0 5815500.0 2958.18994140625
  vertex 741500.0 5815500.0 2953.39990234375
  vertex 741500.0 5814500.0 2948.699951171875
 endloop
endfacet
facet normal 0.002959915203973651 0.004699878394603729 -0.9999845623970032
 outer loop
  vertex 741500.0 5815500.0 2953.39990234375
  vertex 742500.0 5814500.0 2951.659912109375
  vertex 741500.0 5814500.0 2948.699951171875
 endloop
endfacet
facet normal -0.008019603788852692 -0.0062797036953270435 -0.9999481439590454
 outer loop
  vertex 741500.0 5815500.0 2953.39990234375
  vertex 742500.0 5815500.0 2945.3798828125
  vertex 742500.0 5814500.0 2951.659912109375
 endloop
endfacet
facet normal -0.001949909026734531 -0.006279893685132265 -0.9999783635139465
 outer loop
  vertex 742500.0 5815500.0 2945.3798828125
  vertex 743500.0 5814500.0 2949.7099609375
  vertex 742500.0 5814500.0 2951.659912109375
 endloop
endfacet
facet normal 0.023219814524054527 0.018891677260398865 -0.9995518922805786
 outer loop
  vertex 742500.0 5815500.0 2945.3798828125
  vertex 743500.0 5815500.0 2968.610107421875
  vertex 743500.0 5814500.0 2949.7099609375
 endloop
endfacet
facet normal 0.00518894474953413 0.018896516412496567 -0.9998079538345337
 outer loop
  vertex 743500.0 5815500.0 2968.610107421875
  vertex 744500.0 5814500.0 2954.89990234375
  vertex 743500.0 5814500.0 2949.7099609375
 endloop
endfacet
facet normal 0.055470772087574005 0.06912702322006226 -0.9960644841194153
 outer loop
  vertex 743500.0 5815500.0 2968.610107421875
  vertex 744500.0 5815500.0 3024.300048828125
  vertex 744500.0 5814500.0 2954.89990234375
 endloop
endfacet
facet normal -0.009995472617447376 0.06923016160726547 -0.9975506663322449
 outer loop
  vertex 744500.0 5815500.0 3024.300048828125
  vertex 745500.0 5814500.0 2944.8798828125
  vertex 744500.0 5814500.0 2954.89990234375
 endloop
endfacet
facet normal -0.02905105985701084 0.05023526772856712 -0.9983148574829102
 outer loop
  vertex 744500.0 5815500.0 3024.300048828125
  vertex 745500.0 5815500.0 2995.199951171875
  vertex 745500.0 5814500.0 2944.8798828125
 endloop
endfacet
facet normal -0.0021171874832361937 0.05025637149810791 -0.9987341165542603
 outer loop
  vertex 745500.0 5815500.0 2995.199951171875
  vertex 746500.0 5814500.0 2942.760009765625
  vertex 745500.0 5814500.0 2944.8798828125
 endloop
endfacet
facet normal 0.004203184507787228 0.056558720767498016 -0.9983904361724854
 outer loop
  vertex 745500.0 5815500.0 2995.199951171875
  vertex 746500.0 5815500.0 2999.409912109375
  vertex 746500.0 5814500.0 2942.760009765625
 endloop
endfacet
facet normal -0.0012380024418234825 0.05655917897820473 -0.99839848279953
 outer loop
  vertex 746500.0 5815500.0 2999.409912109375
  vertex 747500.0 5814500.0 2941.52001953125
  vertex 746500.0 5814500.0 2942.760009765625
 endloop
endfacet
facet normal -0.04777280613780022 0.01004805974662304 -0.9988076686859131
 outer loop
  vertex 746500.0 5815500.0 2999.409912109375
  vertex 747500.0 5815500.0 2951.580078125
  vertex 747500.0 5814500.0 2941.52001953125
 endloop
endfacet
facet normal -0.005919518414884806 0.010059373453259468 -0.9999318718910217
 outer loop
  vertex 747500.0 5815500.0 2951.580078125
  vertex 748500.0 5814500.0 2935.60009765625
  vertex 747500.0 5814500.0 2941.52001953125
 endloop
endfacet
facet normal -0.011579189449548721 0.004399564582854509 -0.9999232292175293
 outer loop
  vertex 747500.0 5815500.0 2951.580078125
  vertex 748500.0 5815500.0 2940.0
  vertex 748500.0 5814500.0 2935.60009765625
 endloop
endfacet
facet normal -0.004079751670360565 0.004860009532421827 -0.9999798536300659
 outer loop
  vertex 735500.0 5816500.0 2965.800048828125
  vertex 736500.0 5815500.0 2956.860107421875
  vertex 735500.0 5815500.0 2960.93994140625
 endloop
endfacet
facet normal 0.011307017877697945 0.020244555547833443 -0.9997311234474182
 outer loop
  vertex 735500.0 5816500.0 2965.800048828125
  vertex 736500.0 5816500.0 2977.110107421875
  vertex 736500.0 5815500.0 2956.860107421875
 endloop
endfacet
facet normal 0.007797968573868275 0.020245233550667763 -0.999764621257782
 outer loop
  vertex 736500.0 5816500.0 2977.110107421875
  vertex 737500.0 5815500.0 2964.659912109375
  vertex 736500.0 5815500.0 2956.860107421875
 endloop
endfacet
facet normal -0.017647160217165947 -0.005199071019887924 -0.9998307824134827
 outer loop
  vertex 736500.0 5816500.0 2977.110107421875
  vertex 737500.0 5816500.0 2959.4599609375
  vertex 737500.0 5815500.0 2964.659912109375
 endloop
endfacet
facet normal 0.024932095780968666 -0.005198264494538307 -0.9996756315231323
 outer loop
  vertex 737500.0 5816500.0 2959.4599609375
  vertex 738500.0 5815500.0 2989.60009765625
  vertex 737500.0 5815500.0 2964.659912109375
 endloop
endfacet
facet normal -0.003707811702042818 -0.033830489963293076 -0.999420702457428
 outer loop
  vertex 737500.0 5816500.0 2959.4599609375
  vertex 738500.0 5816500.0 2955.75
  vertex 738500.0 5815500.0 2989.60009765625
 endloop
endfacet
facet normal -0.0027984350454062223 -0.033830586820840836 -0.999423623085022
 outer loop
  vertex 738500.0 5816500.0 2955.75
  vertex 739500.0 5815500.0 2986.800048828125
  vertex 738500.0 5815500.0 2989.60009765625
 endloop
endfacet
facet normal 0.0038486458361148834 -0.027189694344997406 -0.9996228814125061
 outer loop
  vertex 738500.0 5816500.0 2955.75
  vertex 739500.0 5816500.0 2959.60009765625
  vertex 739500.0 5815500.0 2986.800048828125
 endloop
endfacet
facet normal -0.028587840497493744 -0.02717878296971321 -0.9992217421531677
 outer loop
  vertex 739500.0 5816500.0 2959.60009765625
  vertex 740500.0 5815500.0 2958.18994140625
  vertex 739500.0 5815500.0 2986.800048828125
 endloop
endfacet
facet normal -0.029072355479002 0.03256877139210701 -0.9990466237068176
 outer loop
  vertex 744500.0 5816500.0 3056.89990234375
  vertex 745500.0 5815500.0 2995.199951171875
  vertex 744500.0 5815500.0 3024.300048828125
 endloop
endfacet
facet normal -0.10746710747480392 -0.04619072005152702 -0.9931350946426392
 outer loop
  vertex 744500.0 5816500.0 3056.89990234375
  vertex 745500.0 5816500.0 2948.68994140625
  vertex 745500.0 5815500.0 2995.199951171875
 endloop
endfacet
facet normal 0.004205377772450447 -0.0464593730866909 -0.9989113211631775
 outer loop
  vertex 745500.0 5816500.0 2948.68994140625
  vertex 746500.0 5815500.0 2999.409912109375
  vertex 745500.0 5815500.0 2995.199951171875
 endloop
endfacet
facet normal 0.00012996075383853167 -0.050525229424238205 -0.9987227320671082
 outer loop
  vertex 745500.0 5816500.0 2948.68994140625
  vertex 746500.0 5816500.0 2948.820068359375
  vertex 746500.0 5815500.0 2999.409912109375
 endloop
endfacet
facet normal -0.047714341431856155 -0.050467684864997864 -0.9975852966308594
 outer loop
  vertex 746500.0 5816500.0 2948.820068359375
  vertex 747500.0 5815500.0 2951.580078125
  vertex 746500.0 5815500.0 2999.409912109375
 endloop
endfacet
facet normal 0.008539584465324879 0.005779721774160862 -0.9999468326568604
 outer loop
  vertex 746500.0 5816500.0 2948.820068359375
  vertex 747500.0 5816500.0 2957.360107421875
  vertex 747500.0 5815500.0 2951.580078125
 endloop
endfacet
facet normal -0.01157910842448473 0.005779545288532972 -0.9999162554740906
 outer loop
  vertex 747500.0 5816500.0 2957.360107421875
  vertex 748500.0 5815500.0 2940.0
  vertex 747500.0 5815500.0 2951.580078125
 endloop
endfacet
facet normal -0.004559637513011694 0.01279886718839407 -0.9999076724052429
 outer loop
  vertex 747500.0 5816500.0 2957.360107421875
  vertex 748500.0 5816500.0 2952.800048828125
  vertex 748500.0 5815500.0 2940.0
 endloop
endfacet
facet normal -0.017647389322519302 -0.0009600550984032452 -0.9998437762260437
 outer loop
  vertex 736500.0 5817500.0 2976.14990234375
  vertex 737500.0 5816500.0 2959.4599609375
  vertex 736500.0 5816500.0 2977.110107421875
 endloop
endfacet
facet normal 0.1370457112789154 0.15337878465652466 -0.9786180853843689
 outer loop
  vertex 736500.0 5817500.0 2976.14990234375
  vertex 737500.0 5817500.0 3116.18994140625
  vertex 737500.0 5816500.0 2959.4599609375
 endloop
endfacet
facet normal -0.0036651850678026676 0.1548387110233307 -0.9879329800605774
 outer loop
  vertex 737500.0 5817500.0 3116.18994140625
  vertex 738500.0 5816500.0 2955.75
  vertex 737500.0 5816500.0 2959.4599609375
 endloop
endfacet
facet normal 0.0001301247248193249 -0.0058497535064816475 -0.9999828934669495
 outer loop
  vertex 745500.0 5817500.0 2942.840087890625
  vertex 746500.0 5816500.0 2948.820068359375
  vertex 745500.0 5816500.0 2948.68994140625
 endloop
endfacet
endsolid
