solid
facet normal -0.03607023507356644 0.018784495070576668 -0.9991726875305176
 outer loop
  vertex 446500.0 5493500.0 3951.300048828125
  vertex 447500.0 5492500.0 3896.39990234375
  vertex 446500.0 5492500.0 3932.5
 endloop
endfacet
facet normal -0.07754544913768768 -0.022824957966804504 -0.996727466583252
 outer loop
  vertex 446500.0 5493500.0 3951.300048828125
  vertex 447500.0 5493500.0 3873.5
  vertex 447500.0 5492500.0 3896.39990234375
 endloop
endfacet
facet normal -0.0761655867099762 -0.18914112448692322 -0.9789915680885315
 outer loop
  vertex 446500.0 5494500.0 3758.10009765625
  vertex 447500.0 5493500.0 3873.5
  vertex 446500.0 5493500.0 3951.300048828125
 endloop
endfacet
facet normal -0.01951911486685276 -0.13385827839374542 -0.9908081889152527
 outer loop
  vertex 446500.0 5494500.0 3758.10009765625
  vertex 447500.0 5494500.0 3738.39990234375
  vertex 447500.0 5493500.0 3873.5
 endloop
endfacet
facet normal -0.02021210826933384 -0.13385644555091858 -0.9907945990562439
 outer loop
  vertex 447500.0 5494500.0 3738.39990234375
  vertex 448500.0 5493500.0 3853.10009765625
  vertex 447500.0 5493500.0 3873.5
 endloop
endfacet
facet normal -0.017247477546334267 -0.13094288110733032 -0.9912398457527161
 outer loop
  vertex 447500.0 5494500.0 3738.39990234375
  vertex 448500.0 5494500.0 3721.0
  vertex 448500.0 5493500.0 3853.10009765625
 endloop
endfacet
facet normal -0.029233427718281746 -0.1309063881635666 -0.9909636378288269
 outer loop
  vertex 448500.0 5494500.0 3721.0
  vertex 449500.0 5493500.0 3823.60009765625
  vertex 448500.0 5493500.0 3853.10009765625
 endloop
endfacet
facet normal -0.042708974331617355 -0.1441430002450943 -0.9886347651481628
 outer loop
  vertex 448500.0 5494500.0 3721.0
  vertex 449500.0 5494500.0 3677.800048828125
  vertex 449500.0 5493500.0 3823.60009765625
 endloop
endfacet
facet normal -0.08205211907625198 -0.1437881588935852 -0.9862009882926941
 outer loop
  vertex 449500.0 5494500.0 3677.800048828125
  vertex 450500.0 5493500.0 3740.39990234375
  vertex 449500.0 5493500.0 3823.60009765625
 endloop
endfacet
facet normal -0.028271974995732307 -0.09058931469917297 -0.9954869747161865
 outer loop
  vertex 449500.0 5494500.0 3677.800048828125
  vertex 450500.0 5494500.0 3649.39990234375
  vertex 450500.0 5493500.0 3740.39990234375
 endloop
endfacet
facet normal -0.049637291580438614 0.007490544114261866 -0.9987392425537109
 outer loop
  vertex 455500.0 5494500.0 3605.0
  vertex 456500.0 5494500.0 3555.300048828125
  vertex 456500.0 5493500.0 3547.800048828125
 endloop
endfacet
facet normal -0.01954069919884205 0.12547588348388672 -0.9919041991233826
 outer loop
  vertex 446500.0 5495500.0 3884.60009765625
  vertex 447500.0 5494500.0 3738.39990234375
  vertex 446500.0 5494500.0 3758.10009765625
 endloop
endfacet
facet normal -0.06982746720314026 0.07559647411108017 -0.9946905374526978
 outer loop
  vertex 446500.0 5495500.0 3884.60009765625
  vertex 447500.0 5495500.0 3814.39990234375
  vertex 447500.0 5494500.0 3738.39990234375
 endloop
endfacet
facet normal -0.017347261309623718 0.0757700577378273 -0.9969744086265564
 outer loop
  vertex 447500.0 5495500.0 3814.39990234375
  vertex 448500.0 5494500.0 3721.0
  vertex 447500.0 5494500.0 3738.39990234375
 endloop
endfacet
facet normal -0.03471926227211952 0.058464474976062775 -0.9976855516433716
 outer loop
  vertex 447500.0 5495500.0 3814.39990234375
  vertex 448500.0 5495500.0 3779.60009765625
  vertex 448500.0 5494500.0 3721.0
 endloop
endfacet
facet normal -0.043085917830467224 0.058445416390895844 -0.997360348701477
 outer loop
  vertex 448500.0 5495500.0 3779.60009765625
  vertex 449500.0 5494500.0 3677.800048828125
  vertex 448500.0 5494500.0 3721.0
 endloop
endfacet
facet normal 0.05630290508270264 0.15668213367462158 -0.9860429167747498
 outer loop
  vertex 448500.0 5495500.0 3779.60009765625
  vertex 449500.0 5495500.0 3836.699951171875
  vertex 449500.0 5494500.0 3677.800048828125
 endloop
endfacet
facet normal -0.02803722582757473 0.15686938166618347 -0.987221360206604
 outer loop
  vertex 449500.0 5495500.0 3836.699951171875
  vertex 450500.0 5494500.0 3649.39990234375
  vertex 449500.0 5494500.0 3677.800048828125
 endloop
endfacet
facet normal -0.03934354707598686 0.14580820500850677 -0.9885302186012268
 outer loop
  vertex 449500.0 5495500.0 3836.699951171875
  vertex 450500.0 5495500.0 3796.89990234375
  vertex 450500.0 5494500.0 3649.39990234375
 endloop
endfacet
facet normal -0.02857889048755169 0.14586159586906433 -0.988892138004303
 outer loop
  vertex 450500.0 5495500.0 3796.89990234375
  vertex 451500.0 5494500.0 3620.5
  vertex 450500.0 5494500.0 3649.39990234375
 endloop
endfacet
facet normal -0.12828890979290009 0.04646129533648491 -0.9906479120254517
 outer loop
  vertex 450500.0 5495500.0 3796.89990234375
  vertex 451500.0 5495500.0 3667.39990234375
  vertex 451500.0 5494500.0 3620.5
 endloop
endfacet
facet normal -0.047944724559783936 -0.0017977319657802582 -0.9988483786582947
 outer loop
  vertex 452500.0 5495500.0 3594.10009765625
  vertex 453500.0 5495500.0 3546.10009765625
  vertex 453500.0 5494500.0 3547.89990234375
 endloop
endfacet
facet normal 0.0017001901287585497 -0.001799799152649939 -0.9999969601631165
 outer loop
  vertex 453500.0 5495500.0 3546.10009765625
  vertex 454500.0 5494500.0 3549.60009765625
  vertex 453500.0 5494500.0 3547.89990234375
 endloop
endfacet
facet normal -0.0029999231919646263 -0.006499833427369595 -0.9999743700027466
 outer loop
  vertex 453500.0 5495500.0 3546.10009765625
  vertex 454500.0 5495500.0 3543.10009765625
  vertex 454500.0 5494500.0 3549.60009765625
 endloop
endfacet
facet normal 0.05531391501426697 -0.006489911582320929 -0.9984478950500488
 outer loop
  vertex 454500.0 5495500.0 3543.10009765625
  vertex 455500.0 5494500.0 3605.0
  vertex 454500.0 5494500.0 3549.60009765625
 endloop
endfacet
facet normal -0.03491482511162758 -0.09648799151182175 -0.9947215914726257
 outer loop
  vertex 454500.0 5495500.0 3543.10009765625
  vertex 455500.0 5495500.0 3508.0
  vertex 455500.0 5494500.0 3605.0
 endloop
endfacet
facet normal -0.049407362937927246 -0.09642894566059113 -0.9941128492355347
 outer loop
  vertex 455500.0 5495500.0 3508.0
  vertex 456500.0 5494500.0 3555.300048828125
  vertex 455500.0 5494500.0 3605.0
 endloop
endfacet
facet normal 0.02409372292459011 0.12770748138427734 -0.9915191531181335
 outer loop
  vertex 445500.0 5496500.0 3989.10009765625
  vertex 446500.0 5496500.0 4013.39990234375
  vertex 446500.0 5495500.0 3884.60009765625
 endloop
endfacet
facet normal -0.06945690512657166 0.1274360567331314 -0.9894118905067444
 outer loop
  vertex 446500.0 5496500.0 4013.39990234375
  vertex 447500.0 5495500.0 3814.39990234375
  vertex 446500.0 5495500.0 3884.60009765625
 endloop
endfacet
facet normal -0.017117388546466827 0.17865154147148132 -0.9837634563446045
 outer loop
  vertex 446500.0 5496500.0 4013.39990234375
  vertex 447500.0 5496500.0 3996.0
  vertex 447500.0 5495500.0 3814.39990234375
 endloop
endfacet
facet normal -0.03421974927186966 0.17857307195663452 -0.9833314418792725
 outer loop
  vertex 447500.0 5496500.0 3996.0
  vertex 448500.0 5495500.0 3779.60009765625
  vertex 447500.0 5495500.0 3814.39990234375
 endloop
endfacet
facet normal -0.047775886952877045 0.16539312899112701 -0.9850698709487915
 outer loop
  vertex 447500.0 5496500.0 3996.0
  vertex 448500.0 5496500.0 3947.5
  vertex 448500.0 5495500.0 3779.60009765625
 endloop
endfacet
facet normal 0.0562225803732872 0.16532030701637268 -0.9846360683441162
 outer loop
  vertex 448500.0 5496500.0 3947.5
  vertex 449500.0 5495500.0 3836.699951171875
  vertex 448500.0 5495500.0 3779.60009765625
 endloop
endfacet
facet normal -0.04545644670724869 0.06499455124139786 -0.996849775314331
 outer loop
  vertex 448500.0 5496500.0 3947.5
  vertex 449500.0 5496500.0 3901.89990234375
  vertex 449500.0 5495500.0 3836.699951171875
 endloop
endfacet
facet normal -0.03968443349003792 0.06501055508852005 -0.9970951676368713
 outer loop
  vertex 449500.0 5496500.0 3901.89990234375
  vertex 450500.0 5495500.0 3796.89990234375
  vertex 449500.0 5495500.0 3836.699951171875
 endloop
endfacet
facet normal -0.05225607007741928 0.05245571583509445 -0.9972551465034485
 outer loop
  vertex 449500.0 5496500.0 3901.89990234375
  vertex 450500.0 5496500.0 3849.5
  vertex 450500.0 5495500.0 3796.89990234375
 endloop
endfacet
facet normal -0.12825322151184082 0.05209368094801903 -0.990372359752655
 outer loop
  vertex 450500.0 5496500.0 3849.5
  vertex 451500.0 5495500.0 3667.39990234375
  vertex 450500.0 5495500.0 3796.89990234375
 endloop
endfacet
facet normal -0.08519429713487625 0.09540996700525284 -0.9917856454849243
 outer loop
  vertex 450500.0 5496500.0 3849.5
  vertex 451500.0 5496500.0 3763.60009765625
  vertex 451500.0 5495500.0 3667.39990234375
 endloop
endfacet
facet normal -0.07276952266693115 0.09550424665212631 -0.9927656054496765
 outer loop
  vertex 451500.0 5496500.0 3763.60009765625
  vertex 452500.0 5495500.0 3594.10009765625
  vertex 451500.0 5495500.0 3667.39990234375
 endloop
endfacet
facet normal -0.13575954735279083 0.03208310529589653 -0.990222156047821
 outer loop
  vertex 451500.0 5496500.0 3763.60009765625
  vertex 452500.0 5496500.0 3626.5
  vertex 452500.0 5495500.0 3594.10009765625
 endloop
endfacet
facet normal -0.04791971668601036 0.03234570845961571 -0.998327374458313
 outer loop
  vertex 452500.0 5496500.0 3626.5
  vertex 453500.0 5495500.0 3546.10009765625
  vertex 452500.0 5495500.0 3594.10009765625
 endloop
endfacet
facet normal -0.050213851034641266 0.030048279091715813 -0.9982863664627075
 outer loop
  vertex 452500.0 5496500.0 3626.5
  vertex 453500.0 5496500.0 3576.199951171875
  vertex 453500.0 5495500.0 3546.10009765625
 endloop
endfacet
facet normal -0.002998626558110118 0.03008609265089035 -0.9995428323745728
 outer loop
  vertex 453500.0 5496500.0 3576.199951171875
  vertex 454500.0 5495500.0 3543.10009765625
  vertex 453500.0 5495500.0 3546.10009765625
 endloop
endfacet
facet normal 0.05983224883675575 0.09272992610931396 -0.9938919544219971
 outer loop
  vertex 453500.0 5496500.0 3576.199951171875
  vertex 454500.0 5496500.0 3636.39990234375
  vertex 454500.0 5495500.0 3543.10009765625
 endloop
endfacet
facet normal -0.034926995635032654 0.09283967316150665 -0.9950682520866394
 outer loop
  vertex 454500.0 5496500.0 3636.39990234375
  vertex 455500.0 5495500.0 3508.0
  vertex 454500.0 5495500.0 3543.10009765625
 endloop
endfacet
facet normal 0.024227319285273552 -0.07328075170516968 -0.9970170259475708
 outer loop
  vertex 445500.0 5497500.0 3915.60009765625
  vertex 446500.0 5496500.0 4013.39990234375
  vertex 445500.0 5496500.0 3989.10009765625
 endloop
endfacet
facet normal -0.07196579873561859 -0.16811639070510864 -0.983136773109436
 outer loop
  vertex 445500.0 5497500.0 3915.60009765625
  vertex 446500.0 5497500.0 3842.39990234375
  vertex 446500.0 5496500.0 4013.39990234375
 endloop
endfacet
facet normal -0.01714843511581421 -0.16852863132953644 -0.9855475425720215
 outer loop
  vertex 446500.0 5497500.0 3842.39990234375
  vertex 447500.0 5496500.0 3996.0
  vertex 446500.0 5496500.0 4013.39990234375
 endloop
endfacet
facet normal -0.02636491134762764 -0.17747247219085693 -0.9837725758552551
 outer loop
  vertex 446500.0 5497500.0 3842.39990234375
  vertex 447500.0 5497500.0 3815.60009765625
  vertex 447500.0 5496500.0 3996.0
 endloop
endfacet
facet normal -0.04767528548836708 -0.1773323118686676 -0.9829955697059631
 outer loop
  vertex 447500.0 5497500.0 3815.60009765625
  vertex 448500.0 5496500.0 3947.5
  vertex 447500.0 5496500.0 3996.0
 endloop
endfacet
facet normal 0.004761444870382547 -0.1260843276977539 -0.9920080900192261
 outer loop
  vertex 447500.0 5497500.0 3815.60009765625
  vertex 448500.0 5497500.0 3820.39990234375
  vertex 448500.0 5496500.0 3947.5
 endloop
endfacet
facet normal -0.04518996179103851 -0.1259569376707077 -0.9910058975219727
 outer loop
  vertex 448500.0 5497500.0 3820.39990234375
  vertex 449500.0 5496500.0 3901.89990234375
  vertex 448500.0 5496500.0 3947.5
 endloop
endfacet
facet normal -0.041745491325855255 -0.12255948781967163 -0.9915828108787537
 outer loop
  vertex 448500.0 5497500.0 3820.39990234375
  vertex 449500.0 5497500.0 3778.300048828125
  vertex 449500.0 5496500.0 3901.89990234375
 endloop
endfacet
facet normal -0.05193399637937546 -0.12250088900327682 -0.9911087155342102
 outer loop
  vertex 449500.0 5497500.0 3778.300048828125
  vertex 450500.0 5496500.0 3849.5
  vertex 449500.0 5496500.0 3901.89990234375
 endloop
endfacet
facet normal -0.047214996069669724 -0.11783891916275024 -0.9919096827507019
 outer loop
  vertex 449500.0 5497500.0 3778.300048828125
  vertex 450500.0 5497500.0 3730.699951171875
  vertex 450500.0 5496500.0 3849.5
 endloop
endfacet
facet normal -0.08499142527580261 -0.11754362285137177 -0.9894240498542786
 outer loop
  vertex 450500.0 5497500.0 3730.699951171875
  vertex 451500.0 5496500.0 3763.60009765625
  vertex 450500.0 5496500.0 3849.5
 endloop
endfacet
facet normal -0.022559383884072304 -0.05540061742067337 -0.9982093572616577
 outer loop
  vertex 450500.0 5497500.0 3730.699951171875
  vertex 451500.0 5497500.0 3708.10009765625
  vertex 451500.0 5496500.0 3763.60009765625
 endloop
endfacet
facet normal -0.13562460243701935 -0.05490270256996155 -0.989237904548645
 outer loop
  vertex 451500.0 5497500.0 3708.10009765625
  vertex 452500.0 5496500.0 3626.5
  vertex 451500.0 5496500.0 3763.60009765625
 endloop
endfacet
facet normal -0.0023926470894366503 0.07895248383283615 -0.9968754649162292
 outer loop
  vertex 451500.0 5497500.0 3708.10009765625
  vertex 452500.0 5497500.0 3705.699951171875
  vertex 452500.0 5496500.0 3626.5
 endloop
endfacet
facet normal -0.050080109387636185 0.07885364443063736 -0.9956274628639221
 outer loop
  vertex 452500.0 5497500.0 3705.699951171875
  vertex 453500.0 5496500.0 3576.199951171875
  vertex 452500.0 5496500.0 3626.5
 endloop
endfacet
facet normal -0.08272600919008255 0.04619140550494194 -0.9955012798309326
 outer loop
  vertex 452500.0 5497500.0 3705.699951171875
  vertex 453500.0 5497500.0 3622.60009765625
  vertex 453500.0 5496500.0 3576.199951171875
 endloop
endfacet
facet normal 0.06002681702375412 0.04626670107245445 -0.9971239566802979
 outer loop
  vertex 453500.0 5497500.0 3622.60009765625
  vertex 454500.0 5496500.0 3636.39990234375
  vertex 453500.0 5496500.0 3576.199951171875
 endloop
endfacet
facet normal -0.06111282855272293 -0.07484806329011917 -0.9953205585479736
 outer loop
  vertex 453500.0 5497500.0 3622.60009765625
  vertex 454500.0 5497500.0 3561.199951171875
  vertex 454500.0 5496500.0 3636.39990234375
 endloop
endfacet
facet normal -0.07094447314739227 0.23589938879013062 -0.9691843390464783
 outer loop
  vertex 445500.0 5498500.0 4159.0
  vertex 446500.0 5497500.0 3842.39990234375
  vertex 445500.0 5497500.0 3915.60009765625
 endloop
endfacet
facet normal -0.043580733239650726 0.26167601346969604 -0.9641713500022888
 outer loop
  vertex 445500.0 5498500.0 4159.0
  vertex 446500.0 5498500.0 4113.7998046875
  vertex 446500.0 5497500.0 3842.39990234375
 endloop
endfacet
facet normal -0.02585553750395775 0.26183730363845825 -0.9647656083106995
 outer loop
  vertex 446500.0 5498500.0 4113.7998046875
  vertex 447500.0 5497500.0 3815.60009765625
  vertex 446500.0 5497500.0 3842.39990234375
 endloop
endfacet
facet normal -0.1653009057044983 0.12637220323085785 -0.9781132936477661
 outer loop
  vertex 446500.0 5498500.0 4113.7998046875
  vertex 447500.0 5498500.0 3944.800048828125
  vertex 447500.0 5497500.0 3815.60009765625
 endloop
endfacet
facet normal 0.004760184790939093 0.12813347578048706 -0.9917455315589905
 outer loop
  vertex 447500.0 5498500.0 3944.800048828125
  vertex 448500.0 5497500.0 3820.39990234375
  vertex 447500.0 5497500.0 3815.60009765625
 endloop
endfacet
facet normal -0.06036684289574623 0.06355448067188263 -0.9961509108543396
 outer loop
  vertex 447500.0 5498500.0 3944.800048828125
  vertex 448500.0 5498500.0 3884.199951171875
  vertex 448500.0 5497500.0 3820.39990234375
 endloop
endfacet
facet normal -0.041977401822805405 0.06361447274684906 -0.9970912933349609
 outer loop
  vertex 448500.0 5498500.0 3884.199951171875
  vertex 449500.0 5497500.0 3778.300048828125
  vertex 448500.0 5497500.0 3820.39990234375
 endloop
endfacet
facet normal -0.0916043296456337 0.013840126805007458 -0.9956992864608765
 outer loop
  vertex 448500.0 5498500.0 3884.199951171875
  vertex 449500.0 5498500.0 3792.199951171875
  vertex 449500.0 5497500.0 3778.300048828125
 endloop
endfacet
facet normal -0.04754168167710304 0.013882843777537346 -0.9987727403640747
 outer loop
  vertex 449500.0 5498500.0 3792.199951171875
  vertex 450500.0 5497500.0 3730.699951171875
  vertex 449500.0 5497500.0 3778.300048828125
 endloop
endfacet
facet normal 0.046379003673791885 0.10745634138584137 -0.9931274056434631
 outer loop
  vertex 449500.0 5498500.0 3792.199951171875
  vertex 450500.0 5498500.0 3838.89990234375
  vertex 450500.0 5497500.0 3730.699951171875
 endloop
endfacet
facet normal -0.02246304228901863 0.10754495859146118 -0.9939464330673218
 outer loop
  vertex 450500.0 5498500.0 3838.89990234375
  vertex 451500.0 5497500.0 3708.10009765625
  vertex 450500.0 5497500.0 3730.699951171875
 endloop
endfacet
facet normal -0.1646139770746231 -0.035682979971170425 -0.9857124090194702
 outer loop
  vertex 450500.0 5498500.0 3838.89990234375
  vertex 451500.0 5498500.0 3671.89990234375
  vertex 451500.0 5497500.0 3708.10009765625
 endloop
endfacet
facet normal -0.0023985705338418484 -0.036176394671201706 -0.9993425607681274
 outer loop
  vertex 451500.0 5498500.0 3671.89990234375
  vertex 452500.0 5497500.0 3705.699951171875
  vertex 451500.0 5497500.0 3708.10009765625
 endloop
endfacet
facet normal -0.04253701865673065 -0.07620809227228165 -0.9961841702461243
 outer loop
  vertex 451500.0 5498500.0 3671.89990234375
  vertex 452500.0 5498500.0 3629.199951171875
  vertex 452500.0 5497500.0 3705.699951171875
 endloop
endfacet
facet normal -0.08257478475570679 -0.0760166347026825 -0.9936814904212952
 outer loop
  vertex 452500.0 5498500.0 3629.199951171875
  vertex 453500.0 5497500.0 3622.60009765625
  vertex 452500.0 5497500.0 3705.699951171875
 endloop
endfacet
facet normal -0.022491466253995895 -0.01589411497116089 -0.9996207356452942
 outer loop
  vertex 452500.0 5498500.0 3629.199951171875
  vertex 453500.0 5498500.0 3606.699951171875
  vertex 453500.0 5497500.0 3622.60009765625
 endloop
endfacet
facet normal -0.06127702072262764 -0.015868261456489563 -0.9979946613311768
 outer loop
  vertex 453500.0 5498500.0 3606.699951171875
  vertex 454500.0 5497500.0 3561.199951171875
  vertex 453500.0 5497500.0 3622.60009765625
 endloop
endfacet
facet normal -0.0447983592748642 0.12527620792388916 -0.9911099672317505
 outer loop
  vertex 445500.0 5499500.0 4285.39990234375
  vertex 446500.0 5498500.0 4113.7998046875
  vertex 445500.0 5498500.0 4159.0
 endloop
endfacet
facet normal -0.07524046301841736 0.09509336203336716 -0.9926207661628723
 outer loop
  vertex 445500.0 5499500.0 4285.39990234375
  vertex 446500.0 5499500.0 4209.60009765625
  vertex 446500.0 5498500.0 4113.7998046875
 endloop
endfacet
facet normal -0.1658983677625656 0.09404221922159195 -0.9816485047340393
 outer loop
  vertex 446500.0 5499500.0 4209.60009765625
  vertex 447500.0 5498500.0 3944.800048828125
  vertex 446500.0 5498500.0 4113.7998046875
 endloop
endfacet
facet normal -0.14465512335300446 0.11556658893823624 -0.9827101230621338
 outer loop
  vertex 446500.0 5499500.0 4209.60009765625
  vertex 447500.0 5499500.0 4062.39990234375
  vertex 447500.0 5498500.0 3944.800048828125
 endloop
endfacet
facet normal -0.060076646506786346 0.11658404022455215 -0.9913621544837952
 outer loop
  vertex 447500.0 5499500.0 4062.39990234375
  vertex 448500.0 5498500.0 3884.199951171875
  vertex 447500.0 5498500.0 3944.800048828125
 endloop
endfacet
facet normal 0.033143963664770126 0.20737022161483765 -0.9777008891105652
 outer loop
  vertex 447500.0 5499500.0 4062.39990234375
  vertex 448500.0 5499500.0 4096.2998046875
  vertex 448500.0 5498500.0 3884.199951171875
 endloop
endfacet
facet normal -0.08963564038276672 0.2066490203142166 -0.9743005633354187
 outer loop
  vertex 448500.0 5499500.0 4096.2998046875
  vertex 449500.0 5498500.0 3792.199951171875
  vertex 448500.0 5498500.0 3884.199951171875
 endloop
endfacet
facet normal 0.0033452948555350304 0.2940034568309784 -0.9557985067367554
 outer loop
  vertex 448500.0 5499500.0 4096.2998046875
  vertex 449500.0 5499500.0 4099.7998046875
  vertex 449500.0 5498500.0 3792.199951171875
 endloop
endfacet
facet normal 0.04459157958626747 0.29371267557144165 -0.9548531174659729
 outer loop
  vertex 449500.0 5499500.0 4099.7998046875
  vertex 450500.0 5498500.0 3838.89990234375
  vertex 449500.0 5498500.0 3792.199951171875
 endloop
endfacet
facet normal -0.05753907188773155 0.19776685535907745 -0.9785588979721069
 outer loop
  vertex 449500.0 5499500.0 4099.7998046875
  vertex 450500.0 5499500.0 4041.0
  vertex 450500.0 5498500.0 3838.89990234375
 endloop
endfacet
facet normal -0.16154062747955322 0.19549328088760376 -0.9673091769218445
 outer loop
  vertex 450500.0 5499500.0 4041.0
  vertex 451500.0 5498500.0 3671.89990234375
  vertex 450500.0 5498500.0 3838.89990234375
 endloop
endfacet
facet normal -0.3669532537460327 -0.02371339499950409 -0.9299370050430298
 outer loop
  vertex 450500.0 5499500.0 4041.0
  vertex 451500.0 5499500.0 3646.39990234375
  vertex 451500.0 5498500.0 3671.89990234375
 endloop
endfacet
facet normal -0.04264724254608154 -0.02546852082014084 -0.9987655282020569
 outer loop
  vertex 451500.0 5499500.0 3646.39990234375
  vertex 452500.0 5498500.0 3629.199951171875
  vertex 451500.0 5498500.0 3671.89990234375
 endloop
endfacet
facet normal -0.06745976954698563 -0.050320837646722794 -0.9964522123336792
 outer loop
  vertex 451500.0 5499500.0 3646.39990234375
  vertex 452500.0 5499500.0 3578.699951171875
  vertex 452500.0 5498500.0 3629.199951171875
 endloop
endfacet
facet normal -0.022465692833065987 -0.05042300000786781 -0.9984752535820007
 outer loop
  vertex 452500.0 5499500.0 3578.699951171875
  vertex 453500.0 5498500.0 3606.699951171875
  vertex 452500.0 5498500.0 3629.199951171875
 endloop
endfacet
facet normal -0.0029985459987074137 -0.030984975397586823 -0.9995153546333313
 outer loop
  vertex 452500.0 5499500.0 3578.699951171875
  vertex 453500.0 5499500.0 3575.699951171875
  vertex 453500.0 5498500.0 3606.699951171875
 endloop
endfacet
facet normal 0.03377978131175041 -0.07702590525150299 -0.9964566826820374
 outer loop
  vertex 447500.0 5500500.0 3985.10009765625
  vertex 448500.0 5499500.0 4096.2998046875
  vertex 447500.0 5499500.0 4062.39990234375
 endloop
endfacet
facet normal -0.00605844845995307 -0.1164989173412323 -0.9931723475456238
 outer loop
  vertex 447500.0 5500500.0 3985.10009765625
  vertex 448500.0 5500500.0 3979.0
  vertex 448500.0 5499500.0 4096.2998046875
 endloop
endfacet
facet normal 0.0034761461429297924 -0.1165003553032875 -0.9931845664978027
 outer loop
  vertex 448500.0 5500500.0 3979.0
  vertex 449500.0 5499500.0 4099.7998046875
  vertex 448500.0 5499500.0 4096.2998046875
 endloop
endfacet
facet normal 0.14355482161045074 0.024041498079895973 -0.9893503189086914
 outer loop
  vertex 448500.0 5500500.0 3979.0
  vertex 449500.0 5500500.0 4124.10009765625
  vertex 449500.0 5499500.0 4099.7998046875
 endloop
endfacet
facet normal -0.05868115648627281 0.024251259863376617 -0.9979822039604187
 outer loop
  vertex 449500.0 5500500.0 4124.10009765625
  vertex 450500.0 5499500.0 4041.0
  vertex 449500.0 5499500.0 4099.7998046875
 endloop
endfacet
facet normal -0.23707515001296997 -0.15741091966629028 -0.9586538672447205
 outer loop
  vertex 449500.0 5500500.0 4124.10009765625
  vertex 450500.0 5500500.0 3876.800048828125
  vertex 450500.0 5499500.0 4041.0
 endloop
endfacet
facet normal -0.3628484606742859 -0.15098753571510315 -0.9195346236228943
 outer loop
  vertex 450500.0 5500500.0 3876.800048828125
  vertex 451500.0 5499500.0 3646.39990234375
  vertex 450500.0 5499500.0 4041.0
 endloop
endfacet
facet normal -0.2885129451751709 -0.06847520172595978 -0.9550243020057678
 outer loop
  vertex 450500.0 5500500.0 3876.800048828125
  vertex 451500.0 5500500.0 3574.699951171875
  vertex 451500.0 5499500.0 3646.39990234375
 endloop
endfacet
facet normal -0.06737317144870758 -0.07135386765003204 -0.9951730966567993
 outer loop
  vertex 451500.0 5500500.0 3574.699951171875
  vertex 452500.0 5499500.0 3578.699951171875
  vertex 451500.0 5499500.0 3646.39990234375
 endloop
endfacet
facet normal -0.01529541052877903 -0.019294198602437973 -0.9996968507766724
 outer loop
  vertex 451500.0 5500500.0 3574.699951171875
  vertex 452500.0 5500500.0 3559.39990234375
  vertex 452500.0 5499500.0 3578.699951171875
 endloop
endfacet
facet normal -0.0029994279611855745 -0.019296368584036827 -0.9998092651367188
 outer loop
  vertex 452500.0 5500500.0 3559.39990234375
  vertex 453500.0 5499500.0 3575.699951171875
  vertex 452500.0 5499500.0 3578.699951171875
 endloop
endfacet
facet normal 0.009899458847939968 -0.006399457808583975 -0.9999305009841919
 outer loop
  vertex 452500.0 5500500.0 3559.39990234375
  vertex 453500.0 5500500.0 3569.300048828125
  vertex 453500.0 5499500.0 3575.699951171875
 endloop
endfacet
facet normal -0.00591012928634882 -0.24754340946674347 -0.9688587784767151
 outer loop
  vertex 447500.0 5501500.0 3729.60009765625
  vertex 448500.0 5500500.0 3979.0
  vertex 447500.0 5500500.0 3985.10009765625
 endloop
endfacet
facet normal -0.043411482125520706 -0.28241387009620667 -0.9583098888397217
 outer loop
  vertex 447500.0 5501500.0 3729.60009765625
  vertex 448500.0 5501500.0 3684.300048828125
  vertex 448500.0 5500500.0 3979.0
 endloop
endfacet
facet normal 0.13785327970981598 -0.2799815237522125 -0.950056254863739
 outer loop
  vertex 448500.0 5501500.0 3684.300048828125
  vertex 449500.0 5500500.0 4124.10009765625
  vertex 448500.0 5500500.0 3979.0
 endloop
endfacet
facet normal -0.012747671455144882 -0.41320672631263733 -0.9105479717254639
 outer loop
  vertex 448500.0 5501500.0 3684.300048828125
  vertex 449500.0 5501500.0 3670.300048828125
  vertex 449500.0 5500500.0 4124.10009765625
 endloop
endfacet
facet normal -0.21969500184059143 -0.4031442701816559 -0.8883742094039917
 outer loop
  vertex 449500.0 5501500.0 3670.300048828125
  vertex 450500.0 5500500.0 3876.800048828125
  vertex 449500.0 5500500.0 4124.10009765625
 endloop
endfacet
facet normal 0.1344318389892578 -0.06968709081411362 -0.9884693622589111
 outer loop
  vertex 449500.0 5501500.0 3670.300048828125
  vertex 450500.0 5501500.0 3806.300048828125
  vertex 450500.0 5500500.0 3876.800048828125
 endloop
endfacet
facet normal -0.28853538632392883 -0.06733445823192596 -0.9550986886024475
 outer loop
  vertex 450500.0 5501500.0 3806.300048828125
  vertex 451500.0 5500500.0 3574.699951171875
  vertex 450500.0 5500500.0 3876.800048828125
 endloop
endfacet
facet normal -0.24040445685386658 -0.015625670552253723 -0.970547080039978
 outer loop
  vertex 450500.0 5501500.0 3806.300048828125
  vertex 451500.0 5501500.0 3558.60009765625
  vertex 451500.0 5500500.0 3574.699951171875
 endloop
endfacet
facet normal -0.015296276658773422 -0.016095884144306183 -0.9997534155845642
 outer loop
  vertex 451500.0 5501500.0 3558.60009765625
  vertex 452500.0 5500500.0 3559.39990234375
  vertex 451500.0 5500500.0 3574.699951171875
 endloop
endfacet
facet normal 0.004499923437833786 0.003700132481753826 -0.999983012676239
 outer loop
  vertex 451500.0 5501500.0 3558.60009765625
  vertex 452500.0 5501500.0 3563.10009765625
  vertex 452500.0 5500500.0 3559.39990234375
 endloop
endfacet
facet normal 0.009899593889713287 0.0036999888252466917 -0.9999442100524902
 outer loop
  vertex 452500.0 5501500.0 3563.10009765625
  vertex 453500.0 5500500.0 3569.300048828125
  vertex 452500.0 5500500.0 3559.39990234375
 endloop
endfacet
facet normal -0.15971863269805908 0.03541623055934906 -0.9865270853042603
 outer loop
  vertex 446500.0 5502500.0 3927.39990234375
  vertex 447500.0 5502500.0 3765.5
  vertex 447500.0 5501500.0 3729.60009765625
 endloop
endfacet
facet normal -0.045224569737911224 0.03584008291363716 -0.9983336925506592
 outer loop
  vertex 447500.0 5502500.0 3765.5
  vertex 448500.0 5501500.0 3684.300048828125
  vertex 447500.0 5501500.0 3729.60009765625
 endloop
endfacet
facet normal -0.05559573322534561 0.02545228600502014 -0.9981288909912109
 outer loop
  vertex 447500.0 5502500.0 3765.5
  vertex 448500.0 5502500.0 3709.800048828125
  vertex 448500.0 5501500.0 3684.300048828125
 endloop
endfacet
facet normal -0.013994080014526844 0.025489216670393944 -0.9995771050453186
 outer loop
  vertex 448500.0 5502500.0 3709.800048828125
  vertex 449500.0 5501500.0 3670.300048828125
  vertex 448500.0 5501500.0 3684.300048828125
 endloop
endfacet
facet normal 0.04311225563287735 0.08244094252586365 -0.9956629872322083
 outer loop
  vertex 448500.0 5502500.0 3709.800048828125
  vertex 449500.0 5502500.0 3753.10009765625
  vertex 449500.0 5501500.0 3670.300048828125
 endloop
endfacet
facet normal 0.13430817425251007 0.08177001774311066 -0.9875600934028625
 outer loop
  vertex 449500.0 5502500.0 3753.10009765625
  vertex 450500.0 5501500.0 3806.300048828125
  vertex 449500.0 5501500.0 3670.300048828125
 endloop
endfacet
facet normal -0.1521349847316742 -0.2035880833864212 -0.9671642780303955
 outer loop
  vertex 449500.0 5502500.0 3753.10009765625
  vertex 450500.0 5502500.0 3595.800048828125
  vertex 450500.0 5501500.0 3806.300048828125
 endloop
endfacet
facet normal -0.23556679487228394 -0.200189009308815 -0.9510167241096497
 outer loop
  vertex 450500.0 5502500.0 3595.800048828125
  vertex 451500.0 5501500.0 3558.60009765625
  vertex 450500.0 5501500.0 3806.300048828125
 endloop
endfacet
facet normal -0.039668578654527664 -0.0024980243761092424 -0.9992097616195679
 outer loop
  vertex 450500.0 5502500.0 3595.800048828125
  vertex 451500.0 5502500.0 3556.10009765625
  vertex 451500.0 5501500.0 3558.60009765625
 endloop
endfacet
facet normal 0.004499940201640129 -0.0024999668821692467 -0.9999867677688599
 outer loop
  vertex 451500.0 5502500.0 3556.10009765625
  vertex 452500.0 5501500.0 3563.10009765625
  vertex 451500.0 5501500.0 3558.60009765625
 endloop
endfacet
facet normal -0.001100060879252851 -0.008099826984107494 -0.999966561794281
 outer loop
  vertex 451500.0 5502500.0 3556.10009765625
  vertex 452500.0 5502500.0 3555.0
  vertex 452500.0 5501500.0 3563.10009765625
 endloop
endfacet
facet normal -0.15708550810813904 0.18415623903274536 -0.9702631831169128
 outer loop
  vertex 446500.0 5503500.0 4117.2001953125
  vertex 447500.0 5502500.0 3765.5
  vertex 446500.0 5502500.0 3927.39990234375
 endloop
endfacet
facet normal -0.06907546520233154 0.2688077390193939 -0.9607137441635132
 outer loop
  vertex 446500.0 5503500.0 4117.2001953125
  vertex 447500.0 5503500.0 4045.300048828125
  vertex 447500.0 5502500.0 3765.5
 endloop
endfacet
facet normal -0.053562816232442856 0.2690645754337311 -0.9616315364837646
 outer loop
  vertex 447500.0 5503500.0 4045.300048828125
  vertex 448500.0 5502500.0 3709.800048828125
  vertex 447500.0 5502500.0 3765.5
 endloop
endfacet
facet normal 0.015843480825424194 0.33224067091941833 -0.9430615901947021
 outer loop
  vertex 447500.0 5503500.0 4045.300048828125
  vertex 448500.0 5503500.0 4062.10009765625
  vertex 448500.0 5502500.0 3709.800048828125
 endloop
endfacet
facet normal 0.04080573469400406 0.3320055902004242 -0.9423943758010864
 outer loop
  vertex 448500.0 5503500.0 4062.10009765625
  vertex 449500.0 5502500.0 3753.10009765625
  vertex 448500.0 5502500.0 3709.800048828125
 endloop
endfacet
facet normal -0.1771935075521469 0.12447477877140045 -0.9762727618217468
 outer loop
  vertex 448500.0 5503500.0 4062.10009765625
  vertex 449500.0 5503500.0 3880.60009765625
  vertex 449500.0 5502500.0 3753.10009765625
 endloop
endfacet
facet normal -0.15417133271694183 0.12496399879455566 -0.9801097512245178
 outer loop
  vertex 449500.0 5503500.0 3880.60009765625
  vertex 450500.0 5502500.0 3595.800048828125
  vertex 449500.0 5502500.0 3753.10009765625
 endloop
endfacet
facet normal -0.002599842846393585 0.0011999462731182575 -0.9999958872795105
 outer loop
  vertex 453500.0 5507500.0 3539.39990234375
  vertex 454500.0 5506500.0 3535.60009765625
  vertex 453500.0 5506500.0 3538.199951171875
 endloop
endfacet
facet normal -0.009999307803809643 -0.006199766416102648 -0.9999307990074158
 outer loop
  vertex 453500.0 5507500.0 3539.39990234375
  vertex 454500.0 5507500.0 3529.39990234375
  vertex 454500.0 5506500.0 3535.60009765625
 endloop
endfacet
facet normal 0.002699889475479722 -0.006200053263455629 -0.9999771118164062
 outer loop
  vertex 454500.0 5507500.0 3529.39990234375
  vertex 455500.0 5506500.0 3538.300048828125
  vertex 454500.0 5506500.0 3535.60009765625
 endloop
endfacet
facet normal 0.006599936168640852 -0.00229999260045588 -0.9999755620956421
 outer loop
  vertex 454500.0 5507500.0 3529.39990234375
  vertex 455500.0 5507500.0 3536.0
  vertex 455500.0 5506500.0 3538.300048828125
 endloop
endfacet
facet normal -0.04315958544611931 -0.0022978996858000755 -0.9990655779838562
 outer loop
  vertex 455500.0 5507500.0 3536.0
  vertex 456500.0 5506500.0 3495.10009765625
  vertex 455500.0 5506500.0 3538.300048828125
 endloop
endfacet
facet normal -0.002298331120982766 0.03857102617621422 -0.9992531538009644
 outer loop
  vertex 455500.0 5507500.0 3536.0
  vertex 456500.0 5507500.0 3533.699951171875
  vertex 456500.0 5506500.0 3495.10009765625
 endloop
endfacet
facet normal -0.002300006803125143 -0.005599995143711567 -0.999981701374054
 outer loop
  vertex 455500.0 5508500.0 3530.39990234375
  vertex 456500.0 5507500.0 3533.699951171875
  vertex 455500.0 5507500.0 3536.0
 endloop
endfacet
facet normal -0.005999632645398378 -0.00929947942495346 -0.9999387264251709
 outer loop
  vertex 455500.0 5508500.0 3530.39990234375
  vertex 456500.0 5508500.0 3524.39990234375
  vertex 456500.0 5507500.0 3533.699951171875
 endloop
endfacet
facet normal -0.018995750695466995 -0.009297968819737434 -0.9997763633728027
 outer loop
  vertex 456500.0 5508500.0 3524.39990234375
  vertex 457500.0 5507500.0 3514.699951171875
  vertex 456500.0 5507500.0 3533.699951171875
 endloop
endfacet
endsolid
