solid
facet normal -0.1633584350347519 -0.7492023706436157 -0.6418799161911011
 outer loop
  vertex 396500.0 5447500.0 5823.39990234375
  vertex 397500.0 5447500.0 5568.89990234375
  vertex 397500.0 5446500.0 6736.10009765625
 endloop
endfacet
facet normal 0.22136928141117096 -0.7405628561973572 -0.634477972984314
 outer loop
  vertex 397500.0 5447500.0 5568.89990234375
  vertex 398500.0 5446500.0 7085.0
  vertex 397500.0 5446500.0 6736.10009765625
 endloop
endfacet
facet normal 0.7169039845466614 -0.2623719274997711 -0.6459177136421204
 outer loop
  vertex 397500.0 5447500.0 5568.89990234375
  vertex 398500.0 5447500.0 6678.7998046875
  vertex 398500.0 5446500.0 7085.0
 endloop
endfacet
facet normal -0.6604596972465515 -0.2825772762298584 -0.6956601738929749
 outer loop
  vertex 398500.0 5447500.0 6678.7998046875
  vertex 399500.0 5446500.0 6135.60009765625
  vertex 398500.0 5446500.0 7085.0
 endloop
endfacet
facet normal -0.5871785283088684 -0.15569134056568146 -0.7943435311317444
 outer loop
  vertex 398500.0 5447500.0 6678.7998046875
  vertex 399500.0 5447500.0 5939.60009765625
  vertex 399500.0 5446500.0 6135.60009765625
 endloop
endfacet
facet normal 0.4875282943248749 -0.07757332175970078 -0.8696542382240295
 outer loop
  vertex 393500.0 5448500.0 5705.2998046875
  vertex 394500.0 5448500.0 6265.89990234375
  vertex 394500.0 5447500.0 6355.10009765625
 endloop
endfacet
facet normal 0.1979047954082489 -0.0870901346206665 -0.9763447046279907
 outer loop
  vertex 394500.0 5448500.0 6265.89990234375
  vertex 395500.0 5447500.0 6557.7998046875
  vertex 394500.0 5447500.0 6355.10009765625
 endloop
endfacet
facet normal 0.29484063386917114 0.01595558039844036 -0.9554132223129272
 outer loop
  vertex 394500.0 5448500.0 6265.89990234375
  vertex 395500.0 5448500.0 6574.5
  vertex 395500.0 5447500.0 6557.7998046875
 endloop
endfacet
facet normal -0.5918689370155334 0.013459051959216595 -0.8059218525886536
 outer loop
  vertex 395500.0 5448500.0 6574.5
  vertex 396500.0 5447500.0 5823.39990234375
  vertex 395500.0 5447500.0 6557.7998046875
 endloop
endfacet
facet normal 0.07650645822286606 0.646587073802948 -0.7589941024780273
 outer loop
  vertex 395500.0 5448500.0 6574.5
  vertex 396500.0 5448500.0 6675.2998046875
  vertex 396500.0 5447500.0 5823.39990234375
 endloop
endfacet
facet normal -0.1901954859495163 0.6366503238677979 -0.7473299503326416
 outer loop
  vertex 396500.0 5448500.0 6675.2998046875
  vertex 397500.0 5447500.0 5568.89990234375
  vertex 396500.0 5447500.0 5823.39990234375
 endloop
endfacet
facet normal -0.2760256826877594 0.5756059288978577 -0.7697321772575378
 outer loop
  vertex 396500.0 5448500.0 6675.2998046875
  vertex 397500.0 5448500.0 6316.7001953125
  vertex 397500.0 5447500.0 5568.89990234375
 endloop
endfacet
facet normal 0.6643507480621338 0.44760942459106445 -0.5985681414604187
 outer loop
  vertex 397500.0 5448500.0 6316.7001953125
  vertex 398500.0 5447500.0 6678.7998046875
  vertex 397500.0 5447500.0 5568.89990234375
 endloop
endfacet
facet normal -0.39467355608940125 -0.6351026296615601 -0.6639860272407532
 outer loop
  vertex 397500.0 5448500.0 6316.7001953125
  vertex 398500.0 5448500.0 5722.2998046875
  vertex 398500.0 5447500.0 6678.7998046875
 endloop
endfacet
facet normal -0.47117123007774353 -0.6096799969673157 -0.6374072432518005
 outer loop
  vertex 398500.0 5448500.0 5722.2998046875
  vertex 399500.0 5447500.0 5939.60009765625
  vertex 398500.0 5447500.0 6678.7998046875
 endloop
endfacet
facet normal 0.5877752304077148 0.4402882158756256 -0.6787242889404297
 outer loop
  vertex 398500.0 5448500.0 5722.2998046875
  vertex 399500.0 5448500.0 6588.2998046875
  vertex 399500.0 5447500.0 5939.60009765625
 endloop
endfacet
facet normal 0.4543197453022003 0.427751362323761 -0.7814232110977173
 outer loop
  vertex 392500.0 5449500.0 5671.2998046875
  vertex 393500.0 5449500.0 6252.7001953125
  vertex 393500.0 5448500.0 5705.2998046875
 endloop
endfacet
facet normal 0.4412779211997986 0.43088772892951965 -0.7871528267860413
 outer loop
  vertex 393500.0 5449500.0 6252.7001953125
  vertex 394500.0 5448500.0 6265.89990234375
  vertex 393500.0 5448500.0 5705.2998046875
 endloop
endfacet
facet normal 0.13870322704315186 0.12573690712451935 -0.9823195338249207
 outer loop
  vertex 393500.0 5449500.0 6252.7001953125
  vertex 394500.0 5449500.0 6393.89990234375
  vertex 394500.0 5448500.0 6265.89990234375
 endloop
endfacet
facet normal 0.2926969826221466 0.121403768658638 -0.948466956615448
 outer loop
  vertex 394500.0 5449500.0 6393.89990234375
  vertex 395500.0 5448500.0 6574.5
  vertex 394500.0 5448500.0 6265.89990234375
 endloop
endfacet
facet normal -0.1571090817451477 -0.3255002796649933 -0.9323980808258057
 outer loop
  vertex 394500.0 5449500.0 6393.89990234375
  vertex 395500.0 5449500.0 6225.39990234375
  vertex 395500.0 5448500.0 6574.5
 endloop
endfacet
facet normal 0.09473936259746552 -0.328110933303833 -0.9398763179779053
 outer loop
  vertex 395500.0 5449500.0 6225.39990234375
  vertex 396500.0 5448500.0 6675.2998046875
  vertex 395500.0 5448500.0 6574.5
 endloop
endfacet
facet normal 0.29105204343795776 -0.13505978882312775 -0.9471258521080017
 outer loop
  vertex 395500.0 5449500.0 6225.39990234375
  vertex 396500.0 5449500.0 6532.7001953125
  vertex 396500.0 5448500.0 6675.2998046875
 endloop
endfacet
facet normal -0.33455178141593933 -0.13303682208061218 -0.9329395890235901
 outer loop
  vertex 396500.0 5449500.0 6532.7001953125
  vertex 397500.0 5448500.0 6316.7001953125
  vertex 396500.0 5448500.0 6675.2998046875
 endloop
endfacet
facet normal 0.12362062931060791 0.3260624408721924 -0.93723064661026
 outer loop
  vertex 396500.0 5449500.0 6532.7001953125
  vertex 397500.0 5449500.0 6664.60009765625
  vertex 397500.0 5448500.0 6316.7001953125
 endloop
endfacet
facet normal -0.4895300567150116 0.28651976585388184 -0.8235695958137512
 outer loop
  vertex 397500.0 5449500.0 6664.60009765625
  vertex 398500.0 5448500.0 5722.2998046875
  vertex 397500.0 5448500.0 6316.7001953125
 endloop
endfacet
facet normal -0.012995196506381035 0.6788264513015747 -0.7341837882995605
 outer loop
  vertex 397500.0 5449500.0 6664.60009765625
  vertex 398500.0 5449500.0 6646.89990234375
  vertex 398500.0 5448500.0 5722.2998046875
 endloop
endfacet
facet normal 0.5365710854530334 0.5728795528411865 -0.6195970773696899
 outer loop
  vertex 398500.0 5449500.0 6646.89990234375
  vertex 399500.0 5448500.0 6588.2998046875
  vertex 398500.0 5448500.0 5722.2998046875
 endloop
endfacet
facet normal -0.509399950504303 -0.46704620122909546 -0.7227582931518555
 outer loop
  vertex 398500.0 5449500.0 6646.89990234375
  vertex 399500.0 5449500.0 5942.10009765625
  vertex 399500.0 5448500.0 6588.2998046875
 endloop
endfacet
facet normal -0.2466282695531845 -0.5259773135185242 -0.813954770565033
 outer loop
  vertex 399500.0 5449500.0 5942.10009765625
  vertex 400500.0 5448500.0 6285.2998046875
  vertex 399500.0 5448500.0 6588.2998046875
 endloop
endfacet
facet normal 0.3846721351146698 0.06876067817211151 -0.9204886555671692
 outer loop
  vertex 399500.0 5449500.0 5942.10009765625
  vertex 400500.0 5449500.0 6360.0
  vertex 400500.0 5448500.0 6285.2998046875
 endloop
endfacet
facet normal 0.4543197453022003 0.427751362323761 -0.7814232110977173
 outer loop
  vertex 392500.0 5450500.0 6218.7001953125
  vertex 393500.0 5449500.0 6252.7001953125
  vertex 392500.0 5449500.0 5671.2998046875
 endloop
endfacet
facet normal -0.08361901342868805 -0.1172645315527916 -0.9895740747451782
 outer loop
  vertex 392500.0 5450500.0 6218.7001953125
  vertex 393500.0 5450500.0 6134.2001953125
  vertex 393500.0 5449500.0 6252.7001953125
 endloop
endfacet
facet normal 0.13886021077632904 -0.11653660237789154 -0.9834312796592712
 outer loop
  vertex 393500.0 5450500.0 6134.2001953125
  vertex 394500.0 5449500.0 6393.89990234375
  vertex 393500.0 5449500.0 6252.7001953125
 endloop
endfacet
facet normal 0.17873001098632812 -0.0760241374373436 -0.9809566140174866
 outer loop
  vertex 393500.0 5450500.0 6134.2001953125
  vertex 394500.0 5450500.0 6316.39990234375
  vertex 394500.0 5449500.0 6393.89990234375
 endloop
endfacet
facet normal -0.1656746119260788 -0.07620049268007278 -0.9832321405410767
 outer loop
  vertex 394500.0 5450500.0 6316.39990234375
  vertex 395500.0 5449500.0 6225.39990234375
  vertex 394500.0 5449500.0 6393.89990234375
 endloop
endfacet
facet normal 0.08255696296691895 0.17188721895217896 -0.981651246547699
 outer loop
  vertex 394500.0 5450500.0 6316.39990234375
  vertex 395500.0 5450500.0 6400.5
  vertex 395500.0 5449500.0 6225.39990234375
 endloop
endfacet
facet normal 0.28971344232559204 0.16507908701896667 -0.9427698850631714
 outer loop
  vertex 395500.0 5450500.0 6400.5
  vertex 396500.0 5449500.0 6532.7001953125
  vertex 395500.0 5449500.0 6225.39990234375
 endloop
endfacet
facet normal -0.3131484091281891 -0.4253997504711151 -0.8491013050079346
 outer loop
  vertex 395500.0 5450500.0 6400.5
  vertex 396500.0 5450500.0 6031.7001953125
  vertex 396500.0 5449500.0 6532.7001953125
 endloop
endfacet
facet normal 0.11711607873439789 -0.44484618306159973 -0.8879165053367615
 outer loop
  vertex 396500.0 5450500.0 6031.7001953125
  vertex 397500.0 5449500.0 6664.60009765625
  vertex 396500.0 5449500.0 6532.7001953125
 endloop
endfacet
facet normal 0.3083949387073517 -0.2690699100494385 -0.9124110341072083
 outer loop
  vertex 396500.0 5450500.0 6031.7001953125
  vertex 397500.0 5450500.0 6369.7001953125
  vertex 397500.0 5449500.0 6664.60009765625
 endloop
endfacet
facet normal -0.016974903643131256 -0.282816082239151 -0.9590239524841309
 outer loop
  vertex 397500.0 5450500.0 6369.7001953125
  vertex 398500.0 5449500.0 6646.89990234375
  vertex 397500.0 5449500.0 6664.60009765625
 endloop
endfacet
facet normal 0.28596940636634827 0.020406126976013184 -0.9580214619636536
 outer loop
  vertex 397500.0 5450500.0 6369.7001953125
  vertex 398500.0 5450500.0 6668.2001953125
  vertex 398500.0 5449500.0 6646.89990234375
 endloop
endfacet
facet normal -0.576005220413208 0.017407892271876335 -0.8172606825828552
 outer loop
  vertex 398500.0 5450500.0 6668.2001953125
  vertex 399500.0 5449500.0 5942.10009765625
  vertex 398500.0 5449500.0 6646.89990234375
 endloop
endfacet
facet normal -0.3591809868812561 0.2858874797821045 -0.8884015679359436
 outer loop
  vertex 398500.0 5450500.0 6668.2001953125
  vertex 399500.0 5450500.0 6263.89990234375
  vertex 399500.0 5449500.0 5942.10009765625
 endloop
endfacet
facet normal 0.3696354627609253 0.28463423252105713 -0.8845071196556091
 outer loop
  vertex 399500.0 5450500.0 6263.89990234375
  vertex 400500.0 5449500.0 6360.0
  vertex 399500.0 5449500.0 5942.10009765625
 endloop
endfacet
facet normal 0.19243712723255157 0.09861055761575699 -0.9763421416282654
 outer loop
  vertex 399500.0 5450500.0 6263.89990234375
  vertex 400500.0 5450500.0 6461.0
  vertex 400500.0 5449500.0 6360.0
 endloop
endfacet
facet normal 0.5183452367782593 -0.29745718836784363 -0.8017714619636536
 outer loop
  vertex 391500.0 5451500.0 5201.2001953125
  vertex 392500.0 5451500.0 5847.7001953125
  vertex 392500.0 5450500.0 6218.7001953125
 endloop
endfacet
facet normal -0.07897605746984482 -0.34674695134162903 -0.934627890586853
 outer loop
  vertex 392500.0 5451500.0 5847.7001953125
  vertex 393500.0 5450500.0 6134.2001953125
  vertex 392500.0 5450500.0 6218.7001953125
 endloop
endfacet
facet normal 0.3802601397037506 0.11742653697729111 -0.9173948168754578
 outer loop
  vertex 392500.0 5451500.0 5847.7001953125
  vertex 393500.0 5451500.0 6262.2001953125
  vertex 393500.0 5450500.0 6134.2001953125
 endloop
endfacet
facet normal 0.17784421145915985 0.12494014948606491 -0.9760949611663818
 outer loop
  vertex 393500.0 5451500.0 6262.2001953125
  vertex 394500.0 5450500.0 6316.39990234375
  vertex 393500.0 5450500.0 6134.2001953125
 endloop
endfacet
facet normal -0.5445958375930786 -0.5775572657585144 -0.6081472635269165
 outer loop
  vertex 393500.0 5451500.0 6262.2001953125
  vertex 394500.0 5451500.0 5366.7001953125
  vertex 394500.0 5450500.0 6316.39990234375
 endloop
endfacet
facet normal 0.06086861342191696 -0.6873581409454346 -0.723763644695282
 outer loop
  vertex 394500.0 5451500.0 5366.7001953125
  vertex 395500.0 5450500.0 6400.5
  vertex 394500.0 5450500.0 6316.39990234375
 endloop
endfacet
facet normal 0.5865800976753235 -0.21938280761241913 -0.779612123966217
 outer loop
  vertex 394500.0 5451500.0 5366.7001953125
  vertex 395500.0 5451500.0 6119.10009765625
  vertex 395500.0 5450500.0 6400.5
 endloop
endfacet
facet normal -0.3345545530319214 -0.25527024269104004 -0.9071440696716309
 outer loop
  vertex 395500.0 5451500.0 6119.10009765625
  vertex 396500.0 5450500.0 6031.7001953125
  vertex 395500.0 5450500.0 6400.5
 endloop
endfacet
facet normal -0.4124046564102173 -0.33848315477371216 -0.845784604549408
 outer loop
  vertex 395500.0 5451500.0 6119.10009765625
  vertex 396500.0 5451500.0 5631.5
  vertex 396500.0 5450500.0 6031.7001953125
 endloop
endfacet
facet normal 0.2994077801704407 -0.35450607538223267 -0.8858218789100647
 outer loop
  vertex 396500.0 5451500.0 5631.5
  vertex 397500.0 5450500.0 6369.7001953125
  vertex 396500.0 5450500.0 6031.7001953125
 endloop
endfacet
facet normal 0.7278922200202942 0.2593040466308594 -0.6347711086273193
 outer loop
  vertex 396500.0 5451500.0 5631.5
  vertex 397500.0 5451500.0 6778.2001953125
  vertex 397500.0 5450500.0 6369.7001953125
 endloop
endfacet
facet normal 0.26635077595710754 0.3645034730434418 -0.8922973871231079
 outer loop
  vertex 397500.0 5451500.0 6778.2001953125
  vertex 398500.0 5450500.0 6668.2001953125
  vertex 397500.0 5450500.0 6369.7001953125
 endloop
endfacet
facet normal 0.12982554733753204 0.2357664406299591 -0.96309894323349
 outer loop
  vertex 397500.0 5451500.0 6778.2001953125
  vertex 398500.0 5451500.0 6913.0
  vertex 398500.0 5450500.0 6668.2001953125
 endloop
endfacet
facet normal -0.36552947759628296 0.22132445871829987 -0.9041038751602173
 outer loop
  vertex 398500.0 5451500.0 6913.0
  vertex 399500.0 5450500.0 6263.89990234375
  vertex 398500.0 5450500.0 6668.2001953125
 endloop
endfacet
facet normal -0.3609786629676819 0.22626769542694092 -0.9047084450721741
 outer loop
  vertex 398500.0 5451500.0 6913.0
  vertex 399500.0 5451500.0 6514.0
  vertex 399500.0 5450500.0 6263.89990234375
 endloop
endfacet
facet normal 0.18780821561813354 0.23830963671207428 -0.9528570175170898
 outer loop
  vertex 399500.0 5451500.0 6514.0
  vertex 400500.0 5450500.0 6461.0
  vertex 399500.0 5450500.0 6263.89990234375
 endloop
endfacet
facet normal -0.2896045744419098 -0.24050337076187134 -0.9264379143714905
 outer loop
  vertex 399500.0 5451500.0 6514.0
  vertex 400500.0 5451500.0 6201.39990234375
  vertex 400500.0 5450500.0 6461.0
 endloop
endfacet
facet normal 0.19681920111179352 -0.24635635316371918 -0.9489840269088745
 outer loop
  vertex 400500.0 5451500.0 6201.39990234375
  vertex 401500.0 5450500.0 6668.39990234375
  vertex 400500.0 5450500.0 6461.0
 endloop
endfacet
facet normal -0.21901170909404755 -0.5840315818786621 -0.7816271781921387
 outer loop
  vertex 400500.0 5451500.0 6201.39990234375
  vertex 401500.0 5451500.0 5921.2001953125
  vertex 401500.0 5450500.0 6668.39990234375
 endloop
endfacet
facet normal 0.5198157429695129 0.5024746060371399 -0.6908769011497498
 outer loop
  vertex 394500.0 5452500.0 6094.0
  vertex 395500.0 5451500.0 6119.10009765625
  vertex 394500.0 5451500.0 5366.7001953125
 endloop
endfacet
facet normal 0.206046000123024 0.1819126456975937 -0.9614847302436829
 outer loop
  vertex 394500.0 5452500.0 6094.0
  vertex 395500.0 5452500.0 6308.2998046875
  vertex 395500.0 5451500.0 6119.10009765625
 endloop
endfacet
facet normal -0.43207162618637085 0.1676534116268158 -0.8861187696456909
 outer loop
  vertex 395500.0 5452500.0 6308.2998046875
  vertex 396500.0 5451500.0 5631.5
  vertex 395500.0 5451500.0 6119.10009765625
 endloop
endfacet
facet normal 0.0728185847401619 0.6079277396202087 -0.7906461954116821
 outer loop
  vertex 395500.0 5452500.0 6308.2998046875
  vertex 396500.0 5452500.0 6400.39990234375
  vertex 396500.0 5451500.0 5631.5
 endloop
endfacet
facet normal 0.6726551651954651 0.4510372281074524 -0.5866007208824158
 outer loop
  vertex 396500.0 5452500.0 6400.39990234375
  vertex 397500.0 5451500.0 6778.2001953125
  vertex 396500.0 5451500.0 5631.5
 endloop
endfacet
facet normal -0.0974523052573204 -0.43553808331489563 -0.8948796391487122
 outer loop
  vertex 396500.0 5452500.0 6400.39990234375
  vertex 397500.0 5452500.0 6291.5
  vertex 397500.0 5451500.0 6778.2001953125
 endloop
endfacet
facet normal 0.12032590061426163 -0.43444153666496277 -0.8926266431808472
 outer loop
  vertex 397500.0 5452500.0 6291.5
  vertex 398500.0 5451500.0 6913.0
  vertex 397500.0 5451500.0 6778.2001953125
 endloop
endfacet
facet normal 0.43782246112823486 -0.11625330150127411 -0.8915137052536011
 outer loop
  vertex 397500.0 5452500.0 6291.5
  vertex 398500.0 5452500.0 6782.60009765625
  vertex 398500.0 5451500.0 6913.0
 endloop
endfacet
facet normal -0.36790135502815247 -0.1202363446354866 -0.9220585227012634
 outer loop
  vertex 398500.0 5452500.0 6782.60009765625
  vertex 399500.0 5451500.0 6514.0
  vertex 398500.0 5451500.0 6913.0
 endloop
endfacet
facet normal -0.2673105299472809 -0.13575401902198792 -0.9539999961853027
 outer loop
  vertex 400500.0 5452500.0 6059.10009765625
  vertex 401500.0 5451500.0 5921.2001953125
  vertex 400500.0 5451500.0 6201.39990234375
 endloop
endfacet
facet normal 0.3982468843460083 0.5039401054382324 -0.7664488554000854
 outer loop
  vertex 400500.0 5452500.0 6059.10009765625
  vertex 401500.0 5452500.0 6578.7001953125
  vertex 401500.0 5451500.0 5921.2001953125
 endloop
endfacet
facet normal 0.09123332798480988 0.10203064978122711 -0.9905888438224792
 outer loop
  vertex 395500.0 5453500.0 6411.2998046875
  vertex 396500.0 5452500.0 6400.39990234375
  vertex 395500.0 5452500.0 6308.2998046875
 endloop
endfacet
facet normal 0.2078624963760376 0.21825553476810455 -0.9534977078437805
 outer loop
  vertex 395500.0 5453500.0 6411.2998046875
  vertex 396500.0 5453500.0 6629.2998046875
  vertex 396500.0 5452500.0 6400.39990234375
 endloop
endfacet
facet normal -0.10556130856275558 0.2218824177980423 -0.9693425297737122
 outer loop
  vertex 396500.0 5453500.0 6629.2998046875
  vertex 397500.0 5452500.0 6291.5
  vertex 396500.0 5452500.0 6400.39990234375
 endloop
endfacet
facet normal -0.25626078248023987 0.06941606104373932 -0.9641119837760925
 outer loop
  vertex 396500.0 5453500.0 6629.2998046875
  vertex 397500.0 5453500.0 6363.5
  vertex 397500.0 5452500.0 6291.5
 endloop
endfacet
facet normal 0.4398936629295349 0.06449264287948608 -0.8957311511039734
 outer loop
  vertex 397500.0 5453500.0 6363.5
  vertex 398500.0 5452500.0 6782.60009765625
  vertex 397500.0 5452500.0 6291.5
 endloop
endfacet
endsolid
