solid
facet normal 0.045163799077272415 0.0010987286223098636 -0.9989789724349976
 outer loop
  vertex 873500.0 5804500.0 3038.199951171875
  vertex 874500.0 5804500.0 3083.409912109375
  vertex 874500.0 5803500.0 3082.31005859375
 endloop
endfacet
facet normal -0.19754816591739655 0.044772204011678696 -0.9792702198028564
 outer loop
  vertex 868500.0 5805500.0 3396.320068359375
  vertex 869500.0 5804500.0 3148.8701171875
  vertex 868500.0 5804500.0 3350.60009765625
 endloop
endfacet
facet normal 0.031138256192207336 0.2693204879760742 -0.9625470638275146
 outer loop
  vertex 868500.0 5805500.0 3396.320068359375
  vertex 869500.0 5805500.0 3428.669921875
  vertex 869500.0 5804500.0 3148.8701171875
 endloop
endfacet
facet normal -0.018075427040457726 0.09463773667812347 -0.9953476786613464
 outer loop
  vertex 872500.0 5805500.0 3151.43994140625
  vertex 873500.0 5805500.0 3133.280029296875
  vertex 873500.0 5804500.0 3038.199951171875
 endloop
endfacet
facet normal 0.04496146738529205 0.09455747902393341 -0.9945035576820374
 outer loop
  vertex 873500.0 5805500.0 3133.280029296875
  vertex 874500.0 5804500.0 3083.409912109375
  vertex 873500.0 5804500.0 3038.199951171875
 endloop
endfacet
facet normal -0.023825250566005707 0.026013828814029694 -0.9993776082992554
 outer loop
  vertex 873500.0 5805500.0 3133.280029296875
  vertex 874500.0 5805500.0 3109.43994140625
  vertex 874500.0 5804500.0 3083.409912109375
 endloop
endfacet
facet normal -0.010745741426944733 0.026019712910056114 -0.9996036291122437
 outer loop
  vertex 874500.0 5805500.0 3109.43994140625
  vertex 875500.0 5804500.0 3072.659912109375
  vertex 874500.0 5804500.0 3083.409912109375
 endloop
endfacet
facet normal -0.010555841960012913 0.026209503412246704 -0.9996007084846497
 outer loop
  vertex 874500.0 5805500.0 3109.43994140625
  vertex 875500.0 5805500.0 3098.8798828125
  vertex 875500.0 5804500.0 3072.659912109375
 endloop
endfacet
facet normal -0.03432781621813774 0.02619551308453083 -0.9990672469139099
 outer loop
  vertex 875500.0 5805500.0 3098.8798828125
  vertex 876500.0 5804500.0 3038.300048828125
  vertex 875500.0 5804500.0 3072.659912109375
 endloop
endfacet
facet normal 0.40309035778045654 0.45131996273994446 -0.7961333990097046
 outer loop
  vertex 875500.0 5805500.0 3098.8798828125
  vertex 876500.0 5805500.0 3605.18994140625
  vertex 876500.0 5804500.0 3038.300048828125
 endloop
endfacet
facet normal 0.11394558101892471 0.4899475872516632 -0.864272952079773
 outer loop
  vertex 876500.0 5805500.0 3605.18994140625
  vertex 877500.0 5804500.0 3170.139892578125
  vertex 876500.0 5804500.0 3038.300048828125
 endloop
endfacet
facet normal -0.15286436676979065 0.26172134280204773 -0.9529609084129333
 outer loop
  vertex 876500.0 5805500.0 3605.18994140625
  vertex 877500.0 5805500.0 3444.780029296875
  vertex 877500.0 5804500.0 3170.139892578125
 endloop
endfacet
facet normal 0.032331377267837524 -0.009824464097619057 -0.9994288682937622
 outer loop
  vertex 868500.0 5806500.0 3386.489990234375
  vertex 869500.0 5805500.0 3428.669921875
  vertex 868500.0 5805500.0 3396.320068359375
 endloop
endfacet
facet normal 0.09253119677305222 0.05058646202087402 -0.9944239258766174
 outer loop
  vertex 868500.0 5806500.0 3386.489990234375
  vertex 869500.0 5806500.0 3479.5400390625
  vertex 869500.0 5805500.0 3428.669921875
 endloop
endfacet
facet normal 0.0026667064521461725 0.05080424249172211 -0.9987050294876099
 outer loop
  vertex 869500.0 5806500.0 3479.5400390625
  vertex 870500.0 5805500.0 3431.340087890625
  vertex 869500.0 5805500.0 3428.669921875
 endloop
endfacet
facet normal 0.0007291079964488745 0.04887145385146141 -0.9988048076629639
 outer loop
  vertex 869500.0 5806500.0 3479.5400390625
  vertex 870500.0 5806500.0 3480.27001953125
  vertex 870500.0 5805500.0 3431.340087890625
 endloop
endfacet
facet normal -0.09963200241327286 0.048628292977809906 -0.9938353896141052
 outer loop
  vertex 870500.0 5806500.0 3480.27001953125
  vertex 871500.0 5805500.0 3331.090087890625
  vertex 870500.0 5805500.0 3431.340087890625
 endloop
endfacet
facet normal -0.19424976408481598 -0.04808732494711876 -0.9797727465629578
 outer loop
  vertex 870500.0 5806500.0 3480.27001953125
  vertex 871500.0 5806500.0 3282.010009765625
  vertex 871500.0 5805500.0 3331.090087890625
 endloop
endfacet
facet normal -0.17661352455615997 -0.0482504740357399 -0.9830969572067261
 outer loop
  vertex 871500.0 5806500.0 3282.010009765625
  vertex 872500.0 5805500.0 3151.43994140625
  vertex 871500.0 5805500.0 3331.090087890625
 endloop
endfacet
facet normal 0.10350561141967773 0.22985883057117462 -0.9677042365074158
 outer loop
  vertex 871500.0 5806500.0 3282.010009765625
  vertex 872500.0 5806500.0 3388.969970703125
  vertex 872500.0 5805500.0 3151.43994140625
 endloop
endfacet
facet normal -0.01766555942595005 0.23106402158737183 -0.9727781414985657
 outer loop
  vertex 872500.0 5806500.0 3388.969970703125
  vertex 873500.0 5805500.0 3133.280029296875
  vertex 872500.0 5805500.0 3151.43994140625
 endloop
endfacet
facet normal -0.12919391691684723 0.12241379916667938 -0.9840344786643982
 outer loop
  vertex 872500.0 5806500.0 3388.969970703125
  vertex 873500.0 5806500.0 3257.679931640625
  vertex 873500.0 5805500.0 3133.280029296875
 endloop
endfacet
facet normal -0.023651108145713806 0.12341383844614029 -0.9920734167098999
 outer loop
  vertex 873500.0 5806500.0 3257.679931640625
  vertex 874500.0 5805500.0 3109.43994140625
  vertex 873500.0 5805500.0 3133.280029296875
 endloop
endfacet
facet normal 0.14140722155570984 0.2820742428302765 -0.9489142298698425
 outer loop
  vertex 873500.0 5806500.0 3257.679931640625
  vertex 874500.0 5806500.0 3406.699951171875
  vertex 874500.0 5805500.0 3109.43994140625
 endloop
endfacet
facet normal -0.010121788829565048 0.28492283821105957 -0.9584970474243164
 outer loop
  vertex 874500.0 5806500.0 3406.699951171875
  vertex 875500.0 5805500.0 3098.8798828125
  vertex 874500.0 5805500.0 3109.43994140625
 endloop
endfacet
facet normal -0.13473163545131683 0.16597256064414978 -0.976883053779602
 outer loop
  vertex 874500.0 5806500.0 3406.699951171875
  vertex 875500.0 5806500.0 3268.780029296875
  vertex 875500.0 5805500.0 3098.8798828125
 endloop
endfacet
facet normal 0.44661006331443787 0.14986689388751984 -0.8820880651473999
 outer loop
  vertex 875500.0 5806500.0 3268.780029296875
  vertex 876500.0 5805500.0 3605.18994140625
  vertex 875500.0 5805500.0 3098.8798828125
 endloop
endfacet
facet normal 0.1538127213716507 -0.17343345284461975 -0.9727602005004883
 outer loop
  vertex 875500.0 5806500.0 3268.780029296875
  vertex 876500.0 5806500.0 3426.89990234375
  vertex 876500.0 5805500.0 3605.18994140625
 endloop
endfacet
facet normal -0.15598656237125397 -0.17337362468242645 -0.9724246859550476
 outer loop
  vertex 876500.0 5806500.0 3426.89990234375
  vertex 877500.0 5805500.0 3444.780029296875
  vertex 876500.0 5805500.0 3605.18994140625
 endloop
endfacet
facet normal -0.15615253150463104 -0.17353859543800354 -0.972368597984314
 outer loop
  vertex 876500.0 5806500.0 3426.89990234375
  vertex 877500.0 5806500.0 3266.31005859375
  vertex 877500.0 5805500.0 3444.780029296875
 endloop
endfacet
facet normal -0.2700481414794922 -0.16916625201702118 -0.9478695392608643
 outer loop
  vertex 877500.0 5806500.0 3266.31005859375
  vertex 878500.0 5805500.0 3159.8798828125
  vertex 877500.0 5805500.0 3444.780029296875
 endloop
endfacet
facet normal -0.005949931684881449 0.09994544088840485 -0.9949751496315002
 outer loop
  vertex 877500.0 5806500.0 3266.31005859375
  vertex 878500.0 5806500.0 3260.330078125
  vertex 878500.0 5805500.0 3159.8798828125
 endloop
endfacet
facet normal 0.24219860136508942 0.0299559086561203 -0.9697641730308533
 outer loop
  vertex 867500.0 5807500.0 3167.6298828125
  vertex 868500.0 5807500.0 3417.3798828125
  vertex 868500.0 5806500.0 3386.489990234375
 endloop
endfacet
facet normal 0.09260602295398712 0.03074249066412449 -0.995228111743927
 outer loop
  vertex 868500.0 5807500.0 3417.3798828125
  vertex 869500.0 5806500.0 3479.5400390625
  vertex 868500.0 5806500.0 3386.489990234375
 endloop
endfacet
facet normal 0.07450666278600693 0.012524164281785488 -0.9971418976783752
 outer loop
  vertex 868500.0 5807500.0 3417.3798828125
  vertex 869500.0 5807500.0 3492.10009765625
  vertex 869500.0 5806500.0 3479.5400390625
 endloop
endfacet
facet normal 0.0007299227290786803 0.012559064663946629 -0.9999209046363831
 outer loop
  vertex 869500.0 5807500.0 3492.10009765625
  vertex 870500.0 5806500.0 3480.27001953125
  vertex 869500.0 5806500.0 3479.5400390625
 endloop
endfacet
facet normal 0.015062665566802025 0.02688712440431118 -0.9995249509811401
 outer loop
  vertex 869500.0 5807500.0 3492.10009765625
  vertex 870500.0 5807500.0 3507.169921875
  vertex 870500.0 5806500.0 3480.27001953125
 endloop
endfacet
facet normal -0.19440706074237823 0.026377135887742043 -0.9805662035942078
 outer loop
  vertex 870500.0 5807500.0 3507.169921875
  vertex 871500.0 5806500.0 3282.010009765625
  vertex 870500.0 5806500.0 3480.27001953125
 endloop
endfacet
facet normal -0.08947049081325531 0.13278450071811676 -0.9870984554290771
 outer loop
  vertex 870500.0 5807500.0 3507.169921875
  vertex 871500.0 5807500.0 3416.530029296875
  vertex 871500.0 5806500.0 3282.010009765625
 endloop
endfacet
facet normal 0.10541451722383499 0.1325763761997223 -0.9855512380599976
 outer loop
  vertex 871500.0 5807500.0 3416.530029296875
  vertex 872500.0 5806500.0 3388.969970703125
  vertex 871500.0 5806500.0 3282.010009765625
 endloop
endfacet
facet normal 0.1126977875828743 0.13980983197689056 -0.9837441444396973
 outer loop
  vertex 871500.0 5807500.0 3416.530029296875
  vertex 872500.0 5807500.0 3531.090087890625
  vertex 872500.0 5806500.0 3388.969970703125
 endloop
endfacet
facet normal -0.12889951467514038 0.1395324021577835 -0.9817920327186584
 outer loop
  vertex 872500.0 5807500.0 3531.090087890625
  vertex 873500.0 5806500.0 3257.679931640625
  vertex 872500.0 5806500.0 3388.969970703125
 endloop
endfacet
facet normal -0.04226778447628021 0.22394737601280212 -0.9736842513084412
 outer loop
  vertex 872500.0 5807500.0 3531.090087890625
  vertex 873500.0 5807500.0 3487.679931640625
  vertex 873500.0 5806500.0 3257.679931640625
 endloop
endfacet
facet normal 0.14372052252292633 0.221820667386055 -0.9644376635551453
 outer loop
  vertex 873500.0 5807500.0 3487.679931640625
  vertex 874500.0 5806500.0 3406.699951171875
  vertex 873500.0 5806500.0 3257.679931640625
 endloop
endfacet
facet normal -0.14410318434238434 -0.06413690745830536 -0.9874820113182068
 outer loop
  vertex 873500.0 5807500.0 3487.679931640625
  vertex 874500.0 5807500.0 3341.75
  vertex 874500.0 5806500.0 3406.699951171875
 endloop
endfacet
facet normal -0.13634467124938965 -0.06420812755823135 -0.9885784983634949
 outer loop
  vertex 874500.0 5807500.0 3341.75
  vertex 875500.0 5806500.0 3268.780029296875
  vertex 874500.0 5806500.0 3406.699951171875
 endloop
endfacet
facet normal 0.13085603713989258 0.20168577134609222 -0.9706696271896362
 outer loop
  vertex 874500.0 5807500.0 3341.75
  vertex 875500.0 5807500.0 3476.56005859375
  vertex 875500.0 5806500.0 3268.780029296875
 endloop
endfacet
facet normal 0.15299081802368164 0.2010401040315628 -0.9675622582435608
 outer loop
  vertex 875500.0 5807500.0 3476.56005859375
  vertex 876500.0 5806500.0 3426.89990234375
  vertex 875500.0 5806500.0 3268.780029296875
 endloop
endfacet
facet normal -0.03533441573381424 0.014289656654000282 -0.999273419380188
 outer loop
  vertex 875500.0 5807500.0 3476.56005859375
  vertex 876500.0 5807500.0 3441.199951171875
  vertex 876500.0 5806500.0 3426.89990234375
 endloop
endfacet
facet normal -0.15854251384735107 0.014117740094661713 -0.9872512221336365
 outer loop
  vertex 876500.0 5807500.0 3441.199951171875
  vertex 877500.0 5806500.0 3266.31005859375
  vertex 876500.0 5806500.0 3426.89990234375
 endloop
endfacet
facet normal -0.1106434240937233 0.062825046479702 -0.9918724894523621
 outer loop
  vertex 876500.0 5807500.0 3441.199951171875
  vertex 877500.0 5807500.0 3329.64990234375
  vertex 877500.0 5806500.0 3266.31005859375
 endloop
endfacet
facet normal -0.0059679183177649975 0.06321204453706741 -0.9979822635650635
 outer loop
  vertex 877500.0 5807500.0 3329.64990234375
  vertex 878500.0 5806500.0 3260.330078125
  vertex 877500.0 5806500.0 3266.31005859375
 endloop
endfacet
facet normal -0.044741492718458176 0.024488108232617378 -0.9986984133720398
 outer loop
  vertex 877500.0 5807500.0 3329.64990234375
  vertex 878500.0 5807500.0 3284.85009765625
  vertex 878500.0 5806500.0 3260.330078125
 endloop
endfacet
facet normal -0.02216806262731552 0.02450662851333618 -0.9994538426399231
 outer loop
  vertex 878500.0 5807500.0 3284.85009765625
  vertex 879500.0 5806500.0 3238.14990234375
  vertex 878500.0 5806500.0 3260.330078125
 endloop
endfacet
facet normal -0.3691411018371582 -0.3285416066646576 -0.869364857673645
 outer loop
  vertex 878500.0 5807500.0 3284.85009765625
  vertex 879500.0 5807500.0 2860.239990234375
  vertex 879500.0 5806500.0 3238.14990234375
 endloop
endfacet
facet normal -0.30673906207084656 -0.33646735548973083 -0.8903374671936035
 outer loop
  vertex 879500.0 5807500.0 2860.239990234375
  vertex 880500.0 5806500.0 2893.6298828125
  vertex 879500.0 5806500.0 3238.14990234375
 endloop
endfacet
facet normal 0.23856665194034576 0.17503507435321808 -0.9552218317985535
 outer loop
  vertex 867500.0 5808500.0 3350.8701171875
  vertex 868500.0 5807500.0 3417.3798828125
  vertex 867500.0 5807500.0 3167.6298828125
 endloop
endfacet
facet normal 0.23946990072727203 0.17596472799777985 -0.9548249244689941
 outer loop
  vertex 867500.0 5808500.0 3350.8701171875
  vertex 868500.0 5808500.0 3601.669921875
  vertex 868500.0 5807500.0 3417.3798828125
 endloop
endfacet
facet normal 0.07328518480062485 0.18075071275234222 -0.9807947874069214
 outer loop
  vertex 868500.0 5808500.0 3601.669921875
  vertex 869500.0 5807500.0 3492.10009765625
  vertex 868500.0 5807500.0 3417.3798828125
 endloop
endfacet
facet normal 0.0748724490404129 0.18229353427886963 -0.9803893566131592
 outer loop
  vertex 868500.0 5808500.0 3601.669921875
  vertex 869500.0 5808500.0 3678.0400390625
  vertex 869500.0 5807500.0 3492.10009765625
 endloop
endfacet
facet normal 0.014814243651926517 0.18278658390045166 -0.983040988445282
 outer loop
  vertex 869500.0 5808500.0 3678.0400390625
  vertex 870500.0 5807500.0 3507.169921875
  vertex 869500.0 5807500.0 3492.10009765625
 endloop
endfacet
facet normal -0.10905221849679947 0.06048412621021271 -0.9921941757202148
 outer loop
  vertex 869500.0 5808500.0 3678.0400390625
  vertex 870500.0 5808500.0 3568.1298828125
  vertex 870500.0 5807500.0 3507.169921875
 endloop
endfacet
facet normal -0.09010394662618637 0.06059950590133667 -0.9940870404243469
 outer loop
  vertex 870500.0 5808500.0 3568.1298828125
  vertex 871500.0 5807500.0 3416.530029296875
  vertex 870500.0 5807500.0 3507.169921875
 endloop
endfacet
facet normal 0.006588018964976072 0.15632084012031555 -0.9876843690872192
 outer loop
  vertex 870500.0 5808500.0 3568.1298828125
  vertex 871500.0 5808500.0 3574.800048828125
  vertex 871500.0 5807500.0 3416.530029296875
 endloop
endfacet
facet normal 0.11243415623903275 0.15533298254013062 -0.981442928314209
 outer loop
  vertex 871500.0 5808500.0 3574.800048828125
  vertex 872500.0 5807500.0 3531.090087890625
  vertex 871500.0 5807500.0 3416.530029296875
 endloop
endfacet
facet normal 0.04361163079738617 0.08711367845535278 -0.9952433109283447
 outer loop
  vertex 871500.0 5808500.0 3574.800048828125
  vertex 872500.0 5808500.0 3618.6201171875
  vertex 872500.0 5807500.0 3531.090087890625
 endloop
endfacet
facet normal -0.04320443421602249 0.08711522072553635 -0.9952609539031982
 outer loop
  vertex 872500.0 5808500.0 3618.6201171875
  vertex 873500.0 5807500.0 3487.679931640625
  vertex 872500.0 5807500.0 3531.090087890625
 endloop
endfacet
facet normal -0.01817208155989647 0.11192362755537033 -0.9935506582260132
 outer loop
  vertex 872500.0 5808500.0 3618.6201171875
  vertex 873500.0 5808500.0 3600.330078125
  vertex 873500.0 5807500.0 3487.679931640625
 endloop
endfacet
facet normal -0.14351165294647217 0.11078336089849472 -0.983428418636322
 outer loop
  vertex 873500.0 5808500.0 3600.330078125
  vertex 874500.0 5807500.0 3341.75
  vertex 873500.0 5807500.0 3487.679931640625
 endloop
endfacet
facet normal -0.14435338973999023 0.10993438959121704 -0.9834005236625671
 outer loop
  vertex 873500.0 5808500.0 3600.330078125
  vertex 874500.0 5808500.0 3453.5400390625
  vertex 874500.0 5807500.0 3341.75
 endloop
endfacet
facet normal 0.13278907537460327 0.11011414974927902 -0.9850085973739624
 outer loop
  vertex 874500.0 5808500.0 3453.5400390625
  vertex 875500.0 5807500.0 3476.56005859375
  vertex 874500.0 5807500.0 3341.75
 endloop
endfacet
facet normal 0.049213334918022156 0.026229137554764748 -0.9984437823295593
 outer loop
  vertex 874500.0 5808500.0 3453.5400390625
  vertex 875500.0 5808500.0 3502.830078125
  vertex 875500.0 5807500.0 3476.56005859375
 endloop
endfacet
facet normal -0.03532584756612778 0.026244569569826126 -0.9990311861038208
 outer loop
  vertex 875500.0 5808500.0 3502.830078125
  vertex 876500.0 5807500.0 3441.199951171875
  vertex 875500.0 5807500.0 3476.56005859375
 endloop
endfacet
facet normal -0.08765073865652084 -0.026279175654053688 -0.9958046078681946
 outer loop
  vertex 875500.0 5808500.0 3502.830078125
  vertex 876500.0 5808500.0 3414.81005859375
  vertex 876500.0 5807500.0 3441.199951171875
 endloop
endfacet
facet normal -0.11082431674003601 -0.026218201965093613 -0.9934940934181213
 outer loop
  vertex 876500.0 5808500.0 3414.81005859375
  vertex 877500.0 5807500.0 3329.64990234375
  vertex 876500.0 5807500.0 3441.199951171875
 endloop
endfacet
facet normal -0.05883762612938881 0.026145832613110542 -0.9979251027107239
 outer loop
  vertex 876500.0 5808500.0 3414.81005859375
  vertex 877500.0 5808500.0 3355.85009765625
  vertex 877500.0 5807500.0 3329.64990234375
 endloop
endfacet
facet normal -0.04473959282040596 0.026164982467889786 -0.9986559748649597
 outer loop
  vertex 877500.0 5808500.0 3355.85009765625
  vertex 878500.0 5807500.0 3284.85009765625
  vertex 877500.0 5807500.0 3329.64990234375
 endloop
endfacet
facet normal -0.03318801149725914 0.03772231563925743 -0.9987369775772095
 outer loop
  vertex 877500.0 5808500.0 3355.85009765625
  vertex 878500.0 5808500.0 3322.6201171875
  vertex 878500.0 5807500.0 3284.85009765625
 endloop
endfacet
facet normal -0.39060065150260925 0.03474480286240578 -0.9199042916297913
 outer loop
  vertex 878500.0 5808500.0 3322.6201171875
  vertex 879500.0 5807500.0 2860.239990234375
  vertex 878500.0 5807500.0 3284.85009765625
 endloop
endfacet
facet normal -0.40260782837867737 0.020535733550786972 -0.9151421785354614
 outer loop
  vertex 878500.0 5808500.0 3322.6201171875
  vertex 879500.0 5808500.0 2882.679931640625
  vertex 879500.0 5807500.0 2860.239990234375
 endloop
endfacet
facet normal 0.07578908652067184 0.09702618420124054 -0.9923920035362244
 outer loop
  vertex 868500.0 5809500.0 3699.43994140625
  vertex 869500.0 5808500.0 3678.0400390625
  vertex 868500.0 5808500.0 3601.669921875
 endloop
endfacet
facet normal -0.06896639615297318 -0.047641802579164505 -0.9964807629585266
 outer loop
  vertex 868500.0 5809500.0 3699.43994140625
  vertex 869500.0 5809500.0 3630.22998046875
  vertex 869500.0 5808500.0 3678.0400390625
 endloop
endfacet
facet normal -0.10912907868623734 -0.047470297664403915 -0.9928935170173645
 outer loop
  vertex 869500.0 5809500.0 3630.22998046875
  vertex 870500.0 5808500.0 3568.1298828125
  vertex 869500.0 5808500.0 3678.0400390625
 endloop
endfacet
facet normal 0.05404428020119667 0.1156364157795906 -0.9918202757835388
 outer loop
  vertex 869500.0 5809500.0 3630.22998046875
  vertex 870500.0 5809500.0 3684.719970703125
  vertex 870500.0 5808500.0 3568.1298828125
 endloop
endfacet
facet normal 0.006625141482800245 0.11580311506986618 -0.9932501316070557
 outer loop
  vertex 870500.0 5809500.0 3684.719970703125
  vertex 871500.0 5808500.0 3574.800048828125
  vertex 870500.0 5808500.0 3568.1298828125
 endloop
endfacet
facet normal -0.005340686999261379 0.10398180782794952 -0.9945648908615112
 outer loop
  vertex 870500.0 5809500.0 3684.719970703125
  vertex 871500.0 5809500.0 3679.35009765625
  vertex 871500.0 5808500.0 3574.800048828125
 endloop
endfacet
facet normal 0.04354118928313255 0.10388467460870743 -0.9936358332633972
 outer loop
  vertex 871500.0 5809500.0 3679.35009765625
  vertex 872500.0 5808500.0 3618.6201171875
  vertex 871500.0 5808500.0 3574.800048828125
 endloop
endfacet
facet normal 0.0005287937819957733 0.06114513427019119 -0.9981287717819214
 outer loop
  vertex 871500.0 5809500.0 3679.35009765625
  vertex 872500.0 5809500.0 3679.8798828125
  vertex 872500.0 5808500.0 3618.6201171875
 endloop
endfacet
facet normal -0.018252775073051453 0.061134953051805496 -0.9979625940322876
 outer loop
  vertex 872500.0 5809500.0 3679.8798828125
  vertex 873500.0 5808500.0 3600.330078125
  vertex 872500.0 5808500.0 3618.6201171875
 endloop
endfacet
facet normal -0.052249014377593994 0.027162741869688034 -0.9982646703720093
 outer loop
  vertex 872500.0 5809500.0 3679.8798828125
  vertex 873500.0 5809500.0 3627.5400390625
  vertex 873500.0 5808500.0 3600.330078125
 endloop
endfacet
facet normal -0.1451810747385025 0.026911713182926178 -0.9890390634536743
 outer loop
  vertex 873500.0 5809500.0 3627.5400390625
  vertex 874500.0 5808500.0 3453.5400390625
  vertex 873500.0 5808500.0 3600.330078125
 endloop
endfacet
facet normal -0.16783387959003448 0.003696781350299716 -0.9858083724975586
 outer loop
  vertex 873500.0 5809500.0 3627.5400390625
  vertex 874500.0 5809500.0 3457.2900390625
  vertex 874500.0 5808500.0 3453.5400390625
 endloop
endfacet
facet normal 0.049229927361011505 0.003745426656678319 -0.9987804293632507
 outer loop
  vertex 874500.0 5809500.0 3457.2900390625
  vertex 875500.0 5808500.0 3502.830078125
  vertex 874500.0 5808500.0 3453.5400390625
 endloop
endfacet
facet normal -0.11171742528676987 -0.15640832483768463 -0.9813540577888489
 outer loop
  vertex 874500.0 5809500.0 3457.2900390625
  vertex 875500.0 5809500.0 3343.449951171875
  vertex 875500.0 5808500.0 3502.830078125
 endloop
endfacet
facet normal -0.08659639954566956 -0.15680235624313354 -0.9838262796401978
 outer loop
  vertex 875500.0 5809500.0 3343.449951171875
  vertex 876500.0 5808500.0 3414.81005859375
  vertex 875500.0 5808500.0 3502.830078125
 endloop
endfacet
facet normal -0.04199236258864403 -0.1128334105014801 -0.9927261471748352
 outer loop
  vertex 875500.0 5809500.0 3343.449951171875
  vertex 876500.0 5809500.0 3301.14990234375
  vertex 876500.0 5808500.0 3414.81005859375
 endloop
endfacet
facet normal -0.05848250165581703 -0.11273973435163498 -0.9919019937515259
 outer loop
  vertex 876500.0 5809500.0 3301.14990234375
  vertex 877500.0 5808500.0 3355.85009765625
  vertex 876500.0 5808500.0 3414.81005859375
 endloop
endfacet
facet normal -0.02991911582648754 -0.08439956605434418 -0.9959827065467834
 outer loop
  vertex 876500.0 5809500.0 3301.14990234375
  vertex 877500.0 5809500.0 3271.110107421875
  vertex 877500.0 5808500.0 3355.85009765625
 endloop
endfacet
facet normal -0.033093176782131195 -0.08439111709594727 -0.995883047580719
 outer loop
  vertex 877500.0 5809500.0 3271.110107421875
  vertex 878500.0 5808500.0 3322.6201171875
  vertex 877500.0 5808500.0 3355.85009765625
 endloop
endfacet
facet normal -0.3421064019203186 -0.38623061776161194 -0.856614887714386
 outer loop
  vertex 877500.0 5809500.0 3271.110107421875
  vertex 878500.0 5809500.0 2871.739990234375
  vertex 878500.0 5808500.0 3322.6201171875
 endloop
endfacet
facet normal -0.3722376227378845 -0.3814939856529236 -0.8461095690727234
 outer loop
  vertex 878500.0 5809500.0 2871.739990234375
  vertex 879500.0 5808500.0 2882.679931640625
  vertex 878500.0 5808500.0 3322.6201171875
 endloop
endfacet
facet normal 0.006809842772781849 -0.004129752051085234 -0.9999682903289795
 outer loop
  vertex 878500.0 5809500.0 2871.739990234375
  vertex 879500.0 5809500.0 2878.550048828125
  vertex 879500.0 5808500.0 2882.679931640625
 endloop
endfacet
facet normal 0.05418570339679718 -0.09056150168180466 -0.9944157004356384
 outer loop
  vertex 869500.0 5810500.0 3539.159912109375
  vertex 870500.0 5809500.0 3684.719970703125
  vertex 869500.0 5809500.0 3630.22998046875
 endloop
endfacet
facet normal 0.0100677739828825 -0.13416875898838043 -0.9909073710441589
 outer loop
  vertex 869500.0 5810500.0 3539.159912109375
  vertex 870500.0 5810500.0 3549.320068359375
  vertex 870500.0 5809500.0 3684.719970703125
 endloop
endfacet
facet normal -0.005321243312209845 -0.1341736614704132 -0.9909435510635376
 outer loop
  vertex 870500.0 5810500.0 3549.320068359375
  vertex 871500.0 5809500.0 3679.35009765625
  vertex 870500.0 5809500.0 3684.719970703125
 endloop
endfacet
facet normal 0.16692329943180084 0.03881700336933136 -0.9852054715156555
 outer loop
  vertex 870500.0 5810500.0 3549.320068359375
  vertex 871500.0 5810500.0 3718.75
  vertex 871500.0 5809500.0 3679.35009765625
 endloop
endfacet
facet normal 0.0005293743452057242 0.03936935216188431 -0.9992246031761169
 outer loop
  vertex 871500.0 5810500.0 3718.75
  vertex 872500.0 5809500.0 3679.8798828125
  vertex 871500.0 5809500.0 3679.35009765625
 endloop
endfacet
facet normal 0.004575713071972132 0.04340878501534462 -0.9990469217300415
 outer loop
  vertex 871500.0 5810500.0 3718.75
  vertex 872500.0 5810500.0 3723.330078125
  vertex 872500.0 5809500.0 3679.8798828125
 endloop
endfacet
facet normal -0.05221916362643242 0.043350014835596085 -0.9976943135261536
 outer loop
  vertex 872500.0 5810500.0 3723.330078125
  vertex 873500.0 5809500.0 3627.5400390625
  vertex 872500.0 5809500.0 3679.8798828125
 endloop
endfacet
facet normal -0.16144418716430664 -0.06712968647480011 -0.9845960736274719
 outer loop
  vertex 872500.0 5810500.0 3723.330078125
  vertex 873500.0 5810500.0 3559.360107421875
  vertex 873500.0 5809500.0 3627.5400390625
 endloop
endfacet
facet normal -0.1674572080373764 -0.06706149876117706 -0.9835959076881409
 outer loop
  vertex 873500.0 5810500.0 3559.360107421875
  vertex 874500.0 5809500.0 3457.2900390625
  vertex 873500.0 5809500.0 3627.5400390625
 endloop
endfacet
facet normal -0.035209786146879196 0.06657043844461441 -0.9971602559089661
 outer loop
  vertex 873500.0 5810500.0 3559.360107421875
  vertex 874500.0 5810500.0 3524.050048828125
  vertex 874500.0 5809500.0 3457.2900390625
 endloop
endfacet
facet normal -0.1128615066409111 0.06618613004684448 -0.9914039373397827
 outer loop
  vertex 874500.0 5810500.0 3524.050048828125
  vertex 875500.0 5809500.0 3343.449951171875
  vertex 874500.0 5809500.0 3457.2900390625
 endloop
endfacet
facet normal -0.07289762049913406 0.10619795322418213 -0.9916692972183228
 outer loop
  vertex 874500.0 5810500.0 3524.050048828125
  vertex 875500.0 5810500.0 3450.5400390625
  vertex 875500.0 5809500.0 3343.449951171875
 endloop
endfacet
facet normal -0.04202241078019142 0.1063871830701828 -0.993436336517334
 outer loop
  vertex 875500.0 5810500.0 3450.5400390625
  vertex 876500.0 5809500.0 3301.14990234375
  vertex 875500.0 5809500.0 3343.449951171875
 endloop
endfacet
facet normal -0.0023052776232361794 0.14549480378627777 -0.9893563389778137
 outer loop
  vertex 875500.0 5810500.0 3450.5400390625
  vertex 876500.0 5810500.0 3448.2099609375
  vertex 876500.0 5809500.0 3301.14990234375
 endloop
endfacet
facet normal -0.02970702387392521 0.14543096721172333 -0.9889222979545593
 outer loop
  vertex 876500.0 5810500.0 3448.2099609375
  vertex 877500.0 5809500.0 3271.110107421875
  vertex 876500.0 5809500.0 3301.14990234375
 endloop
endfacet
facet normal -0.38006168603897095 -0.2209954410791397 -0.8981726765632629
 outer loop
  vertex 876500.0 5810500.0 3448.2099609375
  vertex 877500.0 5810500.0 3025.06005859375
  vertex 877500.0 5809500.0 3271.110107421875
 endloop
endfacet
facet normal -0.3615672290325165 -0.22275985777378082 -0.9053437113761902
 outer loop
  vertex 877500.0 5810500.0 3025.06005859375
  vertex 878500.0 5809500.0 2871.739990234375
  vertex 877500.0 5809500.0 3271.110107421875
 endloop
endfacet
facet normal -0.1564859300851822 -0.005056732799857855 -0.9876672625541687
 outer loop
  vertex 877500.0 5810500.0 3025.06005859375
  vertex 878500.0 5810500.0 2866.6201171875
  vertex 878500.0 5809500.0 2871.739990234375
 endloop
endfacet
facet normal 0.006809811107814312 -0.00511968694627285 -0.9999637007713318
 outer loop
  vertex 878500.0 5810500.0 2866.6201171875
  vertex 879500.0 5809500.0 2878.550048828125
  vertex 878500.0 5809500.0 2871.739990234375
 endloop
endfacet
facet normal -0.010556801222264767 -0.02248305268585682 -0.9996915459632874
 outer loop
  vertex 878500.0 5810500.0 2866.6201171875
  vertex 879500.0 5810500.0 2856.06005859375
  vertex 879500.0 5809500.0 2878.550048828125
 endloop
endfacet
facet normal 0.010117875412106514 -0.09057147055864334 -0.9958385825157166
 outer loop
  vertex 869500.0 5811500.0 3448.2099609375
  vertex 870500.0 5810500.0 3549.320068359375
  vertex 869500.0 5810500.0 3539.159912109375
 endloop
endfacet
facet normal 0.07143610715866089 -0.029371952638030052 -0.9970126152038574
 outer loop
  vertex 869500.0 5811500.0 3448.2099609375
  vertex 870500.0 5811500.0 3519.860107421875
  vertex 870500.0 5810500.0 3549.320068359375
 endloop
endfacet
facet normal 0.16697877645492554 -0.029033761471509933 -0.9855329394340515
 outer loop
  vertex 870500.0 5811500.0 3519.860107421875
  vertex 871500.0 5810500.0 3718.75
  vertex 870500.0 5810500.0 3549.320068359375
 endloop
endfacet
facet normal 0.21519607305526733 0.021010955795645714 -0.9763448238372803
 outer loop
  vertex 870500.0 5811500.0 3519.860107421875
  vertex 871500.0 5811500.0 3740.27001953125
  vertex 871500.0 5810500.0 3718.75
 endloop
endfacet
facet normal 0.004578969907015562 0.021514812484383583 -0.9997580647468567
 outer loop
  vertex 871500.0 5811500.0 3740.27001953125
  vertex 872500.0 5810500.0 3723.330078125
  vertex 871500.0 5810500.0 3718.75
 endloop
endfacet
facet normal -0.03722649812698364 -0.02030179090797901 -0.9991006255149841
 outer loop
  vertex 871500.0 5811500.0 3740.27001953125
  vertex 872500.0 5811500.0 3703.010009765625
  vertex 872500.0 5810500.0 3723.330078125
 endloop
endfacet
facet normal -0.16177666187286377 -0.02004826068878174 -0.9866237044334412
 outer loop
  vertex 872500.0 5811500.0 3703.010009765625
  vertex 873500.0 5810500.0 3559.360107421875
  vertex 872500.0 5810500.0 3723.330078125
 endloop
endfacet
facet normal -0.03312089294195175 0.10958459228277206 -0.9934254884719849
 outer loop
  vertex 872500.0 5811500.0 3703.010009765625
  vertex 873500.0 5811500.0 3669.669921875
  vertex 873500.0 5810500.0 3559.360107421875
 endloop
endfacet
facet normal -0.03507557511329651 0.10957726836204529 -0.9933592081069946
 outer loop
  vertex 873500.0 5811500.0 3669.669921875
  vertex 874500.0 5810500.0 3524.050048828125
  vertex 873500.0 5810500.0 3559.360107421875
 endloop
endfacet
facet normal -0.13432449102401733 0.009968387894332409 -0.9908872246742249
 outer loop
  vertex 873500.0 5811500.0 3669.669921875
  vertex 874500.0 5811500.0 3534.110107421875
  vertex 874500.0 5810500.0 3524.050048828125
 endloop
endfacet
facet normal -0.07330851256847382 0.01003248244524002 -0.9972588419914246
 outer loop
  vertex 874500.0 5811500.0 3534.110107421875
  vertex 875500.0 5810500.0 3450.5400390625
  vertex 874500.0 5810500.0 3524.050048828125
 endloop
endfacet
facet normal -0.16897422075271606 -0.08692681789398193 -0.9817797541618347
 outer loop
  vertex 874500.0 5811500.0 3534.110107421875
  vertex 875500.0 5811500.0 3362.0
  vertex 875500.0 5810500.0 3450.5400390625
 endloop
endfacet
facet normal -0.00232099206186831 -0.08819478005170822 -0.9961005449295044
 outer loop
  vertex 875500.0 5811500.0 3362.0
  vertex 876500.0 5810500.0 3448.2099609375
  vertex 875500.0 5810500.0 3450.5400390625
 endloop
endfacet
facet normal 0.04483654722571373 -0.04121340066194534 -0.9981439113616943
 outer loop
  vertex 875500.0 5811500.0 3362.0
  vertex 876500.0 5811500.0 3406.919921875
  vertex 876500.0 5810500.0 3448.2099609375
 endloop
endfacet
facet normal -0.38941556215286255 -0.03799831494688988 -0.920278012752533
 outer loop
  vertex 876500.0 5811500.0 3406.919921875
  vertex 877500.0 5810500.0 3025.06005859375
  vertex 876500.0 5810500.0 3448.2099609375
 endloop
endfacet
facet normal -0.11238370090723038 0.25440967082977295 -0.9605444073677063
 outer loop
  vertex 876500.0 5811500.0 3406.919921875
  vertex 877500.0 5811500.0 3289.919921875
  vertex 877500.0 5810500.0 3025.06005859375
 endloop
endfacet
facet normal -0.15139350295066833 0.2530805468559265 -0.9555261731147766
 outer loop
  vertex 877500.0 5811500.0 3289.919921875
  vertex 878500.0 5810500.0 2866.6201171875
  vertex 877500.0 5810500.0 3025.06005859375
 endloop
endfacet
facet normal 0.2130565345287323 0.14219225943088531 -0.9666376709938049
 outer loop
  vertex 870500.0 5812500.0 3666.9599609375
  vertex 871500.0 5811500.0 3740.27001953125
  vertex 870500.0 5811500.0 3519.860107421875
 endloop
endfacet
facet normal 0.04594430327415466 -0.027261069044470787 -0.9985719919204712
 outer loop
  vertex 870500.0 5812500.0 3666.9599609375
  vertex 871500.0 5812500.0 3712.969970703125
  vertex 871500.0 5811500.0 3740.27001953125
 endloop
endfacet
facet normal -0.03722032159566879 -0.0272709708660841 -0.9989348649978638
 outer loop
  vertex 871500.0 5812500.0 3712.969970703125
  vertex 872500.0 5811500.0 3703.010009765625
  vertex 871500.0 5811500.0 3740.27001953125
 endloop
endfacet
facet normal -0.25164827704429626 -0.242315873503685 -0.9369930624961853
 outer loop
  vertex 871500.0 5812500.0 3712.969970703125
  vertex 872500.0 5812500.0 3444.39990234375
  vertex 872500.0 5811500.0 3703.010009765625
 endloop
endfacet
facet normal -0.03226139023900032 -0.2502428889274597 -0.9676454663276672
 outer loop
  vertex 872500.0 5812500.0 3444.39990234375
  vertex 873500.0 5811500.0 3669.669921875
  vertex 872500.0 5811500.0 3703.010009765625
 endloop
endfacet
facet normal -0.06563719362020493 -0.2813042104244232 -0.9573712348937988
 outer loop
  vertex 872500.0 5812500.0 3444.39990234375
  vertex 873500.0 5812500.0 3375.840087890625
  vertex 873500.0 5811500.0 3669.669921875
 endloop
endfacet
facet normal -0.1289752572774887 -0.27955758571624756 -0.9514268040657043
 outer loop
  vertex 873500.0 5812500.0 3375.840087890625
  vertex 874500.0 5811500.0 3534.110107421875
  vertex 873500.0 5811500.0 3669.669921875
 endloop
endfacet
facet normal -0.02743811160326004 -0.18297553062438965 -0.9827345013618469
 outer loop
  vertex 873500.0 5812500.0 3375.840087890625
  vertex 874500.0 5812500.0 3347.919921875
  vertex 874500.0 5811500.0 3534.110107421875
 endloop
endfacet
facet normal -0.16683095693588257 -0.18047915399074554 -0.969326913356781
 outer loop
  vertex 874500.0 5812500.0 3347.919921875
  vertex 875500.0 5811500.0 3362.0
  vertex 874500.0 5811500.0 3534.110107421875
 endloop
endfacet
facet normal -0.028452686965465546 -0.04251433163881302 -0.998690664768219
 outer loop
  vertex 874500.0 5812500.0 3347.919921875
  vertex 875500.0 5812500.0 3319.429931640625
  vertex 875500.0 5811500.0 3362.0
 endloop
endfacet
facet normal 0.04483414441347122 -0.04248877987265587 -0.9980904459953308
 outer loop
  vertex 875500.0 5812500.0 3319.429931640625
  vertex 876500.0 5811500.0 3406.919921875
  vertex 875500.0 5811500.0 3362.0
 endloop
endfacet
facet normal -0.10936764627695084 -0.1946490854024887 -0.9747565984725952
 outer loop
  vertex 875500.0 5812500.0 3319.429931640625
  vertex 876500.0 5812500.0 3207.22998046875
  vertex 876500.0 5811500.0 3406.919921875
 endloop
endfacet
facet normal -0.11398696154356003 -0.19454742968082428 -0.9742475152015686
 outer loop
  vertex 876500.0 5812500.0 3207.22998046875
  vertex 877500.0 5811500.0 3289.919921875
  vertex 876500.0 5811500.0 3406.919921875
 endloop
endfacet
facet normal -0.10560987144708633 -0.18638016283512115 -0.9767850041389465
 outer loop
  vertex 876500.0 5812500.0 3207.22998046875
  vertex 877500.0 5812500.0 3099.110107421875
  vertex 877500.0 5811500.0 3289.919921875
 endloop
endfacet
facet normal -0.022333621978759766 0.25123584270477295 -0.9676682353019714
 outer loop
  vertex 869500.0 5813500.0 3949.669921875
  vertex 870500.0 5813500.0 3926.590087890625
  vertex 870500.0 5812500.0 3666.9599609375
 endloop
endfacet
facet normal 0.04448942840099335 0.2510496973991394 -0.966951310634613
 outer loop
  vertex 870500.0 5813500.0 3926.590087890625
  vertex 871500.0 5812500.0 3712.969970703125
  vertex 870500.0 5812500.0 3666.9599609375
 endloop
endfacet
facet normal -0.3955177962779999 -0.20422859489917755 -0.895464301109314
 outer loop
  vertex 870500.0 5813500.0 3926.590087890625
  vertex 871500.0 5813500.0 3484.89990234375
  vertex 871500.0 5812500.0 3712.969970703125
 endloop
endfacet
facet normal -0.25330647826194763 -0.21510820090770721 -0.9431672096252441
 outer loop
  vertex 871500.0 5813500.0 3484.89990234375
  vertex 872500.0 5812500.0 3444.39990234375
  vertex 871500.0 5812500.0 3712.969970703125
 endloop
endfacet
facet normal -0.14273801445960999 -0.10286981612443924 -0.9844001531600952
 outer loop
  vertex 871500.0 5813500.0 3484.89990234375
  vertex 872500.0 5813500.0 3339.89990234375
  vertex 872500.0 5812500.0 3444.39990234375
 endloop
endfacet
facet normal -0.06803052872419357 -0.10369326174259186 -0.9922800064086914
 outer loop
  vertex 872500.0 5813500.0 3339.89990234375
  vertex 873500.0 5812500.0 3375.840087890625
  vertex 872500.0 5812500.0 3444.39990234375
 endloop
endfacet
facet normal -0.0021683427039533854 -0.03808237612247467 -0.9992722868919373
 outer loop
  vertex 872500.0 5813500.0 3339.89990234375
  vertex 873500.0 5813500.0 3337.72998046875
  vertex 873500.0 5812500.0 3375.840087890625
 endloop
endfacet
facet normal -0.027889063581824303 -0.03806765377521515 -0.9988859295845032
 outer loop
  vertex 873500.0 5813500.0 3337.72998046875
  vertex 874500.0 5812500.0 3347.919921875
  vertex 873500.0 5812500.0 3375.840087890625
 endloop
endfacet
facet normal -0.0182195995002985 -0.028403736650943756 -0.9994305372238159
 outer loop
  vertex 873500.0 5813500.0 3337.72998046875
  vertex 874500.0 5813500.0 3319.5
  vertex 874500.0 5812500.0 3347.919921875
 endloop
endfacet
facet normal -0.028466949239373207 -0.028396937996149063 -0.9991912841796875
 outer loop
  vertex 874500.0 5813500.0 3319.5
  vertex 875500.0 5812500.0 3319.429931640625
  vertex 874500.0 5812500.0 3347.919921875
 endloop
endfacet
facet normal -0.09198235720396042 -0.0919128805398941 -0.9915095567703247
 outer loop
  vertex 874500.0 5813500.0 3319.5
  vertex 875500.0 5813500.0 3226.72998046875
  vertex 875500.0 5812500.0 3319.429931640625
 endloop
endfacet
facet normal -0.11103019118309021 -0.09173349291086197 -0.9895742535591125
 outer loop
  vertex 875500.0 5813500.0 3226.72998046875
  vertex 876500.0 5812500.0 3207.22998046875
  vertex 875500.0 5812500.0 3319.429931640625
 endloop
endfacet
facet normal -0.054584600031375885 -0.035125721246004105 -0.9978911280632019
 outer loop
  vertex 875500.0 5813500.0 3226.72998046875
  vertex 876500.0 5813500.0 3172.030029296875
  vertex 876500.0 5812500.0 3207.22998046875
 endloop
endfacet
facet normal -0.10742764174938202 -0.034974586218595505 -0.9935975670814514
 outer loop
  vertex 876500.0 5813500.0 3172.030029296875
  vertex 877500.0 5812500.0 3099.110107421875
  vertex 876500.0 5812500.0 3207.22998046875
 endloop
endfacet
facet normal -0.24238228797912598 -0.1727675348520279 -0.9546738862991333
 outer loop
  vertex 876500.0 5813500.0 3172.030029296875
  vertex 877500.0 5813500.0 2918.139892578125
  vertex 877500.0 5812500.0 3099.110107421875
 endloop
endfacet
facet normal 0.1476249247789383 -0.07991938292980194 -0.9858092069625854
 outer loop
  vertex 868500.0 5814500.0 3718.85009765625
  vertex 869500.0 5813500.0 3949.669921875
  vertex 868500.0 5813500.0 3799.919921875
 endloop
endfacet
facet normal 0.07205944508314133 -0.15535064041614532 -0.9852277040481567
 outer loop
  vertex 868500.0 5814500.0 3718.85009765625
  vertex 869500.0 5814500.0 3791.989990234375
  vertex 869500.0 5813500.0 3949.669921875
 endloop
endfacet
facet normal -0.02279224619269371 -0.15571509301662445 -0.9875390529632568
 outer loop
  vertex 869500.0 5814500.0 3791.989990234375
  vertex 870500.0 5813500.0 3926.590087890625
  vertex 869500.0 5813500.0 3949.669921875
 endloop
endfacet
facet normal -0.08693639934062958 -0.21778351068496704 -0.9721174836158752
 outer loop
  vertex 869500.0 5814500.0 3791.989990234375
  vertex 870500.0 5814500.0 3702.56005859375
  vertex 870500.0 5813500.0 3926.590087890625
 endloop
endfacet
facet normal -0.39580774307250977 -0.2007579654455185 -0.8961207866668701
 outer loop
  vertex 870500.0 5814500.0 3702.56005859375
  vertex 871500.0 5813500.0 3484.89990234375
  vertex 870500.0 5813500.0 3926.590087890625
 endloop
endfacet
facet normal -0.259979248046875 -0.050086427479982376 -0.964314341545105
 outer loop
  vertex 870500.0 5814500.0 3702.56005859375
  vertex 871500.0 5814500.0 3432.9599609375
  vertex 871500.0 5813500.0 3484.89990234375
 endloop
endfacet
facet normal -0.14331009984016418 -0.05133460834622383 -0.9883455634117126
 outer loop
  vertex 871500.0 5814500.0 3432.9599609375
  vertex 872500.0 5813500.0 3339.89990234375
  vertex 871500.0 5813500.0 3484.89990234375
 endloop
endfacet
facet normal -0.07458924502134323 0.01819613203406334 -0.9970483183860779
 outer loop
  vertex 871500.0 5814500.0 3432.9599609375
  vertex 872500.0 5814500.0 3358.14990234375
  vertex 872500.0 5813500.0 3339.89990234375
 endloop
endfacet
facet normal -0.0021695555187761784 0.01824691891670227 -0.9998311400413513
 outer loop
  vertex 872500.0 5814500.0 3358.14990234375
  vertex 873500.0 5813500.0 3337.72998046875
  vertex 872500.0 5813500.0 3339.89990234375
 endloop
endfacet
facet normal -0.08646293729543686 -0.06616439670324326 -0.9940555691719055
 outer loop
  vertex 872500.0 5814500.0 3358.14990234375
  vertex 873500.0 5814500.0 3271.169921875
  vertex 873500.0 5813500.0 3337.72998046875
 endloop
endfacet
facet normal -0.018186727538704872 -0.0664021298289299 -0.9976271986961365
 outer loop
  vertex 873500.0 5814500.0 3271.169921875
  vertex 874500.0 5813500.0 3319.5
  vertex 873500.0 5813500.0 3337.72998046875
 endloop
endfacet
facet normal -0.0680759847164154 -0.11596709489822388 -0.990917444229126
 outer loop
  vertex 873500.0 5814500.0 3271.169921875
  vertex 874500.0 5814500.0 3202.469970703125
  vertex 874500.0 5813500.0 3319.5
 endloop
endfacet
facet normal -0.09175252169370651 -0.11574644595384598 -0.9890320301055908
 outer loop
  vertex 874500.0 5814500.0 3202.469970703125
  vertex 875500.0 5813500.0 3226.72998046875
  vertex 874500.0 5813500.0 3319.5
 endloop
endfacet
facet normal -0.04916710779070854 -0.07333237677812576 -0.9960948824882507
 outer loop
  vertex 874500.0 5814500.0 3202.469970703125
  vertex 875500.0 5814500.0 3153.110107421875
  vertex 875500.0 5813500.0 3226.72998046875
 endloop
endfacet
facet normal -0.054471325129270554 -0.0733121708035469 -0.9958203434944153
 outer loop
  vertex 875500.0 5814500.0 3153.110107421875
  vertex 876500.0 5813500.0 3172.030029296875
  vertex 875500.0 5813500.0 3226.72998046875
 endloop
endfacet
facet normal 0.01739724911749363 -0.0015197877073660493 -0.9998475313186646
 outer loop
  vertex 875500.0 5814500.0 3153.110107421875
  vertex 876500.0 5814500.0 3170.510009765625
  vertex 876500.0 5813500.0 3172.030029296875
 endloop
endfacet
facet normal -0.24608245491981506 -0.0014732754789292812 -0.9692477583885193
 outer loop
  vertex 876500.0 5814500.0 3170.510009765625
  vertex 877500.0 5813500.0 2918.139892578125
  vertex 876500.0 5813500.0 3172.030029296875
 endloop
endfacet
facet normal 0.07234259694814682 -0.12825661897659302 -0.9890989661216736
 outer loop
  vertex 868500.0 5815500.0 3589.179931640625
  vertex 869500.0 5814500.0 3791.989990234375
  vertex 868500.0 5814500.0 3718.85009765625
 endloop
endfacet
facet normal 0.06686058640480042 -0.13367144763469696 -0.9887677431106567
 outer loop
  vertex 868500.0 5815500.0 3589.179931640625
  vertex 869500.0 5815500.0 3656.800048828125
  vertex 869500.0 5814500.0 3791.989990234375
 endloop
endfacet
facet normal -0.08827774226665497 -0.13344819843769073 -0.9871163368225098
 outer loop
  vertex 869500.0 5815500.0 3656.800048828125
  vertex 870500.0 5814500.0 3702.56005859375
  vertex 869500.0 5814500.0 3791.989990234375
 endloop
endfacet
facet normal -0.08992232382297516 -0.13507583737373352 -0.9867463707923889
 outer loop
  vertex 869500.0 5815500.0 3656.800048828125
  vertex 870500.0 5815500.0 3565.669921875
  vertex 870500.0 5814500.0 3702.56005859375
 endloop
endfacet
facet normal -0.2580616772174835 -0.13103146851062775 -0.9572016000747681
 outer loop
  vertex 870500.0 5815500.0 3565.669921875
  vertex 871500.0 5814500.0 3432.9599609375
  vertex 870500.0 5814500.0 3702.56005859375
 endloop
endfacet
facet normal 0.10229778289794922 0.2307118922472 -0.9676297307014465
 outer loop
  vertex 870500.0 5815500.0 3565.669921875
  vertex 871500.0 5815500.0 3671.389892578125
  vertex 871500.0 5814500.0 3432.9599609375
 endloop
endfacet
facet normal -0.07257828116416931 0.2313169538974762 -0.9701673984527588
 outer loop
  vertex 871500.0 5815500.0 3671.389892578125
  vertex 872500.0 5814500.0 3358.14990234375
  vertex 871500.0 5814500.0 3432.9599609375
 endloop
endfacet
facet normal -0.28101029992103577 0.01954525150358677 -0.9595056772232056
 outer loop
  vertex 871500.0 5815500.0 3671.389892578125
  vertex 872500.0 5815500.0 3378.52001953125
  vertex 872500.0 5814500.0 3358.14990234375
 endloop
endfacet
facet normal -0.08663497120141983 0.02028931863605976 -0.9960334897041321
 outer loop
  vertex 872500.0 5815500.0 3378.52001953125
  vertex 873500.0 5814500.0 3271.169921875
  vertex 872500.0 5814500.0 3358.14990234375
 endloop
endfacet
facet normal -0.05975569039583206 0.04728229343891144 -0.997092604637146
 outer loop
  vertex 872500.0 5815500.0 3378.52001953125
  vertex 873500.0 5815500.0 3318.590087890625
  vertex 873500.0 5814500.0 3271.169921875
 endloop
endfacet
facet normal -0.0684618353843689 0.047255802899599075 -0.9965339303016663
 outer loop
  vertex 873500.0 5815500.0 3318.590087890625
  vertex 874500.0 5814500.0 3202.469970703125
  vertex 873500.0 5814500.0 3271.169921875
 endloop
endfacet
facet normal -0.11814618855714798 -0.0028398255817592144 -0.9929921627044678
 outer loop
  vertex 873500.0 5815500.0 3318.590087890625
  vertex 874500.0 5815500.0 3199.610107421875
  vertex 874500.0 5814500.0 3202.469970703125
 endloop
endfacet
facet normal -0.04929964244365692 -0.002856374252587557 -0.9987800121307373
 outer loop
  vertex 874500.0 5815500.0 3199.610107421875
  vertex 875500.0 5814500.0 3153.110107421875
  vertex 874500.0 5814500.0 3202.469970703125
 endloop
endfacet
facet normal -0.008843486197292805 0.03762177377939224 -0.9992529153823853
 outer loop
  vertex 874500.0 5815500.0 3199.610107421875
  vertex 875500.0 5815500.0 3190.760009765625
  vertex 875500.0 5814500.0 3153.110107421875
 endloop
endfacet
facet normal 0.017384955659508705 0.03761756047606468 -0.9991409778594971
 outer loop
  vertex 875500.0 5815500.0 3190.760009765625
  vertex 876500.0 5814500.0 3170.510009765625
  vertex 875500.0 5814500.0 3153.110107421875
 endloop
endfacet
facet normal -0.25897857546806335 -0.24003303050994873 -0.9355822205543518
 outer loop
  vertex 875500.0 5815500.0 3190.760009765625
  vertex 876500.0 5815500.0 2913.949951171875
  vertex 876500.0 5814500.0 3170.510009765625
 endloop
endfacet
facet normal -0.09066952764987946 -0.04315091297030449 -0.994945764541626
 outer loop
  vertex 869500.0 5816500.0 3613.429931640625
  vertex 870500.0 5815500.0 3565.669921875
  vertex 869500.0 5815500.0 3656.800048828125
 endloop
endfacet
facet normal -0.14527277648448944 -0.09825300425291061 -0.9845010042190552
 outer loop
  vertex 869500.0 5816500.0 3613.429931640625
  vertex 870500.0 5816500.0 3465.8701171875
  vertex 870500.0 5815500.0 3565.669921875
 endloop
endfacet
facet normal 0.10462009161710739 -0.09876151382923126 -0.9895962476730347
 outer loop
  vertex 870500.0 5816500.0 3465.8701171875
  vertex 871500.0 5815500.0 3671.389892578125
  vertex 870500.0 5815500.0 3565.669921875
 endloop
endfacet
facet normal -0.014889768324792385 -0.21555480360984802 -0.9763782620429993
 outer loop
  vertex 870500.0 5816500.0 3465.8701171875
  vertex 871500.0 5816500.0 3450.6201171875
  vertex 871500.0 5815500.0 3671.389892578125
 endloop
endfacet
facet normal -0.27496039867401123 -0.2072693407535553 -0.9388483762741089
 outer loop
  vertex 871500.0 5816500.0 3450.6201171875
  vertex 872500.0 5815500.0 3378.52001953125
  vertex 871500.0 5815500.0 3671.389892578125
 endloop
endfacet
facet normal -0.16821765899658203 -0.09749346226453781 -0.9809167981147766
 outer loop
  vertex 871500.0 5816500.0 3450.6201171875
  vertex 872500.0 5816500.0 3279.1298828125
  vertex 872500.0 5815500.0 3378.52001953125
 endloop
endfacet
facet normal -0.059530340135097504 -0.09872743487358093 -0.9933322668075562
 outer loop
  vertex 872500.0 5816500.0 3279.1298828125
  vertex 873500.0 5815500.0 3318.590087890625
  vertex 872500.0 5815500.0 3378.52001953125
 endloop
endfacet
facet normal -0.055176932364702225 -0.09440053254365921 -0.9940040707588196
 outer loop
  vertex 872500.0 5816500.0 3279.1298828125
  vertex 873500.0 5816500.0 3223.6201171875
  vertex 873500.0 5815500.0 3318.590087890625
 endloop
endfacet
facet normal -0.11762476712465286 -0.09388823807239532 -0.988609790802002
 outer loop
  vertex 873500.0 5816500.0 3223.6201171875
  vertex 874500.0 5815500.0 3199.610107421875
  vertex 873500.0 5815500.0 3318.590087890625
 endloop
endfacet
facet normal 0.019198497757315636 0.043181680142879486 -0.9988827705383301
 outer loop
  vertex 873500.0 5816500.0 3223.6201171875
  vertex 874500.0 5816500.0 3242.840087890625
  vertex 874500.0 5815500.0 3199.610107421875
 endloop
endfacet
facet normal -0.008841494098305702 0.043187953531742096 -0.9990278482437134
 outer loop
  vertex 874500.0 5816500.0 3242.840087890625
  vertex 875500.0 5815500.0 3190.760009765625
  vertex 874500.0 5815500.0 3199.610107421875
 endloop
endfacet
facet normal -0.09608770161867142 -0.04429996758699417 -0.9943865537643433
 outer loop
  vertex 874500.0 5816500.0 3242.840087890625
  vertex 875500.0 5816500.0 3146.2099609375
  vertex 875500.0 5815500.0 3190.760009765625
 endloop
endfacet
facet normal -0.26653236150741577 -0.04289594292640686 -0.9628708958625793
 outer loop
  vertex 875500.0 5816500.0 3146.2099609375
  vertex 876500.0 5815500.0 2913.949951171875
  vertex 875500.0 5815500.0 3190.760009765625
 endloop
endfacet
facet normal -0.2823216915130615 -0.059945497661828995 -0.9574450254440308
 outer loop
  vertex 875500.0 5816500.0 3146.2099609375
  vertex 876500.0 5816500.0 2851.340087890625
  vertex 876500.0 5815500.0 2913.949951171875
 endloop
endfacet
facet normal -0.14513635635375977 -0.10729819536209106 -0.9835764169692993
 outer loop
  vertex 869500.0 5817500.0 3504.340087890625
  vertex 870500.0 5816500.0 3465.8701171875
  vertex 869500.0 5816500.0 3613.429931640625
 endloop
endfacet
facet normal -0.09173833578824997 -0.053485892713069916 -0.9943456649780273
 outer loop
  vertex 869500.0 5817500.0 3504.340087890625
  vertex 870500.0 5817500.0 3412.080078125
  vertex 870500.0 5816500.0 3465.8701171875
 endloop
endfacet
facet normal -0.015226220712065697 -0.05370616167783737 -0.998440682888031
 outer loop
  vertex 870500.0 5817500.0 3412.080078125
  vertex 871500.0 5816500.0 3450.6201171875
  vertex 870500.0 5816500.0 3465.8701171875
 endloop
endfacet
facet normal -0.13627785444259644 -0.17386575043201447 -0.9752943515777588
 outer loop
  vertex 870500.0 5817500.0 3412.080078125
  vertex 871500.0 5817500.0 3272.35009765625
  vertex 871500.0 5816500.0 3450.6201171875
 endloop
endfacet
facet normal -0.1664726883172989 -0.17305411398410797 -0.9707415699958801
 outer loop
  vertex 871500.0 5817500.0 3272.35009765625
  vertex 872500.0 5816500.0 3279.1298828125
  vertex 871500.0 5816500.0 3450.6201171875
 endloop
endfacet
facet normal -0.15078507363796234 -0.15740184485912323 -0.9759551882743835
 outer loop
  vertex 871500.0 5817500.0 3272.35009765625
  vertex 872500.0 5817500.0 3117.85009765625
  vertex 872500.0 5816500.0 3279.1298828125
 endloop
endfacet
facet normal -0.05471951141953468 -0.1589837521314621 -0.985763669013977
 outer loop
  vertex 872500.0 5817500.0 3117.85009765625
  vertex 873500.0 5816500.0 3223.6201171875
  vertex 872500.0 5816500.0 3279.1298828125
 endloop
endfacet
facet normal 0.1281779557466507 0.02330939657986164 -0.9914771914482117
 outer loop
  vertex 872500.0 5817500.0 3117.85009765625
  vertex 873500.0 5817500.0 3247.1298828125
  vertex 873500.0 5816500.0 3223.6201171875
 endloop
endfacet
facet normal 0.019211115315556526 0.023498933762311935 -0.9995392560958862
 outer loop
  vertex 873500.0 5817500.0 3247.1298828125
  vertex 874500.0 5816500.0 3242.840087890625
  vertex 873500.0 5816500.0 3223.6201171875
 endloop
endfacet
facet normal -0.07424049824476242 -0.06997308135032654 -0.9947824478149414
 outer loop
  vertex 873500.0 5817500.0 3247.1298828125
  vertex 874500.0 5817500.0 3172.5
  vertex 874500.0 5816500.0 3242.840087890625
 endloop
endfacet
facet normal -0.0959472507238388 -0.06984300166368484 -0.9929330945014954
 outer loop
  vertex 874500.0 5817500.0 3172.5
  vertex 875500.0 5816500.0 3146.2099609375
  vertex 874500.0 5816500.0 3242.840087890625
 endloop
endfacet
facet normal -0.027379607781767845 -0.0010994405020028353 -0.999624490737915
 outer loop
  vertex 874500.0 5817500.0 3172.5
  vertex 875500.0 5817500.0 3145.110107421875
  vertex 875500.0 5816500.0 3146.2099609375
 endloop
endfacet
facet normal -0.2828301787376404 -0.0010549458675086498 -0.9591693878173828
 outer loop
  vertex 875500.0 5817500.0 3145.110107421875
  vertex 876500.0 5816500.0 2851.340087890625
  vertex 875500.0 5816500.0 3146.2099609375
 endloop
endfacet
facet normal -0.2802238166332245 0.0017757561290636659 -0.9599330425262451
 outer loop
  vertex 875500.0 5817500.0 3145.110107421875
  vertex 876500.0 5817500.0 2853.18994140625
  vertex 876500.0 5816500.0 2851.340087890625
 endloop
endfacet
facet normal -0.09172278642654419 -0.056558866053819656 -0.9941770434379578
 outer loop
  vertex 869500.0 5818500.0 3447.449951171875
  vertex 870500.0 5817500.0 3412.080078125
  vertex 869500.0 5817500.0 3504.340087890625
 endloop
endfacet
facet normal -0.12631620466709137 -0.0913788229227066 -0.9877722859382629
 outer loop
  vertex 869500.0 5818500.0 3447.449951171875
  vertex 870500.0 5818500.0 3319.570068359375
  vertex 870500.0 5817500.0 3412.080078125
 endloop
endfacet
facet normal -0.13780836760997772 -0.09123778343200684 -0.986247718334198
 outer loop
  vertex 870500.0 5818500.0 3319.570068359375
  vertex 871500.0 5817500.0 3272.35009765625
  vertex 870500.0 5817500.0 3412.080078125
 endloop
endfacet
facet normal -0.08768749982118607 -0.04068867117166519 -0.995316743850708
 outer loop
  vertex 870500.0 5818500.0 3319.570068359375
  vertex 871500.0 5818500.0 3231.469970703125
  vertex 871500.0 5817500.0 3272.35009765625
 endloop
endfacet
facet normal -0.1525639295578003 -0.04036784917116165 -0.9874688386917114
 outer loop
  vertex 871500.0 5818500.0 3231.469970703125
  vertex 872500.0 5817500.0 3117.85009765625
  vertex 871500.0 5817500.0 3272.35009765625
 endloop
endfacet
facet normal -0.053467076271772385 0.05978674069046974 -0.9967782497406006
 outer loop
  vertex 871500.0 5818500.0 3231.469970703125
  vertex 872500.0 5818500.0 3177.830078125
  vertex 872500.0 5817500.0 3117.85009765625
 endloop
endfacet
facet normal 0.12798655033111572 0.05937998369336128 -0.9899967312812805
 outer loop
  vertex 872500.0 5818500.0 3177.830078125
  vertex 873500.0 5817500.0 3247.1298828125
  vertex 872500.0 5817500.0 3117.85009765625
 endloop
endfacet
facet normal -0.009022030979394913 -0.07810728996992111 -0.9969041347503662
 outer loop
  vertex 872500.0 5818500.0 3177.830078125
  vertex 873500.0 5818500.0 3168.780029296875
  vertex 873500.0 5817500.0 3247.1298828125
 endloop
endfacet
facet normal -0.07419678568840027 -0.0778951644897461 -0.9941967725753784
 outer loop
  vertex 873500.0 5818500.0 3168.780029296875
  vertex 874500.0 5817500.0 3172.5
  vertex 873500.0 5817500.0 3247.1298828125
 endloop
endfacet
facet normal -0.27707502245903015 -0.14950008690357208 -0.9491465091705322
 outer loop
  vertex 875500.0 5818500.0 2987.60009765625
  vertex 876500.0 5817500.0 2853.18994140625
  vertex 875500.0 5817500.0 3145.110107421875
 endloop
endfacet
endsolid
