solid
facet normal -0.042354851961135864 -0.01848023757338524 -0.9989317059516907
 outer loop
  vertex 468500.0 5541500.0 3681.800048828125
  vertex 469500.0 5541500.0 3639.39990234375
  vertex 469500.0 5540500.0 3657.89990234375
 endloop
endfacet
facet normal 0.019185654819011688 0.033475056290626526 -0.999255359172821
 outer loop
  vertex 466500.0 5542500.0 3680.699951171875
  vertex 467500.0 5541500.0 3666.39990234375
  vertex 466500.0 5541500.0 3647.199951171875
 endloop
endfacet
facet normal 0.005598901771008968 0.019895896315574646 -0.9997864365577698
 outer loop
  vertex 466500.0 5542500.0 3680.699951171875
  vertex 467500.0 5542500.0 3686.300048828125
  vertex 467500.0 5541500.0 3666.39990234375
 endloop
endfacet
facet normal 0.01539527252316475 0.01989384926855564 -0.9996835589408875
 outer loop
  vertex 467500.0 5542500.0 3686.300048828125
  vertex 468500.0 5541500.0 3681.800048828125
  vertex 467500.0 5541500.0 3666.39990234375
 endloop
endfacet
facet normal 0.01649411953985691 0.020992515608668327 -0.9996435642242432
 outer loop
  vertex 467500.0 5542500.0 3686.300048828125
  vertex 468500.0 5542500.0 3702.800048828125
  vertex 468500.0 5541500.0 3681.800048828125
 endloop
endfacet
facet normal -0.042352765798568726 0.020976532250642776 -0.9988824725151062
 outer loop
  vertex 468500.0 5542500.0 3702.800048828125
  vertex 469500.0 5541500.0 3639.39990234375
  vertex 468500.0 5541500.0 3681.800048828125
 endloop
endfacet
facet normal 0.03164106607437134 0.09472424536943436 -0.9950005412101746
 outer loop
  vertex 468500.0 5542500.0 3702.800048828125
  vertex 469500.0 5542500.0 3734.60009765625
  vertex 469500.0 5541500.0 3639.39990234375
 endloop
endfacet
facet normal 0.016490919515490532 0.028784196823835373 -0.999449610710144
 outer loop
  vertex 467500.0 5543500.0 3715.10009765625
  vertex 468500.0 5542500.0 3702.800048828125
  vertex 467500.0 5542500.0 3686.300048828125
 endloop
endfacet
facet normal 0.007498319260776043 0.01979561150074005 -0.9997759461402893
 outer loop
  vertex 467500.0 5543500.0 3715.10009765625
  vertex 468500.0 5543500.0 3722.60009765625
  vertex 468500.0 5542500.0 3702.800048828125
 endloop
endfacet
facet normal 0.0317777618765831 0.01978617161512375 -0.9992991089820862
 outer loop
  vertex 468500.0 5543500.0 3722.60009765625
  vertex 469500.0 5542500.0 3734.60009765625
  vertex 468500.0 5542500.0 3702.800048828125
 endloop
endfacet
facet normal 0.025689059868454933 0.013694144785404205 -0.9995761513710022
 outer loop
  vertex 468500.0 5543500.0 3722.60009765625
  vertex 469500.0 5543500.0 3748.300048828125
  vertex 469500.0 5542500.0 3734.60009765625
 endloop
endfacet
facet normal 0.01939443312585354 0.013696088455617428 -0.9997180700302124
 outer loop
  vertex 469500.0 5543500.0 3748.300048828125
  vertex 470500.0 5542500.0 3754.0
  vertex 469500.0 5542500.0 3734.60009765625
 endloop
endfacet
facet normal 0.005399823188781738 -0.00030004442669451237 -0.99998539686203
 outer loop
  vertex 469500.0 5543500.0 3748.300048828125
  vertex 470500.0 5543500.0 3753.699951171875
  vertex 470500.0 5542500.0 3754.0
 endloop
endfacet
facet normal 0.025685086846351624 0.022286906838417053 -0.9994216561317444
 outer loop
  vertex 468500.0 5544500.0 3744.89990234375
  vertex 469500.0 5543500.0 3748.300048828125
  vertex 468500.0 5543500.0 3722.60009765625
 endloop
endfacet
facet normal 0.012698622420430183 0.009298897348344326 -0.9998761415481567
 outer loop
  vertex 468500.0 5544500.0 3744.89990234375
  vertex 469500.0 5544500.0 3757.60009765625
  vertex 469500.0 5543500.0 3748.300048828125
 endloop
endfacet
facet normal 0.005399590358138084 0.009299511089920998 -0.9999421834945679
 outer loop
  vertex 469500.0 5544500.0 3757.60009765625
  vertex 470500.0 5543500.0 3753.699951171875
  vertex 469500.0 5543500.0 3748.300048828125
 endloop
endfacet
facet normal 0.008199075236916542 0.012098805047571659 -0.9998931884765625
 outer loop
  vertex 469500.0 5544500.0 3757.60009765625
  vertex 470500.0 5544500.0 3765.800048828125
  vertex 470500.0 5543500.0 3753.699951171875
 endloop
endfacet
facet normal 0.016696400940418243 0.012097525410354137 -0.999787449836731
 outer loop
  vertex 470500.0 5544500.0 3765.800048828125
  vertex 471500.0 5543500.0 3770.39990234375
  vertex 470500.0 5543500.0 3753.699951171875
 endloop
endfacet
facet normal 0.025186613202095032 0.0205891951918602 -0.9994707107543945
 outer loop
  vertex 470500.0 5544500.0 3765.800048828125
  vertex 471500.0 5544500.0 3791.0
  vertex 471500.0 5543500.0 3770.39990234375
 endloop
endfacet
facet normal 0.004100051708519459 0.0024001195561140776 -0.9999887347221375
 outer loop
  vertex 467500.0 5545500.0 3743.199951171875
  vertex 468500.0 5545500.0 3747.300048828125
  vertex 468500.0 5544500.0 3744.89990234375
 endloop
endfacet
facet normal 0.012699134647846222 0.0023999460972845554 -0.9999164938926697
 outer loop
  vertex 468500.0 5545500.0 3747.300048828125
  vertex 469500.0 5544500.0 3757.60009765625
  vertex 468500.0 5544500.0 3744.89990234375
 endloop
endfacet
facet normal 0.01289878599345684 0.00259962840937078 -0.9999134540557861
 outer loop
  vertex 468500.0 5545500.0 3747.300048828125
  vertex 469500.0 5545500.0 3760.199951171875
  vertex 469500.0 5544500.0 3757.60009765625
 endloop
endfacet
facet normal 0.00819964800029993 0.0025997573975473642 -0.9999629855155945
 outer loop
  vertex 469500.0 5545500.0 3760.199951171875
  vertex 470500.0 5544500.0 3765.800048828125
  vertex 469500.0 5544500.0 3757.60009765625
 endloop
endfacet
facet normal 0.03775353357195854 0.03216032683849335 -0.9987694621086121
 outer loop
  vertex 469500.0 5545500.0 3760.199951171875
  vertex 470500.0 5545500.0 3798.0
  vertex 470500.0 5544500.0 3765.800048828125
 endloop
endfacet
facet normal 0.02517891302704811 0.03217306733131409 -0.9991651177406311
 outer loop
  vertex 470500.0 5545500.0 3798.0
  vertex 471500.0 5544500.0 3791.0
  vertex 470500.0 5544500.0 3765.800048828125
 endloop
endfacet
facet normal -0.04860016703605652 -0.041614510118961334 -0.9979510307312012
 outer loop
  vertex 470500.0 5545500.0 3798.0
  vertex 471500.0 5545500.0 3749.300048828125
  vertex 471500.0 5544500.0 3791.0
 endloop
endfacet
facet normal -0.036244701594114304 -0.04163637012243271 -0.998475193977356
 outer loop
  vertex 471500.0 5545500.0 3749.300048828125
  vertex 472500.0 5544500.0 3754.699951171875
  vertex 471500.0 5544500.0 3791.0
 endloop
endfacet
facet normal -0.03594594448804855 -0.041337739676237106 -0.9984984397888184
 outer loop
  vertex 471500.0 5545500.0 3749.300048828125
  vertex 472500.0 5545500.0 3713.300048828125
  vertex 472500.0 5544500.0 3754.699951171875
 endloop
endfacet
facet normal -0.0037967711687088013 -0.041364170610904694 -0.9991369247436523
 outer loop
  vertex 472500.0 5545500.0 3713.300048828125
  vertex 473500.0 5544500.0 3750.89990234375
  vertex 472500.0 5544500.0 3754.699951171875
 endloop
endfacet
facet normal 0.03897033631801605 0.0013990835286676884 -0.9992393851280212
 outer loop
  vertex 472500.0 5545500.0 3713.300048828125
  vertex 473500.0 5545500.0 3752.300048828125
  vertex 473500.0 5544500.0 3750.89990234375
 endloop
endfacet
facet normal 0.01609799638390541 0.0013999637449160218 -0.9998694658279419
 outer loop
  vertex 473500.0 5545500.0 3752.300048828125
  vertex 474500.0 5544500.0 3767.0
  vertex 473500.0 5544500.0 3750.89990234375
 endloop
endfacet
facet normal -0.006698267534375191 -0.021394524723291397 -0.999748706817627
 outer loop
  vertex 473500.0 5545500.0 3752.300048828125
  vertex 474500.0 5545500.0 3745.60009765625
  vertex 474500.0 5544500.0 3767.0
 endloop
endfacet
facet normal 0.01389537937939167 -0.0213929396122694 -0.9996746182441711
 outer loop
  vertex 474500.0 5545500.0 3745.60009765625
  vertex 475500.0 5544500.0 3780.89990234375
  vertex 474500.0 5544500.0 3767.0
 endloop
endfacet
facet normal 0.05659611523151398 0.021360956132411957 -0.9981685876846313
 outer loop
  vertex 474500.0 5545500.0 3745.60009765625
  vertex 475500.0 5545500.0 3802.300048828125
  vertex 475500.0 5544500.0 3780.89990234375
 endloop
endfacet
facet normal 0.004031071439385414 -0.18267221748828888 -0.9831656217575073
 outer loop
  vertex 467500.0 5546500.0 3557.39990234375
  vertex 468500.0 5545500.0 3747.300048828125
  vertex 467500.0 5545500.0 3743.199951171875
 endloop
endfacet
facet normal 0.03635215014219284 -0.15123669803142548 -0.9878289103507996
 outer loop
  vertex 467500.0 5546500.0 3557.39990234375
  vertex 468500.0 5546500.0 3594.199951171875
  vertex 468500.0 5545500.0 3747.300048828125
 endloop
endfacet
facet normal 0.01275029219686985 -0.15132442116737366 -0.9884018898010254
 outer loop
  vertex 468500.0 5546500.0 3594.199951171875
  vertex 469500.0 5545500.0 3760.199951171875
  vertex 468500.0 5545500.0 3747.300048828125
 endloop
endfacet
facet normal 0.0057269311510026455 -0.15818041563034058 -0.9873936176300049
 outer loop
  vertex 468500.0 5546500.0 3594.199951171875
  vertex 469500.0 5546500.0 3600.0
  vertex 469500.0 5545500.0 3760.199951171875
 endloop
endfacet
facet normal 0.03729816898703575 -0.15807294845581055 -0.9867227673530579
 outer loop
  vertex 469500.0 5546500.0 3600.0
  vertex 470500.0 5545500.0 3798.0
  vertex 469500.0 5545500.0 3760.199951171875
 endloop
endfacet
facet normal 0.011599881574511528 -0.18304140865802765 -0.9830367565155029
 outer loop
  vertex 469500.0 5546500.0 3600.0
  vertex 470500.0 5546500.0 3611.800048828125
  vertex 470500.0 5545500.0 3798.0
 endloop
endfacet
facet normal -0.047822289168834686 -0.18284428119659424 -0.9819781184196472
 outer loop
  vertex 470500.0 5546500.0 3611.800048828125
  vertex 471500.0 5545500.0 3749.300048828125
  vertex 470500.0 5545500.0 3798.0
 endloop
endfacet
facet normal 0.004857327789068222 -0.1314479559659958 -0.9913111329078674
 outer loop
  vertex 470500.0 5546500.0 3611.800048828125
  vertex 471500.0 5546500.0 3616.699951171875
  vertex 471500.0 5545500.0 3749.300048828125
 endloop
endfacet
facet normal -0.03566491976380348 -0.13136588037014008 -0.9906921982765198
 outer loop
  vertex 471500.0 5546500.0 3616.699951171875
  vertex 472500.0 5545500.0 3713.300048828125
  vertex 471500.0 5545500.0 3749.300048828125
 endloop
endfacet
facet normal 0.015846634283661842 -0.080428346991539 -0.9966344237327576
 outer loop
  vertex 471500.0 5546500.0 3616.699951171875
  vertex 472500.0 5546500.0 3632.60009765625
  vertex 472500.0 5545500.0 3713.300048828125
 endloop
endfacet
facet normal 0.038844283670186996 -0.0803777426481247 -0.9960073232650757
 outer loop
  vertex 472500.0 5546500.0 3632.60009765625
  vertex 473500.0 5545500.0 3752.300048828125
  vertex 472500.0 5545500.0 3713.300048828125
 endloop
endfacet
facet normal 0.031562186777591705 -0.08761756122112274 -0.9956541061401367
 outer loop
  vertex 472500.0 5546500.0 3632.60009765625
  vertex 473500.0 5546500.0 3664.300048828125
  vertex 473500.0 5545500.0 3752.300048828125
 endloop
endfacet
facet normal -0.006674012169241905 -0.08765927702188492 -0.9961282014846802
 outer loop
  vertex 473500.0 5546500.0 3664.300048828125
  vertex 474500.0 5545500.0 3745.60009765625
  vertex 473500.0 5545500.0 3752.300048828125
 endloop
endfacet
facet normal 0.08854814618825912 0.00756978802382946 -0.9960431456565857
 outer loop
  vertex 473500.0 5546500.0 3664.300048828125
  vertex 474500.0 5546500.0 3753.199951171875
  vertex 474500.0 5545500.0 3745.60009765625
 endloop
endfacet
facet normal 0.05660739913582802 0.007587448228150606 -0.9983676671981812
 outer loop
  vertex 474500.0 5546500.0 3753.199951171875
  vertex 475500.0 5545500.0 3802.300048828125
  vertex 474500.0 5545500.0 3745.60009765625
 endloop
endfacet
facet normal 0.06485495716333389 0.015864424407482147 -0.9977686405181885
 outer loop
  vertex 474500.0 5546500.0 3753.199951171875
  vertex 475500.0 5546500.0 3818.199951171875
  vertex 475500.0 5545500.0 3802.300048828125
 endloop
endfacet
facet normal 0.04026228189468384 0.01588500291109085 -0.9990628957748413
 outer loop
  vertex 475500.0 5546500.0 3818.199951171875
  vertex 476500.0 5545500.0 3842.60009765625
  vertex 475500.0 5545500.0 3802.300048828125
 endloop
endfacet
facet normal -0.03461875021457672 -0.05896179378032684 -0.9976598024368286
 outer loop
  vertex 475500.0 5546500.0 3818.199951171875
  vertex 476500.0 5546500.0 3783.5
  vertex 476500.0 5545500.0 3842.60009765625
 endloop
endfacet
facet normal -0.028139926493167877 -0.05897378921508789 -0.9978628158569336
 outer loop
  vertex 476500.0 5546500.0 3783.5
  vertex 477500.0 5545500.0 3814.39990234375
  vertex 476500.0 5545500.0 3842.60009765625
 endloop
endfacet
facet normal 0.14145541191101074 0.11105932295322418 -0.9836952090263367
 outer loop
  vertex 476500.0 5546500.0 3783.5
  vertex 477500.0 5546500.0 3927.300048828125
  vertex 477500.0 5545500.0 3814.39990234375
 endloop
endfacet
facet normal 0.07776819914579391 0.1118476539850235 -0.9906776547431946
 outer loop
  vertex 477500.0 5546500.0 3927.300048828125
  vertex 478500.0 5545500.0 3892.89990234375
  vertex 477500.0 5545500.0 3814.39990234375
 endloop
endfacet
facet normal 0.023255066946148872 0.05758880451321602 -0.9980694651603699
 outer loop
  vertex 477500.0 5546500.0 3927.300048828125
  vertex 478500.0 5546500.0 3950.60009765625
  vertex 478500.0 5545500.0 3892.89990234375
 endloop
endfacet
facet normal 0.011287080124020576 0.046546611934900284 -0.9988523125648499
 outer loop
  vertex 466500.0 5547500.0 3592.699951171875
  vertex 467500.0 5547500.0 3604.0
  vertex 467500.0 5546500.0 3557.39990234375
 endloop
endfacet
facet normal 0.03673534095287323 0.04651816189289093 -0.9982417225837708
 outer loop
  vertex 467500.0 5547500.0 3604.0
  vertex 468500.0 5546500.0 3594.199951171875
  vertex 467500.0 5546500.0 3557.39990234375
 endloop
endfacet
facet normal -0.021493563428521156 -0.011696448549628258 -0.9997006058692932
 outer loop
  vertex 467500.0 5547500.0 3604.0
  vertex 468500.0 5547500.0 3582.5
  vertex 468500.0 5546500.0 3594.199951171875
 endloop
endfacet
facet normal 0.005799554288387299 -0.011698953807353973 -0.9999147653579712
 outer loop
  vertex 468500.0 5547500.0 3582.5
  vertex 469500.0 5546500.0 3600.0
  vertex 468500.0 5546500.0 3594.199951171875
 endloop
endfacet
facet normal 0.008399258367717266 -0.009099399670958519 -0.9999232888221741
 outer loop
  vertex 468500.0 5547500.0 3582.5
  vertex 469500.0 5547500.0 3590.89990234375
  vertex 469500.0 5546500.0 3600.0
 endloop
endfacet
facet normal 0.011798739433288574 -0.009099087677896023 -0.9998890161514282
 outer loop
  vertex 469500.0 5547500.0 3590.89990234375
  vertex 470500.0 5546500.0 3611.800048828125
  vertex 469500.0 5546500.0 3600.0
 endloop
endfacet
facet normal 0.00779914204031229 -0.013098575174808502 -0.999883770942688
 outer loop
  vertex 469500.0 5547500.0 3590.89990234375
  vertex 470500.0 5547500.0 3598.699951171875
  vertex 470500.0 5546500.0 3611.800048828125
 endloop
endfacet
facet normal 0.004899423103779554 -0.013098816387355328 -0.9999021887779236
 outer loop
  vertex 470500.0 5547500.0 3598.699951171875
  vertex 471500.0 5546500.0 3616.699951171875
  vertex 470500.0 5546500.0 3611.800048828125
 endloop
endfacet
facet normal 0.00649943295866251 -0.011498996987938881 -0.9999127388000488
 outer loop
  vertex 470500.0 5547500.0 3598.699951171875
  vertex 471500.0 5547500.0 3605.199951171875
  vertex 471500.0 5546500.0 3616.699951171875
 endloop
endfacet
facet normal 0.015897085890173912 -0.01149778626859188 -0.9998075366020203
 outer loop
  vertex 471500.0 5547500.0 3605.199951171875
  vertex 472500.0 5546500.0 3632.60009765625
  vertex 471500.0 5546500.0 3616.699951171875
 endloop
endfacet
facet normal 0.004298862535506487 -0.023093724623322487 -0.9997240900993347
 outer loop
  vertex 471500.0 5547500.0 3605.199951171875
  vertex 472500.0 5547500.0 3609.5
  vertex 472500.0 5546500.0 3632.60009765625
 endloop
endfacet
facet normal 0.03167559206485748 -0.023082349449396133 -0.9992316365242004
 outer loop
  vertex 472500.0 5547500.0 3609.5
  vertex 473500.0 5546500.0 3664.300048828125
  vertex 472500.0 5546500.0 3632.60009765625
 endloop
endfacet
facet normal 0.008790413849055767 -0.04594963416457176 -0.9989050626754761
 outer loop
  vertex 472500.0 5547500.0 3609.5
  vertex 473500.0 5547500.0 3618.300048828125
  vertex 473500.0 5546500.0 3664.300048828125
 endloop
endfacet
facet normal 0.0884578675031662 -0.045771274715662 -0.9950277209281921
 outer loop
  vertex 473500.0 5547500.0 3618.300048828125
  vertex 474500.0 5546500.0 3753.199951171875
  vertex 473500.0 5546500.0 3664.300048828125
 endloop
endfacet
facet normal 0.018870297819375992 -0.11510872840881348 -0.9931735992431641
 outer loop
  vertex 473500.0 5547500.0 3618.300048828125
  vertex 474500.0 5547500.0 3637.300048828125
  vertex 474500.0 5546500.0 3753.199951171875
 endloop
endfacet
facet normal 0.06443361192941666 -0.11488999426364899 -0.9912863373756409
 outer loop
  vertex 474500.0 5547500.0 3637.300048828125
  vertex 475500.0 5546500.0 3818.199951171875
  vertex 474500.0 5546500.0 3753.199951171875
 endloop
endfacet
facet normal 0.08897493779659271 -0.0904628112912178 -0.9919173121452332
 outer loop
  vertex 474500.0 5547500.0 3637.300048828125
  vertex 475500.0 5547500.0 3727.0
  vertex 475500.0 5546500.0 3818.199951171875
 endloop
endfacet
facet normal -0.03453592583537102 -0.09076884388923645 -0.9952729344367981
 outer loop
  vertex 475500.0 5547500.0 3727.0
  vertex 476500.0 5546500.0 3783.5
  vertex 475500.0 5546500.0 3818.199951171875
 endloop
endfacet
facet normal 0.12461873888969421 0.06869369000196457 -0.9898239374160767
 outer loop
  vertex 475500.0 5547500.0 3727.0
  vertex 476500.0 5547500.0 3852.89990234375
  vertex 476500.0 5546500.0 3783.5
 endloop
endfacet
facet normal 0.14200130105018616 0.06853180378675461 -0.987491250038147
 outer loop
  vertex 476500.0 5547500.0 3852.89990234375
  vertex 477500.0 5546500.0 3927.300048828125
  vertex 476500.0 5546500.0 3783.5
 endloop
endfacet
facet normal 0.22373345494270325 0.1521078497171402 -0.9627079367637634
 outer loop
  vertex 476500.0 5547500.0 3852.89990234375
  vertex 477500.0 5547500.0 4085.300048828125
  vertex 477500.0 5546500.0 3927.300048828125
 endloop
endfacet
facet normal 0.02300845831632614 0.15602269768714905 -0.9874854683876038
 outer loop
  vertex 477500.0 5547500.0 4085.300048828125
  vertex 478500.0 5546500.0 3950.60009765625
  vertex 477500.0 5546500.0 3927.300048828125
 endloop
endfacet
facet normal 0.007622828707098961 0.14097362756729126 -0.9899840354919434
 outer loop
  vertex 477500.0 5547500.0 4085.300048828125
  vertex 478500.0 5547500.0 4093.0
  vertex 478500.0 5546500.0 3950.60009765625
 endloop
endfacet
facet normal -0.029687292873859406 0.14091558754444122 -0.9895763993263245
 outer loop
  vertex 478500.0 5547500.0 4093.0
  vertex 479500.0 5546500.0 3920.60009765625
  vertex 478500.0 5546500.0 3950.60009765625
 endloop
endfacet
facet normal -0.04459478706121445 0.1262526959180832 -0.9909952878952026
 outer loop
  vertex 478500.0 5547500.0 4093.0
  vertex 479500.0 5547500.0 4048.0
  vertex 479500.0 5546500.0 3920.60009765625
 endloop
endfacet
facet normal -0.0891144871711731 0.02558925375342369 -0.9956926107406616
 outer loop
  vertex 463500.0 5548500.0 3732.300048828125
  vertex 464500.0 5548500.0 3642.800048828125
  vertex 464500.0 5547500.0 3617.10009765625
 endloop
endfacet
facet normal -0.08931223303079605 0.02558879740536213 -0.9956749081611633
 outer loop
  vertex 464500.0 5548500.0 3642.800048828125
  vertex 465500.0 5547500.0 3527.39990234375
  vertex 464500.0 5547500.0 3617.10009765625
 endloop
endfacet
facet normal -0.038757674396038055 0.0762198194861412 -0.9963374733924866
 outer loop
  vertex 464500.0 5548500.0 3642.800048828125
  vertex 465500.0 5548500.0 3603.89990234375
  vertex 465500.0 5547500.0 3527.39990234375
 endloop
endfacet
facet normal 0.06497223675251007 0.07611595839262009 -0.9949799180030823
 outer loop
  vertex 465500.0 5548500.0 3603.89990234375
  vertex 466500.0 5547500.0 3592.699951171875
  vertex 465500.0 5547500.0 3527.39990234375
 endloop
endfacet
facet normal -0.02728610299527645 -0.01609177328646183 -0.9994981288909912
 outer loop
  vertex 465500.0 5548500.0 3603.89990234375
  vertex 466500.0 5548500.0 3576.60009765625
  vertex 466500.0 5547500.0 3592.699951171875
 endloop
endfacet
facet normal 0.011297862976789474 -0.01609673909842968 -0.9998065829277039
 outer loop
  vertex 466500.0 5548500.0 3576.60009765625
  vertex 467500.0 5547500.0 3604.0
  vertex 466500.0 5547500.0 3592.699951171875
 endloop
endfacet
facet normal -0.0025989196728914976 -0.029986409470438957 -0.9995469450950623
 outer loop
  vertex 466500.0 5548500.0 3576.60009765625
  vertex 467500.0 5548500.0 3574.0
  vertex 467500.0 5547500.0 3604.0
 endloop
endfacet
facet normal -0.02148537151515484 -0.029979588463902473 -0.9993196129798889
 outer loop
  vertex 467500.0 5548500.0 3574.0
  vertex 468500.0 5547500.0 3582.5
  vertex 467500.0 5547500.0 3604.0
 endloop
endfacet
facet normal 0.02229238487780094 0.013795305974781513 -0.9996563196182251
 outer loop
  vertex 467500.0 5548500.0 3574.0
  vertex 468500.0 5548500.0 3596.300048828125
  vertex 468500.0 5547500.0 3582.5
 endloop
endfacet
facet normal 0.008398806676268578 0.013798248022794724 -0.9998695254325867
 outer loop
  vertex 468500.0 5548500.0 3596.300048828125
  vertex 469500.0 5547500.0 3590.89990234375
  vertex 468500.0 5547500.0 3582.5
 endloop
endfacet
facet normal -0.0006999432807788253 0.004700141958892345 -0.9999886751174927
 outer loop
  vertex 468500.0 5548500.0 3596.300048828125
  vertex 469500.0 5548500.0 3595.60009765625
  vertex 469500.0 5547500.0 3590.89990234375
 endloop
endfacet
facet normal 0.007799725513905287 0.004700000397861004 -0.9999585747718811
 outer loop
  vertex 469500.0 5548500.0 3595.60009765625
  vertex 470500.0 5547500.0 3598.699951171875
  vertex 469500.0 5547500.0 3590.89990234375
 endloop
endfacet
facet normal 0.009499376639723778 0.006399726495146751 -0.9999343752861023
 outer loop
  vertex 469500.0 5548500.0 3595.60009765625
  vertex 470500.0 5548500.0 3605.10009765625
  vertex 470500.0 5547500.0 3598.699951171875
 endloop
endfacet
facet normal 0.006499729584902525 0.006399880163371563 -0.9999583959579468
 outer loop
  vertex 470500.0 5548500.0 3605.10009765625
  vertex 471500.0 5547500.0 3605.199951171875
  vertex 470500.0 5547500.0 3598.699951171875
 endloop
endfacet
facet normal -0.004599998239427805 -0.004699849523603916 -0.9999783635139465
 outer loop
  vertex 470500.0 5548500.0 3605.10009765625
  vertex 471500.0 5548500.0 3600.5
  vertex 471500.0 5547500.0 3605.199951171875
 endloop
endfacet
facet normal 0.0042999619618058205 -0.0046998560428619385 -0.9999797344207764
 outer loop
  vertex 471500.0 5548500.0 3600.5
  vertex 472500.0 5547500.0 3609.5
  vertex 471500.0 5547500.0 3605.199951171875
 endloop
endfacet
facet normal -0.0041995481587946415 -0.01319868490099907 -0.9999040961265564
 outer loop
  vertex 471500.0 5548500.0 3600.5
  vertex 472500.0 5548500.0 3596.300048828125
  vertex 472500.0 5547500.0 3609.5
 endloop
endfacet
facet normal 0.008798941969871521 -0.013198290951550007 -0.9998741745948792
 outer loop
  vertex 472500.0 5548500.0 3596.300048828125
  vertex 473500.0 5547500.0 3618.300048828125
  vertex 472500.0 5547500.0 3609.5
 endloop
endfacet
facet normal 0.015497811138629913 -0.00649908185005188 -0.9998587965965271
 outer loop
  vertex 472500.0 5548500.0 3596.300048828125
  vertex 473500.0 5548500.0 3611.800048828125
  vertex 473500.0 5547500.0 3618.300048828125
 endloop
endfacet
facet normal 0.018996169790625572 -0.006498689763247967 -0.9997984170913696
 outer loop
  vertex 473500.0 5548500.0 3611.800048828125
  vertex 474500.0 5547500.0 3637.300048828125
  vertex 473500.0 5547500.0 3618.300048828125
 endloop
endfacet
facet normal -0.00779549079015851 -0.03328058868646622 -0.9994156360626221
 outer loop
  vertex 473500.0 5548500.0 3611.800048828125
  vertex 474500.0 5548500.0 3604.0
  vertex 474500.0 5547500.0 3637.300048828125
 endloop
endfacet
facet normal 0.08929215371608734 -0.03314865380525589 -0.9954537153244019
 outer loop
  vertex 474500.0 5548500.0 3604.0
  vertex 475500.0 5547500.0 3727.0
  vertex 474500.0 5547500.0 3637.300048828125
 endloop
endfacet
facet normal 0.07152248173952103 -0.05100202560424805 -0.9961341619491577
 outer loop
  vertex 474500.0 5548500.0 3604.0
  vertex 475500.0 5548500.0 3675.800048828125
  vertex 475500.0 5547500.0 3727.0
 endloop
endfacet
facet normal 0.1247529461979866 -0.05073351413011551 -0.9908899068832397
 outer loop
  vertex 475500.0 5548500.0 3675.800048828125
  vertex 476500.0 5547500.0 3852.89990234375
  vertex 475500.0 5547500.0 3727.0
 endloop
endfacet
facet normal -0.028488939628005028 -0.20186935365200043 -0.978998064994812
 outer loop
  vertex 475500.0 5548500.0 3675.800048828125
  vertex 476500.0 5548500.0 3646.699951171875
  vertex 476500.0 5547500.0 3852.89990234375
 endloop
endfacet
facet normal 0.22193534672260284 -0.196914941072464 -0.9549707770347595
 outer loop
  vertex 476500.0 5548500.0 3646.699951171875
  vertex 477500.0 5547500.0 4085.300048828125
  vertex 476500.0 5547500.0 3852.89990234375
 endloop
endfacet
facet normal 0.32738399505615234 -0.08535122871398926 -0.9410285353660583
 outer loop
  vertex 476500.0 5548500.0 3646.699951171875
  vertex 477500.0 5548500.0 3994.60009765625
  vertex 477500.0 5547500.0 4085.300048828125
 endloop
endfacet
facet normal 0.007668250240385532 -0.09032651782035828 -0.9958826899528503
 outer loop
  vertex 477500.0 5548500.0 3994.60009765625
  vertex 478500.0 5547500.0 4093.0
  vertex 477500.0 5547500.0 4085.300048828125
 endloop
endfacet
facet normal -0.07803241163492203 -0.17461583018302917 -0.9815397262573242
 outer loop
  vertex 477500.0 5548500.0 3994.60009765625
  vertex 478500.0 5548500.0 3915.10009765625
  vertex 478500.0 5547500.0 4093.0
 endloop
endfacet
facet normal -0.044260960072278976 -0.17497824132442474 -0.9835768938064575
 outer loop
  vertex 478500.0 5548500.0 3915.10009765625
  vertex 479500.0 5547500.0 4048.0
  vertex 478500.0 5547500.0 4093.0
 endloop
endfacet
facet normal 0.035310763865709305 -0.0968807116150856 -0.9946694374084473
 outer loop
  vertex 478500.0 5548500.0 3915.10009765625
  vertex 479500.0 5548500.0 3950.60009765625
  vertex 479500.0 5547500.0 4048.0
 endloop
endfacet
facet normal -0.09081553667783737 0.012845528312027454 -0.9957848787307739
 outer loop
  vertex 462500.0 5549500.0 3836.39990234375
  vertex 463500.0 5548500.0 3732.300048828125
  vertex 462500.0 5548500.0 3823.5
 endloop
endfacet
facet normal -0.030203841626644135 0.07356631010770798 -0.9968328475952148
 outer loop
  vertex 462500.0 5549500.0 3836.39990234375
  vertex 463500.0 5549500.0 3806.10009765625
  vertex 463500.0 5548500.0 3732.300048828125
 endloop
endfacet
facet normal -0.08890382200479507 0.07330845296382904 -0.9933388233184814
 outer loop
  vertex 463500.0 5549500.0 3806.10009765625
  vertex 464500.0 5548500.0 3642.800048828125
  vertex 463500.0 5548500.0 3732.300048828125
 endloop
endfacet
facet normal -0.07082192599773407 0.09138306975364685 -0.9932941794395447
 outer loop
  vertex 463500.0 5549500.0 3806.10009765625
  vertex 464500.0 5549500.0 3734.800048828125
  vertex 464500.0 5548500.0 3642.800048828125
 endloop
endfacet
facet normal -0.03870753198862076 0.09154445677995682 -0.995048463344574
 outer loop
  vertex 464500.0 5549500.0 3734.800048828125
  vertex 465500.0 5548500.0 3603.89990234375
  vertex 464500.0 5548500.0 3642.800048828125
 endloop
endfacet
facet normal -0.05027391389012337 0.08004020154476166 -0.9955230951309204
 outer loop
  vertex 464500.0 5549500.0 3734.800048828125
  vertex 465500.0 5549500.0 3684.300048828125
  vertex 465500.0 5548500.0 3603.89990234375
 endloop
endfacet
facet normal -0.027201924473047256 0.08011188358068466 -0.9964146614074707
 outer loop
  vertex 465500.0 5549500.0 3684.300048828125
  vertex 466500.0 5548500.0 3576.60009765625
  vertex 465500.0 5548500.0 3603.89990234375
 endloop
endfacet
facet normal -0.04586437717080116 0.06151803955435753 -0.9970516562461853
 outer loop
  vertex 465500.0 5549500.0 3684.300048828125
  vertex 466500.0 5549500.0 3638.300048828125
  vertex 466500.0 5548500.0 3576.60009765625
 endloop
endfacet
facet normal -0.002595149911940098 0.06158263981342316 -0.998098611831665
 outer loop
  vertex 466500.0 5549500.0 3638.300048828125
  vertex 467500.0 5548500.0 3574.0
  vertex 466500.0 5548500.0 3576.60009765625
 endloop
endfacet
facet normal 0.005486567970365286 0.06962958723306656 -0.9975578784942627
 outer loop
  vertex 466500.0 5549500.0 3638.300048828125
  vertex 467500.0 5549500.0 3643.800048828125
  vertex 467500.0 5548500.0 3574.0
 endloop
endfacet
facet normal 0.022240418940782547 0.06961341202259064 -0.997326135635376
 outer loop
  vertex 467500.0 5549500.0 3643.800048828125
  vertex 468500.0 5548500.0 3596.300048828125
  vertex 467500.0 5548500.0 3574.0
 endloop
endfacet
facet normal -0.05670619755983353 -0.00928468070924282 -0.9983477592468262
 outer loop
  vertex 467500.0 5549500.0 3643.800048828125
  vertex 468500.0 5549500.0 3587.0
  vertex 468500.0 5548500.0 3596.300048828125
 endloop
endfacet
facet normal -0.0006999207544140518 -0.009299644269049168 -0.999956488609314
 outer loop
  vertex 468500.0 5549500.0 3587.0
  vertex 469500.0 5548500.0 3595.60009765625
  vertex 468500.0 5548500.0 3596.300048828125
 endloop
endfacet
facet normal 0.005199850536882877 -0.0034000808373093605 -0.9999806880950928
 outer loop
  vertex 468500.0 5549500.0 3587.0
  vertex 469500.0 5549500.0 3592.199951171875
  vertex 469500.0 5548500.0 3595.60009765625
 endloop
endfacet
facet normal 0.00949951633810997 -0.0033999732695519924 -0.999949038028717
 outer loop
  vertex 469500.0 5549500.0 3592.199951171875
  vertex 470500.0 5548500.0 3605.10009765625
  vertex 469500.0 5548500.0 3595.60009765625
 endloop
endfacet
facet normal 0.007599771488457918 -0.005299821496009827 -0.9999570846557617
 outer loop
  vertex 469500.0 5549500.0 3592.199951171875
  vertex 470500.0 5549500.0 3599.800048828125
  vertex 470500.0 5548500.0 3605.10009765625
 endloop
endfacet
facet normal -0.004599984269589186 -0.005299918353557587 -0.9999753832817078
 outer loop
  vertex 470500.0 5549500.0 3599.800048828125
  vertex 471500.0 5548500.0 3600.5
  vertex 470500.0 5548500.0 3605.10009765625
 endloop
endfacet
facet normal -0.010998581536114216 -0.01169844251126051 -0.9998710751533508
 outer loop
  vertex 470500.0 5549500.0 3599.800048828125
  vertex 471500.0 5549500.0 3588.800048828125
  vertex 471500.0 5548500.0 3600.5
 endloop
endfacet
facet normal -0.0041996268555521965 -0.01169904787093401 -0.9999227523803711
 outer loop
  vertex 471500.0 5549500.0 3588.800048828125
  vertex 472500.0 5548500.0 3596.300048828125
  vertex 471500.0 5548500.0 3600.5
 endloop
endfacet
facet normal 0.019295113161206245 0.01179703138768673 -0.9997442364692688
 outer loop
  vertex 471500.0 5549500.0 3588.800048828125
  vertex 472500.0 5549500.0 3608.10009765625
  vertex 472500.0 5548500.0 3596.300048828125
 endloop
endfacet
facet normal 0.015497059561312199 0.011797809973359108 -0.9998102784156799
 outer loop
  vertex 472500.0 5549500.0 3608.10009765625
  vertex 473500.0 5548500.0 3611.800048828125
  vertex 472500.0 5548500.0 3596.300048828125
 endloop
endfacet
facet normal 0.004599803127348423 0.0008998924167826772 -0.9999889731407166
 outer loop
  vertex 472500.0 5549500.0 3608.10009765625
  vertex 473500.0 5549500.0 3612.699951171875
  vertex 473500.0 5548500.0 3611.800048828125
 endloop
endfacet
facet normal -0.007799808401614428 0.0008998746052384377 -0.9999691843986511
 outer loop
  vertex 473500.0 5549500.0 3612.699951171875
  vertex 474500.0 5548500.0 3604.0
  vertex 473500.0 5548500.0 3611.800048828125
 endloop
endfacet
facet normal 0.024179792031645775 0.03287249803543091 -0.9991670250892639
 outer loop
  vertex 473500.0 5549500.0 3612.699951171875
  vertex 474500.0 5549500.0 3636.89990234375
  vertex 474500.0 5548500.0 3604.0
 endloop
endfacet
facet normal 0.07157715409994125 0.03279776871204376 -0.9968956708908081
 outer loop
  vertex 474500.0 5549500.0 3636.89990234375
  vertex 475500.0 5548500.0 3675.800048828125
  vertex 474500.0 5548500.0 3604.0
 endloop
endfacet
facet normal -0.035876333713531494 -0.0746428519487381 -0.9965648055076599
 outer loop
  vertex 474500.0 5549500.0 3636.89990234375
  vertex 475500.0 5549500.0 3600.89990234375
  vertex 475500.0 5548500.0 3675.800048828125
 endloop
endfacet
facet normal -0.029006605967879295 -0.07465950399637222 -0.9967871308326721
 outer loop
  vertex 475500.0 5549500.0 3600.89990234375
  vertex 476500.0 5548500.0 3646.699951171875
  vertex 475500.0 5548500.0 3675.800048828125
 endloop
endfacet
facet normal 0.022288355976343155 -0.023487675935029984 -0.9994756579399109
 outer loop
  vertex 475500.0 5549500.0 3600.89990234375
  vertex 476500.0 5549500.0 3623.199951171875
  vertex 476500.0 5548500.0 3646.699951171875
 endloop
endfacet
facet normal 0.3285021185874939 -0.022189699113368988 -0.9442424774169922
 outer loop
  vertex 476500.0 5549500.0 3623.199951171875
  vertex 477500.0 5548500.0 3994.60009765625
  vertex 476500.0 5548500.0 3646.699951171875
 endloop
endfacet
facet normal 0.056226830929517746 -0.2977164387702942 -0.952997088432312
 outer loop
  vertex 476500.0 5549500.0 3623.199951171875
  vertex 477500.0 5549500.0 3682.199951171875
  vertex 477500.0 5548500.0 3994.60009765625
 endloop
endfacet
facet normal -0.07566579431295395 -0.29733335971832275 -0.9517707824707031
 outer loop
  vertex 477500.0 5549500.0 3682.199951171875
  vertex 478500.0 5548500.0 3915.10009765625
  vertex 477500.0 5548500.0 3994.60009765625
 endloop
endfacet
facet normal -0.05701582878828049 -0.28019219636917114 -0.9582492113113403
 outer loop
  vertex 477500.0 5549500.0 3682.199951171875
  vertex 478500.0 5549500.0 3622.699951171875
  vertex 478500.0 5548500.0 3915.10009765625
 endloop
endfacet
facet normal 0.034053511917591095 -0.28048598766326904 -0.9592539072036743
 outer loop
  vertex 478500.0 5549500.0 3622.699951171875
  vertex 479500.0 5548500.0 3950.60009765625
  vertex 478500.0 5548500.0 3915.10009765625
 endloop
endfacet
facet normal 0.007428533863276243 -0.30485379695892334 -0.9523701667785645
 outer loop
  vertex 478500.0 5549500.0 3622.699951171875
  vertex 479500.0 5549500.0 3630.5
  vertex 479500.0 5548500.0 3950.60009765625
 endloop
endfacet
facet normal 0.00904739648103714 -0.3048497140407562 -0.9523574709892273
 outer loop
  vertex 479500.0 5549500.0 3630.5
  vertex 480500.0 5548500.0 3960.10009765625
  vertex 479500.0 5548500.0 3950.60009765625
 endloop
endfacet
facet normal -0.004836334381252527 -0.3173903822898865 -0.9482826590538025
 outer loop
  vertex 479500.0 5549500.0 3630.5
  vertex 480500.0 5549500.0 3625.39990234375
  vertex 480500.0 5548500.0 3960.10009765625
 endloop
endfacet
facet normal -0.050313275307416916 0.06964144855737686 -0.9963024854660034
 outer loop
  vertex 464500.0 5550500.0 3804.699951171875
  vertex 465500.0 5549500.0 3684.300048828125
  vertex 464500.0 5549500.0 3734.800048828125
 endloop
endfacet
facet normal -0.037046417593955994 0.08285655826330185 -0.9958726763725281
 outer loop
  vertex 464500.0 5550500.0 3804.699951171875
  vertex 465500.0 5550500.0 3767.5
  vertex 465500.0 5549500.0 3684.300048828125
 endloop
endfacet
facet normal -0.04579351842403412 0.08282649517059326 -0.9955112934112549
 outer loop
  vertex 465500.0 5550500.0 3767.5
  vertex 466500.0 5549500.0 3638.300048828125
  vertex 465500.0 5549500.0 3684.300048828125
 endloop
endfacet
facet normal -0.057657212018966675 0.07100118696689606 -0.995808482170105
 outer loop
  vertex 465500.0 5550500.0 3767.5
  vertex 466500.0 5550500.0 3709.60009765625
  vertex 466500.0 5549500.0 3638.300048828125
 endloop
endfacet
facet normal 0.005485990084707737 0.07111842930316925 -0.9974527359008789
 outer loop
  vertex 466500.0 5550500.0 3709.60009765625
  vertex 467500.0 5549500.0 3643.800048828125
  vertex 466500.0 5549500.0 3638.300048828125
 endloop
endfacet
facet normal -0.05521265044808388 0.01048340555280447 -0.9984195828437805
 outer loop
  vertex 466500.0 5550500.0 3709.60009765625
  vertex 467500.0 5550500.0 3654.300048828125
  vertex 467500.0 5549500.0 3643.800048828125
 endloop
endfacet
facet normal -0.0567055270075798 0.010482527315616608 -0.9983358979225159
 outer loop
  vertex 467500.0 5550500.0 3654.300048828125
  vertex 468500.0 5549500.0 3587.0
  vertex 467500.0 5549500.0 3643.800048828125
 endloop
endfacet
facet normal -0.07062283158302307 -0.0034912393894046545 -0.9974969625473022
 outer loop
  vertex 467500.0 5550500.0 3654.300048828125
  vertex 468500.0 5550500.0 3583.5
  vertex 468500.0 5549500.0 3587.0
 endloop
endfacet
facet normal 0.005199848674237728 -0.003499931190162897 -0.9999803304672241
 outer loop
  vertex 468500.0 5550500.0 3583.5
  vertex 469500.0 5549500.0 3592.199951171875
  vertex 468500.0 5549500.0 3587.0
 endloop
endfacet
facet normal -0.008598493412137032 -0.017296820878982544 -0.999813437461853
 outer loop
  vertex 468500.0 5550500.0 3583.5
  vertex 469500.0 5550500.0 3574.89990234375
  vertex 469500.0 5549500.0 3592.199951171875
 endloop
endfacet
facet normal 0.0075987414456903934 -0.017296960577368736 -0.9998215436935425
 outer loop
  vertex 469500.0 5550500.0 3574.89990234375
  vertex 470500.0 5549500.0 3599.800048828125
  vertex 469500.0 5549500.0 3592.199951171875
 endloop
endfacet
facet normal 0.013897962868213654 -0.010998272337019444 -0.9998428821563721
 outer loop
  vertex 469500.0 5550500.0 3574.89990234375
  vertex 470500.0 5550500.0 3588.800048828125
  vertex 470500.0 5549500.0 3599.800048828125
 endloop
endfacet
facet normal -0.01099866908043623 -0.01099866908043623 -0.999879002571106
 outer loop
  vertex 470500.0 5550500.0 3588.800048828125
  vertex 471500.0 5549500.0 3588.800048828125
  vertex 470500.0 5549500.0 3599.800048828125
 endloop
endfacet
facet normal 0.01079878956079483 0.01079878956079483 -0.9998834133148193
 outer loop
  vertex 470500.0 5550500.0 3588.800048828125
  vertex 471500.0 5550500.0 3599.60009765625
  vertex 471500.0 5549500.0 3588.800048828125
 endloop
endfacet
facet normal 0.019295329228043556 0.010797408409416676 -0.9997555017471313
 outer loop
  vertex 471500.0 5550500.0 3599.60009765625
  vertex 472500.0 5549500.0 3608.10009765625
  vertex 471500.0 5549500.0 3588.800048828125
 endloop
endfacet
facet normal 0.008499693125486374 0.0 -0.9999638795852661
 outer loop
  vertex 471500.0 5550500.0 3599.60009765625
  vertex 472500.0 5550500.0 3608.10009765625
  vertex 472500.0 5549500.0 3608.10009765625
 endloop
endfacet
facet normal 0.004599804989993572 0.0 -0.9999894499778748
 outer loop
  vertex 472500.0 5550500.0 3608.10009765625
  vertex 473500.0 5549500.0 3612.699951171875
  vertex 472500.0 5549500.0 3608.10009765625
 endloop
endfacet
facet normal 0.0050997864454984665 0.0004999934462830424 -0.9999868869781494
 outer loop
  vertex 472500.0 5550500.0 3608.10009765625
  vertex 473500.0 5550500.0 3613.199951171875
  vertex 473500.0 5549500.0 3612.699951171875
 endloop
endfacet
facet normal 0.024192865937948227 0.0004998536314815283 -0.9997072219848633
 outer loop
  vertex 473500.0 5550500.0 3613.199951171875
  vertex 474500.0 5549500.0 3636.89990234375
  vertex 473500.0 5549500.0 3612.699951171875
 endloop
endfacet
facet normal 0.005899109411984682 -0.017796676605939865 -0.9998242259025574
 outer loop
  vertex 473500.0 5550500.0 3613.199951171875
  vertex 474500.0 5550500.0 3619.10009765625
  vertex 474500.0 5549500.0 3636.89990234375
 endloop
endfacet
facet normal -0.03597100451588631 -0.017785469070076942 -0.9991945624351501
 outer loop
  vertex 474500.0 5550500.0 3619.10009765625
  vertex 475500.0 5549500.0 3600.89990234375
  vertex 474500.0 5549500.0 3636.89990234375
 endloop
endfacet
facet normal 0.005598180461674929 0.023792937397956848 -0.999701201915741
 outer loop
  vertex 474500.0 5550500.0 3619.10009765625
  vertex 475500.0 5550500.0 3624.699951171875
  vertex 475500.0 5549500.0 3600.89990234375
 endloop
endfacet
facet normal 0.02228819765150547 0.023787401616573334 -0.9994686245918274
 outer loop
  vertex 475500.0 5550500.0 3624.699951171875
  vertex 476500.0 5549500.0 3623.199951171875
  vertex 475500.0 5549500.0 3600.89990234375
 endloop
endfacet
facet normal -0.0031999300699681044 -0.0016999400686472654 -0.9999934434890747
 outer loop
  vertex 475500.0 5550500.0 3624.699951171875
  vertex 476500.0 5550500.0 3621.5
  vertex 476500.0 5549500.0 3623.199951171875
 endloop
endfacet
facet normal 0.05889749154448509 -0.0016969976713880897 -0.9982625842094421
 outer loop
  vertex 476500.0 5550500.0 3621.5
  vertex 477500.0 5549500.0 3682.199951171875
  vertex 476500.0 5549500.0 3623.199951171875
 endloop
endfacet
facet normal 0.021678371354937553 -0.03896121680736542 -0.9990055561065674
 outer loop
  vertex 476500.0 5550500.0 3621.5
  vertex 477500.0 5550500.0 3643.199951171875
  vertex 477500.0 5549500.0 3682.199951171875
 endloop
endfacet
facet normal -0.059349995106458664 -0.0389016792178154 -0.9974789619445801
 outer loop
  vertex 477500.0 5550500.0 3643.199951171875
  vertex 478500.0 5549500.0 3622.699951171875
  vertex 477500.0 5549500.0 3682.199951171875
 endloop
endfacet
facet normal -0.011998702771961689 0.008499081246554852 -0.9998918771743774
 outer loop
  vertex 477500.0 5550500.0 3643.199951171875
  vertex 478500.0 5550500.0 3631.199951171875
  vertex 478500.0 5549500.0 3622.699951171875
 endloop
endfacet
facet normal 0.00779952947050333 0.00849943421781063 -0.9999334216117859
 outer loop
  vertex 478500.0 5550500.0 3631.199951171875
  vertex 479500.0 5549500.0 3630.5
  vertex 478500.0 5549500.0 3622.699951171875
 endloop
endfacet
facet normal -0.0018998975865542889 -0.0011999481357634068 -0.9999974966049194
 outer loop
  vertex 478500.0 5550500.0 3631.199951171875
  vertex 479500.0 5550500.0 3629.300048828125
  vertex 479500.0 5549500.0 3630.5
 endloop
endfacet
facet normal -0.005100027658045292 -0.0011999346315860748 -0.9999862313270569
 outer loop
  vertex 479500.0 5550500.0 3629.300048828125
  vertex 480500.0 5549500.0 3625.39990234375
  vertex 479500.0 5549500.0 3630.5
 endloop
endfacet
facet normal -0.06998223811388016 0.13442906737327576 -0.988448977470398
 outer loop
  vertex 467500.0 5551500.0 3790.300048828125
  vertex 468500.0 5550500.0 3583.5
  vertex 467500.0 5550500.0 3654.300048828125
 endloop
endfacet
facet normal -0.15801581740379333 0.04596475884318352 -0.9863662123680115
 outer loop
  vertex 467500.0 5551500.0 3790.300048828125
  vertex 468500.0 5551500.0 3630.10009765625
  vertex 468500.0 5550500.0 3583.5
 endloop
endfacet
facet normal -0.00859045796096325 0.04654786363244057 -0.9988791346549988
 outer loop
  vertex 468500.0 5551500.0 3630.10009765625
  vertex 469500.0 5550500.0 3574.89990234375
  vertex 468500.0 5550500.0 3583.5
 endloop
endfacet
facet normal -0.035071421414613724 0.020083675161004066 -0.9991829991340637
 outer loop
  vertex 468500.0 5551500.0 3630.10009765625
  vertex 469500.0 5551500.0 3595.0
  vertex 469500.0 5550500.0 3574.89990234375
 endloop
endfacet
facet normal 0.013895997777581215 0.020094098523259163 -0.9997014999389648
 outer loop
  vertex 469500.0 5551500.0 3595.0
  vertex 470500.0 5550500.0 3588.800048828125
  vertex 469500.0 5550500.0 3574.89990234375
 endloop
endfacet
facet normal 0.0030999486334621906 0.009299601428210735 -0.999951958656311
 outer loop
  vertex 469500.0 5551500.0 3595.0
  vertex 470500.0 5551500.0 3598.10009765625
  vertex 470500.0 5550500.0 3588.800048828125
 endloop
endfacet
facet normal 0.010798951610922813 0.00929910410195589 -0.9998984336853027
 outer loop
  vertex 470500.0 5551500.0 3598.10009765625
  vertex 471500.0 5550500.0 3599.60009765625
  vertex 470500.0 5550500.0 3588.800048828125
 endloop
endfacet
facet normal 0.005599718540906906 0.004099755082279444 -0.9999759197235107
 outer loop
  vertex 470500.0 5551500.0 3598.10009765625
  vertex 471500.0 5551500.0 3603.699951171875
  vertex 471500.0 5550500.0 3599.60009765625
 endloop
endfacet
facet normal 0.008499621413648129 0.004099671263247728 -0.9999554753303528
 outer loop
  vertex 471500.0 5551500.0 3603.699951171875
  vertex 472500.0 5550500.0 3608.10009765625
  vertex 471500.0 5550500.0 3599.60009765625
 endloop
endfacet
facet normal 0.015197309665381908 0.010797928087413311 -0.999826192855835
 outer loop
  vertex 471500.0 5551500.0 3603.699951171875
  vertex 472500.0 5551500.0 3618.89990234375
  vertex 472500.0 5550500.0 3608.10009765625
 endloop
endfacet
facet normal 0.0050994898192584515 0.010799034498631954 -0.9999287128448486
 outer loop
  vertex 472500.0 5551500.0 3618.89990234375
  vertex 473500.0 5550500.0 3613.199951171875
  vertex 472500.0 5550500.0 3608.10009765625
 endloop
endfacet
facet normal 0.02996743656694889 0.03566120192408562 -0.9989145398139954
 outer loop
  vertex 472500.0 5551500.0 3618.89990234375
  vertex 473500.0 5551500.0 3648.89990234375
  vertex 473500.0 5550500.0 3613.199951171875
 endloop
endfacet
facet normal 0.005896289832890034 0.03567660599946976 -0.9993460178375244
 outer loop
  vertex 473500.0 5551500.0 3648.89990234375
  vertex 474500.0 5550500.0 3619.10009765625
  vertex 473500.0 5550500.0 3613.199951171875
 endloop
endfacet
facet normal 0.011789032258093357 0.04156101495027542 -0.9990664124488831
 outer loop
  vertex 473500.0 5551500.0 3648.89990234375
  vertex 474500.0 5551500.0 3660.699951171875
  vertex 474500.0 5550500.0 3619.10009765625
 endloop
endfacet
facet normal 0.00559492502361536 0.0415632538497448 -0.9991202354431152
 outer loop
  vertex 474500.0 5551500.0 3660.699951171875
  vertex 475500.0 5550500.0 3624.699951171875
  vertex 474500.0 5550500.0 3619.10009765625
 endloop
endfacet
facet normal 0.004796003457158804 0.040765661746263504 -0.999157190322876
 outer loop
  vertex 474500.0 5551500.0 3660.699951171875
  vertex 475500.0 5551500.0 3665.5
  vertex 475500.0 5550500.0 3624.699951171875
 endloop
endfacet
facet normal -0.003197276499122381 0.040765922516584396 -0.9991635680198669
 outer loop
  vertex 475500.0 5551500.0 3665.5
  vertex 476500.0 5550500.0 3621.5
  vertex 475500.0 5550500.0 3624.699951171875
 endloop
endfacet
facet normal 0.018062351271510124 0.06197059154510498 -0.9979145526885986
 outer loop
  vertex 475500.0 5551500.0 3665.5
  vertex 476500.0 5551500.0 3683.60009765625
  vertex 476500.0 5550500.0 3621.5
 endloop
endfacet
facet normal 0.021653149276971817 0.061966169625520706 -0.997843325138092
 outer loop
  vertex 476500.0 5551500.0 3683.60009765625
  vertex 477500.0 5550500.0 3643.199951171875
  vertex 476500.0 5550500.0 3621.5
 endloop
endfacet
facet normal 0.02643165923655033 0.06672762334346771 -0.9974210858345032
 outer loop
  vertex 476500.0 5551500.0 3683.60009765625
  vertex 477500.0 5551500.0 3710.10009765625
  vertex 477500.0 5550500.0 3643.199951171875
 endloop
endfacet
facet normal -0.011972378008067608 0.06674616038799286 -0.997698187828064
 outer loop
  vertex 477500.0 5551500.0 3710.10009765625
  vertex 478500.0 5550500.0 3631.199951171875
  vertex 477500.0 5550500.0 3643.199951171875
 endloop
endfacet
facet normal 0.08945128321647644 0.1669236421585083 -0.9819037318229675
 outer loop
  vertex 477500.0 5551500.0 3710.10009765625
  vertex 478500.0 5551500.0 3801.199951171875
  vertex 478500.0 5550500.0 3631.199951171875
 endloop
endfacet
facet normal -0.0018730303272604942 0.16759519279003143 -0.9858540892601013
 outer loop
  vertex 478500.0 5551500.0 3801.199951171875
  vertex 479500.0 5550500.0 3629.300048828125
  vertex 478500.0 5550500.0 3631.199951171875
 endloop
endfacet
facet normal -0.18322508037090302 -0.01425303053110838 -0.9829676151275635
 outer loop
  vertex 478500.0 5551500.0 3801.199951171875
  vertex 479500.0 5551500.0 3614.800048828125
  vertex 479500.0 5550500.0 3629.300048828125
 endloop
endfacet
facet normal 9.979885362554342e-05 0.03308173269033432 -0.9994525909423828
 outer loop
  vertex 481500.0 5551500.0 3642.60009765625
  vertex 482500.0 5551500.0 3642.699951171875
  vertex 482500.0 5550500.0 3609.60009765625
 endloop
endfacet
facet normal 0.009793968871235847 0.033080149441957474 -0.9994047284126282
 outer loop
  vertex 482500.0 5551500.0 3642.699951171875
  vertex 483500.0 5550500.0 3619.39990234375
  vertex 482500.0 5550500.0 3609.60009765625
 endloop
endfacet
facet normal -0.03966338187456131 -0.016384797170758247 -0.9990788102149963
 outer loop
  vertex 482500.0 5551500.0 3642.699951171875
  vertex 483500.0 5551500.0 3603.0
  vertex 483500.0 5550500.0 3619.39990234375
 endloop
endfacet
facet normal -0.03434089571237564 0.20399023592472076 -0.9783704280853271
 outer loop
  vertex 468500.0 5552500.0 3838.60009765625
  vertex 469500.0 5551500.0 3595.0
  vertex 468500.0 5551500.0 3630.10009765625
 endloop
endfacet
facet normal -0.06553921103477478 0.17382079362869263 -0.9825940132141113
 outer loop
  vertex 468500.0 5552500.0 3838.60009765625
  vertex 469500.0 5552500.0 3771.89990234375
  vertex 469500.0 5551500.0 3595.0
 endloop
endfacet
facet normal 0.003052682615816593 0.17419448494911194 -0.9847065210342407
 outer loop
  vertex 469500.0 5552500.0 3771.89990234375
  vertex 470500.0 5551500.0 3598.10009765625
  vertex 469500.0 5551500.0 3595.0
 endloop
endfacet
facet normal -0.09220294654369354 0.0802929699420929 -0.9924976825714111
 outer loop
  vertex 469500.0 5552500.0 3771.89990234375
  vertex 470500.0 5552500.0 3679.0
  vertex 470500.0 5551500.0 3598.10009765625
 endloop
endfacet
facet normal 0.0055815367959439754 0.080635204911232 -0.9967280626296997
 outer loop
  vertex 470500.0 5552500.0 3679.0
  vertex 471500.0 5551500.0 3603.699951171875
  vertex 470500.0 5551500.0 3598.10009765625
 endloop
endfacet
facet normal -0.017967622727155685 0.057196978479623795 -0.9982012510299683
 outer loop
  vertex 470500.0 5552500.0 3679.0
  vertex 471500.0 5552500.0 3661.0
  vertex 471500.0 5551500.0 3603.699951171875
 endloop
endfacet
facet normal 0.015173310413956642 0.057199627161026 -0.9982474446296692
 outer loop
  vertex 471500.0 5552500.0 3661.0
  vertex 472500.0 5551500.0 3618.89990234375
  vertex 471500.0 5551500.0 3603.699951171875
 endloop
endfacet
facet normal -0.03547688201069832 0.00659579923376441 -0.9993487596511841
 outer loop
  vertex 471500.0 5552500.0 3661.0
  vertex 472500.0 5552500.0 3625.5
  vertex 472500.0 5551500.0 3618.89990234375
 endloop
endfacet
facet normal 0.029985856264829636 0.00659698573872447 -0.9995285272598267
 outer loop
  vertex 472500.0 5552500.0 3625.5
  vertex 473500.0 5551500.0 3648.89990234375
  vertex 472500.0 5551500.0 3618.89990234375
 endloop
endfacet
facet normal -0.006496959365904331 -0.02988591603934765 -0.9995322227478027
 outer loop
  vertex 472500.0 5552500.0 3625.5
  vertex 473500.0 5552500.0 3619.0
  vertex 473500.0 5551500.0 3648.89990234375
 endloop
endfacet
facet normal 0.011793958954513073 -0.029884466901421547 -0.9994837641716003
 outer loop
  vertex 473500.0 5552500.0 3619.0
  vertex 474500.0 5551500.0 3660.699951171875
  vertex 473500.0 5551500.0 3648.89990234375
 endloop
endfacet
facet normal 0.15607835352420807 0.11517039686441422 -0.9810073375701904
 outer loop
  vertex 473500.0 5552500.0 3619.0
  vertex 474500.0 5552500.0 3778.10009765625
  vertex 474500.0 5551500.0 3660.699951171875
 endloop
endfacet
facet normal 0.004767259582877159 0.11659803986549377 -0.9931677579879761
 outer loop
  vertex 474500.0 5552500.0 3778.10009765625
  vertex 475500.0 5551500.0 3665.5
  vertex 474500.0 5551500.0 3660.699951171875
 endloop
endfacet
facet normal 0.0627061128616333 0.1733759641647339 -0.9828574061393738
 outer loop
  vertex 474500.0 5552500.0 3778.10009765625
  vertex 475500.0 5552500.0 3841.89990234375
  vertex 475500.0 5551500.0 3665.5
 endloop
endfacet
facet normal 0.017822058871388435 0.17369024455547333 -0.984639048576355
 outer loop
  vertex 475500.0 5552500.0 3841.89990234375
  vertex 476500.0 5551500.0 3683.60009765625
  vertex 475500.0 5551500.0 3665.5
 endloop
endfacet
facet normal -0.01395414862781763 0.14270982146263123 -0.989666223526001
 outer loop
  vertex 475500.0 5552500.0 3841.89990234375
  vertex 476500.0 5552500.0 3827.800048828125
  vertex 476500.0 5551500.0 3683.60009765625
 endloop
endfacet
facet normal 0.026219690218567848 0.14267463982105255 -0.9894222617149353
 outer loop
  vertex 476500.0 5552500.0 3827.800048828125
  vertex 477500.0 5551500.0 3710.10009765625
  vertex 476500.0 5551500.0 3683.60009765625
 endloop
endfacet
facet normal 0.06390778720378876 0.17945249378681183 -0.9816886186599731
 outer loop
  vertex 476500.0 5552500.0 3827.800048828125
  vertex 477500.0 5552500.0 3892.89990234375
  vertex 477500.0 5551500.0 3710.10009765625
 endloop
endfacet
facet normal 0.08925720304250717 0.17910236120224 -0.979773223400116
 outer loop
  vertex 477500.0 5552500.0 3892.89990234375
  vertex 478500.0 5551500.0 3801.199951171875
  vertex 477500.0 5551500.0 3710.10009765625
 endloop
endfacet
facet normal 0.01173654105514288 0.10294296592473984 -0.9946179986000061
 outer loop
  vertex 477500.0 5552500.0 3892.89990234375
  vertex 478500.0 5552500.0 3904.699951171875
  vertex 478500.0 5551500.0 3801.199951171875
 endloop
endfacet
facet normal -0.18230247497558594 0.1012248694896698 -0.978018045425415
 outer loop
  vertex 478500.0 5552500.0 3904.699951171875
  vertex 479500.0 5551500.0 3614.800048828125
  vertex 478500.0 5551500.0 3801.199951171875
 endloop
endfacet
facet normal -0.15163254737854004 0.13233546912670135 -0.9795381426811218
 outer loop
  vertex 478500.0 5552500.0 3904.699951171875
  vertex 479500.0 5552500.0 3749.89990234375
  vertex 479500.0 5551500.0 3614.800048828125
 endloop
endfacet
facet normal 0.04128929227590561 0.13376939296722412 -0.9901520013809204
 outer loop
  vertex 479500.0 5552500.0 3749.89990234375
  vertex 480500.0 5551500.0 3656.5
  vertex 479500.0 5551500.0 3614.800048828125
 endloop
endfacet
facet normal -0.10765840858221054 -0.014811655506491661 -0.9940776228904724
 outer loop
  vertex 479500.0 5552500.0 3749.89990234375
  vertex 480500.0 5552500.0 3641.60009765625
  vertex 480500.0 5551500.0 3656.5
 endloop
endfacet
facet normal -0.013897016644477844 -0.014896809123456478 -0.9997923970222473
 outer loop
  vertex 480500.0 5552500.0 3641.60009765625
  vertex 481500.0 5551500.0 3642.60009765625
  vertex 480500.0 5551500.0 3656.5
 endloop
endfacet
facet normal 0.0020998476538807154 0.001099850400350988 -0.9999971985816956
 outer loop
  vertex 480500.0 5552500.0 3641.60009765625
  vertex 481500.0 5552500.0 3643.699951171875
  vertex 481500.0 5551500.0 3642.60009765625
 endloop
endfacet
facet normal 9.985345241148025e-05 0.0010998528450727463 -0.9999994039535522
 outer loop
  vertex 481500.0 5552500.0 3643.699951171875
  vertex 482500.0 5551500.0 3642.699951171875
  vertex 481500.0 5551500.0 3642.60009765625
 endloop
endfacet
facet normal 0.010398908518254757 0.01139878947287798 -0.9998809695243835
 outer loop
  vertex 481500.0 5552500.0 3643.699951171875
  vertex 482500.0 5552500.0 3654.10009765625
  vertex 482500.0 5551500.0 3642.699951171875
 endloop
endfacet
facet normal -0.039666131138801575 0.011390434578061104 -0.9991481304168701
 outer loop
  vertex 482500.0 5552500.0 3654.10009765625
  vertex 483500.0 5551500.0 3603.0
  vertex 482500.0 5551500.0 3642.699951171875
 endloop
endfacet
facet normal -0.017944123595952988 0.07666118443012238 -0.9968957304954529
 outer loop
  vertex 470500.0 5553500.0 3755.89990234375
  vertex 471500.0 5552500.0 3661.0
  vertex 470500.0 5552500.0 3679.0
 endloop
endfacet
facet normal 0.005671476945281029 0.10009326785802841 -0.9949618577957153
 outer loop
  vertex 470500.0 5553500.0 3755.89990234375
  vertex 471500.0 5553500.0 3761.60009765625
  vertex 471500.0 5552500.0 3661.0
 endloop
endfacet
facet normal -0.03529969975352287 0.10003248602151871 -0.9943577647209167
 outer loop
  vertex 471500.0 5553500.0 3761.60009765625
  vertex 472500.0 5552500.0 3625.5
  vertex 471500.0 5552500.0 3661.0
 endloop
endfacet
facet normal -0.12265721708536148 0.01240464486181736 -0.9923715591430664
 outer loop
  vertex 471500.0 5553500.0 3761.60009765625
  vertex 472500.0 5553500.0 3638.0
  vertex 472500.0 5552500.0 3625.5
 endloop
endfacet
facet normal -0.006499354727566242 0.012498759664595127 -0.999900758266449
 outer loop
  vertex 472500.0 5553500.0 3638.0
  vertex 473500.0 5552500.0 3619.0
  vertex 472500.0 5552500.0 3625.5
 endloop
endfacet
facet normal -0.011898759752511978 0.007099416106939316 -0.9999040365219116
 outer loop
  vertex 472500.0 5553500.0 3638.0
  vertex 473500.0 5553500.0 3626.10009765625
  vertex 473500.0 5552500.0 3619.0
 endloop
endfacet
facet normal 0.15712003409862518 0.007011733949184418 -0.9875546097755432
 outer loop
  vertex 473500.0 5553500.0 3626.10009765625
  vertex 474500.0 5552500.0 3778.10009765625
  vertex 473500.0 5552500.0 3619.0
 endloop
endfacet
facet normal 0.15961924195289612 0.009575136005878448 -0.9871322512626648
 outer loop
  vertex 473500.0 5553500.0 3626.10009765625
  vertex 474500.0 5553500.0 3787.800048828125
  vertex 474500.0 5552500.0 3778.10009765625
 endloop
endfacet
facet normal 0.06366737186908722 0.009679816663265228 -0.997924268245697
 outer loop
  vertex 474500.0 5553500.0 3787.800048828125
  vertex 475500.0 5552500.0 3841.89990234375
  vertex 474500.0 5552500.0 3778.10009765625
 endloop
endfacet
facet normal 0.05023617297410965 -0.0037949795369058847 -0.9987301826477051
 outer loop
  vertex 474500.0 5553500.0 3787.800048828125
  vertex 475500.0 5553500.0 3838.10009765625
  vertex 475500.0 5552500.0 3841.89990234375
 endloop
endfacet
facet normal -0.014098349958658218 -0.00379939959384501 -0.9998933672904968
 outer loop
  vertex 475500.0 5553500.0 3838.10009765625
  vertex 476500.0 5552500.0 3827.800048828125
  vertex 475500.0 5552500.0 3841.89990234375
 endloop
endfacet
facet normal 0.07186809927225113 0.08210664242506027 -0.9940289258956909
 outer loop
  vertex 475500.0 5553500.0 3838.10009765625
  vertex 476500.0 5553500.0 3910.39990234375
  vertex 476500.0 5552500.0 3827.800048828125
 endloop
endfacet
facet normal 0.0647427886724472 0.08214680105447769 -0.9945151209831238
 outer loop
  vertex 476500.0 5553500.0 3910.39990234375
  vertex 477500.0 5552500.0 3892.89990234375
  vertex 476500.0 5552500.0 3827.800048828125
 endloop
endfacet
facet normal 0.1729930341243744 0.18990576267242432 -0.9664415121078491
 outer loop
  vertex 476500.0 5553500.0 3910.39990234375
  vertex 477500.0 5553500.0 4089.39990234375
  vertex 477500.0 5552500.0 3892.89990234375
 endloop
endfacet
facet normal 0.011577850207686424 0.1927998661994934 -0.9811698198318481
 outer loop
  vertex 477500.0 5553500.0 4089.39990234375
  vertex 478500.0 5552500.0 3904.699951171875
  vertex 477500.0 5552500.0 3892.89990234375
 endloop
endfacet
facet normal 0.08794975280761719 0.2652892768383026 -0.9601491689682007
 outer loop
  vertex 477500.0 5553500.0 4089.39990234375
  vertex 478500.0 5553500.0 4181.0
  vertex 478500.0 5552500.0 3904.699951171875
 endloop
endfacet
facet normal -0.14757560193538666 0.26340529322624207 -0.9533305168151855
 outer loop
  vertex 478500.0 5553500.0 4181.0
  vertex 479500.0 5552500.0 3749.89990234375
  vertex 478500.0 5552500.0 3904.699951171875
 endloop
endfacet
facet normal -0.4192386567592621 -0.028039902448654175 -0.9074429869651794
 outer loop
  vertex 478500.0 5553500.0 4181.0
  vertex 479500.0 5553500.0 3719.0
  vertex 479500.0 5552500.0 3749.89990234375
 endloop
endfacet
facet normal -0.10761946439743042 -0.030705785378813744 -0.9937179088592529
 outer loop
  vertex 479500.0 5553500.0 3719.0
  vertex 480500.0 5552500.0 3641.60009765625
  vertex 479500.0 5552500.0 3749.89990234375
 endloop
endfacet
facet normal -0.07647531479597092 0.0006979031022638083 -0.9970712065696716
 outer loop
  vertex 479500.0 5553500.0 3719.0
  vertex 480500.0 5553500.0 3642.300048828125
  vertex 480500.0 5552500.0 3641.60009765625
 endloop
endfacet
facet normal 0.0020998483523726463 0.0006999494507908821 -0.9999975562095642
 outer loop
  vertex 480500.0 5553500.0 3642.300048828125
  vertex 481500.0 5552500.0 3643.699951171875
  vertex 480500.0 5552500.0 3641.60009765625
 endloop
endfacet
facet normal -0.0011000934755429626 -0.0024999906308948994 -0.9999962449073792
 outer loop
  vertex 480500.0 5553500.0 3642.300048828125
  vertex 481500.0 5553500.0 3641.199951171875
  vertex 481500.0 5552500.0 3643.699951171875
 endloop
endfacet
facet normal 0.010399552062153816 -0.002499856986105442 -0.9999428391456604
 outer loop
  vertex 481500.0 5553500.0 3641.199951171875
  vertex 482500.0 5552500.0 3654.10009765625
  vertex 481500.0 5552500.0 3643.699951171875
 endloop
endfacet
facet normal -0.004499273374676704 -0.017397336661815643 -0.9998385310173035
 outer loop
  vertex 481500.0 5553500.0 3641.199951171875
  vertex 482500.0 5553500.0 3636.699951171875
  vertex 482500.0 5552500.0 3654.10009765625
 endloop
endfacet
facet normal -0.12262709438800812 0.02539832517504692 -0.9921277761459351
 outer loop
  vertex 471500.0 5554500.0 3787.199951171875
  vertex 472500.0 5553500.0 3638.0
  vertex 471500.0 5553500.0 3761.60009765625
 endloop
endfacet
facet normal -0.14155727624893188 0.0061374022625386715 -0.9899110794067383
 outer loop
  vertex 471500.0 5554500.0 3787.199951171875
  vertex 472500.0 5554500.0 3644.199951171875
  vertex 472500.0 5553500.0 3638.0
 endloop
endfacet
facet normal -0.011898831464350224 0.006199393421411514 -0.9999099969863892
 outer loop
  vertex 472500.0 5554500.0 3644.199951171875
  vertex 473500.0 5553500.0 3626.10009765625
  vertex 472500.0 5553500.0 3638.0
 endloop
endfacet
facet normal 0.0010998942889273167 0.01919640228152275 -0.9998151659965515
 outer loop
  vertex 472500.0 5554500.0 3644.199951171875
  vertex 473500.0 5554500.0 3645.300048828125
  vertex 473500.0 5553500.0 3626.10009765625
 endloop
endfacet
facet normal 0.15959788858890533 0.018950356170535088 -0.9870002269744873
 outer loop
  vertex 473500.0 5554500.0 3645.300048828125
  vertex 474500.0 5553500.0 3787.800048828125
  vertex 473500.0 5553500.0 3626.10009765625
 endloop
endfacet
facet normal 0.022334156557917595 -0.11911550164222717 -0.9926291704177856
 outer loop
  vertex 473500.0 5554500.0 3645.300048828125
  vertex 474500.0 5554500.0 3667.800048828125
  vertex 474500.0 5553500.0 3787.800048828125
 endloop
endfacet
facet normal 0.049879588186740875 -0.11899691820144653 -0.9916409850120544
 outer loop
  vertex 474500.0 5554500.0 3667.800048828125
  vertex 475500.0 5553500.0 3838.10009765625
  vertex 474500.0 5553500.0 3787.800048828125
 endloop
endfacet
facet normal 0.20443300902843475 0.03785429522395134 -0.978148341178894
 outer loop
  vertex 474500.0 5554500.0 3667.800048828125
  vertex 475500.0 5554500.0 3876.800048828125
  vertex 475500.0 5553500.0 3838.10009765625
 endloop
endfacet
facet normal 0.07205791771411896 0.038570478558540344 -0.9966543316841125
 outer loop
  vertex 475500.0 5554500.0 3876.800048828125
  vertex 476500.0 5553500.0 3910.39990234375
  vertex 475500.0 5553500.0 3838.10009765625
 endloop
endfacet
facet normal 0.10776347666978836 0.07445309311151505 -0.991384744644165
 outer loop
  vertex 475500.0 5554500.0 3876.800048828125
  vertex 476500.0 5554500.0 3985.5
  vertex 476500.0 5553500.0 3910.39990234375
 endloop
endfacet
facet normal 0.1757199615240097 0.0737239420413971 -0.9816757440567017
 outer loop
  vertex 476500.0 5554500.0 3985.5
  vertex 477500.0 5553500.0 4089.39990234375
  vertex 476500.0 5553500.0 3910.39990234375
 endloop
endfacet
facet normal 0.1691303849220276 0.06696392595767975 -0.98331618309021
 outer loop
  vertex 476500.0 5554500.0 3985.5
  vertex 477500.0 5554500.0 4157.5
  vertex 477500.0 5553500.0 4089.39990234375
 endloop
endfacet
facet normal 0.09100916236639023 0.06766077131032944 -0.9935488104820251
 outer loop
  vertex 477500.0 5554500.0 4157.5
  vertex 478500.0 5553500.0 4181.0
  vertex 477500.0 5553500.0 4089.39990234375
 endloop
endfacet
facet normal 0.12254618853330612 0.09934043884277344 -0.9874786138534546
 outer loop
  vertex 477500.0 5554500.0 4157.5
  vertex 478500.0 5554500.0 4281.60009765625
  vertex 478500.0 5553500.0 4181.0
 endloop
endfacet
facet normal -0.4176654815673828 0.09094627946615219 -0.9040377736091614
 outer loop
  vertex 478500.0 5554500.0 4281.60009765625
  vertex 479500.0 5553500.0 3719.0
  vertex 478500.0 5553500.0 4181.0
 endloop
endfacet
facet normal -0.17547622323036194 0.34357133507728577 -0.922586977481842
 outer loop
  vertex 478500.0 5554500.0 4281.60009765625
  vertex 479500.0 5554500.0 4091.39990234375
  vertex 479500.0 5553500.0 3719.0
 endloop
endfacet
facet normal -0.07169269025325775 0.3480882942676544 -0.9347163438796997
 outer loop
  vertex 479500.0 5554500.0 4091.39990234375
  vertex 480500.0 5553500.0 3642.300048828125
  vertex 479500.0 5553500.0 3719.0
 endloop
endfacet
facet normal -0.29126229882240295 0.1341225951910019 -0.947194516658783
 outer loop
  vertex 479500.0 5554500.0 4091.39990234375
  vertex 480500.0 5554500.0 3783.89990234375
  vertex 480500.0 5553500.0 3642.300048828125
 endloop
endfacet
facet normal -0.0010892275022342801 0.14020119607448578 -0.9901224374771118
 outer loop
  vertex 480500.0 5554500.0 3783.89990234375
  vertex 481500.0 5553500.0 3641.199951171875
  vertex 480500.0 5553500.0 3642.300048828125
 endloop
endfacet
facet normal -0.13709190487861633 0.004259407985955477 -0.9905491471290588
 outer loop
  vertex 480500.0 5554500.0 3783.89990234375
  vertex 481500.0 5554500.0 3645.5
  vertex 481500.0 5553500.0 3641.199951171875
 endloop
endfacet
facet normal -0.004499912727624178 0.004299965687096119 -0.999980628490448
 outer loop
  vertex 481500.0 5554500.0 3645.5
  vertex 482500.0 5553500.0 3636.699951171875
  vertex 481500.0 5553500.0 3641.199951171875
 endloop
endfacet
facet normal 0.016093024984002113 0.024889208376407623 -0.9995607137680054
 outer loop
  vertex 481500.0 5554500.0 3645.5
  vertex 482500.0 5554500.0 3661.60009765625
  vertex 482500.0 5553500.0 3636.699951171875
 endloop
endfacet
facet normal 0.02418537624180317 0.02488514967262745 -0.9993977546691895
 outer loop
  vertex 482500.0 5554500.0 3661.60009765625
  vertex 483500.0 5553500.0 3660.89990234375
  vertex 482500.0 5553500.0 3636.699951171875
 endloop
endfacet
facet normal -0.014197470620274544 -0.013497409410774708 -0.9998080730438232
 outer loop
  vertex 482500.0 5554500.0 3661.60009765625
  vertex 483500.0 5554500.0 3647.39990234375
  vertex 483500.0 5553500.0 3660.89990234375
 endloop
endfacet
facet normal -0.141313374042511 0.058995820581912994 -0.9882054328918457
 outer loop
  vertex 471500.0 5555500.0 3846.89990234375
  vertex 472500.0 5554500.0 3644.199951171875
  vertex 471500.0 5554500.0 3787.199951171875
 endloop
endfacet
facet normal -0.0636633038520813 0.13671819865703583 -0.9885621666908264
 outer loop
  vertex 471500.0 5555500.0 3846.89990234375
  vertex 472500.0 5555500.0 3782.5
  vertex 472500.0 5554500.0 3644.199951171875
 endloop
endfacet
facet normal 0.0010897209867835045 0.13699601590633392 -0.9905710220336914
 outer loop
  vertex 472500.0 5555500.0 3782.5
  vertex 473500.0 5554500.0 3645.300048828125
  vertex 472500.0 5554500.0 3644.199951171875
 endloop
endfacet
facet normal 0.01807977817952633 0.15362830460071564 -0.9879633188247681
 outer loop
  vertex 472500.0 5555500.0 3782.5
  vertex 473500.0 5555500.0 3800.800048828125
  vertex 473500.0 5554500.0 3645.300048828125
 endloop
endfacet
facet normal 0.022227315232157707 0.15361544489860535 -0.9878807067871094
 outer loop
  vertex 473500.0 5555500.0 3800.800048828125
  vertex 474500.0 5554500.0 3667.800048828125
  vertex 473500.0 5554500.0 3645.300048828125
 endloop
endfacet
facet normal -0.1349533051252365 -0.0031706637237221003 -0.9908469319343567
 outer loop
  vertex 473500.0 5555500.0 3800.800048828125
  vertex 474500.0 5555500.0 3664.60009765625
  vertex 474500.0 5554500.0 3667.800048828125
 endloop
endfacet
facet normal 0.20457863807678223 -0.003132256679236889 -0.9788451194763184
 outer loop
  vertex 474500.0 5555500.0 3664.60009765625
  vertex 475500.0 5554500.0 3876.800048828125
  vertex 474500.0 5554500.0 3667.800048828125
 endloop
endfacet
facet normal 0.15875038504600525 -0.0504845455288887 -0.986027181148529
 outer loop
  vertex 474500.0 5555500.0 3664.60009765625
  vertex 475500.0 5555500.0 3825.60009765625
  vertex 475500.0 5554500.0 3876.800048828125
 endloop
endfacet
facet normal 0.10792369395494461 -0.05083431676030159 -0.9928586483001709
 outer loop
  vertex 475500.0 5555500.0 3825.60009765625
  vertex 476500.0 5554500.0 3985.5
  vertex 475500.0 5554500.0 3876.800048828125
 endloop
endfacet
facet normal 0.0470506027340889 -0.11167096346616745 -0.9926307797431946
 outer loop
  vertex 475500.0 5555500.0 3825.60009765625
  vertex 476500.0 5555500.0 3873.0
  vertex 476500.0 5554500.0 3985.5
 endloop
endfacet
facet normal 0.16847851872444153 -0.11019670218229294 -0.9795262217521667
 outer loop
  vertex 476500.0 5555500.0 3873.0
  vertex 477500.0 5554500.0 4157.5
  vertex 476500.0 5554500.0 3985.5
 endloop
endfacet
facet normal 0.1692543476819992 -0.10940796881914139 -0.9794809222221375
 outer loop
  vertex 476500.0 5555500.0 3873.0
  vertex 477500.0 5555500.0 4045.800048828125
  vertex 477500.0 5554500.0 4157.5
 endloop
endfacet
facet normal 0.12240562587976456 -0.11017479747533798 -0.9863459467887878
 outer loop
  vertex 477500.0 5555500.0 4045.800048828125
  vertex 478500.0 5554500.0 4281.60009765625
  vertex 477500.0 5554500.0 4157.5
 endloop
endfacet
facet normal 0.28843939304351807 0.06315291672945023 -0.9554132223129272
 outer loop
  vertex 477500.0 5555500.0 4045.800048828125
  vertex 478500.0 5555500.0 4347.7001953125
  vertex 478500.0 5554500.0 4281.60009765625
 endloop
endfacet
facet normal -0.1864577680826187 0.0647994875907898 -0.9803236722946167
 outer loop
  vertex 478500.0 5555500.0 4347.7001953125
  vertex 479500.0 5554500.0 4091.39990234375
  vertex 478500.0 5554500.0 4281.60009765625
 endloop
endfacet
facet normal 0.08100594580173492 0.3227040767669678 -0.943027138710022
 outer loop
  vertex 478500.0 5555500.0 4347.7001953125
  vertex 479500.0 5555500.0 4433.60009765625
  vertex 479500.0 5554500.0 4091.39990234375
 endloop
endfacet
facet normal -0.2793542146682739 0.31087827682495117 -0.908469021320343
 outer loop
  vertex 479500.0 5555500.0 4433.60009765625
  vertex 480500.0 5554500.0 3783.89990234375
  vertex 479500.0 5554500.0 4091.39990234375
 endloop
endfacet
facet normal 0.12681736052036285 0.626473605632782 -0.7690566182136536
 outer loop
  vertex 479500.0 5555500.0 4433.60009765625
  vertex 480500.0 5555500.0 4598.5
  vertex 480500.0 5554500.0 3783.89990234375
 endloop
endfacet
facet normal -0.10669124126434326 0.6279680132865906 -0.7708911299705505
 outer loop
  vertex 480500.0 5555500.0 4598.5
  vertex 481500.0 5554500.0 3645.5
  vertex 480500.0 5554500.0 3783.89990234375
 endloop
endfacet
facet normal -0.1795627921819687 0.5786259174346924 -0.795581042766571
 outer loop
  vertex 480500.0 5555500.0 4598.5
  vertex 481500.0 5555500.0 4372.7998046875
  vertex 481500.0 5554500.0 3645.5
 endloop
endfacet
facet normal 0.013019479811191559 0.5881361365318298 -0.8086570501327515
 outer loop
  vertex 481500.0 5555500.0 4372.7998046875
  vertex 482500.0 5554500.0 3661.60009765625
  vertex 481500.0 5554500.0 3645.5
 endloop
endfacet
facet normal -0.001794447423890233 0.5783784985542297 -0.8157665729522705
 outer loop
  vertex 481500.0 5555500.0 4372.7998046875
  vertex 482500.0 5555500.0 4370.60009765625
  vertex 482500.0 5554500.0 3661.60009765625
 endloop
endfacet
facet normal -0.011583279818296432 0.5783406496047974 -0.8157131671905518
 outer loop
  vertex 482500.0 5555500.0 4370.60009765625
  vertex 483500.0 5554500.0 3647.39990234375
  vertex 482500.0 5554500.0 3661.60009765625
 endloop
endfacet
facet normal -0.406119167804718 0.23292651772499084 -0.883635938167572
 outer loop
  vertex 482500.0 5555500.0 4370.60009765625
  vertex 483500.0 5555500.0 3911.0
  vertex 483500.0 5554500.0 3647.39990234375
 endloop
endfacet
facet normal -0.17833970487117767 0.11964185535907745 -0.9766681790351868
 outer loop
  vertex 470500.0 5556500.0 4152.0
  vertex 471500.0 5556500.0 3969.39990234375
  vertex 471500.0 5555500.0 3846.89990234375
 endloop
endfacet
facet normal -0.06379187852144241 0.12134343385696411 -0.9905586242675781
 outer loop
  vertex 471500.0 5556500.0 3969.39990234375
  vertex 472500.0 5555500.0 3782.5
  vertex 471500.0 5555500.0 3846.89990234375
 endloop
endfacet
facet normal -0.047589126974344254 0.13732628524303436 -0.9893820285797119
 outer loop
  vertex 471500.0 5556500.0 3969.39990234375
  vertex 472500.0 5556500.0 3921.300048828125
  vertex 472500.0 5555500.0 3782.5
 endloop
endfacet
facet normal 0.01812329702079296 0.13745945692062378 -0.9903415441513062
 outer loop
  vertex 472500.0 5556500.0 3921.300048828125
  vertex 473500.0 5555500.0 3800.800048828125
  vertex 472500.0 5555500.0 3782.5
 endloop
endfacet
facet normal -0.14750711619853973 -0.02837431989610195 -0.9886538982391357
 outer loop
  vertex 472500.0 5556500.0 3921.300048828125
  vertex 473500.0 5556500.0 3772.10009765625
  vertex 473500.0 5555500.0 3800.800048828125
 endloop
endfacet
facet normal -0.13489943742752075 -0.028425907716155052 -0.990451455116272
 outer loop
  vertex 473500.0 5556500.0 3772.10009765625
  vertex 474500.0 5555500.0 3664.60009765625
  vertex 473500.0 5555500.0 3800.800048828125
 endloop
endfacet
facet normal -0.09604804217815399 0.010948481038212776 -0.9953165054321289
 outer loop
  vertex 473500.0 5556500.0 3772.10009765625
  vertex 474500.0 5556500.0 3675.60009765625
  vertex 474500.0 5555500.0 3664.60009765625
 endloop
endfacet
facet normal 0.15894369781017303 0.010859507136046886 -0.9872279167175293
 outer loop
  vertex 474500.0 5556500.0 3675.60009765625
  vertex 475500.0 5555500.0 3825.60009765625
  vertex 474500.0 5555500.0 3664.60009765625
 endloop
endfacet
facet normal 0.15875138342380524 0.010662233456969261 -0.9872609972953796
 outer loop
  vertex 474500.0 5556500.0 3675.60009765625
  vertex 475500.0 5556500.0 3836.39990234375
  vertex 475500.0 5555500.0 3825.60009765625
 endloop
endfacet
facet normal 0.047343987971544266 0.010787065140902996 -0.9988203644752502
 outer loop
  vertex 475500.0 5556500.0 3836.39990234375
  vertex 476500.0 5555500.0 3873.0
  vertex 475500.0 5555500.0 3825.60009765625
 endloop
endfacet
facet normal 0.0758219063282013 0.039355602115392685 -0.9963443875312805
 outer loop
  vertex 475500.0 5556500.0 3836.39990234375
  vertex 476500.0 5556500.0 3912.5
  vertex 476500.0 5555500.0 3873.0
 endloop
endfacet
facet normal 0.17014768719673157 0.03889370337128639 -0.984650731086731
 outer loop
  vertex 476500.0 5556500.0 3912.5
  vertex 477500.0 5555500.0 4045.800048828125
  vertex 476500.0 5555500.0 3873.0
 endloop
endfacet
facet normal 0.1509224772453308 0.019174084067344666 -0.9883596301078796
 outer loop
  vertex 476500.0 5556500.0 3912.5
  vertex 477500.0 5556500.0 4065.199951171875
  vertex 477500.0 5555500.0 4045.800048828125
 endloop
endfacet
facet normal 0.28896647691726685 0.018568793311715126 -0.9571591019630432
 outer loop
  vertex 477500.0 5556500.0 4065.199951171875
  vertex 478500.0 5555500.0 4347.7001953125
  vertex 477500.0 5555500.0 4045.800048828125
 endloop
endfacet
facet normal 0.05709075555205345 -0.21813438832759857 -0.974247395992279
 outer loop
  vertex 477500.0 5556500.0 4065.199951171875
  vertex 478500.0 5556500.0 4123.7998046875
  vertex 478500.0 5555500.0 4347.7001953125
 endloop
endfacet
facet normal 0.08353151381015778 -0.21772713959217072 -0.9724286198616028
 outer loop
  vertex 478500.0 5556500.0 4123.7998046875
  vertex 479500.0 5555500.0 4433.60009765625
  vertex 478500.0 5555500.0 4347.7001953125
 endloop
endfacet
facet normal 0.2298486828804016 -0.0708569660782814 -0.9706435799598694
 outer loop
  vertex 478500.0 5556500.0 4123.7998046875
  vertex 479500.0 5556500.0 4360.60009765625
  vertex 479500.0 5555500.0 4433.60009765625
 endloop
endfacet
facet normal 0.16228222846984863 -0.07184117287397385 -0.9841256737709045
 outer loop
  vertex 479500.0 5556500.0 4360.60009765625
  vertex 480500.0 5555500.0 4598.5
  vertex 479500.0 5555500.0 4433.60009765625
 endloop
endfacet
facet normal -0.002186588244512677 0.10904575884342194 -0.9940342903137207
 outer loop
  vertex 481500.0 5556500.0 4482.5
  vertex 482500.0 5555500.0 4370.60009765625
  vertex 481500.0 5555500.0 4372.7998046875
 endloop
endfacet
facet normal 0.16895394027233124 0.27486950159072876 -0.9465206265449524
 outer loop
  vertex 481500.0 5556500.0 4482.5
  vertex 482500.0 5556500.0 4661.0
  vertex 482500.0 5555500.0 4370.60009765625
 endloop
endfacet
facet normal -0.4037854075431824 0.25513318181037903 -0.8785580992698669
 outer loop
  vertex 482500.0 5556500.0 4661.0
  vertex 483500.0 5555500.0 3911.0
  vertex 482500.0 5555500.0 4370.60009765625
 endloop
endfacet
facet normal -0.18006634712219238 0.46858707070350647 -0.8648712038993835
 outer loop
  vertex 482500.0 5556500.0 4661.0
  vertex 483500.0 5556500.0 4452.7998046875
  vertex 483500.0 5555500.0 3911.0
 endloop
endfacet
facet normal -0.04779398813843727 0.10194765776395798 -0.9936409592628479
 outer loop
  vertex 471500.0 5557500.0 4072.0
  vertex 472500.0 5556500.0 3921.300048828125
  vertex 471500.0 5556500.0 3969.39990234375
 endloop
endfacet
facet normal 0.037509940564632416 0.18548683822155 -0.9819305539131165
 outer loop
  vertex 471500.0 5557500.0 4072.0
  vertex 472500.0 5557500.0 4110.2001953125
  vertex 472500.0 5556500.0 3921.300048828125
 endloop
endfacet
facet normal -0.1450565606355667 0.18365423381328583 -0.9722292423248291
 outer loop
  vertex 472500.0 5557500.0 4110.2001953125
  vertex 473500.0 5556500.0 3772.10009765625
  vertex 472500.0 5556500.0 3921.300048828125
 endloop
endfacet
facet normal -0.20878614485263824 0.11938951164484024 -0.9706464409828186
 outer loop
  vertex 472500.0 5557500.0 4110.2001953125
  vertex 473500.0 5557500.0 3895.10009765625
  vertex 473500.0 5556500.0 3772.10009765625
 endloop
endfacet
facet normal -0.09534189105033875 0.12152386456727982 -0.987998902797699
 outer loop
  vertex 473500.0 5557500.0 3895.10009765625
  vertex 474500.0 5556500.0 3675.60009765625
  vertex 473500.0 5556500.0 3772.10009765625
 endloop
endfacet
facet normal -0.20325233042240143 0.011650687083601952 -0.9790570735931396
 outer loop
  vertex 473500.0 5557500.0 3895.10009765625
  vertex 474500.0 5557500.0 3687.5
  vertex 474500.0 5556500.0 3675.60009765625
 endloop
endfacet
facet normal 0.15874946117401123 0.011748166754841805 -0.9872490167617798
 outer loop
  vertex 474500.0 5557500.0 3687.5
  vertex 475500.0 5556500.0 3836.39990234375
  vertex 474500.0 5556500.0 3675.60009765625
 endloop
endfacet
facet normal 0.09107006341218948 -0.05696825683116913 -0.9942137002944946
 outer loop
  vertex 474500.0 5557500.0 3687.5
  vertex 475500.0 5557500.0 3779.10009765625
  vertex 475500.0 5556500.0 3836.39990234375
 endloop
endfacet
facet normal 0.07575714588165283 -0.057041577994823456 -0.9954934120178223
 outer loop
  vertex 475500.0 5557500.0 3779.10009765625
  vertex 476500.0 5556500.0 3912.5
  vertex 475500.0 5556500.0 3836.39990234375
 endloop
endfacet
facet normal -0.08531984686851501 -0.2150990217924118 -0.9728581309318542
 outer loop
  vertex 475500.0 5557500.0 3779.10009765625
  vertex 476500.0 5557500.0 3691.39990234375
  vertex 476500.0 5556500.0 3912.5
 endloop
endfacet
facet normal 0.1474689394235611 -0.21352587640285492 -0.9657430648803711
 outer loop
  vertex 476500.0 5557500.0 3691.39990234375
  vertex 477500.0 5556500.0 4065.199951171875
  vertex 476500.0 5556500.0 3912.5
 endloop
endfacet
facet normal 0.006571709178388119 -0.3443576395511627 -0.9388156533241272
 outer loop
  vertex 476500.0 5557500.0 3691.39990234375
  vertex 477500.0 5557500.0 3698.39990234375
  vertex 477500.0 5556500.0 4065.199951171875
 endloop
endfacet
facet normal 0.05493256077170372 -0.34384503960609436 -0.9374182224273682
 outer loop
  vertex 477500.0 5557500.0 3698.39990234375
  vertex 478500.0 5556500.0 4123.7998046875
  vertex 477500.0 5556500.0 4065.199951171875
 endloop
endfacet
facet normal 0.3571365475654602 -0.03984745591878891 -0.9332018494606018
 outer loop
  vertex 477500.0 5557500.0 3698.39990234375
  vertex 478500.0 5557500.0 4081.10009765625
  vertex 478500.0 5556500.0 4123.7998046875
 endloop
endfacet
facet normal 0.2302292138338089 -0.0415148101747036 -0.9722505211830139
 outer loop
  vertex 478500.0 5557500.0 4081.10009765625
  vertex 479500.0 5556500.0 4360.60009765625
  vertex 478500.0 5556500.0 4123.7998046875
 endloop
endfacet
facet normal -0.19606031477451324 -0.21233487129211426 -0.9573266506195068
 outer loop
  vertex 483500.0 5557500.0 4231.0
  vertex 484500.0 5556500.0 4248.0
  vertex 483500.0 5556500.0 4452.7998046875
 endloop
endfacet
facet normal 0.01939619705080986 0.002399443881586194 -0.9998089671134949
 outer loop
  vertex 483500.0 5557500.0 4231.0
  vertex 484500.0 5557500.0 4250.39990234375
  vertex 484500.0 5556500.0 4248.0
 endloop
endfacet
facet normal -0.2101714164018631 0.03361168131232262 -0.97708660364151
 outer loop
  vertex 472500.0 5558500.0 4144.60009765625
  vertex 473500.0 5557500.0 3895.10009765625
  vertex 472500.0 5557500.0 4110.2001953125
 endloop
endfacet
facet normal -0.1628182977437973 0.08249052613973618 -0.9832016825675964
 outer loop
  vertex 472500.0 5558500.0 4144.60009765625
  vertex 473500.0 5558500.0 3979.0
  vertex 473500.0 5557500.0 3895.10009765625
 endloop
endfacet
facet normal -0.20258373022079468 0.08187258243560791 -0.9758363962173462
 outer loop
  vertex 473500.0 5558500.0 3979.0
  vertex 474500.0 5557500.0 3687.5
  vertex 473500.0 5557500.0 3895.10009765625
 endloop
endfacet
facet normal -0.19542720913887024 0.08926546573638916 -0.9766472578048706
 outer loop
  vertex 473500.0 5558500.0 3979.0
  vertex 474500.0 5558500.0 3778.89990234375
  vertex 474500.0 5557500.0 3687.5
 endloop
endfacet
facet normal 0.09084270149469376 0.09064415842294693 -0.9917314648628235
 outer loop
  vertex 474500.0 5558500.0 3778.89990234375
  vertex 475500.0 5557500.0 3779.10009765625
  vertex 474500.0 5557500.0 3687.5
 endloop
endfacet
facet normal 0.026481548324227333 0.02628149278461933 -0.9993037581443787
 outer loop
  vertex 474500.0 5558500.0 3778.89990234375
  vertex 475500.0 5558500.0 3805.39990234375
  vertex 475500.0 5557500.0 3779.10009765625
 endloop
endfacet
facet normal -0.08733489364385605 0.0261902566999197 -0.9958346486091614
 outer loop
  vertex 475500.0 5558500.0 3805.39990234375
  vertex 476500.0 5557500.0 3691.39990234375
  vertex 475500.0 5557500.0 3779.10009765625
 endloop
endfacet
facet normal 0.01902865618467331 0.13201014697551727 -0.9910657405853271
 outer loop
  vertex 475500.0 5558500.0 3805.39990234375
  vertex 476500.0 5558500.0 3824.60009765625
  vertex 476500.0 5557500.0 3691.39990234375
 endloop
endfacet
facet normal 0.006938541308045387 0.13203085958957672 -0.9912213087081909
 outer loop
  vertex 476500.0 5558500.0 3824.60009765625
  vertex 477500.0 5557500.0 3698.39990234375
  vertex 476500.0 5557500.0 3691.39990234375
 endloop
endfacet
facet normal -0.0847225934267044 0.040917783975601196 -0.9955641031265259
 outer loop
  vertex 476500.0 5558500.0 3824.60009765625
  vertex 477500.0 5558500.0 3739.5
  vertex 477500.0 5557500.0 3698.39990234375
 endloop
endfacet
facet normal 0.3571573495864868 0.038356926292181015 -0.9332563281059265
 outer loop
  vertex 477500.0 5558500.0 3739.5
  vertex 478500.0 5557500.0 4081.10009765625
  vertex 477500.0 5557500.0 3698.39990234375
 endloop
endfacet
facet normal -0.19614726305007935 0.025388268753886223 -0.9802457094192505
 outer loop
  vertex 473500.0 5559500.0 4004.89990234375
  vertex 474500.0 5558500.0 3778.89990234375
  vertex 473500.0 5558500.0 3979.0
 endloop
endfacet
facet normal 0.11169885098934174 0.3240113854408264 -0.9394359588623047
 outer loop
  vertex 473500.0 5559500.0 4004.89990234375
  vertex 474500.0 5559500.0 4123.7998046875
  vertex 474500.0 5558500.0 3778.89990234375
 endloop
endfacet
facet normal 0.025043968111276627 0.3259495198726654 -0.9450554251670837
 outer loop
  vertex 474500.0 5559500.0 4123.7998046875
  vertex 475500.0 5558500.0 3805.39990234375
  vertex 474500.0 5558500.0 3778.89990234375
 endloop
endfacet
facet normal -0.11994506418704987 0.19029493629932404 -0.974372148513794
 outer loop
  vertex 474500.0 5559500.0 4123.7998046875
  vertex 475500.0 5559500.0 4000.699951171875
  vertex 475500.0 5558500.0 3805.39990234375
 endloop
endfacet
facet normal 0.01884082891047001 0.19164472818374634 -0.9812835454940796
 outer loop
  vertex 475500.0 5559500.0 4000.699951171875
  vertex 476500.0 5558500.0 3824.60009765625
  vertex 475500.0 5558500.0 3805.39990234375
 endloop
endfacet
facet normal -0.17943593859672546 -0.006197672337293625 -0.9837501645088196
 outer loop
  vertex 475500.0 5559500.0 4000.699951171875
  vertex 476500.0 5559500.0 3818.300048828125
  vertex 476500.0 5558500.0 3824.60009765625
 endloop
endfacet
facet normal -0.08479193598031998 -0.0062772356905043125 -0.9963788986206055
 outer loop
  vertex 476500.0 5559500.0 3818.300048828125
  vertex 477500.0 5558500.0 3739.5
  vertex 476500.0 5558500.0 3824.60009765625
 endloop
endfacet
facet normal 0.1213868111371994 0.1980317085981369 -0.9726503491401672
 outer loop
  vertex 476500.0 5559500.0 3818.300048828125
  vertex 477500.0 5559500.0 3943.10009765625
  vertex 477500.0 5558500.0 3739.5
 endloop
endfacet
facet normal -0.12214981764554977 0.021334070712327957 -0.9922823309898376
 outer loop
  vertex 474500.0 5560500.0 4145.2998046875
  vertex 475500.0 5559500.0 4000.699951171875
  vertex 474500.0 5559500.0 4123.7998046875
 endloop
endfacet
facet normal -0.11252512037754059 0.031086040660738945 -0.9931625127792358
 outer loop
  vertex 474500.0 5560500.0 4145.2998046875
  vertex 475500.0 5560500.0 4032.0
  vertex 475500.0 5559500.0 4000.699951171875
 endloop
endfacet
facet normal -0.17935436964035034 0.030777430161833763 -0.9833029508590698
 outer loop
  vertex 475500.0 5560500.0 4032.0
  vertex 476500.0 5559500.0 3818.300048828125
  vertex 475500.0 5559500.0 4000.699951171875
 endloop
endfacet
facet normal -0.1859433948993683 0.02396724931895733 -0.9822680950164795
 outer loop
  vertex 475500.0 5560500.0 4032.0
  vertex 476500.0 5560500.0 3842.699951171875
  vertex 476500.0 5559500.0 3818.300048828125
 endloop
endfacet
facet normal 0.12380308657884598 0.024204984307289124 -0.9920114874839783
 outer loop
  vertex 476500.0 5560500.0 3842.699951171875
  vertex 477500.0 5559500.0 3943.10009765625
  vertex 476500.0 5559500.0 3818.300048828125
 endloop
endfacet
facet normal 0.15933507680892944 0.06040329113602638 -0.985374927520752
 outer loop
  vertex 476500.0 5560500.0 3842.699951171875
  vertex 477500.0 5560500.0 4004.39990234375
  vertex 477500.0 5559500.0 3943.10009765625
 endloop
endfacet
facet normal -0.1853620707988739 -0.08254636824131012 -0.9791971445083618
 outer loop
  vertex 475500.0 5561500.0 3947.699951171875
  vertex 476500.0 5560500.0 3842.699951171875
  vertex 475500.0 5560500.0 4032.0
 endloop
endfacet
facet normal 0.20745663344860077 0.30505049228668213 -0.9294654130935669
 outer loop
  vertex 475500.0 5561500.0 3947.699951171875
  vertex 476500.0 5561500.0 4170.89990234375
  vertex 476500.0 5560500.0 3842.699951171875
 endloop
endfacet
facet normal 0.1518552154302597 0.3082182705402374 -0.9391173720359802
 outer loop
  vertex 476500.0 5561500.0 4170.89990234375
  vertex 477500.0 5560500.0 4004.39990234375
  vertex 476500.0 5560500.0 3842.699951171875
 endloop
endfacet
facet normal -0.10225415974855423 0.06304018199443817 -0.9927588105201721
 outer loop
  vertex 476500.0 5561500.0 4170.89990234375
  vertex 477500.0 5561500.0 4067.89990234375
  vertex 477500.0 5560500.0 4004.39990234375
 endloop
endfacet
facet normal -0.09930568933486938 0.06305911391973495 -0.9930568337440491
 outer loop
  vertex 477500.0 5561500.0 4067.89990234375
  vertex 478500.0 5560500.0 3904.39990234375
  vertex 477500.0 5560500.0 4004.39990234375
 endloop
endfacet
facet normal -0.1551932841539383 0.00632246769964695 -0.9878638982772827
 outer loop
  vertex 477500.0 5561500.0 4067.89990234375
  vertex 478500.0 5561500.0 3910.800048828125
  vertex 478500.0 5560500.0 3904.39990234375
 endloop
endfacet
facet normal 0.12803493440151215 0.006347340997308493 -0.9917493462562561
 outer loop
  vertex 478500.0 5561500.0 3910.800048828125
  vertex 479500.0 5560500.0 4033.5
  vertex 478500.0 5560500.0 3904.39990234375
 endloop
endfacet
facet normal 0.2795732319355011 0.16348642110824585 -0.9461030960083008
 outer loop
  vertex 478500.0 5561500.0 3910.800048828125
  vertex 479500.0 5561500.0 4206.2998046875
  vertex 479500.0 5560500.0 4033.5
 endloop
endfacet
facet normal 0.279525488615036 0.16449914872646332 -0.9459415674209595
 outer loop
  vertex 478500.0 5562500.0 4084.699951171875
  vertex 479500.0 5561500.0 4206.2998046875
  vertex 478500.0 5561500.0 3910.800048828125
 endloop
endfacet
facet normal 0.22227829694747925 0.10440213978290558 -0.9693773984909058
 outer loop
  vertex 478500.0 5562500.0 4084.699951171875
  vertex 479500.0 5562500.0 4314.0
  vertex 479500.0 5561500.0 4206.2998046875
 endloop
endfacet
endsolid
