solid
facet normal -0.03018546849489212 0.007996099069714546 -0.9995123744010925
 outer loop
  vertex 756500.0 5417500.0 6057.7001953125
  vertex 757500.0 5417500.0 6027.5
  vertex 757500.0 5416500.0 6019.5
 endloop
endfacet
facet normal 0.042061492800712585 0.007992664352059364 -0.9990830421447754
 outer loop
  vertex 757500.0 5417500.0 6027.5
  vertex 758500.0 5416500.0 6061.60009765625
  vertex 757500.0 5416500.0 6019.5
 endloop
endfacet
facet normal 0.0012991050025448203 -0.03278263658285141 -0.9994616508483887
 outer loop
  vertex 757500.0 5417500.0 6027.5
  vertex 758500.0 5417500.0 6028.7998046875
  vertex 758500.0 5416500.0 6061.60009765625
 endloop
endfacet
facet normal -0.0010995056945830584 -0.03278264403343201 -0.9994618892669678
 outer loop
  vertex 758500.0 5417500.0 6028.7998046875
  vertex 759500.0 5416500.0 6060.5
  vertex 758500.0 5416500.0 6061.60009765625
 endloop
endfacet
facet normal 0.0048985728062689304 -0.026789864525198936 -0.9996290802955627
 outer loop
  vertex 758500.0 5417500.0 6028.7998046875
  vertex 759500.0 5417500.0 6033.7001953125
  vertex 759500.0 5416500.0 6060.5
 endloop
endfacet
facet normal -0.017491042613983154 -0.026786087080836296 -0.999488115310669
 outer loop
  vertex 759500.0 5417500.0 6033.7001953125
  vertex 760500.0 5416500.0 6043.0
  vertex 759500.0 5416500.0 6060.5
 endloop
endfacet
facet normal -0.0580693818628788 -0.06733234971761703 -0.9960393309593201
 outer loop
  vertex 759500.0 5417500.0 6033.7001953125
  vertex 760500.0 5417500.0 5975.39990234375
  vertex 760500.0 5416500.0 6043.0
 endloop
endfacet
facet normal 0.0009977224981412292 -0.06744612753391266 -0.9977224469184875
 outer loop
  vertex 760500.0 5417500.0 5975.39990234375
  vertex 761500.0 5416500.0 6044.0
  vertex 760500.0 5416500.0 6043.0
 endloop
endfacet
facet normal -0.034990157932043076 -0.1031818687915802 -0.9940469264984131
 outer loop
  vertex 760500.0 5417500.0 5975.39990234375
  vertex 761500.0 5417500.0 5940.2001953125
  vertex 761500.0 5416500.0 6044.0
 endloop
endfacet
facet normal 0.006962422747164965 -0.10324259102344513 -0.994631826877594
 outer loop
  vertex 761500.0 5417500.0 5940.2001953125
  vertex 762500.0 5416500.0 6051.0
  vertex 761500.0 5416500.0 6044.0
 endloop
endfacet
facet normal 0.04425893351435661 -0.06618908792734146 -0.9968250393867493
 outer loop
  vertex 761500.0 5417500.0 5940.2001953125
  vertex 762500.0 5417500.0 5984.60009765625
  vertex 762500.0 5416500.0 6051.0
 endloop
endfacet
facet normal -0.012898611836135387 -0.005799712613224983 -0.9998999238014221
 outer loop
  vertex 755500.0 5418500.0 6064.7998046875
  vertex 756500.0 5417500.0 6057.7001953125
  vertex 755500.0 5417500.0 6070.60009765625
 endloop
endfacet
facet normal -0.027783120051026344 -0.02068777196109295 -0.9993998408317566
 outer loop
  vertex 755500.0 5418500.0 6064.7998046875
  vertex 756500.0 5418500.0 6037.0
  vertex 756500.0 5417500.0 6057.7001953125
 endloop
endfacet
facet normal -0.03017997369170189 -0.020686333999037743 -0.9993304014205933
 outer loop
  vertex 756500.0 5418500.0 6037.0
  vertex 757500.0 5417500.0 6027.5
  vertex 756500.0 5417500.0 6057.7001953125
 endloop
endfacet
facet normal -0.042936258018016815 -0.03345034271478653 -0.998517632484436
 outer loop
  vertex 756500.0 5418500.0 6037.0
  vertex 757500.0 5418500.0 5994.0
  vertex 757500.0 5417500.0 6027.5
 endloop
endfacet
facet normal 0.0012990748509764671 -0.033481188118457794 -0.9994385242462158
 outer loop
  vertex 757500.0 5418500.0 5994.0
  vertex 758500.0 5417500.0 6028.7998046875
  vertex 757500.0 5417500.0 6027.5
 endloop
endfacet
facet normal -0.006993721704930067 -0.04176231473684311 -0.9991031289100647
 outer loop
  vertex 757500.0 5418500.0 5994.0
  vertex 758500.0 5418500.0 5987.0
  vertex 758500.0 5417500.0 6028.7998046875
 endloop
endfacet
facet normal 0.004896056372672319 -0.041762832552194595 -0.999115526676178
 outer loop
  vertex 758500.0 5418500.0 5987.0
  vertex 759500.0 5417500.0 6033.7001953125
  vertex 758500.0 5417500.0 6028.7998046875
 endloop
endfacet
facet normal -0.029004646465182304 -0.07555166631937027 -0.9967198967933655
 outer loop
  vertex 758500.0 5418500.0 5987.0
  vertex 759500.0 5418500.0 5957.89990234375
  vertex 759500.0 5417500.0 6033.7001953125
 endloop
endfacet
facet normal -0.05803554132580757 -0.07545606791973114 -0.9954587817192078
 outer loop
  vertex 759500.0 5418500.0 5957.89990234375
  vertex 760500.0 5417500.0 5975.39990234375
  vertex 759500.0 5417500.0 6033.7001953125
 endloop
endfacet
facet normal 0.003699817694723606 -0.013798396103084087 -0.9998979568481445
 outer loop
  vertex 759500.0 5418500.0 5957.89990234375
  vertex 760500.0 5418500.0 5961.60009765625
  vertex 760500.0 5417500.0 5975.39990234375
 endloop
endfacet
facet normal -0.035174574702978134 -0.013789951801300049 -0.9992859959602356
 outer loop
  vertex 760500.0 5418500.0 5961.60009765625
  vertex 761500.0 5417500.0 5940.2001953125
  vertex 760500.0 5417500.0 5975.39990234375
 endloop
endfacet
facet normal -0.01049879752099514 0.010898654349148273 -0.9998854994773865
 outer loop
  vertex 760500.0 5418500.0 5961.60009765625
  vertex 761500.0 5418500.0 5951.10009765625
  vertex 761500.0 5417500.0 5940.2001953125
 endloop
endfacet
facet normal 0.04435357451438904 0.010888529010117054 -0.998956561088562
 outer loop
  vertex 761500.0 5418500.0 5951.10009765625
  vertex 762500.0 5417500.0 5984.60009765625
  vertex 761500.0 5417500.0 5940.2001953125
 endloop
endfacet
facet normal 0.006697152275592089 -0.02679007314145565 -0.999618649482727
 outer loop
  vertex 761500.0 5418500.0 5951.10009765625
  vertex 762500.0 5418500.0 5957.7998046875
  vertex 762500.0 5417500.0 5984.60009765625
 endloop
endfacet
facet normal -0.010995387099683285 -0.026789052411913872 -0.9995806217193604
 outer loop
  vertex 762500.0 5418500.0 5957.7998046875
  vertex 763500.0 5417500.0 5973.60009765625
  vertex 762500.0 5417500.0 5984.60009765625
 endloop
endfacet
facet normal 0.02209426462650299 0.006298142019659281 -0.9997360706329346
 outer loop
  vertex 762500.0 5418500.0 5957.7998046875
  vertex 763500.0 5418500.0 5979.89990234375
  vertex 763500.0 5417500.0 5973.60009765625
 endloop
endfacet
facet normal -0.029076721519231796 -0.027577927336096764 -0.9991967082023621
 outer loop
  vertex 758500.0 5419500.0 5959.39990234375
  vertex 759500.0 5418500.0 5957.89990234375
  vertex 758500.0 5418500.0 5987.0
 endloop
endfacet
facet normal -0.0296748299151659 -0.028176086023449898 -0.9991623759269714
 outer loop
  vertex 758500.0 5419500.0 5959.39990234375
  vertex 759500.0 5419500.0 5929.7001953125
  vertex 759500.0 5418500.0 5957.89990234375
 endloop
endfacet
facet normal 0.0036986996419727802 -0.02818830870091915 -0.9995957612991333
 outer loop
  vertex 759500.0 5419500.0 5929.7001953125
  vertex 760500.0 5418500.0 5961.60009765625
  vertex 759500.0 5418500.0 5957.89990234375
 endloop
endfacet
facet normal -0.0042974385432899 -0.0361761637032032 -0.9993361830711365
 outer loop
  vertex 759500.0 5419500.0 5929.7001953125
  vertex 760500.0 5419500.0 5925.39990234375
  vertex 760500.0 5418500.0 5961.60009765625
 endloop
endfacet
facet normal -0.010492549277842045 -0.036174509674310684 -0.9992904663085938
 outer loop
  vertex 760500.0 5419500.0 5925.39990234375
  vertex 761500.0 5418500.0 5951.10009765625
  vertex 760500.0 5418500.0 5961.60009765625
 endloop
endfacet
facet normal -0.024362104013562202 -0.050022486597299576 -0.9984508752822876
 outer loop
  vertex 760500.0 5419500.0 5925.39990234375
  vertex 761500.0 5419500.0 5901.0
  vertex 761500.0 5418500.0 5951.10009765625
 endloop
endfacet
facet normal 0.006691164802759886 -0.050036221742630005 -0.9987249970436096
 outer loop
  vertex 761500.0 5419500.0 5901.0
  vertex 762500.0 5418500.0 5957.7998046875
  vertex 761500.0 5418500.0 5951.10009765625
 endloop
endfacet
facet normal -0.023318666964769363 -0.07992128282785416 -0.9965283870697021
 outer loop
  vertex 761500.0 5419500.0 5901.0
  vertex 762500.0 5419500.0 5877.60009765625
  vertex 762500.0 5418500.0 5957.7998046875
 endloop
endfacet
facet normal 0.02202402427792549 -0.07992362976074219 -0.9965576529502869
 outer loop
  vertex 762500.0 5419500.0 5877.60009765625
  vertex 763500.0 5418500.0 5979.89990234375
  vertex 762500.0 5418500.0 5957.7998046875
 endloop
endfacet
facet normal -0.012516758404672146 -0.11413994431495667 -0.9933858513832092
 outer loop
  vertex 762500.0 5419500.0 5877.60009765625
  vertex 763500.0 5419500.0 5865.0
  vertex 763500.0 5418500.0 5979.89990234375
 endloop
endfacet
facet normal -0.02731006033718586 -0.11410630494356155 -0.9930930733680725
 outer loop
  vertex 763500.0 5419500.0 5865.0
  vertex 764500.0 5418500.0 5952.39990234375
  vertex 763500.0 5418500.0 5979.89990234375
 endloop
endfacet
facet normal -0.004281800705939531 -0.09131574630737305 -0.9958127737045288
 outer loop
  vertex 763500.0 5419500.0 5865.0
  vertex 764500.0 5419500.0 5860.7001953125
  vertex 764500.0 5418500.0 5952.39990234375
 endloop
endfacet
facet normal 0.0023974585346877575 -0.04505417123436928 -0.9989816546440125
 outer loop
  vertex 765500.0 5419500.0 5886.0
  vertex 766500.0 5419500.0 5888.39990234375
  vertex 766500.0 5418500.0 5933.5
 endloop
endfacet
facet normal -0.029397716745734215 -0.13917046785354614 -0.9898319840431213
 outer loop
  vertex 758500.0 5420500.0 5818.7998046875
  vertex 759500.0 5419500.0 5929.7001953125
  vertex 758500.0 5419500.0 5959.39990234375
 endloop
endfacet
facet normal 0.005071725696325302 -0.10521171987056732 -0.9944369196891785
 outer loop
  vertex 758500.0 5420500.0 5818.7998046875
  vertex 759500.0 5420500.0 5823.89990234375
  vertex 759500.0 5419500.0 5929.7001953125
 endloop
endfacet
facet normal -0.004276389721781015 -0.10521210730075836 -0.9944405555725098
 outer loop
  vertex 759500.0 5420500.0 5823.89990234375
  vertex 760500.0 5419500.0 5925.39990234375
  vertex 759500.0 5419500.0 5929.7001953125
 endloop
endfacet
facet normal -0.00795221421867609 -0.10884593427181244 -0.9940268397331238
 outer loop
  vertex 759500.0 5420500.0 5823.89990234375
  vertex 760500.0 5420500.0 5815.89990234375
  vertex 760500.0 5419500.0 5925.39990234375
 endloop
endfacet
facet normal -0.024247797206044197 -0.10881737619638443 -0.9937660098075867
 outer loop
  vertex 760500.0 5420500.0 5815.89990234375
  vertex 761500.0 5419500.0 5901.0
  vertex 760500.0 5419500.0 5925.39990234375
 endloop
endfacet
facet normal -0.0007968698628246784 -0.08558469265699387 -0.9963305592536926
 outer loop
  vertex 760500.0 5420500.0 5815.89990234375
  vertex 761500.0 5420500.0 5815.10009765625
  vertex 761500.0 5419500.0 5901.0
 endloop
endfacet
facet normal -0.023307714611291885 -0.08556147664785385 -0.9960601925849915
 outer loop
  vertex 761500.0 5420500.0 5815.10009765625
  vertex 762500.0 5419500.0 5877.60009765625
  vertex 761500.0 5419500.0 5901.0
 endloop
endfacet
facet normal 0.07161236554384232 0.009275526739656925 -0.9973893761634827
 outer loop
  vertex 761500.0 5420500.0 5815.10009765625
  vertex 762500.0 5420500.0 5886.89990234375
  vertex 762500.0 5419500.0 5877.60009765625
 endloop
endfacet
facet normal -0.012598552741110325 0.009298664517700672 -0.999877393245697
 outer loop
  vertex 762500.0 5420500.0 5886.89990234375
  vertex 763500.0 5419500.0 5865.0
  vertex 762500.0 5419500.0 5877.60009765625
 endloop
endfacet
facet normal -0.01929614506661892 0.0025996046606451273 -0.9998103976249695
 outer loop
  vertex 762500.0 5420500.0 5886.89990234375
  vertex 763500.0 5420500.0 5867.60009765625
  vertex 763500.0 5419500.0 5865.0
 endloop
endfacet
facet normal -0.004299750551581383 0.0026000647339969873 -0.9999873638153076
 outer loop
  vertex 763500.0 5420500.0 5867.60009765625
  vertex 764500.0 5419500.0 5860.7001953125
  vertex 763500.0 5419500.0 5865.0
 endloop
endfacet
facet normal -0.0018998751183971763 0.004999928642064333 -0.9999856948852539
 outer loop
  vertex 763500.0 5420500.0 5867.60009765625
  vertex 764500.0 5420500.0 5865.7001953125
  vertex 764500.0 5419500.0 5860.7001953125
 endloop
endfacet
facet normal 0.02529139444231987 0.00499833794310689 -0.9996675848960876
 outer loop
  vertex 764500.0 5420500.0 5865.7001953125
  vertex 765500.0 5419500.0 5886.0
  vertex 764500.0 5419500.0 5860.7001953125
 endloop
endfacet
facet normal -0.03721277788281441 -0.057464953511953354 -0.9976537823677063
 outer loop
  vertex 764500.0 5420500.0 5865.7001953125
  vertex 765500.0 5420500.0 5828.39990234375
  vertex 765500.0 5419500.0 5886.0
 endloop
endfacet
facet normal 0.0023959241807460785 -0.05750461667776108 -0.9983423948287964
 outer loop
  vertex 765500.0 5420500.0 5828.39990234375
  vertex 766500.0 5419500.0 5888.39990234375
  vertex 765500.0 5419500.0 5886.0
 endloop
endfacet
facet normal 0.006790533661842346 -0.0531233586370945 -0.9985648989677429
 outer loop
  vertex 765500.0 5420500.0 5828.39990234375
  vertex 766500.0 5420500.0 5835.2001953125
  vertex 766500.0 5419500.0 5888.39990234375
 endloop
endfacet
facet normal -0.01787177100777626 -0.053116098046302795 -0.9984284043312073
 outer loop
  vertex 766500.0 5420500.0 5835.2001953125
  vertex 767500.0 5419500.0 5870.5
  vertex 766500.0 5419500.0 5888.39990234375
 endloop
endfacet
facet normal 0.0020984485745429993 -0.03318183869123459 -0.9994471073150635
 outer loop
  vertex 766500.0 5420500.0 5835.2001953125
  vertex 767500.0 5420500.0 5837.2998046875
  vertex 767500.0 5419500.0 5870.5
 endloop
endfacet
facet normal 0.00510002626106143 0.0014003709657117724 -0.9999859929084778
 outer loop
  vertex 758500.0 5421500.0 5820.2001953125
  vertex 759500.0 5420500.0 5823.89990234375
  vertex 758500.0 5420500.0 5818.7998046875
 endloop
endfacet
facet normal 0.009699076414108276 0.0059996098279953 -0.99993497133255
 outer loop
  vertex 758500.0 5421500.0 5820.2001953125
  vertex 759500.0 5421500.0 5829.89990234375
  vertex 759500.0 5420500.0 5823.89990234375
 endloop
endfacet
facet normal -0.007999599911272526 0.005999700166285038 -0.9999499917030334
 outer loop
  vertex 759500.0 5421500.0 5829.89990234375
  vertex 760500.0 5420500.0 5815.89990234375
  vertex 759500.0 5420500.0 5823.89990234375
 endloop
endfacet
facet normal -0.00879934523254633 0.005199923645704985 -0.999947726726532
 outer loop
  vertex 759500.0 5421500.0 5829.89990234375
  vertex 760500.0 5421500.0 5821.10009765625
  vertex 760500.0 5420500.0 5815.89990234375
 endloop
endfacet
facet normal -0.0007997936336323619 0.00520012341439724 -0.9999861717224121
 outer loop
  vertex 760500.0 5421500.0 5821.10009765625
  vertex 761500.0 5420500.0 5815.10009765625
  vertex 760500.0 5420500.0 5815.89990234375
 endloop
endfacet
facet normal 0.0004999893717467785 0.00649986183270812 -0.9999787211418152
 outer loop
  vertex 760500.0 5421500.0 5821.10009765625
  vertex 761500.0 5421500.0 5821.60009765625
  vertex 761500.0 5420500.0 5815.10009765625
 endloop
endfacet
facet normal 0.07161393761634827 0.006483173929154873 -0.9974113702774048
 outer loop
  vertex 761500.0 5421500.0 5821.60009765625
  vertex 762500.0 5420500.0 5886.89990234375
  vertex 761500.0 5420500.0 5815.10009765625
 endloop
endfacet
facet normal -0.03351740911602974 -0.0984630286693573 -0.994576096534729
 outer loop
  vertex 761500.0 5421500.0 5821.60009765625
  vertex 762500.0 5421500.0 5787.89990234375
  vertex 762500.0 5420500.0 5886.89990234375
 endloop
endfacet
facet normal -0.019202373921871185 -0.09850022196769714 -0.9949517250061035
 outer loop
  vertex 762500.0 5421500.0 5787.89990234375
  vertex 763500.0 5420500.0 5867.60009765625
  vertex 762500.0 5420500.0 5886.89990234375
 endloop
endfacet
facet normal 0.01696423999965191 -0.0625683069229126 -0.9978964924812317
 outer loop
  vertex 762500.0 5421500.0 5787.89990234375
  vertex 763500.0 5421500.0 5804.89990234375
  vertex 763500.0 5420500.0 5867.60009765625
 endloop
endfacet
facet normal -0.0018961754394695163 -0.06257720291614532 -0.9980383515357971
 outer loop
  vertex 763500.0 5421500.0 5804.89990234375
  vertex 764500.0 5420500.0 5865.7001953125
  vertex 763500.0 5420500.0 5867.60009765625
 endloop
endfacet
facet normal 0.033568743616342545 -0.0271748136729002 -0.9990668892860413
 outer loop
  vertex 763500.0 5421500.0 5804.89990234375
  vertex 764500.0 5421500.0 5838.5
  vertex 764500.0 5420500.0 5865.7001953125
 endloop
endfacet
facet normal -0.03726061061024666 -0.027171257883310318 -0.998936116695404
 outer loop
  vertex 764500.0 5421500.0 5838.5
  vertex 765500.0 5420500.0 5828.39990234375
  vertex 764500.0 5420500.0 5865.7001953125
 endloop
endfacet
facet normal -0.04671725630760193 -0.03663497418165207 -0.9982361197471619
 outer loop
  vertex 764500.0 5421500.0 5838.5
  vertex 765500.0 5421500.0 5791.7001953125
  vertex 765500.0 5420500.0 5828.39990234375
 endloop
endfacet
facet normal 0.0067955609411001205 -0.036674171686172485 -0.9993041753768921
 outer loop
  vertex 765500.0 5421500.0 5791.7001953125
  vertex 766500.0 5420500.0 5835.2001953125
  vertex 765500.0 5420500.0 5828.39990234375
 endloop
endfacet
facet normal 0.04365804046392441 0.00019951662397943437 -0.9990465641021729
 outer loop
  vertex 765500.0 5421500.0 5791.7001953125
  vertex 766500.0 5421500.0 5835.39990234375
  vertex 766500.0 5420500.0 5835.2001953125
 endloop
endfacet
facet normal 0.0020996045786887407 0.00019970658468082547 -0.9999977350234985
 outer loop
  vertex 766500.0 5421500.0 5835.39990234375
  vertex 767500.0 5420500.0 5837.2998046875
  vertex 766500.0 5420500.0 5835.2001953125
 endloop
endfacet
facet normal 0.0008999014971777797 -0.0009999991161748767 -0.9999990463256836
 outer loop
  vertex 766500.0 5421500.0 5835.39990234375
  vertex 767500.0 5421500.0 5836.2998046875
  vertex 767500.0 5420500.0 5837.2998046875
 endloop
endfacet
facet normal 0.009698685258626938 0.010798667557537556 -0.9998946785926819
 outer loop
  vertex 758500.0 5422500.0 5831.0
  vertex 759500.0 5421500.0 5829.89990234375
  vertex 758500.0 5421500.0 5820.2001953125
 endloop
endfacet
facet normal -0.005899731535464525 -0.004799665883183479 -0.9999710917472839
 outer loop
  vertex 758500.0 5422500.0 5831.0
  vertex 759500.0 5422500.0 5825.10009765625
  vertex 759500.0 5421500.0 5829.89990234375
 endloop
endfacet
facet normal -0.008799362927675247 -0.004799563437700272 -0.9999497532844543
 outer loop
  vertex 759500.0 5422500.0 5825.10009765625
  vertex 760500.0 5421500.0 5821.10009765625
  vertex 759500.0 5421500.0 5829.89990234375
 endloop
endfacet
facet normal -0.0001000968914013356 0.003899872535839677 -0.9999923706054688
 outer loop
  vertex 759500.0 5422500.0 5825.10009765625
  vertex 760500.0 5422500.0 5825.0
  vertex 760500.0 5421500.0 5821.10009765625
 endloop
endfacet
facet normal 0.0004999961238354445 0.0038998720701783895 -0.9999922513961792
 outer loop
  vertex 760500.0 5422500.0 5825.0
  vertex 761500.0 5421500.0 5821.60009765625
  vertex 760500.0 5421500.0 5821.10009765625
 endloop
endfacet
facet normal -0.004499951843172312 -0.0011000859085470438 -0.9999893307685852
 outer loop
  vertex 760500.0 5422500.0 5825.0
  vertex 761500.0 5422500.0 5820.5
  vertex 761500.0 5421500.0 5821.60009765625
 endloop
endfacet
facet normal -0.033681053668260574 -0.0010994728654623032 -0.9994320273399353
 outer loop
  vertex 761500.0 5422500.0 5820.5
  vertex 762500.0 5421500.0 5787.89990234375
  vertex 761500.0 5421500.0 5821.60009765625
 endloop
endfacet
facet normal 0.04365377128124237 0.0139852836728096 -0.998948872089386
 outer loop
  vertex 765500.0 5422500.0 5805.7001953125
  vertex 766500.0 5421500.0 5835.39990234375
  vertex 765500.0 5421500.0 5791.7001953125
 endloop
endfacet
facet normal 0.005898129660636187 -0.023792654275894165 -0.9996995329856873
 outer loop
  vertex 765500.0 5422500.0 5805.7001953125
  vertex 766500.0 5422500.0 5811.60009765625
  vertex 766500.0 5421500.0 5835.39990234375
 endloop
endfacet
facet normal 0.0008996472461149096 -0.023793058469891548 -0.9997165203094482
 outer loop
  vertex 766500.0 5422500.0 5811.60009765625
  vertex 767500.0 5421500.0 5836.2998046875
  vertex 766500.0 5421500.0 5835.39990234375
 endloop
endfacet
facet normal 0.03318022936582565 0.008495013229548931 -0.9994133114814758
 outer loop
  vertex 766500.0 5422500.0 5811.60009765625
  vertex 767500.0 5422500.0 5844.7998046875
  vertex 767500.0 5421500.0 5836.2998046875
 endloop
endfacet
facet normal -0.005899767857044935 0.0032997294329106808 -0.999977171421051
 outer loop
  vertex 758500.0 5423500.0 5834.2998046875
  vertex 759500.0 5422500.0 5825.10009765625
  vertex 758500.0 5422500.0 5831.0
 endloop
endfacet
facet normal -0.010399332270026207 -0.0012001295108348131 -0.9999451637268066
 outer loop
  vertex 758500.0 5423500.0 5834.2998046875
  vertex 759500.0 5423500.0 5823.89990234375
  vertex 759500.0 5422500.0 5825.10009765625
 endloop
endfacet
facet normal -0.00010009758261730894 -0.0012001943541690707 -0.9999992251396179
 outer loop
  vertex 759500.0 5423500.0 5823.89990234375
  vertex 760500.0 5422500.0 5825.0
  vertex 759500.0 5422500.0 5825.10009765625
 endloop
endfacet
facet normal 0.001800289610400796 0.0007001939811743796 -0.999998152256012
 outer loop
  vertex 759500.0 5423500.0 5823.89990234375
  vertex 760500.0 5423500.0 5825.7001953125
  vertex 760500.0 5422500.0 5825.0
 endloop
endfacet
facet normal -0.004499953240156174 0.0007001880439929664 -0.9999896287918091
 outer loop
  vertex 760500.0 5423500.0 5825.7001953125
  vertex 761500.0 5422500.0 5820.5
  vertex 760500.0 5422500.0 5825.0
 endloop
endfacet
facet normal -0.010299612767994404 -0.0050997608341276646 -0.9999339580535889
 outer loop
  vertex 760500.0 5423500.0 5825.7001953125
  vertex 761500.0 5423500.0 5815.39990234375
  vertex 761500.0 5422500.0 5820.5
 endloop
endfacet
endsolid
