solid
facet normal 0.11767511069774628 0.09969291090965271 -0.9880353808403015
 outer loop
  vertex 571500.0 6013500.0 3078.5
  vertex 572500.0 6013500.0 3197.60009765625
  vertex 572500.0 6012500.0 3096.699951171875
 endloop
endfacet
facet normal -0.02407071366906166 0.10036132484674454 -0.9946598410606384
 outer loop
  vertex 572500.0 6013500.0 3197.60009765625
  vertex 573500.0 6012500.0 3072.5
  vertex 572500.0 6012500.0 3096.699951171875
 endloop
endfacet
facet normal -0.03144730627536774 0.09304791688919067 -0.9951648712158203
 outer loop
  vertex 572500.0 6013500.0 3197.60009765625
  vertex 573500.0 6013500.0 3166.0
  vertex 573500.0 6012500.0 3072.5
 endloop
endfacet
facet normal 0.03810602426528931 0.09302634745836258 -0.9949341416358948
 outer loop
  vertex 573500.0 6013500.0 3166.0
  vertex 574500.0 6012500.0 3110.800048828125
  vertex 573500.0 6012500.0 3072.5
 endloop
endfacet
facet normal -0.02228245697915554 0.03287395089864731 -0.9992111325263977
 outer loop
  vertex 573500.0 6013500.0 3166.0
  vertex 574500.0 6013500.0 3143.699951171875
  vertex 574500.0 6012500.0 3110.800048828125
 endloop
endfacet
facet normal 0.030968375504016876 0.03286634013056755 -0.9989798665046692
 outer loop
  vertex 574500.0 6013500.0 3143.699951171875
  vertex 575500.0 6012500.0 3141.800048828125
  vertex 574500.0 6012500.0 3110.800048828125
 endloop
endfacet
facet normal 0.05195404216647148 0.053848616778850555 -0.997196614742279
 outer loop
  vertex 574500.0 6013500.0 3143.699951171875
  vertex 575500.0 6013500.0 3195.800048828125
  vertex 575500.0 6012500.0 3141.800048828125
 endloop
endfacet
facet normal 0.15391682088375092 0.05327890068292618 -0.986646294593811
 outer loop
  vertex 575500.0 6013500.0 3195.800048828125
  vertex 576500.0 6012500.0 3297.800048828125
  vertex 575500.0 6012500.0 3141.800048828125
 endloop
endfacet
facet normal -0.0791369378566742 -0.17916136980056763 -0.9806317090988159
 outer loop
  vertex 575500.0 6013500.0 3195.800048828125
  vertex 576500.0 6013500.0 3115.10009765625
  vertex 576500.0 6012500.0 3297.800048828125
 endloop
endfacet
facet normal 0.11784623563289642 -0.08400609344244003 -0.9894722104072571
 outer loop
  vertex 571500.0 6014500.0 2993.60009765625
  vertex 572500.0 6013500.0 3197.60009765625
  vertex 571500.0 6013500.0 3078.5
 endloop
endfacet
facet normal 0.11764893680810928 -0.08420474082231522 -0.9894788265228271
 outer loop
  vertex 571500.0 6014500.0 2993.60009765625
  vertex 572500.0 6014500.0 3112.5
  vertex 572500.0 6013500.0 3197.60009765625
 endloop
endfacet
facet normal -0.03147069364786148 -0.08475161343812943 -0.9959050416946411
 outer loop
  vertex 572500.0 6014500.0 3112.5
  vertex 573500.0 6013500.0 3166.0
  vertex 572500.0 6013500.0 3197.60009765625
 endloop
endfacet
facet normal 0.04714652895927429 -0.006292916368693113 -0.9988681674003601
 outer loop
  vertex 572500.0 6014500.0 3112.5
  vertex 573500.0 6014500.0 3159.699951171875
  vertex 573500.0 6013500.0 3166.0
 endloop
endfacet
facet normal -0.022294064983725548 -0.006298358086496592 -0.9997316598892212
 outer loop
  vertex 573500.0 6014500.0 3159.699951171875
  vertex 574500.0 6013500.0 3143.699951171875
  vertex 573500.0 6013500.0 3166.0
 endloop
endfacet
facet normal -0.025090912356972694 -0.00909661129117012 -0.9996437430381775
 outer loop
  vertex 573500.0 6014500.0 3159.699951171875
  vertex 574500.0 6014500.0 3134.60009765625
  vertex 574500.0 6013500.0 3143.699951171875
 endloop
endfacet
facet normal 0.0520273856818676 -0.009087152779102325 -0.9986042976379395
 outer loop
  vertex 574500.0 6014500.0 3134.60009765625
  vertex 575500.0 6013500.0 3195.800048828125
  vertex 574500.0 6013500.0 3143.699951171875
 endloop
endfacet
facet normal -0.06816542148590088 -0.1287127584218979 -0.989336371421814
 outer loop
  vertex 574500.0 6014500.0 3134.60009765625
  vertex 575500.0 6014500.0 3065.699951171875
  vertex 575500.0 6013500.0 3195.800048828125
 endloop
endfacet
facet normal -0.0797705128788948 -0.12860170006752014 -0.9884828329086304
 outer loop
  vertex 575500.0 6014500.0 3065.699951171875
  vertex 576500.0 6013500.0 3115.10009765625
  vertex 575500.0 6013500.0 3195.800048828125
 endloop
endfacet
facet normal -0.03723396733403206 -0.08641493320465088 -0.9955632090568542
 outer loop
  vertex 575500.0 6014500.0 3065.699951171875
  vertex 576500.0 6014500.0 3028.300048828125
  vertex 576500.0 6013500.0 3115.10009765625
 endloop
endfacet
facet normal -0.14818255603313446 -0.08552021533250809 -0.9852554202079773
 outer loop
  vertex 576500.0 6014500.0 3028.300048828125
  vertex 577500.0 6013500.0 2964.699951171875
  vertex 576500.0 6013500.0 3115.10009765625
 endloop
endfacet
facet normal 0.09149482101202011 0.1540655642747879 -0.9838152527809143
 outer loop
  vertex 576500.0 6014500.0 3028.300048828125
  vertex 577500.0 6014500.0 3121.300048828125
  vertex 577500.0 6013500.0 2964.699951171875
 endloop
endfacet
facet normal 0.11583498120307922 -0.19357821345329285 -0.9742226004600525
 outer loop
  vertex 571500.0 6015500.0 2794.89990234375
  vertex 572500.0 6014500.0 3112.5
  vertex 571500.0 6014500.0 2993.60009765625
 endloop
endfacet
facet normal 0.012243011966347694 -0.2915356457233429 -0.9564816355705261
 outer loop
  vertex 571500.0 6015500.0 2794.89990234375
  vertex 572500.0 6015500.0 2807.699951171875
  vertex 572500.0 6014500.0 3112.5
 endloop
endfacet
facet normal 0.04510330781340599 -0.2912607789039612 -0.9555798172950745
 outer loop
  vertex 572500.0 6015500.0 2807.699951171875
  vertex 573500.0 6014500.0 3159.699951171875
  vertex 572500.0 6014500.0 3112.5
 endloop
endfacet
facet normal 0.19022177159786224 -0.15122662484645844 -0.9700238108634949
 outer loop
  vertex 572500.0 6015500.0 2807.699951171875
  vertex 573500.0 6015500.0 3003.800048828125
  vertex 573500.0 6014500.0 3159.699951171875
 endloop
endfacet
facet normal -0.024792661890387535 -0.15399184823036194 -0.9877610206604004
 outer loop
  vertex 573500.0 6015500.0 3003.800048828125
  vertex 574500.0 6014500.0 3134.60009765625
  vertex 573500.0 6014500.0 3159.699951171875
 endloop
endfacet
facet normal 0.07934515178203583 -0.05087260901927948 -0.9955483078956604
 outer loop
  vertex 573500.0 6015500.0 3003.800048828125
  vertex 574500.0 6015500.0 3083.5
  vertex 574500.0 6014500.0 3134.60009765625
 endloop
endfacet
facet normal -0.06864804029464722 -0.050913117825984955 -0.9963409304618835
 outer loop
  vertex 574500.0 6015500.0 3083.5
  vertex 575500.0 6014500.0 3065.699951171875
  vertex 574500.0 6014500.0 3134.60009765625
 endloop
endfacet
facet normal -0.0501105897128582 -0.032342229038476944 -0.9982198476791382
 outer loop
  vertex 574500.0 6015500.0 3083.5
  vertex 575500.0 6015500.0 3033.300048828125
  vertex 575500.0 6014500.0 3065.699951171875
 endloop
endfacet
facet normal -0.03735420107841492 -0.03236030787229538 -0.9987779855728149
 outer loop
  vertex 575500.0 6015500.0 3033.300048828125
  vertex 576500.0 6014500.0 3028.300048828125
  vertex 575500.0 6014500.0 3065.699951171875
 endloop
endfacet
facet normal -0.053162697702646255 -0.04817558079957962 -0.9974231123924255
 outer loop
  vertex 575500.0 6015500.0 3033.300048828125
  vertex 576500.0 6015500.0 2980.0
  vertex 576500.0 6014500.0 3028.300048828125
 endloop
endfacet
facet normal 0.09249351173639297 -0.04803700000047684 -0.9945538640022278
 outer loop
  vertex 576500.0 6015500.0 2980.0
  vertex 577500.0 6014500.0 3121.300048828125
  vertex 576500.0 6014500.0 3028.300048828125
 endloop
endfacet
facet normal 0.17380402982234955 0.034741152077913284 -0.9841672778129578
 outer loop
  vertex 576500.0 6015500.0 2980.0
  vertex 577500.0 6015500.0 3156.60009765625
  vertex 577500.0 6014500.0 3121.300048828125
 endloop
endfacet
facet normal 0.007698968518525362 -0.013998213224112988 -0.9998723864555359
 outer loop
  vertex 568500.0 6016500.0 2755.10009765625
  vertex 569500.0 6016500.0 2762.800048828125
  vertex 569500.0 6015500.0 2776.800048828125
 endloop
endfacet
facet normal 0.18925802409648895 0.1935899704694748 -0.9626548290252686
 outer loop
  vertex 570500.0 6016500.0 2799.39990234375
  vertex 571500.0 6016500.0 2996.0
  vertex 571500.0 6015500.0 2794.89990234375
 endloop
endfacet
facet normal 0.012547829188406467 0.19713753461837769 -0.9802955985069275
 outer loop
  vertex 571500.0 6016500.0 2996.0
  vertex 572500.0 6015500.0 2807.699951171875
  vertex 571500.0 6015500.0 2794.89990234375
 endloop
endfacet
facet normal 0.0008842152310535312 0.18590180575847626 -0.9825679659843445
 outer loop
  vertex 571500.0 6016500.0 2996.0
  vertex 572500.0 6016500.0 2996.89990234375
  vertex 572500.0 6015500.0 2807.699951171875
 endloop
endfacet
facet normal 0.18920156359672546 0.18254417181015015 -0.9648213982582092
 outer loop
  vertex 572500.0 6016500.0 2996.89990234375
  vertex 573500.0 6015500.0 3003.800048828125
  vertex 572500.0 6015500.0 2807.699951171875
 endloop
endfacet
facet normal -0.13333387672901154 -0.14010372757911682 -0.9811182618141174
 outer loop
  vertex 572500.0 6016500.0 2996.89990234375
  vertex 573500.0 6016500.0 2861.0
  vertex 573500.0 6015500.0 3003.800048828125
 endloop
endfacet
facet normal 0.07865511626005173 -0.1409280002117157 -0.9868903756141663
 outer loop
  vertex 573500.0 6016500.0 2861.0
  vertex 574500.0 6015500.0 3083.5
  vertex 573500.0 6015500.0 3003.800048828125
 endloop
endfacet
facet normal 0.1645694226026535 -0.05456089228391647 -0.9848553538322449
 outer loop
  vertex 573500.0 6016500.0 2861.0
  vertex 574500.0 6016500.0 3028.10009765625
  vertex 574500.0 6015500.0 3083.5
 endloop
endfacet
facet normal -0.050060249865055084 -0.05524572730064392 -0.997217059135437
 outer loop
  vertex 574500.0 6016500.0 3028.10009765625
  vertex 575500.0 6015500.0 3033.300048828125
  vertex 574500.0 6015500.0 3083.5
 endloop
endfacet
facet normal 0.10720580816268921 0.1020631343126297 -0.9889843463897705
 outer loop
  vertex 574500.0 6016500.0 3028.10009765625
  vertex 575500.0 6016500.0 3136.5
  vertex 575500.0 6015500.0 3033.300048828125
 endloop
endfacet
facet normal -0.05294410511851311 0.10251078009605408 -0.99332195520401
 outer loop
  vertex 575500.0 6016500.0 3136.5
  vertex 576500.0 6015500.0 2980.0
  vertex 575500.0 6015500.0 3033.300048828125
 endloop
endfacet
facet normal 0.043198343366384506 0.19649824500083923 -0.9795520901679993
 outer loop
  vertex 575500.0 6016500.0 3136.5
  vertex 576500.0 6016500.0 3180.60009765625
  vertex 576500.0 6015500.0 2980.0
 endloop
endfacet
facet normal 0.17061194777488708 0.19379815459251404 -0.966092050075531
 outer loop
  vertex 576500.0 6016500.0 3180.60009765625
  vertex 577500.0 6015500.0 3156.60009765625
  vertex 576500.0 6015500.0 2980.0
 endloop
endfacet
facet normal 0.00769956037402153 0.0064996699802577496 -0.9999492764472961
 outer loop
  vertex 568500.0 6017500.0 2761.60009765625
  vertex 569500.0 6016500.0 2762.800048828125
  vertex 568500.0 6016500.0 2755.10009765625
 endloop
endfacet
facet normal 0.09153329581022263 0.09034330397844315 -0.9916954040527344
 outer loop
  vertex 568500.0 6017500.0 2761.60009765625
  vertex 569500.0 6017500.0 2853.89990234375
  vertex 569500.0 6016500.0 2762.800048828125
 endloop
endfacet
facet normal 0.036424729973077774 0.09066395461559296 -0.9952151775360107
 outer loop
  vertex 569500.0 6017500.0 2853.89990234375
  vertex 570500.0 6016500.0 2799.39990234375
  vertex 569500.0 6016500.0 2762.800048828125
 endloop
endfacet
facet normal -0.019384318962693214 0.035071905702352524 -0.9991967678070068
 outer loop
  vertex 569500.0 6017500.0 2853.89990234375
  vertex 570500.0 6017500.0 2834.5
  vertex 570500.0 6016500.0 2799.39990234375
 endloop
endfacet
facet normal 0.19279302656650543 0.034420400857925415 -0.9806355237960815
 outer loop
  vertex 570500.0 6017500.0 2834.5
  vertex 571500.0 6016500.0 2996.0
  vertex 570500.0 6016500.0 2799.39990234375
 endloop
endfacet
facet normal 0.0646640807390213 -0.09575425833463669 -0.9933024048805237
 outer loop
  vertex 570500.0 6017500.0 2834.5
  vertex 571500.0 6017500.0 2899.60009765625
  vertex 571500.0 6016500.0 2996.0
 endloop
endfacet
facet normal 0.0008957456448115408 -0.09595504403114319 -0.9953852891921997
 outer loop
  vertex 571500.0 6017500.0 2899.60009765625
  vertex 572500.0 6016500.0 2996.89990234375
  vertex 571500.0 6016500.0 2996.0
 endloop
endfacet
facet normal -0.08189184218645096 -0.17731772363185883 -0.9807406663894653
 outer loop
  vertex 571500.0 6017500.0 2899.60009765625
  vertex 572500.0 6017500.0 2816.10009765625
  vertex 572500.0 6016500.0 2996.89990234375
 endloop
endfacet
facet normal -0.13255169987678528 -0.17634539306163788 -0.9753627181053162
 outer loop
  vertex 572500.0 6017500.0 2816.10009765625
  vertex 573500.0 6016500.0 2861.0
  vertex 572500.0 6016500.0 2996.89990234375
 endloop
endfacet
facet normal -0.06663347780704498 -0.1111547201871872 -0.9915667176246643
 outer loop
  vertex 572500.0 6017500.0 2816.10009765625
  vertex 573500.0 6017500.0 2748.89990234375
  vertex 573500.0 6016500.0 2861.0
 endloop
endfacet
facet normal 0.1638166308403015 -0.10989736020565033 -0.9803503155708313
 outer loop
  vertex 573500.0 6017500.0 2748.89990234375
  vertex 574500.0 6016500.0 3028.10009765625
  vertex 573500.0 6016500.0 2861.0
 endloop
endfacet
facet normal 0.15895307064056396 -0.11482670158147812 -0.9805859327316284
 outer loop
  vertex 573500.0 6017500.0 2748.89990234375
  vertex 574500.0 6017500.0 2911.0
  vertex 574500.0 6016500.0 3028.10009765625
 endloop
endfacet
facet normal 0.10704562813043594 -0.11563711613416672 -0.987506628036499
 outer loop
  vertex 574500.0 6017500.0 2911.0
  vertex 575500.0 6016500.0 3136.5
  vertex 574500.0 6016500.0 3028.10009765625
 endloop
endfacet
facet normal 0.06801237910985947 -0.15425996482372284 -0.9856866598129272
 outer loop
  vertex 574500.0 6017500.0 2911.0
  vertex 575500.0 6017500.0 2980.0
  vertex 575500.0 6016500.0 3136.5
 endloop
endfacet
facet normal 0.04352846369147301 -0.15447142720222473 -0.9870378971099854
 outer loop
  vertex 575500.0 6017500.0 2980.0
  vertex 576500.0 6016500.0 3180.60009765625
  vertex 575500.0 6016500.0 3136.5
 endloop
endfacet
facet normal 0.213709756731987 0.01777653954923153 -0.9767354726791382
 outer loop
  vertex 575500.0 6017500.0 2980.0
  vertex 576500.0 6017500.0 3198.800048828125
  vertex 576500.0 6016500.0 3180.60009765625
 endloop
endfacet
facet normal -0.0036268862895667553 0.1977168768644333 -0.9802524447441101
 outer loop
  vertex 567500.0 6018500.0 2967.0
  vertex 568500.0 6018500.0 2963.300048828125
  vertex 568500.0 6017500.0 2761.60009765625
 endloop
endfacet
facet normal 0.09010963141918182 0.19691382348537445 -0.9762710332870483
 outer loop
  vertex 568500.0 6018500.0 2963.300048828125
  vertex 569500.0 6017500.0 2853.89990234375
  vertex 568500.0 6017500.0 2761.60009765625
 endloop
endfacet
facet normal -0.1421569585800171 -0.03393150493502617 -0.9892623424530029
 outer loop
  vertex 568500.0 6018500.0 2963.300048828125
  vertex 569500.0 6018500.0 2819.60009765625
  vertex 569500.0 6017500.0 2853.89990234375
 endloop
endfacet
facet normal -0.019384857267141342 -0.03427320346236229 -0.9992244839668274
 outer loop
  vertex 569500.0 6018500.0 2819.60009765625
  vertex 570500.0 6017500.0 2834.5
  vertex 569500.0 6017500.0 2853.89990234375
 endloop
endfacet
facet normal 0.1290380358695984 0.11436128616333008 -0.9850232005119324
 outer loop
  vertex 569500.0 6018500.0 2819.60009765625
  vertex 570500.0 6018500.0 2950.60009765625
  vertex 570500.0 6017500.0 2834.5
 endloop
endfacet
facet normal 0.06453094631433487 0.11508507281541824 -0.99125736951828
 outer loop
  vertex 570500.0 6018500.0 2950.60009765625
  vertex 571500.0 6017500.0 2899.60009765625
  vertex 570500.0 6017500.0 2834.5
 endloop
endfacet
facet normal -0.040564488619565964 0.010390780866146088 -0.9991229176521301
 outer loop
  vertex 570500.0 6018500.0 2950.60009765625
  vertex 571500.0 6018500.0 2910.0
  vertex 571500.0 6017500.0 2899.60009765625
 endloop
endfacet
facet normal -0.08320595324039459 0.010363278910517693 -0.9964784979820251
 outer loop
  vertex 571500.0 6018500.0 2910.0
  vertex 572500.0 6017500.0 2816.10009765625
  vertex 571500.0 6017500.0 2899.60009765625
 endloop
endfacet
facet normal 0.06133998557925224 0.15394164621829987 -0.9861741662025452
 outer loop
  vertex 571500.0 6018500.0 2910.0
  vertex 572500.0 6018500.0 2972.199951171875
  vertex 572500.0 6017500.0 2816.10009765625
 endloop
endfacet
facet normal -0.06625024229288101 0.15389323234558105 -0.985863983631134
 outer loop
  vertex 572500.0 6018500.0 2972.199951171875
  vertex 573500.0 6017500.0 2748.89990234375
  vertex 572500.0 6017500.0 2816.10009765625
 endloop
endfacet
facet normal -0.2620861828327179 -0.04684573411941528 -0.9639068245887756
 outer loop
  vertex 572500.0 6018500.0 2972.199951171875
  vertex 573500.0 6018500.0 2700.300048828125
  vertex 573500.0 6017500.0 2748.89990234375
 endloop
endfacet
facet normal 0.15982764959335327 -0.04791853949427605 -0.9859811663627625
 outer loop
  vertex 573500.0 6018500.0 2700.300048828125
  vertex 574500.0 6017500.0 2911.0
  vertex 573500.0 6017500.0 2748.89990234375
 endloop
endfacet
facet normal 0.1437826156616211 -0.06428757309913635 -0.9875189065933228
 outer loop
  vertex 573500.0 6018500.0 2700.300048828125
  vertex 574500.0 6018500.0 2845.89990234375
  vertex 574500.0 6017500.0 2911.0
 endloop
endfacet
facet normal 0.06869161128997803 -0.06480914354324341 -0.9955306053161621
 outer loop
  vertex 574500.0 6018500.0 2845.89990234375
  vertex 575500.0 6017500.0 2980.0
  vertex 574500.0 6017500.0 2911.0
 endloop
endfacet
facet normal 0.09559103101491928 -0.03779870644211769 -0.9947027564048767
 outer loop
  vertex 574500.0 6018500.0 2845.89990234375
  vertex 575500.0 6018500.0 2942.0
  vertex 575500.0 6017500.0 2980.0
 endloop
endfacet
facet normal 0.2135964184999466 -0.037096261978149414 -0.9762173891067505
 outer loop
  vertex 575500.0 6018500.0 2942.0
  vertex 576500.0 6017500.0 3198.800048828125
  vertex 575500.0 6017500.0 2980.0
 endloop
endfacet
facet normal -0.044454313814640045 -0.2899568974971771 -0.9560067057609558
 outer loop
  vertex 575500.0 6018500.0 2942.0
  vertex 576500.0 6018500.0 2895.5
  vertex 576500.0 6017500.0 3198.800048828125
 endloop
endfacet
facet normal -0.003697015577927232 -0.039668433368206024 -0.9992060661315918
 outer loop
  vertex 567500.0 6019500.0 2927.300048828125
  vertex 568500.0 6018500.0 2963.300048828125
  vertex 567500.0 6018500.0 2967.0
 endloop
endfacet
facet normal 0.01659444533288479 -0.01939382590353489 -0.9996741414070129
 outer loop
  vertex 567500.0 6019500.0 2927.300048828125
  vertex 568500.0 6019500.0 2943.89990234375
  vertex 568500.0 6018500.0 2963.300048828125
 endloop
endfacet
facet normal -0.1422126442193985 -0.019199354574084282 -0.9896499514579773
 outer loop
  vertex 568500.0 6019500.0 2943.89990234375
  vertex 569500.0 6018500.0 2819.60009765625
  vertex 568500.0 6018500.0 2963.300048828125
 endloop
endfacet
facet normal -0.026065926998853683 0.09759802371263504 -0.9948845505714417
 outer loop
  vertex 568500.0 6019500.0 2943.89990234375
  vertex 569500.0 6019500.0 2917.699951171875
  vertex 569500.0 6018500.0 2819.60009765625
 endloop
endfacet
facet normal 0.12928007543087006 0.09681188315153122 -0.9868708848953247
 outer loop
  vertex 569500.0 6019500.0 2917.699951171875
  vertex 570500.0 6018500.0 2950.60009765625
  vertex 569500.0 6018500.0 2819.60009765625
 endloop
endfacet
facet normal -0.08819732815027237 -0.12072767317295074 -0.9887598156929016
 outer loop
  vertex 569500.0 6019500.0 2917.699951171875
  vertex 570500.0 6019500.0 2828.5
  vertex 570500.0 6018500.0 2950.60009765625
 endloop
endfacet
facet normal -0.040268104523420334 -0.12110167741775513 -0.9918229579925537
 outer loop
  vertex 570500.0 6019500.0 2828.5
  vertex 571500.0 6018500.0 2910.0
  vertex 570500.0 6018500.0 2950.60009765625
 endloop
endfacet
facet normal 0.08617712557315826 0.004981336649507284 -0.9962673783302307
 outer loop
  vertex 570500.0 6019500.0 2828.5
  vertex 571500.0 6019500.0 2915.0
  vertex 571500.0 6018500.0 2910.0
 endloop
endfacet
facet normal 0.062079209834337234 0.004990294110029936 -0.9980587959289551
 outer loop
  vertex 571500.0 6019500.0 2915.0
  vertex 572500.0 6018500.0 2972.199951171875
  vertex 571500.0 6018500.0 2910.0
 endloop
endfacet
facet normal -0.08868963271379471 -0.14505676925182343 -0.9854403734207153
 outer loop
  vertex 571500.0 6019500.0 2915.0
  vertex 572500.0 6019500.0 2825.0
  vertex 572500.0 6018500.0 2972.199951171875
 endloop
endfacet
facet normal -0.25976675748825073 -0.14063136279582977 -0.955376386642456
 outer loop
  vertex 572500.0 6019500.0 2825.0
  vertex 573500.0 6018500.0 2700.300048828125
  vertex 572500.0 6018500.0 2972.199951171875
 endloop
endfacet
facet normal -0.13960076868534088 -0.016138290986418724 -0.9900763630867004
 outer loop
  vertex 572500.0 6019500.0 2825.0
  vertex 573500.0 6019500.0 2684.0
  vertex 573500.0 6018500.0 2700.300048828125
 endloop
endfacet
facet normal 0.14406192302703857 -0.016127875074744225 -0.9894372820854187
 outer loop
  vertex 573500.0 6019500.0 2684.0
  vertex 574500.0 6018500.0 2845.89990234375
  vertex 573500.0 6018500.0 2700.300048828125
 endloop
endfacet
facet normal -0.12951616942882538 -0.28335803747177124 -0.9502283334732056
 outer loop
  vertex 573500.0 6019500.0 2684.0
  vertex 574500.0 6019500.0 2547.699951171875
  vertex 574500.0 6018500.0 2845.89990234375
 endloop
endfacet
facet normal 0.09170466661453247 -0.28456076979637146 -0.9542617201805115
 outer loop
  vertex 574500.0 6019500.0 2547.699951171875
  vertex 575500.0 6018500.0 2942.0
  vertex 574500.0 6018500.0 2845.89990234375
 endloop
endfacet
facet normal 0.2221822738647461 -0.15723060071468353 -0.9622440338134766
 outer loop
  vertex 574500.0 6019500.0 2547.699951171875
  vertex 575500.0 6019500.0 2778.60009765625
  vertex 575500.0 6018500.0 2942.0
 endloop
endfacet
facet normal -0.04584314674139023 -0.16109174489974976 -0.9858741760253906
 outer loop
  vertex 575500.0 6019500.0 2778.60009765625
  vertex 576500.0 6018500.0 2895.5
  vertex 575500.0 6018500.0 2942.0
 endloop
endfacet
facet normal 0.027679499238729477 -0.08871451765298843 -0.9956724047660828
 outer loop
  vertex 575500.0 6019500.0 2778.60009765625
  vertex 576500.0 6019500.0 2806.39990234375
  vertex 576500.0 6018500.0 2895.5
 endloop
endfacet
facet normal -0.08962559700012207 0.016431359574198723 -0.9958400130271912
 outer loop
  vertex 571500.0 6020500.0 2931.5
  vertex 572500.0 6019500.0 2825.0
  vertex 571500.0 6019500.0 2915.0
 endloop
endfacet
facet normal 0.008444043807685375 0.11424294859170914 -0.993416965007782
 outer loop
  vertex 571500.0 6020500.0 2931.5
  vertex 572500.0 6020500.0 2940.0
  vertex 572500.0 6019500.0 2825.0
 endloop
endfacet
facet normal -0.13872243463993073 0.11314240843057632 -0.9838470220565796
 outer loop
  vertex 572500.0 6020500.0 2940.0
  vertex 573500.0 6019500.0 2684.0
  vertex 572500.0 6019500.0 2825.0
 endloop
endfacet
facet normal -0.07399614155292511 0.17723774909973145 -0.9813823699951172
 outer loop
  vertex 572500.0 6020500.0 2940.0
  vertex 573500.0 6020500.0 2864.60009765625
  vertex 573500.0 6019500.0 2684.0
 endloop
endfacet
facet normal -0.1329396665096283 0.17614752054214478 -0.9753456115722656
 outer loop
  vertex 573500.0 6020500.0 2864.60009765625
  vertex 574500.0 6019500.0 2547.699951171875
  vertex 573500.0 6019500.0 2684.0
 endloop
endfacet
facet normal 0.02755560725927353 -0.12935364246368408 -0.9912155866622925
 outer loop
  vertex 575500.0 6020500.0 2648.10009765625
  vertex 576500.0 6019500.0 2806.39990234375
  vertex 575500.0 6019500.0 2778.60009765625
 endloop
endfacet
facet normal 0.21529801189899445 0.061012592166662216 -0.9746406078338623
 outer loop
  vertex 575500.0 6020500.0 2648.10009765625
  vertex 576500.0 6020500.0 2869.0
  vertex 576500.0 6019500.0 2806.39990234375
 endloop
endfacet
facet normal -0.024943390861153603 0.06245835870504379 -0.9977357983589172
 outer loop
  vertex 576500.0 6020500.0 2869.0
  vertex 577500.0 6019500.0 2781.39990234375
  vertex 576500.0 6019500.0 2806.39990234375
 endloop
endfacet
facet normal 0.18425828218460083 0.26711782813072205 -0.9458841681480408
 outer loop
  vertex 576500.0 6020500.0 2869.0
  vertex 577500.0 6020500.0 3063.800048828125
  vertex 577500.0 6019500.0 2781.39990234375
 endloop
endfacet
facet normal -0.03769771009683609 0.27157798409461975 -0.9616778492927551
 outer loop
  vertex 577500.0 6020500.0 3063.800048828125
  vertex 578500.0 6019500.0 2742.199951171875
  vertex 577500.0 6019500.0 2781.39990234375
 endloop
endfacet
facet normal 0.008474152535200119 -0.07746367901563644 -0.9969591498374939
 outer loop
  vertex 571500.0 6021500.0 2853.800048828125
  vertex 572500.0 6020500.0 2940.0
  vertex 571500.0 6020500.0 2931.5
 endloop
endfacet
facet normal 0.1314072459936142 0.046047016978263855 -0.9902584552764893
 outer loop
  vertex 571500.0 6021500.0 2853.800048828125
  vertex 572500.0 6021500.0 2986.5
  vertex 572500.0 6020500.0 2940.0
 endloop
endfacet
facet normal -0.07510578632354736 0.04631861299276352 -0.9960992336273193
 outer loop
  vertex 572500.0 6021500.0 2986.5
  vertex 573500.0 6020500.0 2864.60009765625
  vertex 572500.0 6020500.0 2940.0
 endloop
endfacet
facet normal -0.028664257377386093 0.09266089648008347 -0.9952850341796875
 outer loop
  vertex 572500.0 6021500.0 2986.5
  vertex 573500.0 6021500.0 2957.699951171875
  vertex 573500.0 6020500.0 2864.60009765625
 endloop
endfacet
facet normal 0.19043779373168945 0.08954884856939316 -0.9776065349578857
 outer loop
  vertex 576500.0 6021500.0 2960.60009765625
  vertex 577500.0 6020500.0 3063.800048828125
  vertex 576500.0 6020500.0 2869.0
 endloop
endfacet
facet normal 0.03639495000243187 -0.066507987678051 -0.9971219301223755
 outer loop
  vertex 576500.0 6021500.0 2960.60009765625
  vertex 577500.0 6021500.0 2997.10009765625
  vertex 577500.0 6020500.0 3063.800048828125
 endloop
endfacet
facet normal 0.02656695246696472 0.042247336357831955 -0.9987539052963257
 outer loop
  vertex 570500.0 6022500.0 2869.5
  vertex 571500.0 6022500.0 2896.10009765625
  vertex 571500.0 6021500.0 2853.800048828125
 endloop
endfacet
facet normal 0.13143128156661987 0.04189564287662506 -0.9904395937919617
 outer loop
  vertex 571500.0 6022500.0 2896.10009765625
  vertex 572500.0 6021500.0 2986.5
  vertex 571500.0 6021500.0 2853.800048828125
 endloop
endfacet
facet normal 0.002290925243869424 -0.08775994926691055 -0.9961390495300293
 outer loop
  vertex 571500.0 6022500.0 2896.10009765625
  vertex 572500.0 6022500.0 2898.39990234375
  vertex 572500.0 6021500.0 2986.5
 endloop
endfacet
facet normal -0.02867712825536728 -0.08772408217191696 -0.9957320094108582
 outer loop
  vertex 572500.0 6022500.0 2898.39990234375
  vertex 573500.0 6021500.0 2957.699951171875
  vertex 572500.0 6021500.0 2986.5
 endloop
endfacet
facet normal -0.10620596259832382 -0.16435950994491577 -0.9806662201881409
 outer loop
  vertex 572500.0 6022500.0 2898.39990234375
  vertex 573500.0 6022500.0 2790.10009765625
  vertex 573500.0 6021500.0 2957.699951171875
 endloop
endfacet
facet normal -0.22295312583446503 -0.1611337959766388 -0.9614196419715881
 outer loop
  vertex 573500.0 6022500.0 2790.10009765625
  vertex 574500.0 6021500.0 2725.800048828125
  vertex 573500.0 6021500.0 2957.699951171875
 endloop
endfacet
facet normal -0.08296346664428711 -0.24560627341270447 -0.9658129215240479
 outer loop
  vertex 567500.0 6023500.0 2668.5
  vertex 568500.0 6022500.0 2836.89990234375
  vertex 567500.0 6022500.0 2922.800048828125
 endloop
endfacet
facet normal 0.09303435683250427 -0.07416932284832001 -0.9928964972496033
 outer loop
  vertex 567500.0 6023500.0 2668.5
  vertex 568500.0 6023500.0 2762.199951171875
  vertex 568500.0 6022500.0 2836.89990234375
 endloop
endfacet
facet normal -0.04969976842403412 -0.07440035045146942 -0.995989203453064
 outer loop
  vertex 568500.0 6023500.0 2762.199951171875
  vertex 569500.0 6022500.0 2787.0
  vertex 568500.0 6022500.0 2836.89990234375
 endloop
endfacet
facet normal 0.017196910455822945 -0.007598754018545151 -0.9998232126235962
 outer loop
  vertex 568500.0 6023500.0 2762.199951171875
  vertex 569500.0 6023500.0 2779.39990234375
  vertex 569500.0 6022500.0 2787.0
 endloop
endfacet
facet normal 0.08221831172704697 -0.007574147544801235 -0.9965855479240417
 outer loop
  vertex 569500.0 6023500.0 2779.39990234375
  vertex 570500.0 6022500.0 2869.5
  vertex 569500.0 6022500.0 2787.0
 endloop
endfacet
facet normal 0.040816694498062134 -0.049099553376436234 -0.997959554195404
 outer loop
  vertex 569500.0 6023500.0 2779.39990234375
  vertex 570500.0 6023500.0 2820.300048828125
  vertex 570500.0 6022500.0 2869.5
 endloop
endfacet
facet normal 0.026558585464954376 -0.04912317916750908 -0.9984395503997803
 outer loop
  vertex 570500.0 6023500.0 2820.300048828125
  vertex 571500.0 6022500.0 2896.10009765625
  vertex 570500.0 6022500.0 2869.5
 endloop
endfacet
facet normal 0.08686470240354538 0.011356078088283539 -0.9961553812026978
 outer loop
  vertex 570500.0 6023500.0 2820.300048828125
  vertex 571500.0 6023500.0 2907.5
  vertex 571500.0 6022500.0 2896.10009765625
 endloop
endfacet
facet normal 0.0022996491752564907 0.011399131268262863 -0.9999324083328247
 outer loop
  vertex 571500.0 6023500.0 2907.5
  vertex 572500.0 6022500.0 2898.39990234375
  vertex 571500.0 6022500.0 2896.10009765625
 endloop
endfacet
facet normal 0.003599784104153514 0.012699089013040066 -0.9999128580093384
 outer loop
  vertex 571500.0 6023500.0 2907.5
  vertex 572500.0 6023500.0 2911.10009765625
  vertex 572500.0 6022500.0 2898.39990234375
 endloop
endfacet
facet normal -0.1076616421341896 0.012625358067452908 -0.9941074252128601
 outer loop
  vertex 572500.0 6023500.0 2911.10009765625
  vertex 573500.0 6022500.0 2790.10009765625
  vertex 572500.0 6022500.0 2898.39990234375
 endloop
endfacet
facet normal -0.17346009612083435 -0.0544767901301384 -0.9833330512046814
 outer loop
  vertex 572500.0 6023500.0 2911.10009765625
  vertex 573500.0 6023500.0 2734.699951171875
  vertex 573500.0 6022500.0 2790.10009765625
 endloop
endfacet
facet normal 0.040532227605581284 -0.12754224240779877 -0.9910045862197876
 outer loop
  vertex 569500.0 6024500.0 2650.699951171875
  vertex 570500.0 6023500.0 2820.300048828125
  vertex 569500.0 6023500.0 2779.39990234375
 endloop
endfacet
facet normal 0.18056458234786987 0.013768534176051617 -0.9834667444229126
 outer loop
  vertex 569500.0 6024500.0 2650.699951171875
  vertex 570500.0 6024500.0 2834.300048828125
  vertex 570500.0 6023500.0 2820.300048828125
 endloop
endfacet
facet normal 0.08686185628175735 0.013945719227194786 -0.9961227774620056
 outer loop
  vertex 570500.0 6024500.0 2834.300048828125
  vertex 571500.0 6023500.0 2907.5
  vertex 570500.0 6023500.0 2820.300048828125
 endloop
endfacet
facet normal 0.008581649512052536 -0.06446335464715958 -0.9978832006454468
 outer loop
  vertex 570500.0 6024500.0 2834.300048828125
  vertex 571500.0 6024500.0 2842.89990234375
  vertex 571500.0 6023500.0 2907.5
 endloop
endfacet
facet normal 0.003592585911974311 -0.06446530669927597 -0.9979134798049927
 outer loop
  vertex 571500.0 6024500.0 2842.89990234375
  vertex 572500.0 6023500.0 2911.10009765625
  vertex 571500.0 6023500.0 2907.5
 endloop
endfacet
facet normal -0.18574807047843933 -0.25054627656936646 -0.9501179456710815
 outer loop
  vertex 571500.0 6024500.0 2842.89990234375
  vertex 572500.0 6024500.0 2647.39990234375
  vertex 572500.0 6023500.0 2911.10009765625
 endloop
endfacet
facet normal -0.16814088821411133 -0.2513534426689148 -0.953178882598877
 outer loop
  vertex 572500.0 6024500.0 2647.39990234375
  vertex 573500.0 6023500.0 2734.699951171875
  vertex 572500.0 6023500.0 2911.10009765625
 endloop
endfacet
facet normal 0.032733891159296036 -0.0543900765478611 -0.9979830980300903
 outer loop
  vertex 572500.0 6024500.0 2647.39990234375
  vertex 573500.0 6024500.0 2680.199951171875
  vertex 573500.0 6023500.0 2734.699951171875
 endloop
endfacet
facet normal -0.0818968191742897 0.025704585015773773 -0.9963092803955078
 outer loop
  vertex 573500.0 6026500.0 2947.89990234375
  vertex 574500.0 6025500.0 2839.89990234375
  vertex 573500.0 6025500.0 2922.10009765625
 endloop
endfacet
facet normal -0.19909653067588806 -0.09374405443668365 -0.9754858613014221
 outer loop
  vertex 573500.0 6026500.0 2947.89990234375
  vertex 574500.0 6026500.0 2743.800048828125
  vertex 574500.0 6025500.0 2839.89990234375
 endloop
endfacet
facet normal -0.19985629618167877 -0.03476189821958542 -0.9792084097862244
 outer loop
  vertex 573500.0 6027500.0 2912.39990234375
  vertex 574500.0 6026500.0 2743.800048828125
  vertex 573500.0 6026500.0 2947.89990234375
 endloop
endfacet
facet normal -0.05178032070398331 0.11546418070793152 -0.9919610619544983
 outer loop
  vertex 573500.0 6027500.0 2912.39990234375
  vertex 574500.0 6027500.0 2860.199951171875
  vertex 574500.0 6026500.0 2743.800048828125
 endloop
endfacet
facet normal -0.05212458595633507 0.012981230393052101 -0.9985561966896057
 outer loop
  vertex 573500.0 6028500.0 2925.39990234375
  vertex 574500.0 6027500.0 2860.199951171875
  vertex 573500.0 6027500.0 2912.39990234375
 endloop
endfacet
facet normal 0.0016964009264484048 0.06675084680318832 -0.997768223285675
 outer loop
  vertex 573500.0 6028500.0 2925.39990234375
  vertex 574500.0 6028500.0 2927.10009765625
  vertex 574500.0 6027500.0 2860.199951171875
 endloop
endfacet
facet normal -0.09692367911338806 0.06643666326999664 -0.993071973323822
 outer loop
  vertex 574500.0 6028500.0 2927.10009765625
  vertex 575500.0 6027500.0 2762.60009765625
  vertex 574500.0 6027500.0 2860.199951171875
 endloop
endfacet
facet normal -0.10927913337945938 0.053994275629520416 -0.9925435185432434
 outer loop
  vertex 574500.0 6028500.0 2927.10009765625
  vertex 575500.0 6028500.0 2817.0
  vertex 575500.0 6027500.0 2762.60009765625
 endloop
endfacet
facet normal -0.08713804185390472 0.05411296710371971 -0.9947254657745361
 outer loop
  vertex 575500.0 6028500.0 2817.0
  vertex 576500.0 6027500.0 2675.0
  vertex 575500.0 6027500.0 2762.60009765625
 endloop
endfacet
facet normal -0.058995362371206284 0.08227504044771194 -0.9948619604110718
 outer loop
  vertex 575500.0 6028500.0 2817.0
  vertex 576500.0 6028500.0 2757.699951171875
  vertex 576500.0 6027500.0 2675.0
 endloop
endfacet
facet normal 0.0017001841915771365 0.0032001743093132973 -0.9999934434890747
 outer loop
  vertex 573500.0 6029500.0 2928.60009765625
  vertex 574500.0 6028500.0 2927.10009765625
  vertex 573500.0 6028500.0 2925.39990234375
 endloop
endfacet
facet normal -0.022189974784851074 -0.020690666511654854 -0.9995396733283997
 outer loop
  vertex 573500.0 6029500.0 2928.60009765625
  vertex 574500.0 6029500.0 2906.39990234375
  vertex 574500.0 6028500.0 2927.10009765625
 endloop
endfacet
facet normal -0.10941562801599503 -0.020571505650877953 -0.993783175945282
 outer loop
  vertex 574500.0 6029500.0 2906.39990234375
  vertex 575500.0 6028500.0 2817.0
  vertex 574500.0 6028500.0 2927.10009765625
 endloop
endfacet
facet normal -0.046706367284059525 0.04251505061984062 -0.9980034828186035
 outer loop
  vertex 574500.0 6029500.0 2906.39990234375
  vertex 575500.0 6029500.0 2859.60009765625
  vertex 575500.0 6028500.0 2817.0
 endloop
endfacet
facet normal -0.05914260447025299 0.04248699173331261 -0.997344970703125
 outer loop
  vertex 575500.0 6029500.0 2859.60009765625
  vertex 576500.0 6028500.0 2757.699951171875
  vertex 575500.0 6028500.0 2817.0
 endloop
endfacet
facet normal -0.09081811457872391 0.010655125603079796 -0.9958105087280273
 outer loop
  vertex 575500.0 6029500.0 2859.60009765625
  vertex 576500.0 6029500.0 2768.39990234375
  vertex 576500.0 6028500.0 2757.699951171875
 endloop
endfacet
facet normal -0.046521708369255066 -0.09841171652078629 -0.9940577745437622
 outer loop
  vertex 574500.0 6030500.0 2807.39990234375
  vertex 575500.0 6029500.0 2859.60009765625
  vertex 574500.0 6029500.0 2906.39990234375
 endloop
endfacet
facet normal 0.07665053009986877 0.024619776755571365 -0.996753990650177
 outer loop
  vertex 574500.0 6030500.0 2807.39990234375
  vertex 575500.0 6030500.0 2884.300048828125
  vertex 575500.0 6029500.0 2859.60009765625
 endloop
endfacet
facet normal -0.09079580008983612 0.024590428918600082 -0.9955658912658691
 outer loop
  vertex 575500.0 6030500.0 2884.300048828125
  vertex 576500.0 6029500.0 2768.39990234375
  vertex 575500.0 6029500.0 2859.60009765625
 endloop
endfacet
endsolid
