solid
facet normal -0.018097132444381714 0.0001999184169108048 -0.9998362064361572
 outer loop
  vertex 466500.0 5926500.0 2666.300048828125
  vertex 467500.0 5925500.0 2648.0
  vertex 466500.0 5925500.0 2666.10009765625
 endloop
endfacet
facet normal 0.01119438000023365 0.029485326260328293 -0.9995025396347046
 outer loop
  vertex 466500.0 5926500.0 2666.300048828125
  vertex 467500.0 5926500.0 2677.5
  vertex 467500.0 5925500.0 2648.0
 endloop
endfacet
facet normal 0.015191588550806046 0.029483769088983536 -0.9994497895240784
 outer loop
  vertex 467500.0 5926500.0 2677.5
  vertex 468500.0 5925500.0 2663.199951171875
  vertex 467500.0 5925500.0 2648.0
 endloop
endfacet
facet normal -0.011999104171991348 0.002299877116456628 -0.9999253749847412
 outer loop
  vertex 467500.0 5926500.0 2677.5
  vertex 468500.0 5926500.0 2665.5
  vertex 468500.0 5925500.0 2663.199951171875
 endloop
endfacet
facet normal -0.011998571455478668 -0.009698796086013317 -0.9998809695243835
 outer loop
  vertex 467500.0 5927500.0 2667.800048828125
  vertex 468500.0 5926500.0 2665.5
  vertex 467500.0 5926500.0 2677.5
 endloop
endfacet
facet normal 0.006499611306935549 0.008799522183835506 -0.9999402165412903
 outer loop
  vertex 467500.0 5927500.0 2667.800048828125
  vertex 468500.0 5927500.0 2674.300048828125
  vertex 468500.0 5926500.0 2665.5
 endloop
endfacet
facet normal 0.0 0.008799707517027855 -0.999961256980896
 outer loop
  vertex 468500.0 5927500.0 2674.300048828125
  vertex 469500.0 5926500.0 2665.5
  vertex 468500.0 5926500.0 2665.5
 endloop
endfacet
facet normal -0.012299043126404285 -0.003499713959172368 -0.9999182820320129
 outer loop
  vertex 468500.0 5927500.0 2674.300048828125
  vertex 469500.0 5927500.0 2662.0
  vertex 469500.0 5926500.0 2665.5
 endloop
endfacet
facet normal -0.0004999968805350363 -0.003499978221952915 -0.9999937415122986
 outer loop
  vertex 469500.0 5927500.0 2662.0
  vertex 470500.0 5926500.0 2665.0
  vertex 469500.0 5926500.0 2665.5
 endloop
endfacet
facet normal 0.00479998579248786 0.001800025231204927 -0.9999868869781494
 outer loop
  vertex 469500.0 5927500.0 2662.0
  vertex 470500.0 5927500.0 2666.800048828125
  vertex 470500.0 5926500.0 2665.0
 endloop
endfacet
facet normal 0.01419849693775177 0.001799864461645484 -0.9998975992202759
 outer loop
  vertex 470500.0 5927500.0 2666.800048828125
  vertex 471500.0 5926500.0 2679.199951171875
  vertex 470500.0 5926500.0 2665.0
 endloop
endfacet
facet normal -0.0027997144497931004 -0.015198135748505592 -0.9998805522918701
 outer loop
  vertex 470500.0 5927500.0 2666.800048828125
  vertex 471500.0 5927500.0 2664.0
  vertex 471500.0 5926500.0 2679.199951171875
 endloop
endfacet
facet normal -0.014396746642887592 -0.015196620486676693 -0.9997808337211609
 outer loop
  vertex 471500.0 5927500.0 2664.0
  vertex 472500.0 5926500.0 2664.800048828125
  vertex 471500.0 5926500.0 2679.199951171875
 endloop
endfacet
facet normal 0.01889343559741974 0.018093660473823547 -0.9996578097343445
 outer loop
  vertex 471500.0 5927500.0 2664.0
  vertex 472500.0 5927500.0 2682.89990234375
  vertex 472500.0 5926500.0 2664.800048828125
 endloop
endfacet
facet normal -0.01379647571593523 0.018095167353749275 -0.9997410774230957
 outer loop
  vertex 472500.0 5927500.0 2682.89990234375
  vertex 473500.0 5926500.0 2651.0
  vertex 472500.0 5926500.0 2664.800048828125
 endloop
endfacet
facet normal 0.007394236046820879 0.03926865756511688 -0.9992012977600098
 outer loop
  vertex 472500.0 5927500.0 2682.89990234375
  vertex 473500.0 5927500.0 2690.300048828125
  vertex 473500.0 5926500.0 2651.0
 endloop
endfacet
facet normal -0.01229869481176138 -0.008299135603010654 -0.9998899698257446
 outer loop
  vertex 468500.0 5928500.0 2666.0
  vertex 469500.0 5927500.0 2662.0
  vertex 468500.0 5927500.0 2674.300048828125
 endloop
endfacet
facet normal -0.0026999390684068203 0.00130004296079278 -0.9999955296516418
 outer loop
  vertex 468500.0 5928500.0 2666.0
  vertex 469500.0 5928500.0 2663.300048828125
  vertex 469500.0 5927500.0 2662.0
 endloop
endfacet
facet normal 0.004799989517778158 0.0013000327162444592 -0.9999876022338867
 outer loop
  vertex 469500.0 5928500.0 2663.300048828125
  vertex 470500.0 5927500.0 2666.800048828125
  vertex 469500.0 5927500.0 2662.0
 endloop
endfacet
facet normal -0.021388620138168335 -0.024886734783649445 -0.9994614124298096
 outer loop
  vertex 469500.0 5928500.0 2663.300048828125
  vertex 470500.0 5928500.0 2641.89990234375
  vertex 470500.0 5927500.0 2666.800048828125
 endloop
endfacet
facet normal -0.0027991703245788813 -0.024892333894968033 -0.9996862411499023
 outer loop
  vertex 470500.0 5928500.0 2641.89990234375
  vertex 471500.0 5927500.0 2664.0
  vertex 470500.0 5927500.0 2666.800048828125
 endloop
endfacet
facet normal 0.019396426156163216 -0.002699433360248804 -0.9998082518577576
 outer loop
  vertex 470500.0 5928500.0 2641.89990234375
  vertex 471500.0 5928500.0 2661.300048828125
  vertex 471500.0 5927500.0 2664.0
 endloop
endfacet
facet normal 0.01889645867049694 -0.0026994592044502497 -0.9998177886009216
 outer loop
  vertex 471500.0 5928500.0 2661.300048828125
  vertex 472500.0 5927500.0 2682.89990234375
  vertex 471500.0 5927500.0 2664.0
 endloop
endfacet
facet normal 0.019396206364035606 -0.0021995319984853268 -0.9998095035552979
 outer loop
  vertex 471500.0 5928500.0 2661.300048828125
  vertex 472500.0 5928500.0 2680.699951171875
  vertex 472500.0 5927500.0 2682.89990234375
 endloop
endfacet
facet normal 0.007399925962090492 -0.002199885668233037 -0.9999701976776123
 outer loop
  vertex 472500.0 5928500.0 2680.699951171875
  vertex 473500.0 5927500.0 2690.300048828125
  vertex 472500.0 5927500.0 2682.89990234375
 endloop
endfacet
facet normal 0.004599991720169783 -0.004999884869903326 -0.9999769330024719
 outer loop
  vertex 472500.0 5928500.0 2680.699951171875
  vertex 473500.0 5928500.0 2685.300048828125
  vertex 473500.0 5927500.0 2690.300048828125
 endloop
endfacet
facet normal -0.03926924243569374 -0.004996080882847309 -0.9992161989212036
 outer loop
  vertex 473500.0 5928500.0 2685.300048828125
  vertex 474500.0 5927500.0 2651.0
  vertex 473500.0 5927500.0 2690.300048828125
 endloop
endfacet
facet normal -0.02778872661292553 0.006497350987046957 -0.9995927214622498
 outer loop
  vertex 473500.0 5928500.0 2685.300048828125
  vertex 474500.0 5928500.0 2657.5
  vertex 474500.0 5927500.0 2651.0
 endloop
endfacet
facet normal 0.019396133720874786 0.0034993200097233057 -0.999805748462677
 outer loop
  vertex 471500.0 5929500.0 2664.800048828125
  vertex 472500.0 5928500.0 2680.699951171875
  vertex 471500.0 5928500.0 2661.300048828125
 endloop
endfacet
facet normal 0.02938452921807766 0.013492940925061703 -0.9994770884513855
 outer loop
  vertex 471500.0 5929500.0 2664.800048828125
  vertex 472500.0 5929500.0 2694.199951171875
  vertex 472500.0 5928500.0 2680.699951171875
 endloop
endfacet
facet normal 0.0045996299013495445 0.013498627580702305 -0.9998983144760132
 outer loop
  vertex 472500.0 5929500.0 2694.199951171875
  vertex 473500.0 5928500.0 2685.300048828125
  vertex 472500.0 5928500.0 2680.699951171875
 endloop
endfacet
facet normal -0.007299845106899738 0.0015998088056221604 -0.9999720454216003
 outer loop
  vertex 472500.0 5929500.0 2694.199951171875
  vertex 473500.0 5929500.0 2686.89990234375
  vertex 473500.0 5928500.0 2685.300048828125
 endloop
endfacet
facet normal -0.027789276093244553 0.0015992335975170135 -0.9996125102043152
 outer loop
  vertex 473500.0 5929500.0 2686.89990234375
  vertex 474500.0 5928500.0 2657.5
  vertex 473500.0 5928500.0 2685.300048828125
 endloop
endfacet
facet normal -0.01339698489755392 0.01599651761353016 -0.9997823238372803
 outer loop
  vertex 473500.0 5929500.0 2686.89990234375
  vertex 474500.0 5929500.0 2673.5
  vertex 474500.0 5928500.0 2657.5
 endloop
endfacet
facet normal -0.006799021270126104 0.01599758304655552 -0.9998489022254944
 outer loop
  vertex 474500.0 5929500.0 2673.5
  vertex 475500.0 5928500.0 2650.699951171875
  vertex 474500.0 5928500.0 2657.5
 endloop
endfacet
facet normal 0.046933673322200775 0.06965316087007523 -0.9964665770530701
 outer loop
  vertex 474500.0 5929500.0 2673.5
  vertex 475500.0 5929500.0 2720.60009765625
  vertex 475500.0 5928500.0 2650.699951171875
 endloop
endfacet
facet normal 0.029387013986706734 -0.003598519368097186 -0.999561607837677
 outer loop
  vertex 471500.0 5930500.0 2661.199951171875
  vertex 472500.0 5929500.0 2694.199951171875
  vertex 471500.0 5929500.0 2664.800048828125
 endloop
endfacet
facet normal 0.028288409113883972 -0.004698018077760935 -0.9995887279510498
 outer loop
  vertex 471500.0 5930500.0 2661.199951171875
  vertex 472500.0 5930500.0 2689.5
  vertex 472500.0 5929500.0 2694.199951171875
 endloop
endfacet
facet normal -0.00729977386072278 -0.004699774086475372 -0.999962329864502
 outer loop
  vertex 472500.0 5930500.0 2689.5
  vertex 473500.0 5929500.0 2686.89990234375
  vertex 472500.0 5929500.0 2694.199951171875
 endloop
endfacet
facet normal 0.006599674932658672 0.009199606254696846 -0.9999359250068665
 outer loop
  vertex 472500.0 5930500.0 2689.5
  vertex 473500.0 5930500.0 2696.10009765625
  vertex 473500.0 5929500.0 2686.89990234375
 endloop
endfacet
facet normal -0.013398133218288422 0.009198980405926704 -0.9998679757118225
 outer loop
  vertex 473500.0 5930500.0 2696.10009765625
  vertex 474500.0 5929500.0 2673.5
  vertex 473500.0 5929500.0 2686.89990234375
 endloop
endfacet
facet normal -0.02788890153169632 -0.005297912750393152 -0.9995969533920288
 outer loop
  vertex 473500.0 5930500.0 2696.10009765625
  vertex 474500.0 5930500.0 2668.199951171875
  vertex 474500.0 5929500.0 2673.5
 endloop
endfacet
facet normal 0.04704728350043297 -0.005294105503708124 -0.9988786578178406
 outer loop
  vertex 474500.0 5930500.0 2668.199951171875
  vertex 475500.0 5929500.0 2720.60009765625
  vertex 474500.0 5929500.0 2673.5
 endloop
endfacet
facet normal 0.03946594521403313 -0.01288902573287487 -0.999137818813324
 outer loop
  vertex 474500.0 5930500.0 2668.199951171875
  vertex 475500.0 5930500.0 2707.699951171875
  vertex 475500.0 5929500.0 2720.60009765625
 endloop
endfacet
facet normal 0.028273805975914 -0.032469864934682846 -0.9990727305412292
 outer loop
  vertex 471500.0 5931500.0 2628.699951171875
  vertex 472500.0 5930500.0 2689.5
  vertex 471500.0 5930500.0 2661.199951171875
 endloop
endfacet
facet normal 0.05172859877347946 -0.00898758601397276 -0.9986206889152527
 outer loop
  vertex 471500.0 5931500.0 2628.699951171875
  vertex 472500.0 5931500.0 2680.5
  vertex 472500.0 5930500.0 2689.5
 endloop
endfacet
facet normal 0.006599686574190855 -0.00899943895637989 -0.9999377131462097
 outer loop
  vertex 472500.0 5931500.0 2680.5
  vertex 473500.0 5930500.0 2696.10009765625
  vertex 472500.0 5930500.0 2689.5
 endloop
endfacet
facet normal -0.008797090500593185 -0.024391943588852882 -0.9996638298034668
 outer loop
  vertex 472500.0 5931500.0 2680.5
  vertex 473500.0 5931500.0 2671.699951171875
  vertex 473500.0 5930500.0 2696.10009765625
 endloop
endfacet
facet normal -0.02788100205361843 -0.02438340336084366 -0.9993138313293457
 outer loop
  vertex 473500.0 5931500.0 2671.699951171875
  vertex 474500.0 5930500.0 2668.199951171875
  vertex 473500.0 5930500.0 2696.10009765625
 endloop
endfacet
facet normal -0.014997321180999279 -0.011497946456074715 -0.9998214244842529
 outer loop
  vertex 473500.0 5931500.0 2671.699951171875
  vertex 474500.0 5931500.0 2656.699951171875
  vertex 474500.0 5930500.0 2668.199951171875
 endloop
endfacet
facet normal 0.03946661576628685 -0.011490280739963055 -0.9991548657417297
 outer loop
  vertex 474500.0 5931500.0 2656.699951171875
  vertex 475500.0 5930500.0 2707.699951171875
  vertex 474500.0 5930500.0 2668.199951171875
 endloop
endfacet
facet normal 0.06058559939265251 0.00968167930841446 -0.9981160759925842
 outer loop
  vertex 474500.0 5931500.0 2656.699951171875
  vertex 475500.0 5931500.0 2717.39990234375
  vertex 475500.0 5930500.0 2707.699951171875
 endloop
endfacet
facet normal 0.051679451018571854 0.044496264308691025 -0.9976719617843628
 outer loop
  vertex 471500.0 5932500.0 2673.300048828125
  vertex 472500.0 5931500.0 2680.5
  vertex 471500.0 5931500.0 2628.699951171875
 endloop
endfacet
facet normal -0.004399808123707771 -0.011599205434322357 -0.999923050403595
 outer loop
  vertex 471500.0 5932500.0 2673.300048828125
  vertex 472500.0 5932500.0 2668.89990234375
  vertex 472500.0 5931500.0 2680.5
 endloop
endfacet
facet normal -0.008799116127192974 -0.011598868295550346 -0.9998940229415894
 outer loop
  vertex 472500.0 5932500.0 2668.89990234375
  vertex 473500.0 5931500.0 2671.699951171875
  vertex 472500.0 5931500.0 2680.5
 endloop
endfacet
facet normal -0.00869904737919569 -0.01149880513548851 -0.9998960494995117
 outer loop
  vertex 472500.0 5932500.0 2668.89990234375
  vertex 473500.0 5932500.0 2660.199951171875
  vertex 473500.0 5931500.0 2671.699951171875
 endloop
endfacet
facet normal -0.014997321180999279 -0.011497946456074715 -0.9998214244842529
 outer loop
  vertex 473500.0 5932500.0 2660.199951171875
  vertex 474500.0 5931500.0 2656.699951171875
  vertex 473500.0 5931500.0 2671.699951171875
 endloop
endfacet
facet normal 0.009498768486082554 0.012998315505683422 -0.9998704195022583
 outer loop
  vertex 473500.0 5932500.0 2660.199951171875
  vertex 474500.0 5932500.0 2669.699951171875
  vertex 474500.0 5931500.0 2656.699951171875
 endloop
endfacet
facet normal 0.060583338141441345 0.012975024990737438 -0.9980788230895996
 outer loop
  vertex 474500.0 5932500.0 2669.699951171875
  vertex 475500.0 5931500.0 2717.39990234375
  vertex 474500.0 5931500.0 2656.699951171875
 endloop
endfacet
facet normal 0.022887110710144043 -0.024785690009593964 -0.999430775642395
 outer loop
  vertex 474500.0 5932500.0 2669.699951171875
  vertex 475500.0 5932500.0 2692.60009765625
  vertex 475500.0 5931500.0 2717.39990234375
 endloop
endfacet
facet normal -0.004400091245770454 0.002399872289970517 -0.9999874234199524
 outer loop
  vertex 471500.0 5933500.0 2675.699951171875
  vertex 472500.0 5932500.0 2668.89990234375
  vertex 471500.0 5932500.0 2673.300048828125
 endloop
endfacet
facet normal 0.009698174893856049 0.01649697870016098 -0.99981689453125
 outer loop
  vertex 471500.0 5933500.0 2675.699951171875
  vertex 472500.0 5933500.0 2685.39990234375
  vertex 472500.0 5932500.0 2668.89990234375
 endloop
endfacet
facet normal -0.008698438294231892 0.016497131437063217 -0.9998260736465454
 outer loop
  vertex 472500.0 5933500.0 2685.39990234375
  vertex 473500.0 5932500.0 2660.199951171875
  vertex 472500.0 5932500.0 2668.89990234375
 endloop
endfacet
facet normal -0.02309364266693592 0.002099533099681139 -0.9997311234474182
 outer loop
  vertex 472500.0 5933500.0 2685.39990234375
  vertex 473500.0 5933500.0 2662.300048828125
  vertex 473500.0 5932500.0 2660.199951171875
 endloop
endfacet
facet normal 0.00949955079704523 0.0020999982953071594 -0.9999526739120483
 outer loop
  vertex 473500.0 5933500.0 2662.300048828125
  vertex 474500.0 5932500.0 2669.699951171875
  vertex 473500.0 5932500.0 2660.199951171875
 endloop
endfacet
facet normal -0.0031997549813240767 -0.010599203407764435 -0.9999386668205261
 outer loop
  vertex 473500.0 5933500.0 2662.300048828125
  vertex 474500.0 5933500.0 2659.10009765625
  vertex 474500.0 5932500.0 2669.699951171875
 endloop
endfacet
facet normal 0.02289285883307457 -0.01059648022055626 -0.9996817708015442
 outer loop
  vertex 474500.0 5933500.0 2659.10009765625
  vertex 475500.0 5932500.0 2692.60009765625
  vertex 474500.0 5932500.0 2669.699951171875
 endloop
endfacet
facet normal 0.009699083864688873 -0.009199129417538643 -0.9999106526374817
 outer loop
  vertex 471500.0 5934500.0 2666.5
  vertex 472500.0 5933500.0 2685.39990234375
  vertex 471500.0 5933500.0 2675.699951171875
 endloop
endfacet
facet normal 0.05219963565468788 0.03333601728081703 -0.9980800747871399
 outer loop
  vertex 471500.0 5934500.0 2666.5
  vertex 472500.0 5934500.0 2718.800048828125
  vertex 472500.0 5933500.0 2685.39990234375
 endloop
endfacet
facet normal -0.02308082766830921 0.03337264060974121 -0.9991764426231384
 outer loop
  vertex 472500.0 5934500.0 2718.800048828125
  vertex 473500.0 5933500.0 2662.300048828125
  vertex 472500.0 5933500.0 2685.39990234375
 endloop
endfacet
facet normal -0.04076111316680908 0.01568497158586979 -0.9990457892417908
 outer loop
  vertex 472500.0 5934500.0 2718.800048828125
  vertex 473500.0 5934500.0 2678.0
  vertex 473500.0 5933500.0 2662.300048828125
 endloop
endfacet
facet normal -0.0031995405443012714 0.015697937458753586 -0.9998717308044434
 outer loop
  vertex 473500.0 5934500.0 2678.0
  vertex 474500.0 5933500.0 2659.10009765625
  vertex 473500.0 5933500.0 2662.300048828125
 endloop
endfacet
facet normal -0.022893717512488365 -0.003998919390141964 -0.9997298717498779
 outer loop
  vertex 473500.0 5934500.0 2678.0
  vertex 474500.0 5934500.0 2655.10009765625
  vertex 474500.0 5933500.0 2659.10009765625
 endloop
endfacet
facet normal 0.05222827196121216 -0.0038945500273257494 -0.9986276030540466
 outer loop
  vertex 471500.0 5935500.0 2662.60009765625
  vertex 472500.0 5934500.0 2718.800048828125
  vertex 471500.0 5934500.0 2666.5
 endloop
endfacet
facet normal 0.03656834736466408 -0.01958323083817959 -0.9991392493247986
 outer loop
  vertex 471500.0 5935500.0 2662.60009765625
  vertex 472500.0 5935500.0 2699.199951171875
  vertex 472500.0 5934500.0 2718.800048828125
 endloop
endfacet
facet normal -0.04075831547379494 -0.019580049440264702 -0.9989771842956543
 outer loop
  vertex 472500.0 5935500.0 2699.199951171875
  vertex 473500.0 5934500.0 2678.0
  vertex 472500.0 5934500.0 2718.800048828125
 endloop
endfacet
facet normal 0.038999512791633606 0.060144927352666855 -0.9974275231361389
 outer loop
  vertex 472500.0 5935500.0 2699.199951171875
  vertex 473500.0 5935500.0 2738.300048828125
  vertex 473500.0 5934500.0 2678.0
 endloop
endfacet
facet normal -0.022852417081594467 0.06017499789595604 -0.9979262351989746
 outer loop
  vertex 473500.0 5935500.0 2738.300048828125
  vertex 474500.0 5934500.0 2655.10009765625
  vertex 473500.0 5934500.0 2678.0
 endloop
endfacet
facet normal 0.03657461330294609 0.006395489443093538 -0.9993104934692383
 outer loop
  vertex 471500.0 5936500.0 2669.0
  vertex 472500.0 5935500.0 2699.199951171875
  vertex 471500.0 5935500.0 2662.60009765625
 endloop
endfacet
facet normal 0.0069979457184672356 -0.02319314330816269 -0.999706506729126
 outer loop
  vertex 471500.0 5936500.0 2669.0
  vertex 472500.0 5936500.0 2676.0
  vertex 472500.0 5935500.0 2699.199951171875
 endloop
endfacet
facet normal 0.03905974328517914 -0.023176010698080063 -0.9989680647850037
 outer loop
  vertex 472500.0 5936500.0 2676.0
  vertex 473500.0 5935500.0 2738.300048828125
  vertex 472500.0 5935500.0 2699.199951171875
 endloop
endfacet
facet normal 0.036363635212183 -0.025874339044094086 -0.9990035891532898
 outer loop
  vertex 472500.0 5936500.0 2676.0
  vertex 473500.0 5936500.0 2712.39990234375
  vertex 473500.0 5935500.0 2738.300048828125
 endloop
endfacet
facet normal 0.00419990299269557 0.0023000226356089115 -0.9999885559082031
 outer loop
  vertex 470500.0 5937500.0 2667.10009765625
  vertex 471500.0 5937500.0 2671.300048828125
  vertex 471500.0 5936500.0 2669.0
 endloop
endfacet
facet normal 0.006999810226261616 0.002299986546859145 -0.9999728798866272
 outer loop
  vertex 471500.0 5937500.0 2671.300048828125
  vertex 472500.0 5936500.0 2676.0
  vertex 471500.0 5936500.0 2669.0
 endloop
endfacet
facet normal 0.041137684136629105 0.03644483536481857 -0.9984886050224304
 outer loop
  vertex 471500.0 5937500.0 2671.300048828125
  vertex 472500.0 5937500.0 2712.5
  vertex 472500.0 5936500.0 2676.0
 endloop
endfacet
facet normal 0.03635163605213165 0.03645160049200058 -0.9986740350723267
 outer loop
  vertex 472500.0 5937500.0 2712.5
  vertex 473500.0 5936500.0 2712.39990234375
  vertex 472500.0 5936500.0 2676.0
 endloop
endfacet
facet normal 0.00979909859597683 0.009899185970425606 -0.9999030232429504
 outer loop
  vertex 472500.0 5937500.0 2712.5
  vertex 473500.0 5937500.0 2722.300048828125
  vertex 473500.0 5936500.0 2712.39990234375
 endloop
endfacet
facet normal -0.03727206215262413 0.00989278219640255 -0.9992561936378479
 outer loop
  vertex 473500.0 5937500.0 2722.300048828125
  vertex 474500.0 5936500.0 2675.10009765625
  vertex 473500.0 5936500.0 2712.39990234375
 endloop
endfacet
facet normal 0.009783699177205563 0.056904904544353485 -0.9983316659927368
 outer loop
  vertex 473500.0 5937500.0 2722.300048828125
  vertex 474500.0 5937500.0 2732.10009765625
  vertex 474500.0 5936500.0 2675.10009765625
 endloop
endfacet
facet normal -0.00749501446262002 0.035676464438438416 -0.9993352293968201
 outer loop
  vertex 468500.0 5938500.0 2707.60009765625
  vertex 469500.0 5938500.0 2700.10009765625
  vertex 469500.0 5937500.0 2664.39990234375
 endloop
endfacet
facet normal 0.0026984664145857096 0.035677336156368256 -0.9993597269058228
 outer loop
  vertex 469500.0 5938500.0 2700.10009765625
  vertex 470500.0 5937500.0 2667.10009765625
  vertex 469500.0 5937500.0 2664.39990234375
 endloop
endfacet
facet normal -0.03288235887885094 9.97975657810457e-05 -0.9994592070579529
 outer loop
  vertex 469500.0 5938500.0 2700.10009765625
  vertex 470500.0 5938500.0 2667.199951171875
  vertex 470500.0 5937500.0 2667.10009765625
 endloop
endfacet
facet normal 0.004199914168566465 9.985263750422746e-05 -0.9999911785125732
 outer loop
  vertex 470500.0 5938500.0 2667.199951171875
  vertex 471500.0 5937500.0 2671.300048828125
  vertex 470500.0 5937500.0 2667.10009765625
 endloop
endfacet
facet normal 0.009798446670174599 0.015197466127574444 -0.9998365044593811
 outer loop
  vertex 473500.0 5938500.0 2737.5
  vertex 474500.0 5937500.0 2732.10009765625
  vertex 473500.0 5937500.0 2722.300048828125
 endloop
endfacet
facet normal 0.00609958078712225 0.011499025858938694 -0.9999152421951294
 outer loop
  vertex 473500.0 5938500.0 2737.5
  vertex 474500.0 5938500.0 2743.60009765625
  vertex 474500.0 5937500.0 2732.10009765625
 endloop
endfacet
facet normal -0.036673083901405334 0.0114915044978261 -0.9992612600326538
 outer loop
  vertex 474500.0 5938500.0 2743.60009765625
  vertex 475500.0 5937500.0 2695.39990234375
  vertex 474500.0 5937500.0 2732.10009765625
 endloop
endfacet
facet normal -0.01778901368379593 0.030381301417946815 -0.9993800520896912
 outer loop
  vertex 474500.0 5938500.0 2743.60009765625
  vertex 475500.0 5938500.0 2725.800048828125
  vertex 475500.0 5937500.0 2695.39990234375
 endloop
endfacet
endsolid
