solid
facet normal -0.9709148406982422 -0.07897336781024933 -0.22602543234825134
 outer loop
  vertex 415500.0 5307500.0 10848.2998046875
  vertex 416500.0 5306500.0 6902.10009765625
  vertex 415500.0 5306500.0 11197.7001953125
 endloop
endfacet
facet normal -0.9710309505462646 -0.044773124158382416 -0.23472148180007935
 outer loop
  vertex 415500.0 5307500.0 10848.2998046875
  vertex 416500.0 5307500.0 6711.35009765625
  vertex 416500.0 5306500.0 6902.10009765625
 endloop
endfacet
facet normal -0.8729398250579834 -0.4398301839828491 -0.21101050078868866
 outer loop
  vertex 415500.0 5308500.0 8763.900390625
  vertex 416500.0 5307500.0 6711.35009765625
  vertex 415500.0 5307500.0 10848.2998046875
 endloop
endfacet
facet normal 0.40755146741867065 0.8832795023918152 -0.23177412152290344
 outer loop
  vertex 415500.0 5308500.0 8763.900390625
  vertex 416500.0 5308500.0 10522.2998046875
  vertex 416500.0 5307500.0 6711.35009765625
 endloop
endfacet
facet normal -0.05892086401581764 0.9655739068984985 -0.2533683180809021
 outer loop
  vertex 416500.0 5308500.0 10522.2998046875
  vertex 417500.0 5307500.0 6478.7998046875
  vertex 416500.0 5307500.0 6711.35009765625
 endloop
endfacet
facet normal 0.29950660467147827 0.9408192038536072 -0.15860334038734436
 outer loop
  vertex 416500.0 5308500.0 10522.2998046875
  vertex 417500.0 5308500.0 12410.7001953125
  vertex 417500.0 5307500.0 6478.7998046875
 endloop
endfacet
facet normal 0.8777888417243958 -0.11583621799945831 -0.46483197808265686
 outer loop
  vertex 416500.0 5309500.0 10273.099609375
  vertex 417500.0 5308500.0 12410.7001953125
  vertex 416500.0 5308500.0 10522.2998046875
 endloop
endfacet
facet normal -0.26440802216529846 -0.9151090979576111 -0.3044072687625885
 outer loop
  vertex 416500.0 5309500.0 10273.099609375
  vertex 417500.0 5309500.0 9404.5
  vertex 417500.0 5308500.0 12410.7001953125
 endloop
endfacet
facet normal -0.4660397469997406 -0.7035127878189087 -0.5365415215492249
 outer loop
  vertex 416500.0 5310500.0 8961.900390625
  vertex 417500.0 5309500.0 9404.5
  vertex 416500.0 5309500.0 10273.099609375
 endloop
endfacet
facet normal -0.2158111184835434 -0.5674964189529419 -0.7945900559425354
 outer loop
  vertex 416500.0 5310500.0 8961.900390625
  vertex 417500.0 5310500.0 8690.2998046875
  vertex 417500.0 5309500.0 9404.5
 endloop
endfacet
facet normal 0.8925769925117493 -0.2620565593242645 -0.36692312359809875
 outer loop
  vertex 417500.0 5310500.0 8690.2998046875
  vertex 418500.0 5309500.0 11837.099609375
  vertex 417500.0 5309500.0 9404.5
 endloop
endfacet
facet normal -0.16844530403614044 -0.9536089897155762 -0.24951177835464478
 outer loop
  vertex 417500.0 5310500.0 8690.2998046875
  vertex 418500.0 5310500.0 8015.2001953125
  vertex 418500.0 5309500.0 11837.099609375
 endloop
endfacet
facet normal 0.598663330078125 0.5484585165977478 -0.5837770104408264
 outer loop
  vertex 415500.0 5311500.0 8875.900390625
  vertex 416500.0 5311500.0 9901.400390625
  vertex 416500.0 5310500.0 8961.900390625
 endloop
endfacet
facet normal -0.194177508354187 0.6716839075088501 -0.7149376273155212
 outer loop
  vertex 416500.0 5311500.0 9901.400390625
  vertex 417500.0 5310500.0 8690.2998046875
  vertex 416500.0 5310500.0 8961.900390625
 endloop
endfacet
facet normal -0.8434996008872986 -0.34872421622276306 -0.4085336923599243
 outer loop
  vertex 416500.0 5311500.0 9901.400390625
  vertex 417500.0 5311500.0 7836.7001953125
  vertex 417500.0 5310500.0 8690.2998046875
 endloop
endfacet
facet normal -0.4567753076553345 -0.577549159526825 -0.6766042709350586
 outer loop
  vertex 417500.0 5311500.0 7836.7001953125
  vertex 418500.0 5310500.0 8015.2001953125
  vertex 417500.0 5310500.0 8690.2998046875
 endloop
endfacet
facet normal -0.3971210718154907 -0.5307675004005432 -0.7487194538116455
 outer loop
  vertex 417500.0 5311500.0 7836.7001953125
  vertex 418500.0 5311500.0 7306.2998046875
  vertex 418500.0 5310500.0 8015.2001953125
 endloop
endfacet
facet normal -0.6786637306213379 -0.46863487362861633 -0.5655059218406677
 outer loop
  vertex 413500.0 5312500.0 7375.5
  vertex 414500.0 5312500.0 6175.39990234375
  vertex 414500.0 5311500.0 7004.10009765625
 endloop
endfacet
facet normal 0.8215989470481873 -0.36374565958976746 -0.43893516063690186
 outer loop
  vertex 414500.0 5312500.0 6175.39990234375
  vertex 415500.0 5311500.0 8875.900390625
  vertex 414500.0 5311500.0 7004.10009765625
 endloop
endfacet
facet normal 0.9027863144874573 -0.1672518253326416 -0.39623698592185974
 outer loop
  vertex 414500.0 5312500.0 6175.39990234375
  vertex 415500.0 5312500.0 8453.7998046875
  vertex 415500.0 5311500.0 8875.900390625
 endloop
endfacet
facet normal 0.6867534518241882 -0.2826709449291229 -0.6696767210960388
 outer loop
  vertex 415500.0 5312500.0 8453.7998046875
  vertex 416500.0 5311500.0 9901.400390625
  vertex 415500.0 5311500.0 8875.900390625
 endloop
endfacet
facet normal 0.863780677318573 0.1857580840587616 -0.46837684512138367
 outer loop
  vertex 415500.0 5312500.0 8453.7998046875
  vertex 416500.0 5312500.0 10298.0
  vertex 416500.0 5311500.0 9901.400390625
 endloop
endfacet
facet normal -0.886841893196106 0.17034976184368134 -0.429525762796402
 outer loop
  vertex 416500.0 5312500.0 10298.0
  vertex 417500.0 5311500.0 7836.7001953125
  vertex 416500.0 5311500.0 9901.400390625
 endloop
endfacet
facet normal -0.9358751177787781 -0.1386614441871643 -0.3238994777202606
 outer loop
  vertex 416500.0 5312500.0 10298.0
  vertex 417500.0 5312500.0 7408.60009765625
  vertex 417500.0 5311500.0 7836.7001953125
 endloop
endfacet
facet normal -0.43827342987060547 -0.35374200344085693 -0.8263068199157715
 outer loop
  vertex 417500.0 5312500.0 7408.60009765625
  vertex 418500.0 5311500.0 7306.2998046875
  vertex 417500.0 5311500.0 7836.7001953125
 endloop
endfacet
facet normal 0.3434690833091736 0.42893972992897034 -0.8354877829551697
 outer loop
  vertex 417500.0 5312500.0 7408.60009765625
  vertex 418500.0 5312500.0 7819.7001953125
  vertex 418500.0 5311500.0 7306.2998046875
 endloop
endfacet
facet normal 0.010597623884677887 -0.01619715988636017 -0.999812662601471
 outer loop
  vertex 400500.0 5313500.0 4650.0
  vertex 401500.0 5312500.0 4676.7998046875
  vertex 400500.0 5312500.0 4666.2001953125
 endloop
endfacet
facet normal 0.46038490533828735 0.4397178590297699 -0.7711640000343323
 outer loop
  vertex 400500.0 5313500.0 4650.0
  vertex 401500.0 5313500.0 5247.0
  vertex 401500.0 5312500.0 4676.7998046875
 endloop
endfacet
facet normal 0.05853686481714249 0.49448490142822266 -0.8672128319740295
 outer loop
  vertex 401500.0 5313500.0 5247.0
  vertex 402500.0 5312500.0 4744.2998046875
  vertex 401500.0 5312500.0 4676.7998046875
 endloop
endfacet
facet normal -0.3555355966091156 0.11099472641944885 -0.928048849105835
 outer loop
  vertex 401500.0 5313500.0 5247.0
  vertex 402500.0 5313500.0 4863.89990234375
  vertex 402500.0 5312500.0 4744.2998046875
 endloop
endfacet
facet normal 0.07347138971090317 -0.8610243201255798 -0.5032287240028381
 outer loop
  vertex 412500.0 5313500.0 5518.5
  vertex 413500.0 5313500.0 5664.5
  vertex 413500.0 5312500.0 7375.5
 endloop
endfacet
facet normal -0.5179893970489502 -0.738504946231842 -0.43162181973457336
 outer loop
  vertex 413500.0 5313500.0 5664.5
  vertex 414500.0 5312500.0 6175.39990234375
  vertex 413500.0 5312500.0 7375.5
 endloop
endfacet
facet normal 0.7463504672050476 0.575947642326355 -0.3335345983505249
 outer loop
  vertex 413500.0 5313500.0 5664.5
  vertex 414500.0 5313500.0 7902.2001953125
  vertex 414500.0 5312500.0 6175.39990234375
 endloop
endfacet
facet normal 0.7522732019424438 0.5701481103897095 -0.33017608523368835
 outer loop
  vertex 414500.0 5313500.0 7902.2001953125
  vertex 415500.0 5312500.0 8453.7998046875
  vertex 414500.0 5312500.0 6175.39990234375
 endloop
endfacet
facet normal 0.5469763875007629 0.08774964511394501 -0.8325363397598267
 outer loop
  vertex 414500.0 5313500.0 7902.2001953125
  vertex 415500.0 5313500.0 8559.2001953125
  vertex 415500.0 5312500.0 8453.7998046875
 endloop
endfacet
facet normal 0.8779732584953308 0.05017824470996857 -0.47607263922691345
 outer loop
  vertex 415500.0 5313500.0 8559.2001953125
  vertex 416500.0 5312500.0 10298.0
  vertex 415500.0 5312500.0 8453.7998046875
 endloop
endfacet
facet normal -0.3249559998512268 -0.8884678483009338 -0.3240809440612793
 outer loop
  vertex 415500.0 5313500.0 8559.2001953125
  vertex 416500.0 5313500.0 7556.5
  vertex 416500.0 5312500.0 10298.0
 endloop
endfacet
facet normal -0.7035930156707764 -0.6675781011581421 -0.24350833892822266
 outer loop
  vertex 416500.0 5313500.0 7556.5
  vertex 417500.0 5312500.0 7408.60009765625
  vertex 416500.0 5312500.0 10298.0
 endloop
endfacet
facet normal -0.5936888456344604 -0.5004957914352417 -0.6301090717315674
 outer loop
  vertex 416500.0 5313500.0 7556.5
  vertex 417500.0 5313500.0 6614.2998046875
  vertex 417500.0 5312500.0 7408.60009765625
 endloop
endfacet
facet normal 0.30642300844192505 -0.5920502543449402 -0.7453733086585999
 outer loop
  vertex 417500.0 5313500.0 6614.2998046875
  vertex 418500.0 5312500.0 7819.7001953125
  vertex 417500.0 5312500.0 7408.60009765625
 endloop
endfacet
facet normal -0.2540329396724701 -0.8374040722846985 -0.48396459221839905
 outer loop
  vertex 417500.0 5313500.0 6614.2998046875
  vertex 418500.0 5313500.0 6089.39990234375
  vertex 418500.0 5312500.0 7819.7001953125
 endloop
endfacet
facet normal -0.3570706248283386 -0.061422381550073624 -0.9320557117462158
 outer loop
  vertex 401500.0 5314500.0 5181.10009765625
  vertex 402500.0 5313500.0 4863.89990234375
  vertex 401500.0 5313500.0 5247.0
 endloop
endfacet
facet normal -0.17022863030433655 0.13920719921588898 -0.9755222201347351
 outer loop
  vertex 401500.0 5314500.0 5181.10009765625
  vertex 402500.0 5314500.0 5006.60009765625
  vertex 402500.0 5313500.0 4863.89990234375
 endloop
endfacet
facet normal 0.060278430581092834 0.14101220667362213 -0.9881711006164551
 outer loop
  vertex 402500.0 5314500.0 5006.60009765625
  vertex 403500.0 5313500.0 4924.89990234375
  vertex 402500.0 5313500.0 4863.89990234375
 endloop
endfacet
facet normal -0.20319117605686188 -0.12383771687746048 -0.9712762832641602
 outer loop
  vertex 402500.0 5314500.0 5006.60009765625
  vertex 403500.0 5314500.0 4797.39990234375
  vertex 403500.0 5313500.0 4924.89990234375
 endloop
endfacet
facet normal 0.07627678662538528 0.002991246525198221 -0.9970821738243103
 outer loop
  vertex 407500.0 5314500.0 4875.39990234375
  vertex 408500.0 5314500.0 4951.89990234375
  vertex 408500.0 5313500.0 4948.89990234375
 endloop
endfacet
facet normal 0.5376756191253662 0.0025294439401477575 -0.8431479930877686
 outer loop
  vertex 408500.0 5314500.0 4951.89990234375
  vertex 409500.0 5313500.0 5586.60009765625
  vertex 408500.0 5313500.0 4948.89990234375
 endloop
endfacet
facet normal 0.06853145360946655 -0.48486390709877014 -0.8719003796577454
 outer loop
  vertex 408500.0 5314500.0 4951.89990234375
  vertex 409500.0 5314500.0 5030.5
  vertex 409500.0 5313500.0 5586.60009765625
 endloop
endfacet
facet normal -0.017301995307207108 -0.4859338402748108 -0.8738243579864502
 outer loop
  vertex 409500.0 5314500.0 5030.5
  vertex 410500.0 5313500.0 5566.7998046875
  vertex 409500.0 5313500.0 5586.60009765625
 endloop
endfacet
facet normal 0.07584643363952637 -0.41129639744758606 -0.9083405137062073
 outer loop
  vertex 409500.0 5314500.0 5030.5
  vertex 410500.0 5314500.0 5114.0
  vertex 410500.0 5313500.0 5566.7998046875
 endloop
endfacet
facet normal -0.24740511178970337 -0.3996613025665283 -0.8826445937156677
 outer loop
  vertex 410500.0 5314500.0 5114.0
  vertex 411500.0 5313500.0 5286.5
  vertex 410500.0 5313500.0 5566.7998046875
 endloop
endfacet
facet normal 0.09617625921964645 -0.07503551244735718 -0.9925320148468018
 outer loop
  vertex 410500.0 5314500.0 5114.0
  vertex 411500.0 5314500.0 5210.89990234375
  vertex 411500.0 5313500.0 5286.5
 endloop
endfacet
facet normal 0.22538729012012482 -0.07344526052474976 -0.9714969396591187
 outer loop
  vertex 411500.0 5314500.0 5210.89990234375
  vertex 412500.0 5313500.0 5518.5
  vertex 411500.0 5313500.0 5286.5
 endloop
endfacet
facet normal 0.10217196494340897 -0.197713702917099 -0.9749205708503723
 outer loop
  vertex 411500.0 5314500.0 5210.89990234375
  vertex 412500.0 5314500.0 5315.7001953125
  vertex 412500.0 5313500.0 5518.5
 endloop
endfacet
facet normal 0.14164455235004425 -0.19674992561340332 -0.9701681733131409
 outer loop
  vertex 412500.0 5314500.0 5315.7001953125
  vertex 413500.0 5313500.0 5664.5
  vertex 412500.0 5313500.0 5518.5
 endloop
endfacet
facet normal 0.10099552571773529 -0.23610706627368927 -0.9664643406867981
 outer loop
  vertex 412500.0 5314500.0 5315.7001953125
  vertex 413500.0 5314500.0 5420.2001953125
  vertex 413500.0 5313500.0 5664.5
 endloop
endfacet
facet normal 0.908480167388916 -0.09918287396430969 -0.40598833560943604
 outer loop
  vertex 413500.0 5314500.0 5420.2001953125
  vertex 414500.0 5313500.0 7902.2001953125
  vertex 413500.0 5313500.0 5664.5
 endloop
endfacet
facet normal 0.23998898267745972 -0.8630715012550354 -0.4444240629673004
 outer loop
  vertex 413500.0 5314500.0 5420.2001953125
  vertex 414500.0 5314500.0 5960.2001953125
  vertex 414500.0 5313500.0 7902.2001953125
 endloop
endfacet
facet normal 0.28803011775016785 -0.8513766527175903 -0.438401997089386
 outer loop
  vertex 414500.0 5314500.0 5960.2001953125
  vertex 415500.0 5313500.0 8559.2001953125
  vertex 414500.0 5313500.0 7902.2001953125
 endloop
endfacet
facet normal 0.02588166482746601 -0.9296088814735413 -0.3676377534866333
 outer loop
  vertex 414500.0 5314500.0 5960.2001953125
  vertex 415500.0 5314500.0 6030.60009765625
  vertex 415500.0 5313500.0 8559.2001953125
 endloop
endfacet
facet normal -0.34598034620285034 -0.8724901080131531 -0.3450486958026886
 outer loop
  vertex 415500.0 5314500.0 6030.60009765625
  vertex 416500.0 5313500.0 7556.5
  vertex 415500.0 5313500.0 8559.2001953125
 endloop
endfacet
facet normal -0.13278594613075256 -0.8666431903839111 -0.4809340536594391
 outer loop
  vertex 415500.0 5314500.0 6030.60009765625
  vertex 416500.0 5314500.0 5754.5
  vertex 416500.0 5313500.0 7556.5
 endloop
endfacet
facet normal -0.41579118371009827 -0.7952192425727844 -0.44129812717437744
 outer loop
  vertex 416500.0 5314500.0 5754.5
  vertex 417500.0 5313500.0 6614.2998046875
  vertex 416500.0 5313500.0 7556.5
 endloop
endfacet
facet normal 0.07450564205646515 -0.6062581539154053 -0.7917701005935669
 outer loop
  vertex 416500.0 5314500.0 5754.5
  vertex 417500.0 5314500.0 5848.60009765625
  vertex 417500.0 5313500.0 6614.2998046875
 endloop
endfacet
facet normal -0.38468751311302185 -0.561164379119873 -0.7328779101371765
 outer loop
  vertex 417500.0 5314500.0 5848.60009765625
  vertex 418500.0 5313500.0 6089.39990234375
  vertex 417500.0 5313500.0 6614.2998046875
 endloop
endfacet
facet normal 0.10190421342849731 -0.13541239500045776 -0.9855348467826843
 outer loop
  vertex 417500.0 5314500.0 5848.60009765625
  vertex 418500.0 5314500.0 5952.0
  vertex 418500.0 5313500.0 6089.39990234375
 endloop
endfacet
facet normal -0.17053303122520447 0.12596957385540009 -0.9772666692733765
 outer loop
  vertex 401500.0 5315500.0 5310.0
  vertex 402500.0 5314500.0 5006.60009765625
  vertex 401500.0 5314500.0 5181.10009765625
 endloop
endfacet
facet normal -0.36929142475128174 -0.08862275630235672 -0.925078272819519
 outer loop
  vertex 401500.0 5315500.0 5310.0
  vertex 402500.0 5315500.0 4910.7998046875
  vertex 402500.0 5314500.0 5006.60009765625
 endloop
endfacet
facet normal -0.20387303829193115 -0.0933607965707779 -0.9745355844497681
 outer loop
  vertex 402500.0 5315500.0 4910.7998046875
  vertex 403500.0 5314500.0 4797.39990234375
  vertex 402500.0 5314500.0 5006.60009765625
 endloop
endfacet
facet normal -0.10146697610616684 0.01134033314883709 -0.9947742819786072
 outer loop
  vertex 402500.0 5315500.0 4910.7998046875
  vertex 403500.0 5315500.0 4808.7998046875
  vertex 403500.0 5314500.0 4797.39990234375
 endloop
endfacet
facet normal -0.06595189869403839 0.011374343186616898 -0.9977579712867737
 outer loop
  vertex 403500.0 5315500.0 4808.7998046875
  vertex 404500.0 5314500.0 4731.2998046875
  vertex 403500.0 5314500.0 4797.39990234375
 endloop
endfacet
facet normal -0.04702577739953995 0.03035273402929306 -0.9984323978424072
 outer loop
  vertex 403500.0 5315500.0 4808.7998046875
  vertex 404500.0 5315500.0 4761.7001953125
  vertex 404500.0 5314500.0 4731.2998046875
 endloop
endfacet
facet normal 0.040249042212963104 0.030361730605363846 -0.998728334903717
 outer loop
  vertex 404500.0 5315500.0 4761.7001953125
  vertex 405500.0 5314500.0 4771.60009765625
  vertex 404500.0 5314500.0 4731.2998046875
 endloop
endfacet
facet normal -0.004299819935113192 -0.014198632910847664 -0.9998899698257446
 outer loop
  vertex 404500.0 5315500.0 4761.7001953125
  vertex 405500.0 5315500.0 4757.39990234375
  vertex 405500.0 5314500.0 4771.60009765625
 endloop
endfacet
facet normal 0.048338450491428375 -0.014182166196405888 -0.9987303614616394
 outer loop
  vertex 405500.0 5315500.0 4757.39990234375
  vertex 406500.0 5314500.0 4820.0
  vertex 405500.0 5314500.0 4771.60009765625
 endloop
endfacet
facet normal 0.048338450491428375 -0.014182166196405888 -0.9987303614616394
 outer loop
  vertex 405500.0 5315500.0 4757.39990234375
  vertex 406500.0 5315500.0 4805.7998046875
  vertex 406500.0 5314500.0 4820.0
 endloop
endfacet
facet normal 0.05530951917171478 -0.014177029021084309 -0.9983686208724976
 outer loop
  vertex 406500.0 5315500.0 4805.7998046875
  vertex 407500.0 5314500.0 4875.39990234375
  vertex 406500.0 5314500.0 4820.0
 endloop
endfacet
facet normal 0.05720214545726776 -0.012278732843697071 -0.9982871413230896
 outer loop
  vertex 406500.0 5315500.0 4805.7998046875
  vertex 407500.0 5315500.0 4863.10009765625
  vertex 407500.0 5314500.0 4875.39990234375
 endloop
endfacet
facet normal 0.07627139240503311 -0.012263048440217972 -0.997011661529541
 outer loop
  vertex 407500.0 5315500.0 4863.10009765625
  vertex 408500.0 5314500.0 4951.89990234375
  vertex 407500.0 5314500.0 4875.39990234375
 endloop
endfacet
facet normal 0.06971736997365952 -0.018850544467568398 -0.9973886609077454
 outer loop
  vertex 407500.0 5315500.0 4863.10009765625
  vertex 408500.0 5315500.0 4933.0
  vertex 408500.0 5314500.0 4951.89990234375
 endloop
endfacet
facet normal 0.07834451645612717 -0.018838446587324142 -0.9967483282089233
 outer loop
  vertex 408500.0 5315500.0 4933.0
  vertex 409500.0 5314500.0 5030.5
  vertex 408500.0 5314500.0 4951.89990234375
 endloop
endfacet
facet normal 0.08359848707914352 -0.013551234267652035 -0.9964073896408081
 outer loop
  vertex 408500.0 5315500.0 4933.0
  vertex 409500.0 5315500.0 5016.89990234375
  vertex 409500.0 5314500.0 5030.5
 endloop
endfacet
facet normal 0.0832027867436409 -0.013551688753068447 -0.9964405298233032
 outer loop
  vertex 409500.0 5315500.0 5016.89990234375
  vertex 410500.0 5314500.0 5114.0
  vertex 409500.0 5314500.0 5030.5
 endloop
endfacet
facet normal 0.08755860477685928 -0.00916446465998888 -0.9961171746253967
 outer loop
  vertex 409500.0 5315500.0 5016.89990234375
  vertex 410500.0 5315500.0 5104.7998046875
  vertex 410500.0 5314500.0 5114.0
 endloop
endfacet
facet normal 0.09644410759210587 -0.00915692001581192 -0.99529629945755
 outer loop
  vertex 410500.0 5315500.0 5104.7998046875
  vertex 411500.0 5314500.0 5210.89990234375
  vertex 410500.0 5314500.0 5114.0
 endloop
endfacet
facet normal 0.09021978080272675 -0.015434934757649899 -0.9958022832870483
 outer loop
  vertex 410500.0 5315500.0 5104.7998046875
  vertex 411500.0 5315500.0 5195.39990234375
  vertex 411500.0 5314500.0 5210.89990234375
 endloop
endfacet
facet normal 0.10421709716320038 -0.015413744375109673 -0.9944351315498352
 outer loop
  vertex 411500.0 5315500.0 5195.39990234375
  vertex 412500.0 5314500.0 5315.7001953125
  vertex 411500.0 5314500.0 5210.89990234375
 endloop
endfacet
facet normal 0.08830957114696503 -0.03146093711256981 -0.9955961108207703
 outer loop
  vertex 411500.0 5315500.0 5195.39990234375
  vertex 412500.0 5315500.0 5284.10009765625
  vertex 412500.0 5314500.0 5315.7001953125
 endloop
endfacet
facet normal 0.10388275235891342 -0.031413447111845016 -0.9940933585166931
 outer loop
  vertex 412500.0 5315500.0 5284.10009765625
  vertex 413500.0 5314500.0 5420.2001953125
  vertex 412500.0 5314500.0 5315.7001953125
 endloop
endfacet
facet normal 0.10762912034988403 -0.027628125622868538 -0.9938071370124817
 outer loop
  vertex 412500.0 5315500.0 5284.10009765625
  vertex 413500.0 5315500.0 5392.39990234375
  vertex 413500.0 5314500.0 5420.2001953125
 endloop
endfacet
facet normal 0.4750068485736847 -0.024454312399029732 -0.8796423077583313
 outer loop
  vertex 413500.0 5315500.0 5392.39990234375
  vertex 414500.0 5314500.0 5960.2001953125
  vertex 413500.0 5314500.0 5420.2001953125
 endloop
endfacet
facet normal 0.05442196503281593 -0.45131877064704895 -0.8907017707824707
 outer loop
  vertex 413500.0 5315500.0 5392.39990234375
  vertex 414500.0 5315500.0 5453.5
  vertex 414500.0 5314500.0 5960.2001953125
 endloop
endfacet
facet normal 0.06267495453357697 -0.4510999619960785 -0.8902699947357178
 outer loop
  vertex 414500.0 5315500.0 5453.5
  vertex 415500.0 5314500.0 6030.60009765625
  vertex 414500.0 5314500.0 5960.2001953125
 endloop
endfacet
facet normal 0.11073700338602066 -0.4113740026950836 -0.9047147631645203
 outer loop
  vertex 414500.0 5315500.0 5453.5
  vertex 415500.0 5315500.0 5575.89990234375
  vertex 415500.0 5314500.0 6030.60009765625
 endloop
endfacet
facet normal -0.24375639855861664 -0.40143442153930664 -0.8828551769256592
 outer loop
  vertex 415500.0 5315500.0 5575.89990234375
  vertex 416500.0 5314500.0 5754.5
  vertex 415500.0 5314500.0 6030.60009765625
 endloop
endfacet
facet normal 0.08601639419794083 -0.09117508679628372 -0.9921129941940308
 outer loop
  vertex 415500.0 5315500.0 5575.89990234375
  vertex 416500.0 5315500.0 5662.60009765625
  vertex 416500.0 5314500.0 5754.5
 endloop
endfacet
facet normal 0.09329652041196823 -0.09111511707305908 -0.9914604425430298
 outer loop
  vertex 416500.0 5315500.0 5662.60009765625
  vertex 417500.0 5314500.0 5848.60009765625
  vertex 416500.0 5314500.0 5754.5
 endloop
endfacet
facet normal 0.6309405565261841 0.524631142616272 -0.5715559720993042
 outer loop
  vertex 416500.0 5315500.0 5662.60009765625
  vertex 417500.0 5315500.0 6766.5
  vertex 417500.0 5314500.0 5848.60009765625
 endloop
endfacet
facet normal 0.07595478743314743 0.6742647290229797 -0.7345733046531677
 outer loop
  vertex 417500.0 5315500.0 6766.5
  vertex 418500.0 5314500.0 5952.0
  vertex 417500.0 5314500.0 5848.60009765625
 endloop
endfacet
facet normal 0.18849210441112518 0.7266165614128113 -0.6606807708740234
 outer loop
  vertex 417500.0 5315500.0 6766.5
  vertex 418500.0 5315500.0 7051.7998046875
  vertex 418500.0 5314500.0 5952.0
 endloop
endfacet
facet normal -0.360131174325943 -0.23762142658233643 -0.9021317958831787
 outer loop
  vertex 401500.0 5316500.0 5046.60009765625
  vertex 402500.0 5315500.0 4910.7998046875
  vertex 401500.0 5315500.0 5310.0
 endloop
endfacet
facet normal 0.07223407179117203 0.20479366183280945 -0.9761361479759216
 outer loop
  vertex 401500.0 5316500.0 5046.60009765625
  vertex 402500.0 5316500.0 5120.60009765625
  vertex 402500.0 5315500.0 4910.7998046875
 endloop
endfacet
facet normal -0.09933293610811234 0.20431452989578247 -0.9738524556159973
 outer loop
  vertex 402500.0 5316500.0 5120.60009765625
  vertex 403500.0 5315500.0 4808.7998046875
  vertex 402500.0 5315500.0 4910.7998046875
 endloop
endfacet
facet normal -0.29409047961235046 0.003918744623661041 -0.9557695388793945
 outer loop
  vertex 402500.0 5316500.0 5120.60009765625
  vertex 403500.0 5316500.0 4812.89990234375
  vertex 403500.0 5315500.0 4808.7998046875
 endloop
endfacet
facet normal -0.04704705998301506 0.004095523152500391 -0.9988843202590942
 outer loop
  vertex 403500.0 5316500.0 4812.89990234375
  vertex 404500.0 5315500.0 4761.7001953125
  vertex 403500.0 5315500.0 4808.7998046875
 endloop
endfacet
facet normal -0.10749714821577072 -0.05667690560221672 -0.9925885796546936
 outer loop
  vertex 403500.0 5316500.0 4812.89990234375
  vertex 404500.0 5316500.0 4704.60009765625
  vertex 404500.0 5315500.0 4761.7001953125
 endloop
endfacet
facet normal -0.0042932601645588875 -0.05700671300292015 -0.9983645677566528
 outer loop
  vertex 404500.0 5316500.0 4704.60009765625
  vertex 405500.0 5315500.0 4757.39990234375
  vertex 404500.0 5315500.0 4761.7001953125
 endloop
endfacet
facet normal 0.03207670897245407 -0.02068462409079075 -0.9992713332176208
 outer loop
  vertex 404500.0 5316500.0 4704.60009765625
  vertex 405500.0 5316500.0 4736.7001953125
  vertex 405500.0 5315500.0 4757.39990234375
 endloop
endfacet
facet normal 0.04833298176527023 -0.020671086385846138 -0.9986173510551453
 outer loop
  vertex 405500.0 5316500.0 4736.7001953125
  vertex 406500.0 5315500.0 4805.7998046875
  vertex 405500.0 5315500.0 4757.39990234375
 endloop
endfacet
facet normal 0.03825363144278526 -0.030762672424316406 -0.9987943768501282
 outer loop
  vertex 405500.0 5316500.0 4736.7001953125
  vertex 406500.0 5316500.0 4775.0
  vertex 406500.0 5315500.0 4805.7998046875
 endloop
endfacet
facet normal 0.05717942491173744 -0.030734838917851448 -0.9978907108306885
 outer loop
  vertex 406500.0 5316500.0 4775.0
  vertex 407500.0 5315500.0 4863.10009765625
  vertex 406500.0 5315500.0 4805.7998046875
 endloop
endfacet
facet normal 0.06643759459257126 -0.021447541192173958 -0.9975600242614746
 outer loop
  vertex 406500.0 5316500.0 4775.0
  vertex 407500.0 5316500.0 4841.60009765625
  vertex 407500.0 5315500.0 4863.10009765625
 endloop
endfacet
facet normal 0.06971373409032822 -0.021442735567688942 -0.9973365664482117
 outer loop
  vertex 407500.0 5316500.0 4841.60009765625
  vertex 408500.0 5315500.0 4933.0
  vertex 407500.0 5315500.0 4863.10009765625
 endloop
endfacet
facet normal 0.07616938650608063 -0.01495474111288786 -0.996982753276825
 outer loop
  vertex 407500.0 5316500.0 4841.60009765625
  vertex 408500.0 5316500.0 4918.0
  vertex 408500.0 5315500.0 4933.0
 endloop
endfacet
facet normal 0.08359682559967041 -0.01494581438601017 -0.9963876008987427
 outer loop
  vertex 408500.0 5316500.0 4918.0
  vertex 409500.0 5315500.0 5016.89990234375
  vertex 408500.0 5315500.0 4933.0
 endloop
endfacet
facet normal 0.09289491176605225 -0.0055757989175617695 -0.9956603050231934
 outer loop
  vertex 408500.0 5316500.0 4918.0
  vertex 409500.0 5316500.0 5011.2998046875
  vertex 409500.0 5315500.0 5016.89990234375
 endloop
endfacet
facet normal 0.08756092190742493 -0.005578501150012016 -0.9961435794830322
 outer loop
  vertex 409500.0 5316500.0 5011.2998046875
  vertex 410500.0 5315500.0 5104.7998046875
  vertex 409500.0 5315500.0 5016.89990234375
 endloop
endfacet
facet normal 0.05587324872612953 -0.037415120750665665 -0.9977365732192993
 outer loop
  vertex 409500.0 5316500.0 5011.2998046875
  vertex 410500.0 5316500.0 5067.2998046875
  vertex 410500.0 5315500.0 5104.7998046875
 endloop
endfacet
facet normal 0.09016766399145126 -0.03732101619243622 -0.9952270984649658
 outer loop
  vertex 410500.0 5316500.0 5067.2998046875
  vertex 411500.0 5315500.0 5195.39990234375
  vertex 410500.0 5315500.0 5104.7998046875
 endloop
endfacet
facet normal 0.07955478876829147 -0.04799121990799904 -0.9956746101379395
 outer loop
  vertex 410500.0 5316500.0 5067.2998046875
  vertex 411500.0 5316500.0 5147.2001953125
  vertex 411500.0 5315500.0 5195.39990234375
 endloop
endfacet
facet normal 0.08825165778398514 -0.047955967485904694 -0.9949431419372559
 outer loop
  vertex 411500.0 5316500.0 5147.2001953125
  vertex 412500.0 5315500.0 5284.10009765625
  vertex 411500.0 5315500.0 5195.39990234375
 endloop
endfacet
facet normal 0.11549700796604156 -0.020457902923226357 -0.993097186088562
 outer loop
  vertex 411500.0 5316500.0 5147.2001953125
  vertex 412500.0 5316500.0 5263.5
  vertex 412500.0 5315500.0 5284.10009765625
 endloop
endfacet
facet normal 0.10764765739440918 -0.020476048812270164 -0.9939782023429871
 outer loop
  vertex 412500.0 5316500.0 5263.5
  vertex 413500.0 5315500.0 5392.39990234375
  vertex 412500.0 5315500.0 5284.10009765625
 endloop
endfacet
facet normal 0.08729137480258942 -0.04100765287876129 -0.9953383803367615
 outer loop
  vertex 412500.0 5316500.0 5263.5
  vertex 413500.0 5316500.0 5351.2001953125
  vertex 413500.0 5315500.0 5392.39990234375
 endloop
endfacet
facet normal 0.06093486398458481 -0.0410882905125618 -0.9972957372665405
 outer loop
  vertex 413500.0 5316500.0 5351.2001953125
  vertex 414500.0 5315500.0 5453.5
  vertex 413500.0 5315500.0 5392.39990234375
 endloop
endfacet
facet normal 0.006171158514916897 -0.09565757215023041 -0.9953951835632324
 outer loop
  vertex 413500.0 5316500.0 5351.2001953125
  vertex 414500.0 5316500.0 5357.39990234375
  vertex 414500.0 5315500.0 5453.5
 endloop
endfacet
facet normal 0.12094421684741974 -0.09495718032121658 -0.9881070852279663
 outer loop
  vertex 414500.0 5316500.0 5357.39990234375
  vertex 415500.0 5315500.0 5575.89990234375
  vertex 414500.0 5315500.0 5453.5
 endloop
endfacet
facet normal 0.6353896260261536 0.5083931088447571 -0.5812197923660278
 outer loop
  vertex 414500.0 5316500.0 5357.39990234375
  vertex 415500.0 5316500.0 6450.60009765625
  vertex 415500.0 5315500.0 5575.89990234375
 endloop
endfacet
facet normal 0.06511972099542618 0.6569793820381165 -0.7510908842086792
 outer loop
  vertex 415500.0 5316500.0 6450.60009765625
  vertex 416500.0 5315500.0 5662.60009765625
  vertex 415500.0 5315500.0 5575.89990234375
 endloop
endfacet
facet normal 0.5248580574989319 0.7847148776054382 -0.3297675549983978
 outer loop
  vertex 415500.0 5316500.0 6450.60009765625
  vertex 416500.0 5316500.0 8042.2001953125
  vertex 416500.0 5315500.0 5662.60009765625
 endloop
endfacet
facet normal 0.39322078227996826 0.847638726234436 -0.3562105894088745
 outer loop
  vertex 416500.0 5316500.0 8042.2001953125
  vertex 417500.0 5315500.0 6766.5
  vertex 416500.0 5315500.0 5662.60009765625
 endloop
endfacet
facet normal -0.6027347445487976 0.32623550295829773 -0.7282041907310486
 outer loop
  vertex 416500.0 5316500.0 8042.2001953125
  vertex 417500.0 5316500.0 7214.5
  vertex 417500.0 5315500.0 6766.5
 endloop
endfacet
facet normal 0.251965194940567 0.39565539360046387 -0.883159339427948
 outer loop
  vertex 417500.0 5316500.0 7214.5
  vertex 418500.0 5315500.0 7051.7998046875
  vertex 417500.0 5315500.0 6766.5
 endloop
endfacet
facet normal -0.3109382688999176 -0.15846766531467438 -0.937126100063324
 outer loop
  vertex 417500.0 5316500.0 7214.5
  vertex 418500.0 5316500.0 6882.7001953125
  vertex 418500.0 5315500.0 7051.7998046875
 endloop
endfacet
facet normal -0.30550551414489746 -0.1587611436843872 -0.9388616681098938
 outer loop
  vertex 418500.0 5316500.0 6882.7001953125
  vertex 419500.0 5315500.0 6726.39990234375
  vertex 418500.0 5315500.0 7051.7998046875
 endloop
endfacet
facet normal -0.2906295657157898 -0.15301254391670227 -0.9445218443870544
 outer loop
  vertex 402500.0 5317500.0 4958.60009765625
  vertex 403500.0 5316500.0 4812.89990234375
  vertex 402500.0 5316500.0 5120.60009765625
 endloop
endfacet
facet normal 0.0413413904607296 0.18441583216190338 -0.9819784760475159
 outer loop
  vertex 402500.0 5317500.0 4958.60009765625
  vertex 403500.0 5317500.0 5000.7001953125
  vertex 403500.0 5316500.0 4812.89990234375
 endloop
endfacet
facet normal -0.10584120452404022 0.18353690207004547 -0.9772982597351074
 outer loop
  vertex 403500.0 5317500.0 5000.7001953125
  vertex 404500.0 5316500.0 4704.60009765625
  vertex 403500.0 5316500.0 4812.89990234375
 endloop
endfacet
facet normal -0.31092604994773865 -0.02963929995894432 -0.9499718546867371
 outer loop
  vertex 403500.0 5317500.0 5000.7001953125
  vertex 404500.0 5317500.0 4673.39990234375
  vertex 404500.0 5316500.0 4704.60009765625
 endloop
endfacet
facet normal 0.03206798434257507 -0.03116898238658905 -0.9989995360374451
 outer loop
  vertex 404500.0 5317500.0 4673.39990234375
  vertex 405500.0 5316500.0 4736.7001953125
  vertex 404500.0 5316500.0 4704.60009765625
 endloop
endfacet
facet normal 0.04095541685819626 -0.02227604389190674 -0.9989126324653625
 outer loop
  vertex 404500.0 5317500.0 4673.39990234375
  vertex 405500.0 5317500.0 4714.39990234375
  vertex 405500.0 5316500.0 4736.7001953125
 endloop
endfacet
facet normal 0.03826224431395531 -0.022278424352407455 -0.9990193247795105
 outer loop
  vertex 405500.0 5317500.0 4714.39990234375
  vertex 406500.0 5316500.0 4775.0
  vertex 405500.0 5316500.0 4736.7001953125
 endloop
endfacet
facet normal 0.045248597860336304 -0.015282345935702324 -0.9988588690757751
 outer loop
  vertex 405500.0 5317500.0 4714.39990234375
  vertex 406500.0 5317500.0 4759.7001953125
  vertex 406500.0 5316500.0 4775.0
 endloop
endfacet
facet normal 0.06644514203071594 -0.015264206565916538 -0.9976732730865479
 outer loop
  vertex 406500.0 5317500.0 4759.7001953125
  vertex 407500.0 5316500.0 4841.60009765625
  vertex 406500.0 5316500.0 4775.0
 endloop
endfacet
facet normal 0.05449816212058067 -0.027249570935964584 -0.9981419444084167
 outer loop
  vertex 406500.0 5317500.0 4759.7001953125
  vertex 407500.0 5317500.0 4814.2998046875
  vertex 407500.0 5316500.0 4841.60009765625
 endloop
endfacet
facet normal 0.07614969462156296 -0.027210885658860207 -0.9967250227928162
 outer loop
  vertex 407500.0 5317500.0 4814.2998046875
  vertex 408500.0 5316500.0 4918.0
  vertex 407500.0 5316500.0 4841.60009765625
 endloop
endfacet
facet normal 0.09891203045845032 -0.0042786793783307076 -0.9950869679450989
 outer loop
  vertex 407500.0 5317500.0 4814.2998046875
  vertex 408500.0 5317500.0 4913.7001953125
  vertex 408500.0 5316500.0 4918.0
 endloop
endfacet
facet normal 0.0928955078125 -0.004281172063201666 -0.9956666827201843
 outer loop
  vertex 408500.0 5317500.0 4913.7001953125
  vertex 409500.0 5316500.0 5011.2998046875
  vertex 408500.0 5316500.0 4918.0
 endloop
endfacet
facet normal 0.03550897538661957 -0.06184215098619461 -0.997454047203064
 outer loop
  vertex 408500.0 5317500.0 4913.7001953125
  vertex 409500.0 5317500.0 4949.2998046875
  vertex 409500.0 5316500.0 5011.2998046875
 endloop
endfacet
facet normal 0.05580557510256767 -0.06178474426269531 -0.996528148651123
 outer loop
  vertex 409500.0 5317500.0 4949.2998046875
  vertex 410500.0 5316500.0 5067.2998046875
  vertex 409500.0 5316500.0 5011.2998046875
 endloop
endfacet
facet normal 0.05989190191030502 -0.057699330151081085 -0.9965358376502991
 outer loop
  vertex 409500.0 5317500.0 4949.2998046875
  vertex 410500.0 5317500.0 5009.39990234375
  vertex 410500.0 5316500.0 5067.2998046875
 endloop
endfacet
facet normal 0.07951423525810242 -0.05762007459998131 -0.9951670169830322
 outer loop
  vertex 410500.0 5317500.0 5009.39990234375
  vertex 411500.0 5316500.0 5147.2001953125
  vertex 410500.0 5316500.0 5067.2998046875
 endloop
endfacet
facet normal 0.01200475636869669 -0.12470976263284683 -0.992120623588562
 outer loop
  vertex 410500.0 5317500.0 5009.39990234375
  vertex 411500.0 5317500.0 5021.5
  vertex 411500.0 5316500.0 5147.2001953125
 endloop
endfacet
facet normal 0.11463110893964767 -0.12389661371707916 -0.9856517314910889
 outer loop
  vertex 411500.0 5317500.0 5021.5
  vertex 412500.0 5316500.0 5263.5
  vertex 411500.0 5316500.0 5147.2001953125
 endloop
endfacet
facet normal 0.16058440506458282 -0.07753679901361465 -0.983971893787384
 outer loop
  vertex 411500.0 5317500.0 5021.5
  vertex 412500.0 5317500.0 5184.7001953125
  vertex 412500.0 5316500.0 5263.5
 endloop
endfacet
facet normal 0.0870969295501709 -0.07825776189565659 -0.9931212663650513
 outer loop
  vertex 412500.0 5317500.0 5184.7001953125
  vertex 413500.0 5316500.0 5351.2001953125
  vertex 412500.0 5316500.0 5263.5
 endloop
endfacet
facet normal 0.02424953319132328 -0.14054831862449646 -0.9897768497467041
 outer loop
  vertex 412500.0 5317500.0 5184.7001953125
  vertex 413500.0 5317500.0 5209.2001953125
  vertex 413500.0 5316500.0 5351.2001953125
 endloop
endfacet
facet normal 0.006138011813163757 -0.1405870020389557 -0.9900493025779724
 outer loop
  vertex 413500.0 5317500.0 5209.2001953125
  vertex 414500.0 5316500.0 5357.39990234375
  vertex 413500.0 5316500.0 5351.2001953125
 endloop
endfacet
facet normal 0.03933766484260559 -0.10788172483444214 -0.9933851957321167
 outer loop
  vertex 413500.0 5317500.0 5209.2001953125
  vertex 414500.0 5317500.0 5248.7998046875
  vertex 414500.0 5316500.0 5357.39990234375
 endloop
endfacet
facet normal 0.7358855605125427 -0.07310394197702408 -0.6731480956077576
 outer loop
  vertex 414500.0 5317500.0 5248.7998046875
  vertex 415500.0 5316500.0 6450.60009765625
  vertex 414500.0 5316500.0 5357.39990234375
 endloop
endfacet
facet normal 0.6583530306816101 -0.21024781465530396 -0.7227497696876526
 outer loop
  vertex 414500.0 5317500.0 5248.7998046875
  vertex 415500.0 5317500.0 6159.7001953125
  vertex 415500.0 5316500.0 6450.60009765625
 endloop
endfacet
facet normal 0.8367791771888733 -0.1529397815465927 -0.5257471203804016
 outer loop
  vertex 415500.0 5317500.0 6159.7001953125
  vertex 416500.0 5316500.0 8042.2001953125
  vertex 415500.0 5316500.0 6450.60009765625
 endloop
endfacet
facet normal 0.8819648027420044 -0.005231334827840328 -0.4712861180305481
 outer loop
  vertex 415500.0 5317500.0 6159.7001953125
  vertex 416500.0 5317500.0 8031.10009765625
  vertex 416500.0 5316500.0 8042.2001953125
 endloop
endfacet
facet normal -0.6375965476036072 -0.00855066068470478 -0.7703229784965515
 outer loop
  vertex 416500.0 5317500.0 8031.10009765625
  vertex 417500.0 5316500.0 7214.5
  vertex 416500.0 5316500.0 8042.2001953125
 endloop
endfacet
facet normal 0.5377224087715149 0.7862673401832581 -0.30436548590660095
 outer loop
  vertex 416500.0 5317500.0 8031.10009765625
  vertex 417500.0 5317500.0 9797.7998046875
  vertex 417500.0 5316500.0 7214.5
 endloop
endfacet
facet normal -0.11892899870872498 0.9259478449821472 -0.35843607783317566
 outer loop
  vertex 417500.0 5317500.0 9797.7998046875
  vertex 418500.0 5316500.0 6882.7001953125
  vertex 417500.0 5316500.0 7214.5
 endloop
endfacet
facet normal -0.5118929743766785 0.7433385848999023 -0.4305964708328247
 outer loop
  vertex 417500.0 5317500.0 9797.7998046875
  vertex 418500.0 5317500.0 8609.0
  vertex 418500.0 5316500.0 6882.7001953125
 endloop
endfacet
facet normal -0.3028435707092285 -0.22835873067378998 -0.9252773523330688
 outer loop
  vertex 403500.0 5318500.0 4753.89990234375
  vertex 404500.0 5317500.0 4673.39990234375
  vertex 403500.0 5317500.0 5000.7001953125
 endloop
endfacet
facet normal -0.10439494997262955 -0.02435882017016411 -0.9942376017570496
 outer loop
  vertex 403500.0 5318500.0 4753.89990234375
  vertex 404500.0 5318500.0 4648.89990234375
  vertex 404500.0 5317500.0 4673.39990234375
 endloop
endfacet
facet normal 0.04095331206917763 -0.024472102522850037 -0.9988613128662109
 outer loop
  vertex 404500.0 5318500.0 4648.89990234375
  vertex 405500.0 5317500.0 4714.39990234375
  vertex 404500.0 5317500.0 4673.39990234375
 endloop
endfacet
facet normal 0.04085339978337288 -0.02457212656736374 -0.9988629817962646
 outer loop
  vertex 404500.0 5318500.0 4648.89990234375
  vertex 405500.0 5318500.0 4689.7998046875
  vertex 405500.0 5317500.0 4714.39990234375
 endloop
endfacet
facet normal 0.04524022340774536 -0.02456747740507126 -0.9986740350723267
 outer loop
  vertex 405500.0 5318500.0 4689.7998046875
  vertex 406500.0 5317500.0 4759.7001953125
  vertex 405500.0 5317500.0 4714.39990234375
 endloop
endfacet
facet normal 0.04294479265809059 -0.026865854859352112 -0.9987161755561829
 outer loop
  vertex 405500.0 5318500.0 4689.7998046875
  vertex 406500.0 5318500.0 4732.7998046875
  vertex 406500.0 5317500.0 4759.7001953125
 endloop
endfacet
facet normal 0.05449875071644783 -0.02685069851577282 -0.9981527328491211
 outer loop
  vertex 406500.0 5318500.0 4732.7998046875
  vertex 407500.0 5317500.0 4814.2998046875
  vertex 406500.0 5317500.0 4759.7001953125
 endloop
endfacet
facet normal 0.053702060133218765 -0.027649130672216415 -0.9981741309165955
 outer loop
  vertex 406500.0 5318500.0 4732.7998046875
  vertex 407500.0 5318500.0 4786.60009765625
  vertex 407500.0 5317500.0 4814.2998046875
 endloop
endfacet
facet normal 0.09887538850307465 -0.027553405612707138 -0.9947183132171631
 outer loop
  vertex 407500.0 5318500.0 4786.60009765625
  vertex 408500.0 5317500.0 4913.7001953125
  vertex 407500.0 5317500.0 4814.2998046875
 endloop
endfacet
facet normal 0.05517387390136719 -0.07140765339136124 -0.9959200620651245
 outer loop
  vertex 407500.0 5318500.0 4786.60009765625
  vertex 408500.0 5318500.0 4842.0
  vertex 408500.0 5317500.0 4913.7001953125
 endloop
endfacet
facet normal 0.035486090928316116 -0.07147155702114105 -0.9968112111091614
 outer loop
  vertex 408500.0 5318500.0 4842.0
  vertex 409500.0 5317500.0 4949.2998046875
  vertex 408500.0 5317500.0 4913.7001953125
 endloop
endfacet
facet normal 0.05005573108792305 -0.05693529173731804 -0.9971222281455994
 outer loop
  vertex 408500.0 5318500.0 4842.0
  vertex 409500.0 5318500.0 4892.2001953125
  vertex 409500.0 5317500.0 4949.2998046875
 endloop
endfacet
facet normal 0.059894636273384094 -0.05690440908074379 -0.9965814352035522
 outer loop
  vertex 409500.0 5318500.0 4892.2001953125
  vertex 410500.0 5317500.0 5009.39990234375
  vertex 409500.0 5317500.0 4949.2998046875
 endloop
endfacet
facet normal 0.07790283113718033 -0.038851942867040634 -0.9962036609649658
 outer loop
  vertex 409500.0 5318500.0 4892.2001953125
  vertex 410500.0 5318500.0 4970.39990234375
  vertex 410500.0 5317500.0 5009.39990234375
 endloop
endfacet
facet normal 0.01209002174437046 -0.038967523723840714 -0.9991673231124878
 outer loop
  vertex 410500.0 5318500.0 4970.39990234375
  vertex 411500.0 5317500.0 5021.5
  vertex 410500.0 5317500.0 5009.39990234375
 endloop
endfacet
facet normal 0.05113321542739868 9.996670996770263e-05 -0.9986918568611145
 outer loop
  vertex 410500.0 5318500.0 4970.39990234375
  vertex 411500.0 5318500.0 5021.60009765625
  vertex 411500.0 5317500.0 5021.5
 endloop
endfacet
facet normal 0.16106930375099182 9.879068966256455e-05 -0.9869431257247925
 outer loop
  vertex 411500.0 5318500.0 5021.60009765625
  vertex 412500.0 5317500.0 5184.7001953125
  vertex 411500.0 5317500.0 5021.5
 endloop
endfacet
facet normal 0.04544094204902649 -0.1163811907172203 -0.9921645522117615
 outer loop
  vertex 411500.0 5318500.0 5021.60009765625
  vertex 412500.0 5318500.0 5067.39990234375
  vertex 412500.0 5317500.0 5184.7001953125
 endloop
endfacet
facet normal 0.024325966835021973 -0.11646706610918045 -0.9928966164588928
 outer loop
  vertex 412500.0 5318500.0 5067.39990234375
  vertex 413500.0 5317500.0 5209.2001953125
  vertex 412500.0 5317500.0 5184.7001953125
 endloop
endfacet
facet normal 0.03667384758591652 -0.10425776243209839 -0.9938738942146301
 outer loop
  vertex 412500.0 5318500.0 5067.39990234375
  vertex 413500.0 5318500.0 5104.2998046875
  vertex 413500.0 5317500.0 5209.2001953125
 endloop
endfacet
facet normal 0.03935300558805466 -0.10424712300300598 -0.9937725067138672
 outer loop
  vertex 413500.0 5318500.0 5104.2998046875
  vertex 414500.0 5317500.0 5248.7998046875
  vertex 413500.0 5317500.0 5209.2001953125
 endloop
endfacet
facet normal 0.05151067674160004 -0.09218142181634903 -0.9944090247154236
 outer loop
  vertex 413500.0 5318500.0 5104.2998046875
  vertex 414500.0 5318500.0 5156.10009765625
  vertex 414500.0 5317500.0 5248.7998046875
 endloop
endfacet
facet normal 0.6718291640281677 -0.06837011128664017 -0.737544059753418
 outer loop
  vertex 414500.0 5318500.0 5156.10009765625
  vertex 415500.0 5317500.0 6159.7001953125
  vertex 414500.0 5317500.0 5248.7998046875
 endloop
endfacet
facet normal 0.8480823040008545 -0.22432170808315277 -0.4800375998020172
 outer loop
  vertex 416500.0 5318500.0 7563.7998046875
  vertex 417500.0 5317500.0 9797.7998046875
  vertex 416500.0 5317500.0 8031.10009765625
 endloop
endfacet
facet normal -0.09868882596492767 0.32689523696899414 -0.9398935437202454
 outer loop
  vertex 403500.0 5319500.0 5101.7001953125
  vertex 404500.0 5318500.0 4648.89990234375
  vertex 403500.0 5318500.0 4753.89990234375
 endloop
endfacet
facet normal -0.42736372351646423 -0.01807798072695732 -0.9038990139961243
 outer loop
  vertex 403500.0 5319500.0 5101.7001953125
  vertex 404500.0 5319500.0 4628.89990234375
  vertex 404500.0 5318500.0 4648.89990234375
 endloop
endfacet
facet normal 0.04085757955908775 -0.01997930370271206 -0.9989652037620544
 outer loop
  vertex 404500.0 5319500.0 4628.89990234375
  vertex 405500.0 5318500.0 4689.7998046875
  vertex 404500.0 5318500.0 4648.89990234375
 endloop
endfacet
facet normal 0.03207028657197952 -0.02877306006848812 -0.9990713596343994
 outer loop
  vertex 404500.0 5319500.0 4628.89990234375
  vertex 405500.0 5319500.0 4661.0
  vertex 405500.0 5318500.0 4689.7998046875
 endloop
endfacet
facet normal 0.04294252768158913 -0.02876131236553192 -0.9986634850502014
 outer loop
  vertex 405500.0 5319500.0 4661.0
  vertex 406500.0 5318500.0 4732.7998046875
  vertex 405500.0 5318500.0 4689.7998046875
 endloop
endfacet
facet normal 0.05007614567875862 -0.049277834594249725 -0.9975289702415466
 outer loop
  vertex 408500.0 5319500.0 4792.60009765625
  vertex 409500.0 5318500.0 4892.2001953125
  vertex 408500.0 5318500.0 4842.0
 endloop
endfacet
facet normal 0.05077407509088516 -0.04857980087399483 -0.9975279569625854
 outer loop
  vertex 408500.0 5319500.0 4792.60009765625
  vertex 409500.0 5319500.0 4843.5
  vertex 409500.0 5318500.0 4892.2001953125
 endloop
endfacet
facet normal 0.0778699740767479 -0.0484948456287384 -0.9957833290100098
 outer loop
  vertex 409500.0 5319500.0 4843.5
  vertex 410500.0 5318500.0 4970.39990234375
  vertex 409500.0 5318500.0 4892.2001953125
 endloop
endfacet
facet normal 0.059559714049100876 -0.06683070212602615 -0.9959851503372192
 outer loop
  vertex 409500.0 5319500.0 4843.5
  vertex 410500.0 5319500.0 4903.2998046875
  vertex 410500.0 5318500.0 4970.39990234375
 endloop
endfacet
facet normal 0.05101880058646202 -0.06686235964298248 -0.9964569807052612
 outer loop
  vertex 410500.0 5319500.0 4903.2998046875
  vertex 411500.0 5318500.0 5021.60009765625
  vertex 410500.0 5318500.0 4970.39990234375
 endloop
endfacet
facet normal 0.0328628346323967 -0.08494574576616287 -0.9958434700965881
 outer loop
  vertex 410500.0 5319500.0 4903.2998046875
  vertex 411500.0 5319500.0 4936.2998046875
  vertex 411500.0 5318500.0 5021.60009765625
 endloop
endfacet
facet normal 0.045586638152599335 -0.0849032923579216 -0.9953458309173584
 outer loop
  vertex 411500.0 5319500.0 4936.2998046875
  vertex 412500.0 5318500.0 5067.39990234375
  vertex 411500.0 5318500.0 5021.60009765625
 endloop
endfacet
facet normal 0.033821478486061096 -0.09659025818109512 -0.9947494268417358
 outer loop
  vertex 411500.0 5319500.0 4936.2998046875
  vertex 412500.0 5319500.0 4970.2998046875
  vertex 412500.0 5318500.0 5067.39990234375
 endloop
endfacet
facet normal 0.03670242801308632 -0.09658043831586838 -0.9946482181549072
 outer loop
  vertex 412500.0 5319500.0 4970.2998046875
  vertex 413500.0 5318500.0 5104.2998046875
  vertex 412500.0 5318500.0 5067.39990234375
 endloop
endfacet
facet normal 0.03391168266534805 -0.09934792667627335 -0.9944747090339661
 outer loop
  vertex 412500.0 5319500.0 4970.2998046875
  vertex 413500.0 5319500.0 5004.39990234375
  vertex 413500.0 5318500.0 5104.2998046875
 endloop
endfacet
facet normal 0.05147538334131241 -0.09927332401275635 -0.9937279224395752
 outer loop
  vertex 413500.0 5319500.0 5004.39990234375
  vertex 414500.0 5318500.0 5156.10009765625
  vertex 413500.0 5318500.0 5104.2998046875
 endloop
endfacet
facet normal 0.0292696300894022 -0.12124590575695038 -0.9921908378601074
 outer loop
  vertex 413500.0 5319500.0 5004.39990234375
  vertex 414500.0 5319500.0 5033.89990234375
  vertex 414500.0 5318500.0 5156.10009765625
 endloop
endfacet
facet normal 0.05956598371267319 -0.06524389237165451 -0.9960899353027344
 outer loop
  vertex 409500.0 5320500.0 4778.0
  vertex 410500.0 5319500.0 4903.2998046875
  vertex 409500.0 5319500.0 4843.5
 endloop
endfacet
facet normal 0.042516790330410004 -0.08224482834339142 -0.9957048296928406
 outer loop
  vertex 409500.0 5320500.0 4778.0
  vertex 410500.0 5320500.0 4820.7001953125
  vertex 410500.0 5319500.0 4903.2998046875
 endloop
endfacet
facet normal 0.032870225608348846 -0.08227477967739105 -0.996067464351654
 outer loop
  vertex 410500.0 5320500.0 4820.7001953125
  vertex 411500.0 5319500.0 4936.2998046875
  vertex 410500.0 5319500.0 4903.2998046875
 endloop
endfacet
facet normal 0.0481349341571331 -0.06707007437944412 -0.9965865015983582
 outer loop
  vertex 410500.0 5320500.0 4820.7001953125
  vertex 411500.0 5320500.0 4869.0
  vertex 411500.0 5319500.0 4936.2998046875
 endloop
endfacet
facet normal 0.03390376269817352 -0.06710930913686752 -0.9971694946289062
 outer loop
  vertex 411500.0 5320500.0 4869.0
  vertex 412500.0 5319500.0 4970.2998046875
  vertex 411500.0 5319500.0 4936.2998046875
 endloop
endfacet
facet normal 0.014842962846159935 -0.0860697329044342 -0.9961785078048706
 outer loop
  vertex 411500.0 5320500.0 4869.0
  vertex 412500.0 5320500.0 4883.89990234375
  vertex 412500.0 5319500.0 4970.2998046875
 endloop
endfacet
facet normal 0.03395393490791321 -0.08602958172559738 -0.9957138299942017
 outer loop
  vertex 412500.0 5320500.0 4883.89990234375
  vertex 413500.0 5319500.0 5004.39990234375
  vertex 412500.0 5319500.0 4970.2998046875
 endloop
endfacet
facet normal 0.02916678413748741 -0.09078414738178253 -0.9954434037208557
 outer loop
  vertex 412500.0 5320500.0 4883.89990234375
  vertex 413500.0 5320500.0 4913.2001953125
  vertex 413500.0 5319500.0 5004.39990234375
 endloop
endfacet
facet normal 0.029365409165620804 -0.09078361093997955 -0.9954376220703125
 outer loop
  vertex 413500.0 5320500.0 4913.2001953125
  vertex 414500.0 5319500.0 5033.89990234375
  vertex 413500.0 5319500.0 5004.39990234375
 endloop
endfacet
facet normal 0.04816529527306557 -0.05694107711315155 -0.9972150325775146
 outer loop
  vertex 410500.0 5321500.0 4763.60009765625
  vertex 411500.0 5320500.0 4869.0
  vertex 410500.0 5320500.0 4820.7001953125
 endloop
endfacet
facet normal 0.022916294634342194 -0.0821000188589096 -0.9963605999946594
 outer loop
  vertex 410500.0 5321500.0 4763.60009765625
  vertex 411500.0 5321500.0 4786.60009765625
  vertex 411500.0 5320500.0 4869.0
 endloop
endfacet
facet normal 0.014847934246063232 -0.08211253583431244 -0.9965124726295471
 outer loop
  vertex 411500.0 5321500.0 4786.60009765625
  vertex 412500.0 5320500.0 4883.89990234375
  vertex 411500.0 5320500.0 4869.0
 endloop
endfacet
facet normal 0.024028848856687546 -0.07298330217599869 -0.9970436692237854
 outer loop
  vertex 411500.0 5321500.0 4786.60009765625
  vertex 412500.0 5321500.0 4810.7001953125
  vertex 412500.0 5320500.0 4883.89990234375
 endloop
endfacet
facet normal 0.029209645465016365 -0.07297322899103165 -0.9969061017036438
 outer loop
  vertex 412500.0 5321500.0 4810.7001953125
  vertex 413500.0 5320500.0 4913.2001953125
  vertex 412500.0 5320500.0 4883.89990234375
 endloop
endfacet
facet normal 0.02671380713582039 -0.07545728236436844 -0.9967911243438721
 outer loop
  vertex 412500.0 5321500.0 4810.7001953125
  vertex 413500.0 5321500.0 4837.5
  vertex 413500.0 5320500.0 4913.2001953125
 endloop
endfacet
facet normal 0.022739987820386887 0.14820531010627747 -0.9886951446533203
 outer loop
  vertex 410500.0 5322500.0 4913.5
  vertex 411500.0 5321500.0 4786.60009765625
  vertex 410500.0 5321500.0 4763.60009765625
 endloop
endfacet
facet normal -0.17634554207324982 -0.05160616338253021 -0.9829745888710022
 outer loop
  vertex 410500.0 5322500.0 4913.5
  vertex 411500.0 5322500.0 4734.10009765625
  vertex 411500.0 5321500.0 4786.60009765625
 endloop
endfacet
facet normal 0.02405998297035694 -0.052412621676921844 -0.9983356595039368
 outer loop
  vertex 411500.0 5322500.0 4734.10009765625
  vertex 412500.0 5321500.0 4810.7001953125
  vertex 411500.0 5321500.0 4786.60009765625
 endloop
endfacet
facet normal 0.034748442471027374 -0.0417385958135128 -0.9985241293907166
 outer loop
  vertex 411500.0 5322500.0 4734.10009765625
  vertex 412500.0 5322500.0 4768.89990234375
  vertex 412500.0 5321500.0 4810.7001953125
 endloop
endfacet
facet normal 0.02676682360470295 -0.041748858988285065 -0.9987695217132568
 outer loop
  vertex 412500.0 5322500.0 4768.89990234375
  vertex 413500.0 5321500.0 4837.5
  vertex 412500.0 5321500.0 4810.7001953125
 endloop
endfacet
facet normal 0.0347437858581543 -0.04482762888073921 -0.9983903169631958
 outer loop
  vertex 411500.0 5323500.0 4689.2001953125
  vertex 412500.0 5322500.0 4768.89990234375
  vertex 411500.0 5322500.0 4734.10009765625
 endloop
endfacet
endsolid
