solid
facet normal 0.12136472016572952 0.16054625809192657 -0.9795384407043457
 outer loop
  vertex 510500.0 5439500.0 4417.7998046875
  vertex 511500.0 5438500.0 4377.7998046875
  vertex 510500.0 5438500.0 4253.89990234375
 endloop
endfacet
facet normal -0.10654681921005249 -0.06686454266309738 -0.9920569062232971
 outer loop
  vertex 510500.0 5439500.0 4417.7998046875
  vertex 511500.0 5439500.0 4310.39990234375
  vertex 511500.0 5438500.0 4377.7998046875
 endloop
endfacet
facet normal -0.02014639973640442 0.24786151945590973 -0.9685859680175781
 outer loop
  vertex 509500.0 5440500.0 4694.5
  vertex 510500.0 5440500.0 4673.7001953125
  vertex 510500.0 5439500.0 4417.7998046875
 endloop
endfacet
facet normal -0.1034884825348854 0.24658071994781494 -0.963580846786499
 outer loop
  vertex 510500.0 5440500.0 4673.7001953125
  vertex 511500.0 5439500.0 4310.39990234375
  vertex 510500.0 5439500.0 4417.7998046875
 endloop
endfacet
facet normal -0.09957826882600784 0.2502928674221039 -0.9630357027053833
 outer loop
  vertex 510500.0 5440500.0 4673.7001953125
  vertex 511500.0 5440500.0 4570.2998046875
  vertex 511500.0 5439500.0 4310.39990234375
 endloop
endfacet
facet normal -0.022061338648200035 0.25148189067840576 -0.9676105380058289
 outer loop
  vertex 511500.0 5440500.0 4570.2998046875
  vertex 512500.0 5439500.0 4287.60009765625
  vertex 511500.0 5439500.0 4310.39990234375
 endloop
endfacet
facet normal -0.31868064403533936 -0.05111009627580643 -0.9464832544326782
 outer loop
  vertex 511500.0 5440500.0 4570.2998046875
  vertex 512500.0 5440500.0 4233.60009765625
  vertex 512500.0 5439500.0 4287.60009765625
 endloop
endfacet
facet normal 0.2559901475906372 -0.0521247424185276 -0.9652730226516724
 outer loop
  vertex 512500.0 5440500.0 4233.60009765625
  vertex 513500.0 5439500.0 4552.7998046875
  vertex 512500.0 5439500.0 4287.60009765625
 endloop
endfacet
facet normal -0.039101097732782364 -0.3391258418560028 -0.9399280548095703
 outer loop
  vertex 512500.0 5440500.0 4233.60009765625
  vertex 513500.0 5440500.0 4192.0
  vertex 513500.0 5439500.0 4552.7998046875
 endloop
endfacet
facet normal 0.08039416372776031 -0.2899155616760254 -0.9536696672439575
 outer loop
  vertex 514500.0 5440500.0 4491.0
  vertex 515500.0 5440500.0 4575.2998046875
  vertex 515500.0 5439500.0 4879.2998046875
 endloop
endfacet
facet normal 0.34438538551330566 -0.27306482195854187 -0.8982395529747009
 outer loop
  vertex 515500.0 5440500.0 4575.2998046875
  vertex 516500.0 5439500.0 5262.7001953125
  vertex 515500.0 5439500.0 4879.2998046875
 endloop
endfacet
facet normal 0.31906992197036743 -0.2991054058074951 -0.8992944359779358
 outer loop
  vertex 515500.0 5440500.0 4575.2998046875
  vertex 516500.0 5440500.0 4930.10009765625
  vertex 516500.0 5439500.0 5262.7001953125
 endloop
endfacet
facet normal 0.5300201773643494 -0.2676253616809845 -0.8046461343765259
 outer loop
  vertex 516500.0 5440500.0 4930.10009765625
  vertex 517500.0 5439500.0 5921.39990234375
  vertex 516500.0 5439500.0 5262.7001953125
 endloop
endfacet
facet normal 0.22655640542507172 -0.5620161890983582 -0.7954935431480408
 outer loop
  vertex 516500.0 5440500.0 4930.10009765625
  vertex 517500.0 5440500.0 5214.89990234375
  vertex 517500.0 5439500.0 5921.39990234375
 endloop
endfacet
facet normal -0.04650324955582619 -0.576395571231842 -0.8158465027809143
 outer loop
  vertex 517500.0 5440500.0 5214.89990234375
  vertex 518500.0 5439500.0 5864.39990234375
  vertex 517500.0 5439500.0 5921.39990234375
 endloop
endfacet
facet normal -0.04974420368671417 -0.578529953956604 -0.8141428232192993
 outer loop
  vertex 517500.0 5440500.0 5214.89990234375
  vertex 518500.0 5440500.0 5153.7998046875
  vertex 518500.0 5439500.0 5864.39990234375
 endloop
endfacet
facet normal 0.025424674153327942 -0.579059898853302 -0.8148884773254395
 outer loop
  vertex 518500.0 5440500.0 5153.7998046875
  vertex 519500.0 5439500.0 5895.60009765625
  vertex 518500.0 5439500.0 5864.39990234375
 endloop
endfacet
facet normal 0.44827625155448914 -0.19829438626766205 -0.8716235756874084
 outer loop
  vertex 518500.0 5440500.0 5153.7998046875
  vertex 519500.0 5440500.0 5668.10009765625
  vertex 519500.0 5439500.0 5895.60009765625
 endloop
endfacet
facet normal -0.10282272845506668 0.023865919560194016 -0.9944133162498474
 outer loop
  vertex 510500.0 5441500.0 4697.7001953125
  vertex 511500.0 5440500.0 4570.2998046875
  vertex 510500.0 5440500.0 4673.7001953125
 endloop
endfacet
facet normal -0.0435066856443882 0.08332955837249756 -0.9955719113349915
 outer loop
  vertex 510500.0 5441500.0 4697.7001953125
  vertex 511500.0 5441500.0 4654.0
  vertex 511500.0 5440500.0 4570.2998046875
 endloop
endfacet
facet normal -0.31809842586517334 0.07907610386610031 -0.9447540640830994
 outer loop
  vertex 511500.0 5441500.0 4654.0
  vertex 512500.0 5440500.0 4233.60009765625
  vertex 511500.0 5440500.0 4570.2998046875
 endloop
endfacet
facet normal -0.02896924689412117 0.3626265823841095 -0.9314841032028198
 outer loop
  vertex 511500.0 5441500.0 4654.0
  vertex 512500.0 5441500.0 4622.89990234375
  vertex 512500.0 5440500.0 4233.60009765625
 endloop
endfacet
facet normal -0.03873700276017189 0.36250659823417664 -0.9311758875846863
 outer loop
  vertex 512500.0 5441500.0 4622.89990234375
  vertex 513500.0 5440500.0 4192.0
  vertex 512500.0 5440500.0 4233.60009765625
 endloop
endfacet
facet normal -0.32097867131233215 0.08545610308647156 -0.9432231783866882
 outer loop
  vertex 512500.0 5441500.0 4622.89990234375
  vertex 513500.0 5441500.0 4282.60009765625
  vertex 513500.0 5440500.0 4192.0
 endloop
endfacet
facet normal 0.2853955924510956 0.08647782355546951 -0.9545003175735474
 outer loop
  vertex 513500.0 5441500.0 4282.60009765625
  vertex 514500.0 5440500.0 4491.0
  vertex 513500.0 5440500.0 4192.0
 endloop
endfacet
facet normal -0.04310165345668793 -0.24495290219783783 -0.9685764908790588
 outer loop
  vertex 513500.0 5441500.0 4282.60009765625
  vertex 514500.0 5441500.0 4238.10009765625
  vertex 514500.0 5440500.0 4491.0
 endloop
endfacet
facet normal 0.08145518600940704 -0.24436600506305695 -0.966255784034729
 outer loop
  vertex 514500.0 5441500.0 4238.10009765625
  vertex 515500.0 5440500.0 4575.2998046875
  vertex 514500.0 5440500.0 4491.0
 endloop
endfacet
facet normal 0.17990954220294952 -0.14801178872585297 -0.9724839925765991
 outer loop
  vertex 514500.0 5441500.0 4238.10009765625
  vertex 515500.0 5441500.0 4423.10009765625
  vertex 515500.0 5440500.0 4575.2998046875
 endloop
endfacet
facet normal 0.3309900164604187 -0.1419857293367386 -0.9328909516334534
 outer loop
  vertex 515500.0 5441500.0 4423.10009765625
  vertex 516500.0 5440500.0 4930.10009765625
  vertex 515500.0 5440500.0 4575.2998046875
 endloop
endfacet
facet normal 0.14160268008708954 -0.33133965730667114 -0.9328251481056213
 outer loop
  vertex 515500.0 5441500.0 4423.10009765625
  vertex 516500.0 5441500.0 4574.89990234375
  vertex 516500.0 5440500.0 4930.10009765625
 endloop
endfacet
facet normal 0.2592006027698517 -0.32327306270599365 -0.910115122795105
 outer loop
  vertex 516500.0 5441500.0 4574.89990234375
  vertex 517500.0 5440500.0 5214.89990234375
  vertex 516500.0 5440500.0 4930.10009765625
 endloop
endfacet
facet normal 0.30460286140441895 -0.278369277715683 -0.910893976688385
 outer loop
  vertex 516500.0 5441500.0 4574.89990234375
  vertex 517500.0 5441500.0 4909.2998046875
  vertex 517500.0 5440500.0 5214.89990234375
 endloop
endfacet
facet normal -0.05833294242620468 -0.29175981879234314 -0.9547111988067627
 outer loop
  vertex 517500.0 5441500.0 4909.2998046875
  vertex 518500.0 5440500.0 5153.7998046875
  vertex 517500.0 5440500.0 5214.89990234375
 endloop
endfacet
facet normal 0.32928958535194397 0.09971655160188675 -0.938948929309845
 outer loop
  vertex 517500.0 5441500.0 4909.2998046875
  vertex 518500.0 5441500.0 5260.0
  vertex 518500.0 5440500.0 5153.7998046875
 endloop
endfacet
facet normal 0.4553321599960327 0.09402360022068024 -0.8853430151939392
 outer loop
  vertex 518500.0 5441500.0 5260.0
  vertex 519500.0 5440500.0 5668.10009765625
  vertex 518500.0 5440500.0 5153.7998046875
 endloop
endfacet
facet normal 0.46803975105285645 0.1102144718170166 -0.8768076300621033
 outer loop
  vertex 518500.0 5441500.0 5260.0
  vertex 519500.0 5441500.0 5793.7998046875
  vertex 519500.0 5440500.0 5668.10009765625
 endloop
endfacet
facet normal -0.030637679621577263 -0.16904863715171814 -0.9851313829421997
 outer loop
  vertex 511500.0 5442500.0 4482.39990234375
  vertex 512500.0 5441500.0 4622.89990234375
  vertex 511500.0 5441500.0 4654.0
 endloop
endfacet
facet normal -0.06584568321704865 -0.20310579240322113 -0.9769402742385864
 outer loop
  vertex 511500.0 5442500.0 4482.39990234375
  vertex 512500.0 5442500.0 4415.0
  vertex 512500.0 5441500.0 4622.89990234375
 endloop
endfacet
facet normal -0.3160931169986725 -0.19311127066612244 -0.9288665652275085
 outer loop
  vertex 512500.0 5442500.0 4415.0
  vertex 513500.0 5441500.0 4282.60009765625
  vertex 512500.0 5441500.0 4622.89990234375
 endloop
endfacet
facet normal -0.1545741707086563 -0.023803526535630226 -0.9876943826675415
 outer loop
  vertex 512500.0 5442500.0 4415.0
  vertex 513500.0 5442500.0 4258.5
  vertex 513500.0 5441500.0 4282.60009765625
 endloop
endfacet
facet normal -0.044443123042583466 -0.024069294333457947 -0.9987218976020813
 outer loop
  vertex 513500.0 5442500.0 4258.5
  vertex 514500.0 5441500.0 4238.10009765625
  vertex 513500.0 5441500.0 4282.60009765625
 endloop
endfacet
facet normal -0.03706942871212959 -0.016686391085386276 -0.9991733431816101
 outer loop
  vertex 513500.0 5442500.0 4258.5
  vertex 514500.0 5442500.0 4221.39990234375
  vertex 514500.0 5441500.0 4238.10009765625
 endloop
endfacet
facet normal 0.18188868463039398 -0.01641933247447014 -0.9831820726394653
 outer loop
  vertex 514500.0 5442500.0 4221.39990234375
  vertex 515500.0 5441500.0 4423.10009765625
  vertex 514500.0 5441500.0 4238.10009765625
 endloop
endfacet
facet normal 0.06575778871774673 -0.1336912214756012 -0.9888389706611633
 outer loop
  vertex 514500.0 5442500.0 4221.39990234375
  vertex 515500.0 5442500.0 4287.89990234375
  vertex 515500.0 5441500.0 4423.10009765625
 endloop
endfacet
facet normal 0.1487574279308319 -0.13249048590660095 -0.9799578785896301
 outer loop
  vertex 515500.0 5442500.0 4287.89990234375
  vertex 516500.0 5441500.0 4574.89990234375
  vertex 515500.0 5441500.0 4423.10009765625
 endloop
endfacet
facet normal 0.1733742207288742 -0.10758780688047409 -0.9789618253707886
 outer loop
  vertex 515500.0 5442500.0 4287.89990234375
  vertex 516500.0 5442500.0 4465.0
  vertex 516500.0 5441500.0 4574.89990234375
 endloop
endfacet
facet normal 0.31542932987213135 -0.10366525501012802 -0.9432697296142578
 outer loop
  vertex 516500.0 5442500.0 4465.0
  vertex 517500.0 5441500.0 4909.2998046875
  vertex 516500.0 5441500.0 4574.89990234375
 endloop
endfacet
facet normal -0.032699957489967346 -0.4329386055469513 -0.900830090045929
 outer loop
  vertex 516500.0 5442500.0 4465.0
  vertex 517500.0 5442500.0 4428.7001953125
  vertex 517500.0 5441500.0 4909.2998046875
 endloop
endfacet
facet normal 0.30139219760894775 -0.41302794218063354 -0.859401285648346
 outer loop
  vertex 517500.0 5442500.0 4428.7001953125
  vertex 518500.0 5441500.0 5260.0
  vertex 517500.0 5441500.0 4909.2998046875
 endloop
endfacet
facet normal 0.3382362127304077 -0.37813499569892883 -0.8617483377456665
 outer loop
  vertex 517500.0 5442500.0 4428.7001953125
  vertex 518500.0 5442500.0 4821.2001953125
  vertex 518500.0 5441500.0 5260.0
 endloop
endfacet
facet normal 0.43915367126464844 -0.3609977960586548 -0.8226935863494873
 outer loop
  vertex 518500.0 5442500.0 4821.2001953125
  vertex 519500.0 5441500.0 5793.7998046875
  vertex 518500.0 5441500.0 5260.0
 endloop
endfacet
facet normal -0.06722725182771683 0.02443724125623703 -0.997438371181488
 outer loop
  vertex 511500.0 5443500.0 4506.89990234375
  vertex 512500.0 5442500.0 4415.0
  vertex 511500.0 5442500.0 4482.39990234375
 endloop
endfacet
facet normal 0.10172226279973984 0.1914367377758026 -0.9762195348739624
 outer loop
  vertex 511500.0 5443500.0 4506.89990234375
  vertex 512500.0 5443500.0 4611.10009765625
  vertex 512500.0 5442500.0 4415.0
 endloop
endfacet
facet normal -0.15179534256458282 0.19020499289035797 -0.9699382781982422
 outer loop
  vertex 512500.0 5443500.0 4611.10009765625
  vertex 513500.0 5442500.0 4258.5
  vertex 512500.0 5442500.0 4415.0
 endloop
endfacet
facet normal -0.15754735469818115 0.18451696634292603 -0.9701197743415833
 outer loop
  vertex 512500.0 5443500.0 4611.10009765625
  vertex 513500.0 5443500.0 4448.7001953125
  vertex 513500.0 5442500.0 4258.5
 endloop
endfacet
facet normal -0.03642253577709198 0.18672648072242737 -0.9817365407943726
 outer loop
  vertex 513500.0 5443500.0 4448.7001953125
  vertex 514500.0 5442500.0 4221.39990234375
  vertex 513500.0 5442500.0 4258.5
 endloop
endfacet
facet normal -0.23418006300926208 -0.013220695778727531 -0.9721032977104187
 outer loop
  vertex 513500.0 5443500.0 4448.7001953125
  vertex 514500.0 5443500.0 4207.7998046875
  vertex 514500.0 5442500.0 4221.39990234375
 endloop
endfacet
facet normal 0.06634733825922012 -0.013568876311182976 -0.9977043271064758
 outer loop
  vertex 514500.0 5443500.0 4207.7998046875
  vertex 515500.0 5442500.0 4287.89990234375
  vertex 514500.0 5442500.0 4221.39990234375
 endloop
endfacet
facet normal 0.015565862879157066 -0.06435845047235489 -0.9978054761886597
 outer loop
  vertex 514500.0 5443500.0 4207.7998046875
  vertex 515500.0 5443500.0 4223.39990234375
  vertex 515500.0 5442500.0 4287.89990234375
 endloop
endfacet
facet normal 0.17403578758239746 -0.06338398158550262 -0.9826973676681519
 outer loop
  vertex 515500.0 5443500.0 4223.39990234375
  vertex 516500.0 5442500.0 4465.0
  vertex 515500.0 5442500.0 4287.89990234375
 endloop
endfacet
facet normal 0.1983260214328766 -0.03829415142536163 -0.9793877601623535
 outer loop
  vertex 515500.0 5443500.0 4223.39990234375
  vertex 516500.0 5443500.0 4425.89990234375
  vertex 516500.0 5442500.0 4465.0
 endloop
endfacet
facet normal -0.03624825179576874 -0.039044566452503204 -0.998579740524292
 outer loop
  vertex 516500.0 5443500.0 4425.89990234375
  vertex 517500.0 5442500.0 4428.7001953125
  vertex 516500.0 5442500.0 4465.0
 endloop
endfacet
facet normal 0.3819602429866791 0.3796006441116333 -0.8426207900047302
 outer loop
  vertex 516500.0 5443500.0 4425.89990234375
  vertex 517500.0 5443500.0 4879.2001953125
  vertex 517500.0 5442500.0 4428.7001953125
 endloop
endfacet
facet normal 0.33693698048591614 0.38672640919685364 -0.8584381937980652
 outer loop
  vertex 517500.0 5443500.0 4879.2001953125
  vertex 518500.0 5442500.0 4821.2001953125
  vertex 517500.0 5442500.0 4428.7001953125
 endloop
endfacet
facet normal 0.5047165751457214 0.5436131954193115 -0.670630931854248
 outer loop
  vertex 517500.0 5443500.0 4879.2001953125
  vertex 518500.0 5443500.0 5631.7998046875
  vertex 518500.0 5442500.0 4821.2001953125
 endloop
endfacet
facet normal -0.20030026137828827 -0.09922397881746292 -0.9746971130371094
 outer loop
  vertex 510500.0 5444500.0 4610.60009765625
  vertex 511500.0 5444500.0 4405.10009765625
  vertex 511500.0 5443500.0 4506.89990234375
 endloop
endfacet
facet normal 0.1031118780374527 -0.10073655843734741 -0.9895554780960083
 outer loop
  vertex 511500.0 5444500.0 4405.10009765625
  vertex 512500.0 5443500.0 4611.10009765625
  vertex 511500.0 5443500.0 4506.89990234375
 endloop
endfacet
facet normal 0.1384505331516266 -0.06512399017810822 -0.9882258176803589
 outer loop
  vertex 511500.0 5444500.0 4405.10009765625
  vertex 512500.0 5444500.0 4545.2001953125
  vertex 512500.0 5443500.0 4611.10009765625
 endloop
endfacet
facet normal -0.1599617451429367 -0.06491053104400635 -0.9849867224693298
 outer loop
  vertex 512500.0 5444500.0 4545.2001953125
  vertex 513500.0 5443500.0 4448.7001953125
  vertex 512500.0 5443500.0 4611.10009765625
 endloop
endfacet
facet normal -0.04948493838310242 0.04679100960493088 -0.9976782202720642
 outer loop
  vertex 512500.0 5444500.0 4545.2001953125
  vertex 513500.0 5444500.0 4495.60009765625
  vertex 513500.0 5443500.0 4448.7001953125
 endloop
endfacet
facet normal -0.2339574694633484 0.045548215508461 -0.9711793661117554
 outer loop
  vertex 513500.0 5444500.0 4495.60009765625
  vertex 514500.0 5443500.0 4207.7998046875
  vertex 513500.0 5443500.0 4448.7001953125
 endloop
endfacet
facet normal -0.26998013257980347 0.007125373929738998 -0.9628395438194275
 outer loop
  vertex 513500.0 5444500.0 4495.60009765625
  vertex 514500.0 5444500.0 4215.2001953125
  vertex 514500.0 5443500.0 4207.7998046875
 endloop
endfacet
facet normal 0.015597772784531116 0.007399287540465593 -0.9998509883880615
 outer loop
  vertex 514500.0 5444500.0 4215.2001953125
  vertex 515500.0 5443500.0 4223.39990234375
  vertex 514500.0 5443500.0 4207.7998046875
 endloop
endfacet
facet normal -0.023980669677257538 -0.032173771411180496 -0.9991945624351501
 outer loop
  vertex 514500.0 5444500.0 4215.2001953125
  vertex 515500.0 5444500.0 4191.2001953125
  vertex 515500.0 5443500.0 4223.39990234375
 endloop
endfacet
facet normal 0.19837282598018646 -0.031543441116809845 -0.9796189069747925
 outer loop
  vertex 515500.0 5444500.0 4191.2001953125
  vertex 516500.0 5443500.0 4425.89990234375
  vertex 515500.0 5443500.0 4223.39990234375
 endloop
endfacet
facet normal 0.5651161670684814 0.3951397240161896 -0.7242295145988464
 outer loop
  vertex 515500.0 5444500.0 4191.2001953125
  vertex 516500.0 5444500.0 4971.5
  vertex 516500.0 5443500.0 4425.89990234375
 endloop
endfacet
facet normal 0.36972883343696594 0.44501206278800964 -0.8156377077102661
 outer loop
  vertex 516500.0 5444500.0 4971.5
  vertex 517500.0 5443500.0 4879.2001953125
  vertex 516500.0 5443500.0 4425.89990234375
 endloop
endfacet
facet normal 0.43727564811706543 0.5059041976928711 -0.7435394525527954
 outer loop
  vertex 516500.0 5444500.0 4971.5
  vertex 517500.0 5444500.0 5559.60009765625
  vertex 517500.0 5443500.0 4879.2001953125
 endloop
endfacet
facet normal 0.5283058881759644 0.4776235520839691 -0.7019747495651245
 outer loop
  vertex 517500.0 5444500.0 5559.60009765625
  vertex 518500.0 5443500.0 5631.7998046875
  vertex 517500.0 5443500.0 4879.2001953125
 endloop
endfacet
facet normal -0.518164336681366 -0.564551591873169 -0.6424852609634399
 outer loop
  vertex 517500.0 5444500.0 5559.60009765625
  vertex 518500.0 5444500.0 4753.10009765625
  vertex 518500.0 5443500.0 5631.7998046875
 endloop
endfacet
facet normal 0.10998347401618958 -0.0660497397184372 -0.9917364120483398
 outer loop
  vertex 509500.0 5445500.0 4433.10009765625
  vertex 510500.0 5444500.0 4610.60009765625
  vertex 509500.0 5444500.0 4499.7001953125
 endloop
endfacet
facet normal 0.21273845434188843 0.03944294527173042 -0.9763127565383911
 outer loop
  vertex 509500.0 5445500.0 4433.10009765625
  vertex 510500.0 5445500.0 4651.0
  vertex 510500.0 5444500.0 4610.60009765625
 endloop
endfacet
facet normal -0.20113618671894073 0.03954200819134712 -0.9787648916244507
 outer loop
  vertex 510500.0 5445500.0 4651.0
  vertex 511500.0 5444500.0 4405.10009765625
  vertex 510500.0 5444500.0 4610.60009765625
 endloop
endfacet
facet normal -0.0363914780318737 0.20416265726089478 -0.978260338306427
 outer loop
  vertex 510500.0 5445500.0 4651.0
  vertex 511500.0 5445500.0 4613.7998046875
  vertex 511500.0 5444500.0 4405.10009765625
 endloop
endfacet
facet normal 0.13587334752082825 0.20240335166454315 -0.9698305726051331
 outer loop
  vertex 511500.0 5445500.0 4613.7998046875
  vertex 512500.0 5444500.0 4545.2001953125
  vertex 511500.0 5444500.0 4405.10009765625
 endloop
endfacet
facet normal -0.011080625467002392 0.05740165710449219 -0.9982897043228149
 outer loop
  vertex 511500.0 5445500.0 4613.7998046875
  vertex 512500.0 5445500.0 4602.7001953125
  vertex 512500.0 5444500.0 4545.2001953125
 endloop
endfacet
facet normal -0.04945770278573036 0.05733492970466614 -0.9971292018890381
 outer loop
  vertex 512500.0 5445500.0 4602.7001953125
  vertex 513500.0 5444500.0 4495.60009765625
  vertex 512500.0 5444500.0 4545.2001953125
 endloop
endfacet
facet normal -0.35233843326568604 -0.2559269666671753 -0.9001994729042053
 outer loop
  vertex 512500.0 5445500.0 4602.7001953125
  vertex 513500.0 5445500.0 4211.2998046875
  vertex 513500.0 5444500.0 4495.60009765625
 endloop
endfacet
facet normal -0.2604064345359802 -0.26402872800827026 -0.9286966323852539
 outer loop
  vertex 513500.0 5445500.0 4211.2998046875
  vertex 514500.0 5444500.0 4215.2001953125
  vertex 513500.0 5444500.0 4495.60009765625
 endloop
endfacet
facet normal -0.0531376451253891 -0.05702617019414902 -0.9969576001167297
 outer loop
  vertex 513500.0 5445500.0 4211.2998046875
  vertex 514500.0 5445500.0 4158.0
  vertex 514500.0 5444500.0 4215.2001953125
 endloop
endfacet
facet normal -0.023953959345817566 -0.05709046497941017 -0.998081624507904
 outer loop
  vertex 514500.0 5445500.0 4158.0
  vertex 515500.0 5444500.0 4191.2001953125
  vertex 514500.0 5444500.0 4215.2001953125
 endloop
endfacet
facet normal 0.021193906664848328 -0.011996440589427948 -0.9997034072875977
 outer loop
  vertex 514500.0 5445500.0 4158.0
  vertex 515500.0 5445500.0 4179.2001953125
  vertex 515500.0 5444500.0 4191.2001953125
 endloop
endfacet
facet normal 0.6151512265205383 -0.009460228495299816 -0.7883524298667908
 outer loop
  vertex 515500.0 5445500.0 4179.2001953125
  vertex 516500.0 5444500.0 4971.5
  vertex 515500.0 5444500.0 4191.2001953125
 endloop
endfacet
facet normal 0.3049409091472626 -0.3851616084575653 -0.8710118532180786
 outer loop
  vertex 515500.0 5445500.0 4179.2001953125
  vertex 516500.0 5445500.0 4529.2998046875
  vertex 516500.0 5444500.0 4971.5
 endloop
endfacet
facet normal 0.47368893027305603 -0.3561728894710541 -0.8054562211036682
 outer loop
  vertex 516500.0 5445500.0 4529.2998046875
  vertex 517500.0 5444500.0 5559.60009765625
  vertex 516500.0 5444500.0 4971.5
 endloop
endfacet
facet normal 0.25173959136009216 0.3290998637676239 -0.9101210832595825
 outer loop
  vertex 508500.0 5446500.0 4518.10009765625
  vertex 509500.0 5446500.0 4794.7001953125
  vertex 509500.0 5445500.0 4433.10009765625
 endloop
endfacet
facet normal 0.20074330270290375 0.33312907814979553 -0.9212638139724731
 outer loop
  vertex 509500.0 5446500.0 4794.7001953125
  vertex 510500.0 5445500.0 4651.0
  vertex 509500.0 5445500.0 4433.10009765625
 endloop
endfacet
facet normal -0.045933619141578674 0.09693741798400879 -0.9942299723625183
 outer loop
  vertex 509500.0 5446500.0 4794.7001953125
  vertex 510500.0 5446500.0 4748.5
  vertex 510500.0 5445500.0 4651.0
 endloop
endfacet
facet normal -0.03699927031993866 0.09697340428829193 -0.9945990443229675
 outer loop
  vertex 510500.0 5446500.0 4748.5
  vertex 511500.0 5445500.0 4613.7998046875
  vertex 510500.0 5445500.0 4651.0
 endloop
endfacet
facet normal -0.21848376095294952 -0.08756815642118454 -0.9719036817550659
 outer loop
  vertex 510500.0 5446500.0 4748.5
  vertex 511500.0 5446500.0 4523.7001953125
  vertex 511500.0 5445500.0 4613.7998046875
 endloop
endfacet
facet normal -0.011054153554141521 -0.0897306278347969 -0.9959047436714172
 outer loop
  vertex 511500.0 5446500.0 4523.7001953125
  vertex 512500.0 5445500.0 4602.7001953125
  vertex 511500.0 5445500.0 4613.7998046875
 endloop
endfacet
facet normal 0.05898503214120865 -0.01986180990934372 -0.9980612397193909
 outer loop
  vertex 511500.0 5446500.0 4523.7001953125
  vertex 512500.0 5446500.0 4582.7998046875
  vertex 512500.0 5445500.0 4602.7001953125
 endloop
endfacet
facet normal -0.36441436409950256 -0.01852831058204174 -0.9310526251792908
 outer loop
  vertex 512500.0 5446500.0 4582.7998046875
  vertex 513500.0 5445500.0 4211.2998046875
  vertex 512500.0 5445500.0 4602.7001953125
 endloop
endfacet
facet normal -0.15046349167823792 0.20854288339614868 -0.9663698077201843
 outer loop
  vertex 512500.0 5446500.0 4582.7998046875
  vertex 513500.0 5446500.0 4427.10009765625
  vertex 513500.0 5445500.0 4211.2998046875
 endloop
endfacet
facet normal -0.05202988162636757 0.21065865457057953 -0.9761741161346436
 outer loop
  vertex 513500.0 5446500.0 4427.10009765625
  vertex 514500.0 5445500.0 4158.0
  vertex 513500.0 5445500.0 4211.2998046875
 endloop
endfacet
facet normal -0.24240218102931976 0.01862412504851818 -0.9699971079826355
 outer loop
  vertex 513500.0 5446500.0 4427.10009765625
  vertex 514500.0 5446500.0 4177.2001953125
  vertex 514500.0 5445500.0 4158.0
 endloop
endfacet
facet normal 0.02119152992963791 0.019192347303032875 -0.9995912313461304
 outer loop
  vertex 514500.0 5446500.0 4177.2001953125
  vertex 515500.0 5445500.0 4179.2001953125
  vertex 514500.0 5445500.0 4158.0
 endloop
endfacet
facet normal -0.006699791178107262 -0.008699670433998108 -0.9999396800994873
 outer loop
  vertex 514500.0 5446500.0 4177.2001953125
  vertex 515500.0 5446500.0 4170.5
  vertex 515500.0 5445500.0 4179.2001953125
 endloop
endfacet
facet normal 0.3304230570793152 -0.008211220614612103 -0.94379723072052
 outer loop
  vertex 515500.0 5446500.0 4170.5
  vertex 516500.0 5445500.0 4529.2998046875
  vertex 515500.0 5445500.0 4179.2001953125
 endloop
endfacet
facet normal 0.0015734215267002583 0.1802004724740982 -0.9836286306381226
 outer loop
  vertex 505500.0 5447500.0 5010.7001953125
  vertex 506500.0 5447500.0 5012.2998046875
  vertex 506500.0 5446500.0 4829.10009765625
 endloop
endfacet
facet normal -0.03204996883869171 0.18010812997817993 -0.9831245541572571
 outer loop
  vertex 506500.0 5447500.0 5012.2998046875
  vertex 507500.0 5446500.0 4796.5
  vertex 506500.0 5446500.0 4829.10009765625
 endloop
endfacet
facet normal -0.26481330394744873 -0.057082515209913254 -0.9626087546348572
 outer loop
  vertex 506500.0 5447500.0 5012.2998046875
  vertex 507500.0 5447500.0 4737.2001953125
  vertex 507500.0 5446500.0 4796.5
 endloop
endfacet
facet normal -0.2677636444568634 -0.05703425779938698 -0.9617950320243835
 outer loop
  vertex 507500.0 5447500.0 4737.2001953125
  vertex 508500.0 5446500.0 4518.10009765625
  vertex 507500.0 5446500.0 4796.5
 endloop
endfacet
facet normal -0.07512088119983673 0.14115996658802032 -0.9871326088905334
 outer loop
  vertex 507500.0 5447500.0 4737.2001953125
  vertex 508500.0 5447500.0 4661.10009765625
  vertex 508500.0 5446500.0 4518.10009765625
 endloop
endfacet
facet normal 0.26409342885017395 0.13653415441513062 -0.9547842741012573
 outer loop
  vertex 508500.0 5447500.0 4661.10009765625
  vertex 509500.0 5446500.0 4794.7001953125
  vertex 508500.0 5446500.0 4518.10009765625
 endloop
endfacet
facet normal 0.19792786240577698 0.06727967411279678 -0.9779049158096313
 outer loop
  vertex 508500.0 5447500.0 4661.10009765625
  vertex 509500.0 5447500.0 4863.5
  vertex 509500.0 5446500.0 4794.7001953125
 endloop
endfacet
facet normal -0.04604236036539078 0.0685647577047348 -0.9965836405754089
 outer loop
  vertex 509500.0 5447500.0 4863.5
  vertex 510500.0 5446500.0 4748.5
  vertex 509500.0 5446500.0 4794.7001953125
 endloop
endfacet
facet normal -0.3326028287410736 -0.22734874486923218 -0.9152529239654541
 outer loop
  vertex 509500.0 5447500.0 4863.5
  vertex 510500.0 5447500.0 4500.10009765625
  vertex 510500.0 5446500.0 4748.5
 endloop
endfacet
facet normal -0.2131558358669281 -0.23553350567817688 -0.9482028484344482
 outer loop
  vertex 510500.0 5447500.0 4500.10009765625
  vertex 511500.0 5446500.0 4523.7001953125
  vertex 510500.0 5446500.0 4748.5
 endloop
endfacet
facet normal 0.061736561357975006 0.03819873929023743 -0.9973612427711487
 outer loop
  vertex 510500.0 5447500.0 4500.10009765625
  vertex 511500.0 5447500.0 4562.0
  vertex 511500.0 5446500.0 4523.7001953125
 endloop
endfacet
facet normal 0.05895359441637993 0.03820518031716347 -0.9975293874740601
 outer loop
  vertex 511500.0 5447500.0 4562.0
  vertex 512500.0 5446500.0 4582.7998046875
  vertex 511500.0 5446500.0 4523.7001953125
 endloop
endfacet
facet normal -0.08783239126205444 -0.1084287017583847 -0.9902164936065674
 outer loop
  vertex 511500.0 5447500.0 4562.0
  vertex 512500.0 5447500.0 4473.2998046875
  vertex 512500.0 5446500.0 4582.7998046875
 endloop
endfacet
facet normal -0.1529534012079239 -0.10756859183311462 -0.9823615550994873
 outer loop
  vertex 512500.0 5447500.0 4473.2998046875
  vertex 513500.0 5446500.0 4427.10009765625
  vertex 512500.0 5446500.0 4582.7998046875
 endloop
endfacet
facet normal -0.22604236006736755 -0.18182939291000366 -0.9569967985153198
 outer loop
  vertex 512500.0 5447500.0 4473.2998046875
  vertex 513500.0 5447500.0 4237.10009765625
  vertex 513500.0 5446500.0 4427.10009765625
 endloop
endfacet
facet normal -0.23842741549015045 -0.18127742409706116 -0.9540916681289673
 outer loop
  vertex 513500.0 5447500.0 4237.10009765625
  vertex 514500.0 5446500.0 4177.2001953125
  vertex 513500.0 5446500.0 4427.10009765625
 endloop
endfacet
facet normal -0.0715116485953331 -0.01176926214247942 -0.9973703026771545
 outer loop
  vertex 513500.0 5447500.0 4237.10009765625
  vertex 514500.0 5447500.0 4165.39990234375
  vertex 514500.0 5446500.0 4177.2001953125
 endloop
endfacet
facet normal -0.006699578370898962 -0.011799206957221031 -0.9999079704284668
 outer loop
  vertex 514500.0 5447500.0 4165.39990234375
  vertex 515500.0 5446500.0 4170.5
  vertex 514500.0 5446500.0 4177.2001953125
 endloop
endfacet
facet normal -0.05149189755320549 0.039217401295900345 -0.9979031085968018
 outer loop
  vertex 504500.0 5448500.0 5101.60009765625
  vertex 505500.0 5448500.0 5050.0
  vertex 505500.0 5447500.0 5010.7001953125
 endloop
endfacet
facet normal 0.0015983734047040343 0.03926943987607956 -0.9992273449897766
 outer loop
  vertex 505500.0 5448500.0 5050.0
  vertex 506500.0 5447500.0 5012.2998046875
  vertex 505500.0 5447500.0 5010.7001953125
 endloop
endfacet
facet normal -0.16915835440158844 -0.13233794271945953 -0.9766637682914734
 outer loop
  vertex 505500.0 5448500.0 5050.0
  vertex 506500.0 5448500.0 4876.7998046875
  vertex 506500.0 5447500.0 5012.2998046875
 endloop
endfacet
facet normal -0.2630106806755066 -0.12954559922218323 -0.9560561180114746
 outer loop
  vertex 506500.0 5448500.0 4876.7998046875
  vertex 507500.0 5447500.0 4737.2001953125
  vertex 506500.0 5447500.0 5012.2998046875
 endloop
endfacet
facet normal -0.10288374871015549 0.03588467091321945 -0.9940459132194519
 outer loop
  vertex 506500.0 5448500.0 4876.7998046875
  vertex 507500.0 5448500.0 4773.2998046875
  vertex 507500.0 5447500.0 4737.2001953125
 endloop
endfacet
facet normal -0.0758315771818161 0.0359722338616848 -0.9964715838432312
 outer loop
  vertex 507500.0 5448500.0 4773.2998046875
  vertex 508500.0 5447500.0 4661.10009765625
  vertex 507500.0 5447500.0 4737.2001953125
 endloop
endfacet
facet normal 0.016461864113807678 0.12772724032402039 -0.991672694683075
 outer loop
  vertex 507500.0 5448500.0 4773.2998046875
  vertex 508500.0 5448500.0 4789.89990234375
  vertex 508500.0 5447500.0 4661.10009765625
 endloop
endfacet
facet normal 0.19681526720523834 0.12524594366550446 -0.9724079370498657
 outer loop
  vertex 508500.0 5448500.0 4789.89990234375
  vertex 509500.0 5447500.0 4863.5
  vertex 508500.0 5447500.0 4661.10009765625
 endloop
endfacet
facet normal -0.18166381120681763 -0.25162962079048157 -0.9506213068962097
 outer loop
  vertex 508500.0 5448500.0 4789.89990234375
  vertex 509500.0 5448500.0 4598.7998046875
  vertex 509500.0 5447500.0 4863.5
 endloop
endfacet
facet normal -0.33144375681877136 -0.24142338335514069 -0.9120635390281677
 outer loop
  vertex 509500.0 5448500.0 4598.7998046875
  vertex 510500.0 5447500.0 4500.10009765625
  vertex 509500.0 5447500.0 4863.5
 endloop
endfacet
facet normal -0.23375283181667328 -0.1387699395418167 -0.9623422026634216
 outer loop
  vertex 509500.0 5448500.0 4598.7998046875
  vertex 510500.0 5448500.0 4355.89990234375
  vertex 510500.0 5447500.0 4500.10009765625
 endloop
endfacet
facet normal 0.061151549220085144 -0.14245682954788208 -0.9879102110862732
 outer loop
  vertex 510500.0 5448500.0 4355.89990234375
  vertex 511500.0 5447500.0 4562.0
  vertex 510500.0 5447500.0 4500.10009765625
 endloop
endfacet
facet normal 0.016472099348902702 0.12284567952156067 -0.9922890663146973
 outer loop
  vertex 507500.0 5449500.0 4897.10009765625
  vertex 508500.0 5448500.0 4789.89990234375
  vertex 507500.0 5448500.0 4773.2998046875
 endloop
endfacet
facet normal -0.08060877025127411 0.02620564214885235 -0.996401309967041
 outer loop
  vertex 507500.0 5449500.0 4897.10009765625
  vertex 508500.0 5449500.0 4816.2001953125
  vertex 508500.0 5448500.0 4789.89990234375
 endloop
endfacet
facet normal -0.18764083087444305 0.025824209675192833 -0.9818981289863586
 outer loop
  vertex 508500.0 5449500.0 4816.2001953125
  vertex 509500.0 5448500.0 4598.7998046875
  vertex 508500.0 5448500.0 4789.89990234375
 endloop
endfacet
facet normal -0.27193954586982727 -0.06318345665931702 -0.9602378606796265
 outer loop
  vertex 508500.0 5449500.0 4816.2001953125
  vertex 509500.0 5449500.0 4533.0
  vertex 509500.0 5448500.0 4598.7998046875
 endloop
endfacet
facet normal -0.2355555295944214 -0.06381026655435562 -0.9697638154029846
 outer loop
  vertex 509500.0 5449500.0 4533.0
  vertex 510500.0 5448500.0 4355.89990234375
  vertex 509500.0 5448500.0 4598.7998046875
 endloop
endfacet
facet normal 0.1361003816127777 0.30313724279403687 -0.9431777596473694
 outer loop
  vertex 509500.0 5449500.0 4533.0
  vertex 510500.0 5449500.0 4677.2998046875
  vertex 510500.0 5448500.0 4355.89990234375
 endloop
endfacet
endsolid
