solid
facet normal -0.0003000487631652504 -0.0004999999073334038 -0.9999998211860657
 outer loop
  vertex 543500.0 6039500.0 2653.10009765625
  vertex 544500.0 6038500.0 2653.300048828125
  vertex 543500.0 6038500.0 2653.60009765625
 endloop
endfacet
facet normal -0.00020019528164993972 -0.00040014644037000835 -0.9999998807907104
 outer loop
  vertex 543500.0 6039500.0 2653.10009765625
  vertex 544500.0 6039500.0 2652.89990234375
  vertex 544500.0 6038500.0 2653.300048828125
 endloop
endfacet
facet normal 0.0010998527286574244 -0.0004001462075393647 -0.9999992847442627
 outer loop
  vertex 544500.0 6039500.0 2652.89990234375
  vertex 545500.0 6038500.0 2654.39990234375
  vertex 544500.0 6038500.0 2653.300048828125
 endloop
endfacet
facet normal -0.00020019531075377017 -0.00020019531075377017 -1.0
 outer loop
  vertex 543500.0 6040500.0 2652.89990234375
  vertex 544500.0 6039500.0 2652.89990234375
  vertex 543500.0 6039500.0 2653.10009765625
 endloop
endfacet
facet normal -0.00019995117327198386 -0.00019995117327198386 -1.0
 outer loop
  vertex 543500.0 6040500.0 2652.89990234375
  vertex 544500.0 6040500.0 2652.699951171875
  vertex 544500.0 6039500.0 2652.89990234375
 endloop
endfacet
endsolid
