solid
facet normal 0.41669347882270813 0.08283177763223648 -0.9052653312683105
 outer loop
  vertex 395500.0 5681500.0 4626.10009765625
  vertex 396500.0 5681500.0 5086.39990234375
  vertex 396500.0 5680500.0 4994.89990234375
 endloop
endfacet
facet normal 0.2440403550863266 0.0883643701672554 -0.9657307863235474
 outer loop
  vertex 396500.0 5681500.0 5086.39990234375
  vertex 397500.0 5680500.0 5247.60009765625
  vertex 396500.0 5680500.0 4994.89990234375
 endloop
endfacet
facet normal 0.5105438232421875 0.3867476284503937 -0.7679656744003296
 outer loop
  vertex 396500.0 5681500.0 5086.39990234375
  vertex 397500.0 5681500.0 5751.2001953125
  vertex 397500.0 5680500.0 5247.60009765625
 endloop
endfacet
facet normal -0.7413449883460999 0.30948442220687866 -0.5955056548118591
 outer loop
  vertex 394500.0 5682500.0 6390.7001953125
  vertex 395500.0 5681500.0 4626.10009765625
  vertex 394500.0 5681500.0 5871.0
 endloop
endfacet
facet normal -0.17390210926532745 0.8112269043922424 -0.558273196220398
 outer loop
  vertex 394500.0 5682500.0 6390.7001953125
  vertex 395500.0 5682500.0 6079.2001953125
  vertex 395500.0 5681500.0 4626.10009765625
 endloop
endfacet
facet normal 0.2524940073490143 0.7970871329307556 -0.5485424995422363
 outer loop
  vertex 395500.0 5682500.0 6079.2001953125
  vertex 396500.0 5681500.0 5086.39990234375
  vertex 395500.0 5681500.0 4626.10009765625
 endloop
endfacet
facet normal -0.7866323590278625 -0.21031416952610016 -0.5804976224899292
 outer loop
  vertex 395500.0 5682500.0 6079.2001953125
  vertex 396500.0 5682500.0 4724.10009765625
  vertex 396500.0 5681500.0 5086.39990234375
 endloop
endfacet
facet normal 0.530025064945221 -0.2888506352901459 -0.7972695827484131
 outer loop
  vertex 396500.0 5682500.0 4724.10009765625
  vertex 397500.0 5681500.0 5751.2001953125
  vertex 396500.0 5681500.0 5086.39990234375
 endloop
endfacet
facet normal 0.7747255563735962 0.14184488356113434 -0.6161820292472839
 outer loop
  vertex 396500.0 5682500.0 4724.10009765625
  vertex 397500.0 5682500.0 5981.39990234375
  vertex 397500.0 5681500.0 5751.2001953125
 endloop
endfacet
facet normal -0.6035174131393433 0.1788714975118637 -0.7770274877548218
 outer loop
  vertex 397500.0 5682500.0 5981.39990234375
  vertex 398500.0 5681500.0 4974.5
  vertex 397500.0 5681500.0 5751.2001953125
 endloop
endfacet
facet normal 0.26620587706565857 0.8030424118041992 -0.5331578254699707
 outer loop
  vertex 397500.0 5682500.0 5981.39990234375
  vertex 398500.0 5682500.0 6480.7001953125
  vertex 398500.0 5681500.0 4974.5
 endloop
endfacet
facet normal -0.7996460795402527 0.11111593246459961 -0.5901011228561401
 outer loop
  vertex 395500.0 5683500.0 6267.5
  vertex 396500.0 5682500.0 4724.10009765625
  vertex 395500.0 5682500.0 6079.2001953125
 endloop
endfacet
facet normal -0.8195374011993408 0.06000769883394241 -0.5698750615119934
 outer loop
  vertex 395500.0 5683500.0 6267.5
  vertex 396500.0 5683500.0 4829.39990234375
  vertex 396500.0 5682500.0 4724.10009765625
 endloop
endfacet
facet normal 0.7809630632400513 0.06540624797344208 -0.621143102645874
 outer loop
  vertex 396500.0 5683500.0 4829.39990234375
  vertex 397500.0 5682500.0 5981.39990234375
  vertex 396500.0 5682500.0 4724.10009765625
 endloop
endfacet
facet normal 0.5145841836929321 -0.3741729259490967 -0.7714905738830566
 outer loop
  vertex 396500.0 5683500.0 4829.39990234375
  vertex 397500.0 5683500.0 5496.39990234375
  vertex 397500.0 5682500.0 5981.39990234375
 endloop
endfacet
facet normal 0.40979623794555664 -0.3980593979358673 -0.8207410573959351
 outer loop
  vertex 397500.0 5683500.0 5496.39990234375
  vertex 398500.0 5682500.0 6480.7001953125
  vertex 397500.0 5682500.0 5981.39990234375
 endloop
endfacet
facet normal 0.2715299725532532 -0.5234339833259583 -0.807643711566925
 outer loop
  vertex 397500.0 5683500.0 5496.39990234375
  vertex 398500.0 5683500.0 5832.60009765625
  vertex 398500.0 5682500.0 6480.7001953125
 endloop
endfacet
facet normal 0.09075754135847092 -0.541622519493103 -0.8357081413269043
 outer loop
  vertex 398500.0 5683500.0 5832.60009765625
  vertex 399500.0 5682500.0 6589.2998046875
  vertex 398500.0 5682500.0 6480.7001953125
 endloop
endfacet
facet normal 0.5479426980018616 -0.08199997246265411 -0.8324870467185974
 outer loop
  vertex 398500.0 5683500.0 5832.60009765625
  vertex 399500.0 5683500.0 6490.7998046875
  vertex 399500.0 5682500.0 6589.2998046875
 endloop
endfacet
facet normal 0.28414350748062134 0.39945676922798157 -0.8716058135032654
 outer loop
  vertex 388500.0 5684500.0 6097.39990234375
  vertex 389500.0 5684500.0 6423.39990234375
  vertex 389500.0 5683500.0 5965.10009765625
 endloop
endfacet
facet normal -0.7325419187545776 -0.4515669047832489 -0.5093817114830017
 outer loop
  vertex 395500.0 5684500.0 5381.0
  vertex 396500.0 5683500.0 4829.39990234375
  vertex 395500.0 5683500.0 6267.5
 endloop
endfacet
facet normal -0.5269318222999573 -0.05926382541656494 -0.847838819026947
 outer loop
  vertex 395500.0 5684500.0 5381.0
  vertex 396500.0 5684500.0 4759.5
  vertex 396500.0 5683500.0 4829.39990234375
 endloop
endfacet
facet normal 0.5539563298225403 -0.05805321782827377 -0.8305192589759827
 outer loop
  vertex 396500.0 5684500.0 4759.5
  vertex 397500.0 5683500.0 5496.39990234375
  vertex 396500.0 5683500.0 4829.39990234375
 endloop
endfacet
facet normal 0.07786761969327927 -0.5397933125495911 -0.8381883502006531
 outer loop
  vertex 396500.0 5684500.0 4759.5
  vertex 397500.0 5684500.0 4852.39990234375
  vertex 397500.0 5683500.0 5496.39990234375
 endloop
endfacet
facet normal 0.27200034260749817 -0.5210235714912415 -0.8090428113937378
 outer loop
  vertex 397500.0 5684500.0 4852.39990234375
  vertex 398500.0 5683500.0 5832.60009765625
  vertex 397500.0 5683500.0 5496.39990234375
 endloop
endfacet
facet normal 0.8033353090286255 0.2978600859642029 -0.5156857371330261
 outer loop
  vertex 397500.0 5684500.0 4852.39990234375
  vertex 398500.0 5684500.0 6410.2001953125
  vertex 398500.0 5683500.0 5832.60009765625
 endloop
endfacet
facet normal 0.49517422914505005 0.4345378279685974 -0.7523160576820374
 outer loop
  vertex 398500.0 5684500.0 6410.2001953125
  vertex 399500.0 5683500.0 6490.7998046875
  vertex 398500.0 5683500.0 5832.60009765625
 endloop
endfacet
facet normal -0.6107101440429688 -0.6474546790122986 -0.45588985085487366
 outer loop
  vertex 398500.0 5684500.0 6410.2001953125
  vertex 399500.0 5684500.0 5070.60009765625
  vertex 399500.0 5683500.0 6490.7998046875
 endloop
endfacet
facet normal -0.3141704499721527 -0.7762436866760254 -0.5465735793113708
 outer loop
  vertex 399500.0 5684500.0 5070.60009765625
  vertex 400500.0 5683500.0 5916.0
  vertex 399500.0 5683500.0 6490.7998046875
 endloop
endfacet
facet normal 0.025683492422103882 -0.6302909851074219 -0.7759340405464172
 outer loop
  vertex 399500.0 5684500.0 5070.60009765625
  vertex 400500.0 5684500.0 5103.7001953125
  vertex 400500.0 5683500.0 5916.0
 endloop
endfacet
facet normal -0.5114225745201111 0.24760578572750092 -0.8228842616081238
 outer loop
  vertex 395500.0 5685500.0 5681.89990234375
  vertex 396500.0 5684500.0 4759.5
  vertex 395500.0 5684500.0 5381.0
 endloop
endfacet
facet normal -0.7961248755455017 -0.32569214701652527 -0.5100095272064209
 outer loop
  vertex 395500.0 5685500.0 5681.89990234375
  vertex 396500.0 5685500.0 4120.89990234375
  vertex 396500.0 5684500.0 4759.5
 endloop
endfacet
facet normal 0.07805773615837097 -0.5365742444992065 -0.8402350544929504
 outer loop
  vertex 396500.0 5685500.0 4120.89990234375
  vertex 397500.0 5684500.0 4852.39990234375
  vertex 396500.0 5684500.0 4759.5
 endloop
endfacet
facet normal 0.7766245007514954 0.46881088614463806 -0.42079779505729675
 outer loop
  vertex 396500.0 5685500.0 4120.89990234375
  vertex 397500.0 5685500.0 5966.5
  vertex 397500.0 5684500.0 4852.39990234375
 endloop
endfacet
facet normal 0.7210214138031006 0.5156566500663757 -0.4628458619117737
 outer loop
  vertex 397500.0 5685500.0 5966.5
  vertex 398500.0 5684500.0 6410.2001953125
  vertex 397500.0 5684500.0 4852.39990234375
 endloop
endfacet
facet normal 0.2784668803215027 -0.14293737709522247 -0.9497500061988831
 outer loop
  vertex 397500.0 5685500.0 5966.5
  vertex 398500.0 5685500.0 6259.7001953125
  vertex 398500.0 5684500.0 6410.2001953125
 endloop
endfacet
facet normal -0.7981196045875549 -0.08966630697250366 -0.5957894325256348
 outer loop
  vertex 398500.0 5685500.0 6259.7001953125
  vertex 399500.0 5684500.0 5070.60009765625
  vertex 398500.0 5684500.0 6410.2001953125
 endloop
endfacet
facet normal -0.6626139283180237 0.19670985639095306 -0.7226672768592834
 outer loop
  vertex 398500.0 5685500.0 6259.7001953125
  vertex 399500.0 5685500.0 5342.7998046875
  vertex 399500.0 5684500.0 5070.60009765625
 endloop
endfacet
facet normal 0.031921785324811935 0.2625097334384918 -0.9644011855125427
 outer loop
  vertex 399500.0 5685500.0 5342.7998046875
  vertex 400500.0 5684500.0 5103.7001953125
  vertex 399500.0 5684500.0 5070.60009765625
 endloop
endfacet
facet normal -0.5779817700386047 -0.409162700176239 -0.706061601638794
 outer loop
  vertex 399500.0 5685500.0 5342.7998046875
  vertex 400500.0 5685500.0 4524.2001953125
  vertex 400500.0 5684500.0 5103.7001953125
 endloop
endfacet
facet normal 0.17107461392879486 -0.754894495010376 -0.633141279220581
 outer loop
  vertex 389500.0 5686500.0 4606.7998046875
  vertex 390500.0 5685500.0 6069.2998046875
  vertex 389500.0 5685500.0 5799.10009765625
 endloop
endfacet
facet normal 0.43049365282058716 -0.5804193615913391 -0.691222608089447
 outer loop
  vertex 389500.0 5686500.0 4606.7998046875
  vertex 390500.0 5686500.0 5229.60009765625
  vertex 390500.0 5685500.0 6069.2998046875
 endloop
endfacet
facet normal -0.49647581577301025 0.13881446421146393 -0.8568794131278992
 outer loop
  vertex 394500.0 5686500.0 6423.2998046875
  vertex 395500.0 5686500.0 5843.89990234375
  vertex 395500.0 5685500.0 5681.89990234375
 endloop
endfacet
facet normal -0.8388394713401794 0.08705444633960724 -0.5373731255531311
 outer loop
  vertex 395500.0 5686500.0 5843.89990234375
  vertex 396500.0 5685500.0 4120.89990234375
  vertex 395500.0 5685500.0 5681.89990234375
 endloop
endfacet
facet normal -0.7920029163360596 0.20117104053497314 -0.576421320438385
 outer loop
  vertex 395500.0 5686500.0 5843.89990234375
  vertex 396500.0 5686500.0 4469.89990234375
  vertex 396500.0 5685500.0 4120.89990234375
 endloop
endfacet
facet normal 0.8673260807991028 0.1640099585056305 -0.4699425995349884
 outer loop
  vertex 396500.0 5686500.0 4469.89990234375
  vertex 397500.0 5685500.0 5966.5
  vertex 396500.0 5685500.0 4120.89990234375
 endloop
endfacet
facet normal 0.8253273963928223 -0.019243601709604263 -0.5643264651298523
 outer loop
  vertex 396500.0 5686500.0 4469.89990234375
  vertex 397500.0 5686500.0 5932.39990234375
  vertex 397500.0 5685500.0 5966.5
 endloop
endfacet
facet normal 0.281205415725708 -0.032705068588256836 -0.9590901136398315
 outer loop
  vertex 397500.0 5686500.0 5932.39990234375
  vertex 398500.0 5685500.0 6259.7001953125
  vertex 397500.0 5685500.0 5966.5
 endloop
endfacet
facet normal 0.2200336754322052 -0.09764177352190018 -0.970593273639679
 outer loop
  vertex 397500.0 5686500.0 5932.39990234375
  vertex 398500.0 5686500.0 6159.10009765625
  vertex 398500.0 5685500.0 6259.7001953125
 endloop
endfacet
facet normal -0.6739680171012878 -0.07394614070653915 -0.7350504398345947
 outer loop
  vertex 398500.0 5686500.0 6159.10009765625
  vertex 399500.0 5685500.0 5342.7998046875
  vertex 398500.0 5685500.0 6259.7001953125
 endloop
endfacet
facet normal -0.149436816573143 0.5312841534614563 -0.8339099287986755
 outer loop
  vertex 398500.0 5686500.0 6159.10009765625
  vertex 399500.0 5686500.0 5979.89990234375
  vertex 399500.0 5685500.0 5342.7998046875
 endloop
endfacet
facet normal -0.5681430101394653 0.44217461347579956 -0.6940426230430603
 outer loop
  vertex 399500.0 5686500.0 5979.89990234375
  vertex 400500.0 5685500.0 4524.2001953125
  vertex 399500.0 5685500.0 5342.7998046875
 endloop
endfacet
facet normal 0.3217226266860962 0.6620599031448364 -0.6768835186958313
 outer loop
  vertex 388500.0 5687500.0 5109.60009765625
  vertex 389500.0 5687500.0 5584.89990234375
  vertex 389500.0 5686500.0 4606.7998046875
 endloop
endfacet
facet normal 0.4067411720752716 0.6387819647789001 -0.653084397315979
 outer loop
  vertex 389500.0 5687500.0 5584.89990234375
  vertex 390500.0 5686500.0 5229.60009765625
  vertex 389500.0 5686500.0 4606.7998046875
 endloop
endfacet
facet normal 0.20038361847400665 0.4997788071632385 -0.8426550030708313
 outer loop
  vertex 389500.0 5687500.0 5584.89990234375
  vertex 390500.0 5687500.0 5822.7001953125
  vertex 390500.0 5686500.0 5229.60009765625
 endloop
endfacet
facet normal 0.5108520984649658 0.4385388195514679 -0.7394009828567505
 outer loop
  vertex 390500.0 5687500.0 5822.7001953125
  vertex 391500.0 5686500.0 5920.5
  vertex 390500.0 5686500.0 5229.60009765625
 endloop
endfacet
facet normal 0.11628355830907822 0.01916530728340149 -0.9930311441421509
 outer loop
  vertex 390500.0 5687500.0 5822.7001953125
  vertex 391500.0 5687500.0 5939.7998046875
  vertex 391500.0 5686500.0 5920.5
 endloop
endfacet
facet normal -0.6954874396324158 0.013865065760910511 -0.7184044718742371
 outer loop
  vertex 391500.0 5687500.0 5939.7998046875
  vertex 392500.0 5686500.0 4952.39990234375
  vertex 391500.0 5686500.0 5920.5
 endloop
endfacet
facet normal -0.6568628549575806 0.08311010897159576 -0.7494156956672668
 outer loop
  vertex 391500.0 5687500.0 5939.7998046875
  vertex 392500.0 5687500.0 5063.2998046875
  vertex 392500.0 5686500.0 4952.39990234375
 endloop
endfacet
facet normal 0.6033943891525269 0.08789748698472977 -0.7925839424133301
 outer loop
  vertex 392500.0 5687500.0 5063.2998046875
  vertex 393500.0 5686500.0 5713.7001953125
  vertex 392500.0 5686500.0 4952.39990234375
 endloop
endfacet
facet normal -0.4034070074558258 -0.7470560669898987 -0.528365433216095
 outer loop
  vertex 392500.0 5687500.0 5063.2998046875
  vertex 393500.0 5687500.0 4299.7998046875
  vertex 393500.0 5686500.0 5713.7001953125
 endloop
endfacet
facet normal 0.37915366888046265 -0.7554760575294495 -0.534320592880249
 outer loop
  vertex 393500.0 5687500.0 4299.7998046875
  vertex 394500.0 5686500.0 6423.2998046875
  vertex 393500.0 5686500.0 5713.7001953125
 endloop
endfacet
facet normal 0.48898085951805115 -0.6775742769241333 -0.5493549108505249
 outer loop
  vertex 393500.0 5687500.0 4299.7998046875
  vertex 394500.0 5687500.0 5189.89990234375
  vertex 394500.0 5686500.0 6423.2998046875
 endloop
endfacet
facet normal -0.34278738498687744 -0.729710042476654 -0.5916248559951782
 outer loop
  vertex 394500.0 5687500.0 5189.89990234375
  vertex 395500.0 5686500.0 5843.89990234375
  vertex 394500.0 5686500.0 6423.2998046875
 endloop
endfacet
facet normal -0.36186376214027405 -0.7360280156135559 -0.5721166133880615
 outer loop
  vertex 394500.0 5687500.0 5189.89990234375
  vertex 395500.0 5687500.0 4557.39990234375
  vertex 395500.0 5686500.0 5843.89990234375
 endloop
endfacet
facet normal -0.6446402072906494 -0.603587806224823 -0.4691704511642456
 outer loop
  vertex 395500.0 5687500.0 4557.39990234375
  vertex 396500.0 5686500.0 4469.89990234375
  vertex 395500.0 5686500.0 5843.89990234375
 endloop
endfacet
facet normal -0.4559609591960907 -0.38578227162361145 -0.8020421862602234
 outer loop
  vertex 395500.0 5687500.0 4557.39990234375
  vertex 396500.0 5687500.0 3988.89990234375
  vertex 396500.0 5686500.0 4469.89990234375
 endloop
endfacet
facet normal 0.7966429591178894 -0.2620069980621338 -0.5447131395339966
 outer loop
  vertex 396500.0 5687500.0 3988.89990234375
  vertex 397500.0 5686500.0 5932.39990234375
  vertex 396500.0 5686500.0 4469.89990234375
 endloop
endfacet
facet normal 0.882118284702301 -0.03130118548870087 -0.4699868857860565
 outer loop
  vertex 396500.0 5687500.0 3988.89990234375
  vertex 397500.0 5687500.0 5865.7998046875
  vertex 397500.0 5686500.0 5932.39990234375
 endloop
endfacet
facet normal 0.22062523663043976 -0.06481538712978363 -0.9732027053833008
 outer loop
  vertex 397500.0 5687500.0 5865.7998046875
  vertex 398500.0 5686500.0 6159.10009765625
  vertex 397500.0 5686500.0 5932.39990234375
 endloop
endfacet
facet normal -0.14792583882808685 -0.41167470812797546 -0.8992452025413513
 outer loop
  vertex 397500.0 5687500.0 5865.7998046875
  vertex 398500.0 5687500.0 5701.2998046875
  vertex 398500.0 5686500.0 6159.10009765625
 endloop
endfacet
facet normal -0.1608167290687561 -0.4108363091945648 -0.8974138498306274
 outer loop
  vertex 398500.0 5687500.0 5701.2998046875
  vertex 399500.0 5686500.0 5979.89990234375
  vertex 398500.0 5686500.0 6159.10009765625
 endloop
endfacet
facet normal 0.29016298055648804 0.023630309849977493 -0.956685483455658
 outer loop
  vertex 398500.0 5687500.0 5701.2998046875
  vertex 399500.0 5687500.0 6004.60009765625
  vertex 399500.0 5686500.0 5979.89990234375
 endloop
endfacet
facet normal -0.0536966547369957 -0.749640941619873 -0.6596628427505493
 outer loop
  vertex 387500.0 5688500.0 4054.60009765625
  vertex 388500.0 5688500.0 3973.199951171875
  vertex 388500.0 5687500.0 5109.60009765625
 endloop
endfacet
facet normal 0.2995704114437103 -0.716246485710144 -0.630276620388031
 outer loop
  vertex 388500.0 5688500.0 3973.199951171875
  vertex 389500.0 5687500.0 5584.89990234375
  vertex 388500.0 5687500.0 5109.60009765625
 endloop
endfacet
facet normal 0.19123683869838715 -0.7764748334884644 -0.6004291772842407
 outer loop
  vertex 388500.0 5688500.0 3973.199951171875
  vertex 389500.0 5688500.0 4291.7001953125
  vertex 389500.0 5687500.0 5584.89990234375
 endloop
endfacet
facet normal 0.143951877951622 -0.7828357815742493 -0.6053478717803955
 outer loop
  vertex 389500.0 5688500.0 4291.7001953125
  vertex 390500.0 5687500.0 5822.7001953125
  vertex 389500.0 5687500.0 5584.89990234375
 endloop
endfacet
facet normal 0.11042781919240952 -0.7975488305091858 -0.5930612087249756
 outer loop
  vertex 389500.0 5688500.0 4291.7001953125
  vertex 390500.0 5688500.0 4477.89990234375
  vertex 390500.0 5687500.0 5822.7001953125
 endloop
endfacet
facet normal 0.06970462948083878 -0.8005046844482422 -0.5952591896057129
 outer loop
  vertex 390500.0 5688500.0 4477.89990234375
  vertex 391500.0 5687500.0 5939.7998046875
  vertex 390500.0 5687500.0 5822.7001953125
 endloop
endfacet
facet normal 0.7936546802520752 -0.08665160089731216 -0.602165937423706
 outer loop
  vertex 390500.0 5688500.0 4477.89990234375
  vertex 391500.0 5688500.0 5795.89990234375
  vertex 391500.0 5687500.0 5939.7998046875
 endloop
endfacet
facet normal -0.6553173661231995 -0.10758711397647858 -0.7476524710655212
 outer loop
  vertex 391500.0 5688500.0 5795.89990234375
  vertex 392500.0 5687500.0 5063.2998046875
  vertex 391500.0 5687500.0 5939.7998046875
 endloop
endfacet
facet normal -0.36574357748031616 0.28365954756736755 -0.8864360451698303
 outer loop
  vertex 391500.0 5688500.0 5795.89990234375
  vertex 392500.0 5688500.0 5383.2998046875
  vertex 392500.0 5687500.0 5063.2998046875
 endloop
endfacet
facet normal -0.5881204605102539 0.24649450182914734 -0.7702953219413757
 outer loop
  vertex 392500.0 5688500.0 5383.2998046875
  vertex 393500.0 5687500.0 4299.7998046875
  vertex 392500.0 5687500.0 5063.2998046875
 endloop
endfacet
facet normal -0.4218790531158447 0.43815097212791443 -0.7937517166137695
 outer loop
  vertex 392500.0 5688500.0 5383.2998046875
  vertex 393500.0 5688500.0 4851.7998046875
  vertex 393500.0 5687500.0 4299.7998046875
 endloop
endfacet
facet normal 0.6146692633628845 0.3811902105808258 -0.6905619502067566
 outer loop
  vertex 393500.0 5688500.0 4851.7998046875
  vertex 394500.0 5687500.0 5189.89990234375
  vertex 393500.0 5687500.0 4299.7998046875
 endloop
endfacet
facet normal -0.43436843156814575 -0.6464406251907349 -0.6272467970848083
 outer loop
  vertex 393500.0 5688500.0 4851.7998046875
  vertex 394500.0 5688500.0 4159.2998046875
  vertex 394500.0 5687500.0 5189.89990234375
 endloop
endfacet
facet normal -0.40308764576911926 -0.6567939519882202 -0.637292742729187
 outer loop
  vertex 394500.0 5688500.0 4159.2998046875
  vertex 395500.0 5687500.0 4557.39990234375
  vertex 394500.0 5687500.0 5189.89990234375
 endloop
endfacet
facet normal -0.2205369919538498 -0.5430788397789001 -0.8102028965950012
 outer loop
  vertex 394500.0 5688500.0 4159.2998046875
  vertex 395500.0 5688500.0 3887.10009765625
  vertex 395500.0 5687500.0 4557.39990234375
 endloop
endfacet
facet normal -0.42701002955436707 -0.5034735798835754 -0.7511169910430908
 outer loop
  vertex 395500.0 5688500.0 3887.10009765625
  vertex 396500.0 5687500.0 3988.89990234375
  vertex 395500.0 5687500.0 4557.39990234375
 endloop
endfacet
facet normal 0.597413957118988 0.5367610454559326 -0.5958054661750793
 outer loop
  vertex 395500.0 5688500.0 3887.10009765625
  vertex 396500.0 5688500.0 4889.7998046875
  vertex 396500.0 5687500.0 3988.89990234375
 endloop
endfacet
facet normal 0.8126421570777893 0.39006301760673523 -0.43297043442726135
 outer loop
  vertex 396500.0 5688500.0 4889.7998046875
  vertex 397500.0 5687500.0 5865.7998046875
  vertex 396500.0 5687500.0 3988.89990234375
 endloop
endfacet
facet normal 0.0724286288022995 -0.6585972309112549 -0.7490018606185913
 outer loop
  vertex 396500.0 5688500.0 4889.7998046875
  vertex 397500.0 5688500.0 4986.5
  vertex 397500.0 5687500.0 5865.7998046875
 endloop
endfacet
facet normal -0.12260328233242035 -0.655349850654602 -0.7453086972236633
 outer loop
  vertex 397500.0 5688500.0 4986.5
  vertex 398500.0 5687500.0 5701.2998046875
  vertex 397500.0 5687500.0 5865.7998046875
 endloop
endfacet
facet normal 0.3783538341522217 -0.25724488496780396 -0.8891982436180115
 outer loop
  vertex 397500.0 5688500.0 4986.5
  vertex 398500.0 5688500.0 5412.0
  vertex 398500.0 5687500.0 5701.2998046875
 endloop
endfacet
facet normal 0.2797224521636963 -0.2668102979660034 -0.9222623109817505
 outer loop
  vertex 398500.0 5688500.0 5412.0
  vertex 399500.0 5687500.0 6004.60009765625
  vertex 398500.0 5687500.0 5701.2998046875
 endloop
endfacet
facet normal -0.4614439606666565 -0.7459931373596191 -0.4801706075668335
 outer loop
  vertex 398500.0 5688500.0 5412.0
  vertex 399500.0 5688500.0 4451.0
  vertex 399500.0 5687500.0 6004.60009765625
 endloop
endfacet
facet normal -0.32131072878837585 -0.7962808012962341 -0.5125390887260437
 outer loop
  vertex 399500.0 5688500.0 4451.0
  vertex 400500.0 5687500.0 5377.7001953125
  vertex 399500.0 5687500.0 6004.60009765625
 endloop
endfacet
facet normal -0.27081388235092163 -0.785927414894104 -0.55585777759552
 outer loop
  vertex 399500.0 5688500.0 4451.0
  vertex 400500.0 5688500.0 3963.800048828125
  vertex 400500.0 5687500.0 5377.7001953125
 endloop
endfacet
facet normal -0.06738991290330887 0.5568352937698364 -0.8278846740722656
 outer loop
  vertex 387500.0 5689500.0 4727.2001953125
  vertex 388500.0 5688500.0 3973.199951171875
  vertex 387500.0 5688500.0 4054.60009765625
 endloop
endfacet
facet normal -0.25003013014793396 0.41098901629447937 -0.8766829371452332
 outer loop
  vertex 387500.0 5689500.0 4727.2001953125
  vertex 388500.0 5689500.0 4442.0
  vertex 388500.0 5688500.0 3973.199951171875
 endloop
endfacet
facet normal 0.27709126472473145 0.4078502655029297 -0.8699876070022583
 outer loop
  vertex 388500.0 5689500.0 4442.0
  vertex 389500.0 5688500.0 4291.7001953125
  vertex 388500.0 5688500.0 3973.199951171875
 endloop
endfacet
facet normal -0.46534237265586853 -0.3426821231842041 -0.8161038756370544
 outer loop
  vertex 388500.0 5689500.0 4442.0
  vertex 389500.0 5689500.0 3871.800048828125
  vertex 389500.0 5688500.0 4291.7001953125
 endloop
endfacet
facet normal 0.1692035049200058 -0.381571888923645 -0.9087204933166504
 outer loop
  vertex 389500.0 5689500.0 3871.800048828125
  vertex 390500.0 5688500.0 4477.89990234375
  vertex 389500.0 5688500.0 4291.7001953125
 endloop
endfacet
facet normal -0.04388445243239403 -0.5495558381080627 -0.834303617477417
 outer loop
  vertex 389500.0 5689500.0 3871.800048828125
  vertex 390500.0 5689500.0 3819.199951171875
  vertex 390500.0 5688500.0 4477.89990234375
 endloop
endfacet
facet normal 0.7401447296142578 -0.3699038326740265 -0.5615665316581726
 outer loop
  vertex 390500.0 5689500.0 3819.199951171875
  vertex 391500.0 5688500.0 5795.89990234375
  vertex 390500.0 5688500.0 4477.89990234375
 endloop
endfacet
facet normal -0.007042458280920982 -0.8937221169471741 -0.44856560230255127
 outer loop
  vertex 390500.0 5689500.0 3819.199951171875
  vertex 391500.0 5689500.0 3803.5
  vertex 391500.0 5688500.0 5795.89990234375
 endloop
endfacet
facet normal -0.18199194967746735 -0.8788187503814697 -0.4410855174064636
 outer loop
  vertex 391500.0 5689500.0 3803.5
  vertex 392500.0 5688500.0 5383.2998046875
  vertex 391500.0 5688500.0 5795.89990234375
 endloop
endfacet
facet normal 0.33993688225746155 -0.6823977828025818 -0.647129237651825
 outer loop
  vertex 391500.0 5689500.0 3803.5
  vertex 392500.0 5689500.0 4328.7998046875
  vertex 392500.0 5688500.0 5383.2998046875
 endloop
endfacet
facet normal -0.3434782326221466 -0.6814634203910828 -0.646243155002594
 outer loop
  vertex 392500.0 5689500.0 4328.7998046875
  vertex 393500.0 5688500.0 4851.7998046875
  vertex 392500.0 5688500.0 5383.2998046875
 endloop
endfacet
facet normal -0.21499033272266388 -0.6127266883850098 -0.7604901194572449
 outer loop
  vertex 392500.0 5689500.0 4328.7998046875
  vertex 393500.0 5689500.0 4046.10009765625
  vertex 393500.0 5688500.0 4851.7998046875
 endloop
endfacet
facet normal -0.47463715076446533 -0.5522238612174988 -0.6853966116905212
 outer loop
  vertex 393500.0 5689500.0 4046.10009765625
  vertex 394500.0 5688500.0 4159.2998046875
  vertex 393500.0 5688500.0 4851.7998046875
 endloop
endfacet
facet normal 0.5307759642601013 0.4494388997554779 -0.7185273766517639
 outer loop
  vertex 393500.0 5689500.0 4046.10009765625
  vertex 394500.0 5689500.0 4784.7998046875
  vertex 394500.0 5688500.0 4159.2998046875
 endloop
endfacet
facet normal -0.2248629927635193 0.5167228579521179 -0.826095700263977
 outer loop
  vertex 394500.0 5689500.0 4784.7998046875
  vertex 395500.0 5688500.0 3887.10009765625
  vertex 394500.0 5688500.0 4159.2998046875
 endloop
endfacet
facet normal -0.042647380381822586 0.6434578895568848 -0.7642926573753357
 outer loop
  vertex 394500.0 5689500.0 4784.7998046875
  vertex 395500.0 5689500.0 4729.0
  vertex 395500.0 5688500.0 3887.10009765625
 endloop
endfacet
facet normal 0.608625054359436 0.5110217332839966 -0.6069863438606262
 outer loop
  vertex 395500.0 5689500.0 4729.0
  vertex 396500.0 5688500.0 4889.7998046875
  vertex 395500.0 5688500.0 3887.10009765625
 endloop
endfacet
facet normal 0.03221903368830681 -0.12719063460826874 -0.9913548231124878
 outer loop
  vertex 395500.0 5689500.0 4729.0
  vertex 396500.0 5689500.0 4761.5
  vertex 396500.0 5688500.0 4889.7998046875
 endloop
endfacet
facet normal 0.09547585248947144 -0.12667536735534668 -0.9873387217521667
 outer loop
  vertex 396500.0 5689500.0 4761.5
  vertex 397500.0 5688500.0 4986.5
  vertex 396500.0 5688500.0 4889.7998046875
 endloop
endfacet
facet normal -0.13361884653568268 -0.34283387660980225 -0.9298446178436279
 outer loop
  vertex 396500.0 5689500.0 4761.5
  vertex 397500.0 5689500.0 4617.7998046875
  vertex 397500.0 5688500.0 4986.5
 endloop
endfacet
facet normal 0.37077319622039795 -0.321278840303421 -0.8713823556900024
 outer loop
  vertex 397500.0 5689500.0 4617.7998046875
  vertex 398500.0 5688500.0 5412.0
  vertex 397500.0 5688500.0 4986.5
 endloop
endfacet
facet normal -0.3205845057964325 -0.7646170854568481 -0.5590941309928894
 outer loop
  vertex 397500.0 5689500.0 4617.7998046875
  vertex 398500.0 5689500.0 4044.39990234375
  vertex 398500.0 5688500.0 5412.0
 endloop
endfacet
facet normal -0.49338194727897644 -0.7021324038505554 -0.5134047269821167
 outer loop
  vertex 398500.0 5689500.0 4044.39990234375
  vertex 399500.0 5688500.0 4451.0
  vertex 398500.0 5688500.0 5412.0
 endloop
endfacet
facet normal -0.18910908699035645 -0.5262060761451721 -0.8290627002716064
 outer loop
  vertex 398500.0 5689500.0 4044.39990234375
  vertex 399500.0 5689500.0 3816.300048828125
  vertex 399500.0 5688500.0 4451.0
 endloop
endfacet
facet normal -0.380415141582489 -0.49558597803115845 -0.7808193564414978
 outer loop
  vertex 399500.0 5689500.0 3816.300048828125
  vertex 400500.0 5688500.0 3963.800048828125
  vertex 399500.0 5688500.0 4451.0
 endloop
endfacet
facet normal 0.47223636507987976 0.35310712456703186 -0.807655930519104
 outer loop
  vertex 399500.0 5689500.0 3816.300048828125
  vertex 400500.0 5689500.0 4401.0
  vertex 400500.0 5688500.0 3963.800048828125
 endloop
endfacet
facet normal -0.12544481456279755 0.397423654794693 -0.9090203642845154
 outer loop
  vertex 400500.0 5689500.0 4401.0
  vertex 401500.0 5688500.0 3825.800048828125
  vertex 400500.0 5688500.0 3963.800048828125
 endloop
endfacet
facet normal 0.2896314561367035 0.6781483888626099 -0.6754468083381653
 outer loop
  vertex 400500.0 5689500.0 4401.0
  vertex 401500.0 5689500.0 4829.7998046875
  vertex 401500.0 5688500.0 3825.800048828125
 endloop
endfacet
facet normal -0.2717210650444031 0.13586007058620453 -0.9527379870414734
 outer loop
  vertex 387500.0 5690500.0 4869.7998046875
  vertex 388500.0 5689500.0 4442.0
  vertex 387500.0 5689500.0 4727.2001953125
 endloop
endfacet
facet normal 0.24763146042823792 0.5797213912010193 -0.7762742042541504
 outer loop
  vertex 387500.0 5690500.0 4869.7998046875
  vertex 388500.0 5690500.0 5188.7998046875
  vertex 388500.0 5689500.0 4442.0
 endloop
endfacet
facet normal -0.4155474901199341 0.5442490577697754 -0.7287750840187073
 outer loop
  vertex 388500.0 5690500.0 5188.7998046875
  vertex 389500.0 5689500.0 3871.800048828125
  vertex 388500.0 5689500.0 4442.0
 endloop
endfacet
facet normal -0.5243777632713318 0.43760231137275696 -0.7304329872131348
 outer loop
  vertex 388500.0 5690500.0 5188.7998046875
  vertex 389500.0 5690500.0 4470.89990234375
  vertex 389500.0 5689500.0 3871.800048828125
 endloop
endfacet
facet normal -0.04507622495293617 0.5134055018424988 -0.8569614291191101
 outer loop
  vertex 389500.0 5690500.0 4470.89990234375
  vertex 390500.0 5689500.0 3819.199951171875
  vertex 389500.0 5689500.0 3871.800048828125
 endloop
endfacet
facet normal 0.1151050254702568 0.6205901503562927 -0.7756408452987671
 outer loop
  vertex 389500.0 5690500.0 4470.89990234375
  vertex 390500.0 5690500.0 4619.2998046875
  vertex 390500.0 5689500.0 3819.199951171875
 endloop
endfacet
facet normal -0.012258073315024376 0.6246956586837769 -0.7807720899581909
 outer loop
  vertex 390500.0 5690500.0 4619.2998046875
  vertex 391500.0 5689500.0 3803.5
  vertex 390500.0 5689500.0 3819.199951171875
 endloop
endfacet
facet normal -0.4618231952190399 0.2357427477836609 -0.8550699949264526
 outer loop
  vertex 390500.0 5690500.0 4619.2998046875
  vertex 391500.0 5690500.0 4079.199951171875
  vertex 391500.0 5689500.0 3803.5
 endloop
endfacet
facet normal 0.45177987217903137 0.23711350560188293 -0.8600419163703918
 outer loop
  vertex 391500.0 5690500.0 4079.199951171875
  vertex 392500.0 5689500.0 4328.7998046875
  vertex 391500.0 5689500.0 3803.5
 endloop
endfacet
facet normal -0.2869919240474701 -0.4921269714832306 -0.8218556046485901
 outer loop
  vertex 391500.0 5690500.0 4079.199951171875
  vertex 392500.0 5690500.0 3730.0
  vertex 392500.0 5689500.0 4328.7998046875
 endloop
endfacet
facet normal -0.23570750653743744 -0.49926337599754333 -0.8337734341621399
 outer loop
  vertex 392500.0 5690500.0 3730.0
  vertex 393500.0 5689500.0 4046.10009765625
  vertex 392500.0 5689500.0 4328.7998046875
 endloop
endfacet
facet normal 0.057928360998630524 -0.2477676272392273 -0.9670860767364502
 outer loop
  vertex 392500.0 5690500.0 3730.0
  vertex 393500.0 5690500.0 3789.89990234375
  vertex 393500.0 5689500.0 4046.10009765625
 endloop
endfacet
facet normal 0.581939160823822 -0.20183157920837402 -0.7877885699272156
 outer loop
  vertex 393500.0 5690500.0 3789.89990234375
  vertex 394500.0 5689500.0 4784.7998046875
  vertex 393500.0 5689500.0 4046.10009765625
 endloop
endfacet
facet normal 0.25543293356895447 -0.5414634943008423 -0.8009815216064453
 outer loop
  vertex 393500.0 5690500.0 3789.89990234375
  vertex 394500.0 5690500.0 4108.7998046875
  vertex 394500.0 5689500.0 4784.7998046875
 endloop
endfacet
facet normal -0.04617883265018463 -0.5594443678855896 -0.827580451965332
 outer loop
  vertex 394500.0 5690500.0 4108.7998046875
  vertex 395500.0 5689500.0 4729.0
  vertex 394500.0 5689500.0 4784.7998046875
 endloop
endfacet
facet normal 0.3586297333240509 -0.20603646337985992 -0.910457968711853
 outer loop
  vertex 394500.0 5690500.0 4108.7998046875
  vertex 395500.0 5690500.0 4502.7001953125
  vertex 395500.0 5689500.0 4729.0
 endloop
endfacet
facet normal 0.03168255463242531 -0.22060789167881012 -0.9748479127883911
 outer loop
  vertex 395500.0 5690500.0 4502.7001953125
  vertex 396500.0 5689500.0 4761.5
  vertex 395500.0 5689500.0 4729.0
 endloop
endfacet
facet normal -0.1887655258178711 -0.4186595380306244 -0.8883083462715149
 outer loop
  vertex 395500.0 5690500.0 4502.7001953125
  vertex 396500.0 5690500.0 4290.2001953125
  vertex 396500.0 5689500.0 4761.5
 endloop
endfacet
facet normal -0.12890250980854034 -0.4227672517299652 -0.8970239758491516
 outer loop
  vertex 396500.0 5690500.0 4290.2001953125
  vertex 397500.0 5689500.0 4617.7998046875
  vertex 396500.0 5689500.0 4761.5
 endloop
endfacet
facet normal -0.22857187688350677 -0.5018565058708191 -0.8342031836509705
 outer loop
  vertex 396500.0 5690500.0 4290.2001953125
  vertex 397500.0 5690500.0 4016.199951171875
  vertex 397500.0 5689500.0 4617.7998046875
 endloop
endfacet
facet normal -0.4409842789173126 -0.4626719653606415 -0.769069254398346
 outer loop
  vertex 397500.0 5690500.0 4016.199951171875
  vertex 398500.0 5689500.0 4044.39990234375
  vertex 397500.0 5689500.0 4617.7998046875
 endloop
endfacet
facet normal 0.2796573340892792 0.2535437345504761 -0.9260169267654419
 outer loop
  vertex 397500.0 5690500.0 4016.199951171875
  vertex 398500.0 5690500.0 4318.2001953125
  vertex 398500.0 5689500.0 4044.39990234375
 endloop
endfacet
facet normal -0.2148640900850296 0.25791266560554504 -0.9419736862182617
 outer loop
  vertex 398500.0 5690500.0 4318.2001953125
  vertex 399500.0 5689500.0 3816.300048828125
  vertex 398500.0 5689500.0 4044.39990234375
 endloop
endfacet
facet normal -0.3341749608516693 0.13406172394752502 -0.9329279661178589
 outer loop
  vertex 398500.0 5690500.0 4318.2001953125
  vertex 399500.0 5690500.0 3960.0
  vertex 399500.0 5689500.0 3816.300048828125
 endloop
endfacet
facet normal 0.50091153383255 0.12310752272605896 -0.8566984534263611
 outer loop
  vertex 399500.0 5690500.0 3960.0
  vertex 400500.0 5689500.0 4401.0
  vertex 399500.0 5689500.0 3816.300048828125
 endloop
endfacet
facet normal 0.3217516541481018 -0.09374608844518661 -0.9421717524528503
 outer loop
  vertex 399500.0 5690500.0 3960.0
  vertex 400500.0 5690500.0 4301.5
  vertex 400500.0 5689500.0 4401.0
 endloop
endfacet
facet normal 0.39245903491973877 -0.091067373752594 -0.9152500033378601
 outer loop
  vertex 400500.0 5690500.0 4301.5
  vertex 401500.0 5689500.0 4829.7998046875
  vertex 400500.0 5689500.0 4401.0
 endloop
endfacet
facet normal -0.4232959449291229 -0.687863290309906 -0.5896308422088623
 outer loop
  vertex 388500.0 5691500.0 4022.199951171875
  vertex 389500.0 5690500.0 4470.89990234375
  vertex 388500.0 5690500.0 5188.7998046875
 endloop
endfacet
facet normal 0.6159679293632507 0.28674256801605225 -0.7337316870689392
 outer loop
  vertex 388500.0 5691500.0 4022.199951171875
  vertex 389500.0 5691500.0 4861.7001953125
  vertex 389500.0 5690500.0 4470.89990234375
 endloop
endfacet
facet normal 0.13691824674606323 0.3605642318725586 -0.9226304292678833
 outer loop
  vertex 389500.0 5691500.0 4861.7001953125
  vertex 390500.0 5690500.0 4619.2998046875
  vertex 389500.0 5690500.0 4470.89990234375
 endloop
endfacet
facet normal -0.10573817044496536 0.13313324749469757 -0.9854415059089661
 outer loop
  vertex 389500.0 5691500.0 4861.7001953125
  vertex 390500.0 5691500.0 4754.39990234375
  vertex 390500.0 5690500.0 4619.2998046875
 endloop
endfacet
facet normal -0.47189468145370483 0.11803930997848511 -0.8737174868583679
 outer loop
  vertex 390500.0 5691500.0 4754.39990234375
  vertex 391500.0 5690500.0 4079.199951171875
  vertex 390500.0 5690500.0 4619.2998046875
 endloop
endfacet
facet normal 0.05542368441820145 0.5962034463882446 -0.8009179830551147
 outer loop
  vertex 390500.0 5691500.0 4754.39990234375
  vertex 391500.0 5691500.0 4823.60009765625
  vertex 391500.0 5690500.0 4079.199951171875
 endloop
endfacet
facet normal -0.2697291374206543 0.5749896764755249 -0.7724201679229736
 outer loop
  vertex 391500.0 5691500.0 4823.60009765625
  vertex 392500.0 5690500.0 3730.0
  vertex 391500.0 5690500.0 4079.199951171875
 endloop
endfacet
facet normal -0.7399332523345947 -0.004304981790482998 -0.6726665496826172
 outer loop
  vertex 391500.0 5691500.0 4823.60009765625
  vertex 392500.0 5691500.0 3723.60009765625
  vertex 392500.0 5690500.0 3730.0
 endloop
endfacet
facet normal 0.05979151278734207 -0.00638832151889801 -0.9981904625892639
 outer loop
  vertex 392500.0 5691500.0 3723.60009765625
  vertex 393500.0 5690500.0 3789.89990234375
  vertex 392500.0 5690500.0 3730.0
 endloop
endfacet
facet normal 0.41119611263275146 0.35554754734039307 -0.8393471837043762
 outer loop
  vertex 392500.0 5691500.0 3723.60009765625
  vertex 393500.0 5691500.0 4213.5
  vertex 393500.0 5690500.0 3789.89990234375
 endloop
endfacet
facet normal 0.2817455530166626 0.37424734234809875 -0.883492112159729
 outer loop
  vertex 393500.0 5691500.0 4213.5
  vertex 394500.0 5690500.0 4108.7998046875
  vertex 393500.0 5690500.0 3789.89990234375
 endloop
endfacet
facet normal 0.07977090030908585 0.18237578868865967 -0.979987621307373
 outer loop
  vertex 393500.0 5691500.0 4213.5
  vertex 394500.0 5691500.0 4294.89990234375
  vertex 394500.0 5690500.0 4108.7998046875
 endloop
endfacet
facet normal 0.36111965775489807 0.17061267793178558 -0.9167791604995728
 outer loop
  vertex 394500.0 5691500.0 4294.89990234375
  vertex 395500.0 5690500.0 4502.7001953125
  vertex 394500.0 5690500.0 4108.7998046875
 endloop
endfacet
facet normal 0.027053719386458397 -0.17737430334091187 -0.983771562576294
 outer loop
  vertex 394500.0 5691500.0 4294.89990234375
  vertex 395500.0 5691500.0 4322.39990234375
  vertex 395500.0 5690500.0 4502.7001953125
 endloop
endfacet
facet normal -0.20469968020915985 -0.17368194460868835 -0.9632925987243652
 outer loop
  vertex 395500.0 5691500.0 4322.39990234375
  vertex 396500.0 5690500.0 4290.2001953125
  vertex 395500.0 5690500.0 4502.7001953125
 endloop
endfacet
facet normal -0.174388125538826 -0.14301803708076477 -0.9742353558540344
 outer loop
  vertex 395500.0 5691500.0 4322.39990234375
  vertex 396500.0 5691500.0 4143.39990234375
  vertex 396500.0 5690500.0 4290.2001953125
 endloop
endfacet
facet normal -0.2616505026817322 -0.1401837170124054 -0.9549279808998108
 outer loop
  vertex 396500.0 5691500.0 4143.39990234375
  vertex 397500.0 5690500.0 4016.199951171875
  vertex 396500.0 5690500.0 4290.2001953125
 endloop
endfacet
facet normal -0.24294158816337585 -0.12050826847553253 -0.9625264406204224
 outer loop
  vertex 396500.0 5691500.0 4143.39990234375
  vertex 397500.0 5691500.0 3891.0
  vertex 397500.0 5690500.0 4016.199951171875
 endloop
endfacet
facet normal 0.2870497703552246 -0.11900194734334946 -0.9504951238632202
 outer loop
  vertex 397500.0 5691500.0 3891.0
  vertex 398500.0 5690500.0 4318.2001953125
  vertex 397500.0 5690500.0 4016.199951171875
 endloop
endfacet
facet normal -0.09719649702310562 -0.471609503030777 -0.8764344453811646
 outer loop
  vertex 397500.0 5691500.0 3891.0
  vertex 398500.0 5691500.0 3780.10009765625
  vertex 398500.0 5690500.0 4318.2001953125
 endloop
endfacet
facet normal -0.30082181096076965 -0.45190438628196716 -0.8398146629333496
 outer loop
  vertex 398500.0 5691500.0 3780.10009765625
  vertex 399500.0 5690500.0 3960.0
  vertex 398500.0 5690500.0 4318.2001953125
 endloop
endfacet
facet normal 0.37717100977897644 0.21511447429656982 -0.9008150696754456
 outer loop
  vertex 398500.0 5691500.0 3780.10009765625
  vertex 399500.0 5691500.0 4198.7998046875
  vertex 399500.0 5690500.0 3960.0
 endloop
endfacet
facet normal 0.31522583961486816 0.22042715549468994 -0.9230625033378601
 outer loop
  vertex 399500.0 5691500.0 4198.7998046875
  vertex 400500.0 5690500.0 4301.5
  vertex 399500.0 5690500.0 3960.0
 endloop
endfacet
facet normal 0.5331681966781616 0.46026647090911865 -0.7098496556282043
 outer loop
  vertex 399500.0 5691500.0 4198.7998046875
  vertex 400500.0 5691500.0 4949.89990234375
  vertex 400500.0 5690500.0 4301.5
 endloop
endfacet
facet normal 0.5994903445243835 -0.3614792823791504 -0.7141037583351135
 outer loop
  vertex 388500.0 5692500.0 3516.0
  vertex 389500.0 5691500.0 4861.7001953125
  vertex 388500.0 5691500.0 4022.199951171875
 endloop
endfacet
facet normal 0.20720677077770233 -0.7052215933799744 -0.678032398223877
 outer loop
  vertex 388500.0 5692500.0 3516.0
  vertex 389500.0 5692500.0 3821.60009765625
  vertex 389500.0 5691500.0 4861.7001953125
 endloop
endfacet
facet normal -0.07416227459907532 -0.7188813090324402 -0.6911655068397522
 outer loop
  vertex 389500.0 5692500.0 3821.60009765625
  vertex 390500.0 5691500.0 4754.39990234375
  vertex 389500.0 5691500.0 4861.7001953125
 endloop
endfacet
facet normal 0.19925467669963837 -0.5544551014900208 -0.808008074760437
 outer loop
  vertex 389500.0 5692500.0 3821.60009765625
  vertex 390500.0 5692500.0 4068.199951171875
  vertex 390500.0 5691500.0 4754.39990234375
 endloop
endfacet
facet normal 0.05696580559015274 -0.5648818612098694 -0.8232030272483826
 outer loop
  vertex 390500.0 5692500.0 4068.199951171875
  vertex 391500.0 5691500.0 4823.60009765625
  vertex 390500.0 5691500.0 4754.39990234375
 endloop
endfacet
facet normal 0.2117413729429245 -0.4454047381877899 -0.869931161403656
 outer loop
  vertex 390500.0 5692500.0 4068.199951171875
  vertex 391500.0 5692500.0 4311.60009765625
  vertex 391500.0 5691500.0 4823.60009765625
 endloop
endfacet
facet normal -0.699609637260437 -0.32563647627830505 -0.6360087394714355
 outer loop
  vertex 391500.0 5692500.0 4311.60009765625
  vertex 392500.0 5691500.0 3723.60009765625
  vertex 391500.0 5691500.0 4823.60009765625
 endloop
endfacet
facet normal -0.4831595718860626 0.03132382407784462 -0.8749718070030212
 outer loop
  vertex 391500.0 5692500.0 4311.60009765625
  vertex 392500.0 5692500.0 3759.39990234375
  vertex 392500.0 5691500.0 3723.60009765625
 endloop
endfacet
facet normal 0.43971559405326843 0.03213254734873772 -0.8975621461868286
 outer loop
  vertex 392500.0 5692500.0 3759.39990234375
  vertex 393500.0 5691500.0 4213.5
  vertex 392500.0 5691500.0 3723.60009765625
 endloop
endfacet
facet normal 0.36953285336494446 -0.051769644021987915 -0.9277744889259338
 outer loop
  vertex 392500.0 5692500.0 3759.39990234375
  vertex 393500.0 5692500.0 4157.7001953125
  vertex 393500.0 5691500.0 4213.5
 endloop
endfacet
facet normal 0.08100637048482895 -0.055530041456222534 -0.9951654672622681
 outer loop
  vertex 393500.0 5692500.0 4157.7001953125
  vertex 394500.0 5691500.0 4294.89990234375
  vertex 393500.0 5691500.0 4213.5
 endloop
endfacet
facet normal 0.3110233545303345 0.18307039141654968 -0.9326037764549255
 outer loop
  vertex 393500.0 5692500.0 4157.7001953125
  vertex 394500.0 5692500.0 4491.2001953125
  vertex 394500.0 5691500.0 4294.89990234375
 endloop
endfacet
facet normal 0.026975177228450775 0.19255401194095612 -0.9809155464172363
 outer loop
  vertex 394500.0 5692500.0 4491.2001953125
  vertex 395500.0 5691500.0 4322.39990234375
  vertex 394500.0 5691500.0 4294.89990234375
 endloop
endfacet
facet normal -0.4815014600753784 -0.3455403447151184 -0.8054553270339966
 outer loop
  vertex 394500.0 5692500.0 4491.2001953125
  vertex 395500.0 5692500.0 3893.39990234375
  vertex 395500.0 5691500.0 4322.39990234375
 endloop
endfacet
facet normal -0.1623198539018631 -0.3890235424041748 -0.9068148136138916
 outer loop
  vertex 395500.0 5692500.0 3893.39990234375
  vertex 396500.0 5691500.0 4143.39990234375
  vertex 395500.0 5691500.0 4322.39990234375
 endloop
endfacet
facet normal -0.0473656989634037 -0.2865864038467407 -0.9568827748298645
 outer loop
  vertex 395500.0 5692500.0 3893.39990234375
  vertex 396500.0 5692500.0 3843.89990234375
  vertex 396500.0 5691500.0 4143.39990234375
 endloop
endfacet
facet normal -0.2350163608789444 -0.2788725197315216 -0.9311269521713257
 outer loop
  vertex 396500.0 5692500.0 3843.89990234375
  vertex 397500.0 5691500.0 3891.0
  vertex 396500.0 5691500.0 4143.39990234375
 endloop
endfacet
facet normal -0.11573753505945206 -0.1618954986333847 -0.9799972772598267
 outer loop
  vertex 396500.0 5692500.0 3843.89990234375
  vertex 397500.0 5692500.0 3725.800048828125
  vertex 397500.0 5691500.0 3891.0
 endloop
endfacet
facet normal -0.10876775532960892 -0.16202382743358612 -0.9807740449905396
 outer loop
  vertex 397500.0 5692500.0 3725.800048828125
  vertex 398500.0 5691500.0 3780.10009765625
  vertex 397500.0 5691500.0 3891.0
 endloop
endfacet
facet normal 0.35076308250427246 0.30264168977737427 -0.8862128257751465
 outer loop
  vertex 397500.0 5692500.0 3725.800048828125
  vertex 398500.0 5692500.0 4121.60009765625
  vertex 398500.0 5691500.0 3780.10009765625
 endloop
endfacet
facet normal 0.36836880445480347 0.30044910311698914 -0.8797923922538757
 outer loop
  vertex 398500.0 5692500.0 4121.60009765625
  vertex 399500.0 5691500.0 4198.7998046875
  vertex 398500.0 5691500.0 3780.10009765625
 endloop
endfacet
facet normal 0.24804168939590454 0.1744775027036667 -0.9529076814651489
 outer loop
  vertex 398500.0 5692500.0 4121.60009765625
  vertex 399500.0 5692500.0 4381.89990234375
  vertex 399500.0 5691500.0 4198.7998046875
 endloop
endfacet
facet normal 0.5942283272743225 0.14485852420330048 -0.7911439538002014
 outer loop
  vertex 399500.0 5692500.0 4381.89990234375
  vertex 400500.0 5691500.0 4949.89990234375
  vertex 399500.0 5691500.0 4198.7998046875
 endloop
endfacet
facet normal 0.35819345712661743 -0.1638845056295395 -0.9191513061523438
 outer loop
  vertex 399500.0 5692500.0 4381.89990234375
  vertex 400500.0 5692500.0 4771.60009765625
  vertex 400500.0 5691500.0 4949.89990234375
 endloop
endfacet
facet normal 0.2921898663043976 0.02151266299188137 -0.9561183452606201
 outer loop
  vertex 388500.0 5693500.0 3538.5
  vertex 389500.0 5692500.0 3821.60009765625
  vertex 388500.0 5692500.0 3516.0
 endloop
endfacet
facet normal 0.17798633873462677 -0.09917502850294113 -0.9790225625038147
 outer loop
  vertex 388500.0 5693500.0 3538.5
  vertex 389500.0 5693500.0 3720.300048828125
  vertex 389500.0 5692500.0 3821.60009765625
 endloop
endfacet
facet normal 0.2382776141166687 -0.09788137674331665 -0.9662520289421082
 outer loop
  vertex 389500.0 5693500.0 3720.300048828125
  vertex 390500.0 5692500.0 4068.199951171875
  vertex 389500.0 5692500.0 3821.60009765625
 endloop
endfacet
facet normal 0.030595440417528152 -0.30099958181381226 -0.9531333446502686
 outer loop
  vertex 389500.0 5693500.0 3720.300048828125
  vertex 390500.0 5693500.0 3752.39990234375
  vertex 390500.0 5692500.0 4068.199951171875
 endloop
endfacet
facet normal 0.2260914146900177 -0.29334282875061035 -0.9288878440856934
 outer loop
  vertex 390500.0 5693500.0 3752.39990234375
  vertex 391500.0 5692500.0 4311.60009765625
  vertex 390500.0 5692500.0 4068.199951171875
 endloop
endfacet
facet normal -0.11914540082216263 -0.5726932287216187 -0.8110651969909668
 outer loop
  vertex 390500.0 5693500.0 3752.39990234375
  vertex 391500.0 5693500.0 3605.5
  vertex 391500.0 5692500.0 4311.60009765625
 endloop
endfacet
facet normal -0.4111858904361725 -0.5257846713066101 -0.744631826877594
 outer loop
  vertex 391500.0 5693500.0 3605.5
  vertex 392500.0 5692500.0 3759.39990234375
  vertex 391500.0 5692500.0 4311.60009765625
 endloop
endfacet
facet normal 0.1588529497385025 0.006910946220159531 -0.9872780442237854
 outer loop
  vertex 391500.0 5693500.0 3605.5
  vertex 392500.0 5693500.0 3766.39990234375
  vertex 392500.0 5692500.0 3759.39990234375
 endloop
endfacet
facet normal 0.37002119421958923 0.006503003649413586 -0.9290005564689636
 outer loop
  vertex 392500.0 5693500.0 3766.39990234375
  vertex 393500.0 5692500.0 4157.7001953125
  vertex 392500.0 5692500.0 3759.39990234375
 endloop
endfacet
facet normal 0.29876708984375 -0.0735502541065216 -0.9514876008033752
 outer loop
  vertex 392500.0 5693500.0 3766.39990234375
  vertex 393500.0 5693500.0 4080.39990234375
  vertex 393500.0 5692500.0 4157.7001953125
 endloop
endfacet
facet normal 0.3155228793621063 -0.07313346862792969 -0.9460955858230591
 outer loop
  vertex 393500.0 5693500.0 4080.39990234375
  vertex 394500.0 5692500.0 4491.2001953125
  vertex 393500.0 5692500.0 4157.7001953125
 endloop
endfacet
facet normal -0.02762172929942608 -0.4033512473106384 -0.914628267288208
 outer loop
  vertex 393500.0 5693500.0 4080.39990234375
  vertex 394500.0 5693500.0 4050.199951171875
  vertex 394500.0 5692500.0 4491.2001953125
 endloop
endfacet
facet normal -0.4798790514469147 -0.35400915145874023 -0.8027413487434387
 outer loop
  vertex 394500.0 5693500.0 4050.199951171875
  vertex 395500.0 5692500.0 3893.39990234375
  vertex 394500.0 5692500.0 4491.2001953125
 endloop
endfacet
facet normal -0.2395925223827362 -0.08798594027757645 -0.9668784141540527
 outer loop
  vertex 394500.0 5693500.0 4050.199951171875
  vertex 395500.0 5693500.0 3802.39990234375
  vertex 395500.0 5692500.0 3893.39990234375
 endloop
endfacet
facet normal -0.04923652112483978 -0.0905156210064888 -0.9946771860122681
 outer loop
  vertex 395500.0 5693500.0 3802.39990234375
  vertex 396500.0 5692500.0 3843.89990234375
  vertex 395500.0 5692500.0 3893.39990234375
 endloop
endfacet
facet normal -0.11031726002693176 -0.15108461678028107 -0.9823459386825562
 outer loop
  vertex 395500.0 5693500.0 3802.39990234375
  vertex 396500.0 5693500.0 3690.10009765625
  vertex 396500.0 5692500.0 3843.89990234375
 endloop
endfacet
facet normal -0.11594018340110779 -0.15098729729652405 -0.9817131161689758
 outer loop
  vertex 396500.0 5693500.0 3690.10009765625
  vertex 397500.0 5692500.0 3725.800048828125
  vertex 396500.0 5692500.0 3843.89990234375
 endloop
endfacet
facet normal 0.38111650943756104 0.35057592391967773 -0.8554803729057312
 outer loop
  vertex 396500.0 5693500.0 3690.10009765625
  vertex 397500.0 5693500.0 4135.60009765625
  vertex 397500.0 5692500.0 3725.800048828125
 endloop
endfacet
facet normal 0.3439018428325653 0.35606613755226135 -0.868877649307251
 outer loop
  vertex 397500.0 5693500.0 4135.60009765625
  vertex 398500.0 5692500.0 4121.60009765625
  vertex 397500.0 5692500.0 3725.800048828125
 endloop
endfacet
facet normal 0.03871678560972214 0.05268682911992073 -0.9978602528572083
 outer loop
  vertex 397500.0 5693500.0 4135.60009765625
  vertex 398500.0 5693500.0 4174.39990234375
  vertex 398500.0 5692500.0 4121.60009765625
 endloop
endfacet
facet normal 0.2515774071216583 0.05103053152561188 -0.9664909243583679
 outer loop
  vertex 398500.0 5693500.0 4174.39990234375
  vertex 399500.0 5692500.0 4381.89990234375
  vertex 398500.0 5692500.0 4121.60009765625
 endloop
endfacet
facet normal 0.12273571640253067 -0.08248299360275269 -0.9890058636665344
 outer loop
  vertex 398500.0 5693500.0 4174.39990234375
  vertex 399500.0 5693500.0 4298.5
  vertex 399500.0 5692500.0 4381.89990234375
 endloop
endfacet
facet normal 0.3620114326477051 -0.07747422158718109 -0.9289485812187195
 outer loop
  vertex 399500.0 5693500.0 4298.5
  vertex 400500.0 5692500.0 4771.60009765625
  vertex 399500.0 5692500.0 4381.89990234375
 endloop
endfacet
facet normal 0.41195642948150635 -0.019039910286664963 -0.9110045433044434
 outer loop
  vertex 399500.0 5693500.0 4298.5
  vertex 400500.0 5693500.0 4750.7001953125
  vertex 400500.0 5692500.0 4771.60009765625
 endloop
endfacet
facet normal 0.1788681447505951 0.0004919364582747221 -0.9838728904724121
 outer loop
  vertex 388500.0 5694500.0 3539.0
  vertex 389500.0 5693500.0 3720.300048828125
  vertex 388500.0 5693500.0 3538.5
 endloop
endfacet
facet normal 0.3215876817703247 0.1521490067243576 -0.9345759749412537
 outer loop
  vertex 388500.0 5694500.0 3539.0
  vertex 389500.0 5694500.0 3883.10009765625
  vertex 389500.0 5693500.0 3720.300048828125
 endloop
endfacet
facet normal 0.03166685253381729 0.16060401499271393 -0.9865108132362366
 outer loop
  vertex 389500.0 5694500.0 3883.10009765625
  vertex 390500.0 5693500.0 3752.39990234375
  vertex 389500.0 5693500.0 3720.300048828125
 endloop
endfacet
facet normal 0.15880952775478363 -0.024379054084420204 -0.9870082139968872
 outer loop
  vertex 391500.0 5694500.0 3580.800048828125
  vertex 392500.0 5693500.0 3766.39990234375
  vertex 391500.0 5693500.0 3605.5
 endloop
endfacet
facet normal 0.3830183148384094 0.21634037792682648 -0.8980500102043152
 outer loop
  vertex 391500.0 5694500.0 3580.800048828125
  vertex 392500.0 5694500.0 4007.300048828125
  vertex 392500.0 5693500.0 3766.39990234375
 endloop
endfacet
facet normal 0.2919662296772003 0.2239958792924881 -0.9298287034034729
 outer loop
  vertex 392500.0 5694500.0 4007.300048828125
  vertex 393500.0 5693500.0 4080.39990234375
  vertex 392500.0 5693500.0 3766.39990234375
 endloop
endfacet
facet normal 0.1623220592737198 0.09049565345048904 -0.9825792908668518
 outer loop
  vertex 392500.0 5694500.0 4007.300048828125
  vertex 393500.0 5694500.0 4172.5
  vertex 393500.0 5693500.0 4080.39990234375
 endloop
endfacet
facet normal -0.0300590880215168 0.09167050570249557 -0.995335578918457
 outer loop
  vertex 393500.0 5694500.0 4172.5
  vertex 394500.0 5693500.0 4050.199951171875
  vertex 393500.0 5693500.0 4080.39990234375
 endloop
endfacet
facet normal -0.3732185661792755 -0.2644630968570709 -0.8892509341239929
 outer loop
  vertex 393500.0 5694500.0 4172.5
  vertex 394500.0 5694500.0 3752.800048828125
  vertex 394500.0 5693500.0 4050.199951171875
 endloop
endfacet
facet normal -0.23108968138694763 -0.2773447632789612 -0.9325650334358215
 outer loop
  vertex 394500.0 5694500.0 3752.800048828125
  vertex 395500.0 5693500.0 3802.39990234375
  vertex 394500.0 5693500.0 4050.199951171875
 endloop
endfacet
facet normal -0.08617156744003296 -0.13513028621673584 -0.9870736002922058
 outer loop
  vertex 394500.0 5694500.0 3752.800048828125
  vertex 395500.0 5694500.0 3665.5
  vertex 395500.0 5693500.0 3802.39990234375
 endloop
endfacet
facet normal -0.11057969927787781 -0.13480298221111298 -0.9846827983856201
 outer loop
  vertex 395500.0 5694500.0 3665.5
  vertex 396500.0 5693500.0 3690.10009765625
  vertex 395500.0 5693500.0 3802.39990234375
 endloop
endfacet
facet normal 0.3794073164463043 0.35842379927635193 -0.8529844284057617
 outer loop
  vertex 395500.0 5694500.0 3665.5
  vertex 396500.0 5694500.0 4110.2998046875
  vertex 396500.0 5693500.0 3690.10009765625
 endloop
endfacet
facet normal 0.3799184262752533 0.35834258794784546 -0.8527910709381104
 outer loop
  vertex 396500.0 5694500.0 4110.2998046875
  vertex 397500.0 5693500.0 4135.60009765625
  vertex 396500.0 5693500.0 3690.10009765625
 endloop
endfacet
facet normal 0.10045387595891953 0.5785202980041504 -0.8094586730003357
 outer loop
  vertex 398500.0 5694500.0 4889.10009765625
  vertex 399500.0 5693500.0 4298.5
  vertex 398500.0 5693500.0 4174.39990234375
 endloop
endfacet
facet normal -0.19627511501312256 0.34566110372543335 -0.9176025986671448
 outer loop
  vertex 398500.0 5694500.0 4889.10009765625
  vertex 399500.0 5694500.0 4675.2001953125
  vertex 399500.0 5693500.0 4298.5
 endloop
endfacet
facet normal 0.3897136449813843 0.3246465027332306 -0.8618166446685791
 outer loop
  vertex 399500.0 5694500.0 4675.2001953125
  vertex 400500.0 5693500.0 4750.7001953125
  vertex 399500.0 5693500.0 4298.5
 endloop
endfacet
facet normal 0.16168051958084106 -0.12654542922973633 -0.9786959290504456
 outer loop
  vertex 392500.0 5695500.0 3878.0
  vertex 393500.0 5694500.0 4172.5
  vertex 392500.0 5694500.0 4007.300048828125
 endloop
endfacet
facet normal 0.03541821986436844 -0.24957188963890076 -0.9677083492279053
 outer loop
  vertex 392500.0 5695500.0 3878.0
  vertex 393500.0 5695500.0 3914.60009765625
  vertex 393500.0 5694500.0 4172.5
 endloop
endfacet
facet normal -0.3764980137348175 -0.23135291039943695 -0.897064745426178
 outer loop
  vertex 393500.0 5695500.0 3914.60009765625
  vertex 394500.0 5694500.0 3752.800048828125
  vertex 393500.0 5694500.0 4172.5
 endloop
endfacet
facet normal -0.2582107484340668 -0.10278478264808655 -0.960605263710022
 outer loop
  vertex 393500.0 5695500.0 3914.60009765625
  vertex 394500.0 5695500.0 3645.800048828125
  vertex 394500.0 5694500.0 3752.800048828125
 endloop
endfacet
facet normal -0.08647934347391129 -0.10599410533905029 -0.9905990958213806
 outer loop
  vertex 394500.0 5695500.0 3645.800048828125
  vertex 395500.0 5694500.0 3665.5
  vertex 394500.0 5694500.0 3752.800048828125
 endloop
endfacet
facet normal 0.3340051472187042 0.3165147602558136 -0.8878394365310669
 outer loop
  vertex 394500.0 5695500.0 3645.800048828125
  vertex 395500.0 5695500.0 4022.0
  vertex 395500.0 5694500.0 3665.5
 endloop
endfacet
facet normal 0.38642627000808716 0.30971452593803406 -0.8687644600868225
 outer loop
  vertex 395500.0 5695500.0 4022.0
  vertex 396500.0 5694500.0 4110.2998046875
  vertex 395500.0 5694500.0 3665.5
 endloop
endfacet
facet normal -0.008857808075845242 -0.09673997759819031 -0.995270311832428
 outer loop
  vertex 395500.0 5695500.0 4022.0
  vertex 396500.0 5695500.0 4013.10009765625
  vertex 396500.0 5694500.0 4110.2998046875
 endloop
endfacet
facet normal 0.03530920669436455 -0.26086288690567017 -0.9647299647331238
 outer loop
  vertex 392500.0 5696500.0 3607.60009765625
  vertex 393500.0 5695500.0 3914.60009765625
  vertex 392500.0 5695500.0 3878.0
 endloop
endfacet
facet normal 0.08112183958292007 -0.21749247610569 -0.9726850390434265
 outer loop
  vertex 392500.0 5696500.0 3607.60009765625
  vertex 393500.0 5696500.0 3691.0
  vertex 393500.0 5695500.0 3914.60009765625
 endloop
endfacet
facet normal -0.2537373900413513 -0.21107026934623718 -0.9439632892608643
 outer loop
  vertex 393500.0 5696500.0 3691.0
  vertex 394500.0 5695500.0 3645.800048828125
  vertex 393500.0 5695500.0 3914.60009765625
 endloop
endfacet
facet normal -0.014091884717345238 0.03108173981308937 -0.9994175434112549
 outer loop
  vertex 393500.0 5696500.0 3691.0
  vertex 394500.0 5696500.0 3676.89990234375
  vertex 394500.0 5695500.0 3645.800048828125
 endloop
endfacet
facet normal 0.3519588112831116 0.029095878824591637 -0.9355632066726685
 outer loop
  vertex 394500.0 5696500.0 3676.89990234375
  vertex 395500.0 5695500.0 4022.0
  vertex 394500.0 5695500.0 3645.800048828125
 endloop
endfacet
endsolid
