solid
facet normal -0.4310585558414459 -0.4602408707141876 -0.7761228680610657
 outer loop
  vertex 412500.0 5469500.0 7014.39990234375
  vertex 413500.0 5469500.0 6459.0
  vertex 413500.0 5468500.0 7052.0
 endloop
endfacet
facet normal 0.17529171705245972 -0.5021641850471497 -0.8468199372291565
 outer loop
  vertex 413500.0 5469500.0 6459.0
  vertex 414500.0 5468500.0 7259.0
  vertex 413500.0 5468500.0 7052.0
 endloop
endfacet
facet normal -0.4144352078437805 -0.6073863506317139 -0.677735447883606
 outer loop
  vertex 411500.0 5470500.0 6729.7001953125
  vertex 412500.0 5470500.0 6118.2001953125
  vertex 412500.0 5469500.0 7014.39990234375
 endloop
endfacet
facet normal -0.3822042942047119 -0.6167292594909668 -0.6881605386734009
 outer loop
  vertex 412500.0 5470500.0 6118.2001953125
  vertex 413500.0 5469500.0 6459.0
  vertex 412500.0 5469500.0 7014.39990234375
 endloop
endfacet
facet normal -0.005291537381708622 -0.3273136019706726 -0.9449009299278259
 outer loop
  vertex 412500.0 5470500.0 6118.2001953125
  vertex 413500.0 5470500.0 6112.60009765625
  vertex 413500.0 5469500.0 6459.0
 endloop
endfacet
facet normal -0.22097407281398773 -0.6591117978096008 -0.7188477516174316
 outer loop
  vertex 410500.0 5471500.0 6120.2001953125
  vertex 411500.0 5471500.0 5812.7998046875
  vertex 411500.0 5470500.0 6729.7001953125
 endloop
endfacet
facet normal -0.41090840101242065 -0.6161276698112488 -0.6719679236412048
 outer loop
  vertex 411500.0 5471500.0 5812.7998046875
  vertex 412500.0 5470500.0 6118.2001953125
  vertex 411500.0 5470500.0 6729.7001953125
 endloop
endfacet
facet normal 0.6348257660865784 0.4410853683948517 -0.6343815326690674
 outer loop
  vertex 411500.0 5471500.0 5812.7998046875
  vertex 412500.0 5471500.0 6813.5
  vertex 412500.0 5470500.0 6118.2001953125
 endloop
endfacet
facet normal -0.004597831051796675 0.5708634853363037 -0.8210321068763733
 outer loop
  vertex 412500.0 5471500.0 6813.5
  vertex 413500.0 5470500.0 6112.60009765625
  vertex 412500.0 5470500.0 6118.2001953125
 endloop
endfacet
facet normal -0.6670520305633545 -0.1565292328596115 -0.7283819317817688
 outer loop
  vertex 412500.0 5471500.0 6813.5
  vertex 413500.0 5471500.0 5897.7001953125
  vertex 413500.0 5470500.0 6112.60009765625
 endloop
endfacet
facet normal 0.05103769525885582 0.5367371439933777 -0.8422044515609741
 outer loop
  vertex 404500.0 5472500.0 6356.7001953125
  vertex 405500.0 5471500.0 5780.0
  vertex 404500.0 5471500.0 5719.39990234375
 endloop
endfacet
facet normal -0.06606350094079971 0.448090136051178 -0.8915441036224365
 outer loop
  vertex 404500.0 5472500.0 6356.7001953125
  vertex 405500.0 5472500.0 6282.60009765625
  vertex 405500.0 5471500.0 5780.0
 endloop
endfacet
facet normal -0.05642993748188019 0.6419878602027893 -0.7646353244781494
 outer loop
  vertex 406500.0 5472500.0 6459.89990234375
  vertex 407500.0 5472500.0 6386.10009765625
  vertex 407500.0 5471500.0 5546.5
 endloop
endfacet
facet normal 0.040938928723335266 0.6424734592437744 -0.7652136087417603
 outer loop
  vertex 407500.0 5472500.0 6386.10009765625
  vertex 408500.0 5471500.0 5600.0
  vertex 407500.0 5471500.0 5546.5
 endloop
endfacet
facet normal -0.22142837941646576 0.4561307728290558 -0.8619247078895569
 outer loop
  vertex 407500.0 5472500.0 6386.10009765625
  vertex 408500.0 5472500.0 6129.2001953125
  vertex 408500.0 5471500.0 5600.0
 endloop
endfacet
facet normal 0.15660284459590912 0.39503738284111023 -0.9052187204360962
 outer loop
  vertex 409500.0 5472500.0 6383.60009765625
  vertex 410500.0 5472500.0 6556.60009765625
  vertex 410500.0 5471500.0 6120.2001953125
 endloop
endfacet
facet normal -0.2711833715438843 0.38498449325561523 -0.8821828365325928
 outer loop
  vertex 410500.0 5472500.0 6556.60009765625
  vertex 411500.0 5471500.0 5812.7998046875
  vertex 410500.0 5471500.0 6120.2001953125
 endloop
endfacet
facet normal -0.2078367918729782 0.44142407178878784 -0.8728967308998108
 outer loop
  vertex 410500.0 5472500.0 6556.60009765625
  vertex 411500.0 5472500.0 6318.5
  vertex 411500.0 5471500.0 5812.7998046875
 endloop
endfacet
facet normal 0.6660783886909485 0.33660027384757996 -0.6656123399734497
 outer loop
  vertex 411500.0 5472500.0 6318.5
  vertex 412500.0 5471500.0 6813.5
  vertex 411500.0 5471500.0 5812.7998046875
 endloop
endfacet
facet normal -0.16091479361057281 -0.5623908638954163 -0.8110628128051758
 outer loop
  vertex 411500.0 5472500.0 6318.5
  vertex 412500.0 5472500.0 6120.10009765625
  vertex 412500.0 5471500.0 6813.5
 endloop
endfacet
facet normal -0.6013177633285522 -0.4552891254425049 -0.656603991985321
 outer loop
  vertex 412500.0 5472500.0 6120.10009765625
  vertex 413500.0 5471500.0 5897.7001953125
  vertex 412500.0 5471500.0 6813.5
 endloop
endfacet
facet normal -0.14513176679611206 0.07429223507642746 -0.9866191744804382
 outer loop
  vertex 412500.0 5472500.0 6120.10009765625
  vertex 413500.0 5472500.0 5973.0
  vertex 413500.0 5471500.0 5897.7001953125
 endloop
endfacet
facet normal 0.514279305934906 0.15274779498577118 -0.8439104557037354
 outer loop
  vertex 403500.0 5473500.0 5928.2998046875
  vertex 404500.0 5473500.0 6537.7001953125
  vertex 404500.0 5472500.0 6356.7001953125
 endloop
endfacet
facet normal -0.07272226363420486 0.17763446271419525 -0.9814058542251587
 outer loop
  vertex 404500.0 5473500.0 6537.7001953125
  vertex 405500.0 5472500.0 6282.60009765625
  vertex 404500.0 5472500.0 6356.7001953125
 endloop
endfacet
facet normal -0.3130044639110565 -0.07140849530696869 -0.9470634460449219
 outer loop
  vertex 404500.0 5473500.0 6537.7001953125
  vertex 405500.0 5473500.0 6207.2001953125
  vertex 405500.0 5472500.0 6282.60009765625
 endloop
endfacet
facet normal 0.1740979552268982 -0.07403826713562012 -0.9819410443305969
 outer loop
  vertex 405500.0 5473500.0 6207.2001953125
  vertex 406500.0 5472500.0 6459.89990234375
  vertex 405500.0 5472500.0 6282.60009765625
 endloop
endfacet
facet normal -0.22238263487815857 -0.44198378920555115 -0.8690202832221985
 outer loop
  vertex 405500.0 5473500.0 6207.2001953125
  vertex 406500.0 5473500.0 5951.2998046875
  vertex 406500.0 5472500.0 6459.89990234375
 endloop
endfacet
facet normal -0.06563886255025864 -0.4523579180240631 -0.8894177079200745
 outer loop
  vertex 406500.0 5473500.0 5951.2998046875
  vertex 407500.0 5472500.0 6386.10009765625
  vertex 406500.0 5472500.0 6459.89990234375
 endloop
endfacet
facet normal -0.27804291248321533 -0.6031119227409363 -0.7476283311843872
 outer loop
  vertex 406500.0 5473500.0 5951.2998046875
  vertex 407500.0 5473500.0 5579.39990234375
  vertex 407500.0 5472500.0 6386.10009765625
 endloop
endfacet
facet normal -0.1960689276456833 -0.61568284034729 -0.7632114291191101
 outer loop
  vertex 407500.0 5473500.0 5579.39990234375
  vertex 408500.0 5472500.0 6129.2001953125
  vertex 407500.0 5472500.0 6386.10009765625
 endloop
endfacet
facet normal 0.4159764051437378 -0.08196353912353516 -0.905674159526825
 outer loop
  vertex 407500.0 5473500.0 5579.39990234375
  vertex 408500.0 5473500.0 6038.7001953125
  vertex 408500.0 5472500.0 6129.2001953125
 endloop
endfacet
facet normal 0.24560396373271942 -0.08737093955278397 -0.9654247760772705
 outer loop
  vertex 408500.0 5473500.0 6038.7001953125
  vertex 409500.0 5472500.0 6383.60009765625
  vertex 408500.0 5472500.0 6129.2001953125
 endloop
endfacet
facet normal 0.09941840916872025 -0.234136700630188 -0.9671069979667664
 outer loop
  vertex 408500.0 5473500.0 6038.7001953125
  vertex 409500.0 5473500.0 6141.5
  vertex 409500.0 5472500.0 6383.60009765625
 endloop
endfacet
facet normal 0.16581492125988007 -0.23204514384269714 -0.9584677815437317
 outer loop
  vertex 409500.0 5473500.0 6141.5
  vertex 410500.0 5472500.0 6556.60009765625
  vertex 409500.0 5472500.0 6383.60009765625
 endloop
endfacet
facet normal 0.38879039883613586 0.0063569131307303905 -0.9213042855262756
 outer loop
  vertex 409500.0 5473500.0 6141.5
  vertex 410500.0 5473500.0 6563.5
  vertex 410500.0 5472500.0 6556.60009765625
 endloop
endfacet
facet normal -0.23161977529525757 0.006712109316140413 -0.9727832078933716
 outer loop
  vertex 410500.0 5473500.0 6563.5
  vertex 411500.0 5472500.0 6318.5
  vertex 410500.0 5472500.0 6556.60009765625
 endloop
endfacet
facet normal -0.40131863951683044 -0.1813565194606781 -0.8978045582771301
 outer loop
  vertex 410500.0 5473500.0 6563.5
  vertex 411500.0 5473500.0 6116.5
  vertex 411500.0 5472500.0 6318.5
 endloop
endfacet
facet normal -0.190895676612854 -0.19435960054397583 -0.9621762633323669
 outer loop
  vertex 411500.0 5473500.0 6116.5
  vertex 412500.0 5472500.0 6120.10009765625
  vertex 411500.0 5472500.0 6318.5
 endloop
endfacet
facet normal 0.238820418715477 0.2354288101196289 -0.9420924186706543
 outer loop
  vertex 411500.0 5473500.0 6116.5
  vertex 412500.0 5473500.0 6370.0
  vertex 412500.0 5472500.0 6120.10009765625
 endloop
endfacet
facet normal -0.14127998054027557 0.24001243710517883 -0.9604343175888062
 outer loop
  vertex 412500.0 5473500.0 6370.0
  vertex 413500.0 5472500.0 5973.0
  vertex 412500.0 5472500.0 6120.10009765625
 endloop
endfacet
facet normal -0.631920576095581 -0.3592924177646637 -0.6867207288742065
 outer loop
  vertex 412500.0 5473500.0 6370.0
  vertex 413500.0 5473500.0 5449.7998046875
  vertex 413500.0 5472500.0 5973.0
 endloop
endfacet
facet normal 0.11651439219713211 -0.46042585372924805 -0.8800184726715088
 outer loop
  vertex 413500.0 5473500.0 5449.7998046875
  vertex 414500.0 5472500.0 6105.39990234375
  vertex 413500.0 5472500.0 5973.0
 endloop
endfacet
facet normal 0.19995346665382385 -0.38947680592536926 -0.8990697264671326
 outer loop
  vertex 413500.0 5473500.0 5449.7998046875
  vertex 414500.0 5473500.0 5672.2001953125
  vertex 414500.0 5472500.0 6105.39990234375
 endloop
endfacet
facet normal -0.2009022980928421 -0.38939961791038513 -0.8988916277885437
 outer loop
  vertex 414500.0 5473500.0 5672.2001953125
  vertex 415500.0 5472500.0 5881.89990234375
  vertex 414500.0 5472500.0 6105.39990234375
 endloop
endfacet
facet normal 0.31810712814331055 0.12092413008213043 -0.9403112530708313
 outer loop
  vertex 414500.0 5473500.0 5672.2001953125
  vertex 415500.0 5473500.0 6010.5
  vertex 415500.0 5472500.0 5881.89990234375
 endloop
endfacet
facet normal 0.5203662514686584 0.008709934540092945 -0.8538987636566162
 outer loop
  vertex 403500.0 5474500.0 5938.5
  vertex 404500.0 5473500.0 6537.7001953125
  vertex 403500.0 5473500.0 5928.2998046875
 endloop
endfacet
facet normal 0.33794334530830383 -0.2115701287984848 -0.9170782566070557
 outer loop
  vertex 403500.0 5474500.0 5938.5
  vertex 404500.0 5474500.0 6307.0
  vertex 404500.0 5473500.0 6537.7001953125
 endloop
endfacet
facet normal -0.3065376579761505 -0.21397365629673004 -0.9274966716766357
 outer loop
  vertex 404500.0 5474500.0 6307.0
  vertex 405500.0 5473500.0 6207.2001953125
  vertex 404500.0 5473500.0 6537.7001953125
 endloop
endfacet
facet normal -0.5779327154159546 -0.5147313475608826 -0.6332814693450928
 outer loop
  vertex 404500.0 5474500.0 6307.0
  vertex 405500.0 5474500.0 5394.39990234375
  vertex 405500.0 5473500.0 6207.2001953125
 endloop
endfacet
facet normal -0.1947755217552185 -0.6186531186103821 -0.7611379027366638
 outer loop
  vertex 405500.0 5474500.0 5394.39990234375
  vertex 406500.0 5473500.0 5951.2998046875
  vertex 405500.0 5473500.0 6207.2001953125
 endloop
endfacet
facet normal 0.06262854486703873 -0.4370516836643219 -0.8972532749176025
 outer loop
  vertex 405500.0 5474500.0 5394.39990234375
  vertex 406500.0 5474500.0 5464.2001953125
  vertex 406500.0 5473500.0 5951.2998046875
 endloop
endfacet
facet normal -0.3170909583568573 -0.4153130352497101 -0.8526244163513184
 outer loop
  vertex 406500.0 5474500.0 5464.2001953125
  vertex 407500.0 5473500.0 5579.39990234375
  vertex 406500.0 5473500.0 5951.2998046875
 endloop
endfacet
facet normal -0.027017395943403244 -0.14102335274219513 -0.989637553691864
 outer loop
  vertex 406500.0 5474500.0 5464.2001953125
  vertex 407500.0 5474500.0 5436.89990234375
  vertex 407500.0 5473500.0 5579.39990234375
 endloop
endfacet
facet normal 0.4139246940612793 -0.12842200696468353 -0.9012070894241333
 outer loop
  vertex 407500.0 5474500.0 5436.89990234375
  vertex 408500.0 5473500.0 6038.7001953125
  vertex 407500.0 5473500.0 5579.39990234375
 endloop
endfacet
facet normal -0.0005140342400409281 -0.5160067677497864 -0.8565843105316162
 outer loop
  vertex 407500.0 5474500.0 5436.89990234375
  vertex 408500.0 5474500.0 5436.2998046875
  vertex 408500.0 5473500.0 6038.7001953125
 endloop
endfacet
facet normal 0.08771730214357376 -0.5140178203582764 -0.8532827496528625
 outer loop
  vertex 408500.0 5474500.0 5436.2998046875
  vertex 409500.0 5473500.0 6141.5
  vertex 408500.0 5473500.0 6038.7001953125
 endloop
endfacet
facet normal 0.061846986413002014 -0.5331643223762512 -0.8437480926513672
 outer loop
  vertex 408500.0 5474500.0 5436.2998046875
  vertex 409500.0 5474500.0 5509.60009765625
  vertex 409500.0 5473500.0 6141.5
 endloop
endfacet
facet normal 0.33600372076034546 -0.5031296610832214 -0.7962173223495483
 outer loop
  vertex 409500.0 5474500.0 5509.60009765625
  vertex 410500.0 5473500.0 6563.5
  vertex 409500.0 5473500.0 6141.5
 endloop
endfacet
facet normal 0.06780821830034256 -0.6908255219459534 -0.7198347449302673
 outer loop
  vertex 409500.0 5474500.0 5509.60009765625
  vertex 410500.0 5474500.0 5603.7998046875
  vertex 410500.0 5473500.0 6563.5
 endloop
endfacet
facet normal -0.3069405257701874 -0.6589952111244202 -0.686667799949646
 outer loop
  vertex 410500.0 5474500.0 5603.7998046875
  vertex 411500.0 5473500.0 6116.5
  vertex 410500.0 5473500.0 6563.5
 endloop
endfacet
facet normal 0.09772009402513504 -0.37493187189102173 -0.9218876361846924
 outer loop
  vertex 410500.0 5474500.0 5603.7998046875
  vertex 411500.0 5474500.0 5709.7998046875
  vertex 411500.0 5473500.0 6116.5
 endloop
endfacet
facet normal 0.22860418260097504 -0.3667588233947754 -0.9017916321754456
 outer loop
  vertex 411500.0 5474500.0 5709.7998046875
  vertex 412500.0 5473500.0 6370.0
  vertex 411500.0 5473500.0 6116.5
 endloop
endfacet
facet normal 0.10163715481758118 -0.47532498836517334 -0.8739200234413147
 outer loop
  vertex 411500.0 5474500.0 5709.7998046875
  vertex 412500.0 5474500.0 5826.10009765625
  vertex 412500.0 5473500.0 6370.0
 endloop
endfacet
facet normal -0.6286547780036926 -0.37157705426216125 -0.683171808719635
 outer loop
  vertex 412500.0 5474500.0 5826.10009765625
  vertex 413500.0 5473500.0 5449.7998046875
  vertex 412500.0 5473500.0 6370.0
 endloop
endfacet
facet normal -0.25958052277565 0.10179618000984192 -0.9603413343429565
 outer loop
  vertex 412500.0 5474500.0 5826.10009765625
  vertex 413500.0 5474500.0 5555.7998046875
  vertex 413500.0 5473500.0 5449.7998046875
 endloop
endfacet
facet normal 0.21594327688217163 0.10292242467403412 -0.9709662795066833
 outer loop
  vertex 413500.0 5474500.0 5555.7998046875
  vertex 414500.0 5473500.0 5672.2001953125
  vertex 413500.0 5473500.0 5449.7998046875
 endloop
endfacet
facet normal 0.2677788734436035 0.15713085234165192 -0.9505810737609863
 outer loop
  vertex 413500.0 5474500.0 5555.7998046875
  vertex 414500.0 5474500.0 5837.5
  vertex 414500.0 5473500.0 5672.2001953125
 endloop
endfacet
facet normal 0.3166010081768036 0.15469735860824585 -0.9358592629432678
 outer loop
  vertex 414500.0 5474500.0 5837.5
  vertex 415500.0 5473500.0 6010.5
  vertex 414500.0 5473500.0 5672.2001953125
 endloop
endfacet
facet normal 0.15604688227176666 -0.014814577996730804 -0.987638533115387
 outer loop
  vertex 414500.0 5474500.0 5837.5
  vertex 415500.0 5474500.0 5995.5
  vertex 415500.0 5473500.0 6010.5
 endloop
endfacet
facet normal 0.33048564195632935 -0.014155574142932892 -0.9437049627304077
 outer loop
  vertex 415500.0 5474500.0 5995.5
  vertex 416500.0 5473500.0 6360.7001953125
  vertex 415500.0 5473500.0 6010.5
 endloop
endfacet
facet normal 0.24634742736816406 -0.10549481213092804 -0.963422954082489
 outer loop
  vertex 415500.0 5474500.0 5995.5
  vertex 416500.0 5474500.0 6251.2001953125
  vertex 416500.0 5473500.0 6360.7001953125
 endloop
endfacet
facet normal 0.11578202992677689 -0.4988577961921692 -0.8589152097702026
 outer loop
  vertex 402500.0 5475500.0 5222.89990234375
  vertex 403500.0 5475500.0 5357.7001953125
  vertex 403500.0 5474500.0 5938.5
 endloop
endfacet
facet normal 0.3036116063594818 -0.4785279631614685 -0.8239120841026306
 outer loop
  vertex 403500.0 5475500.0 5357.7001953125
  vertex 404500.0 5474500.0 6307.0
  vertex 403500.0 5474500.0 5938.5
 endloop
endfacet
facet normal -0.014217440970242023 -0.6958545446395874 -0.7180419564247131
 outer loop
  vertex 403500.0 5475500.0 5357.7001953125
  vertex 404500.0 5475500.0 5337.89990234375
  vertex 404500.0 5474500.0 6307.0
 endloop
endfacet
facet normal -0.5481310486793518 -0.5820663571357727 -0.6006256341934204
 outer loop
  vertex 404500.0 5475500.0 5337.89990234375
  vertex 405500.0 5474500.0 5394.39990234375
  vertex 404500.0 5474500.0 6307.0
 endloop
endfacet
facet normal 0.007390796206891537 -0.049039676785469055 -0.9987694621086121
 outer loop
  vertex 404500.0 5475500.0 5337.89990234375
  vertex 405500.0 5475500.0 5345.2998046875
  vertex 405500.0 5474500.0 5394.39990234375
 endloop
endfacet
facet normal 0.06954750418663025 -0.04892227426171303 -0.9963783621788025
 outer loop
  vertex 405500.0 5475500.0 5345.2998046875
  vertex 406500.0 5474500.0 5464.2001953125
  vertex 405500.0 5474500.0 5394.39990234375
 endloop
endfacet
facet normal 0.16852137446403503 0.051481448113918304 -0.984352707862854
 outer loop
  vertex 405500.0 5475500.0 5345.2998046875
  vertex 406500.0 5475500.0 5516.5
  vertex 406500.0 5474500.0 5464.2001953125
 endloop
endfacet
facet normal -0.02725290320813656 0.052209027111530304 -0.9982642531394958
 outer loop
  vertex 406500.0 5475500.0 5516.5
  vertex 407500.0 5474500.0 5436.89990234375
  vertex 406500.0 5474500.0 5464.2001953125
 endloop
endfacet
facet normal -0.13916924595832825 -0.060490984469652176 -0.9884192943572998
 outer loop
  vertex 406500.0 5475500.0 5516.5
  vertex 407500.0 5475500.0 5375.7001953125
  vertex 407500.0 5474500.0 5436.89990234375
 endloop
endfacet
facet normal -0.0005989769124425948 -0.06108541041612625 -0.9981323480606079
 outer loop
  vertex 407500.0 5475500.0 5375.7001953125
  vertex 408500.0 5474500.0 5436.2998046875
  vertex 407500.0 5474500.0 5436.89990234375
 endloop
endfacet
facet normal 0.006290412973612547 -0.05421885475516319 -0.9985092282295227
 outer loop
  vertex 407500.0 5475500.0 5375.7001953125
  vertex 408500.0 5475500.0 5382.0
  vertex 408500.0 5474500.0 5436.2998046875
 endloop
endfacet
facet normal 0.07299719750881195 -0.05407527834177017 -0.9958650469779968
 outer loop
  vertex 408500.0 5475500.0 5382.0
  vertex 409500.0 5474500.0 5509.60009765625
  vertex 408500.0 5474500.0 5436.2998046875
 endloop
endfacet
facet normal -0.12856175005435944 -0.250983327627182 -0.9594160914421082
 outer loop
  vertex 408500.0 5475500.0 5382.0
  vertex 409500.0 5475500.0 5248.0
  vertex 409500.0 5474500.0 5509.60009765625
 endloop
endfacet
facet normal 0.09075689315795898 -0.2520391047000885 -0.9634518623352051
 outer loop
  vertex 409500.0 5475500.0 5248.0
  vertex 410500.0 5474500.0 5603.7998046875
  vertex 409500.0 5474500.0 5509.60009765625
 endloop
endfacet
facet normal 0.03244461119174957 -0.3060818910598755 -0.9514521360397339
 outer loop
  vertex 409500.0 5475500.0 5248.0
  vertex 410500.0 5475500.0 5282.10009765625
  vertex 410500.0 5474500.0 5603.7998046875
 endloop
endfacet
facet normal 0.10039720684289932 -0.3046957850456238 -0.9471434950828552
 outer loop
  vertex 410500.0 5475500.0 5282.10009765625
  vertex 411500.0 5474500.0 5709.7998046875
  vertex 410500.0 5474500.0 5603.7998046875
 endloop
endfacet
facet normal 0.33590155839920044 -0.06595858931541443 -0.9395847916603088
 outer loop
  vertex 410500.0 5475500.0 5282.10009765625
  vertex 411500.0 5475500.0 5639.60009765625
  vertex 411500.0 5474500.0 5709.7998046875
 endloop
endfacet
facet normal 0.11524183303117752 -0.06956081092357635 -0.9908989071846008
 outer loop
  vertex 411500.0 5475500.0 5639.60009765625
  vertex 412500.0 5474500.0 5826.10009765625
  vertex 411500.0 5474500.0 5709.7998046875
 endloop
endfacet
facet normal -0.14974361658096313 -0.3239615559577942 -0.9341443181037903
 outer loop
  vertex 411500.0 5475500.0 5639.60009765625
  vertex 412500.0 5475500.0 5479.2998046875
  vertex 412500.0 5474500.0 5826.10009765625
 endloop
endfacet
facet normal -0.24743762612342834 -0.31746706366539 -0.9154176115989685
 outer loop
  vertex 412500.0 5475500.0 5479.2998046875
  vertex 413500.0 5474500.0 5555.7998046875
  vertex 412500.0 5474500.0 5826.10009765625
 endloop
endfacet
facet normal 0.18014492094516754 0.10532911121845245 -0.9779844880104065
 outer loop
  vertex 412500.0 5475500.0 5479.2998046875
  vertex 413500.0 5475500.0 5663.5
  vertex 413500.0 5474500.0 5555.7998046875
 endloop
endfacet
facet normal 0.2697018086910248 0.10311295092105865 -0.9574072957038879
 outer loop
  vertex 413500.0 5475500.0 5663.5
  vertex 414500.0 5474500.0 5837.5
  vertex 413500.0 5474500.0 5555.7998046875
 endloop
endfacet
facet normal -0.3760822117328644 -0.5106182098388672 -0.7731955051422119
 outer loop
  vertex 413500.0 5475500.0 5663.5
  vertex 414500.0 5475500.0 5177.10009765625
  vertex 414500.0 5474500.0 5837.5
 endloop
endfacet
facet normal 0.1307128518819809 -0.5463465452194214 -0.8272965550422668
 outer loop
  vertex 414500.0 5475500.0 5177.10009765625
  vertex 415500.0 5474500.0 5995.5
  vertex 414500.0 5474500.0 5837.5
 endloop
endfacet
facet normal 0.006527121644467115 -0.6294083595275879 -0.777047336101532
 outer loop
  vertex 414500.0 5475500.0 5177.10009765625
  vertex 415500.0 5475500.0 5185.5
  vertex 415500.0 5474500.0 5995.5
 endloop
endfacet
facet normal 0.19488562643527985 -0.6173531413078308 -0.7621644139289856
 outer loop
  vertex 415500.0 5475500.0 5185.5
  vertex 416500.0 5474500.0 6251.2001953125
  vertex 415500.0 5474500.0 5995.5
 endloop
endfacet
facet normal 0.6822284460067749 -0.0909012034535408 -0.7254663109779358
 outer loop
  vertex 415500.0 5475500.0 5185.5
  vertex 416500.0 5475500.0 6125.89990234375
  vertex 416500.0 5474500.0 6251.2001953125
 endloop
endfacet
facet normal 0.18592098355293274 -0.1221604123711586 -0.9749411344528198
 outer loop
  vertex 416500.0 5475500.0 6125.89990234375
  vertex 417500.0 5474500.0 6441.89990234375
  vertex 416500.0 5474500.0 6251.2001953125
 endloop
endfacet
facet normal 0.010755418799817562 -0.16192486882209778 -0.9867445230484009
 outer loop
  vertex 401500.0 5476500.0 5047.89990234375
  vertex 402500.0 5476500.0 5058.7998046875
  vertex 402500.0 5475500.0 5222.89990234375
 endloop
endfacet
facet normal 0.1318596452474594 -0.1605202853679657 -0.9781851768493652
 outer loop
  vertex 402500.0 5476500.0 5058.7998046875
  vertex 403500.0 5475500.0 5357.7001953125
  vertex 402500.0 5475500.0 5222.89990234375
 endloop
endfacet
facet normal 0.00960666872560978 -0.2775370180606842 -0.9606668949127197
 outer loop
  vertex 402500.0 5476500.0 5058.7998046875
  vertex 403500.0 5476500.0 5068.7998046875
  vertex 403500.0 5475500.0 5357.7001953125
 endloop
endfacet
facet normal -0.019018912687897682 -0.27749964594841003 -0.9605374336242676
 outer loop
  vertex 403500.0 5476500.0 5068.7998046875
  vertex 404500.0 5475500.0 5337.89990234375
  vertex 403500.0 5475500.0 5357.7001953125
 endloop
endfacet
facet normal 0.020377838984131813 -0.24074970185756683 -0.970373272895813
 outer loop
  vertex 403500.0 5476500.0 5068.7998046875
  vertex 404500.0 5476500.0 5089.7998046875
  vertex 404500.0 5475500.0 5337.89990234375
 endloop
endfacet
facet normal 0.007181977853178978 -0.24079349637031555 -0.9705498218536377
 outer loop
  vertex 404500.0 5476500.0 5089.7998046875
  vertex 405500.0 5475500.0 5345.2998046875
  vertex 404500.0 5475500.0 5337.89990234375
 endloop
endfacet
facet normal -0.006383843719959259 -0.2535306215286255 -0.9673063158988953
 outer loop
  vertex 404500.0 5476500.0 5089.7998046875
  vertex 405500.0 5476500.0 5083.2001953125
  vertex 405500.0 5475500.0 5345.2998046875
 endloop
endfacet
facet normal 0.1633811593055725 -0.25012901425361633 -0.9543280601501465
 outer loop
  vertex 405500.0 5476500.0 5083.2001953125
  vertex 406500.0 5475500.0 5516.5
  vertex 405500.0 5475500.0 5345.2998046875
 endloop
endfacet
facet normal 0.12316127121448517 -0.2882950007915497 -0.9495879411697388
 outer loop
  vertex 405500.0 5476500.0 5083.2001953125
  vertex 406500.0 5476500.0 5212.89990234375
  vertex 406500.0 5475500.0 5516.5
 endloop
endfacet
facet normal -0.1335211545228958 -0.2879055142402649 -0.948305070400238
 outer loop
  vertex 406500.0 5476500.0 5212.89990234375
  vertex 407500.0 5475500.0 5375.7001953125
  vertex 406500.0 5475500.0 5516.5
 endloop
endfacet
facet normal -0.08523480594158173 -0.2425624430179596 -0.9663842916488647
 outer loop
  vertex 406500.0 5476500.0 5212.89990234375
  vertex 407500.0 5476500.0 5124.7001953125
  vertex 407500.0 5475500.0 5375.7001953125
 endloop
endfacet
facet normal 0.006110161077231169 -0.2434438169002533 -0.9698957204818726
 outer loop
  vertex 407500.0 5476500.0 5124.7001953125
  vertex 408500.0 5475500.0 5382.0
  vertex 407500.0 5475500.0 5375.7001953125
 endloop
endfacet
facet normal 0.04033596068620682 -0.2109590470790863 -0.976662278175354
 outer loop
  vertex 407500.0 5476500.0 5124.7001953125
  vertex 408500.0 5476500.0 5166.0
  vertex 408500.0 5475500.0 5382.0
 endloop
endfacet
facet normal -0.12987008690834045 -0.209342822432518 -0.9691797494888306
 outer loop
  vertex 408500.0 5476500.0 5166.0
  vertex 409500.0 5475500.0 5248.0
  vertex 408500.0 5475500.0 5382.0
 endloop
endfacet
facet normal -0.15330277383327484 -0.2320673018693924 -0.9605430960655212
 outer loop
  vertex 408500.0 5476500.0 5166.0
  vertex 409500.0 5476500.0 5006.39990234375
  vertex 409500.0 5475500.0 5248.0
 endloop
endfacet
facet normal 0.03312823176383972 -0.23471441864967346 -0.9714997410774231
 outer loop
  vertex 409500.0 5476500.0 5006.39990234375
  vertex 410500.0 5475500.0 5282.10009765625
  vertex 409500.0 5475500.0 5248.0
 endloop
endfacet
facet normal 0.015193249098956585 -0.251604825258255 -0.9677107930183411
 outer loop
  vertex 409500.0 5476500.0 5006.39990234375
  vertex 410500.0 5476500.0 5022.10009765625
  vertex 410500.0 5475500.0 5282.10009765625
 endloop
endfacet
facet normal 0.32697781920433044 -0.23780204355716705 -0.9146232604980469
 outer loop
  vertex 410500.0 5476500.0 5022.10009765625
  vertex 411500.0 5475500.0 5639.60009765625
  vertex 410500.0 5475500.0 5282.10009765625
 endloop
endfacet
facet normal 0.30294620990753174 -0.26273098587989807 -0.9160764217376709
 outer loop
  vertex 410500.0 5476500.0 5022.10009765625
  vertex 411500.0 5476500.0 5352.7998046875
  vertex 411500.0 5475500.0 5639.60009765625
 endloop
endfacet
facet normal -0.1522909551858902 -0.2724704444408417 -0.9500355124473572
 outer loop
  vertex 411500.0 5476500.0 5352.7998046875
  vertex 412500.0 5475500.0 5479.2998046875
  vertex 411500.0 5475500.0 5639.60009765625
 endloop
endfacet
facet normal -0.2677677571773529 -0.37978044152259827 -0.8854756951332092
 outer loop
  vertex 411500.0 5476500.0 5352.7998046875
  vertex 412500.0 5476500.0 5050.39990234375
  vertex 412500.0 5475500.0 5479.2998046875
 endloop
endfacet
facet normal 0.166911780834198 -0.3886447548866272 -0.9061432480812073
 outer loop
  vertex 412500.0 5476500.0 5050.39990234375
  vertex 413500.0 5475500.0 5663.5
  vertex 412500.0 5475500.0 5479.2998046875
 endloop
endfacet
facet normal 0.3907946050167084 -0.1644689440727234 -0.9056653380393982
 outer loop
  vertex 412500.0 5476500.0 5050.39990234375
  vertex 413500.0 5476500.0 5481.89990234375
  vertex 413500.0 5475500.0 5663.5
 endloop
endfacet
facet normal -0.43168434500694275 -0.16117173433303833 -0.8875091075897217
 outer loop
  vertex 413500.0 5476500.0 5481.89990234375
  vertex 414500.0 5475500.0 5177.10009765625
  vertex 413500.0 5475500.0 5663.5
 endloop
endfacet
facet normal 0.049839913845062256 0.3364662528038025 -0.9403756856918335
 outer loop
  vertex 413500.0 5476500.0 5481.89990234375
  vertex 414500.0 5476500.0 5534.89990234375
  vertex 414500.0 5475500.0 5177.10009765625
 endloop
endfacet
facet normal 0.007908649742603302 0.336874395608902 -0.9415163993835449
 outer loop
  vertex 414500.0 5476500.0 5534.89990234375
  vertex 415500.0 5475500.0 5185.5
  vertex 414500.0 5475500.0 5177.10009765625
 endloop
endfacet
facet normal 0.03136202320456505 0.3574886620044708 -0.9333907961845398
 outer loop
  vertex 414500.0 5476500.0 5534.89990234375
  vertex 415500.0 5476500.0 5568.5
  vertex 415500.0 5475500.0 5185.5
 endloop
endfacet
facet normal 0.6598621606826782 0.26874440908432007 -0.7016825675964355
 outer loop
  vertex 415500.0 5476500.0 5568.5
  vertex 416500.0 5475500.0 6125.89990234375
  vertex 415500.0 5475500.0 5185.5
 endloop
endfacet
facet normal -0.09009972959756851 -0.5521188974380493 -0.8288828134536743
 outer loop
  vertex 415500.0 5476500.0 5568.5
  vertex 416500.0 5476500.0 5459.7998046875
  vertex 416500.0 5475500.0 6125.89990234375
 endloop
endfacet
facet normal 0.010884380899369717 0.05222581699490547 -0.9985759854316711
 outer loop
  vertex 401500.0 5477500.0 5100.2001953125
  vertex 402500.0 5476500.0 5058.7998046875
  vertex 401500.0 5476500.0 5047.89990234375
 endloop
endfacet
facet normal 0.04231327027082443 0.08353176712989807 -0.9956063628196716
 outer loop
  vertex 401500.0 5477500.0 5100.2001953125
  vertex 402500.0 5477500.0 5142.7001953125
  vertex 402500.0 5476500.0 5058.7998046875
 endloop
endfacet
facet normal 0.009964493103325367 0.08360248804092407 -0.99644935131073
 outer loop
  vertex 402500.0 5477500.0 5142.7001953125
  vertex 403500.0 5476500.0 5068.7998046875
  vertex 402500.0 5476500.0 5058.7998046875
 endloop
endfacet
facet normal -0.04403776675462723 0.02975817210972309 -0.9985865354537964
 outer loop
  vertex 402500.0 5477500.0 5142.7001953125
  vertex 403500.0 5477500.0 5098.60009765625
  vertex 403500.0 5476500.0 5068.7998046875
 endloop
endfacet
facet normal 0.020986057817935944 0.02978050895035267 -0.9993361234664917
 outer loop
  vertex 403500.0 5477500.0 5098.60009765625
  vertex 404500.0 5476500.0 5089.7998046875
  vertex 403500.0 5476500.0 5068.7998046875
 endloop
endfacet
facet normal 0.12602940201759338 0.19978146255016327 -0.9717015624046326
 outer loop
  vertex 405500.0 5477500.0 5288.7998046875
  vertex 406500.0 5476500.0 5212.89990234375
  vertex 405500.0 5476500.0 5083.2001953125
 endloop
endfacet
facet normal -0.24585296213626862 -0.1734703779220581 -0.953658401966095
 outer loop
  vertex 405500.0 5477500.0 5288.7998046875
  vertex 406500.0 5477500.0 5031.0
  vertex 406500.0 5476500.0 5212.89990234375
 endloop
endfacet
facet normal -0.08645091950893402 -0.17829325795173645 -0.980172336101532
 outer loop
  vertex 406500.0 5477500.0 5031.0
  vertex 407500.0 5476500.0 5124.7001953125
  vertex 406500.0 5476500.0 5212.89990234375
 endloop
endfacet
facet normal -0.08232680708169937 -0.1742701530456543 -0.9812503457069397
 outer loop
  vertex 406500.0 5477500.0 5031.0
  vertex 407500.0 5477500.0 4947.10009765625
  vertex 407500.0 5476500.0 5124.7001953125
 endloop
endfacet
facet normal 0.04062991589307785 -0.17471934854984283 -0.9837796092033386
 outer loop
  vertex 407500.0 5477500.0 4947.10009765625
  vertex 408500.0 5476500.0 5166.0
  vertex 407500.0 5476500.0 5124.7001953125
 endloop
endfacet
facet normal 0.2847718894481659 0.07558887451887131 -0.9556103944778442
 outer loop
  vertex 407500.0 5477500.0 4947.10009765625
  vertex 408500.0 5477500.0 5245.10009765625
  vertex 408500.0 5476500.0 5166.0
 endloop
endfacet
facet normal -0.15712681412696838 0.07787430286407471 -0.9845033288002014
 outer loop
  vertex 408500.0 5477500.0 5245.10009765625
  vertex 409500.0 5476500.0 5006.39990234375
  vertex 408500.0 5476500.0 5166.0
 endloop
endfacet
facet normal -0.19064736366271973 0.04344514384865761 -0.9806967377662659
 outer loop
  vertex 408500.0 5477500.0 5245.10009765625
  vertex 409500.0 5477500.0 5050.7001953125
  vertex 409500.0 5476500.0 5006.39990234375
 endloop
endfacet
facet normal 0.0156828835606575 0.044251445680856705 -0.9988973140716553
 outer loop
  vertex 409500.0 5477500.0 5050.7001953125
  vertex 410500.0 5476500.0 5022.10009765625
  vertex 409500.0 5476500.0 5006.39990234375
 endloop
endfacet
facet normal -0.0057986886240541935 0.022793497890233994 -0.9997233748435974
 outer loop
  vertex 409500.0 5477500.0 5050.7001953125
  vertex 410500.0 5477500.0 5044.89990234375
  vertex 410500.0 5476500.0 5022.10009765625
 endloop
endfacet
facet normal 0.31390294432640076 0.021641764789819717 -0.9492083191871643
 outer loop
  vertex 410500.0 5477500.0 5044.89990234375
  vertex 411500.0 5476500.0 5352.7998046875
  vertex 410500.0 5476500.0 5022.10009765625
 endloop
endfacet
facet normal 0.024339554831385612 -0.27186834812164307 -0.9620265960693359
 outer loop
  vertex 410500.0 5477500.0 5044.89990234375
  vertex 411500.0 5477500.0 5070.2001953125
  vertex 411500.0 5476500.0 5352.7998046875
 endloop
endfacet
facet normal -0.2794126272201538 -0.26111748814582825 -0.9239838719367981
 outer loop
  vertex 411500.0 5477500.0 5070.2001953125
  vertex 412500.0 5476500.0 5050.39990234375
  vertex 411500.0 5476500.0 5352.7998046875
 endloop
endfacet
facet normal 0.3522460460662842 0.3692738115787506 -0.8599764704704285
 outer loop
  vertex 411500.0 5477500.0 5070.2001953125
  vertex 412500.0 5477500.0 5479.7998046875
  vertex 412500.0 5476500.0 5050.39990234375
 endloop
endfacet
facet normal 0.368577778339386 0.36678391695022583 -0.8541779518127441
 outer loop
  vertex 412500.0 5477500.0 5479.7998046875
  vertex 413500.0 5476500.0 5481.89990234375
  vertex 412500.0 5476500.0 5050.39990234375
 endloop
endfacet
facet normal 0.012698457576334476 0.01059864740818739 -0.9998632073402405
 outer loop
  vertex 412500.0 5477500.0 5479.7998046875
  vertex 413500.0 5477500.0 5492.5
  vertex 413500.0 5476500.0 5481.89990234375
 endloop
endfacet
facet normal 0.052922751754522324 0.01058464776724577 -0.9985424876213074
 outer loop
  vertex 413500.0 5477500.0 5492.5
  vertex 414500.0 5476500.0 5534.89990234375
  vertex 413500.0 5476500.0 5481.89990234375
 endloop
endfacet
facet normal -0.09832704067230225 -0.14010123908519745 -0.9852428436279297
 outer loop
  vertex 413500.0 5477500.0 5492.5
  vertex 414500.0 5477500.0 5392.7001953125
  vertex 414500.0 5476500.0 5534.89990234375
 endloop
endfacet
facet normal 0.033247075974941254 -0.14070561528205872 -0.9894930720329285
 outer loop
  vertex 414500.0 5477500.0 5392.7001953125
  vertex 415500.0 5476500.0 5568.5
  vertex 414500.0 5476500.0 5534.89990234375
 endloop
endfacet
facet normal 0.1193562000989914 -0.054919663816690445 -0.9913313388824463
 outer loop
  vertex 414500.0 5477500.0 5392.7001953125
  vertex 415500.0 5477500.0 5513.10009765625
  vertex 415500.0 5476500.0 5568.5
 endloop
endfacet
facet normal -0.10790012031793594 -0.05499213933944702 -0.9926396608352661
 outer loop
  vertex 415500.0 5477500.0 5513.10009765625
  vertex 416500.0 5476500.0 5459.7998046875
  vertex 415500.0 5476500.0 5568.5
 endloop
endfacet
facet normal 0.2278195470571518 0.2775648832321167 -0.9333037734031677
 outer loop
  vertex 415500.0 5477500.0 5513.10009765625
  vertex 416500.0 5477500.0 5757.2001953125
  vertex 416500.0 5476500.0 5459.7998046875
 endloop
endfacet
facet normal -0.24963723123073578 0.0019366750493645668 -0.9683375358581543
 outer loop
  vertex 405500.0 5478500.0 5290.7998046875
  vertex 406500.0 5477500.0 5031.0
  vertex 405500.0 5477500.0 5288.7998046875
 endloop
endfacet
facet normal 0.023559581488370895 0.2733871340751648 -0.9616155624389648
 outer loop
  vertex 405500.0 5478500.0 5290.7998046875
  vertex 406500.0 5478500.0 5315.2998046875
  vertex 406500.0 5477500.0 5031.0
 endloop
endfacet
facet normal -0.08044033497571945 0.27257683873176575 -0.95876544713974
 outer loop
  vertex 406500.0 5478500.0 5315.2998046875
  vertex 407500.0 5477500.0 4947.10009765625
  vertex 406500.0 5477500.0 5031.0
 endloop
endfacet
facet normal -0.057437654584646225 0.2938685119152069 -0.954118549823761
 outer loop
  vertex 406500.0 5478500.0 5315.2998046875
  vertex 407500.0 5478500.0 5255.10009765625
  vertex 407500.0 5477500.0 4947.10009765625
 endloop
endfacet
facet normal 0.27390584349632263 0.2830972969532013 -0.9191471338272095
 outer loop
  vertex 407500.0 5478500.0 5255.10009765625
  vertex 408500.0 5477500.0 5245.10009765625
  vertex 407500.0 5477500.0 4947.10009765625
 endloop
endfacet
facet normal -0.24499160051345825 -0.23558694124221802 -0.9404668211936951
 outer loop
  vertex 407500.0 5478500.0 5255.10009765625
  vertex 408500.0 5478500.0 4994.60009765625
  vertex 408500.0 5477500.0 5245.10009765625
 endloop
endfacet
facet normal -0.18530742824077606 -0.238783597946167 -0.9532279372215271
 outer loop
  vertex 408500.0 5478500.0 4994.60009765625
  vertex 409500.0 5477500.0 5050.7001953125
  vertex 408500.0 5477500.0 5245.10009765625
 endloop
endfacet
facet normal 0.4221278727054596 0.3758479654788971 -0.8249523043632507
 outer loop
  vertex 408500.0 5478500.0 4994.60009765625
  vertex 409500.0 5478500.0 5506.2998046875
  vertex 409500.0 5477500.0 5050.7001953125
 endloop
endfacet
facet normal -0.0052782101556658745 0.41459205746650696 -0.9099920988082886
 outer loop
  vertex 409500.0 5478500.0 5506.2998046875
  vertex 410500.0 5477500.0 5044.89990234375
  vertex 409500.0 5477500.0 5050.7001953125
 endloop
endfacet
facet normal 0.1482321321964264 0.5326849222183228 -0.8332310914993286
 outer loop
  vertex 409500.0 5478500.0 5506.2998046875
  vertex 410500.0 5478500.0 5684.2001953125
  vertex 410500.0 5477500.0 5044.89990234375
 endloop
endfacet
facet normal 0.02131165750324726 0.5385130643844604 -0.8423476219177246
 outer loop
  vertex 410500.0 5478500.0 5684.2001953125
  vertex 411500.0 5477500.0 5070.2001953125
  vertex 410500.0 5477500.0 5044.89990234375
 endloop
endfacet
facet normal -0.26354074478149414 0.2994857132434845 -0.9169812202453613
 outer loop
  vertex 410500.0 5478500.0 5684.2001953125
  vertex 411500.0 5478500.0 5396.7998046875
  vertex 411500.0 5477500.0 5070.2001953125
 endloop
endfacet
facet normal 0.362827330827713 0.2893051207065582 -0.8858097195625305
 outer loop
  vertex 411500.0 5478500.0 5396.7998046875
  vertex 412500.0 5477500.0 5479.7998046875
  vertex 411500.0 5477500.0 5070.2001953125
 endloop
endfacet
facet normal -0.06309542804956436 -0.14505049586296082 -0.9874103665351868
 outer loop
  vertex 411500.0 5478500.0 5396.7998046875
  vertex 412500.0 5478500.0 5332.89990234375
  vertex 412500.0 5477500.0 5479.7998046875
 endloop
endfacet
facet normal 0.0125643415376544 -0.1453286111354828 -0.9893036484718323
 outer loop
  vertex 412500.0 5478500.0 5332.89990234375
  vertex 413500.0 5477500.0 5492.5
  vertex 412500.0 5477500.0 5479.7998046875
 endloop
endfacet
facet normal 0.0884312093257904 -0.07014889270067215 -0.9936091303825378
 outer loop
  vertex 412500.0 5478500.0 5332.89990234375
  vertex 413500.0 5478500.0 5421.89990234375
  vertex 413500.0 5477500.0 5492.5
 endloop
endfacet
facet normal -0.09906233102083206 -0.07007839530706406 -0.992610514163971
 outer loop
  vertex 413500.0 5478500.0 5421.89990234375
  vertex 414500.0 5477500.0 5392.7001953125
  vertex 413500.0 5477500.0 5492.5
 endloop
endfacet
facet normal 0.35474467277526855 0.37969276309013367 -0.8543943166732788
 outer loop
  vertex 413500.0 5478500.0 5421.89990234375
  vertex 414500.0 5478500.0 5837.10009765625
  vertex 414500.0 5477500.0 5392.7001953125
 endloop
endfacet
facet normal 0.10936468094587326 0.4036685526371002 -0.9083452224731445
 outer loop
  vertex 414500.0 5478500.0 5837.10009765625
  vertex 415500.0 5477500.0 5513.10009765625
  vertex 414500.0 5477500.0 5392.7001953125
 endloop
endfacet
facet normal 0.34216299653053284 0.5813449025154114 -0.7382157444953918
 outer loop
  vertex 414500.0 5478500.0 5837.10009765625
  vertex 415500.0 5478500.0 6300.60009765625
  vertex 415500.0 5477500.0 5513.10009765625
 endloop
endfacet
facet normal 0.18834185600280762 0.6076162457466125 -0.7715762257575989
 outer loop
  vertex 415500.0 5478500.0 6300.60009765625
  vertex 416500.0 5477500.0 5757.2001953125
  vertex 415500.0 5477500.0 5513.10009765625
 endloop
endfacet
facet normal -0.10197972506284714 -0.07410378754138947 -0.9920225143432617
 outer loop
  vertex 404500.0 5479500.0 5318.89990234375
  vertex 405500.0 5479500.0 5216.10009765625
  vertex 405500.0 5478500.0 5290.7998046875
 endloop
endfacet
facet normal 0.024424640461802483 -0.07446993887424469 -0.996924102306366
 outer loop
  vertex 405500.0 5479500.0 5216.10009765625
  vertex 406500.0 5478500.0 5315.2998046875
  vertex 405500.0 5478500.0 5290.7998046875
 endloop
endfacet
facet normal 0.2341197282075882 0.13866297900676727 -0.9622684121131897
 outer loop
  vertex 405500.0 5479500.0 5216.10009765625
  vertex 406500.0 5479500.0 5459.39990234375
  vertex 406500.0 5478500.0 5315.2998046875
 endloop
endfacet
facet normal -0.05947877839207649 0.14237438142299652 -0.9880242347717285
 outer loop
  vertex 406500.0 5479500.0 5459.39990234375
  vertex 407500.0 5478500.0 5255.10009765625
  vertex 406500.0 5478500.0 5315.2998046875
 endloop
endfacet
facet normal -0.3039349615573883 -0.11061643809080124 -0.9462491273880005
 outer loop
  vertex 406500.0 5479500.0 5459.39990234375
  vertex 407500.0 5479500.0 5138.2001953125
  vertex 407500.0 5478500.0 5255.10009765625
 endloop
endfacet
facet normal -0.25048935413360596 -0.1124076098203659 -0.9615713953971863
 outer loop
  vertex 407500.0 5479500.0 5138.2001953125
  vertex 408500.0 5478500.0 4994.60009765625
  vertex 407500.0 5478500.0 5255.10009765625
 endloop
endfacet
facet normal 0.12039963901042938 0.2580544948577881 -0.9585988521575928
 outer loop
  vertex 407500.0 5479500.0 5138.2001953125
  vertex 408500.0 5479500.0 5263.7998046875
  vertex 408500.0 5478500.0 4994.60009765625
 endloop
endfacet
facet normal 0.44298356771469116 0.23304888606071472 -0.8657099604606628
 outer loop
  vertex 408500.0 5479500.0 5263.7998046875
  vertex 409500.0 5478500.0 5506.2998046875
  vertex 408500.0 5478500.0 4994.60009765625
 endloop
endfacet
facet normal 0.5241307020187378 0.3341715335845947 -0.7833366990089417
 outer loop
  vertex 408500.0 5479500.0 5263.7998046875
  vertex 409500.0 5479500.0 5932.89990234375
  vertex 409500.0 5478500.0 5506.2998046875
 endloop
endfacet
facet normal 0.16148518025875092 0.38723689317703247 -0.9077280759811401
 outer loop
  vertex 409500.0 5479500.0 5932.89990234375
  vertex 410500.0 5478500.0 5684.2001953125
  vertex 409500.0 5478500.0 5506.2998046875
 endloop
endfacet
facet normal -0.32860782742500305 -0.09490826725959778 -0.9396857023239136
 outer loop
  vertex 409500.0 5479500.0 5932.89990234375
  vertex 410500.0 5479500.0 5583.2001953125
  vertex 410500.0 5478500.0 5684.2001953125
 endloop
endfacet
facet normal -0.2749267518520355 -0.09661643952131271 -0.9565984010696411
 outer loop
  vertex 410500.0 5479500.0 5583.2001953125
  vertex 411500.0 5478500.0 5396.7998046875
  vertex 410500.0 5478500.0 5684.2001953125
 endloop
endfacet
facet normal -0.012314238585531712 0.17131607234477997 -0.9851391315460205
 outer loop
  vertex 410500.0 5479500.0 5583.2001953125
  vertex 411500.0 5479500.0 5570.7001953125
  vertex 411500.0 5478500.0 5396.7998046875
 endloop
endfacet
facet normal -0.06283068656921387 0.17099055647850037 -0.9832672476768494
 outer loop
  vertex 411500.0 5479500.0 5570.7001953125
  vertex 412500.0 5478500.0 5332.89990234375
  vertex 411500.0 5478500.0 5396.7998046875
 endloop
endfacet
facet normal -0.2570553421974182 -0.02733788453042507 -0.9660099148750305
 outer loop
  vertex 411500.0 5479500.0 5570.7001953125
  vertex 412500.0 5479500.0 5304.60009765625
  vertex 412500.0 5478500.0 5332.89990234375
 endloop
endfacet
facet normal 0.08861439675092697 -0.02817719429731369 -0.9956673979759216
 outer loop
  vertex 412500.0 5479500.0 5304.60009765625
  vertex 413500.0 5478500.0 5421.89990234375
  vertex 412500.0 5478500.0 5332.89990234375
 endloop
endfacet
facet normal -0.10096309334039688 -0.15881064534187317 -0.9821332097053528
 outer loop
  vertex 404500.0 5480500.0 5157.2001953125
  vertex 405500.0 5479500.0 5216.10009765625
  vertex 404500.0 5479500.0 5318.89990234375
 endloop
endfacet
facet normal 0.001197714009322226 -0.0576043426990509 -0.9983387589454651
 outer loop
  vertex 404500.0 5480500.0 5157.2001953125
  vertex 405500.0 5480500.0 5158.39990234375
  vertex 405500.0 5479500.0 5216.10009765625
 endloop
endfacet
facet normal 0.23603281378746033 -0.05597677826881409 -0.970131516456604
 outer loop
  vertex 405500.0 5480500.0 5158.39990234375
  vertex 406500.0 5479500.0 5459.39990234375
  vertex 405500.0 5479500.0 5216.10009765625
 endloop
endfacet
facet normal 0.344918429851532 0.06302766501903534 -0.9365141987800598
 outer loop
  vertex 405500.0 5480500.0 5158.39990234375
  vertex 406500.0 5480500.0 5526.7001953125
  vertex 406500.0 5479500.0 5459.39990234375
 endloop
endfacet
facet normal -0.30518579483032227 0.06394493579864502 -0.9501434564590454
 outer loop
  vertex 406500.0 5480500.0 5526.7001953125
  vertex 407500.0 5479500.0 5138.2001953125
  vertex 406500.0 5479500.0 5459.39990234375
 endloop
endfacet
facet normal -0.13775119185447693 0.2359657734632492 -0.9619484543800354
 outer loop
  vertex 406500.0 5480500.0 5526.7001953125
  vertex 407500.0 5480500.0 5383.5
  vertex 407500.0 5479500.0 5138.2001953125
 endloop
endfacet
facet normal 0.12108569592237473 0.23648399114608765 -0.9640610218048096
 outer loop
  vertex 407500.0 5480500.0 5383.5
  vertex 408500.0 5479500.0 5263.7998046875
  vertex 407500.0 5479500.0 5138.2001953125
 endloop
endfacet
facet normal -0.3225448727607727 -0.21269358694553375 -0.9223482012748718
 outer loop
  vertex 409500.0 5480500.0 5702.2998046875
  vertex 410500.0 5479500.0 5583.2001953125
  vertex 409500.0 5479500.0 5932.89990234375
 endloop
endfacet
facet normal -0.12364167720079422 -0.005457715597003698 -0.992311954498291
 outer loop
  vertex 409500.0 5480500.0 5702.2998046875
  vertex 410500.0 5480500.0 5577.7001953125
  vertex 410500.0 5479500.0 5583.2001953125
 endloop
endfacet
facet normal -0.012498834170401096 -0.005499487277120352 -0.9999067783355713
 outer loop
  vertex 410500.0 5480500.0 5577.7001953125
  vertex 411500.0 5479500.0 5570.7001953125
  vertex 410500.0 5479500.0 5583.2001953125
 endloop
endfacet
facet normal 0.35809171199798584 0.3641100525856018 -0.8597639799118042
 outer loop
  vertex 410500.0 5480500.0 5577.7001953125
  vertex 411500.0 5480500.0 5994.2001953125
  vertex 411500.0 5479500.0 5570.7001953125
 endloop
endfacet
facet normal -0.2379918098449707 0.37876543402671814 -0.89436936378479
 outer loop
  vertex 411500.0 5480500.0 5994.2001953125
  vertex 412500.0 5479500.0 5304.60009765625
  vertex 411500.0 5479500.0 5570.7001953125
 endloop
endfacet
facet normal -0.218648761510849 0.3962782323360443 -0.8917153477668762
 outer loop
  vertex 411500.0 5480500.0 5994.2001953125
  vertex 412500.0 5480500.0 5749.0
  vertex 412500.0 5479500.0 5304.60009765625
 endloop
endfacet
facet normal 0.0011936177033931017 0.10058678686618805 -0.9949275255203247
 outer loop
  vertex 404500.0 5481500.0 5258.2998046875
  vertex 405500.0 5480500.0 5158.39990234375
  vertex 404500.0 5480500.0 5157.2001953125
 endloop
endfacet
facet normal -0.17622987926006317 -0.07820434123277664 -0.9812375903129578
 outer loop
  vertex 404500.0 5481500.0 5258.2998046875
  vertex 405500.0 5481500.0 5078.7001953125
  vertex 405500.0 5480500.0 5158.39990234375
 endloop
endfacet
facet normal 0.34464311599731445 -0.07458031177520752 -0.9357665181159973
 outer loop
  vertex 405500.0 5481500.0 5078.7001953125
  vertex 406500.0 5480500.0 5526.7001953125
  vertex 405500.0 5480500.0 5158.39990234375
 endloop
endfacet
facet normal -0.12737084925174713 -0.508802056312561 -0.8514088988304138
 outer loop
  vertex 405500.0 5481500.0 5078.7001953125
  vertex 406500.0 5481500.0 4929.10009765625
  vertex 406500.0 5480500.0 5526.7001953125
 endloop
endfacet
facet normal -0.12200483679771423 -0.5091480016708374 -0.8519877791404724
 outer loop
  vertex 406500.0 5481500.0 4929.10009765625
  vertex 407500.0 5480500.0 5383.5
  vertex 406500.0 5480500.0 5526.7001953125
 endloop
endfacet
facet normal -0.12009990960359573 -0.23769408464431763 -0.9638867378234863
 outer loop
  vertex 409500.0 5481500.0 5455.7001953125
  vertex 410500.0 5480500.0 5577.7001953125
  vertex 409500.0 5480500.0 5702.2998046875
 endloop
endfacet
facet normal 0.051404163241386414 -0.07013373076915741 -0.9962123036384583
 outer loop
  vertex 409500.0 5481500.0 5455.7001953125
  vertex 410500.0 5481500.0 5507.2998046875
  vertex 410500.0 5480500.0 5577.7001953125
 endloop
endfacet
facet normal 0.38367488980293274 -0.06485200673341751 -0.9211881756782532
 outer loop
  vertex 410500.0 5481500.0 5507.2998046875
  vertex 411500.0 5480500.0 5994.2001953125
  vertex 410500.0 5480500.0 5577.7001953125
 endloop
endfacet
facet normal 0.05519183725118637 -0.3919443190097809 -0.9183319211006165
 outer loop
  vertex 410500.0 5481500.0 5507.2998046875
  vertex 411500.0 5481500.0 5567.39990234375
  vertex 411500.0 5480500.0 5994.2001953125
 endloop
endfacet
facet normal -0.2199939638376236 -0.3829258382320404 -0.8972014784812927
 outer loop
  vertex 411500.0 5481500.0 5567.39990234375
  vertex 412500.0 5480500.0 5749.0
  vertex 411500.0 5480500.0 5994.2001953125
 endloop
endfacet
facet normal 0.19721095263957977 0.019211478531360626 -0.9801728129386902
 outer loop
  vertex 411500.0 5481500.0 5567.39990234375
  vertex 412500.0 5481500.0 5768.60009765625
  vertex 412500.0 5480500.0 5749.0
 endloop
endfacet
facet normal -0.1471472829580307 -0.10426204651594162 -0.9836041927337646
 outer loop
  vertex 405500.0 5482500.0 4972.7001953125
  vertex 406500.0 5481500.0 4929.10009765625
  vertex 405500.0 5481500.0 5078.7001953125
 endloop
endfacet
endsolid
