solid
facet normal 0.023051010444760323 -0.06077137589454651 -0.997885525226593
 outer loop
  vertex 417500.0 5715500.0 3375.800048828125
  vertex 418500.0 5715500.0 3398.89990234375
  vertex 418500.0 5714500.0 3459.800048828125
 endloop
endfacet
facet normal 0.022495035082101822 0.22621773183345795 -0.973816990852356
 outer loop
  vertex 417500.0 5716500.0 3608.10009765625
  vertex 418500.0 5715500.0 3398.89990234375
  vertex 417500.0 5715500.0 3375.800048828125
 endloop
endfacet
facet normal -0.09030158817768097 0.11661078035831451 -0.9890639781951904
 outer loop
  vertex 417500.0 5716500.0 3608.10009765625
  vertex 418500.0 5716500.0 3516.800048828125
  vertex 418500.0 5715500.0 3398.89990234375
 endloop
endfacet
facet normal -0.005263276398181915 0.11708753556013107 -0.9931076765060425
 outer loop
  vertex 418500.0 5716500.0 3516.800048828125
  vertex 419500.0 5715500.0 3393.60009765625
  vertex 418500.0 5715500.0 3398.89990234375
 endloop
endfacet
facet normal -0.019093472510576248 0.10342323780059814 -0.9944542050361633
 outer loop
  vertex 418500.0 5716500.0 3516.800048828125
  vertex 419500.0 5716500.0 3497.60009765625
  vertex 419500.0 5715500.0 3393.60009765625
 endloop
endfacet
facet normal 0.10445874184370041 0.10287617892026901 -0.9891940355300903
 outer loop
  vertex 419500.0 5716500.0 3497.60009765625
  vertex 420500.0 5715500.0 3499.199951171875
  vertex 419500.0 5715500.0 3393.60009765625
 endloop
endfacet
facet normal -0.02118992805480957 -0.022789007052779198 -0.9995157122612
 outer loop
  vertex 419500.0 5716500.0 3497.60009765625
  vertex 420500.0 5716500.0 3476.39990234375
  vertex 420500.0 5715500.0 3499.199951171875
 endloop
endfacet
facet normal -0.019136060029268265 0.07923544198274612 -0.9966722130775452
 outer loop
  vertex 418500.0 5717500.0 3596.300048828125
  vertex 419500.0 5716500.0 3497.60009765625
  vertex 418500.0 5716500.0 3516.800048828125
 endloop
endfacet
facet normal -0.01614299602806568 0.08220995217561722 -0.9964842796325684
 outer loop
  vertex 418500.0 5717500.0 3596.300048828125
  vertex 419500.0 5717500.0 3580.10009765625
  vertex 419500.0 5716500.0 3497.60009765625
 endloop
endfacet
facet normal -0.021123699843883514 0.08220232278108597 -0.996391773223877
 outer loop
  vertex 419500.0 5717500.0 3580.10009765625
  vertex 420500.0 5716500.0 3476.39990234375
  vertex 419500.0 5716500.0 3497.60009765625
 endloop
endfacet
facet normal -0.13633565604686737 -0.0336630716919899 -0.9900906085968018
 outer loop
  vertex 419500.0 5717500.0 3580.10009765625
  vertex 420500.0 5717500.0 3442.39990234375
  vertex 420500.0 5716500.0 3476.39990234375
 endloop
endfacet
facet normal -0.07454858720302582 -0.033885810524225235 -0.9966415166854858
 outer loop
  vertex 420500.0 5717500.0 3442.39990234375
  vertex 421500.0 5716500.0 3401.60009765625
  vertex 420500.0 5716500.0 3476.39990234375
 endloop
endfacet
facet normal 0.052300482988357544 0.0928678885102272 -0.9943038821220398
 outer loop
  vertex 420500.0 5717500.0 3442.39990234375
  vertex 421500.0 5717500.0 3495.0
  vertex 421500.0 5716500.0 3401.60009765625
 endloop
endfacet
facet normal 0.04793591424822807 0.0928882583975792 -0.994521975517273
 outer loop
  vertex 421500.0 5717500.0 3495.0
  vertex 422500.0 5716500.0 3449.800048828125
  vertex 421500.0 5716500.0 3401.60009765625
 endloop
endfacet
facet normal -0.09249570965766907 -0.047540850937366486 -0.9945775270462036
 outer loop
  vertex 421500.0 5717500.0 3495.0
  vertex 422500.0 5717500.0 3402.0
  vertex 422500.0 5716500.0 3449.800048828125
 endloop
endfacet
facet normal -0.04808927699923515 -0.047690294682979584 -0.9977039098739624
 outer loop
  vertex 422500.0 5717500.0 3402.0
  vertex 423500.0 5716500.0 3401.60009765625
  vertex 422500.0 5716500.0 3449.800048828125
 endloop
endfacet
facet normal -0.016096027567982674 -0.015696227550506592 -0.9997472763061523
 outer loop
  vertex 422500.0 5717500.0 3402.0
  vertex 423500.0 5717500.0 3385.89990234375
  vertex 423500.0 5716500.0 3401.60009765625
 endloop
endfacet
facet normal 0.13774149119853973 -0.021587124094367027 -0.9902329444885254
 outer loop
  vertex 417500.0 5718500.0 3435.39990234375
  vertex 418500.0 5718500.0 3574.5
  vertex 418500.0 5717500.0 3596.300048828125
 endloop
endfacet
facet normal -0.01619398035109043 -0.021792013198137283 -0.999631404876709
 outer loop
  vertex 418500.0 5718500.0 3574.5
  vertex 419500.0 5717500.0 3580.10009765625
  vertex 418500.0 5717500.0 3596.300048828125
 endloop
endfacet
facet normal -0.006199400406330824 -0.011799001134932041 -0.9999111890792847
 outer loop
  vertex 418500.0 5718500.0 3574.5
  vertex 419500.0 5718500.0 3568.300048828125
  vertex 419500.0 5717500.0 3580.10009765625
 endloop
endfacet
facet normal -0.1364036649465561 -0.011688943952322006 -0.9905843734741211
 outer loop
  vertex 419500.0 5718500.0 3568.300048828125
  vertex 420500.0 5717500.0 3442.39990234375
  vertex 419500.0 5717500.0 3580.10009765625
 endloop
endfacet
facet normal 0.0007937033078633249 0.12569528818130493 -0.9920685887336731
 outer loop
  vertex 419500.0 5718500.0 3568.300048828125
  vertex 420500.0 5718500.0 3569.10009765625
  vertex 420500.0 5717500.0 3442.39990234375
 endloop
endfacet
facet normal 0.052112020552158356 0.12552453577518463 -0.9907209277153015
 outer loop
  vertex 420500.0 5718500.0 3569.10009765625
  vertex 421500.0 5717500.0 3495.0
  vertex 420500.0 5717500.0 3442.39990234375
 endloop
endfacet
facet normal 0.0325966514647007 0.10623779147863388 -0.9938063025474548
 outer loop
  vertex 420500.0 5718500.0 3569.10009765625
  vertex 421500.0 5718500.0 3601.89990234375
  vertex 421500.0 5717500.0 3495.0
 endloop
endfacet
facet normal -0.0920802652835846 0.1058427095413208 -0.9901103973388672
 outer loop
  vertex 421500.0 5718500.0 3601.89990234375
  vertex 422500.0 5717500.0 3402.0
  vertex 421500.0 5717500.0 3495.0
 endloop
endfacet
facet normal -0.16086678206920624 0.03629620000720024 -0.9863085150718689
 outer loop
  vertex 421500.0 5718500.0 3601.89990234375
  vertex 422500.0 5718500.0 3438.800048828125
  vertex 422500.0 5717500.0 3402.0
 endloop
endfacet
facet normal -0.016087129712104797 0.03677039593458176 -0.9991942644119263
 outer loop
  vertex 422500.0 5718500.0 3438.800048828125
  vertex 423500.0 5717500.0 3385.89990234375
  vertex 422500.0 5717500.0 3402.0
 endloop
endfacet
facet normal -0.05362267792224884 -0.0007986537530086935 -0.9985609650611877
 outer loop
  vertex 422500.0 5718500.0 3438.800048828125
  vertex 423500.0 5718500.0 3385.10009765625
  vertex 423500.0 5717500.0 3385.89990234375
 endloop
endfacet
facet normal 0.040764015167951584 -0.010190945118665695 -0.999116837978363
 outer loop
  vertex 408500.0 5719500.0 3312.300048828125
  vertex 409500.0 5719500.0 3353.10009765625
  vertex 409500.0 5718500.0 3363.300048828125
 endloop
endfacet
facet normal 0.03018462099134922 -0.01019477378576994 -0.9994924068450928
 outer loop
  vertex 409500.0 5719500.0 3353.10009765625
  vertex 410500.0 5718500.0 3393.5
  vertex 409500.0 5718500.0 3363.300048828125
 endloop
endfacet
facet normal -0.02941546030342579 -0.06969959288835526 -0.9971342086791992
 outer loop
  vertex 409500.0 5719500.0 3353.10009765625
  vertex 410500.0 5719500.0 3323.60009765625
  vertex 410500.0 5718500.0 3393.5
 endloop
endfacet
facet normal 0.032453492283821106 -0.08899787068367004 -0.9955029487609863
 outer loop
  vertex 416500.0 5719500.0 3313.39990234375
  vertex 417500.0 5719500.0 3346.0
  vertex 417500.0 5718500.0 3435.39990234375
 endloop
endfacet
facet normal 0.13723663985729218 -0.08820226043462753 -0.9866034984588623
 outer loop
  vertex 417500.0 5719500.0 3346.0
  vertex 418500.0 5718500.0 3574.5
  vertex 417500.0 5718500.0 3435.39990234375
 endloop
endfacet
facet normal 0.07422631978988647 -0.15101543068885803 -0.9857407212257385
 outer loop
  vertex 417500.0 5719500.0 3346.0
  vertex 418500.0 5719500.0 3421.300048828125
  vertex 418500.0 5718500.0 3574.5
 endloop
endfacet
facet normal -0.006128336768597364 -0.15143032371997833 -0.9884489178657532
 outer loop
  vertex 418500.0 5719500.0 3421.300048828125
  vertex 419500.0 5718500.0 3568.300048828125
  vertex 418500.0 5718500.0 3574.5
 endloop
endfacet
facet normal 0.176112100481987 0.0314837284386158 -0.9838665127754211
 outer loop
  vertex 418500.0 5719500.0 3421.300048828125
  vertex 419500.0 5719500.0 3600.300048828125
  vertex 419500.0 5718500.0 3568.300048828125
 endloop
endfacet
facet normal 0.0007996392669156194 0.031983617693185806 -0.9994880557060242
 outer loop
  vertex 419500.0 5719500.0 3600.300048828125
  vertex 420500.0 5718500.0 3569.10009765625
  vertex 419500.0 5718500.0 3568.300048828125
 endloop
endfacet
facet normal 0.012986225076019764 0.0441531166434288 -0.9989403486251831
 outer loop
  vertex 419500.0 5719500.0 3600.300048828125
  vertex 420500.0 5719500.0 3613.300048828125
  vertex 420500.0 5718500.0 3569.10009765625
 endloop
endfacet
facet normal 0.03275023400783539 0.044133156538009644 -0.99848872423172
 outer loop
  vertex 420500.0 5719500.0 3613.300048828125
  vertex 421500.0 5718500.0 3601.89990234375
  vertex 420500.0 5718500.0 3569.10009765625
 endloop
endfacet
facet normal 0.005799093283712864 0.01719736121594906 -0.9998352527618408
 outer loop
  vertex 420500.0 5719500.0 3613.300048828125
  vertex 421500.0 5719500.0 3619.10009765625
  vertex 421500.0 5718500.0 3601.89990234375
 endloop
endfacet
facet normal -0.16094964742660522 0.01697343960404396 -0.9868167042732239
 outer loop
  vertex 421500.0 5719500.0 3619.10009765625
  vertex 422500.0 5718500.0 3438.800048828125
  vertex 421500.0 5718500.0 3601.89990234375
 endloop
endfacet
facet normal -0.012524512596428394 0.16528141498565674 -0.9861668944358826
 outer loop
  vertex 421500.0 5719500.0 3619.10009765625
  vertex 422500.0 5719500.0 3606.39990234375
  vertex 422500.0 5718500.0 3438.800048828125
 endloop
endfacet
facet normal -0.05288714915513992 0.1650630682706833 -0.9848639965057373
 outer loop
  vertex 422500.0 5719500.0 3606.39990234375
  vertex 423500.0 5718500.0 3385.10009765625
  vertex 422500.0 5718500.0 3438.800048828125
 endloop
endfacet
facet normal -0.23086006939411163 -0.015565798617899418 -0.9728624224662781
 outer loop
  vertex 422500.0 5719500.0 3606.39990234375
  vertex 423500.0 5719500.0 3369.10009765625
  vertex 423500.0 5718500.0 3385.10009765625
 endloop
endfacet
facet normal 0.0405154749751091 -0.11072231084108353 -0.9930251836776733
 outer loop
  vertex 408500.0 5720500.0 3200.800048828125
  vertex 409500.0 5719500.0 3353.10009765625
  vertex 408500.0 5719500.0 3312.300048828125
 endloop
endfacet
facet normal 0.07417081296443939 -0.0772533267736435 -0.9942487478256226
 outer loop
  vertex 408500.0 5720500.0 3200.800048828125
  vertex 409500.0 5720500.0 3275.39990234375
  vertex 409500.0 5719500.0 3353.10009765625
 endloop
endfacet
facet normal -0.029398638755083084 -0.07743322104215622 -0.9965640306472778
 outer loop
  vertex 409500.0 5720500.0 3275.39990234375
  vertex 410500.0 5719500.0 3323.60009765625
  vertex 409500.0 5719500.0 3353.10009765625
 endloop
endfacet
facet normal 0.03337788209319115 -0.014790180139243603 -0.9993333220481873
 outer loop
  vertex 409500.0 5720500.0 3275.39990234375
  vertex 410500.0 5720500.0 3308.800048828125
  vertex 410500.0 5719500.0 3323.60009765625
 endloop
endfacet
facet normal 0.045352909713983536 0.003496377030387521 -0.9989649057388306
 outer loop
  vertex 412500.0 5720500.0 3303.5
  vertex 413500.0 5720500.0 3348.89990234375
  vertex 413500.0 5719500.0 3345.39990234375
 endloop
endfacet
facet normal 0.014498387463390827 0.0034996105823665857 -0.9998887777328491
 outer loop
  vertex 413500.0 5720500.0 3348.89990234375
  vertex 414500.0 5719500.0 3359.89990234375
  vertex 413500.0 5719500.0 3345.39990234375
 endloop
endfacet
facet normal 0.020095206797122955 0.009097883477807045 -0.9997566938400269
 outer loop
  vertex 413500.0 5720500.0 3348.89990234375
  vertex 414500.0 5720500.0 3369.0
  vertex 414500.0 5719500.0 3359.89990234375
 endloop
endfacet
facet normal 0.010299076326191425 0.00909923855215311 -0.9999055862426758
 outer loop
  vertex 414500.0 5720500.0 3369.0
  vertex 415500.0 5719500.0 3370.199951171875
  vertex 414500.0 5719500.0 3359.89990234375
 endloop
endfacet
facet normal -0.009299133904278278 -0.01049896702170372 -0.9999016523361206
 outer loop
  vertex 414500.0 5720500.0 3369.0
  vertex 415500.0 5720500.0 3359.699951171875
  vertex 415500.0 5719500.0 3370.199951171875
 endloop
endfacet
facet normal -0.0567055270075798 -0.010482527315616608 -0.9983358979225159
 outer loop
  vertex 415500.0 5720500.0 3359.699951171875
  vertex 416500.0 5719500.0 3313.39990234375
  vertex 415500.0 5719500.0 3370.199951171875
 endloop
endfacet
facet normal -0.045652296394109726 0.0005994679522700608 -0.9989572167396545
 outer loop
  vertex 415500.0 5720500.0 3359.699951171875
  vertex 416500.0 5720500.0 3314.0
  vertex 416500.0 5719500.0 3313.39990234375
 endloop
endfacet
facet normal 0.032582782208919525 0.0005997788975946605 -0.9994688630104065
 outer loop
  vertex 416500.0 5720500.0 3314.0
  vertex 417500.0 5719500.0 3346.0
  vertex 416500.0 5719500.0 3313.39990234375
 endloop
endfacet
facet normal 0.009697084315121174 -0.0222934577614069 -0.9997044801712036
 outer loop
  vertex 416500.0 5720500.0 3314.0
  vertex 417500.0 5720500.0 3323.699951171875
  vertex 417500.0 5719500.0 3346.0
 endloop
endfacet
facet normal 0.07506891340017319 -0.02223159931600094 -0.9969305396080017
 outer loop
  vertex 417500.0 5720500.0 3323.699951171875
  vertex 418500.0 5719500.0 3421.300048828125
  vertex 417500.0 5719500.0 3346.0
 endloop
endfacet
facet normal 0.07705435156822205 -0.020235523581504822 -0.9968215227127075
 outer loop
  vertex 417500.0 5720500.0 3323.699951171875
  vertex 418500.0 5720500.0 3401.0
  vertex 418500.0 5719500.0 3421.300048828125
 endloop
endfacet
facet normal 0.17616428434848785 -0.01997845619916916 -0.9841579794883728
 outer loop
  vertex 418500.0 5720500.0 3401.0
  vertex 419500.0 5719500.0 3600.300048828125
  vertex 418500.0 5719500.0 3421.300048828125
 endloop
endfacet
facet normal 0.07283149659633636 -0.12438728660345078 -0.989557147026062
 outer loop
  vertex 418500.0 5720500.0 3401.0
  vertex 419500.0 5720500.0 3474.60009765625
  vertex 419500.0 5719500.0 3600.300048828125
 endloop
endfacet
facet normal 0.012897425331175327 -0.1247081309556961 -0.9921096563339233
 outer loop
  vertex 419500.0 5720500.0 3474.60009765625
  vertex 420500.0 5719500.0 3613.300048828125
  vertex 419500.0 5719500.0 3600.300048828125
 endloop
endfacet
facet normal 0.10771972686052322 -0.030109921470284462 -0.9937252402305603
 outer loop
  vertex 419500.0 5720500.0 3474.60009765625
  vertex 420500.0 5720500.0 3583.0
  vertex 420500.0 5719500.0 3613.300048828125
 endloop
endfacet
facet normal 0.005797290708869696 -0.030285639688372612 -0.9995244741439819
 outer loop
  vertex 420500.0 5720500.0 3583.0
  vertex 421500.0 5719500.0 3619.10009765625
  vertex 420500.0 5719500.0 3613.300048828125
 endloop
endfacet
facet normal 0.003198204329237342 -0.03288218751549721 -0.9994540810585022
 outer loop
  vertex 420500.0 5720500.0 3583.0
  vertex 421500.0 5720500.0 3586.199951171875
  vertex 421500.0 5719500.0 3619.10009765625
 endloop
endfacet
facet normal -0.012692306190729141 -0.03287970647215843 -0.9993786811828613
 outer loop
  vertex 421500.0 5720500.0 3586.199951171875
  vertex 422500.0 5719500.0 3606.39990234375
  vertex 421500.0 5719500.0 3619.10009765625
 endloop
endfacet
facet normal -0.15157394111156464 -0.17123860120773315 -0.9735002517700195
 outer loop
  vertex 421500.0 5720500.0 3586.199951171875
  vertex 422500.0 5720500.0 3430.5
  vertex 422500.0 5719500.0 3606.39990234375
 endloop
endfacet
facet normal -0.2275790572166443 -0.16869433224201202 -0.9590359926223755
 outer loop
  vertex 422500.0 5720500.0 3430.5
  vertex 423500.0 5719500.0 3369.10009765625
  vertex 422500.0 5719500.0 3606.39990234375
 endloop
endfacet
facet normal -0.03536580502986908 0.025974957272410393 -0.9990367889404297
 outer loop
  vertex 422500.0 5720500.0 3430.5
  vertex 423500.0 5720500.0 3395.10009765625
  vertex 423500.0 5719500.0 3369.10009765625
 endloop
endfacet
facet normal -0.0100961709395051 0.025989891961216927 -0.9996111989021301
 outer loop
  vertex 423500.0 5720500.0 3395.10009765625
  vertex 424500.0 5719500.0 3359.0
  vertex 423500.0 5719500.0 3369.10009765625
 endloop
endfacet
facet normal -0.09117740392684937 -0.05528311803936958 -0.9942989349365234
 outer loop
  vertex 423500.0 5720500.0 3395.10009765625
  vertex 424500.0 5720500.0 3303.39990234375
  vertex 424500.0 5719500.0 3359.0
 endloop
endfacet
facet normal 0.07436618208885193 0.026915429159998894 -0.9968677163124084
 outer loop
  vertex 408500.0 5721500.0 3227.800048828125
  vertex 409500.0 5720500.0 3275.39990234375
  vertex 408500.0 5720500.0 3200.800048828125
 endloop
endfacet
facet normal 0.007393728010356426 -0.04016640782356262 -0.9991656541824341
 outer loop
  vertex 408500.0 5721500.0 3227.800048828125
  vertex 409500.0 5721500.0 3235.199951171875
  vertex 409500.0 5720500.0 3275.39990234375
 endloop
endfacet
facet normal 0.033354613929986954 -0.040145158767700195 -0.9986369609832764
 outer loop
  vertex 409500.0 5721500.0 3235.199951171875
  vertex 410500.0 5720500.0 3308.800048828125
  vertex 409500.0 5720500.0 3275.39990234375
 endloop
endfacet
facet normal -0.01185581088066101 -0.08518320322036743 -0.9962947964668274
 outer loop
  vertex 409500.0 5721500.0 3235.199951171875
  vertex 410500.0 5721500.0 3223.300048828125
  vertex 410500.0 5720500.0 3308.800048828125
 endloop
endfacet
facet normal -0.046579308807849884 -0.08509672433137894 -0.9952833652496338
 outer loop
  vertex 410500.0 5721500.0 3223.300048828125
  vertex 411500.0 5720500.0 3262.0
  vertex 410500.0 5720500.0 3308.800048828125
 endloop
endfacet
facet normal 0.00599668687209487 -0.0326818972826004 -0.9994478225708008
 outer loop
  vertex 410500.0 5721500.0 3223.300048828125
  vertex 411500.0 5721500.0 3229.300048828125
  vertex 411500.0 5720500.0 3262.0
 endloop
endfacet
facet normal 0.04144219681620598 -0.032654404640197754 -0.9986072182655334
 outer loop
  vertex 411500.0 5721500.0 3229.300048828125
  vertex 412500.0 5720500.0 3303.5
  vertex 411500.0 5720500.0 3262.0
 endloop
endfacet
facet normal 0.12639638781547546 0.05289625748991966 -0.9905684590339661
 outer loop
  vertex 411500.0 5721500.0 3229.300048828125
  vertex 412500.0 5721500.0 3356.89990234375
  vertex 412500.0 5720500.0 3303.5
 endloop
endfacet
facet normal 0.04528879374265671 0.05326921492815018 -0.9975526928901672
 outer loop
  vertex 412500.0 5721500.0 3356.89990234375
  vertex 413500.0 5720500.0 3348.89990234375
  vertex 412500.0 5720500.0 3303.5
 endloop
endfacet
facet normal -0.11774293333292007 -0.10984733700752258 -0.9869499206542969
 outer loop
  vertex 412500.0 5721500.0 3356.89990234375
  vertex 413500.0 5721500.0 3237.60009765625
  vertex 413500.0 5720500.0 3348.89990234375
 endloop
endfacet
facet normal 0.01997276581823826 -0.11059470474720001 -0.9936648607254028
 outer loop
  vertex 413500.0 5721500.0 3237.60009765625
  vertex 414500.0 5720500.0 3369.0
  vertex 413500.0 5720500.0 3348.89990234375
 endloop
endfacet
facet normal 0.0755665972828865 -0.05525627359747887 -0.9956085681915283
 outer loop
  vertex 413500.0 5721500.0 3237.60009765625
  vertex 414500.0 5721500.0 3313.5
  vertex 414500.0 5720500.0 3369.0
 endloop
endfacet
facet normal -0.009285355918109417 -0.055412329733371735 -0.9984203577041626
 outer loop
  vertex 414500.0 5721500.0 3313.5
  vertex 415500.0 5720500.0 3359.699951171875
  vertex 414500.0 5720500.0 3369.0
 endloop
endfacet
facet normal 0.0022978296037763357 -0.043857552111148834 -0.9990351796150208
 outer loop
  vertex 414500.0 5721500.0 3313.5
  vertex 415500.0 5721500.0 3315.800048828125
  vertex 415500.0 5720500.0 3359.699951171875
 endloop
endfacet
facet normal -0.04560846835374832 -0.04381202161312103 -0.9979981184005737
 outer loop
  vertex 415500.0 5721500.0 3315.800048828125
  vertex 416500.0 5720500.0 3314.0
  vertex 415500.0 5720500.0 3359.699951171875
 endloop
endfacet
facet normal 0.010398565791547298 0.012198383919894695 -0.9998714923858643
 outer loop
  vertex 415500.0 5721500.0 3315.800048828125
  vertex 416500.0 5721500.0 3326.199951171875
  vertex 416500.0 5720500.0 3314.0
 endloop
endfacet
facet normal 0.009698773734271526 0.01219846960157156 -0.9998785853385925
 outer loop
  vertex 416500.0 5721500.0 3326.199951171875
  vertex 417500.0 5720500.0 3323.699951171875
  vertex 416500.0 5720500.0 3314.0
 endloop
endfacet
facet normal 0.062247440218925476 0.06473733484745026 -0.9959590435028076
 outer loop
  vertex 416500.0 5721500.0 3326.199951171875
  vertex 417500.0 5721500.0 3388.699951171875
  vertex 417500.0 5720500.0 3323.699951171875
 endloop
endfacet
facet normal 0.07690879702568054 0.06467100977897644 -0.9949385523796082
 outer loop
  vertex 417500.0 5721500.0 3388.699951171875
  vertex 418500.0 5720500.0 3401.0
  vertex 417500.0 5720500.0 3323.699951171875
 endloop
endfacet
facet normal -0.011296182870864868 -0.02359202317893505 -0.9996578693389893
 outer loop
  vertex 417500.0 5721500.0 3388.699951171875
  vertex 418500.0 5721500.0 3377.39990234375
  vertex 418500.0 5720500.0 3401.0
 endloop
endfacet
facet normal 0.07338123768568039 -0.023529918864369392 -0.9970263838768005
 outer loop
  vertex 418500.0 5721500.0 3377.39990234375
  vertex 419500.0 5720500.0 3474.60009765625
  vertex 418500.0 5720500.0 3401.0
 endloop
endfacet
facet normal 0.019338082522153854 -0.07755114883184433 -0.9968008399009705
 outer loop
  vertex 418500.0 5721500.0 3377.39990234375
  vertex 419500.0 5721500.0 3396.800048828125
  vertex 419500.0 5720500.0 3474.60009765625
 endloop
endfacet
facet normal 0.10744766145944595 -0.07711660861968994 -0.9912154078483582
 outer loop
  vertex 419500.0 5721500.0 3396.800048828125
  vertex 420500.0 5720500.0 3583.0
  vertex 419500.0 5720500.0 3474.60009765625
 endloop
endfacet
facet normal -0.02007157728075981 -0.2023801952600479 -0.979101300239563
 outer loop
  vertex 419500.0 5721500.0 3396.800048828125
  vertex 420500.0 5721500.0 3376.300048828125
  vertex 420500.0 5720500.0 3583.0
 endloop
endfacet
facet normal 0.0031336944084614515 -0.20241998136043549 -0.9792938232421875
 outer loop
  vertex 420500.0 5721500.0 3376.300048828125
  vertex 421500.0 5720500.0 3586.199951171875
  vertex 420500.0 5720500.0 3583.0
 endloop
endfacet
facet normal -0.008596540428698063 -0.21364232897758484 -0.9768741726875305
 outer loop
  vertex 420500.0 5721500.0 3376.300048828125
  vertex 421500.0 5721500.0 3367.5
  vertex 421500.0 5720500.0 3586.199951171875
 endloop
endfacet
facet normal -0.15037529170513153 -0.21122080087661743 -0.9658017158508301
 outer loop
  vertex 421500.0 5721500.0 3367.5
  vertex 422500.0 5720500.0 3430.5
  vertex 421500.0 5720500.0 3586.199951171875
 endloop
endfacet
facet normal -0.02837001532316208 -0.09108268469572067 -0.9954391717910767
 outer loop
  vertex 421500.0 5721500.0 3367.5
  vertex 422500.0 5721500.0 3339.0
  vertex 422500.0 5720500.0 3430.5
 endloop
endfacet
facet normal -0.03523075208067894 -0.09106279164552689 -0.995221734046936
 outer loop
  vertex 422500.0 5721500.0 3339.0
  vertex 423500.0 5720500.0 3395.10009765625
  vertex 422500.0 5720500.0 3430.5
 endloop
endfacet
facet normal -0.017649196088314056 -0.07358842343091965 -0.9971324801445007
 outer loop
  vertex 422500.0 5721500.0 3339.0
  vertex 423500.0 5721500.0 3321.300048828125
  vertex 423500.0 5720500.0 3395.10009765625
 endloop
endfacet
facet normal -0.09107144922018051 -0.07329403609037399 -0.9931434392929077
 outer loop
  vertex 423500.0 5721500.0 3321.300048828125
  vertex 424500.0 5720500.0 3303.39990234375
  vertex 423500.0 5720500.0 3395.10009765625
 endloop
endfacet
facet normal -0.03906147927045822 -0.021179012954235077 -0.9990123510360718
 outer loop
  vertex 423500.0 5721500.0 3321.300048828125
  vertex 424500.0 5721500.0 3282.199951171875
  vertex 424500.0 5720500.0 3303.39990234375
 endloop
endfacet
facet normal 0.0026995788794010878 -0.02119511179625988 -0.9997717142105103
 outer loop
  vertex 424500.0 5721500.0 3282.199951171875
  vertex 425500.0 5720500.0 3306.10009765625
  vertex 424500.0 5720500.0 3303.39990234375
 endloop
endfacet
facet normal 0.031183946877717972 0.007296060211956501 -0.999487042427063
 outer loop
  vertex 424500.0 5721500.0 3282.199951171875
  vertex 425500.0 5721500.0 3313.39990234375
  vertex 425500.0 5720500.0 3306.10009765625
 endloop
endfacet
facet normal 0.007399699650704861 -0.000199945701751858 -0.9999726414680481
 outer loop
  vertex 408500.0 5722500.0 3227.60009765625
  vertex 409500.0 5721500.0 3235.199951171875
  vertex 408500.0 5721500.0 3227.800048828125
 endloop
endfacet
facet normal -0.029766034334897995 -0.037357211112976074 -0.9988585710525513
 outer loop
  vertex 408500.0 5722500.0 3227.60009765625
  vertex 409500.0 5722500.0 3197.800048828125
  vertex 409500.0 5721500.0 3235.199951171875
 endloop
endfacet
facet normal -0.011890747584402561 -0.037371132522821426 -0.9992307424545288
 outer loop
  vertex 409500.0 5722500.0 3197.800048828125
  vertex 410500.0 5721500.0 3223.300048828125
  vertex 409500.0 5721500.0 3235.199951171875
 endloop
endfacet
facet normal 0.021694688126444817 -0.003799126949161291 -0.9997574090957642
 outer loop
  vertex 409500.0 5722500.0 3197.800048828125
  vertex 410500.0 5722500.0 3219.5
  vertex 410500.0 5721500.0 3223.300048828125
 endloop
endfacet
facet normal 0.005999848712235689 -0.0037999527994543314 -0.9999747276306152
 outer loop
  vertex 410500.0 5722500.0 3219.5
  vertex 411500.0 5721500.0 3229.300048828125
  vertex 410500.0 5721500.0 3223.300048828125
 endloop
endfacet
facet normal -0.029265137389302254 -0.03905351087450981 -0.9988085031509399
 outer loop
  vertex 410500.0 5722500.0 3219.5
  vertex 411500.0 5722500.0 3190.199951171875
  vertex 411500.0 5721500.0 3229.300048828125
 endloop
endfacet
facet normal 0.12647850811481476 -0.038756486028432846 -0.9912119507789612
 outer loop
  vertex 411500.0 5722500.0 3190.199951171875
  vertex 412500.0 5721500.0 3356.89990234375
  vertex 411500.0 5721500.0 3229.300048828125
 endloop
endfacet
facet normal -0.047361310571432114 -0.2101474553346634 -0.9765218496322632
 outer loop
  vertex 411500.0 5722500.0 3190.199951171875
  vertex 412500.0 5722500.0 3141.699951171875
  vertex 412500.0 5721500.0 3356.89990234375
 endloop
endfacet
facet normal -0.11584451794624329 -0.20896710455417633 -0.971036970615387
 outer loop
  vertex 412500.0 5722500.0 3141.699951171875
  vertex 413500.0 5721500.0 3237.60009765625
  vertex 412500.0 5721500.0 3356.89990234375
 endloop
endfacet
facet normal 0.07358201593160629 -0.022034810855984688 -0.9970456957817078
 outer loop
  vertex 412500.0 5722500.0 3141.699951171875
  vertex 413500.0 5722500.0 3215.5
  vertex 413500.0 5721500.0 3237.60009765625
 endloop
endfacet
facet normal 0.07566385716199875 -0.02203136496245861 -0.9968899488449097
 outer loop
  vertex 413500.0 5722500.0 3215.5
  vertex 414500.0 5721500.0 3313.5
  vertex 413500.0 5721500.0 3237.60009765625
 endloop
endfacet
facet normal -0.028559621423482895 -0.12574149668216705 -0.9916518330574036
 outer loop
  vertex 413500.0 5722500.0 3215.5
  vertex 414500.0 5722500.0 3186.699951171875
  vertex 414500.0 5721500.0 3313.5
 endloop
endfacet
facet normal 0.0022817705757915974 -0.1257924884557724 -0.9920539855957031
 outer loop
  vertex 414500.0 5722500.0 3186.699951171875
  vertex 415500.0 5721500.0 3315.800048828125
  vertex 414500.0 5721500.0 3313.5
 endloop
endfacet
facet normal 0.09511333703994751 -0.03332943096756935 -0.9949083924293518
 outer loop
  vertex 414500.0 5722500.0 3186.699951171875
  vertex 415500.0 5722500.0 3282.300048828125
  vertex 415500.0 5721500.0 3315.800048828125
 endloop
endfacet
facet normal 0.010393510572612286 -0.03347941115498543 -0.9993853569030762
 outer loop
  vertex 415500.0 5722500.0 3282.300048828125
  vertex 416500.0 5721500.0 3326.199951171875
  vertex 415500.0 5721500.0 3315.800048828125
 endloop
endfacet
facet normal 0.06891369819641113 0.025132061913609505 -0.9973060488700867
 outer loop
  vertex 415500.0 5722500.0 3282.300048828125
  vertex 416500.0 5722500.0 3351.39990234375
  vertex 416500.0 5721500.0 3326.199951171875
 endloop
endfacet
facet normal 0.062358565628528595 0.02514292486011982 -0.9977370500564575
 outer loop
  vertex 416500.0 5722500.0 3351.39990234375
  vertex 417500.0 5721500.0 3388.699951171875
  vertex 416500.0 5721500.0 3326.199951171875
 endloop
endfacet
facet normal 0.028787072747945786 -0.008496168069541454 -0.9995494484901428
 outer loop
  vertex 416500.0 5722500.0 3351.39990234375
  vertex 417500.0 5722500.0 3380.199951171875
  vertex 417500.0 5721500.0 3388.699951171875
 endloop
endfacet
facet normal -0.011298920027911663 -0.008499150164425373 -0.9999000430107117
 outer loop
  vertex 417500.0 5722500.0 3380.199951171875
  vertex 418500.0 5721500.0 3377.39990234375
  vertex 417500.0 5721500.0 3388.699951171875
 endloop
endfacet
facet normal 0.03316021338105202 0.035956911742687225 -0.9988030791282654
 outer loop
  vertex 417500.0 5722500.0 3380.199951171875
  vertex 418500.0 5722500.0 3413.39990234375
  vertex 418500.0 5721500.0 3377.39990234375
 endloop
endfacet
facet normal 0.01938394457101822 0.03596993535757065 -0.999164879322052
 outer loop
  vertex 418500.0 5722500.0 3413.39990234375
  vertex 419500.0 5721500.0 3396.800048828125
  vertex 418500.0 5721500.0 3377.39990234375
 endloop
endfacet
facet normal -0.04762280732393265 -0.031049801036715508 -0.9983826875686646
 outer loop
  vertex 418500.0 5722500.0 3413.39990234375
  vertex 419500.0 5722500.0 3365.699951171875
  vertex 419500.0 5721500.0 3396.800048828125
 endloop
endfacet
facet normal -0.02048579230904579 -0.03107854537665844 -0.9993069767951965
 outer loop
  vertex 419500.0 5722500.0 3365.699951171875
  vertex 420500.0 5721500.0 3376.300048828125
  vertex 419500.0 5721500.0 3396.800048828125
 endloop
endfacet
facet normal -0.024377724155783653 -0.03496818616986275 -0.9990910887718201
 outer loop
  vertex 419500.0 5722500.0 3365.699951171875
  vertex 420500.0 5722500.0 3341.300048828125
  vertex 420500.0 5721500.0 3376.300048828125
 endloop
endfacet
facet normal -0.008794323541224003 -0.03497723117470741 -0.9993494153022766
 outer loop
  vertex 420500.0 5722500.0 3341.300048828125
  vertex 421500.0 5721500.0 3367.5
  vertex 420500.0 5721500.0 3376.300048828125
 endloop
endfacet
facet normal -0.009593510068953037 -0.035775478929281235 -0.9993137717247009
 outer loop
  vertex 420500.0 5722500.0 3341.300048828125
  vertex 421500.0 5722500.0 3331.699951171875
  vertex 421500.0 5721500.0 3367.5
 endloop
endfacet
facet normal -0.028470207005739212 -0.03576262667775154 -0.998954713344574
 outer loop
  vertex 421500.0 5722500.0 3331.699951171875
  vertex 422500.0 5721500.0 3339.0
  vertex 421500.0 5721500.0 3367.5
 endloop
endfacet
facet normal -0.009098253212869167 -0.01639701798558235 -0.9998241662979126
 outer loop
  vertex 421500.0 5722500.0 3331.699951171875
  vertex 422500.0 5722500.0 3322.60009765625
  vertex 422500.0 5721500.0 3339.0
 endloop
endfacet
facet normal -0.017694801092147827 -0.01639513112604618 -0.9997090101242065
 outer loop
  vertex 422500.0 5722500.0 3322.60009765625
  vertex 423500.0 5721500.0 3321.300048828125
  vertex 422500.0 5721500.0 3339.0
 endloop
endfacet
facet normal -0.022788861766457558 -0.021489450708031654 -0.9995092749595642
 outer loop
  vertex 422500.0 5722500.0 3322.60009765625
  vertex 423500.0 5722500.0 3299.800048828125
  vertex 423500.0 5721500.0 3321.300048828125
 endloop
endfacet
facet normal -0.03906123340129852 -0.021478628739714622 -0.9990059733390808
 outer loop
  vertex 423500.0 5722500.0 3299.800048828125
  vertex 424500.0 5721500.0 3282.199951171875
  vertex 423500.0 5721500.0 3321.300048828125
 endloop
endfacet
facet normal 0.014191348105669022 0.03178078308701515 -0.9993941187858582
 outer loop
  vertex 423500.0 5722500.0 3299.800048828125
  vertex 424500.0 5722500.0 3314.0
  vertex 424500.0 5721500.0 3282.199951171875
 endloop
endfacet
facet normal 0.03116903454065323 0.03176853805780411 -0.9990091323852539
 outer loop
  vertex 424500.0 5722500.0 3314.0
  vertex 425500.0 5721500.0 3313.39990234375
  vertex 424500.0 5721500.0 3282.199951171875
 endloop
endfacet
facet normal 0.018992925062775612 0.019592799246311188 -0.9996276497840881
 outer loop
  vertex 424500.0 5722500.0 3314.0
  vertex 425500.0 5722500.0 3333.0
  vertex 425500.0 5721500.0 3313.39990234375
 endloop
endfacet
facet normal 0.02169092372059822 0.019591722637414932 -0.99957275390625
 outer loop
  vertex 425500.0 5722500.0 3333.0
  vertex 426500.0 5721500.0 3335.10009765625
  vertex 425500.0 5721500.0 3313.39990234375
 endloop
endfacet
facet normal -0.0037999553605914116 -0.005900001153349876 -0.9999753832817078
 outer loop
  vertex 425500.0 5722500.0 3333.0
  vertex 426500.0 5722500.0 3329.199951171875
  vertex 426500.0 5721500.0 3335.10009765625
 endloop
endfacet
facet normal -0.029781898483633995 0.01818886585533619 -0.9993909597396851
 outer loop
  vertex 408500.0 5723500.0 3245.800048828125
  vertex 409500.0 5722500.0 3197.800048828125
  vertex 408500.0 5722500.0 3227.60009765625
 endloop
endfacet
facet normal -0.0993707925081253 -0.051672812551259995 -0.9937078952789307
 outer loop
  vertex 408500.0 5723500.0 3245.800048828125
  vertex 409500.0 5723500.0 3145.800048828125
  vertex 409500.0 5722500.0 3197.800048828125
 endloop
endfacet
facet normal 0.02166558802127838 -0.05191764980554581 -0.9984163045883179
 outer loop
  vertex 409500.0 5723500.0 3145.800048828125
  vertex 410500.0 5722500.0 3219.5
  vertex 409500.0 5722500.0 3197.800048828125
 endloop
endfacet
facet normal 0.021066049113869667 -0.05251583084464073 -0.9983978867530823
 outer loop
  vertex 409500.0 5723500.0 3145.800048828125
  vertex 410500.0 5723500.0 3166.89990234375
  vertex 410500.0 5722500.0 3219.5
 endloop
endfacet
facet normal -0.029247082769870758 -0.052505012601614 -0.9981922507286072
 outer loop
  vertex 410500.0 5723500.0 3166.89990234375
  vertex 411500.0 5722500.0 3190.199951171875
  vertex 410500.0 5722500.0 3219.5
 endloop
endfacet
facet normal -0.006197135895490646 -0.029486605897545815 -0.9995459318161011
 outer loop
  vertex 410500.0 5723500.0 3166.89990234375
  vertex 411500.0 5723500.0 3160.699951171875
  vertex 411500.0 5722500.0 3190.199951171875
 endloop
endfacet
facet normal -0.04842204228043556 -0.029452582821249962 -0.998392641544342
 outer loop
  vertex 411500.0 5723500.0 3160.699951171875
  vertex 412500.0 5722500.0 3141.699951171875
  vertex 411500.0 5722500.0 3190.199951171875
 endloop
endfacet
facet normal 0.04466452822089195 0.06360705196857452 -0.9969750642776489
 outer loop
  vertex 411500.0 5723500.0 3160.699951171875
  vertex 412500.0 5723500.0 3205.5
  vertex 412500.0 5722500.0 3141.699951171875
 endloop
endfacet
facet normal 0.07345136255025864 0.0634986087679863 -0.9952752590179443
 outer loop
  vertex 412500.0 5723500.0 3205.5
  vertex 413500.0 5722500.0 3215.5
  vertex 412500.0 5722500.0 3141.699951171875
 endloop
endfacet
facet normal 0.035864777863025665 0.025874562561511993 -0.9990216493606567
 outer loop
  vertex 412500.0 5723500.0 3205.5
  vertex 413500.0 5723500.0 3241.39990234375
  vertex 413500.0 5722500.0 3215.5
 endloop
endfacet
facet normal -0.028778472915291786 0.025880496948957443 -0.9992507696151733
 outer loop
  vertex 413500.0 5723500.0 3241.39990234375
  vertex 414500.0 5722500.0 3186.699951171875
  vertex 413500.0 5722500.0 3215.5
 endloop
endfacet
facet normal 0.006787069141864777 0.061382610350847244 -0.9980912208557129
 outer loop
  vertex 413500.0 5723500.0 3241.39990234375
  vertex 414500.0 5723500.0 3248.199951171875
  vertex 414500.0 5722500.0 3186.699951171875
 endloop
endfacet
facet normal 0.09498836100101471 0.061106469482183456 -0.9936011433601379
 outer loop
  vertex 414500.0 5723500.0 3248.199951171875
  vertex 415500.0 5722500.0 3282.300048828125
  vertex 414500.0 5722500.0 3186.699951171875
 endloop
endfacet
facet normal 0.07087280601263046 0.036881715059280396 -0.9968032240867615
 outer loop
  vertex 414500.0 5723500.0 3248.199951171875
  vertex 415500.0 5723500.0 3319.300048828125
  vertex 415500.0 5722500.0 3282.300048828125
 endloop
endfacet
facet normal 0.06888855993747711 0.03688685968518257 -0.9969421625137329
 outer loop
  vertex 415500.0 5723500.0 3319.300048828125
  vertex 416500.0 5722500.0 3351.39990234375
  vertex 415500.0 5722500.0 3282.300048828125
 endloop
endfacet
facet normal 0.0001998495135921985 -0.03188368305563927 -0.9994915723800659
 outer loop
  vertex 415500.0 5723500.0 3319.300048828125
  vertex 416500.0 5723500.0 3319.5
  vertex 416500.0 5722500.0 3351.39990234375
 endloop
endfacet
facet normal 0.028773488476872444 -0.03187048062682152 -0.9990777373313904
 outer loop
  vertex 416500.0 5723500.0 3319.5
  vertex 417500.0 5722500.0 3380.199951171875
  vertex 416500.0 5722500.0 3351.39990234375
 endloop
endfacet
facet normal -0.033829186111688614 -0.09422418475151062 -0.9949760437011719
 outer loop
  vertex 416500.0 5723500.0 3319.5
  vertex 417500.0 5723500.0 3285.5
  vertex 417500.0 5722500.0 3380.199951171875
 endloop
endfacet
facet normal 0.03303403779864311 -0.09422669559717178 -0.9950025081634521
 outer loop
  vertex 417500.0 5723500.0 3285.5
  vertex 418500.0 5722500.0 3413.39990234375
  vertex 417500.0 5722500.0 3380.199951171875
 endloop
endfacet
facet normal -0.0012893311213701963 -0.1281348168849945 -0.9917559027671814
 outer loop
  vertex 417500.0 5723500.0 3285.5
  vertex 418500.0 5723500.0 3284.199951171875
  vertex 418500.0 5722500.0 3413.39990234375
 endloop
endfacet
facet normal -0.04725390672683716 -0.12799179553985596 -0.9906488656997681
 outer loop
  vertex 418500.0 5723500.0 3284.199951171875
  vertex 419500.0 5722500.0 3365.699951171875
  vertex 418500.0 5722500.0 3413.39990234375
 endloop
endfacet
facet normal -0.0015943560283631086 -0.0828142985701561 -0.996563732624054
 outer loop
  vertex 418500.0 5723500.0 3284.199951171875
  vertex 419500.0 5723500.0 3282.60009765625
  vertex 419500.0 5722500.0 3365.699951171875
 endloop
endfacet
facet normal -0.02430889941751957 -0.08278993517160416 -0.9962705373764038
 outer loop
  vertex 419500.0 5723500.0 3282.60009765625
  vertex 420500.0 5722500.0 3341.300048828125
  vertex 419500.0 5722500.0 3365.699951171875
 endloop
endfacet
facet normal 0.004892767872661352 -0.05372171476483345 -0.998543918132782
 outer loop
  vertex 419500.0 5723500.0 3282.60009765625
  vertex 420500.0 5723500.0 3287.5
  vertex 420500.0 5722500.0 3341.300048828125
 endloop
endfacet
facet normal -0.00958579033613205 -0.053719885647296906 -0.9985100626945496
 outer loop
  vertex 420500.0 5723500.0 3287.5
  vertex 421500.0 5722500.0 3331.699951171875
  vertex 420500.0 5722500.0 3341.300048828125
 endloop
endfacet
facet normal 0.0004995231865905225 -0.04365828260779381 -0.9990463852882385
 outer loop
  vertex 420500.0 5723500.0 3287.5
  vertex 421500.0 5723500.0 3288.0
  vertex 421500.0 5722500.0 3331.699951171875
 endloop
endfacet
facet normal -0.009090803563594818 -0.04365648329257965 -0.9990052580833435
 outer loop
  vertex 421500.0 5723500.0 3288.0
  vertex 422500.0 5722500.0 3322.60009765625
  vertex 421500.0 5722500.0 3331.699951171875
 endloop
endfacet
facet normal 0.007597109768539667 -0.02698938548564911 -0.9996068477630615
 outer loop
  vertex 421500.0 5723500.0 3288.0
  vertex 422500.0 5723500.0 3295.60009765625
  vertex 422500.0 5722500.0 3322.60009765625
 endloop
endfacet
facet normal -0.02278582565486431 -0.02698315493762493 -0.999376118183136
 outer loop
  vertex 422500.0 5723500.0 3295.60009765625
  vertex 423500.0 5722500.0 3299.800048828125
  vertex 422500.0 5722500.0 3322.60009765625
 endloop
endfacet
facet normal 0.0025998414494097233 -0.001600090297870338 -0.9999953508377075
 outer loop
  vertex 422500.0 5723500.0 3295.60009765625
  vertex 423500.0 5723500.0 3298.199951171875
  vertex 423500.0 5722500.0 3299.800048828125
 endloop
endfacet
facet normal 0.014198501594364643 -0.0015999343013390899 -0.9998978972434998
 outer loop
  vertex 423500.0 5723500.0 3298.199951171875
  vertex 424500.0 5722500.0 3314.0
  vertex 423500.0 5722500.0 3299.800048828125
 endloop
endfacet
facet normal 0.02628950960934162 0.010495792143046856 -0.999599277973175
 outer loop
  vertex 423500.0 5723500.0 3298.199951171875
  vertex 424500.0 5723500.0 3324.5
  vertex 424500.0 5722500.0 3314.0
 endloop
endfacet
facet normal 0.01899552345275879 0.01049752626568079 -0.9997644424438477
 outer loop
  vertex 424500.0 5723500.0 3324.5
  vertex 425500.0 5722500.0 3333.0
  vertex 424500.0 5722500.0 3314.0
 endloop
endfacet
facet normal 0.04820572957396507 0.03972232714295387 -0.9980472326278687
 outer loop
  vertex 424500.0 5723500.0 3324.5
  vertex 425500.0 5723500.0 3372.800048828125
  vertex 425500.0 5722500.0 3333.0
 endloop
endfacet
facet normal -0.0037970172706991434 0.0397682748734951 -0.9992017149925232
 outer loop
  vertex 425500.0 5723500.0 3372.800048828125
  vertex 426500.0 5722500.0 3329.199951171875
  vertex 425500.0 5722500.0 3333.0
 endloop
endfacet
facet normal -0.007195000071078539 0.03637511655688286 -0.9993123412132263
 outer loop
  vertex 425500.0 5723500.0 3372.800048828125
  vertex 426500.0 5723500.0 3365.60009765625
  vertex 426500.0 5722500.0 3329.199951171875
 endloop
endfacet
facet normal -0.0061973510310053825 0.028288180008530617 -0.9995806217193604
 outer loop
  vertex 410500.0 5724500.0 3195.199951171875
  vertex 411500.0 5723500.0 3160.699951171875
  vertex 410500.0 5723500.0 3166.89990234375
 endloop
endfacet
facet normal 0.06827618181705475 0.10251348465681076 -0.9923856854438782
 outer loop
  vertex 410500.0 5724500.0 3195.199951171875
  vertex 411500.0 5724500.0 3264.0
  vertex 411500.0 5723500.0 3160.699951171875
 endloop
endfacet
facet normal 0.04451873153448105 0.10265139490365982 -0.9937206506729126
 outer loop
  vertex 411500.0 5724500.0 3264.0
  vertex 412500.0 5723500.0 3205.5
  vertex 411500.0 5723500.0 3160.699951171875
 endloop
endfacet
facet normal -0.10284707695245743 -0.04471611976623535 -0.9936915636062622
 outer loop
  vertex 411500.0 5724500.0 3264.0
  vertex 412500.0 5724500.0 3160.5
  vertex 412500.0 5723500.0 3205.5
 endloop
endfacet
facet normal 0.03584057092666626 -0.04492562264204025 -0.9983471632003784
 outer loop
  vertex 412500.0 5724500.0 3160.5
  vertex 413500.0 5723500.0 3241.39990234375
  vertex 412500.0 5723500.0 3205.5
 endloop
endfacet
facet normal 0.16195785999298096 0.08240485191345215 -0.983350932598114
 outer loop
  vertex 412500.0 5724500.0 3160.5
  vertex 413500.0 5724500.0 3325.199951171875
  vertex 413500.0 5723500.0 3241.39990234375
 endloop
endfacet
facet normal 0.006776139605790377 0.08350542932748795 -0.9964842796325684
 outer loop
  vertex 413500.0 5724500.0 3325.199951171875
  vertex 414500.0 5723500.0 3248.199951171875
  vertex 413500.0 5723500.0 3241.39990234375
 endloop
endfacet
facet normal -0.16256575286388397 -0.08688516169786453 -0.9828648567199707
 outer loop
  vertex 413500.0 5724500.0 3325.199951171875
  vertex 414500.0 5724500.0 3159.800048828125
  vertex 414500.0 5723500.0 3248.199951171875
 endloop
endfacet
facet normal 0.07064694166183472 -0.08783649653196335 -0.993626594543457
 outer loop
  vertex 414500.0 5724500.0 3159.800048828125
  vertex 415500.0 5723500.0 3319.300048828125
  vertex 414500.0 5723500.0 3248.199951171875
 endloop
endfacet
facet normal 0.10140661895275116 -0.05701041594147682 -0.9932102560997009
 outer loop
  vertex 414500.0 5724500.0 3159.800048828125
  vertex 415500.0 5724500.0 3261.89990234375
  vertex 415500.0 5723500.0 3319.300048828125
 endloop
endfacet
facet normal 0.0001996206265175715 -0.057305820286273956 -0.9983566403388977
 outer loop
  vertex 415500.0 5724500.0 3261.89990234375
  vertex 416500.0 5723500.0 3319.5
  vertex 415500.0 5723500.0 3319.300048828125
 endloop
endfacet
facet normal 0.02088153176009655 -0.03666726499795914 -0.9991093277931213
 outer loop
  vertex 415500.0 5724500.0 3261.89990234375
  vertex 416500.0 5724500.0 3282.800048828125
  vertex 416500.0 5723500.0 3319.5
 endloop
endfacet
facet normal -0.033957529813051224 -0.03665411099791527 -0.9987508654594421
 outer loop
  vertex 416500.0 5724500.0 3282.800048828125
  vertex 417500.0 5723500.0 3285.5
  vertex 416500.0 5723500.0 3319.5
 endloop
endfacet
facet normal 0.004199909511953592 0.0014999851118773222 -0.9999900460243225
 outer loop
  vertex 416500.0 5724500.0 3282.800048828125
  vertex 417500.0 5724500.0 3287.0
  vertex 417500.0 5723500.0 3285.5
 endloop
endfacet
facet normal -0.001300046336837113 0.0014999971026554704 -0.9999980330467224
 outer loop
  vertex 417500.0 5724500.0 3287.0
  vertex 418500.0 5723500.0 3284.199951171875
  vertex 417500.0 5723500.0 3285.5
 endloop
endfacet
facet normal -0.00849955528974533 -0.005699652712792158 -0.9999476075172424
 outer loop
  vertex 417500.0 5724500.0 3287.0
  vertex 418500.0 5724500.0 3278.5
  vertex 418500.0 5723500.0 3284.199951171875
 endloop
endfacet
facet normal -0.0015998255694285035 -0.0056998515501618385 -0.999982476234436
 outer loop
  vertex 418500.0 5724500.0 3278.5
  vertex 419500.0 5723500.0 3282.60009765625
  vertex 418500.0 5723500.0 3284.199951171875
 endloop
endfacet
facet normal -0.00789908692240715 -0.01199876144528389 -0.9998968243598938
 outer loop
  vertex 418500.0 5724500.0 3278.5
  vertex 419500.0 5724500.0 3270.60009765625
  vertex 419500.0 5723500.0 3282.60009765625
 endloop
endfacet
facet normal 0.004899490624666214 -0.011998992413282394 -0.9999160170555115
 outer loop
  vertex 419500.0 5724500.0 3270.60009765625
  vertex 420500.0 5723500.0 3287.5
  vertex 419500.0 5723500.0 3282.60009765625
 endloop
endfacet
facet normal 0.005099432077258825 -0.011799073778092861 -0.9999173879623413
 outer loop
  vertex 419500.0 5724500.0 3270.60009765625
  vertex 420500.0 5724500.0 3275.699951171875
  vertex 420500.0 5723500.0 3287.5
 endloop
endfacet
facet normal 0.0004999650991521776 -0.011799225583672523 -0.9999302625656128
 outer loop
  vertex 420500.0 5724500.0 3275.699951171875
  vertex 421500.0 5723500.0 3288.0
  vertex 420500.0 5723500.0 3287.5
 endloop
endfacet
facet normal 0.01809682883322239 0.005799001548439264 -0.9998193979263306
 outer loop
  vertex 420500.0 5724500.0 3275.699951171875
  vertex 421500.0 5724500.0 3293.800048828125
  vertex 421500.0 5723500.0 3288.0
 endloop
endfacet
facet normal 0.007599750533699989 0.005799783859401941 -0.999954342842102
 outer loop
  vertex 421500.0 5724500.0 3293.800048828125
  vertex 422500.0 5723500.0 3295.60009765625
  vertex 421500.0 5723500.0 3288.0
 endloop
endfacet
facet normal -0.0026000638026744127 -0.004400088917464018 -0.9999869465827942
 outer loop
  vertex 421500.0 5724500.0 3293.800048828125
  vertex 422500.0 5724500.0 3291.199951171875
  vertex 422500.0 5723500.0 3295.60009765625
 endloop
endfacet
facet normal 0.00259981956332922 -0.004400088917464018 -0.9999869465827942
 outer loop
  vertex 422500.0 5724500.0 3291.199951171875
  vertex 423500.0 5723500.0 3298.199951171875
  vertex 422500.0 5723500.0 3295.60009765625
 endloop
endfacet
facet normal 0.020493827760219574 0.013495935127139091 -0.9996988773345947
 outer loop
  vertex 422500.0 5724500.0 3291.199951171875
  vertex 423500.0 5724500.0 3311.699951171875
  vertex 423500.0 5723500.0 3298.199951171875
 endloop
endfacet
facet normal 0.026288563385605812 0.013494105078279972 -0.9995633363723755
 outer loop
  vertex 423500.0 5724500.0 3311.699951171875
  vertex 424500.0 5723500.0 3324.5
  vertex 423500.0 5723500.0 3298.199951171875
 endloop
endfacet
facet normal 0.03457120060920715 0.021781841292977333 -0.9991648197174072
 outer loop
  vertex 423500.0 5724500.0 3311.699951171875
  vertex 424500.0 5724500.0 3346.300048828125
  vertex 424500.0 5723500.0 3324.5
 endloop
endfacet
facet normal 0.04823237285017967 0.021769504994153976 -0.9985988736152649
 outer loop
  vertex 424500.0 5724500.0 3346.300048828125
  vertex 425500.0 5723500.0 3372.800048828125
  vertex 424500.0 5723500.0 3324.5
 endloop
endfacet
facet normal 0.04036308079957962 0.013887234032154083 -0.9990885853767395
 outer loop
  vertex 424500.0 5724500.0 3346.300048828125
  vertex 425500.0 5724500.0 3386.699951171875
  vertex 425500.0 5723500.0 3372.800048828125
 endloop
endfacet
facet normal -0.007199069485068321 0.013898199424147606 -0.9998775124549866
 outer loop
  vertex 425500.0 5724500.0 3386.699951171875
  vertex 426500.0 5723500.0 3365.60009765625
  vertex 425500.0 5723500.0 3372.800048828125
 endloop
endfacet
facet normal 0.08442018926143646 0.10532693564891815 -0.9908478260040283
 outer loop
  vertex 425500.0 5724500.0 3386.699951171875
  vertex 426500.0 5724500.0 3471.89990234375
  vertex 426500.0 5723500.0 3365.60009765625
 endloop
endfacet
facet normal -0.1027844026684761 -0.056705307215452194 -0.993086040019989
 outer loop
  vertex 411500.0 5725500.0 3206.89990234375
  vertex 412500.0 5724500.0 3160.5
  vertex 411500.0 5724500.0 3264.0
 endloop
endfacet
facet normal -0.08443475514650345 -0.03823459893465042 -0.995695173740387
 outer loop
  vertex 411500.0 5725500.0 3206.89990234375
  vertex 412500.0 5725500.0 3122.10009765625
  vertex 412500.0 5724500.0 3160.5
 endloop
endfacet
facet normal 0.16239403188228607 -0.037862278521060944 -0.9859992861747742
 outer loop
  vertex 412500.0 5725500.0 3122.10009765625
  vertex 413500.0 5724500.0 3325.199951171875
  vertex 412500.0 5724500.0 3160.5
 endloop
endfacet
facet normal 0.0694202184677124 -0.1314237415790558 -0.9888926148414612
 outer loop
  vertex 412500.0 5725500.0 3122.10009765625
  vertex 413500.0 5725500.0 3192.300048828125
  vertex 413500.0 5724500.0 3325.199951171875
 endloop
endfacet
facet normal -0.16179797053337097 -0.13000573217868805 -0.9782228469848633
 outer loop
  vertex 413500.0 5725500.0 3192.300048828125
  vertex 414500.0 5724500.0 3159.800048828125
  vertex 413500.0 5724500.0 3325.199951171875
 endloop
endfacet
facet normal 0.02255988121032715 0.055002398788928986 -0.9982312917709351
 outer loop
  vertex 413500.0 5725500.0 3192.300048828125
  vertex 414500.0 5725500.0 3214.89990234375
  vertex 414500.0 5724500.0 3159.800048828125
 endloop
endfacet
facet normal 0.10141956061124802 0.05473272129893303 -0.9933370351791382
 outer loop
  vertex 414500.0 5725500.0 3214.89990234375
  vertex 415500.0 5724500.0 3261.89990234375
  vertex 414500.0 5724500.0 3159.800048828125
 endloop
endfacet
facet normal 0.013291329145431519 -0.033677857369184494 -0.9993443489074707
 outer loop
  vertex 414500.0 5725500.0 3214.89990234375
  vertex 415500.0 5725500.0 3228.199951171875
  vertex 415500.0 5724500.0 3261.89990234375
 endloop
endfacet
facet normal 0.020883731544017792 -0.0336734876036644 -0.9992147088050842
 outer loop
  vertex 415500.0 5725500.0 3228.199951171875
  vertex 416500.0 5724500.0 3282.800048828125
  vertex 415500.0 5724500.0 3261.89990234375
 endloop
endfacet
facet normal 0.027779346331954002 -0.02678009122610092 -0.9992552995681763
 outer loop
  vertex 415500.0 5725500.0 3228.199951171875
  vertex 416500.0 5725500.0 3256.0
  vertex 416500.0 5724500.0 3282.800048828125
 endloop
endfacet
facet normal 0.00419840682297945 -0.02679019421339035 -0.9996322393417358
 outer loop
  vertex 416500.0 5725500.0 3256.0
  vertex 417500.0 5724500.0 3287.0
  vertex 416500.0 5724500.0 3282.800048828125
 endloop
endfacet
facet normal 0.0007996839703992009 -0.030186178162693977 -0.9995439648628235
 outer loop
  vertex 416500.0 5725500.0 3256.0
  vertex 417500.0 5725500.0 3256.800048828125
  vertex 417500.0 5724500.0 3287.0
 endloop
endfacet
facet normal -0.008495819754898548 -0.030185099691152573 -0.999508261680603
 outer loop
  vertex 417500.0 5725500.0 3256.800048828125
  vertex 418500.0 5724500.0 3278.5
  vertex 417500.0 5724500.0 3287.0
 endloop
endfacet
facet normal -0.013890005648136139 -0.03557412698864937 -0.999270498752594
 outer loop
  vertex 417500.0 5725500.0 3256.800048828125
  vertex 418500.0 5725500.0 3242.89990234375
  vertex 418500.0 5724500.0 3278.5
 endloop
endfacet
facet normal -0.007894654758274555 -0.03557645156979561 -0.999335765838623
 outer loop
  vertex 418500.0 5725500.0 3242.89990234375
  vertex 419500.0 5724500.0 3270.60009765625
  vertex 418500.0 5724500.0 3278.5
 endloop
endfacet
facet normal 0.0013996611814945936 -0.026290932670235634 -0.9996533989906311
 outer loop
  vertex 418500.0 5725500.0 3242.89990234375
  vertex 419500.0 5725500.0 3244.300048828125
  vertex 419500.0 5724500.0 3270.60009765625
 endloop
endfacet
facet normal 0.005098024383187294 -0.026290617883205414 -0.9996413588523865
 outer loop
  vertex 419500.0 5725500.0 3244.300048828125
  vertex 420500.0 5724500.0 3275.699951171875
  vertex 419500.0 5724500.0 3270.60009765625
 endloop
endfacet
facet normal 0.008297549560666084 -0.02309289760887623 -0.9996988773345947
 outer loop
  vertex 419500.0 5725500.0 3244.300048828125
  vertex 420500.0 5725500.0 3252.60009765625
  vertex 420500.0 5724500.0 3275.699951171875
 endloop
endfacet
facet normal 0.018092310056090355 -0.02308991365134716 -0.9995697140693665
 outer loop
  vertex 420500.0 5725500.0 3252.60009765625
  vertex 421500.0 5724500.0 3293.800048828125
  vertex 420500.0 5724500.0 3275.699951171875
 endloop
endfacet
facet normal 0.019691580906510353 -0.02149086631834507 -0.999575138092041
 outer loop
  vertex 420500.0 5725500.0 3252.60009765625
  vertex 421500.0 5725500.0 3272.300048828125
  vertex 421500.0 5724500.0 3293.800048828125
 endloop
endfacet
facet normal -0.0025994880124926567 -0.02149495854973793 -0.9997655749320984
 outer loop
  vertex 421500.0 5725500.0 3272.300048828125
  vertex 422500.0 5724500.0 3291.199951171875
  vertex 421500.0 5724500.0 3293.800048828125
 endloop
endfacet
facet normal 0.024592014029622078 0.005698135122656822 -0.9996813535690308
 outer loop
  vertex 421500.0 5725500.0 3272.300048828125
  vertex 422500.0 5725500.0 3296.89990234375
  vertex 422500.0 5724500.0 3291.199951171875
 endloop
endfacet
facet normal 0.02049536071717739 0.00569866131991148 -0.9997737407684326
 outer loop
  vertex 422500.0 5725500.0 3296.89990234375
  vertex 423500.0 5724500.0 3311.699951171875
  vertex 422500.0 5724500.0 3291.199951171875
 endloop
endfacet
facet normal -0.0036992928944528103 -0.018496708944439888 -0.9998220801353455
 outer loop
  vertex 422500.0 5725500.0 3296.89990234375
  vertex 423500.0 5725500.0 3293.199951171875
  vertex 423500.0 5724500.0 3311.699951171875
 endloop
endfacet
facet normal 0.034573495388031006 -0.01848577708005905 -0.9992311596870422
 outer loop
  vertex 423500.0 5725500.0 3293.199951171875
  vertex 424500.0 5724500.0 3346.300048828125
  vertex 423500.0 5724500.0 3311.699951171875
 endloop
endfacet
facet normal 0.04804395139217377 -0.004994163755327463 -0.9988327622413635
 outer loop
  vertex 423500.0 5725500.0 3293.199951171875
  vertex 424500.0 5725500.0 3341.300048828125
  vertex 424500.0 5724500.0 3346.300048828125
 endloop
endfacet
facet normal 0.04036646708846092 -0.0049958620220422745 -0.9991724491119385
 outer loop
  vertex 424500.0 5725500.0 3341.300048828125
  vertex 425500.0 5724500.0 3386.699951171875
  vertex 424500.0 5724500.0 3346.300048828125
 endloop
endfacet
facet normal -0.02860976569354534 -0.07386700063943863 -0.9968576431274414
 outer loop
  vertex 424500.0 5725500.0 3341.300048828125
  vertex 425500.0 5725500.0 3312.60009765625
  vertex 425500.0 5724500.0 3386.699951171875
 endloop
endfacet
facet normal 0.08466195315122604 -0.07363194227218628 -0.9936853647232056
 outer loop
  vertex 425500.0 5725500.0 3312.60009765625
  vertex 426500.0 5724500.0 3471.89990234375
  vertex 425500.0 5724500.0 3386.699951171875
 endloop
endfacet
facet normal 0.016133559867739677 -0.14154152572155 -0.9898008704185486
 outer loop
  vertex 425500.0 5725500.0 3312.60009765625
  vertex 426500.0 5725500.0 3328.89990234375
  vertex 426500.0 5724500.0 3471.89990234375
 endloop
endfacet
facet normal -0.08384145796298981 0.12427962571382523 -0.9886987209320068
 outer loop
  vertex 411500.0 5726500.0 3332.60009765625
  vertex 412500.0 5725500.0 3122.10009765625
  vertex 411500.0 5725500.0 3206.89990234375
 endloop
endfacet
facet normal -0.07471206039190292 0.133315309882164 -0.9882535338401794
 outer loop
  vertex 411500.0 5726500.0 3332.60009765625
  vertex 412500.0 5726500.0 3257.0
  vertex 412500.0 5725500.0 3122.10009765625
 endloop
endfacet
facet normal 0.06940203905105591 0.13336659967899323 -0.9886337518692017
 outer loop
  vertex 412500.0 5726500.0 3257.0
  vertex 413500.0 5725500.0 3192.300048828125
  vertex 412500.0 5725500.0 3122.10009765625
 endloop
endfacet
facet normal -0.03745982423424721 0.027170812711119652 -0.9989286661148071
 outer loop
  vertex 412500.0 5726500.0 3257.0
  vertex 413500.0 5726500.0 3219.5
  vertex 413500.0 5725500.0 3192.300048828125
 endloop
endfacet
facet normal 0.022585734724998474 0.027182959020137787 -0.9993752837181091
 outer loop
  vertex 413500.0 5726500.0 3219.5
  vertex 414500.0 5725500.0 3214.89990234375
  vertex 413500.0 5725500.0 3192.300048828125
 endloop
endfacet
facet normal -0.03157283738255501 -0.026976706460118294 -0.999137282371521
 outer loop
  vertex 413500.0 5726500.0 3219.5
  vertex 414500.0 5726500.0 3187.89990234375
  vertex 414500.0 5725500.0 3214.89990234375
 endloop
endfacet
facet normal 0.013294026255607605 -0.026987778022885323 -0.9995473027229309
 outer loop
  vertex 414500.0 5726500.0 3187.89990234375
  vertex 415500.0 5725500.0 3228.199951171875
  vertex 414500.0 5725500.0 3214.89990234375
 endloop
endfacet
facet normal 0.043957170099020004 0.003696351544931531 -0.9990265965461731
 outer loop
  vertex 414500.0 5726500.0 3187.89990234375
  vertex 415500.0 5726500.0 3231.89990234375
  vertex 415500.0 5725500.0 3228.199951171875
 endloop
endfacet
facet normal 0.027789123356342316 0.0036984970793128014 -0.9996069669723511
 outer loop
  vertex 415500.0 5726500.0 3231.89990234375
  vertex 416500.0 5725500.0 3256.0
  vertex 415500.0 5725500.0 3228.199951171875
 endloop
endfacet
facet normal 0.031283918768167496 0.007196240592747927 -0.999484658241272
 outer loop
  vertex 415500.0 5726500.0 3231.89990234375
  vertex 416500.0 5726500.0 3263.199951171875
  vertex 416500.0 5725500.0 3256.0
 endloop
endfacet
facet normal 0.0008000278030522168 0.007199762389063835 -0.9999737739562988
 outer loop
  vertex 416500.0 5726500.0 3263.199951171875
  vertex 417500.0 5725500.0 3256.800048828125
  vertex 416500.0 5725500.0 3256.0
 endloop
endfacet
facet normal -0.03984586521983147 -0.03345463052392006 -0.9986456632614136
 outer loop
  vertex 416500.0 5726500.0 3263.199951171875
  vertex 417500.0 5726500.0 3223.300048828125
  vertex 417500.0 5725500.0 3256.800048828125
 endloop
endfacet
facet normal -0.013891013339161873 -0.033477988094091415 -0.9993429183959961
 outer loop
  vertex 417500.0 5726500.0 3223.300048828125
  vertex 418500.0 5725500.0 3242.89990234375
  vertex 417500.0 5725500.0 3256.800048828125
 endloop
endfacet
facet normal 0.04274941608309746 0.02317274734377861 -0.9988170266151428
 outer loop
  vertex 417500.0 5726500.0 3223.300048828125
  vertex 418500.0 5726500.0 3266.10009765625
  vertex 418500.0 5725500.0 3242.89990234375
 endloop
endfacet
facet normal 0.001399768516421318 0.023193931207060814 -0.9997299909591675
 outer loop
  vertex 418500.0 5726500.0 3266.10009765625
  vertex 419500.0 5725500.0 3244.300048828125
  vertex 418500.0 5725500.0 3242.89990234375
 endloop
endfacet
facet normal 0.009994449093937874 0.031782396137714386 -0.999444842338562
 outer loop
  vertex 418500.0 5726500.0 3266.10009765625
  vertex 419500.0 5726500.0 3276.10009765625
  vertex 419500.0 5725500.0 3244.300048828125
 endloop
endfacet
facet normal 0.008295569568872452 0.03178288787603378 -0.9994603395462036
 outer loop
  vertex 419500.0 5726500.0 3276.10009765625
  vertex 420500.0 5725500.0 3252.60009765625
  vertex 419500.0 5725500.0 3244.300048828125
 endloop
endfacet
facet normal 0.005597396288067102 0.029087083414196968 -0.9995611906051636
 outer loop
  vertex 419500.0 5726500.0 3276.10009765625
  vertex 420500.0 5726500.0 3281.699951171875
  vertex 420500.0 5725500.0 3252.60009765625
 endloop
endfacet
facet normal 0.019687799736857414 0.029081903398036957 -0.9993831515312195
 outer loop
  vertex 420500.0 5726500.0 3281.699951171875
  vertex 421500.0 5725500.0 3272.300048828125
  vertex 420500.0 5725500.0 3252.60009765625
 endloop
endfacet
facet normal -0.0005998301785439253 0.00879970658570528 -0.9999611377716064
 outer loop
  vertex 420500.0 5726500.0 3281.699951171875
  vertex 421500.0 5726500.0 3281.10009765625
  vertex 421500.0 5725500.0 3272.300048828125
 endloop
endfacet
facet normal 0.024591460824012756 0.008797046728432178 -0.9996588826179504
 outer loop
  vertex 421500.0 5726500.0 3281.10009765625
  vertex 422500.0 5725500.0 3296.89990234375
  vertex 421500.0 5725500.0 3272.300048828125
 endloop
endfacet
facet normal 0.007899409160017967 -0.007899409160017967 -0.9999375939369202
 outer loop
  vertex 421500.0 5726500.0 3281.10009765625
  vertex 422500.0 5726500.0 3289.0
  vertex 422500.0 5725500.0 3296.89990234375
 endloop
endfacet
facet normal -0.003699810244143009 -0.007899601943790913 -0.9999619126319885
 outer loop
  vertex 422500.0 5726500.0 3289.0
  vertex 423500.0 5725500.0 3293.199951171875
  vertex 422500.0 5725500.0 3296.89990234375
 endloop
endfacet
facet normal 0.007099888753145933 0.002900061197578907 -0.999970555305481
 outer loop
  vertex 422500.0 5726500.0 3289.0
  vertex 423500.0 5726500.0 3296.10009765625
  vertex 423500.0 5725500.0 3293.199951171875
 endloop
endfacet
facet normal 0.048044353723526 0.002896785270422697 -0.9988410472869873
 outer loop
  vertex 423500.0 5726500.0 3296.10009765625
  vertex 424500.0 5725500.0 3341.300048828125
  vertex 423500.0 5725500.0 3293.199951171875
 endloop
endfacet
facet normal -9.999510803027079e-05 -0.04525364190340042 -0.9989755153656006
 outer loop
  vertex 423500.0 5726500.0 3296.10009765625
  vertex 424500.0 5726500.0 3296.0
  vertex 424500.0 5725500.0 3341.300048828125
 endloop
endfacet
facet normal -0.02865877002477646 -0.0452350489795208 -0.9985651969909668
 outer loop
  vertex 424500.0 5726500.0 3296.0
  vertex 425500.0 5725500.0 3312.60009765625
  vertex 424500.0 5725500.0 3341.300048828125
 endloop
endfacet
facet normal 0.005699519999325275 -0.010899321176111698 -0.9999243021011353
 outer loop
  vertex 424500.0 5726500.0 3296.0
  vertex 425500.0 5726500.0 3301.699951171875
  vertex 425500.0 5725500.0 3312.60009765625
 endloop
endfacet
facet normal 0.016296671703457832 -0.010898051783442497 -0.9998077750205994
 outer loop
  vertex 425500.0 5726500.0 3301.699951171875
  vertex 426500.0 5725500.0 3328.89990234375
  vertex 425500.0 5725500.0 3312.60009765625
 endloop
endfacet
facet normal -0.0006996787269599736 -0.02788904309272766 -0.9996107816696167
 outer loop
  vertex 425500.0 5726500.0 3301.699951171875
  vertex 426500.0 5726500.0 3301.0
  vertex 426500.0 5725500.0 3328.89990234375
 endloop
endfacet
facet normal -0.0026988910976797342 -0.02788894809782505 -0.9996073842048645
 outer loop
  vertex 426500.0 5726500.0 3301.0
  vertex 427500.0 5725500.0 3326.199951171875
  vertex 426500.0 5725500.0 3328.89990234375
 endloop
endfacet
facet normal 0.004998917691409588 -0.020195579156279564 -0.9997835755348206
 outer loop
  vertex 426500.0 5726500.0 3301.0
  vertex 427500.0 5726500.0 3306.0
  vertex 427500.0 5725500.0 3326.199951171875
 endloop
endfacet
facet normal -0.013196109794080257 -0.020194072276353836 -0.9997089505195618
 outer loop
  vertex 427500.0 5726500.0 3306.0
  vertex 428500.0 5725500.0 3313.0
  vertex 427500.0 5725500.0 3326.199951171875
 endloop
endfacet
facet normal -0.027174020186066628 -0.034167349338531494 -0.9990466833114624
 outer loop
  vertex 427500.0 5726500.0 3306.0
  vertex 428500.0 5726500.0 3278.800048828125
  vertex 428500.0 5725500.0 3313.0
 endloop
endfacet
facet normal 0.09335032850503922 0.1994786113500595 -0.9754455089569092
 outer loop
  vertex 410500.0 5727500.0 3441.39990234375
  vertex 411500.0 5727500.0 3537.10009765625
  vertex 411500.0 5726500.0 3332.60009765625
 endloop
endfacet
facet normal -0.07386486977338791 0.19980618357658386 -0.977047324180603
 outer loop
  vertex 411500.0 5727500.0 3537.10009765625
  vertex 412500.0 5726500.0 3257.0
  vertex 411500.0 5726500.0 3332.60009765625
 endloop
endfacet
facet normal -0.04425392672419548 0.2281752973794937 -0.9726138114929199
 outer loop
  vertex 411500.0 5727500.0 3537.10009765625
  vertex 412500.0 5727500.0 3491.60009765625
  vertex 412500.0 5726500.0 3257.0
 endloop
endfacet
facet normal -0.036484476178884506 0.22824698686599731 -0.9729194045066833
 outer loop
  vertex 412500.0 5727500.0 3491.60009765625
  vertex 413500.0 5726500.0 3219.5
  vertex 412500.0 5726500.0 3257.0
 endloop
endfacet
facet normal -0.171500563621521 0.09531065821647644 -0.9805628061294556
 outer loop
  vertex 412500.0 5727500.0 3491.60009765625
  vertex 413500.0 5727500.0 3316.699951171875
  vertex 413500.0 5726500.0 3219.5
 endloop
endfacet
facet normal -0.03143632411956787 0.09669620543718338 -0.9948173761367798
 outer loop
  vertex 413500.0 5727500.0 3316.699951171875
  vertex 414500.0 5726500.0 3187.89990234375
  vertex 413500.0 5726500.0 3219.5
 endloop
endfacet
facet normal -0.03841540217399597 0.08976917713880539 -0.9952214956283569
 outer loop
  vertex 413500.0 5727500.0 3316.699951171875
  vertex 414500.0 5727500.0 3278.10009765625
  vertex 414500.0 5726500.0 3187.89990234375
 endloop
endfacet
facet normal 0.04378007352352142 0.08974934369325638 -0.9950016736984253
 outer loop
  vertex 414500.0 5727500.0 3278.10009765625
  vertex 415500.0 5726500.0 3231.89990234375
  vertex 414500.0 5726500.0 3187.89990234375
 endloop
endfacet
facet normal -0.008693755604326725 0.03747224435210228 -0.999259889125824
 outer loop
  vertex 414500.0 5727500.0 3278.10009765625
  vertex 415500.0 5727500.0 3269.39990234375
  vertex 415500.0 5726500.0 3231.89990234375
 endloop
endfacet
facet normal 0.031262774020433426 0.03745534271001816 -0.9988091588020325
 outer loop
  vertex 415500.0 5727500.0 3269.39990234375
  vertex 416500.0 5726500.0 3263.199951171875
  vertex 415500.0 5726500.0 3231.89990234375
 endloop
endfacet
facet normal 0.0041999309323728085 0.010399491526186466 -0.9999370574951172
 outer loop
  vertex 415500.0 5727500.0 3269.39990234375
  vertex 416500.0 5727500.0 3273.60009765625
  vertex 416500.0 5726500.0 3263.199951171875
 endloop
endfacet
facet normal -0.03986602649092674 0.010391317307949066 -0.9991510510444641
 outer loop
  vertex 416500.0 5727500.0 3273.60009765625
  vertex 417500.0 5726500.0 3223.300048828125
  vertex 416500.0 5726500.0 3263.199951171875
 endloop
endfacet
facet normal 0.012673805467784405 0.06287030130624771 -0.997941255569458
 outer loop
  vertex 416500.0 5727500.0 3273.60009765625
  vertex 417500.0 5727500.0 3286.300048828125
  vertex 417500.0 5726500.0 3223.300048828125
 endloop
endfacet
facet normal 0.042676445096731186 0.06281806528568268 -0.9971120953559875
 outer loop
  vertex 417500.0 5727500.0 3286.300048828125
  vertex 418500.0 5726500.0 3266.10009765625
  vertex 417500.0 5726500.0 3223.300048828125
 endloop
endfacet
facet normal -0.06806296855211258 -0.04793313518166542 -0.9965289235115051
 outer loop
  vertex 417500.0 5727500.0 3286.300048828125
  vertex 418500.0 5727500.0 3218.0
  vertex 418500.0 5726500.0 3266.10009765625
 endloop
endfacet
facet normal 0.009987954050302505 -0.04804215580224991 -0.9987953901290894
 outer loop
  vertex 418500.0 5727500.0 3218.0
  vertex 419500.0 5726500.0 3276.10009765625
  vertex 418500.0 5726500.0 3266.10009765625
 endloop
endfacet
facet normal 0.01788259670138359 -0.04016133025288582 -0.9990332126617432
 outer loop
  vertex 418500.0 5727500.0 3218.0
  vertex 419500.0 5727500.0 3235.89990234375
  vertex 419500.0 5726500.0 3276.10009765625
 endloop
endfacet
facet normal 0.005595244467258453 -0.04016712307929993 -0.9991772770881653
 outer loop
  vertex 419500.0 5727500.0 3235.89990234375
  vertex 420500.0 5726500.0 3281.699951171875
  vertex 419500.0 5726500.0 3276.10009765625
 endloop
endfacet
facet normal 0.004296311177313328 -0.04146392643451691 -0.9991307854652405
 outer loop
  vertex 419500.0 5727500.0 3235.89990234375
  vertex 420500.0 5727500.0 3240.199951171875
  vertex 420500.0 5726500.0 3281.699951171875
 endloop
endfacet
facet normal -0.0005993355880491436 -0.04146430268883705 -0.9991397857666016
 outer loop
  vertex 420500.0 5727500.0 3240.199951171875
  vertex 421500.0 5726500.0 3281.10009765625
  vertex 420500.0 5726500.0 3281.699951171875
 endloop
endfacet
facet normal 0.008895241655409336 -0.03198236599564552 -0.9994488954544067
 outer loop
  vertex 420500.0 5727500.0 3240.199951171875
  vertex 421500.0 5727500.0 3249.10009765625
  vertex 421500.0 5726500.0 3281.10009765625
 endloop
endfacet
facet normal 0.007895614951848984 -0.031982630491256714 -0.9994572401046753
 outer loop
  vertex 421500.0 5727500.0 3249.10009765625
  vertex 422500.0 5726500.0 3289.0
  vertex 421500.0 5726500.0 3281.10009765625
 endloop
endfacet
facet normal -0.006992143113166094 -0.04684726148843765 -0.9988775849342346
 outer loop
  vertex 421500.0 5727500.0 3249.10009765625
  vertex 422500.0 5727500.0 3242.10009765625
  vertex 422500.0 5726500.0 3289.0
 endloop
endfacet
facet normal 0.007092123385518789 -0.046847227960824966 -0.9988768696784973
 outer loop
  vertex 422500.0 5727500.0 3242.10009765625
  vertex 423500.0 5726500.0 3296.10009765625
  vertex 422500.0 5726500.0 3289.0
 endloop
endfacet
facet normal 0.03267508000135422 -0.021283848211169243 -0.9992393851280212
 outer loop
  vertex 422500.0 5727500.0 3242.10009765625
  vertex 423500.0 5727500.0 3274.800048828125
  vertex 423500.0 5726500.0 3296.10009765625
 endloop
endfacet
facet normal -0.00010007495438912883 -0.021295219659805298 -0.9997732639312744
 outer loop
  vertex 423500.0 5727500.0 3274.800048828125
  vertex 424500.0 5726500.0 3296.0
  vertex 423500.0 5726500.0 3296.10009765625
 endloop
endfacet
facet normal 0.015097850933670998 -0.006099288817495108 -0.9998673796653748
 outer loop
  vertex 423500.0 5727500.0 3274.800048828125
  vertex 424500.0 5727500.0 3289.89990234375
  vertex 424500.0 5726500.0 3296.0
 endloop
endfacet
facet normal 0.005699752364307642 -0.0060998848639428616 -0.9999651312828064
 outer loop
  vertex 424500.0 5727500.0 3289.89990234375
  vertex 425500.0 5726500.0 3301.699951171875
  vertex 424500.0 5726500.0 3296.0
 endloop
endfacet
facet normal 0.008399801328778267 -0.0033997627906501293 -0.9999589323997498
 outer loop
  vertex 424500.0 5727500.0 3289.89990234375
  vertex 425500.0 5727500.0 3298.300048828125
  vertex 425500.0 5726500.0 3301.699951171875
 endloop
endfacet
facet normal -0.0006999469478614628 -0.00339988199993968 -0.9999939799308777
 outer loop
  vertex 425500.0 5727500.0 3298.300048828125
  vertex 426500.0 5726500.0 3301.0
  vertex 425500.0 5726500.0 3301.699951171875
 endloop
endfacet
facet normal -0.029771121218800545 -0.03246844932436943 -0.999029278755188
 outer loop
  vertex 425500.0 5727500.0 3298.300048828125
  vertex 426500.0 5727500.0 3268.5
  vertex 426500.0 5726500.0 3301.0
 endloop
endfacet
facet normal 0.004997299052774906 -0.032482441514730453 -0.9994598031044006
 outer loop
  vertex 426500.0 5727500.0 3268.5
  vertex 427500.0 5726500.0 3306.0
  vertex 426500.0 5726500.0 3301.0
 endloop
endfacet
facet normal 0.09430103003978729 0.14189468324184418 -0.9853797554969788
 outer loop
  vertex 410500.0 5728500.0 3585.39990234375
  vertex 411500.0 5727500.0 3537.10009765625
  vertex 410500.0 5727500.0 3441.39990234375
 endloop
endfacet
facet normal 0.028802456334233284 0.07693899422883987 -0.996619701385498
 outer loop
  vertex 410500.0 5728500.0 3585.39990234375
  vertex 411500.0 5728500.0 3614.300048828125
  vertex 411500.0 5727500.0 3537.10009765625
 endloop
endfacet
facet normal -0.04531840980052948 0.07689184695482254 -0.9960089921951294
 outer loop
  vertex 411500.0 5728500.0 3614.300048828125
  vertex 412500.0 5727500.0 3491.60009765625
  vertex 411500.0 5727500.0 3537.10009765625
 endloop
endfacet
facet normal -0.13173505663871765 -0.010110766626894474 -0.9912334084510803
 outer loop
  vertex 411500.0 5728500.0 3614.300048828125
  vertex 412500.0 5728500.0 3481.39990234375
  vertex 412500.0 5727500.0 3491.60009765625
 endloop
endfacet
facet normal -0.17227621376514435 -0.010047166608273983 -0.9849974513053894
 outer loop
  vertex 412500.0 5728500.0 3481.39990234375
  vertex 413500.0 5727500.0 3316.699951171875
  vertex 412500.0 5727500.0 3491.60009765625
 endloop
endfacet
facet normal -0.04314377158880234 0.12020742893218994 -0.9918108582496643
 outer loop
  vertex 412500.0 5728500.0 3481.39990234375
  vertex 413500.0 5728500.0 3437.89990234375
  vertex 413500.0 5727500.0 3316.699951171875
 endloop
endfacet
facet normal -0.038291335105895996 0.12023121863603592 -0.9920071363449097
 outer loop
  vertex 413500.0 5728500.0 3437.89990234375
  vertex 414500.0 5727500.0 3278.10009765625
  vertex 413500.0 5727500.0 3316.699951171875
 endloop
endfacet
facet normal -0.10575269162654877 0.05292581021785736 -0.9929830431938171
 outer loop
  vertex 413500.0 5728500.0 3437.89990234375
  vertex 414500.0 5728500.0 3331.39990234375
  vertex 414500.0 5727500.0 3278.10009765625
 endloop
endfacet
facet normal -0.008687536232173443 0.05322225019335747 -0.9985449314117432
 outer loop
  vertex 414500.0 5728500.0 3331.39990234375
  vertex 415500.0 5727500.0 3269.39990234375
  vertex 414500.0 5727500.0 3278.10009765625
 endloop
endfacet
facet normal -0.0181795135140419 0.043750863522291183 -0.9988770484924316
 outer loop
  vertex 414500.0 5728500.0 3331.39990234375
  vertex 415500.0 5728500.0 3313.199951171875
  vertex 415500.0 5727500.0 3269.39990234375
 endloop
endfacet
facet normal 0.004196135327219963 0.04375770688056946 -0.9990333914756775
 outer loop
  vertex 415500.0 5728500.0 3313.199951171875
  vertex 416500.0 5727500.0 3273.60009765625
  vertex 415500.0 5727500.0 3269.39990234375
 endloop
endfacet
facet normal 0.15793660283088684 0.19625933468341827 -0.9677491188049316
 outer loop
  vertex 415500.0 5728500.0 3313.199951171875
  vertex 416500.0 5728500.0 3476.39990234375
  vertex 416500.0 5727500.0 3273.60009765625
 endloop
endfacet
facet normal 0.012445618398487568 0.1987384557723999 -0.979973554611206
 outer loop
  vertex 416500.0 5728500.0 3476.39990234375
  vertex 417500.0 5727500.0 3286.300048828125
  vertex 416500.0 5727500.0 3273.60009765625
 endloop
endfacet
facet normal -0.02594519406557083 0.16159148514270782 -0.9865165948867798
 outer loop
  vertex 416500.0 5728500.0 3476.39990234375
  vertex 417500.0 5728500.0 3450.10009765625
  vertex 417500.0 5727500.0 3286.300048828125
 endloop
endfacet
facet normal -0.06724923849105835 0.16127994656562805 -0.9846147894859314
 outer loop
  vertex 417500.0 5728500.0 3450.10009765625
  vertex 418500.0 5727500.0 3218.0
  vertex 417500.0 5727500.0 3286.300048828125
 endloop
endfacet
facet normal -0.12215855717658997 0.1068640723824501 -0.98674076795578
 outer loop
  vertex 417500.0 5728500.0 3450.10009765625
  vertex 418500.0 5728500.0 3326.300048828125
  vertex 418500.0 5727500.0 3218.0
 endloop
endfacet
facet normal 0.017793022096157074 0.1076534166932106 -0.9940292239189148
 outer loop
  vertex 418500.0 5728500.0 3326.300048828125
  vertex 419500.0 5727500.0 3235.89990234375
  vertex 418500.0 5727500.0 3218.0
 endloop
endfacet
facet normal 0.0035840310156345367 0.09358683973550797 -0.9956046342849731
 outer loop
  vertex 418500.0 5728500.0 3326.300048828125
  vertex 419500.0 5728500.0 3329.89990234375
  vertex 419500.0 5727500.0 3235.89990234375
 endloop
endfacet
facet normal 0.004281134810298681 0.09358657896518707 -0.9956019520759583
 outer loop
  vertex 419500.0 5728500.0 3329.89990234375
  vertex 420500.0 5727500.0 3240.199951171875
  vertex 419500.0 5727500.0 3235.89990234375
 endloop
endfacet
facet normal -0.021045716479420662 0.06842409074306488 -0.9974342584609985
 outer loop
  vertex 419500.0 5728500.0 3329.89990234375
  vertex 420500.0 5728500.0 3308.800048828125
  vertex 420500.0 5727500.0 3240.199951171875
 endloop
endfacet
facet normal 0.008878922089934349 0.06843654811382294 -0.9976159334182739
 outer loop
  vertex 420500.0 5728500.0 3308.800048828125
  vertex 421500.0 5727500.0 3249.10009765625
  vertex 420500.0 5727500.0 3240.199951171875
 endloop
endfacet
facet normal -0.04065895825624466 0.018980862572789192 -0.9989927411079407
 outer loop
  vertex 420500.0 5728500.0 3308.800048828125
  vertex 421500.0 5728500.0 3268.10009765625
  vertex 421500.0 5727500.0 3249.10009765625
 endloop
endfacet
facet normal -0.006998565513640642 0.0189961064606905 -0.9997950196266174
 outer loop
  vertex 421500.0 5728500.0 3268.10009765625
  vertex 422500.0 5727500.0 3242.10009765625
  vertex 421500.0 5727500.0 3249.10009765625
 endloop
endfacet
facet normal 0.017281029373407364 0.04325281083583832 -0.9989146590232849
 outer loop
  vertex 421500.0 5728500.0 3268.10009765625
  vertex 422500.0 5728500.0 3285.39990234375
  vertex 422500.0 5727500.0 3242.10009765625
 endloop
endfacet
facet normal 0.03265191987156868 0.043236203491687775 -0.9985311627388
 outer loop
  vertex 422500.0 5728500.0 3285.39990234375
  vertex 423500.0 5727500.0 3274.800048828125
  vertex 422500.0 5727500.0 3242.10009765625
 endloop
endfacet
facet normal 0.02880767174065113 0.07456070929765701 -0.9968002438545227
 outer loop
  vertex 410500.0 5729500.0 3660.199951171875
  vertex 411500.0 5728500.0 3614.300048828125
  vertex 410500.0 5728500.0 3585.39990234375
 endloop
endfacet
facet normal -0.0739670842885971 -0.028211232274770737 -0.9968615770339966
 outer loop
  vertex 410500.0 5729500.0 3660.199951171875
  vertex 411500.0 5729500.0 3586.0
  vertex 411500.0 5728500.0 3614.300048828125
 endloop
endfacet
facet normal -0.13168998062610626 -0.028042355552315712 -0.9908942580223083
 outer loop
  vertex 411500.0 5729500.0 3586.0
  vertex 412500.0 5728500.0 3481.39990234375
  vertex 411500.0 5728500.0 3614.300048828125
 endloop
endfacet
facet normal -0.22204558551311493 -0.12084301561117172 -0.9675188660621643
 outer loop
  vertex 411500.0 5729500.0 3586.0
  vertex 412500.0 5729500.0 3356.5
  vertex 412500.0 5728500.0 3481.39990234375
 endloop
endfacet
facet normal -0.04312446340918541 -0.12382164597511292 -0.991366982460022
 outer loop
  vertex 412500.0 5729500.0 3356.5
  vertex 413500.0 5728500.0 3437.89990234375
  vertex 412500.0 5728500.0 3481.39990234375
 endloop
endfacet
facet normal -0.03504056856036186 -0.11584213376045227 -0.9926493763923645
 outer loop
  vertex 412500.0 5729500.0 3356.5
  vertex 413500.0 5729500.0 3321.199951171875
  vertex 413500.0 5728500.0 3437.89990234375
 endloop
endfacet
facet normal -0.10519520193338394 -0.11527018249034882 -0.9877483248710632
 outer loop
  vertex 413500.0 5729500.0 3321.199951171875
  vertex 414500.0 5728500.0 3331.39990234375
  vertex 413500.0 5728500.0 3437.89990234375
 endloop
endfacet
facet normal -0.0293642096221447 -0.03955177590250969 -0.9987859725952148
 outer loop
  vertex 413500.0 5729500.0 3321.199951171875
  vertex 414500.0 5729500.0 3291.800048828125
  vertex 414500.0 5728500.0 3331.39990234375
 endloop
endfacet
facet normal -0.01818268932402134 -0.039562296122312546 -0.9990516304969788
 outer loop
  vertex 414500.0 5729500.0 3291.800048828125
  vertex 415500.0 5728500.0 3313.199951171875
  vertex 414500.0 5728500.0 3331.39990234375
 endloop
endfacet
facet normal 0.012298609130084515 -0.009098788723349571 -0.9998829364776611
 outer loop
  vertex 414500.0 5729500.0 3291.800048828125
  vertex 415500.0 5729500.0 3304.10009765625
  vertex 415500.0 5728500.0 3313.199951171875
 endloop
endfacet
facet normal 0.1610625684261322 -0.008980675600469112 -0.9869033098220825
 outer loop
  vertex 415500.0 5729500.0 3304.10009765625
  vertex 416500.0 5728500.0 3476.39990234375
  vertex 415500.0 5728500.0 3313.199951171875
 endloop
endfacet
facet normal 0.07762111723423004 -0.09340333193540573 -0.9925979971885681
 outer loop
  vertex 415500.0 5729500.0 3304.10009765625
  vertex 416500.0 5729500.0 3382.300048828125
  vertex 416500.0 5728500.0 3476.39990234375
 endloop
endfacet
facet normal -0.026175161823630333 -0.09365388005971909 -0.9952607154846191
 outer loop
  vertex 416500.0 5729500.0 3382.300048828125
  vertex 417500.0 5728500.0 3450.10009765625
  vertex 416500.0 5728500.0 3476.39990234375
 endloop
endfacet
facet normal 0.1584731936454773 0.09182000905275345 -0.9830846190452576
 outer loop
  vertex 416500.0 5729500.0 3382.300048828125
  vertex 417500.0 5729500.0 3543.5
  vertex 417500.0 5728500.0 3450.10009765625
 endloop
endfacet
facet normal -0.12233767658472061 0.09229663014411926 -0.9881876111030579
 outer loop
  vertex 417500.0 5729500.0 3543.5
  vertex 418500.0 5728500.0 3326.300048828125
  vertex 417500.0 5728500.0 3450.10009765625
 endloop
endfacet
facet normal -0.0964575707912445 0.11819980293512344 -0.9882938265800476
 outer loop
  vertex 417500.0 5729500.0 3543.5
  vertex 418500.0 5729500.0 3445.89990234375
  vertex 418500.0 5728500.0 3326.300048828125
 endloop
endfacet
facet normal 0.0035743555054068565 0.11875277757644653 -0.9929174780845642
 outer loop
  vertex 418500.0 5729500.0 3445.89990234375
  vertex 419500.0 5728500.0 3329.89990234375
  vertex 418500.0 5728500.0 3326.300048828125
 endloop
endfacet
facet normal -0.10933853685855865 0.005963920149952173 -0.9939866662025452
 outer loop
  vertex 418500.0 5729500.0 3445.89990234375
  vertex 419500.0 5729500.0 3335.89990234375
  vertex 419500.0 5728500.0 3329.89990234375
 endloop
endfacet
facet normal -0.021094778552651405 0.0059985569678246975 -0.9997594952583313
 outer loop
  vertex 419500.0 5729500.0 3335.89990234375
  vertex 420500.0 5728500.0 3308.800048828125
  vertex 419500.0 5728500.0 3329.89990234375
 endloop
endfacet
facet normal 0.15876004099845886 0.18504208326339722 -0.9698219895362854
 outer loop
  vertex 419500.0 5729500.0 3335.89990234375
  vertex 420500.0 5729500.0 3499.60009765625
  vertex 420500.0 5728500.0 3308.800048828125
 endloop
endfacet
facet normal -0.03994683921337128 0.18726947903633118 -0.9814959764480591
 outer loop
  vertex 420500.0 5729500.0 3499.60009765625
  vertex 421500.0 5728500.0 3268.10009765625
  vertex 420500.0 5728500.0 3308.800048828125
 endloop
endfacet
facet normal -0.14668963849544525 0.08152703195810318 -0.9858171939849854
 outer loop
  vertex 420500.0 5729500.0 3499.60009765625
  vertex 421500.0 5729500.0 3350.800048828125
  vertex 421500.0 5728500.0 3268.10009765625
 endloop
endfacet
facet normal 0.01723838597536087 0.08240634202957153 -0.9964497089385986
 outer loop
  vertex 421500.0 5729500.0 3350.800048828125
  vertex 422500.0 5728500.0 3285.39990234375
  vertex 421500.0 5728500.0 3268.10009765625
 endloop
endfacet
facet normal -0.05780171975493431 0.007487250026315451 -0.9983000159263611
 outer loop
  vertex 421500.0 5729500.0 3350.800048828125
  vertex 422500.0 5729500.0 3292.89990234375
  vertex 422500.0 5728500.0 3285.39990234375
 endloop
endfacet
facet normal -0.22235684096813202 -0.10880472511053085 -0.9688751101493835
 outer loop
  vertex 411500.0 5730500.0 3473.699951171875
  vertex 412500.0 5729500.0 3356.5
  vertex 411500.0 5729500.0 3586.0
 endloop
endfacet
facet normal -0.11356017738580704 0.0028811348602175713 -0.9935269355773926
 outer loop
  vertex 411500.0 5730500.0 3473.699951171875
  vertex 412500.0 5730500.0 3359.39990234375
  vertex 412500.0 5729500.0 3356.5
 endloop
endfacet
facet normal -0.03527792915701866 0.0028980851639062166 -0.9993733167648315
 outer loop
  vertex 412500.0 5730500.0 3359.39990234375
  vertex 413500.0 5729500.0 3321.199951171875
  vertex 412500.0 5729500.0 3356.5
 endloop
endfacet
facet normal -0.04355783760547638 -0.005394694861024618 -0.9990363717079163
 outer loop
  vertex 412500.0 5730500.0 3359.39990234375
  vertex 413500.0 5730500.0 3315.800048828125
  vertex 413500.0 5729500.0 3321.199951171875
 endloop
endfacet
facet normal -0.029386775568127632 -0.005397491157054901 -0.9995535016059875
 outer loop
  vertex 413500.0 5730500.0 3315.800048828125
  vertex 414500.0 5729500.0 3291.800048828125
  vertex 413500.0 5729500.0 3321.199951171875
 endloop
endfacet
facet normal -0.004499099217355251 0.019496096298098564 -0.9997997879981995
 outer loop
  vertex 413500.0 5730500.0 3315.800048828125
  vertex 414500.0 5730500.0 3311.300048828125
  vertex 414500.0 5729500.0 3291.800048828125
 endloop
endfacet
facet normal 0.012296780943870544 0.01949481852352619 -0.9997343420982361
 outer loop
  vertex 414500.0 5730500.0 3311.300048828125
  vertex 415500.0 5729500.0 3304.10009765625
  vertex 414500.0 5729500.0 3291.800048828125
 endloop
endfacet
facet normal 0.01499461941421032 0.022191988304257393 -0.9996412992477417
 outer loop
  vertex 414500.0 5730500.0 3311.300048828125
  vertex 415500.0 5730500.0 3326.300048828125
  vertex 415500.0 5729500.0 3304.10009765625
 endloop
endfacet
facet normal 0.077942855656147 0.02212696336209774 -0.9967122673988342
 outer loop
  vertex 415500.0 5730500.0 3326.300048828125
  vertex 416500.0 5729500.0 3382.300048828125
  vertex 415500.0 5729500.0 3304.10009765625
 endloop
endfacet
facet normal 0.019683171063661575 -0.03626912832260132 -0.9991482496261597
 outer loop
  vertex 415500.0 5730500.0 3326.300048828125
  vertex 416500.0 5730500.0 3346.0
  vertex 416500.0 5729500.0 3382.300048828125
 endloop
endfacet
facet normal 0.15904338657855988 -0.03581441566348076 -0.9866217970848083
 outer loop
  vertex 416500.0 5730500.0 3346.0
  vertex 417500.0 5729500.0 3543.5
  vertex 416500.0 5729500.0 3382.300048828125
 endloop
endfacet
facet normal 0.09893961995840073 -0.09666191786527634 -0.9903875589370728
 outer loop
  vertex 416500.0 5730500.0 3346.0
  vertex 417500.0 5730500.0 3445.89990234375
  vertex 417500.0 5729500.0 3543.5
 endloop
endfacet
facet normal -0.09668345749378204 -0.09668345749378204 -0.9906082153320312
 outer loop
  vertex 417500.0 5730500.0 3445.89990234375
  vertex 418500.0 5729500.0 3445.89990234375
  vertex 417500.0 5729500.0 3543.5
 endloop
endfacet
facet normal 0.04818775877356529 0.04818775877356529 -0.9976752400398254
 outer loop
  vertex 417500.0 5730500.0 3445.89990234375
  vertex 418500.0 5730500.0 3494.199951171875
  vertex 418500.0 5729500.0 3445.89990234375
 endloop
endfacet
facet normal -0.10921468585729599 0.047955222427845 -0.9928607940673828
 outer loop
  vertex 418500.0 5730500.0 3494.199951171875
  vertex 419500.0 5729500.0 3335.89990234375
  vertex 418500.0 5729500.0 3445.89990234375
 endloop
endfacet
facet normal -0.07314082980155945 0.08417195081710815 -0.9937633275985718
 outer loop
  vertex 418500.0 5730500.0 3494.199951171875
  vertex 419500.0 5730500.0 3420.60009765625
  vertex 419500.0 5729500.0 3335.89990234375
 endloop
endfacet
facet normal 0.16098849475383759 0.08329713344573975 -0.9834349751472473
 outer loop
  vertex 419500.0 5730500.0 3420.60009765625
  vertex 420500.0 5729500.0 3499.60009765625
  vertex 419500.0 5729500.0 3335.89990234375
 endloop
endfacet
facet normal -0.012248183600604534 -0.09091506898403168 -0.9957833290100098
 outer loop
  vertex 419500.0 5730500.0 3420.60009765625
  vertex 420500.0 5730500.0 3408.300048828125
  vertex 420500.0 5729500.0 3499.60009765625
 endloop
endfacet
facet normal -0.14658309519290924 -0.08993978053331375 -0.9851011633872986
 outer loop
  vertex 420500.0 5730500.0 3408.300048828125
  vertex 421500.0 5729500.0 3350.800048828125
  vertex 420500.0 5729500.0 3499.60009765625
 endloop
endfacet
facet normal 0.01575581729412079 0.07309484481811523 -0.9972005486488342
 outer loop
  vertex 420500.0 5730500.0 3408.300048828125
  vertex 421500.0 5730500.0 3424.10009765625
  vertex 421500.0 5729500.0 3350.800048828125
 endloop
endfacet
facet normal -0.05764918401837349 0.07298234105110168 -0.9956656694412231
 outer loop
  vertex 421500.0 5730500.0 3424.10009765625
  vertex 422500.0 5729500.0 3292.89990234375
  vertex 421500.0 5729500.0 3350.800048828125
 endloop
endfacet
facet normal -0.04340481385588646 0.08392293006181717 -0.9955264925956726
 outer loop
  vertex 412500.0 5731500.0 3443.699951171875
  vertex 413500.0 5730500.0 3315.800048828125
  vertex 412500.0 5730500.0 3359.39990234375
 endloop
endfacet
facet normal -0.022071588784456253 0.10508878529071808 -0.9942178726196289
 outer loop
  vertex 412500.0 5731500.0 3443.699951171875
  vertex 413500.0 5731500.0 3421.5
  vertex 413500.0 5730500.0 3315.800048828125
 endloop
endfacet
facet normal -0.004475025925785303 0.10511334240436554 -0.9944502115249634
 outer loop
  vertex 413500.0 5731500.0 3421.5
  vertex 414500.0 5730500.0 3311.300048828125
  vertex 413500.0 5730500.0 3315.800048828125
 endloop
endfacet
facet normal 0.04824051260948181 -0.011685529723763466 -0.9987673759460449
 outer loop
  vertex 417500.0 5731500.0 3434.199951171875
  vertex 418500.0 5730500.0 3494.199951171875
  vertex 417500.0 5730500.0 3445.89990234375
 endloop
endfacet
facet normal 0.1066676452755928 0.047076862305402756 -0.9931796789169312
 outer loop
  vertex 417500.0 5731500.0 3434.199951171875
  vertex 418500.0 5731500.0 3541.60009765625
  vertex 418500.0 5730500.0 3494.199951171875
 endloop
endfacet
facet normal -0.0733194351196289 0.04721955582499504 -0.9961900115013123
 outer loop
  vertex 418500.0 5731500.0 3541.60009765625
  vertex 419500.0 5730500.0 3420.60009765625
  vertex 418500.0 5730500.0 3494.199951171875
 endloop
endfacet
endsolid
