solid
facet normal -0.09559061378240585 -0.059122972190380096 -0.9936634302139282
 outer loop
  vertex 512500.0 5394500.0 6556.60009765625
  vertex 513500.0 5394500.0 6460.39990234375
  vertex 513500.0 5393500.0 6519.89990234375
 endloop
endfacet
facet normal -0.10050947964191437 -0.05909418687224388 -0.9931795597076416
 outer loop
  vertex 513500.0 5394500.0 6460.39990234375
  vertex 514500.0 5393500.0 6418.7001953125
  vertex 513500.0 5393500.0 6519.89990234375
 endloop
endfacet
facet normal -0.07860143482685089 -0.037059471011161804 -0.9962170720100403
 outer loop
  vertex 513500.0 5394500.0 6460.39990234375
  vertex 514500.0 5394500.0 6381.5
  vertex 514500.0 5393500.0 6418.7001953125
 endloop
endfacet
facet normal -0.029965801164507866 -0.03715778887271881 -0.9988600611686707
 outer loop
  vertex 514500.0 5394500.0 6381.5
  vertex 515500.0 5393500.0 6388.7001953125
  vertex 514500.0 5393500.0 6418.7001953125
 endloop
endfacet
facet normal -0.30302396416664124 -0.3095136284828186 -0.9013199806213379
 outer loop
  vertex 514500.0 5394500.0 6381.5
  vertex 515500.0 5394500.0 6045.2998046875
  vertex 515500.0 5393500.0 6388.7001953125
 endloop
endfacet
facet normal 0.005012436769902706 -0.3247799277305603 -0.9457762837409973
 outer loop
  vertex 515500.0 5394500.0 6045.2998046875
  vertex 516500.0 5393500.0 6394.0
  vertex 515500.0 5393500.0 6388.7001953125
 endloop
endfacet
facet normal 0.19982120394706726 -0.1384200155735016 -0.9700058698654175
 outer loop
  vertex 515500.0 5394500.0 6045.2998046875
  vertex 516500.0 5394500.0 6251.2998046875
  vertex 516500.0 5393500.0 6394.0
 endloop
endfacet
facet normal -0.17524170875549316 -0.09883667528629303 -0.9795517325401306
 outer loop
  vertex 507500.0 5395500.0 7061.39990234375
  vertex 508500.0 5395500.0 6882.5
  vertex 508500.0 5394500.0 6983.39990234375
 endloop
endfacet
facet normal -0.05494219437241554 -0.1549621820449829 -0.9863914251327515
 outer loop
  vertex 509500.0 5395500.0 6790.10009765625
  vertex 510500.0 5395500.0 6734.39990234375
  vertex 510500.0 5394500.0 6891.5
 endloop
endfacet
facet normal -0.1337328404188156 -0.1538025438785553 -0.9790098667144775
 outer loop
  vertex 510500.0 5395500.0 6734.39990234375
  vertex 511500.0 5394500.0 6754.89990234375
  vertex 510500.0 5394500.0 6891.5
 endloop
endfacet
facet normal -0.2277415543794632 -0.24704968929290771 -0.9418599009513855
 outer loop
  vertex 510500.0 5395500.0 6734.39990234375
  vertex 511500.0 5395500.0 6492.60009765625
  vertex 511500.0 5394500.0 6754.89990234375
 endloop
endfacet
facet normal -0.18837711215019226 -0.24917463958263397 -0.9499611258506775
 outer loop
  vertex 511500.0 5395500.0 6492.60009765625
  vertex 512500.0 5394500.0 6556.60009765625
  vertex 511500.0 5394500.0 6754.89990234375
 endloop
endfacet
facet normal 0.24705518782138824 0.1861947476863861 -0.9509444832801819
 outer loop
  vertex 511500.0 5395500.0 6492.60009765625
  vertex 512500.0 5395500.0 6752.39990234375
  vertex 512500.0 5394500.0 6556.60009765625
 endloop
endfacet
facet normal -0.09398960322141647 0.19130052626132965 -0.9770210385322571
 outer loop
  vertex 512500.0 5395500.0 6752.39990234375
  vertex 513500.0 5394500.0 6460.39990234375
  vertex 512500.0 5394500.0 6556.60009765625
 endloop
endfacet
facet normal -0.02930007316172123 0.2530654966831207 -0.9670053720474243
 outer loop
  vertex 512500.0 5395500.0 6752.39990234375
  vertex 513500.0 5395500.0 6722.10009765625
  vertex 513500.0 5394500.0 6460.39990234375
 endloop
endfacet
facet normal -0.07610801607370377 0.2524398863315582 -0.9646148085594177
 outer loop
  vertex 513500.0 5395500.0 6722.10009765625
  vertex 514500.0 5394500.0 6381.5
  vertex 513500.0 5394500.0 6460.39990234375
 endloop
endfacet
facet normal 0.01666012778878212 0.3372553288936615 -0.9412657022476196
 outer loop
  vertex 513500.0 5395500.0 6722.10009765625
  vertex 514500.0 5395500.0 6739.7998046875
  vertex 514500.0 5394500.0 6381.5
 endloop
endfacet
facet normal -0.3017452657222748 0.32158002257347107 -0.8975166082382202
 outer loop
  vertex 514500.0 5395500.0 6739.7998046875
  vertex 515500.0 5394500.0 6045.2998046875
  vertex 514500.0 5394500.0 6381.5
 endloop
endfacet
facet normal -0.30084171891212463 0.3224719762802124 -0.8974999189376831
 outer loop
  vertex 514500.0 5395500.0 6739.7998046875
  vertex 515500.0 5395500.0 6404.60009765625
  vertex 515500.0 5394500.0 6045.2998046875
 endloop
endfacet
facet normal 0.19032242894172668 0.3319558799266815 -0.9238953590393066
 outer loop
  vertex 515500.0 5395500.0 6404.60009765625
  vertex 516500.0 5394500.0 6251.2998046875
  vertex 515500.0 5394500.0 6045.2998046875
 endloop
endfacet
facet normal -0.15426498651504517 -0.3023216724395752 -0.9406402111053467
 outer loop
  vertex 505500.0 5396500.0 7535.0
  vertex 506500.0 5395500.0 7692.39990234375
  vertex 505500.0 5395500.0 7856.39990234375
 endloop
endfacet
facet normal -0.2837023138999939 -0.4194309413433075 -0.8623170852661133
 outer loop
  vertex 505500.0 5396500.0 7535.0
  vertex 506500.0 5396500.0 7206.0
  vertex 506500.0 5395500.0 7692.39990234375
 endloop
endfacet
facet normal -0.4935194253921509 -0.3804244101047516 -0.7821227312088013
 outer loop
  vertex 506500.0 5396500.0 7206.0
  vertex 507500.0 5395500.0 7061.39990234375
  vertex 506500.0 5395500.0 7692.39990234375
 endloop
endfacet
facet normal -0.1611376255750656 -0.018452122807502747 -0.9867594242095947
 outer loop
  vertex 506500.0 5396500.0 7206.0
  vertex 507500.0 5396500.0 7042.7001953125
  vertex 507500.0 5395500.0 7061.39990234375
 endloop
endfacet
facet normal -0.17607414722442627 -0.018404342234134674 -0.984204888343811
 outer loop
  vertex 507500.0 5396500.0 7042.7001953125
  vertex 508500.0 5395500.0 6882.5
  vertex 507500.0 5395500.0 7061.39990234375
 endloop
endfacet
facet normal -0.11521495133638382 0.04376387596130371 -0.9923760890960693
 outer loop
  vertex 507500.0 5396500.0 7042.7001953125
  vertex 508500.0 5396500.0 6926.60009765625
  vertex 508500.0 5395500.0 6882.5
 endloop
endfacet
facet normal -0.09191938489675522 0.04387075826525688 -0.9947995543479919
 outer loop
  vertex 508500.0 5396500.0 6926.60009765625
  vertex 509500.0 5395500.0 6790.10009765625
  vertex 508500.0 5395500.0 6882.5
 endloop
endfacet
facet normal -0.059519462287425995 0.07633951306343079 -0.9953038692474365
 outer loop
  vertex 508500.0 5396500.0 6926.60009765625
  vertex 509500.0 5396500.0 6866.7998046875
  vertex 509500.0 5395500.0 6790.10009765625
 endloop
endfacet
facet normal -0.055451635271310806 0.07635742425918579 -0.9955374002456665
 outer loop
  vertex 509500.0 5396500.0 6866.7998046875
  vertex 510500.0 5395500.0 6734.39990234375
  vertex 509500.0 5395500.0 6790.10009765625
 endloop
endfacet
facet normal -0.028336022049188614 0.10330210626125336 -0.9942463636398315
 outer loop
  vertex 509500.0 5396500.0 6866.7998046875
  vertex 510500.0 5396500.0 6838.2998046875
  vertex 510500.0 5395500.0 6734.39990234375
 endloop
endfacet
facet normal -0.2338373363018036 0.10047847777605057 -0.9670699238777161
 outer loop
  vertex 510500.0 5396500.0 6838.2998046875
  vertex 511500.0 5395500.0 6492.60009765625
  vertex 510500.0 5395500.0 6734.39990234375
 endloop
endfacet
facet normal 0.09122069180011749 0.40562620759010315 -0.9094758033752441
 outer loop
  vertex 510500.0 5396500.0 6838.2998046875
  vertex 511500.0 5396500.0 6938.60009765625
  vertex 511500.0 5395500.0 6492.60009765625
 endloop
endfacet
facet normal 0.23086142539978027 0.39632126688957214 -0.8886127471923828
 outer loop
  vertex 511500.0 5396500.0 6938.60009765625
  vertex 512500.0 5395500.0 6752.39990234375
  vertex 511500.0 5395500.0 6492.60009765625
 endloop
endfacet
facet normal -0.025664199143648148 0.15813113749027252 -0.9870845675468445
 outer loop
  vertex 511500.0 5396500.0 6938.60009765625
  vertex 512500.0 5396500.0 6912.60009765625
  vertex 512500.0 5395500.0 6752.39990234375
 endloop
endfacet
facet normal -0.02990494854748249 0.15811248123645782 -0.9869681596755981
 outer loop
  vertex 512500.0 5396500.0 6912.60009765625
  vertex 513500.0 5395500.0 6722.10009765625
  vertex 512500.0 5395500.0 6752.39990234375
 endloop
endfacet
facet normal 0.07943027466535568 0.2626197338104248 -0.9616245031356812
 outer loop
  vertex 512500.0 5396500.0 6912.60009765625
  vertex 513500.0 5396500.0 6995.2001953125
  vertex 513500.0 5395500.0 6722.10009765625
 endloop
endfacet
facet normal 0.017071926966309547 0.26341375708580017 -0.9645318984985352
 outer loop
  vertex 513500.0 5396500.0 6995.2001953125
  vertex 514500.0 5395500.0 6739.7998046875
  vertex 513500.0 5395500.0 6722.10009765625
 endloop
endfacet
facet normal -0.3288794457912445 -0.08875402808189392 -0.9401920437812805
 outer loop
  vertex 513500.0 5396500.0 6995.2001953125
  vertex 514500.0 5396500.0 6645.39990234375
  vertex 514500.0 5395500.0 6739.7998046875
 endloop
endfacet
facet normal -0.3165544867515564 -0.08914898335933685 -0.9443758130073547
 outer loop
  vertex 514500.0 5396500.0 6645.39990234375
  vertex 515500.0 5395500.0 6404.60009765625
  vertex 514500.0 5395500.0 6739.7998046875
 endloop
endfacet
facet normal 0.32348862290382385 -0.06579292565584183 -0.9439418911933899
 outer loop
  vertex 504500.0 5397500.0 7122.60009765625
  vertex 505500.0 5397500.0 7465.2998046875
  vertex 505500.0 5396500.0 7535.0
 endloop
endfacet
facet normal -0.31183797121047974 -0.06606433540582657 -0.9478357434272766
 outer loop
  vertex 505500.0 5397500.0 7465.2998046875
  vertex 506500.0 5396500.0 7206.0
  vertex 505500.0 5396500.0 7535.0
 endloop
endfacet
facet normal -0.17043492197990417 0.08413790166378021 -0.9817701578140259
 outer loop
  vertex 505500.0 5397500.0 7465.2998046875
  vertex 506500.0 5397500.0 7291.7001953125
  vertex 506500.0 5396500.0 7206.0
 endloop
endfacet
facet normal -0.16059167683124542 0.08427895605564117 -0.9834161400794983
 outer loop
  vertex 506500.0 5397500.0 7291.7001953125
  vertex 507500.0 5396500.0 7042.7001953125
  vertex 506500.0 5396500.0 7206.0
 endloop
endfacet
facet normal -0.13009163737297058 0.11512254923582077 -0.9847959280014038
 outer loop
  vertex 506500.0 5397500.0 7291.7001953125
  vertex 507500.0 5397500.0 7159.60009765625
  vertex 507500.0 5396500.0 7042.7001953125
 endloop
endfacet
facet normal -0.1145557090640068 0.11534488201141357 -0.9866978526115417
 outer loop
  vertex 507500.0 5397500.0 7159.60009765625
  vertex 508500.0 5396500.0 6926.60009765625
  vertex 507500.0 5396500.0 7042.7001953125
 endloop
endfacet
facet normal -0.4263436198234558 -0.2220284789800644 -0.8768890500068665
 outer loop
  vertex 507500.0 5397500.0 7159.60009765625
  vertex 508500.0 5397500.0 6673.39990234375
  vertex 508500.0 5396500.0 6926.60009765625
 endloop
endfacet
facet normal -0.057873714715242386 -0.24504292011260986 -0.9677833318710327
 outer loop
  vertex 508500.0 5397500.0 6673.39990234375
  vertex 509500.0 5396500.0 6866.7998046875
  vertex 508500.0 5396500.0 6926.60009765625
 endloop
endfacet
facet normal 0.23910878598690033 0.05158405378460884 -0.9696216583251953
 outer loop
  vertex 508500.0 5397500.0 6673.39990234375
  vertex 509500.0 5397500.0 6920.0
  vertex 509500.0 5396500.0 6866.7998046875
 endloop
endfacet
facet normal -0.028448237106204033 0.05310356989502907 -0.9981837272644043
 outer loop
  vertex 509500.0 5397500.0 6920.0
  vertex 510500.0 5396500.0 6838.2998046875
  vertex 509500.0 5396500.0 6866.7998046875
 endloop
endfacet
facet normal -0.00877617672085762 0.07270465046167374 -0.9973149299621582
 outer loop
  vertex 509500.0 5397500.0 6920.0
  vertex 510500.0 5397500.0 6911.2001953125
  vertex 510500.0 5396500.0 6838.2998046875
 endloop
endfacet
facet normal 0.09953803569078445 0.07234635949134827 -0.9924002289772034
 outer loop
  vertex 510500.0 5397500.0 6911.2001953125
  vertex 511500.0 5396500.0 6938.60009765625
  vertex 510500.0 5396500.0 6838.2998046875
 endloop
endfacet
facet normal 0.16642679274082184 0.13968147337436676 -0.9761102795600891
 outer loop
  vertex 510500.0 5397500.0 6911.2001953125
  vertex 511500.0 5397500.0 7081.7001953125
  vertex 511500.0 5396500.0 6938.60009765625
 endloop
endfacet
facet normal -0.025729289278388023 0.14161014556884766 -0.9895880222320557
 outer loop
  vertex 511500.0 5397500.0 7081.7001953125
  vertex 512500.0 5396500.0 6912.60009765625
  vertex 511500.0 5396500.0 6938.60009765625
 endloop
endfacet
facet normal 0.026486067101359367 0.19236741960048676 -0.9809654951095581
 outer loop
  vertex 511500.0 5397500.0 7081.7001953125
  vertex 512500.0 5397500.0 7108.7001953125
  vertex 512500.0 5396500.0 6912.60009765625
 endloop
endfacet
facet normal 0.08079130947589874 0.1918058693408966 -0.978101909160614
 outer loop
  vertex 512500.0 5397500.0 7108.7001953125
  vertex 513500.0 5396500.0 6995.2001953125
  vertex 512500.0 5396500.0 6912.60009765625
 endloop
endfacet
facet normal -0.4578123390674591 -0.3658447265625 -0.810287356376648
 outer loop
  vertex 512500.0 5397500.0 7108.7001953125
  vertex 513500.0 5397500.0 6543.7001953125
  vertex 513500.0 5396500.0 6995.2001953125
 endloop
endfacet
facet normal -0.30374813079833984 -0.392058789730072 -0.8683472871780396
 outer loop
  vertex 513500.0 5397500.0 6543.7001953125
  vertex 514500.0 5396500.0 6645.39990234375
  vertex 513500.0 5396500.0 6995.2001953125
 endloop
endfacet
facet normal 0.12915565073490143 0.02834896557033062 -0.9912190437316895
 outer loop
  vertex 513500.0 5397500.0 6543.7001953125
  vertex 514500.0 5397500.0 6674.0
  vertex 514500.0 5396500.0 6645.39990234375
 endloop
endfacet
facet normal -0.005499466322362423 0.01279856264591217 -0.9999029636383057
 outer loop
  vertex 503500.0 5398500.0 7140.89990234375
  vertex 504500.0 5398500.0 7135.39990234375
  vertex 504500.0 5397500.0 7122.60009765625
 endloop
endfacet
facet normal 0.32416731119155884 0.01210762094706297 -0.945922315120697
 outer loop
  vertex 504500.0 5398500.0 7135.39990234375
  vertex 505500.0 5397500.0 7465.2998046875
  vertex 504500.0 5397500.0 7122.60009765625
 endloop
endfacet
facet normal -0.1975030153989792 -0.4795645773410797 -0.8549914360046387
 outer loop
  vertex 504500.0 5398500.0 7135.39990234375
  vertex 505500.0 5398500.0 6904.39990234375
  vertex 505500.0 5397500.0 7465.2998046875
 endloop
endfacet
facet normal -0.14970235526561737 -0.48368796706199646 -0.8623428344726562
 outer loop
  vertex 505500.0 5398500.0 6904.39990234375
  vertex 506500.0 5397500.0 7291.7001953125
  vertex 505500.0 5397500.0 7465.2998046875
 endloop
endfacet
facet normal 0.17212387919425964 -0.20134182274341583 -0.9642794728279114
 outer loop
  vertex 505500.0 5398500.0 6904.39990234375
  vertex 506500.0 5398500.0 7082.89990234375
  vertex 506500.0 5397500.0 7291.7001953125
 endloop
endfacet
facet normal -0.1282435655593872 -0.20270459353923798 -0.9708060622215271
 outer loop
  vertex 506500.0 5398500.0 7082.89990234375
  vertex 507500.0 5397500.0 7159.60009765625
  vertex 506500.0 5397500.0 7291.7001953125
 endloop
endfacet
facet normal 0.06177491694688797 -0.01477040909230709 -0.9979808330535889
 outer loop
  vertex 506500.0 5398500.0 7082.89990234375
  vertex 507500.0 5398500.0 7144.7998046875
  vertex 507500.0 5397500.0 7159.60009765625
 endloop
endfacet
facet normal -0.4372187852859497 -0.013309262692928314 -0.899256706237793
 outer loop
  vertex 507500.0 5398500.0 7144.7998046875
  vertex 508500.0 5397500.0 6673.39990234375
  vertex 507500.0 5397500.0 7159.60009765625
 endloop
endfacet
facet normal -0.6050195693969727 -0.24842263758182526 -0.7564637660980225
 outer loop
  vertex 507500.0 5398500.0 7144.7998046875
  vertex 508500.0 5398500.0 6345.0
  vertex 508500.0 5397500.0 6673.39990234375
 endloop
endfacet
facet normal 0.22811272740364075 -0.30378007888793945 -0.9250310063362122
 outer loop
  vertex 508500.0 5398500.0 6345.0
  vertex 509500.0 5397500.0 6920.0
  vertex 508500.0 5397500.0 6673.39990234375
 endloop
endfacet
facet normal -0.21957512199878693 -0.6419763565063477 -0.734610915184021
 outer loop
  vertex 508500.0 5398500.0 6345.0
  vertex 509500.0 5398500.0 6046.10009765625
  vertex 509500.0 5397500.0 6920.0
 endloop
endfacet
facet normal -0.006625952199101448 -0.6580208539962769 -0.7529705166816711
 outer loop
  vertex 509500.0 5398500.0 6046.10009765625
  vertex 510500.0 5397500.0 6911.2001953125
  vertex 509500.0 5397500.0 6920.0
 endloop
endfacet
facet normal 0.6189785003662109 -0.058585088700056076 -0.7832198143005371
 outer loop
  vertex 509500.0 5398500.0 6046.10009765625
  vertex 510500.0 5398500.0 6836.39990234375
  vertex 510500.0 5397500.0 6911.2001953125
 endloop
endfacet
facet normal 0.1676194667816162 -0.07353656738996506 -0.9831053614616394
 outer loop
  vertex 510500.0 5398500.0 6836.39990234375
  vertex 511500.0 5397500.0 7081.7001953125
  vertex 510500.0 5397500.0 6911.2001953125
 endloop
endfacet
facet normal 0.33389222621917725 0.104083351790905 -0.9368471503257751
 outer loop
  vertex 510500.0 5398500.0 6836.39990234375
  vertex 511500.0 5398500.0 7192.7998046875
  vertex 511500.0 5397500.0 7081.7001953125
 endloop
endfacet
facet normal 0.026825236156582832 0.11038049310445786 -0.9935272932052612
 outer loop
  vertex 511500.0 5398500.0 7192.7998046875
  vertex 512500.0 5397500.0 7108.7001953125
  vertex 511500.0 5397500.0 7081.7001953125
 endloop
endfacet
facet normal -0.24566446244716644 -0.16533666849136353 -0.9551506638526917
 outer loop
  vertex 511500.0 5398500.0 7192.7998046875
  vertex 512500.0 5398500.0 6935.60009765625
  vertex 512500.0 5397500.0 7108.7001953125
 endloop
endfacet
facet normal -0.48642078042030334 -0.14902563393115997 -0.8609217405319214
 outer loop
  vertex 512500.0 5398500.0 6935.60009765625
  vertex 513500.0 5397500.0 6543.7001953125
  vertex 512500.0 5397500.0 7108.7001953125
 endloop
endfacet
facet normal 0.22577647864818573 0.5428017377853394 -0.8089445233345032
 outer loop
  vertex 512500.0 5398500.0 6935.60009765625
  vertex 513500.0 5398500.0 7214.7001953125
  vertex 513500.0 5397500.0 6543.7001953125
 endloop
endfacet
facet normal 0.10757128149271011 0.5539557337760925 -0.8255674242973328
 outer loop
  vertex 513500.0 5398500.0 7214.7001953125
  vertex 514500.0 5397500.0 6674.0
  vertex 513500.0 5397500.0 6543.7001953125
 endloop
endfacet
facet normal -0.11012866348028183 0.3852664530277252 -0.916210412979126
 outer loop
  vertex 513500.0 5398500.0 7214.7001953125
  vertex 514500.0 5398500.0 7094.5
  vertex 514500.0 5397500.0 6674.0
 endloop
endfacet
facet normal 0.21326443552970886 0.37870678305625916 -0.900610625743866
 outer loop
  vertex 514500.0 5398500.0 7094.5
  vertex 515500.0 5397500.0 6910.7998046875
  vertex 514500.0 5397500.0 6674.0
 endloop
endfacet
facet normal -0.2579229772090912 -0.08106401562690735 -0.9627587199211121
 outer loop
  vertex 514500.0 5398500.0 7094.5
  vertex 515500.0 5398500.0 6826.60009765625
  vertex 515500.0 5397500.0 6910.7998046875
 endloop
endfacet
facet normal -0.22465279698371887 0.06107473000884056 -0.9725229740142822
 outer loop
  vertex 504500.0 5399500.0 7198.2001953125
  vertex 505500.0 5398500.0 6904.39990234375
  vertex 504500.0 5398500.0 7135.39990234375
 endloop
endfacet
facet normal -0.15311753749847412 0.13451586663722992 -0.9790099859237671
 outer loop
  vertex 504500.0 5399500.0 7198.2001953125
  vertex 505500.0 5399500.0 7041.7998046875
  vertex 505500.0 5398500.0 6904.39990234375
 endloop
endfacet
facet normal 0.17413672804832458 0.13404129445552826 -0.9755558967590332
 outer loop
  vertex 505500.0 5399500.0 7041.7998046875
  vertex 506500.0 5398500.0 7082.89990234375
  vertex 505500.0 5398500.0 6904.39990234375
 endloop
endfacet
facet normal 0.16923180222511292 0.1290733963251114 -0.9770878553390503
 outer loop
  vertex 505500.0 5399500.0 7041.7998046875
  vertex 506500.0 5399500.0 7215.0
  vertex 506500.0 5398500.0 7082.89990234375
 endloop
endfacet
facet normal 0.061251550912857056 0.1307164579629898 -0.9895258545875549
 outer loop
  vertex 506500.0 5399500.0 7215.0
  vertex 507500.0 5398500.0 7144.7998046875
  vertex 506500.0 5398500.0 7082.89990234375
 endloop
endfacet
facet normal -0.10230531543493271 -0.03251076117157936 -0.9942216277122498
 outer loop
  vertex 506500.0 5399500.0 7215.0
  vertex 507500.0 5399500.0 7112.10009765625
  vertex 507500.0 5398500.0 7144.7998046875
 endloop
endfacet
facet normal -0.6243961453437805 -0.025528352707624435 -0.7806905508041382
 outer loop
  vertex 507500.0 5399500.0 7112.10009765625
  vertex 508500.0 5398500.0 6345.0
  vertex 507500.0 5398500.0 7144.7998046875
 endloop
endfacet
facet normal -0.008693650364875793 0.6031375527381897 -0.7975897789001465
 outer loop
  vertex 507500.0 5399500.0 7112.10009765625
  vertex 508500.0 5399500.0 7101.2001953125
  vertex 508500.0 5398500.0 6345.0
 endloop
endfacet
facet normal -0.23190894722938538 0.5867167115211487 -0.7758748531341553
 outer loop
  vertex 508500.0 5399500.0 7101.2001953125
  vertex 509500.0 5398500.0 6046.10009765625
  vertex 508500.0 5398500.0 6345.0
 endloop
endfacet
facet normal -0.7648494243621826 -0.09213131666183472 -0.6375869512557983
 outer loop
  vertex 508500.0 5399500.0 7101.2001953125
  vertex 509500.0 5399500.0 5901.60009765625
  vertex 509500.0 5398500.0 6046.10009765625
 endloop
endfacet
facet normal 0.6160968542098999 -0.1126483902335167 -0.7795736193656921
 outer loop
  vertex 509500.0 5399500.0 5901.60009765625
  vertex 510500.0 5398500.0 6836.39990234375
  vertex 509500.0 5398500.0 6046.10009765625
 endloop
endfacet
facet normal 0.2909627854824066 -0.48174160718917847 -0.8265987634658813
 outer loop
  vertex 509500.0 5399500.0 5901.60009765625
  vertex 510500.0 5399500.0 6253.60009765625
  vertex 510500.0 5398500.0 6836.39990234375
 endloop
endfacet
facet normal 0.2942865192890167 -0.4812294840812683 -0.8257200121879578
 outer loop
  vertex 510500.0 5399500.0 6253.60009765625
  vertex 511500.0 5398500.0 7192.7998046875
  vertex 510500.0 5398500.0 6836.39990234375
 endloop
endfacet
facet normal -0.11201836913824081 -0.7375088334083557 -0.6659824252128601
 outer loop
  vertex 510500.0 5399500.0 6253.60009765625
  vertex 511500.0 5399500.0 6085.39990234375
  vertex 511500.0 5398500.0 7192.7998046875
 endloop
endfacet
facet normal -0.16987015306949615 -0.7313935160636902 -0.6604601740837097
 outer loop
  vertex 511500.0 5399500.0 6085.39990234375
  vertex 512500.0 5398500.0 6935.60009765625
  vertex 511500.0 5398500.0 7192.7998046875
 endloop
endfacet
facet normal 0.7749450206756592 0.30369237065315247 -0.5542843341827393
 outer loop
  vertex 511500.0 5399500.0 6085.39990234375
  vertex 512500.0 5399500.0 7483.5
  vertex 512500.0 5398500.0 6935.60009765625
 endloop
endfacet
facet normal 0.23775024712085724 0.46672627329826355 -0.851845920085907
 outer loop
  vertex 512500.0 5399500.0 7483.5
  vertex 513500.0 5398500.0 7214.7001953125
  vertex 512500.0 5398500.0 6935.60009765625
 endloop
endfacet
facet normal -0.06366071850061417 0.19919586181640625 -0.9778897166252136
 outer loop
  vertex 512500.0 5399500.0 7483.5
  vertex 513500.0 5399500.0 7418.39990234375
  vertex 513500.0 5398500.0 7214.7001953125
 endloop
endfacet
facet normal -0.1169729009270668 0.19823049008846283 -0.9731506109237671
 outer loop
  vertex 513500.0 5399500.0 7418.39990234375
  vertex 514500.0 5398500.0 7094.5
  vertex 513500.0 5398500.0 7214.7001953125
 endloop
endfacet
facet normal -0.5512955188751221 -0.2990143299102783 -0.7788861989974976
 outer loop
  vertex 513500.0 5399500.0 7418.39990234375
  vertex 514500.0 5399500.0 6710.60009765625
  vertex 514500.0 5398500.0 7094.5
 endloop
endfacet
facet normal -0.2426297664642334 -0.34768787026405334 -0.9056732058525085
 outer loop
  vertex 514500.0 5399500.0 6710.60009765625
  vertex 515500.0 5398500.0 6826.60009765625
  vertex 514500.0 5398500.0 7094.5
 endloop
endfacet
facet normal -0.173391655087471 -0.2828225791454315 -0.9433698654174805
 outer loop
  vertex 514500.0 5399500.0 6710.60009765625
  vertex 515500.0 5399500.0 6526.7998046875
  vertex 515500.0 5398500.0 6826.60009765625
 endloop
endfacet
facet normal 0.0729866772890091 -0.2864064574241638 -0.9553242325782776
 outer loop
  vertex 515500.0 5399500.0 6526.7998046875
  vertex 516500.0 5398500.0 6903.0
  vertex 515500.0 5398500.0 6826.60009765625
 endloop
endfacet
facet normal -0.31512778997421265 -0.5936786532402039 -0.7404325008392334
 outer loop
  vertex 515500.0 5399500.0 6526.7998046875
  vertex 516500.0 5399500.0 6101.2001953125
  vertex 516500.0 5398500.0 6903.0
 endloop
endfacet
facet normal -0.19467754662036896 -0.6078962683677673 -0.7697809934616089
 outer loop
  vertex 517500.0 5399500.0 5891.7998046875
  vertex 518500.0 5399500.0 5638.89990234375
  vertex 518500.0 5398500.0 6428.60009765625
 endloop
endfacet
facet normal 0.16972219944000244 0.1046556606888771 -0.9799191951751709
 outer loop
  vertex 505500.0 5400500.0 7148.60009765625
  vertex 506500.0 5399500.0 7215.0
  vertex 505500.0 5399500.0 7041.7998046875
 endloop
endfacet
facet normal -0.1494492143392563 -0.21355384588241577 -0.9654324054718018
 outer loop
  vertex 505500.0 5400500.0 7148.60009765625
  vertex 506500.0 5400500.0 6993.7998046875
  vertex 506500.0 5399500.0 7215.0
 endloop
endfacet
facet normal -0.09996794164180756 -0.21489748358726501 -0.9715067744255066
 outer loop
  vertex 506500.0 5400500.0 6993.7998046875
  vertex 507500.0 5399500.0 7112.10009765625
  vertex 506500.0 5399500.0 7215.0
 endloop
endfacet
facet normal 0.01940186507999897 -0.09830307215452194 -0.9949674010276794
 outer loop
  vertex 506500.0 5400500.0 6993.7998046875
  vertex 507500.0 5400500.0 7013.2998046875
  vertex 507500.0 5399500.0 7112.10009765625
 endloop
endfacet
facet normal -0.01084645465016365 -0.09831579774618149 -0.9950961470603943
 outer loop
  vertex 507500.0 5400500.0 7013.2998046875
  vertex 508500.0 5399500.0 7101.2001953125
  vertex 507500.0 5399500.0 7112.10009765625
 endloop
endfacet
facet normal 0.020948564633727074 -0.06673653423786163 -0.9975507259368896
 outer loop
  vertex 507500.0 5400500.0 7013.2998046875
  vertex 508500.0 5400500.0 7034.2998046875
  vertex 508500.0 5399500.0 7101.2001953125
 endloop
endfacet
facet normal -0.767412543296814 -0.0427977629005909 -0.6397236585617065
 outer loop
  vertex 508500.0 5400500.0 7034.2998046875
  vertex 509500.0 5399500.0 5901.60009765625
  vertex 508500.0 5399500.0 7101.2001953125
 endloop
endfacet
facet normal -0.14682267606258392 0.6736324429512024 -0.7243359684944153
 outer loop
  vertex 508500.0 5400500.0 7034.2998046875
  vertex 509500.0 5400500.0 6831.60009765625
  vertex 509500.0 5399500.0 5901.60009765625
 endloop
endfacet
facet normal 0.24960120022296906 0.6594577431678772 -0.7090943455696106
 outer loop
  vertex 509500.0 5400500.0 6831.60009765625
  vertex 510500.0 5399500.0 6253.60009765625
  vertex 509500.0 5399500.0 5901.60009765625
 endloop
endfacet
facet normal -0.683311402797699 -0.2980656623840332 -0.6665151119232178
 outer loop
  vertex 509500.0 5400500.0 6831.60009765625
  vertex 510500.0 5400500.0 5806.39990234375
  vertex 510500.0 5399500.0 6253.60009765625
 endloop
endfacet
facet normal -0.15176719427108765 -0.4035091698169708 -0.902301013469696
 outer loop
  vertex 510500.0 5400500.0 5806.39990234375
  vertex 511500.0 5399500.0 6085.39990234375
  vertex 510500.0 5399500.0 6253.60009765625
 endloop
endfacet
facet normal -0.30070286989212036 -0.5231799483299255 -0.7974086403846741
 outer loop
  vertex 510500.0 5400500.0 5806.39990234375
  vertex 511500.0 5400500.0 5429.2998046875
  vertex 511500.0 5399500.0 6085.39990234375
 endloop
endfacet
facet normal 0.7598873972892761 -0.3565998077392578 -0.5435143113136292
 outer loop
  vertex 511500.0 5400500.0 5429.2998046875
  vertex 512500.0 5399500.0 7483.5
  vertex 511500.0 5399500.0 6085.39990234375
 endloop
endfacet
facet normal 0.1318829506635666 -0.8644893169403076 -0.48504143953323364
 outer loop
  vertex 511500.0 5400500.0 5429.2998046875
  vertex 512500.0 5400500.0 5701.2001953125
  vertex 512500.0 5399500.0 7483.5
 endloop
endfacet
facet normal -0.03183829039335251 -0.8716647624969482 -0.489067405462265
 outer loop
  vertex 512500.0 5400500.0 5701.2001953125
  vertex 513500.0 5399500.0 7418.39990234375
  vertex 512500.0 5399500.0 7483.5
 endloop
endfacet
facet normal 0.6328230500221252 -0.44963905215263367 -0.630364716053009
 outer loop
  vertex 512500.0 5400500.0 5701.2001953125
  vertex 513500.0 5400500.0 6705.10009765625
  vertex 513500.0 5399500.0 7418.39990234375
 endloop
endfacet
facet normal -0.4992711544036865 -0.5031507611274719 -0.7053847312927246
 outer loop
  vertex 513500.0 5400500.0 6705.10009765625
  vertex 514500.0 5399500.0 6710.60009765625
  vertex 513500.0 5399500.0 7418.39990234375
 endloop
endfacet
facet normal 0.31803977489471436 0.31311795115470886 -0.894878625869751
 outer loop
  vertex 513500.0 5400500.0 6705.10009765625
  vertex 514500.0 5400500.0 7060.5
  vertex 514500.0 5399500.0 6710.60009765625
 endloop
endfacet
facet normal -0.1709335595369339 0.3254055678844452 -0.9299961924552917
 outer loop
  vertex 514500.0 5400500.0 7060.5
  vertex 515500.0 5399500.0 6526.7998046875
  vertex 514500.0 5399500.0 6710.60009765625
 endloop
endfacet
facet normal -0.17503772675991058 0.3216003477573395 -0.9305562973022461
 outer loop
  vertex 514500.0 5400500.0 7060.5
  vertex 515500.0 5400500.0 6872.39990234375
  vertex 515500.0 5399500.0 6526.7998046875
 endloop
endfacet
facet normal -0.37319308519363403 0.3030443787574768 -0.8768642544746399
 outer loop
  vertex 515500.0 5400500.0 6872.39990234375
  vertex 516500.0 5399500.0 6101.2001953125
  vertex 515500.0 5399500.0 6526.7998046875
 endloop
endfacet
facet normal -0.6569314002990723 -0.07865811884403229 -0.7498359680175781
 outer loop
  vertex 515500.0 5400500.0 6872.39990234375
  vertex 516500.0 5400500.0 5996.2998046875
  vertex 516500.0 5399500.0 6101.2001953125
 endloop
endfacet
facet normal -0.20388327538967133 -0.10213655978441238 -0.9736527800559998
 outer loop
  vertex 516500.0 5400500.0 5996.2998046875
  vertex 517500.0 5399500.0 5891.7998046875
  vertex 516500.0 5399500.0 6101.2001953125
 endloop
endfacet
facet normal 0.29884958267211914 0.3898719549179077 -0.871027410030365
 outer loop
  vertex 516500.0 5400500.0 5996.2998046875
  vertex 517500.0 5400500.0 6339.39990234375
  vertex 517500.0 5399500.0 5891.7998046875
 endloop
endfacet
facet normal -0.22491729259490967 0.39807450771331787 -0.8893530368804932
 outer loop
  vertex 517500.0 5400500.0 6339.39990234375
  vertex 518500.0 5399500.0 5638.89990234375
  vertex 517500.0 5399500.0 5891.7998046875
 endloop
endfacet
facet normal -0.7582451105117798 -0.39479175209999084 -0.5188484787940979
 outer loop
  vertex 517500.0 5400500.0 6339.39990234375
  vertex 518500.0 5400500.0 4878.0
  vertex 518500.0 5399500.0 5638.89990234375
 endloop
endfacet
facet normal 0.018939075991511345 0.23737011849880219 -0.9712346196174622
 outer loop
  vertex 506500.0 5401500.0 7238.2001953125
  vertex 507500.0 5400500.0 7013.2998046875
  vertex 506500.0 5400500.0 6993.7998046875
 endloop
endfacet
facet normal 0.06146315485239029 0.27711325883865356 -0.9588693976402283
 outer loop
  vertex 506500.0 5401500.0 7238.2001953125
  vertex 507500.0 5401500.0 7302.2998046875
  vertex 507500.0 5400500.0 7013.2998046875
 endloop
endfacet
facet normal 0.020170295611023903 0.27758169174194336 -0.9604902267456055
 outer loop
  vertex 507500.0 5401500.0 7302.2998046875
  vertex 508500.0 5400500.0 7034.2998046875
  vertex 507500.0 5400500.0 7013.2998046875
 endloop
endfacet
facet normal -0.337617963552475 -0.08641950786113739 -0.9373077154159546
 outer loop
  vertex 507500.0 5401500.0 7302.2998046875
  vertex 508500.0 5401500.0 6942.10009765625
  vertex 508500.0 5400500.0 7034.2998046875
 endloop
endfacet
facet normal -0.1978534758090973 -0.0899953544139862 -0.9760916233062744
 outer loop
  vertex 508500.0 5401500.0 6942.10009765625
  vertex 509500.0 5400500.0 6831.60009765625
  vertex 508500.0 5400500.0 7034.2998046875
 endloop
endfacet
facet normal -0.22085079550743103 -0.11381565034389496 -0.968643844127655
 outer loop
  vertex 508500.0 5401500.0 6942.10009765625
  vertex 509500.0 5401500.0 6714.10009765625
  vertex 509500.0 5400500.0 6831.60009765625
 endloop
endfacet
facet normal -0.7134528756141663 -0.08177009224891663 -0.6959156394004822
 outer loop
  vertex 509500.0 5401500.0 6714.10009765625
  vertex 510500.0 5400500.0 5806.39990234375
  vertex 509500.0 5400500.0 6831.60009765625
 endloop
endfacet
facet normal -0.6300842761993408 0.0717536211013794 -0.773204505443573
 outer loop
  vertex 509500.0 5401500.0 6714.10009765625
  vertex 510500.0 5401500.0 5899.2001953125
  vertex 510500.0 5400500.0 5806.39990234375
 endloop
endfacet
facet normal -0.35152286291122437 0.08650602400302887 -0.9321739673614502
 outer loop
  vertex 510500.0 5401500.0 5899.2001953125
  vertex 511500.0 5400500.0 5429.2998046875
  vertex 510500.0 5400500.0 5806.39990234375
 endloop
endfacet
facet normal -0.3986116647720337 0.0320795513689518 -0.916558563709259
 outer loop
  vertex 510500.0 5401500.0 5899.2001953125
  vertex 511500.0 5401500.0 5464.2998046875
  vertex 511500.0 5400500.0 5429.2998046875
 endloop
endfacet
facet normal 0.26222512125968933 0.03375456854701042 -0.9644162058830261
 outer loop
  vertex 511500.0 5401500.0 5464.2998046875
  vertex 512500.0 5400500.0 5701.2001953125
  vertex 511500.0 5400500.0 5429.2998046875
 endloop
endfacet
facet normal -0.25175949931144714 -0.4542102813720703 -0.854581892490387
 outer loop
  vertex 511500.0 5401500.0 5464.2998046875
  vertex 512500.0 5401500.0 5169.7001953125
  vertex 512500.0 5400500.0 5701.2001953125
 endloop
endfacet
facet normal 0.6633511781692505 -0.35120153427124023 -0.660774290561676
 outer loop
  vertex 512500.0 5401500.0 5169.7001953125
  vertex 513500.0 5400500.0 6705.10009765625
  vertex 512500.0 5400500.0 5701.2001953125
 endloop
endfacet
facet normal 0.5219990611076355 -0.5182051062583923 -0.677480936050415
 outer loop
  vertex 512500.0 5401500.0 5169.7001953125
  vertex 513500.0 5401500.0 5940.2001953125
  vertex 513500.0 5400500.0 6705.10009765625
 endloop
endfacet
facet normal 0.2716713845729828 -0.5846974849700928 -0.7644104957580566
 outer loop
  vertex 513500.0 5401500.0 5940.2001953125
  vertex 514500.0 5400500.0 7060.5
  vertex 513500.0 5400500.0 6705.10009765625
 endloop
endfacet
facet normal -0.008732479996979237 -0.7498575448989868 -0.6615417003631592
 outer loop
  vertex 513500.0 5401500.0 5940.2001953125
  vertex 514500.0 5401500.0 5927.0
  vertex 514500.0 5400500.0 7060.5
 endloop
endfacet
facet normal -0.12348835170269012 -0.744146466255188 -0.6565032601356506
 outer loop
  vertex 514500.0 5401500.0 5927.0
  vertex 515500.0 5400500.0 6872.39990234375
  vertex 514500.0 5400500.0 7060.5
 endloop
endfacet
facet normal 0.6407162547111511 -0.0810818001627922 -0.7634843587875366
 outer loop
  vertex 514500.0 5401500.0 5927.0
  vertex 515500.0 5401500.0 6766.2001953125
  vertex 515500.0 5400500.0 6872.39990234375
 endloop
endfacet
facet normal -0.6568807363510132 -0.07962622493505478 -0.7497782111167908
 outer loop
  vertex 515500.0 5401500.0 6766.2001953125
  vertex 516500.0 5400500.0 5996.2998046875
  vertex 515500.0 5400500.0 6872.39990234375
 endloop
endfacet
facet normal -0.24885867536067963 0.4222320020198822 -0.8716591000556946
 outer loop
  vertex 515500.0 5401500.0 6766.2001953125
  vertex 516500.0 5401500.0 6480.7001953125
  vertex 516500.0 5400500.0 5996.2998046875
 endloop
endfacet
facet normal 0.29503560066223145 0.41654130816459656 -0.8599112033843994
 outer loop
  vertex 516500.0 5401500.0 6480.7001953125
  vertex 517500.0 5400500.0 6339.39990234375
  vertex 516500.0 5400500.0 5996.2998046875
 endloop
endfacet
facet normal -0.6702401041984558 -0.6106434464454651 -0.42177337408065796
 outer loop
  vertex 516500.0 5401500.0 6480.7001953125
  vertex 517500.0 5401500.0 4891.60009765625
  vertex 517500.0 5400500.0 6339.39990234375
 endloop
endfacet
facet normal -0.6389148235321045 -0.6329689025878906 -0.43719369173049927
 outer loop
  vertex 517500.0 5401500.0 4891.60009765625
  vertex 518500.0 5400500.0 4878.0
  vertex 517500.0 5400500.0 6339.39990234375
 endloop
endfacet
facet normal 0.026070689782500267 0.03965546563267708 -0.9988732933998108
 outer loop
  vertex 517500.0 5401500.0 4891.60009765625
  vertex 518500.0 5401500.0 4917.7001953125
  vertex 518500.0 5400500.0 4878.0
 endloop
endfacet
facet normal 0.34536558389663696 0.037228044122457504 -0.9377294778823853
 outer loop
  vertex 518500.0 5401500.0 4917.7001953125
  vertex 519500.0 5400500.0 5246.2998046875
  vertex 518500.0 5400500.0 4878.0
 endloop
endfacet
facet normal 0.39774152636528015 0.09797612577676773 -0.9122512340545654
 outer loop
  vertex 518500.0 5401500.0 4917.7001953125
  vertex 519500.0 5401500.0 5353.7001953125
  vertex 519500.0 5400500.0 5246.2998046875
 endloop
endfacet
facet normal 0.06188938394188881 0.25286930799484253 -0.9655188918113708
 outer loop
  vertex 506500.0 5402500.0 7500.10009765625
  vertex 507500.0 5401500.0 7302.2998046875
  vertex 506500.0 5401500.0 7238.2001953125
 endloop
endfacet
facet normal -0.2808687388896942 -0.09190302342176437 -0.9553358554840088
 outer loop
  vertex 506500.0 5402500.0 7500.10009765625
  vertex 507500.0 5402500.0 7206.10009765625
  vertex 507500.0 5401500.0 7302.2998046875
 endloop
endfacet
facet normal -0.3375062346458435 -0.09013888984918594 -0.9369975924491882
 outer loop
  vertex 507500.0 5402500.0 7206.10009765625
  vertex 508500.0 5401500.0 6942.10009765625
  vertex 507500.0 5401500.0 7302.2998046875
 endloop
endfacet
facet normal -0.5590025782585144 -0.362076073884964 -0.7459335923194885
 outer loop
  vertex 507500.0 5402500.0 7206.10009765625
  vertex 508500.0 5402500.0 6456.7001953125
  vertex 508500.0 5401500.0 6942.10009765625
 endloop
endfacet
facet normal -0.20093002915382385 -0.42776936292648315 -0.8812720775604248
 outer loop
  vertex 508500.0 5402500.0 6456.7001953125
  vertex 509500.0 5401500.0 6714.10009765625
  vertex 508500.0 5401500.0 6942.10009765625
 endloop
endfacet
facet normal -0.05401552841067314 -0.2992279529571533 -0.9526515603065491
 outer loop
  vertex 508500.0 5402500.0 6456.7001953125
  vertex 509500.0 5402500.0 6400.0
  vertex 509500.0 5401500.0 6714.10009765625
 endloop
endfacet
facet normal -0.613779604434967 -0.2365790456533432 -0.7531963586807251
 outer loop
  vertex 509500.0 5402500.0 6400.0
  vertex 510500.0 5401500.0 5899.2001953125
  vertex 509500.0 5401500.0 6714.10009765625
 endloop
endfacet
facet normal -0.1962348371744156 0.2751050591468811 -0.9411742687225342
 outer loop
  vertex 509500.0 5402500.0 6400.0
  vertex 510500.0 5402500.0 6191.5
  vertex 510500.0 5401500.0 5899.2001953125
 endloop
endfacet
facet normal -0.38521808385849 0.2589079737663269 -0.8857616782188416
 outer loop
  vertex 510500.0 5402500.0 6191.5
  vertex 511500.0 5401500.0 5464.2998046875
  vertex 510500.0 5401500.0 5899.2001953125
 endloop
endfacet
facet normal -0.6398254036903381 -0.08433222770690918 -0.7638792991638184
 outer loop
  vertex 510500.0 5402500.0 6191.5
  vertex 511500.0 5402500.0 5353.89990234375
  vertex 511500.0 5401500.0 5464.2998046875
 endloop
endfacet
facet normal -0.2810204327106476 -0.10531116276979446 -0.953906238079071
 outer loop
  vertex 511500.0 5402500.0 5353.89990234375
  vertex 512500.0 5401500.0 5169.7001953125
  vertex 511500.0 5401500.0 5464.2998046875
 endloop
endfacet
facet normal -0.18172281980514526 -0.0005901172989979386 -0.983349621295929
 outer loop
  vertex 511500.0 5402500.0 5353.89990234375
  vertex 512500.0 5402500.0 5169.10009765625
  vertex 512500.0 5401500.0 5169.7001953125
 endloop
endfacet
facet normal 0.6103421449661255 -0.00047536002239212394 -0.7921378016471863
 outer loop
  vertex 512500.0 5402500.0 5169.10009765625
  vertex 513500.0 5401500.0 5940.2001953125
  vertex 512500.0 5401500.0 5169.7001953125
 endloop
endfacet
facet normal 0.3800126016139984 -0.29578930139541626 -0.8764126896858215
 outer loop
  vertex 512500.0 5402500.0 5169.10009765625
  vertex 513500.0 5402500.0 5602.7001953125
  vertex 513500.0 5401500.0 5940.2001953125
 endloop
endfacet
facet normal -0.012506097555160522 -0.31975364685058594 -0.9474181532859802
 outer loop
  vertex 513500.0 5402500.0 5602.7001953125
  vertex 514500.0 5401500.0 5927.0
  vertex 513500.0 5401500.0 5940.2001953125
 endloop
endfacet
facet normal -0.09061673283576965 -0.3880550265312195 -0.9171706438064575
 outer loop
  vertex 513500.0 5402500.0 5602.7001953125
  vertex 514500.0 5402500.0 5503.89990234375
  vertex 514500.0 5401500.0 5927.0
 endloop
endfacet
facet normal 0.6115179061889648 -0.308309406042099 -0.7286913990974426
 outer loop
  vertex 514500.0 5402500.0 5503.89990234375
  vertex 515500.0 5401500.0 6766.2001953125
  vertex 514500.0 5401500.0 5927.0
 endloop
endfacet
facet normal -0.12427156418561935 -0.8233271837234497 -0.5537950396537781
 outer loop
  vertex 514500.0 5402500.0 5503.89990234375
  vertex 515500.0 5402500.0 5279.5
  vertex 515500.0 5401500.0 6766.2001953125
 endloop
endfacet
facet normal -0.15735849738121033 -0.8194217681884766 -0.5511680841445923
 outer loop
  vertex 515500.0 5402500.0 5279.5
  vertex 516500.0 5401500.0 6480.7001953125
  vertex 515500.0 5401500.0 6766.2001953125
 endloop
endfacet
facet normal -0.20882561802864075 -0.8300279378890991 -0.5171513557434082
 outer loop
  vertex 515500.0 5402500.0 5279.5
  vertex 516500.0 5402500.0 4875.7001953125
  vertex 516500.0 5401500.0 6480.7001953125
 endloop
endfacet
facet normal -0.6433411836624146 -0.6497781872749329 -0.4048462212085724
 outer loop
  vertex 516500.0 5402500.0 4875.7001953125
  vertex 517500.0 5401500.0 4891.60009765625
  vertex 516500.0 5401500.0 6480.7001953125
 endloop
endfacet
facet normal -0.003699459368363023 -0.019596198573708534 -0.9998010993003845
 outer loop
  vertex 516500.0 5402500.0 4875.7001953125
  vertex 517500.0 5402500.0 4872.0
  vertex 517500.0 5401500.0 4891.60009765625
 endloop
endfacet
facet normal 0.02608620561659336 -0.019589664414525032 -0.9994677305221558
 outer loop
  vertex 517500.0 5402500.0 4872.0
  vertex 518500.0 5401500.0 4917.7001953125
  vertex 517500.0 5401500.0 4891.60009765625
 endloop
endfacet
facet normal 0.5560007691383362 0.5266122221946716 -0.643072783946991
 outer loop
  vertex 517500.0 5402500.0 4872.0
  vertex 518500.0 5402500.0 5736.60009765625
  vertex 518500.0 5401500.0 4917.7001953125
 endloop
endfacet
facet normal 0.3196311593055725 0.6003347039222717 -0.7330990433692932
 outer loop
  vertex 518500.0 5402500.0 5736.60009765625
  vertex 519500.0 5401500.0 5353.7001953125
  vertex 518500.0 5401500.0 4917.7001953125
 endloop
endfacet
facet normal 0.17998792231082916 0.5035435557365417 -0.8450137376785278
 outer loop
  vertex 518500.0 5402500.0 5736.60009765625
  vertex 519500.0 5402500.0 5949.60009765625
  vertex 519500.0 5401500.0 5353.7001953125
 endloop
endfacet
facet normal 0.622861921787262 0.40047845244407654 -0.6720566153526306
 outer loop
  vertex 519500.0 5402500.0 5949.60009765625
  vertex 520500.0 5401500.0 6280.5
  vertex 519500.0 5401500.0 5353.7001953125
 endloop
endfacet
facet normal 0.6356684565544128 0.42170998454093933 -0.64659583568573
 outer loop
  vertex 519500.0 5402500.0 5949.60009765625
  vertex 520500.0 5402500.0 6932.7001953125
  vertex 520500.0 5401500.0 6280.5
 endloop
endfacet
facet normal 0.012600134126842022 -0.3761483430862427 -0.9264737963676453
 outer loop
  vertex 505500.0 5403500.0 7080.5
  vertex 506500.0 5403500.0 7094.10009765625
  vertex 506500.0 5402500.0 7500.10009765625
 endloop
endfacet
facet normal -0.26282790303230286 -0.3629527986049652 -0.8939723968505859
 outer loop
  vertex 506500.0 5403500.0 7094.10009765625
  vertex 507500.0 5402500.0 7206.10009765625
  vertex 506500.0 5402500.0 7500.10009765625
 endloop
endfacet
facet normal -0.171222522854805 -0.27711382508277893 -0.945457935333252
 outer loop
  vertex 506500.0 5403500.0 7094.10009765625
  vertex 507500.0 5403500.0 6913.0
  vertex 507500.0 5402500.0 7206.10009765625
 endloop
endfacet
facet normal -0.5838480591773987 -0.22835062444210052 -0.779087483882904
 outer loop
  vertex 507500.0 5403500.0 6913.0
  vertex 508500.0 5402500.0 6456.7001953125
  vertex 507500.0 5402500.0 7206.10009765625
 endloop
endfacet
facet normal -0.2477739453315735 0.18606781959533691 -0.950782299041748
 outer loop
  vertex 507500.0 5403500.0 6913.0
  vertex 508500.0 5403500.0 6652.39990234375
  vertex 508500.0 5402500.0 6456.7001953125
 endloop
endfacet
facet normal -0.055558715015649796 0.1917598694562912 -0.9798679947853088
 outer loop
  vertex 508500.0 5403500.0 6652.39990234375
  vertex 509500.0 5402500.0 6400.0
  vertex 508500.0 5402500.0 6456.7001953125
 endloop
endfacet
facet normal -0.5169257521629333 -0.31613773107528687 -0.7955153584480286
 outer loop
  vertex 508500.0 5403500.0 6652.39990234375
  vertex 509500.0 5403500.0 6002.60009765625
  vertex 509500.0 5402500.0 6400.0
 endloop
endfacet
facet normal -0.19022275507450104 -0.3625635802745819 -0.9123393297195435
 outer loop
  vertex 509500.0 5403500.0 6002.60009765625
  vertex 510500.0 5402500.0 6191.5
  vertex 509500.0 5402500.0 6400.0
 endloop
endfacet
facet normal 0.21688738465309143 0.032586704939603806 -0.9756525754928589
 outer loop
  vertex 509500.0 5403500.0 6002.60009765625
  vertex 510500.0 5403500.0 6224.89990234375
  vertex 510500.0 5402500.0 6191.5
 endloop
endfacet
facet normal -0.6419023871421814 0.025596315041184425 -0.7663589715957642
 outer loop
  vertex 510500.0 5403500.0 6224.89990234375
  vertex 511500.0 5402500.0 5353.89990234375
  vertex 510500.0 5402500.0 6191.5
 endloop
endfacet
facet normal -0.46606412529945374 0.2682737708091736 -0.843097448348999
 outer loop
  vertex 510500.0 5403500.0 6224.89990234375
  vertex 511500.0 5403500.0 5672.10009765625
  vertex 511500.0 5402500.0 5353.89990234375
 endloop
endfacet
facet normal -0.17343096435070038 0.29862457513809204 -0.9384801387786865
 outer loop
  vertex 511500.0 5403500.0 5672.10009765625
  vertex 512500.0 5402500.0 5169.10009765625
  vertex 511500.0 5402500.0 5353.89990234375
 endloop
endfacet
facet normal -0.04051007702946663 0.4163626730442047 -0.908295750617981
 outer loop
  vertex 511500.0 5403500.0 5672.10009765625
  vertex 512500.0 5403500.0 5627.5
  vertex 512500.0 5402500.0 5169.10009765625
 endloop
endfacet
facet normal 0.36670270562171936 0.38767629861831665 -0.8457163572311401
 outer loop
  vertex 512500.0 5403500.0 5627.5
  vertex 513500.0 5402500.0 5602.7001953125
  vertex 512500.0 5402500.0 5169.10009765625
 endloop
endfacet
facet normal -0.473145067691803 -0.45442768931388855 -0.7547378540039062
 outer loop
  vertex 512500.0 5403500.0 5627.5
  vertex 513500.0 5403500.0 5000.60009765625
  vertex 513500.0 5402500.0 5602.7001953125
 endloop
endfacet
facet normal -0.08434046804904938 -0.5139802098274231 -0.8536457419395447
 outer loop
  vertex 513500.0 5403500.0 5000.60009765625
  vertex 514500.0 5402500.0 5503.89990234375
  vertex 513500.0 5402500.0 5602.7001953125
 endloop
endfacet
facet normal 0.2902677655220032 -0.18252094089984894 -0.9393778443336487
 outer loop
  vertex 513500.0 5403500.0 5000.60009765625
  vertex 514500.0 5403500.0 5309.60009765625
  vertex 514500.0 5402500.0 5503.89990234375
 endloop
endfacet
facet normal -0.21512293815612793 -0.18626722693443298 -0.9586588144302368
 outer loop
  vertex 514500.0 5403500.0 5309.60009765625
  vertex 515500.0 5402500.0 5279.5
  vertex 514500.0 5402500.0 5503.89990234375
 endloop
endfacet
facet normal -0.38487231731414795 -0.35928210616111755 -0.8501704335212708
 outer loop
  vertex 514500.0 5403500.0 5309.60009765625
  vertex 515500.0 5403500.0 4856.89990234375
  vertex 515500.0 5402500.0 5279.5
 endloop
endfacet
facet normal -0.34861600399017334 -0.36484700441360474 -0.8633386492729187
 outer loop
  vertex 515500.0 5403500.0 4856.89990234375
  vertex 516500.0 5402500.0 4875.7001953125
  vertex 515500.0 5402500.0 5279.5
 endloop
endfacet
facet normal 0.0009998411405831575 -0.01779746450483799 -0.9998410940170288
 outer loop
  vertex 515500.0 5403500.0 4856.89990234375
  vertex 516500.0 5403500.0 4857.89990234375
  vertex 516500.0 5402500.0 4875.7001953125
 endloop
endfacet
facet normal -0.0036995839327573776 -0.017797352746129036 -0.9998347759246826
 outer loop
  vertex 516500.0 5403500.0 4857.89990234375
  vertex 517500.0 5402500.0 4872.0
  vertex 516500.0 5402500.0 4875.7001953125
 endloop
endfacet
facet normal 0.037762727588415146 0.023676641285419464 -0.9990061521530151
 outer loop
  vertex 516500.0 5403500.0 4857.89990234375
  vertex 517500.0 5403500.0 4895.7001953125
  vertex 517500.0 5402500.0 4872.0
 endloop
endfacet
facet normal 0.6539322733879089 0.017925424501299858 -0.756340742111206
 outer loop
  vertex 517500.0 5403500.0 4895.7001953125
  vertex 518500.0 5402500.0 5736.60009765625
  vertex 517500.0 5402500.0 4872.0
 endloop
endfacet
facet normal 0.47108757495880127 -0.24215975403785706 -0.8481953144073486
 outer loop
  vertex 517500.0 5403500.0 4895.7001953125
  vertex 518500.0 5403500.0 5451.10009765625
  vertex 518500.0 5402500.0 5736.60009765625
 endloop
endfacet
facet normal 0.20065082609653473 -0.26894745230674744 -0.9420226216316223
 outer loop
  vertex 518500.0 5403500.0 5451.10009765625
  vertex 519500.0 5402500.0 5949.60009765625
  vertex 518500.0 5402500.0 5736.60009765625
 endloop
endfacet
facet normal 0.2019873708486557 -0.26765233278274536 -0.9421057105064392
 outer loop
  vertex 518500.0 5403500.0 5451.10009765625
  vertex 519500.0 5403500.0 5665.5
  vertex 519500.0 5402500.0 5949.60009765625
 endloop
endfacet
facet normal 0.6870965361595154 -0.19855982065200806 -0.6989079713821411
 outer loop
  vertex 519500.0 5403500.0 5665.5
  vertex 520500.0 5402500.0 6932.7001953125
  vertex 519500.0 5402500.0 5949.60009765625
 endloop
endfacet
facet normal 0.8132427334785461 0.08344930410385132 -0.5759100914001465
 outer loop
  vertex 519500.0 5403500.0 5665.5
  vertex 520500.0 5403500.0 7077.60009765625
  vertex 520500.0 5402500.0 6932.7001953125
 endloop
endfacet
facet normal -0.14235910773277283 -0.6015084385871887 -0.7860798835754395
 outer loop
  vertex 506500.0 5404500.0 6328.89990234375
  vertex 507500.0 5403500.0 6913.0
  vertex 506500.0 5403500.0 7094.10009765625
 endloop
endfacet
facet normal 0.06641478091478348 -0.4528995454311371 -0.8890843987464905
 outer loop
  vertex 506500.0 5404500.0 6328.89990234375
  vertex 507500.0 5404500.0 6403.60009765625
  vertex 507500.0 5403500.0 6913.0
 endloop
endfacet
facet normal -0.22619007527828217 -0.44213801622390747 -0.8679585456848145
 outer loop
  vertex 507500.0 5404500.0 6403.60009765625
  vertex 508500.0 5403500.0 6652.39990234375
  vertex 507500.0 5403500.0 6913.0
 endloop
endfacet
facet normal 0.4697065055370331 0.25978562235832214 -0.843734085559845
 outer loop
  vertex 507500.0 5404500.0 6403.60009765625
  vertex 508500.0 5404500.0 6960.2998046875
  vertex 508500.0 5403500.0 6652.39990234375
 endloop
endfacet
facet normal -0.5275707840919495 0.24998314678668976 -0.8118974566459656
 outer loop
  vertex 508500.0 5404500.0 6960.2998046875
  vertex 509500.0 5403500.0 6002.60009765625
  vertex 508500.0 5403500.0 6652.39990234375
 endloop
endfacet
facet normal -0.6592806577682495 0.05861914902925491 -0.7496084570884705
 outer loop
  vertex 508500.0 5404500.0 6960.2998046875
  vertex 509500.0 5404500.0 6080.7998046875
  vertex 509500.0 5403500.0 6002.60009765625
 endloop
endfacet
facet normal 0.21637310087680817 0.07611483335494995 -0.9733392000198364
 outer loop
  vertex 509500.0 5404500.0 6080.7998046875
  vertex 510500.0 5403500.0 6224.89990234375
  vertex 509500.0 5403500.0 6002.60009765625
 endloop
endfacet
facet normal -0.28436264395713806 -0.409291535615921 -0.866959273815155
 outer loop
  vertex 509500.0 5404500.0 6080.7998046875
  vertex 510500.0 5404500.0 5752.7998046875
  vertex 510500.0 5403500.0 6224.89990234375
 endloop
endfacet
facet normal -0.4471363425254822 -0.38186177611351013 -0.8088576197624207
 outer loop
  vertex 510500.0 5404500.0 5752.7998046875
  vertex 511500.0 5403500.0 5672.10009765625
  vertex 510500.0 5403500.0 6224.89990234375
 endloop
endfacet
facet normal 0.48060542345046997 0.5365798473358154 -0.6936140060424805
 outer loop
  vertex 510500.0 5404500.0 5752.7998046875
  vertex 511500.0 5404500.0 6445.7001953125
  vertex 511500.0 5403500.0 5672.10009765625
 endloop
endfacet
facet normal -0.035254526883363724 0.6114993095397949 -0.790459156036377
 outer loop
  vertex 511500.0 5404500.0 6445.7001953125
  vertex 512500.0 5403500.0 5627.5
  vertex 511500.0 5403500.0 5672.10009765625
 endloop
endfacet
facet normal -0.4704238772392273 0.22723929584026337 -0.8526802659034729
 outer loop
  vertex 511500.0 5404500.0 6445.7001953125
  vertex 512500.0 5404500.0 5894.0
  vertex 512500.0 5403500.0 5627.5
 endloop
endfacet
facet normal -0.5181121826171875 0.22025351226329803 -0.8264672160148621
 outer loop
  vertex 512500.0 5404500.0 5894.0
  vertex 513500.0 5403500.0 5000.60009765625
  vertex 512500.0 5403500.0 5627.5
 endloop
endfacet
facet normal -0.5057979226112366 0.23559632897377014 -0.8298571109771729
 outer loop
  vertex 512500.0 5404500.0 5894.0
  vertex 513500.0 5404500.0 5284.5
  vertex 513500.0 5403500.0 5000.60009765625
 endloop
endfacet
facet normal 0.2849311828613281 0.26178619265556335 -0.9221073985099792
 outer loop
  vertex 513500.0 5404500.0 5284.5
  vertex 514500.0 5403500.0 5309.60009765625
  vertex 513500.0 5403500.0 5000.60009765625
 endloop
endfacet
facet normal -0.30337071418762207 -0.32584601640701294 -0.8954275846481323
 outer loop
  vertex 513500.0 5404500.0 5284.5
  vertex 514500.0 5404500.0 4945.7001953125
  vertex 514500.0 5403500.0 5309.60009765625
 endloop
endfacet
facet normal -0.3914591073989868 -0.31467169523239136 -0.8647204041481018
 outer loop
  vertex 514500.0 5404500.0 4945.7001953125
  vertex 515500.0 5403500.0 4856.89990234375
  vertex 514500.0 5403500.0 5309.60009765625
 endloop
endfacet
facet normal -0.09900548309087753 -0.010646524839103222 -0.9950299263000488
 outer loop
  vertex 514500.0 5404500.0 4945.7001953125
  vertex 515500.0 5404500.0 4846.2001953125
  vertex 515500.0 5403500.0 4856.89990234375
 endloop
endfacet
facet normal 0.0009999423054978251 -0.010699089616537094 -0.9999422430992126
 outer loop
  vertex 515500.0 5404500.0 4846.2001953125
  vertex 516500.0 5403500.0 4857.89990234375
  vertex 515500.0 5403500.0 4856.89990234375
 endloop
endfacet
facet normal 0.03397192806005478 0.022281881421804428 -0.9991743564605713
 outer loop
  vertex 515500.0 5404500.0 4846.2001953125
  vertex 516500.0 5404500.0 4880.2001953125
  vertex 516500.0 5403500.0 4857.89990234375
 endloop
endfacet
facet normal 0.037763942033052444 0.02227884717285633 -0.9990382790565491
 outer loop
  vertex 516500.0 5404500.0 4880.2001953125
  vertex 517500.0 5403500.0 4895.7001953125
  vertex 516500.0 5403500.0 4857.89990234375
 endloop
endfacet
facet normal 0.33623576164245605 0.3225208818912506 -0.8848309516906738
 outer loop
  vertex 516500.0 5404500.0 4880.2001953125
  vertex 517500.0 5404500.0 5260.2001953125
  vertex 517500.0 5403500.0 4895.7001953125
 endloop
endfacet
facet normal 0.46261975169181824 0.3036099076271057 -0.8329489827156067
 outer loop
  vertex 517500.0 5404500.0 5260.2001953125
  vertex 518500.0 5403500.0 5451.10009765625
  vertex 517500.0 5403500.0 4895.7001953125
 endloop
endfacet
facet normal 0.06761378794908524 -0.41971126198768616 -0.9051358699798584
 outer loop
  vertex 506500.0 5405500.0 5865.2001953125
  vertex 507500.0 5404500.0 6403.60009765625
  vertex 506500.0 5404500.0 6328.89990234375
 endloop
endfacet
facet normal 0.10615881532430649 -0.38698992133140564 -0.9159525632858276
 outer loop
  vertex 506500.0 5405500.0 5865.2001953125
  vertex 507500.0 5405500.0 5981.10009765625
  vertex 507500.0 5404500.0 6403.60009765625
 endloop
endfacet
facet normal 0.4563080370426178 -0.3463090658187866 -0.8196664452552795
 outer loop
  vertex 507500.0 5405500.0 5981.10009765625
  vertex 508500.0 5404500.0 6960.2998046875
  vertex 507500.0 5404500.0 6403.60009765625
 endloop
endfacet
facet normal -0.02180362120270729 -0.7105165123939514 -0.703342616558075
 outer loop
  vertex 507500.0 5405500.0 5981.10009765625
  vertex 508500.0 5405500.0 5950.10009765625
  vertex 508500.0 5404500.0 6960.2998046875
 endloop
endfacet
facet normal -0.526163637638092 -0.6043550968170166 -0.5982531309127808
 outer loop
  vertex 508500.0 5405500.0 5950.10009765625
  vertex 509500.0 5404500.0 6080.7998046875
  vertex 508500.0 5404500.0 6960.2998046875
 endloop
endfacet
facet normal -0.1528337001800537 -0.276826947927475 -0.9486878514289856
 outer loop
  vertex 508500.0 5405500.0 5950.10009765625
  vertex 509500.0 5405500.0 5789.0
  vertex 509500.0 5404500.0 6080.7998046875
 endloop
endfacet
facet normal -0.3003326654434204 -0.2671860456466675 -0.9156484007835388
 outer loop
  vertex 509500.0 5405500.0 5789.0
  vertex 510500.0 5404500.0 5752.7998046875
  vertex 509500.0 5404500.0 6080.7998046875
 endloop
endfacet
facet normal 0.04718251898884773 0.08321669697761536 -0.9954138994216919
 outer loop
  vertex 509500.0 5405500.0 5789.0
  vertex 510500.0 5405500.0 5836.39990234375
  vertex 510500.0 5404500.0 5752.7998046875
 endloop
endfacet
facet normal 0.5681992769241333 0.06855461001396179 -0.8200303316116333
 outer loop
  vertex 510500.0 5405500.0 5836.39990234375
  vertex 511500.0 5404500.0 6445.7001953125
  vertex 510500.0 5404500.0 5752.7998046875
 endloop
endfacet
facet normal -0.02965683862566948 -0.5415554642677307 -0.8401417136192322
 outer loop
  vertex 510500.0 5405500.0 5836.39990234375
  vertex 511500.0 5405500.0 5801.10009765625
  vertex 511500.0 5404500.0 6445.7001953125
 endloop
endfacet
facet normal -0.4206818640232086 -0.4915197789669037 -0.7625189423561096
 outer loop
  vertex 511500.0 5405500.0 5801.10009765625
  vertex 512500.0 5404500.0 5894.0
  vertex 511500.0 5404500.0 6445.7001953125
 endloop
endfacet
facet normal 0.021939629688858986 -0.0707053542137146 -0.9972559213638306
 outer loop
  vertex 511500.0 5405500.0 5801.10009765625
  vertex 512500.0 5405500.0 5823.10009765625
  vertex 512500.0 5404500.0 5894.0
 endloop
endfacet
facet normal -0.5194968581199646 -0.060430314391851425 -0.8523328304290771
 outer loop
  vertex 512500.0 5405500.0 5823.10009765625
  vertex 513500.0 5404500.0 5284.5
  vertex 512500.0 5404500.0 5894.0
 endloop
endfacet
facet normal -0.4446812570095062 0.03731799125671387 -0.8949111700057983
 outer loop
  vertex 512500.0 5405500.0 5823.10009765625
  vertex 513500.0 5405500.0 5326.2001953125
  vertex 513500.0 5404500.0 5284.5
 endloop
endfacet
facet normal -0.3206336200237274 0.03946426510810852 -0.9463807940483093
 outer loop
  vertex 513500.0 5405500.0 5326.2001953125
  vertex 514500.0 5404500.0 4945.7001953125
  vertex 513500.0 5404500.0 5284.5
 endloop
endfacet
facet normal -0.2601166367530823 0.10510247945785522 -0.9598399996757507
 outer loop
  vertex 513500.0 5405500.0 5326.2001953125
  vertex 514500.0 5405500.0 5055.2001953125
  vertex 514500.0 5404500.0 4945.7001953125
 endloop
endfacet
facet normal -0.09842851012945175 0.10832081735134125 -0.9892312288284302
 outer loop
  vertex 514500.0 5405500.0 5055.2001953125
  vertex 515500.0 5404500.0 4846.2001953125
  vertex 514500.0 5404500.0 4945.7001953125
 endloop
endfacet
facet normal -0.21735559403896332 -0.013371395878493786 -0.9760009050369263
 outer loop
  vertex 514500.0 5405500.0 5055.2001953125
  vertex 515500.0 5405500.0 4832.5
  vertex 515500.0 5404500.0 4846.2001953125
 endloop
endfacet
facet normal 0.03397718071937561 -0.013690999709069729 -0.9993288516998291
 outer loop
  vertex 515500.0 5405500.0 4832.5
  vertex 516500.0 5404500.0 4880.2001953125
  vertex 515500.0 5404500.0 4846.2001953125
 endloop
endfacet
facet normal 0.2698177695274353 0.22516006231307983 -0.9362165331840515
 outer loop
  vertex 515500.0 5405500.0 4832.5
  vertex 516500.0 5405500.0 5120.7001953125
  vertex 516500.0 5404500.0 4880.2001953125
 endloop
endfacet
facet normal 0.34656763076782227 0.21934081614017487 -0.9120200276374817
 outer loop
  vertex 516500.0 5405500.0 5120.7001953125
  vertex 517500.0 5404500.0 5260.2001953125
  vertex 516500.0 5404500.0 4880.2001953125
 endloop
endfacet
facet normal 0.36639854311943054 0.24103030562400818 -0.8986970782279968
 outer loop
  vertex 516500.0 5405500.0 5120.7001953125
  vertex 517500.0 5405500.0 5528.39990234375
  vertex 517500.0 5404500.0 5260.2001953125
 endloop
endfacet
facet normal 0.08269328624010086 -0.023214193060994148 -0.9963046312332153
 outer loop
  vertex 505500.0 5406500.0 5758.89990234375
  vertex 506500.0 5406500.0 5841.89990234375
  vertex 506500.0 5405500.0 5865.2001953125
 endloop
endfacet
facet normal 0.11509839445352554 -0.023139161989092827 -0.9930846095085144
 outer loop
  vertex 506500.0 5406500.0 5841.89990234375
  vertex 507500.0 5405500.0 5981.10009765625
  vertex 506500.0 5405500.0 5865.2001953125
 endloop
endfacet
facet normal 0.00465819938108325 -0.13329824805259705 -0.9910650253295898
 outer loop
  vertex 506500.0 5406500.0 5841.89990234375
  vertex 507500.0 5406500.0 5846.60009765625
  vertex 507500.0 5405500.0 5981.10009765625
 endloop
endfacet
facet normal -0.030708858743309975 -0.133236825466156 -0.9906083345413208
 outer loop
  vertex 507500.0 5406500.0 5846.60009765625
  vertex 508500.0 5405500.0 5950.10009765625
  vertex 507500.0 5405500.0 5981.10009765625
 endloop
endfacet
facet normal 0.03599504008889198 -0.06720376014709473 -0.9970898032188416
 outer loop
  vertex 507500.0 5406500.0 5846.60009765625
  vertex 508500.0 5406500.0 5882.7001953125
  vertex 508500.0 5405500.0 5950.10009765625
 endloop
endfacet
facet normal -0.1586984246969223 -0.0663951188325882 -0.9850921034812927
 outer loop
  vertex 508500.0 5406500.0 5882.7001953125
  vertex 509500.0 5405500.0 5789.0
  vertex 508500.0 5405500.0 5950.10009765625
 endloop
endfacet
facet normal 0.25715553760528564 0.34184980392456055 -0.9038858413696289
 outer loop
  vertex 508500.0 5406500.0 5882.7001953125
  vertex 509500.0 5406500.0 6167.2001953125
  vertex 509500.0 5405500.0 5789.0
 endloop
endfacet
facet normal 0.04429158940911293 0.3533991575241089 -0.934423565864563
 outer loop
  vertex 509500.0 5406500.0 6167.2001953125
  vertex 510500.0 5405500.0 5836.39990234375
  vertex 509500.0 5405500.0 5789.0
 endloop
endfacet
facet normal -0.3361147940158844 -0.024666983634233475 -0.9414980411529541
 outer loop
  vertex 509500.0 5406500.0 6167.2001953125
  vertex 510500.0 5406500.0 5810.2001953125
  vertex 510500.0 5405500.0 5836.39990234375
 endloop
endfacet
facet normal -0.03526574373245239 -0.026174427941441536 -0.999035120010376
 outer loop
  vertex 510500.0 5406500.0 5810.2001953125
  vertex 511500.0 5405500.0 5801.10009765625
  vertex 510500.0 5405500.0 5836.39990234375
 endloop
endfacet
facet normal -0.34377020597457886 -0.3357897400856018 -0.876964807510376
 outer loop
  vertex 510500.0 5406500.0 5810.2001953125
  vertex 511500.0 5406500.0 5418.2001953125
  vertex 511500.0 5405500.0 5801.10009765625
 endloop
endfacet
facet normal 0.020541056990623474 -0.3575076460838318 -0.9336843490600586
 outer loop
  vertex 511500.0 5406500.0 5418.2001953125
  vertex 512500.0 5405500.0 5823.10009765625
  vertex 511500.0 5405500.0 5801.10009765625
 endloop
endfacet
facet normal 0.05203498527407646 -0.3296510875225067 -0.9426677823066711
 outer loop
  vertex 511500.0 5406500.0 5418.2001953125
  vertex 512500.0 5406500.0 5473.39990234375
  vertex 512500.0 5405500.0 5823.10009765625
 endloop
endfacet
facet normal -0.4246542453765869 -0.29885631799697876 -0.8546072840690613
 outer loop
  vertex 512500.0 5406500.0 5473.39990234375
  vertex 513500.0 5405500.0 5326.2001953125
  vertex 512500.0 5405500.0 5823.10009765625
 endloop
endfacet
facet normal 0.4030451774597168 0.514459490776062 -0.7568923234939575
 outer loop
  vertex 512500.0 5406500.0 5473.39990234375
  vertex 513500.0 5406500.0 6005.89990234375
  vertex 513500.0 5405500.0 5326.2001953125
 endloop
endfacet
facet normal -0.21870258450508118 0.5485316514968872 -0.8070206046104431
 outer loop
  vertex 513500.0 5406500.0 6005.89990234375
  vertex 514500.0 5405500.0 5055.2001953125
  vertex 513500.0 5405500.0 5326.2001953125
 endloop
endfacet
facet normal -0.5582664012908936 0.20583321154117584 -0.8037233948707581
 outer loop
  vertex 513500.0 5406500.0 6005.89990234375
  vertex 514500.0 5406500.0 5311.2998046875
  vertex 514500.0 5405500.0 5055.2001953125
 endloop
endfacet
facet normal -0.21088595688343048 0.2425135225057602 -0.9469499588012695
 outer loop
  vertex 514500.0 5406500.0 5311.2998046875
  vertex 515500.0 5405500.0 4832.5
  vertex 514500.0 5405500.0 5055.2001953125
 endloop
endfacet
facet normal -0.20420505106449127 0.24907949566841125 -0.946709930896759
 outer loop
  vertex 514500.0 5406500.0 5311.2998046875
  vertex 515500.0 5406500.0 5095.60009765625
  vertex 515500.0 5405500.0 4832.5
 endloop
endfacet
facet normal 0.26848194003105164 0.24509915709495544 -0.9315813779830933
 outer loop
  vertex 515500.0 5406500.0 5095.60009765625
  vertex 516500.0 5405500.0 5120.7001953125
  vertex 515500.0 5405500.0 4832.5
 endloop
endfacet
facet normal -0.018180152401328087 -0.0432526096701622 -0.9988988041877747
 outer loop
  vertex 515500.0 5406500.0 5095.60009765625
  vertex 516500.0 5406500.0 5077.39990234375
  vertex 516500.0 5405500.0 5120.7001953125
 endloop
endfacet
facet normal 0.3772259056568146 -0.040063779801130295 -0.9252542853355408
 outer loop
  vertex 516500.0 5406500.0 5077.39990234375
  vertex 517500.0 5405500.0 5528.39990234375
  vertex 516500.0 5405500.0 5120.7001953125
 endloop
endfacet
facet normal 0.2930886149406433 -0.1338588148355484 -0.9466683864593506
 outer loop
  vertex 516500.0 5406500.0 5077.39990234375
  vertex 517500.0 5406500.0 5387.0
  vertex 517500.0 5405500.0 5528.39990234375
 endloop
endfacet
facet normal 0.004610189236700535 -0.19469915330410004 -0.9808521866798401
 outer loop
  vertex 506500.0 5407500.0 5643.39990234375
  vertex 507500.0 5406500.0 5846.60009765625
  vertex 506500.0 5406500.0 5841.89990234375
 endloop
endfacet
facet normal 0.03469282388687134 -0.1655784696340561 -0.9855861663818359
 outer loop
  vertex 506500.0 5407500.0 5643.39990234375
  vertex 507500.0 5407500.0 5678.60009765625
  vertex 507500.0 5406500.0 5846.60009765625
 endloop
endfacet
facet normal 0.0355786457657814 -0.1655733287334442 -0.9855555295944214
 outer loop
  vertex 507500.0 5407500.0 5678.60009765625
  vertex 508500.0 5406500.0 5882.7001953125
  vertex 507500.0 5406500.0 5846.60009765625
 endloop
endfacet
facet normal -0.32840338349342346 -0.214336097240448 -0.9198973774909973
 outer loop
  vertex 509500.0 5407500.0 5934.2001953125
  vertex 510500.0 5406500.0 5810.2001953125
  vertex 509500.0 5406500.0 6167.2001953125
 endloop
endfacet
facet normal -0.3223932683467865 -0.20787951350212097 -0.9234980940818787
 outer loop
  vertex 509500.0 5407500.0 5934.2001953125
  vertex 510500.0 5407500.0 5585.10009765625
  vertex 510500.0 5406500.0 5810.2001953125
 endloop
endfacet
facet normal -0.3572009205818176 -0.20511724054813385 -0.9112268090248108
 outer loop
  vertex 510500.0 5407500.0 5585.10009765625
  vertex 511500.0 5406500.0 5418.2001953125
  vertex 510500.0 5406500.0 5810.2001953125
 endloop
endfacet
facet normal 0.007978588342666626 0.17237484455108643 -0.9849990606307983
 outer loop
  vertex 510500.0 5407500.0 5585.10009765625
  vertex 511500.0 5407500.0 5593.2001953125
  vertex 511500.0 5406500.0 5418.2001953125
 endloop
endfacet
facet normal 0.0542931891977787 0.17212606966495514 -0.98357754945755
 outer loop
  vertex 511500.0 5407500.0 5593.2001953125
  vertex 512500.0 5406500.0 5473.39990234375
  vertex 511500.0 5406500.0 5418.2001953125
 endloop
endfacet
facet normal -0.10658112913370132 0.012527337297797203 -0.9942250847816467
 outer loop
  vertex 511500.0 5407500.0 5593.2001953125
  vertex 512500.0 5407500.0 5486.0
  vertex 512500.0 5406500.0 5473.39990234375
 endloop
endfacet
facet normal 0.4699864089488983 0.011120891198515892 -0.8826035857200623
 outer loop
  vertex 512500.0 5407500.0 5486.0
  vertex 513500.0 5406500.0 6005.89990234375
  vertex 512500.0 5406500.0 5473.39990234375
 endloop
endfacet
facet normal 0.32300621271133423 -0.1617828905582428 -0.9324662685394287
 outer loop
  vertex 512500.0 5407500.0 5486.0
  vertex 513500.0 5407500.0 5832.39990234375
  vertex 513500.0 5406500.0 6005.89990234375
 endloop
endfacet
facet normal -0.5647768378257751 -0.14107222855091095 -0.8130964040756226
 outer loop
  vertex 513500.0 5407500.0 5832.39990234375
  vertex 514500.0 5406500.0 5311.2998046875
  vertex 513500.0 5406500.0 6005.89990234375
 endloop
endfacet
facet normal -0.6059196591377258 -0.20543153584003448 -0.7685436010360718
 outer loop
  vertex 513500.0 5407500.0 5832.39990234375
  vertex 514500.0 5407500.0 5044.0
  vertex 514500.0 5406500.0 5311.2998046875
 endloop
endfacet
facet normal -0.2040015310049057 -0.25280317664146423 -0.9457663297653198
 outer loop
  vertex 514500.0 5407500.0 5044.0
  vertex 515500.0 5406500.0 5095.60009765625
  vertex 514500.0 5406500.0 5311.2998046875
 endloop
endfacet
facet normal -0.23105189204216003 -0.27914509177207947 -0.9320369958877563
 outer loop
  vertex 514500.0 5407500.0 5044.0
  vertex 515500.0 5407500.0 4796.10009765625
  vertex 515500.0 5406500.0 5095.60009765625
 endloop
endfacet
facet normal -0.01743236556649208 -0.2868648171424866 -0.9578124284744263
 outer loop
  vertex 515500.0 5407500.0 4796.10009765625
  vertex 516500.0 5406500.0 5077.39990234375
  vertex 515500.0 5406500.0 5095.60009765625
 endloop
endfacet
facet normal 0.5275149941444397 0.30440592765808105 -0.7931361794471741
 outer loop
  vertex 515500.0 5407500.0 4796.10009765625
  vertex 516500.0 5407500.0 5461.2001953125
  vertex 516500.0 5406500.0 5077.39990234375
 endloop
endfacet
facet normal 0.2776760756969452 0.3442252278327942 -0.8968863487243652
 outer loop
  vertex 516500.0 5407500.0 5461.2001953125
  vertex 517500.0 5406500.0 5387.0
  vertex 516500.0 5406500.0 5077.39990234375
 endloop
endfacet
facet normal 0.03378978371620178 0.278188556432724 -0.9599319696426392
 outer loop
  vertex 506500.0 5408500.0 5933.2001953125
  vertex 507500.0 5407500.0 5678.60009765625
  vertex 506500.0 5407500.0 5643.39990234375
 endloop
endfacet
facet normal 0.008086387068033218 -0.05760250240564346 -0.9983068704605103
 outer loop
  vertex 510500.0 5408500.0 5527.39990234375
  vertex 511500.0 5407500.0 5593.2001953125
  vertex 510500.0 5407500.0 5585.10009765625
 endloop
endfacet
facet normal -0.004688019398599863 -0.07032467424869537 -0.9975131154060364
 outer loop
  vertex 510500.0 5408500.0 5527.39990234375
  vertex 511500.0 5408500.0 5522.7001953125
  vertex 511500.0 5407500.0 5593.2001953125
 endloop
endfacet
facet normal -0.1063285768032074 -0.06992677599191666 -0.9918692111968994
 outer loop
  vertex 511500.0 5408500.0 5522.7001953125
  vertex 512500.0 5407500.0 5486.0
  vertex 511500.0 5407500.0 5593.2001953125
 endloop
endfacet
facet normal -0.29777926206588745 -0.2641115188598633 -0.9173727035522461
 outer loop
  vertex 511500.0 5408500.0 5522.7001953125
  vertex 512500.0 5408500.0 5198.10009765625
  vertex 512500.0 5407500.0 5486.0
 endloop
endfacet
facet normal 0.3158397376537323 -0.26250073313713074 -0.9117777347564697
 outer loop
  vertex 512500.0 5408500.0 5198.10009765625
  vertex 513500.0 5407500.0 5832.39990234375
  vertex 512500.0 5407500.0 5486.0
 endloop
endfacet
facet normal 0.19758182764053345 -0.3765190541744232 -0.9050939083099365
 outer loop
  vertex 512500.0 5408500.0 5198.10009765625
  vertex 513500.0 5408500.0 5416.39990234375
  vertex 513500.0 5407500.0 5832.39990234375
 endloop
endfacet
facet normal -0.5885170698165894 -0.3105316162109375 -0.7464702725410461
 outer loop
  vertex 513500.0 5408500.0 5416.39990234375
  vertex 514500.0 5407500.0 5044.0
  vertex 513500.0 5407500.0 5832.39990234375
 endloop
endfacet
facet normal -0.20440545678138733 0.15550269186496735 -0.9664560556411743
 outer loop
  vertex 513500.0 5408500.0 5416.39990234375
  vertex 514500.0 5408500.0 5204.89990234375
  vertex 514500.0 5407500.0 5044.0
 endloop
endfacet
facet normal -0.23773495852947235 0.15430232882499695 -0.9589957594871521
 outer loop
  vertex 514500.0 5408500.0 5204.89990234375
  vertex 515500.0 5407500.0 4796.10009765625
  vertex 514500.0 5407500.0 5044.0
 endloop
endfacet
facet normal -0.3226942718029022 0.06336796283721924 -0.9443796873092651
 outer loop
  vertex 514500.0 5408500.0 5204.89990234375
  vertex 515500.0 5408500.0 4863.2001953125
  vertex 515500.0 5407500.0 4796.10009765625
 endloop
endfacet
facet normal 0.5529345273971558 0.05578402057290077 -0.8313553333282471
 outer loop
  vertex 515500.0 5408500.0 4863.2001953125
  vertex 516500.0 5407500.0 5461.2001953125
  vertex 515500.0 5407500.0 4796.10009765625
 endloop
endfacet
facet normal 0.4841756820678711 -0.03854885697364807 -0.8741213083267212
 outer loop
  vertex 515500.0 5408500.0 4863.2001953125
  vertex 516500.0 5408500.0 5417.10009765625
  vertex 516500.0 5407500.0 5461.2001953125
 endloop
endfacet
facet normal 0.10863970965147018 0.4343802332878113 -0.8941539525985718
 outer loop
  vertex 509500.0 5409500.0 5891.7001953125
  vertex 510500.0 5409500.0 6013.2001953125
  vertex 510500.0 5408500.0 5527.39990234375
 endloop
endfacet
facet normal -0.004227255005389452 0.43696266412734985 -0.8994697332382202
 outer loop
  vertex 510500.0 5409500.0 6013.2001953125
  vertex 511500.0 5408500.0 5522.7001953125
  vertex 510500.0 5408500.0 5527.39990234375
 endloop
endfacet
facet normal -0.28970426321029663 0.1721087247133255 -0.9415147304534912
 outer loop
  vertex 510500.0 5409500.0 6013.2001953125
  vertex 511500.0 5409500.0 5705.5
  vertex 511500.0 5408500.0 5522.7001953125
 endloop
endfacet
facet normal -0.30417853593826294 0.17129933834075928 -0.9370869994163513
 outer loop
  vertex 511500.0 5409500.0 5705.5
  vertex 512500.0 5408500.0 5198.10009765625
  vertex 511500.0 5408500.0 5522.7001953125
 endloop
endfacet
facet normal -0.09600260108709335 0.37237921357154846 -0.9231019020080566
 outer loop
  vertex 511500.0 5409500.0 5705.5
  vertex 512500.0 5409500.0 5601.5
  vertex 512500.0 5408500.0 5198.10009765625
 endloop
endfacet
facet normal 0.19842270016670227 0.3666686415672302 -0.9089457988739014
 outer loop
  vertex 512500.0 5409500.0 5601.5
  vertex 513500.0 5408500.0 5416.39990234375
  vertex 512500.0 5408500.0 5198.10009765625
 endloop
endfacet
facet normal -0.1475706696510315 0.035385653376579285 -0.9884182810783386
 outer loop
  vertex 512500.0 5409500.0 5601.5
  vertex 513500.0 5409500.0 5452.2001953125
  vertex 513500.0 5408500.0 5416.39990234375
 endloop
endfacet
facet normal -0.20679575204849243 0.035004012286663055 -0.9777577519416809
 outer loop
  vertex 513500.0 5409500.0 5452.2001953125
  vertex 514500.0 5408500.0 5204.89990234375
  vertex 513500.0 5408500.0 5416.39990234375
 endloop
endfacet
facet normal -0.2936895489692688 -0.05772643908858299 -0.9541562795639038
 outer loop
  vertex 513500.0 5409500.0 5452.2001953125
  vertex 514500.0 5409500.0 5144.39990234375
  vertex 514500.0 5408500.0 5204.89990234375
 endloop
endfacet
facet normal -0.32281553745269775 -0.05715643987059593 -0.9447345733642578
 outer loop
  vertex 514500.0 5409500.0 5144.39990234375
  vertex 515500.0 5408500.0 4863.2001953125
  vertex 514500.0 5408500.0 5204.89990234375
 endloop
endfacet
facet normal 0.14725585281848907 0.40145060420036316 -0.9039652347564697
 outer loop
  vertex 514500.0 5409500.0 5144.39990234375
  vertex 515500.0 5409500.0 5307.2998046875
  vertex 515500.0 5408500.0 4863.2001953125
 endloop
endfacet
facet normal 0.4516511559486389 0.36211973428726196 -0.8154020309448242
 outer loop
  vertex 515500.0 5409500.0 5307.2998046875
  vertex 516500.0 5408500.0 5417.10009765625
  vertex 515500.0 5408500.0 4863.2001953125
 endloop
endfacet
facet normal -0.41580483317375183 -0.49927011132240295 -0.7601550817489624
 outer loop
  vertex 515500.0 5409500.0 5307.2998046875
  vertex 516500.0 5409500.0 4760.2998046875
  vertex 516500.0 5408500.0 5417.10009765625
 endloop
endfacet
facet normal -0.2880353033542633 -0.2019149512052536 -0.9360907673835754
 outer loop
  vertex 510500.0 5410500.0 5797.5
  vertex 511500.0 5409500.0 5705.5
  vertex 510500.0 5409500.0 6013.2001953125
 endloop
endfacet
facet normal -0.15763553977012634 -0.06699510663747787 -0.9852221608161926
 outer loop
  vertex 510500.0 5410500.0 5797.5
  vertex 511500.0 5410500.0 5637.5
  vertex 511500.0 5409500.0 5705.5
 endloop
endfacet
facet normal -0.10320629924535751 -0.06748104095458984 -0.9923682808876038
 outer loop
  vertex 511500.0 5410500.0 5637.5
  vertex 512500.0 5409500.0 5601.5
  vertex 511500.0 5409500.0 5705.5
 endloop
endfacet
facet normal -0.47873082756996155 0.06966548413038254 -0.8751934766769409
 outer loop
  vertex 515500.0 5410500.0 5386.89990234375
  vertex 516500.0 5409500.0 4760.2998046875
  vertex 515500.0 5409500.0 5307.2998046875
 endloop
endfacet
facet normal -0.1420011967420578 0.41972872614860535 -0.8964727520942688
 outer loop
  vertex 515500.0 5410500.0 5386.89990234375
  vertex 516500.0 5410500.0 5228.5
  vertex 516500.0 5409500.0 4760.2998046875
 endloop
endfacet
facet normal -0.15423701703548431 -0.16757714748382568 -0.97371906042099
 outer loop
  vertex 515500.0 5411500.0 5214.7998046875
  vertex 516500.0 5410500.0 5228.5
  vertex 515500.0 5410500.0 5386.89990234375
 endloop
endfacet
endsolid
